<svg fill="none" height="731" stroke-linecap="square" stroke-miterlimit="10" viewBox="0 0 580 731" width="580" xmlns="http://www.w3.org/2000/svg" xmlns:xlink="http://www.w3.org/1999/xlink"><clipPath id="a"><path d="m114 29h437v646h-437z"/></clipPath><path d="m0 0h580v731h-580z" fill="none"/><path d="m114.5 29.5v646" stroke="#333" stroke-linecap="butt"/><path d="m256.5 29.5v646" stroke="#ccc" stroke-linecap="butt"/><path d="m399.5 29.5v646" stroke="#ccc" stroke-linecap="butt"/><path d="m541.5 29.5v646" stroke="#ccc" stroke-linecap="butt"/><path d="m161.5 29.5v646"/><path d="m209.5 29.5v646"/><path d="m304.5 29.5v646"/><path d="m351.5 29.5v646"/><path d="m446.5 29.5v646"/><path d="m494.5 29.5v646"/><path d="m114.5 675.5v-646" stroke="#000" stroke-linecap="butt"/><path clip-path="url(#a)" d="m114 86v-37h435c1.10455 0 2 .89543 2 2v33c0 1.10457-.89545 2-2 2z"/><path clip-path="url(#a)" d="m114 86v-37h435c1.10455 0 2 .89543 2 2v33c0 1.10457-.89545 2-2 2z" fill="#c00000"/><path clip-path="url(#a)" d="m114 143v-37h50c1.10457 0 2 .89543 2 2v33c0 1.10457-.89543 2-2 2z"/><path clip-path="url(#a)" d="m114 143v-37h50c1.10457 0 2 .89543 2 2v33c0 1.10457-.89543 2-2 2z" fill="#c00000"/><path clip-path="url(#a)" d="m114 200v-37h47c1.10457 0 2 .89543 2 2v33c0 1.10457-.89543 2-2 2z"/><path clip-path="url(#a)" d="m114 200v-37h47c1.10457 0 2 .89543 2 2v33c0 1.10457-.89543 2-2 2z" fill="#c00000"/><path clip-path="url(#a)" d="m114 257v-37h36c1.10457 0 2 .89543 2 2v33c0 1.10458-.89543 2-2 2z"/><path clip-path="url(#a)" d="m114 257v-37h36c1.10457 0 2 .89543 2 2v33c0 1.10458-.89543 2-2 2z" fill="#c00000"/><path clip-path="url(#a)" d="m114 314v-37h35c1.10457 0 2 .89542 2 2v33c0 1.10458-.89543 2-2 2z"/><path clip-path="url(#a)" d="m114 314v-37h35c1.10457 0 2 .89542 2 2v33c0 1.10458-.89543 2-2 2z" fill="#c00000"/><path clip-path="url(#a)" d="m114 371v-37h32c1.10457 0 2 .89542 2 2v33c0 1.10458-.89543 2-2 2z"/><path clip-path="url(#a)" d="m114 371v-37h32c1.10457 0 2 .89542 2 2v33c0 1.10458-.89543 2-2 2z" fill="#c00000"/><path clip-path="url(#a)" d="m114 428v-37h29c1.10457 0 2 .89542 2 2v33c0 1.10458-.89543 2-2 2z"/><path clip-path="url(#a)" d="m114 428v-37h29c1.10457 0 2 .89542 2 2v33c0 1.10458-.89543 2-2 2z" fill="#c00000"/><path clip-path="url(#a)" d="m114 485v-37h28c1.10457 0 2 .89542 2 2v33c0 1.10458-.89543 2-2 2z"/><path clip-path="url(#a)" d="m114 485v-37h28c1.10457 0 2 .89542 2 2v33c0 1.10458-.89543 2-2 2z" fill="#c00000"/><path clip-path="url(#a)" d="m114 542v-37h26c1.10457 0 2 .89542 2 2v33c0 1.10455-.89543 2-2 2z"/><path clip-path="url(#a)" d="m114 542v-37h26c1.10457 0 2 .89542 2 2v33c0 1.10455-.89543 2-2 2z" fill="#c00000"/><path clip-path="url(#a)" d="m114 599v-37h13c1.10457 0 2 .89545 2 2v33c0 1.10455-.89543 2-2 2z"/><path clip-path="url(#a)" d="m114 599v-37h13c1.10457 0 2 .89545 2 2v33c0 1.10455-.89543 2-2 2z" fill="#c00000"/><path clip-path="url(#a)" d="m114 656v-37h126c1.10457 0 2 .89545 2 2v33c0 1.10455-.89543 2-2 2z"/><path clip-path="url(#a)" d="m114 656v-37h126c1.10457 0 2 .89545 2 2v33c0 1.10455-.89543 2-2 2z" fill="#c00000"/><path d="m114.5 681.5v-12" stroke="#000" stroke-linecap="butt"/><path d="m256.5 681.5v-12" stroke="#000" stroke-linecap="butt"/><path d="m399.5 681.5v-12" stroke="#000" stroke-linecap="butt"/><path d="m541.5 681.5v-12" stroke="#000" stroke-linecap="butt"/><path d="m513.3719 62.875v1.40625h-.15626q-1.15624.015625-1.85938.59375-.6875.578125-.82812 1.609375.67186-.6875 1.70312-.6875 1.125 0 1.78124.796875.65626.796875.65626 2.09375 0 .828125-.35936 1.5-.3594.671875-1.03126 1.0625-.65624.375-1.48438.375-1.34376 0-2.17186-.9375-.82814-.953125-.82814-2.515625v-.609375q0-1.390625.51564-2.453125.53124-1.0625 1.5-1.640625.98436-.578125 2.28124-.59375zm-1.65626 4.28125q-.40624 0-.75.21875-.32814.203125-.48438.5625v.515625q0 .84375.32814 1.328125.34374.46875.9531.46875.5469 0 .875-.421875.34376-.4375.34376-1.125 0-.703125-.34376-1.125-.34374-.421875-.92186-.421875zm8.17186 4.34375h-1.6875v-6.53125l-2.0156.625v-1.375l3.53124-1.265625h.17186zm8.7344 0h-5.84376v-1.15625l2.76562-2.953125q.5625-.609375.82814-1.078125.28124-.46875.28124-.875 0-.578125-.29688-.890625-.28126-.328125-.8125-.328125-.57812 0-.90626.390625-.3281.390625-.3281 1.046875h-1.70314q0-.78125.375-1.421875.375-.65625 1.04688-1.015625.6875-.375 1.54686-.375 1.3125 0 2.0469.640625.73436.625.73436 1.78125 0 .640625-.32812 1.296875-.32814.65625-1.125 1.53125l-1.9375 2.046875h3.65626zm1.3125-.828125q0-.40625.2656-.65625.28126-.25.6875-.25.4219 0 .6875.25.28126.25.28126.65625 0 .390625-.28126.640625-.2656.25-.6875.25-.40624 0-.6875-.25-.2656-.25-.2656-.640625zm8.40624-5.4375q0 .625-.3125 1.109375-.3125.46875-.85938.765625.625.296875.98438.828125.375.515625.375 1.21875 0 1.140625-.78124 1.8125-.76564.65625-2.1094.65625-1.3281 0-2.10936-.65625-.76564-.671875-.76564-1.8125 0-.703125.3594-1.234375.35936-.53125.98436-.8125-.54686-.296875-.85936-.765625-.3125-.484375-.3125-1.109375 0-1.09375.71874-1.734375.73436-.65625 1.98436-.65625 1.25 0 1.96876.65625.73438.640625.73438 1.734375zm-1.51564 3.796875q0-.546875-.3281-.875-.3125-.34375-.8594-.34375-.54686 0-.875.328125-.3125.328125-.3125.890625 0 .546875.3125.890625.32814.328125.89064.328125.54686 0 .85936-.3125.3125-.328125.3125-.90625zm-.17186-3.71875q0-.5-.26564-.796875-.2656-.296875-.75-.296875-.46874 0-.73436.296875-.26564.28125-.26564.796875 0 .515625.26564.828125.26562.3125.73436.3125.4844 0 .75-.3125.26564-.3125.26564-.828125zm8.875 2.65625q0 1.765625-.73438 2.71875-.73436.9375-2.14062.9375-1.40624 0-2.14064-.921875-.73436-.921875-.75-2.640625v-1.578125q0-1.78125.7344-2.703125.75-.9375 2.1406-.9375 1.39064 0 2.125.921875.75.921875.76564 2.640625zm-1.70314-1.71875q0-1.0625-.29686-1.546875-.28124-.484375-.89064-.484375-.59374 0-.8906.46875-.28126.453125-.2969 1.4375v2.0625q0 1.046875.28126 1.5625.28124.5.92188.5.60936 0 .89062-.484375.28124-.484375.28124-1.484375z" stroke="#c00000" stroke-linecap="round" stroke-linejoin="round" stroke-width="3"/><path d="m513.3719 62.875v1.40625h-.15626q-1.15624.015625-1.85938.59375-.6875.578125-.82812 1.609375.67186-.6875 1.70312-.6875 1.125 0 1.78124.796875.65626.796875.65626 2.09375 0 .828125-.35936 1.5-.3594.671875-1.03126 1.0625-.65624.375-1.48438.375-1.34376 0-2.17186-.9375-.82814-.953125-.82814-2.515625v-.609375q0-1.390625.51564-2.453125.53124-1.0625 1.5-1.640625.98436-.578125 2.28124-.59375zm-1.65626 4.28125q-.40624 0-.75.21875-.32814.203125-.48438.5625v.515625q0 .84375.32814 1.328125.34374.46875.9531.46875.5469 0 .875-.421875.34376-.4375.34376-1.125 0-.703125-.34376-1.125-.34374-.421875-.92186-.421875zm8.17186 4.34375h-1.6875v-6.53125l-2.0156.625v-1.375l3.53124-1.265625h.17186zm8.7344 0h-5.84376v-1.15625l2.76562-2.953125q.5625-.609375.82814-1.078125.28124-.46875.28124-.875 0-.578125-.29688-.890625-.28126-.328125-.8125-.328125-.57812 0-.90626.390625-.3281.390625-.3281 1.046875h-1.70314q0-.78125.375-1.421875.375-.65625 1.04688-1.015625.6875-.375 1.54686-.375 1.3125 0 2.0469.640625.73436.625.73436 1.78125 0 .640625-.32812 1.296875-.32814.65625-1.125 1.53125l-1.9375 2.046875h3.65626zm1.3125-.828125q0-.40625.2656-.65625.28126-.25.6875-.25.4219 0 .6875.25.28126.25.28126.65625 0 .390625-.28126.640625-.2656.25-.6875.25-.40624 0-.6875-.25-.2656-.25-.2656-.640625zm8.40624-5.4375q0 .625-.3125 1.109375-.3125.46875-.85938.765625.625.296875.98438.828125.375.515625.375 1.21875 0 1.140625-.78124 1.8125-.76564.65625-2.1094.65625-1.3281 0-2.10936-.65625-.76564-.671875-.76564-1.8125 0-.703125.3594-1.234375.35936-.53125.98436-.8125-.54686-.296875-.85936-.765625-.3125-.484375-.3125-1.109375 0-1.09375.71874-1.734375.73436-.65625 1.98436-.65625 1.25 0 1.96876.65625.73438.640625.73438 1.734375zm-1.51564 3.796875q0-.546875-.3281-.875-.3125-.34375-.8594-.34375-.54686 0-.875.328125-.3125.328125-.3125.890625 0 .546875.3125.890625.32814.328125.89064.328125.54686 0 .85936-.3125.3125-.328125.3125-.90625zm-.17186-3.71875q0-.5-.26564-.796875-.2656-.296875-.75-.296875-.46874 0-.73436.296875-.26564.28125-.26564.796875 0 .515625.26564.828125.26562.3125.73436.3125.4844 0 .75-.3125.26564-.3125.26564-.828125zm8.875 2.65625q0 1.765625-.73438 2.71875-.73436.9375-2.14062.9375-1.40624 0-2.14064-.921875-.73436-.921875-.75-2.640625v-1.578125q0-1.78125.7344-2.703125.75-.9375 2.1406-.9375 1.39064 0 2.125.921875.75.921875.76564 2.640625zm-1.70314-1.71875q0-1.0625-.29686-1.546875-.28124-.484375-.89064-.484375-.59374 0-.8906.46875-.28126.453125-.2969 1.4375v2.0625q0 1.046875.28126 1.5625.28124.5.92188.5.60936 0 .89062-.484375.28124-.484375.28124-1.484375z" fill="#fff"/><path d="m136.70316 120.921875-3.29688 7.578125h-1.78125l3.29687-7.15625h-4.23437v-1.375h6.01563zm2.92187 2.5625h.90625q.64062 0 .95312-.3125.3125-.328125.3125-.859375 0-.515625-.3125-.796875-.29687-.296875-.84374-.296875-.48438 0-.8125.265625-.32813.265625-.32813.6875h-1.6875q0-.65625.35937-1.1875.35938-.53125 1-.828125.65626-.3125 1.4375-.3125 1.34376 0 2.10938.65625.78125.640625.78125 1.78125 0 .59375-.35937 1.09375-.35938.484375-.9375.734375.71874.265625 1.0625.78125.35937.515625.35937 1.21875 0 1.140625-.82813 1.828125-.82812.6875-2.1875.6875-1.28124 0-2.09374-.671875-.8125-.6875-.8125-1.796875h1.6875q0 .484375.35937.796875.375.296875.89063.296875.60937 0 .95312-.3125.34375-.328125.34375-.859375 0-1.265625-1.40625-1.265625h-.90625zm5.4375 4.1875q0-.40625.26563-.65625.28124-.25.6875-.25.42187 0 .6875.25.28124.25.28124.65625 0 .390625-.28124.640625-.26563.25-.6875.25-.40626 0-.6875-.25-.26563-.25-.26563-.640625zm6.95313.828125h-1.6875v-6.53125l-2.01563.625v-1.375l3.53125-1.265625h.17188zm8.64062-3.53125q0 1.765625-.73438 2.71875-.73437.9375-2.14062.9375-1.40625 0-2.14062-.921875-.73438-.921875-.75-2.640625v-1.578125q0-1.78125.73437-2.703125.75-.9375 2.14063-.9375 1.39062 0 2.125.921875.75.921875.76562 2.640625zm-1.70312-1.71875q0-1.0625-.29688-1.546875-.28125-.484375-.89062-.484375-.59376 0-.89063.46875-.28125.453125-.29687 1.4375v2.0625q0 1.046875.28124 1.5625.28126.5.92188.5.60938 0 .89062-.484375.28126-.484375.28126-1.484375z" stroke="#c00000" stroke-linecap="round" stroke-linejoin="round" stroke-width="3"/><path d="m136.70316 120.921875-3.29688 7.578125h-1.78125l3.29687-7.15625h-4.23437v-1.375h6.01563zm2.92187 2.5625h.90625q.64062 0 .95312-.3125.3125-.328125.3125-.859375 0-.515625-.3125-.796875-.29687-.296875-.84374-.296875-.48438 0-.8125.265625-.32813.265625-.32813.6875h-1.6875q0-.65625.35937-1.1875.35938-.53125 1-.828125.65626-.3125 1.4375-.3125 1.34376 0 2.10938.65625.78125.640625.78125 1.78125 0 .59375-.35937 1.09375-.35938.484375-.9375.734375.71874.265625 1.0625.78125.35937.515625.35937 1.21875 0 1.140625-.82813 1.828125-.82812.6875-2.1875.6875-1.28124 0-2.09374-.671875-.8125-.6875-.8125-1.796875h1.6875q0 .484375.35937.796875.375.296875.89063.296875.60937 0 .95312-.3125.34375-.328125.34375-.859375 0-1.265625-1.40625-1.265625h-.90625zm5.4375 4.1875q0-.40625.26563-.65625.28124-.25.6875-.25.42187 0 .6875.25.28124.25.28124.65625 0 .390625-.28124.640625-.26563.25-.6875.25-.40626 0-.6875-.25-.26563-.25-.26563-.640625zm6.95313.828125h-1.6875v-6.53125l-2.01563.625v-1.375l3.53125-1.265625h.17188zm8.64062-3.53125q0 1.765625-.73438 2.71875-.73437.9375-2.14062.9375-1.40625 0-2.14062-.921875-.73438-.921875-.75-2.640625v-1.578125q0-1.78125.73437-2.703125.75-.9375 2.14063-.9375 1.39062 0 2.125.921875.75.921875.76562 2.640625zm-1.70312-1.71875q0-1.0625-.29688-1.546875-.28125-.484375-.89062-.484375-.59376 0-.89063.46875-.28125.453125-.29687 1.4375v2.0625q0 1.046875.28124 1.5625.28126.5.92188.5.60938 0 .89062-.484375.28126-.484375.28126-1.484375z" fill="#fff"/><path d="m132.42026 176.875v1.40625h-.15626q-1.15624.01563-1.85937.59375-.6875.57812-.82813 1.60938.67188-.6875 1.70313-.6875 1.125 0 1.78125.79687.65625.79687.65625 2.09375 0 .82812-.35937 1.5-.35938.67188-1.03126 1.0625-.65624.375-1.48437.375-1.34375 0-2.17187-.9375-.82813-.95312-.82813-2.51562v-.60938q0-1.39062.51563-2.45312.53124-1.0625 1.5-1.64063.98437-.57813 2.28124-.59375zm-1.65626 4.28125q-.40624 0-.75.21875-.32812.20312-.48437.5625v.51562q0 .84376.32813 1.32813.34374.46875.95312.46875.54688 0 .875-.42188.34375-.4375.34375-1.125 0-.70312-.34375-1.125-.34375-.42187-.92188-.42187zm9.625-1.92187q0 .625-.3125 1.10937-.3125.46875-.85937.76563.625.29687.98437.82812.375.51562.375 1.21875 0 1.14063-.78124 1.8125-.76563.65625-2.10938.65625-1.32812 0-2.10938-.65625-.76562-.67187-.76562-1.8125 0-.70313.35938-1.23437.35937-.53126.98437-.8125-.54687-.29688-.85937-.76563-.3125-.48437-.3125-1.10937 0-1.09376.71874-1.73438.73438-.65625 1.98438-.65625 1.25 0 1.96875.65625.73437.64062.73437 1.73438zm-1.51562 3.79687q0-.54687-.32812-.875-.3125-.34375-.85938-.34375-.54688 0-.875.32812-.3125.32813-.3125.89063 0 .54687.3125.89063.32812.32812.89062.32812.54688 0 .85938-.3125.3125-.32812.3125-.90625zm-.17188-3.71875q0-.5-.26562-.79688-.26562-.29687-.75-.29687-.46875 0-.73438.29687-.26562.28126-.26562.79688 0 .51562.26562.82812.26563.3125.73438.3125.48438 0 .75-.3125.26562-.3125.26562-.82812zm3.28126 5.35938q0-.40626.26562-.65626.28125-.25.6875-.25.42188 0 .6875.25.28125.25.28125.65626 0 .39062-.28125.64062-.26562.25-.6875.25-.40625 0-.6875-.25-.26562-.25-.26562-.64062zm8.64062-6.75-3.29688 7.57812h-1.78124l3.29687-7.15625h-4.23437v-1.375h6.01562zm6.76562 1.3125q0 .625-.3125 1.10937-.3125.46875-.85937.76563.625.29687.98437.82812.375.51562.375 1.21875 0 1.14063-.78124 1.8125-.76563.65625-2.10938.65625-1.32812 0-2.10938-.65625-.76562-.67187-.76562-1.8125 0-.70313.35938-1.23437.35937-.53126.98437-.8125-.54687-.29688-.85937-.76563-.3125-.48437-.3125-1.10937 0-1.09376.71874-1.73438.73438-.65625 1.98438-.65625 1.25 0 1.96875.65625.73437.64062.73437 1.73438zm-1.51562 3.79687q0-.54687-.32812-.875-.3125-.34375-.85938-.34375-.54688 0-.875.32812-.3125.32813-.3125.89063 0 .54687.3125.89063.32812.32812.89062.32812.54688 0 .85938-.3125.3125-.32812.3125-.90625zm-.17188-3.71875q0-.5-.26562-.79688-.26562-.29687-.75-.29687-.46875 0-.73438.29687-.26562.28126-.26562.79688 0 .51562.26562.82812.26563.3125.73438.3125.48438 0 .75-.3125.26562-.3125.26562-.82812z" stroke="#c00000" stroke-linecap="round" stroke-linejoin="round" stroke-width="3"/><path d="m132.42026 176.875v1.40625h-.15626q-1.15624.01563-1.85937.59375-.6875.57812-.82813 1.60938.67188-.6875 1.70313-.6875 1.125 0 1.78125.79687.65625.79687.65625 2.09375 0 .82812-.35937 1.5-.35938.67188-1.03126 1.0625-.65624.375-1.48437.375-1.34375 0-2.17187-.9375-.82813-.95312-.82813-2.51562v-.60938q0-1.39062.51563-2.45312.53124-1.0625 1.5-1.64063.98437-.57813 2.28124-.59375zm-1.65626 4.28125q-.40624 0-.75.21875-.32812.20312-.48437.5625v.51562q0 .84376.32813 1.32813.34374.46875.95312.46875.54688 0 .875-.42188.34375-.4375.34375-1.125 0-.70312-.34375-1.125-.34375-.42187-.92188-.42187zm9.625-1.92187q0 .625-.3125 1.10937-.3125.46875-.85937.76563.625.29687.98437.82812.375.51562.375 1.21875 0 1.14063-.78124 1.8125-.76563.65625-2.10938.65625-1.32812 0-2.10938-.65625-.76562-.67187-.76562-1.8125 0-.70313.35938-1.23437.35937-.53126.98437-.8125-.54687-.29688-.85937-.76563-.3125-.48437-.3125-1.10937 0-1.09376.71874-1.73438.73438-.65625 1.98438-.65625 1.25 0 1.96875.65625.73437.64062.73437 1.73438zm-1.51562 3.79687q0-.54687-.32812-.875-.3125-.34375-.85938-.34375-.54688 0-.875.32812-.3125.32813-.3125.89063 0 .54687.3125.89063.32812.32812.89062.32812.54688 0 .85938-.3125.3125-.32812.3125-.90625zm-.17188-3.71875q0-.5-.26562-.79688-.26562-.29687-.75-.29687-.46875 0-.73438.29687-.26562.28126-.26562.79688 0 .51562.26562.82812.26563.3125.73438.3125.48438 0 .75-.3125.26562-.3125.26562-.82812zm3.28126 5.35938q0-.40626.26562-.65626.28125-.25.6875-.25.42188 0 .6875.25.28125.25.28125.65626 0 .39062-.28125.64062-.26562.25-.6875.25-.40625 0-.6875-.25-.26562-.25-.26562-.64062zm8.64062-6.75-3.29688 7.57812h-1.78124l3.29687-7.15625h-4.23437v-1.375h6.01562zm6.76562 1.3125q0 .625-.3125 1.10937-.3125.46875-.85937.76563.625.29687.98437.82812.375.51562.375 1.21875 0 1.14063-.78124 1.8125-.76563.65625-2.10938.65625-1.32812 0-2.10938-.65625-.76562-.67187-.76562-1.8125 0-.70313.35938-1.23437.35937-.53126.98437-.8125-.54687-.29688-.85937-.76563-.3125-.48437-.3125-1.10937 0-1.09376.71874-1.73438.73438-.65625 1.98438-.65625 1.25 0 1.96875.65625.73437.64062.73437 1.73438zm-1.51562 3.79687q0-.54687-.32812-.875-.3125-.34375-.85938-.34375-.54688 0-.875.32812-.3125.32813-.3125.89063 0 .54687.3125.89063.32812.32812.89062.32812.54688 0 .85938-.3125.3125-.32812.3125-.90625zm-.17188-3.71875q0-.5-.26562-.79688-.26562-.29687-.75-.29687-.46875 0-.73438.29687-.26562.28126-.26562.79688 0 .51562.26562.82812.26563.3125.73438.3125.48438 0 .75-.3125.26562-.3125.26562-.82812z" fill="#fff"/><path d="m118.305084 238.29688.5-4.32813h4.78125v1.40625h-3.390624l-.21875 1.84375q.609374-.32813 1.28125-.32813 1.21875 0 1.90625.76563.703124.75.703124 2.10937 0 .82813-.359374 1.48438-.34375.64062-1 1.01562-.640626.35938-1.53125.35938-.765626 0-1.4375-.3125-.65625-.32812-1.046876-.89062-.375-.5625-.40625-1.29688h1.6875q.046876.53125.359376.82812.328124.29688.84375.29688.578124 0 .875-.40625.3125-.42187.3125-1.17187 0-.73438-.359376-1.10938-.34375-.39062-1-.39062-.609374 0-.984374.3125l-.15625.15624zm8.46875-.8125h.90625q.640626 0 .953126-.3125.3125-.32813.3125-.85938 0-.51562-.3125-.79688-.29688-.29687-.84375-.29687-.484376 0-.8125.26563-.328126.26562-.328126.6875h-1.6875q0-.65626.359376-1.1875.359374-.53126 1-.82813.65625-.3125 1.4375-.3125 1.34375 0 2.10937.65625.78125.64062.78125 1.78125 0 .59375-.35937 1.09375-.35938.48438-.9375.73438.71875.26562 1.0625.78124.35937.51563.35937 1.21876 0 1.14062-.82812 1.82812-.82813.6875-2.1875.6875-1.28125 0-2.09375-.67188-.8125-.6875-.8125-1.79687h1.6875q0 .48437.359374.79687.375.29688.890626.29688.60937 0 .95312-.3125.34375-.32812.34375-.85938 0-1.26562-1.406246-1.26562h-.90625zm5.437496 4.1875q0-.40626.26563-.65626.28125-.25.6875-.25.42187 0 .6875.25.28125.25.28125.65626 0 .39062-.28125.64062-.26563.25-.6875.25-.40625 0-.6875-.25-.26563-.25-.26563-.64062zm8.6875.82812h-5.84375v-1.15625l2.76563-2.95313q.5625-.60937.82812-1.07812.28125-.46875.28125-.875 0-.57812-.29687-.89062-.28125-.32813-.8125-.32813-.57813 0-.90625.39063-.32813.39062-.32813 1.04687h-1.70312q0-.78125.375-1.42187.375-.65626 1.04687-1.01563.6875-.375 1.54688-.375 1.3125 0 2.04687.64063.73438.625.73438 1.78124 0 .64063-.32813 1.29688-.32812.65625-1.125 1.53125l-1.9375 2.04687h3.65625zm7 0h-5.84375v-1.15625l2.76563-2.95313q.5625-.60937.82812-1.07812.28125-.46875.28125-.875 0-.57812-.29687-.89062-.28125-.32813-.8125-.32813-.57813 0-.90625.39063-.32813.39062-.32813 1.04687h-1.70312q0-.78125.375-1.42187.375-.65626 1.04687-1.01563.6875-.375 1.54688-.375 1.3125 0 2.04687.64063.73438.625.73438 1.78124 0 .64063-.32813 1.29688-.32812.65625-1.125 1.53125l-1.9375 2.04687h3.65625z" stroke="#c00000" stroke-linecap="round" stroke-linejoin="round" stroke-width="3"/><path d="m118.305084 238.29688.5-4.32813h4.78125v1.40625h-3.390624l-.21875 1.84375q.609374-.32813 1.28125-.32813 1.21875 0 1.90625.76563.703124.75.703124 2.10937 0 .82813-.359374 1.48438-.34375.64062-1 1.01562-.640626.35938-1.53125.35938-.765626 0-1.4375-.3125-.65625-.32812-1.046876-.89062-.375-.5625-.40625-1.29688h1.6875q.046876.53125.359376.82812.328124.29688.84375.29688.578124 0 .875-.40625.3125-.42187.3125-1.17187 0-.73438-.359376-1.10938-.34375-.39062-1-.39062-.609374 0-.984374.3125l-.15625.15624zm8.46875-.8125h.90625q.640626 0 .953126-.3125.3125-.32813.3125-.85938 0-.51562-.3125-.79688-.29688-.29687-.84375-.29687-.484376 0-.8125.26563-.328126.26562-.328126.6875h-1.6875q0-.65626.359376-1.1875.359374-.53126 1-.82813.65625-.3125 1.4375-.3125 1.34375 0 2.10937.65625.78125.64062.78125 1.78125 0 .59375-.35937 1.09375-.35938.48438-.9375.73438.71875.26562 1.0625.78124.35937.51563.35937 1.21876 0 1.14062-.82812 1.82812-.82813.6875-2.1875.6875-1.28125 0-2.09375-.67188-.8125-.6875-.8125-1.79687h1.6875q0 .48437.359374.79687.375.29688.890626.29688.60937 0 .95312-.3125.34375-.32812.34375-.85938 0-1.26562-1.406246-1.26562h-.90625zm5.437496 4.1875q0-.40626.26563-.65626.28125-.25.6875-.25.42187 0 .6875.25.28125.25.28125.65626 0 .39062-.28125.64062-.26563.25-.6875.25-.40625 0-.6875-.25-.26563-.25-.26563-.64062zm8.6875.82812h-5.84375v-1.15625l2.76563-2.95313q.5625-.60937.82812-1.07812.28125-.46875.28125-.875 0-.57812-.29687-.89062-.28125-.32813-.8125-.32813-.57813 0-.90625.39063-.32813.39062-.32813 1.04687h-1.70312q0-.78125.375-1.42187.375-.65626 1.04687-1.01563.6875-.375 1.54688-.375 1.3125 0 2.04687.64063.73438.625.73438 1.78124 0 .64063-.32813 1.29688-.32812.65625-1.125 1.53125l-1.9375 2.04687h3.65625zm7 0h-5.84375v-1.15625l2.76563-2.95313q.5625-.60937.82812-1.07812.28125-.46875.28125-.875 0-.57812-.29687-.89062-.28125-.32813-.8125-.32813-.57813 0-.90625.39063-.32813.39062-.32813 1.04687h-1.70312q0-.78125.375-1.42187.375-.65626 1.04687-1.01563.6875-.375 1.54688-.375 1.3125 0 2.04687.64063.73438.625.73438 1.78124 0 .64063-.32813 1.29688-.32812.65625-1.125 1.53125l-1.9375 2.04687h3.65625z" fill="#fff"/><path d="m117.69382 295.29688.5-4.32813h4.78125v1.40625h-3.39063l-.21875 1.84375q.60938-.32813 1.28125-.32813 1.21875 0 1.90625.76563.70313.75.70313 2.10937 0 .82813-.35938 1.48438-.34375.64062-1 1.01562-.64062.35938-1.53125.35938-.76562 0-1.4375-.3125-.65625-.32812-1.04687-.89062-.375-.5625-.40625-1.29688h1.6875q.04687.53125.35937.82812.32813.29688.84375.29688.57813 0 .875-.40625.3125-.42187.3125-1.17187 0-.73438-.35937-1.10938-.34375-.39062-1-.39062-.60938 0-.98438.3125l-.15625.15624zm10.85937 4.20312h-1.6875v-6.53125l-2.01562.625v-1.375l3.53125-1.26563h.17187zm3.04688-.82812q0-.40626.26562-.65626.28125-.25.6875-.25.42188 0 .6875.25.28125.25.28125.65626 0 .39062-.28125.64062-.26562.25-.6875.25-.40625 0-.6875-.25-.26562-.25-.26562-.64062zm3.09375-3.375.5-4.32813h4.78125v1.40625h-3.39063l-.21875 1.84375q.60938-.32813 1.28125-.32813 1.21875 0 1.90625.76563.70313.75.70313 2.10937 0 .82813-.35938 1.48438-.34375.64062-1 1.01562-.64062.35938-1.53125.35938-.76562 0-1.4375-.3125-.65625-.32812-1.04687-.89062-.375-.5625-.40625-1.29688h1.6875q.04687.53125.35937.82812.32813.29688.84375.29688.57813 0 .875-.40625.3125-.42187.3125-1.17187 0-.73438-.35937-1.10938-.34375-.39062-1-.39062-.60938 0-.98438.3125l-.15625.15624zm10.85937 4.20312h-1.6875v-6.53125l-2.01562.625v-1.375l3.53125-1.26563h.17187z" stroke="#c00000" stroke-linecap="round" stroke-linejoin="round" stroke-width="3"/><path d="m117.69382 295.29688.5-4.32813h4.78125v1.40625h-3.39063l-.21875 1.84375q.60938-.32813 1.28125-.32813 1.21875 0 1.90625.76563.70313.75.70313 2.10937 0 .82813-.35938 1.48438-.34375.64062-1 1.01562-.64062.35938-1.53125.35938-.76562 0-1.4375-.3125-.65625-.32812-1.04687-.89062-.375-.5625-.40625-1.29688h1.6875q.04687.53125.35937.82812.32813.29688.84375.29688.57813 0 .875-.40625.3125-.42187.3125-1.17187 0-.73438-.35937-1.10938-.34375-.39062-1-.39062-.60938 0-.98438.3125l-.15625.15624zm10.85937 4.20312h-1.6875v-6.53125l-2.01562.625v-1.375l3.53125-1.26563h.17187zm3.04688-.82812q0-.40626.26562-.65626.28125-.25.6875-.25.42188 0 .6875.25.28125.25.28125.65626 0 .39062-.28125.64062-.26562.25-.6875.25-.40625 0-.6875-.25-.26562-.25-.26562-.64062zm3.09375-3.375.5-4.32813h4.78125v1.40625h-3.39063l-.21875 1.84375q.60938-.32813 1.28125-.32813 1.21875 0 1.90625.76563.70313.75.70313 2.10937 0 .82813-.35938 1.48438-.34375.64062-1 1.01562-.64062.35938-1.53125.35938-.76562 0-1.4375-.3125-.65625-.32812-1.04687-.89062-.375-.5625-.40625-1.29688h1.6875q.04687.53125.35937.82812.32813.29688.84375.29688.57813 0 .875-.40625.3125-.42187.3125-1.17187 0-.73438-.35937-1.10938-.34375-.39062-1-.39062-.60938 0-.98438.3125l-.15625.15624zm10.85937 4.20312h-1.6875v-6.53125l-2.01562.625v-1.375l3.53125-1.26563h.17187z" fill="#fff"/><path d="m121.28243 353.28125h.96875v1.375h-.96875v1.84375h-1.70312v-1.84375h-3.48438l-.07812-1.0625 3.54687-5.625h1.71875zm-3.57812 0h1.875v-3l-.10938.1875zm11.12501-3.04687q0 .625-.3125 1.10937-.3125.46875-.85939.76563.62501.29687.98439.82812.375.51562.375 1.21875 0 1.14063-.78125 1.8125-.76564.65625-2.10939.65625-1.32812 0-2.10937-.65625-.76563-.67187-.76563-1.8125 0-.70313.35938-1.23437.35937-.53126.98437-.8125-.54687-.29688-.85937-.76563-.3125-.48437-.3125-1.10937 0-1.09376.71875-1.73438.73437-.65625 1.98437-.65625 1.25 0 1.96876.65625.73438.64062.73438 1.73438zm-1.51564 3.79687q0-.54687-.32812-.875-.3125-.34375-.85938-.34375-.54687 0-.875.32812-.3125.32813-.3125.89063 0 .54687.3125.89063.32813.32812.89063.32812.54687 0 .85937-.3125.3125-.32812.3125-.90625zm-.17187-3.71875q0-.5-.26563-.79688-.26562-.29687-.75-.29687-.46875 0-.73437.29687-.26563.28126-.26563.79688 0 .51562.26563.82812.26562.3125.73437.3125.48438 0 .75-.3125.26563-.3125.26563-.82812zm3.28126 5.35938q0-.40626.26562-.65626.28125-.25.6875-.25.42188 0 .6875.25.28125.25.28125.65626 0 .39062-.28125.64062-.26562.25-.6875.25-.40625 0-.6875-.25-.26562-.25-.26562-.64062zm8.6875.82812h-5.84375v-1.15625l2.76562-2.95313q.5625-.60937.82813-1.07812.28125-.46875.28125-.875 0-.57812-.29688-.89062-.28125-.32813-.8125-.32813-.57812 0-.90625.39063-.32812.39062-.32812 1.04687h-1.70313q0-.78125.375-1.42187.375-.65626 1.04688-1.01563.6875-.375 1.54687-.375 1.3125 0 2.04688.64063.73437.625.73437 1.78124 0 .64063-.32812 1.29688-.32813.65625-1.125 1.53125l-1.9375 2.04687h3.65625zm5.26562 0h-1.6875v-6.53125l-2.01562.625v-1.375l3.53125-1.26563h.17187z" stroke="#c00000" stroke-linecap="round" stroke-linejoin="round" stroke-width="3"/><path d="m121.28243 353.28125h.96875v1.375h-.96875v1.84375h-1.70312v-1.84375h-3.48438l-.07812-1.0625 3.54687-5.625h1.71875zm-3.57812 0h1.875v-3l-.10938.1875zm11.12501-3.04687q0 .625-.3125 1.10937-.3125.46875-.85939.76563.62501.29687.98439.82812.375.51562.375 1.21875 0 1.14063-.78125 1.8125-.76564.65625-2.10939.65625-1.32812 0-2.10937-.65625-.76563-.67187-.76563-1.8125 0-.70313.35938-1.23437.35937-.53126.98437-.8125-.54687-.29688-.85937-.76563-.3125-.48437-.3125-1.10937 0-1.09376.71875-1.73438.73437-.65625 1.98437-.65625 1.25 0 1.96876.65625.73438.64062.73438 1.73438zm-1.51564 3.79687q0-.54687-.32812-.875-.3125-.34375-.85938-.34375-.54687 0-.875.32812-.3125.32813-.3125.89063 0 .54687.3125.89063.32813.32812.89063.32812.54687 0 .85937-.3125.3125-.32812.3125-.90625zm-.17187-3.71875q0-.5-.26563-.79688-.26562-.29687-.75-.29687-.46875 0-.73437.29687-.26563.28126-.26563.79688 0 .51562.26563.82812.26562.3125.73437.3125.48438 0 .75-.3125.26563-.3125.26563-.82812zm3.28126 5.35938q0-.40626.26562-.65626.28125-.25.6875-.25.42188 0 .6875.25.28125.25.28125.65626 0 .39062-.28125.64062-.26562.25-.6875.25-.40625 0-.6875-.25-.26562-.25-.26562-.64062zm8.6875.82812h-5.84375v-1.15625l2.76562-2.95313q.5625-.60937.82813-1.07812.28125-.46875.28125-.875 0-.57812-.29688-.89062-.28125-.32813-.8125-.32813-.57812 0-.90625.39063-.32812.39062-.32812 1.04687h-1.70313q0-.78125.375-1.42187.375-.65626 1.04688-1.01563.6875-.375 1.54687-.375 1.3125 0 2.04688.64063.73437.625.73437 1.78124 0 .64063-.32812 1.29688-.32813.65625-1.125 1.53125l-1.9375 2.04687h3.65625zm5.26562 0h-1.6875v-6.53125l-2.01562.625v-1.375l3.53125-1.26563h.17187z" fill="#fff"/><path d="m162.91554 410.28125h.96876v1.375h-.96876v1.84375h-1.70312v-1.84375h-3.48438l-.07812-1.0625 3.54688-5.625h1.71874zm-3.57812 0h1.875v-3l-.10938.1875zm7.28125-1.79687h.90625q.64062 0 .95312-.3125.3125-.32813.3125-.85938 0-.51562-.3125-.79688-.29687-.29687-.84374-.29687-.48438 0-.8125.26563-.32813.26562-.32813.6875h-1.6875q0-.65626.35937-1.1875.35938-.53126 1-.82813.65626-.3125 1.4375-.3125 1.34376 0 2.10938.65625.78125.64062.78125 1.78125 0 .59375-.35937 1.09375-.35938.48438-.9375.73438.71874.26562 1.0625.78124.35937.51563.35937 1.21876 0 1.14062-.82813 1.82812-.82812.6875-2.1875.6875-1.28124 0-2.09374-.67188-.8125-.6875-.8125-1.79687h1.6875q0 .48437.35937.79687.375.29688.89063.29688.60937 0 .95312-.3125.34375-.32812.34375-.85938 0-1.26562-1.40625-1.26562h-.90625zm5.4375 4.1875q0-.40626.26563-.65626.28124-.25.6875-.25.42187 0 .6875.25.28124.25.28124.65626 0 .39062-.28124.64062-.26563.25-.6875.25-.40626 0-.6875-.25-.26563-.25-.26563-.64062zm6.8125-2.57813q-.67187.64063-1.54687.64063-1.14063 0-1.82813-.76563-.67187-.78125-.67187-2.09375 0-.84375.35937-1.54688.375-.70312 1.03125-1.09374.65625-.39063 1.48438-.39063.84374 0 1.5.42187.65624.42188 1.01562 1.21876.35938.79687.375 1.8125v.625q0 2.14062-1.0625 3.35937-1.0625 1.21875-3.01562 1.29687h-.40626v-1.40624l.375-.01563q2.20313-.09375 2.39063-2.0625zm-1.14063-.65625q.42188 0 .70313-.20312.29687-.21876.45313-.51563v-.6875q0-.85937-.32813-1.32813-.32813-.48437-.875-.48437-.51563 0-.84375.46875-.32812.45312-.32812 1.15625 0 .70313.3125 1.15625.32812.4375.90624.4375zm10.01563 4.0625h-5.84375v-1.15625l2.76562-2.95313q.5625-.60937.82813-1.07812.28125-.46875.28125-.875 0-.57812-.29688-.89062-.28124-.32813-.8125-.32813-.57812 0-.90624.39063-.32813.39062-.32813 1.04687h-1.70313q0-.78125.375-1.42187.375-.65626 1.04688-1.01563.6875-.375 1.54688-.375 1.3125 0 2.04687.64063.73437.625.73437 1.78124 0 .64063-.32812 1.29688-.32812.65625-1.125 1.53125l-1.9375 2.04687h3.65625z" stroke="#fff" stroke-linecap="round" stroke-linejoin="round" stroke-width="3"/><path d="m162.91554 410.28125h.96876v1.375h-.96876v1.84375h-1.70312v-1.84375h-3.48438l-.07812-1.0625 3.54688-5.625h1.71874zm-3.57812 0h1.875v-3l-.10938.1875zm7.28125-1.79687h.90625q.64062 0 .95312-.3125.3125-.32813.3125-.85938 0-.51562-.3125-.79688-.29687-.29687-.84374-.29687-.48438 0-.8125.26563-.32813.26562-.32813.6875h-1.6875q0-.65626.35937-1.1875.35938-.53126 1-.82813.65626-.3125 1.4375-.3125 1.34376 0 2.10938.65625.78125.64062.78125 1.78125 0 .59375-.35937 1.09375-.35938.48438-.9375.73438.71874.26562 1.0625.78124.35937.51563.35937 1.21876 0 1.14062-.82813 1.82812-.82812.6875-2.1875.6875-1.28124 0-2.09374-.67188-.8125-.6875-.8125-1.79687h1.6875q0 .48437.35937.79687.375.29688.89063.29688.60937 0 .95312-.3125.34375-.32812.34375-.85938 0-1.26562-1.40625-1.26562h-.90625zm5.4375 4.1875q0-.40626.26563-.65626.28124-.25.6875-.25.42187 0 .6875.25.28124.25.28124.65626 0 .39062-.28124.64062-.26563.25-.6875.25-.40626 0-.6875-.25-.26563-.25-.26563-.64062zm6.8125-2.57813q-.67187.64063-1.54687.64063-1.14063 0-1.82813-.76563-.67187-.78125-.67187-2.09375 0-.84375.35937-1.54688.375-.70312 1.03125-1.09374.65625-.39063 1.48438-.39063.84374 0 1.5.42187.65624.42188 1.01562 1.21876.35938.79687.375 1.8125v.625q0 2.14062-1.0625 3.35937-1.0625 1.21875-3.01562 1.29687h-.40626v-1.40624l.375-.01563q2.20313-.09375 2.39063-2.0625zm-1.14063-.65625q.42188 0 .70313-.20312.29687-.21876.45313-.51563v-.6875q0-.85937-.32813-1.32813-.32813-.48437-.875-.48437-.51563 0-.84375.46875-.32812.45312-.32812 1.15625 0 .70313.3125 1.15625.32812.4375.90624.4375zm10.01563 4.0625h-5.84375v-1.15625l2.76562-2.95313q.5625-.60937.82813-1.07812.28125-.46875.28125-.875 0-.57812-.29688-.89062-.28124-.32813-.8125-.32813-.57812 0-.90624.39063-.32813.39062-.32813 1.04687h-1.70313q0-.78125.375-1.42187.375-.65626 1.04688-1.01563.6875-.375 1.54688-.375 1.3125 0 2.04687.64063.73437.625.73437 1.78124 0 .64063-.32812 1.29688-.32812.65625-1.125 1.53125l-1.9375 2.04687h3.65625z" fill="#c00000"/><path d="m161.88225 467.28125h.96875v1.375h-.96875v1.84375h-1.70313v-1.84375h-3.48437l-.07813-1.0625 3.54688-5.625h1.71875zm-3.57813 0h1.875v-3l-.10937.1875zm11.40625 3.21875h-5.84375v-1.15625l2.76563-2.95313q.5625-.60937.82812-1.07812.28125-.46875.28125-.875 0-.57812-.29687-.89062-.28125-.32813-.8125-.32813-.57813 0-.90625.39063-.32813.39062-.32813 1.04687h-1.70312q0-.78125.375-1.42187.375-.65626 1.04687-1.01563.6875-.375 1.54688-.375 1.3125 0 2.04687.64063.73438.625.73438 1.78124 0 .64063-.32813 1.29688-.32812.65625-1.125 1.53125l-1.9375 2.04687h3.65625zm1.3125-.82812q0-.40626.26563-.65626.28125-.25.6875-.25.42187 0 .6875.25.28125.25.28125.65626 0 .39062-.28125.64062-.26563.25-.6875.25-.40625 0-.6875-.25-.26563-.25-.26563-.64062zm7.85938-2.39063h.96875v1.375h-.96875v1.84375h-1.70313v-1.84375h-3.48437l-.07813-1.0625 3.54688-5.625h1.71875zm-3.57813 0h1.875v-3l-.10937.1875zm11.35938-4.35937-3.29688 7.57812h-1.78125l3.29688-7.15625h-4.23438v-1.375h6.01563z" stroke="#fff" stroke-linecap="round" stroke-linejoin="round" stroke-width="3"/><path d="m161.88225 467.28125h.96875v1.375h-.96875v1.84375h-1.70313v-1.84375h-3.48437l-.07813-1.0625 3.54688-5.625h1.71875zm-3.57813 0h1.875v-3l-.10937.1875zm11.40625 3.21875h-5.84375v-1.15625l2.76563-2.95313q.5625-.60937.82812-1.07812.28125-.46875.28125-.875 0-.57812-.29687-.89062-.28125-.32813-.8125-.32813-.57813 0-.90625.39063-.32813.39062-.32813 1.04687h-1.70312q0-.78125.375-1.42187.375-.65626 1.04687-1.01563.6875-.375 1.54688-.375 1.3125 0 2.04687.64063.73438.625.73438 1.78124 0 .64063-.32813 1.29688-.32812.65625-1.125 1.53125l-1.9375 2.04687h3.65625zm1.3125-.82812q0-.40626.26563-.65626.28125-.25.6875-.25.42187 0 .6875.25.28125.25.28125.65626 0 .39062-.28125.64062-.26563.25-.6875.25-.40625 0-.6875-.25-.26563-.25-.26563-.64062zm7.85938-2.39063h.96875v1.375h-.96875v1.84375h-1.70313v-1.84375h-3.48437l-.07813-1.0625 3.54688-5.625h1.71875zm-3.57813 0h1.875v-3l-.10937.1875zm11.35938-4.35937-3.29688 7.57812h-1.78125l3.29688-7.15625h-4.23438v-1.375h6.01563z" fill="#c00000"/><path d="m156.16243 522.4844h.90625q.64062 0 .95312-.3125.3125-.32815.3125-.8594 0-.5156-.3125-.7969-.29687-.29685-.84375-.29685-.48437 0-.8125.26565-.32812.2656-.32812.6875h-1.6875q0-.6563.35937-1.1875.35938-.5313 1-.82815.65625-.3125 1.4375-.3125 1.34375 0 2.10938.65625.78125.6406.78125 1.78125 0 .59375-.35938 1.09375-.35937.4844-.9375.7344.71875.2656 1.0625.7812.35938.51565.35938 1.2188 0 1.1406-.82813 1.8281-.82812.6875-2.1875.6875-1.28125 0-2.09375-.6719-.8125-.6875-.8125-1.79685h1.6875q0 .48435.35938.79685.375.2969.89062.2969.60938 0 .95313-.3125.34375-.3281.34375-.8594 0-1.2656-1.40625-1.2656h-.90625zm9.25 1.60935q-.67188.64065-1.54688.64065-1.14062 0-1.82812-.76565-.67188-.78125-.67188-2.09375 0-.84375.35938-1.5469.375-.7031 1.03125-1.0937.65625-.39065 1.48437-.39065.84375 0 1.5.42185.65625.4219 1.01563 1.2188.35937.79685.375 1.8125v.625q0 2.1406-1.0625 3.35935-1.0625 1.21875-3.01563 1.29685h-.40625v-1.4062l.375-.01565q2.20313-.09375 2.39063-2.0625zm-1.14063-.65625q.42188 0 .70313-.2031.29687-.2188.45312-.51565v-.6875q0-.85935-.32812-1.32815-.32813-.48435-.875-.48435-.51563 0-.84375.46875-.32813.4531-.32813 1.15625 0 .70315.3125 1.15625.32813.4375.90625.4375zm4.32813 3.2344q0-.4063.26562-.6563.28125-.25.6875-.25.42188 0 .6875.25.28125.25.28125.6563 0 .3906-.28125.6406-.26562.25-.6875.25-.40625 0-.6875-.25-.26562-.25-.26562-.6406zm8.59375-2.70315q0 1.76565-.73438 2.71875-.73437.9375-2.14062.9375-1.40625 0-2.14063-.9219-.73437-.92185-.75-2.6406v-1.5781q0-1.7813.73438-2.70315.75-.9375 2.14062-.9375 1.39063 0 2.125.92185.75.9219.76563 2.64065zm-1.70313-1.71875q0-1.0625-.29687-1.5469-.28125-.48435-.89063-.48435-.59375 0-.89062.46875-.28125.4531-.29688 1.4375v2.0625q0 1.0469.28125 1.5625.28125.5.92188.5.60937 0 .89062-.4844.28125-.48435.28125-1.48435zm8.51563-1.0156q0 .625-.3125 1.10935-.3125.46875-.85938.76565.625.29685.98438.8281.375.5156.375 1.21875 0 1.14065-.78125 1.8125-.76563.65625-2.10938.65625-1.32812 0-2.10937-.65625-.76563-.67185-.76563-1.8125 0-.70315.35938-1.23435.35937-.5313.98437-.8125-.54687-.2969-.85937-.76565-.3125-.48435-.3125-1.10935 0-1.0938.71875-1.7344.73437-.65625 1.98437-.65625 1.25 0 1.96875.65625.73438.6406.73438 1.7344zm-1.51563 3.79685q0-.54685-.32812-.875-.3125-.34375-.85938-.34375-.54687 0-.875.3281-.3125.32815-.3125.89065 0 .54685.3125.89065.32813.3281.89063.3281.54687 0 .85937-.3125.3125-.3281.3125-.90625zm-.17187-3.71875q0-.5-.26563-.7969-.26562-.29685-.75-.29685-.46875 0-.73437.29685-.26563.2813-.26563.7969 0 .5156.26563.8281.26562.3125.73437.3125.48438 0 .75-.3125.26563-.3125.26563-.8281z" stroke="#fff" stroke-linecap="round" stroke-linejoin="round" stroke-width="3"/><path d="m156.16243 522.4844h.90625q.64062 0 .95312-.3125.3125-.32815.3125-.8594 0-.5156-.3125-.7969-.29687-.29685-.84375-.29685-.48437 0-.8125.26565-.32812.2656-.32812.6875h-1.6875q0-.6563.35937-1.1875.35938-.5313 1-.82815.65625-.3125 1.4375-.3125 1.34375 0 2.10938.65625.78125.6406.78125 1.78125 0 .59375-.35938 1.09375-.35937.4844-.9375.7344.71875.2656 1.0625.7812.35938.51565.35938 1.2188 0 1.1406-.82813 1.8281-.82812.6875-2.1875.6875-1.28125 0-2.09375-.6719-.8125-.6875-.8125-1.79685h1.6875q0 .48435.35938.79685.375.2969.89062.2969.60938 0 .95313-.3125.34375-.3281.34375-.8594 0-1.2656-1.40625-1.2656h-.90625zm9.25 1.60935q-.67188.64065-1.54688.64065-1.14062 0-1.82812-.76565-.67188-.78125-.67188-2.09375 0-.84375.35938-1.5469.375-.7031 1.03125-1.0937.65625-.39065 1.48437-.39065.84375 0 1.5.42185.65625.4219 1.01563 1.2188.35937.79685.375 1.8125v.625q0 2.1406-1.0625 3.35935-1.0625 1.21875-3.01563 1.29685h-.40625v-1.4062l.375-.01565q2.20313-.09375 2.39063-2.0625zm-1.14063-.65625q.42188 0 .70313-.2031.29687-.2188.45312-.51565v-.6875q0-.85935-.32812-1.32815-.32813-.48435-.875-.48435-.51563 0-.84375.46875-.32813.4531-.32813 1.15625 0 .70315.3125 1.15625.32813.4375.90625.4375zm4.32813 3.2344q0-.4063.26562-.6563.28125-.25.6875-.25.42188 0 .6875.25.28125.25.28125.6563 0 .3906-.28125.6406-.26562.25-.6875.25-.40625 0-.6875-.25-.26562-.25-.26562-.6406zm8.59375-2.70315q0 1.76565-.73438 2.71875-.73437.9375-2.14062.9375-1.40625 0-2.14063-.9219-.73437-.92185-.75-2.6406v-1.5781q0-1.7813.73438-2.70315.75-.9375 2.14062-.9375 1.39063 0 2.125.92185.75.9219.76563 2.64065zm-1.70313-1.71875q0-1.0625-.29687-1.5469-.28125-.48435-.89063-.48435-.59375 0-.89062.46875-.28125.4531-.29688 1.4375v2.0625q0 1.0469.28125 1.5625.28125.5.92188.5.60937 0 .89062-.4844.28125-.48435.28125-1.48435zm8.51563-1.0156q0 .625-.3125 1.10935-.3125.46875-.85938.76565.625.29685.98438.8281.375.5156.375 1.21875 0 1.14065-.78125 1.8125-.76563.65625-2.10938.65625-1.32812 0-2.10937-.65625-.76563-.67185-.76563-1.8125 0-.70315.35938-1.23435.35937-.5313.98437-.8125-.54687-.2969-.85937-.76565-.3125-.48435-.3125-1.10935 0-1.0938.71875-1.7344.73437-.65625 1.98437-.65625 1.25 0 1.96875.65625.73438.6406.73438 1.7344zm-1.51563 3.79685q0-.54685-.32812-.875-.3125-.34375-.85938-.34375-.54687 0-.875.3281-.3125.32815-.3125.89065 0 .54685.3125.89065.32813.3281.89063.3281.54687 0 .85937-.3125.3125-.3281.3125-.90625zm-.17187-3.71875q0-.5-.26563-.7969-.26562-.29685-.75-.29685-.46875 0-.73437.29685-.26563.2813-.26563.7969 0 .5156.26563.8281.26562.3125.73437.3125.48438 0 .75-.3125.26563-.3125.26563-.8281z" fill="#c00000"/><path d="m147.91628 584.5h-5.84375v-1.15625l2.76562-2.95315q.5625-.60935.82813-1.0781.28125-.46875.28125-.875 0-.5781-.29688-.8906-.28125-.32815-.8125-.32815-.57812 0-.90625.39065-.32812.3906-.32812 1.04685h-1.70313q0-.78125.375-1.42185.375-.6563 1.04688-1.01565.6875-.375 1.54687-.375 1.3125 0 2.04688.64065.73437.625.73437 1.7812 0 .64065-.32812 1.2969-.32813.65625-1.125 1.53125l-1.9375 2.04685h3.65625zm5.26562 0h-1.6875v-6.53125l-2.01562.625v-1.375l3.53125-1.26565h.17187zm3.04688-.8281q0-.4063.26562-.6563.28125-.25.6875-.25.42188 0 .6875.25.28125.25.28125.6563 0 .3906-.28125.6406-.26562.25-.6875.25-.40625 0-.6875-.25-.26562-.25-.26562-.6406zm8.64062-6.75-3.29687 7.5781h-1.78125l3.29687-7.15625h-4.23437v-1.375h6.01562zm2.92188 2.5625h.90625q.64062 0 .95312-.3125.3125-.32815.3125-.8594 0-.5156-.3125-.7969-.29687-.29685-.84375-.29685-.48437 0-.8125.26565-.32812.2656-.32812.6875h-1.6875q0-.6563.35937-1.1875.35938-.5313 1-.82815.65625-.3125 1.4375-.3125 1.34375 0 2.10938.65625.78125.6406.78125 1.78125 0 .59375-.35938 1.09375-.35937.4844-.9375.7344.71875.2656 1.0625.7812.35938.51565.35938 1.2188 0 1.1406-.82813 1.8281-.82812.6875-2.1875.6875-1.28125 0-2.09375-.6719-.8125-.6875-.8125-1.79685h1.6875q0 .48435.35938.79685.375.2969.89062.2969.60938 0 .95313-.3125.34375-.3281.34375-.8594 0-1.2656-1.40625-1.2656h-.90625z" stroke="#fff" stroke-linecap="round" stroke-linejoin="round" stroke-width="3"/><path d="m147.91628 584.5h-5.84375v-1.15625l2.76562-2.95315q.5625-.60935.82813-1.0781.28125-.46875.28125-.875 0-.5781-.29688-.8906-.28125-.32815-.8125-.32815-.57812 0-.90625.39065-.32812.3906-.32812 1.04685h-1.70313q0-.78125.375-1.42185.375-.6563 1.04688-1.01565.6875-.375 1.54687-.375 1.3125 0 2.04688.64065.73437.625.73437 1.7812 0 .64065-.32812 1.2969-.32813.65625-1.125 1.53125l-1.9375 2.04685h3.65625zm5.26562 0h-1.6875v-6.53125l-2.01562.625v-1.375l3.53125-1.26565h.17187zm3.04688-.8281q0-.4063.26562-.6563.28125-.25.6875-.25.42188 0 .6875.25.28125.25.28125.6563 0 .3906-.28125.6406-.26562.25-.6875.25-.40625 0-.6875-.25-.26562-.25-.26562-.6406zm8.64062-6.75-3.29687 7.5781h-1.78125l3.29687-7.15625h-4.23437v-1.375h6.01562zm2.92188 2.5625h.90625q.64062 0 .95312-.3125.3125-.32815.3125-.8594 0-.5156-.3125-.7969-.29687-.29685-.84375-.29685-.48437 0-.8125.26565-.32812.2656-.32812.6875h-1.6875q0-.6563.35937-1.1875.35938-.5313 1-.82815.65625-.3125 1.4375-.3125 1.34375 0 2.10938.65625.78125.6406.78125 1.78125 0 .59375-.35938 1.09375-.35937.4844-.9375.7344.71875.2656 1.0625.7812.35938.51565.35938 1.2188 0 1.1406-.82813 1.8281-.82812.6875-2.1875.6875-1.28125 0-2.09375-.6719-.8125-.6875-.8125-1.79685h1.6875q0 .48435.35938.79685.375.2969.89062.2969.60938 0 .95313-.3125.34375-.3281.34375-.8594 0-1.2656-1.40625-1.2656h-.90625z" fill="#c00000"/><path d="m203.81506 641.5h-1.6875v-6.53125l-2.01562.625v-1.375l3.53125-1.26565h.17187zm8.6875-7.5781-3.29687 7.5781h-1.78125l3.29687-7.15625h-4.23437v-1.375h6.01562zm5.17188 4.17185q-.67188.64065-1.54688.64065-1.14062 0-1.82812-.76565-.67188-.78125-.67188-2.09375 0-.84375.35938-1.5469.375-.7031 1.03125-1.0937.65625-.39065 1.48437-.39065.84375 0 1.5.42185.65625.4219 1.01563 1.2188.35937.79685.375 1.8125v.625q0 2.1406-1.0625 3.35935-1.0625 1.21875-3.01563 1.29685h-.40625v-1.4062l.375-.01565q2.20313-.09375 2.39063-2.0625zm-1.14063-.65625q.42188 0 .70313-.2031.29687-.2188.45312-.51565v-.6875q0-.85935-.32812-1.32815-.32813-.48435-.875-.48435-.51563 0-.84375.46875-.32813.4531-.32813 1.15625 0 .70315.3125 1.15625.32813.4375.90625.4375zm4.32813 3.2344q0-.4063.26562-.6563.28125-.25.6875-.25.42188 0 .6875.25.28125.25.28125.6563 0 .3906-.28125.6406-.26562.25-.6875.25-.40625 0-.6875-.25-.26562-.25-.26562-.6406zm4.5625-4.1875h.90625q.64062 0 .95312-.3125.3125-.32815.3125-.8594 0-.5156-.3125-.7969-.29687-.29685-.84375-.29685-.48437 0-.8125.26565-.32812.2656-.32812.6875h-1.6875q0-.6563.35937-1.1875.35938-.5313 1-.82815.65625-.3125 1.4375-.3125 1.34375 0 2.10938.65625.78125.6406.78125 1.78125 0 .59375-.35938 1.09375-.35937.4844-.9375.7344.71875.2656 1.0625.7812.35938.51565.35938 1.2188 0 1.1406-.82813 1.8281-.82812.6875-2.1875.6875-1.28125 0-2.09375-.6719-.8125-.6875-.8125-1.79685h1.6875q0 .48435.35938.79685.375.2969.89062.2969.60938 0 .95313-.3125.34375-.3281.34375-.8594 0-1.2656-1.40625-1.2656h-.90625zm9.25 1.60935q-.67188.64065-1.54688.64065-1.14062 0-1.82812-.76565-.67188-.78125-.67188-2.09375 0-.84375.35938-1.5469.375-.7031 1.03125-1.0937.65625-.39065 1.48437-.39065.84375 0 1.5.42185.65625.4219 1.01563 1.2188.35937.79685.375 1.8125v.625q0 2.1406-1.0625 3.35935-1.0625 1.21875-3.01563 1.29685h-.40625v-1.4062l.375-.01565q2.20313-.09375 2.39063-2.0625zm-1.14063-.65625q.42188 0 .70313-.2031.29687-.2188.45312-.51565v-.6875q0-.85935-.32812-1.32815-.32813-.48435-.875-.48435-.51563 0-.84375.46875-.32813.4531-.32813 1.15625 0 .70315.3125 1.15625.32813.4375.90625.4375z" stroke="#c00000" stroke-linecap="round" stroke-linejoin="round" stroke-width="3"/><path d="m203.81506 641.5h-1.6875v-6.53125l-2.01562.625v-1.375l3.53125-1.26565h.17187zm8.6875-7.5781-3.29687 7.5781h-1.78125l3.29687-7.15625h-4.23437v-1.375h6.01562zm5.17188 4.17185q-.67188.64065-1.54688.64065-1.14062 0-1.82812-.76565-.67188-.78125-.67188-2.09375 0-.84375.35938-1.5469.375-.7031 1.03125-1.0937.65625-.39065 1.48437-.39065.84375 0 1.5.42185.65625.4219 1.01563 1.2188.35937.79685.375 1.8125v.625q0 2.1406-1.0625 3.35935-1.0625 1.21875-3.01563 1.29685h-.40625v-1.4062l.375-.01565q2.20313-.09375 2.39063-2.0625zm-1.14063-.65625q.42188 0 .70313-.2031.29687-.2188.45312-.51565v-.6875q0-.85935-.32812-1.32815-.32813-.48435-.875-.48435-.51563 0-.84375.46875-.32813.4531-.32813 1.15625 0 .70315.3125 1.15625.32813.4375.90625.4375zm4.32813 3.2344q0-.4063.26562-.6563.28125-.25.6875-.25.42188 0 .6875.25.28125.25.28125.6563 0 .3906-.28125.6406-.26562.25-.6875.25-.40625 0-.6875-.25-.26562-.25-.26562-.6406zm4.5625-4.1875h.90625q.64062 0 .95312-.3125.3125-.32815.3125-.8594 0-.5156-.3125-.7969-.29687-.29685-.84375-.29685-.48437 0-.8125.26565-.32812.2656-.32812.6875h-1.6875q0-.6563.35937-1.1875.35938-.5313 1-.82815.65625-.3125 1.4375-.3125 1.34375 0 2.10938.65625.78125.6406.78125 1.78125 0 .59375-.35938 1.09375-.35937.4844-.9375.7344.71875.2656 1.0625.7812.35938.51565.35938 1.2188 0 1.1406-.82813 1.8281-.82812.6875-2.1875.6875-1.28125 0-2.09375-.6719-.8125-.6875-.8125-1.79685h1.6875q0 .48435.35938.79685.375.2969.89062.2969.60938 0 .95313-.3125.34375-.3281.34375-.8594 0-1.2656-1.40625-1.2656h-.90625zm9.25 1.60935q-.67188.64065-1.54688.64065-1.14062 0-1.82812-.76565-.67188-.78125-.67188-2.09375 0-.84375.35938-1.5469.375-.7031 1.03125-1.0937.65625-.39065 1.48437-.39065.84375 0 1.5.42185.65625.4219 1.01563 1.2188.35937.79685.375 1.8125v.625q0 2.1406-1.0625 3.35935-1.0625 1.21875-3.01563 1.29685h-.40625v-1.4062l.375-.01565q2.20313-.09375 2.39063-2.0625zm-1.14063-.65625q.42188 0 .70313-.2031.29687-.2188.45312-.51565v-.6875q0-.85935-.32812-1.32815-.32813-.48435-.875-.48435-.51563 0-.84375.46875-.32813.4531-.32813 1.15625 0 .70315.3125 1.15625.32813.4375.90625.4375z" fill="#fff"/><g fill="#000"><path d="m47.125 70.99663h4.046875v.92187h-5.1875v-8.531247h1.140625zm5.875.92187h-1.078125v-6.34375h1.078125zm-1.171875-8.015622q0-.265625.15625-.453125.171875-.1875.484375-.1875.3125 0 .46875.1875.171875.1875.171875.453125 0 .250002-.171875.437502-.15625.17187-.46875.17187-.3125 0-.484375-.17187-.15625-.1875-.15625-.437502zm5.625 8.140622q-1.296875 0-2.109375-.84375-.796875-.85937-.796875-2.28125v-.1875q0-.95312.359375-1.6875.359375-.75 1-1.15625.65625-.42187 1.40625-.42187 1.234375 0 1.921875.8125.6875.8125.6875 2.32812v.45313h-4.296875q.03125.9375.546875 1.51562.53125.57813 1.34375.57813.5625 0 .953125-.23438.40625-.23437.71875-.625l.65625.51563q-.796875 1.23437-2.390625 1.23437zm-.140625-5.6875q-.65625 0-1.109375.48438-.4375.46875-.53125 1.32812h3.171875v-.07812q-.046875-.82813-.453125-1.28125-.390625-.45313-1.078125-.45313zm4.6875 5.5625h-1.078125v-8.999997h1.078125zm7.1875-3.09375q0 1.45313-.671875 2.34375-.65625.875-1.78125.875-1.203125 0-1.859375-.85937l-.0625.73437h-.984375v-8.999997h1.078125v3.359377q.65625-.8125 1.8125-.8125 1.15625 0 1.8125.875.65625.85937.65625 2.39062zm-1.078125-.125q0-1.10937-.4375-1.70312-.421875-.60938-1.21875-.60938-1.078125 0-1.546875.98438v2.75q.5 1 1.546875 1 .78125 0 1.21875-.60938.4375-.60937.4375-1.8125zm5.78125-2.15625q-.25-.03125-.53125-.03125-1.078125 0-1.453125.90625v4.5h-1.078125v-6.34375h1.046875l.015625.73438q.53125-.84375 1.515625-.84375.3125 0 .484375.07812zm2.109375 5.375h-1.078125v-6.34375h1.078125zm-1.171875-8.015622q0-.265625.15625-.453125.171875-.1875.484375-.1875.3125 0 .46875.1875.171875.1875.171875.453125 0 .250002-.171875.437502-.15625.17187-.46875.17187-.3125 0-.484375-.17187-.15625-.1875-.15625-.437502zm4.46875.140622v1.53125h1.171875v.84375h-1.171875v3.92188q0 .39062.15625.57812.15625.1875.53125.1875.1875 0 .515625-.0625v.875q-.421875.125-.828125.125-.71875 0-1.09375-.4375-.375-.45312-.375-1.26562v-3.92188h-1.15625v-.84375h1.15625v-1.53125zm6.4375 7.875q-.09375-.1875-.15625-.67187-.75.79687-1.796875.79687-.9375 0-1.546875-.53125-.59375-.53125-.59375-1.35937 0-.98438.75-1.53125.75-.54688 2.125-.54688h1.046875v-.5q0-.5625-.34375-.89062-.328125-.34375-1-.34375-.578125 0-.96875.29687-.390625.28125-.390625.70313h-1.09375q0-.48438.328125-.92188.34375-.4375.921875-.6875.578125-.26562 1.265625-.26562 1.109375 0 1.71875.54687.625.54688.65625 1.5v2.92188q0 .875.21875 1.39062v.09375zm-1.796875-.82812q.515625 0 .96875-.26563.453125-.26562.65625-.6875v-1.29687h-.84375q-2 0-2 1.17187 0 .5.34375.79688.34375.28125.875.28125zm2.46875-6.84375h-3.9375v-.843752h3.9375zm3.4375 1.32812.03125.79688q.734375-.90625 1.90625-.90625 2.015625 0 2.03125 2.26562v4.1875h-1.09375v-4.20312q0-.67188-.3125-1-.296875-.32813-.953125-.32813-.53125 0-.9375.28125-.390625.28125-.609375.73438v4.51562h-1.078125v-6.34375zm7.15625 6.34375h-1.078125v-6.34375h1.078125zm-1.171875-8.015622q0-.265625.15625-.453125.171875-.1875.484375-.1875.3125 0 .46875.1875.171875.1875.171875.453125 0 .250002-.171875.437502-.15625.17187-.46875.17187-.3125 0-.484375-.17187-.15625-.1875-.15625-.437502zm4.109375 1.671872v7.07813q0 1.82812-1.65625 1.82812-.359375 0-.65625-.10937v-.85938q.1875.04688.484375.04688.359375 0 .546875-.20313.203125-.1875.203125-.6875v-7.09375zm-1.1875-1.671872q0-.265625.15625-.453125.15625-.1875.46875-.1875.3125 0 .46875.1875.171875.1875.171875.453125 0 .250002-.171875.437502-.15625.17187-.46875.17187-.3125 0-.46875-.17187-.15625-.1875-.15625-.437502zm6.984375 8.015622q-.09375-.1875-.15625-.67187-.75.79687-1.796875.79687-.9375 0-1.546875-.53125-.59375-.53125-.59375-1.35937 0-.98438.75-1.53125.75-.54688 2.125-.54688h1.046875v-.5q0-.5625-.34375-.89062-.328125-.34375-1-.34375-.578125 0-.96875.29687-.390625.28125-.390625.70313h-1.09375q0-.48438.328125-.92188.34375-.4375.921875-.6875.578125-.26562 1.265625-.26562 1.109375 0 1.71875.54687.625.54688.65625 1.5v2.92188q0 .875.21875 1.39062v.09375zm-1.796875-.82812q.515625 0 .96875-.26563.453125-.26562.65625-.6875v-1.29687h-.84375q-2 0-2 1.17187 0 .5.34375.79688.34375.28125.875.28125z"/><path d="m66.203125 128.83481h-1.125v-8.53125h1.125zm1.359375-3.21875q0-1.48438.6875-2.35938.6875-.875 1.8125-.875 1.15625 0 1.8125.8125l.046875-.70312h1v6.1875q0 1.23437-.734375 1.9375-.734375.71875-1.953125.71875-.6875 0-1.34375-.29688-.65625-.29687-1-.79687l.5625-.65625q.6875.85937 1.703125.85937.78125 0 1.21875-.45312.453125-.4375.453125-1.25v-.54688q-.65625.76563-1.78125.76563-1.109375 0-1.796875-.89063-.6875-.90625-.6875-2.45312zm1.09375.125q0 1.0625.4375 1.6875.4375.60937 1.234375.60937 1.015625 0 1.5-.9375v-2.89062q-.5-.90625-1.5-.90625-.78125 0-1.234375.60937-.4375.60938-.4375 1.82813zm10.078125 3.09375q-.09375-.1875-.15625-.67188-.75.79688-1.796875.79688-.9375 0-1.546875-.53125-.59375-.53125-.59375-1.35938 0-.98437.75-1.53125.75-.54687 2.125-.54687h1.046875v-.5q0-.5625-.34375-.89063-.328125-.34375-1-.34375-.578125 0-.96875.29688-.390625.28125-.390625.70312h-1.09375q0-.48437.328125-.92187.34375-.4375.921875-.6875.578125-.26563 1.265625-.26563 1.109375 0 1.71875.54688.625.54687.65625 1.5v2.92187q0 .875.21875 1.39063v.09375zm-1.796875-.82813q.515625 0 .96875-.26562.453125-.26563.65625-.6875v-1.29688h-.84375q-2 0-2 1.17188 0 .5.34375.79687.34375.28125.875.28125zm8.796875.20313q-.625.75-1.859375.75-1.015625 0-1.546875-.59375-.53125-.59375-.53125-1.75v-4.125h1.078125v4.09375q0 1.45312 1.171875 1.45312 1.25 0 1.65625-.9375v-4.60937h1.09375v6.34375h-1.03125zm4.109375-5.71875.03125.79687q.734375-.90625 1.90625-.90625 2.015625 0 2.03125 2.26563v4.1875h-1.09375v-4.20313q0-.67187-.3125-1-.296875-.32812-.953125-.32812-.53125 0-.9375.28125-.390625.28125-.609375.73437v4.51563h-1.078125v-6.34375zm7.15625 6.34375h-1.078125v-6.34375h1.078125zm-1.171875-8.01563q0-.26562.15625-.45312.171875-.1875.484375-.1875.3125 0 .46875.1875.171875.1875.171875.45312 0 .25-.171875.4375-.15625.17188-.46875.17188-.3125 0-.484375-.17188-.15625-.1875-.15625-.4375zm4.109375 1.67188v7.07812q0 1.82813-1.65625 1.82813-.359375 0-.65625-.10938v-.85937q.1875.04687.484375.04687.359375 0 .546875-.20312.203125-.1875.203125-.6875v-7.09375zm-1.1875-1.67188q0-.26562.15625-.45312.15625-.1875.46875-.1875.3125 0 .46875.1875.171875.1875.171875.45312 0 .25-.171875.4375-.15625.17188-.46875.17188-.3125 0-.46875-.17188-.15625-.1875-.15625-.4375zm6.984375 8.01563q-.09375-.1875-.15625-.67188-.75.79688-1.796875.79688-.9375 0-1.546875-.53125-.59375-.53125-.59375-1.35938 0-.98437.75-1.53125.75-.54687 2.125-.54687h1.046875v-.5q0-.5625-.34375-.89063-.328125-.34375-1-.34375-.578125 0-.96875.29688-.390625.28125-.390625.70312h-1.09375q0-.48437.328125-.92187.34375-.4375.921875-.6875.578125-.26563 1.265625-.26563 1.109375 0 1.71875.54688.625.54687.65625 1.5v2.92187q0 .875.21875 1.39063v.09375zm-1.796875-.82813q.515625 0 .96875-.26562.453125-.26563.65625-.6875v-1.29688h-.84375q-2 0-2 1.17188 0 .5.34375.79687.34375.28125.875.28125z"/><path d="m56.546875 185.7511h-1.125l-4.296875-6.57813v6.57813h-1.140625v-8.53125h1.140625l4.296875 6.60937v-6.60937h1.125zm3.453125 0h-1.09375v-6.34375h1.09375zm1.46875-7.65625h-3.9375v-.84375h3.9375zm.09375 4.4375q0-1.46875.6875-2.34375.6875-.89063 1.8125-.89063 1.109375 0 1.765625.75v-3.29687h1.078125v9h-1l-.046875-.6875q-.65625.8125-1.8125.8125-1.09375 0-1.796875-.90625-.6875-.90625-.6875-2.35938zm1.078125.125q0 1.07812.4375 1.6875.453125.60937 1.234375.60937 1.03125 0 1.515625-.9375v-2.90625q-.484375-.89062-1.5-.89062-.796875 0-1.25.60937-.4375.60938-.4375 1.82813zm8.8125 3.21875q-1.296875 0-2.109375-.84375-.796875-.85938-.796875-2.28125v-.1875q0-.95313.359375-1.6875.359375-.75 1-1.15625.65625-.42188 1.40625-.42188 1.234375 0 1.921875.8125.6875.8125.6875 2.32813v.45312h-4.296875q.03125.9375.546875 1.51563.53125.57812 1.34375.57812.5625 0 .953125-.23437.40625-.23438.71875-.625l.65625.51562q-.796875 1.23438-2.390625 1.23438zm-.140625-5.6875q-.65625 0-1.109375.48437-.4375.46875-.53125 1.32813h3.171875v-.07813q-.046875-.82812-.453125-1.28125-.390625-.45312-1.078125-.45312zm6.578125.1875q-.25-.03125-.53125-.03125-1.078125 0-1.453125.90625v4.5h-1.078125v-6.34375h1.046875l.015625.73437q.53125-.84375 1.515625-.84375.3125 0 .484375.07813zm2.109375 5.375h-1.078125v-9h1.078125zm5.734375 0q-.09375-.1875-.15625-.67188-.75.79688-1.796875.79688-.9375 0-1.546875-.53125-.59375-.53125-.59375-1.35938 0-.98437.75-1.53125.75-.54687 2.125-.54687h1.046875v-.5q0-.5625-.34375-.89063-.328125-.34375-1-.34375-.578125 0-.96875.29688-.390625.28125-.390625.70312h-1.09375q0-.48437.328125-.92187.34375-.4375.921875-.6875.578125-.26563 1.265625-.26563 1.109375 0 1.71875.54688.625.54687.65625 1.5v2.92187q0 .875.21875 1.39063v.09375zm-1.796875-.82813q.515625 0 .96875-.26562.453125-.26563.65625-.6875v-1.29688h-.84375q-2 0-2 1.17188 0 .5.34375.79687.34375.28125.875.28125zm5.90625-5.51562.03125.79687q.734375-.90625 1.90625-.90625 2.015625 0 2.03125 2.26563v4.1875h-1.09375v-4.20313q0-.67187-.3125-1-.296875-.32812-.953125-.32812-.53125 0-.9375.28125-.390625.28125-.609375.73437v4.51563h-1.078125v-6.34375zm5.71875 3.125q0-1.46875.6875-2.34375.6875-.89063 1.8125-.89063 1.109375 0 1.765625.75v-3.29687h1.078125v9h-1l-.046875-.6875q-.65625.8125-1.8125.8125-1.09375 0-1.796875-.90625-.6875-.90625-.6875-2.35938zm1.078125.125q0 1.07812.4375 1.6875.453125.60937 1.234375.60937 1.03125 0 1.515625-.9375v-2.90625q-.484375-.89062-1.5-.89062-.796875 0-1.25.60937-.4375.60938-.4375 1.82813zm8.8125 3.21875q-1.296875 0-2.109375-.84375-.796875-.85938-.796875-2.28125v-.1875q0-.95313.359375-1.6875.359375-.75 1-1.15625.65625-.42188 1.40625-.42188 1.234375 0 1.921875.8125.6875.8125.6875 2.32813v.45312h-4.296875q.03125.9375.546875 1.51563.53125.57812 1.34375.57812.5625 0 .953125-.23437.40625-.23438.71875-.625l.65625.51562q-.796875 1.23438-2.390625 1.23438zm-.140625-5.6875q-.65625 0-1.109375.48437-.4375.46875-.53125 1.32813h3.171875v-.07813q-.046875-.82812-.453125-1.28125-.390625-.45312-1.078125-.45312z"/><path d="m77.8125 241.1674 2.4375-7.03125h1.234375l-3.171875 8.53125h-.984375l-3.15625-8.53125h1.21875zm8.921875 1.5q-.09375-.1875-.15625-.67187-.75.79687-1.796875.79687-.9375 0-1.546875-.53125-.59375-.53125-.59375-1.35937 0-.98438.75-1.53125.75-.54688 2.125-.54688h1.046875v-.5q0-.5625-.34375-.89062-.328125-.34375-1-.34375-.578125 0-.96875.29687-.390625.28125-.390625.70313h-1.09375q0-.48438.328125-.92188.34375-.4375.921875-.6875.578125-.26562 1.265625-.26562 1.109375 0 1.71875.54687.625.54688.65625 1.5v2.92188q0 .875.21875 1.39062v.09375zm-1.796875-.82812q.515625 0 .96875-.26563.453125-.26562.65625-.6875v-1.29687h-.84375q-2 0-2 1.17187 0 .5.34375.79688.34375.28125.875.28125zm2.46875-6.84375h-3.9375v-.84375h3.9375zm4.953125 6.90625q.578125 0 1.015625-.34375.4375-.35938.484375-.89063h1.03125q-.03125.54688-.390625 1.04688-.34375.48437-.921875.78125-.5625.29687-1.21875.29687-1.296875 0-2.0625-.85937-.75-.875-.75-2.375v-.1875q0-.92188.328125-1.64063.34375-.71875.96875-1.10937.640625-.40625 1.515625-.40625 1.0625 0 1.765625.64062.71875.625.765625 1.65625h-1.03125q-.046875-.625-.46875-1.01562-.421875-.39063-1.03125-.39063-.828125 0-1.28125.59375-.453125.59375-.453125 1.71875v.20313q0 1.09375.453125 1.6875.453125.59375 1.28125.59375zm4.640625.76562h-1.078125v-6.34375h1.078125zm-1.171875-8.01562q0-.26563.15625-.45313.171875-.1875.484375-.1875.3125 0 .46875.1875.171875.1875.171875.45313 0 .25-.171875.4375-.15625.17187-.46875.17187-.3125 0-.484375-.17187-.15625-.1875-.15625-.4375zm4.109375 1.67187v7.07813q0 1.82812-1.65625 1.82812-.359375 0-.65625-.10937v-.85938q.1875.04688.484375.04688.359375 0 .546875-.20313.203125-.1875.203125-.6875v-7.09375zm-1.1875-1.67187q0-.26563.15625-.45313.15625-.1875.46875-.1875.3125 0 .46875.1875.171875.1875.171875.45313 0 .25-.171875.4375-.15625.17187-.46875.17187-.3125 0-.46875-.17187-.15625-.1875-.15625-.4375zm6.984375 8.01562q-.09375-.1875-.15625-.67187-.75.79687-1.796875.79687-.9375 0-1.546875-.53125-.59375-.53125-.59375-1.35937 0-.98438.75-1.53125.75-.54688 2.125-.54688h1.046875v-.5q0-.5625-.34375-.89062-.328125-.34375-1-.34375-.578125 0-.96875.29687-.390625.28125-.390625.70313h-1.09375q0-.48438.328125-.92188.34375-.4375.921875-.6875.578125-.26562 1.265625-.26562 1.109375 0 1.71875.54687.625.54688.65625 1.5v2.92188q0 .875.21875 1.39062v.09375zm-1.796875-.82812q.515625 0 .96875-.26563.453125-.26562.65625-.6875v-1.29687h-.84375q-2 0-2 1.17187 0 .5.34375.79688.34375.28125.875.28125z"/><path d="m35.984375 299.5837v-8.53124h2.421875q1.109375 0 1.953125.5.859375.48437 1.328125 1.39062.46875.90625.46875 2.09375v.53125q0 1.21875-.46875 2.125-.453125.90625-1.328125 1.39062-.859375.48438-2 .5zm1.125-7.60937v6.6875h1.1875q1.296875 0 2.015625-.79687.734375-.8125.734375-2.3125v-.5q0-1.45313-.6875-2.25-.671875-.8125-1.9375-.82813zm7.890625 7.60937h-1.078125v-6.34374h1.078125zm-1.171875-8.01562q0-.26562.15625-.45312.171875-.1875.484375-.1875.3125 0 .46875.1875.171875.1875.171875.45312 0 .25-.171875.4375-.15625.17188-.46875.17188-.3125 0-.484375-.17188-.15625-.1875-.15625-.4375zm5.625 8.14062q-1.296875 0-2.109375-.84374-.796875-.85938-.796875-2.28126v-.1875q0-.95312.359375-1.6875.359375-.75 1-1.15624.65625-.42188 1.40625-.42188 1.234375 0 1.921875.8125.6875.8125.6875 2.32812v.45313h-4.296875q.03125.9375.546875 1.51563.53125.57812 1.34375.57812.5625 0 .953125-.23438.40625-.23437.71875-.625l.65625.51563q-.796875 1.23437-2.390625 1.23437zm-.140625-5.6875q-.65625 0-1.109375.48438-.4375.46875-.53125 1.32812h3.171875v-.07812q-.046875-.82812-.453125-1.28125-.390625-.45313-1.078125-.45313zm4.53125-.78124.03125.79687q.734375-.90625 1.90625-.90625 2.015625 0 2.03125 2.26562v4.1875h-1.09375v-4.20312q0-.67188-.3125-1-.296875-.32812-.953125-.32812-.53125 0-.9375.28124-.390625.28126-.609375.73438v4.51562h-1.078125v-6.34374zm8.0625 4.875 1.578125-4.875h1.109375l-2.28125 6.34374h-.828125l-2.296875-6.34374h1.109375zm5.09375 1.46874h-1.078125v-6.34374h1.078125zm-1.171875-8.01562q0-.26562.15625-.45312.171875-.1875.484375-.1875.3125 0 .46875.1875.171875.1875.171875.45312 0 .25-.171875.4375-.15625.17188-.46875.17188-.3125 0-.484375-.17188-.15625-.1875-.15625-.4375zm2.734375 4.79688q0-1.46876.6875-2.34376.6875-.89062 1.8125-.89062 1.109375 0 1.765625.75v-3.29688h1.078125v9h-1l-.046875-.6875q-.65625.8125-1.8125.8125-1.09375 0-1.796875-.90624-.6875-.90626-.6875-2.35938zm1.078125.125q0 1.07812.4375 1.6875.453125.60937 1.234375.60937 1.03125 0 1.515625-.9375v-2.90625q-.484375-.89062-1.5-.89062-.796875 0-1.25.60937-.4375.60937-.4375 1.82813zm7.953125.15624-.6875.70313v2.23437h-1.078125v-9h1.078125v5.4375l.578125-.6875 1.984375-2.09374h1.3125l-2.46875 2.65624 2.765625 3.6875h-1.28125zm3.9375-.29687q0-.92187.359375-1.67187.375-.75 1.03125-1.14063.65625-.40625 1.484375-.40625 1.296875 0 2.09375.89062.8125.89063.8125 2.39063v.07813q0 .92187-.359375 1.65624-.359375.73438-1.015625 1.15626-.65625.40624-1.515625.40624-1.28125 0-2.09375-.89062-.796875-.90625-.796875-2.39062zm1.09375.14063q0 1.04687.484375 1.6875.5.64062 1.3125.64062.828125 0 1.3125-.64062.484375-.65626.484375-1.82813 0-1.03125-.5-1.67187-.484375-.65626-1.3125-.65626-.796875 0-1.296875.64063-.484375.625-.484375 1.82813zm9.265625-2.28126q-.25-.03124-.53125-.03124-1.078125 0-1.453125.90624v4.5h-1.078125v-6.34374h1.046875l.015625.73437q.53125-.84375 1.515625-.84375.3125 0 .484375.07812zm3.5625 5.5q-1.296875 0-2.109375-.84374-.796875-.85938-.796875-2.28126v-.1875q0-.95312.359375-1.6875.359375-.75 1-1.15624.65625-.42188 1.40625-.42188 1.234375 0 1.921875.8125.6875.8125.6875 2.32812v.45313h-4.296875q.03125.9375.546875 1.51563.53125.57812 1.34375.57812.5625 0 .953125-.23438.40625-.23437.71875-.625l.65625.51563q-.796875 1.23437-2.390625 1.23437zm-.140625-5.6875q-.65625 0-1.109375.48438-.4375.46875-.53125 1.32812h3.171875v-.07812q-.046875-.82812-.453125-1.28125-.390625-.45313-1.078125-.45313zm4.625-.78124v7.07812q0 1.82812-1.65625 1.82812-.359375 0-.65625-.10937v-.85937q.1875.04687.484375.04687.359375 0 .546875-.20313.203125-.1875.203125-.6875v-7.09374zm-1.1875-1.67188q0-.26562.15625-.45312.15625-.1875.46875-.1875.3125 0 .46875.1875.171875.1875.171875.45312 0 .25-.171875.4375-.15625.17188-.46875.17188-.3125 0-.46875-.17188-.15625-.1875-.15625-.4375zm6.984375 8.01562q-.09375-.1875-.15625-.67187-.75.79687-1.796875.79687-.9375 0-1.546875-.53124-.59375-.53126-.59375-1.35938 0-.98438.75-1.53125.75-.54687 2.125-.54687h1.046875v-.5q0-.5625-.34375-.89063-.328125-.34375-1-.34375-.578125 0-.96875.29688-.390625.28124-.390625.70312h-1.09375q0-.48438.328125-.92188.34375-.4375.921875-.6875.578125-.26562 1.265625-.26562 1.109375 0 1.71875.54688.625.54687.65625 1.5v2.92187q0 .875.21875 1.39063v.09374zm-1.796875-.82812q.515625 0 .96875-.26562.453125-.26563.65625-.6875v-1.29688h-.84375q-2 0-2 1.17188 0 .5.34375.79687.34375.28125.875.28125z"/><path d="m71.125 355.57812h4.046875v.92188h-5.1875v-8.53125h1.140625zm5.875.92188h-1.078125v-6.34375h1.078125zm-1.171875-8.01562q0-.26563.15625-.45313.171875-.1875.484375-.1875.3125 0 .46875.1875.171875.1875.171875.45313 0 .25-.171875.4375-.15625.17187-.46875.17187-.3125 0-.484375-.17187-.15625-.1875-.15625-.4375zm5.625 8.14062q-1.296875 0-2.109375-.84375-.796875-.85937-.796875-2.28125v-.1875q0-.95312.359375-1.6875.359375-.75 1-1.15625.65625-.42187 1.40625-.42187 1.234375 0 1.921875.8125.6875.8125.6875 2.32812v.45312h-4.296875q.03125.9375.546875 1.51563.53125.57813 1.34375.57813.5625 0 .953125-.23438.40625-.23438.71875-.625l.65625.51562q-.796875 1.23438-2.390625 1.23438zm-.140625-5.6875q-.65625 0-1.109375.48438-.4375.46874-.53125 1.32812h3.171875v-.07812q-.046875-.82813-.453125-1.28126-.390625-.45312-1.078125-.45312zm4.984375-2.3125v1.53125h1.171875v.84375h-1.171875v3.92188q0 .39062.15625.57812.15625.1875.53125.1875.1875 0 .515625-.0625v.875q-.421875.125-.828125.125-.71875 0-1.09375-.4375-.375-.45312-.375-1.26562v-3.92188h-1.15625v-.84375h1.15625v-1.53125zm6.4375 7.25q-.625.75-1.859375.75-1.015625 0-1.546875-.59375-.53125-.59375-.53125-1.75v-4.125h1.078125v4.09375q0 1.45312 1.171875 1.45312 1.25 0 1.65625-.9375v-4.60937h1.09375v6.34375h-1.03125zm5.171875-.84375 1.578125-4.875h1.109375l-2.28125 6.34375h-.828125l-2.296875-6.34375h1.109375zm7.828125 1.46875q-.09375-.1875-.15625-.67188-.75.79688-1.796875.79688-.9375 0-1.546875-.53125-.59375-.53125-.59375-1.35937 0-.98438.75-1.53126.75-.54687 2.125-.54687h1.046875v-.5q0-.5625-.34375-.89063-.328125-.34374-1-.34374-.578125 0-.96875.29687-.390625.28125-.390625.70313h-1.09375q0-.48438.328125-.92188.34375-.4375.921875-.6875.578125-.26562 1.265625-.26562 1.109375 0 1.71875.54687.625.54687.65625 1.5v2.92187q0 .875.21875 1.39063v.09375zm-1.796875-.82812q.515625 0 .96875-.26563.453125-.26563.65625-.6875v-1.29687h-.84375q-2 0-2 1.17187 0 .5.34375.79687.34375.28126.875.28126z"/><path d="m70.5625 404.88504h1.140625v6.04688q0 1.21875-.75 1.92188-.734375.6875-1.953125.6875-1.265625 0-1.984375-.65626-.703125-.65624-.703125-1.82812h1.125q0 .73438.390625 1.15625.40625.40625 1.171875.40625.703125 0 1.125-.4375.4375-.45312.4375-1.23438zm7.171875 8.53126q-.09375-.1875-.15625-.67188-.75.79688-1.796875.79688-.9375 0-1.546875-.53126-.59375-.53124-.59375-1.35937 0-.98437.75-1.53125.75-.54688 2.125-.54688h1.046875v-.5q0-.5625-.34375-.89062-.328125-.34375-1-.34375-.578125 0-.96875.29687-.390625.28126-.390625.70313h-1.09375q0-.48437.328125-.92187.34375-.4375.921875-.6875.578125-.26563 1.265625-.26563 1.109375 0 1.71875.54687.625.54688.65625 1.5v2.92188q0 .875.21875 1.39062v.09376zm-1.796875-.82813q.515625 0 .96875-.26563.453125-.26562.65625-.6875v-1.29687h-.84375q-2 0-2 1.17187 0 .5.34375.79688.34375.28125.875.28125zm10.234375-2.26563q0 1.4375-.65625 2.32813-.65625.89063-1.796875.89063-1.15625 0-1.8125-.73438v3.04688h-1.078125v-8.78126h.984375l.046875.70313q.671875-.8125 1.84375-.8125 1.140625 0 1.796875.85937.671875.85938.671875 2.39063zm-1.078125-.125q0-1.07812-.46875-1.6875-.453125-.625-1.25-.625-.984375 0-1.46875.85938v3.03125q.484375.875 1.484375.875.78125 0 1.234375-.60937.46875-.625.46875-1.84376zm6.640625 3.21876q-.09375-.1875-.15625-.67188-.75.79688-1.796875.79688-.9375 0-1.546875-.53126-.59375-.53124-.59375-1.35937 0-.98437.75-1.53125.75-.54688 2.125-.54688h1.046875v-.5q0-.5625-.34375-.89062-.328125-.34375-1-.34375-.578125 0-.96875.29687-.390625.28126-.390625.70313h-1.09375q0-.48437.328125-.92187.34375-.4375.921875-.6875.578125-.26563 1.265625-.26563 1.109375 0 1.71875.54687.625.54688.65625 1.5v2.92188q0 .875.21875 1.39062v.09376zm-1.796875-.82813q.515625 0 .96875-.26563.453125-.26562.65625-.6875v-1.29687h-.84375q-2 0-2 1.17187 0 .5.34375.79688.34375.28125.875.28125zm2.46875-6.84375h-3.9375v-.84375h3.9375zm3.4375 1.32812.03125.79688q.734375-.90625 1.90625-.90625 2.015625 0 2.03125 2.26563v4.1875h-1.09375v-4.20313q0-.67187-.3125-1-.296875-.32813-.953125-.32813-.53125 0-.9375.28126-.390625.28124-.609375.73437v4.51563h-1.078125v-6.34376zm9.890625 6.34376q-.09375-.1875-.15625-.67188-.75.79688-1.796875.79688-.9375 0-1.546875-.53126-.59375-.53124-.59375-1.35937 0-.98437.75-1.53125.75-.54688 2.125-.54688h1.046875v-.5q0-.5625-.34375-.89062-.328125-.34375-1-.34375-.578125 0-.96875.29687-.390625.28126-.390625.70313h-1.09375q0-.48437.328125-.92187.34375-.4375.921875-.6875.578125-.26563 1.265625-.26563 1.109375 0 1.71875.54687.625.54688.65625 1.5v2.92188q0 .875.21875 1.39062v.09376zm-1.796875-.82813q.515625 0 .96875-.26563.453125-.26562.65625-.6875v-1.29687h-.84375q-2 0-2 1.17187 0 .5.34375.79688.34375.28125.875.28125z"/><path d="m69.703125 466.567h-3.59375v3.7656h-1.125v-8.53124h5.296875v.92188h-4.171875v2.92186h3.59375zm5.1875-1.6094q-.25-.03124-.53125-.03124-1.078125 0-1.453125.90624v4.5h-1.078125v-6.34374h1.046875l.015625.73438q.53125-.84374 1.515625-.84374.3125 0 .484375.0781zm4.84375 5.375q-.09375-.1875-.15625-.67186-.75.79686-1.796875.79686-.9375 0-1.546875-.53124-.59375-.53126-.59375-1.35936 0-.9844.75-1.53126.75-.54688 2.125-.54688h1.046875v-.5q0-.5625-.34375-.89062-.328125-.34374-1-.34374-.578125 0-.96875.29686-.390625.28124-.390625.70314h-1.09375q0-.4844.328125-.9219.34375-.4375.921875-.6875.578125-.2656 1.265625-.2656 1.109375 0 1.71875.54686.625.54688.65625 1.5v2.92188q0 .875.21875 1.39062v.09374zm-1.796875-.8281q.515625 0 .96875-.26564.453125-.26562.65625-.6875v-1.29686h-.84375q-2 0-2 1.17186 0 .5.34375.79688.34375.28126.875.28126zm5.90625-5.51564.03125.79688q.734375-.90624 1.90625-.90624 2.015625 0 2.03125 2.2656v4.1875h-1.09375v-4.2031q0-.6719-.3125-1-.296875-.32814-.953125-.32814-.53125 0-.9375.28124-.390625.28126-.609375.7344v4.5156h-1.078125v-6.34374zm8.515625 5.57814q.578125 0 1.015625-.34376.4375-.35938.484375-.89064h1.03125q-.03125.5469-.390625 1.0469-.34375.48436-.921875.78124-.5625.29686-1.21875.29686-1.296875 0-2.0625-.85936-.75-.875-.75-2.375v-.1875q0-.92188.328125-1.64064.34375-.71874.96875-1.10936.640625-.40624 1.515625-.40624 1.0625 0 1.765625.6406.71875.625.765625 1.65626h-1.03125q-.046875-.625-.46875-1.01562-.421875-.39064-1.03125-.39064-.828125 0-1.28125.59376-.453125.59374-.453125 1.71874v.20314q0 1.09376.453125 1.6875.453125.59376 1.28125.59376zm4.640625.7656h-1.078125v-6.34374h1.078125zm-1.171875-8.0156q0-.26564.15625-.45314.171875-.1875.484375-.1875.3125 0 .46875.1875.171875.1875.171875.45314 0 .25-.171875.4375-.15625.17186-.46875.17186-.3125 0-.484375-.17186-.15625-.1875-.15625-.4375zm4.109375 1.67186v7.07814q0 1.8281-1.65625 1.8281-.359375 0-.65625-.10936v-.85938q.1875.04688.484375.04688.359375 0 .546875-.20314.203125-.1875.203125-.6875v-7.09374zm-1.1875-1.67186q0-.26564.15625-.45314.15625-.1875.46875-.1875.3125 0 .46875.1875.171875.1875.171875.45314 0 .25-.171875.4375-.15625.17186-.46875.17186-.3125 0-.46875-.17186-.15625-.1875-.15625-.4375zm6.984375 8.0156q-.09375-.1875-.15625-.67186-.75.79686-1.796875.79686-.9375 0-1.546875-.53124-.59375-.53126-.59375-1.35936 0-.9844.75-1.53126.75-.54688 2.125-.54688h1.046875v-.5q0-.5625-.34375-.89062-.328125-.34374-1-.34374-.578125 0-.96875.29686-.390625.28124-.390625.70314h-1.09375q0-.4844.328125-.9219.34375-.4375.921875-.6875.578125-.2656 1.265625-.2656 1.109375 0 1.71875.54686.625.54688.65625 1.5v2.92188q0 .875.21875 1.39062v.09374zm-1.796875-.8281q.515625 0 .96875-.26564.453125-.26562.65625-.6875v-1.29686h-.84375q-2 0-2 1.17186 0 .5.34375.79688.34375.28126.875.28126z"/><path d="m72.984375 527.2489v-8.53125h2.796875q1.390625 0 2.078125.57815.703125.5625.703125 1.6875 0 .60935-.34375 1.0781-.328125.4531-.921875.7031.703125.1875 1.09375.7344.40625.53125.40625 1.28125 0 1.15625-.75 1.8125-.734375.65625-2.09375.65625zm1.125-3.9844v3.0625h1.859375q.796875 0 1.25-.4062.453125-.4063.453125-1.125 0-1.5313-1.6875-1.5313zm0-.9062h1.703125q.734375 0 1.171875-.3594.453125-.375.453125-1.0156 0-.70315-.40625-1.01565-.40625-.32815-1.25-.32815h-1.671875zm8.34375 5.0156q-1.296875 0-2.109375-.84375-.796875-.85935-.796875-2.28125v-.1875q0-.9531.359375-1.6875.359375-.75 1-1.15625.65625-.42185 1.40625-.42185 1.234375 0 1.921875.8125.6875.8125.6875 2.3281v.4531h-4.296875q.03125.9375.546875 1.51565.53125.57815 1.34375.57815.5625 0 .953125-.2344.40625-.2344.71875-.625l.65625.5156q-.796875 1.2344-2.390625 1.2344zm-.140625-5.6875q-.65625 0-1.109375.4844-.4375.4687-.53125 1.3281h3.171875v-.0781q-.046875-.82815-.453125-1.2813-.390625-.4531-1.078125-.4531zm4.6875 5.5625h-1.078125v-9h1.078125zm-.875 2.9375-.609375-.4219q.421875-.6406.421875-1.375v-.54685h1.046875v.45315q0 .5312-.234375 1.04685-.234375.53125-.625.84375zm2.4375-6.15625q0-1.48435.6875-2.35935.6875-.875 1.8125-.875 1.15625 0 1.8125.8125l.046875-.70315h1v6.1875q0 1.23435-.734375 1.9375-.734375.71875-1.953125.71875-.6875 0-1.34375-.2969-.65625-.29685-1-.79685l.5625-.65625q.6875.8594 1.703125.8594.78125 0 1.21875-.45315.453125-.4375.453125-1.25v-.54685q-.65625.7656-1.78125.7656-1.109375 0-1.796875-.8906-.6875-.9063-.6875-2.45315zm1.09375.125q0 1.0625.4375 1.6875.4375.60935 1.234375.60935 1.015625 0 1.5-.9375v-2.8906q-.5-.90625-1.5-.90625-.78125 0-1.234375.60935-.4375.6094-.4375 1.82815zm1.84375-6.76565.625.4844q-.34375.5781-.359375 1.2344v.79685h-1.078125v-.76565q0-.4531.234375-.9531.25-.5156.578125-.7969zm5.5 9.8594h-1.078125v-6.34375h1.078125zm-1.171875-8.0156q0-.26565.15625-.45315.171875-.1875.484375-.1875.3125 0 .46875.1875.171875.1875.171875.45315 0 .25-.171875.4375-.15625.17185-.46875.17185-.3125 0-.484375-.17185-.15625-.1875-.15625-.4375zm4.109375 1.67185v7.07815q0 1.8281-1.65625 1.8281-.359375 0-.65625-.1094v-.85935q.1875.04685.484375.04685.359375 0 .546875-.2031.203125-.1875.203125-.6875v-7.09375zm-1.1875-1.67185q0-.26565.15625-.45315.15625-.1875.46875-.1875.3125 0 .46875.1875.171875.1875.171875.45315 0 .25-.171875.4375-.15625.17185-.46875.17185-.3125 0-.46875-.17185-.15625-.1875-.15625-.4375zm6.984375 8.0156q-.09375-.1875-.15625-.6719-.75.7969-1.796875.7969-.9375 0-1.546875-.53125-.59375-.53125-.59375-1.35935 0-.9844.75-1.5313.75-.54685 2.125-.54685h1.046875v-.5q0-.5625-.34375-.89065-.328125-.3437-1-.3437-.578125 0-.96875.29685-.390625.28125-.390625.70315h-1.09375q0-.4844.328125-.9219.34375-.4375.921875-.6875.578125-.2656 1.265625-.2656 1.109375 0 1.71875.54685.625.54685.65625 1.5v2.92185q0 .875.21875 1.39065v.09375zm-1.796875-.8281q.515625 0 .96875-.26565.453125-.26565.65625-.6875v-1.29685h-.84375q-2 0-2 1.17185 0 .5.34375.79685.34375.2813.875.2813z"/><path d="m79.8125 580.2277h-3.703125v3.01565h4.296875v.92185h-5.421875v-8.5312h5.375v.92185h-4.25v2.75h3.703125zm-.1875-5.625h-3.9375v-.8437h3.9375zm1.9375 6.3438q0-1.4844.6875-2.3594.6875-.875 1.8125-.875 1.15625 0 1.8125.8125l.046875-.7031h1v6.1875q0 1.23435-.734375 1.9375-.734375.7187-1.953125.7187-.6875 0-1.34375-.29685-.65625-.29685-1-.79685l.5625-.6563q.6875.8594 1.703125.8594.78125 0 1.21875-.4531.453125-.4375.453125-1.25v-.5469q-.65625.7656-1.78125.7656-1.109375 0-1.796875-.8906-.6875-.90625-.6875-2.4531zm1.09375.125q0 1.0625.4375 1.6875.4375.60935 1.234375.60935 1.015625 0 1.5-.9375v-2.89065q-.5-.9062-1.5-.9062-.78125 0-1.234375.60935-.4375.60935-.4375 1.82815zm1.84375-6.76565.625.48435q-.34375.57815-.359375 1.2344v.7969h-1.078125v-.76565q0-.45315.234375-.95315.25-.5156.578125-.79685zm5.5 9.85935h-1.078125v-6.3437h1.078125zm-1.171875-8.0156q0-.2656.15625-.4531.171875-.1875.484375-.1875.3125 0 .46875.1875.171875.1875.171875.4531 0 .25-.171875.4375-.15625.1719-.46875.1719-.3125 0-.484375-.1719-.15625-.1875-.15625-.4375zm8.34375 4.9219q0 1.4375-.65625 2.3281-.65625.8906-1.796875.8906-1.15625 0-1.8125-.73435v3.04685h-1.078125v-8.7812h.984375l.046875.7031q.671875-.8125 1.84375-.8125 1.140625 0 1.796875.8594.671875.85935.671875 2.3906zm-1.078125-.125q0-1.07815-.46875-1.6875-.453125-.625-1.25-.625-.984375 0-1.46875.85935v3.03125q.484375.875 1.484375.875.78125 0 1.234375-.6094.46875-.625.46875-1.8437zm4.203125-4.6563v1.5313h1.171875v.8437h-1.171875v3.9219q0 .3906.15625.5781.15625.1875.53125.1875.1875 0 .515625-.0625v.875q-.421875.125-.828125.125-.71875 0-1.09375-.4375-.375-.4531-.375-1.2656v-3.9219h-1.15625v-.8437h1.15625v-1.5313zm5.15625 8q-1.296875 0-2.109375-.8437-.796875-.8594-.796875-2.2813v-.1875q0-.9531.359375-1.6875.359375-.75 1-1.1562.65625-.4219 1.40625-.4219 1.234375 0 1.921875.8125.6875.8125.6875 2.3281v.45315h-4.296875q.03125.9375.546875 1.51565.53125.5781 1.34375.5781.5625 0 .953125-.2344.40625-.23435.71875-.625l.65625.51565q-.796875 1.23435-2.390625 1.23435zm-.140625-5.6875q-.65625 0-1.109375.4844-.4375.46875-.53125 1.3281h3.171875v-.0781q-.046875-.8281-.453125-1.28125-.390625-.45315-1.078125-.45315z"/><path d="m31.109375 637.73773v3.34377h-1.125v-8.53127h3.15625q1.390625 0 2.1875.71877.796875.7031.796875 1.8906 0 1.2344-.78125 1.90626-.765625.67187-2.21875.67187zm0-.92187h2.03125q.90625 0 1.375-.42186.484375-.4219.484375-1.21877 0-.76563-.484375-1.21873-.46875-.46877-1.3125-.4844h-2.09375zm10.625 4.26564q-.09375-.1875-.15625-.6719-.75.7969-1.796875.7969-.9375 0-1.546875-.53127-.59375-.53123-.59375-1.35937 0-.98436.75-1.53126.75-.54687 2.125-.54687h1.046875v-.5q0-.5625-.34375-.89063-.328125-.34374-1-.34374-.578125 0-.96875.29687-.390625.28127-.390625.70313h-1.09375q0-.48436.328125-.92186.34375-.4375.921875-.6875.578125-.26564 1.265625-.26564 1.109375 0 1.71875.54687.625.54687.65625 1.5v2.92187q0 .875.21875 1.39063v.09377zm-1.796875-.82814q.515625 0 .96875-.26563.453125-.26563.65625-.6875v-1.29687h-.84375q-2 0-2 1.17187 0 .5.34375.79687.34375.28126.875.28126zm2.46875-6.84376h-3.9375v-.84374h3.9375zm5.484375 2.2969q-.25-.03127-.53125-.03127-1.078125 0-1.453125.90627v4.5h-1.078125v-6.34377h1.046875l.015625.73437q.53125-.84374 1.515625-.84374.3125 0 .484375.07814zm3.5625 5.5q-1.296875 0-2.109375-.84377-.796875-.85937-.796875-2.28123v-.1875q0-.95314.359375-1.6875.359375-.75 1-1.15627.65625-.42187 1.40625-.42187 1.234375 0 1.921875.8125.6875.8125.6875 2.32814v.4531h-4.296875q.03125.9375.546875 1.51563.53125.57813 1.34375.57813.5625 0 .953125-.23436.40625-.2344.71875-.625l.65625.5156q-.796875 1.2344-2.390625 1.2344zm-.140625-5.6875q-.65625 0-1.109375.48436-.4375.46874-.53125 1.32814h3.171875v-.07814q-.046875-.82813-.453125-1.28126-.390625-.4531-1.078125-.4531zm2-2.1094h-3.9375v-.84374h3.9375zm2.625 1.32813v7.07813q0 1.82814-1.65625 1.82814-.359375 0-.65625-.1094v-.85937q.1875.04687.484375.04687.359375 0 .546875-.2031.203125-.1875.203125-.6875v-7.09377zm-1.1875-1.67187q0-.26563.15625-.45313.15625-.1875.46875-.1875.3125 0 .46875.1875.171875.1875.171875.45313 0 .25-.171875.4375-.15625.17187-.46875.17187-.3125 0-.46875-.17187-.15625-.1875-.15625-.4375zm6.984375 8.01564q-.09375-.1875-.15625-.6719-.75.7969-1.796875.7969-.9375 0-1.546875-.53127-.59375-.53123-.59375-1.35937 0-.98436.75-1.53126.75-.54687 2.125-.54687h1.046875v-.5q0-.5625-.34375-.89063-.328125-.34374-1-.34374-.578125 0-.96875.29687-.390625.28127-.390625.70313h-1.09375q0-.48436.328125-.92186.34375-.4375.921875-.6875.578125-.26564 1.265625-.26564 1.109375 0 1.71875.54687.625.54687.65625 1.5v2.92187q0 .875.21875 1.39063v.09377zm-1.796875-.82814q.515625 0 .96875-.26563.453125-.26563.65625-.6875v-1.29687h-.84375q-2 0-2 1.17187 0 .5.34375.79687.34375.28126.875.28126zm2.46875-6.84376h-3.9375v-.84374h3.9375zm6.109375 5.9844q0-.4375-.34375-.6719-.328125-.25-1.15625-.42187-.8125-.17187-1.296875-.42187-.484375-.25-.71875-.57813-.21875-.34373-.21875-.8125 0-.78123.65625-1.3125.65625-.54687 1.6875-.54687 1.078125 0 1.734375.5625.671875.54687.671875 1.40624h-1.078125q0-.4375-.390625-.75-.375-.3281-.9375-.3281-.59375 0-.9375.2656-.328125.25-.328125.65626 0 .39064.3125.59374.3125.20313 1.125.39063.8125.17187 1.3125.42187.5.25.734375.6094.25.35936.25.85936 0 .85937-.6875 1.375-.671875.51564-1.75.51564-.765625 0-1.359375-.26564-.578125-.28126-.90625-.76563-.328125-.48437-.328125-1.04687h1.078125q.03125.54687.4375.875.40625.3125 1.078125.3125.609375 0 .984375-.25.375-.25.375-.67186zm7.390625.21873 1.578125-4.875h1.109375l-2.28125 6.34377h-.828125l-2.296875-6.34377h1.109375zm7.828125 1.46877q-.09375-.1875-.15625-.6719-.75.7969-1.796875.7969-.9375 0-1.546875-.53127-.59375-.53123-.59375-1.35937 0-.98436.75-1.53126.75-.54687 2.125-.54687h1.046875v-.5q0-.5625-.34375-.89063-.328125-.34374-1-.34374-.578125 0-.96875.29687-.390625.28127-.390625.70313h-1.09375q0-.48436.328125-.92186.34375-.4375.921875-.6875.578125-.26564 1.265625-.26564 1.109375 0 1.71875.54687.625.54687.65625 1.5v2.92187q0 .875.21875 1.39063v.09377zm-1.796875-.82814q.515625 0 .96875-.26563.453125-.26563.65625-.6875v-1.29687h-.84375q-2 0-2 1.17187 0 .5.34375.79687.34375.28126.875.28126zm6.0625.82814h-1.078125v-9h1.078125zm5.515625-1.6875q0-.4375-.34375-.6719-.328125-.25-1.15625-.42187-.8125-.17187-1.296875-.42187-.484375-.25-.71875-.57813-.21875-.34373-.21875-.8125 0-.78123.65625-1.3125.65625-.54687 1.6875-.54687 1.078125 0 1.734375.5625.671875.54687.671875 1.40624h-1.078125q0-.4375-.390625-.75-.375-.3281-.9375-.3281-.59375 0-.9375.2656-.328125.25-.328125.65626 0 .39064.3125.59374.3125.20313 1.125.39063.8125.17187 1.3125.42187.5.25.734375.6094.25.35936.25.85936 0 .85937-.6875 1.375-.671875.51564-1.75.51564-.765625 0-1.359375-.26564-.578125-.28126-.90625-.76563-.328125-.48437-.328125-1.04687h1.078125q.03125.54687.4375.875.40625.3125 1.078125.3125.609375 0 .984375-.25.375-.25.375-.67186zm3.78125-6.1875v1.53123h1.171875v.84377h-1.171875v3.92186q0 .39064.15625.57814.15625.1875.53125.1875.1875 0 .515625-.0625v.875q-.421875.125-.828125.125-.71875 0-1.09375-.4375-.375-.45314-.375-1.26564v-3.92186h-1.15625v-.84377h1.15625v-1.53123zm3.703125 7.875h-1.078125v-6.34377h1.078125zm-1.171875-8.01564q0-.26563.15625-.45313.171875-.1875.484375-.1875.3125 0 .46875.1875.171875.1875.171875.45313 0 .25-.171875.4375-.15625.17187-.46875.17187-.3125 0-.484375-.17187-.15625-.1875-.15625-.4375zm6.6875 6.32814q0-.4375-.34375-.6719-.328125-.25-1.15625-.42187-.8125-.17187-1.296875-.42187-.484375-.25-.71875-.57813-.21875-.34373-.21875-.8125 0-.78123.65625-1.3125.65625-.54687 1.6875-.54687 1.078125 0 1.734375.5625.671875.54687.671875 1.40624h-1.078125q0-.4375-.390625-.75-.375-.3281-.9375-.3281-.59375 0-.9375.2656-.328125.25-.328125.65626 0 .39064.3125.59374.3125.20313 1.125.39063.8125.17187 1.3125.42187.5.25.734375.6094.25.35936.25.85936 0 .85937-.6875 1.375-.671875.51564-1.75.51564-.765625 0-1.359375-.26564-.578125-.28126-.90625-.76563-.328125-.48437-.328125-1.04687h1.078125q.03125.54687.4375.875.40625.3125 1.078125.3125.609375 0 .984375-.25.375-.25.375-.67186z"/><path d="m116.828125 695.46875q0 1.76565-.734375 2.71875-.734375.9375-2.140625.9375-1.40625 0-2.140625-.9219-.734375-.92185-.75-2.6406v-1.5781q0-1.7813.734375-2.70315.75-.9375 2.140625-.9375 1.390625 0 2.125.92185.75.9219.765625 2.64065zm-1.703125-1.71875q0-1.0625-.296875-1.5469-.28125-.48435-.890625-.48435-.59375 0-.890625.46875-.28125.4531-.296875 1.4375v2.0625q0 1.0469.28125 1.5625.28125.5.921875.5.609375 0 .890625-.4844.28125-.48435.28125-1.48435z"/><path d="m252.54697 699h-5.84375v-1.15625l2.76562-2.95315q.5625-.60935.82813-1.0781.28125-.46875.28125-.875 0-.5781-.29688-.8906-.28125-.32815-.8125-.32815-.57812 0-.90625.39065-.32812.3906-.32812 1.04685h-1.70313q0-.78125.375-1.42185.375-.6563 1.04688-1.01565.6875-.375 1.54687-.375 1.3125 0 2.04688.64065.73437.625.73437 1.7812 0 .64065-.32812 1.2969-.32813.65625-1.125 1.53125l-1.9375 2.04685h3.65625zm6.90625-3.53125q0 1.76565-.73438 2.71875-.73437.9375-2.14062.9375-1.40625 0-2.14063-.9219-.73437-.92185-.75-2.6406v-1.5781q0-1.7813.73438-2.70315.75-.9375 2.14063-.9375 1.39062 0 2.125.92185.75.9219.76562 2.64065zm-1.70312-1.71875q0-1.0625-.29688-1.5469-.28125-.48435-.89062-.48435-.59376 0-.89063.46875-.28125.4531-.29688 1.4375v2.0625q0 1.0469.28125 1.5625.28125.5.92188.5.60938 0 .89062-.4844.28126-.48435.28126-1.48435zm8.70312 1.71875q0 1.76565-.73438 2.71875-.73437.9375-2.14062.9375-1.40625 0-2.14062-.9219-.73438-.92185-.75-2.6406v-1.5781q0-1.7813.73437-2.70315.75-.9375 2.14063-.9375 1.39062 0 2.125.92185.75.9219.76562 2.64065zm-1.70312-1.71875q0-1.0625-.29688-1.5469-.28125-.48435-.89062-.48435-.59376 0-.89063.46875-.28125.4531-.29687 1.4375v2.0625q0 1.0469.28124 1.5625.28126.5.92188.5.60938 0 .89062-.4844.28126-.48435.28126-1.48435z"/><path d="m394.34393 695.78125h.96875v1.375h-.96875v1.84375h-1.70313v-1.84375h-3.48437l-.07813-1.0625 3.54688-5.625h1.71875zm-3.57813 0h1.875v-3l-.10937.1875zm11.3125-.3125q0 1.76565-.73437 2.71875-.73437.9375-2.14063.9375-1.40624 0-2.14062-.9219-.73438-.92185-.75-2.6406v-1.5781q0-1.7813.73438-2.70315.75-.9375 2.14062-.9375 1.39062 0 2.125.92185.75.9219.76562 2.64065zm-1.70312-1.71875q0-1.0625-.29688-1.5469-.28124-.48435-.89062-.48435-.59375 0-.89062.46875-.28126.4531-.29688 1.4375v2.0625q0 1.0469.28125 1.5625.28125.5.92187.5.60938 0 .89063-.4844.28125-.48435.28125-1.48435zm8.70312 1.71875q0 1.76565-.73437 2.71875-.73437.9375-2.14063.9375-1.40624 0-2.14062-.9219-.73438-.92185-.75-2.6406v-1.5781q0-1.7813.73438-2.70315.75-.9375 2.14062-.9375 1.39062 0 2.125.92185.75.9219.76562 2.64065zm-1.70312-1.71875q0-1.0625-.29688-1.5469-.28124-.48435-.89062-.48435-.59375 0-.89062.46875-.28126.4531-.29688 1.4375v2.0625q0 1.0469.28125 1.5625.28125.5.92187.5.60938 0 .89063-.4844.28125-.48435.28125-1.48435z"/><path d="m536.5471 690.375v1.40625h-.15623q-1.15627.01565-1.85937.59375-.6875.5781-.82813 1.6094.67187-.6875 1.70313-.6875 1.125 0 1.78124.79685.65626.79685.65626 2.09375 0 .8281-.3594 1.5-.35936.6719-1.03123 1.0625-.65627.375-1.48437.375-1.34376 0-2.1719-.9375-.8281-.9531-.8281-2.5156v-.6094q0-1.3906.5156-2.4531.53127-1.0625 1.5-1.64065.9844-.57815 2.28127-.59375zm-1.65623 4.28125q-.40627 0-.75.21875-.32813.2031-.48437.5625v.5156q0 .8438.3281 1.32815.34377.46875.95314.46875.54686 0 .875-.4219.34376-.4375.34376-1.125 0-.7031-.34376-1.125-.34374-.42185-.92187-.42185zm9.8125.8125q0 1.76565-.73437 2.71875-.7344.9375-2.14063.9375-1.40627 0-2.14063-.9219-.73437-.92185-.75-2.6406v-1.5781q0-1.7813.73436-2.70315.75-.9375 2.14064-.9375 1.39063 0 2.125.92185.75.9219.76563 2.64065zm-1.70313-1.71875q0-1.0625-.29687-1.5469-.28127-.48435-.89063-.48435-.59374 0-.89064.46875-.28123.4531-.29686 1.4375v2.0625q0 1.0469.28126 1.5625.28124.5.92187.5.60937 0 .89063-.4844.28124-.48435.28124-1.48435zm8.70313 1.71875q0 1.76565-.73437 2.71875-.7344.9375-2.14063.9375-1.40627 0-2.14063-.9219-.73437-.92185-.75-2.6406v-1.5781q0-1.7813.73436-2.70315.75-.9375 2.14064-.9375 1.39063 0 2.125.92185.75.9219.76563 2.64065zm-1.70313-1.71875q0-1.0625-.29687-1.5469-.28127-.48435-.89063-.48435-.59374 0-.89064.46875-.28123.4531-.29686 1.4375v2.0625q0 1.0469.28126 1.5625.28124.5.92187.5.60937 0 .89063-.4844.28124-.48435.28124-1.48435z"/></g></svg>