<svg fill="none" height="729" stroke-linecap="square" stroke-miterlimit="10" viewBox="0 0 580 729" width="580" xmlns="http://www.w3.org/2000/svg" xmlns:xlink="http://www.w3.org/1999/xlink"><clipPath id="a"><path d="m127 29h424v644h-424z"/></clipPath><path d="m0 0h580v729h-580z" fill="none"/><path d="m127.5 29.5v644" stroke="#333" stroke-linecap="butt"/><path d="m233.5 29.5v644" stroke="#ccc" stroke-linecap="butt"/><path d="m339.5 29.5v644" stroke="#ccc" stroke-linecap="butt"/><path d="m445.5 29.5v644" stroke="#ccc" stroke-linecap="butt"/><path d="m551.5 29.5v644" stroke="#ccc" stroke-linecap="butt"/><path d="m162.5 29.5v644"/><path d="m197.5 29.5v644"/><path d="m268.5 29.5v644"/><path d="m303.5 29.5v644"/><path d="m374.5 29.5v644"/><path d="m409.5 29.5v644"/><path d="m480.5 29.5v644"/><path d="m515.5 29.5v644"/><path d="m127.5 673.5v-644" stroke="#000" stroke-linecap="butt"/><path clip-path="url(#a)" d="m127 86v-37h332c1.10458 0 2 .89543 2 2v33c0 1.10457-.89542 2-2 2z"/><path clip-path="url(#a)" d="m127 86v-37h332c1.10458 0 2 .89543 2 2v33c0 1.10457-.89542 2-2 2z" fill="#ed7d31"/><path clip-path="url(#a)" d="m127 143v-37h115c1.10457 0 2 .89543 2 2v33c0 1.10457-.89543 2-2 2z"/><path clip-path="url(#a)" d="m127 143v-37h115c1.10457 0 2 .89543 2 2v33c0 1.10457-.89543 2-2 2z" fill="#ed7d31"/><path clip-path="url(#a)" d="m127 200v-37h110c1.10457 0 2 .89543 2 2v33c0 1.10457-.89543 2-2 2z"/><path clip-path="url(#a)" d="m127 200v-37h110c1.10457 0 2 .89543 2 2v33c0 1.10457-.89543 2-2 2z" fill="#ed7d31"/><path clip-path="url(#a)" d="m127 257v-37h95c1.10457 0 2 .89543 2 2v33c0 1.10458-.89543 2-2 2z"/><path clip-path="url(#a)" d="m127 257v-37h95c1.10457 0 2 .89543 2 2v33c0 1.10458-.89543 2-2 2z" fill="#ed7d31"/><path clip-path="url(#a)" d="m127 313v-37h68c1.10457 0 2 .89542 2 2v33c0 1.10458-.89543 2-2 2z"/><path clip-path="url(#a)" d="m127 313v-37h68c1.10457 0 2 .89542 2 2v33c0 1.10458-.89543 2-2 2z" fill="#ed7d31"/><path clip-path="url(#a)" d="m127 370v-37h66c1.10457 0 2 .89542 2 2v33c0 1.10458-.89543 2-2 2z"/><path clip-path="url(#a)" d="m127 370v-37h66c1.10457 0 2 .89542 2 2v33c0 1.10458-.89543 2-2 2z" fill="#ed7d31"/><path clip-path="url(#a)" d="m127 427v-37h48c1.10457 0 2 .89542 2 2v33c0 1.10458-.89543 2-2 2z"/><path clip-path="url(#a)" d="m127 427v-37h48c1.10457 0 2 .89542 2 2v33c0 1.10458-.89543 2-2 2z" fill="#ed7d31"/><path clip-path="url(#a)" d="m127 483v-37h41c1.10457 0 2 .89542 2 2v33c0 1.10458-.89543 2-2 2z"/><path clip-path="url(#a)" d="m127 483v-37h41c1.10457 0 2 .89542 2 2v33c0 1.10458-.89543 2-2 2z" fill="#ed7d31"/><path clip-path="url(#a)" d="m127 540v-37h38c1.10457 0 2 .89542 2 2v33c0 1.10455-.89543 2-2 2z"/><path clip-path="url(#a)" d="m127 540v-37h38c1.10457 0 2 .89542 2 2v33c0 1.10455-.89543 2-2 2z" fill="#ed7d31"/><path clip-path="url(#a)" d="m127 597v-37h33c1.10457 0 2 .89545 2 2v33c0 1.10455-.89543 2-2 2z"/><path clip-path="url(#a)" d="m127 597v-37h33c1.10457 0 2 .89545 2 2v33c0 1.10455-.89543 2-2 2z" fill="#ed7d31"/><path clip-path="url(#a)" d="m127 654v-37h212c1.10458 0 2 .89545 2 2v33c0 1.10455-.89542 2-2 2z"/><path clip-path="url(#a)" d="m127 654v-37h212c1.10458 0 2 .89545 2 2v33c0 1.10455-.89542 2-2 2z" fill="#ed7d31"/><path d="m127.5 679.5v-12" stroke="#000" stroke-linecap="butt"/><path d="m233.5 679.5v-12" stroke="#000" stroke-linecap="butt"/><path d="m339.5 679.5v-12" stroke="#000" stroke-linecap="butt"/><path d="m445.5 679.5v-12" stroke="#000" stroke-linecap="butt"/><path d="m551.5 679.5v-12" stroke="#000" stroke-linecap="butt"/><path d="m430.35764 62.875v1.40625h-.15624q-1.15626.015625-1.8594.59375-.6875.578125-.8281 1.609375.67186-.6875 1.7031-.6875 1.125 0 1.78126.796875.65624.796875.65624 2.09375 0 .828125-.35936 1.5-.35938.671875-1.03124 1.0625-.65626.375-1.4844.375-1.34374 0-2.17186-.9375-.82814-.953125-.82814-2.515625v-.609375q0-1.390625.51564-2.453125.53126-1.0625 1.5-1.640625.98436-.578125 2.28126-.59375zm-1.65624 4.28125q-.40626 0-.75.21875-.32814.203125-.4844.5625v.515625q0 .84375.32814 1.328125.34376.46875.95312.46875.54688 0 .875-.421875.34374-.4375.34374-1.125 0-.703125-.34374-1.125-.34376-.421875-.92186-.421875zm5.78124-.671875h.90626q.6406 0 .9531-.3125.3125-.328125.3125-.859375 0-.515625-.3125-.796875-.29686-.296875-.84374-.296875-.48436 0-.8125.265625-.32812.265625-.32812.6875h-1.6875q0-.65625.35936-1.1875.3594-.53125 1-.828125.65626-.3125 1.4375-.3125 1.34376 0 2.1094.65625.78124.640625.78124 1.78125 0 .59375-.35938 1.09375-.35936.484375-.9375.734375.71874.265625 1.0625.78125.35938.515625.35938 1.21875 0 1.140625-.82814 1.828125-.8281.6875-2.1875.6875-1.28124 0-2.09374-.671875-.8125-.6875-.8125-1.796875h1.6875q0 .484375.35938.796875.375.296875.89062.296875.60938 0 .95314-.3125.34374-.328125.34374-.859375 0-1.265625-1.40624-1.265625h-.90626zm5.4375 4.1875q0-.40625.26562-.65625.28124-.25.6875-.25.42188 0 .6875.25.28124.25.28124.65625 0 .390625-.28124.640625-.26562.25-.6875.25-.40626 0-.6875-.25-.26562-.25-.26562-.640625zm8.59376-2.703125q0 1.765625-.7344 2.71875-.73436.9375-2.1406.9375-1.40626 0-2.14064-.921875-.73436-.921875-.75-2.640625v-1.578125q0-1.78125.73438-2.703125.75-.9375 2.14062-.9375 1.39064 0 2.125.921875.75.921875.76564 2.640625zm-1.70314-1.71875q0-1.0625-.29686-1.546875-.28126-.484375-.89064-.484375-.59376 0-.89062.46875-.28124.453125-.29688 1.4375v2.0625q0 1.046875.28124 1.5625.28126.5.9219.5.60936 0 .8906-.484375.28126-.484375.28126-1.484375zm8.79688 5.25h-5.84374v-1.15625l2.7656-2.953125q.5625-.609375.82814-1.078125.28126-.46875.28126-.875 0-.578125-.2969-.890625-.28124-.328125-.8125-.328125-.5781 0-.90624.390625-.32812.390625-.32812 1.046875h-1.70314q0-.78125.375-1.421875.375-.65625 1.0469-1.015625.6875-.375 1.54686-.375 1.3125 0 2.04688.640625.73436.625.73436 1.78125 0 .640625-.3281 1.296875-.32814.65625-1.125 1.53125l-1.9375 2.046875h3.65624z" stroke="#ed7d31" stroke-linecap="round" stroke-linejoin="round" stroke-width="3"/><path d="m430.35764 62.875v1.40625h-.15624q-1.15626.015625-1.8594.59375-.6875.578125-.8281 1.609375.67186-.6875 1.7031-.6875 1.125 0 1.78126.796875.65624.796875.65624 2.09375 0 .828125-.35936 1.5-.35938.671875-1.03124 1.0625-.65626.375-1.4844.375-1.34374 0-2.17186-.9375-.82814-.953125-.82814-2.515625v-.609375q0-1.390625.51564-2.453125.53126-1.0625 1.5-1.640625.98436-.578125 2.28126-.59375zm-1.65624 4.28125q-.40626 0-.75.21875-.32814.203125-.4844.5625v.515625q0 .84375.32814 1.328125.34376.46875.95312.46875.54688 0 .875-.421875.34374-.4375.34374-1.125 0-.703125-.34374-1.125-.34376-.421875-.92186-.421875zm5.78124-.671875h.90626q.6406 0 .9531-.3125.3125-.328125.3125-.859375 0-.515625-.3125-.796875-.29686-.296875-.84374-.296875-.48436 0-.8125.265625-.32812.265625-.32812.6875h-1.6875q0-.65625.35936-1.1875.3594-.53125 1-.828125.65626-.3125 1.4375-.3125 1.34376 0 2.1094.65625.78124.640625.78124 1.78125 0 .59375-.35938 1.09375-.35936.484375-.9375.734375.71874.265625 1.0625.78125.35938.515625.35938 1.21875 0 1.140625-.82814 1.828125-.8281.6875-2.1875.6875-1.28124 0-2.09374-.671875-.8125-.6875-.8125-1.796875h1.6875q0 .484375.35938.796875.375.296875.89062.296875.60938 0 .95314-.3125.34374-.328125.34374-.859375 0-1.265625-1.40624-1.265625h-.90626zm5.4375 4.1875q0-.40625.26562-.65625.28124-.25.6875-.25.42188 0 .6875.25.28124.25.28124.65625 0 .390625-.28124.640625-.26562.25-.6875.25-.40626 0-.6875-.25-.26562-.25-.26562-.640625zm8.59376-2.703125q0 1.765625-.7344 2.71875-.73436.9375-2.1406.9375-1.40626 0-2.14064-.921875-.73436-.921875-.75-2.640625v-1.578125q0-1.78125.73438-2.703125.75-.9375 2.14062-.9375 1.39064 0 2.125.921875.75.921875.76564 2.640625zm-1.70314-1.71875q0-1.0625-.29686-1.546875-.28126-.484375-.89064-.484375-.59376 0-.89062.46875-.28124.453125-.29688 1.4375v2.0625q0 1.046875.28124 1.5625.28126.5.9219.5.60936 0 .8906-.484375.28126-.484375.28126-1.484375zm8.79688 5.25h-5.84374v-1.15625l2.7656-2.953125q.5625-.609375.82814-1.078125.28126-.46875.28126-.875 0-.578125-.2969-.890625-.28124-.328125-.8125-.328125-.5781 0-.90624.390625-.32812.390625-.32812 1.046875h-1.70314q0-.78125.375-1.421875.375-.65625 1.0469-1.015625.6875-.375 1.54686-.375 1.3125 0 2.04688.640625.73436.625.73436 1.78125 0 .640625-.3281 1.296875-.32814.65625-1.125 1.53125l-1.9375 2.046875h3.65624z" fill="#fff"/><path d="m214.94884 128.5h-5.84375v-1.15625l2.76562-2.953125q.5625-.609375.82813-1.078125.28125-.46875.28125-.875 0-.578125-.29688-.890625-.28125-.328125-.8125-.328125-.57812 0-.90625.390625-.32812.390625-.32812 1.046875h-1.70313q0-.78125.375-1.421875.375-.65625 1.04688-1.015625.6875-.375 1.54687-.375 1.3125 0 2.04688.640625.73437.625.73437 1.78125 0 .640625-.32812 1.296875-.32813.65625-1.125 1.53125l-1.9375 2.046875h3.65625zm7 0h-5.84375v-1.15625l2.76562-2.953125q.5625-.609375.82813-1.078125.28125-.46875.28125-.875 0-.578125-.29688-.890625-.28125-.328125-.8125-.328125-.57812 0-.90625.390625-.32812.390625-.32812 1.046875h-1.70313q0-.78125.375-1.421875.375-.65625 1.04688-1.015625.6875-.375 1.54687-.375 1.3125 0 2.04688.640625.73437.625.73437 1.78125 0 .640625-.32812 1.296875-.32813.65625-1.125 1.53125l-1.9375 2.046875h3.65625zm1.3125-.828125q0-.40625.26562-.65625.28125-.25.6875-.25.42188 0 .6875.25.28125.25.28125.65625 0 .390625-.28125.640625-.26562.25-.6875.25-.40625 0-.6875-.25-.26562-.25-.26562-.640625zm6.95312.828125h-1.6875v-6.53125l-2.01562.625v-1.375l3.53125-1.265625h.17187zm7.90625-3.21875h.96875v1.375h-.96875v1.84375h-1.70312v-1.84375h-3.48438l-.07812-1.0625 3.54687-5.625h1.71875zm-3.57812 0h1.875v-3l-.10938.1875z" stroke="#ed7d31" stroke-linecap="round" stroke-linejoin="round" stroke-width="3"/><path d="m214.94884 128.5h-5.84375v-1.15625l2.76562-2.953125q.5625-.609375.82813-1.078125.28125-.46875.28125-.875 0-.578125-.29688-.890625-.28125-.328125-.8125-.328125-.57812 0-.90625.390625-.32812.390625-.32812 1.046875h-1.70313q0-.78125.375-1.421875.375-.65625 1.04688-1.015625.6875-.375 1.54687-.375 1.3125 0 2.04688.640625.73437.625.73437 1.78125 0 .640625-.32812 1.296875-.32813.65625-1.125 1.53125l-1.9375 2.046875h3.65625zm7 0h-5.84375v-1.15625l2.76562-2.953125q.5625-.609375.82813-1.078125.28125-.46875.28125-.875 0-.578125-.29688-.890625-.28125-.328125-.8125-.328125-.57812 0-.90625.390625-.32812.390625-.32812 1.046875h-1.70313q0-.78125.375-1.421875.375-.65625 1.04688-1.015625.6875-.375 1.54687-.375 1.3125 0 2.04688.640625.73437.625.73437 1.78125 0 .640625-.32812 1.296875-.32813.65625-1.125 1.53125l-1.9375 2.046875h3.65625zm1.3125-.828125q0-.40625.26562-.65625.28125-.25.6875-.25.42188 0 .6875.25.28125.25.28125.65625 0 .390625-.28125.640625-.26562.25-.6875.25-.40625 0-.6875-.25-.26562-.25-.26562-.640625zm6.95312.828125h-1.6875v-6.53125l-2.01562.625v-1.375l3.53125-1.265625h.17187zm7.90625-3.21875h.96875v1.375h-.96875v1.84375h-1.70312v-1.84375h-3.48438l-.07812-1.0625 3.54687-5.625h1.71875zm-3.57812 0h1.875v-3l-.10938.1875z" fill="#fff"/><path d="m209.34583 185.5h-5.84375v-1.15625l2.76562-2.95313q.5625-.60937.82813-1.07812.28125-.46875.28125-.875 0-.57812-.29688-.89062-.28125-.32813-.8125-.32813-.57812 0-.90625.39063-.32812.39062-.32812 1.04687h-1.70313q0-.78125.375-1.42187.375-.65626 1.04688-1.01563.6875-.375 1.54687-.375 1.3125 0 2.04688.64063.73437.625.73437 1.78124 0 .64063-.32812 1.29688-.32813.65625-1.125 1.53125l-1.9375 2.04687h3.65625zm5.26562 0h-1.6875v-6.53125l-2.01562.625v-1.375l3.53125-1.26563h.17187zm3.04688-.82812q0-.40626.26562-.65626.28125-.25.6875-.25.42188 0 .6875.25.28125.25.28125.65626 0 .39062-.28125.64062-.26562.25-.6875.25-.40625 0-.6875-.25-.26562-.25-.26562-.64062zm8.59375-2.70313q0 1.76563-.73438 2.71875-.73437.9375-2.14062.9375-1.40625 0-2.14063-.92188-.73437-.92187-.75-2.64062v-1.57812q0-1.78126.73438-2.70313.75-.9375 2.14062-.9375 1.39063 0 2.125.92187.75.92188.76563 2.64063zm-1.70313-1.71875q0-1.0625-.29687-1.54688-.28125-.48437-.89063-.48437-.59375 0-.89062.46875-.28125.45312-.29688 1.4375v2.0625q0 1.04688.28125 1.5625.28125.5.92188.5.60937 0 .89062-.48438.28125-.48437.28125-1.48437zm8.51563-1.01562q0 .625-.3125 1.10937-.3125.46875-.85938.76563.625.29687.98438.82812.375.51562.375 1.21875 0 1.14063-.78125 1.8125-.76563.65625-2.10938.65625-1.32812 0-2.10937-.65625-.76563-.67187-.76563-1.8125 0-.70313.35938-1.23437.35937-.53126.98437-.8125-.54687-.29688-.85937-.76563-.3125-.48437-.3125-1.10937 0-1.09376.71875-1.73438.73437-.65625 1.98437-.65625 1.25 0 1.96875.65625.73438.64062.73438 1.73438zm-1.51563 3.79687q0-.54687-.32812-.875-.3125-.34375-.85938-.34375-.54687 0-.875.32812-.3125.32813-.3125.89063 0 .54687.3125.89063.32813.32812.89063.32812.54687 0 .85937-.3125.3125-.32812.3125-.90625zm-.17187-3.71875q0-.5-.26563-.79688-.26562-.29687-.75-.29687-.46875 0-.73437.29687-.26563.28126-.26563.79688 0 .51562.26563.82812.26562.3125.73437.3125.48438 0 .75-.3125.26563-.3125.26563-.82812z" stroke="#ed7d31" stroke-linecap="round" stroke-linejoin="round" stroke-width="3"/><path d="m209.34583 185.5h-5.84375v-1.15625l2.76562-2.95313q.5625-.60937.82813-1.07812.28125-.46875.28125-.875 0-.57812-.29688-.89062-.28125-.32813-.8125-.32813-.57812 0-.90625.39063-.32812.39062-.32812 1.04687h-1.70313q0-.78125.375-1.42187.375-.65626 1.04688-1.01563.6875-.375 1.54687-.375 1.3125 0 2.04688.64063.73437.625.73437 1.78124 0 .64063-.32812 1.29688-.32813.65625-1.125 1.53125l-1.9375 2.04687h3.65625zm5.26562 0h-1.6875v-6.53125l-2.01562.625v-1.375l3.53125-1.26563h.17187zm3.04688-.82812q0-.40626.26562-.65626.28125-.25.6875-.25.42188 0 .6875.25.28125.25.28125.65626 0 .39062-.28125.64062-.26562.25-.6875.25-.40625 0-.6875-.25-.26562-.25-.26562-.64062zm8.59375-2.70313q0 1.76563-.73438 2.71875-.73437.9375-2.14062.9375-1.40625 0-2.14063-.92188-.73437-.92187-.75-2.64062v-1.57812q0-1.78126.73438-2.70313.75-.9375 2.14062-.9375 1.39063 0 2.125.92187.75.92188.76563 2.64063zm-1.70313-1.71875q0-1.0625-.29687-1.54688-.28125-.48437-.89063-.48437-.59375 0-.89062.46875-.28125.45312-.29688 1.4375v2.0625q0 1.04688.28125 1.5625.28125.5.92188.5.60937 0 .89062-.48438.28125-.48437.28125-1.48437zm8.51563-1.01562q0 .625-.3125 1.10937-.3125.46875-.85938.76563.625.29687.98438.82812.375.51562.375 1.21875 0 1.14063-.78125 1.8125-.76563.65625-2.10938.65625-1.32812 0-2.10937-.65625-.76563-.67187-.76563-1.8125 0-.70313.35938-1.23437.35937-.53126.98437-.8125-.54687-.29688-.85937-.76563-.3125-.48437-.3125-1.10937 0-1.09376.71875-1.73438.73437-.65625 1.98437-.65625 1.25 0 1.96875.65625.73438.64062.73438 1.73438zm-1.51563 3.79687q0-.54687-.32812-.875-.3125-.34375-.85938-.34375-.54687 0-.875.32812-.3125.32813-.3125.89063 0 .54687.3125.89063.32813.32812.89063.32812.54687 0 .85937-.3125.3125-.32812.3125-.90625zm-.17187-3.71875q0-.5-.26563-.79688-.26562-.29687-.75-.29687-.46875 0-.73437.29687-.26563.28126-.26563.79688 0 .51562.26563.82812.26562.3125.73437.3125.48438 0 .75-.3125.26563-.3125.26563-.82812z" fill="#fff"/><path d="m192.43573 242.5h-1.6875v-6.53125l-2.01563.625v-1.375l3.53125-1.26563h.17188zm8.45312-6.26562q0 .625-.3125 1.10937-.3125.46875-.85937.76563.625.29687.98437.82812.375.51562.375 1.21875 0 1.14063-.78125 1.8125-.76562.65625-2.10937.65625-1.32813 0-2.10938-.65625-.76562-.67187-.76562-1.8125 0-.70313.35937-1.23437.35938-.53126.98438-.8125-.54688-.29688-.85938-.76563-.3125-.48437-.3125-1.10937 0-1.09376.71875-1.73438.73438-.65625 1.98438-.65625 1.25 0 1.96875.65625.73437.64062.73437 1.73438zm-1.51562 3.79687q0-.54687-.32813-.875-.3125-.34375-.85937-.34375-.54688 0-.875.32812-.3125.32813-.3125.89063 0 .54687.3125.89063.32812.32812.89062.32812.54688 0 .85938-.3125.3125-.32812.3125-.90625zm-.17188-3.71875q0-.5-.26562-.79688-.26563-.29687-.75-.29687-.46875 0-.73438.29687-.26562.28126-.26562.79688 0 .51562.26562.82812.26563.3125.73438.3125.48437 0 .75-.3125.26562-.3125.26562-.82812zm3.28125 5.35938q0-.40626.26563-.65626.28125-.25.6875-.25.42187 0 .6875.25.28125.25.28125.65626 0 .39062-.28125.64062-.26563.25-.6875.25-.40625 0-.6875-.25-.26563-.25-.26563-.64062zm8.6875.82812h-5.84375v-1.15625l2.76563-2.95313q.5625-.60937.82812-1.07812.28125-.46875.28125-.875 0-.57812-.29687-.89062-.28125-.32813-.8125-.32813-.57813 0-.90625.39063-.32813.39062-.32813 1.04687h-1.70312q0-.78125.375-1.42187.375-.65626 1.04687-1.01563.6875-.375 1.54688-.375 1.3125 0 2.04687.64063.73438.625.73438 1.78124 0 .64063-.32813 1.29688-.32812.65625-1.125 1.53125l-1.9375 2.04687h3.65625zm7 0h-5.84375v-1.15625l2.76563-2.95313q.5625-.60937.82812-1.07812.28125-.46875.28125-.875 0-.57812-.29687-.89062-.28125-.32813-.8125-.32813-.57813 0-.90625.39063-.32813.39062-.32813 1.04687h-1.70312q0-.78125.375-1.42187.375-.65626 1.04687-1.01563.6875-.375 1.54688-.375 1.3125 0 2.04687.64063.73438.625.73438 1.78124 0 .64063-.32813 1.29688-.32812.65625-1.125 1.53125l-1.9375 2.04687h3.65625z" stroke="#ed7d31" stroke-linecap="round" stroke-linejoin="round" stroke-width="3"/><path d="m192.43573 242.5h-1.6875v-6.53125l-2.01563.625v-1.375l3.53125-1.26563h.17188zm8.45312-6.26562q0 .625-.3125 1.10937-.3125.46875-.85937.76563.625.29687.98437.82812.375.51562.375 1.21875 0 1.14063-.78125 1.8125-.76562.65625-2.10937.65625-1.32813 0-2.10938-.65625-.76562-.67187-.76562-1.8125 0-.70313.35937-1.23437.35938-.53126.98438-.8125-.54688-.29688-.85938-.76563-.3125-.48437-.3125-1.10937 0-1.09376.71875-1.73438.73438-.65625 1.98438-.65625 1.25 0 1.96875.65625.73437.64062.73437 1.73438zm-1.51562 3.79687q0-.54687-.32813-.875-.3125-.34375-.85937-.34375-.54688 0-.875.32812-.3125.32813-.3125.89063 0 .54687.3125.89063.32812.32812.89062.32812.54688 0 .85938-.3125.3125-.32812.3125-.90625zm-.17188-3.71875q0-.5-.26562-.79688-.26563-.29687-.75-.29687-.46875 0-.73438.29687-.26562.28126-.26562.79688 0 .51562.26562.82812.26563.3125.73438.3125.48437 0 .75-.3125.26562-.3125.26562-.82812zm3.28125 5.35938q0-.40626.26563-.65626.28125-.25.6875-.25.42187 0 .6875.25.28125.25.28125.65626 0 .39062-.28125.64062-.26563.25-.6875.25-.40625 0-.6875-.25-.26563-.25-.26563-.64062zm8.6875.82812h-5.84375v-1.15625l2.76563-2.95313q.5625-.60937.82812-1.07812.28125-.46875.28125-.875 0-.57812-.29687-.89062-.28125-.32813-.8125-.32813-.57813 0-.90625.39063-.32813.39062-.32813 1.04687h-1.70312q0-.78125.375-1.42187.375-.65626 1.04687-1.01563.6875-.375 1.54688-.375 1.3125 0 2.04687.64063.73438.625.73438 1.78124 0 .64063-.32813 1.29688-.32812.65625-1.125 1.53125l-1.9375 2.04687h3.65625zm7 0h-5.84375v-1.15625l2.76563-2.95313q.5625-.60937.82812-1.07812.28125-.46875.28125-.875 0-.57812-.29687-.89062-.28125-.32813-.8125-.32813-.57813 0-.90625.39063-.32813.39062-.32813 1.04687h-1.70312q0-.78125.375-1.42187.375-.65626 1.04687-1.01563.6875-.375 1.54688-.375 1.3125 0 2.04687.64063.73438.625.73438 1.78124 0 .64063-.32813 1.29688-.32812.65625-1.125 1.53125l-1.9375 2.04687h3.65625z" fill="#fff"/><path d="m166.30098 298.5h-1.6875v-6.53125l-2.01563.625v-1.375l3.53125-1.26563h.17188zm4.60937-5.01562h.90625q.64063 0 .95313-.3125.3125-.32813.3125-.85938 0-.51562-.3125-.79688-.29688-.29687-.84375-.29687-.48438 0-.8125.26563-.32813.26562-.32813.6875h-1.6875q0-.65626.35938-1.1875.35937-.53126 1-.82813.65625-.3125 1.4375-.3125 1.34375 0 2.10937.65625.78125.64062.78125 1.78125 0 .59375-.35937 1.09375-.35938.48438-.9375.73438.71875.26562 1.0625.78124.35937.51563.35937 1.21876 0 1.14062-.82812 1.82812-.82813.6875-2.1875.6875-1.28125 0-2.09375-.67188-.8125-.6875-.8125-1.79687h1.6875q0 .48437.35937.79687.375.29688.89063.29688.60937 0 .95312-.3125.34375-.32812.34375-.85938 0-1.26562-1.40625-1.26562h-.90625zm5.4375 4.1875q0-.40626.26563-.65626.28125-.25.6875-.25.42187 0 .6875.25.28125.25.28125.65626 0 .39062-.28125.64062-.26563.25-.6875.25-.40625 0-.6875-.25-.26563-.25-.26563-.64062zm8.6875.82812h-5.84375v-1.15625l2.76563-2.95313q.5625-.60937.82812-1.07812.28125-.46875.28125-.875 0-.57812-.29687-.89062-.28125-.32813-.8125-.32813-.57813 0-.90625.39063-.32813.39062-.32813 1.04687h-1.70312q0-.78125.375-1.42187.375-.65626 1.04687-1.01563.6875-.375 1.54688-.375 1.3125 0 2.04687.64063.73438.625.73438 1.78124 0 .64063-.32813 1.29688-.32812.65625-1.125 1.53125l-1.9375 2.04687h3.65625zm5.125-3.40625q-.67187.64063-1.54687.64063-1.14063 0-1.82813-.76563-.67187-.78125-.67187-2.09375 0-.84375.35937-1.54688.375-.70312 1.03125-1.09374.65625-.39063 1.48438-.39063.84375 0 1.5.42187.65625.42188 1.01562 1.21876.35938.79687.375 1.8125v.625q0 2.14062-1.0625 3.35937-1.0625 1.21875-3.01562 1.29687h-.40625v-1.40624l.375-.01563q2.20312-.09375 2.39062-2.0625zm-1.14062-.65625q.42187 0 .70312-.20312.29688-.21876.45313-.51563v-.6875q0-.85937-.32813-1.32813-.32812-.48437-.875-.48437-.51562 0-.84375.46875-.32812.45312-.32812 1.15625 0 .70313.3125 1.15625.32812.4375.90625.4375z" stroke="#ed7d31" stroke-linecap="round" stroke-linejoin="round" stroke-width="3"/><path d="m166.30098 298.5h-1.6875v-6.53125l-2.01563.625v-1.375l3.53125-1.26563h.17188zm4.60937-5.01562h.90625q.64063 0 .95313-.3125.3125-.32813.3125-.85938 0-.51562-.3125-.79688-.29688-.29687-.84375-.29687-.48438 0-.8125.26563-.32813.26562-.32813.6875h-1.6875q0-.65626.35938-1.1875.35937-.53126 1-.82813.65625-.3125 1.4375-.3125 1.34375 0 2.10937.65625.78125.64062.78125 1.78125 0 .59375-.35937 1.09375-.35938.48438-.9375.73438.71875.26562 1.0625.78124.35937.51563.35937 1.21876 0 1.14062-.82812 1.82812-.82813.6875-2.1875.6875-1.28125 0-2.09375-.67188-.8125-.6875-.8125-1.79687h1.6875q0 .48437.35937.79687.375.29688.89063.29688.60937 0 .95312-.3125.34375-.32812.34375-.85938 0-1.26562-1.40625-1.26562h-.90625zm5.4375 4.1875q0-.40626.26563-.65626.28125-.25.6875-.25.42187 0 .6875.25.28125.25.28125.65626 0 .39062-.28125.64062-.26563.25-.6875.25-.40625 0-.6875-.25-.26563-.25-.26563-.64062zm8.6875.82812h-5.84375v-1.15625l2.76563-2.95313q.5625-.60937.82812-1.07812.28125-.46875.28125-.875 0-.57812-.29687-.89062-.28125-.32813-.8125-.32813-.57813 0-.90625.39063-.32813.39062-.32813 1.04687h-1.70312q0-.78125.375-1.42187.375-.65626 1.04687-1.01563.6875-.375 1.54688-.375 1.3125 0 2.04687.64063.73438.625.73438 1.78124 0 .64063-.32813 1.29688-.32812.65625-1.125 1.53125l-1.9375 2.04687h3.65625zm5.125-3.40625q-.67187.64063-1.54687.64063-1.14063 0-1.82813-.76563-.67187-.78125-.67187-2.09375 0-.84375.35937-1.54688.375-.70312 1.03125-1.09374.65625-.39063 1.48438-.39063.84375 0 1.5.42187.65625.42188 1.01562 1.21876.35938.79687.375 1.8125v.625q0 2.14062-1.0625 3.35937-1.0625 1.21875-3.01562 1.29687h-.40625v-1.40624l.375-.01563q2.20312-.09375 2.39062-2.0625zm-1.14062-.65625q.42187 0 .70312-.20312.29688-.21876.45313-.51563v-.6875q0-.85937-.32813-1.32813-.32812-.48437-.875-.48437-.51562 0-.84375.46875-.32812.45312-.32812 1.15625 0 .70313.3125 1.15625.32812.4375.90625.4375z" fill="#fff"/><path d="m163.874 355.5h-1.6875v-6.53125l-2.01563.625v-1.375l3.53125-1.26563h.17188zm8.73437 0h-5.84375v-1.15625l2.76562-2.95313q.5625-.60937.82813-1.07812.28125-.46875.28125-.875 0-.57812-.29688-.89062-.28124-.32813-.8125-.32813-.57812 0-.90624.39063-.32813.39062-.32813 1.04687h-1.70313q0-.78125.375-1.42187.375-.65626 1.04688-1.01563.6875-.375 1.54688-.375 1.3125 0 2.04687.64063.73437.625.73437 1.78124 0 .64063-.32812 1.29688-.32812.65625-1.125 1.53125l-1.9375 2.04687h3.65625zm1.3125-.82812q0-.40626.26563-.65626.28124-.25.6875-.25.42187 0 .6875.25.28124.25.28124.65626 0 .39062-.28124.64062-.26563.25-.6875.25-.40626 0-.6875-.25-.26563-.25-.26563-.64062zm8.40625-5.4375q0 .625-.3125 1.10937-.3125.46875-.85938.76563.625.29687.98438.82812.375.51562.375 1.21875 0 1.14063-.78125 1.8125-.76563.65625-2.10937.65625-1.32813 0-2.10938-.65625-.76562-.67187-.76562-1.8125 0-.70313.35937-1.23437.35937-.53126.98437-.8125-.54687-.29688-.85937-.76563-.3125-.48437-.3125-1.10937 0-1.09376.71875-1.73438.73438-.65625 1.98438-.65625 1.25 0 1.96874.65625.73438.64062.73438 1.73438zm-1.51562 3.79687q0-.54687-.32813-.875-.3125-.34375-.85937-.34375-.54688 0-.875.32812-.3125.32813-.3125.89063 0 .54687.3125.89063.32812.32812.89062.32812.54688 0 .85938-.3125.3125-.32812.3125-.90625zm-.17188-3.71875q0-.5-.26562-.79688-.26563-.29687-.75-.29687-.46876 0-.73438.29687-.26562.28126-.26562.79688 0 .51562.26562.82812.26562.3125.73438.3125.48437 0 .75-.3125.26562-.3125.26562-.82812zm4.84375 1.17188h.90625q.64062 0 .95312-.3125.3125-.32813.3125-.85938 0-.51562-.3125-.79688-.29687-.29687-.84374-.29687-.48438 0-.8125.26563-.32813.26562-.32813.6875h-1.6875q0-.65626.35937-1.1875.35938-.53126 1-.82813.65626-.3125 1.4375-.3125 1.34376 0 2.10938.65625.78125.64062.78125 1.78125 0 .59375-.35937 1.09375-.35938.48438-.9375.73438.71874.26562 1.0625.78124.35937.51563.35937 1.21876 0 1.14062-.82813 1.82812-.82812.6875-2.1875.6875-1.28124 0-2.09374-.67188-.8125-.6875-.8125-1.79687h1.6875q0 .48437.35937.79687.375.29688.89063.29688.60937 0 .95312-.3125.34375-.32812.34375-.85938 0-1.26562-1.40625-1.26562h-.90625z" stroke="#ed7d31" stroke-linecap="round" stroke-linejoin="round" stroke-width="3"/><path d="m163.874 355.5h-1.6875v-6.53125l-2.01563.625v-1.375l3.53125-1.26563h.17188zm8.73437 0h-5.84375v-1.15625l2.76562-2.95313q.5625-.60937.82813-1.07812.28125-.46875.28125-.875 0-.57812-.29688-.89062-.28124-.32813-.8125-.32813-.57812 0-.90624.39063-.32813.39062-.32813 1.04687h-1.70313q0-.78125.375-1.42187.375-.65626 1.04688-1.01563.6875-.375 1.54688-.375 1.3125 0 2.04687.64063.73437.625.73437 1.78124 0 .64063-.32812 1.29688-.32812.65625-1.125 1.53125l-1.9375 2.04687h3.65625zm1.3125-.82812q0-.40626.26563-.65626.28124-.25.6875-.25.42187 0 .6875.25.28124.25.28124.65626 0 .39062-.28124.64062-.26563.25-.6875.25-.40626 0-.6875-.25-.26563-.25-.26563-.64062zm8.40625-5.4375q0 .625-.3125 1.10937-.3125.46875-.85938.76563.625.29687.98438.82812.375.51562.375 1.21875 0 1.14063-.78125 1.8125-.76563.65625-2.10937.65625-1.32813 0-2.10938-.65625-.76562-.67187-.76562-1.8125 0-.70313.35937-1.23437.35937-.53126.98437-.8125-.54687-.29688-.85937-.76563-.3125-.48437-.3125-1.10937 0-1.09376.71875-1.73438.73438-.65625 1.98438-.65625 1.25 0 1.96874.65625.73438.64062.73438 1.73438zm-1.51562 3.79687q0-.54687-.32813-.875-.3125-.34375-.85937-.34375-.54688 0-.875.32812-.3125.32813-.3125.89063 0 .54687.3125.89063.32812.32812.89062.32812.54688 0 .85938-.3125.3125-.32812.3125-.90625zm-.17188-3.71875q0-.5-.26562-.79688-.26563-.29687-.75-.29687-.46876 0-.73438.29687-.26562.28126-.26562.79688 0 .51562.26562.82812.26562.3125.73438.3125.48437 0 .75-.3125.26562-.3125.26562-.82812zm4.84375 1.17188h.90625q.64062 0 .95312-.3125.3125-.32813.3125-.85938 0-.51562-.3125-.79688-.29687-.29687-.84374-.29687-.48438 0-.8125.26563-.32813.26562-.32813.6875h-1.6875q0-.65626.35937-1.1875.35938-.53126 1-.82813.65626-.3125 1.4375-.3125 1.34376 0 2.10938.65625.78125.64062.78125 1.78125 0 .59375-.35937 1.09375-.35938.48438-.9375.73438.71874.26562 1.0625.78124.35937.51563.35937 1.21876 0 1.14062-.82813 1.82812-.82812.6875-2.1875.6875-1.28124 0-2.09374-.67188-.8125-.6875-.8125-1.79687h1.6875q0 .48437.35937.79687.375.29688.89063.29688.60937 0 .95312-.3125.34375-.32812.34375-.85938 0-1.26562-1.40625-1.26562h-.90625z" fill="#fff"/><path d="m152.34827 409.09375q-.67188.64063-1.54688.64063-1.14062 0-1.82812-.76563-.67188-.78125-.67188-2.09375 0-.84375.35938-1.54688.375-.70312 1.03125-1.09374.65625-.39063 1.48437-.39063.84375 0 1.5.42187.65625.42188 1.01563 1.21876.35937.79687.375 1.8125v.625q0 2.14062-1.0625 3.35937-1.0625 1.21875-3.01563 1.29687h-.40625v-1.40624l.375-.01563q2.20313-.09375 2.39063-2.0625zm-1.14063-.65625q.42188 0 .70313-.20312.29687-.21876.45312-.51563v-.6875q0-.85937-.32812-1.32813-.32813-.48437-.875-.48437-.51563 0-.84375.46875-.32813.45312-.32813 1.15625 0 .70313.3125 1.15625.32813.4375.90625.4375zm4.32813 3.23438q0-.40626.26562-.65626.28125-.25.6875-.25.42188 0 .6875.25.28125.25.28125.65626 0 .39062-.28125.64062-.26562.25-.6875.25-.40625 0-.6875-.25-.26562-.25-.26562-.64062zm4.5625-4.1875h.90625q.64062 0 .95312-.3125.3125-.32813.3125-.85938 0-.51562-.3125-.79688-.29687-.29687-.84375-.29687-.48437 0-.8125.26563-.32812.26562-.32812.6875h-1.6875q0-.65626.35937-1.1875.35938-.53126 1-.82813.65625-.3125 1.4375-.3125 1.34375 0 2.10938.65625.78125.64062.78125 1.78125 0 .59375-.35938 1.09375-.35937.48438-.9375.73438.71875.26562 1.0625.78124.35938.51563.35938 1.21876 0 1.14062-.82813 1.82812-.82812.6875-2.1875.6875-1.28125 0-2.09375-.67188-.8125-.6875-.8125-1.79687h1.6875q0 .48437.35938.79687.375.29688.89062.29688.60938 0 .95313-.3125.34375-.32812.34375-.85938 0-1.26562-1.40625-1.26562h-.90625zm9.875-3.60938v1.40625h-.15625q-1.15625.01563-1.85938.59375-.6875.57812-.82812 1.60938.67187-.6875 1.70312-.6875 1.125 0 1.78125.79687.65625.79687.65625 2.09375 0 .82812-.35937 1.5-.35938.67188-1.03125 1.0625-.65625.375-1.48438.375-1.34375 0-2.17187-.9375-.82813-.95312-.82813-2.51562v-.60938q0-1.39062.51563-2.45312.53125-1.0625 1.5-1.64063.98437-.57813 2.28125-.59375zm-1.65625 4.28125q-.40625 0-.75.21875-.32813.20312-.48438.5625v.51562q0 .84376.32813 1.32813.34375.46875.95312.46875.54688 0 .875-.42188.34375-.4375.34375-1.125 0-.70312-.34375-1.125-.34375-.42187-.92187-.42187z" stroke="#ed7d31" stroke-linecap="round" stroke-linejoin="round" stroke-width="3"/><path d="m152.34827 409.09375q-.67188.64063-1.54688.64063-1.14062 0-1.82812-.76563-.67188-.78125-.67188-2.09375 0-.84375.35938-1.54688.375-.70312 1.03125-1.09374.65625-.39063 1.48437-.39063.84375 0 1.5.42187.65625.42188 1.01563 1.21876.35937.79687.375 1.8125v.625q0 2.14062-1.0625 3.35937-1.0625 1.21875-3.01563 1.29687h-.40625v-1.40624l.375-.01563q2.20313-.09375 2.39063-2.0625zm-1.14063-.65625q.42188 0 .70313-.20312.29687-.21876.45312-.51563v-.6875q0-.85937-.32812-1.32813-.32813-.48437-.875-.48437-.51563 0-.84375.46875-.32813.45312-.32813 1.15625 0 .70313.3125 1.15625.32813.4375.90625.4375zm4.32813 3.23438q0-.40626.26562-.65626.28125-.25.6875-.25.42188 0 .6875.25.28125.25.28125.65626 0 .39062-.28125.64062-.26562.25-.6875.25-.40625 0-.6875-.25-.26562-.25-.26562-.64062zm4.5625-4.1875h.90625q.64062 0 .95312-.3125.3125-.32813.3125-.85938 0-.51562-.3125-.79688-.29687-.29687-.84375-.29687-.48437 0-.8125.26563-.32812.26562-.32812.6875h-1.6875q0-.65626.35937-1.1875.35938-.53126 1-.82813.65625-.3125 1.4375-.3125 1.34375 0 2.10938.65625.78125.64062.78125 1.78125 0 .59375-.35938 1.09375-.35937.48438-.9375.73438.71875.26562 1.0625.78124.35938.51563.35938 1.21876 0 1.14062-.82813 1.82812-.82812.6875-2.1875.6875-1.28125 0-2.09375-.67188-.8125-.6875-.8125-1.79687h1.6875q0 .48437.35938.79687.375.29688.89062.29688.60938 0 .95313-.3125.34375-.32812.34375-.85938 0-1.26562-1.40625-1.26562h-.90625zm9.875-3.60938v1.40625h-.15625q-1.15625.01563-1.85938.59375-.6875.57812-.82812 1.60938.67187-.6875 1.70312-.6875 1.125 0 1.78125.79687.65625.79687.65625 2.09375 0 .82812-.35937 1.5-.35938.67188-1.03125 1.0625-.65625.375-1.48438.375-1.34375 0-2.17187-.9375-.82813-.95312-.82813-2.51562v-.60938q0-1.39062.51563-2.45312.53125-1.0625 1.5-1.64063.98437-.57813 2.28125-.59375zm-1.65625 4.28125q-.40625 0-.75.21875-.32813.20312-.48438.5625v.51562q0 .84376.32813 1.32813.34375.46875.95312.46875.54688 0 .875-.42188.34375-.4375.34375-1.125 0-.70312-.34375-1.125-.34375-.42187-.92187-.42187z" fill="#fff"/><path d="m146.96349 462.23438q0 .625-.3125 1.10937-.3125.46875-.85938.76563.625.29687.98438.82812.375.51562.375 1.21875 0 1.14063-.78125 1.8125-.76563.65625-2.10938.65625-1.32812 0-2.10937-.65625-.76563-.67187-.76563-1.8125 0-.70313.35938-1.23437.35937-.53126.98437-.8125-.54687-.29688-.85937-.76563-.3125-.48437-.3125-1.10937 0-1.09376.71875-1.73438.73437-.65625 1.98437-.65625 1.25 0 1.96875.65625.73438.64062.73438 1.73438zm-1.51563 3.79687q0-.54687-.32812-.875-.3125-.34375-.85938-.34375-.54687 0-.875.32812-.3125.32813-.3125.89063 0 .54687.3125.89063.32813.32812.89063.32812.54687 0 .85937-.3125.3125-.32812.3125-.90625zm-.17187-3.71875q0-.5-.26563-.79688-.26562-.29687-.75-.29687-.46875 0-.73437.29687-.26563.28126-.26563.79688 0 .51562.26563.82812.26562.3125.73437.3125.48438 0 .75-.3125.26563-.3125.26563-.82812zm3.28125 5.35938q0-.40626.26562-.65626.28125-.25.6875-.25.42188 0 .6875.25.28125.25.28125.65626 0 .39062-.28125.64062-.26562.25-.6875.25-.40625 0-.6875-.25-.26562-.25-.26562-.64062zm8.59375-2.70313q0 1.76563-.73438 2.71875-.73437.9375-2.14062.9375-1.40625 0-2.14063-.92188-.73437-.92187-.75-2.64062v-1.57812q0-1.78126.73438-2.70313.75-.9375 2.14062-.9375 1.39063 0 2.125.92187.75.92188.76563 2.64063zm-1.70313-1.71875q0-1.0625-.29687-1.54688-.28125-.48437-.89063-.48437-.59375 0-.89062.46875-.28125.45312-.29688 1.4375v2.0625q0 1.04688.28125 1.5625.28125.5.92188.5.60937 0 .89062-.48438.28125-.48437.28125-1.48437zm7.96875 2.03125h.96875v1.375h-.96875v1.84375h-1.70312v-1.84375h-3.48438l-.07812-1.0625 3.54687-5.625h1.71875zm-3.57812 0h1.875v-3l-.10938.1875z" stroke="#ed7d31" stroke-linecap="round" stroke-linejoin="round" stroke-width="3"/><path d="m146.96349 462.23438q0 .625-.3125 1.10937-.3125.46875-.85938.76563.625.29687.98438.82812.375.51562.375 1.21875 0 1.14063-.78125 1.8125-.76563.65625-2.10938.65625-1.32812 0-2.10937-.65625-.76563-.67187-.76563-1.8125 0-.70313.35938-1.23437.35937-.53126.98437-.8125-.54687-.29688-.85937-.76563-.3125-.48437-.3125-1.10937 0-1.09376.71875-1.73438.73437-.65625 1.98437-.65625 1.25 0 1.96875.65625.73438.64062.73438 1.73438zm-1.51563 3.79687q0-.54687-.32812-.875-.3125-.34375-.85938-.34375-.54687 0-.875.32812-.3125.32813-.3125.89063 0 .54687.3125.89063.32813.32812.89063.32812.54687 0 .85937-.3125.3125-.32812.3125-.90625zm-.17187-3.71875q0-.5-.26563-.79688-.26562-.29687-.75-.29687-.46875 0-.73437.29687-.26563.28126-.26563.79688 0 .51562.26563.82812.26562.3125.73437.3125.48438 0 .75-.3125.26563-.3125.26563-.82812zm3.28125 5.35938q0-.40626.26562-.65626.28125-.25.6875-.25.42188 0 .6875.25.28125.25.28125.65626 0 .39062-.28125.64062-.26562.25-.6875.25-.40625 0-.6875-.25-.26562-.25-.26562-.64062zm8.59375-2.70313q0 1.76563-.73438 2.71875-.73437.9375-2.14062.9375-1.40625 0-2.14063-.92188-.73437-.92187-.75-2.64062v-1.57812q0-1.78126.73438-2.70313.75-.9375 2.14062-.9375 1.39063 0 2.125.92187.75.92188.76563 2.64063zm-1.70313-1.71875q0-1.0625-.29687-1.54688-.28125-.48437-.89063-.48437-.59375 0-.89062.46875-.28125.45312-.29688 1.4375v2.0625q0 1.04688.28125 1.5625.28125.5.92188.5.60937 0 .89062-.48438.28125-.48437.28125-1.48437zm7.96875 2.03125h.96875v1.375h-.96875v1.84375h-1.70312v-1.84375h-3.48438l-.07812-1.0625 3.54687-5.625h1.71875zm-3.57812 0h1.875v-3l-.10938.1875z" fill="#fff"/><path d="m144.15971 517.9219-3.29687 7.5781h-1.78125l3.29687-7.15625h-4.23437v-1.375h6.01562zm1.35938 6.75q0-.4063.26562-.6563.28125-.25.6875-.25.42188 0 .6875.25.28125.25.28125.6563 0 .3906-.28125.6406-.26562.25-.6875.25-.40625 0-.6875-.25-.26562-.25-.26562-.6406zm7.85937-2.39065h.96875v1.375h-.96875v1.84375h-1.70312v-1.84375h-3.48438l-.07812-1.0625 3.54687-5.625h1.71875zm-3.57812 0h1.875v-3l-.10938.1875zm11.35937-4.35935-3.29687 7.5781h-1.78125l3.29687-7.15625h-4.23437v-1.375h6.01562z" stroke="#ed7d31" stroke-linecap="round" stroke-linejoin="round" stroke-width="3"/><path d="m144.15971 517.9219-3.29687 7.5781h-1.78125l3.29687-7.15625h-4.23437v-1.375h6.01562zm1.35938 6.75q0-.4063.26562-.6563.28125-.25.6875-.25.42188 0 .6875.25.28125.25.28125.6563 0 .3906-.28125.6406-.26562.25-.6875.25-.40625 0-.6875-.25-.26562-.25-.26562-.6406zm7.85937-2.39065h.96875v1.375h-.96875v1.84375h-1.70312v-1.84375h-3.48438l-.07812-1.0625 3.54687-5.625h1.71875zm-3.57812 0h1.875v-3l-.10938.1875zm11.35937-4.35935-3.29687 7.5781h-1.78125l3.29687-7.15625h-4.23437v-1.375h6.01562z" fill="#fff"/><path d="m138.1449 573.875v1.40625h-.15625q-1.15625.01565-1.85938.59375-.6875.5781-.82812 1.6094.67187-.6875 1.70312-.6875 1.125 0 1.78125.79685.65625.79685.65625 2.09375 0 .8281-.35937 1.5-.35938.6719-1.03125 1.0625-.65625.375-1.48438.375-1.34375 0-2.17187-.9375-.82813-.9531-.82813-2.5156v-.6094q0-1.3906.51563-2.4531.53125-1.0625 1.5-1.64065.98437-.57815 2.28125-.59375zm-1.65625 4.28125q-.40625 0-.75.21875-.32813.2031-.48438.5625v.5156q0 .8438.32813 1.32815.34375.46875.95312.46875.54688 0 .875-.4219.34375-.4375.34375-1.125 0-.7031-.34375-1.125-.34375-.42185-.92187-.42185zm4.21875 3.51565q0-.4063.26562-.6563.28125-.25.6875-.25.42188 0 .6875.25.28125.25.28125.6563 0 .3906-.28125.6406-.26562.25-.6875.25-.40625 0-.6875-.25-.26562-.25-.26562-.6406zm3.09375-3.375.5-4.32815h4.78125v1.40625h-3.39063l-.21875 1.84375q.60938-.32815 1.28125-.32815 1.21875 0 1.90625.76565.70313.75.70313 2.10935 0 .82815-.35938 1.4844-.34375.6406-1 1.0156-.64062.3594-1.53125.3594-.76562 0-1.4375-.3125-.65625-.3281-1.04687-.8906-.375-.5625-.40625-1.2969h1.6875q.04687.53125.35937.8281.32813.2969.84375.2969.57813 0 .875-.40625.3125-.42185.3125-1.17185 0-.7344-.35937-1.1094-.34375-.3906-1-.3906-.60938 0-.98438.3125l-.15625.1562zm11.34375-4.4219v1.40625h-.15625q-1.15625.01565-1.85938.59375-.6875.5781-.82812 1.6094.67187-.6875 1.70312-.6875 1.125 0 1.78125.79685.65625.79685.65625 2.09375 0 .8281-.35937 1.5-.35938.6719-1.03125 1.0625-.65625.375-1.48438.375-1.34375 0-2.17187-.9375-.82813-.9531-.82813-2.5156v-.6094q0-1.3906.51563-2.4531.53125-1.0625 1.5-1.64065.98437-.57815 2.28125-.59375zm-1.65625 4.28125q-.40625 0-.75.21875-.32813.2031-.48438.5625v.5156q0 .8438.32813 1.32815.34375.46875.95312.46875.54688 0 .875-.4219.34375-.4375.34375-1.125 0-.7031-.34375-1.125-.34375-.42185-.92187-.42185z" stroke="#ed7d31" stroke-linecap="round" stroke-linejoin="round" stroke-width="3"/><path d="m138.1449 573.875v1.40625h-.15625q-1.15625.01565-1.85938.59375-.6875.5781-.82812 1.6094.67187-.6875 1.70312-.6875 1.125 0 1.78125.79685.65625.79685.65625 2.09375 0 .8281-.35937 1.5-.35938.6719-1.03125 1.0625-.65625.375-1.48438.375-1.34375 0-2.17187-.9375-.82813-.9531-.82813-2.5156v-.6094q0-1.3906.51563-2.4531.53125-1.0625 1.5-1.64065.98437-.57815 2.28125-.59375zm-1.65625 4.28125q-.40625 0-.75.21875-.32813.2031-.48438.5625v.5156q0 .8438.32813 1.32815.34375.46875.95312.46875.54688 0 .875-.4219.34375-.4375.34375-1.125 0-.7031-.34375-1.125-.34375-.42185-.92187-.42185zm4.21875 3.51565q0-.4063.26562-.6563.28125-.25.6875-.25.42188 0 .6875.25.28125.25.28125.6563 0 .3906-.28125.6406-.26562.25-.6875.25-.40625 0-.6875-.25-.26562-.25-.26562-.6406zm3.09375-3.375.5-4.32815h4.78125v1.40625h-3.39063l-.21875 1.84375q.60938-.32815 1.28125-.32815 1.21875 0 1.90625.76565.70313.75.70313 2.10935 0 .82815-.35938 1.4844-.34375.6406-1 1.0156-.64062.3594-1.53125.3594-.76562 0-1.4375-.3125-.65625-.3281-1.04687-.8906-.375-.5625-.40625-1.2969h1.6875q.04687.53125.35937.8281.32813.2969.84375.2969.57813 0 .875-.40625.3125-.42185.3125-1.17185 0-.7344-.35937-1.1094-.34375-.3906-1-.3906-.60938 0-.98438.3125l-.15625.1562zm11.34375-4.4219v1.40625h-.15625q-1.15625.01565-1.85938.59375-.6875.5781-.82812 1.6094.67187-.6875 1.70312-.6875 1.125 0 1.78125.79685.65625.79685.65625 2.09375 0 .8281-.35937 1.5-.35938.6719-1.03125 1.0625-.65625.375-1.48438.375-1.34375 0-2.17187-.9375-.82813-.9531-.82813-2.5156v-.6094q0-1.3906.51563-2.4531.53125-1.0625 1.5-1.64065.98437-.57815 2.28125-.59375zm-1.65625 4.28125q-.40625 0-.75.21875-.32813.2031-.48438.5625v.5156q0 .8438.32813 1.32815.34375.46875.95312.46875.54688 0 .875-.4219.34375-.4375.34375-1.125 0-.7031-.34375-1.125-.34375-.42185-.92187-.42185z" fill="#fff"/><path d="m310.9168 636.28125h.96876v1.375h-.96876v1.84375h-1.70312v-1.84375h-3.48438l-.07812-1.0625 3.54688-5.625h1.71874zm-3.57812 0h1.875v-3l-.10938.1875zm11.3125-.3125q0 1.76565-.73438 2.71875-.73437.9375-2.14062.9375-1.40625 0-2.14062-.9219-.73438-.92185-.75-2.6406v-1.5781q0-1.7813.73437-2.70315.75-.9375 2.14063-.9375 1.39062 0 2.125.92185.75.9219.76562 2.64065zm-1.70312-1.71875q0-1.0625-.29688-1.5469-.28125-.48435-.89062-.48435-.59376 0-.89063.46875-.28125.4531-.29687 1.4375v2.0625q0 1.0469.28124 1.5625.28126.5.92188.5.60938 0 .89062-.4844.28126-.48435.28126-1.48435zm3.10937 4.4219q0-.4063.26563-.6563.28124-.25.6875-.25.42187 0 .6875.25.28124.25.28124.6563 0 .3906-.28124.6406-.26563.25-.6875.25-.40626 0-.6875-.25-.26563-.25-.26563-.6406zm7.85937-2.39065h.96876v1.375h-.96876v1.84375h-1.70312v-1.84375h-3.48438l-.07812-1.0625 3.54688-5.625h1.71874zm-3.57812 0h1.875v-3l-.10938.1875zm11.3125-.3125q0 1.76565-.73438 2.71875-.73437.9375-2.14062.9375-1.40625 0-2.14062-.9219-.73438-.92185-.75-2.6406v-1.5781q0-1.7813.73437-2.70315.75-.9375 2.14063-.9375 1.39062 0 2.125.92185.75.9219.76562 2.64065zm-1.70312-1.71875q0-1.0625-.29688-1.5469-.28125-.48435-.89062-.48435-.59376 0-.89063.46875-.28125.4531-.29687 1.4375v2.0625q0 1.0469.28124 1.5625.28126.5.92188.5.60938 0 .89062-.4844.28126-.48435.28126-1.48435z" stroke="#ed7d31" stroke-linecap="round" stroke-linejoin="round" stroke-width="3"/><path d="m310.9168 636.28125h.96876v1.375h-.96876v1.84375h-1.70312v-1.84375h-3.48438l-.07812-1.0625 3.54688-5.625h1.71874zm-3.57812 0h1.875v-3l-.10938.1875zm11.3125-.3125q0 1.76565-.73438 2.71875-.73437.9375-2.14062.9375-1.40625 0-2.14062-.9219-.73438-.92185-.75-2.6406v-1.5781q0-1.7813.73437-2.70315.75-.9375 2.14063-.9375 1.39062 0 2.125.92185.75.9219.76562 2.64065zm-1.70312-1.71875q0-1.0625-.29688-1.5469-.28125-.48435-.89062-.48435-.59376 0-.89063.46875-.28125.4531-.29687 1.4375v2.0625q0 1.0469.28124 1.5625.28126.5.92188.5.60938 0 .89062-.4844.28126-.48435.28126-1.48435zm3.10937 4.4219q0-.4063.26563-.6563.28124-.25.6875-.25.42187 0 .6875.25.28124.25.28124.6563 0 .3906-.28124.6406-.26563.25-.6875.25-.40626 0-.6875-.25-.26563-.25-.26563-.6406zm7.85937-2.39065h.96876v1.375h-.96876v1.84375h-1.70312v-1.84375h-3.48438l-.07812-1.0625 3.54688-5.625h1.71874zm-3.57812 0h1.875v-3l-.10938.1875zm11.3125-.3125q0 1.76565-.73438 2.71875-.73437.9375-2.14062.9375-1.40625 0-2.14062-.9219-.73438-.92185-.75-2.6406v-1.5781q0-1.7813.73437-2.70315.75-.9375 2.14063-.9375 1.39062 0 2.125.92185.75.9219.76562 2.64065zm-1.70312-1.71875q0-1.0625-.29688-1.5469-.28125-.48435-.89062-.48435-.59376 0-.89063.46875-.28125.4531-.29687 1.4375v2.0625q0 1.0469.28124 1.5625.28126.5.92188.5.60938 0 .89062-.4844.28126-.48435.28126-1.48435z" fill="#fff"/><g fill="#000"><path d="m72.984375 71.79956v-8.53125h2.421875q1.109375 0 1.953125.5.859375.484376 1.328125 1.390626.46875.90625.46875 2.09375v.53125q0 1.21875-.46875 2.125-.453125.90625-1.328125 1.390624-.859375.484376-2 .5zm1.125-7.609374v6.6875h1.1875q1.296875 0 2.015625-.796876.734375-.8125.734375-2.3125v-.5q0-1.453124-.6875-2.25-.671875-.8125-1.9375-.828124zm9.34375 7.734374q-1.296875 0-2.109375-.84375-.796875-.859374-.796875-2.28125v-.1875q0-.953124.359375-1.6875.359375-.75 1-1.15625.65625-.421874 1.40625-.421874 1.234375 0 1.921875.8125.6875.8125.6875 2.328124v.453126h-4.296875q.03125.9375.546875 1.515624.53125.578126 1.34375.578126.5625 0 .953125-.234376.40625-.234374.71875-.625l.65625.515626q-.796875 1.234374-2.390625 1.234374zm-.140625-5.6875q-.65625 0-1.109375.484376-.4375.46875-.53125 1.328124h3.171875v-.078124q-.046875-.828126-.453125-1.28125-.390625-.453126-1.078125-.453126zm4.53125-.78125.03125.796876q.734375-.90625 1.90625-.90625 2.015625 0 2.03125 2.265624v4.1875h-1.09375v-4.203124q0-.671876-.3125-1-.296875-.328126-.953125-.328126-.53125 0-.9375.28125-.390625.28125-.609375.734376v4.515624h-1.078125v-6.34375zm7 0 .03125.703126q.6875-.8125 1.875-.8125 1.328125 0 1.8125 1.015624.3125-.453124.8125-.734374.515625-.28125 1.203125-.28125 2.09375 0 2.125 2.203124v4.25h-1.078125v-4.1875q0-.671874-.3125-1-.3125-.34375-1.046875-.34375-.609375 0-1.015625.359376-.390625.359374-.453125.96875v4.203124h-1.078125v-4.15625q0-1.375-1.359375-1.375-1.0625 0-1.453125.90625v4.625h-1.09375v-6.34375zm13.890625 6.34375q-.09375-.1875-.15625-.671874-.75.796874-1.796875.796874-.9375 0-1.546875-.53125-.59375-.53125-.59375-1.359374 0-.984376.75-1.53125.75-.546876 2.125-.546876h1.046875v-.5q0-.5625-.34375-.890624-.328125-.34375-1-.34375-.578125 0-.96875.296874-.390625.28125-.390625.703126h-1.09375q0-.484376.328125-.921876.34375-.4375.921875-.6875.578125-.265624 1.265625-.265624 1.109375 0 1.71875.546874.625.546876.65625 1.5v2.921876q0 .875.21875 1.390624v.09375zm-1.796875-.828124q.515625 0 .96875-.265626.453125-.265624.65625-.6875v-1.296874h-.84375q-2 0-2 1.171874 0 .5.34375.796876.34375.28125.875.28125zm7.953125-4.546876q-.25-.03125-.53125-.03125-1.078125 0-1.453125.90625v4.5h-1.078125v-6.34375h1.046875l.015625.734376q.53125-.84375 1.515625-.84375.3125 0 .484375.078124zm2.703125 2.4375-.6875.703126v2.234374h-1.078125v-9h1.078125v5.4375l.578125-.6875 1.984375-2.09375h1.3125l-2.46875 2.65625 2.765625 3.6875h-1.28125z"/><path d="m85.8125 124.60214h-3.703125v3.01563h4.296875v.92187h-5.421875v-8.53125h5.375v.92188h-4.25v2.75h3.703125zm5.703125 2.25q0-.4375-.34375-.67187-.328125-.25-1.15625-.42188-.8125-.17187-1.296875-.42187-.484375-.25-.71875-.57813-.21875-.34375-.21875-.8125 0-.78125.65625-1.3125.65625-.54687 1.6875-.54687 1.078125 0 1.734375.5625.671875.54687.671875 1.40625h-1.078125q0-.4375-.390625-.75-.375-.32813-.9375-.32813-.59375 0-.9375.26563-.328125.25-.328125.65625 0 .39062.3125.59375.3125.20312 1.125.39062.8125.17188 1.3125.42188.5.25.734375.60937.25.35938.25.85938 0 .85937-.6875 1.375-.671875.51562-1.75.51562-.765625 0-1.359375-.26562-.578125-.28125-.90625-.76563-.328125-.48437-.328125-1.04687h1.078125q.03125.54687.4375.875.40625.3125 1.078125.3125.609375 0 .984375-.25.375-.25.375-.67188zm3.78125-6.1875v1.53125h1.171875v.84375h-1.171875v3.92188q0 .39062.15625.57812.15625.1875.53125.1875.1875 0 .515625-.0625v.875q-.421875.125-.828125.125-.71875 0-1.09375-.4375-.375-.45312-.375-1.26562v-3.92188h-1.15625v-.84375h1.15625v-1.53125zm2.234375 4.64063q0-.92188.359375-1.67188.375-.75 1.03125-1.14062.65625-.40625 1.484375-.40625 1.296875 0 2.09375.89062.8125.89063.8125 2.39063v.07812q0 .92188-.359375 1.65625-.359375.73438-1.015625 1.15625-.65625.40625-1.515625.40625-1.28125 0-2.09375-.89062-.796875-.90625-.796875-2.39063zm1.09375.14062q0 1.04688.484375 1.6875.5.64063 1.3125.64063.828125 0 1.3125-.64063.484375-.65625.484375-1.82812 0-1.03125-.5-1.67188-.484375-.65625-1.3125-.65625-.796875 0-1.296875.64063-.484375.625-.484375 1.82812zm7.21875-3.25.03125.79688q.734375-.90625 1.90625-.90625 2.015625 0 2.03125 2.26562v4.1875h-1.09375v-4.20312q0-.67188-.3125-1-.296875-.32813-.953125-.32813-.53125 0-.9375.28125-.390625.28125-.609375.73438v4.51562h-1.078125v-6.34375zm7.15625 6.34375h-1.078125v-6.34375h1.078125zm-1.171875-8.01562q0-.26563.15625-.45313.171875-.1875.484375-.1875.3125 0 .46875.1875.171875.1875.171875.45313 0 .25-.171875.4375-.15625.17187-.46875.17187-.3125 0-.484375-.17187-.15625-.1875-.15625-.4375zm6.90625 8.01562q-.09375-.1875-.15625-.67187-.75.79687-1.796875.79687-.9375 0-1.546875-.53125-.59375-.53125-.59375-1.35937 0-.98438.75-1.53125.75-.54688 2.125-.54688h1.046875v-.5q0-.5625-.34375-.89062-.328125-.34375-1-.34375-.578125 0-.96875.29687-.390625.28125-.390625.70313h-1.09375q0-.48438.328125-.92188.34375-.4375.921875-.6875.578125-.26562 1.265625-.26562 1.109375 0 1.71875.54687.625.54688.65625 1.5v2.92188q0 .875.21875 1.39062v.09375zm-1.796875-.82812q.515625 0 .96875-.26563.453125-.26562.65625-.6875v-1.29687h-.84375q-2 0-2 1.17187 0 .5.34375.79688.34375.28125.875.28125z"/><path d="m79.296875 184.15474q-.4375.625-1.21875.9375-.78125.3125-1.8125.3125-1.03125 0-1.84375-.48438-.8125-.5-1.25-1.40625-.4375-.90625-.453125-2.09375v-.73437q0-1.9375.890625-3 .90625-1.0625 2.53125-1.0625 1.34375 0 2.15625.6875.8125.6875 1 1.9375h-1.125q-.328125-1.6875-2.015625-1.6875-1.140625 0-1.71875.79687-.578125.78125-.59375 2.29688v.6875q0 1.4375.65625 2.29687.65625.84375 1.78125.84375.625 0 1.09375-.14062.484375-.14063.796875-.48438v-1.90625h-1.96875v-.92187h3.09375zm4.15625 1.25q-1.296875 0-2.109375-.84375-.796875-.85938-.796875-2.28125v-.1875q0-.95313.359375-1.6875.359375-.75 1-1.15625.65625-.42188 1.40625-.42188 1.234375 0 1.921875.8125.6875.8125.6875 2.32813v.45312h-4.296875q.03125.9375.546875 1.51563.53125.57812 1.34375.57812.5625 0 .953125-.23437.40625-.23438.71875-.625l.65625.51562q-.796875 1.23438-2.390625 1.23438zm-.140625-5.6875q-.65625 0-1.109375.48437-.4375.46875-.53125 1.32813h3.171875v-.07813q-.046875-.82812-.453125-1.28125-.390625-.45312-1.078125-.45312zm6.578125.1875q-.25-.03125-.53125-.03125-1.078125 0-1.453125.90625v4.5h-1.078125v-6.34375h1.046875l.015625.73437q.53125-.84375 1.515625-.84375.3125 0 .484375.07813zm1.953125-.96875.03125.70312q.6875-.8125 1.875-.8125 1.328125 0 1.8125 1.01563.3125-.45313.8125-.73438.515625-.28125 1.203125-.28125 2.09375 0 2.125 2.20313v4.25h-1.078125v-4.1875q0-.67188-.3125-1-.3125-.34375-1.046875-.34375-.609375 0-1.015625.35937-.390625.35938-.453125.96875v4.20313h-1.078125v-4.15625q0-1.375-1.359375-1.375-1.0625 0-1.453125.90625v4.625h-1.09375v-6.34375zm13.890625 6.34375q-.09375-.1875-.15625-.67188-.75.79688-1.796875.79688-.9375 0-1.546875-.53125-.59375-.53125-.59375-1.35938 0-.98437.75-1.53125.75-.54687 2.125-.54687h1.046875v-.5q0-.5625-.34375-.89063-.328125-.34375-1-.34375-.578125 0-.96875.29688-.390625.28125-.390625.70312h-1.09375q0-.48437.328125-.92187.34375-.4375.921875-.6875.578125-.26563 1.265625-.26563 1.109375 0 1.71875.54688.625.54687.65625 1.5v2.92187q0 .875.21875 1.39063v.09375zm-1.796875-.82813q.515625 0 .96875-.26562.453125-.26563.65625-.6875v-1.29688h-.84375q-2 0-2 1.17188 0 .5.34375.79687.34375.28125.875.28125zm5.90625-5.51562.03125.79687q.734375-.90625 1.90625-.90625 2.015625 0 2.03125 2.26563v4.1875h-1.09375v-4.20313q0-.67187-.3125-1-.296875-.32812-.953125-.32812-.53125 0-.9375.28125-.390625.28125-.609375.73437v4.51563h-1.078125v-6.34375zm8.046875 4.75 1.484375-4.75h1.15625l-2.546875 7.32812q-.59375 1.57813-1.875 1.57813l-.21875-.01563-.390625-.07812v-.875l.28125.01562q.5625 0 .859375-.21875.3125-.21875.515625-.8125l.234375-.65625-2.265625-6.26562h1.1875z"/><path d="m82.5 238.22295q-1.4375-.42188-2.109375-1.03125-.65625-.60938-.65625-1.5 0-1 .796875-1.65625.8125-.67188 2.109375-.67188.875 0 1.5625.34375.6875.34375 1.0625.9375.390625.59375.390625 1.3125h-1.140625q0-.78125-.5-1.21875-.484375-.4375-1.375-.4375-.828125 0-1.296875.375-.46875.35938-.46875 1 0 .53125.4375.89063.453125.35937 1.515625.65625 1.0625.29687 1.65625.65625.609375.35937.890625.84375.296875.48437.296875 1.125 0 1.04687-.8125 1.67187-.8125.625-2.15625.625-.890625 0-1.65625-.34375-.75-.34375-1.171875-.92187-.40625-.59375-.40625-1.32813h1.125q0 .76563.578125 1.21875.578125.45313 1.53125.45313.890625 0 1.359375-.35938.46875-.375.46875-1 0-.625-.4375-.96875-.4375-.34375-1.59375-.67187zm9.9375 2.29687 1.21875-4.84375h1.078125l-1.84375 6.34375h-.875l-1.546875-4.8125-1.5 4.8125h-.875l-1.84375-6.34375h1.078125l1.25 4.75 1.484375-4.75h.859375zm6.015625 1.625q-1.296875 0-2.109375-.84375-.796875-.85937-.796875-2.28125v-.1875q0-.95312.359375-1.6875.359375-.75 1-1.15625.65625-.42187 1.40625-.42187 1.234375 0 1.921875.8125.6875.8125.6875 2.32812v.45313h-4.296875q.03125.9375.546875 1.51562.53125.57813 1.34375.57813.5625 0 .953125-.23438.40625-.23437.71875-.625l.65625.51563q-.796875 1.23437-2.390625 1.23437zm-.140625-5.6875q-.65625 0-1.109375.48438-.4375.46875-.53125 1.32812h3.171875v-.07812q-.046875-.82813-.453125-1.28125-.390625-.45313-1.078125-.45313zm3.25 2.34375q0-1.46875.6875-2.34375.6875-.89062 1.8125-.89062 1.109375 0 1.765625.75v-3.29688h1.078125v9h-1l-.046875-.6875q-.65625.8125-1.8125.8125-1.09375 0-1.796875-.90625-.6875-.90625-.6875-2.35937zm1.078125.125q0 1.07813.4375 1.6875.453125.60938 1.234375.60938 1.03125 0 1.515625-.9375v-2.90625q-.484375-.89063-1.5-.89063-.796875 0-1.25.60938-.4375.60937-.4375 1.82812zm8.8125 3.21875q-1.296875 0-2.109375-.84375-.796875-.85937-.796875-2.28125v-.1875q0-.95312.359375-1.6875.359375-.75 1-1.15625.65625-.42187 1.40625-.42187 1.234375 0 1.921875.8125.6875.8125.6875 2.32812v.45313h-4.296875q.03125.9375.546875 1.51562.53125.57813 1.34375.57813.5625 0 .953125-.23438.40625-.23437.71875-.625l.65625.51563q-.796875 1.23437-2.390625 1.23437zm-.140625-5.6875q-.65625 0-1.109375.48438-.4375.46875-.53125 1.32812h3.171875v-.07812q-.046875-.82813-.453125-1.28125-.390625-.45313-1.078125-.45313zm4.53125-.78125.03125.79688q.734375-.90625 1.90625-.90625 2.015625 0 2.03125 2.26562v4.1875h-1.09375v-4.20312q0-.67188-.3125-1-.296875-.32813-.953125-.32813-.53125 0-.9375.28125-.390625.28125-.609375.73438v4.51562h-1.078125v-6.34375z"/><path d="m40 290.22867v5.79687q-.015625 1.20313-.765625 1.98438-.75.76562-2.03125.85938l-.3125.01562q-1.390625 0-2.234375-.75-.828125-.76562-.828125-2.09375v-5.8125h1.109375v5.78125q0 .92188.5 1.4375.515625.51562 1.453125.51562.96875 0 1.46875-.51562.5-.51562.5-1.4375v-5.78125zm2.84375 2.1875.03125.79687q.734375-.90624 1.90625-.90624 2.015625 0 2.03125 2.26562v4.1875h-1.09375v-4.20312q0-.67188-.3125-1-.296875-.32813-.953125-.32813-.53125 0-.9375.28125-.390625.28125-.609375.73438v4.51562h-1.078125v-6.34375zm7.15625 6.34375h-1.078125v-6.34375h1.078125zm-1.171875-8.01562q0-.26563.15625-.45313.171875-.1875.484375-.1875.3125 0 .46875.1875.171875.1875.171875.45313 0 .25-.171875.4375-.15625.17187-.46875.17187-.3125 0-.484375-.17187-.15625-.1875-.15625-.4375zm4.46875.14062v1.53125h1.171875v.84375h-1.171875v3.92188q0 .39062.15625.57812.15625.1875.53125.1875.1875 0 .515625-.0625v.875q-.421875.125-.828125.125-.71875 0-1.09375-.4375-.375-.45312-.375-1.26562v-3.92188h-1.15625v-.84375h1.15625v-1.53125zm5.15625 8q-1.296875 0-2.109375-.84375-.796875-.85937-.796875-2.28125v-.1875q0-.95312.359375-1.6875.359375-.75 1-1.15625.65625-.42187 1.40625-.42187 1.234375 0 1.921875.8125.6875.8125.6875 2.32812v.45312h-4.296875q.03125.9375.546875 1.51563.53125.57813 1.34375.57813.5625 0 .953125-.23438.40625-.23438.71875-.625l.65625.51562q-.796875 1.23438-2.390625 1.23438zm-.140625-5.6875q-.65625 0-1.109375.48438-.4375.46874-.53125 1.32812h3.171875v-.07812q-.046875-.82813-.453125-1.28126-.390625-.45312-1.078125-.45312zm3.25 2.34375q0-1.46875.6875-2.34375.6875-.89062 1.8125-.89062 1.109375 0 1.765625.75v-3.29688h1.078125v9h-1l-.046875-.6875q-.65625.8125-1.8125.8125-1.09375 0-1.796875-.90625-.6875-.90625-.6875-2.35937zm1.078125.125q0 1.07813.4375 1.6875.453125.60937 1.234375.60937 1.03125 0 1.515625-.9375v-2.90624q-.484375-.89063-1.5-.89063-.796875 0-1.25.60937-.4375.60938-.4375 1.82813zm11.515625-.875-1.046875 1.07813v2.89062h-1.125v-8.53125h1.125v4.21875l3.796875-4.21875h1.359375l-3.359375 3.76563 3.625 4.76562h-1.34375zm6.84375 3.96875h-1.078125v-6.34375h1.078125zm-1.171875-8.01562q0-.26563.15625-.45313.171875-.1875.484375-.1875.3125 0 .46875.1875.171875.1875.171875.45313 0 .25-.171875.4375-.15625.17187-.46875.17187-.3125 0-.484375-.17187-.15625-.1875-.15625-.4375zm4.015625 1.67187.03125.79687q.734375-.90624 1.90625-.90624 2.015625 0 2.03125 2.26562v4.1875h-1.09375v-4.20312q0-.67188-.3125-1-.296875-.32813-.953125-.32813-.53125 0-.9375.28125-.390625.28125-.609375.73438v4.51562h-1.078125v-6.34375zm5.71875 3.125q0-1.48437.6875-2.35937.6875-.875 1.8125-.875 1.15625 0 1.8125.8125l.046875-.70313h1v6.1875q0 1.23437-.734375 1.9375-.734375.71875-1.953125.71875-.6875 0-1.34375-.29688-.65625-.29687-1-.79687l.5625-.65625q.6875.85938 1.703125.85938.78125 0 1.21875-.45313.453125-.4375.453125-1.25v-.54687q-.65625.76562-1.78125.76562-1.109375 0-1.796875-.89062-.6875-.90626-.6875-2.45313zm1.09375.125q0 1.0625.4375 1.6875.4375.60937 1.234375.60937 1.015625 0 1.5-.9375v-2.89062q-.5-.90625-1.5-.90625-.78125 0-1.234375.60937-.4375.60938-.4375 1.82813zm5.90625-.125q0-1.46875.6875-2.34375.6875-.89062 1.8125-.89062 1.109375 0 1.765625.75v-3.29688h1.078125v9h-1l-.046875-.6875q-.65625.8125-1.8125.8125-1.09375 0-1.796875-.90625-.6875-.90625-.6875-2.35937zm1.078125.125q0 1.07813.4375 1.6875.453125.60937 1.234375.60937 1.03125 0 1.515625-.9375v-2.90624q-.484375-.89063-1.5-.89063-.796875 0-1.25.60937-.4375.60938-.4375 1.82813zm5.890625-.14063q0-.92187.359375-1.67187.375-.75 1.03125-1.14063.65625-.40624 1.484375-.40624 1.296875 0 2.09375.89062.8125.89062.8125 2.39062v.07813q0 .92187-.359375 1.65625-.359375.73438-1.015625 1.15625-.65625.40625-1.515625.40625-1.28125 0-2.09375-.89062-.796875-.90626-.796875-2.39063zm1.09375.14063q0 1.04687.484375 1.6875.5.64063 1.3125.64063.828125 0 1.3125-.64063.484375-.65625.484375-1.82813 0-1.03124-.5-1.67187-.484375-.65625-1.3125-.65625-.796875 0-1.296875.64062-.484375.625-.484375 1.82813zm7.21875-3.25.03125.70313q.6875-.8125 1.875-.8125 1.328125 0 1.8125 1.01562.3125-.45312.8125-.73438.515625-.28124 1.203125-.28124 2.09375 0 2.125 2.20312v4.25h-1.078125v-4.1875q0-.67188-.3125-1-.3125-.34375-1.046875-.34375-.609375 0-1.015625.35937-.390625.35938-.453125.96876v4.20312h-1.078125v-4.15625q0-1.375-1.359375-1.375-1.0625 0-1.453125.90625v4.625h-1.09375v-6.34375z"/><path d="m89.703125 351.73438h-3.59375v3.76562h-1.125v-8.53125h5.296875v.92187h-4.171875v2.92188h3.59375zm5.1875-1.60938q-.25-.03125-.53125-.03125-1.078125 0-1.453125.90625v4.5h-1.078125v-6.34375h1.046875l.015625.73437q.53125-.84374 1.515625-.84374.3125 0 .484375.07812zm4.84375 5.375q-.09375-.1875-.15625-.67188-.75.79688-1.796875.79688-.9375 0-1.546875-.53125-.59375-.53125-.59375-1.35937 0-.98438.75-1.53126.75-.54687 2.125-.54687h1.046875v-.5q0-.5625-.34375-.89063-.328125-.34374-1-.34374-.578125 0-.96875.29687-.390625.28125-.390625.70313h-1.09375q0-.48438.328125-.92188.34375-.4375.921875-.6875.578125-.26562 1.265625-.26562 1.109375 0 1.71875.54687.625.54687.65625 1.5v2.92187q0 .875.21875 1.39063v.09375zm-1.796875-.82812q.515625 0 .96875-.26563.453125-.26563.65625-.6875v-1.29687h-.84375q-2 0-2 1.17187 0 .5.34375.79687.34375.28126.875.28126zm5.90625-5.51563.03125.79687q.734375-.90624 1.90625-.90624 2.015625 0 2.03125 2.26562v4.1875h-1.09375v-4.20312q0-.67188-.3125-1-.296875-.32813-.953125-.32813-.53125 0-.9375.28125-.390625.28125-.609375.73438v4.51562h-1.078125v-6.34375zm8.515625 5.57813q.578125 0 1.015625-.34376.4375-.35937.484375-.89062h1.03125q-.03125.54688-.390625 1.04688-.34375.48437-.921875.78124-.5625.29688-1.21875.29688-1.296875 0-2.0625-.85938-.75-.875-.75-2.375v-.1875q0-.92187.328125-1.64062.34375-.71875.96875-1.10938.640625-.40624 1.515625-.40624 1.0625 0 1.765625.64062.71875.625.765625 1.65625h-1.03125q-.046875-.625-.46875-1.01563-.421875-.39062-1.03125-.39062-.828125 0-1.28125.59375-.453125.59375-.453125 1.71875v.20312q0 1.09376.453125 1.6875.453125.59376 1.28125.59376zm6.09375.89062q-1.296875 0-2.109375-.84375-.796875-.85937-.796875-2.28125v-.1875q0-.95312.359375-1.6875.359375-.75 1-1.15625.65625-.42187 1.40625-.42187 1.234375 0 1.921875.8125.6875.8125.6875 2.32812v.45312h-4.296875q.03125.9375.546875 1.51563.53125.57813 1.34375.57813.5625 0 .953125-.23438.40625-.23438.71875-.625l.65625.51562q-.796875 1.23438-2.390625 1.23438zm-.140625-5.6875q-.65625 0-1.109375.48438-.4375.46874-.53125 1.32812h3.171875v-.07812q-.046875-.82813-.453125-1.28126-.390625-.45312-1.078125-.45312z"/><path d="m89.125 408.78696h-2.015625v3.45312h-1.125v-8.53125h2.828125q1.4375 0 2.203125.65625.78125.65625.78125 1.90625 0 .79687-.4375 1.39063-.421875.59374-1.1875.89062l2 3.60938v.07812h-1.203125zm-2.015625-.92188h1.734375q.84375 0 1.328125-.42188.5-.4375.5-1.17187 0-.78125-.46875-1.20313-.46875-.42187-1.359375-.4375h-1.734375zm9.625 3.75q-.625.75-1.859375.75-1.015625 0-1.546875-.59375-.53125-.59375-.53125-1.75v-4.125h1.078125v4.09375q0 1.45312 1.171875 1.45312 1.25 0 1.65625-.9375v-4.60937h1.09375v6.34375h-1.03125zm6.78125-1.0625q0-.4375-.34375-.67188-.328125-.25-1.15625-.42187-.8125-.17187-1.296875-.42187-.484375-.25-.71875-.57813-.21875-.34375-.21875-.8125 0-.78125.65625-1.3125.65625-.54687 1.6875-.54687 1.078125 0 1.734375.5625.671875.54687.671875 1.40624h-1.078125q0-.4375-.390625-.75-.375-.32812-.9375-.32812-.59375 0-.9375.26562-.328125.25-.328125.65626 0 .39062.3125.59374.3125.20313 1.125.39063.8125.17187 1.3125.42187.5.25.734375.60938.25.35938.25.85938 0 .85937-.6875 1.375-.671875.51562-1.75.51562-.765625 0-1.359375-.26562-.578125-.28126-.90625-.76563-.328125-.48437-.328125-1.04687h1.078125q.03125.54687.4375.875.40625.3125 1.078125.3125.609375 0 .984375-.25.375-.25.375-.67188zm6 0q0-.4375-.34375-.67188-.328125-.25-1.15625-.42187-.8125-.17187-1.296875-.42187-.484375-.25-.71875-.57813-.21875-.34375-.21875-.8125 0-.78125.65625-1.3125.65625-.54687 1.6875-.54687 1.078125 0 1.734375.5625.671875.54687.671875 1.40624h-1.078125q0-.4375-.390625-.75-.375-.32812-.9375-.32812-.59375 0-.9375.26562-.328125.25-.328125.65626 0 .39062.3125.59374.3125.20313 1.125.39063.8125.17187 1.3125.42187.5.25.734375.60938.25.35938.25.85938 0 .85937-.6875 1.375-.671875.51562-1.75.51562-.765625 0-1.359375-.26562-.578125-.28126-.90625-.76563-.328125-.48437-.328125-1.04687h1.078125q.03125.54687.4375.875.40625.3125 1.078125.3125.609375 0 .984375-.25.375-.25.375-.67188zm3.484375 1.6875h-1.078125v-6.34375h1.078125zm-1.171875-8.01562q0-.26563.15625-.45313.171875-.1875.484375-.1875.3125 0 .46875.1875.171875.1875.171875.45313 0 .25-.171875.4375-.15625.17187-.46875.17187-.3125 0-.484375-.17187-.15625-.1875-.15625-.4375zm6.90625 8.01562q-.09375-.1875-.15625-.67188-.75.79688-1.796875.79688-.9375 0-1.546875-.53125-.59375-.53125-.59375-1.35937 0-.98438.75-1.53126.75-.54687 2.125-.54687h1.046875v-.5q0-.5625-.34375-.89063-.328125-.34374-1-.34374-.578125 0-.96875.29687-.390625.28125-.390625.70313h-1.09375q0-.48438.328125-.92188.34375-.4375.921875-.6875.578125-.26562 1.265625-.26562 1.109375 0 1.71875.54687.625.54687.65625 1.5v2.92187q0 .875.21875 1.39063v.09375zm-1.796875-.82812q.515625 0 .96875-.26563.453125-.26563.65625-.6875v-1.29687h-.84375q-2 0-2 1.17187 0 .5.34375.79687.34375.28126.875.28126z"/><path d="m72.125 468.0583h4.046875v.92186h-5.1875v-8.53126h1.140625zm5.875.92186h-1.078125v-6.34376h1.078125zm-1.171875-8.01562q0-.26564.15625-.45314.171875-.1875.484375-.1875.3125 0 .46875.1875.171875.1875.171875.45314 0 .25-.171875.4375-.15625.17186-.46875.17186-.3125 0-.484375-.17186-.15625-.1875-.15625-.4375zm4.46875.14062v1.53124h1.171875v.84376h-1.171875v3.92188q0 .39062.15625.57812.15625.1875.53125.1875.1875 0 .515625-.0625v.875q-.421875.125-.828125.125-.71875 0-1.09375-.4375-.375-.45312-.375-1.26562v-3.92188h-1.15625v-.84376h1.15625v-1.53124zm3.609375 2.29688q.71875-.875 1.875-.875 2.015625 0 2.03125 2.26562v4.1875h-1.09375v-4.20312q0-.67188-.3125-1-.296875-.32814-.953125-.32814-.53125 0-.9375.28126-.390625.28124-.609375.73438v4.51562h-1.078125v-9h1.078125zm9.828125 4.95312q-.625.75-1.859375.75-1.015625 0-1.546875-.59376-.53125-.59374-.53125-1.75v-4.125h1.078125v4.09376q0 1.45314 1.171875 1.45314 1.25 0 1.65625-.9375v-4.6094h1.09375v6.34376h-1.03125zm7 .625q-.09375-.1875-.15625-.67186-.75.79686-1.796875.79686-.9375 0-1.546875-.53126-.59375-.53124-.59375-1.35936 0-.98438.75-1.53124.75-.5469 2.125-.5469h1.046875v-.5q0-.5625-.34375-.8906-.328125-.34376-1-.34376-.578125 0-.96875.29686-.390625.28126-.390625.70314h-1.09375q0-.48438.328125-.92188.34375-.4375.921875-.6875.578125-.26562 1.265625-.26562 1.109375 0 1.71875.54686.625.5469.65625 1.5v2.9219q0 .875.21875 1.3906v.09376zm-1.796875-.82812q.515625 0 .96875-.26564.453125-.2656.65625-.6875v-1.29686h-.84375q-2 0-2 1.17186 0 .5.34375.7969.34375.28124.875.28124zm5.90625-5.51564.03125.7969q.734375-.90626 1.90625-.90626 2.015625 0 2.03125 2.26562v4.1875h-1.09375v-4.20312q0-.67188-.3125-1-.296875-.32814-.953125-.32814-.53125 0-.9375.28126-.390625.28124-.609375.73438v4.51562h-1.078125v-6.34376zm7.15625 6.34376h-1.078125v-6.34376h1.078125zm-1.171875-8.01562q0-.26564.15625-.45314.171875-.1875.484375-.1875.3125 0 .46875.1875.171875.1875.171875.45314 0 .25-.171875.4375-.15625.17186-.46875.17186-.3125 0-.484375-.17186-.15625-.1875-.15625-.4375zm6.90625 8.01562q-.09375-.1875-.15625-.67186-.75.79686-1.796875.79686-.9375 0-1.546875-.53126-.59375-.53124-.59375-1.35936 0-.98438.75-1.53124.75-.5469 2.125-.5469h1.046875v-.5q0-.5625-.34375-.8906-.328125-.34376-1-.34376-.578125 0-.96875.29686-.390625.28126-.390625.70314h-1.09375q0-.48438.328125-.92188.34375-.4375.921875-.6875.578125-.26562 1.265625-.26562 1.109375 0 1.71875.54686.625.5469.65625 1.5v2.9219q0 .875.21875 1.3906v.09376zm-1.796875-.82812q.515625 0 .96875-.26564.453125-.2656.65625-.6875v-1.29686h-.84375q-2 0-2 1.17186 0 .5.34375.7969.34375.28124.875.28124z"/><path d="m38.890625 518.1109h-2.75v7.6094h-1.109375v-7.6094h-2.75v-.9219h6.609375zm2.015625 2.03125q.71875-.875 1.875-.875 2.015625 0 2.03125 2.26565v4.1875h-1.09375v-4.20315q0-.67185-.3125-1-.296875-.32815-.953125-.32815-.53125 0-.9375.2813-.390625.2812-.609375.73435v4.51565h-1.078125v-9h1.078125zm8.546875 5.70315q-1.296875 0-2.109375-.8438-.796875-.85935-.796875-2.2812v-.1875q0-.95315.359375-1.6875.359375-.75 1-1.1563.65625-.42185 1.40625-.42185 1.234375 0 1.921875.8125.6875.8125.6875 2.32815v.4531h-4.296875q.03125.9375.546875 1.5156.53125.57815 1.34375.57815.5625 0 .953125-.23435.40625-.2344.71875-.625l.65625.5156q-.796875 1.2344-2.390625 1.2344zm-.140625-5.6875q-.65625 0-1.109375.48435-.4375.46875-.53125 1.32815h3.171875v-.07815q-.046875-.82815-.453125-1.28125-.390625-.4531-1.078125-.4531zm13.234375 5.5625h-1.125l-4.296875-6.57815v6.57815h-1.140625v-8.5313h1.140625l4.296875 6.6094v-6.6094h1.125zm4.90625.125q-1.296875 0-2.109375-.8438-.796875-.85935-.796875-2.2812v-.1875q0-.95315.359375-1.6875.359375-.75 1-1.1563.65625-.42185 1.40625-.42185 1.234375 0 1.921875.8125.6875.8125.6875 2.32815v.4531h-4.296875q.03125.9375.546875 1.5156.53125.57815 1.34375.57815.5625 0 .953125-.23435.40625-.2344.71875-.625l.65625.5156q-.796875 1.2344-2.390625 1.2344zm-.140625-5.6875q-.65625 0-1.109375.48435-.4375.46875-.53125 1.32815h3.171875v-.07815q-.046875-.82815-.453125-1.28125-.390625-.4531-1.078125-.4531zm4.984375-2.3125v1.5312h1.171875v.8438h-1.171875v3.92185q0 .39065.15625.57815.15625.1875.53125.1875.1875 0 .515625-.0625v.875q-.421875.125-.828125.125-.71875 0-1.09375-.4375-.375-.45315-.375-1.26565v-3.92185h-1.15625v-.8438h1.15625v-1.5312zm3.609375 2.29685q.71875-.875 1.875-.875 2.015625 0 2.03125 2.26565v4.1875h-1.09375v-4.20315q0-.67185-.3125-1-.296875-.32815-.953125-.32815-.53125 0-.9375.2813-.390625.2812-.609375.73435v4.51565h-1.078125v-9h1.078125zm8.546875 5.70315q-1.296875 0-2.109375-.8438-.796875-.85935-.796875-2.2812v-.1875q0-.95315.359375-1.6875.359375-.75 1-1.1563.65625-.42185 1.40625-.42185 1.234375 0 1.921875.8125.6875.8125.6875 2.32815v.4531h-4.296875q.03125.9375.546875 1.5156.53125.57815 1.34375.57815.5625 0 .953125-.23435.40625-.2344.71875-.625l.65625.5156q-.796875 1.2344-2.390625 1.2344zm-.140625-5.6875q-.65625 0-1.109375.48435-.4375.46875-.53125 1.32815h3.171875v-.07815q-.046875-.82815-.453125-1.28125-.390625-.4531-1.078125-.4531zm6.578125.1875q-.25-.0313-.53125-.0313-1.078125 0-1.453125.9063v4.5h-1.078125v-6.3438h1.046875l.015625.7344q.53125-.84375 1.515625-.84375.3125 0 .484375.07815zm2.109375 5.375h-1.078125v-9h1.078125zm5.734375 0q-.09375-.1875-.15625-.6719-.75.7969-1.796875.7969-.9375 0-1.546875-.5313-.59375-.5312-.59375-1.35935 0-.98435.75-1.53125.75-.5469 2.125-.5469h1.046875v-.5q0-.5625-.34375-.8906-.328125-.34375-1-.34375-.578125 0-.96875.29685-.390625.2813-.390625.70315h-1.09375q0-.48435.328125-.92185.34375-.4375.921875-.6875.578125-.26565 1.265625-.26565 1.109375 0 1.71875.54685.625.5469.65625 1.5v2.9219q0 .875.21875 1.3906v.0938zm-1.796875-.82815q.515625 0 .96875-.26565.453125-.2656.65625-.6875v-1.29685h-.84375q-2 0-2 1.17185 0 .5.34375.7969.34375.28125.875.28125zm5.90625-5.51565.03125.7969q.734375-.90625 1.90625-.90625 2.015625 0 2.03125 2.26565v4.1875h-1.09375v-4.20315q0-.67185-.3125-1-.296875-.32815-.953125-.32815-.53125 0-.9375.2813-.390625.2812-.609375.73435v4.51565h-1.078125v-6.3438zm5.71875 3.125q0-1.4687.6875-2.3437.6875-.89065 1.8125-.89065 1.109375 0 1.765625.75v-3.29685h1.078125v9h-1l-.046875-.6875q-.65625.8125-1.8125.8125-1.09375 0-1.796875-.9063-.6875-.9062-.6875-2.35935zm1.078125.125q0 1.07815.4375 1.6875.453125.6094 1.234375.6094 1.03125 0 1.515625-.9375v-2.90625q-.484375-.89065-1.5-.89065-.796875 0-1.25.6094-.4375.6094-.4375 1.8281zm9.875 1.4063q0-.4375-.34375-.6719-.328125-.25-1.15625-.4219-.8125-.17185-1.296875-.42185-.484375-.25-.71875-.57815-.21875-.3437-.21875-.8125 0-.7812.65625-1.3125.65625-.54685 1.6875-.54685 1.078125 0 1.734375.5625.671875.54685.671875 1.40625h-1.078125q0-.4375-.390625-.75-.375-.3281-.9375-.3281-.59375 0-.9375.2656-.328125.25-.328125.65625 0 .39065.3125.59375.3125.2031 1.125.3906.8125.1719 1.3125.4219.5.25.734375.6094.25.35935.25.85935 0 .85935-.6875 1.375-.671875.51565-1.75.51565-.765625 0-1.359375-.26565-.578125-.28125-.90625-.76565-.328125-.48435-.328125-1.04685h1.078125q.03125.54685.4375.875.40625.3125 1.078125.3125.609375 0 .984375-.25.375-.25.375-.67185z"/><path d="m56 573.9291v5.79685q-.015625 1.20315-.765625 1.98435-.75.76565-2.03125.8594l-.3125.0156q-1.390625 0-2.234375-.75-.828125-.7656-.828125-2.0937v-5.8125h1.109375v5.7812q0 .9219.5 1.4375.515625.51565 1.453125.51565.96875 0 1.46875-.51565.5-.5156.5-1.4375v-5.7812zm2.84375 2.1875.03125.79685q.734375-.90625 1.90625-.90625 2.015625 0 2.03125 2.2656v4.1875h-1.09375v-4.2031q0-.6719-.3125-1-.296875-.3281-.953125-.3281-.53125 0-.9375.2812-.390625.2813-.609375.7344v4.5156h-1.078125v-6.3437zm7.15625 6.3437h-1.078125v-6.3437h1.078125zm-1.171875-8.0156q0-.2656.15625-.4531.171875-.1875.484375-.1875.3125 0 .46875.1875.171875.1875.171875.4531 0 .25-.171875.4375-.15625.1719-.46875.1719-.3125 0-.484375-.1719-.15625-.1875-.15625-.4375zm4.46875.1406v1.5313h1.171875v.8437h-1.171875v3.9219q0 .3906.15625.5781.15625.1875.53125.1875.1875 0 .515625-.0625v.875q-.421875.125-.828125.125-.71875 0-1.09375-.4375-.375-.4531-.375-1.2656v-3.9219h-1.15625v-.8437h1.15625v-1.5313zm5.15625 8q-1.296875 0-2.109375-.8437-.796875-.8594-.796875-2.2813v-.1875q0-.9531.359375-1.6875.359375-.75 1-1.1562.65625-.4219 1.40625-.4219 1.234375 0 1.921875.8125.6875.8125.6875 2.3281v.45315h-4.296875q.03125.9375.546875 1.51565.53125.5781 1.34375.5781.5625 0 .953125-.2344.40625-.23435.71875-.625l.65625.51565q-.796875 1.23435-2.390625 1.23435zm-.140625-5.6875q-.65625 0-1.109375.4844-.4375.46875-.53125 1.3281h3.171875v-.0781q-.046875-.8281-.453125-1.28125-.390625-.45315-1.078125-.45315zm3.25 2.3438q0-1.4688.6875-2.3438.6875-.8906 1.8125-.8906 1.109375 0 1.765625.75v-3.2969h1.078125v9h-1l-.046875-.6875q-.65625.8125-1.8125.8125-1.09375 0-1.796875-.9062-.6875-.9063-.6875-2.3594zm1.078125.125q0 1.0781.4375 1.6875.453125.60935 1.234375.60935 1.03125 0 1.515625-.9375v-2.90625q-.484375-.8906-1.5-.8906-.796875 0-1.25.60935-.4375.60935-.4375 1.82815zm11.859375-.70315q-1.4375-.42185-2.109375-1.03125-.65625-.6094-.65625-1.5 0-1 .796875-1.65625.8125-.67185 2.109375-.67185.875 0 1.5625.3437.6875.3438 1.0625.9375.390625.5938.390625 1.3125h-1.140625q0-.7812-.5-1.2187-.484375-.4375-1.375-.4375-.828125 0-1.296875.375-.46875.35935-.46875 1 0 .5312.4375.8906.453125.3594 1.515625.65625 1.0625.29685 1.65625.65625.609375.3594.890625.84375.296875.48435.296875 1.125 0 1.04685-.8125 1.67185-.8125.625-2.15625.625-.890625 0-1.65625-.3437-.75-.3438-1.171875-.9219-.40625-.59375-.40625-1.3281h1.125q0 .7656.578125 1.2187.578125.45315 1.53125.45315.890625 0 1.359375-.35935.46875-.375.46875-1 0-.625-.4375-.9688-.4375-.3437-1.59375-.67185zm5.796875-4.07815v1.5313h1.171875v.8437h-1.171875v3.9219q0 .3906.15625.5781.15625.1875.53125.1875.1875 0 .515625-.0625v.875q-.421875.125-.828125.125-.71875 0-1.09375-.4375-.375-.4531-.375-1.2656v-3.9219h-1.15625v-.8437h1.15625v-1.5313zm6.4375 7.875q-.09375-.1875-.15625-.67185-.75.79685-1.796875.79685-.9375 0-1.546875-.5312-.59375-.5313-.59375-1.3594 0-.9844.75-1.53125.75-.54685 2.125-.54685h1.046875v-.5q0-.5625-.34375-.89065-.328125-.34375-1-.34375-.578125 0-.96875.2969-.390625.2812-.390625.7031h-1.09375q0-.4844.328125-.9219.34375-.4375.921875-.6875.578125-.2656 1.265625-.2656 1.109375 0 1.71875.5469.625.54685.65625 1.5v2.92185q0 .875.21875 1.39065v.0937zm-1.796875-.8281q.515625 0 .96875-.2656.453125-.26565.65625-.6875v-1.2969h-.84375q-2 0-2 1.1719 0 .5.34375.79685.34375.28125.875.28125zm6.359375-7.0469v1.5313h1.171875v.8437h-1.171875v3.9219q0 .3906.15625.5781.15625.1875.53125.1875.1875 0 .515625-.0625v.875q-.421875.125-.828125.125-.71875 0-1.09375-.4375-.375-.4531-.375-1.2656v-3.9219h-1.15625v-.8437h1.15625v-1.5313zm5.15625 8q-1.296875 0-2.109375-.8437-.796875-.8594-.796875-2.2813v-.1875q0-.9531.359375-1.6875.359375-.75 1-1.1562.65625-.4219 1.40625-.4219 1.234375 0 1.921875.8125.6875.8125.6875 2.3281v.45315h-4.296875q.03125.9375.546875 1.51565.53125.5781 1.34375.5781.5625 0 .953125-.2344.40625-.23435.71875-.625l.65625.51565q-.796875 1.23435-2.390625 1.23435zm-.140625-5.6875q-.65625 0-1.109375.4844-.4375.46875-.53125 1.3281h3.171875v-.0781q-.046875-.8281-.453125-1.28125-.390625-.45315-1.078125-.45315zm7.203125 3.875q0-.4375-.34375-.67185-.328125-.25-1.15625-.42185-.8125-.1719-1.296875-.4219-.484375-.25-.71875-.5781-.21875-.3438-.21875-.8125 0-.7813.65625-1.3125.65625-.5469 1.6875-.5469 1.078125 0 1.734375.5625.671875.5469.671875 1.40625h-1.078125q0-.4375-.390625-.75-.375-.32815-.9375-.32815-.59375 0-.9375.26565-.328125.25-.328125.65625 0 .3906.3125.59375.3125.20315 1.125.39065.8125.17185 1.3125.42185.5.25.734375.60935.25.3594.25.8594 0 .8594-.6875 1.375-.671875.5156-1.75.5156-.765625 0-1.359375-.2656-.578125-.28125-.90625-.7656-.328125-.4844-.328125-1.0469h1.078125q.03125.5469.4375.875.40625.3125 1.078125.3125.609375 0 .984375-.25.375-.25.375-.6719z"/><path d="m46.546875 635.21606q0 1.25-.421875 2.1875-.421875.92188-1.203125 1.42188-.765625.5-1.796875.5-1 0-1.78125-.5-.78125-.5-1.21875-1.40624-.421875-.9219-.4375-2.14064v-.60936q0-1.2344.421875-2.1719.4375-.9375 1.21875-1.4375.78125-.5156 1.796875-.5156 1.015625 0 1.796875.5.78125.5 1.203125 1.4375.421875.9375.421875 2.1875zm-1.109375-.5625q0-1.51562-.609375-2.32812-.609375-.8125-1.703125-.8125-1.078125 0-1.6875.8125-.609375.8125-.625 2.25v.64062q0 1.46874.609375 2.3125.625.82814 1.703125.82814 1.09375 0 1.6875-.78126.609375-.79688.625-2.28124zm3.859375-3.32812v1.53126h1.171875v.84374h-1.171875v3.92186q0 .39064.15625.57814.15625.1875.53125.1875.1875 0 .515625-.0625v.875q-.421875.125-.828125.125-.71875 0-1.09375-.4375-.375-.45314-.375-1.26564v-3.92186h-1.15625v-.84374h1.15625v-1.53126zm3.609375 2.29686q.71875-.875 1.875-.875 2.015625 0 2.03125 2.26564v4.1875h-1.09375v-4.20314q0-.67186-.3125-1-.296875-.3281-.953125-.3281-.53125 0-.9375.28124-.390625.28126-.609375.73436v4.51564h-1.078125v-9h1.078125zm8.546875 5.70314q-1.296875 0-2.109375-.84374-.796875-.8594-.796875-2.28126v-.1875q0-.95314.359375-1.6875.359375-.75 1-1.15624.65625-.4219 1.40625-.4219 1.234375 0 1.921875.8125.6875.8125.6875 2.32814v.45312h-4.296875q.03125.9375.546875 1.51564.53125.5781 1.34375.5781.5625 0 .953125-.23436.40625-.23438.71875-.625l.65625.51562q-.796875 1.23438-2.390625 1.23438zm-.140625-5.6875q-.65625 0-1.109375.48436-.4375.46876-.53125 1.32814h3.171875v-.07814q-.046875-.8281-.453125-1.28124-.390625-.45312-1.078125-.45312zm6.578125.1875q-.25-.03124-.53125-.03124-1.078125 0-1.453125.90624v4.5h-1.078125v-6.34374h1.046875l.015625.73436q.53125-.84376 1.515625-.84376.3125 0 .484375.07814zm6.46875 4.60936q.578125 0 1.015625-.34374.4375-.35936.484375-.89062h1.03125q-.03125.54686-.390625 1.04686-.34375.4844-.921875.78126-.5625.29688-1.21875.29688-1.296875 0-2.0625-.85938-.75-.875-.75-2.375v-.1875q0-.92186.328125-1.64062.34375-.71874.96875-1.10938.640625-.40626 1.515625-.40626 1.0625 0 1.765625.64064.71875.625.765625 1.65626h-1.03125q-.046875-.625-.46875-1.01564-.421875-.39062-1.03125-.39062-.828125 0-1.28125.59376-.453125.59374-.453125 1.71874v.20312q0 1.09374.453125 1.6875.453125.59374 1.28125.59374zm3.171875-2.46874q0-.92186.359375-1.67186.375-.75 1.03125-1.14064.65625-.40626 1.484375-.40626 1.296875 0 2.09375.89064.8125.89062.8125 2.39062v.07814q0 .92186-.359375 1.65624-.359375.73436-1.015625 1.15626-.65625.40624-1.515625.40624-1.28125 0-2.09375-.89064-.796875-.90624-.796875-2.3906zm1.09375.14064q0 1.04686.484375 1.6875.5.6406 1.3125.6406.828125 0 1.3125-.6406.484375-.65626.484375-1.82814 0-1.03126-.5-1.67186-.484375-.65626-1.3125-.65626-.796875 0-1.296875.64062-.484375.625-.484375 1.82814zm10.109375 2.46874q-.625.75-1.859375.75-1.015625 0-1.546875-.59374-.53125-.59376-.53125-1.75v-4.125h1.078125v4.09374q0 1.45312 1.171875 1.45312 1.25 0 1.65625-.9375v-4.60936h1.09375v6.34374h-1.03125zm4.109375-5.71874.03125.79686q.734375-.90626 1.90625-.90626 2.015625 0 2.03125 2.26564v4.1875h-1.09375v-4.20314q0-.67186-.3125-1-.296875-.3281-.953125-.3281-.53125 0-.9375.28124-.390625.28126-.609375.73436v4.51564h-1.078125v-6.34374zm7.453125-1.53126v1.53126h1.171875v.84374h-1.171875v3.92186q0 .39064.15625.57814.15625.1875.53125.1875.1875 0 .515625-.0625v.875q-.421875.125-.828125.125-.71875 0-1.09375-.4375-.375-.45314-.375-1.26564v-3.92186h-1.15625v-.84374h1.15625v-1.53126zm5.59375 2.5q-.25-.03124-.53125-.03124-1.078125 0-1.453125.90624v4.5h-1.078125v-6.34374h1.046875l.015625.73436q.53125-.84376 1.515625-.84376.3125 0 .484375.07814zm2.109375 5.375h-1.078125v-6.34374h1.078125zm-1.171875-8.01564q0-.2656.15625-.4531.171875-.1875.484375-.1875.3125 0 .46875.1875.171875.1875.171875.4531 0 .25-.171875.4375-.15625.1719-.46875.1719-.3125 0-.484375-.1719-.15625-.1875-.15625-.4375zm5.625 8.14064q-1.296875 0-2.109375-.84374-.796875-.8594-.796875-2.28126v-.1875q0-.95314.359375-1.6875.359375-.75 1-1.15624.65625-.4219 1.40625-.4219 1.234375 0 1.921875.8125.6875.8125.6875 2.32814v.45312h-4.296875q.03125.9375.546875 1.51564.53125.5781 1.34375.5781.5625 0 .953125-.23436.40625-.23438.71875-.625l.65625.51562q-.796875 1.23438-2.390625 1.23438zm-.140625-5.6875q-.65625 0-1.109375.48436-.4375.46876-.53125 1.32814h3.171875v-.07814q-.046875-.8281-.453125-1.28124-.390625-.45312-1.078125-.45312zm7.203125 3.875q0-.4375-.34375-.67188-.328125-.25-1.15625-.42186-.8125-.1719-1.296875-.4219-.484375-.25-.71875-.5781-.21875-.34376-.21875-.8125 0-.78126.65625-1.3125.65625-.5469 1.6875-.5469 1.078125 0 1.734375.5625.671875.5469.671875 1.40626h-1.078125q0-.4375-.390625-.75-.375-.32812-.9375-.32812-.59375 0-.9375.26562-.328125.25-.328125.65624 0 .39064.3125.59376.3125.20314 1.125.39064.8125.17186 1.3125.42186.5.25.734375.60938.25.35936.25.85936 0 .8594-.6875 1.375-.671875.51564-1.75.51564-.765625 0-1.359375-.26564-.578125-.28124-.90625-.7656-.328125-.4844-.328125-1.0469h1.078125q.03125.5469.4375.875.40625.3125 1.078125.3125.609375 0 .984375-.25.375-.25.375-.67186z"/><path d="m129.82812 693.46875q0 1.76565-.73437 2.71875-.73437.9375-2.140625.9375-1.40625 0-2.140625-.9219-.734375-.92185-.75-2.6406v-1.5781q0-1.7813.734375-2.70315.75-.9375 2.140625-.9375 1.39062 0 2.125.92185.75.9219.76562 2.64065zm-1.70312-1.71875q0-1.0625-.296875-1.5469-.28125-.48435-.890625-.48435-.59375 0-.890625.46875-.28125.4531-.296875 1.4375v2.0625q0 1.0469.28125 1.5625.28125.5.921875.5.609375 0 .890625-.4844.28125-.48435.28125-1.48435z"/><path d="m232.42188 697h-5.84376v-1.15625l2.76563-2.95315q.5625-.60935.82813-1.0781.28124-.46875.28124-.875 0-.5781-.29687-.8906-.28125-.32815-.8125-.32815-.57813 0-.90625.39065-.32812.3906-.32812 1.04685h-1.70313q0-.78125.375-1.42185.375-.6563 1.04687-1.01565.6875-.375 1.54688-.375 1.3125 0 2.04688.64065.73437.625.73437 1.7812 0 .64065-.32813 1.2969-.32812.65625-1.125 1.53125l-1.9375 2.04685h3.65626zm6.90624-3.53125q0 1.76565-.73437 2.71875-.73437.9375-2.14063.9375-1.40624 0-2.14062-.9219-.73438-.92185-.75-2.6406v-1.5781q0-1.7813.73438-2.70315.75-.9375 2.14062-.9375 1.39062 0 2.125.92185.75.9219.76562 2.64065zm-1.70312-1.71875q0-1.0625-.29688-1.5469-.28124-.48435-.89062-.48435-.59375 0-.89062.46875-.28126.4531-.29688 1.4375v2.0625q0 1.0469.28125 1.5625.28125.5.92187.5.60938 0 .89063-.4844.28125-.48435.28125-1.48435z"/><path d="m337.59375 693.78125h.96875v1.375h-.96875v1.84375h-1.70313v-1.84375h-3.48437l-.07813-1.0625 3.54688-5.625h1.71875zm-3.57813 0h1.875v-3l-.10937.1875zm11.3125-.3125q0 1.76565-.73437 2.71875-.73437.9375-2.14063.9375-1.40624 0-2.14062-.9219-.73438-.92185-.75-2.6406v-1.5781q0-1.7813.73438-2.70315.75-.9375 2.14062-.9375 1.39062 0 2.125.92185.75.9219.76562 2.64065zm-1.70312-1.71875q0-1.0625-.29688-1.5469-.28124-.48435-.89062-.48435-.59375 0-.89062.46875-.28126.4531-.29688 1.4375v2.0625q0 1.0469.28125 1.5625.28125.5.92187.5.60938 0 .89063-.4844.28125-.48435.28125-1.48435z"/><path d="m443.17188 688.375v1.40625h-.15626q-1.15624.01565-1.85937.59375-.6875.5781-.82813 1.6094.67188-.6875 1.70313-.6875 1.125 0 1.78125.79685.65625.79685.65625 2.09375 0 .8281-.35937 1.5-.35938.6719-1.03126 1.0625-.65624.375-1.48437.375-1.34375 0-2.17187-.9375-.82813-.9531-.82813-2.5156v-.6094q0-1.3906.51563-2.4531.53124-1.0625 1.5-1.64065.98437-.57815 2.28124-.59375zm-1.65626 4.28125q-.40624 0-.75.21875-.32812.2031-.48437.5625v.5156q0 .8438.32813 1.32815.34374.46875.95312.46875.54688 0 .875-.4219.34375-.4375.34375-1.125 0-.7031-.34375-1.125-.34375-.42185-.92188-.42185zm9.8125.8125q0 1.76565-.73437 2.71875-.73437.9375-2.14063.9375-1.40624 0-2.14062-.9219-.73438-.92185-.75-2.6406v-1.5781q0-1.7813.73438-2.70315.75-.9375 2.14062-.9375 1.39062 0 2.125.92185.75.9219.76562 2.64065zm-1.70312-1.71875q0-1.0625-.29688-1.5469-.28124-.48435-.89062-.48435-.59375 0-.89062.46875-.28126.4531-.29688 1.4375v2.0625q0 1.0469.28125 1.5625.28125.5.92187.5.60938 0 .89063-.4844.28125-.48435.28125-1.48435z"/><path d="m550.1406 690.7344q0 .625-.3125 1.10935-.3125.46875-.85935.76565.625.29685.98435.8281.375.5156.375 1.21875 0 1.14065-.7812 1.8125-.76565.65625-2.1094.65625-1.3281 0-2.1094-.65625-.7656-.67185-.7656-1.8125 0-.70315.3594-1.23435.35935-.5313.98435-.8125-.54685-.2969-.85935-.76565-.3125-.48435-.3125-1.10935 0-1.0938.7187-1.7344.7344-.65625 1.9844-.65625 1.25 0 1.96875.65625.73435.6406.73435 1.7344zm-1.5156 3.79685q0-.54685-.3281-.875-.3125-.34375-.8594-.34375-.5469 0-.875.3281-.3125.32815-.3125.89065 0 .54685.3125.89065.3281.3281.8906.3281.5469 0 .8594-.3125.3125-.3281.3125-.90625zm-.1719-3.71875q0-.5-.2656-.7969-.2656-.29685-.75-.29685-.46875 0-.7344.29685-.2656.2813-.2656.7969 0 .5156.2656.8281.26565.3125.7344.3125.4844 0 .75-.3125.2656-.3125.2656-.8281zm8.875 2.65625q0 1.76565-.73435 2.71875-.73435.9375-2.14065.9375-1.4062 0-2.1406-.9219-.7344-.92185-.75-2.6406v-1.5781q0-1.7813.7344-2.70315.75-.9375 2.1406-.9375 1.3906 0 2.125.92185.75.9219.7656 2.64065zm-1.7031-1.71875q0-1.0625-.2969-1.5469-.2812-.48435-.8906-.48435-.59375 0-.8906.46875-.2813.4531-.2969 1.4375v2.0625q0 1.0469.28125 1.5625.28125.5.92185.5.6094 0 .89065-.4844.28125-.48435.28125-1.48435z"/></g></svg>