<svg fill="none" height="729" stroke-linecap="square" stroke-miterlimit="10" viewBox="0 0 580 729" width="580" xmlns="http://www.w3.org/2000/svg" xmlns:xlink="http://www.w3.org/1999/xlink"><clipPath id="a"><path d="m139.4 29h411.6v644h-411.6z"/></clipPath><path d="m0 0h580v729h-580z" fill="none"/><path d="m139.5 29.5v644" stroke="#333" stroke-linecap="butt"/><path d="m242.5 29.5v644" stroke="#ccc" stroke-linecap="butt"/><path d="m345.5 29.5v644" stroke="#ccc" stroke-linecap="butt"/><path d="m448.5 29.5v644" stroke="#ccc" stroke-linecap="butt"/><path d="m551.5 29.5v644" stroke="#ccc" stroke-linecap="butt"/><path d="m173.5 29.5v644"/><path d="m208.5 29.5v644"/><path d="m276.5 29.5v644"/><path d="m310.5 29.5v644"/><path d="m379.5 29.5v644"/><path d="m413.5 29.5v644"/><path d="m482.5 29.5v644"/><path d="m516.5 29.5v644"/><path d="m139.5 673.5v-644" stroke="#000" stroke-linecap="butt"/><path clip-path="url(#a)" d="m139 86v-37h323c1.10458 0 2 .89543 2 2v33c0 1.10457-.89542 2-2 2z"/><path clip-path="url(#a)" d="m139 86v-37h323c1.10458 0 2 .89543 2 2v33c0 1.10457-.89542 2-2 2z" fill="#ed7d31"/><path clip-path="url(#a)" d="m139 143v-37h112c1.10457 0 2 .89543 2 2v33c0 1.10457-.89543 2-2 2z"/><path clip-path="url(#a)" d="m139 143v-37h112c1.10457 0 2 .89543 2 2v33c0 1.10457-.89543 2-2 2z" fill="#ed7d31"/><path clip-path="url(#a)" d="m139 200v-37h107c1.10457 0 2 .89543 2 2v33c0 1.10457-.89543 2-2 2z"/><path clip-path="url(#a)" d="m139 200v-37h107c1.10457 0 2 .89543 2 2v33c0 1.10457-.89543 2-2 2z" fill="#ed7d31"/><path clip-path="url(#a)" d="m139 257v-37h92c1.10457 0 2 .89543 2 2v33c0 1.10458-.89543 2-2 2z"/><path clip-path="url(#a)" d="m139 257v-37h92c1.10457 0 2 .89543 2 2v33c0 1.10458-.89543 2-2 2z" fill="#ed7d31"/><path clip-path="url(#a)" d="m139 313v-37h67c1.10457 0 2 .89542 2 2v33c0 1.10458-.89543 2-2 2z"/><path clip-path="url(#a)" d="m139 313v-37h67c1.10457 0 2 .89542 2 2v33c0 1.10458-.89543 2-2 2z" fill="#ed7d31"/><path clip-path="url(#a)" d="m139 370v-37h64c1.10457 0 2 .89542 2 2v33c0 1.10458-.89543 2-2 2z"/><path clip-path="url(#a)" d="m139 370v-37h64c1.10457 0 2 .89542 2 2v33c0 1.10458-.89543 2-2 2z" fill="#ed7d31"/><path clip-path="url(#a)" d="m139 427v-37h47c1.10457 0 2 .89542 2 2v33c0 1.10458-.89543 2-2 2z"/><path clip-path="url(#a)" d="m139 427v-37h47c1.10457 0 2 .89542 2 2v33c0 1.10458-.89543 2-2 2z" fill="#ed7d31"/><path clip-path="url(#a)" d="m139 483v-37h40c1.10457 0 2 .89542 2 2v33c0 1.10458-.89543 2-2 2z"/><path clip-path="url(#a)" d="m139 483v-37h40c1.10457 0 2 .89542 2 2v33c0 1.10458-.89543 2-2 2z" fill="#ed7d31"/><path clip-path="url(#a)" d="m139 540v-37h37c1.10457 0 2 .89542 2 2v33c0 1.10455-.89543 2-2 2z"/><path clip-path="url(#a)" d="m139 540v-37h37c1.10457 0 2 .89542 2 2v33c0 1.10455-.89543 2-2 2z" fill="#ed7d31"/><path clip-path="url(#a)" d="m139 597v-37h32c1.10457 0 2 .89545 2 2v33c0 1.10455-.89543 2-2 2z"/><path clip-path="url(#a)" d="m139 597v-37h32c1.10457 0 2 .89545 2 2v33c0 1.10455-.89543 2-2 2z" fill="#ed7d31"/><path clip-path="url(#a)" d="m139 654v-37h206c1.10458 0 2 .89545 2 2v33c0 1.10455-.89542 2-2 2z"/><path clip-path="url(#a)" d="m139 654v-37h206c1.10458 0 2 .89545 2 2v33c0 1.10455-.89542 2-2 2z" fill="#ed7d31"/><path d="m139.5 679.5v-12" stroke="#000" stroke-linecap="butt"/><path d="m242.5 679.5v-12" stroke="#000" stroke-linecap="butt"/><path d="m345.5 679.5v-12" stroke="#000" stroke-linecap="butt"/><path d="m448.5 679.5v-12" stroke="#000" stroke-linecap="butt"/><path d="m551.5 679.5v-12" stroke="#000" stroke-linecap="butt"/><path d="m432.99014 62.875v1.40625h-.15624q-1.15626.015625-1.85938.59375-.6875.578125-.82812 1.609375.67187-.6875 1.70312-.6875 1.125 0 1.78125.796875.65625.796875.65625 2.09375 0 .828125-.35938 1.5-.35937.671875-1.03124 1.0625-.65626.375-1.48438.375-1.34375 0-2.17188-.9375-.82812-.953125-.82812-2.515625v-.609375q0-1.390625.51562-2.453125.53126-1.0625 1.5-1.640625.98438-.578125 2.28126-.59375zm-1.65624 4.28125q-.40626 0-.75.21875-.32813.203125-.48438.5625v.515625q0 .84375.32812 1.328125.34376.46875.95313.46875.54687 0 .875-.421875.34375-.4375.34375-1.125 0-.703125-.34375-1.125-.34375-.421875-.92187-.421875zm5.78124-.671875h.90626q.64062 0 .95312-.3125.3125-.328125.3125-.859375 0-.515625-.3125-.796875-.29688-.296875-.84375-.296875-.48437 0-.8125.265625-.32813.265625-.32813.6875h-1.6875q0-.65625.35938-1.1875.35938-.53125 1-.828125.65625-.3125 1.4375-.3125 1.34375 0 2.10938.65625.78124.640625.78124 1.78125 0 .59375-.35937 1.09375-.35937.484375-.9375.734375.71875.265625 1.0625.78125.35937.515625.35937 1.21875 0 1.140625-.82812 1.828125-.82812.6875-2.1875.6875-1.28125 0-2.09375-.671875-.8125-.6875-.8125-1.796875h1.6875q0 .484375.35937.796875.375.296875.89063.296875.60937 0 .95313-.3125.34374-.328125.34374-.859375 0-1.265625-1.40624-1.265625h-.90626zm5.4375 4.1875q0-.40625.26563-.65625.28125-.25.6875-.25.42187 0 .6875.25.28125.25.28125.65625 0 .390625-.28125.640625-.26563.25-.6875.25-.40625 0-.6875-.25-.26563-.25-.26563-.640625zm8.59376-2.703125q0 1.765625-.73438 2.71875-.73438.9375-2.14062.9375-1.40626 0-2.14063-.921875-.73437-.921875-.75-2.640625v-1.578125q0-1.78125.73437-2.703125.75-.9375 2.14063-.9375 1.39063 0 2.125.921875.75.921875.76563 2.640625zm-1.70313-1.71875q0-1.0625-.29687-1.546875-.28126-.484375-.89063-.484375-.59375 0-.89063.46875-.28124.453125-.29687 1.4375v2.0625q0 1.046875.28125 1.5625.28125.5.92188.5.60937 0 .89062-.484375.28125-.484375.28125-1.484375zm8.79687 5.25h-5.84374v-1.15625l2.76562-2.953125q.5625-.609375.82812-1.078125.28126-.46875.28126-.875 0-.578125-.29688-.890625-.28125-.328125-.8125-.328125-.57812 0-.90625.390625-.32813.390625-.32813 1.046875h-1.70312q0-.78125.375-1.421875.375-.65625 1.04688-1.015625.6875-.375 1.54687-.375 1.3125 0 2.04687.640625.73438.625.73438 1.78125 0 .640625-.32812 1.296875-.32813.65625-1.125 1.53125l-1.9375 2.046875h3.65624z" stroke="#ed7d31" stroke-linecap="round" stroke-linejoin="round" stroke-width="3"/><path d="m432.99014 62.875v1.40625h-.15624q-1.15626.015625-1.85938.59375-.6875.578125-.82812 1.609375.67187-.6875 1.70312-.6875 1.125 0 1.78125.796875.65625.796875.65625 2.09375 0 .828125-.35938 1.5-.35937.671875-1.03124 1.0625-.65626.375-1.48438.375-1.34375 0-2.17188-.9375-.82812-.953125-.82812-2.515625v-.609375q0-1.390625.51562-2.453125.53126-1.0625 1.5-1.640625.98438-.578125 2.28126-.59375zm-1.65624 4.28125q-.40626 0-.75.21875-.32813.203125-.48438.5625v.515625q0 .84375.32812 1.328125.34376.46875.95313.46875.54687 0 .875-.421875.34375-.4375.34375-1.125 0-.703125-.34375-1.125-.34375-.421875-.92187-.421875zm5.78124-.671875h.90626q.64062 0 .95312-.3125.3125-.328125.3125-.859375 0-.515625-.3125-.796875-.29688-.296875-.84375-.296875-.48437 0-.8125.265625-.32813.265625-.32813.6875h-1.6875q0-.65625.35938-1.1875.35938-.53125 1-.828125.65625-.3125 1.4375-.3125 1.34375 0 2.10938.65625.78124.640625.78124 1.78125 0 .59375-.35937 1.09375-.35937.484375-.9375.734375.71875.265625 1.0625.78125.35937.515625.35937 1.21875 0 1.140625-.82812 1.828125-.82812.6875-2.1875.6875-1.28125 0-2.09375-.671875-.8125-.6875-.8125-1.796875h1.6875q0 .484375.35937.796875.375.296875.89063.296875.60937 0 .95313-.3125.34374-.328125.34374-.859375 0-1.265625-1.40624-1.265625h-.90626zm5.4375 4.1875q0-.40625.26563-.65625.28125-.25.6875-.25.42187 0 .6875.25.28125.25.28125.65625 0 .390625-.28125.640625-.26563.25-.6875.25-.40625 0-.6875-.25-.26563-.25-.26563-.640625zm8.59376-2.703125q0 1.765625-.73438 2.71875-.73438.9375-2.14062.9375-1.40626 0-2.14063-.921875-.73437-.921875-.75-2.640625v-1.578125q0-1.78125.73437-2.703125.75-.9375 2.14063-.9375 1.39063 0 2.125.921875.75.921875.76563 2.640625zm-1.70313-1.71875q0-1.0625-.29687-1.546875-.28126-.484375-.89063-.484375-.59375 0-.89063.46875-.28124.453125-.29687 1.4375v2.0625q0 1.046875.28125 1.5625.28125.5.92188.5.60937 0 .89062-.484375.28125-.484375.28125-1.484375zm8.79687 5.25h-5.84374v-1.15625l2.76562-2.953125q.5625-.609375.82812-1.078125.28126-.46875.28126-.875 0-.578125-.29688-.890625-.28125-.328125-.8125-.328125-.57812 0-.90625.390625-.32813.390625-.32813 1.046875h-1.70312q0-.78125.375-1.421875.375-.65625 1.04688-1.015625.6875-.375 1.54687-.375 1.3125 0 2.04687.640625.73438.625.73438 1.78125 0 .640625-.32812 1.296875-.32813.65625-1.125 1.53125l-1.9375 2.046875h3.65624z" fill="#fff"/><path d="m223.91757 128.5h-5.84375v-1.15625l2.76563-2.953125q.5625-.609375.82812-1.078125.28125-.46875.28125-.875 0-.578125-.29687-.890625-.28125-.328125-.8125-.328125-.57813 0-.90625.390625-.32813.390625-.32813 1.046875h-1.70312q0-.78125.375-1.421875.375-.65625 1.04687-1.015625.6875-.375 1.54688-.375 1.3125 0 2.04687.640625.73438.625.73438 1.78125 0 .640625-.32813 1.296875-.32812.65625-1.125 1.53125l-1.9375 2.046875h3.65625zm7 0h-5.84375v-1.15625l2.76563-2.953125q.5625-.609375.82812-1.078125.28125-.46875.28125-.875 0-.578125-.29687-.890625-.28125-.328125-.8125-.328125-.57813 0-.90625.390625-.32813.390625-.32813 1.046875h-1.70312q0-.78125.375-1.421875.375-.65625 1.04687-1.015625.6875-.375 1.54688-.375 1.3125 0 2.04687.640625.73438.625.73438 1.78125 0 .640625-.32813 1.296875-.32812.65625-1.125 1.53125l-1.9375 2.046875h3.65625zm1.3125-.828125q0-.40625.26563-.65625.28125-.25.6875-.25.42187 0 .6875.25.28125.25.28125.65625 0 .390625-.28125.640625-.26563.25-.6875.25-.40625 0-.6875-.25-.26563-.25-.26563-.640625zm6.95313.828125h-1.6875v-6.53125l-2.01563.625v-1.375l3.53125-1.265625h.17188zm7.90625-3.21875h.96875v1.375h-.96875v1.84375h-1.70313v-1.84375h-3.48437l-.07813-1.0625 3.54688-5.625h1.71875zm-3.57813 0h1.875v-3l-.10937.1875z" stroke="#ed7d31" stroke-linecap="round" stroke-linejoin="round" stroke-width="3"/><path d="m223.91757 128.5h-5.84375v-1.15625l2.76563-2.953125q.5625-.609375.82812-1.078125.28125-.46875.28125-.875 0-.578125-.29687-.890625-.28125-.328125-.8125-.328125-.57813 0-.90625.390625-.32813.390625-.32813 1.046875h-1.70312q0-.78125.375-1.421875.375-.65625 1.04687-1.015625.6875-.375 1.54688-.375 1.3125 0 2.04687.640625.73438.625.73438 1.78125 0 .640625-.32813 1.296875-.32812.65625-1.125 1.53125l-1.9375 2.046875h3.65625zm7 0h-5.84375v-1.15625l2.76563-2.953125q.5625-.609375.82812-1.078125.28125-.46875.28125-.875 0-.578125-.29687-.890625-.28125-.328125-.8125-.328125-.57813 0-.90625.390625-.32813.390625-.32813 1.046875h-1.70312q0-.78125.375-1.421875.375-.65625 1.04687-1.015625.6875-.375 1.54688-.375 1.3125 0 2.04687.640625.73438.625.73438 1.78125 0 .640625-.32813 1.296875-.32812.65625-1.125 1.53125l-1.9375 2.046875h3.65625zm1.3125-.828125q0-.40625.26563-.65625.28125-.25.6875-.25.42187 0 .6875.25.28125.25.28125.65625 0 .390625-.28125.640625-.26563.25-.6875.25-.40625 0-.6875-.25-.26563-.25-.26563-.640625zm6.95313.828125h-1.6875v-6.53125l-2.01563.625v-1.375l3.53125-1.265625h.17188zm7.90625-3.21875h.96875v1.375h-.96875v1.84375h-1.70313v-1.84375h-3.48437l-.07813-1.0625 3.54688-5.625h1.71875zm-3.57813 0h1.875v-3l-.10937.1875z" fill="#fff"/><path d="m218.47844 185.5h-5.84375v-1.15625l2.76562-2.95313q.5625-.60937.82813-1.07812.28125-.46875.28125-.875 0-.57812-.29688-.89062-.28125-.32813-.8125-.32813-.57812 0-.90625.39063-.32812.39062-.32812 1.04687h-1.70313q0-.78125.375-1.42187.375-.65626 1.04688-1.01563.6875-.375 1.54687-.375 1.3125 0 2.04688.64063.73437.625.73437 1.78124 0 .64063-.32812 1.29688-.32813.65625-1.125 1.53125l-1.9375 2.04687h3.65625zm5.26562 0h-1.6875v-6.53125l-2.01562.625v-1.375l3.53125-1.26563h.17187zm3.04688-.82812q0-.40626.26562-.65626.28125-.25.6875-.25.42188 0 .6875.25.28125.25.28125.65626 0 .39062-.28125.64062-.26562.25-.6875.25-.40625 0-.6875-.25-.26562-.25-.26562-.64062zm8.59375-2.70313q0 1.76563-.73438 2.71875-.73437.9375-2.14062.9375-1.40625 0-2.14063-.92188-.73437-.92187-.75-2.64062v-1.57812q0-1.78126.73438-2.70313.75-.9375 2.14062-.9375 1.39063 0 2.125.92187.75.92188.76563 2.64063zm-1.70313-1.71875q0-1.0625-.29687-1.54688-.28125-.48437-.89063-.48437-.59375 0-.89062.46875-.28125.45312-.29688 1.4375v2.0625q0 1.04688.28125 1.5625.28125.5.92188.5.60937 0 .89062-.48438.28125-.48437.28125-1.48437zm8.51563-1.01562q0 .625-.3125 1.10937-.3125.46875-.85938.76563.625.29687.98438.82812.375.51562.375 1.21875 0 1.14063-.78125 1.8125-.76563.65625-2.10938.65625-1.32812 0-2.10937-.65625-.76563-.67187-.76563-1.8125 0-.70313.35938-1.23437.35937-.53126.98437-.8125-.54687-.29688-.85937-.76563-.3125-.48437-.3125-1.10937 0-1.09376.71875-1.73438.73437-.65625 1.98437-.65625 1.25 0 1.96875.65625.73438.64062.73438 1.73438zm-1.51563 3.79687q0-.54687-.32812-.875-.3125-.34375-.85938-.34375-.54687 0-.875.32812-.3125.32813-.3125.89063 0 .54687.3125.89063.32813.32812.89063.32812.54687 0 .85937-.3125.3125-.32812.3125-.90625zm-.17187-3.71875q0-.5-.26563-.79688-.26562-.29687-.75-.29687-.46875 0-.73437.29687-.26563.28126-.26563.79688 0 .51562.26563.82812.26562.3125.73437.3125.48438 0 .75-.3125.26563-.3125.26563-.82812z" stroke="#ed7d31" stroke-linecap="round" stroke-linejoin="round" stroke-width="3"/><path d="m218.47844 185.5h-5.84375v-1.15625l2.76562-2.95313q.5625-.60937.82813-1.07812.28125-.46875.28125-.875 0-.57812-.29688-.89062-.28125-.32813-.8125-.32813-.57812 0-.90625.39063-.32812.39062-.32812 1.04687h-1.70313q0-.78125.375-1.42187.375-.65626 1.04688-1.01563.6875-.375 1.54687-.375 1.3125 0 2.04688.64063.73437.625.73437 1.78124 0 .64063-.32812 1.29688-.32813.65625-1.125 1.53125l-1.9375 2.04687h3.65625zm5.26562 0h-1.6875v-6.53125l-2.01562.625v-1.375l3.53125-1.26563h.17187zm3.04688-.82812q0-.40626.26562-.65626.28125-.25.6875-.25.42188 0 .6875.25.28125.25.28125.65626 0 .39062-.28125.64062-.26562.25-.6875.25-.40625 0-.6875-.25-.26562-.25-.26562-.64062zm8.59375-2.70313q0 1.76563-.73438 2.71875-.73437.9375-2.14062.9375-1.40625 0-2.14063-.92188-.73437-.92187-.75-2.64062v-1.57812q0-1.78126.73438-2.70313.75-.9375 2.14062-.9375 1.39063 0 2.125.92187.75.92188.76563 2.64063zm-1.70313-1.71875q0-1.0625-.29687-1.54688-.28125-.48437-.89063-.48437-.59375 0-.89062.46875-.28125.45312-.29688 1.4375v2.0625q0 1.04688.28125 1.5625.28125.5.92188.5.60937 0 .89062-.48438.28125-.48437.28125-1.48437zm8.51563-1.01562q0 .625-.3125 1.10937-.3125.46875-.85938.76563.625.29687.98438.82812.375.51562.375 1.21875 0 1.14063-.78125 1.8125-.76563.65625-2.10938.65625-1.32812 0-2.10937-.65625-.76563-.67187-.76563-1.8125 0-.70313.35938-1.23437.35937-.53126.98437-.8125-.54687-.29688-.85937-.76563-.3125-.48437-.3125-1.10937 0-1.09376.71875-1.73438.73437-.65625 1.98437-.65625 1.25 0 1.96875.65625.73438.64062.73438 1.73438zm-1.51563 3.79687q0-.54687-.32812-.875-.3125-.34375-.85938-.34375-.54687 0-.875.32812-.3125.32813-.3125.89063 0 .54687.3125.89063.32813.32812.89063.32812.54687 0 .85937-.3125.3125-.32812.3125-.90625zm-.17187-3.71875q0-.5-.26563-.79688-.26562-.29687-.75-.29687-.46875 0-.73437.29687-.26563.28126-.26563.79688 0 .51562.26563.82812.26562.3125.73437.3125.48438 0 .75-.3125.26563-.3125.26563-.82812z" fill="#fff"/><path d="m202.01215 242.5h-1.6875v-6.53125l-2.01563.625v-1.375l3.53125-1.26563h.17188zm8.45312-6.26562q0 .625-.3125 1.10937-.3125.46875-.85937.76563.625.29687.98437.82812.375.51562.375 1.21875 0 1.14063-.78125 1.8125-.76562.65625-2.10937.65625-1.32813 0-2.10938-.65625-.76562-.67187-.76562-1.8125 0-.70313.35937-1.23437.35938-.53126.98438-.8125-.54688-.29688-.85938-.76563-.3125-.48437-.3125-1.10937 0-1.09376.71875-1.73438.73438-.65625 1.98438-.65625 1.25 0 1.96875.65625.73437.64062.73437 1.73438zm-1.51562 3.79687q0-.54687-.32813-.875-.3125-.34375-.85937-.34375-.54688 0-.875.32812-.3125.32813-.3125.89063 0 .54687.3125.89063.32812.32812.89062.32812.54688 0 .85938-.3125.3125-.32812.3125-.90625zm-.17188-3.71875q0-.5-.26562-.79688-.26563-.29687-.75-.29687-.46875 0-.73438.29687-.26562.28126-.26562.79688 0 .51562.26562.82812.26563.3125.73438.3125.48437 0 .75-.3125.26562-.3125.26562-.82812zm3.28125 5.35938q0-.40626.26563-.65626.28125-.25.6875-.25.42187 0 .6875.25.28125.25.28125.65626 0 .39062-.28125.64062-.26563.25-.6875.25-.40625 0-.6875-.25-.26563-.25-.26563-.64062zm8.6875.82812h-5.84375v-1.15625l2.76563-2.95313q.5625-.60937.82812-1.07812.28125-.46875.28125-.875 0-.57812-.29687-.89062-.28125-.32813-.8125-.32813-.57813 0-.90625.39063-.32813.39062-.32813 1.04687h-1.70312q0-.78125.375-1.42187.375-.65626 1.04687-1.01563.6875-.375 1.54688-.375 1.3125 0 2.04687.64063.73438.625.73438 1.78124 0 .64063-.32813 1.29688-.32812.65625-1.125 1.53125l-1.9375 2.04687h3.65625zm7 0h-5.84375v-1.15625l2.76563-2.95313q.5625-.60937.82812-1.07812.28125-.46875.28125-.875 0-.57812-.29687-.89062-.28125-.32813-.8125-.32813-.57813 0-.90625.39063-.32813.39062-.32813 1.04687h-1.70312q0-.78125.375-1.42187.375-.65626 1.04687-1.01563.6875-.375 1.54688-.375 1.3125 0 2.04687.64063.73438.625.73438 1.78124 0 .64063-.32813 1.29688-.32812.65625-1.125 1.53125l-1.9375 2.04687h3.65625z" stroke="#ed7d31" stroke-linecap="round" stroke-linejoin="round" stroke-width="3"/><path d="m202.01215 242.5h-1.6875v-6.53125l-2.01563.625v-1.375l3.53125-1.26563h.17188zm8.45312-6.26562q0 .625-.3125 1.10937-.3125.46875-.85937.76563.625.29687.98437.82812.375.51562.375 1.21875 0 1.14063-.78125 1.8125-.76562.65625-2.10937.65625-1.32813 0-2.10938-.65625-.76562-.67187-.76562-1.8125 0-.70313.35937-1.23437.35938-.53126.98438-.8125-.54688-.29688-.85938-.76563-.3125-.48437-.3125-1.10937 0-1.09376.71875-1.73438.73438-.65625 1.98438-.65625 1.25 0 1.96875.65625.73437.64062.73437 1.73438zm-1.51562 3.79687q0-.54687-.32813-.875-.3125-.34375-.85937-.34375-.54688 0-.875.32812-.3125.32813-.3125.89063 0 .54687.3125.89063.32812.32812.89062.32812.54688 0 .85938-.3125.3125-.32812.3125-.90625zm-.17188-3.71875q0-.5-.26562-.79688-.26563-.29687-.75-.29687-.46875 0-.73438.29687-.26562.28126-.26562.79688 0 .51562.26562.82812.26563.3125.73438.3125.48437 0 .75-.3125.26562-.3125.26562-.82812zm3.28125 5.35938q0-.40626.26563-.65626.28125-.25.6875-.25.42187 0 .6875.25.28125.25.28125.65626 0 .39062-.28125.64062-.26563.25-.6875.25-.40625 0-.6875-.25-.26563-.25-.26563-.64062zm8.6875.82812h-5.84375v-1.15625l2.76563-2.95313q.5625-.60937.82812-1.07812.28125-.46875.28125-.875 0-.57812-.29687-.89062-.28125-.32813-.8125-.32813-.57813 0-.90625.39063-.32813.39062-.32813 1.04687h-1.70312q0-.78125.375-1.42187.375-.65626 1.04687-1.01563.6875-.375 1.54688-.375 1.3125 0 2.04687.64063.73438.625.73438 1.78124 0 .64063-.32813 1.29688-.32812.65625-1.125 1.53125l-1.9375 2.04687h3.65625zm7 0h-5.84375v-1.15625l2.76563-2.95313q.5625-.60937.82812-1.07812.28125-.46875.28125-.875 0-.57812-.29687-.89062-.28125-.32813-.8125-.32813-.57813 0-.90625.39063-.32813.39062-.32813 1.04687h-1.70312q0-.78125.375-1.42187.375-.65626 1.04687-1.01563.6875-.375 1.54688-.375 1.3125 0 2.04687.64063.73438.625.73438 1.78124 0 .64063-.32813 1.29688-.32812.65625-1.125 1.53125l-1.9375 2.04687h3.65625z" fill="#fff"/><path d="m176.64172 298.5h-1.6875v-6.53125l-2.01562.625v-1.375l3.53125-1.26563h.17187zm4.60938-5.01562h.90625q.64062 0 .95312-.3125.3125-.32813.3125-.85938 0-.51562-.3125-.79688-.29687-.29687-.84375-.29687-.48437 0-.8125.26563-.32812.26562-.32812.6875h-1.6875q0-.65626.35937-1.1875.35938-.53126 1-.82813.65625-.3125 1.4375-.3125 1.34375 0 2.10938.65625.78125.64062.78125 1.78125 0 .59375-.35938 1.09375-.35937.48438-.9375.73438.71875.26562 1.0625.78124.35938.51563.35938 1.21876 0 1.14062-.82813 1.82812-.82812.6875-2.1875.6875-1.28125 0-2.09375-.67188-.8125-.6875-.8125-1.79687h1.6875q0 .48437.35938.79687.375.29688.89062.29688.60938 0 .95313-.3125.34375-.32812.34375-.85938 0-1.26562-1.40625-1.26562h-.90625zm5.4375 4.1875q0-.40626.26562-.65626.28125-.25.6875-.25.42188 0 .6875.25.28125.25.28125.65626 0 .39062-.28125.64062-.26562.25-.6875.25-.40625 0-.6875-.25-.26562-.25-.26562-.64062zm8.6875.82812h-5.84375v-1.15625l2.76562-2.95313q.5625-.60937.82813-1.07812.28125-.46875.28125-.875 0-.57812-.29688-.89062-.28125-.32813-.8125-.32813-.57812 0-.90625.39063-.32812.39062-.32812 1.04687h-1.70313q0-.78125.375-1.42187.375-.65626 1.04688-1.01563.6875-.375 1.54687-.375 1.3125 0 2.04688.64063.73437.625.73437 1.78124 0 .64063-.32812 1.29688-.32813.65625-1.125 1.53125l-1.9375 2.04687h3.65625zm5.125-3.40625q-.67188.64063-1.54688.64063-1.14062 0-1.82812-.76563-.67188-.78125-.67188-2.09375 0-.84375.35938-1.54688.375-.70312 1.03125-1.09374.65625-.39063 1.48437-.39063.84375 0 1.5.42187.65625.42188 1.01563 1.21876.35937.79687.375 1.8125v.625q0 2.14062-1.0625 3.35937-1.0625 1.21875-3.01563 1.29687h-.40625v-1.40624l.375-.01563q2.20313-.09375 2.39063-2.0625zm-1.14063-.65625q.42188 0 .70313-.20312.29687-.21876.45312-.51563v-.6875q0-.85937-.32812-1.32813-.32813-.48437-.875-.48437-.51563 0-.84375.46875-.32813.45312-.32813 1.15625 0 .70313.3125 1.15625.32813.4375.90625.4375z" stroke="#ed7d31" stroke-linecap="round" stroke-linejoin="round" stroke-width="3"/><path d="m176.64172 298.5h-1.6875v-6.53125l-2.01562.625v-1.375l3.53125-1.26563h.17187zm4.60938-5.01562h.90625q.64062 0 .95312-.3125.3125-.32813.3125-.85938 0-.51562-.3125-.79688-.29687-.29687-.84375-.29687-.48437 0-.8125.26563-.32812.26562-.32812.6875h-1.6875q0-.65626.35937-1.1875.35938-.53126 1-.82813.65625-.3125 1.4375-.3125 1.34375 0 2.10938.65625.78125.64062.78125 1.78125 0 .59375-.35938 1.09375-.35937.48438-.9375.73438.71875.26562 1.0625.78124.35938.51563.35938 1.21876 0 1.14062-.82813 1.82812-.82812.6875-2.1875.6875-1.28125 0-2.09375-.67188-.8125-.6875-.8125-1.79687h1.6875q0 .48437.35938.79687.375.29688.89062.29688.60938 0 .95313-.3125.34375-.32812.34375-.85938 0-1.26562-1.40625-1.26562h-.90625zm5.4375 4.1875q0-.40626.26562-.65626.28125-.25.6875-.25.42188 0 .6875.25.28125.25.28125.65626 0 .39062-.28125.64062-.26562.25-.6875.25-.40625 0-.6875-.25-.26562-.25-.26562-.64062zm8.6875.82812h-5.84375v-1.15625l2.76562-2.95313q.5625-.60937.82813-1.07812.28125-.46875.28125-.875 0-.57812-.29688-.89062-.28125-.32813-.8125-.32813-.57812 0-.90625.39063-.32812.39062-.32812 1.04687h-1.70313q0-.78125.375-1.42187.375-.65626 1.04688-1.01563.6875-.375 1.54687-.375 1.3125 0 2.04688.64063.73437.625.73437 1.78124 0 .64063-.32812 1.29688-.32813.65625-1.125 1.53125l-1.9375 2.04687h3.65625zm5.125-3.40625q-.67188.64063-1.54688.64063-1.14062 0-1.82812-.76563-.67188-.78125-.67188-2.09375 0-.84375.35938-1.54688.375-.70312 1.03125-1.09374.65625-.39063 1.48437-.39063.84375 0 1.5.42187.65625.42188 1.01563 1.21876.35937.79687.375 1.8125v.625q0 2.14062-1.0625 3.35937-1.0625 1.21875-3.01563 1.29687h-.40625v-1.40624l.375-.01563q2.20313-.09375 2.39063-2.0625zm-1.14063-.65625q.42188 0 .70313-.20312.29687-.21876.45312-.51563v-.6875q0-.85937-.32812-1.32813-.32813-.48437-.875-.48437-.51563 0-.84375.46875-.32813.45312-.32813 1.15625 0 .70313.3125 1.15625.32813.4375.90625.4375z" fill="#fff"/><path d="m174.2857 355.5h-1.6875v-6.53125l-2.01562.625v-1.375l3.53125-1.26563h.17187zm8.73438 0h-5.84375v-1.15625l2.76563-2.95313q.5625-.60937.82812-1.07812.28125-.46875.28125-.875 0-.57812-.29687-.89062-.28126-.32813-.8125-.32813-.57813 0-.90626.39063-.32812.39062-.32812 1.04687h-1.70312q0-.78125.375-1.42187.375-.65626 1.04687-1.01563.6875-.375 1.54687-.375 1.3125 0 2.04688.64063.73438.625.73438 1.78124 0 .64063-.32813 1.29688-.32813.65625-1.125 1.53125l-1.9375 2.04687h3.65625zm1.3125-.82812q0-.40626.26562-.65626.28126-.25.6875-.25.42188 0 .6875.25.28126.25.28126.65626 0 .39062-.28126.64062-.26562.25-.6875.25-.40624 0-.6875-.25-.26562-.25-.26562-.64062zm8.40625-5.4375q0 .625-.3125 1.10937-.3125.46875-.85937.76563.625.29687.98437.82812.375.51562.375 1.21875 0 1.14063-.78125 1.8125-.76562.65625-2.10938.65625-1.32812 0-2.10937-.65625-.76563-.67187-.76563-1.8125 0-.70313.35938-1.23437.35938-.53126.98438-.8125-.54688-.29688-.85938-.76563-.3125-.48437-.3125-1.10937 0-1.09376.71875-1.73438.73437-.65625 1.98437-.65625 1.25 0 1.96876.65625.73437.64062.73437 1.73438zm-1.51563 3.79687q0-.54687-.32812-.875-.3125-.34375-.85938-.34375-.54687 0-.875.32812-.3125.32813-.3125.89063 0 .54687.3125.89063.32813.32812.89063.32812.54687 0 .85937-.3125.3125-.32812.3125-.90625zm-.17187-3.71875q0-.5-.26563-.79688-.26562-.29687-.75-.29687-.46874 0-.73437.29687-.26563.28126-.26563.79688 0 .51562.26563.82812.26563.3125.73437.3125.48438 0 .75-.3125.26563-.3125.26563-.82812zm4.84375 1.17188h.90625q.64063 0 .95313-.3125.3125-.32813.3125-.85938 0-.51562-.3125-.79688-.29688-.29687-.84376-.29687-.48437 0-.8125.26563-.32812.26562-.32812.6875h-1.6875q0-.65626.35938-1.1875.35937-.53126 1-.82813.65624-.3125 1.4375-.3125 1.34374 0 2.10937.65625.78125.64062.78125 1.78125 0 .59375-.35938 1.09375-.35937.48438-.9375.73438.71876.26562 1.0625.78124.35938.51563.35938 1.21876 0 1.14062-.82812 1.82812-.82813.6875-2.1875.6875-1.28126 0-2.09376-.67188-.8125-.6875-.8125-1.79687h1.6875q0 .48437.35938.79687.375.29688.89062.29688.60938 0 .95313-.3125.34375-.32812.34375-.85938 0-1.26562-1.40625-1.26562h-.90625z" stroke="#ed7d31" stroke-linecap="round" stroke-linejoin="round" stroke-width="3"/><path d="m174.2857 355.5h-1.6875v-6.53125l-2.01562.625v-1.375l3.53125-1.26563h.17187zm8.73438 0h-5.84375v-1.15625l2.76563-2.95313q.5625-.60937.82812-1.07812.28125-.46875.28125-.875 0-.57812-.29687-.89062-.28126-.32813-.8125-.32813-.57813 0-.90626.39063-.32812.39062-.32812 1.04687h-1.70312q0-.78125.375-1.42187.375-.65626 1.04687-1.01563.6875-.375 1.54687-.375 1.3125 0 2.04688.64063.73438.625.73438 1.78124 0 .64063-.32813 1.29688-.32813.65625-1.125 1.53125l-1.9375 2.04687h3.65625zm1.3125-.82812q0-.40626.26562-.65626.28126-.25.6875-.25.42188 0 .6875.25.28126.25.28126.65626 0 .39062-.28126.64062-.26562.25-.6875.25-.40624 0-.6875-.25-.26562-.25-.26562-.64062zm8.40625-5.4375q0 .625-.3125 1.10937-.3125.46875-.85937.76563.625.29687.98437.82812.375.51562.375 1.21875 0 1.14063-.78125 1.8125-.76562.65625-2.10938.65625-1.32812 0-2.10937-.65625-.76563-.67187-.76563-1.8125 0-.70313.35938-1.23437.35938-.53126.98438-.8125-.54688-.29688-.85938-.76563-.3125-.48437-.3125-1.10937 0-1.09376.71875-1.73438.73437-.65625 1.98437-.65625 1.25 0 1.96876.65625.73437.64062.73437 1.73438zm-1.51563 3.79687q0-.54687-.32812-.875-.3125-.34375-.85938-.34375-.54687 0-.875.32812-.3125.32813-.3125.89063 0 .54687.3125.89063.32813.32812.89063.32812.54687 0 .85937-.3125.3125-.32812.3125-.90625zm-.17187-3.71875q0-.5-.26563-.79688-.26562-.29687-.75-.29687-.46874 0-.73437.29687-.26563.28126-.26563.79688 0 .51562.26563.82812.26563.3125.73437.3125.48438 0 .75-.3125.26563-.3125.26563-.82812zm4.84375 1.17188h.90625q.64063 0 .95313-.3125.3125-.32813.3125-.85938 0-.51562-.3125-.79688-.29688-.29687-.84376-.29687-.48437 0-.8125.26563-.32812.26562-.32812.6875h-1.6875q0-.65626.35938-1.1875.35937-.53126 1-.82813.65624-.3125 1.4375-.3125 1.34374 0 2.10937.65625.78125.64062.78125 1.78125 0 .59375-.35938 1.09375-.35937.48438-.9375.73438.71876.26562 1.0625.78124.35938.51563.35938 1.21876 0 1.14062-.82812 1.82812-.82813.6875-2.1875.6875-1.28126 0-2.09376-.67188-.8125-.6875-.8125-1.79687h1.6875q0 .48437.35938.79687.375.29688.89062.29688.60938 0 .95313-.3125.34375-.32812.34375-.85938 0-1.26562-1.40625-1.26562h-.90625z" fill="#fff"/><path d="m163.29765 409.09375q-.67187.64063-1.54687.64063-1.14063 0-1.82813-.76563-.67187-.78125-.67187-2.09375 0-.84375.35937-1.54688.375-.70312 1.03125-1.09374.65625-.39063 1.48438-.39063.84375 0 1.5.42187.65625.42188 1.01562 1.21876.35938.79687.375 1.8125v.625q0 2.14062-1.0625 3.35937-1.0625 1.21875-3.01562 1.29687h-.40625v-1.40624l.375-.01563q2.20312-.09375 2.39062-2.0625zm-1.14062-.65625q.42187 0 .70312-.20312.29688-.21876.45313-.51563v-.6875q0-.85937-.32813-1.32813-.32812-.48437-.875-.48437-.51562 0-.84375.46875-.32812.45312-.32812 1.15625 0 .70313.3125 1.15625.32812.4375.90625.4375zm4.32812 3.23438q0-.40626.26563-.65626.28125-.25.6875-.25.42187 0 .6875.25.28125.25.28125.65626 0 .39062-.28125.64062-.26563.25-.6875.25-.40625 0-.6875-.25-.26563-.25-.26563-.64062zm4.5625-4.1875h.90625q.64063 0 .95313-.3125.3125-.32813.3125-.85938 0-.51562-.3125-.79688-.29688-.29687-.84375-.29687-.48438 0-.8125.26563-.32813.26562-.32813.6875h-1.6875q0-.65626.35938-1.1875.35937-.53126 1-.82813.65625-.3125 1.4375-.3125 1.34375 0 2.10937.65625.78125.64062.78125 1.78125 0 .59375-.35937 1.09375-.35938.48438-.9375.73438.71875.26562 1.0625.78124.35937.51563.35937 1.21876 0 1.14062-.82812 1.82812-.82813.6875-2.1875.6875-1.28125 0-2.09375-.67188-.8125-.6875-.8125-1.79687h1.6875q0 .48437.35937.79687.375.29688.89063.29688.60937 0 .95312-.3125.34375-.32812.34375-.85938 0-1.26562-1.40625-1.26562h-.90625zm9.875-3.60938v1.40625h-.15625q-1.15625.01563-1.85937.59375-.6875.57812-.82813 1.60938.67188-.6875 1.70313-.6875 1.125 0 1.78125.79687.65625.79687.65625 2.09375 0 .82812-.35938 1.5-.35937.67188-1.03125 1.0625-.65625.375-1.48437.375-1.34375 0-2.17188-.9375-.82812-.95312-.82812-2.51562v-.60938q0-1.39062.51562-2.45312.53125-1.0625 1.5-1.64063.98438-.57813 2.28125-.59375zm-1.65625 4.28125q-.40625 0-.75.21875-.32812.20312-.48437.5625v.51562q0 .84376.32812 1.32813.34375.46875.95313.46875.54687 0 .875-.42188.34375-.4375.34375-1.125 0-.70312-.34375-1.125-.34375-.42187-.92188-.42187z" stroke="#ed7d31" stroke-linecap="round" stroke-linejoin="round" stroke-width="3"/><path d="m163.29765 409.09375q-.67187.64063-1.54687.64063-1.14063 0-1.82813-.76563-.67187-.78125-.67187-2.09375 0-.84375.35937-1.54688.375-.70312 1.03125-1.09374.65625-.39063 1.48438-.39063.84375 0 1.5.42187.65625.42188 1.01562 1.21876.35938.79687.375 1.8125v.625q0 2.14062-1.0625 3.35937-1.0625 1.21875-3.01562 1.29687h-.40625v-1.40624l.375-.01563q2.20312-.09375 2.39062-2.0625zm-1.14062-.65625q.42187 0 .70312-.20312.29688-.21876.45313-.51563v-.6875q0-.85937-.32813-1.32813-.32812-.48437-.875-.48437-.51562 0-.84375.46875-.32812.45312-.32812 1.15625 0 .70313.3125 1.15625.32812.4375.90625.4375zm4.32812 3.23438q0-.40626.26563-.65626.28125-.25.6875-.25.42187 0 .6875.25.28125.25.28125.65626 0 .39062-.28125.64062-.26563.25-.6875.25-.40625 0-.6875-.25-.26563-.25-.26563-.64062zm4.5625-4.1875h.90625q.64063 0 .95313-.3125.3125-.32813.3125-.85938 0-.51562-.3125-.79688-.29688-.29687-.84375-.29687-.48438 0-.8125.26563-.32813.26562-.32813.6875h-1.6875q0-.65626.35938-1.1875.35937-.53126 1-.82813.65625-.3125 1.4375-.3125 1.34375 0 2.10937.65625.78125.64062.78125 1.78125 0 .59375-.35937 1.09375-.35938.48438-.9375.73438.71875.26562 1.0625.78124.35937.51563.35937 1.21876 0 1.14062-.82812 1.82812-.82813.6875-2.1875.6875-1.28125 0-2.09375-.67188-.8125-.6875-.8125-1.79687h1.6875q0 .48437.35937.79687.375.29688.89063.29688.60937 0 .95312-.3125.34375-.32812.34375-.85938 0-1.26562-1.40625-1.26562h-.90625zm9.875-3.60938v1.40625h-.15625q-1.15625.01563-1.85937.59375-.6875.57812-.82813 1.60938.67188-.6875 1.70313-.6875 1.125 0 1.78125.79687.65625.79687.65625 2.09375 0 .82812-.35938 1.5-.35937.67188-1.03125 1.0625-.65625.375-1.48437.375-1.34375 0-2.17188-.9375-.82812-.95312-.82812-2.51562v-.60938q0-1.39062.51562-2.45312.53125-1.0625 1.5-1.64063.98438-.57813 2.28125-.59375zm-1.65625 4.28125q-.40625 0-.75.21875-.32812.20312-.48437.5625v.51562q0 .84376.32812 1.32813.34375.46875.95313.46875.54687 0 .875-.42188.34375-.4375.34375-1.125 0-.70312-.34375-1.125-.34375-.42187-.92188-.42187z" fill="#fff"/><path d="m158.11697 462.23438q0 .625-.3125 1.10937-.3125.46875-.85937.76563.625.29687.98437.82812.375.51562.375 1.21875 0 1.14063-.78125 1.8125-.76562.65625-2.10937.65625-1.32813 0-2.10938-.65625-.76562-.67187-.76562-1.8125 0-.70313.35937-1.23437.35938-.53126.98438-.8125-.54688-.29688-.85938-.76563-.3125-.48437-.3125-1.10937 0-1.09376.71875-1.73438.73438-.65625 1.98438-.65625 1.25 0 1.96875.65625.73437.64062.73437 1.73438zm-1.51562 3.79687q0-.54687-.32813-.875-.3125-.34375-.85937-.34375-.54688 0-.875.32812-.3125.32813-.3125.89063 0 .54687.3125.89063.32812.32812.89062.32812.54688 0 .85938-.3125.3125-.32812.3125-.90625zm-.17188-3.71875q0-.5-.26562-.79688-.26563-.29687-.75-.29687-.46875 0-.73438.29687-.26562.28126-.26562.79688 0 .51562.26562.82812.26563.3125.73438.3125.48437 0 .75-.3125.26562-.3125.26562-.82812zm3.28125 5.35938q0-.40626.26563-.65626.28125-.25.6875-.25.42187 0 .6875.25.28125.25.28125.65626 0 .39062-.28125.64062-.26563.25-.6875.25-.40625 0-.6875-.25-.26563-.25-.26563-.64062zm8.59375-2.70313q0 1.76563-.73437 2.71875-.73438.9375-2.14063.9375-1.40625 0-2.14062-.92188-.73438-.92187-.75-2.64062v-1.57812q0-1.78126.73437-2.70313.75-.9375 2.14063-.9375 1.39062 0 2.125.92187.75.92188.76562 2.64063zm-1.70312-1.71875q0-1.0625-.29688-1.54688-.28125-.48437-.89062-.48437-.59375 0-.89063.46875-.28125.45312-.29687 1.4375v2.0625q0 1.04688.28125 1.5625.28125.5.92187.5.60938 0 .89063-.48438.28125-.48437.28125-1.48437zm7.96875 2.03125h.96875v1.375h-.96875v1.84375h-1.70313v-1.84375h-3.48437l-.07813-1.0625 3.54688-5.625h1.71875zm-3.57813 0h1.875v-3l-.10937.1875z" stroke="#ed7d31" stroke-linecap="round" stroke-linejoin="round" stroke-width="3"/><path d="m158.11697 462.23438q0 .625-.3125 1.10937-.3125.46875-.85937.76563.625.29687.98437.82812.375.51562.375 1.21875 0 1.14063-.78125 1.8125-.76562.65625-2.10937.65625-1.32813 0-2.10938-.65625-.76562-.67187-.76562-1.8125 0-.70313.35937-1.23437.35938-.53126.98438-.8125-.54688-.29688-.85938-.76563-.3125-.48437-.3125-1.10937 0-1.09376.71875-1.73438.73438-.65625 1.98438-.65625 1.25 0 1.96875.65625.73437.64062.73437 1.73438zm-1.51562 3.79687q0-.54687-.32813-.875-.3125-.34375-.85937-.34375-.54688 0-.875.32812-.3125.32813-.3125.89063 0 .54687.3125.89063.32812.32812.89062.32812.54688 0 .85938-.3125.3125-.32812.3125-.90625zm-.17188-3.71875q0-.5-.26562-.79688-.26563-.29687-.75-.29687-.46875 0-.73438.29687-.26562.28126-.26562.79688 0 .51562.26562.82812.26563.3125.73438.3125.48437 0 .75-.3125.26562-.3125.26562-.82812zm3.28125 5.35938q0-.40626.26563-.65626.28125-.25.6875-.25.42187 0 .6875.25.28125.25.28125.65626 0 .39062-.28125.64062-.26563.25-.6875.25-.40625 0-.6875-.25-.26563-.25-.26563-.64062zm8.59375-2.70313q0 1.76563-.73437 2.71875-.73438.9375-2.14063.9375-1.40625 0-2.14062-.92188-.73438-.92187-.75-2.64062v-1.57812q0-1.78126.73437-2.70313.75-.9375 2.14063-.9375 1.39062 0 2.125.92187.75.92188.76562 2.64063zm-1.70312-1.71875q0-1.0625-.29688-1.54688-.28125-.48437-.89062-.48437-.59375 0-.89063.46875-.28125.45312-.29687 1.4375v2.0625q0 1.04688.28125 1.5625.28125.5.92187.5.60938 0 .89063-.48438.28125-.48437.28125-1.48437zm7.96875 2.03125h.96875v1.375h-.96875v1.84375h-1.70313v-1.84375h-3.48437l-.07813-1.0625 3.54688-5.625h1.71875zm-3.57813 0h1.875v-3l-.10937.1875z" fill="#fff"/><path d="m155.40205 517.9219-3.29687 7.5781h-1.78125l3.29687-7.15625h-4.23437v-1.375h6.01562zm1.35938 6.75q0-.4063.26562-.6563.28125-.25.6875-.25.42188 0 .6875.25.28125.25.28125.6563 0 .3906-.28125.6406-.26562.25-.6875.25-.40625 0-.6875-.25-.26562-.25-.26562-.6406zm7.85937-2.39065h.96875v1.375h-.96875v1.84375h-1.70312v-1.84375h-3.48438l-.07812-1.0625 3.54687-5.625h1.71875zm-3.57812 0h1.875v-3l-.10938.1875zm11.35937-4.35935-3.29687 7.5781h-1.78125l3.29687-7.15625h-4.23437v-1.375h6.01562z" stroke="#ed7d31" stroke-linecap="round" stroke-linejoin="round" stroke-width="3"/><path d="m155.40205 517.9219-3.29687 7.5781h-1.78125l3.29687-7.15625h-4.23437v-1.375h6.01562zm1.35938 6.75q0-.4063.26562-.6563.28125-.25.6875-.25.42188 0 .6875.25.28125.25.28125.6563 0 .3906-.28125.6406-.26562.25-.6875.25-.40625 0-.6875-.25-.26562-.25-.26562-.6406zm7.85937-2.39065h.96875v1.375h-.96875v1.84375h-1.70312v-1.84375h-3.48438l-.07812-1.0625 3.54687-5.625h1.71875zm-3.57812 0h1.875v-3l-.10938.1875zm11.35937-4.35935-3.29687 7.5781h-1.78125l3.29687-7.15625h-4.23437v-1.375h6.01562z" fill="#fff"/><path d="m149.52795 573.875v1.40625h-.15625q-1.15625.01565-1.85937.59375-.6875.5781-.82813 1.6094.67188-.6875 1.70313-.6875 1.125 0 1.78125.79685.65625.79685.65625 2.09375 0 .8281-.35938 1.5-.35937.6719-1.03125 1.0625-.65625.375-1.48437.375-1.34375 0-2.17188-.9375-.82812-.9531-.82812-2.5156v-.6094q0-1.3906.51562-2.4531.53125-1.0625 1.5-1.64065.98438-.57815 2.28125-.59375zm-1.65625 4.28125q-.40625 0-.75.21875-.32812.2031-.48437.5625v.5156q0 .8438.32812 1.32815.34375.46875.95313.46875.54687 0 .875-.4219.34375-.4375.34375-1.125 0-.7031-.34375-1.125-.34375-.42185-.92188-.42185zm4.21875 3.51565q0-.4063.26563-.6563.28125-.25.6875-.25.42187 0 .6875.25.28125.25.28125.6563 0 .3906-.28125.6406-.26563.25-.6875.25-.40625 0-.6875-.25-.26563-.25-.26563-.6406zm3.09375-3.375.5-4.32815h4.78125v1.40625h-3.39062l-.21875 1.84375q.60937-.32815 1.28125-.32815 1.21875 0 1.90625.76565.70312.75.70312 2.10935 0 .82815-.35937 1.4844-.34375.6406-1 1.0156-.64063.3594-1.53125.3594-.76563 0-1.4375-.3125-.65625-.3281-1.04688-.8906-.375-.5625-.40625-1.2969h1.6875q.04688.53125.35938.8281.32812.2969.84375.2969.57812 0 .875-.40625.3125-.42185.3125-1.17185 0-.7344-.35938-1.1094-.34375-.3906-1-.3906-.60937 0-.98437.3125l-.15625.1562zm11.34375-4.4219v1.40625h-.15625q-1.15625.01565-1.85937.59375-.6875.5781-.82813 1.6094.67188-.6875 1.70313-.6875 1.125 0 1.78125.79685.65625.79685.65625 2.09375 0 .8281-.35938 1.5-.35937.6719-1.03125 1.0625-.65625.375-1.48437.375-1.34375 0-2.17188-.9375-.82812-.9531-.82812-2.5156v-.6094q0-1.3906.51562-2.4531.53125-1.0625 1.5-1.64065.98438-.57815 2.28125-.59375zm-1.65625 4.28125q-.40625 0-.75.21875-.32812.2031-.48437.5625v.5156q0 .8438.32812 1.32815.34375.46875.95313.46875.54687 0 .875-.4219.34375-.4375.34375-1.125 0-.7031-.34375-1.125-.34375-.42185-.92188-.42185z" stroke="#ed7d31" stroke-linecap="round" stroke-linejoin="round" stroke-width="3"/><path d="m149.52795 573.875v1.40625h-.15625q-1.15625.01565-1.85937.59375-.6875.5781-.82813 1.6094.67188-.6875 1.70313-.6875 1.125 0 1.78125.79685.65625.79685.65625 2.09375 0 .8281-.35938 1.5-.35937.6719-1.03125 1.0625-.65625.375-1.48437.375-1.34375 0-2.17188-.9375-.82812-.9531-.82812-2.5156v-.6094q0-1.3906.51562-2.4531.53125-1.0625 1.5-1.64065.98438-.57815 2.28125-.59375zm-1.65625 4.28125q-.40625 0-.75.21875-.32812.2031-.48437.5625v.5156q0 .8438.32812 1.32815.34375.46875.95313.46875.54687 0 .875-.4219.34375-.4375.34375-1.125 0-.7031-.34375-1.125-.34375-.42185-.92188-.42185zm4.21875 3.51565q0-.4063.26563-.6563.28125-.25.6875-.25.42187 0 .6875.25.28125.25.28125.6563 0 .3906-.28125.6406-.26563.25-.6875.25-.40625 0-.6875-.25-.26563-.25-.26563-.6406zm3.09375-3.375.5-4.32815h4.78125v1.40625h-3.39062l-.21875 1.84375q.60937-.32815 1.28125-.32815 1.21875 0 1.90625.76565.70312.75.70312 2.10935 0 .82815-.35937 1.4844-.34375.6406-1 1.0156-.64063.3594-1.53125.3594-.76563 0-1.4375-.3125-.65625-.3281-1.04688-.8906-.375-.5625-.40625-1.2969h1.6875q.04688.53125.35938.8281.32812.2969.84375.2969.57812 0 .875-.40625.3125-.42185.3125-1.17185 0-.7344-.35938-1.1094-.34375-.3906-1-.3906-.60937 0-.98437.3125l-.15625.1562zm11.34375-4.4219v1.40625h-.15625q-1.15625.01565-1.85937.59375-.6875.5781-.82813 1.6094.67188-.6875 1.70313-.6875 1.125 0 1.78125.79685.65625.79685.65625 2.09375 0 .8281-.35938 1.5-.35937.6719-1.03125 1.0625-.65625.375-1.48437.375-1.34375 0-2.17188-.9375-.82812-.9531-.82812-2.5156v-.6094q0-1.3906.51562-2.4531.53125-1.0625 1.5-1.64065.98438-.57815 2.28125-.59375zm-1.65625 4.28125q-.40625 0-.75.21875-.32812.2031-.48437.5625v.5156q0 .8438.32812 1.32815.34375.46875.95313.46875.54687 0 .875-.4219.34375-.4375.34375-1.125 0-.7031-.34375-1.125-.34375-.42185-.92188-.42185z" fill="#fff"/><path d="m317.05472 636.28125h.96875v1.375h-.96875v1.84375h-1.70312v-1.84375h-3.48438l-.07812-1.0625 3.54687-5.625h1.71875zm-3.57812 0h1.875v-3l-.10938.1875zm11.3125-.3125q0 1.76565-.73438 2.71875-.73438.9375-2.14062.9375-1.40626 0-2.14063-.9219-.73437-.92185-.75-2.6406v-1.5781q0-1.7813.73437-2.70315.75-.9375 2.14063-.9375 1.39063 0 2.125.92185.75.9219.76563 2.64065zm-1.70313-1.71875q0-1.0625-.29687-1.5469-.28126-.48435-.89063-.48435-.59375 0-.89063.46875-.28124.4531-.29687 1.4375v2.0625q0 1.0469.28125 1.5625.28125.5.92188.5.60937 0 .89062-.4844.28125-.48435.28125-1.48435zm3.10937 4.4219q0-.4063.26563-.6563.28125-.25.6875-.25.42187 0 .6875.25.28125.25.28125.6563 0 .3906-.28125.6406-.26563.25-.6875.25-.40625 0-.6875-.25-.26563-.25-.26563-.6406zm7.85938-2.39065h.96875v1.375h-.96875v1.84375h-1.70312v-1.84375h-3.48438l-.07812-1.0625 3.54687-5.625h1.71875zm-3.57812 0h1.875v-3l-.10938.1875zm11.3125-.3125q0 1.76565-.73438 2.71875-.73438.9375-2.14062.9375-1.40626 0-2.14063-.9219-.73437-.92185-.75-2.6406v-1.5781q0-1.7813.73437-2.70315.75-.9375 2.14063-.9375 1.39063 0 2.125.92185.75.9219.76563 2.64065zm-1.70313-1.71875q0-1.0625-.29687-1.5469-.28126-.48435-.89063-.48435-.59375 0-.89063.46875-.28124.4531-.29687 1.4375v2.0625q0 1.0469.28125 1.5625.28125.5.92188.5.60937 0 .89062-.4844.28125-.48435.28125-1.48435z" stroke="#ed7d31" stroke-linecap="round" stroke-linejoin="round" stroke-width="3"/><path d="m317.05472 636.28125h.96875v1.375h-.96875v1.84375h-1.70312v-1.84375h-3.48438l-.07812-1.0625 3.54687-5.625h1.71875zm-3.57812 0h1.875v-3l-.10938.1875zm11.3125-.3125q0 1.76565-.73438 2.71875-.73438.9375-2.14062.9375-1.40626 0-2.14063-.9219-.73437-.92185-.75-2.6406v-1.5781q0-1.7813.73437-2.70315.75-.9375 2.14063-.9375 1.39063 0 2.125.92185.75.9219.76563 2.64065zm-1.70313-1.71875q0-1.0625-.29687-1.5469-.28126-.48435-.89063-.48435-.59375 0-.89063.46875-.28124.4531-.29687 1.4375v2.0625q0 1.0469.28125 1.5625.28125.5.92188.5.60937 0 .89062-.4844.28125-.48435.28125-1.48435zm3.10937 4.4219q0-.4063.26563-.6563.28125-.25.6875-.25.42187 0 .6875.25.28125.25.28125.6563 0 .3906-.28125.6406-.26563.25-.6875.25-.40625 0-.6875-.25-.26563-.25-.26563-.6406zm7.85938-2.39065h.96875v1.375h-.96875v1.84375h-1.70312v-1.84375h-3.48438l-.07812-1.0625 3.54687-5.625h1.71875zm-3.57812 0h1.875v-3l-.10938.1875zm11.3125-.3125q0 1.76565-.73438 2.71875-.73438.9375-2.14062.9375-1.40626 0-2.14063-.9219-.73437-.92185-.75-2.6406v-1.5781q0-1.7813.73437-2.70315.75-.9375 2.14063-.9375 1.39063 0 2.125.92185.75.9219.76563 2.64065zm-1.70313-1.71875q0-1.0625-.29687-1.5469-.28126-.48435-.89063-.48435-.59375 0-.89063.46875-.28124.4531-.29687 1.4375v2.0625q0 1.0469.28125 1.5625.28125.5.92188.5.60937 0 .89062-.4844.28125-.48435.28125-1.48435z" fill="#fff"/><g fill="#000"><path d="m99.38438 71.79956v-8.53125h2.42187q1.10938 0 1.95313.5.85937.484376 1.32812 1.390626.46875.90625.46875 2.09375v.53125q0 1.21875-.46875 2.125-.45312.90625-1.32812 1.390624-.85938.484376-2 .5zm1.125-7.609374v6.6875h1.1875q1.29687 0 2.01562-.796876.73438-.8125.73438-2.3125v-.5q0-1.453124-.6875-2.25-.67188-.8125-1.9375-.828124zm10.625 7.609374q-.09375-.1875-.15625-.671874-.75.796874-1.79688.796874-.9375 0-1.54687-.53125-.59375-.53125-.59375-1.359374 0-.984376.75-1.53125.75-.546876 2.125-.546876h1.04687v-.5q0-.5625-.34375-.890624-.32812-.34375-1-.34375-.57812 0-.96875.296874-.39062.28125-.39062.703126h-1.09375q0-.484376.32812-.921876.34375-.4375.92188-.6875.57812-.265624 1.26562-.265624 1.10938 0 1.71875.546874.625.546876.65625 1.5v2.921876q0 .875.21875 1.390624v.09375zm-1.79688-.828124q.51563 0 .96875-.265626.45313-.265624.65625-.6875v-1.296874h-.84375q-2 0-2 1.171874 0 .5.34375.796876.34375.28125.875.28125zm2.46875-6.84375h-3.9375v-.84375h3.9375zm3.4375 1.328124.03125.796876q.73438-.90625 1.90625-.90625 2.01563 0 2.03125 2.265624v4.1875h-1.09375v-4.203124q0-.671876-.3125-1-.29687-.328126-.95312-.328126-.53125 0-.9375.28125-.39063.28125-.60938.734376v4.515624h-1.07812v-6.34375zm7.15625 6.34375h-1.07812v-6.34375h1.07812zm-1.17187-8.015624q0-.265626.15625-.453126.17187-.1875.48437-.1875.3125 0 .46875.1875.17188.1875.17188.453126 0 .25-.17188.4375-.15625.171874-.46875.171874-.3125 0-.48437-.171874-.15625-.1875-.15625-.4375zm4.10937 1.671874v7.078126q0 1.828124-1.65625 1.828124-.35937 0-.65625-.109374v-.859376q.1875.046876.48438.046876.35937 0 .54687-.203126.20313-.1875.20313-.6875v-7.09375zm-1.1875-1.671874q0-.265626.15625-.453126.15625-.1875.46875-.1875.3125 0 .46875.1875.17188.1875.17188.453126 0 .25-.17188.4375-.15625.171874-.46875.171874-.3125 0-.46875-.171874-.15625-.1875-.15625-.4375zm6.98437 8.015624q-.09375-.1875-.15625-.671874-.75.796874-1.79688.796874-.9375 0-1.54686-.53125-.59375-.53125-.59375-1.359374 0-.984376.75-1.53125.74999-.546876 2.12499-.546876h1.04688v-.5q0-.5625-.34376-.890624-.32812-.34375-1-.34375-.57812 0-.96874.296874-.39063.28125-.39063.703126h-1.09374q0-.484376.32812-.921876.34375-.4375.92187-.6875.57812-.265624 1.26562-.265624 1.10938 0 1.71876.546874.625.546876.65624 1.5v2.921876q0 .875.21876 1.390624v.09375zm-1.79687-.828124q.51562 0 .96874-.265626.45313-.265624.65626-.6875v-1.296874h-.84376q-2 0-2 1.171874 0 .5.34376.796876.34374.28125.875.28125z"/><path d="m91.60313 128.53964h-1.125v-8.53125h1.125zm1.35937-3.21875q0-1.48437.6875-2.35937.6875-.875 1.8125-.875 1.15625 0 1.8125.8125l.04688-.70313h1v6.1875q0 1.23438-.73438 1.9375-.73437.71875-1.95312.71875-.6875 0-1.34375-.29687-.65625-.29688-1-.79688l.5625-.65625q.6875.85938 1.70312.85938.78125 0 1.21875-.45313.45313-.4375.45313-1.25v-.54687q-.65625.76562-1.78125.76562-1.10938 0-1.79688-.89062-.6875-.90625-.6875-2.45313zm1.09375.125q0 1.0625.4375 1.6875.4375.60938 1.23438.60938 1.01562 0 1.5-.9375v-2.89063q-.5-.90625-1.5-.90625-.78125 0-1.23438.60938-.4375.60937-.4375 1.82812zm10.07813 3.09375q-.09375-.1875-.15625-.67187-.75.79687-1.79688.79687-.9375 0-1.54687-.53125-.59375-.53125-.59375-1.35937 0-.98438.75-1.53125.75-.54688 2.125-.54688h1.04687v-.5q0-.5625-.34375-.89062-.32812-.34375-1-.34375-.57812 0-.96875.29687-.39062.28125-.39062.70313h-1.09375q0-.48438.32812-.92188.34375-.4375.92188-.6875.57812-.26562 1.26562-.26562 1.10938 0 1.71875.54687.625.54688.65625 1.5v2.92188q0 .875.21875 1.39062v.09375zm-1.79688-.82812q.51563 0 .96875-.26563.45313-.26562.65625-.6875v-1.29687h-.84375q-2 0-2 1.17187 0 .5.34375.79688.34375.28125.875.28125zm8.79688.20312q-.625.75-1.85938.75-1.01562 0-1.54687-.59375-.53125-.59375-.53125-1.75v-4.125h1.07812v4.09375q0 1.45313 1.17188 1.45313 1.25 0 1.65625-.9375v-4.60938h1.09375v6.34375h-1.03125zm4.10937-5.71875.03125.79688q.73438-.90625 1.90625-.90625 2.01563 0 2.03125 2.26562v4.1875h-1.09375v-4.20312q0-.67188-.3125-1-.29687-.32813-.95312-.32813-.53125 0-.9375.28125-.39063.28125-.60938.73438v4.51562h-1.07812v-6.34375zm7.15625 6.34375h-1.07812v-6.34375h1.07812zm-1.17187-8.01562q0-.26563.15625-.45313.17187-.1875.48437-.1875.3125 0 .46875.1875.17188.1875.17188.45313 0 .25-.17188.4375-.15625.17187-.46875.17187-.3125 0-.48437-.17187-.15625-.1875-.15625-.4375zm4.10937 1.67187v7.07813q0 1.82812-1.65625 1.82812-.35937 0-.65625-.10937v-.85938q.1875.04688.48438.04688.35937 0 .54687-.20313.20313-.1875.20313-.6875v-7.09375zm-1.1875-1.67187q0-.26563.15625-.45313.15625-.1875.46875-.1875.3125 0 .46875.1875.17188.1875.17188.45313 0 .25-.17188.4375-.15625.17187-.46875.17187-.3125 0-.46875-.17187-.15625-.1875-.15625-.4375zm6.98437 8.01562q-.09375-.1875-.15625-.67187-.75.79687-1.79688.79687-.9375 0-1.54686-.53125-.59375-.53125-.59375-1.35937 0-.98438.75-1.53125.74999-.54688 2.12499-.54688h1.04688v-.5q0-.5625-.34376-.89062-.32812-.34375-1-.34375-.57812 0-.96874.29687-.39063.28125-.39063.70313h-1.09374q0-.48438.32812-.92188.34375-.4375.92187-.6875.57812-.26562 1.26562-.26562 1.10938 0 1.71876.54687.625.54688.65624 1.5v2.92188q0 .875.21876 1.39062v.09375zm-1.79687-.82812q.51562 0 .96874-.26563.45313-.26562.65626-.6875v-1.29687h-.84376q-2 0-2 1.17187 0 .5.34376.79688.34374.28125.875.28125z"/><path d="m103.2125 183.77974 2.4375-7.03125h1.23438l-3.17188 8.53125h-.98437l-3.15625-8.53125h1.21875zm8.92188 1.5q-.09375-.1875-.15625-.67188-.75.79688-1.79688.79688-.9375 0-1.54687-.53125-.59375-.53125-.59375-1.35938 0-.98437.75-1.53125.75-.54687 2.125-.54687h1.04687v-.5q0-.5625-.34375-.89063-.32812-.34375-1-.34375-.57812 0-.96875.29688-.39062.28125-.39062.70312h-1.09375q0-.48437.32812-.92187.34375-.4375.92188-.6875.57812-.26563 1.26562-.26563 1.10938 0 1.71875.54688.625.54687.65625 1.5v2.92187q0 .875.21875 1.39063v.09375zm-1.79688-.82813q.51563 0 .96875-.26562.45313-.26563.65625-.6875v-1.29688h-.84375q-2 0-2 1.17188 0 .5.34375.79687.34375.28125.875.28125zm2.46875-6.84375h-3.9375v-.84375h3.9375zm4.95313 6.90625q.57812 0 1.01562-.34375.4375-.35937.48438-.89062h1.03125q-.03125.54687-.39063 1.04687-.34375.48438-.92187.78125-.5625.29688-1.21875.29688-1.29688 0-2.0625-.85938-.75-.875-.75-2.375v-.1875q0-.92187.32812-1.64062.34375-.71875.96875-1.10938.64063-.40625 1.51563-.40625 1.0625 0 1.76562.64063.71875.625.76563 1.65625h-1.03125q-.04688-.625-.46875-1.01563-.42188-.39062-1.03125-.39062-.82813 0-1.28125.59375-.45313.59375-.45313 1.71875v.20312q0 1.09375.45313 1.6875.45312.59375 1.28125.59375zm4.64062.76563h-1.07812v-6.34375h1.07812zm-1.17187-8.01563q0-.26562.15625-.45312.17187-.1875.48437-.1875.3125 0 .46875.1875.17188.1875.17188.45312 0 .25-.17188.4375-.15625.17188-.46875.17188-.3125 0-.48437-.17188-.15625-.1875-.15625-.4375zm4.10937 1.67188v7.07812q0 1.82813-1.65625 1.82813-.35937 0-.65625-.10938v-.85937q.1875.04687.48438.04687.35937 0 .54687-.20312.20313-.1875.20313-.6875v-7.09375zm-1.1875-1.67188q0-.26562.15625-.45312.15625-.1875.46875-.1875.3125 0 .46875.1875.17188.1875.17188.45312 0 .25-.17188.4375-.15625.17188-.46875.17188-.3125 0-.46875-.17188-.15625-.1875-.15625-.4375zm6.98437 8.01563q-.09375-.1875-.15625-.67188-.75.79688-1.79688.79688-.9375 0-1.54686-.53125-.59375-.53125-.59375-1.35938 0-.98437.75-1.53125.74999-.54687 2.12499-.54687h1.04688v-.5q0-.5625-.34376-.89063-.32812-.34375-1-.34375-.57812 0-.96874.29688-.39063.28125-.39063.70312h-1.09374q0-.48437.32812-.92187.34375-.4375.92187-.6875.57812-.26563 1.26562-.26563 1.10938 0 1.71876.54688.625.54687.65624 1.5v2.92187q0 .875.21876 1.39063v.09375zm-1.79687-.82813q.51562 0 .96874-.26562.45313-.26563.65626-.6875v-1.29688h-.84376q-2 0-2 1.17188 0 .5.34376.79687.34374.28125.875.28125z"/><path d="m89.22813 241.09795h4.89062v.92187h-6.21875v-.84375l4.6875-6.76562h-4.60937v-.92188h5.95312v.82813zm8.07812-.54688 1.57813-4.875h1.10937l-2.28125 6.34375h-.82812l-2.29688-6.34375h1.10938zm5.09375 1.46875h-1.07812v-6.34375h1.07812zm-1.17187-8.01562q0-.26563.15625-.45313.17187-.1875.48437-.1875.3125 0 .46875.1875.17188.1875.17188.45313 0 .25-.17188.4375-.15625.17187-.46875.17187-.3125 0-.48437-.17187-.15625-.1875-.15625-.4375zm5.625 8.14062q-1.29688 0-2.10938-.84375-.79687-.85937-.79687-2.28125v-.1875q0-.95312.35937-1.6875.35938-.75 1-1.15625.65625-.42187 1.40625-.42187 1.23438 0 1.92188.8125.6875.8125.6875 2.32812v.45313h-4.29688q.03125.9375.54688 1.51562.53125.57813 1.34375.57813.5625 0 .95312-.23438.40625-.23437.71875-.625l.65625.51563q-.79687 1.23437-2.39062 1.23437zm-.14063-5.6875q-.65625 0-1.10937.48438-.4375.46875-.53125 1.32812h3.17187v-.07812q-.04687-.82813-.45312-1.28125-.39063-.45313-1.07813-.45313zm3.25 2.34375q0-1.46875.6875-2.34375.6875-.89062 1.8125-.89062 1.10938 0 1.76563.75v-3.29688h1.07812v9h-1l-.04687-.6875q-.65625.8125-1.8125.8125-1.09375 0-1.79688-.90625-.6875-.90625-.6875-2.35937zm1.07813.125q0 1.07813.4375 1.6875.45312.60938 1.23437.60938 1.03125 0 1.51563-.9375v-2.90625q-.48438-.89063-1.5-.89063-.79688 0-1.25.60938-.4375.60937-.4375 1.82812zm9.25-2.28125q-.25-.03125-.53125-.03125-1.07813 0-1.45313.90625v4.5h-1.07812v-6.34375h1.04687l.01563.73438q.53125-.84375 1.51562-.84375.3125 0 .48438.07812zm2.10937 5.375h-1.07812v-6.34375h1.07812zm-1.17187-8.01562q0-.26563.15625-.45313.17187-.1875.48437-.1875.3125 0 .46875.1875.17188.1875.17188.45313 0 .25-.17188.4375-.15625.17187-.46875.17187-.3125 0-.48437-.17187-.15625-.1875-.15625-.4375zm4.10937 1.67187v7.07813q0 1.82812-1.65625 1.82812-.35937 0-.65625-.10937v-.85938q.1875.04688.48438.04688.35937 0 .54687-.20313.20313-.1875.20313-.6875v-7.09375zm-1.1875-1.67187q0-.26563.15625-.45313.15625-.1875.46875-.1875.3125 0 .46875.1875.17188.1875.17188.45313 0 .25-.17188.4375-.15625.17187-.46875.17187-.3125 0-.46875-.17187-.15625-.1875-.15625-.4375zm6.98437 8.01562q-.09375-.1875-.15625-.67187-.75.79687-1.79688.79687-.9375 0-1.54686-.53125-.59375-.53125-.59375-1.35937 0-.98438.75-1.53125.74999-.54688 2.12499-.54688h1.04688v-.5q0-.5625-.34376-.89062-.32812-.34375-1-.34375-.57812 0-.96874.29687-.39063.28125-.39063.70313h-1.09374q0-.48438.32812-.92188.34375-.4375.92187-.6875.57812-.26562 1.26562-.26562 1.10938 0 1.71876.54687.625.54688.65624 1.5v2.92188q0 .875.21876 1.39062v.09375zm-1.79687-.82812q.51562 0 .96874-.26563.45313-.26562.65626-.6875v-1.29687h-.84376q-2 0-2 1.17187 0 .5.34376.79688.34374.28125.875.28125z"/><path d="m84.10313 289.02554h-3.57813l-.79687 2.23438h-1.15625l3.25-8.53125h.98437l3.26563 8.53125h-1.15625zm-3.23438-.92187h2.90625l-1.45312-3.98437zm11.70313.0625q0 1.4375-.65625 2.32813-.65625.89062-1.79688.89062-1.15625 0-1.8125-.73438v3.04688h-1.07812v-8.78125h.98437l.04688.70313q.67187-.8125 1.84375-.8125 1.14062 0 1.79687.85937.67188.85937.67188 2.39063zm-1.07813-.125q0-1.07813-.46875-1.6875-.45312-.625-1.25-.625-.98437 0-1.46875.85937v3.03126q.48438.875 1.48438.875.78125 0 1.23437-.60938.46875-.625.46875-1.84375zm4.8125 1.75 1.57813-4.875h1.10937l-2.28125 6.34375h-.82812l-2.29688-6.34375h1.10938zm5.09375 1.46875h-1.07812v-6.34375h1.07812zm-1.17187-8.01562q0-.26563.15625-.45313.17187-.1875.48437-.1875.3125 0 .46875.1875.17188.1875.17188.45313 0 .25-.17188.4375-.15625.17187-.46875.17187-.3125 0-.48437-.17187-.15625-.1875-.15625-.4375zm5.625 8.14062q-1.29688 0-2.10938-.84375-.79687-.85937-.79687-2.28125v-.1875q0-.95312.35937-1.6875.35938-.75 1-1.15625.65625-.42187 1.40625-.42187 1.23438 0 1.92188.8125.6875.8125.6875 2.32812v.45312h-4.29688q.03125.9375.54688 1.51563.53125.57813 1.34375.57813.5625 0 .95312-.23438.40625-.23438.71875-.625l.65625.51562q-.79687 1.23438-2.39062 1.23438zm-.14063-5.6875q-.65625 0-1.10937.48438-.4375.46874-.53125 1.32812h3.17187v-.07812q-.04687-.82813-.45312-1.28126-.39063-.45312-1.07813-.45312zm4.53125-.78125.03125.79687q.73438-.90624 1.90625-.90624 2.01563 0 2.03125 2.26562v4.1875h-1.09375v-4.20312q0-.67188-.3125-1-.29687-.32813-.95312-.32813-.53125 0-.9375.28125-.39063.28125-.60938.73438v4.51562h-1.07812v-6.34375zm5.6875 3.10937q0-.92187.35938-1.67187.375-.75 1.03125-1.14063.65625-.40624 1.48437-.40624 1.29688 0 2.09375.89062.8125.89062.8125 2.39062v.07813q0 .92187-.35937 1.65625-.35938.73438-1.01563 1.15625-.65625.40625-1.51562.40625-1.28125 0-2.09375-.89062-.79688-.90626-.79688-2.39063zm1.09375.14063q0 1.04687.48438 1.6875.5.64063 1.3125.64063.82812 0 1.3125-.64063.48437-.65625.48437-1.82813 0-1.03124-.5-1.67187-.48437-.65625-1.3125-.65625-.79687 0-1.29687.64062-.48438.625-.48438 1.82813zm7.67188-4.78125v1.53125h1.17187v.84375h-1.17187v3.92188q0 .39062.15625.57812.15625.1875.53125.1875.1875 0 .51562-.0625v.875q-.42187.125-.82812.125-.71875 0-1.09375-.4375-.375-.45312-.375-1.26562v-3.92188h-1.15625v-.84375h1.15625v-1.53125zm6.43749 7.875q-.09375-.1875-.15625-.67188-.75.79688-1.79688.79688-.9375 0-1.54686-.53125-.59375-.53125-.59375-1.35937 0-.98438.75-1.53126.74999-.54687 2.12499-.54687h1.04688v-.5q0-.5625-.34376-.89063-.32812-.34374-1-.34374-.57812 0-.96874.29687-.39063.28125-.39063.70313h-1.09374q0-.48438.32812-.92188.34375-.4375.92187-.6875.57812-.26562 1.26562-.26562 1.10938 0 1.71876.54687.625.54687.65624 1.5v2.92187q0 .875.21876 1.39063v.09375zm-1.79687-.82812q.51562 0 .96874-.26563.45313-.26563.65626-.6875v-1.29687h-.84376q-2 0-2 1.17187 0 .5.34376.79687.34374.28126.875.28126zm2.46874-6.84376h-3.93749v-.84374h3.93749z"/><path d="m88.55625 302.29117-1.04687 1.07813v2.89062h-1.125v-8.53125h1.125v4.21875l3.79687-4.21875h1.35938l-3.35938 3.76563 3.625 4.76562h-1.34375zm9.57813 3.96875q-.09375-.1875-.15625-.67188-.75.79688-1.79688.79688-.9375 0-1.54687-.53125-.59375-.53125-.59375-1.35937 0-.98438.75-1.53126.75-.54687 2.125-.54687h1.04687v-.5q0-.5625-.34375-.89063-.32812-.34374-1-.34374-.57812 0-.96875.29687-.39062.28125-.39062.70313h-1.09375q0-.48438.32812-.92188.34375-.4375.92188-.6875.57812-.26562 1.26562-.26562 1.10938 0 1.71875.54687.625.54687.65625 1.5v2.92187q0 .875.21875 1.39063v.09375zm-1.79688-.82812q.51563 0 .96875-.26563.45313-.26563.65625-.6875v-1.29687h-.84375q-2 0-2 1.17187 0 .5.34375.79687.34375.28126.875.28126zm7.95313-4.54688q-.25-.03125-.53125-.03125-1.07813 0-1.45313.90625v4.5h-1.07812v-6.34375h1.04687l.01563.73437q.53125-.84374 1.51562-.84374.3125 0 .48438.07812zm4.84375 5.375q-.09375-.1875-.15625-.67188-.75.79688-1.79688.79688-.9375 0-1.54687-.53125-.59375-.53125-.59375-1.35937 0-.98438.75-1.53126.75-.54687 2.125-.54687h1.04687v-.5q0-.5625-.34375-.89063-.32812-.34374-1-.34374-.57812 0-.96875.29687-.39062.28125-.39062.70313h-1.09375q0-.48438.32812-.92188.34375-.4375.92188-.6875.57812-.26562 1.26562-.26562 1.10938 0 1.71875.54687.625.54687.65625 1.5v2.92187q0 .875.21875 1.39063v.09375zm-1.79688-.82812q.51563 0 .96875-.26563.45313-.26563.65625-.6875v-1.29687h-.84375q-2 0-2 1.17187 0 .5.34375.79687.34375.28126.875.28126zm6.0625.82812h-1.07812v-9h1.07812zm3 0h-1.07812v-6.34375h1.07812zm-1.17187-8.01562q0-.26563.15625-.45313.17187-.1875.48437-.1875.3125 0 .46875.1875.17188.1875.17188.45313 0 .25-.17188.4375-.15625.17187-.46875.17187-.3125 0-.48437-.17187-.15625-.1875-.15625-.4375zm6.6875 6.32812q0-.4375-.34375-.67188-.32813-.25-1.15625-.42187-.8125-.17187-1.29688-.42187-.48437-.25-.71875-.57813-.21875-.34375-.21875-.8125 0-.78125.65625-1.3125.65625-.54687 1.6875-.54687 1.07813 0 1.73438.5625.67187.54687.67187 1.40624h-1.07812q0-.4375-.39063-.75-.375-.32812-.9375-.32812-.59375 0-.9375.26562-.32812.25-.32812.65626 0 .39062.3125.59374.3125.20313 1.125.39063.8125.17187 1.3125.42187.5.25.73437.60938.25.35938.25.85938 0 .85937-.6875 1.375-.67187.51562-1.75.51562-.76562 0-1.35937-.26562-.57813-.28126-.90625-.76563-.32813-.48437-.32813-1.04687h1.07813q.03125.54687.4375.875.40625.3125 1.07812.3125.60938 0 .98438-.25.375-.25.375-.67188zm3.78125-6.1875v1.53125h1.17187v.84375h-1.17187v3.92188q0 .39062.15625.57812.15625.1875.53125.1875.1875 0 .51562-.0625v.875q-.42187.125-.82812.125-.71875 0-1.09375-.4375-.375-.45312-.375-1.26562v-3.92188h-1.15625v-.84375h1.15625v-1.53125zm5.15624 8q-1.29688 0-2.10938-.84375-.79686-.85937-.79686-2.28125v-.1875q0-.95312.35936-1.6875.35938-.75 1-1.15625.65626-.42187 1.40626-.42187 1.23437 0 1.92187.8125.6875.8125.6875 2.32812v.45312h-4.29687q.03124.9375.54687 1.51563.53125.57813 1.34375.57813.5625 0 .95312-.23438.40626-.23438.71876-.625l.65624.51562q-.79687 1.23438-2.39062 1.23438zm-.14062-5.6875q-.65626 0-1.10938.48438-.4375.46874-.53125 1.32812h3.17187v-.07812q-.04687-.82813-.45312-1.28126-.39062-.45312-1.07812-.45312z"/><path d="m95.10313 351.73438h-3.59375v3.76562h-1.125v-8.53125h5.29687v.92187h-4.17187v2.92188h3.59375zm5.1875-1.60938q-.25-.03125-.53125-.03125-1.07813 0-1.45313.90625v4.5h-1.07812v-6.34375h1.04687l.01563.73437q.53125-.84374 1.51562-.84374.3125 0 .48438.07812zm4.84375 5.375q-.09375-.1875-.15625-.67188-.75.79688-1.79688.79688-.9375 0-1.54687-.53125-.59375-.53125-.59375-1.35937 0-.98438.75-1.53126.75-.54687 2.125-.54687h1.04687v-.5q0-.5625-.34375-.89063-.32812-.34374-1-.34374-.57812 0-.96875.29687-.39062.28125-.39062.70313h-1.09375q0-.48438.32812-.92188.34375-.4375.92188-.6875.57812-.26562 1.26562-.26562 1.10938 0 1.71875.54687.625.54687.65625 1.5v2.92187q0 .875.21875 1.39063v.09375zm-1.79688-.82812q.51563 0 .96875-.26563.45313-.26563.65625-.6875v-1.29687h-.84375q-2 0-2 1.17187 0 .5.34375.79687.34375.28126.875.28126zm5.90625-5.51563.03125.79687q.73438-.90624 1.90625-.90624 2.01563 0 2.03125 2.26562v4.1875h-1.09375v-4.20312q0-.67188-.3125-1-.29687-.32813-.95312-.32813-.53125 0-.9375.28125-.39063.28125-.60938.73438v4.51562h-1.07812v-6.34375zm8.51563 5.57813q.57812 0 1.01562-.34376.4375-.35937.48438-.89062h1.03125q-.03125.54688-.39063 1.04688-.34375.48437-.92187.78124-.5625.29688-1.21875.29688-1.29688 0-2.0625-.85938-.75-.875-.75-2.375v-.1875q0-.92187.32812-1.64062.34375-.71875.96875-1.10938.64063-.40624 1.51563-.40624 1.0625 0 1.76562.64062.71875.625.76563 1.65625h-1.03125q-.04688-.625-.46875-1.01563-.42188-.39062-1.03125-.39062-.82813 0-1.28125.59375-.45313.59375-.45313 1.71875v.20312q0 1.09376.45313 1.6875.45312.59376 1.28125.59376zm4.64062.76562h-1.07812v-6.34375h1.07812zm-1.17187-8.01562q0-.26563.15625-.45313.17187-.1875.48437-.1875.3125 0 .46875.1875.17188.1875.17188.45313 0 .25-.17188.4375-.15625.17187-.46875.17187-.3125 0-.48437-.17187-.15625-.1875-.15625-.4375zm4.10937 1.67187v7.07813q0 1.82812-1.65625 1.82812-.35937 0-.65625-.10938v-.85937q.1875.04687.48438.04687.35937 0 .54687-.20312.20313-.1875.20313-.6875v-7.09375zm-1.1875-1.67187q0-.26563.15625-.45313.15625-.1875.46875-.1875.3125 0 .46875.1875.17188.1875.17188.45313 0 .25-.17188.4375-.15625.17187-.46875.17187-.3125 0-.46875-.17187-.15625-.1875-.15625-.4375zm6.98437 8.01562q-.09375-.1875-.15625-.67188-.75.79688-1.79688.79688-.9375 0-1.54686-.53125-.59375-.53125-.59375-1.35937 0-.98438.75-1.53126.74999-.54687 2.12499-.54687h1.04688v-.5q0-.5625-.34376-.89063-.32812-.34374-1-.34374-.57812 0-.96874.29687-.39063.28125-.39063.70313h-1.09374q0-.48438.32812-.92188.34375-.4375.92187-.6875.57812-.26562 1.26562-.26562 1.10938 0 1.71876.54687.625.54687.65624 1.5v2.92187q0 .875.21876 1.39063v.09375zm-1.79687-.82812q.51562 0 .96874-.26563.45313-.26563.65626-.6875v-1.29687h-.84376q-2 0-2 1.17187 0 .5.34376.79687.34374.28126.875.28126z"/><path d="m96.55625 408.27133-1.04687 1.07813v2.89062h-1.125v-8.53125h1.125v4.21875l3.79687-4.21875h1.35938l-3.35938 3.76563 3.625 4.76562h-1.34375zm8.73438-1.40625q-.25-.03125-.53125-.03125-1.07813 0-1.45313.90625v4.5h-1.07812v-6.34375h1.04687l.01563.73437q.53125-.84374 1.51562-.84374.3125 0 .48438.07812zm2.10937 5.375h-1.07812v-6.34375h1.07812zm-1.17187-8.01562q0-.26563.15625-.45313.17187-.1875.48437-.1875.3125 0 .46875.1875.17188.1875.17188.45313 0 .25-.17188.4375-.15625.17187-.46875.17187-.3125 0-.48437-.17187-.15625-.1875-.15625-.4375zm5.625 8.14062q-1.29688 0-2.10938-.84375-.79687-.85937-.79687-2.28125v-.1875q0-.95312.35937-1.6875.35938-.75 1-1.15625.65625-.42187 1.40625-.42187 1.23438 0 1.92188.8125.6875.8125.6875 2.32812v.45312h-4.29688q.03125.9375.54688 1.51563.53125.57813 1.34375.57813.5625 0 .95312-.23438.40625-.23438.71875-.625l.65625.51562q-.79687 1.23438-2.39062 1.23438zm-.14063-5.6875q-.65625 0-1.10937.48438-.4375.46874-.53125 1.32812h3.17187v-.07812q-.04687-.82813-.45312-1.28126-.39063-.45312-1.07813-.45312zm5.59375 4.09375 1.57813-4.875h1.10937l-2.28125 6.34375h-.82812l-2.29688-6.34375h1.10938zm5.09375 1.46875h-1.07812v-6.34375h1.07812zm-1.17187-8.01562q0-.26563.15625-.45313.17187-.1875.48437-.1875.3125 0 .46875.1875.17188.1875.17188.45313 0 .25-.17188.4375-.15625.17187-.46875.17187-.3125 0-.48437-.17187-.15625-.1875-.15625-.4375zm4.10937 1.67187v7.07813q0 1.82812-1.65625 1.82812-.35937 0-.65625-.10938v-.85937q.1875.04687.48438.04687.35937 0 .54687-.20312.20313-.1875.20313-.6875v-7.09375zm-1.1875-1.67187q0-.26563.15625-.45313.15625-.1875.46875-.1875.3125 0 .46875.1875.17188.1875.17188.45313 0 .25-.17188.4375-.15625.17187-.46875.17187-.3125 0-.46875-.17187-.15625-.1875-.15625-.4375zm6.98437 8.01562q-.09375-.1875-.15625-.67188-.75.79688-1.79688.79688-.9375 0-1.54686-.53125-.59375-.53125-.59375-1.35937 0-.98438.75-1.53126.74999-.54687 2.12499-.54687h1.04688v-.5q0-.5625-.34376-.89063-.32812-.34374-1-.34374-.57812 0-.96874.29687-.39063.28125-.39063.70313h-1.09374q0-.48438.32812-.92188.34375-.4375.92187-.6875.57812-.26562 1.26562-.26562 1.10938 0 1.71876.54687.625.54687.65624 1.5v2.92187q0 .875.21876 1.39063v.09375zm-1.79687-.82812q.51562 0 .96874-.26563.45313-.26563.65626-.6875v-1.29687h-.84376q-2 0-2 1.17187 0 .5.34376.79687.34374.28126.875.28126z"/><path d="m96.525 468.0583h4.04688v.92186h-5.1875v-8.53126h1.14062zm5.875.92186h-1.07812v-6.34376h1.07812zm-1.17187-8.01562q0-.26564.15625-.45314.17187-.1875.48437-.1875.3125 0 .46875.1875.17188.1875.17188.45314 0 .25-.17188.4375-.15625.17186-.46875.17186-.3125 0-.48437-.17186-.15625-.1875-.15625-.4375zm5.625 8.14062q-1.29688 0-2.10938-.84376-.79687-.85936-.79687-2.28124v-.1875q0-.95312.35937-1.6875.35938-.75 1-1.15626.65625-.42186 1.40625-.42186 1.23438 0 1.92188.8125.6875.8125.6875 2.32812v.45314h-4.29688q.03125.9375.54688 1.5156.53125.57814 1.34375.57814.5625 0 .95312-.23438.40625-.23436.71875-.625l.65625.51564q-.79687 1.23436-2.39062 1.23436zm-.14063-5.6875q-.65625 0-1.10937.48438-.4375.46876-.53125 1.32812h3.17187v-.07812q-.04687-.82814-.45312-1.28124-.39063-.45314-1.07813-.45314zm4.98438-2.3125v1.53124h1.17187v.84376h-1.17187v3.92188q0 .39062.15625.57812.15625.1875.53125.1875.1875 0 .51562-.0625v.875q-.42187.125-.82812.125-.71875 0-1.09375-.4375-.375-.45312-.375-1.26562v-3.92188h-1.15625v-.84376h1.15625v-1.53124zm6.4375 7.25q-.625.75-1.85938.75-1.01562 0-1.54687-.59376-.53125-.59374-.53125-1.75v-4.125h1.07812v4.09376q0 1.45314 1.17188 1.45314 1.25 0 1.65625-.9375v-4.6094h1.09375v6.34376h-1.03125zm5.17187-.84376 1.57813-4.875h1.10937l-2.28125 6.34376h-.82812l-2.29688-6.34376h1.10938zm7.82812 1.46876q-.09375-.1875-.15625-.67186-.75.79686-1.79688.79686-.9375 0-1.54686-.53126-.59375-.53124-.59375-1.35936 0-.98438.75-1.53124.74999-.5469 2.12499-.5469h1.04688v-.5q0-.5625-.34376-.8906-.32812-.34376-1-.34376-.57812 0-.96874.29686-.39063.28126-.39063.70314h-1.09374q0-.48438.32812-.92188.34375-.4375.92187-.6875.57812-.26562 1.26562-.26562 1.10938 0 1.71876.54686.625.5469.65624 1.5v2.9219q0 .875.21876 1.3906v.09376zm-1.79687-.82812q.51562 0 .96874-.26564.45313-.2656.65626-.6875v-1.29686h-.84376q-2 0-2 1.17186 0 .5.34376.7969.34374.28124.875.28124z"/><path d="m81.94688 525.7203h-1.125l-4.29688-6.57815v6.57815h-1.14062v-8.5313h1.14062l4.29688 6.6094v-6.6094h1.125zm3.45312 0h-1.09375v-6.3438h1.09375zm1.46875-7.6563h-3.9375v-.8437h3.9375zm.09375 4.4375q0-1.4687.6875-2.3437.6875-.89065 1.8125-.89065 1.10938 0 1.76563.75v-3.29685h1.07812v9h-1l-.04687-.6875q-.65625.8125-1.8125.8125-1.09375 0-1.79688-.9063-.6875-.9062-.6875-2.35935zm1.07813.125q0 1.07815.4375 1.6875.45312.6094 1.23437.6094 1.03125 0 1.51563-.9375v-2.90625q-.48438-.89065-1.5-.89065-.79688 0-1.25.6094-.4375.6094-.4375 1.8281zm8.8125 3.2188q-1.29688 0-2.10938-.8438-.79687-.85935-.79687-2.2812v-.1875q0-.95315.35937-1.6875.35938-.75 1-1.1563.65625-.42185 1.40625-.42185 1.23438 0 1.92188.8125.6875.8125.6875 2.32815v.4531h-4.29688q.03125.9375.54688 1.5156.53125.57815 1.34375.57815.5625 0 .95312-.23435.40625-.2344.71875-.625l.65625.5156q-.79687 1.2344-2.39062 1.2344zm-.14063-5.6875q-.65625 0-1.10937.48435-.4375.46875-.53125 1.32815h3.17187v-.07815q-.04687-.82815-.45312-1.28125-.39063-.4531-1.07813-.4531zm6.57813.1875q-.25-.0313-.53125-.0313-1.07813 0-1.45313.9063v4.5h-1.07812v-6.3438h1.04687l.01563.7344q.53125-.84375 1.51562-.84375.3125 0 .48438.07815zm2.10937 5.375h-1.07812v-9h1.07812zm5.73438 0q-.09375-.1875-.15625-.6719-.75.7969-1.79688.7969-.9375 0-1.54687-.5313-.59375-.5312-.59375-1.35935 0-.98435.75-1.53125.75-.5469 2.125-.5469h1.04687v-.5q0-.5625-.34375-.8906-.32812-.34375-1-.34375-.57812 0-.96875.29685-.39062.2813-.39062.70315h-1.09375q0-.48435.32812-.92185.34375-.4375.92188-.6875.57812-.26565 1.26562-.26565 1.10938 0 1.71875.54685.625.5469.65625 1.5v2.9219q0 .875.21875 1.3906v.0938zm-1.79688-.82815q.51563 0 .96875-.26565.45313-.2656.65625-.6875v-1.29685h-.84375q-2 0-2 1.17185 0 .5.34375.7969.34375.28125.875.28125zm5.90625-5.51565.03125.7969q.73438-.90625 1.90625-.90625 2.01563 0 2.03125 2.26565v4.1875h-1.09375v-4.20315q0-.67185-.3125-1-.29687-.32815-.95312-.32815-.53125 0-.9375.2813-.39063.2812-.60938.73435v4.51565h-1.07812v-6.3438zm5.71875 3.125q0-1.4687.6875-2.3437.6875-.89065 1.8125-.89065 1.10938 0 1.76563.75v-3.29685h1.07812v9h-1l-.04687-.6875q-.65625.8125-1.8125.8125-1.09375 0-1.79688-.9063-.6875-.9062-.6875-2.35935zm1.07813.125q0 1.07815.4375 1.6875.45312.6094 1.23437.6094 1.03125 0 1.51563-.9375v-2.90625q-.48438-.89065-1.5-.89065-.79688 0-1.25.6094-.4375.6094-.4375 1.8281zm8.81249 3.2188q-1.29688 0-2.10938-.8438-.79686-.85935-.79686-2.2812v-.1875q0-.95315.35936-1.6875.35938-.75 1-1.1563.65626-.42185 1.40626-.42185 1.23437 0 1.92187.8125.6875.8125.6875 2.32815v.4531h-4.29687q.03124.9375.54687 1.5156.53125.57815 1.34375.57815.5625 0 .95312-.23435.40626-.2344.71876-.625l.65624.5156q-.79687 1.2344-2.39062 1.2344zm-.14062-5.6875q-.65626 0-1.10938.48435-.4375.46875-.53125 1.32815h3.17187v-.07815q-.04687-.82815-.45312-1.28125-.39062-.4531-1.07812-.4531z"/><path d="m116.10313 580.22595h-3.57813l-.79687 2.23435h-1.15625l3.25-8.5312h.98437l3.26563 8.5312h-1.15625zm-3.23438-.92185h2.90625l-1.45312-3.9844zm9.03125-.64065q-1.4375-.42185-2.10937-1.03125-.65625-.6094-.65625-1.5 0-1 .79687-1.65625.8125-.67185 2.10938-.67185.875 0 1.5625.3437.6875.3438 1.0625.9375.39062.5938.39062 1.3125h-1.14062q0-.7812-.5-1.2187-.48438-.4375-1.375-.4375-.82813 0-1.29688.375-.46875.35935-.46875 1 0 .5312.4375.8906.45313.3594 1.51563.65625 1.0625.29685 1.65625.65625.60937.3594.89062.84375.29688.48435.29688 1.125 0 1.04685-.8125 1.67185-.8125.625-2.15625.625-.89063 0-1.65625-.3437-.75-.3438-1.17188-.9219-.40625-.59375-.40625-1.3281h1.125q0 .7656.57813 1.2187.57812.45315 1.53125.45315.89062 0 1.35937-.35935.46875-.375.46875-1 0-.625-.4375-.9688-.4375-.3437-1.59375-.67185zm7.3125 2.29685 2.4375-7.0312h1.23437l-3.17187 8.5312h-.98438l-3.15624-8.5312h1.21875z"/><path d="m56.509377 635.8567v3.34374h-1.125v-8.53124h3.15625q1.390623 0 2.1875.71874.796873.70312.796873 1.89062 0 1.23438-.78125 1.90624-.765623.6719-2.21875.6719zm0-.9219h2.03125q.90625 0 1.375-.42186.484373-.42188.484373-1.21874 0-.76564-.484373-1.21876-.46875-.46874-1.3125-.48438h-2.09375zm10.625003 4.26564q-.09375-.1875-.15625-.67188-.75.79688-1.79688.79688-.9375 0-1.546873-.53124-.59375-.53126-.59375-1.3594 0-.98436.75-1.53124.750003-.54686 2.125003-.54686h1.04687v-.5q0-.5625-.34375-.89064-.32812-.34376-1-.34376-.57812 0-.96875.2969-.39062.28124-.39062.7031h-1.093753q0-.48436.328123-.92186.34375-.4375.92188-.6875.57812-.26564 1.26562-.26564 1.10938 0 1.71875.5469.625.54686.65625 1.5v2.92186q0 .875.21875 1.39064v.09374zm-1.79688-.82814q.51563 0 .96875-.2656.45313-.26564.65625-.6875v-1.2969h-.84375q-2 0-2 1.1719 0 .5.34375.79686.34375.28124.875.28124zm2.46875-6.84374h-3.9375v-.84376h3.9375zm5.48438 2.29688q-.25-.03124-.53125-.03124-1.07813 0-1.45313.90624v4.5h-1.07812v-6.34374h1.04687l.01563.73436q.53125-.84376 1.51562-.84376.3125 0 .48438.07814zm3.5625 5.5q-1.29688 0-2.10938-.84374-.79687-.8594-.79687-2.28126v-.1875q0-.95314.35937-1.6875.35938-.75 1-1.15624.65625-.4219 1.40625-.4219 1.23438 0 1.92188.8125.6875.8125.6875 2.32814v.45312h-4.29688q.03125.9375.54688 1.51564.53125.5781 1.34375.5781.5625 0 .95312-.23436.40625-.23438.71875-.625l.65625.51562q-.79687 1.23438-2.39062 1.23438zm-.14063-5.6875q-.65625 0-1.10937.48436-.4375.46876-.53125 1.32814h3.17187v-.07814q-.04687-.8281-.45312-1.28124-.39063-.45312-1.07813-.45312zm2-2.10938h-3.9375v-.84376h3.9375zm2.625 1.32814v7.0781q0 1.82814-1.65625 1.82814-.35937 0-.65625-.10938v-.85936q.1875.04686.48438.04686.35937 0 .54687-.20312.20313-.1875.20313-.6875v-7.09374zm-1.1875-1.6719q0-.2656.15625-.4531.15625-.1875.46875-.1875.3125 0 .46875.1875.17188.1875.17188.4531 0 .25-.17188.4375-.15625.1719-.46875.1719-.3125 0-.46875-.1719-.15625-.1875-.15625-.4375zm6.98438 8.01564q-.09375-.1875-.15625-.67188-.75.79688-1.79688.79688-.9375 0-1.54687-.53124-.59375-.53126-.59375-1.3594 0-.98436.75-1.53124.75-.54686 2.125-.54686h1.04687v-.5q0-.5625-.34375-.89064-.32812-.34376-1-.34376-.57812 0-.96875.2969-.39062.28124-.39062.7031h-1.09375q0-.48436.32812-.92186.34375-.4375.92188-.6875.57812-.26564 1.26562-.26564 1.10938 0 1.71875.5469.625.54686.65625 1.5v2.92186q0 .875.21875 1.39064v.09374zm-1.79688-.82814q.51563 0 .96875-.2656.45313-.26564.65625-.6875v-1.2969h-.84375q-2 0-2 1.1719 0 .5.34375.79686.34375.28124.875.28124zm2.46875-6.84374h-3.9375v-.84376h3.9375zm6.10938 5.98438q0-.4375-.34375-.67188-.32813-.25-1.15625-.42186-.8125-.1719-1.29688-.4219-.48437-.25-.71875-.5781-.21875-.34376-.21875-.8125 0-.78126.65625-1.3125.65625-.5469 1.6875-.5469 1.07813 0 1.73438.5625.67187.5469.67187 1.40626h-1.07812q0-.4375-.39063-.75-.375-.32812-.9375-.32812-.59375 0-.9375.26562-.32812.25-.32812.65624 0 .39064.3125.59376.3125.20314 1.125.39064.8125.17186 1.3125.42186.5.25.73437.60938.25.35936.25.85936 0 .8594-.6875 1.375-.67187.51564-1.75.51564-.76562 0-1.35937-.26564-.57813-.28124-.90625-.7656-.32813-.4844-.32813-1.0469h1.07813q.03125.5469.4375.875.40625.3125 1.07812.3125.60938 0 .98438-.25.375-.25.375-.67186zm7.39062.21876 1.57813-4.875h1.10937l-2.28125 6.34374h-.82812l-2.29688-6.34374h1.10938zm7.82813 1.46874q-.09375-.1875-.15625-.67188-.75.79688-1.79688.79688-.9375 0-1.54687-.53124-.59375-.53126-.59375-1.3594 0-.98436.75-1.53124.75-.54686 2.125-.54686h1.04687v-.5q0-.5625-.34375-.89064-.32812-.34376-1-.34376-.57812 0-.96875.2969-.39062.28124-.39062.7031h-1.09375q0-.48436.32812-.92186.34375-.4375.92188-.6875.57812-.26564 1.26562-.26564 1.10938 0 1.71875.5469.625.54686.65625 1.5v2.92186q0 .875.21875 1.39064v.09374zm-1.79688-.82814q.51563 0 .96875-.2656.45313-.26564.65625-.6875v-1.2969h-.84375q-2 0-2 1.1719 0 .5.34375.79686.34375.28124.875.28124zm6.0625.82814h-1.07812v-9h1.07812zm5.51563-1.6875q0-.4375-.34375-.67188-.32813-.25-1.15625-.42186-.8125-.1719-1.29688-.4219-.48437-.25-.71875-.5781-.21875-.34376-.21875-.8125 0-.78126.65625-1.3125.65625-.5469 1.6875-.5469 1.07813 0 1.73438.5625.67187.5469.67187 1.40626h-1.07812q0-.4375-.39063-.75-.375-.32812-.9375-.32812-.59375 0-.9375.26562-.32812.25-.32812.65624 0 .39064.3125.59376.3125.20314 1.125.39064.8125.17186 1.3125.42186.5.25.73437.60938.25.35936.25.85936 0 .8594-.6875 1.375-.67187.51564-1.75.51564-.76562 0-1.35937-.26564-.57813-.28124-.90625-.7656-.32813-.4844-.32813-1.0469h1.07813q.03125.5469.4375.875.40625.3125 1.07812.3125.60938 0 .98438-.25.375-.25.375-.67186zm3.78125-6.1875v1.53126h1.17187v.84374h-1.17187v3.92186q0 .39064.15625.57814.15625.1875.53125.1875.1875 0 .51562-.0625v.875q-.42187.125-.82812.125-.71875 0-1.09375-.4375-.375-.45314-.375-1.26564v-3.92186h-1.15625v-.84374h1.15625v-1.53126zm3.70312 7.875h-1.07812v-6.34374h1.07812zm-1.17187-8.01564q0-.2656.15625-.4531.17187-.1875.48437-.1875.3125 0 .46875.1875.17188.1875.17188.4531 0 .25-.17188.4375-.15625.1719-.46875.1719-.3125 0-.48437-.1719-.15625-.1875-.15625-.4375zm6.68749 6.32814q0-.4375-.34375-.67188-.32813-.25-1.15625-.42186-.8125-.1719-1.29688-.4219-.48437-.25-.71874-.5781-.21876-.34376-.21876-.8125 0-.78126.65626-1.3125.65624-.5469 1.6875-.5469 1.07812 0 1.73437.5625.67187.5469.67187 1.40626h-1.07812q0-.4375-.39062-.75-.375-.32812-.9375-.32812-.59376 0-.9375.26562-.32813.25-.32813.65624 0 .39064.3125.59376.3125.20314 1.125.39064.8125.17186 1.3125.42186.5.25.73437.60938.25.35936.25.85936 0 .8594-.6875 1.375-.67187.51564-1.75.51564-.76562 0-1.35937-.26564-.57813-.28124-.90625-.7656-.32812-.4844-.32812-1.0469h1.07812q.03125.5469.4375.875.40625.3125 1.07812.3125.60938 0 .98438-.25.375-.25.375-.67186z"/><path d="m142.22812 693.46875q0 1.76565-.73438 2.71875-.73437.9375-2.14062.9375-1.40625 0-2.14062-.9219-.73438-.92185-.75-2.6406v-1.5781q0-1.7813.73437-2.70315.75-.9375 2.14063-.9375 1.39062 0 2.125.92185.75.9219.76562 2.64065zm-1.70312-1.71875q0-1.0625-.29688-1.5469-.28125-.48435-.89062-.48435-.59376 0-.89063.46875-.28125.4531-.29687 1.4375v2.0625q0 1.0469.28124 1.5625.28126.5.92188.5.60938 0 .89062-.4844.28126-.48435.28126-1.48435z"/><path d="m241.72188 697h-5.84375v-1.15625l2.76562-2.95315q.5625-.60935.82813-1.0781.28125-.46875.28125-.875 0-.5781-.29688-.8906-.28125-.32815-.8125-.32815-.57812 0-.90625.39065-.32812.3906-.32812 1.04685h-1.70313q0-.78125.375-1.42185.375-.6563 1.04688-1.01565.6875-.375 1.54687-.375 1.3125 0 2.04688.64065.73437.625.73437 1.7812 0 .64065-.32812 1.2969-.32813.65625-1.125 1.53125l-1.9375 2.04685h3.65625zm6.90625-3.53125q0 1.76565-.73438 2.71875-.73437.9375-2.14062.9375-1.40625 0-2.14063-.9219-.73437-.92185-.75-2.6406v-1.5781q0-1.7813.73438-2.70315.75-.9375 2.14062-.9375 1.39063 0 2.125.92185.75.9219.76563 2.64065zm-1.70313-1.71875q0-1.0625-.29687-1.5469-.28125-.48435-.89063-.48435-.59375 0-.89062.46875-.28125.4531-.29688 1.4375v2.0625q0 1.0469.28125 1.5625.28125.5.92188.5.60937 0 .89062-.4844.28125-.48435.28125-1.48435z"/><path d="m343.79376 693.78125h.96874v1.375h-.96874v1.84375h-1.70312v-1.84375h-3.48438l-.07812-1.0625 3.54686-5.625h1.71876zm-3.57812 0h1.875v-3l-.10938.1875zm11.3125-.3125q0 1.76565-.73438 2.71875-.73436.9375-2.14062.9375-1.40624 0-2.14064-.9219-.73436-.92185-.75-2.6406v-1.5781q0-1.7813.7344-2.70315.75-.9375 2.1406-.9375 1.39064 0 2.125.92185.75.9219.76564 2.64065zm-1.70314-1.71875q0-1.0625-.29686-1.5469-.28124-.48435-.89064-.48435-.59374 0-.8906.46875-.28126.4531-.2969 1.4375v2.0625q0 1.0469.28126 1.5625.28124.5.92188.5.60936 0 .89062-.4844.28124-.48435.28124-1.48435z"/><path d="m446.27188 688.375v1.40625h-.15625q-1.15625.01565-1.85937.59375-.6875.5781-.82813 1.6094.67187-.6875 1.70313-.6875 1.125 0 1.78124.79685.65626.79685.65626 2.09375 0 .8281-.35938 1.5-.35938.6719-1.03125 1.0625-.65625.375-1.48437.375-1.34376 0-2.17188-.9375-.82812-.9531-.82812-2.5156v-.6094q0-1.3906.51562-2.4531.53125-1.0625 1.5-1.64065.98438-.57815 2.28125-.59375zm-1.65625 4.28125q-.40625 0-.75.21875-.32813.2031-.48437.5625v.5156q0 .8438.32812 1.32815.34375.46875.95312.46875.54688 0 .875-.4219.34376-.4375.34376-1.125 0-.7031-.34376-1.125-.34374-.42185-.92187-.42185zm9.8125.8125q0 1.76565-.73437 2.71875-.73438.9375-2.14063.9375-1.40625 0-2.14063-.9219-.73437-.92185-.75-2.6406v-1.5781q0-1.7813.73438-2.70315.75-.9375 2.14062-.9375 1.39063 0 2.125.92185.75.9219.76563 2.64065zm-1.70313-1.71875q0-1.0625-.29687-1.5469-.28125-.48435-.89063-.48435-.59374 0-.89062.46875-.28125.4531-.29688 1.4375v2.0625q0 1.0469.28126 1.5625.28124.5.92187.5.60937 0 .89063-.4844.28124-.48435.28124-1.48435z"/><path d="m550.1406 690.7344q0 .625-.3125 1.10935-.3125.46875-.85935.76565.625.29685.98435.8281.375.5156.375 1.21875 0 1.14065-.7812 1.8125-.76565.65625-2.1094.65625-1.3281 0-2.1094-.65625-.7656-.67185-.7656-1.8125 0-.70315.3594-1.23435.35935-.5313.98435-.8125-.54685-.2969-.85935-.76565-.3125-.48435-.3125-1.10935 0-1.0938.7187-1.7344.7344-.65625 1.9844-.65625 1.25 0 1.96875.65625.73435.6406.73435 1.7344zm-1.5156 3.79685q0-.54685-.3281-.875-.3125-.34375-.8594-.34375-.5469 0-.875.3281-.3125.32815-.3125.89065 0 .54685.3125.89065.3281.3281.8906.3281.5469 0 .8594-.3125.3125-.3281.3125-.90625zm-.1719-3.71875q0-.5-.2656-.7969-.2656-.29685-.75-.29685-.46875 0-.7344.29685-.2656.2813-.2656.7969 0 .5156.2656.8281.26565.3125.7344.3125.4844 0 .75-.3125.2656-.3125.2656-.8281zm8.875 2.65625q0 1.76565-.73435 2.71875-.73435.9375-2.14065.9375-1.4062 0-2.1406-.9219-.7344-.92185-.75-2.6406v-1.5781q0-1.7813.7344-2.70315.75-.9375 2.1406-.9375 1.3906 0 2.125.92185.75.9219.7656 2.64065zm-1.7031-1.71875q0-1.0625-.2969-1.5469-.2812-.48435-.8906-.48435-.59375 0-.8906.46875-.2813.4531-.2969 1.4375v2.0625q0 1.0469.28125 1.5625.28125.5.92185.5.6094 0 .89065-.4844.28125-.48435.28125-1.48435z"/></g></svg>