<svg fill="none" height="729" stroke-linecap="square" stroke-miterlimit="10" viewBox="0 0 580 729" width="580" xmlns="http://www.w3.org/2000/svg" xmlns:xlink="http://www.w3.org/1999/xlink"><clipPath id="a"><path d="m114 29h437v644h-437z"/></clipPath><path d="m0 0h580v729h-580z" fill="none"/><path d="m114.5 29.5v644" stroke="#333" stroke-linecap="butt"/><path d="m259.5 29.5v644" stroke="#ccc" stroke-linecap="butt"/><path d="m405.5 29.5v644" stroke="#ccc" stroke-linecap="butt"/><path d="m551.5 29.5v644" stroke="#ccc" stroke-linecap="butt"/><path d="m162.5 29.5v644"/><path d="m211.5 29.5v644"/><path d="m308.5 29.5v644"/><path d="m356.5 29.5v644"/><path d="m453.5 29.5v644"/><path d="m502.5 29.5v644"/><path d="m114.5 673.5v-644" stroke="#000" stroke-linecap="butt"/><path clip-path="url(#a)" d="m114 86v-37h276c1.10458 0 2 .89543 2 2v33c0 1.10457-.89542 2-2 2z"/><path clip-path="url(#a)" d="m114 86v-37h276c1.10458 0 2 .89543 2 2v33c0 1.10457-.89542 2-2 2z" fill="#0b5394"/><path clip-path="url(#a)" d="m114 143v-37h170c1.10458 0 2 .89543 2 2v33c0 1.10457-.89542 2-2 2z"/><path clip-path="url(#a)" d="m114 143v-37h170c1.10458 0 2 .89543 2 2v33c0 1.10457-.89542 2-2 2z" fill="#0b5394"/><path clip-path="url(#a)" d="m114 200v-37h157c1.10458 0 2 .89543 2 2v33c0 1.10457-.89542 2-2 2z"/><path clip-path="url(#a)" d="m114 200v-37h157c1.10458 0 2 .89543 2 2v33c0 1.10457-.89542 2-2 2z" fill="#0b5394"/><path clip-path="url(#a)" d="m114 257v-37h147c1.10458 0 2 .89543 2 2v33c0 1.10458-.89542 2-2 2z"/><path clip-path="url(#a)" d="m114 257v-37h147c1.10458 0 2 .89543 2 2v33c0 1.10458-.89542 2-2 2z" fill="#0b5394"/><path clip-path="url(#a)" d="m114 313v-37h120c1.10457 0 2 .89542 2 2v33c0 1.10458-.89543 2-2 2z"/><path clip-path="url(#a)" d="m114 313v-37h120c1.10457 0 2 .89542 2 2v33c0 1.10458-.89543 2-2 2z" fill="#0b5394"/><path clip-path="url(#a)" d="m114 370v-37h100c1.10457 0 2 .89542 2 2v33c0 1.10458-.89543 2-2 2z"/><path clip-path="url(#a)" d="m114 370v-37h100c1.10457 0 2 .89542 2 2v33c0 1.10458-.89543 2-2 2z" fill="#0b5394"/><path clip-path="url(#a)" d="m114 427v-37h77c1.10457 0 2 .89542 2 2v33c0 1.10458-.89543 2-2 2z"/><path clip-path="url(#a)" d="m114 427v-37h77c1.10457 0 2 .89542 2 2v33c0 1.10458-.89543 2-2 2z" fill="#0b5394"/><path clip-path="url(#a)" d="m114 483v-37h72c1.10457 0 2 .89542 2 2v33c0 1.10458-.89543 2-2 2z"/><path clip-path="url(#a)" d="m114 483v-37h72c1.10457 0 2 .89542 2 2v33c0 1.10458-.89543 2-2 2z" fill="#0b5394"/><path clip-path="url(#a)" d="m114 540v-37h60c1.10457 0 2 .89542 2 2v33c0 1.10455-.89543 2-2 2z"/><path clip-path="url(#a)" d="m114 540v-37h60c1.10457 0 2 .89542 2 2v33c0 1.10455-.89543 2-2 2z" fill="#0b5394"/><path clip-path="url(#a)" d="m114 597v-37h59c1.10457 0 2 .89545 2 2v33c0 1.10455-.89543 2-2 2z"/><path clip-path="url(#a)" d="m114 597v-37h59c1.10457 0 2 .89545 2 2v33c0 1.10455-.89543 2-2 2z" fill="#0b5394"/><path clip-path="url(#a)" d="m114 654v-37h427c1.10455 0 2 .89545 2 2v33c0 1.10455-.89545 2-2 2z"/><path clip-path="url(#a)" d="m114 654v-37h427c1.10455 0 2 .89545 2 2v33c0 1.10455-.89545 2-2 2z" fill="#0b5394"/><path d="m114.5 679.5v-12" stroke="#000" stroke-linecap="butt"/><path d="m259.5 679.5v-12" stroke="#000" stroke-linecap="butt"/><path d="m405.5 679.5v-12" stroke="#000" stroke-linecap="butt"/><path d="m551.5 679.5v-12" stroke="#000" stroke-linecap="butt"/><path d="m360.55646 68.09375q-.67188.640625-1.54688.640625-1.14062 0-1.82812-.765625-.67188-.78125-.67188-2.09375 0-.84375.35938-1.546875.375-.703125 1.03124-1.09375.65626-.390625 1.48438-.390625.84375 0 1.5.421875.65625.421875 1.01562 1.21875.35938.796875.375 1.8125v.625q0 2.140625-1.0625 3.359375-1.0625 1.21875-3.01562 1.296875h-.40625v-1.40625l.375-.015625q2.20313-.09375 2.39063-2.0625zm-1.14063-.65625q.42187 0 .70313-.203125.29687-.21875.45312-.515625v-.6875q0-.859375-.32812-1.328125-.32813-.484375-.875-.484375-.51563 0-.84376.46875-.32812.453125-.32812 1.15625 0 .703125.3125 1.15625.32812.4375.90625.4375zm4.42187-.140625.5-4.328125h4.78126v1.40625h-3.39063l-.21875 1.84375q.60938-.328125 1.28125-.328125 1.21875 0 1.90625.765625.70312.75.70312 2.109375 0 .828125-.35937 1.484375-.34375.640625-1 1.015625-.64063.359375-1.53125.359375-.76562 0-1.4375-.3125-.65625-.328125-1.04688-.890625-.375-.5625-.40624-1.296875h1.6875q.04687.53125.35937.828125.32813.296875.84375.296875.57812 0 .875-.40625.3125-.421875.3125-1.171875 0-.734375-.35938-1.109375-.34374-.390625-1-.390625-.60937 0-.98437.3125l-.15625.15625zm6.90626 3.375q0-.40625.26562-.65625.28125-.25.6875-.25.42188 0 .6875.25.28125.25.28125.65625 0 .390625-.28125.640625-.26562.25-.6875.25-.40625 0-.6875-.25-.26562-.25-.26562-.640625zm4.5625-4.1875h.90624q.64063 0 .95313-.3125.3125-.328125.3125-.859375 0-.515625-.3125-.796875-.29687-.296875-.84375-.296875-.48438 0-.8125.265625-.32812.265625-.32812.6875h-1.6875q0-.65625.35937-1.1875.35937-.53125 1-.828125.65625-.3125 1.4375-.3125 1.34375 0 2.10937.65625.78126.640625.78126 1.78125 0 .59375-.35938 1.09375-.35938.484375-.9375.734375.71875.265625 1.0625.78125.35938.515625.35938 1.21875 0 1.140625-.82813 1.828125-.82813.6875-2.1875.6875-1.28125 0-2.09375-.671875-.8125-.6875-.8125-1.796875h1.6875q0 .484375.35938.796875.375.296875.89062.296875.60938 0 .95312-.3125.34376-.328125.34376-.859375 0-1.265625-1.40626-1.265625h-.90624zm9.875-3.609375v1.40625h-.15626q-1.15624.015625-1.85937.59375-.6875.578125-.82813 1.609375.67188-.6875 1.70313-.6875 1.125 0 1.78125.796875.65625.796875.65625 2.09375 0 .828125-.35937 1.5-.35938.671875-1.03126 1.0625-.65624.375-1.48437.375-1.34375 0-2.17187-.9375-.82813-.953125-.82813-2.515625v-.609375q0-1.390625.51563-2.453125.53124-1.0625 1.5-1.640625.98437-.578125 2.28124-.59375zm-1.65626 4.28125q-.40624 0-.75.21875-.32812.203125-.48437.5625v.515625q0 .84375.32813 1.328125.34374.46875.95312.46875.54688 0 .875-.421875.34375-.4375.34375-1.125 0-.703125-.34375-1.125-.34375-.421875-.92188-.421875z" stroke="#0b5394" stroke-linecap="round" stroke-linejoin="round" stroke-width="3"/><path d="m360.55646 68.09375q-.67188.640625-1.54688.640625-1.14062 0-1.82812-.765625-.67188-.78125-.67188-2.09375 0-.84375.35938-1.546875.375-.703125 1.03124-1.09375.65626-.390625 1.48438-.390625.84375 0 1.5.421875.65625.421875 1.01562 1.21875.35938.796875.375 1.8125v.625q0 2.140625-1.0625 3.359375-1.0625 1.21875-3.01562 1.296875h-.40625v-1.40625l.375-.015625q2.20313-.09375 2.39063-2.0625zm-1.14063-.65625q.42187 0 .70313-.203125.29687-.21875.45312-.515625v-.6875q0-.859375-.32812-1.328125-.32813-.484375-.875-.484375-.51563 0-.84376.46875-.32812.453125-.32812 1.15625 0 .703125.3125 1.15625.32812.4375.90625.4375zm4.42187-.140625.5-4.328125h4.78126v1.40625h-3.39063l-.21875 1.84375q.60938-.328125 1.28125-.328125 1.21875 0 1.90625.765625.70312.75.70312 2.109375 0 .828125-.35937 1.484375-.34375.640625-1 1.015625-.64063.359375-1.53125.359375-.76562 0-1.4375-.3125-.65625-.328125-1.04688-.890625-.375-.5625-.40624-1.296875h1.6875q.04687.53125.35937.828125.32813.296875.84375.296875.57812 0 .875-.40625.3125-.421875.3125-1.171875 0-.734375-.35938-1.109375-.34374-.390625-1-.390625-.60937 0-.98437.3125l-.15625.15625zm6.90626 3.375q0-.40625.26562-.65625.28125-.25.6875-.25.42188 0 .6875.25.28125.25.28125.65625 0 .390625-.28125.640625-.26562.25-.6875.25-.40625 0-.6875-.25-.26562-.25-.26562-.640625zm4.5625-4.1875h.90624q.64063 0 .95313-.3125.3125-.328125.3125-.859375 0-.515625-.3125-.796875-.29687-.296875-.84375-.296875-.48438 0-.8125.265625-.32812.265625-.32812.6875h-1.6875q0-.65625.35937-1.1875.35937-.53125 1-.828125.65625-.3125 1.4375-.3125 1.34375 0 2.10937.65625.78126.640625.78126 1.78125 0 .59375-.35938 1.09375-.35938.484375-.9375.734375.71875.265625 1.0625.78125.35938.515625.35938 1.21875 0 1.140625-.82813 1.828125-.82813.6875-2.1875.6875-1.28125 0-2.09375-.671875-.8125-.6875-.8125-1.796875h1.6875q0 .484375.35938.796875.375.296875.89062.296875.60938 0 .95312-.3125.34376-.328125.34376-.859375 0-1.265625-1.40626-1.265625h-.90624zm9.875-3.609375v1.40625h-.15626q-1.15624.015625-1.85937.59375-.6875.578125-.82813 1.609375.67188-.6875 1.70313-.6875 1.125 0 1.78125.796875.65625.796875.65625 2.09375 0 .828125-.35937 1.5-.35938.671875-1.03126 1.0625-.65624.375-1.48437.375-1.34375 0-2.17187-.9375-.82813-.953125-.82813-2.515625v-.609375q0-1.390625.51563-2.453125.53124-1.0625 1.5-1.640625.98437-.578125 2.28124-.59375zm-1.65626 4.28125q-.40624 0-.75.21875-.32812.203125-.48437.5625v.515625q0 .84375.32813 1.328125.34374.46875.95312.46875.54688 0 .875-.421875.34375-.4375.34375-1.125 0-.703125-.34375-1.125-.34375-.421875-.92188-.421875z" fill="#fff"/><path d="m251.33928 124.296875.5-4.328125h4.78122v1.40625h-3.3906l-.21875 1.84375q.60938-.328125 1.28125-.328125 1.21875 0 1.90624.765625.70312.75.70312 2.109375 0 .828125-.35936 1.484375-.34376.640625-1 1.01562-.64062.35938-1.53125.35938-.76562 0-1.4375-.3125-.65625-.328125-1.04687-.890625-.375-.5625-.40625-1.296875h1.6875q.04687.53125.35937.828125.32813.296875.84375.296875.57813 0 .875-.40625.3125-.421875.3125-1.171875 0-.734375-.35937-1.109375-.34375-.390625-1-.390625-.60938 0-.98438.3125l-.15625.15625zm10.71872.796875q-.67186.640625-1.54686.640625-1.14064 0-1.82814-.765625-.67186-.78125-.67186-2.09375 0-.84375.35936-1.546875.375-.703125 1.03126-1.09375.65624-.390625 1.48438-.390625.84376 0 1.5.421875.65626.421875 1.01562 1.21875.35938.796875.375 1.8125v.625q0 2.140625-1.0625 3.359375-1.0625 1.21875-3.01562 1.29687h-.40624v-1.406245l.375-.015625q2.2031-.09375 2.3906-2.0625zm-1.1406-.65625q.42186 0 .7031-.203125.2969-.21875.45314-.515625v-.6875q0-.859375-.32814-1.328125-.3281-.484375-.875-.484375-.5156 0-.84374.46875-.32812.453125-.32812 1.15625 0 .703125.3125 1.15625.32812.4375.90626.4375zm4.3281 3.234375q0-.40625.26564-.65625.28126-.25.6875-.25.42186 0 .6875.25.28126.25.28126.65625 0 .390625-.28126.640625-.26564.25-.6875.25-.40624 0-.6875-.25-.26564-.25-.26564-.640625zm6.95314.828125h-1.6875v-6.53125l-2.01564.625v-1.375l3.53126-1.265625h.17188zm3.14062-4.203125.5-4.328125h4.78124v1.40625h-3.3906l-.21876 1.84375q.60936-.328125 1.28126-.328125 1.21874 0 1.90624.765625.70312.75.70312 2.109375 0 .828125-.35936 1.484375-.34376.640625-1 1.01562-.64064.35938-1.53126.35938-.76564 0-1.4375-.3125-.65624-.328125-1.04688-.890625-.375-.5625-.40626-1.296875h1.6875q.0469.53125.3594.828125.3281.296875.84374.296875.57812 0 .875-.40625.3125-.421875.3125-1.171875 0-.734375-.35938-1.109375-.34376-.390625-1-.390625-.60936 0-.98436.3125l-.15626.15625z" stroke="#0b5394" stroke-linecap="round" stroke-linejoin="round" stroke-width="3"/><path d="m251.33928 124.296875.5-4.328125h4.78126v1.40625h-3.39064l-.21875 1.84375q.60938-.328125 1.28125-.328125 1.21875 0 1.90627.765625.70313.75.70313 2.109375 0 .828125-.35938 1.484375-.34375.640625-1.00002 1.01562-.64062.35938-1.53125.35938-.76562 0-1.4375-.3125-.65625-.328125-1.04687-.890625-.375-.5625-.40625-1.296875h1.6875q.04687.53125.35937.828125.32813.296875.84375.296875.57813 0 .875-.40625.3125-.421875.3125-1.171875 0-.734375-.35937-1.109375-.34375-.390625-1-.390625-.60938 0-.98438.3125l-.15625.15625zm10.71876.796875q-.67187.640625-1.54687.640625-1.14063 0-1.82813-.765625-.67187-.78125-.67187-2.09375 0-.84375.35937-1.546875.375-.703125 1.03126-1.09375.65624-.390625 1.48437-.390625.84375 0 1.5.421875.65625.421875 1.01563 1.21875.35937.796875.375 1.8125v.625q0 2.140625-1.0625 3.359375-1.0625 1.21875-3.01563 1.29687h-.40625v-1.406245l.375-.015625q2.20312-.09375 2.39062-2.0625zm-1.14062-.65625q.42188 0 .70312-.203125.29688-.21875.45313-.515625v-.6875q0-.859375-.32813-1.328125-.32812-.484375-.875-.484375-.51562 0-.84374.46875-.32813.453125-.32813 1.15625 0 .703125.3125 1.15625.32813.4375.90625.4375zm4.32812 3.234375q0-.40625.26563-.65625.28125-.25.6875-.25.42187 0 .6875.25.28125.25.28125.65625 0 .390625-.28125.640625-.26563.25-.6875.25-.40625 0-.6875-.25-.26563-.25-.26563-.640625zm6.95313.828125h-1.6875v-6.53125l-2.01563.625v-1.375l3.53126-1.265625h.17187zm3.14063-4.203125.5-4.328125h4.78124v1.40625h-3.39062l-.21875 1.84375q.60937-.328125 1.28125-.328125 1.21875 0 1.90625.765625.70313.75.70313 2.109375 0 .828125-.35938 1.484375-.34375.640625-1 1.01562-.64062.35938-1.53125.35938-.76563 0-1.4375-.3125-.65625-.328125-1.04687-.890625-.375-.5625-.40626-1.296875h1.6875q.04688.53125.35938.828125.32812.296875.84375.296875.57813 0 .875-.40625.3125-.421875.3125-1.171875 0-.734375-.35937-1.109375-.34376-.390625-1-.390625-.60938 0-.98438.3125l-.15625.15625z" fill="#fff"/><path d="m237.59818 181.29688.5-4.32813h4.78125v1.40625h-3.39063l-.21875 1.84375q.60938-.32813 1.28125-.32813 1.21875 0 1.90625.76563.70313.75.70313 2.10937 0 .82813-.35938 1.48438-.34375.64062-1 1.01562-.64062.35938-1.53125.35938-.76562 0-1.4375-.3125-.65625-.32812-1.04687-.89062-.375-.5625-.40625-1.29688h1.6875q.04687.53125.35937.82812.32813.29688.84375.29688.57813 0 .875-.40625.3125-.42187.3125-1.17187 0-.73438-.35937-1.10938-.34375-.39062-1-.39062-.60938 0-.98438.3125l-.15625.15624zm11.76562.98437h.96875v1.375h-.96875v1.84375h-1.70312v-1.84375h-3.48438l-.07812-1.0625 3.54687-5.625h1.71875zm-3.57812 0h1.875v-3l-.10938.1875zm5.71875 2.39063q0-.40626.26562-.65626.28125-.25.6875-.25.42188 0 .6875.25.28125.25.28125.65626 0 .39062-.28125.64062-.26562.25-.6875.25-.40625 0-.6875-.25-.26562-.25-.26562-.64062zm7.85937-2.39063h.96875v1.375h-.96875v1.84375h-1.70312v-1.84375h-3.48438l-.07812-1.0625 3.54687-5.625h1.71875zm-3.57812 0h1.875v-3l-.10938.1875zm7.28125-1.79687h.90625q.64062 0 .95312-.3125.3125-.32813.3125-.85938 0-.51562-.3125-.79688-.29687-.29687-.84375-.29687-.48437 0-.8125.26563-.32812.26562-.32812.6875h-1.6875q0-.65626.35937-1.1875.35938-.53126 1-.82813.65625-.3125 1.4375-.3125 1.34375 0 2.10938.65625.78125.64062.78125 1.78125 0 .59375-.35938 1.09375-.35937.48438-.9375.73438.71875.26562 1.0625.78124.35938.51563.35938 1.21876 0 1.14062-.82813 1.82812-.82812.6875-2.1875.6875-1.28125 0-2.09375-.67188-.8125-.6875-.8125-1.79687h1.6875q0 .48437.35938.79687.375.29688.89062.29688.60938 0 .95313-.3125.34375-.32812.34375-.85938 0-1.26562-1.40625-1.26562h-.90625z" stroke="#0b5394" stroke-linecap="round" stroke-linejoin="round" stroke-width="3"/><path d="m237.59818 181.29688.5-4.32813h4.78125v1.40625h-3.39063l-.21875 1.84375q.60938-.32813 1.28125-.32813 1.21875 0 1.90625.76563.70313.75.70313 2.10937 0 .82813-.35938 1.48438-.34375.64062-1 1.01562-.64062.35938-1.53125.35938-.76562 0-1.4375-.3125-.65625-.32812-1.04687-.89062-.375-.5625-.40625-1.29688h1.6875q.04687.53125.35937.82812.32813.29688.84375.29688.57813 0 .875-.40625.3125-.42187.3125-1.17187 0-.73438-.35937-1.10938-.34375-.39062-1-.39062-.60938 0-.98438.3125l-.15625.15624zm11.76562.98437h.96875v1.375h-.96875v1.84375h-1.70312v-1.84375h-3.48438l-.07812-1.0625 3.54687-5.625h1.71875zm-3.57812 0h1.875v-3l-.10938.1875zm5.71875 2.39063q0-.40626.26562-.65626.28125-.25.6875-.25.42188 0 .6875.25.28125.25.28125.65626 0 .39062-.28125.64062-.26562.25-.6875.25-.40625 0-.6875-.25-.26562-.25-.26562-.64062zm7.85937-2.39063h.96875v1.375h-.96875v1.84375h-1.70312v-1.84375h-3.48438l-.07812-1.0625 3.54687-5.625h1.71875zm-3.57812 0h1.875v-3l-.10938.1875zm7.28125-1.79687h.90625q.64062 0 .95312-.3125.3125-.32813.3125-.85938 0-.51562-.3125-.79688-.29687-.29687-.84375-.29687-.48437 0-.8125.26563-.32812.26562-.32812.6875h-1.6875q0-.65626.35937-1.1875.35938-.53126 1-.82813.65625-.3125 1.4375-.3125 1.34375 0 2.10938.65625.78125.64062.78125 1.78125 0 .59375-.35938 1.09375-.35937.48438-.9375.73438.71875.26562 1.0625.78124.35938.51563.35938 1.21876 0 1.14062-.82813 1.82812-.82812.6875-2.1875.6875-1.28125 0-2.09375-.67188-.8125-.6875-.8125-1.79687h1.6875q0 .48437.35938.79687.375.29688.89062.29688.60938 0 .95313-.3125.34375-.32812.34375-.85938 0-1.26562-1.40625-1.26562h-.90625z" fill="#fff"/><path d="m228.16113 238.29688.5-4.32813h4.78125v1.40625h-3.39062l-.21875 1.84375q.60937-.32813 1.28125-.32813 1.21875 0 1.90625.76563.70312.75.70312 2.10937 0 .82813-.35937 1.48438-.34375.64062-1 1.01562-.64063.35938-1.53125.35938-.76563 0-1.4375-.3125-.65625-.32812-1.04688-.89062-.375-.5625-.40625-1.29688h1.6875q.04688.53125.35938.82812.32812.29688.84375.29688.57812 0 .875-.40625.3125-.42187.3125-1.17187 0-.73438-.35938-1.10938-.34375-.39062-1-.39062-.60937 0-.98437.3125l-.15625.15624zm10.85938 4.20312h-1.6875v-6.53125l-2.01563.625v-1.375l3.53125-1.26563h.17188zm3.04687-.82812q0-.40626.26563-.65626.28125-.25.6875-.25.42187 0 .6875.25.28125.25.28125.65626 0 .39062-.28125.64062-.26563.25-.6875.25-.40625 0-.6875-.25-.26563-.25-.26563-.64062zm6.95313.82812h-1.6875v-6.53125l-2.01563.625v-1.375l3.53125-1.26563h.17188zm6.85937-3.40625q-.67187.64063-1.54687.64063-1.14063 0-1.82813-.76563-.67187-.78125-.67187-2.09375 0-.84375.35937-1.54688.375-.70312 1.03125-1.09374.65625-.39063 1.48438-.39063.84375 0 1.49999.42187.65626.42188 1.01563 1.21876.35937.79687.375 1.8125v.625q0 2.14062-1.0625 3.35937-1.0625 1.21875-3.01562 1.29687h-.40625v-1.40624l.375-.01563q2.20312-.09375 2.39062-2.0625zm-1.14062-.65625q.42187 0 .70312-.20312.29688-.21876.45313-.51563v-.6875q0-.85937-.32813-1.32813-.32812-.48437-.875-.48437-.51562 0-.84375.46875-.32812.45312-.32812 1.15625 0 .70313.3125 1.15625.32812.4375.90625.4375z" stroke="#0b5394" stroke-linecap="round" stroke-linejoin="round" stroke-width="3"/><path d="m228.16113 238.29688.5-4.32813h4.78125v1.40625h-3.39062l-.21875 1.84375q.60937-.32813 1.28125-.32813 1.21875 0 1.90625.76563.70312.75.70312 2.10937 0 .82813-.35937 1.48438-.34375.64062-1 1.01562-.64063.35938-1.53125.35938-.76563 0-1.4375-.3125-.65625-.32812-1.04688-.89062-.375-.5625-.40625-1.29688h1.6875q.04688.53125.35938.82812.32812.29688.84375.29688.57812 0 .875-.40625.3125-.42187.3125-1.17187 0-.73438-.35938-1.10938-.34375-.39062-1-.39062-.60937 0-.98437.3125l-.15625.15624zm10.85938 4.20312h-1.6875v-6.53125l-2.01563.625v-1.375l3.53125-1.26563h.17188zm3.04687-.82812q0-.40626.26563-.65626.28125-.25.6875-.25.42187 0 .6875.25.28125.25.28125.65626 0 .39062-.28125.64062-.26563.25-.6875.25-.40625 0-.6875-.25-.26563-.25-.26563-.64062zm6.95313.82812h-1.6875v-6.53125l-2.01563.625v-1.375l3.53125-1.26563h.17188zm6.85937-3.40625q-.67187.64063-1.54687.64063-1.14063 0-1.82813-.76563-.67187-.78125-.67187-2.09375 0-.84375.35937-1.54688.375-.70312 1.03125-1.09374.65625-.39063 1.48438-.39063.84375 0 1.49999.42187.65626.42188 1.01563 1.21876.35937.79687.375 1.8125v.625q0 2.14062-1.0625 3.35937-1.0625 1.21875-3.01562 1.29687h-.40625v-1.40624l.375-.01563q2.20312-.09375 2.39062-2.0625zm-1.14062-.65625q.42187 0 .70312-.20312.29688-.21876.45313-.51563v-.6875q0-.85937-.32813-1.32813-.32812-.48437-.875-.48437-.51562 0-.84375.46875-.32812.45312-.32812 1.15625 0 .70313.3125 1.15625.32812.4375.90625.4375z" fill="#fff"/><path d="m205.86728 295.28125h.96875v1.375h-.96875v1.84375h-1.70313v-1.84375h-3.48437l-.07813-1.0625 3.54688-5.625h1.71875zm-3.57813 0h1.875v-3l-.10937.1875zm9.67188 3.21875h-1.6875v-6.53125l-2.01563.625v-1.375l3.53125-1.26563h.17188zm3.04687-.82812q0-.40626.26563-.65626.28125-.25.6875-.25.42187 0 .6875.25.28125.25.28125.65626 0 .39062-.28125.64062-.26563.25-.6875.25-.40625 0-.6875-.25-.26563-.25-.26563-.64062zm6.8125-2.57813q-.67187.64063-1.54687.64063-1.14063 0-1.82813-.76563-.67187-.78125-.67187-2.09375 0-.84375.35937-1.54688.375-.70312 1.03125-1.09374.65625-.39063 1.48438-.39063.84375 0 1.5.42187.65625.42188 1.01562 1.21876.35938.79687.375 1.8125v.625q0 2.14062-1.0625 3.35937-1.0625 1.21875-3.01562 1.29687h-.40625v-1.40624l.375-.01563q2.20312-.09375 2.39062-2.0625zm-1.14062-.65625q.42187 0 .70312-.20312.29688-.21876.45313-.51563v-.6875q0-.85937-.32813-1.32813-.32812-.48437-.875-.48437-.51562 0-.84375.46875-.32812.45312-.32812 1.15625 0 .70313.3125 1.15625.32812.4375.90625.4375zm9.92187.53125q0 1.76563-.73437 2.71875-.73438.9375-2.14063.9375-1.40625 0-2.14062-.92188-.73438-.92187-.75-2.64062v-1.57812q0-1.78126.73437-2.70313.75-.9375 2.14063-.9375 1.39062 0 2.125.92187.75.92188.76562 2.64063zm-1.70312-1.71875q0-1.0625-.29688-1.54688-.28125-.48437-.89062-.48437-.59375 0-.89063.46875-.28125.45312-.29687 1.4375v2.0625q0 1.04688.28125 1.5625.28125.5.92187.5.60938 0 .89063-.48438.28125-.48437.28125-1.48437z" stroke="#0b5394" stroke-linecap="round" stroke-linejoin="round" stroke-width="3"/><path d="m205.86728 295.28125h.96875v1.375h-.96875v1.84375h-1.70313v-1.84375h-3.48437l-.07813-1.0625 3.54688-5.625h1.71875zm-3.57813 0h1.875v-3l-.10937.1875zm9.67188 3.21875h-1.6875v-6.53125l-2.01563.625v-1.375l3.53125-1.26563h.17188zm3.04687-.82812q0-.40626.26563-.65626.28125-.25.6875-.25.42187 0 .6875.25.28125.25.28125.65626 0 .39062-.28125.64062-.26563.25-.6875.25-.40625 0-.6875-.25-.26563-.25-.26563-.64062zm6.8125-2.57813q-.67187.64063-1.54687.64063-1.14063 0-1.82813-.76563-.67187-.78125-.67187-2.09375 0-.84375.35937-1.54688.375-.70312 1.03125-1.09374.65625-.39063 1.48438-.39063.84375 0 1.5.42187.65625.42188 1.01562 1.21876.35938.79687.375 1.8125v.625q0 2.14062-1.0625 3.35937-1.0625 1.21875-3.01562 1.29687h-.40625v-1.40624l.375-.01563q2.20312-.09375 2.39062-2.0625zm-1.14062-.65625q.42187 0 .70312-.20312.29688-.21876.45313-.51563v-.6875q0-.85937-.32813-1.32813-.32812-.48437-.875-.48437-.51562 0-.84375.46875-.32812.45312-.32812 1.15625 0 .70313.3125 1.15625.32812.4375.90625.4375zm9.92187.53125q0 1.76563-.73437 2.71875-.73438.9375-2.14063.9375-1.40625 0-2.14062-.92188-.73438-.92187-.75-2.64062v-1.57812q0-1.78126.73437-2.70313.75-.9375 2.14063-.9375 1.39062 0 2.125.92187.75.92188.76562 2.64063zm-1.70312-1.71875q0-1.0625-.29688-1.54688-.28125-.48437-.89062-.48437-.59375 0-.89063.46875-.28125.45312-.29687 1.4375v2.0625q0 1.04688.28125 1.5625.28125.5.92187.5.60938 0 .89063-.48438.28125-.48437.28125-1.48437z" fill="#fff"/><path d="m182.2707 350.48438h.90626q.64062 0 .95312-.3125.3125-.32813.3125-.85938 0-.51562-.3125-.79688-.29688-.29687-.84375-.29687-.48437 0-.8125.26563-.32813.26562-.32813.6875h-1.6875q0-.65626.35938-1.1875.35938-.53126 1-.82813.65625-.3125 1.4375-.3125 1.34375 0 2.10938.65625.78124.64062.78124 1.78125 0 .59375-.35937 1.09375-.35937.48438-.9375.73438.71875.26562 1.0625.78124.35937.51563.35937 1.21876 0 1.14062-.82812 1.82812-.82812.6875-2.1875.6875-1.28125 0-2.09375-.67188-.8125-.6875-.8125-1.79687h1.6875q0 .48437.35937.79687.375.29688.89063.29688.60937 0 .95313-.3125.34374-.32812.34374-.85938 0-1.26562-1.40624-1.26562h-.90626zm10.29688 1.79687h.96875v1.375h-.96875v1.84375h-1.70312v-1.84375h-3.48438l-.07812-1.0625 3.54687-5.625h1.71875zm-3.57812 0h1.875v-3l-.10938.1875zm5.71874 2.39063q0-.40626.26563-.65626.28125-.25.6875-.25.42187 0 .6875.25.28125.25.28125.65626 0 .39062-.28125.64062-.26563.25-.6875.25-.40625 0-.6875-.25-.26563-.25-.26563-.64062zm6.8125-2.57813q-.67187.64063-1.54687.64063-1.14063 0-1.82813-.76563-.67187-.78125-.67187-2.09375 0-.84375.35937-1.54688.375-.70312 1.03126-1.09374.65624-.39063 1.48437-.39063.84375 0 1.5.42187.65625.42188 1.01563 1.21876.35937.79687.375 1.8125v.625q0 2.14062-1.0625 3.35937-1.0625 1.21875-3.01563 1.29687h-.40625v-1.40624l.375-.01563q2.20312-.09375 2.39062-2.0625zm-1.14062-.65625q.42188 0 .70312-.20312.29688-.21876.45313-.51563v-.6875q0-.85937-.32813-1.32813-.32812-.48437-.875-.48437-.51562 0-.84374.46875-.32813.45312-.32813 1.15625 0 .70313.3125 1.15625.32813.4375.90625.4375zm5.89062-.95312h.90626q.64062 0 .95312-.3125.3125-.32813.3125-.85938 0-.51562-.3125-.79688-.29688-.29687-.84375-.29687-.48437 0-.8125.26563-.32813.26562-.32813.6875h-1.6875q0-.65626.35938-1.1875.35938-.53126 1-.82813.65625-.3125 1.4375-.3125 1.34375 0 2.10938.65625.78124.64062.78124 1.78125 0 .59375-.35937 1.09375-.35937.48438-.9375.73438.71875.26562 1.0625.78124.35937.51563.35937 1.21876 0 1.14062-.82812 1.82812-.82812.6875-2.1875.6875-1.28125 0-2.09375-.67188-.8125-.6875-.8125-1.79687h1.6875q0 .48437.35937.79687.375.29688.89063.29688.60937 0 .95313-.3125.34374-.32812.34374-.85938 0-1.26562-1.40624-1.26562h-.90626z" stroke="#0b5394" stroke-linecap="round" stroke-linejoin="round" stroke-width="3"/><path d="m182.2707 350.48438h.90626q.64062 0 .95312-.3125.3125-.32813.3125-.85938 0-.51562-.3125-.79688-.29688-.29687-.84375-.29687-.48437 0-.8125.26563-.32813.26562-.32813.6875h-1.6875q0-.65626.35938-1.1875.35938-.53126 1-.82813.65625-.3125 1.4375-.3125 1.34375 0 2.10938.65625.78124.64062.78124 1.78125 0 .59375-.35937 1.09375-.35937.48438-.9375.73438.71875.26562 1.0625.78124.35937.51563.35937 1.21876 0 1.14062-.82812 1.82812-.82812.6875-2.1875.6875-1.28125 0-2.09375-.67188-.8125-.6875-.8125-1.79687h1.6875q0 .48437.35937.79687.375.29688.89063.29688.60937 0 .95313-.3125.34374-.32812.34374-.85938 0-1.26562-1.40624-1.26562h-.90626zm10.29688 1.79687h.96875v1.375h-.96875v1.84375h-1.70312v-1.84375h-3.48438l-.07812-1.0625 3.54687-5.625h1.71875zm-3.57812 0h1.875v-3l-.10938.1875zm5.71874 2.39063q0-.40626.26563-.65626.28125-.25.6875-.25.42187 0 .6875.25.28125.25.28125.65626 0 .39062-.28125.64062-.26563.25-.6875.25-.40625 0-.6875-.25-.26563-.25-.26563-.64062zm6.8125-2.57813q-.67187.64063-1.54687.64063-1.14063 0-1.82813-.76563-.67187-.78125-.67187-2.09375 0-.84375.35937-1.54688.375-.70312 1.03126-1.09374.65624-.39063 1.48437-.39063.84375 0 1.5.42187.65625.42188 1.01563 1.21876.35937.79687.375 1.8125v.625q0 2.14062-1.0625 3.35937-1.0625 1.21875-3.01563 1.29687h-.40625v-1.40624l.375-.01563q2.20312-.09375 2.39062-2.0625zm-1.14062-.65625q.42188 0 .70312-.20312.29688-.21876.45313-.51563v-.6875q0-.85937-.32813-1.32813-.32812-.48437-.875-.48437-.51562 0-.84374.46875-.32813.45312-.32813 1.15625 0 .70313.3125 1.15625.32813.4375.90625.4375zm5.89062-.95312h.90626q.64062 0 .95312-.3125.3125-.32813.3125-.85938 0-.51562-.3125-.79688-.29688-.29687-.84375-.29687-.48437 0-.8125.26563-.32813.26562-.32813.6875h-1.6875q0-.65626.35938-1.1875.35938-.53126 1-.82813.65625-.3125 1.4375-.3125 1.34375 0 2.10938.65625.78124.64062.78124 1.78125 0 .59375-.35937 1.09375-.35937.48438-.9375.73438.71875.26562 1.0625.78124.35937.51563.35937 1.21876 0 1.14062-.82812 1.82812-.82812.6875-2.1875.6875-1.28125 0-2.09375-.67188-.8125-.6875-.8125-1.79687h1.6875q0 .48437.35937.79687.375.29688.89063.29688.60937 0 .95313-.3125.34374-.32812.34374-.85938 0-1.26562-1.40624-1.26562h-.90626z" fill="#fff"/><path d="m163.70836 412.5h-5.84375v-1.15625l2.76562-2.95313q.5625-.60937.82813-1.07812.28125-.46875.28125-.875 0-.57812-.29688-.89062-.28125-.32813-.8125-.32813-.57812 0-.90625.39063-.32812.39062-.32812 1.04687h-1.70313q0-.78125.375-1.42187.375-.65626 1.04688-1.01563.6875-.375 1.54687-.375 1.3125 0 2.04688.64063.73437.625.73437 1.78124 0 .64063-.32812 1.29688-.32813.65625-1.125 1.53125l-1.9375 2.04687h3.65625zm6.95312-7.57812-3.29687 7.57812h-1.78125l3.29687-7.15625h-4.23437v-1.375h6.01562zm1.35938 6.75q0-.40626.26562-.65626.28125-.25.6875-.25.42188 0 .6875.25.28125.25.28125.65626 0 .39062-.28125.64062-.26562.25-.6875.25-.40625 0-.6875-.25-.26562-.25-.26562-.64062zm6.95312.82812h-1.6875v-6.53125l-2.01562.625v-1.375l3.53125-1.26563h.17187zm3.14063-4.20312.5-4.32813h4.78125v1.40625h-3.39063l-.21875 1.84375q.60938-.32813 1.28125-.32813 1.21875 0 1.90625.76563.70313.75.70313 2.10937 0 .82813-.35938 1.48438-.34375.64062-1 1.01562-.64062.35938-1.53125.35938-.76562 0-1.4375-.3125-.65625-.32812-1.04687-.89062-.375-.5625-.40625-1.29688h1.6875q.04687.53125.35937.82812.32813.29688.84375.29688.57813 0 .875-.40625.3125-.42187.3125-1.17187 0-.73438-.35937-1.10938-.34375-.39062-1-.39062-.60938 0-.98438.3125l-.15625.15624z" stroke="#0b5394" stroke-linecap="round" stroke-linejoin="round" stroke-width="3"/><path d="m163.70836 412.5h-5.84375v-1.15625l2.76562-2.95313q.5625-.60937.82813-1.07812.28125-.46875.28125-.875 0-.57812-.29688-.89062-.28125-.32813-.8125-.32813-.57812 0-.90625.39063-.32812.39062-.32812 1.04687h-1.70313q0-.78125.375-1.42187.375-.65626 1.04688-1.01563.6875-.375 1.54687-.375 1.3125 0 2.04688.64063.73437.625.73437 1.78124 0 .64063-.32812 1.29688-.32813.65625-1.125 1.53125l-1.9375 2.04687h3.65625zm6.95312-7.57812-3.29687 7.57812h-1.78125l3.29687-7.15625h-4.23437v-1.375h6.01562zm1.35938 6.75q0-.40626.26562-.65626.28125-.25.6875-.25.42188 0 .6875.25.28125.25.28125.65626 0 .39062-.28125.64062-.26562.25-.6875.25-.40625 0-.6875-.25-.26562-.25-.26562-.64062zm6.95312.82812h-1.6875v-6.53125l-2.01562.625v-1.375l3.53125-1.26563h.17187zm3.14063-4.20312.5-4.32813h4.78125v1.40625h-3.39063l-.21875 1.84375q.60938-.32813 1.28125-.32813 1.21875 0 1.90625.76563.70313.75.70313 2.10937 0 .82813-.35938 1.48438-.34375.64062-1 1.01562-.64062.35938-1.53125.35938-.76562 0-1.4375-.3125-.65625-.32812-1.04687-.89062-.375-.5625-.40625-1.29688h1.6875q.04687.53125.35937.82812.32813.29688.84375.29688.57813 0 .875-.40625.3125-.42187.3125-1.17187 0-.73438-.35937-1.10938-.34375-.39062-1-.39062-.60938 0-.98438.3125l-.15625.15624z" fill="#fff"/><path d="m158.88058 468.5h-5.84375v-1.15625l2.76563-2.95313q.5625-.60937.82812-1.07812.28125-.46875.28125-.875 0-.57812-.29687-.89062-.28125-.32813-.8125-.32813-.57813 0-.90625.39063-.32813.39062-.32813 1.04687h-1.70312q0-.78125.375-1.42187.375-.65626 1.04687-1.01563.6875-.375 1.54688-.375 1.3125 0 2.04687.64063.73438.625.73438 1.78124 0 .64063-.32813 1.29688-.32812.65625-1.125 1.53125l-1.9375 2.04687h3.65625zm1.40625-4.20312.5-4.32813h4.78125v1.40625h-3.39062l-.21875 1.84375q.60937-.32813 1.28125-.32813 1.21875 0 1.90625.76563.70312.75.70312 2.10937 0 .82813-.35937 1.48438-.34375.64062-1 1.01562-.64063.35938-1.53125.35938-.76563 0-1.4375-.3125-.65625-.32812-1.04688-.89062-.375-.5625-.40625-1.29688h1.6875q.04688.53125.35938.82812.32812.29688.84375.29688.57812 0 .875-.40625.3125-.42187.3125-1.17187 0-.73438-.35938-1.10938-.34375-.39062-1-.39062-.60937 0-.98437.3125l-.15625.15624zm6.90625 3.375q0-.40626.26563-.65626.28125-.25.6875-.25.42187 0 .6875.25.28125.25.28125.65626 0 .39062-.28125.64062-.26563.25-.6875.25-.40625 0-.6875-.25-.26563-.25-.26563-.64062zm7.85938-2.39063h.96875v1.375h-.96875v1.84375h-1.70313v-1.84375h-3.48437l-.07813-1.0625 3.54688-5.625h1.71875zm-3.57813 0h1.875v-3l-.10937.1875zm9.53125-.1875q-.67187.64063-1.54687.64063-1.14063 0-1.82813-.76563-.67187-.78125-.67187-2.09375 0-.84375.35937-1.54688.375-.70312 1.03125-1.09374.65625-.39063 1.48438-.39063.84375 0 1.5.42187.65625.42188 1.01562 1.21876.35938.79687.375 1.8125v.625q0 2.14062-1.0625 3.35937-1.0625 1.21875-3.01562 1.29687h-.40625v-1.40624l.375-.01563q2.20312-.09375 2.39062-2.0625zm-1.14062-.65625q.42187 0 .70312-.20312.29688-.21876.45313-.51563v-.6875q0-.85937-.32813-1.32813-.32812-.48437-.875-.48437-.51562 0-.84375.46875-.32812.45312-.32812 1.15625 0 .70313.3125 1.15625.32812.4375.90625.4375z" stroke="#0b5394" stroke-linecap="round" stroke-linejoin="round" stroke-width="3"/><path d="m158.88058 468.5h-5.84375v-1.15625l2.76563-2.95313q.5625-.60937.82812-1.07812.28125-.46875.28125-.875 0-.57812-.29687-.89062-.28125-.32813-.8125-.32813-.57813 0-.90625.39063-.32813.39062-.32813 1.04687h-1.70312q0-.78125.375-1.42187.375-.65626 1.04687-1.01563.6875-.375 1.54688-.375 1.3125 0 2.04687.64063.73438.625.73438 1.78124 0 .64063-.32813 1.29688-.32812.65625-1.125 1.53125l-1.9375 2.04687h3.65625zm1.40625-4.20312.5-4.32813h4.78125v1.40625h-3.39062l-.21875 1.84375q.60937-.32813 1.28125-.32813 1.21875 0 1.90625.76563.70312.75.70312 2.10937 0 .82813-.35937 1.48438-.34375.64062-1 1.01562-.64063.35938-1.53125.35938-.76563 0-1.4375-.3125-.65625-.32812-1.04688-.89062-.375-.5625-.40625-1.29688h1.6875q.04688.53125.35938.82812.32812.29688.84375.29688.57812 0 .875-.40625.3125-.42187.3125-1.17187 0-.73438-.35938-1.10938-.34375-.39062-1-.39062-.60937 0-.98437.3125l-.15625.15624zm6.90625 3.375q0-.40626.26563-.65626.28125-.25.6875-.25.42187 0 .6875.25.28125.25.28125.65626 0 .39062-.28125.64062-.26563.25-.6875.25-.40625 0-.6875-.25-.26563-.25-.26563-.64062zm7.85938-2.39063h.96875v1.375h-.96875v1.84375h-1.70313v-1.84375h-3.48437l-.07813-1.0625 3.54688-5.625h1.71875zm-3.57813 0h1.875v-3l-.10937.1875zm9.53125-.1875q-.67187.64063-1.54687.64063-1.14063 0-1.82813-.76563-.67187-.78125-.67187-2.09375 0-.84375.35937-1.54688.375-.70312 1.03125-1.09374.65625-.39063 1.48438-.39063.84375 0 1.5.42187.65625.42188 1.01562 1.21876.35938.79687.375 1.8125v.625q0 2.14062-1.0625 3.35937-1.0625 1.21875-3.01562 1.29687h-.40625v-1.40624l.375-.01563q2.20312-.09375 2.39062-2.0625zm-1.14062-.65625q.42187 0 .70312-.20312.29688-.21876.45313-.51563v-.6875q0-.85937-.32813-1.32813-.32812-.48437-.875-.48437-.51562 0-.84375.46875-.32812.45312-.32812 1.15625 0 .70313.3125 1.15625.32812.4375.90625.4375z" fill="#fff"/><path d="m146.78062 525.5h-5.84375v-1.15625l2.76563-2.95315q.5625-.60935.82812-1.0781.28125-.46875.28125-.875 0-.5781-.29687-.8906-.28125-.32815-.8125-.32815-.57813 0-.90625.39065-.32813.3906-.32813 1.04685h-1.70312q0-.78125.375-1.42185.375-.6563 1.04687-1.01565.6875-.375 1.54688-.375 1.3125 0 2.04687.64065.73438.625.73438 1.7812 0 .64065-.32813 1.2969-.32812.65625-1.125 1.53125l-1.9375 2.04685h3.65625zm5.26563 0h-1.6875v-6.53125l-2.01563.625v-1.375l3.53125-1.26565h.17188zm3.04687-.8281q0-.4063.26563-.6563.28125-.25.6875-.25.42187 0 .6875.25.28125.25.28125.6563 0 .3906-.28125.6406-.26563.25-.6875.25-.40625 0-.6875-.25-.26563-.25-.26563-.6406zm4.5625-4.1875h.90625q.64063 0 .95313-.3125.3125-.32815.3125-.8594 0-.5156-.3125-.7969-.29688-.29685-.84375-.29685-.48438 0-.8125.26565-.32813.2656-.32813.6875h-1.6875q0-.6563.35938-1.1875.35937-.5313 1-.82815.65625-.3125 1.4375-.3125 1.34375 0 2.10937.65625.78125.6406.78125 1.78125 0 .59375-.35937 1.09375-.35938.4844-.9375.7344.71875.2656 1.0625.7812.35937.51565.35937 1.2188 0 1.1406-.82812 1.8281-.82813.6875-2.1875.6875-1.28125 0-2.09375-.6719-.8125-.6875-.8125-1.79685h1.6875q0 .48435.35937.79685.375.2969.89063.2969.60937 0 .95312-.3125.34375-.3281.34375-.8594 0-1.2656-1.40625-1.2656h-.90625zm10.29688 1.79685h.96875v1.375h-.96875v1.84375h-1.70313v-1.84375h-3.48437l-.07813-1.0625 3.54688-5.625h1.71875zm-3.57813 0h1.875v-3l-.10937.1875z" stroke="#0b5394" stroke-linecap="round" stroke-linejoin="round" stroke-width="3"/><path d="m146.78062 525.5h-5.84375v-1.15625l2.76563-2.95315q.5625-.60935.82812-1.0781.28125-.46875.28125-.875 0-.5781-.29687-.8906-.28125-.32815-.8125-.32815-.57813 0-.90625.39065-.32813.3906-.32813 1.04685h-1.70312q0-.78125.375-1.42185.375-.6563 1.04687-1.01565.6875-.375 1.54688-.375 1.3125 0 2.04687.64065.73438.625.73438 1.7812 0 .64065-.32813 1.2969-.32812.65625-1.125 1.53125l-1.9375 2.04685h3.65625zm5.26563 0h-1.6875v-6.53125l-2.01563.625v-1.375l3.53125-1.26565h.17188zm3.04687-.8281q0-.4063.26563-.6563.28125-.25.6875-.25.42187 0 .6875.25.28125.25.28125.6563 0 .3906-.28125.6406-.26563.25-.6875.25-.40625 0-.6875-.25-.26563-.25-.26563-.6406zm4.5625-4.1875h.90625q.64063 0 .95313-.3125.3125-.32815.3125-.8594 0-.5156-.3125-.7969-.29688-.29685-.84375-.29685-.48438 0-.8125.26565-.32813.2656-.32813.6875h-1.6875q0-.6563.35938-1.1875.35937-.5313 1-.82815.65625-.3125 1.4375-.3125 1.34375 0 2.10937.65625.78125.6406.78125 1.78125 0 .59375-.35937 1.09375-.35938.4844-.9375.7344.71875.2656 1.0625.7812.35937.51565.35937 1.2188 0 1.1406-.82812 1.8281-.82813.6875-2.1875.6875-1.28125 0-2.09375-.6719-.8125-.6875-.8125-1.79685h1.6875q0 .48435.35937.79685.375.2969.89063.2969.60937 0 .95312-.3125.34375-.3281.34375-.8594 0-1.2656-1.40625-1.2656h-.90625zm10.29688 1.79685h.96875v1.375h-.96875v1.84375h-1.70313v-1.84375h-3.48437l-.07813-1.0625 3.54688-5.625h1.71875zm-3.57813 0h1.875v-3l-.10937.1875z" fill="#fff"/><path d="m145.38484 582.5h-5.84375v-1.15625l2.76563-2.95315q.5625-.60935.82812-1.0781.28125-.46875.28125-.875 0-.5781-.29687-.8906-.28125-.32815-.8125-.32815-.57813 0-.90625.39065-.32813.3906-.32813 1.04685h-1.70312q0-.78125.375-1.42185.375-.6563 1.04687-1.01565.6875-.375 1.54688-.375 1.3125 0 2.04687.64065.73438.625.73438 1.7812 0 .64065-.32813 1.2969-.32812.65625-1.125 1.53125l-1.9375 2.04685h3.65625zm6.90625-3.53125q0 1.76565-.73437 2.71875-.73438.9375-2.14063.9375-1.40625 0-2.14062-.9219-.73438-.92185-.75-2.6406v-1.5781q0-1.7813.73437-2.70315.75-.9375 2.14063-.9375 1.39062 0 2.125.92185.75.9219.76562 2.64065zm-1.70312-1.71875q0-1.0625-.29688-1.5469-.28125-.48435-.89062-.48435-.59375 0-.89063.46875-.28125.4531-.29687 1.4375v2.0625q0 1.0469.28125 1.5625.28125.5.92187.5.60938 0 .89063-.4844.28125-.48435.28125-1.48435zm3.10937 4.4219q0-.4063.26563-.6563.28125-.25.6875-.25.42187 0 .6875.25.28125.25.28125.6563 0 .3906-.28125.6406-.26563.25-.6875.25-.40625 0-.6875-.25-.26563-.25-.26563-.6406zm8.40625-5.4375q0 .625-.3125 1.10935-.3125.46875-.85937.76565.625.29685.98437.8281.375.5156.375 1.21875 0 1.14065-.78125 1.8125-.76562.65625-2.10937.65625-1.32813 0-2.10938-.65625-.76562-.67185-.76562-1.8125 0-.70315.35937-1.23435.35938-.5313.98438-.8125-.54688-.2969-.85938-.76565-.3125-.48435-.3125-1.10935 0-1.0938.71875-1.7344.73438-.65625 1.98438-.65625 1.25 0 1.96875.65625.73437.6406.73437 1.7344zm-1.51562 3.79685q0-.54685-.32813-.875-.3125-.34375-.85937-.34375-.54688 0-.875.3281-.3125.32815-.3125.89065 0 .54685.3125.89065.32812.3281.89062.3281.54688 0 .85938-.3125.3125-.3281.3125-.90625zm-.17188-3.71875q0-.5-.26562-.7969-.26563-.29685-.75-.29685-.46875 0-.73438.29685-.26562.2813-.26562.7969 0 .5156.26562.8281.26563.3125.73438.3125.48437 0 .75-.3125.26562-.3125.26562-.8281zm7.71875-2.4375v1.40625h-.15625q-1.15625.01565-1.85937.59375-.6875.5781-.82813 1.6094.67188-.6875 1.70313-.6875 1.125 0 1.78125.79685.65625.79685.65625 2.09375 0 .8281-.35938 1.5-.35937.6719-1.03125 1.0625-.65625.375-1.48437.375-1.34375 0-2.17188-.9375-.82812-.9531-.82812-2.5156v-.6094q0-1.3906.51562-2.4531.53125-1.0625 1.5-1.64065.98438-.57815 2.28125-.59375zm-1.65625 4.28125q-.40625 0-.75.21875-.32812.2031-.48437.5625v.5156q0 .8438.32812 1.32815.34375.46875.95313.46875.54687 0 .875-.4219.34375-.4375.34375-1.125 0-.7031-.34375-1.125-.34375-.42185-.92188-.42185z" stroke="#0b5394" stroke-linecap="round" stroke-linejoin="round" stroke-width="3"/><path d="m145.38484 582.5h-5.84375v-1.15625l2.76563-2.95315q.5625-.60935.82812-1.0781.28125-.46875.28125-.875 0-.5781-.29687-.8906-.28125-.32815-.8125-.32815-.57813 0-.90625.39065-.32813.3906-.32813 1.04685h-1.70312q0-.78125.375-1.42185.375-.6563 1.04687-1.01565.6875-.375 1.54688-.375 1.3125 0 2.04687.64065.73438.625.73438 1.7812 0 .64065-.32813 1.2969-.32812.65625-1.125 1.53125l-1.9375 2.04685h3.65625zm6.90625-3.53125q0 1.76565-.73437 2.71875-.73438.9375-2.14063.9375-1.40625 0-2.14062-.9219-.73438-.92185-.75-2.6406v-1.5781q0-1.7813.73437-2.70315.75-.9375 2.14063-.9375 1.39062 0 2.125.92185.75.9219.76562 2.64065zm-1.70312-1.71875q0-1.0625-.29688-1.5469-.28125-.48435-.89062-.48435-.59375 0-.89063.46875-.28125.4531-.29687 1.4375v2.0625q0 1.0469.28125 1.5625.28125.5.92187.5.60938 0 .89063-.4844.28125-.48435.28125-1.48435zm3.10937 4.4219q0-.4063.26563-.6563.28125-.25.6875-.25.42187 0 .6875.25.28125.25.28125.6563 0 .3906-.28125.6406-.26563.25-.6875.25-.40625 0-.6875-.25-.26563-.25-.26563-.6406zm8.40625-5.4375q0 .625-.3125 1.10935-.3125.46875-.85937.76565.625.29685.98437.8281.375.5156.375 1.21875 0 1.14065-.78125 1.8125-.76562.65625-2.10937.65625-1.32813 0-2.10938-.65625-.76562-.67185-.76562-1.8125 0-.70315.35937-1.23435.35938-.5313.98438-.8125-.54688-.2969-.85938-.76565-.3125-.48435-.3125-1.10935 0-1.0938.71875-1.7344.73438-.65625 1.98438-.65625 1.25 0 1.96875.65625.73437.6406.73437 1.7344zm-1.51562 3.79685q0-.54685-.32813-.875-.3125-.34375-.85937-.34375-.54688 0-.875.3281-.3125.32815-.3125.89065 0 .54685.3125.89065.32812.3281.89062.3281.54688 0 .85938-.3125.3125-.3281.3125-.90625zm-.17188-3.71875q0-.5-.26562-.7969-.26563-.29685-.75-.29685-.46875 0-.73438.29685-.26562.2813-.26562.7969 0 .5156.26562.8281.26563.3125.73438.3125.48437 0 .75-.3125.26562-.3125.26562-.8281zm7.71875-2.4375v1.40625h-.15625q-1.15625.01565-1.85937.59375-.6875.5781-.82813 1.6094.67188-.6875 1.70313-.6875 1.125 0 1.78125.79685.65625.79685.65625 2.09375 0 .8281-.35938 1.5-.35937.6719-1.03125 1.0625-.65625.375-1.48437.375-1.34375 0-2.17188-.9375-.82812-.9531-.82812-2.5156v-.6094q0-1.3906.51562-2.4531.53125-1.0625 1.5-1.64065.98438-.57815 2.28125-.59375zm-1.65625 4.28125q-.40625 0-.75.21875-.32812.2031-.48437.5625v.5156q0 .8438.32812 1.32815.34375.46875.95313.46875.54687 0 .875-.4219.34375-.4375.34375-1.125 0-.7031-.34375-1.125-.34375-.42185-.92188-.42185z" fill="#fff"/><path d="m504.63043 639.5h-1.6875v-6.53125l-2.01563.625v-1.375l3.53126-1.26565h.17187zm7.90627-3.21875h.96873v1.375h-.96873v1.84375h-1.70314v-1.84375h-3.48438l-.07812-1.0625 3.54687-5.625h1.71877zm-3.57814 0h1.875v-3l-.10938.1875zm11.35937-4.35935-3.29687 7.5781h-1.78126l3.2969-7.15625h-4.2344v-1.375h6.01563zm1.35937 6.75q0-.4063.26563-.6563.28127-.25.6875-.25.42187 0 .6875.25.28127.25.28127.6563 0 .3906-.28127.6406-.26563.25-.6875.25-.40623 0-.6875-.25-.26563-.25-.26563-.6406zm6.95313.8281h-1.6875v-6.53125l-2.01563.625v-1.375l3.53126-1.26565h.17187zm8.6875-7.5781-3.29687 7.5781h-1.78126l3.2969-7.15625h-4.2344v-1.375h6.01563z" stroke="#0b5394" stroke-linecap="round" stroke-linejoin="round" stroke-width="3"/><path d="m504.63043 639.5h-1.6875v-6.53125l-2.01563.625v-1.375l3.53126-1.26565h.17187zm7.90627-3.21875h.96873v1.375h-.96873v1.84375h-1.70314v-1.84375h-3.48438l-.07812-1.0625 3.54687-5.625h1.71877zm-3.57814 0h1.875v-3l-.10938.1875zm11.35937-4.35935-3.29687 7.5781h-1.78126l3.2969-7.15625h-4.2344v-1.375h6.01563zm1.35937 6.75q0-.4063.26563-.6563.28127-.25.6875-.25.42187 0 .6875.25.28127.25.28127.6563 0 .3906-.28127.6406-.26563.25-.6875.25-.40623 0-.6875-.25-.26563-.25-.26563-.6406zm6.95313.8281h-1.6875v-6.53125l-2.01563.625v-1.375l3.53126-1.26565h.17187zm8.6875-7.5781-3.29687 7.5781h-1.78126l3.2969-7.15625h-4.2344v-1.375h6.01563z" fill="#fff"/><g fill="#000"><path d="m90.703125 69.565186h-3.578125l-.796875 2.234374h-1.15625l3.25-8.53125h.984375l3.265625 8.53125h-1.15625zm-3.234375-.921876h2.90625l-1.453125-3.984374zm9.03125-.640624q-1.4375-.421876-2.109375-1.03125-.65625-.609376-.65625-1.5 0-1 .796875-1.65625.8125-.671876 2.109375-.671876.875 0 1.5625.34375.6875.34375 1.0625.9375.390625.59375.390625 1.3125h-1.140625q0-.78125-.5-1.21875-.484375-.4375-1.375-.4375-.828125 0-1.296875.375-.46875.359376-.46875 1 0 .53125.4375.890626.453125.359374 1.515625.65625 1.0625.296874 1.65625.65625.609375.359374.890625.84375.296875.484374.296875 1.125 0 1.046874-.8125 1.671874-.8125.625-2.15625.625-.890625 0-1.65625-.34375-.75-.34375-1.171875-.921874-.40625-.59375-.40625-1.328126h1.125q0 .765626.578125 1.21875.578125.453126 1.53125.453126.890625 0 1.359375-.359376.46875-.375.46875-1 0-.625-.4375-.96875-.4375-.34375-1.59375-.671874zm7.3125 2.296874 2.4375-7.03125h1.234375l-3.171875 8.53125h-.984375l-3.15625-8.53125h1.21875z"/><path d="m47.125 127.61777h4.046875v.92187h-5.1875v-8.53125h1.140625zm5.875.92187h-1.078125v-6.34375h1.078125zm-1.171875-8.01562q0-.26563.15625-.45313.171875-.1875.484375-.1875.3125 0 .46875.1875.171875.1875.171875.45313 0 .25-.171875.4375-.15625.17187-.46875.17187-.3125 0-.484375-.17187-.15625-.1875-.15625-.4375zm5.625 8.14062q-1.296875 0-2.109375-.84375-.796875-.85937-.796875-2.28125v-.1875q0-.95312.359375-1.6875.359375-.75 1-1.15625.65625-.42187 1.40625-.42187 1.234375 0 1.921875.8125.6875.8125.6875 2.32812v.45313h-4.296875q.03125.9375.546875 1.51562.53125.57813 1.34375.57813.5625 0 .953125-.23438.40625-.23437.71875-.625l.65625.51563q-.796875 1.23437-2.390625 1.23437zm-.140625-5.6875q-.65625 0-1.109375.48438-.4375.46875-.53125 1.32812h3.171875v-.07812q-.046875-.82813-.453125-1.28125-.390625-.45313-1.078125-.45313zm4.6875 5.5625h-1.078125v-9h1.078125zm7.1875-3.09375q0 1.45313-.671875 2.34375-.65625.875-1.78125.875-1.203125 0-1.859375-.85937l-.0625.73437h-.984375v-9h1.078125v3.35938q.65625-.8125 1.8125-.8125 1.15625 0 1.8125.875.65625.85937.65625 2.39062zm-1.078125-.125q0-1.10937-.4375-1.70312-.421875-.60938-1.21875-.60938-1.078125 0-1.546875.98438v2.75q.5 1 1.546875 1 .78125 0 1.21875-.60938.4375-.60937.4375-1.8125zm5.78125-2.15625q-.25-.03125-.53125-.03125-1.078125 0-1.453125.90625v4.5h-1.078125v-6.34375h1.046875l.015625.73438q.53125-.84375 1.515625-.84375.3125 0 .484375.07812zm2.109375 5.375h-1.078125v-6.34375h1.078125zm-1.171875-8.01562q0-.26563.15625-.45313.171875-.1875.484375-.1875.3125 0 .46875.1875.171875.1875.171875.45313 0 .25-.171875.4375-.15625.17187-.46875.17187-.3125 0-.484375-.17187-.15625-.1875-.15625-.4375zm4.46875.14062v1.53125h1.171875v.84375h-1.171875v3.92188q0 .39062.15625.57812.15625.1875.53125.1875.1875 0 .515625-.0625v.875q-.421875.125-.828125.125-.71875 0-1.09375-.4375-.375-.45312-.375-1.26562v-3.92188h-1.15625v-.84375h1.15625v-1.53125zm6.4375 7.875q-.09375-.1875-.15625-.67187-.75.79687-1.796875.79687-.9375 0-1.546875-.53125-.59375-.53125-.59375-1.35937 0-.98438.75-1.53125.75-.54688 2.125-.54688h1.046875v-.5q0-.5625-.34375-.89062-.328125-.34375-1-.34375-.578125 0-.96875.29687-.390625.28125-.390625.70313h-1.09375q0-.48438.328125-.92188.34375-.4375.921875-.6875.578125-.26562 1.265625-.26562 1.109375 0 1.71875.54687.625.54688.65625 1.5v2.92188q0 .875.21875 1.39062v.09375zm-1.796875-.82812q.515625 0 .96875-.26563.453125-.26562.65625-.6875v-1.29687h-.84375q-2 0-2 1.17187 0 .5.34375.79688.34375.28125.875.28125zm2.46875-6.84375h-3.9375v-.84375h3.9375zm3.4375 1.32812.03125.79688q.734375-.90625 1.90625-.90625 2.015625 0 2.03125 2.26562v4.1875h-1.09375v-4.20312q0-.67188-.3125-1-.296875-.32813-.953125-.32813-.53125 0-.9375.28125-.390625.28125-.609375.73438v4.51562h-1.078125v-6.34375zm7.15625 6.34375h-1.078125v-6.34375h1.078125zm-1.171875-8.01562q0-.26563.15625-.45313.171875-.1875.484375-.1875.3125 0 .46875.1875.171875.1875.171875.45313 0 .25-.171875.4375-.15625.17187-.46875.17187-.3125 0-.484375-.17187-.15625-.1875-.15625-.4375zm4.109375 1.67187v7.07813q0 1.82812-1.65625 1.82812-.359375 0-.65625-.10937v-.85938q.1875.04688.484375.04688.359375 0 .546875-.20313.203125-.1875.203125-.6875v-7.09375zm-1.1875-1.67187q0-.26563.15625-.45313.15625-.1875.46875-.1875.3125 0 .46875.1875.171875.1875.171875.45313 0 .25-.171875.4375-.15625.17187-.46875.17187-.3125 0-.46875-.17187-.15625-.1875-.15625-.4375zm6.984375 8.01562q-.09375-.1875-.15625-.67187-.75.79687-1.796875.79687-.9375 0-1.546875-.53125-.59375-.53125-.59375-1.35937 0-.98438.75-1.53125.75-.54688 2.125-.54688h1.046875v-.5q0-.5625-.34375-.89062-.328125-.34375-1-.34375-.578125 0-.96875.29687-.390625.28125-.390625.70313h-1.09375q0-.48438.328125-.92188.34375-.4375.921875-.6875.578125-.26562 1.265625-.26562 1.109375 0 1.71875.54687.625.54688.65625 1.5v2.92188q0 .875.21875 1.39062v.09375zm-1.796875-.82812q.515625 0 .96875-.26563.453125-.26562.65625-.6875v-1.29687h-.84375q-2 0-2 1.17187 0 .5.34375.79688.34375.28125.875.28125z"/><path d="m71.125 184.35786h4.046875v.92188h-5.1875v-8.53125h1.140625zm5.875.92188h-1.078125v-6.34375h1.078125zm-1.171875-8.01563q0-.26562.15625-.45312.171875-.1875.484375-.1875.3125 0 .46875.1875.171875.1875.171875.45312 0 .25-.171875.4375-.15625.17188-.46875.17188-.3125 0-.484375-.17188-.15625-.1875-.15625-.4375zm5.625 8.14063q-1.296875 0-2.109375-.84375-.796875-.85938-.796875-2.28125v-.1875q0-.95313.359375-1.6875.359375-.75 1-1.15625.65625-.42188 1.40625-.42188 1.234375 0 1.921875.8125.6875.8125.6875 2.32813v.45312h-4.296875q.03125.9375.546875 1.51563.53125.57812 1.34375.57812.5625 0 .953125-.23437.40625-.23438.71875-.625l.65625.51562q-.796875 1.23438-2.390625 1.23438zm-.140625-5.6875q-.65625 0-1.109375.48437-.4375.46875-.53125 1.32813h3.171875v-.07813q-.046875-.82812-.453125-1.28125-.390625-.45312-1.078125-.45312zm4.984375-2.3125v1.53125h1.171875v.84375h-1.171875v3.92187q0 .39063.15625.57813.15625.1875.53125.1875.1875 0 .515625-.0625v.875q-.421875.125-.828125.125-.71875 0-1.09375-.4375-.375-.45313-.375-1.26563v-3.92187h-1.15625v-.84375h1.15625v-1.53125zm6.4375 7.25q-.625.75-1.859375.75-1.015625 0-1.546875-.59375-.53125-.59375-.53125-1.75v-4.125h1.078125v4.09375q0 1.45312 1.171875 1.45312 1.25 0 1.65625-.9375v-4.60937h1.09375v6.34375h-1.03125zm5.171875-.84375 1.578125-4.875h1.109375l-2.28125 6.34375h-.828125l-2.296875-6.34375h1.109375zm7.828125 1.46875q-.09375-.1875-.15625-.67188-.75.79688-1.796875.79688-.9375 0-1.546875-.53125-.59375-.53125-.59375-1.35938 0-.98437.75-1.53125.75-.54687 2.125-.54687h1.046875v-.5q0-.5625-.34375-.89063-.328125-.34375-1-.34375-.578125 0-.96875.29688-.390625.28125-.390625.70312h-1.09375q0-.48437.328125-.92187.34375-.4375.921875-.6875.578125-.26563 1.265625-.26563 1.109375 0 1.71875.54688.625.54687.65625 1.5v2.92187q0 .875.21875 1.39063v.09375zm-1.796875-.82813q.515625 0 .96875-.26562.453125-.26563.65625-.6875v-1.29688h-.84375q-2 0-2 1.17188 0 .5.34375.79687.34375.28125.875.28125z"/><path d="m77.8125 240.51982 2.4375-7.03125h1.234375l-3.171875 8.53125h-.984375l-3.15625-8.53125h1.21875zm8.921875 1.5q-.09375-.1875-.15625-.67187-.75.79687-1.796875.79687-.9375 0-1.546875-.53125-.59375-.53125-.59375-1.35937 0-.98438.75-1.53125.75-.54688 2.125-.54688h1.046875v-.5q0-.5625-.34375-.89062-.328125-.34375-1-.34375-.578125 0-.96875.29687-.390625.28125-.390625.70313h-1.09375q0-.48438.328125-.92188.34375-.4375.921875-.6875.578125-.26562 1.265625-.26562 1.109375 0 1.71875.54687.625.54688.65625 1.5v2.92188q0 .875.21875 1.39062v.09375zm-1.796875-.82812q.515625 0 .96875-.26563.453125-.26562.65625-.6875v-1.29687h-.84375q-2 0-2 1.17187 0 .5.34375.79688.34375.28125.875.28125zm2.46875-6.84375h-3.9375v-.84375h3.9375zm4.953125 6.90625q.578125 0 1.015625-.34375.4375-.35938.484375-.89063h1.03125q-.03125.54688-.390625 1.04688-.34375.48437-.921875.78125-.5625.29687-1.21875.29687-1.296875 0-2.0625-.85937-.75-.875-.75-2.375v-.1875q0-.92188.328125-1.64063.34375-.71875.96875-1.10937.640625-.40625 1.515625-.40625 1.0625 0 1.765625.64062.71875.625.765625 1.65625h-1.03125q-.046875-.625-.46875-1.01562-.421875-.39063-1.03125-.39063-.828125 0-1.28125.59375-.453125.59375-.453125 1.71875v.20313q0 1.09375.453125 1.6875.453125.59375 1.28125.59375zm4.640625.76562h-1.078125v-6.34375h1.078125zm-1.171875-8.01562q0-.26563.15625-.45313.171875-.1875.484375-.1875.3125 0 .46875.1875.171875.1875.171875.45313 0 .25-.171875.4375-.15625.17187-.46875.17187-.3125 0-.484375-.17187-.15625-.1875-.15625-.4375zm4.109375 1.67187v7.07813q0 1.82812-1.65625 1.82812-.359375 0-.65625-.10937v-.85938q.1875.04688.484375.04688.359375 0 .546875-.20313.203125-.1875.203125-.6875v-7.09375zm-1.1875-1.67187q0-.26563.15625-.45313.15625-.1875.46875-.1875.3125 0 .46875.1875.171875.1875.171875.45313 0 .25-.171875.4375-.15625.17187-.46875.17187-.3125 0-.46875-.17187-.15625-.1875-.15625-.4375zm6.984375 8.01562q-.09375-.1875-.15625-.67187-.75.79687-1.796875.79687-.9375 0-1.546875-.53125-.59375-.53125-.59375-1.35937 0-.98438.75-1.53125.75-.54688 2.125-.54688h1.046875v-.5q0-.5625-.34375-.89062-.328125-.34375-1-.34375-.578125 0-.96875.29687-.390625.28125-.390625.70313h-1.09375q0-.48438.328125-.92188.34375-.4375.921875-.6875.578125-.26562 1.265625-.26562 1.109375 0 1.71875.54687.625.54688.65625 1.5v2.92188q0 .875.21875 1.39062v.09375zm-1.796875-.82812q.515625 0 .96875-.26563.453125-.26562.65625-.6875v-1.29687h-.84375q-2 0-2 1.17187 0 .5.34375.79688.34375.28125.875.28125z"/><path d="m63.828125 297.83804h4.890625v.92188h-6.21875v-.84375l4.6875-6.76563h-4.609375v-.92187h5.953125v.82813zm8.078125-.54687 1.578125-4.875h1.109375l-2.28125 6.34375h-.828125l-2.296875-6.34375h1.109375zm5.09375 1.46875h-1.078125v-6.34375h1.078125zm-1.171875-8.01562q0-.26563.15625-.45313.171875-.1875.484375-.1875.3125 0 .46875.1875.171875.1875.171875.45313 0 .25-.171875.4375-.15625.17187-.46875.17187-.3125 0-.484375-.17187-.15625-.1875-.15625-.4375zm5.625 8.14062q-1.296875 0-2.109375-.84375-.796875-.85937-.796875-2.28125v-.1875q0-.95312.359375-1.6875.359375-.75 1-1.15625.65625-.42187 1.40625-.42187 1.234375 0 1.921875.8125.6875.8125.6875 2.32812v.45312h-4.296875q.03125.9375.546875 1.51563.53125.57813 1.34375.57813.5625 0 .953125-.23438.40625-.23438.71875-.625l.65625.51562q-.796875 1.23438-2.390625 1.23438zm-.140625-5.6875q-.65625 0-1.109375.48438-.4375.46874-.53125 1.32812h3.171875v-.07812q-.046875-.82813-.453125-1.28126-.390625-.45312-1.078125-.45312zm3.25 2.34375q0-1.46875.6875-2.34375.6875-.89062 1.8125-.89062 1.109375 0 1.765625.75v-3.29688h1.078125v9h-1l-.046875-.6875q-.65625.8125-1.8125.8125-1.09375 0-1.796875-.90625-.6875-.90625-.6875-2.35937zm1.078125.125q0 1.07813.4375 1.6875.453125.60937 1.234375.60937 1.03125 0 1.515625-.9375v-2.90624q-.484375-.89063-1.5-.89063-.796875 0-1.25.60937-.4375.60938-.4375 1.82813zm9.25-2.28125q-.25-.03125-.53125-.03125-1.078125 0-1.453125.90625v4.5h-1.078125v-6.34375h1.046875l.015625.73437q.53125-.84374 1.515625-.84374.3125 0 .484375.07812zm2.109375 5.375h-1.078125v-6.34375h1.078125zm-1.171875-8.01562q0-.26563.15625-.45313.171875-.1875.484375-.1875.3125 0 .46875.1875.171875.1875.171875.45313 0 .25-.171875.4375-.15625.17187-.46875.17187-.3125 0-.484375-.17187-.15625-.1875-.15625-.4375zm4.109375 1.67187v7.07813q0 1.82812-1.65625 1.82812-.359375 0-.65625-.10938v-.85937q.1875.04687.484375.04687.359375 0 .546875-.20312.203125-.1875.203125-.6875v-7.09375zm-1.1875-1.67187q0-.26563.15625-.45313.15625-.1875.46875-.1875.3125 0 .46875.1875.171875.1875.171875.45313 0 .25-.171875.4375-.15625.17187-.46875.17187-.3125 0-.46875-.17187-.15625-.1875-.15625-.4375zm6.984375 8.01562q-.09375-.1875-.15625-.67188-.75.79688-1.796875.79688-.9375 0-1.546875-.53125-.59375-.53125-.59375-1.35937 0-.98438.75-1.53126.75-.54687 2.125-.54687h1.046875v-.5q0-.5625-.34375-.89063-.328125-.34374-1-.34374-.578125 0-.96875.29687-.390625.28125-.390625.70313h-1.09375q0-.48438.328125-.92188.34375-.4375.921875-.6875.578125-.26562 1.265625-.26562 1.109375 0 1.71875.54687.625.54687.65625 1.5v2.92187q0 .875.21875 1.39063v.09375zm-1.796875-.82812q.515625 0 .96875-.26563.453125-.26563.65625-.6875v-1.29687h-.84375q-2 0-2 1.17187 0 .5.34375.79687.34375.28126.875.28126z"/><path d="m63.546875 355.5h-1.125l-4.296875-6.57812v6.57812h-1.140625v-8.53125h1.140625l4.296875 6.60937v-6.60937h1.125zm1.984375-3.23438q0-.92187.359375-1.67187.375-.75 1.03125-1.14063.65625-.40624 1.484375-.40624 1.296875 0 2.09375.89062.8125.89062.8125 2.39062v.07813q0 .92187-.359375 1.65625-.359375.73438-1.015625 1.15625-.65625.40625-1.515625.40625-1.28125 0-2.09375-.89062-.796875-.90626-.796875-2.39063zm1.09375.14063q0 1.04687.484375 1.6875.5.64063 1.3125.64063.828125 0 1.3125-.64063.484375-.65625.484375-1.82813 0-1.03124-.5-1.67187-.484375-.65625-1.3125-.65625-.796875 0-1.296875.64062-.484375.625-.484375 1.82813zm9.265625-2.28125q-.25-.03125-.53125-.03125-1.078125 0-1.453125.90625v4.5h-1.078125v-6.34375h1.046875l.015625.73437q.53125-.84374 1.515625-.84374.3125 0 .484375.07812zm3.015625 3.90625 1.578125-4.875h1.109375l-2.28125 6.34375h-.828125l-2.296875-6.34375h1.109375zm6.546875 1.59375q-1.296875 0-2.109375-.84375-.796875-.85937-.796875-2.28125v-.1875q0-.95312.359375-1.6875.359375-.75 1-1.15625.65625-.42187 1.40625-.42187 1.234375 0 1.921875.8125.6875.8125.6875 2.32812v.45312h-4.296875q.03125.9375.546875 1.51563.53125.57813 1.34375.57813.5625 0 .953125-.23438.40625-.23438.71875-.625l.65625.51562q-.796875 1.23438-2.390625 1.23438zm-.140625-5.6875q-.65625 0-1.109375.48438-.4375.46874-.53125 1.32812h3.171875v-.07812q-.046875-.82813-.453125-1.28126-.390625-.45312-1.078125-.45312zm2-2.10938h-3.9375v-.84374h3.9375zm1.25 4.45313q0-1.48437.6875-2.35937.6875-.875 1.8125-.875 1.15625 0 1.8125.8125l.046875-.70313h1v6.1875q0 1.23437-.734375 1.9375-.734375.71875-1.953125.71875-.6875 0-1.34375-.29688-.65625-.29687-1-.79687l.5625-.65625q.6875.85938 1.703125.85938.78125 0 1.21875-.45313.453125-.4375.453125-1.25v-.54687q-.65625.76562-1.78125.76562-1.109375 0-1.796875-.89062-.6875-.90626-.6875-2.45313zm1.09375.125q0 1.0625.4375 1.6875.4375.60937 1.234375.60937 1.015625 0 1.5-.9375v-2.89062q-.5-.90625-1.5-.90625-.78125 0-1.234375.60937-.4375.60938-.4375 1.82813zm1.84375-6.76563.625.48438q-.34375.57812-.359375 1.23438v.79687h-1.078125v-.76563q0-.45312.234375-.95312.25-.51562.578125-.79688zm5.5 9.85938h-1.078125v-6.34375h1.078125zm-1.171875-8.01562q0-.26563.15625-.45313.171875-.1875.484375-.1875.3125 0 .46875.1875.171875.1875.171875.45313 0 .25-.171875.4375-.15625.17187-.46875.17187-.3125 0-.484375-.17187-.15625-.1875-.15625-.4375zm4.109375 1.67187v7.07813q0 1.82812-1.65625 1.82812-.359375 0-.65625-.10938v-.85937q.1875.04687.484375.04687.359375 0 .546875-.20312.203125-.1875.203125-.6875v-7.09375zm-1.1875-1.67187q0-.26563.15625-.45313.15625-.1875.46875-.1875.3125 0 .46875.1875.171875.1875.171875.45313 0 .25-.171875.4375-.15625.17187-.46875.17187-.3125 0-.46875-.17187-.15625-.1875-.15625-.4375zm6.984375 8.01562q-.09375-.1875-.15625-.67188-.75.79688-1.796875.79688-.9375 0-1.546875-.53125-.59375-.53125-.59375-1.35937 0-.98438.75-1.53126.75-.54687 2.125-.54687h1.046875v-.5q0-.5625-.34375-.89063-.328125-.34374-1-.34374-.578125 0-.96875.29687-.390625.28125-.390625.70313h-1.09375q0-.48438.328125-.92188.34375-.4375.921875-.6875.578125-.26562 1.265625-.26562 1.109375 0 1.71875.54687.625.54687.65625 1.5v2.92187q0 .875.21875 1.39063v.09375zm-1.796875-.82812q.515625 0 .96875-.26563.453125-.26563.65625-.6875v-1.29687h-.84375q-2 0-2 1.17187 0 .5.34375.79687.34375.28126.875.28126z"/><path d="m66.203125 412.24008h-1.125v-8.53125h1.125zm1.359375-3.21875q0-1.48437.6875-2.35937.6875-.875 1.8125-.875 1.15625 0 1.8125.8125l.046875-.70313h1v6.1875q0 1.23437-.734375 1.9375-.734375.71875-1.953125.71875-.6875 0-1.34375-.29688-.65625-.29687-1-.79687l.5625-.65625q.6875.85938 1.703125.85938.78125 0 1.21875-.45313.453125-.4375.453125-1.25v-.54687q-.65625.76562-1.78125.76562-1.109375 0-1.796875-.89062-.6875-.90626-.6875-2.45313zm1.09375.125q0 1.0625.4375 1.6875.4375.60937 1.234375.60937 1.015625 0 1.5-.9375v-2.89062q-.5-.90625-1.5-.90625-.78125 0-1.234375.60937-.4375.60938-.4375 1.82813zm10.078125 3.09375q-.09375-.1875-.15625-.67188-.75.79688-1.796875.79688-.9375 0-1.546875-.53125-.59375-.53125-.59375-1.35937 0-.98438.75-1.53126.75-.54687 2.125-.54687h1.046875v-.5q0-.5625-.34375-.89063-.328125-.34374-1-.34374-.578125 0-.96875.29687-.390625.28125-.390625.70313h-1.09375q0-.48438.328125-.92188.34375-.4375.921875-.6875.578125-.26562 1.265625-.26562 1.109375 0 1.71875.54687.625.54687.65625 1.5v2.92187q0 .875.21875 1.39063v.09375zm-1.796875-.82812q.515625 0 .96875-.26563.453125-.26563.65625-.6875v-1.29687h-.84375q-2 0-2 1.17187 0 .5.34375.79687.34375.28126.875.28126zm8.796875.20312q-.625.75-1.859375.75-1.015625 0-1.546875-.59375-.53125-.59375-.53125-1.75v-4.125h1.078125v4.09375q0 1.45312 1.171875 1.45312 1.25 0 1.65625-.9375v-4.60937h1.09375v6.34375h-1.03125zm4.109375-5.71875.03125.79687q.734375-.90624 1.90625-.90624 2.015625 0 2.03125 2.26562v4.1875h-1.09375v-4.20312q0-.67188-.3125-1-.296875-.32813-.953125-.32813-.53125 0-.9375.28125-.390625.28125-.609375.73438v4.51562h-1.078125v-6.34375zm7.15625 6.34375h-1.078125v-6.34375h1.078125zm-1.171875-8.01562q0-.26563.15625-.45313.171875-.1875.484375-.1875.3125 0 .46875.1875.171875.1875.171875.45313 0 .25-.171875.4375-.15625.17187-.46875.17187-.3125 0-.484375-.17187-.15625-.1875-.15625-.4375zm4.109375 1.67187v7.07813q0 1.82812-1.65625 1.82812-.359375 0-.65625-.10938v-.85937q.1875.04687.484375.04687.359375 0 .546875-.20312.203125-.1875.203125-.6875v-7.09375zm-1.1875-1.67187q0-.26563.15625-.45313.15625-.1875.46875-.1875.3125 0 .46875.1875.171875.1875.171875.45313 0 .25-.171875.4375-.15625.17187-.46875.17187-.3125 0-.46875-.17187-.15625-.1875-.15625-.4375zm6.984375 8.01562q-.09375-.1875-.15625-.67188-.75.79688-1.796875.79688-.9375 0-1.546875-.53125-.59375-.53125-.59375-1.35937 0-.98438.75-1.53126.75-.54687 2.125-.54687h1.046875v-.5q0-.5625-.34375-.89063-.328125-.34374-1-.34374-.578125 0-.96875.29687-.390625.28125-.390625.70313h-1.09375q0-.48438.328125-.92188.34375-.4375.921875-.6875.578125-.26562 1.265625-.26562 1.109375 0 1.71875.54687.625.54687.65625 1.5v2.92187q0 .875.21875 1.39063v.09375zm-1.796875-.82812q.515625 0 .96875-.26563.453125-.26563.65625-.6875v-1.29687h-.84375q-2 0-2 1.17187 0 .5.34375.79687.34375.28126.875.28126z"/><path d="m73.984375 468.98016v-8.53126h2.421875q1.109375 0 1.953125.5.859375.4844 1.328125 1.39064.46875.90626.46875 2.09376v.53124q0 1.21876-.46875 2.125-.453125.90626-1.328125 1.39062-.859375.48438-2 .5zm1.125-7.60936v6.6875h1.1875q1.296875 0 2.015625-.7969.734375-.8125.734375-2.3125v-.5q0-1.4531-.6875-2.25-.671875-.8125-1.9375-.8281zm10.625 7.60936q-.09375-.1875-.15625-.67186-.75.79686-1.796875.79686-.9375 0-1.546875-.53126-.59375-.53124-.59375-1.35936 0-.98438.75-1.53124.75-.5469 2.125-.5469h1.046875v-.5q0-.5625-.34375-.8906-.328125-.34376-1-.34376-.578125 0-.96875.29686-.390625.28126-.390625.70314h-1.09375q0-.48438.328125-.92188.34375-.4375.921875-.6875.578125-.26562 1.265625-.26562 1.109375 0 1.71875.54686.625.5469.65625 1.5v2.9219q0 .875.21875 1.3906v.09376zm-1.796875-.82812q.515625 0 .96875-.26564.453125-.2656.65625-.6875v-1.29686h-.84375q-2 0-2 1.17186 0 .5.34375.7969.34375.28124.875.28124zm2.46875-6.84374h-3.9375v-.84376h3.9375zm3.4375 1.3281.03125.7969q.734375-.90626 1.90625-.90626 2.015625 0 2.03125 2.26562v4.1875h-1.09375v-4.20312q0-.67188-.3125-1-.296875-.32814-.953125-.32814-.53125 0-.9375.28126-.390625.28124-.609375.73438v4.51562h-1.078125v-6.34376zm7.15625 6.34376h-1.078125v-6.34376h1.078125zm-1.171875-8.01562q0-.26564.15625-.45314.171875-.1875.484375-.1875.3125 0 .46875.1875.171875.1875.171875.45314 0 .25-.171875.4375-.15625.17186-.46875.17186-.3125 0-.484375-.17186-.15625-.1875-.15625-.4375zm4.109375 1.67186v7.07814q0 1.82812-1.65625 1.82812-.359375 0-.65625-.10936v-.8594q.1875.0469.484375.0469.359375 0 .546875-.20314.203125-.1875.203125-.6875v-7.09376zm-1.1875-1.67186q0-.26564.15625-.45314.15625-.1875.46875-.1875.3125 0 .46875.1875.171875.1875.171875.45314 0 .25-.171875.4375-.15625.17186-.46875.17186-.3125 0-.46875-.17186-.15625-.1875-.15625-.4375zm6.984375 8.01562q-.09375-.1875-.15625-.67186-.75.79686-1.796875.79686-.9375 0-1.546875-.53126-.59375-.53124-.59375-1.35936 0-.98438.75-1.53124.75-.5469 2.125-.5469h1.046875v-.5q0-.5625-.34375-.8906-.328125-.34376-1-.34376-.578125 0-.96875.29686-.390625.28126-.390625.70314h-1.09375q0-.48438.328125-.92188.34375-.4375.921875-.6875.578125-.26562 1.265625-.26562 1.109375 0 1.71875.54686.625.5469.65625 1.5v2.9219q0 .875.21875 1.3906v.09376zm-1.796875-.82812q.515625 0 .96875-.26564.453125-.2656.65625-.6875v-1.29686h-.84375q-2 0-2 1.17186 0 .5.34375.7969.34375.28124.875.28124z"/><path d="m79.109375 522.3765v3.3438h-1.125v-8.5313h3.15625q1.390625 0 2.1875.7188.796875.7031.796875 1.8906 0 1.2344-.78125 1.90625-.765625.67185-2.21875.67185zm0-.92185h2.03125q.90625 0 1.375-.42185.484375-.4219.484375-1.2188 0-.7656-.484375-1.2187-.46875-.4688-1.3125-.4844h-2.09375zm6.421875 1.03125q0-.9219.359375-1.6719.375-.75 1.03125-1.1406.65625-.40625 1.484375-.40625 1.296875 0 2.09375.89065.8125.8906.8125 2.3906v.0781q0 .9219-.359375 1.6563-.359375.73435-1.015625 1.1562-.65625.4063-1.515625.4063-1.28125 0-2.09375-.89065-.796875-.90625-.796875-2.39065zm1.09375.1406q0 1.0469.484375 1.6875.5.64065 1.3125.64065.828125 0 1.3125-.64065.484375-.6562.484375-1.8281 0-1.03125-.5-1.6719-.484375-.6562-1.3125-.6562-.796875 0-1.296875.6406-.484375.625-.484375 1.8281zm7.375 3.0938h-1.078125v-9h1.078125zm3 0h-1.078125v-6.3438h1.078125zm-1.171875-8.01565q0-.26565.15625-.45315.171875-.1875.484375-.1875.3125 0 .46875.1875.171875.1875.171875.45315 0 .25-.171875.4375-.15625.17185-.46875.17185-.3125 0-.484375-.17185-.15625-.1875-.15625-.4375zm4.109375 1.67185v7.07815q0 1.82815-1.65625 1.82815-.359375 0-.65625-.1094v-.8594q.1875.0469.484375.0469.359375 0 .546875-.2031.203125-.1875.203125-.6875v-7.0938zm-1.1875-1.67185q0-.26565.15625-.45315.15625-.1875.46875-.1875.3125 0 .46875.1875.171875.1875.171875.45315 0 .25-.171875.4375-.15625.17185-.46875.17185-.3125 0-.46875-.17185-.15625-.1875-.15625-.4375zm6.984375 8.01565q-.09375-.1875-.15625-.6719-.75.7969-1.796875.7969-.9375 0-1.546875-.5313-.59375-.5312-.59375-1.35935 0-.98435.75-1.53125.75-.5469 2.125-.5469h1.046875v-.5q0-.5625-.34375-.8906-.328125-.34375-1-.34375-.578125 0-.96875.29685-.390625.2813-.390625.70315h-1.09375q0-.48435.328125-.92185.34375-.4375.921875-.6875.578125-.26565 1.265625-.26565 1.109375 0 1.71875.54685.625.5469.65625 1.5v2.9219q0 .875.21875 1.3906v.0938zm-1.796875-.82815q.515625 0 .96875-.26565.453125-.2656.65625-.6875v-1.29685h-.84375q-2 0-2 1.17185 0 .5.34375.7969.34375.28125.875.28125z"/><path d="m56.546875 582.4603h-1.125l-4.296875-6.5781v6.5781h-1.140625v-8.5312h1.140625l4.296875 6.60935v-6.60935h1.125zm3.453125 0h-1.09375v-6.3437h1.09375zm1.46875-7.6562h-3.9375v-.8438h3.9375zm.09375 4.4375q0-1.4688.6875-2.3438.6875-.8906 1.8125-.8906 1.109375 0 1.765625.75v-3.2969h1.078125v9h-1l-.046875-.6875q-.65625.8125-1.8125.8125-1.09375 0-1.796875-.9062-.6875-.9063-.6875-2.3594zm1.078125.125q0 1.0781.4375 1.6875.453125.60935 1.234375.60935 1.03125 0 1.515625-.9375v-2.90625q-.484375-.8906-1.5-.8906-.796875 0-1.25.60935-.4375.60935-.4375 1.82815zm8.8125 3.2187q-1.296875 0-2.109375-.8437-.796875-.8594-.796875-2.2813v-.1875q0-.9531.359375-1.6875.359375-.75 1-1.1562.65625-.4219 1.40625-.4219 1.234375 0 1.921875.8125.6875.8125.6875 2.3281v.45315h-4.296875q.03125.9375.546875 1.51565.53125.5781 1.34375.5781.5625 0 .953125-.2344.40625-.23435.71875-.625l.65625.51565q-.796875 1.23435-2.390625 1.23435zm-.140625-5.6875q-.65625 0-1.109375.4844-.4375.46875-.53125 1.3281h3.171875v-.0781q-.046875-.8281-.453125-1.28125-.390625-.45315-1.078125-.45315zm6.578125.1875q-.25-.0312-.53125-.0312-1.078125 0-1.453125.9062v4.5h-1.078125v-6.3437h1.046875l.015625.73435q.53125-.84375 1.515625-.84375.3125 0 .484375.0781zm2.109375 5.375h-1.078125v-9h1.078125zm5.734375 0q-.09375-.1875-.15625-.67185-.75.79685-1.796875.79685-.9375 0-1.546875-.5312-.59375-.5313-.59375-1.3594 0-.9844.75-1.53125.75-.54685 2.125-.54685h1.046875v-.5q0-.5625-.34375-.89065-.328125-.34375-1-.34375-.578125 0-.96875.2969-.390625.2812-.390625.7031h-1.09375q0-.4844.328125-.9219.34375-.4375.921875-.6875.578125-.2656 1.265625-.2656 1.109375 0 1.71875.5469.625.54685.65625 1.5v2.92185q0 .875.21875 1.39065v.0937zm-1.796875-.8281q.515625 0 .96875-.2656.453125-.26565.65625-.6875v-1.2969h-.84375q-2 0-2 1.1719 0 .5.34375.79685.34375.28125.875.28125zm5.90625-5.5156.03125.79685q.734375-.90625 1.90625-.90625 2.015625 0 2.03125 2.2656v4.1875h-1.09375v-4.2031q0-.6719-.3125-1-.296875-.3281-.953125-.3281-.53125 0-.9375.2812-.390625.2813-.609375.7344v4.5156h-1.078125v-6.3437zm5.71875 3.125q0-1.4688.6875-2.3438.6875-.8906 1.8125-.8906 1.109375 0 1.765625.75v-3.2969h1.078125v9h-1l-.046875-.6875q-.65625.8125-1.8125.8125-1.09375 0-1.796875-.9062-.6875-.9063-.6875-2.3594zm1.078125.125q0 1.0781.4375 1.6875.453125.60935 1.234375.60935 1.03125 0 1.515625-.9375v-2.90625q-.484375-.8906-1.5-.8906-.796875 0-1.25.60935-.4375.60935-.4375 1.82815zm8.8125 3.2187q-1.296875 0-2.109375-.8437-.796875-.8594-.796875-2.2813v-.1875q0-.9531.359375-1.6875.359375-.75 1-1.1562.65625-.4219 1.40625-.4219 1.234375 0 1.921875.8125.6875.8125.6875 2.3281v.45315h-4.296875q.03125.9375.546875 1.51565.53125.5781 1.34375.5781.5625 0 .953125-.2344.40625-.23435.71875-.625l.65625.51565q-.796875 1.23435-2.390625 1.23435zm-.140625-5.6875q-.65625 0-1.109375.4844-.4375.46875-.53125 1.3281h3.171875v-.0781q-.046875-.8281-.453125-1.28125-.390625-.45315-1.078125-.45315z"/><path d="m31.109375 635.8567v3.34374h-1.125v-8.53124h3.15625q1.390625 0 2.1875.71874.796875.70312.796875 1.89062 0 1.23438-.78125 1.90624-.765625.6719-2.21875.6719zm0-.9219h2.03125q.90625 0 1.375-.42186.484375-.42188.484375-1.21874 0-.76564-.484375-1.21876-.46875-.46874-1.3125-.48438h-2.09375zm10.625 4.26564q-.09375-.1875-.15625-.67188-.75.79688-1.796875.79688-.9375 0-1.546875-.53124-.59375-.53126-.59375-1.3594 0-.98436.75-1.53124.75-.54686 2.125-.54686h1.046875v-.5q0-.5625-.34375-.89064-.328125-.34376-1-.34376-.578125 0-.96875.2969-.390625.28124-.390625.7031h-1.09375q0-.48436.328125-.92186.34375-.4375.921875-.6875.578125-.26564 1.265625-.26564 1.109375 0 1.71875.5469.625.54686.65625 1.5v2.92186q0 .875.21875 1.39064v.09374zm-1.796875-.82814q.515625 0 .96875-.2656.453125-.26564.65625-.6875v-1.2969h-.84375q-2 0-2 1.1719 0 .5.34375.79686.34375.28124.875.28124zm2.46875-6.84374h-3.9375v-.84376h3.9375zm5.484375 2.29688q-.25-.03124-.53125-.03124-1.078125 0-1.453125.90624v4.5h-1.078125v-6.34374h1.046875l.015625.73436q.53125-.84376 1.515625-.84376.3125 0 .484375.07814zm3.5625 5.5q-1.296875 0-2.109375-.84374-.796875-.8594-.796875-2.28126v-.1875q0-.95314.359375-1.6875.359375-.75 1-1.15624.65625-.4219 1.40625-.4219 1.234375 0 1.921875.8125.6875.8125.6875 2.32814v.45312h-4.296875q.03125.9375.546875 1.51564.53125.5781 1.34375.5781.5625 0 .953125-.23436.40625-.23438.71875-.625l.65625.51562q-.796875 1.23438-2.390625 1.23438zm-.140625-5.6875q-.65625 0-1.109375.48436-.4375.46876-.53125 1.32814h3.171875v-.07814q-.046875-.8281-.453125-1.28124-.390625-.45312-1.078125-.45312zm2-2.10938h-3.9375v-.84376h3.9375zm2.625 1.32814v7.0781q0 1.82814-1.65625 1.82814-.359375 0-.65625-.10938v-.85936q.1875.04686.484375.04686.359375 0 .546875-.20312.203125-.1875.203125-.6875v-7.09374zm-1.1875-1.6719q0-.2656.15625-.4531.15625-.1875.46875-.1875.3125 0 .46875.1875.171875.1875.171875.4531 0 .25-.171875.4375-.15625.1719-.46875.1719-.3125 0-.46875-.1719-.15625-.1875-.15625-.4375zm6.984375 8.01564q-.09375-.1875-.15625-.67188-.75.79688-1.796875.79688-.9375 0-1.546875-.53124-.59375-.53126-.59375-1.3594 0-.98436.75-1.53124.75-.54686 2.125-.54686h1.046875v-.5q0-.5625-.34375-.89064-.328125-.34376-1-.34376-.578125 0-.96875.2969-.390625.28124-.390625.7031h-1.09375q0-.48436.328125-.92186.34375-.4375.921875-.6875.578125-.26564 1.265625-.26564 1.109375 0 1.71875.5469.625.54686.65625 1.5v2.92186q0 .875.21875 1.39064v.09374zm-1.796875-.82814q.515625 0 .96875-.2656.453125-.26564.65625-.6875v-1.2969h-.84375q-2 0-2 1.1719 0 .5.34375.79686.34375.28124.875.28124zm2.46875-6.84374h-3.9375v-.84376h3.9375zm6.109375 5.98438q0-.4375-.34375-.67188-.328125-.25-1.15625-.42186-.8125-.1719-1.296875-.4219-.484375-.25-.71875-.5781-.21875-.34376-.21875-.8125 0-.78126.65625-1.3125.65625-.5469 1.6875-.5469 1.078125 0 1.734375.5625.671875.5469.671875 1.40626h-1.078125q0-.4375-.390625-.75-.375-.32812-.9375-.32812-.59375 0-.9375.26562-.328125.25-.328125.65624 0 .39064.3125.59376.3125.20314 1.125.39064.8125.17186 1.3125.42186.5.25.734375.60938.25.35936.25.85936 0 .8594-.6875 1.375-.671875.51564-1.75.51564-.765625 0-1.359375-.26564-.578125-.28124-.90625-.7656-.328125-.4844-.328125-1.0469h1.078125q.03125.5469.4375.875.40625.3125 1.078125.3125.609375 0 .984375-.25.375-.25.375-.67186zm7.390625.21876 1.578125-4.875h1.109375l-2.28125 6.34374h-.828125l-2.296875-6.34374h1.109375zm7.828125 1.46874q-.09375-.1875-.15625-.67188-.75.79688-1.796875.79688-.9375 0-1.546875-.53124-.59375-.53126-.59375-1.3594 0-.98436.75-1.53124.75-.54686 2.125-.54686h1.046875v-.5q0-.5625-.34375-.89064-.328125-.34376-1-.34376-.578125 0-.96875.2969-.390625.28124-.390625.7031h-1.09375q0-.48436.328125-.92186.34375-.4375.921875-.6875.578125-.26564 1.265625-.26564 1.109375 0 1.71875.5469.625.54686.65625 1.5v2.92186q0 .875.21875 1.39064v.09374zm-1.796875-.82814q.515625 0 .96875-.2656.453125-.26564.65625-.6875v-1.2969h-.84375q-2 0-2 1.1719 0 .5.34375.79686.34375.28124.875.28124zm6.0625.82814h-1.078125v-9h1.078125zm5.515625-1.6875q0-.4375-.34375-.67188-.328125-.25-1.15625-.42186-.8125-.1719-1.296875-.4219-.484375-.25-.71875-.5781-.21875-.34376-.21875-.8125 0-.78126.65625-1.3125.65625-.5469 1.6875-.5469 1.078125 0 1.734375.5625.671875.5469.671875 1.40626h-1.078125q0-.4375-.390625-.75-.375-.32812-.9375-.32812-.59375 0-.9375.26562-.328125.25-.328125.65624 0 .39064.3125.59376.3125.20314 1.125.39064.8125.17186 1.3125.42186.5.25.734375.60938.25.35936.25.85936 0 .8594-.6875 1.375-.671875.51564-1.75.51564-.765625 0-1.359375-.26564-.578125-.28124-.90625-.7656-.328125-.4844-.328125-1.0469h1.078125q.03125.5469.4375.875.40625.3125 1.078125.3125.609375 0 .984375-.25.375-.25.375-.67186zm3.78125-6.1875v1.53126h1.171875v.84374h-1.171875v3.92186q0 .39064.15625.57814.15625.1875.53125.1875.1875 0 .515625-.0625v.875q-.421875.125-.828125.125-.71875 0-1.09375-.4375-.375-.45314-.375-1.26564v-3.92186h-1.15625v-.84374h1.15625v-1.53126zm3.703125 7.875h-1.078125v-6.34374h1.078125zm-1.171875-8.01564q0-.2656.15625-.4531.171875-.1875.484375-.1875.3125 0 .46875.1875.171875.1875.171875.4531 0 .25-.171875.4375-.15625.1719-.46875.1719-.3125 0-.484375-.1719-.15625-.1875-.15625-.4375zm6.6875 6.32814q0-.4375-.34375-.67188-.328125-.25-1.15625-.42186-.8125-.1719-1.296875-.4219-.484375-.25-.71875-.5781-.21875-.34376-.21875-.8125 0-.78126.65625-1.3125.65625-.5469 1.6875-.5469 1.078125 0 1.734375.5625.671875.5469.671875 1.40626h-1.078125q0-.4375-.390625-.75-.375-.32812-.9375-.32812-.59375 0-.9375.26562-.328125.25-.328125.65624 0 .39064.3125.59376.3125.20314 1.125.39064.8125.17186 1.3125.42186.5.25.734375.60938.25.35936.25.85936 0 .8594-.6875 1.375-.671875.51564-1.75.51564-.765625 0-1.359375-.26564-.578125-.28124-.90625-.7656-.328125-.4844-.328125-1.0469h1.078125q.03125.5469.4375.875.40625.3125 1.078125.3125.609375 0 .984375-.25.375-.25.375-.67186z"/><path d="m116.828125 693.46875q0 1.76565-.734375 2.71875-.734375.9375-2.140625.9375-1.40625 0-2.140625-.9219-.734375-.92185-.75-2.6406v-1.5781q0-1.7813.734375-2.70315.75-.9375 2.140625-.9375 1.390625 0 2.125.92185.75.9219.765625 2.64065zm-1.703125-1.71875q0-1.0625-.296875-1.5469-.28125-.48435-.890625-.48435-.59375 0-.890625.46875-.28125.4531-.296875 1.4375v2.0625q0 1.0469.28125 1.5625.28125.5.921875.5.609375 0 .890625-.4844.28125-.48435.28125-1.48435z"/><path d="m253.4948 692.7969.5-4.32815h4.78126v1.40625h-3.39064l-.21875 1.84375q.60938-.32815 1.28127-.32815 1.21876 0 1.90626.76565.7031.75.7031 2.10935 0 .82815-.35936 1.4844-.34374.6406-1 1.0156-.64064.3594-1.53124.3594-.76565 0-1.43753-.3125-.65625-.3281-1.04687-.8906-.375-.5625-.40625-1.2969h1.6875q.04687.53125.35937.8281.32813.2969.84378.2969.5781 0 .875-.40625.3125-.42185.3125-1.17185 0-.7344-.3594-1.1094-.34374-.3906-1-.3906-.60938 0-.98438.3125l-.15625.1562zm12.5.67185q0 1.76565-.73436 2.71875-.73438.9375-2.14064.9375-1.40624 0-2.1406-.9219-.7344-.92185-.75-2.6406v-1.5781q0-1.7813.73436-2.70315.75-.9375 2.14064-.9375 1.3906 0 2.125.92185.75.9219.7656 2.64065zm-1.7031-1.71875q0-1.0625-.2969-1.5469-.28124-.48435-.8906-.48435-.59376 0-.89064.46875-.28126.4531-.29686 1.4375v2.0625q0 1.0469.28124 1.5625.28126.5.92186.5.6094 0 .89064-.4844.28126-.48435.28126-1.48435z"/><path d="m399.52084 697h-1.6875v-6.53125l-2.01562.625v-1.375l3.53125-1.26565h.17187zm8.64063-3.53125q0 1.76565-.73437 2.71875-.73438.9375-2.14063.9375-1.40625 0-2.14063-.9219-.73437-.92185-.75-2.6406v-1.5781q0-1.7813.73438-2.70315.75-.9375 2.14062-.9375 1.39063 0 2.125.92185.75.9219.76563 2.64065zm-1.70313-1.71875q0-1.0625-.29687-1.5469-.28125-.48435-.89063-.48435-.59374 0-.89062.46875-.28125.4531-.29688 1.4375v2.0625q0 1.0469.28126 1.5625.28124.5.92187.5.60937 0 .89063-.4844.28124-.48435.28124-1.48435zm8.70313 1.71875q0 1.76565-.73437 2.71875-.73438.9375-2.14063.9375-1.40625 0-2.14063-.9219-.73437-.92185-.75-2.6406v-1.5781q0-1.7813.73438-2.70315.75-.9375 2.14062-.9375 1.39063 0 2.125.92185.75.9219.76563 2.64065zm-1.70313-1.71875q0-1.0625-.29687-1.5469-.28125-.48435-.89063-.48435-.59374 0-.89062.46875-.28125.4531-.29688 1.4375v2.0625q0 1.0469.28126 1.5625.28124.5.92187.5.60937 0 .89063-.4844.28124-.48435.28124-1.48435z"/><path d="m545.1875 697h-1.6875v-6.53125l-2.0156.625v-1.375l3.5312-1.26565h.1719zm3.1406-4.2031.5-4.32815h4.7813v1.40625h-3.39065l-.21875 1.84375q.6094-.32815 1.28125-.32815 1.21875 0 1.90625.76565.7031.75.7031 2.10935 0 .82815-.35935 1.4844-.34375.6406-1 1.0156-.64065.3594-1.53125.3594-.7656 0-1.4375-.3125-.65625-.3281-1.0469-.8906-.375-.5625-.4062-1.2969h1.6875q.04685.53125.35935.8281.32815.2969.84375.2969.5781 0 .875-.40625.3125-.42185.3125-1.17185 0-.7344-.3594-1.1094-.3437-.3906-1-.3906-.60935 0-.98435.3125l-.15625.1562zm12.5.67185q0 1.76565-.73435 2.71875-.73435.9375-2.14065.9375-1.4062 0-2.1406-.9219-.7344-.92185-.75-2.6406v-1.5781q0-1.7813.7344-2.70315.75-.9375 2.1406-.9375 1.3906 0 2.125.92185.75.9219.7656 2.64065zm-1.7031-1.71875q0-1.0625-.2969-1.5469-.2812-.48435-.8906-.48435-.59375 0-.8906.46875-.2813.4531-.2969 1.4375v2.0625q0 1.0469.28125 1.5625.28125.5.92185.5.6094 0 .89065-.4844.28125-.48435.28125-1.48435z"/></g></svg>