<svg fill="none" height="729" stroke-linecap="square" stroke-miterlimit="10" viewBox="0 0 580 729" width="580" xmlns="http://www.w3.org/2000/svg" xmlns:xlink="http://www.w3.org/1999/xlink"><clipPath id="a"><path d="m124 29h427v644h-427z"/></clipPath><path d="m0 0h580v729h-580z" fill="none"/><path d="m124.5 29.5v644" stroke="#333" stroke-linecap="butt"/><path d="m266.5 29.5v644" stroke="#ccc" stroke-linecap="butt"/><path d="m408.5 29.5v644" stroke="#ccc" stroke-linecap="butt"/><path d="m551.5 29.5v644" stroke="#ccc" stroke-linecap="butt"/><path d="m171.5 29.5v644"/><path d="m218.5 29.5v644"/><path d="m313.5 29.5v644"/><path d="m361.5 29.5v644"/><path d="m456.5 29.5v644"/><path d="m503.5 29.5v644"/><path d="m124.5 673.5v-644" stroke="#000" stroke-linecap="butt"/><path clip-path="url(#a)" d="m124 86v-37h269c1.10458 0 2 .89543 2 2v33c0 1.10457-.89542 2-2 2z"/><path clip-path="url(#a)" d="m124 86v-37h269c1.10458 0 2 .89543 2 2v33c0 1.10457-.89542 2-2 2z" fill="#0b5394"/><path clip-path="url(#a)" d="m124 143v-37h166c1.10458 0 2 .89543 2 2v33c0 1.10457-.89542 2-2 2z"/><path clip-path="url(#a)" d="m124 143v-37h166c1.10458 0 2 .89543 2 2v33c0 1.10457-.89542 2-2 2z" fill="#0b5394"/><path clip-path="url(#a)" d="m124 200v-37h153c1.10458 0 2 .89543 2 2v33c0 1.10457-.89542 2-2 2z"/><path clip-path="url(#a)" d="m124 200v-37h153c1.10458 0 2 .89543 2 2v33c0 1.10457-.89542 2-2 2z" fill="#0b5394"/><path clip-path="url(#a)" d="m124 257v-37h144c1.10458 0 2 .89543 2 2v33c0 1.10458-.89542 2-2 2z"/><path clip-path="url(#a)" d="m124 257v-37h144c1.10458 0 2 .89543 2 2v33c0 1.10458-.89542 2-2 2z" fill="#0b5394"/><path clip-path="url(#a)" d="m124 313v-37h117c1.10457 0 2 .89542 2 2v33c0 1.10458-.89543 2-2 2z"/><path clip-path="url(#a)" d="m124 313v-37h117c1.10457 0 2 .89542 2 2v33c0 1.10458-.89543 2-2 2z" fill="#0b5394"/><path clip-path="url(#a)" d="m124 370v-37h97c1.10457 0 2 .89542 2 2v33c0 1.10458-.89543 2-2 2z"/><path clip-path="url(#a)" d="m124 370v-37h97c1.10457 0 2 .89542 2 2v33c0 1.10458-.89543 2-2 2z" fill="#0b5394"/><path clip-path="url(#a)" d="m124 427v-37h75c1.10457 0 2 .89542 2 2v33c0 1.10458-.89543 2-2 2z"/><path clip-path="url(#a)" d="m124 427v-37h75c1.10457 0 2 .89542 2 2v33c0 1.10458-.89543 2-2 2z" fill="#0b5394"/><path clip-path="url(#a)" d="m124 483v-37h71c1.10457 0 2 .89542 2 2v33c0 1.10458-.89543 2-2 2z"/><path clip-path="url(#a)" d="m124 483v-37h71c1.10457 0 2 .89542 2 2v33c0 1.10458-.89543 2-2 2z" fill="#0b5394"/><path clip-path="url(#a)" d="m124 540v-37h59c1.10457 0 2 .89542 2 2v33c0 1.10455-.89543 2-2 2z"/><path clip-path="url(#a)" d="m124 540v-37h59c1.10457 0 2 .89542 2 2v33c0 1.10455-.89543 2-2 2z" fill="#0b5394"/><path clip-path="url(#a)" d="m124 597v-37h57c1.10457 0 2 .89545 2 2v33c0 1.10455-.89543 2-2 2z"/><path clip-path="url(#a)" d="m124 597v-37h57c1.10457 0 2 .89545 2 2v33c0 1.10455-.89543 2-2 2z" fill="#0b5394"/><path clip-path="url(#a)" d="m124 654v-37h417c1.10455 0 2 .89545 2 2v33c0 1.10455-.89545 2-2 2z"/><path clip-path="url(#a)" d="m124 654v-37h417c1.10455 0 2 .89545 2 2v33c0 1.10455-.89545 2-2 2z" fill="#0b5394"/><path d="m124.5 679.5v-12" stroke="#000" stroke-linecap="butt"/><path d="m266.5 679.5v-12" stroke="#000" stroke-linecap="butt"/><path d="m408.5 679.5v-12" stroke="#000" stroke-linecap="butt"/><path d="m551.5 679.5v-12" stroke="#000" stroke-linecap="butt"/><path d="m364.19928 68.09375q-.67188.640625-1.54688.640625-1.14062 0-1.82812-.765625-.67188-.78125-.67188-2.09375 0-.84375.35938-1.546875.375-.703125 1.03125-1.09375.65625-.390625 1.48437-.390625.84375 0 1.5.421875.65625.421875 1.01563 1.21875.35937.796875.375 1.8125v.625q0 2.140625-1.0625 3.359375-1.0625 1.21875-3.01563 1.296875h-.40625v-1.40625l.375-.015625q2.20313-.09375 2.39063-2.0625zm-1.14063-.65625q.42188 0 .70313-.203125.29687-.21875.45312-.515625v-.6875q0-.859375-.32812-1.328125-.32813-.484375-.875-.484375-.51563 0-.84375.46875-.32813.453125-.32813 1.15625 0 .703125.3125 1.15625.32813.4375.90625.4375zm4.42188-.140625.5-4.328125h4.78125v1.40625h-3.39063l-.21875 1.84375q.60938-.328125 1.28125-.328125 1.21875 0 1.90625.765625.70313.75.70313 2.109375 0 .828125-.35938 1.484375-.34375.640625-1 1.015625-.64062.359375-1.53125.359375-.76562 0-1.4375-.3125-.65625-.328125-1.04687-.890625-.375-.5625-.40625-1.296875h1.6875q.04687.53125.35937.828125.32813.296875.84375.296875.57813 0 .875-.40625.3125-.421875.3125-1.171875 0-.734375-.35937-1.109375-.34375-.390625-1-.390625-.60938 0-.98438.3125l-.15625.15625zm6.90625 3.375q0-.40625.26562-.65625.28125-.25.6875-.25.42188 0 .6875.25.28125.25.28125.65625 0 .390625-.28125.640625-.26562.25-.6875.25-.40625 0-.6875-.25-.26562-.25-.26562-.640625zm4.5625-4.1875h.90625q.64062 0 .95312-.3125.3125-.328125.3125-.859375 0-.515625-.3125-.796875-.29687-.296875-.84375-.296875-.48437 0-.8125.265625-.32812.265625-.32812.6875h-1.6875q0-.65625.35937-1.1875.35938-.53125 1-.828125.65625-.3125 1.4375-.3125 1.34375 0 2.10938.65625.78125.640625.78125 1.78125 0 .59375-.35938 1.09375-.35937.484375-.9375.734375.71875.265625 1.0625.78125.35938.515625.35938 1.21875 0 1.140625-.82813 1.828125-.82812.6875-2.1875.6875-1.28125 0-2.09375-.671875-.8125-.6875-.8125-1.796875h1.6875q0 .484375.35938.796875.375.296875.89062.296875.60938 0 .95313-.3125.34375-.328125.34375-.859375 0-1.265625-1.40625-1.265625h-.90625zm9.875-3.609375v1.40625h-.15625q-1.15625.015625-1.85938.59375-.6875.578125-.82812 1.609375.67187-.6875 1.70312-.6875 1.125 0 1.78125.796875.65625.796875.65625 2.09375 0 .828125-.35937 1.5-.35938.671875-1.03125 1.0625-.65625.375-1.48438.375-1.34375 0-2.17187-.9375-.82813-.953125-.82813-2.515625v-.609375q0-1.390625.51563-2.453125.53125-1.0625 1.5-1.640625.98437-.578125 2.28125-.59375zm-1.65625 4.28125q-.40625 0-.75.21875-.32813.203125-.48438.5625v.515625q0 .84375.32813 1.328125.34375.46875.95312.46875.54688 0 .875-.421875.34375-.4375.34375-1.125 0-.703125-.34375-1.125-.34375-.421875-.92187-.421875z" stroke="#0b5394" stroke-linecap="round" stroke-linejoin="round" stroke-width="3"/><path d="m364.19928 68.09375q-.67188.640625-1.54688.640625-1.14062 0-1.82812-.765625-.67188-.78125-.67188-2.09375 0-.84375.35938-1.546875.375-.703125 1.03125-1.09375.65625-.390625 1.48437-.390625.84375 0 1.5.421875.65625.421875 1.01563 1.21875.35937.796875.375 1.8125v.625q0 2.140625-1.0625 3.359375-1.0625 1.21875-3.01563 1.296875h-.40625v-1.40625l.375-.015625q2.20313-.09375 2.39063-2.0625zm-1.14063-.65625q.42188 0 .70313-.203125.29687-.21875.45312-.515625v-.6875q0-.859375-.32812-1.328125-.32813-.484375-.875-.484375-.51563 0-.84375.46875-.32813.453125-.32813 1.15625 0 .703125.3125 1.15625.32813.4375.90625.4375zm4.42188-.140625.5-4.328125h4.78125v1.40625h-3.39063l-.21875 1.84375q.60938-.328125 1.28125-.328125 1.21875 0 1.90625.765625.70313.75.70313 2.109375 0 .828125-.35938 1.484375-.34375.640625-1 1.015625-.64062.359375-1.53125.359375-.76562 0-1.4375-.3125-.65625-.328125-1.04687-.890625-.375-.5625-.40625-1.296875h1.6875q.04687.53125.35937.828125.32813.296875.84375.296875.57813 0 .875-.40625.3125-.421875.3125-1.171875 0-.734375-.35937-1.109375-.34375-.390625-1-.390625-.60938 0-.98438.3125l-.15625.15625zm6.90625 3.375q0-.40625.26562-.65625.28125-.25.6875-.25.42188 0 .6875.25.28125.25.28125.65625 0 .390625-.28125.640625-.26562.25-.6875.25-.40625 0-.6875-.25-.26562-.25-.26562-.640625zm4.5625-4.1875h.90625q.64062 0 .95312-.3125.3125-.328125.3125-.859375 0-.515625-.3125-.796875-.29687-.296875-.84375-.296875-.48437 0-.8125.265625-.32812.265625-.32812.6875h-1.6875q0-.65625.35937-1.1875.35938-.53125 1-.828125.65625-.3125 1.4375-.3125 1.34375 0 2.10938.65625.78125.640625.78125 1.78125 0 .59375-.35938 1.09375-.35937.484375-.9375.734375.71875.265625 1.0625.78125.35938.515625.35938 1.21875 0 1.140625-.82813 1.828125-.82812.6875-2.1875.6875-1.28125 0-2.09375-.671875-.8125-.6875-.8125-1.796875h1.6875q0 .484375.35938.796875.375.296875.89062.296875.60938 0 .95313-.3125.34375-.328125.34375-.859375 0-1.265625-1.40625-1.265625h-.90625zm9.875-3.609375v1.40625h-.15625q-1.15625.015625-1.85938.59375-.6875.578125-.82812 1.609375.67187-.6875 1.70312-.6875 1.125 0 1.78125.796875.65625.796875.65625 2.09375 0 .828125-.35937 1.5-.35938.671875-1.03125 1.0625-.65625.375-1.48438.375-1.34375 0-2.17187-.9375-.82813-.953125-.82813-2.515625v-.609375q0-1.390625.51563-2.453125.53125-1.0625 1.5-1.640625.98437-.578125 2.28125-.59375zm-1.65625 4.28125q-.40625 0-.75.21875-.32813.203125-.48438.5625v.515625q0 .84375.32813 1.328125.34375.46875.95312.46875.54688 0 .875-.421875.34375-.4375.34375-1.125 0-.703125-.34375-1.125-.34375-.421875-.92187-.421875z" fill="#fff"/><path d="m257.39624 124.296875.5-4.328125h4.78126v1.40625h-3.39063l-.21877 1.84375q.6094-.328125 1.28127-.328125 1.21873 0 1.90623.765625.70314.75.70314 2.109375 0 .828125-.35937 1.484375-.34377.640625-1 1.01562-.64063.35938-1.53127.35938-.7656 0-1.4375-.3125-.65623-.328125-1.04686-.890625-.375-.5625-.40624-1.296875h1.6875q.04687.53125.35937.828125.32813.296875.84373.296875.57814 0 .875-.40625.3125-.421875.3125-1.171875 0-.734375-.35936-1.109375-.34374-.390625-1-.390625-.60937 0-.98437.3125l-.15627.15625zm10.71876.796875q-.6719.640625-1.5469.640625-1.1406 0-1.8281-.765625-.6719-.78125-.6719-2.09375 0-.84375.3594-1.546875.375-.703125 1.03124-1.09375.65626-.390625 1.48436-.390625.84377 0 1.5.421875.65627.421875 1.01564 1.21875.35936.796875.375 1.8125v.625q0 2.140625-1.0625 3.359375-1.0625 1.21875-3.01564 1.29687h-.40623v-1.406245l.375-.015625q2.20313-.09375 2.39063-2.0625zm-1.14063-.65625q.42187 0 .70313-.203125.29687-.21875.4531-.515625v-.6875q0-.859375-.3281-1.328125-.32813-.484375-.875-.484375-.51563 0-.84376.46875-.32814.453125-.32814 1.15625 0 .703125.3125 1.15625.32814.4375.90627.4375zm4.32813 3.234375q0-.40625.2656-.65625.28127-.25.6875-.25.4219 0 .6875.25.28127.25.28127.65625 0 .390625-.28127.640625-.2656.25-.6875.25-.40623 0-.6875-.25-.2656-.25-.2656-.640625zm6.9531.828125h-1.6875v-6.53125l-2.0156.625v-1.375l3.53124-1.265625h.17186zm3.14064-4.203125.5-4.328125h4.78126v1.40625h-3.39063l-.21877 1.84375q.6094-.328125 1.28127-.328125 1.21873 0 1.90623.765625.70314.75.70314 2.109375 0 .828125-.35937 1.484375-.34377.640625-1 1.01562-.64063.35938-1.53127.35938-.7656 0-1.4375-.3125-.65623-.328125-1.04686-.890625-.375-.5625-.40624-1.296875h1.6875q.04687.53125.35937.828125.32813.296875.84373.296875.57814 0 .875-.40625.3125-.421875.3125-1.171875 0-.734375-.35936-1.109375-.34374-.390625-1-.390625-.60937 0-.98437.3125l-.15627.15625z" stroke="#0b5394" stroke-linecap="round" stroke-linejoin="round" stroke-width="3"/><path d="m257.39624 124.296875.5-4.328125h4.78126v1.40625h-3.39063l-.21877 1.84375q.6094-.328125 1.28127-.328125 1.21873 0 1.90623.765625.70314.75.70314 2.109375 0 .828125-.35937 1.484375-.34377.640625-1 1.01562-.64063.35938-1.53127.35938-.7656 0-1.4375-.3125-.65623-.328125-1.04686-.890625-.375-.5625-.40624-1.296875h1.6875q.04687.53125.35937.828125.32813.296875.84373.296875.57814 0 .875-.40625.3125-.421875.3125-1.171875 0-.734375-.35936-1.109375-.34374-.390625-1-.390625-.60937 0-.98437.3125l-.15627.15625zm10.71876.796875q-.6719.640625-1.5469.640625-1.1406 0-1.8281-.765625-.6719-.78125-.6719-2.09375 0-.84375.3594-1.546875.375-.703125 1.03124-1.09375.65626-.390625 1.48436-.390625.84377 0 1.5.421875.65627.421875 1.01564 1.21875.35936.796875.375 1.8125v.625q0 2.140625-1.0625 3.359375-1.0625 1.21875-3.01564 1.29687h-.40623v-1.406245l.375-.015625q2.20313-.09375 2.39063-2.0625zm-1.14063-.65625q.42187 0 .70313-.203125.29687-.21875.4531-.515625v-.6875q0-.859375-.3281-1.328125-.32813-.484375-.875-.484375-.51563 0-.84376.46875-.32814.453125-.32814 1.15625 0 .703125.3125 1.15625.32814.4375.90627.4375zm4.32813 3.234375q0-.40625.2656-.65625.28127-.25.6875-.25.4219 0 .6875.25.28127.25.28127.65625 0 .390625-.28127.640625-.2656.25-.6875.25-.40623 0-.6875-.25-.2656-.25-.2656-.640625zm6.9531.828125h-1.6875v-6.53125l-2.0156.625v-1.375l3.53124-1.265625h.17186zm3.14064-4.203125.5-4.328125h4.78126v1.40625h-3.39063l-.21877 1.84375q.6094-.328125 1.28127-.328125 1.21873 0 1.90623.765625.70314.75.70314 2.109375 0 .828125-.35937 1.484375-.34377.640625-1 1.01562-.64063.35938-1.53127.35938-.7656 0-1.4375-.3125-.65623-.328125-1.04686-.890625-.375-.5625-.40624-1.296875h1.6875q.04687.53125.35937.828125.32813.296875.84373.296875.57814 0 .875-.40625.3125-.421875.3125-1.171875 0-.734375-.35936-1.109375-.34374-.390625-1-.390625-.60937 0-.98437.3125l-.15627.15625z" fill="#fff"/><path d="m243.96957 181.29688.5-4.32813h4.78125v1.40625h-3.39062l-.21875 1.84375q.60937-.32813 1.28125-.32813 1.21875 0 1.90625.76563.70312.75.70312 2.10937 0 .82813-.35937 1.48438-.34375.64062-1 1.01562-.64063.35938-1.53125.35938-.76563 0-1.4375-.3125-.65625-.32812-1.04688-.89062-.375-.5625-.40625-1.29688h1.6875q.04688.53125.35938.82812.32812.29688.84375.29688.57812 0 .875-.40625.3125-.42187.3125-1.17187 0-.73438-.35938-1.10938-.34375-.39062-1-.39062-.60937 0-.98437.3125l-.15625.15624zm11.76563.98437h.96875v1.375h-.96875v1.84375h-1.70313v-1.84375h-3.48437l-.07813-1.0625 3.54688-5.625h1.71875zm-3.57813 0h1.875v-3l-.10937.1875zm5.71875 2.39063q0-.40626.26563-.65626.28125-.25.6875-.25.42187 0 .6875.25.28125.25.28125.65626 0 .39062-.28125.64062-.26563.25-.6875.25-.40625 0-.6875-.25-.26563-.25-.26563-.64062zm7.85938-2.39063h.96875v1.375h-.96875v1.84375h-1.70313v-1.84375h-3.48437l-.07813-1.0625 3.54688-5.625h1.71875zm-3.57813 0h1.875v-3l-.10937.1875zm7.28125-1.79687h.90625q.64063 0 .95313-.3125.3125-.32813.3125-.85938 0-.51562-.3125-.79688-.29688-.29687-.84375-.29687-.48438 0-.8125.26563-.32813.26562-.32813.6875h-1.6875q0-.65626.35938-1.1875.35937-.53126 1-.82813.65625-.3125 1.4375-.3125 1.34375 0 2.10937.65625.78125.64062.78125 1.78125 0 .59375-.35937 1.09375-.35938.48438-.9375.73438.71875.26562 1.0625.78124.35937.51563.35937 1.21876 0 1.14062-.82812 1.82812-.82813.6875-2.1875.6875-1.28125 0-2.09375-.67188-.8125-.6875-.8125-1.79687h1.6875q0 .48437.35937.79687.375.29688.89063.29688.60937 0 .95312-.3125.34375-.32812.34375-.85938 0-1.26562-1.40625-1.26562h-.90625z" stroke="#0b5394" stroke-linecap="round" stroke-linejoin="round" stroke-width="3"/><path d="m243.96957 181.29688.5-4.32813h4.78125v1.40625h-3.39062l-.21875 1.84375q.60937-.32813 1.28125-.32813 1.21875 0 1.90625.76563.70312.75.70312 2.10937 0 .82813-.35937 1.48438-.34375.64062-1 1.01562-.64063.35938-1.53125.35938-.76563 0-1.4375-.3125-.65625-.32812-1.04688-.89062-.375-.5625-.40625-1.29688h1.6875q.04688.53125.35938.82812.32812.29688.84375.29688.57812 0 .875-.40625.3125-.42187.3125-1.17187 0-.73438-.35938-1.10938-.34375-.39062-1-.39062-.60937 0-.98437.3125l-.15625.15624zm11.76563.98437h.96875v1.375h-.96875v1.84375h-1.70313v-1.84375h-3.48437l-.07813-1.0625 3.54688-5.625h1.71875zm-3.57813 0h1.875v-3l-.10937.1875zm5.71875 2.39063q0-.40626.26563-.65626.28125-.25.6875-.25.42187 0 .6875.25.28125.25.28125.65626 0 .39062-.28125.64062-.26563.25-.6875.25-.40625 0-.6875-.25-.26563-.25-.26563-.64062zm7.85938-2.39063h.96875v1.375h-.96875v1.84375h-1.70313v-1.84375h-3.48437l-.07813-1.0625 3.54688-5.625h1.71875zm-3.57813 0h1.875v-3l-.10937.1875zm7.28125-1.79687h.90625q.64063 0 .95313-.3125.3125-.32813.3125-.85938 0-.51562-.3125-.79688-.29688-.29687-.84375-.29687-.48438 0-.8125.26563-.32813.26562-.32813.6875h-1.6875q0-.65626.35938-1.1875.35937-.53126 1-.82813.65625-.3125 1.4375-.3125 1.34375 0 2.10937.65625.78125.64062.78125 1.78125 0 .59375-.35937 1.09375-.35938.48438-.9375.73438.71875.26562 1.0625.78124.35937.51563.35937 1.21876 0 1.14062-.82812 1.82812-.82813.6875-2.1875.6875-1.28125 0-2.09375-.67188-.8125-.6875-.8125-1.79687h1.6875q0 .48437.35937.79687.375.29688.89063.29688.60937 0 .95312-.3125.34375-.32812.34375-.85938 0-1.26562-1.40625-1.26562h-.90625z" fill="#fff"/><path d="m234.74847 238.29688.5-4.32813h4.78125v1.40625h-3.39062l-.21875 1.84375q.60937-.32813 1.28125-.32813 1.21875 0 1.90625.76563.70312.75.70312 2.10937 0 .82813-.35937 1.48438-.34375.64062-1 1.01562-.64063.35938-1.53125.35938-.76563 0-1.4375-.3125-.65625-.32812-1.04688-.89062-.375-.5625-.40625-1.29688h1.6875q.04688.53125.35938.82812.32812.29688.84375.29688.57812 0 .875-.40625.3125-.42187.3125-1.17187 0-.73438-.35938-1.10938-.34375-.39062-1-.39062-.60937 0-.98437.3125l-.15625.15624zm10.85938 4.20312h-1.6875v-6.53125l-2.01563.625v-1.375l3.53125-1.26563h.17188zm3.04687-.82812q0-.40626.26563-.65626.28125-.25.6875-.25.42187 0 .6875.25.28125.25.28125.65626 0 .39062-.28125.64062-.26563.25-.6875.25-.40625 0-.6875-.25-.26563-.25-.26563-.64062zm6.95313.82812h-1.6875v-6.53125l-2.01563.625v-1.375l3.53125-1.26563h.17188zm6.85937-3.40625q-.67187.64063-1.54687.64063-1.14063 0-1.82813-.76563-.67187-.78125-.67187-2.09375 0-.84375.35937-1.54688.375-.70312 1.03125-1.09374.65625-.39063 1.48438-.39063.84375 0 1.5.42187.65625.42188 1.01562 1.21876.35938.79687.375 1.8125v.625q0 2.14062-1.0625 3.35937-1.0625 1.21875-3.01562 1.29687h-.40625v-1.40624l.375-.01563q2.20312-.09375 2.39062-2.0625zm-1.14062-.65625q.42187 0 .70312-.20312.29688-.21876.45313-.51563v-.6875q0-.85937-.32813-1.32813-.32812-.48437-.875-.48437-.51562 0-.84375.46875-.32812.45312-.32812 1.15625 0 .70313.3125 1.15625.32812.4375.90625.4375z" stroke="#0b5394" stroke-linecap="round" stroke-linejoin="round" stroke-width="3"/><path d="m234.74847 238.29688.5-4.32813h4.78125v1.40625h-3.39062l-.21875 1.84375q.60937-.32813 1.28125-.32813 1.21875 0 1.90625.76563.70312.75.70312 2.10937 0 .82813-.35937 1.48438-.34375.64062-1 1.01562-.64063.35938-1.53125.35938-.76563 0-1.4375-.3125-.65625-.32812-1.04688-.89062-.375-.5625-.40625-1.29688h1.6875q.04688.53125.35938.82812.32812.29688.84375.29688.57812 0 .875-.40625.3125-.42187.3125-1.17187 0-.73438-.35938-1.10938-.34375-.39062-1-.39062-.60937 0-.98437.3125l-.15625.15624zm10.85938 4.20312h-1.6875v-6.53125l-2.01563.625v-1.375l3.53125-1.26563h.17188zm3.04687-.82812q0-.40626.26563-.65626.28125-.25.6875-.25.42187 0 .6875.25.28125.25.28125.65626 0 .39062-.28125.64062-.26563.25-.6875.25-.40625 0-.6875-.25-.26563-.25-.26563-.64062zm6.95313.82812h-1.6875v-6.53125l-2.01563.625v-1.375l3.53125-1.26563h.17188zm6.85937-3.40625q-.67187.64063-1.54687.64063-1.14063 0-1.82813-.76563-.67187-.78125-.67187-2.09375 0-.84375.35937-1.54688.375-.70312 1.03125-1.09374.65625-.39063 1.48438-.39063.84375 0 1.5.42187.65625.42188 1.01562 1.21876.35938.79687.375 1.8125v.625q0 2.14062-1.0625 3.35937-1.0625 1.21875-3.01562 1.29687h-.40625v-1.40624l.375-.01563q2.20312-.09375 2.39062-2.0625zm-1.14062-.65625q.42187 0 .70312-.20312.29688-.21876.45313-.51563v-.6875q0-.85937-.32813-1.32813-.32812-.48437-.875-.48437-.51562 0-.84375.46875-.32812.45312-.32812 1.15625 0 .70313.3125 1.15625.32812.4375.90625.4375z" fill="#fff"/><path d="m213.07384 295.28125h.96875v1.375h-.96875v1.84375h-1.70313v-1.84375h-3.48437l-.07813-1.0625 3.54688-5.625h1.71875zm-3.57813 0h1.875v-3l-.10937.1875zm9.67188 3.21875h-1.6875v-6.53125l-2.01563.625v-1.375l3.53125-1.26563h.17188zm3.04687-.82812q0-.40626.26563-.65626.28125-.25.6875-.25.42187 0 .6875.25.28125.25.28125.65626 0 .39062-.28125.64062-.26563.25-.6875.25-.40625 0-.6875-.25-.26563-.25-.26563-.64062zm6.8125-2.57813q-.67187.64063-1.54687.64063-1.14063 0-1.82813-.76563-.67187-.78125-.67187-2.09375 0-.84375.35937-1.54688.375-.70312 1.03125-1.09374.65625-.39063 1.48438-.39063.84375 0 1.5.42187.65625.42188 1.01562 1.21876.35938.79687.375 1.8125v.625q0 2.14062-1.0625 3.35937-1.0625 1.21875-3.01562 1.29687h-.40625v-1.40624l.375-.01563q2.20312-.09375 2.39062-2.0625zm-1.14062-.65625q.42187 0 .70312-.20312.29688-.21876.45313-.51563v-.6875q0-.85937-.32813-1.32813-.32812-.48437-.875-.48437-.51562 0-.84375.46875-.32812.45312-.32812 1.15625 0 .70313.3125 1.15625.32812.4375.90625.4375zm9.92187.53125q0 1.76563-.73437 2.71875-.73438.9375-2.14063.9375-1.40625 0-2.14062-.92188-.73438-.92187-.75-2.64062v-1.57812q0-1.78126.73437-2.70313.75-.9375 2.14063-.9375 1.39062 0 2.125.92187.75.92188.76562 2.64063zm-1.70312-1.71875q0-1.0625-.29688-1.54688-.28125-.48437-.89062-.48437-.59375 0-.89063.46875-.28125.45312-.29687 1.4375v2.0625q0 1.04688.28125 1.5625.28125.5.92187.5.60938 0 .89063-.48438.28125-.48437.28125-1.48437z" stroke="#0b5394" stroke-linecap="round" stroke-linejoin="round" stroke-width="3"/><path d="m213.07384 295.28125h.96875v1.375h-.96875v1.84375h-1.70313v-1.84375h-3.48437l-.07813-1.0625 3.54688-5.625h1.71875zm-3.57813 0h1.875v-3l-.10937.1875zm9.67188 3.21875h-1.6875v-6.53125l-2.01563.625v-1.375l3.53125-1.26563h.17188zm3.04687-.82812q0-.40626.26563-.65626.28125-.25.6875-.25.42187 0 .6875.25.28125.25.28125.65626 0 .39062-.28125.64062-.26563.25-.6875.25-.40625 0-.6875-.25-.26563-.25-.26563-.64062zm6.8125-2.57813q-.67187.64063-1.54687.64063-1.14063 0-1.82813-.76563-.67187-.78125-.67187-2.09375 0-.84375.35937-1.54688.375-.70312 1.03125-1.09374.65625-.39063 1.48438-.39063.84375 0 1.5.42187.65625.42188 1.01562 1.21876.35938.79687.375 1.8125v.625q0 2.14062-1.0625 3.35937-1.0625 1.21875-3.01562 1.29687h-.40625v-1.40624l.375-.01563q2.20312-.09375 2.39062-2.0625zm-1.14062-.65625q.42187 0 .70312-.20312.29688-.21876.45313-.51563v-.6875q0-.85937-.32813-1.32813-.32812-.48437-.875-.48437-.51562 0-.84375.46875-.32812.45312-.32812 1.15625 0 .70313.3125 1.15625.32812.4375.90625.4375zm9.92187.53125q0 1.76563-.73437 2.71875-.73438.9375-2.14063.9375-1.40625 0-2.14062-.92188-.73438-.92187-.75-2.64062v-1.57812q0-1.78126.73437-2.70313.75-.9375 2.14063-.9375 1.39062 0 2.125.92187.75.92188.76562 2.64063zm-1.70312-1.71875q0-1.0625-.29688-1.54688-.28125-.48437-.89062-.48437-.59375 0-.89063.46875-.28125.45312-.29687 1.4375v2.0625q0 1.04688.28125 1.5625.28125.5.92187.5.60938 0 .89063-.48438.28125-.48437.28125-1.48437z" fill="#fff"/><path d="m189.94179 350.48438h.90625q.64062 0 .95312-.3125.3125-.32813.3125-.85938 0-.51562-.3125-.79688-.29687-.29687-.84375-.29687-.48437 0-.8125.26563-.32812.26562-.32812.6875h-1.6875q0-.65626.35937-1.1875.35938-.53126 1-.82813.65625-.3125 1.4375-.3125 1.34375 0 2.10938.65625.78125.64062.78125 1.78125 0 .59375-.35938 1.09375-.35937.48438-.9375.73438.71875.26562 1.0625.78124.35938.51563.35938 1.21876 0 1.14062-.82813 1.82812-.82812.6875-2.1875.6875-1.28125 0-2.09375-.67188-.8125-.6875-.8125-1.79687h1.6875q0 .48437.35938.79687.375.29688.89062.29688.60938 0 .95313-.3125.34375-.32812.34375-.85938 0-1.26562-1.40625-1.26562h-.90625zm10.29687 1.79687h.96875v1.375h-.96875v1.84375h-1.70312v-1.84375h-3.48438l-.07812-1.0625 3.54687-5.625h1.71875zm-3.57812 0h1.875v-3l-.10938.1875zm5.71875 2.39063q0-.40626.26562-.65626.28125-.25.6875-.25.42188 0 .6875.25.28125.25.28125.65626 0 .39062-.28125.64062-.26562.25-.6875.25-.40625 0-.6875-.25-.26562-.25-.26562-.64062zm6.8125-2.57813q-.67188.64063-1.54688.64063-1.14062 0-1.82812-.76563-.67188-.78125-.67188-2.09375 0-.84375.35938-1.54688.375-.70312 1.03125-1.09374.65625-.39063 1.48437-.39063.84375 0 1.5.42187.65625.42188 1.01563 1.21876.35937.79687.375 1.8125v.625q0 2.14062-1.0625 3.35937-1.0625 1.21875-3.01563 1.29687h-.40625v-1.40624l.375-.01563q2.20313-.09375 2.39063-2.0625zm-1.14063-.65625q.42188 0 .70313-.20312.29687-.21876.45312-.51563v-.6875q0-.85937-.32812-1.32813-.32813-.48437-.875-.48437-.51563 0-.84375.46875-.32813.45312-.32813 1.15625 0 .70313.3125 1.15625.32813.4375.90625.4375zm5.89063-.95312h.90625q.64062 0 .95312-.3125.3125-.32813.3125-.85938 0-.51562-.3125-.79688-.29687-.29687-.84375-.29687-.48437 0-.8125.26563-.32812.26562-.32812.6875h-1.6875q0-.65626.35937-1.1875.35938-.53126 1-.82813.65625-.3125 1.4375-.3125 1.34375 0 2.10938.65625.78125.64062.78125 1.78125 0 .59375-.35938 1.09375-.35937.48438-.9375.73438.71875.26562 1.0625.78124.35938.51563.35938 1.21876 0 1.14062-.82813 1.82812-.82812.6875-2.1875.6875-1.28125 0-2.09375-.67188-.8125-.6875-.8125-1.79687h1.6875q0 .48437.35938.79687.375.29688.89062.29688.60938 0 .95313-.3125.34375-.32812.34375-.85938 0-1.26562-1.40625-1.26562h-.90625z" stroke="#0b5394" stroke-linecap="round" stroke-linejoin="round" stroke-width="3"/><path d="m189.94179 350.48438h.90625q.64062 0 .95312-.3125.3125-.32813.3125-.85938 0-.51562-.3125-.79688-.29687-.29687-.84375-.29687-.48437 0-.8125.26563-.32812.26562-.32812.6875h-1.6875q0-.65626.35937-1.1875.35938-.53126 1-.82813.65625-.3125 1.4375-.3125 1.34375 0 2.10938.65625.78125.64062.78125 1.78125 0 .59375-.35938 1.09375-.35937.48438-.9375.73438.71875.26562 1.0625.78124.35938.51563.35938 1.21876 0 1.14062-.82813 1.82812-.82812.6875-2.1875.6875-1.28125 0-2.09375-.67188-.8125-.6875-.8125-1.79687h1.6875q0 .48437.35938.79687.375.29688.89062.29688.60938 0 .95313-.3125.34375-.32812.34375-.85938 0-1.26562-1.40625-1.26562h-.90625zm10.29687 1.79687h.96875v1.375h-.96875v1.84375h-1.70312v-1.84375h-3.48438l-.07812-1.0625 3.54687-5.625h1.71875zm-3.57812 0h1.875v-3l-.10938.1875zm5.71875 2.39063q0-.40626.26562-.65626.28125-.25.6875-.25.42188 0 .6875.25.28125.25.28125.65626 0 .39062-.28125.64062-.26562.25-.6875.25-.40625 0-.6875-.25-.26562-.25-.26562-.64062zm6.8125-2.57813q-.67188.64063-1.54688.64063-1.14062 0-1.82812-.76563-.67188-.78125-.67188-2.09375 0-.84375.35938-1.54688.375-.70312 1.03125-1.09374.65625-.39063 1.48437-.39063.84375 0 1.5.42187.65625.42188 1.01563 1.21876.35937.79687.375 1.8125v.625q0 2.14062-1.0625 3.35937-1.0625 1.21875-3.01563 1.29687h-.40625v-1.40624l.375-.01563q2.20313-.09375 2.39063-2.0625zm-1.14063-.65625q.42188 0 .70313-.20312.29687-.21876.45312-.51563v-.6875q0-.85937-.32812-1.32813-.32813-.48437-.875-.48437-.51563 0-.84375.46875-.32813.45312-.32813 1.15625 0 .70313.3125 1.15625.32813.4375.90625.4375zm5.89063-.95312h.90625q.64062 0 .95312-.3125.3125-.32813.3125-.85938 0-.51562-.3125-.79688-.29687-.29687-.84375-.29687-.48437 0-.8125.26563-.32812.26562-.32812.6875h-1.6875q0-.65626.35937-1.1875.35938-.53126 1-.82813.65625-.3125 1.4375-.3125 1.34375 0 2.10938.65625.78125.64062.78125 1.78125 0 .59375-.35938 1.09375-.35937.48438-.9375.73438.71875.26562 1.0625.78124.35938.51563.35938 1.21876 0 1.14062-.82813 1.82812-.82812.6875-2.1875.6875-1.28125 0-2.09375-.67188-.8125-.6875-.8125-1.79687h1.6875q0 .48437.35938.79687.375.29688.89062.29688.60938 0 .95313-.3125.34375-.32812.34375-.85938 0-1.26562-1.40625-1.26562h-.90625z" fill="#fff"/><path d="m171.89859 412.5h-5.84375v-1.15625l2.76563-2.95313q.5625-.60937.82812-1.07812.28125-.46875.28125-.875 0-.57812-.29687-.89062-.28125-.32813-.8125-.32813-.57813 0-.90625.39063-.32813.39062-.32813 1.04687h-1.70312q0-.78125.375-1.42187.375-.65626 1.04687-1.01563.6875-.375 1.54688-.375 1.3125 0 2.04687.64063.73438.625.73438 1.78124 0 .64063-.32813 1.29688-.32812.65625-1.125 1.53125l-1.9375 2.04687h3.65625zm6.95313-7.57812-3.29688 7.57812h-1.78125l3.29688-7.15625h-4.23438v-1.375h6.01563zm1.35937 6.75q0-.40626.26563-.65626.28125-.25.6875-.25.42187 0 .6875.25.28125.25.28125.65626 0 .39062-.28125.64062-.26563.25-.6875.25-.40625 0-.6875-.25-.26563-.25-.26563-.64062zm6.95313.82812h-1.6875v-6.53125l-2.01563.625v-1.375l3.53125-1.26563h.17188zm3.14062-4.20312.5-4.32813h4.78125v1.40625h-3.39062l-.21875 1.84375q.60937-.32813 1.28125-.32813 1.21875 0 1.90625.76563.70312.75.70312 2.10937 0 .82813-.35937 1.48438-.34375.64062-1 1.01562-.64063.35938-1.53125.35938-.76563 0-1.4375-.3125-.65625-.32812-1.04688-.89062-.375-.5625-.40625-1.29688h1.6875q.04688.53125.35938.82812.32812.29688.84375.29688.57812 0 .875-.40625.3125-.42187.3125-1.17187 0-.73438-.35938-1.10938-.34375-.39062-1-.39062-.60937 0-.98437.3125l-.15625.15624z" stroke="#0b5394" stroke-linecap="round" stroke-linejoin="round" stroke-width="3"/><path d="m171.89859 412.5h-5.84375v-1.15625l2.76563-2.95313q.5625-.60937.82812-1.07812.28125-.46875.28125-.875 0-.57812-.29687-.89062-.28125-.32813-.8125-.32813-.57813 0-.90625.39063-.32813.39062-.32813 1.04687h-1.70312q0-.78125.375-1.42187.375-.65626 1.04687-1.01563.6875-.375 1.54688-.375 1.3125 0 2.04687.64063.73438.625.73438 1.78124 0 .64063-.32813 1.29688-.32812.65625-1.125 1.53125l-1.9375 2.04687h3.65625zm6.95313-7.57812-3.29688 7.57812h-1.78125l3.29688-7.15625h-4.23438v-1.375h6.01563zm1.35937 6.75q0-.40626.26563-.65626.28125-.25.6875-.25.42187 0 .6875.25.28125.25.28125.65626 0 .39062-.28125.64062-.26563.25-.6875.25-.40625 0-.6875-.25-.26563-.25-.26563-.64062zm6.95313.82812h-1.6875v-6.53125l-2.01563.625v-1.375l3.53125-1.26563h.17188zm3.14062-4.20312.5-4.32813h4.78125v1.40625h-3.39062l-.21875 1.84375q.60937-.32813 1.28125-.32813 1.21875 0 1.90625.76563.70312.75.70312 2.10937 0 .82813-.35937 1.48438-.34375.64062-1 1.01562-.64063.35938-1.53125.35938-.76563 0-1.4375-.3125-.65625-.32812-1.04688-.89062-.375-.5625-.40625-1.29688h1.6875q.04688.53125.35938.82812.32812.29688.84375.29688.57812 0 .875-.40625.3125-.42187.3125-1.17187 0-.73438-.35938-1.10938-.34375-.39062-1-.39062-.60937 0-.98437.3125l-.15625.15624z" fill="#fff"/><path d="m167.1813 468.5h-5.84375v-1.15625l2.76563-2.95313q.5625-.60937.82812-1.07812.28125-.46875.28125-.875 0-.57812-.29687-.89062-.28125-.32813-.8125-.32813-.57813 0-.90625.39063-.32813.39062-.32813 1.04687h-1.70312q0-.78125.375-1.42187.375-.65626 1.04687-1.01563.6875-.375 1.54688-.375 1.3125 0 2.04687.64063.73438.625.73438 1.78124 0 .64063-.32813 1.29688-.32812.65625-1.125 1.53125l-1.9375 2.04687h3.65625zm1.40625-4.20312.5-4.32813h4.78125v1.40625h-3.39062l-.21875 1.84375q.60937-.32813 1.28125-.32813 1.21875 0 1.90625.76563.70312.75.70312 2.10937 0 .82813-.35937 1.48438-.34375.64062-1 1.01562-.64063.35938-1.53125.35938-.76563 0-1.4375-.3125-.65625-.32812-1.04688-.89062-.375-.5625-.40625-1.29688h1.6875q.04688.53125.35938.82812.32812.29688.84375.29688.57812 0 .875-.40625.3125-.42187.3125-1.17187 0-.73438-.35938-1.10938-.34375-.39062-1-.39062-.60937 0-.98437.3125l-.15625.15624zm6.90625 3.375q0-.40626.26563-.65626.28125-.25.6875-.25.42187 0 .6875.25.28125.25.28125.65626 0 .39062-.28125.64062-.26563.25-.6875.25-.40625 0-.6875-.25-.26563-.25-.26563-.64062zm7.85938-2.39063h.96875v1.375h-.96875v1.84375h-1.70313v-1.84375h-3.48437l-.07813-1.0625 3.54688-5.625h1.71875zm-3.57813 0h1.875v-3l-.10937.1875zm9.53125-.1875q-.67187.64063-1.54687.64063-1.14063 0-1.82813-.76563-.67187-.78125-.67187-2.09375 0-.84375.35937-1.54688.375-.70312 1.03125-1.09374.65625-.39063 1.48438-.39063.84375 0 1.5.42187.65625.42188 1.01562 1.21876.35938.79687.375 1.8125v.625q0 2.14062-1.0625 3.35937-1.0625 1.21875-3.01562 1.29687h-.40625v-1.40624l.375-.01563q2.20312-.09375 2.39062-2.0625zm-1.14062-.65625q.42187 0 .70312-.20312.29688-.21876.45313-.51563v-.6875q0-.85937-.32813-1.32813-.32812-.48437-.875-.48437-.51562 0-.84375.46875-.32812.45312-.32812 1.15625 0 .70313.3125 1.15625.32812.4375.90625.4375z" stroke="#0b5394" stroke-linecap="round" stroke-linejoin="round" stroke-width="3"/><path d="m167.1813 468.5h-5.84375v-1.15625l2.76563-2.95313q.5625-.60937.82812-1.07812.28125-.46875.28125-.875 0-.57812-.29687-.89062-.28125-.32813-.8125-.32813-.57813 0-.90625.39063-.32813.39062-.32813 1.04687h-1.70312q0-.78125.375-1.42187.375-.65626 1.04687-1.01563.6875-.375 1.54688-.375 1.3125 0 2.04687.64063.73438.625.73438 1.78124 0 .64063-.32813 1.29688-.32812.65625-1.125 1.53125l-1.9375 2.04687h3.65625zm1.40625-4.20312.5-4.32813h4.78125v1.40625h-3.39062l-.21875 1.84375q.60937-.32813 1.28125-.32813 1.21875 0 1.90625.76563.70312.75.70312 2.10937 0 .82813-.35937 1.48438-.34375.64062-1 1.01562-.64063.35938-1.53125.35938-.76563 0-1.4375-.3125-.65625-.32812-1.04688-.89062-.375-.5625-.40625-1.29688h1.6875q.04688.53125.35938.82812.32812.29688.84375.29688.57812 0 .875-.40625.3125-.42187.3125-1.17187 0-.73438-.35938-1.10938-.34375-.39062-1-.39062-.60937 0-.98437.3125l-.15625.15624zm6.90625 3.375q0-.40626.26563-.65626.28125-.25.6875-.25.42187 0 .6875.25.28125.25.28125.65626 0 .39062-.28125.64062-.26563.25-.6875.25-.40625 0-.6875-.25-.26563-.25-.26563-.64062zm7.85938-2.39063h.96875v1.375h-.96875v1.84375h-1.70313v-1.84375h-3.48437l-.07813-1.0625 3.54688-5.625h1.71875zm-3.57813 0h1.875v-3l-.10937.1875zm9.53125-.1875q-.67187.64063-1.54687.64063-1.14063 0-1.82813-.76563-.67187-.78125-.67187-2.09375 0-.84375.35937-1.54688.375-.70312 1.03125-1.09374.65625-.39063 1.48438-.39063.84375 0 1.5.42187.65625.42188 1.01562 1.21876.35938.79687.375 1.8125v.625q0 2.14062-1.0625 3.35937-1.0625 1.21875-3.01562 1.29687h-.40625v-1.40624l.375-.01563q2.20312-.09375 2.39062-2.0625zm-1.14062-.65625q.42187 0 .70312-.20312.29688-.21876.45313-.51563v-.6875q0-.85937-.32813-1.32813-.32812-.48437-.875-.48437-.51562 0-.84375.46875-.32812.45312-.32812 1.15625 0 .70313.3125 1.15625.32812.4375.90625.4375z" fill="#fff"/><path d="m155.35822 525.5h-5.84375v-1.15625l2.76562-2.95315q.5625-.60935.82813-1.0781.28125-.46875.28125-.875 0-.5781-.29688-.8906-.28125-.32815-.8125-.32815-.57812 0-.90625.39065-.32812.3906-.32812 1.04685h-1.70313q0-.78125.375-1.42185.375-.6563 1.04688-1.01565.6875-.375 1.54687-.375 1.3125 0 2.04688.64065.73437.625.73437 1.7812 0 .64065-.32812 1.2969-.32813.65625-1.125 1.53125l-1.9375 2.04685h3.65625zm5.26562 0h-1.6875v-6.53125l-2.01562.625v-1.375l3.53125-1.26565h.17187zm3.04688-.8281q0-.4063.26562-.6563.28125-.25.6875-.25.42188 0 .6875.25.28125.25.28125.6563 0 .3906-.28125.6406-.26562.25-.6875.25-.40625 0-.6875-.25-.26562-.25-.26562-.6406zm4.5625-4.1875h.90625q.64062 0 .95312-.3125.3125-.32815.3125-.8594 0-.5156-.3125-.7969-.29687-.29685-.84375-.29685-.48437 0-.8125.26565-.32812.2656-.32812.6875h-1.6875q0-.6563.35937-1.1875.35938-.5313 1-.82815.65625-.3125 1.4375-.3125 1.34375 0 2.10938.65625.78125.6406.78125 1.78125 0 .59375-.35938 1.09375-.35937.4844-.9375.7344.71875.2656 1.0625.7812.35938.51565.35938 1.2188 0 1.1406-.82813 1.8281-.82812.6875-2.1875.6875-1.28125 0-2.09375-.6719-.8125-.6875-.8125-1.79685h1.6875q0 .48435.35938.79685.375.2969.89062.2969.60938 0 .95313-.3125.34375-.3281.34375-.8594 0-1.2656-1.40625-1.2656h-.90625zm10.29687 1.79685h.96875v1.375h-.96875v1.84375h-1.70312v-1.84375h-3.48438l-.07812-1.0625 3.54687-5.625h1.71875zm-3.57812 0h1.875v-3l-.10938.1875z" stroke="#0b5394" stroke-linecap="round" stroke-linejoin="round" stroke-width="3"/><path d="m155.35822 525.5h-5.84375v-1.15625l2.76562-2.95315q.5625-.60935.82813-1.0781.28125-.46875.28125-.875 0-.5781-.29688-.8906-.28125-.32815-.8125-.32815-.57812 0-.90625.39065-.32812.3906-.32812 1.04685h-1.70313q0-.78125.375-1.42185.375-.6563 1.04688-1.01565.6875-.375 1.54687-.375 1.3125 0 2.04688.64065.73437.625.73437 1.7812 0 .64065-.32812 1.2969-.32813.65625-1.125 1.53125l-1.9375 2.04685h3.65625zm5.26562 0h-1.6875v-6.53125l-2.01562.625v-1.375l3.53125-1.26565h.17187zm3.04688-.8281q0-.4063.26562-.6563.28125-.25.6875-.25.42188 0 .6875.25.28125.25.28125.6563 0 .3906-.28125.6406-.26562.25-.6875.25-.40625 0-.6875-.25-.26562-.25-.26562-.6406zm4.5625-4.1875h.90625q.64062 0 .95312-.3125.3125-.32815.3125-.8594 0-.5156-.3125-.7969-.29687-.29685-.84375-.29685-.48437 0-.8125.26565-.32812.2656-.32812.6875h-1.6875q0-.6563.35937-1.1875.35938-.5313 1-.82815.65625-.3125 1.4375-.3125 1.34375 0 2.10938.65625.78125.6406.78125 1.78125 0 .59375-.35938 1.09375-.35937.4844-.9375.7344.71875.2656 1.0625.7812.35938.51565.35938 1.2188 0 1.1406-.82813 1.8281-.82812.6875-2.1875.6875-1.28125 0-2.09375-.6719-.8125-.6875-.8125-1.79685h1.6875q0 .48435.35938.79685.375.2969.89062.2969.60938 0 .95313-.3125.34375-.3281.34375-.8594 0-1.2656-1.40625-1.2656h-.90625zm10.29687 1.79685h.96875v1.375h-.96875v1.84375h-1.70312v-1.84375h-3.48438l-.07812-1.0625 3.54687-5.625h1.71875zm-3.57812 0h1.875v-3l-.10938.1875z" fill="#fff"/><path d="m153.99438 582.5h-5.84375v-1.15625l2.76563-2.95315q.5625-.60935.82812-1.0781.28125-.46875.28125-.875 0-.5781-.29687-.8906-.28125-.32815-.8125-.32815-.57813 0-.90625.39065-.32813.3906-.32813 1.04685h-1.70312q0-.78125.375-1.42185.375-.6563 1.04687-1.01565.6875-.375 1.54688-.375 1.3125 0 2.04687.64065.73438.625.73438 1.7812 0 .64065-.32813 1.2969-.32812.65625-1.125 1.53125l-1.9375 2.04685h3.65625zm6.90625-3.53125q0 1.76565-.73437 2.71875-.73438.9375-2.14063.9375-1.40625 0-2.14062-.9219-.73438-.92185-.75-2.6406v-1.5781q0-1.7813.73437-2.70315.75-.9375 2.14063-.9375 1.39062 0 2.125.92185.75.9219.76562 2.64065zm-1.70312-1.71875q0-1.0625-.29688-1.5469-.28125-.48435-.89062-.48435-.59375 0-.89063.46875-.28125.4531-.29687 1.4375v2.0625q0 1.0469.28125 1.5625.28125.5.92187.5.60938 0 .89063-.4844.28125-.48435.28125-1.48435zm3.10937 4.4219q0-.4063.26563-.6563.28125-.25.6875-.25.42187 0 .6875.25.28125.25.28125.6563 0 .3906-.28125.6406-.26563.25-.6875.25-.40625 0-.6875-.25-.26563-.25-.26563-.6406zm8.40625-5.4375q0 .625-.3125 1.10935-.3125.46875-.85937.76565.625.29685.98437.8281.375.5156.375 1.21875 0 1.14065-.78125 1.8125-.76562.65625-2.10937.65625-1.32813 0-2.10938-.65625-.76562-.67185-.76562-1.8125 0-.70315.35937-1.23435.35938-.5313.98438-.8125-.54688-.2969-.85938-.76565-.3125-.48435-.3125-1.10935 0-1.0938.71875-1.7344.73438-.65625 1.98438-.65625 1.25 0 1.96875.65625.73437.6406.73437 1.7344zm-1.51562 3.79685q0-.54685-.32813-.875-.3125-.34375-.85937-.34375-.54688 0-.875.3281-.3125.32815-.3125.89065 0 .54685.3125.89065.32812.3281.89062.3281.54688 0 .85938-.3125.3125-.3281.3125-.90625zm-.17188-3.71875q0-.5-.26562-.7969-.26563-.29685-.75-.29685-.46875 0-.73438.29685-.26562.2813-.26562.7969 0 .5156.26562.8281.26563.3125.73438.3125.48437 0 .75-.3125.26562-.3125.26562-.8281zm7.71875-2.4375v1.40625h-.15625q-1.15625.01565-1.85937.59375-.6875.5781-.82813 1.6094.67188-.6875 1.70313-.6875 1.125 0 1.78125.79685.65625.79685.65625 2.09375 0 .8281-.35938 1.5-.35937.6719-1.03125 1.0625-.65625.375-1.48437.375-1.34375 0-2.17188-.9375-.82812-.9531-.82812-2.5156v-.6094q0-1.3906.51562-2.4531.53125-1.0625 1.5-1.64065.98438-.57815 2.28125-.59375zm-1.65625 4.28125q-.40625 0-.75.21875-.32812.2031-.48437.5625v.5156q0 .8438.32812 1.32815.34375.46875.95313.46875.54687 0 .875-.4219.34375-.4375.34375-1.125 0-.7031-.34375-1.125-.34375-.42185-.92188-.42185z" stroke="#0b5394" stroke-linecap="round" stroke-linejoin="round" stroke-width="3"/><path d="m153.99438 582.5h-5.84375v-1.15625l2.76563-2.95315q.5625-.60935.82812-1.0781.28125-.46875.28125-.875 0-.5781-.29687-.8906-.28125-.32815-.8125-.32815-.57813 0-.90625.39065-.32813.3906-.32813 1.04685h-1.70312q0-.78125.375-1.42185.375-.6563 1.04687-1.01565.6875-.375 1.54688-.375 1.3125 0 2.04687.64065.73438.625.73438 1.7812 0 .64065-.32813 1.2969-.32812.65625-1.125 1.53125l-1.9375 2.04685h3.65625zm6.90625-3.53125q0 1.76565-.73437 2.71875-.73438.9375-2.14063.9375-1.40625 0-2.14062-.9219-.73438-.92185-.75-2.6406v-1.5781q0-1.7813.73437-2.70315.75-.9375 2.14063-.9375 1.39062 0 2.125.92185.75.9219.76562 2.64065zm-1.70312-1.71875q0-1.0625-.29688-1.5469-.28125-.48435-.89062-.48435-.59375 0-.89063.46875-.28125.4531-.29687 1.4375v2.0625q0 1.0469.28125 1.5625.28125.5.92187.5.60938 0 .89063-.4844.28125-.48435.28125-1.48435zm3.10937 4.4219q0-.4063.26563-.6563.28125-.25.6875-.25.42187 0 .6875.25.28125.25.28125.6563 0 .3906-.28125.6406-.26563.25-.6875.25-.40625 0-.6875-.25-.26563-.25-.26563-.6406zm8.40625-5.4375q0 .625-.3125 1.10935-.3125.46875-.85937.76565.625.29685.98437.8281.375.5156.375 1.21875 0 1.14065-.78125 1.8125-.76562.65625-2.10937.65625-1.32813 0-2.10938-.65625-.76562-.67185-.76562-1.8125 0-.70315.35937-1.23435.35938-.5313.98438-.8125-.54688-.2969-.85938-.76565-.3125-.48435-.3125-1.10935 0-1.0938.71875-1.7344.73438-.65625 1.98438-.65625 1.25 0 1.96875.65625.73437.6406.73437 1.7344zm-1.51562 3.79685q0-.54685-.32813-.875-.3125-.34375-.85937-.34375-.54688 0-.875.3281-.3125.32815-.3125.89065 0 .54685.3125.89065.32812.3281.89062.3281.54688 0 .85938-.3125.3125-.3281.3125-.90625zm-.17188-3.71875q0-.5-.26562-.7969-.26563-.29685-.75-.29685-.46875 0-.73438.29685-.26562.2813-.26562.7969 0 .5156.26562.8281.26563.3125.73438.3125.48437 0 .75-.3125.26562-.3125.26562-.8281zm7.71875-2.4375v1.40625h-.15625q-1.15625.01565-1.85937.59375-.6875.5781-.82813 1.6094.67188-.6875 1.70313-.6875 1.125 0 1.78125.79685.65625.79685.65625 2.09375 0 .8281-.35938 1.5-.35937.6719-1.03125 1.0625-.65625.375-1.48437.375-1.34375 0-2.17188-.9375-.82812-.9531-.82812-2.5156v-.6094q0-1.3906.51562-2.4531.53125-1.0625 1.5-1.64065.98438-.57815 2.28125-.59375zm-1.65625 4.28125q-.40625 0-.75.21875-.32812.2031-.48437.5625v.5156q0 .8438.32812 1.32815.34375.46875.95313.46875.54687 0 .875-.4219.34375-.4375.34375-1.125 0-.7031-.34375-1.125-.34375-.42185-.92188-.42185z" fill="#fff"/><path d="m504.81937 639.5h-1.6875v-6.53125l-2.01563.625v-1.375l3.53126-1.26565h.17187zm7.90628-3.21875h.96875v1.375h-.96875v1.84375h-1.70315v-1.84375h-3.48438l-.07812-1.0625 3.54687-5.625h1.71878zm-3.57815 0h1.875v-3l-.10938.1875zm11.3594-4.35935-3.2969 7.5781h-1.7812l3.29685-7.15625h-4.23435v-1.375h6.0156zm1.3594 6.75q0-.4063.2656-.6563.28125-.25.6875-.25.4219 0 .6875.25.28125.25.28125.6563 0 .3906-.28125.6406-.2656.25-.6875.25-.40625 0-.6875-.25-.2656-.25-.2656-.6406zm6.9531.8281h-1.6875v-6.53125l-2.0156.625v-1.375l3.5312-1.26565h.1719zm8.6875-7.5781-3.2969 7.5781h-1.7812l3.29685-7.15625h-4.23435v-1.375h6.0156z" stroke="#0b5394" stroke-linecap="round" stroke-linejoin="round" stroke-width="3"/><path d="m504.81937 639.5h-1.6875v-6.53125l-2.01563.625v-1.375l3.53126-1.26565h.17187zm7.90623-3.21875h.96874v1.375h-.96874v1.84375h-1.7031v-1.84375h-3.48438l-.07812-1.0625 3.54687-5.625h1.71873zm-3.5781 0h1.875v-3l-.10938.1875zm11.35934-4.35935-3.29688 7.5781h-1.78126l3.2969-7.15625h-4.2344v-1.375h6.01564zm1.35936 6.75q0-.4063.26564-.6563.28126-.25.6875-.25.42186 0 .6875.25.28126.25.28126.6563 0 .3906-.28126.6406-.26564.25-.6875.25-.40624 0-.6875-.25-.26564-.25-.26564-.6406zm6.95314.8281h-1.6875v-6.53125l-2.01564.625v-1.375l3.53126-1.26565h.17188zm8.6875-7.5781-3.29688 7.5781h-1.78126l3.2969-7.15625h-4.2344v-1.375h6.01564z" fill="#fff"/><g fill="#000"><path d="m53 63.26831v5.796876q-.015625 1.203124-.765625 1.984374-.75.765626-2.03125.859376l-.3125.015624q-1.390625 0-2.234375-.75-.828125-.765624-.828125-2.09375v-5.8125h1.109375v5.78125q0 .921876.5 1.4375.515625.515626 1.453125.515626.96875 0 1.46875-.515626.5-.515624.5-1.4375v-5.78125zm2.84375 2.1875.03125.796876q.734375-.90625 1.90625-.90625 2.015625 0 2.03125 2.265624v4.1875h-1.09375v-4.203124q0-.671876-.3125-1-.296875-.328126-.953125-.328126-.53125 0-.9375.28125-.390625.28125-.609375.734376v4.515624h-1.078125v-6.34375zm7.15625 6.34375h-1.078125v-6.34375h1.078125zm-1.171875-8.015624q0-.265626.15625-.453126.171875-.1875.484375-.1875.3125 0 .46875.1875.171875.1875.171875.453126 0 .25-.171875.4375-.15625.171874-.46875.171874-.3125 0-.484375-.171874-.15625-.1875-.15625-.4375zm4.46875.140624v1.53125h1.171875v.84375h-1.171875v3.921876q0 .390624.15625.578124.15625.1875.53125.1875.1875 0 .515625-.0625v.875q-.421875.125-.828125.125-.71875 0-1.09375-.4375-.375-.453124-.375-1.265624v-3.921876h-1.15625v-.84375h1.15625v-1.53125zm5.15625 8q-1.296875 0-2.109375-.84375-.796875-.859374-.796875-2.28125v-.1875q0-.953124.359375-1.6875.359375-.75 1-1.15625.65625-.421874 1.40625-.421874 1.234375 0 1.921875.8125.6875.8125.6875 2.328124v.453126h-4.296875q.03125.9375.546875 1.515624.53125.578126 1.34375.578126.5625 0 .953125-.234376.40625-.234374.71875-.625l.65625.515626q-.796875 1.234374-2.390625 1.234374zm-.140625-5.6875q-.65625 0-1.109375.484376-.4375.46875-.53125 1.328124h3.171875v-.078124q-.046875-.828126-.453125-1.28125-.390625-.453126-1.078125-.453126zm3.25 2.34375q0-1.46875.6875-2.34375.6875-.890624 1.8125-.890624 1.109375 0 1.765625.75v-3.296876h1.078125v9h-1l-.046875-.6875q-.65625.8125-1.8125.8125-1.09375 0-1.796875-.90625-.6875-.90625-.6875-2.359374zm1.078125.125q0 1.078126.4375 1.6875.453125.609376 1.234375.609376 1.03125 0 1.515625-.9375v-2.90625q-.484375-.890626-1.5-.890626-.796875 0-1.25.609376-.4375.609374-.4375 1.828124zm11.859375-.703124q-1.4375-.421876-2.109375-1.03125-.65625-.609376-.65625-1.5 0-1 .796875-1.65625.8125-.671876 2.109375-.671876.875 0 1.5625.34375.6875.34375 1.0625.9375.390625.59375.390625 1.3125h-1.140625q0-.78125-.5-1.21875-.484375-.4375-1.375-.4375-.828125 0-1.296875.375-.46875.359376-.46875 1 0 .53125.4375.890626.453125.359374 1.515625.65625 1.0625.296874 1.65625.65625.609375.359374.890625.84375.296875.484374.296875 1.125 0 1.046874-.8125 1.671874-.8125.625-2.15625.625-.890625 0-1.65625-.34375-.75-.34375-1.171875-.921874-.40625-.59375-.40625-1.328126h1.125q0 .765626.578125 1.21875.578125.453126 1.53125.453126.890625 0 1.359375-.359376.46875-.375.46875-1 0-.625-.4375-.96875-.4375-.34375-1.59375-.671874zm5.796875-4.078126v1.53125h1.171875v.84375h-1.171875v3.921876q0 .390624.15625.578124.15625.1875.53125.1875.1875 0 .515625-.0625v.875q-.421875.125-.828125.125-.71875 0-1.09375-.4375-.375-.453124-.375-1.265624v-3.921876h-1.15625v-.84375h1.15625v-1.53125zm6.4375 7.875q-.09375-.1875-.15625-.671874-.75.796874-1.796875.796874-.9375 0-1.546875-.53125-.59375-.53125-.59375-1.359374 0-.984376.75-1.53125.75-.546876 2.125-.546876h1.046875v-.5q0-.5625-.34375-.890624-.328125-.34375-1-.34375-.578125 0-.96875.296874-.390625.28125-.390625.703126h-1.09375q0-.484376.328125-.921876.34375-.4375.921875-.6875.578125-.265624 1.265625-.265624 1.109375 0 1.71875.546874.625.546876.65625 1.5v2.921876q0 .875.21875 1.390624v.09375zm-1.796875-.828124q.515625 0 .96875-.265626.453125-.265624.65625-.6875v-1.296874h-.84375q-2 0-2 1.171874 0 .5.34375.796876.34375.28125.875.28125zm6.359375-7.046876v1.53125h1.171875v.84375h-1.171875v3.921876q0 .390624.15625.578124.15625.1875.53125.1875.1875 0 .515625-.0625v.875q-.421875.125-.828125.125-.71875 0-1.09375-.4375-.375-.453124-.375-1.265624v-3.921876h-1.15625v-.84375h1.15625v-1.53125zm5.15625 8q-1.296875 0-2.109375-.84375-.796875-.859374-.796875-2.28125v-.1875q0-.953124.359375-1.6875.359375-.75 1-1.15625.65625-.421874 1.40625-.421874 1.234375 0 1.921875.8125.6875.8125.6875 2.328124v.453126h-4.296875q.03125.9375.546875 1.515624.53125.578126 1.34375.578126.5625 0 .953125-.234376.40625-.234374.71875-.625l.65625.515626q-.796875 1.234374-2.390625 1.234374zm-.140625-5.6875q-.65625 0-1.109375.484376-.4375.46875-.53125 1.328124h3.171875v-.078124q-.046875-.828126-.453125-1.28125-.390625-.453126-1.078125-.453126zm7.203125 3.875q0-.4375-.34375-.671874-.328125-.25-1.15625-.421876-.8125-.171874-1.296875-.421874-.484375-.25-.71875-.578126-.21875-.34375-.21875-.8125 0-.78125.65625-1.3125.65625-.546874 1.6875-.546874 1.078125 0 1.734375.5625.671875.546874.671875 1.40625h-1.078125q0-.4375-.390625-.75-.375-.328126-.9375-.328126-.59375 0-.9375.265626-.328125.25-.328125.65625 0 .390624.3125.59375.3125.203124 1.125.390624.8125.171876 1.3125.421876.5.25.734375.609374.25.359376.25.859376 0 .859374-.6875 1.375-.671875.515624-1.75.515624-.765625 0-1.359375-.265624-.578125-.28125-.90625-.765626-.328125-.484374-.328125-1.046874h1.078125q.03125.546874.4375.875.40625.3125 1.078125.3125.609375 0 .984375-.25.375-.25.375-.671876z"/><path d="m37 120.00839v5.79688q-.015625 1.20312-.765625 1.98437-.75.76563-2.03125.85938l-.3125.01562q-1.390625 0-2.234375-.75-.828125-.76562-.828125-2.09375v-5.8125h1.109375v5.78125q0 .92188.5 1.4375.515625.51563 1.453125.51563.96875 0 1.46875-.51563.5-.51562.5-1.4375v-5.78125zm2.84375 2.1875.03125.79688q.734375-.90625 1.90625-.90625 2.015625 0 2.03125 2.26562v4.1875h-1.09375v-4.20312q0-.67188-.3125-1-.296875-.32813-.953125-.32813-.53125 0-.9375.28125-.390625.28125-.609375.73438v4.51562h-1.078125v-6.34375zm7.15625 6.34375h-1.078125v-6.34375h1.078125zm-1.171875-8.01562q0-.26563.15625-.45313.171875-.1875.484375-.1875.3125 0 .46875.1875.171875.1875.171875.45313 0 .25-.171875.4375-.15625.17187-.46875.17187-.3125 0-.484375-.17187-.15625-.1875-.15625-.4375zm4.46875.14062v1.53125h1.171875v.84375h-1.171875v3.92188q0 .39062.15625.57812.15625.1875.53125.1875.1875 0 .515625-.0625v.875q-.421875.125-.828125.125-.71875 0-1.09375-.4375-.375-.45312-.375-1.26562v-3.92188h-1.15625v-.84375h1.15625v-1.53125zm5.15625 8q-1.296875 0-2.109375-.84375-.796875-.85937-.796875-2.28125v-.1875q0-.95312.359375-1.6875.359375-.75 1-1.15625.65625-.42187 1.40625-.42187 1.234375 0 1.921875.8125.6875.8125.6875 2.32812v.45313h-4.296875q.03125.9375.546875 1.51562.53125.57813 1.34375.57813.5625 0 .953125-.23438.40625-.23437.71875-.625l.65625.51563q-.796875 1.23437-2.390625 1.23437zm-.140625-5.6875q-.65625 0-1.109375.48438-.4375.46875-.53125 1.32812h3.171875v-.07812q-.046875-.82813-.453125-1.28125-.390625-.45313-1.078125-.45313zm3.25 2.34375q0-1.46875.6875-2.34375.6875-.89062 1.8125-.89062 1.109375 0 1.765625.75v-3.29688h1.078125v9h-1l-.046875-.6875q-.65625.8125-1.8125.8125-1.09375 0-1.796875-.90625-.6875-.90625-.6875-2.35937zm1.078125.125q0 1.07813.4375 1.6875.453125.60938 1.234375.60938 1.03125 0 1.515625-.9375v-2.90625q-.484375-.89063-1.5-.89063-.796875 0-1.25.60938-.4375.60937-.4375 1.82812zm11.515625-.875-1.046875 1.07813v2.89062h-1.125v-8.53125h1.125v4.21875l3.796875-4.21875h1.359375l-3.359375 3.76563 3.625 4.76562h-1.34375zm6.84375 3.96875h-1.078125v-6.34375h1.078125zm-1.171875-8.01562q0-.26563.15625-.45313.171875-.1875.484375-.1875.3125 0 .46875.1875.171875.1875.171875.45313 0 .25-.171875.4375-.15625.17187-.46875.17187-.3125 0-.484375-.17187-.15625-.1875-.15625-.4375zm4.015625 1.67187.03125.79688q.734375-.90625 1.90625-.90625 2.015625 0 2.03125 2.26562v4.1875h-1.09375v-4.20312q0-.67188-.3125-1-.296875-.32813-.953125-.32813-.53125 0-.9375.28125-.390625.28125-.609375.73438v4.51562h-1.078125v-6.34375zm5.71875 3.125q0-1.48437.6875-2.35937.6875-.875 1.8125-.875 1.15625 0 1.8125.8125l.046875-.70313h1v6.1875q0 1.23438-.734375 1.9375-.734375.71875-1.953125.71875-.6875 0-1.34375-.29687-.65625-.29688-1-.79688l.5625-.65625q.6875.85938 1.703125.85938.78125 0 1.21875-.45313.453125-.4375.453125-1.25v-.54687q-.65625.76562-1.78125.76562-1.109375 0-1.796875-.89062-.6875-.90625-.6875-2.45313zm1.09375.125q0 1.0625.4375 1.6875.4375.60938 1.234375.60938 1.015625 0 1.5-.9375v-2.89063q-.5-.90625-1.5-.90625-.78125 0-1.234375.60938-.4375.60937-.4375 1.82812zm5.90625-.125q0-1.46875.6875-2.34375.6875-.89062 1.8125-.89062 1.109375 0 1.765625.75v-3.29688h1.078125v9h-1l-.046875-.6875q-.65625.8125-1.8125.8125-1.09375 0-1.796875-.90625-.6875-.90625-.6875-2.35937zm1.078125.125q0 1.07813.4375 1.6875.453125.60938 1.234375.60938 1.03125 0 1.515625-.9375v-2.90625q-.484375-.89063-1.5-.89063-.796875 0-1.25.60938-.4375.60937-.4375 1.82812zm5.890625-.14062q0-.92188.359375-1.67188.375-.75 1.03125-1.14062.65625-.40625 1.484375-.40625 1.296875 0 2.09375.89062.8125.89063.8125 2.39063v.07812q0 .92188-.359375 1.65625-.359375.73438-1.015625 1.15625-.65625.40625-1.515625.40625-1.28125 0-2.09375-.89062-.796875-.90625-.796875-2.39063zm1.09375.14062q0 1.04688.484375 1.6875.5.64063 1.3125.64063.828125 0 1.3125-.64063.484375-.65625.484375-1.82812 0-1.03125-.5-1.67188-.484375-.65625-1.3125-.65625-.796875 0-1.296875.64063-.484375.625-.484375 1.82812zm7.21875-3.25.03125.70313q.6875-.8125 1.875-.8125 1.328125 0 1.8125 1.01562.3125-.45312.8125-.73437.515625-.28125 1.203125-.28125 2.09375 0 2.125 2.20312v4.25h-1.078125v-4.1875q0-.67187-.3125-1-.3125-.34375-1.046875-.34375-.609375 0-1.015625.35938-.390625.35937-.453125.96875v4.20312h-1.078125v-4.15625q0-1.375-1.359375-1.375-1.0625 0-1.453125.90625v4.625h-1.09375v-6.34375z"/><path d="m69.125 184.35786h4.046875v.92188h-5.1875v-8.53125h1.140625zm5.875.92188h-1.078125v-6.34375h1.078125zm-1.171875-8.01563q0-.26562.15625-.45312.171875-.1875.484375-.1875.3125 0 .46875.1875.171875.1875.171875.45312 0 .25-.171875.4375-.15625.17188-.46875.17188-.3125 0-.484375-.17188-.15625-.1875-.15625-.4375zm4.46875.14063v1.53125h1.171875v.84375h-1.171875v3.92187q0 .39063.15625.57813.15625.1875.53125.1875.1875 0 .515625-.0625v.875q-.421875.125-.828125.125-.71875 0-1.09375-.4375-.375-.45313-.375-1.26563v-3.92187h-1.15625v-.84375h1.15625v-1.53125zm3.609375 2.29687q.71875-.875 1.875-.875 2.015625 0 2.03125 2.26563v4.1875h-1.09375v-4.20313q0-.67187-.3125-1-.296875-.32812-.953125-.32812-.53125 0-.9375.28125-.390625.28125-.609375.73437v4.51563h-1.078125v-9h1.078125zm9.828125 4.95313q-.625.75-1.859375.75-1.015625 0-1.546875-.59375-.53125-.59375-.53125-1.75v-4.125h1.078125v4.09375q0 1.45312 1.171875 1.45312 1.25 0 1.65625-.9375v-4.60937h1.09375v6.34375h-1.03125zm7 .625q-.09375-.1875-.15625-.67188-.75.79688-1.796875.79688-.9375 0-1.546875-.53125-.59375-.53125-.59375-1.35938 0-.98437.75-1.53125.75-.54687 2.125-.54687h1.046875v-.5q0-.5625-.34375-.89063-.328125-.34375-1-.34375-.578125 0-.96875.29688-.390625.28125-.390625.70312h-1.09375q0-.48437.328125-.92187.34375-.4375.921875-.6875.578125-.26563 1.265625-.26563 1.109375 0 1.71875.54688.625.54687.65625 1.5v2.92187q0 .875.21875 1.39063v.09375zm-1.796875-.82813q.515625 0 .96875-.26562.453125-.26563.65625-.6875v-1.29688h-.84375q-2 0-2 1.17188 0 .5.34375.79687.34375.28125.875.28125zm5.90625-5.51562.03125.79687q.734375-.90625 1.90625-.90625 2.015625 0 2.03125 2.26563v4.1875h-1.09375v-4.20313q0-.67187-.3125-1-.296875-.32812-.953125-.32812-.53125 0-.9375.28125-.390625.28125-.609375.73437v4.51563h-1.078125v-6.34375zm7.15625 6.34375h-1.078125v-6.34375h1.078125zm-1.171875-8.01563q0-.26562.15625-.45312.171875-.1875.484375-.1875.3125 0 .46875.1875.171875.1875.171875.45312 0 .25-.171875.4375-.15625.17188-.46875.17188-.3125 0-.484375-.17188-.15625-.1875-.15625-.4375zm6.90625 8.01563q-.09375-.1875-.15625-.67188-.75.79688-1.796875.79688-.9375 0-1.546875-.53125-.59375-.53125-.59375-1.35938 0-.98437.75-1.53125.75-.54687 2.125-.54687h1.046875v-.5q0-.5625-.34375-.89063-.328125-.34375-1-.34375-.578125 0-.96875.29688-.390625.28125-.390625.70312h-1.09375q0-.48437.328125-.92187.34375-.4375.921875-.6875.578125-.26563 1.265625-.26563 1.109375 0 1.71875.54688.625.54687.65625 1.5v2.92187q0 .875.21875 1.39063v.09375zm-1.796875-.82813q.515625 0 .96875-.26562.453125-.26563.65625-.6875v-1.29688h-.84375q-2 0-2 1.17188 0 .5.34375.79687.34375.28125.875.28125z"/><path d="m76.296875 240.89482q-.4375.625-1.21875.9375-.78125.3125-1.8125.3125-1.03125 0-1.84375-.48437-.8125-.5-1.25-1.40625-.4375-.90625-.453125-2.09375v-.73438q0-1.9375.890625-3 .90625-1.0625 2.53125-1.0625 1.34375 0 2.15625.6875.8125.6875 1 1.9375h-1.125q-.328125-1.6875-2.015625-1.6875-1.140625 0-1.71875.79688-.578125.78125-.59375 2.29687v.6875q0 1.4375.65625 2.29688.65625.84375 1.78125.84375.625 0 1.09375-.14063.484375-.14062.796875-.48437v-1.90625h-1.96875v-.92188h3.09375zm4.15625 1.25q-1.296875 0-2.109375-.84375-.796875-.85937-.796875-2.28125v-.1875q0-.95312.359375-1.6875.359375-.75 1-1.15625.65625-.42187 1.40625-.42187 1.234375 0 1.921875.8125.6875.8125.6875 2.32812v.45313h-4.296875q.03125.9375.546875 1.51562.53125.57813 1.34375.57813.5625 0 .953125-.23438.40625-.23437.71875-.625l.65625.51563q-.796875 1.23437-2.390625 1.23437zm-.140625-5.6875q-.65625 0-1.109375.48438-.4375.46875-.53125 1.32812h3.171875v-.07812q-.046875-.82813-.453125-1.28125-.390625-.45313-1.078125-.45313zm6.578125.1875q-.25-.03125-.53125-.03125-1.078125 0-1.453125.90625v4.5h-1.078125v-6.34375h1.046875l.015625.73438q.53125-.84375 1.515625-.84375.3125 0 .484375.07812zm1.953125-.96875.03125.70313q.6875-.8125 1.875-.8125 1.328125 0 1.8125 1.01562.3125-.45312.8125-.73437.515625-.28125 1.203125-.28125 2.09375 0 2.125 2.20312v4.25h-1.078125v-4.1875q0-.67187-.3125-1-.3125-.34375-1.046875-.34375-.609375 0-1.015625.35938-.390625.35937-.453125.96875v4.20312h-1.078125v-4.15625q0-1.375-1.359375-1.375-1.0625 0-1.453125.90625v4.625h-1.09375v-6.34375zm13.890625 6.34375q-.09375-.1875-.15625-.67187-.75.79687-1.796875.79687-.9375 0-1.546875-.53125-.59375-.53125-.59375-1.35937 0-.98438.75-1.53125.75-.54688 2.125-.54688h1.046875v-.5q0-.5625-.34375-.89062-.328125-.34375-1-.34375-.578125 0-.96875.29687-.390625.28125-.390625.70313h-1.09375q0-.48438.328125-.92188.34375-.4375.921875-.6875.578125-.26562 1.265625-.26562 1.109375 0 1.71875.54687.625.54688.65625 1.5v2.92188q0 .875.21875 1.39062v.09375zm-1.796875-.82812q.515625 0 .96875-.26563.453125-.26562.65625-.6875v-1.29687h-.84375q-2 0-2 1.17187 0 .5.34375.79688.34375.28125.875.28125zm5.90625-5.51563.03125.79688q.734375-.90625 1.90625-.90625 2.015625 0 2.03125 2.26562v4.1875h-1.09375v-4.20312q0-.67188-.3125-1-.296875-.32813-.953125-.32813-.53125 0-.9375.28125-.390625.28125-.609375.73438v4.51562h-1.078125v-6.34375zm8.046875 4.75 1.484375-4.75h1.15625l-2.546875 7.32813q-.59375 1.57812-1.875 1.57812l-.21875-.01562-.390625-.07813v-.875l.28125.01563q.5625 0 .859375-.21875.3125-.21875.515625-.8125l.234375-.65625-2.265625-6.26563h1.1875z"/><path d="m79.5 294.96304q-1.4375-.42187-2.109375-1.03124-.65625-.60938-.65625-1.5 0-1 .796875-1.65626.8125-.67187 2.109375-.67187.875 0 1.5625.34375.6875.34375 1.0625.9375.390625.59375.390625 1.3125h-1.140625q0-.78125-.5-1.21875-.484375-.4375-1.375-.4375-.828125 0-1.296875.375-.46875.35937-.46875 1 0 .53125.4375.89063.453125.35937 1.515625.65624 1.0625.29688 1.65625.65626.609375.35937.890625.84374.296875.48438.296875 1.125 0 1.04688-.8125 1.67188-.8125.625-2.15625.625-.890625 0-1.65625-.34375-.75-.34375-1.171875-.92187-.40625-.59376-.40625-1.32813h1.125q0 .76563.578125 1.21875.578125.45312 1.53125.45312.890625 0 1.359375-.35937.46875-.375.46875-1 0-.625-.4375-.96875-.4375-.34375-1.59375-.67188zm9.9375 2.29688 1.21875-4.84375h1.078125l-1.84375 6.34375h-.875l-1.546875-4.8125-1.5 4.8125h-.875l-1.84375-6.34375h1.078125l1.25 4.75 1.484375-4.75h.859375zm6.015625 1.625q-1.296875 0-2.109375-.84375-.796875-.85937-.796875-2.28125v-.1875q0-.95312.359375-1.6875.359375-.75 1-1.15625.65625-.42187 1.40625-.42187 1.234375 0 1.921875.8125.6875.8125.6875 2.32812v.45312h-4.296875q.03125.9375.546875 1.51563.53125.57813 1.34375.57813.5625 0 .953125-.23438.40625-.23438.71875-.625l.65625.51562q-.796875 1.23438-2.390625 1.23438zm-.140625-5.6875q-.65625 0-1.109375.48438-.4375.46874-.53125 1.32812h3.171875v-.07812q-.046875-.82813-.453125-1.28126-.390625-.45312-1.078125-.45312zm3.25 2.34375q0-1.46875.6875-2.34375.6875-.89062 1.8125-.89062 1.109375 0 1.765625.75v-3.29688h1.078125v9h-1l-.046875-.6875q-.65625.8125-1.8125.8125-1.09375 0-1.796875-.90625-.6875-.90625-.6875-2.35937zm1.078125.125q0 1.07813.4375 1.6875.453125.60937 1.234375.60937 1.03125 0 1.515625-.9375v-2.90624q-.484375-.89063-1.5-.89063-.796875 0-1.25.60937-.4375.60938-.4375 1.82813zm8.8125 3.21875q-1.296875 0-2.109375-.84375-.796875-.85937-.796875-2.28125v-.1875q0-.95312.359375-1.6875.359375-.75 1-1.15625.65625-.42187 1.40625-.42187 1.234375 0 1.921875.8125.6875.8125.6875 2.32812v.45312h-4.296875q.03125.9375.546875 1.51563.53125.57813 1.34375.57813.5625 0 .953125-.23438.40625-.23438.71875-.625l.65625.51562q-.796875 1.23438-2.390625 1.23438zm-.140625-5.6875q-.65625 0-1.109375.48438-.4375.46874-.53125 1.32812h3.171875v-.07812q-.046875-.82813-.453125-1.28126-.390625-.45312-1.078125-.45312zm4.53125-.78125.03125.79687q.734375-.90624 1.90625-.90624 2.015625 0 2.03125 2.26562v4.1875h-1.09375v-4.20312q0-.67188-.3125-1-.296875-.32813-.953125-.32813-.53125 0-.9375.28125-.390625.28125-.609375.73438v4.51562h-1.078125v-6.34375z"/><path d="m83.546875 355.5h-1.125l-4.296875-6.57812v6.57812h-1.140625v-8.53125h1.140625l4.296875 6.60937v-6.60937h1.125zm1.984375-3.23438q0-.92187.359375-1.67187.375-.75 1.03125-1.14063.65625-.40624 1.484375-.40624 1.296875 0 2.09375.89062.8125.89062.8125 2.39062v.07813q0 .92187-.359375 1.65625-.359375.73438-1.015625 1.15625-.65625.40625-1.515625.40625-1.28125 0-2.09375-.89062-.796875-.90626-.796875-2.39063zm1.09375.14063q0 1.04687.484375 1.6875.5.64063 1.3125.64063.828125 0 1.3125-.64063.484375-.65625.484375-1.82813 0-1.03124-.5-1.67187-.484375-.65625-1.3125-.65625-.796875 0-1.296875.64062-.484375.625-.484375 1.82813zm9.265625-2.28125q-.25-.03125-.53125-.03125-1.078125 0-1.453125.90625v4.5h-1.078125v-6.34375h1.046875l.015625.73437q.53125-.84374 1.515625-.84374.3125 0 .484375.07812zm6.546875 3.875 1.21875-4.84375h1.078125l-1.84375 6.34375h-.875l-1.546875-4.8125-1.5 4.8125h-.875l-1.84375-6.34375h1.078125l1.25 4.75 1.484375-4.75h.859375zm7.296875 1.5q-.09375-.1875-.15625-.67188-.75.79688-1.796875.79688-.9375 0-1.546875-.53125-.59375-.53125-.59375-1.35937 0-.98438.75-1.53126.75-.54687 2.125-.54687h1.046875v-.5q0-.5625-.34375-.89063-.328125-.34374-1-.34374-.578125 0-.96875.29687-.390625.28125-.390625.70313h-1.09375q0-.48438.328125-.92188.34375-.4375.921875-.6875.578125-.26562 1.265625-.26562 1.109375 0 1.71875.54687.625.54687.65625 1.5v2.92187q0 .875.21875 1.39063v.09375zm-1.796875-.82812q.515625 0 .96875-.26563.453125-.26563.65625-.6875v-1.29687h-.84375q-2 0-2 1.17187 0 .5.34375.79687.34375.28126.875.28126zm6.953125-.76563 1.484375-4.75h1.15625l-2.546875 7.32813q-.59375 1.57812-1.875 1.57812l-.21875-.01562-.390625-.07813v-.875l.28125.01563q.5625 0 .859375-.21876.3125-.21874.515625-.8125l.234375-.65624-2.265625-6.26563h1.1875z"/><path d="m82.8125 408.30258h-3.703125v3.01562h4.296875v.92188h-5.421875v-8.53125h5.375v.92187h-4.25v2.75h3.703125zm5.703125 2.25q0-.4375-.34375-.67188-.328125-.25-1.15625-.42187-.8125-.17187-1.296875-.42187-.484375-.25-.71875-.57813-.21875-.34375-.21875-.8125 0-.78125.65625-1.3125.65625-.54687 1.6875-.54687 1.078125 0 1.734375.5625.671875.54687.671875 1.40624h-1.078125q0-.4375-.390625-.75-.375-.32812-.9375-.32812-.59375 0-.9375.26562-.328125.25-.328125.65626 0 .39062.3125.59374.3125.20313 1.125.39063.8125.17187 1.3125.42187.5.25.734375.60938.25.35938.25.85938 0 .85937-.6875 1.375-.671875.51562-1.75.51562-.765625 0-1.359375-.26562-.578125-.28126-.90625-.76563-.328125-.48437-.328125-1.04687h1.078125q.03125.54687.4375.875.40625.3125 1.078125.3125.609375 0 .984375-.25.375-.25.375-.67188zm3.78125-6.1875v1.53125h1.171875v.84375h-1.171875v3.92188q0 .39062.15625.57812.15625.1875.53125.1875.1875 0 .515625-.0625v.875q-.421875.125-.828125.125-.71875 0-1.09375-.4375-.375-.45312-.375-1.26562v-3.92188h-1.15625v-.84375h1.15625v-1.53125zm2.234375 4.64062q0-.92187.359375-1.67187.375-.75 1.03125-1.14063.65625-.40624 1.484375-.40624 1.296875 0 2.09375.89062.8125.89062.8125 2.39062v.07813q0 .92187-.359375 1.65625-.359375.73438-1.015625 1.15625-.65625.40625-1.515625.40625-1.28125 0-2.09375-.89062-.796875-.90626-.796875-2.39063zm1.09375.14063q0 1.04687.484375 1.6875.5.64063 1.3125.64063.828125 0 1.3125-.64063.484375-.65625.484375-1.82813 0-1.03124-.5-1.67187-.484375-.65625-1.3125-.65625-.796875 0-1.296875.64062-.484375.625-.484375 1.82813zm7.21875-3.25.03125.79687q.734375-.90624 1.90625-.90624 2.015625 0 2.03125 2.26562v4.1875h-1.09375v-4.20312q0-.67188-.3125-1-.296875-.32813-.953125-.32813-.53125 0-.9375.28125-.390625.28125-.609375.73438v4.51562h-1.078125v-6.34375zm7.15625 6.34375h-1.078125v-6.34375h1.078125zm-1.171875-8.01562q0-.26563.15625-.45313.171875-.1875.484375-.1875.3125 0 .46875.1875.171875.1875.171875.45313 0 .25-.171875.4375-.15625.17187-.46875.17187-.3125 0-.484375-.17187-.15625-.1875-.15625-.4375zm6.90625 8.01562q-.09375-.1875-.15625-.67188-.75.79688-1.796875.79688-.9375 0-1.546875-.53125-.59375-.53125-.59375-1.35937 0-.98438.75-1.53126.75-.54687 2.125-.54687h1.046875v-.5q0-.5625-.34375-.89063-.328125-.34374-1-.34374-.578125 0-.96875.29687-.390625.28125-.390625.70313h-1.09375q0-.48438.328125-.92188.34375-.4375.921875-.6875.578125-.26562 1.265625-.26562 1.109375 0 1.71875.54687.625.54687.65625 1.5v2.92187q0 .875.21875 1.39063v.09375zm-1.796875-.82812q.515625 0 .96875-.26563.453125-.26563.65625-.6875v-1.29687h-.84375q-2 0-2 1.17187 0 .5.34375.79687.34375.28126.875.28126z"/><path d="m69.984375 468.98016v-8.53126h2.421875q1.109375 0 1.953125.5.859375.4844 1.328125 1.39064.46875.90626.46875 2.09376v.53124q0 1.21876-.46875 2.125-.453125.90626-1.328125 1.39062-.859375.48438-2 .5zm1.125-7.60936v6.6875h1.1875q1.296875 0 2.015625-.7969.734375-.8125.734375-2.3125v-.5q0-1.4531-.6875-2.25-.671875-.8125-1.9375-.8281zm9.34375 7.73436q-1.296875 0-2.109375-.84376-.796875-.85936-.796875-2.28124v-.1875q0-.95312.359375-1.6875.359375-.75 1-1.15626.65625-.42186 1.40625-.42186 1.234375 0 1.921875.8125.6875.8125.6875 2.32812v.45314h-4.296875q.03125.9375.546875 1.5156.53125.57814 1.34375.57814.5625 0 .953125-.23438.40625-.23436.71875-.625l.65625.51564q-.796875 1.23436-2.390625 1.23436zm-.140625-5.6875q-.65625 0-1.109375.48438-.4375.46876-.53125 1.32812h3.171875v-.07812q-.046875-.82814-.453125-1.28124-.390625-.45314-1.078125-.45314zm4.53125-.78126.03125.7969q.734375-.90626 1.90625-.90626 2.015625 0 2.03125 2.26562v4.1875h-1.09375v-4.20312q0-.67188-.3125-1-.296875-.32814-.953125-.32814-.53125 0-.9375.28126-.390625.28124-.609375.73438v4.51562h-1.078125v-6.34376zm7 0 .03125.70314q.6875-.8125 1.875-.8125 1.328125 0 1.8125 1.01562.3125-.45312.8125-.73436.515625-.28126 1.203125-.28126 2.09375 0 2.125 2.20312v4.25h-1.078125v-4.1875q0-.67186-.3125-1-.3125-.34376-1.046875-.34376-.609375 0-1.015625.3594-.390625.35936-.453125.96874v4.20312h-1.078125v-4.15626q0-1.375-1.359375-1.375-1.0625 0-1.453125.90626v4.625h-1.09375v-6.34376zm13.890625 6.34376q-.09375-.1875-.15625-.67186-.75.79686-1.796875.79686-.9375 0-1.546875-.53126-.59375-.53124-.59375-1.35936 0-.98438.75-1.53124.75-.5469 2.125-.5469h1.046875v-.5q0-.5625-.34375-.8906-.328125-.34376-1-.34376-.578125 0-.96875.29686-.390625.28126-.390625.70314h-1.09375q0-.48438.328125-.92188.34375-.4375.921875-.6875.578125-.26562 1.265625-.26562 1.109375 0 1.71875.54686.625.5469.65625 1.5v2.9219q0 .875.21875 1.3906v.09376zm-1.796875-.82812q.515625 0 .96875-.26564.453125-.2656.65625-.6875v-1.29686h-.84375q-2 0-2 1.17186 0 .5.34375.7969.34375.28124.875.28124zm7.953125-4.54688q-.25-.03126-.53125-.03126-1.078125 0-1.453125.90626v4.5h-1.078125v-6.34376h1.046875l.015625.7344q.53125-.84376 1.515625-.84376.3125 0 .484375.07812zm2.703125 2.4375-.6875.70314v2.23436h-1.078125v-9h1.078125v5.4375l.578125-.6875 1.984375-2.09376h1.3125l-2.46875 2.65626 2.765625 3.6875h-1.28125z"/><path d="m88.109375 522.3765v3.3438h-1.125v-8.5313h3.15625q1.390625 0 2.1875.7188.796875.7031.796875 1.8906 0 1.2344-.78125 1.90625-.765625.67185-2.21875.67185zm0-.92185h2.03125q.90625 0 1.375-.42185.484375-.4219.484375-1.2188 0-.7656-.484375-1.2187-.46875-.4688-1.3125-.4844h-2.09375zm7.890625 4.26565h-1.078125v-9h1.078125zm5.734375 0q-.09375-.1875-.15625-.6719-.75.7969-1.796875.7969-.9375 0-1.546875-.5313-.59375-.5312-.59375-1.35935 0-.98435.75-1.53125.75-.5469 2.125-.5469h1.046875v-.5q0-.5625-.34375-.8906-.328125-.34375-1-.34375-.578125 0-.96875.29685-.390625.2813-.390625.70315h-1.09375q0-.48435.328125-.92185.34375-.4375.921875-.6875.578125-.26565 1.265625-.26565 1.109375 0 1.71875.54685.625.5469.65625 1.5v2.9219q0 .875.21875 1.3906v.0938zm-1.796875-.82815q.515625 0 .96875-.26565.453125-.2656.65625-.6875v-1.29685h-.84375q-2 0-2 1.17185 0 .5.34375.7969.34375.28125.875.28125zm5.90625-5.51565.03125.7969q.734375-.90625 1.90625-.90625 2.015625 0 2.03125 2.26565v4.1875h-1.09375v-4.20315q0-.67185-.3125-1-.296875-.32815-.953125-.32815-.53125 0-.9375.2813-.390625.2812-.609375.73435v4.51565h-1.078125v-6.3438zm5.71875 3.125q0-1.4687.6875-2.3437.6875-.89065 1.8125-.89065 1.109375 0 1.765625.75v-3.29685h1.078125v9h-1l-.046875-.6875q-.65625.8125-1.8125.8125-1.09375 0-1.796875-.9063-.6875-.9062-.6875-2.35935zm1.078125.125q0 1.07815.4375 1.6875.453125.6094 1.234375.6094 1.03125 0 1.515625-.9375v-2.90625q-.484375-.89065-1.5-.89065-.796875 0-1.25.6094-.4375.6094-.4375 1.8281z"/><path d="m35.890625 574.85095h-2.75v7.60935h-1.109375v-7.60935h-2.75v-.92185h6.609375zm2.015625 2.03125q.71875-.875 1.875-.875 2.015625 0 2.03125 2.2656v4.1875h-1.09375v-4.2031q0-.6719-.3125-1-.296875-.3281-.953125-.3281-.53125 0-.9375.2812-.390625.2813-.609375.7344v4.5156h-1.078125v-9h1.078125zm8.546875 5.7031q-1.296875 0-2.109375-.8437-.796875-.8594-.796875-2.2813v-.1875q0-.9531.359375-1.6875.359375-.75 1-1.1562.65625-.4219 1.40625-.4219 1.234375 0 1.921875.8125.6875.8125.6875 2.3281v.45315h-4.296875q.03125.9375.546875 1.51565.53125.5781 1.34375.5781.5625 0 .953125-.2344.40625-.23435.71875-.625l.65625.51565q-.796875 1.23435-2.390625 1.23435zm-.140625-5.6875q-.65625 0-1.109375.4844-.4375.46875-.53125 1.3281h3.171875v-.0781q-.046875-.8281-.453125-1.28125-.390625-.45315-1.078125-.45315zm13.234375 5.5625h-1.125l-4.296875-6.5781v6.5781h-1.140625v-8.5312h1.140625l4.296875 6.60935v-6.60935h1.125zm4.90625.125q-1.296875 0-2.109375-.8437-.796875-.8594-.796875-2.2813v-.1875q0-.9531.359375-1.6875.359375-.75 1-1.1562.65625-.4219 1.40625-.4219 1.234375 0 1.921875.8125.6875.8125.6875 2.3281v.45315h-4.296875q.03125.9375.546875 1.51565.53125.5781 1.34375.5781.5625 0 .953125-.2344.40625-.23435.71875-.625l.65625.51565q-.796875 1.23435-2.390625 1.23435zm-.140625-5.6875q-.65625 0-1.109375.4844-.4375.46875-.53125 1.3281h3.171875v-.0781q-.046875-.8281-.453125-1.28125-.390625-.45315-1.078125-.45315zm4.984375-2.3125v1.5313h1.171875v.8437h-1.171875v3.9219q0 .3906.15625.5781.15625.1875.53125.1875.1875 0 .515625-.0625v.875q-.421875.125-.828125.125-.71875 0-1.09375-.4375-.375-.4531-.375-1.2656v-3.9219h-1.15625v-.8437h1.15625v-1.5313zm3.609375 2.2969q.71875-.875 1.875-.875 2.015625 0 2.03125 2.2656v4.1875h-1.09375v-4.2031q0-.6719-.3125-1-.296875-.3281-.953125-.3281-.53125 0-.9375.2812-.390625.2813-.609375.7344v4.5156h-1.078125v-9h1.078125zm8.546875 5.7031q-1.296875 0-2.109375-.8437-.796875-.8594-.796875-2.2813v-.1875q0-.9531.359375-1.6875.359375-.75 1-1.1562.65625-.4219 1.40625-.4219 1.234375 0 1.921875.8125.6875.8125.6875 2.3281v.45315h-4.296875q.03125.9375.546875 1.51565.53125.5781 1.34375.5781.5625 0 .953125-.2344.40625-.23435.71875-.625l.65625.51565q-.796875 1.23435-2.390625 1.23435zm-.140625-5.6875q-.65625 0-1.109375.4844-.4375.46875-.53125 1.3281h3.171875v-.0781q-.046875-.8281-.453125-1.28125-.390625-.45315-1.078125-.45315zm6.578125.1875q-.25-.0312-.53125-.0312-1.078125 0-1.453125.9062v4.5h-1.078125v-6.3437h1.046875l.015625.73435q.53125-.84375 1.515625-.84375.3125 0 .484375.0781zm2.109375 5.375h-1.078125v-9h1.078125zm5.734375 0q-.09375-.1875-.15625-.67185-.75.79685-1.796875.79685-.9375 0-1.546875-.5312-.59375-.5313-.59375-1.3594 0-.9844.75-1.53125.75-.54685 2.125-.54685h1.046875v-.5q0-.5625-.34375-.89065-.328125-.34375-1-.34375-.578125 0-.96875.2969-.390625.2812-.390625.7031h-1.09375q0-.4844.328125-.9219.34375-.4375.921875-.6875.578125-.2656 1.265625-.2656 1.109375 0 1.71875.5469.625.54685.65625 1.5v2.92185q0 .875.21875 1.39065v.0937zm-1.796875-.8281q.515625 0 .96875-.2656.453125-.26565.65625-.6875v-1.2969h-.84375q-2 0-2 1.1719 0 .5.34375.79685.34375.28125.875.28125zm5.90625-5.5156.03125.79685q.734375-.90625 1.90625-.90625 2.015625 0 2.03125 2.2656v4.1875h-1.09375v-4.2031q0-.6719-.3125-1-.296875-.3281-.953125-.3281-.53125 0-.9375.2812-.390625.2813-.609375.7344v4.5156h-1.078125v-6.3437zm5.71875 3.125q0-1.4688.6875-2.3438.6875-.8906 1.8125-.8906 1.109375 0 1.765625.75v-3.2969h1.078125v9h-1l-.046875-.6875q-.65625.8125-1.8125.8125-1.09375 0-1.796875-.9062-.6875-.9063-.6875-2.3594zm1.078125.125q0 1.0781.4375 1.6875.453125.60935 1.234375.60935 1.03125 0 1.515625-.9375v-2.90625q-.484375-.8906-1.5-.8906-.796875 0-1.25.60935-.4375.60935-.4375 1.82815zm9.875 1.4062q0-.4375-.34375-.67185-.328125-.25-1.15625-.42185-.8125-.1719-1.296875-.4219-.484375-.25-.71875-.5781-.21875-.3438-.21875-.8125 0-.7813.65625-1.3125.65625-.5469 1.6875-.5469 1.078125 0 1.734375.5625.671875.5469.671875 1.40625h-1.078125q0-.4375-.390625-.75-.375-.32815-.9375-.32815-.59375 0-.9375.26565-.328125.25-.328125.65625 0 .3906.3125.59375.3125.20315 1.125.39065.8125.17185 1.3125.42185.5.25.734375.60935.25.3594.25.8594 0 .8594-.6875 1.375-.671875.5156-1.75.5156-.765625 0-1.359375-.2656-.578125-.28125-.90625-.7656-.328125-.4844-.328125-1.0469h1.078125q.03125.5469.4375.875.40625.3125 1.078125.3125.609375 0 .984375-.25.375-.25.375-.6719z"/><path d="m43.546875 635.21606q0 1.25-.421875 2.1875-.421875.92188-1.203125 1.42188-.765625.5-1.796875.5-1 0-1.78125-.5-.78125-.5-1.21875-1.40624-.421875-.9219-.4375-2.14064v-.60936q0-1.2344.421875-2.1719.4375-.9375 1.21875-1.4375.78125-.5156 1.796875-.5156 1.015625 0 1.796875.5.78125.5 1.203125 1.4375.421875.9375.421875 2.1875zm-1.109375-.5625q0-1.51562-.609375-2.32812-.609375-.8125-1.703125-.8125-1.078125 0-1.6875.8125-.609375.8125-.625 2.25v.64062q0 1.46874.609375 2.3125.625.82814 1.703125.82814 1.09375 0 1.6875-.78126.609375-.79688.625-2.28124zm3.859375-3.32812v1.53126h1.171875v.84374h-1.171875v3.92186q0 .39064.15625.57814.15625.1875.53125.1875.1875 0 .515625-.0625v.875q-.421875.125-.828125.125-.71875 0-1.09375-.4375-.375-.45314-.375-1.26564v-3.92186h-1.15625v-.84374h1.15625v-1.53126zm3.609375 2.29686q.71875-.875 1.875-.875 2.015625 0 2.03125 2.26564v4.1875h-1.09375v-4.20314q0-.67186-.3125-1-.296875-.3281-.953125-.3281-.53125 0-.9375.28124-.390625.28126-.609375.73436v4.51564h-1.078125v-9h1.078125zm8.546875 5.70314q-1.296875 0-2.109375-.84374-.796875-.8594-.796875-2.28126v-.1875q0-.95314.359375-1.6875.359375-.75 1-1.15624.65625-.4219 1.40625-.4219 1.234375 0 1.921875.8125.6875.8125.6875 2.32814v.45312h-4.296875q.03125.9375.546875 1.51564.53125.5781 1.34375.5781.5625 0 .953125-.23436.40625-.23438.71875-.625l.65625.51562q-.796875 1.23438-2.390625 1.23438zm-.140625-5.6875q-.65625 0-1.109375.48436-.4375.46876-.53125 1.32814h3.171875v-.07814q-.046875-.8281-.453125-1.28124-.390625-.45312-1.078125-.45312zm6.578125.1875q-.25-.03124-.53125-.03124-1.078125 0-1.453125.90624v4.5h-1.078125v-6.34374h1.046875l.015625.73436q.53125-.84376 1.515625-.84376.3125 0 .484375.07814zm6.46875 4.60936q.578125 0 1.015625-.34374.4375-.35936.484375-.89062h1.03125q-.03125.54686-.390625 1.04686-.34375.4844-.921875.78126-.5625.29688-1.21875.29688-1.296875 0-2.0625-.85938-.75-.875-.75-2.375v-.1875q0-.92186.328125-1.64062.34375-.71874.96875-1.10938.640625-.40626 1.515625-.40626 1.0625 0 1.765625.64064.71875.625.765625 1.65626h-1.03125q-.046875-.625-.46875-1.01564-.421875-.39062-1.03125-.39062-.828125 0-1.28125.59376-.453125.59374-.453125 1.71874v.20312q0 1.09374.453125 1.6875.453125.59374 1.28125.59374zm3.171875-2.46874q0-.92186.359375-1.67186.375-.75 1.03125-1.14064.65625-.40626 1.484375-.40626 1.296875 0 2.09375.89064.8125.89062.8125 2.39062v.07814q0 .92186-.359375 1.65624-.359375.73436-1.015625 1.15626-.65625.40624-1.515625.40624-1.28125 0-2.09375-.89064-.796875-.90624-.796875-2.3906zm1.09375.14064q0 1.04686.484375 1.6875.5.6406 1.3125.6406.828125 0 1.3125-.6406.484375-.65626.484375-1.82814 0-1.03126-.5-1.67186-.484375-.65626-1.3125-.65626-.796875 0-1.296875.64062-.484375.625-.484375 1.82814zm10.109375 2.46874q-.625.75-1.859375.75-1.015625 0-1.546875-.59374-.53125-.59376-.53125-1.75v-4.125h1.078125v4.09374q0 1.45312 1.171875 1.45312 1.25 0 1.65625-.9375v-4.60936h1.09375v6.34374h-1.03125zm4.109375-5.71874.03125.79686q.734375-.90626 1.90625-.90626 2.015625 0 2.03125 2.26564v4.1875h-1.09375v-4.20314q0-.67186-.3125-1-.296875-.3281-.953125-.3281-.53125 0-.9375.28124-.390625.28126-.609375.73436v4.51564h-1.078125v-6.34374zm7.453125-1.53126v1.53126h1.171875v.84374h-1.171875v3.92186q0 .39064.15625.57814.15625.1875.53125.1875.1875 0 .515625-.0625v.875q-.421875.125-.828125.125-.71875 0-1.09375-.4375-.375-.45314-.375-1.26564v-3.92186h-1.15625v-.84374h1.15625v-1.53126zm5.59375 2.5q-.25-.03124-.53125-.03124-1.078125 0-1.453125.90624v4.5h-1.078125v-6.34374h1.046875l.015625.73436q.53125-.84376 1.515625-.84376.3125 0 .484375.07814zm2.109375 5.375h-1.078125v-6.34374h1.078125zm-1.171875-8.01564q0-.2656.15625-.4531.171875-.1875.484375-.1875.3125 0 .46875.1875.171875.1875.171875.4531 0 .25-.171875.4375-.15625.1719-.46875.1719-.3125 0-.484375-.1719-.15625-.1875-.15625-.4375zm5.625 8.14064q-1.296875 0-2.109375-.84374-.796875-.8594-.796875-2.28126v-.1875q0-.95314.359375-1.6875.359375-.75 1-1.15624.65625-.4219 1.40625-.4219 1.234375 0 1.921875.8125.6875.8125.6875 2.32814v.45312h-4.296875q.03125.9375.546875 1.51564.53125.5781 1.34375.5781.5625 0 .953125-.23436.40625-.23438.71875-.625l.65625.51562q-.796875 1.23438-2.390625 1.23438zm-.140625-5.6875q-.65625 0-1.109375.48436-.4375.46876-.53125 1.32814h3.171875v-.07814q-.046875-.8281-.453125-1.28124-.390625-.45312-1.078125-.45312zm7.203125 3.875q0-.4375-.34375-.67188-.328125-.25-1.15625-.42186-.8125-.1719-1.296875-.4219-.484375-.25-.71875-.5781-.21875-.34376-.21875-.8125 0-.78126.65625-1.3125.65625-.5469 1.6875-.5469 1.078125 0 1.734375.5625.671875.5469.671875 1.40626h-1.078125q0-.4375-.390625-.75-.375-.32812-.9375-.32812-.59375 0-.9375.26562-.328125.25-.328125.65624 0 .39064.3125.59376.3125.20314 1.125.39064.8125.17186 1.3125.42186.5.25.734375.60938.25.35936.25.85936 0 .8594-.6875 1.375-.671875.51564-1.75.51564-.765625 0-1.359375-.26564-.578125-.28124-.90625-.7656-.328125-.4844-.328125-1.0469h1.078125q.03125.5469.4375.875.40625.3125 1.078125.3125.609375 0 .984375-.25.375-.25.375-.67186z"/><path d="m126.828125 693.46875q0 1.76565-.734375 2.71875-.734375.9375-2.140625.9375-1.40625 0-2.140625-.9219-.734375-.92185-.75-2.6406v-1.5781q0-1.7813.734375-2.70315.75-.9375 2.140625-.9375 1.390625 0 2.125.92185.75.9219.765625 2.64065zm-1.703125-1.71875q0-1.0625-.296875-1.5469-.28125-.48435-.890625-.48435-.59375 0-.890625.46875-.28125.4531-.296875 1.4375v2.0625q0 1.0469.28125 1.5625.28125.5.921875.5.609375 0 .890625-.4844.28125-.48435.28125-1.48435z"/><path d="m260.16147 692.7969.5-4.32815h4.78125v1.40625h-3.39062l-.21876 1.84375q.60938-.32815 1.28126-.32815 1.21874 0 1.90624.76565.70313.75.70313 2.10935 0 .82815-.35937 1.4844-.34376.6406-1 1.0156-.64063.3594-1.53126.3594-.76562 0-1.4375-.3125-.65624-.3281-1.04687-.8906-.375-.5625-.40625-1.2969h1.6875q.04688.53125.35938.8281.32812.2969.84374.2969.57813 0 .875-.40625.3125-.42185.3125-1.17185 0-.7344-.35937-1.1094-.34375-.3906-1-.3906-.60937 0-.98437.3125l-.15626.1562zm12.5.67185q0 1.76565-.73437 2.71875-.73438.9375-2.14063.9375-1.40625 0-2.14063-.9219-.73437-.92185-.75-2.6406v-1.5781q0-1.7813.73438-2.70315.75-.9375 2.14062-.9375 1.39063 0 2.125.92185.75.9219.76563 2.64065zm-1.70313-1.71875q0-1.0625-.29687-1.5469-.28125-.48435-.89063-.48435-.59374 0-.89062.46875-.28125.4531-.29688 1.4375v2.0625q0 1.0469.28126 1.5625.28124.5.92187.5.60937 0 .89063-.4844.28124-.48435.28124-1.48435z"/><path d="m402.85416 697h-1.6875v-6.53125l-2.01563.625v-1.375l3.53125-1.26565h.17188zm8.64062-3.53125q0 1.76565-.73438 2.71875-.73437.9375-2.14062.9375-1.40625 0-2.14062-.9219-.73438-.92185-.75-2.6406v-1.5781q0-1.7813.73437-2.70315.75-.9375 2.14063-.9375 1.39062 0 2.125.92185.75.9219.76562 2.64065zm-1.70312-1.71875q0-1.0625-.29688-1.5469-.28125-.48435-.89062-.48435-.59376 0-.89063.46875-.28125.4531-.29687 1.4375v2.0625q0 1.0469.28124 1.5625.28126.5.92188.5.60938 0 .89062-.4844.28126-.48435.28126-1.48435zm8.70312 1.71875q0 1.76565-.73438 2.71875-.73437.9375-2.14062.9375-1.40625 0-2.14062-.9219-.73438-.92185-.75-2.6406v-1.5781q0-1.7813.73437-2.70315.75-.9375 2.14063-.9375 1.39062 0 2.125.92185.75.9219.76562 2.64065zm-1.70312-1.71875q0-1.0625-.29688-1.5469-.28125-.48435-.89062-.48435-.59376 0-.89063.46875-.28125.4531-.29687 1.4375v2.0625q0 1.0469.28124 1.5625.28126.5.92188.5.60938 0 .89062-.4844.28126-.48435.28126-1.48435z"/><path d="m545.1875 697h-1.6875v-6.53125l-2.0156.625v-1.375l3.5312-1.26565h.1719zm3.1406-4.2031.5-4.32815h4.7813v1.40625h-3.39065l-.21875 1.84375q.6094-.32815 1.28125-.32815 1.21875 0 1.90625.76565.7031.75.7031 2.10935 0 .82815-.35935 1.4844-.34375.6406-1 1.0156-.64065.3594-1.53125.3594-.7656 0-1.4375-.3125-.65625-.3281-1.0469-.8906-.375-.5625-.4062-1.2969h1.6875q.04685.53125.35935.8281.32815.2969.84375.2969.5781 0 .875-.40625.3125-.42185.3125-1.17185 0-.7344-.3594-1.1094-.3437-.3906-1-.3906-.60935 0-.98435.3125l-.15625.1562zm12.5.67185q0 1.76565-.73435 2.71875-.73435.9375-2.14065.9375-1.4062 0-2.1406-.9219-.7344-.92185-.75-2.6406v-1.5781q0-1.7813.7344-2.70315.75-.9375 2.1406-.9375 1.3906 0 2.125.92185.75.9219.7656 2.64065zm-1.7031-1.71875q0-1.0625-.2969-1.5469-.2812-.48435-.8906-.48435-.59375 0-.8906.46875-.2813.4531-.2969 1.4375v2.0625q0 1.0469.28125 1.5625.28125.5.92185.5.6094 0 .89065-.4844.28125-.48435.28125-1.48435z"/></g></svg>