<svg fill="none" height="729" stroke-linecap="square" stroke-miterlimit="10" viewBox="0 0 580 729" width="580" xmlns="http://www.w3.org/2000/svg" xmlns:xlink="http://www.w3.org/1999/xlink"><clipPath id="a"><path d="m123 29h428v644h-428z"/></clipPath><path d="m0 0h580v729h-580z" fill="none"/><path d="m123.5 29.5v644" stroke="#333" stroke-linecap="butt"/><path d="m265.5 29.5v644" stroke="#ccc" stroke-linecap="butt"/><path d="m408.5 29.5v644" stroke="#ccc" stroke-linecap="butt"/><path d="m551.5 29.5v644" stroke="#ccc" stroke-linecap="butt"/><path d="m170.5 29.5v644"/><path d="m218.5 29.5v644"/><path d="m313.5 29.5v644"/><path d="m360.5 29.5v644"/><path d="m455.5 29.5v644"/><path d="m503.5 29.5v644"/><path d="m123.5 673.5v-644" stroke="#000" stroke-linecap="butt"/><path clip-path="url(#a)" d="m123 86v-37h369c1.10458 0 2 .89543 2 2v33c0 1.10457-.89542 2-2 2z"/><path clip-path="url(#a)" d="m123 86v-37h369c1.10458 0 2 .89543 2 2v33c0 1.10457-.89542 2-2 2z" fill="#38761d"/><path clip-path="url(#a)" d="m123 143v-37h227c1.10458 0 2 .89543 2 2v33c0 1.10457-.89542 2-2 2z"/><path clip-path="url(#a)" d="m123 143v-37h227c1.10458 0 2 .89543 2 2v33c0 1.10457-.89542 2-2 2z" fill="#38761d"/><path clip-path="url(#a)" d="m123 200v-37h152c1.10458 0 2 .89543 2 2v33c0 1.10457-.89542 2-2 2z"/><path clip-path="url(#a)" d="m123 200v-37h152c1.10458 0 2 .89543 2 2v33c0 1.10457-.89542 2-2 2z" fill="#38761d"/><path clip-path="url(#a)" d="m123 257v-37h119c1.10457 0 2 .89543 2 2v33c0 1.10458-.89543 2-2 2z"/><path clip-path="url(#a)" d="m123 257v-37h119c1.10457 0 2 .89543 2 2v33c0 1.10458-.89543 2-2 2z" fill="#38761d"/><path clip-path="url(#a)" d="m123 313v-37h110c1.10457 0 2 .89542 2 2v33c0 1.10458-.89543 2-2 2z"/><path clip-path="url(#a)" d="m123 313v-37h110c1.10457 0 2 .89542 2 2v33c0 1.10458-.89543 2-2 2z" fill="#38761d"/><path clip-path="url(#a)" d="m123 370v-37h95c1.10457 0 2 .89542 2 2v33c0 1.10458-.89543 2-2 2z"/><path clip-path="url(#a)" d="m123 370v-37h95c1.10457 0 2 .89542 2 2v33c0 1.10458-.89543 2-2 2z" fill="#38761d"/><path clip-path="url(#a)" d="m123 427v-37h92c1.10457 0 2 .89542 2 2v33c0 1.10458-.89543 2-2 2z"/><path clip-path="url(#a)" d="m123 427v-37h92c1.10457 0 2 .89542 2 2v33c0 1.10458-.89543 2-2 2z" fill="#38761d"/><path clip-path="url(#a)" d="m123 483v-37h57c1.10457 0 2 .89542 2 2v33c0 1.10458-.89543 2-2 2z"/><path clip-path="url(#a)" d="m123 483v-37h57c1.10457 0 2 .89542 2 2v33c0 1.10458-.89543 2-2 2z" fill="#38761d"/><path clip-path="url(#a)" d="m123 540v-37h48c1.10457 0 2 .89542 2 2v33c0 1.10455-.89543 2-2 2z"/><path clip-path="url(#a)" d="m123 540v-37h48c1.10457 0 2 .89542 2 2v33c0 1.10455-.89543 2-2 2z" fill="#38761d"/><path clip-path="url(#a)" d="m123 597v-37h44c1.10457 0 2 .89545 2 2v33c0 1.10455-.89543 2-2 2z"/><path clip-path="url(#a)" d="m123 597v-37h44c1.10457 0 2 .89545 2 2v33c0 1.10455-.89543 2-2 2z" fill="#38761d"/><path clip-path="url(#a)" d="m123 654v-37h211c1.10458 0 2 .89545 2 2v33c0 1.10455-.89542 2-2 2z"/><path clip-path="url(#a)" d="m123 654v-37h211c1.10458 0 2 .89545 2 2v33c0 1.10455-.89542 2-2 2z" fill="#38761d"/><path d="m123.5 679.5v-12" stroke="#000" stroke-linecap="butt"/><path d="m265.5 679.5v-12" stroke="#000" stroke-linecap="butt"/><path d="m408.5 679.5v-12" stroke="#000" stroke-linecap="butt"/><path d="m551.5 679.5v-12" stroke="#000" stroke-linecap="butt"/><path d="m459.34967 67.296875.5-4.328125h4.78125v1.40625h-3.39062l-.21875 1.84375q.60937-.328125 1.28125-.328125 1.21875 0 1.90625.765625.70312.75.70312 2.109375 0 .828125-.35937 1.484375-.34375.640625-1 1.015625-.64063.359375-1.53125.359375-.76563 0-1.4375-.3125-.65625-.328125-1.04688-.890625-.375-.5625-.40625-1.296875h1.6875q.04688.53125.35938.828125.32812.296875.84375.296875.57812 0 .875-.40625.3125-.421875.3125-1.171875 0-.734375-.35938-1.109375-.34375-.390625-1-.390625-.60937 0-.98437.3125l-.15625.15625zm12.59375 4.203125h-5.84375v-1.15625l2.76563-2.953125q.5625-.609375.82812-1.078125.28125-.46875.28125-.875 0-.578125-.29687-.890625-.28125-.328125-.8125-.328125-.57813 0-.90625.390625-.32813.390625-.32813 1.046875h-1.70312q0-.78125.375-1.421875.375-.65625 1.04687-1.015625.6875-.375 1.54688-.375 1.3125 0 2.04687.640625.73438.625.73438 1.78125 0 .640625-.32813 1.296875-.32812.65625-1.125 1.53125l-1.9375 2.046875h3.65625zm1.3125-.828125q0-.40625.26563-.65625.28125-.25.6875-.25.42187 0 .6875.25.28125.25.28125.65625 0 .390625-.28125.640625-.26563.25-.6875.25-.40625 0-.6875-.25-.26563-.25-.26563-.640625zm8.59375-2.703125q0 1.765625-.73437 2.71875-.73438.9375-2.14063.9375-1.40625 0-2.14062-.921875-.73438-.921875-.75-2.640625v-1.578125q0-1.78125.73437-2.703125.75-.9375 2.14063-.9375 1.39062 0 2.125.921875.75.921875.76562 2.640625zm-1.70312-1.71875q0-1.0625-.29688-1.546875-.28125-.484375-.89062-.484375-.59375 0-.89063.46875-.28125.453125-.29687 1.4375v2.0625q0 1.046875.28125 1.5625.28125.5.92187.5.60938 0 .89063-.484375.28125-.484375.28125-1.484375zm3.20312 1.046875.5-4.328125h4.78125v1.40625h-3.39062l-.21875 1.84375q.60937-.328125 1.28125-.328125 1.21875 0 1.90625.765625.70312.75.70312 2.109375 0 .828125-.35937 1.484375-.34375.640625-1 1.015625-.64063.359375-1.53125.359375-.76563 0-1.4375-.3125-.65625-.328125-1.04688-.890625-.375-.5625-.40625-1.296875h1.6875q.04688.53125.35938.828125.32812.296875.84375.296875.57812 0 .875-.40625.3125-.421875.3125-1.171875 0-.734375-.35938-1.109375-.34375-.390625-1-.390625-.60937 0-.98437.3125l-.15625.15625z" stroke="#38761d" stroke-linecap="round" stroke-linejoin="round" stroke-width="3"/><path d="m459.34967 67.296875.5-4.328125h4.78125v1.40625h-3.39062l-.21875 1.84375q.60937-.328125 1.28125-.328125 1.21875 0 1.90625.765625.70312.75.70312 2.109375 0 .828125-.35937 1.484375-.34375.640625-1 1.015625-.64063.359375-1.53125.359375-.76563 0-1.4375-.3125-.65625-.328125-1.04688-.890625-.375-.5625-.40625-1.296875h1.6875q.04688.53125.35938.828125.32812.296875.84375.296875.57812 0 .875-.40625.3125-.421875.3125-1.171875 0-.734375-.35938-1.109375-.34375-.390625-1-.390625-.60937 0-.98437.3125l-.15625.15625zm12.59375 4.203125h-5.84375v-1.15625l2.76563-2.953125q.5625-.609375.82812-1.078125.28125-.46875.28125-.875 0-.578125-.29687-.890625-.28125-.328125-.8125-.328125-.57813 0-.90625.390625-.32813.390625-.32813 1.046875h-1.70312q0-.78125.375-1.421875.375-.65625 1.04687-1.015625.6875-.375 1.54688-.375 1.3125 0 2.04687.640625.73438.625.73438 1.78125 0 .640625-.32813 1.296875-.32812.65625-1.125 1.53125l-1.9375 2.046875h3.65625zm1.3125-.828125q0-.40625.26563-.65625.28125-.25.6875-.25.42187 0 .6875.25.28125.25.28125.65625 0 .390625-.28125.640625-.26563.25-.6875.25-.40625 0-.6875-.25-.26563-.25-.26563-.640625zm8.59375-2.703125q0 1.765625-.73437 2.71875-.73438.9375-2.14063.9375-1.40625 0-2.14062-.921875-.73438-.921875-.75-2.640625v-1.578125q0-1.78125.73437-2.703125.75-.9375 2.14063-.9375 1.39062 0 2.125.921875.75.921875.76562 2.640625zm-1.70312-1.71875q0-1.0625-.29688-1.546875-.28125-.484375-.89062-.484375-.59375 0-.89063.46875-.28125.453125-.29687 1.4375v2.0625q0 1.046875.28125 1.5625.28125.5.92187.5.60938 0 .89063-.484375.28125-.484375.28125-1.484375zm3.20312 1.046875.5-4.328125h4.78125v1.40625h-3.39062l-.21875 1.84375q.60937-.328125 1.28125-.328125 1.21875 0 1.90625.765625.70312.75.70312 2.109375 0 .828125-.35937 1.484375-.34375.640625-1 1.015625-.64063.359375-1.53125.359375-.76563 0-1.4375-.3125-.65625-.328125-1.04688-.890625-.375-.5625-.40625-1.296875h1.6875q.04688.53125.35938.828125.32812.296875.84375.296875.57812 0 .875-.40625.3125-.421875.3125-1.171875 0-.734375-.35938-1.109375-.34375-.390625-1-.390625-.60937 0-.98437.3125l-.15625.15625z" fill="#fff"/><path d="m318.26184 123.484375h.90626q.64062 0 .95312-.3125.3125-.328125.3125-.859375 0-.515625-.3125-.796875-.29688-.296875-.84375-.296875-.48437 0-.8125.265625-.32813.265625-.32813.6875h-1.6875q0-.65625.35938-1.1875.35938-.53125 1-.828125.65625-.3125 1.4375-.3125 1.34375 0 2.10938.65625.78124.640625.78124 1.78125 0 .59375-.35937 1.09375-.35937.484375-.9375.734375.71875.265625 1.0625.78125.35937.515625.35937 1.21875 0 1.140625-.82812 1.828125-.82812.6875-2.1875.6875-1.28125 0-2.09375-.671875-.8125-.6875-.8125-1.796875h1.6875q0 .484375.35937.796875.375.296875.89063.296875.60937 0 .95313-.3125.34374-.328125.34374-.859375 0-1.265625-1.40624-1.265625h-.90626zm11.125 5.015625h-5.84374v-1.15625l2.76562-2.953125q.5625-.609375.82812-1.078125.28126-.46875.28126-.875 0-.578125-.29688-.890625-.28125-.328125-.8125-.328125-.57812 0-.90625.390625-.32813.390625-.32813 1.046875h-1.70312q0-.78125.375-1.421875.375-.65625 1.04688-1.015625.6875-.375 1.54687-.375 1.3125 0 2.04687.640625.73438.625.73438 1.78125 0 .640625-.32812 1.296875-.32813.65625-1.125 1.53125l-1.9375 2.046875h3.65624zm1.3125-.828125q0-.40625.26563-.65625.28125-.25.6875-.25.42187 0 .6875.25.28125.25.28125.65625 0 .390625-.28125.640625-.26563.25-.6875.25-.40625 0-.6875-.25-.26563-.25-.26563-.640625zm8.59376-2.703125q0 1.765625-.73438 2.71875-.73438.9375-2.14062.9375-1.40626 0-2.14063-.921875-.73437-.921875-.75-2.640625v-1.578125q0-1.78125.73437-2.703125.75-.9375 2.14063-.9375 1.39063 0 2.125.921875.75.921875.76563 2.640625zm-1.70313-1.71875q0-1.0625-.29687-1.546875-.28126-.484375-.89063-.484375-.59375 0-.89063.46875-.28124.453125-.29687 1.4375v2.0625q0 1.046875.28125 1.5625.28125.5.92188.5.60937 0 .89062-.484375.28125-.484375.28125-1.484375zm8.75-2.328125-3.29687 7.578125h-1.78126l3.29688-7.15625h-4.23438v-1.375h6.01563z" stroke="#38761d" stroke-linecap="round" stroke-linejoin="round" stroke-width="3"/><path d="m318.26184 123.484375h.90626q.64062 0 .95312-.3125.3125-.328125.3125-.859375 0-.515625-.3125-.796875-.29688-.296875-.84375-.296875-.48437 0-.8125.265625-.32813.265625-.32813.6875h-1.6875q0-.65625.35938-1.1875.35938-.53125 1-.828125.65625-.3125 1.4375-.3125 1.34375 0 2.10938.65625.78124.640625.78124 1.78125 0 .59375-.35937 1.09375-.35937.484375-.9375.734375.71875.265625 1.0625.78125.35937.515625.35937 1.21875 0 1.140625-.82812 1.828125-.82812.6875-2.1875.6875-1.28125 0-2.09375-.671875-.8125-.6875-.8125-1.796875h1.6875q0 .484375.35937.796875.375.296875.89063.296875.60937 0 .95313-.3125.34374-.328125.34374-.859375 0-1.265625-1.40624-1.265625h-.90626zm11.125 5.015625h-5.84374v-1.15625l2.76562-2.953125q.5625-.609375.82812-1.078125.28126-.46875.28126-.875 0-.578125-.29688-.890625-.28125-.328125-.8125-.328125-.57812 0-.90625.390625-.32813.390625-.32813 1.046875h-1.70312q0-.78125.375-1.421875.375-.65625 1.04688-1.015625.6875-.375 1.54687-.375 1.3125 0 2.04687.640625.73438.625.73438 1.78125 0 .640625-.32812 1.296875-.32813.65625-1.125 1.53125l-1.9375 2.046875h3.65624zm1.3125-.828125q0-.40625.26563-.65625.28125-.25.6875-.25.42187 0 .6875.25.28125.25.28125.65625 0 .390625-.28125.640625-.26563.25-.6875.25-.40625 0-.6875-.25-.26563-.25-.26563-.640625zm8.59376-2.703125q0 1.765625-.73438 2.71875-.73438.9375-2.14062.9375-1.40626 0-2.14063-.921875-.73437-.921875-.75-2.640625v-1.578125q0-1.78125.73437-2.703125.75-.9375 2.14063-.9375 1.39063 0 2.125.921875.75.921875.76563 2.640625zm-1.70313-1.71875q0-1.0625-.29687-1.546875-.28126-.484375-.89063-.484375-.59375 0-.89063.46875-.28124.453125-.29687 1.4375v2.0625q0 1.046875.28125 1.5625.28125.5.92188.5.60937 0 .89062-.484375.28125-.484375.28125-1.484375zm8.75-2.328125-3.29687 7.578125h-1.78126l3.29688-7.15625h-4.23438v-1.375h6.01563z" fill="#fff"/><path d="m248.04483 185.5h-5.84375v-1.15625l2.76562-2.95313q.5625-.60937.82813-1.07812.28125-.46875.28125-.875 0-.57812-.29688-.89062-.28124-.32813-.8125-.32813-.57812 0-.90624.39063-.32813.39062-.32813 1.04687h-1.70313q0-.78125.375-1.42187.375-.65626 1.04688-1.01563.6875-.375 1.54688-.375 1.3125 0 2.04687.64063.73437.625.73437 1.78124 0 .64063-.32812 1.29688-.32812.65625-1.125 1.53125l-1.9375 2.04687h3.65625zm5.26563 0h-1.6875v-6.53125l-2.01563.625v-1.375l3.53125-1.26563h.17188zm3.04687-.82812q0-.40626.26563-.65626.28124-.25.6875-.25.42187 0 .6875.25.28124.25.28124.65626 0 .39062-.28124.64062-.26563.25-.6875.25-.40626 0-.6875-.25-.26563-.25-.26563-.64062zm7.4375-7.79688v1.40625h-.15625q-1.15625.01563-1.85938.59375-.6875.57812-.82812 1.60938.67188-.6875 1.70312-.6875 1.125 0 1.78126.79687.65624.79687.65624 2.09375 0 .82812-.35937 1.5-.35937.67188-1.03125 1.0625-.65625.375-1.48438.375-1.34374 0-2.17187-.9375-.82813-.95312-.82813-2.51562v-.60938q0-1.39062.51563-2.45312.53125-1.0625 1.5-1.64063.98437-.57813 2.28125-.59375zm-1.65625 4.28125q-.40625 0-.75.21875-.32812.20312-.48438.5625v.51562q0 .84376.32813 1.32813.34375.46875.95313.46875.54687 0 .875-.42188.34374-.4375.34374-1.125 0-.70312-.34374-1.125-.34376-.42187-.92188-.42187zm4.3125.14063.5-4.32813h4.78125v1.40625h-3.39063l-.21874 1.84375q.60937-.32813 1.28124-.32813 1.21876 0 1.90626.76563.70312.75.70312 2.10937 0 .82813-.35938 1.48438-.34374.64062-1 1.01562-.64062.35938-1.53124.35938-.76563 0-1.4375-.3125-.65626-.32812-1.04688-.89062-.375-.5625-.40625-1.29688h1.6875q.04687.53125.35937.82812.32813.29688.84376.29688.57812 0 .875-.40625.3125-.42187.3125-1.17187 0-.73438-.35938-1.10938-.34375-.39062-1-.39062-.60938 0-.98438.3125l-.15624.15624z" stroke="#38761d" stroke-linecap="round" stroke-linejoin="round" stroke-width="3"/><path d="m248.04483 185.5h-5.84375v-1.15625l2.76562-2.95313q.5625-.60937.82813-1.07812.28125-.46875.28125-.875 0-.57812-.29688-.89062-.28124-.32813-.8125-.32813-.57812 0-.90624.39063-.32813.39062-.32813 1.04687h-1.70313q0-.78125.375-1.42187.375-.65626 1.04688-1.01563.6875-.375 1.54688-.375 1.3125 0 2.04687.64063.73437.625.73437 1.78124 0 .64063-.32812 1.29688-.32812.65625-1.125 1.53125l-1.9375 2.04687h3.65625zm5.26563 0h-1.6875v-6.53125l-2.01563.625v-1.375l3.53125-1.26563h.17188zm3.04687-.82812q0-.40626.26563-.65626.28124-.25.6875-.25.42187 0 .6875.25.28124.25.28124.65626 0 .39062-.28124.64062-.26563.25-.6875.25-.40626 0-.6875-.25-.26563-.25-.26563-.64062zm7.4375-7.79688v1.40625h-.15625q-1.15625.01563-1.85938.59375-.6875.57812-.82812 1.60938.67188-.6875 1.70312-.6875 1.125 0 1.78126.79687.65624.79687.65624 2.09375 0 .82812-.35937 1.5-.35937.67188-1.03125 1.0625-.65625.375-1.48438.375-1.34374 0-2.17187-.9375-.82813-.95312-.82813-2.51562v-.60938q0-1.39062.51563-2.45312.53125-1.0625 1.5-1.64063.98437-.57813 2.28125-.59375zm-1.65625 4.28125q-.40625 0-.75.21875-.32812.20312-.48438.5625v.51562q0 .84376.32813 1.32813.34375.46875.95313.46875.54687 0 .875-.42188.34374-.4375.34374-1.125 0-.70312-.34374-1.125-.34376-.42187-.92188-.42187zm4.3125.14063.5-4.32813h4.78125v1.40625h-3.39063l-.21874 1.84375q.60937-.32813 1.28124-.32813 1.21876 0 1.90626.76563.70312.75.70312 2.10937 0 .82813-.35938 1.48438-.34374.64062-1 1.01562-.64062.35938-1.53124.35938-.76563 0-1.4375-.3125-.65626-.32812-1.04688-.89062-.375-.5625-.40625-1.29688h1.6875q.04687.53125.35937.82812.32813.29688.84376.29688.57812 0 .875-.40625.3125-.42187.3125-1.17187 0-.73438-.35938-1.10938-.34375-.39062-1-.39062-.60938 0-.98438.3125l-.15624.15624z" fill="#fff"/><path d="m213.3726 242.5h-1.6875v-6.53125l-2.01562.625v-1.375l3.53125-1.26563h.17187zm8.6875-7.57812-3.29687 7.57812h-1.78125l3.29687-7.15625h-4.23437v-1.375h6.01562zm1.35938 6.75q0-.40626.26562-.65626.28125-.25.6875-.25.42188 0 .6875.25.28125.25.28125.65626 0 .39062-.28125.64062-.26562.25-.6875.25-.40625 0-.6875-.25-.26562-.25-.26562-.64062zm8.59375-2.70313q0 1.76563-.73438 2.71875-.73437.9375-2.14062.9375-1.40625 0-2.14063-.92188-.73437-.92187-.75-2.64062v-1.57812q0-1.78126.73438-2.70313.75-.9375 2.14062-.9375 1.39063 0 2.125.92187.75.92188.76563 2.64063zm-1.70313-1.71875q0-1.0625-.29687-1.54688-.28125-.48437-.89063-.48437-.59375 0-.89062.46875-.28125.45312-.29688 1.4375v2.0625q0 1.04688.28125 1.5625.28125.5.92188.5.60937 0 .89062-.48438.28125-.48437.28125-1.48437zm4.67188.23438h.90625q.64062 0 .95312-.3125.3125-.32813.3125-.85938 0-.51562-.3125-.79688-.29687-.29687-.84375-.29687-.48437 0-.8125.26563-.32812.26562-.32812.6875h-1.6875q0-.65626.35937-1.1875.35938-.53126 1-.82813.65625-.3125 1.4375-.3125 1.34375 0 2.10938.65625.78125.64062.78125 1.78125 0 .59375-.35938 1.09375-.35937.48438-.9375.73438.71875.26562 1.0625.78124.35938.51563.35938 1.21876 0 1.14062-.82813 1.82812-.82812.6875-2.1875.6875-1.28125 0-2.09375-.67188-.8125-.6875-.8125-1.79687h1.6875q0 .48437.35938.79687.375.29688.89062.29688.60938 0 .95313-.3125.34375-.32812.34375-.85938 0-1.26562-1.40625-1.26562h-.90625z" stroke="#38761d" stroke-linecap="round" stroke-linejoin="round" stroke-width="3"/><path d="m213.3726 242.5h-1.6875v-6.53125l-2.01562.625v-1.375l3.53125-1.26563h.17187zm8.6875-7.57812-3.29687 7.57812h-1.78125l3.29687-7.15625h-4.23437v-1.375h6.01562zm1.35938 6.75q0-.40626.26562-.65626.28125-.25.6875-.25.42188 0 .6875.25.28125.25.28125.65626 0 .39062-.28125.64062-.26562.25-.6875.25-.40625 0-.6875-.25-.26562-.25-.26562-.64062zm8.59375-2.70313q0 1.76563-.73438 2.71875-.73437.9375-2.14062.9375-1.40625 0-2.14063-.92188-.73437-.92187-.75-2.64062v-1.57812q0-1.78126.73438-2.70313.75-.9375 2.14062-.9375 1.39063 0 2.125.92187.75.92188.76563 2.64063zm-1.70313-1.71875q0-1.0625-.29687-1.54688-.28125-.48437-.89063-.48437-.59375 0-.89062.46875-.28125.45312-.29688 1.4375v2.0625q0 1.04688.28125 1.5625.28125.5.92188.5.60937 0 .89062-.48438.28125-.48437.28125-1.48437zm4.67188.23438h.90625q.64062 0 .95312-.3125.3125-.32813.3125-.85938 0-.51562-.3125-.79688-.29687-.29687-.84375-.29687-.48437 0-.8125.26563-.32812.26562-.32812.6875h-1.6875q0-.65626.35937-1.1875.35938-.53126 1-.82813.65625-.3125 1.4375-.3125 1.34375 0 2.10938.65625.78125.64062.78125 1.78125 0 .59375-.35938 1.09375-.35937.48438-.9375.73438.71875.26562 1.0625.78124.35938.51563.35938 1.21876 0 1.14062-.82813 1.82812-.82812.6875-2.1875.6875-1.28125 0-2.09375-.67188-.8125-.6875-.8125-1.79687h1.6875q0 .48437.35938.79687.375.29688.89062.29688.60938 0 .95313-.3125.34375-.32812.34375-.85938 0-1.26562-1.40625-1.26562h-.90625z" fill="#fff"/><path d="m203.9801 298.5h-1.6875v-6.53125l-2.01562.625v-1.375l3.53125-1.26563h.17187zm3.14063-4.20312.5-4.32813h4.78125v1.40625h-3.39063l-.21875 1.84375q.60938-.32813 1.28125-.32813 1.21875 0 1.90625.76563.70313.75.70313 2.10937 0 .82813-.35938 1.48438-.34375.64062-1 1.01562-.64062.35938-1.53125.35938-.76562 0-1.4375-.3125-.65625-.32812-1.04687-.89062-.375-.5625-.40625-1.29688h1.6875q.04687.53125.35937.82812.32813.29688.84375.29688.57813 0 .875-.40625.3125-.42187.3125-1.17187 0-.73438-.35937-1.10938-.34375-.39062-1-.39062-.60938 0-.98438.3125l-.15625.15624zm6.90625 3.375q0-.40626.26562-.65626.28125-.25.6875-.25.42188 0 .6875.25.28125.25.28125.65626 0 .39062-.28125.64062-.26562.25-.6875.25-.40625 0-.6875-.25-.26562-.25-.26562-.64062zm8.64062-6.75-3.29687 7.57812h-1.78125l3.29687-7.15625h-4.23437v-1.375h6.01562zm5.3125 7.57812h-1.6875v-6.53125l-2.01562.625v-1.375l3.53125-1.26563h.17187z" stroke="#38761d" stroke-linecap="round" stroke-linejoin="round" stroke-width="3"/><path d="m203.9801 298.5h-1.6875v-6.53125l-2.01562.625v-1.375l3.53125-1.26563h.17187zm3.14063-4.20312.5-4.32813h4.78125v1.40625h-3.39063l-.21875 1.84375q.60938-.32813 1.28125-.32813 1.21875 0 1.90625.76563.70313.75.70313 2.10937 0 .82813-.35938 1.48438-.34375.64062-1 1.01562-.64062.35938-1.53125.35938-.76562 0-1.4375-.3125-.65625-.32812-1.04687-.89062-.375-.5625-.40625-1.29688h1.6875q.04687.53125.35937.82812.32813.29688.84375.29688.57813 0 .875-.40625.3125-.42187.3125-1.17187 0-.73438-.35937-1.10938-.34375-.39062-1-.39062-.60938 0-.98438.3125l-.15625.15624zm6.90625 3.375q0-.40626.26562-.65626.28125-.25.6875-.25.42188 0 .6875.25.28125.25.28125.65626 0 .39062-.28125.64062-.26562.25-.6875.25-.40625 0-.6875-.25-.26562-.25-.26562-.64062zm8.64062-6.75-3.29687 7.57812h-1.78125l3.29687-7.15625h-4.23437v-1.375h6.01562zm5.3125 7.57812h-1.6875v-6.53125l-2.01562.625v-1.375l3.53125-1.26563h.17187z" fill="#fff"/><path d="m188.94125 355.5h-1.6875v-6.53125l-2.01562.625v-1.375l3.53125-1.26563h.17187zm4.60938-5.01562h.90625q.64062 0 .95312-.3125.3125-.32813.3125-.85938 0-.51562-.3125-.79688-.29687-.29687-.84375-.29687-.48437 0-.8125.26563-.32812.26562-.32812.6875h-1.6875q0-.65626.35937-1.1875.35938-.53126 1-.82813.65625-.3125 1.4375-.3125 1.34375 0 2.10938.65625.78125.64062.78125 1.78125 0 .59375-.35938 1.09375-.35937.48438-.9375.73438.71875.26562 1.0625.78124.35938.51563.35938 1.21876 0 1.14062-.82813 1.82812-.82812.6875-2.1875.6875-1.28125 0-2.09375-.67188-.8125-.6875-.8125-1.79687h1.6875q0 .48437.35938.79687.375.29688.89062.29688.60938 0 .95313-.3125.34375-.32812.34375-.85938 0-1.26562-1.40625-1.26562h-.90625zm5.4375 4.1875q0-.40626.26562-.65626.28125-.25.6875-.25.42188 0 .6875.25.28125.25.28125.65626 0 .39062-.28125.64062-.26562.25-.6875.25-.40625 0-.6875-.25-.26562-.25-.26562-.64062zm7.4375-7.79688v1.40625h-.15625q-1.15625.01563-1.85938.59375-.6875.57812-.82812 1.60938.67187-.6875 1.70312-.6875 1.125 0 1.78125.79687.65625.79687.65625 2.09375 0 .82812-.35937 1.5-.35938.67188-1.03125 1.0625-.65625.375-1.48438.375-1.34375 0-2.17187-.9375-.82813-.95312-.82813-2.51562v-.60938q0-1.39062.51563-2.45312.53125-1.0625 1.5-1.64063.98437-.57813 2.28125-.59375zm-1.65625 4.28125q-.40625 0-.75.21875-.32813.20312-.48438.5625v.51562q0 .84376.32813 1.32813.34375.46875.95312.46875.54688 0 .875-.42188.34375-.4375.34375-1.125 0-.70312-.34375-1.125-.34375-.42187-.92187-.42187zm8.17187 4.34375h-1.6875v-6.53125l-2.01562.625v-1.375l3.53125-1.26563h.17187z" stroke="#38761d" stroke-linecap="round" stroke-linejoin="round" stroke-width="3"/><path d="m188.94125 355.5h-1.6875v-6.53125l-2.01562.625v-1.375l3.53125-1.26563h.17187zm4.60938-5.01562h.90625q.64062 0 .95312-.3125.3125-.32813.3125-.85938 0-.51562-.3125-.79688-.29687-.29687-.84375-.29687-.48437 0-.8125.26563-.32812.26562-.32812.6875h-1.6875q0-.65626.35937-1.1875.35938-.53126 1-.82813.65625-.3125 1.4375-.3125 1.34375 0 2.10938.65625.78125.64062.78125 1.78125 0 .59375-.35938 1.09375-.35937.48438-.9375.73438.71875.26562 1.0625.78124.35938.51563.35938 1.21876 0 1.14062-.82813 1.82812-.82812.6875-2.1875.6875-1.28125 0-2.09375-.67188-.8125-.6875-.8125-1.79687h1.6875q0 .48437.35938.79687.375.29688.89062.29688.60938 0 .95313-.3125.34375-.32812.34375-.85938 0-1.26562-1.40625-1.26562h-.90625zm5.4375 4.1875q0-.40626.26562-.65626.28125-.25.6875-.25.42188 0 .6875.25.28125.25.28125.65626 0 .39062-.28125.64062-.26562.25-.6875.25-.40625 0-.6875-.25-.26562-.25-.26562-.64062zm7.4375-7.79688v1.40625h-.15625q-1.15625.01563-1.85938.59375-.6875.57812-.82812 1.60938.67187-.6875 1.70312-.6875 1.125 0 1.78125.79687.65625.79687.65625 2.09375 0 .82812-.35937 1.5-.35938.67188-1.03125 1.0625-.65625.375-1.48438.375-1.34375 0-2.17187-.9375-.82813-.95312-.82813-2.51562v-.60938q0-1.39062.51563-2.45312.53125-1.0625 1.5-1.64063.98437-.57813 2.28125-.59375zm-1.65625 4.28125q-.40625 0-.75.21875-.32813.20312-.48438.5625v.51562q0 .84376.32813 1.32813.34375.46875.95312.46875.54688 0 .875-.42188.34375-.4375.34375-1.125 0-.70312-.34375-1.125-.34375-.42187-.92187-.42187zm8.17187 4.34375h-1.6875v-6.53125l-2.01562.625v-1.375l3.53125-1.26563h.17187z" fill="#fff"/><path d="m185.96114 412.5h-1.6875v-6.53125l-2.01563.625v-1.375l3.53125-1.26563h.17188zm4.60937-5.01562h.90625q.64063 0 .95313-.3125.3125-.32813.3125-.85938 0-.51562-.3125-.79688-.29688-.29687-.84375-.29687-.48438 0-.8125.26563-.32813.26562-.32813.6875h-1.6875q0-.65626.35938-1.1875.35937-.53126 1-.82813.65625-.3125 1.4375-.3125 1.34375 0 2.10937.65625.78125.64062.78125 1.78125 0 .59375-.35937 1.09375-.35938.48438-.9375.73438.71875.26562 1.0625.78124.35937.51563.35937 1.21876 0 1.14062-.82812 1.82812-.82813.6875-2.1875.6875-1.28125 0-2.09375-.67188-.8125-.6875-.8125-1.79687h1.6875q0 .48437.35937.79687.375.29688.89063.29688.60937 0 .95312-.3125.34375-.32812.34375-.85938 0-1.26562-1.40625-1.26562h-.90625zm5.4375 4.1875q0-.40626.26563-.65626.28125-.25.6875-.25.42187 0 .6875.25.28125.25.28125.65626 0 .39062-.28125.64062-.26563.25-.6875.25-.40625 0-.6875-.25-.26563-.25-.26563-.64062zm6.95313.82812h-1.6875v-6.53125l-2.01563.625v-1.375l3.53125-1.26563h.17188zm6.85937-3.40625q-.67187.64063-1.54687.64063-1.14063 0-1.82813-.76563-.67187-.78125-.67187-2.09375 0-.84375.35937-1.54688.375-.70312 1.03125-1.09374.65625-.39063 1.48438-.39063.84375 0 1.5.42187.65625.42188 1.01562 1.21876.35938.79687.375 1.8125v.625q0 2.14062-1.0625 3.35937-1.0625 1.21875-3.01562 1.29687h-.40625v-1.40624l.375-.01563q2.20312-.09375 2.39062-2.0625zm-1.14062-.65625q.42187 0 .70312-.20312.29688-.21876.45313-.51563v-.6875q0-.85937-.32813-1.32813-.32812-.48437-.875-.48437-.51562 0-.84375.46875-.32812.45312-.32812 1.15625 0 .70313.3125 1.15625.32812.4375.90625.4375z" stroke="#38761d" stroke-linecap="round" stroke-linejoin="round" stroke-width="3"/><path d="m185.96114 412.5h-1.6875v-6.53125l-2.01563.625v-1.375l3.53125-1.26563h.17188zm4.60937-5.01562h.90625q.64063 0 .95313-.3125.3125-.32813.3125-.85938 0-.51562-.3125-.79688-.29688-.29687-.84375-.29687-.48438 0-.8125.26563-.32813.26562-.32813.6875h-1.6875q0-.65626.35938-1.1875.35937-.53126 1-.82813.65625-.3125 1.4375-.3125 1.34375 0 2.10937.65625.78125.64062.78125 1.78125 0 .59375-.35937 1.09375-.35938.48438-.9375.73438.71875.26562 1.0625.78124.35937.51563.35937 1.21876 0 1.14062-.82812 1.82812-.82813.6875-2.1875.6875-1.28125 0-2.09375-.67188-.8125-.6875-.8125-1.79687h1.6875q0 .48437.35937.79687.375.29688.89063.29688.60937 0 .95312-.3125.34375-.32812.34375-.85938 0-1.26562-1.40625-1.26562h-.90625zm5.4375 4.1875q0-.40626.26563-.65626.28125-.25.6875-.25.42187 0 .6875.25.28125.25.28125.65626 0 .39062-.28125.64062-.26563.25-.6875.25-.40625 0-.6875-.25-.26563-.25-.26563-.64062zm6.95313.82812h-1.6875v-6.53125l-2.01563.625v-1.375l3.53125-1.26563h.17188zm6.85937-3.40625q-.67187.64063-1.54687.64063-1.14063 0-1.82813-.76563-.67187-.78125-.67187-2.09375 0-.84375.35937-1.54688.375-.70312 1.03125-1.09374.65625-.39063 1.48438-.39063.84375 0 1.5.42187.65625.42188 1.01562 1.21876.35938.79687.375 1.8125v.625q0 2.14062-1.0625 3.35937-1.0625 1.21875-3.01562 1.29687h-.40625v-1.40624l.375-.01563q2.20312-.09375 2.39062-2.0625zm-1.14062-.65625q.42187 0 .70312-.20312.29688-.21876.45313-.51563v-.6875q0-.85937-.32813-1.32813-.32812-.48437-.875-.48437-.51562 0-.84375.46875-.32812.45312-.32812 1.15625 0 .70313.3125 1.15625.32812.4375.90625.4375z" fill="#fff"/><path d="m159.40637 462.23438q0 .625-.3125 1.10937-.3125.46875-.85937.76563.625.29687.98437.82812.375.51562.375 1.21875 0 1.14063-.78125 1.8125-.76562.65625-2.10937.65625-1.32813 0-2.10938-.65625-.76562-.67187-.76562-1.8125 0-.70313.35937-1.23437.35938-.53126.98438-.8125-.54688-.29688-.85938-.76563-.3125-.48437-.3125-1.10937 0-1.09376.71875-1.73438.73438-.65625 1.98438-.65625 1.25 0 1.96875.65625.73437.64062.73437 1.73438zm-1.51562 3.79687q0-.54687-.32813-.875-.3125-.34375-.85937-.34375-.54688 0-.875.32812-.3125.32813-.3125.89063 0 .54687.3125.89063.32812.32812.89062.32812.54688 0 .85938-.3125.3125-.32812.3125-.90625zm-.17188-3.71875q0-.5-.26562-.79688-.26563-.29687-.75-.29687-.46875 0-.73438.29687-.26562.28126-.26562.79688 0 .51562.26562.82812.26563.3125.73438.3125.48437 0 .75-.3125.26562-.3125.26562-.82812zm3.28125 5.35938q0-.40626.26563-.65626.28125-.25.6875-.25.42187 0 .6875.25.28125.25.28125.65626 0 .39062-.28125.64062-.26563.25-.6875.25-.40625 0-.6875-.25-.26563-.25-.26563-.64062zm8.6875.82812h-5.84375v-1.15625l2.76563-2.95313q.5625-.60937.82812-1.07812.28125-.46875.28125-.875 0-.57812-.29687-.89062-.28125-.32813-.8125-.32813-.57813 0-.90625.39063-.32813.39062-.32813 1.04687h-1.70312q0-.78125.375-1.42187.375-.65626 1.04687-1.01563.6875-.375 1.54688-.375 1.3125 0 2.04687.64063.73438.625.73438 1.78124 0 .64063-.32813 1.29688-.32812.65625-1.125 1.53125l-1.9375 2.04687h3.65625zm6.71875-6.26562q0 .625-.3125 1.10937-.3125.46875-.85937.76563.625.29687.98437.82812.375.51562.375 1.21875 0 1.14063-.78125 1.8125-.76562.65625-2.10937.65625-1.32813 0-2.10938-.65625-.76562-.67187-.76562-1.8125 0-.70313.35937-1.23437.35938-.53126.98438-.8125-.54688-.29688-.85938-.76563-.3125-.48437-.3125-1.10937 0-1.09376.71875-1.73438.73438-.65625 1.98438-.65625 1.25 0 1.96875.65625.73437.64062.73437 1.73438zm-1.51562 3.79687q0-.54687-.32813-.875-.3125-.34375-.85937-.34375-.54688 0-.875.32812-.3125.32813-.3125.89063 0 .54687.3125.89063.32812.32812.89062.32812.54688 0 .85938-.3125.3125-.32812.3125-.90625zm-.17188-3.71875q0-.5-.26562-.79688-.26563-.29687-.75-.29687-.46875 0-.73438.29687-.26562.28126-.26562.79688 0 .51562.26562.82812.26563.3125.73438.3125.48437 0 .75-.3125.26562-.3125.26562-.82812z" stroke="#38761d" stroke-linecap="round" stroke-linejoin="round" stroke-width="3"/><path d="m159.40637 462.23438q0 .625-.3125 1.10937-.3125.46875-.85937.76563.625.29687.98437.82812.375.51562.375 1.21875 0 1.14063-.78125 1.8125-.76562.65625-2.10937.65625-1.32813 0-2.10938-.65625-.76562-.67187-.76562-1.8125 0-.70313.35937-1.23437.35938-.53126.98438-.8125-.54688-.29688-.85938-.76563-.3125-.48437-.3125-1.10937 0-1.09376.71875-1.73438.73438-.65625 1.98438-.65625 1.25 0 1.96875.65625.73437.64062.73437 1.73438zm-1.51562 3.79687q0-.54687-.32813-.875-.3125-.34375-.85937-.34375-.54688 0-.875.32812-.3125.32813-.3125.89063 0 .54687.3125.89063.32812.32812.89062.32812.54688 0 .85938-.3125.3125-.32812.3125-.90625zm-.17188-3.71875q0-.5-.26562-.79688-.26563-.29687-.75-.29687-.46875 0-.73438.29687-.26562.28126-.26562.79688 0 .51562.26562.82812.26563.3125.73438.3125.48437 0 .75-.3125.26562-.3125.26562-.82812zm3.28125 5.35938q0-.40626.26563-.65626.28125-.25.6875-.25.42187 0 .6875.25.28125.25.28125.65626 0 .39062-.28125.64062-.26563.25-.6875.25-.40625 0-.6875-.25-.26563-.25-.26563-.64062zm8.6875.82812h-5.84375v-1.15625l2.76563-2.95313q.5625-.60937.82812-1.07812.28125-.46875.28125-.875 0-.57812-.29687-.89062-.28125-.32813-.8125-.32813-.57813 0-.90625.39063-.32813.39062-.32813 1.04687h-1.70312q0-.78125.375-1.42187.375-.65626 1.04687-1.01563.6875-.375 1.54688-.375 1.3125 0 2.04687.64063.73438.625.73438 1.78124 0 .64063-.32813 1.29688-.32812.65625-1.125 1.53125l-1.9375 2.04687h3.65625zm6.71875-6.26562q0 .625-.3125 1.10937-.3125.46875-.85937.76563.625.29687.98437.82812.375.51562.375 1.21875 0 1.14063-.78125 1.8125-.76562.65625-2.10937.65625-1.32813 0-2.10938-.65625-.76562-.67187-.76562-1.8125 0-.70313.35937-1.23437.35938-.53126.98438-.8125-.54688-.29688-.85938-.76563-.3125-.48437-.3125-1.10937 0-1.09376.71875-1.73438.73438-.65625 1.98438-.65625 1.25 0 1.96875.65625.73437.64062.73437 1.73438zm-1.51562 3.79687q0-.54687-.32813-.875-.3125-.34375-.85937-.34375-.54688 0-.875.32812-.3125.32813-.3125.89063 0 .54687.3125.89063.32812.32812.89062.32812.54688 0 .85938-.3125.3125-.32812.3125-.90625zm-.17188-3.71875q0-.5-.26562-.79688-.26563-.29687-.75-.29687-.46875 0-.73438.29687-.26562.28126-.26562.79688 0 .51562.26562.82812.26563.3125.73438.3125.48437 0 .75-.3125.26562-.3125.26562-.82812z" fill="#fff"/><path d="m150.53076 517.9219-3.29687 7.5781h-1.78125l3.29687-7.15625h-4.23437v-1.375h6.01562zm1.35938 6.75q0-.4063.26562-.6563.28125-.25.6875-.25.42188 0 .6875.25.28125.25.28125.6563 0 .3906-.28125.6406-.26562.25-.6875.25-.40625 0-.6875-.25-.26562-.25-.26562-.6406zm8.59375-2.70315q0 1.76565-.73438 2.71875-.73437.9375-2.14062.9375-1.40625 0-2.14063-.9219-.73437-.92185-.75-2.6406v-1.5781q0-1.7813.73438-2.70315.75-.9375 2.14062-.9375 1.39063 0 2.125.92185.75.9219.76563 2.64065zm-1.70313-1.71875q0-1.0625-.29687-1.5469-.28125-.48435-.89063-.48435-.59375 0-.89062.46875-.28125.4531-.29688 1.4375v2.0625q0 1.0469.28125 1.5625.28125.5.92188.5.60937 0 .89062-.4844.28125-.48435.28125-1.48435zm8.70313 1.71875q0 1.76565-.73438 2.71875-.73437.9375-2.14062.9375-1.40625 0-2.14063-.9219-.73437-.92185-.75-2.6406v-1.5781q0-1.7813.73438-2.70315.75-.9375 2.14062-.9375 1.39063 0 2.125.92185.75.9219.76563 2.64065zm-1.70313-1.71875q0-1.0625-.29687-1.5469-.28125-.48435-.89063-.48435-.59375 0-.89062.46875-.28125.4531-.29688 1.4375v2.0625q0 1.0469.28125 1.5625.28125.5.92188.5.60937 0 .89062-.4844.28125-.48435.28125-1.48435z" stroke="#38761d" stroke-linecap="round" stroke-linejoin="round" stroke-width="3"/><path d="m150.53076 517.9219-3.29687 7.5781h-1.78125l3.29687-7.15625h-4.23437v-1.375h6.01562zm1.35938 6.75q0-.4063.26562-.6563.28125-.25.6875-.25.42188 0 .6875.25.28125.25.28125.6563 0 .3906-.28125.6406-.26562.25-.6875.25-.40625 0-.6875-.25-.26562-.25-.26562-.6406zm8.59375-2.70315q0 1.76565-.73438 2.71875-.73437.9375-2.14062.9375-1.40625 0-2.14063-.9219-.73437-.92185-.75-2.6406v-1.5781q0-1.7813.73438-2.70315.75-.9375 2.14062-.9375 1.39063 0 2.125.92185.75.9219.76563 2.64065zm-1.70313-1.71875q0-1.0625-.29687-1.5469-.28125-.48435-.89063-.48435-.59375 0-.89062.46875-.28125.4531-.29688 1.4375v2.0625q0 1.0469.28125 1.5625.28125.5.92188.5.60937 0 .89062-.4844.28125-.48435.28125-1.48435zm8.70313 1.71875q0 1.76565-.73438 2.71875-.73437.9375-2.14062.9375-1.40625 0-2.14063-.9219-.73437-.92185-.75-2.6406v-1.5781q0-1.7813.73438-2.70315.75-.9375 2.14062-.9375 1.39063 0 2.125.92185.75.9219.76563 2.64065zm-1.70313-1.71875q0-1.0625-.29687-1.5469-.28125-.48435-.89063-.48435-.59375 0-.89062.46875-.28125.4531-.29688 1.4375v2.0625q0 1.0469.28125 1.5625.28125.5.92188.5.60937 0 .89062-.4844.28125-.48435.28125-1.48435z" fill="#fff"/><path d="m145.21062 573.875v1.40625h-.15625q-1.15625.01565-1.85938.59375-.6875.5781-.82812 1.6094.67187-.6875 1.70312-.6875 1.125 0 1.78125.79685.65625.79685.65625 2.09375 0 .8281-.35937 1.5-.35938.6719-1.03125 1.0625-.65625.375-1.48438.375-1.34375 0-2.17187-.9375-.82813-.9531-.82813-2.5156v-.6094q0-1.3906.51563-2.4531.53125-1.0625 1.5-1.64065.98437-.57815 2.28125-.59375zm-1.65625 4.28125q-.40625 0-.75.21875-.32813.2031-.48438.5625v.5156q0 .8438.32813 1.32815.34375.46875.95312.46875.54688 0 .875-.4219.34375-.4375.34375-1.125 0-.7031-.34375-1.125-.34375-.42185-.92187-.42185zm4.21875 3.51565q0-.4063.26562-.6563.28125-.25.6875-.25.42188 0 .6875.25.28125.25.28125.6563 0 .3906-.28125.6406-.26562.25-.6875.25-.40625 0-.6875-.25-.26562-.25-.26562-.6406zm7.85937-2.39065h.96875v1.375h-.96875v1.84375h-1.70312v-1.84375h-3.48438l-.07812-1.0625 3.54687-5.625h1.71875zm-3.57812 0h1.875v-3l-.10938.1875zm7.28125-1.79685h.90625q.64062 0 .95312-.3125.3125-.32815.3125-.8594 0-.5156-.3125-.7969-.29687-.29685-.84375-.29685-.48437 0-.8125.26565-.32812.2656-.32812.6875h-1.6875q0-.6563.35937-1.1875.35938-.5313 1-.82815.65625-.3125 1.4375-.3125 1.34375 0 2.10938.65625.78125.6406.78125 1.78125 0 .59375-.35938 1.09375-.35937.4844-.9375.7344.71875.2656 1.0625.7812.35938.51565.35938 1.2188 0 1.1406-.82813 1.8281-.82812.6875-2.1875.6875-1.28125 0-2.09375-.6719-.8125-.6875-.8125-1.79685h1.6875q0 .48435.35938.79685.375.2969.89062.2969.60938 0 .95313-.3125.34375-.3281.34375-.8594 0-1.2656-1.40625-1.2656h-.90625z" stroke="#38761d" stroke-linecap="round" stroke-linejoin="round" stroke-width="3"/><path d="m145.21062 573.875v1.40625h-.15625q-1.15625.01565-1.85938.59375-.6875.5781-.82812 1.6094.67187-.6875 1.70312-.6875 1.125 0 1.78125.79685.65625.79685.65625 2.09375 0 .8281-.35937 1.5-.35938.6719-1.03125 1.0625-.65625.375-1.48438.375-1.34375 0-2.17187-.9375-.82813-.9531-.82813-2.5156v-.6094q0-1.3906.51563-2.4531.53125-1.0625 1.5-1.64065.98437-.57815 2.28125-.59375zm-1.65625 4.28125q-.40625 0-.75.21875-.32813.2031-.48438.5625v.5156q0 .8438.32813 1.32815.34375.46875.95312.46875.54688 0 .875-.4219.34375-.4375.34375-1.125 0-.7031-.34375-1.125-.34375-.42185-.92187-.42185zm4.21875 3.51565q0-.4063.26562-.6563.28125-.25.6875-.25.42188 0 .6875.25.28125.25.28125.6563 0 .3906-.28125.6406-.26562.25-.6875.25-.40625 0-.6875-.25-.26562-.25-.26562-.6406zm7.85937-2.39065h.96875v1.375h-.96875v1.84375h-1.70312v-1.84375h-3.48438l-.07812-1.0625 3.54687-5.625h1.71875zm-3.57812 0h1.875v-3l-.10938.1875zm7.28125-1.79685h.90625q.64062 0 .95312-.3125.3125-.32815.3125-.8594 0-.5156-.3125-.7969-.29687-.29685-.84375-.29685-.48437 0-.8125.26565-.32812.2656-.32812.6875h-1.6875q0-.6563.35937-1.1875.35938-.5313 1-.82815.65625-.3125 1.4375-.3125 1.34375 0 2.10938.65625.78125.6406.78125 1.78125 0 .59375-.35938 1.09375-.35937.4844-.9375.7344.71875.2656 1.0625.7812.35938.51565.35938 1.2188 0 1.1406-.82813 1.8281-.82812.6875-2.1875.6875-1.28125 0-2.09375-.6719-.8125-.6875-.8125-1.79685h1.6875q0 .48435.35938.79685.375.2969.89062.2969.60938 0 .95313-.3125.34375-.3281.34375-.8594 0-1.2656-1.40625-1.2656h-.90625z" fill="#fff"/><path d="m306.7034 639.5h-5.84375v-1.15625l2.76562-2.95315q.5625-.60935.82813-1.0781.28125-.46875.28125-.875 0-.5781-.29688-.8906-.28125-.32815-.8125-.32815-.57812 0-.90625.39065-.32812.3906-.32812 1.04685h-1.70313q0-.78125.375-1.42185.375-.6563 1.04688-1.01565.6875-.375 1.54687-.375 1.3125 0 2.04688.64065.73437.625.73437 1.7812 0 .64065-.32812 1.2969-.32813.65625-1.125 1.53125l-1.9375 2.04685h3.65625zm5.125-3.40625q-.67188.64065-1.54688.64065-1.14062 0-1.82812-.76565-.67188-.78125-.67188-2.09375 0-.84375.35938-1.5469.375-.7031 1.03125-1.0937.65625-.39065 1.48437-.39065.84375 0 1.5.42185.65625.4219 1.01563 1.2188.35937.79685.375 1.8125v.625q0 2.1406-1.0625 3.35935-1.0625 1.21875-3.01563 1.29685h-.40625v-1.4062l.375-.01565q2.20313-.09375 2.39063-2.0625zm-1.14063-.65625q.42188 0 .70313-.2031.29687-.2188.45312-.51565v-.6875q0-.85935-.32812-1.32815-.32813-.48435-.875-.48435-.51563 0-.84375.46875-.32813.4531-.32813 1.15625 0 .70315.3125 1.15625.32813.4375.90625.4375zm4.32813 3.2344q0-.4063.26562-.6563.28125-.25.6875-.25.42188 0 .6875.25.28125.25.28125.6563 0 .3906-.28125.6406-.26562.25-.6875.25-.40625 0-.6875-.25-.26562-.25-.26562-.6406zm8.40625-5.4375q0 .625-.3125 1.10935-.3125.46875-.85938.76565.625.29685.98438.8281.375.5156.375 1.21875 0 1.14065-.78125 1.8125-.76563.65625-2.10938.65625-1.32812 0-2.10937-.65625-.76563-.67185-.76563-1.8125 0-.70315.35938-1.23435.35937-.5313.98437-.8125-.54687-.2969-.85937-.76565-.3125-.48435-.3125-1.10935 0-1.0938.71875-1.7344.73437-.65625 1.98437-.65625 1.25 0 1.96875.65625.73438.6406.73438 1.7344zm-1.51563 3.79685q0-.54685-.32812-.875-.3125-.34375-.85938-.34375-.54687 0-.875.3281-.3125.32815-.3125.89065 0 .54685.3125.89065.32813.3281.89063.3281.54687 0 .85937-.3125.3125-.3281.3125-.90625zm-.17187-3.71875q0-.5-.26563-.7969-.26562-.29685-.75-.29685-.46875 0-.73437.29685-.26563.2813-.26563.7969 0 .5156.26563.8281.26562.3125.73437.3125.48438 0 .75-.3125.26563-.3125.26563-.8281zm8.92187-1.3906-3.29687 7.5781h-1.78125l3.29687-7.15625h-4.23437v-1.375h6.01562z" stroke="#38761d" stroke-linecap="round" stroke-linejoin="round" stroke-width="3"/><path d="m306.7034 639.5h-5.84375v-1.15625l2.76562-2.95315q.5625-.60935.82813-1.0781.28125-.46875.28125-.875 0-.5781-.29688-.8906-.28125-.32815-.8125-.32815-.57812 0-.90625.39065-.32812.3906-.32812 1.04685h-1.70313q0-.78125.375-1.42185.375-.6563 1.04688-1.01565.6875-.375 1.54687-.375 1.3125 0 2.04688.64065.73437.625.73437 1.7812 0 .64065-.32812 1.2969-.32813.65625-1.125 1.53125l-1.9375 2.04685h3.65625zm5.125-3.40625q-.67188.64065-1.54688.64065-1.14062 0-1.82812-.76565-.67188-.78125-.67188-2.09375 0-.84375.35938-1.5469.375-.7031 1.03125-1.0937.65625-.39065 1.48437-.39065.84375 0 1.5.42185.65625.4219 1.01563 1.2188.35937.79685.375 1.8125v.625q0 2.1406-1.0625 3.35935-1.0625 1.21875-3.01563 1.29685h-.40625v-1.4062l.375-.01565q2.20313-.09375 2.39063-2.0625zm-1.14063-.65625q.42188 0 .70313-.2031.29687-.2188.45312-.51565v-.6875q0-.85935-.32812-1.32815-.32813-.48435-.875-.48435-.51563 0-.84375.46875-.32813.4531-.32813 1.15625 0 .70315.3125 1.15625.32813.4375.90625.4375zm4.32813 3.2344q0-.4063.26562-.6563.28125-.25.6875-.25.42188 0 .6875.25.28125.25.28125.6563 0 .3906-.28125.6406-.26562.25-.6875.25-.40625 0-.6875-.25-.26562-.25-.26562-.6406zm8.40625-5.4375q0 .625-.3125 1.10935-.3125.46875-.85938.76565.625.29685.98438.8281.375.5156.375 1.21875 0 1.14065-.78125 1.8125-.76563.65625-2.10938.65625-1.32812 0-2.10937-.65625-.76563-.67185-.76563-1.8125 0-.70315.35938-1.23435.35937-.5313.98437-.8125-.54687-.2969-.85937-.76565-.3125-.48435-.3125-1.10935 0-1.0938.71875-1.7344.73437-.65625 1.98437-.65625 1.25 0 1.96875.65625.73438.6406.73438 1.7344zm-1.51563 3.79685q0-.54685-.32812-.875-.3125-.34375-.85938-.34375-.54687 0-.875.3281-.3125.32815-.3125.89065 0 .54685.3125.89065.32813.3281.89063.3281.54687 0 .85937-.3125.3125-.3281.3125-.90625zm-.17187-3.71875q0-.5-.26563-.7969-.26562-.29685-.75-.29685-.46875 0-.73437.29685-.26563.2813-.26563.7969 0 .5156.26563.8281.26562.3125.73437.3125.48438 0 .75-.3125.26563-.3125.26563-.8281zm8.92187-1.3906-3.29687 7.5781h-1.78125l3.29687-7.15625h-4.23437v-1.375h6.01562z" fill="#fff"/><g fill="#000"><path d="m78.5 68.002686q-1.4375-.421876-2.109375-1.03125-.65625-.609376-.65625-1.5 0-1 .796875-1.65625.8125-.671876 2.109375-.671876.875 0 1.5625.34375.6875.34375 1.0625.9375.390625.59375.390625 1.3125h-1.140625q0-.78125-.5-1.21875-.484375-.4375-1.375-.4375-.828125 0-1.296875.375-.46875.359376-.46875 1 0 .53125.4375.890626.453125.359374 1.515625.65625 1.0625.296874 1.65625.65625.609375.359374.890625.84375.296875.484374.296875 1.125 0 1.046874-.8125 1.671874-.8125.625-2.15625.625-.890625 0-1.65625-.34375-.75-.34375-1.171875-.921874-.40625-.59375-.40625-1.328126h1.125q0 .765626.578125 1.21875.578125.453126 1.53125.453126.890625 0 1.359375-.359376.46875-.375.46875-1 0-.625-.4375-.96875-.4375-.34375-1.59375-.671874zm9.9375 2.296874 1.21875-4.84375h1.078125l-1.84375 6.34375h-.875l-1.546875-4.8125-1.5 4.8125h-.875l-1.84375-6.34375h1.078125l1.25 4.75 1.484375-4.75h.859375zm6.015625 1.625q-1.296875 0-2.109375-.84375-.796875-.859374-.796875-2.28125v-.1875q0-.953124.359375-1.6875.359375-.75 1-1.15625.65625-.421874 1.40625-.421874 1.234375 0 1.921875.8125.6875.8125.6875 2.328124v.453126h-4.296875q.03125.9375.546875 1.515624.53125.578126 1.34375.578126.5625 0 .953125-.234376.40625-.234374.71875-.625l.65625.515626q-.796875 1.234374-2.390625 1.234374zm-.140625-5.6875q-.65625 0-1.109375.484376-.4375.46875-.53125 1.328124h3.171875v-.078124q-.046875-.828126-.453125-1.28125-.390625-.453126-1.078125-.453126zm3.25 2.34375q0-1.46875.6875-2.34375.6875-.890624 1.8125-.890624 1.109375 0 1.765625.75v-3.296876h1.078125v9h-1l-.046875-.6875q-.65625.8125-1.8125.8125-1.09375 0-1.796875-.90625-.6875-.90625-.6875-2.359374zm1.078125.125q0 1.078126.4375 1.6875.453125.609376 1.234375.609376 1.03125 0 1.515625-.9375v-2.90625q-.484375-.890626-1.5-.890626-.796875 0-1.25.609376-.4375.609374-.4375 1.828124zm8.8125 3.21875q-1.296875 0-2.109375-.84375-.796875-.859374-.796875-2.28125v-.1875q0-.953124.359375-1.6875.359375-.75 1-1.15625.65625-.421874 1.40625-.421874 1.234375 0 1.921875.8125.6875.8125.6875 2.328124v.453126h-4.296875q.03125.9375.546875 1.515624.53125.578126 1.34375.578126.5625 0 .953125-.234376.40625-.234374.71875-.625l.65625.515626q-.796875 1.234374-2.390625 1.234374zm-.140625-5.6875q-.65625 0-1.109375.484376-.4375.46875-.53125 1.328124h3.171875v-.078124q-.046875-.828126-.453125-1.28125-.390625-.453126-1.078125-.453126zm4.53125-.78125.03125.796876q.734375-.90625 1.90625-.90625 2.015625 0 2.03125 2.265624v4.1875h-1.09375v-4.203124q0-.671876-.3125-1-.296875-.328126-.953125-.328126-.53125 0-.9375.28125-.390625.28125-.609375.734376v4.515624h-1.078125v-6.34375z"/><path d="m75.296875 127.41464q-.4375.625-1.21875.9375-.78125.3125-1.8125.3125-1.03125 0-1.84375-.48437-.8125-.5-1.25-1.40625-.4375-.90625-.453125-2.09375v-.73438q0-1.9375.890625-3 .90625-1.0625 2.53125-1.0625 1.34375 0 2.15625.6875.8125.6875 1 1.9375h-1.125q-.328125-1.6875-2.015625-1.6875-1.140625 0-1.71875.79688-.578125.78125-.59375 2.29687v.6875q0 1.4375.65625 2.29688.65625.84375 1.78125.84375.625 0 1.09375-.14063.484375-.14062.796875-.48437v-1.90625h-1.96875v-.92188h3.09375zm4.15625 1.25q-1.296875 0-2.109375-.84375-.796875-.85937-.796875-2.28125v-.1875q0-.95312.359375-1.6875.359375-.75 1-1.15625.65625-.42187 1.40625-.42187 1.234375 0 1.921875.8125.6875.8125.6875 2.32812v.45313h-4.296875q.03125.9375.546875 1.51562.53125.57813 1.34375.57813.5625 0 .953125-.23438.40625-.23437.71875-.625l.65625.51563q-.796875 1.23437-2.390625 1.23437zm-.140625-5.6875q-.65625 0-1.109375.48438-.4375.46875-.53125 1.32812h3.171875v-.07812q-.046875-.82813-.453125-1.28125-.390625-.45313-1.078125-.45313zm6.578125.1875q-.25-.03125-.53125-.03125-1.078125 0-1.453125.90625v4.5h-1.078125v-6.34375h1.046875l.015625.73438q.53125-.84375 1.515625-.84375.3125 0 .484375.07812zm1.953125-.96875.03125.70313q.6875-.8125 1.875-.8125 1.328125 0 1.8125 1.01562.3125-.45312.8125-.73437.515625-.28125 1.203125-.28125 2.09375 0 2.125 2.20312v4.25h-1.078125v-4.1875q0-.67187-.3125-1-.3125-.34375-1.046875-.34375-.609375 0-1.015625.35938-.390625.35937-.453125.96875v4.20312h-1.078125v-4.15625q0-1.375-1.359375-1.375-1.0625 0-1.453125.90625v4.625h-1.09375v-6.34375zm13.890625 6.34375q-.09375-.1875-.15625-.67187-.75.79687-1.796875.79687-.9375 0-1.546875-.53125-.59375-.53125-.59375-1.35937 0-.98438.75-1.53125.75-.54688 2.125-.54688h1.046875v-.5q0-.5625-.34375-.89062-.328125-.34375-1-.34375-.578125 0-.96875.29687-.390625.28125-.390625.70313h-1.09375q0-.48438.328125-.92188.34375-.4375.921875-.6875.578125-.26562 1.265625-.26562 1.109375 0 1.71875.54687.625.54688.65625 1.5v2.92188q0 .875.21875 1.39062v.09375zm-1.796875-.82812q.515625 0 .96875-.26563.453125-.26562.65625-.6875v-1.29687h-.84375q-2 0-2 1.17187 0 .5.34375.79688.34375.28125.875.28125zm5.90625-5.51563.03125.79688q.734375-.90625 1.90625-.90625 2.015625 0 2.03125 2.26562v4.1875h-1.09375v-4.20312q0-.67188-.3125-1-.296875-.32813-.953125-.32813-.53125 0-.9375.28125-.390625.28125-.609375.73438v4.51562h-1.078125v-6.34375zm8.046875 4.75 1.484375-4.75h1.15625l-2.546875 7.32813q-.59375 1.57812-1.875 1.57812l-.21875-.01562-.390625-.07813v-.875l.28125.01563q.5625 0 .859375-.21875.3125-.21875.515625-.8125l.234375-.65625-2.265625-6.26563h1.1875z"/><path d="m68.984375 185.27974v-8.53125h2.421875q1.109375 0 1.953125.5.859375.48437 1.328125 1.39062.46875.90625.46875 2.09375v.53125q0 1.21875-.46875 2.125-.453125.90625-1.328125 1.39063-.859375.48437-2 .5zm1.125-7.60938v6.6875h1.1875q1.296875 0 2.015625-.79687.734375-.8125.734375-2.3125v-.5q0-1.45313-.6875-2.25-.671875-.8125-1.9375-.82813zm9.34375 7.73438q-1.296875 0-2.109375-.84375-.796875-.85938-.796875-2.28125v-.1875q0-.95313.359375-1.6875.359375-.75 1-1.15625.65625-.42188 1.40625-.42188 1.234375 0 1.921875.8125.6875.8125.6875 2.32813v.45312h-4.296875q.03125.9375.546875 1.51563.53125.57812 1.34375.57812.5625 0 .953125-.23437.40625-.23438.71875-.625l.65625.51562q-.796875 1.23438-2.390625 1.23438zm-.140625-5.6875q-.65625 0-1.109375.48437-.4375.46875-.53125 1.32813h3.171875v-.07813q-.046875-.82812-.453125-1.28125-.390625-.45312-1.078125-.45312zm4.53125-.78125.03125.79687q.734375-.90625 1.90625-.90625 2.015625 0 2.03125 2.26563v4.1875h-1.09375v-4.20313q0-.67187-.3125-1-.296875-.32812-.953125-.32812-.53125 0-.9375.28125-.390625.28125-.609375.73437v4.51563h-1.078125v-6.34375zm7 0 .03125.70312q.6875-.8125 1.875-.8125 1.328125 0 1.8125 1.01563.3125-.45313.8125-.73438.515625-.28125 1.203125-.28125 2.09375 0 2.125 2.20313v4.25h-1.078125v-4.1875q0-.67188-.3125-1-.3125-.34375-1.046875-.34375-.609375 0-1.015625.35937-.390625.35938-.453125.96875v4.20313h-1.078125v-4.15625q0-1.375-1.359375-1.375-1.0625 0-1.453125.90625v4.625h-1.09375v-6.34375zm13.890625 6.34375q-.09375-.1875-.15625-.67188-.75.79688-1.796875.79688-.9375 0-1.546875-.53125-.59375-.53125-.59375-1.35938 0-.98437.75-1.53125.75-.54687 2.125-.54687h1.046875v-.5q0-.5625-.34375-.89063-.328125-.34375-1-.34375-.578125 0-.96875.29688-.390625.28125-.390625.70312h-1.09375q0-.48437.328125-.92187.34375-.4375.921875-.6875.578125-.26563 1.265625-.26563 1.109375 0 1.71875.54688.625.54687.65625 1.5v2.92187q0 .875.21875 1.39063v.09375zm-1.796875-.82813q.515625 0 .96875-.26562.453125-.26563.65625-.6875v-1.29688h-.84375q-2 0-2 1.17188 0 .5.34375.79687.34375.28125.875.28125zm7.953125-4.54687q-.25-.03125-.53125-.03125-1.078125 0-1.453125.90625v4.5h-1.078125v-6.34375h1.046875l.015625.73437q.53125-.84375 1.515625-.84375.3125 0 .484375.07813zm2.703125 2.4375-.6875.70312v2.23438h-1.078125v-9h1.078125v5.4375l.578125-.6875 1.984375-2.09375h1.3125l-2.46875 2.65625 2.765625 3.6875h-1.28125z"/><path d="m81.8125 238.08232h-3.703125v3.01563h4.296875v.92187h-5.421875v-8.53125h5.375v.92188h-4.25v2.75h3.703125zm5.703125 2.25q0-.4375-.34375-.67187-.328125-.25-1.15625-.42188-.8125-.17187-1.296875-.42187-.484375-.25-.71875-.57813-.21875-.34375-.21875-.8125 0-.78125.65625-1.3125.65625-.54687 1.6875-.54687 1.078125 0 1.734375.5625.671875.54687.671875 1.40625h-1.078125q0-.4375-.390625-.75-.375-.32813-.9375-.32813-.59375 0-.9375.26563-.328125.25-.328125.65625 0 .39062.3125.59375.3125.20312 1.125.39062.8125.17188 1.3125.42188.5.25.734375.60937.25.35938.25.85938 0 .85937-.6875 1.375-.671875.51562-1.75.51562-.765625 0-1.359375-.26562-.578125-.28125-.90625-.76563-.328125-.48437-.328125-1.04687h1.078125q.03125.54687.4375.875.40625.3125 1.078125.3125.609375 0 .984375-.25.375-.25.375-.67188zm3.78125-6.1875v1.53125h1.171875v.84375h-1.171875v3.92188q0 .39062.15625.57812.15625.1875.53125.1875.1875 0 .515625-.0625v.875q-.421875.125-.828125.125-.71875 0-1.09375-.4375-.375-.45312-.375-1.26562v-3.92188h-1.15625v-.84375h1.15625v-1.53125zm2.234375 4.64063q0-.92188.359375-1.67188.375-.75 1.03125-1.14062.65625-.40625 1.484375-.40625 1.296875 0 2.09375.89062.8125.89063.8125 2.39063v.07812q0 .92188-.359375 1.65625-.359375.73438-1.015625 1.15625-.65625.40625-1.515625.40625-1.28125 0-2.09375-.89062-.796875-.90625-.796875-2.39063zm1.09375.14062q0 1.04688.484375 1.6875.5.64063 1.3125.64063.828125 0 1.3125-.64063.484375-.65625.484375-1.82812 0-1.03125-.5-1.67188-.484375-.65625-1.3125-.65625-.796875 0-1.296875.64063-.484375.625-.484375 1.82812zm7.21875-3.25.03125.79688q.734375-.90625 1.90625-.90625 2.015625 0 2.03125 2.26562v4.1875h-1.09375v-4.20312q0-.67188-.3125-1-.296875-.32813-.953125-.32813-.53125 0-.9375.28125-.390625.28125-.609375.73438v4.51562h-1.078125v-6.34375zm7.15625 6.34375h-1.078125v-6.34375h1.078125zm-1.171875-8.01562q0-.26563.15625-.45313.171875-.1875.484375-.1875.3125 0 .46875.1875.171875.1875.171875.45313 0 .25-.171875.4375-.15625.17187-.46875.17187-.3125 0-.484375-.17187-.15625-.1875-.15625-.4375zm6.90625 8.01562q-.09375-.1875-.15625-.67187-.75.79687-1.796875.79687-.9375 0-1.546875-.53125-.59375-.53125-.59375-1.35937 0-.98438.75-1.53125.75-.54688 2.125-.54688h1.046875v-.5q0-.5625-.34375-.89062-.328125-.34375-1-.34375-.578125 0-.96875.29687-.390625.28125-.390625.70313h-1.09375q0-.48438.328125-.92188.34375-.4375.921875-.6875.578125-.26562 1.265625-.26562 1.109375 0 1.71875.54687.625.54688.65625 1.5v2.92188q0 .875.21875 1.39062v.09375zm-1.796875-.82812q.515625 0 .96875-.26563.453125-.26562.65625-.6875v-1.29687h-.84375q-2 0-2 1.17187 0 .5.34375.79688.34375.28125.875.28125z"/><path d="m68.125 297.83804h4.046875v.92188h-5.1875v-8.53125h1.140625zm5.875.92188h-1.078125v-6.34375h1.078125zm-1.171875-8.01562q0-.26563.15625-.45313.171875-.1875.484375-.1875.3125 0 .46875.1875.171875.1875.171875.45313 0 .25-.171875.4375-.15625.17187-.46875.17187-.3125 0-.484375-.17187-.15625-.1875-.15625-.4375zm4.46875.14062v1.53125h1.171875v.84375h-1.171875v3.92188q0 .39062.15625.57812.15625.1875.53125.1875.1875 0 .515625-.0625v.875q-.421875.125-.828125.125-.71875 0-1.09375-.4375-.375-.45312-.375-1.26562v-3.92188h-1.15625v-.84375h1.15625v-1.53125zm3.609375 2.29688q.71875-.875 1.875-.875 2.015625 0 2.03125 2.26562v4.1875h-1.09375v-4.20312q0-.67188-.3125-1-.296875-.32813-.953125-.32813-.53125 0-.9375.28125-.390625.28125-.609375.73438v4.51562h-1.078125v-9h1.078125zm9.828125 4.95312q-.625.75-1.859375.75-1.015625 0-1.546875-.59375-.53125-.59375-.53125-1.75v-4.125h1.078125v4.09375q0 1.45312 1.171875 1.45312 1.25 0 1.65625-.9375v-4.60937h1.09375v6.34375h-1.03125zm7 .625q-.09375-.1875-.15625-.67188-.75.79688-1.796875.79688-.9375 0-1.546875-.53125-.59375-.53125-.59375-1.35937 0-.98438.75-1.53126.75-.54687 2.125-.54687h1.046875v-.5q0-.5625-.34375-.89063-.328125-.34374-1-.34374-.578125 0-.96875.29687-.390625.28125-.390625.70313h-1.09375q0-.48438.328125-.92188.34375-.4375.921875-.6875.578125-.26562 1.265625-.26562 1.109375 0 1.71875.54687.625.54687.65625 1.5v2.92187q0 .875.21875 1.39063v.09375zm-1.796875-.82812q.515625 0 .96875-.26563.453125-.26563.65625-.6875v-1.29687h-.84375q-2 0-2 1.17187 0 .5.34375.79687.34375.28126.875.28126zm5.90625-5.51563.03125.79687q.734375-.90624 1.90625-.90624 2.015625 0 2.03125 2.26562v4.1875h-1.09375v-4.20312q0-.67188-.3125-1-.296875-.32813-.953125-.32813-.53125 0-.9375.28125-.390625.28125-.609375.73438v4.51562h-1.078125v-6.34375zm7.15625 6.34375h-1.078125v-6.34375h1.078125zm-1.171875-8.01562q0-.26563.15625-.45313.171875-.1875.484375-.1875.3125 0 .46875.1875.171875.1875.171875.45313 0 .25-.171875.4375-.15625.17187-.46875.17187-.3125 0-.484375-.17187-.15625-.1875-.15625-.4375zm6.90625 8.01562q-.09375-.1875-.15625-.67188-.75.79688-1.796875.79688-.9375 0-1.546875-.53125-.59375-.53125-.59375-1.35937 0-.98438.75-1.53126.75-.54687 2.125-.54687h1.046875v-.5q0-.5625-.34375-.89063-.328125-.34374-1-.34374-.578125 0-.96875.29687-.390625.28125-.390625.70313h-1.09375q0-.48438.328125-.92188.34375-.4375.921875-.6875.578125-.26562 1.265625-.26562 1.109375 0 1.71875.54687.625.54687.65625 1.5v2.92187q0 .875.21875 1.39063v.09375zm-1.796875-.82812q.515625 0 .96875-.26563.453125-.26563.65625-.6875v-1.29687h-.84375q-2 0-2 1.17187 0 .5.34375.79687.34375.28126.875.28126z"/><path d="m36 346.96875v5.79687q-.015625 1.20313-.765625 1.98438-.75.76562-2.03125.85938l-.3125.01562q-1.390625 0-2.234375-.75-.828125-.76562-.828125-2.09375v-5.8125h1.109375v5.78125q0 .92188.5 1.4375.515625.51562 1.453125.51562.96875 0 1.46875-.51562.5-.51562.5-1.4375v-5.78125zm2.84375 2.1875.03125.79687q.734375-.90624 1.90625-.90624 2.015625 0 2.03125 2.26562v4.1875h-1.09375v-4.20312q0-.67188-.3125-1-.296875-.32813-.953125-.32813-.53125 0-.9375.28125-.390625.28125-.609375.73438v4.51562h-1.078125v-6.34375zm7.15625 6.34375h-1.078125v-6.34375h1.078125zm-1.171875-8.01562q0-.26563.15625-.45313.171875-.1875.484375-.1875.3125 0 .46875.1875.171875.1875.171875.45313 0 .25-.171875.4375-.15625.17187-.46875.17187-.3125 0-.484375-.17187-.15625-.1875-.15625-.4375zm4.46875.14062v1.53125h1.171875v.84375h-1.171875v3.92188q0 .39062.15625.57812.15625.1875.53125.1875.1875 0 .515625-.0625v.875q-.421875.125-.828125.125-.71875 0-1.09375-.4375-.375-.45312-.375-1.26562v-3.92188h-1.15625v-.84375h1.15625v-1.53125zm5.15625 8q-1.296875 0-2.109375-.84375-.796875-.85937-.796875-2.28125v-.1875q0-.95312.359375-1.6875.359375-.75 1-1.15625.65625-.42187 1.40625-.42187 1.234375 0 1.921875.8125.6875.8125.6875 2.32812v.45312h-4.296875q.03125.9375.546875 1.51563.53125.57813 1.34375.57813.5625 0 .953125-.23438.40625-.23438.71875-.625l.65625.51562q-.796875 1.23438-2.390625 1.23438zm-.140625-5.6875q-.65625 0-1.109375.48438-.4375.46874-.53125 1.32812h3.171875v-.07812q-.046875-.82813-.453125-1.28126-.390625-.45312-1.078125-.45312zm3.25 2.34375q0-1.46875.6875-2.34375.6875-.89062 1.8125-.89062 1.109375 0 1.765625.75v-3.29688h1.078125v9h-1l-.046875-.6875q-.65625.8125-1.8125.8125-1.09375 0-1.796875-.90625-.6875-.90625-.6875-2.35937zm1.078125.125q0 1.07813.4375 1.6875.453125.60937 1.234375.60937 1.03125 0 1.515625-.9375v-2.90624q-.484375-.89063-1.5-.89063-.796875 0-1.25.60937-.4375.60938-.4375 1.82813zm11.515625-.875-1.046875 1.07813v2.89062h-1.125v-8.53125h1.125v4.21875l3.796875-4.21875h1.359375l-3.359375 3.76563 3.625 4.76562h-1.34375zm6.84375 3.96875h-1.078125v-6.34375h1.078125zm-1.171875-8.01562q0-.26563.15625-.45313.171875-.1875.484375-.1875.3125 0 .46875.1875.171875.1875.171875.45313 0 .25-.171875.4375-.15625.17187-.46875.17187-.3125 0-.484375-.17187-.15625-.1875-.15625-.4375zm4.015625 1.67187.03125.79687q.734375-.90624 1.90625-.90624 2.015625 0 2.03125 2.26562v4.1875h-1.09375v-4.20312q0-.67188-.3125-1-.296875-.32813-.953125-.32813-.53125 0-.9375.28125-.390625.28125-.609375.73438v4.51562h-1.078125v-6.34375zm5.71875 3.125q0-1.48437.6875-2.35937.6875-.875 1.8125-.875 1.15625 0 1.8125.8125l.046875-.70313h1v6.1875q0 1.23437-.734375 1.9375-.734375.71875-1.953125.71875-.6875 0-1.34375-.29688-.65625-.29687-1-.79687l.5625-.65625q.6875.85938 1.703125.85938.78125 0 1.21875-.45313.453125-.4375.453125-1.25v-.54687q-.65625.76562-1.78125.76562-1.109375 0-1.796875-.89062-.6875-.90626-.6875-2.45313zm1.09375.125q0 1.0625.4375 1.6875.4375.60937 1.234375.60937 1.015625 0 1.5-.9375v-2.89062q-.5-.90625-1.5-.90625-.78125 0-1.234375.60937-.4375.60938-.4375 1.82813zm5.90625-.125q0-1.46875.6875-2.34375.6875-.89062 1.8125-.89062 1.109375 0 1.765625.75v-3.29688h1.078125v9h-1l-.046875-.6875q-.65625.8125-1.8125.8125-1.09375 0-1.796875-.90625-.6875-.90625-.6875-2.35937zm1.078125.125q0 1.07813.4375 1.6875.453125.60937 1.234375.60937 1.03125 0 1.515625-.9375v-2.90624q-.484375-.89063-1.5-.89063-.796875 0-1.25.60937-.4375.60938-.4375 1.82813zm5.890625-.14063q0-.92187.359375-1.67187.375-.75 1.03125-1.14063.65625-.40624 1.484375-.40624 1.296875 0 2.09375.89062.8125.89062.8125 2.39062v.07813q0 .92187-.359375 1.65625-.359375.73438-1.015625 1.15625-.65625.40625-1.515625.40625-1.28125 0-2.09375-.89062-.796875-.90626-.796875-2.39063zm1.09375.14063q0 1.04687.484375 1.6875.5.64063 1.3125.64063.828125 0 1.3125-.64063.484375-.65625.484375-1.82813 0-1.03124-.5-1.67187-.484375-.65625-1.3125-.65625-.796875 0-1.296875.64062-.484375.625-.484375 1.82813zm7.21875-3.25.03125.70313q.6875-.8125 1.875-.8125 1.328125 0 1.8125 1.01562.3125-.45312.8125-.73438.515625-.28124 1.203125-.28124 2.09375 0 2.125 2.20312v4.25h-1.078125v-4.1875q0-.67188-.3125-1-.3125-.34375-1.046875-.34375-.609375 0-1.015625.35937-.390625.35938-.453125.96876v4.20312h-1.078125v-4.15625q0-1.375-1.359375-1.375-1.0625 0-1.453125.90625v4.625h-1.09375v-6.34375z"/><path d="m82.546875 412.24008h-1.125l-4.296875-6.57812v6.57812h-1.140625v-8.53125h1.140625l4.296875 6.60937v-6.60937h1.125zm1.984375-3.23438q0-.92187.359375-1.67187.375-.75 1.03125-1.14063.65625-.40624 1.484375-.40624 1.296875 0 2.09375.89062.8125.89062.8125 2.39062v.07813q0 .92187-.359375 1.65625-.359375.73438-1.015625 1.15625-.65625.40625-1.515625.40625-1.28125 0-2.09375-.89062-.796875-.90626-.796875-2.39063zm1.09375.14063q0 1.04687.484375 1.6875.5.64063 1.3125.64063.828125 0 1.3125-.64063.484375-.65625.484375-1.82813 0-1.03124-.5-1.67187-.484375-.65625-1.3125-.65625-.796875 0-1.296875.64062-.484375.625-.484375 1.82813zm9.265625-2.28125q-.25-.03125-.53125-.03125-1.078125 0-1.453125.90625v4.5h-1.078125v-6.34375h1.046875l.015625.73437q.53125-.84374 1.515625-.84374.3125 0 .484375.07812zm6.546875 3.875 1.21875-4.84375h1.078125l-1.84375 6.34375h-.875l-1.546875-4.8125-1.5 4.8125h-.875l-1.84375-6.34375h1.078125l1.25 4.75 1.484375-4.75h.859375zm7.296875 1.5q-.09375-.1875-.15625-.67188-.75.79688-1.796875.79688-.9375 0-1.546875-.53125-.59375-.53125-.59375-1.35937 0-.98438.75-1.53126.75-.54687 2.125-.54687h1.046875v-.5q0-.5625-.34375-.89063-.328125-.34374-1-.34374-.578125 0-.96875.29687-.390625.28125-.390625.70313h-1.09375q0-.48438.328125-.92188.34375-.4375.921875-.6875.578125-.26562 1.265625-.26562 1.109375 0 1.71875.54687.625.54687.65625 1.5v2.92187q0 .875.21875 1.39063v.09375zm-1.796875-.82812q.515625 0 .96875-.26563.453125-.26563.65625-.6875v-1.29687h-.84375q-2 0-2 1.17187 0 .5.34375.79687.34375.28126.875.28126zm6.953125-.76563 1.484375-4.75h1.15625l-2.546875 7.32813q-.59375 1.57812-1.875 1.57812l-.21875-.01562-.390625-.07813v-.875l.28125.01563q.5625 0 .859375-.21876.3125-.21874.515625-.8125l.234375-.65624-2.265625-6.26563h1.1875z"/><path d="m81.703125 465.21454h-3.59375v3.76562h-1.125v-8.53126h5.296875v.9219h-4.171875v2.92186h3.59375zm3.296875 3.76562h-1.078125v-6.34376h1.078125zm-1.171875-8.01562q0-.26564.15625-.45314.171875-.1875.484375-.1875.3125 0 .46875.1875.171875.1875.171875.45314 0 .25-.171875.4375-.15625.17186-.46875.17186-.3125 0-.484375-.17186-.15625-.1875-.15625-.4375zm4.015625 1.67186.03125.7969q.734375-.90626 1.90625-.90626 2.015625 0 2.03125 2.26562v4.1875h-1.09375v-4.20312q0-.67188-.3125-1-.296875-.32814-.953125-.32814-.53125 0-.9375.28126-.390625.28124-.609375.73438v4.51562h-1.078125v-6.34376zm7.15625 6.34376h-1.078125v-9h1.078125zm5.734375 0q-.09375-.1875-.15625-.67186-.75.79686-1.796875.79686-.9375 0-1.546875-.53126-.59375-.53124-.59375-1.35936 0-.98438.75-1.53124.75-.5469 2.125-.5469h1.046875v-.5q0-.5625-.34375-.8906-.328125-.34376-1-.34376-.578125 0-.96875.29686-.390625.28126-.390625.70314h-1.09375q0-.48438.328125-.92188.34375-.4375.921875-.6875.578125-.26562 1.265625-.26562 1.109375 0 1.71875.54686.625.5469.65625 1.5v2.9219q0 .875.21875 1.3906v.09376zm-1.796875-.82812q.515625 0 .96875-.26564.453125-.2656.65625-.6875v-1.29686h-.84375q-2 0-2 1.17186 0 .5.34375.7969.34375.28124.875.28124zm5.90625-5.51564.03125.7969q.734375-.90626 1.90625-.90626 2.015625 0 2.03125 2.26562v4.1875h-1.09375v-4.20312q0-.67188-.3125-1-.296875-.32814-.953125-.32814-.53125 0-.9375.28126-.390625.28124-.609375.73438v4.51562h-1.078125v-6.34376zm5.71875 3.125q0-1.46874.6875-2.34374.6875-.89062 1.8125-.89062 1.109375 0 1.765625.75v-3.29688h1.078125v9h-1l-.046875-.6875q-.65625.8125-1.8125.8125-1.09375 0-1.796875-.90626-.6875-.90624-.6875-2.35936zm1.078125.125q0 1.07814.4375 1.6875.453125.6094 1.234375.6094 1.03125 0 1.515625-.9375v-2.90626q-.484375-.89064-1.5-.89064-.796875 0-1.25.6094-.4375.60936-.4375 1.8281z"/><path d="m77.546875 525.7203h-1.125v-3.9375h-4.3125v3.9375h-1.125v-8.5313h1.125v3.6719h4.3125v-3.6719h1.125zm6.1875-.625q-.625.75-1.859375.75-1.015625 0-1.546875-.5938-.53125-.5937-.53125-1.75v-4.125h1.078125v4.0938q0 1.4531 1.171875 1.4531 1.25 0 1.65625-.9375v-4.6094h1.09375v6.3438h-1.03125zm4.109375-5.7188.03125.7969q.734375-.90625 1.90625-.90625 2.015625 0 2.03125 2.26565v4.1875h-1.09375v-4.20315q0-.67185-.3125-1-.296875-.32815-.953125-.32815-.53125 0-.9375.2813-.390625.2812-.609375.73435v4.51565h-1.078125v-6.3438zm5.71875 3.125q0-1.48435.6875-2.35935.6875-.875 1.8125-.875 1.15625 0 1.8125.8125l.046875-.70315h1v6.1875q0 1.2344-.734375 1.9375-.734375.7188-1.953125.7188-.6875 0-1.34375-.2969-.65625-.2969-1-.7969l.5625-.6562q.6875.85935 1.703125.85935.78125 0 1.21875-.45315.453125-.4375.453125-1.25v-.54685q-.65625.76565-1.78125.76565-1.109375 0-1.796875-.89065-.6875-.90625-.6875-2.45315zm1.09375.125q0 1.0625.4375 1.6875.4375.6094 1.234375.6094 1.015625 0 1.5-.9375v-2.8906q-.5-.9063-1.5-.9063-.78125 0-1.234375.6094-.4375.6094-.4375 1.8281zm10.078125 3.0938q-.09375-.1875-.15625-.6719-.75.7969-1.796875.7969-.9375 0-1.546875-.5313-.59375-.5312-.59375-1.35935 0-.98435.75-1.53125.75-.5469 2.125-.5469h1.046875v-.5q0-.5625-.34375-.8906-.328125-.34375-1-.34375-.578125 0-.96875.29685-.390625.2813-.390625.70315h-1.09375q0-.48435.328125-.92185.34375-.4375.921875-.6875.578125-.26565 1.265625-.26565 1.109375 0 1.71875.54685.625.5469.65625 1.5v2.9219q0 .875.21875 1.3906v.0938zm-1.796875-.82815q.515625 0 .96875-.26565.453125-.2656.65625-.6875v-1.29685h-.84375q-2 0-2 1.17185 0 .5.34375.7969.34375.28125.875.28125zm7.953125-4.54685q-.25-.0313-.53125-.0313-1.078125 0-1.453125.9063v4.5h-1.078125v-6.3438h1.046875l.015625.7344q.53125-.84375 1.515625-.84375.3125 0 .484375.07815zm3 3.7812 1.484375-4.75h1.15625l-2.546875 7.32815q-.59375 1.57815-1.875 1.57815l-.21875-.01565-.390625-.07815v-.875l.28125.01565q.5625 0 .859375-.21875.3125-.21875.515625-.8125l.234375-.65625-2.265625-6.26565h1.1875z"/><path d="m96.203125 582.4603h-1.125v-8.5312h1.125zm3.09375-7.875v1.5313h1.171875v.8437h-1.171875v3.9219q0 .3906.15625.5781.15625.1875.53125.1875.1875 0 .515625-.0625v.875q-.421875.125-.828125.125-.71875 0-1.09375-.4375-.375-.4531-.375-1.2656v-3.9219h-1.15625v-.8437h1.15625v-1.5313zm6.4375 7.875q-.09375-.1875-.15625-.67185-.75.79685-1.796875.79685-.9375 0-1.546875-.5312-.59375-.5313-.59375-1.3594 0-.9844.75-1.53125.75-.54685 2.125-.54685h1.046875v-.5q0-.5625-.34375-.89065-.328125-.34375-1-.34375-.578125 0-.96875.2969-.390625.2812-.390625.7031h-1.09375q0-.4844.328125-.9219.34375-.4375.921875-.6875.578125-.2656 1.265625-.2656 1.109375 0 1.71875.5469.625.54685.65625 1.5v2.92185q0 .875.21875 1.39065v.0937zm-1.796875-.8281q.515625 0 .96875-.2656.453125-.26565.65625-.6875v-1.2969h-.84375q-2 0-2 1.1719 0 .5.34375.79685.34375.28125.875.28125zm6.0625.8281h-1.078125v-9h1.078125zm3.890625-1.5937 1.484375-4.75h1.15625l-2.546875 7.3281q-.59375 1.5781-1.875 1.5781l-.21875-.0156-.390625-.0781v-.875l.28125.0156q.5625 0 .859375-.21875.3125-.21875.515625-.8125l.234375-.65625-2.265625-6.2656h1.1875z"/><path d="m42.546875 635.21606q0 1.25-.421875 2.1875-.421875.92188-1.203125 1.42188-.765625.5-1.796875.5-1 0-1.78125-.5-.78125-.5-1.21875-1.40624-.421875-.9219-.4375-2.14064v-.60936q0-1.2344.421875-2.1719.4375-.9375 1.21875-1.4375.78125-.5156 1.796875-.5156 1.015625 0 1.796875.5.78125.5 1.203125 1.4375.421875.9375.421875 2.1875zm-1.109375-.5625q0-1.51562-.609375-2.32812-.609375-.8125-1.703125-.8125-1.078125 0-1.6875.8125-.609375.8125-.625 2.25v.64062q0 1.46874.609375 2.3125.625.82814 1.703125.82814 1.09375 0 1.6875-.78126.609375-.79688.625-2.28124zm3.859375-3.32812v1.53126h1.171875v.84374h-1.171875v3.92186q0 .39064.15625.57814.15625.1875.53125.1875.1875 0 .515625-.0625v.875q-.421875.125-.828125.125-.71875 0-1.09375-.4375-.375-.45314-.375-1.26564v-3.92186h-1.15625v-.84374h1.15625v-1.53126zm3.609375 2.29686q.71875-.875 1.875-.875 2.015625 0 2.03125 2.26564v4.1875h-1.09375v-4.20314q0-.67186-.3125-1-.296875-.3281-.953125-.3281-.53125 0-.9375.28124-.390625.28126-.609375.73436v4.51564h-1.078125v-9h1.078125zm8.546875 5.70314q-1.296875 0-2.109375-.84374-.796875-.8594-.796875-2.28126v-.1875q0-.95314.359375-1.6875.359375-.75 1-1.15624.65625-.4219 1.40625-.4219 1.234375 0 1.921875.8125.6875.8125.6875 2.32814v.45312h-4.296875q.03125.9375.546875 1.51564.53125.5781 1.34375.5781.5625 0 .953125-.23436.40625-.23438.71875-.625l.65625.51562q-.796875 1.23438-2.390625 1.23438zm-.140625-5.6875q-.65625 0-1.109375.48436-.4375.46876-.53125 1.32814h3.171875v-.07814q-.046875-.8281-.453125-1.28124-.390625-.45312-1.078125-.45312zm6.578125.1875q-.25-.03124-.53125-.03124-1.078125 0-1.453125.90624v4.5h-1.078125v-6.34374h1.046875l.015625.73436q.53125-.84376 1.515625-.84376.3125 0 .484375.07814zm6.46875 4.60936q.578125 0 1.015625-.34374.4375-.35936.484375-.89062h1.03125q-.03125.54686-.390625 1.04686-.34375.4844-.921875.78126-.5625.29688-1.21875.29688-1.296875 0-2.0625-.85938-.75-.875-.75-2.375v-.1875q0-.92186.328125-1.64062.34375-.71874.96875-1.10938.640625-.40626 1.515625-.40626 1.0625 0 1.765625.64064.71875.625.765625 1.65626h-1.03125q-.046875-.625-.46875-1.01564-.421875-.39062-1.03125-.39062-.828125 0-1.28125.59376-.453125.59374-.453125 1.71874v.20312q0 1.09374.453125 1.6875.453125.59374 1.28125.59374zm3.171875-2.46874q0-.92186.359375-1.67186.375-.75 1.03125-1.14064.65625-.40626 1.484375-.40626 1.296875 0 2.09375.89064.8125.89062.8125 2.39062v.07814q0 .92186-.359375 1.65624-.359375.73436-1.015625 1.15626-.65625.40624-1.515625.40624-1.28125 0-2.09375-.89064-.796875-.90624-.796875-2.3906zm1.09375.14064q0 1.04686.484375 1.6875.5.6406 1.3125.6406.828125 0 1.3125-.6406.484375-.65626.484375-1.82814 0-1.03126-.5-1.67186-.484375-.65626-1.3125-.65626-.796875 0-1.296875.64062-.484375.625-.484375 1.82814zm10.109375 2.46874q-.625.75-1.859375.75-1.015625 0-1.546875-.59374-.53125-.59376-.53125-1.75v-4.125h1.078125v4.09374q0 1.45312 1.171875 1.45312 1.25 0 1.65625-.9375v-4.60936h1.09375v6.34374h-1.03125zm4.109375-5.71874.03125.79686q.734375-.90626 1.90625-.90626 2.015625 0 2.03125 2.26564v4.1875h-1.09375v-4.20314q0-.67186-.3125-1-.296875-.3281-.953125-.3281-.53125 0-.9375.28124-.390625.28126-.609375.73436v4.51564h-1.078125v-6.34374zm7.453125-1.53126v1.53126h1.171875v.84374h-1.171875v3.92186q0 .39064.15625.57814.15625.1875.53125.1875.1875 0 .515625-.0625v.875q-.421875.125-.828125.125-.71875 0-1.09375-.4375-.375-.45314-.375-1.26564v-3.92186h-1.15625v-.84374h1.15625v-1.53126zm5.59375 2.5q-.25-.03124-.53125-.03124-1.078125 0-1.453125.90624v4.5h-1.078125v-6.34374h1.046875l.015625.73436q.53125-.84376 1.515625-.84376.3125 0 .484375.07814zm2.109375 5.375h-1.078125v-6.34374h1.078125zm-1.171875-8.01564q0-.2656.15625-.4531.171875-.1875.484375-.1875.3125 0 .46875.1875.171875.1875.171875.4531 0 .25-.171875.4375-.15625.1719-.46875.1719-.3125 0-.484375-.1719-.15625-.1875-.15625-.4375zm5.625 8.14064q-1.296875 0-2.109375-.84374-.796875-.8594-.796875-2.28126v-.1875q0-.95314.359375-1.6875.359375-.75 1-1.15624.65625-.4219 1.40625-.4219 1.234375 0 1.921875.8125.6875.8125.6875 2.32814v.45312h-4.296875q.03125.9375.546875 1.51564.53125.5781 1.34375.5781.5625 0 .953125-.23436.40625-.23438.71875-.625l.65625.51562q-.796875 1.23438-2.390625 1.23438zm-.140625-5.6875q-.65625 0-1.109375.48436-.4375.46876-.53125 1.32814h3.171875v-.07814q-.046875-.8281-.453125-1.28124-.390625-.45312-1.078125-.45312zm7.203125 3.875q0-.4375-.34375-.67188-.328125-.25-1.15625-.42186-.8125-.1719-1.296875-.4219-.484375-.25-.71875-.5781-.21875-.34376-.21875-.8125 0-.78126.65625-1.3125.65625-.5469 1.6875-.5469 1.078125 0 1.734375.5625.671875.5469.671875 1.40626h-1.078125q0-.4375-.390625-.75-.375-.32812-.9375-.32812-.59375 0-.9375.26562-.328125.25-.328125.65624 0 .39064.3125.59376.3125.20314 1.125.39064.8125.17186 1.3125.42186.5.25.734375.60938.25.35936.25.85936 0 .8594-.6875 1.375-.671875.51564-1.75.51564-.765625 0-1.359375-.26564-.578125-.28124-.90625-.7656-.328125-.4844-.328125-1.0469h1.078125q.03125.5469.4375.875.40625.3125 1.078125.3125.609375 0 .984375-.25.375-.25.375-.67186z"/><path d="m125.828125 693.46875q0 1.76565-.734375 2.71875-.734375.9375-2.140625.9375-1.40625 0-2.140625-.9219-.734375-.92185-.75-2.6406v-1.5781q0-1.7813.734375-2.70315.75-.9375 2.140625-.9375 1.390625 0 2.125.92185.75.9219.765625 2.64065zm-1.703125-1.71875q0-1.0625-.296875-1.5469-.28125-.48435-.890625-.48435-.59375 0-.890625.46875-.28125.4531-.296875 1.4375v2.0625q0 1.0469.28125 1.5625.28125.5.921875.5.609375 0 .890625-.4844.28125-.48435.28125-1.48435z"/><path d="m265.08853 697h-5.84375v-1.15625l2.76562-2.95315q.5625-.60935.82813-1.0781.28125-.46875.28125-.875 0-.5781-.29688-.8906-.28124-.32815-.8125-.32815-.57812 0-.90624.39065-.32813.3906-.32813 1.04685h-1.70313q0-.78125.375-1.42185.375-.6563 1.04688-1.01565.6875-.375 1.54688-.375 1.3125 0 2.04687.64065.73437.625.73437 1.7812 0 .64065-.32812 1.2969-.32812.65625-1.125 1.53125l-1.9375 2.04685h3.65625zm6.90625-3.53125q0 1.76565-.73438 2.71875-.73437.9375-2.14062.9375-1.40625 0-2.14062-.9219-.73438-.92185-.75-2.6406v-1.5781q0-1.7813.73437-2.70315.75-.9375 2.14063-.9375 1.39062 0 2.125.92185.75.9219.76562 2.64065zm-1.70312-1.71875q0-1.0625-.29688-1.5469-.28125-.48435-.89062-.48435-.59376 0-.89063.46875-.28125.4531-.29687 1.4375v2.0625q0 1.0469.28124 1.5625.28126.5.92188.5.60938 0 .89062-.4844.28126-.48435.28126-1.48435z"/><path d="m406.9271 693.78125h.96874v1.375h-.96874v1.84375h-1.70313v-1.84375h-3.48437l-.07813-1.0625 3.54687-5.625h1.71876zm-3.57813 0h1.875v-3l-.10937.1875zm11.3125-.3125q0 1.76565-.73437 2.71875-.73438.9375-2.14063.9375-1.40625 0-2.14063-.9219-.73437-.92185-.75-2.6406v-1.5781q0-1.7813.73438-2.70315.75-.9375 2.14062-.9375 1.39063 0 2.125.92185.75.9219.76563 2.64065zm-1.70313-1.71875q0-1.0625-.29687-1.5469-.28125-.48435-.89063-.48435-.59374 0-.89062.46875-.28125.4531-.29688 1.4375v2.0625q0 1.0469.28126 1.5625.28124.5.92187.5.60937 0 .89063-.4844.28124-.48435.28124-1.48435z"/><path d="m549.1719 688.375v1.40625h-.1563q-1.1562.01565-1.85935.59375-.6875.5781-.82815 1.6094.6719-.6875 1.70315-.6875 1.125 0 1.78125.79685.65625.79685.65625 2.09375 0 .8281-.35935 1.5-.3594.6719-1.0313 1.0625-.6562.375-1.48435.375-1.34375 0-2.17185-.9375-.82815-.9531-.82815-2.5156v-.6094q0-1.3906.51565-2.4531.5312-1.0625 1.5-1.64065.98435-.57815 2.2812-.59375zm-1.6563 4.28125q-.4062 0-.75.21875-.3281.2031-.48435.5625v.5156q0 .8438.32815 1.32815.3437.46875.9531.46875.5469 0 .875-.4219.34375-.4375.34375-1.125 0-.7031-.34375-1.125-.34375-.42185-.9219-.42185zm9.8125.8125q0 1.76565-.73435 2.71875-.73435.9375-2.14065.9375-1.4062 0-2.1406-.9219-.7344-.92185-.75-2.6406v-1.5781q0-1.7813.7344-2.70315.75-.9375 2.1406-.9375 1.3906 0 2.125.92185.75.9219.7656 2.64065zm-1.7031-1.71875q0-1.0625-.2969-1.5469-.2812-.48435-.8906-.48435-.59375 0-.8906.46875-.2813.4531-.2969 1.4375v2.0625q0 1.0469.28125 1.5625.28125.5.92185.5.6094 0 .89065-.4844.28125-.48435.28125-1.48435z"/></g></svg>