<svg fill="none" height="729" stroke-linecap="square" stroke-miterlimit="10" viewBox="0 0 580 729" width="580" xmlns="http://www.w3.org/2000/svg" xmlns:xlink="http://www.w3.org/1999/xlink"><clipPath id="a"><path d="m139.4 29h411.6v644h-411.6z"/></clipPath><path d="m0 0h580v729h-580z" fill="none"/><path d="m139.5 29.5v644" stroke="#333" stroke-linecap="butt"/><path d="m276.5 29.5v644" stroke="#ccc" stroke-linecap="butt"/><path d="m413.5 29.5v644" stroke="#ccc" stroke-linecap="butt"/><path d="m551.5 29.5v644" stroke="#ccc" stroke-linecap="butt"/><path d="m185.5 29.5v644"/><path d="m230.5 29.5v644"/><path d="m322.5 29.5v644"/><path d="m368.5 29.5v644"/><path d="m459.5 29.5v644"/><path d="m505.5 29.5v644"/><path d="m139.5 673.5v-644" stroke="#000" stroke-linecap="butt"/><path clip-path="url(#a)" d="m139 86v-37h355c1.10458 0 2 .89543 2 2v33c0 1.10457-.89542 2-2 2z"/><path clip-path="url(#a)" d="m139 86v-37h355c1.10458 0 2 .89543 2 2v33c0 1.10457-.89542 2-2 2z" fill="#38761d"/><path clip-path="url(#a)" d="m139 143v-37h218c1.10458 0 2 .89543 2 2v33c0 1.10457-.89542 2-2 2z"/><path clip-path="url(#a)" d="m139 143v-37h218c1.10458 0 2 .89543 2 2v33c0 1.10457-.89542 2-2 2z" fill="#38761d"/><path clip-path="url(#a)" d="m139 200v-37h147c1.10458 0 2 .89543 2 2v33c0 1.10457-.89542 2-2 2z"/><path clip-path="url(#a)" d="m139 200v-37h147c1.10458 0 2 .89543 2 2v33c0 1.10457-.89542 2-2 2z" fill="#38761d"/><path clip-path="url(#a)" d="m139 257v-37h115c1.10457 0 2 .89543 2 2v33c0 1.10458-.89543 2-2 2z"/><path clip-path="url(#a)" d="m139 257v-37h115c1.10457 0 2 .89543 2 2v33c0 1.10458-.89543 2-2 2z" fill="#38761d"/><path clip-path="url(#a)" d="m139 313v-37h106c1.10457 0 2 .89542 2 2v33c0 1.10458-.89543 2-2 2z"/><path clip-path="url(#a)" d="m139 313v-37h106c1.10457 0 2 .89542 2 2v33c0 1.10458-.89543 2-2 2z" fill="#38761d"/><path clip-path="url(#a)" d="m139 370v-37h92c1.10457 0 2 .89542 2 2v33c0 1.10458-.89543 2-2 2z"/><path clip-path="url(#a)" d="m139 370v-37h92c1.10457 0 2 .89542 2 2v33c0 1.10458-.89543 2-2 2z" fill="#38761d"/><path clip-path="url(#a)" d="m139 427v-37h89c1.10457 0 2 .89542 2 2v33c0 1.10458-.89543 2-2 2z"/><path clip-path="url(#a)" d="m139 427v-37h89c1.10457 0 2 .89542 2 2v33c0 1.10458-.89543 2-2 2z" fill="#38761d"/><path clip-path="url(#a)" d="m139 483v-37h55c1.10457 0 2 .89542 2 2v33c0 1.10458-.89543 2-2 2z"/><path clip-path="url(#a)" d="m139 483v-37h55c1.10457 0 2 .89542 2 2v33c0 1.10458-.89543 2-2 2z" fill="#38761d"/><path clip-path="url(#a)" d="m139 540v-37h46c1.10457 0 2 .89542 2 2v33c0 1.10455-.89543 2-2 2z"/><path clip-path="url(#a)" d="m139 540v-37h46c1.10457 0 2 .89542 2 2v33c0 1.10455-.89543 2-2 2z" fill="#38761d"/><path clip-path="url(#a)" d="m139 597v-37h42c1.10457 0 2 .89545 2 2v33c0 1.10455-.89543 2-2 2z"/><path clip-path="url(#a)" d="m139 597v-37h42c1.10457 0 2 .89545 2 2v33c0 1.10455-.89543 2-2 2z" fill="#38761d"/><path clip-path="url(#a)" d="m139 654v-37h203c1.10458 0 2 .89545 2 2v33c0 1.10455-.89542 2-2 2z"/><path clip-path="url(#a)" d="m139 654v-37h203c1.10458 0 2 .89545 2 2v33c0 1.10455-.89542 2-2 2z" fill="#38761d"/><path d="m139.5 679.5v-12" stroke="#000" stroke-linecap="butt"/><path d="m276.5 679.5v-12" stroke="#000" stroke-linecap="butt"/><path d="m413.5 679.5v-12" stroke="#000" stroke-linecap="butt"/><path d="m551.5 679.5v-12" stroke="#000" stroke-linecap="butt"/><path d="m461.52145 67.296875.5-4.328125h4.78125v1.40625h-3.39062l-.21875 1.84375q.60937-.328125 1.28125-.328125 1.21875 0 1.90625.765625.70312.75.70312 2.109375 0 .828125-.35937 1.484375-.34375.640625-1 1.015625-.64063.359375-1.53125.359375-.76563 0-1.4375-.3125-.65625-.328125-1.04688-.890625-.375-.5625-.40625-1.296875h1.6875q.04688.53125.35938.828125.32812.296875.84375.296875.57812 0 .875-.40625.3125-.421875.3125-1.171875 0-.734375-.35938-1.109375-.34375-.390625-1-.390625-.60937 0-.98437.3125l-.15625.15625zm12.59375 4.203125h-5.84375v-1.15625l2.76563-2.953125q.5625-.609375.82812-1.078125.28125-.46875.28125-.875 0-.578125-.29687-.890625-.28125-.328125-.8125-.328125-.57813 0-.90625.390625-.32813.390625-.32813 1.046875h-1.70312q0-.78125.375-1.421875.375-.65625 1.04687-1.015625.6875-.375 1.54688-.375 1.3125 0 2.04687.640625.73438.625.73438 1.78125 0 .640625-.32813 1.296875-.32812.65625-1.125 1.53125l-1.9375 2.046875h3.65625zm1.3125-.828125q0-.40625.26563-.65625.28125-.25.6875-.25.42187 0 .6875.25.28125.25.28125.65625 0 .390625-.28125.640625-.26563.25-.6875.25-.40625 0-.6875-.25-.26563-.25-.26563-.640625zm8.59375-2.703125q0 1.765625-.73437 2.71875-.73438.9375-2.14063.9375-1.40625 0-2.14062-.921875-.73438-.921875-.75-2.640625v-1.578125q0-1.78125.73437-2.703125.75-.9375 2.14063-.9375 1.39062 0 2.125.921875.75.921875.76562 2.640625zm-1.70312-1.71875q0-1.0625-.29688-1.546875-.28125-.484375-.89062-.484375-.59375 0-.89063.46875-.28125.453125-.29687 1.4375v2.0625q0 1.046875.28125 1.5625.28125.5.92187.5.60938 0 .89063-.484375.28125-.484375.28125-1.484375zm3.20312 1.046875.5-4.328125h4.78125v1.40625h-3.39062l-.21875 1.84375q.60937-.328125 1.28125-.328125 1.21875 0 1.90625.765625.70312.75.70312 2.109375 0 .828125-.35937 1.484375-.34375.640625-1 1.015625-.64063.359375-1.53125.359375-.76563 0-1.4375-.3125-.65625-.328125-1.04688-.890625-.375-.5625-.40625-1.296875h1.6875q.04688.53125.35938.828125.32812.296875.84375.296875.57812 0 .875-.40625.3125-.421875.3125-1.171875 0-.734375-.35938-1.109375-.34375-.390625-1-.390625-.60937 0-.98437.3125l-.15625.15625z" stroke="#38761d" stroke-linecap="round" stroke-linejoin="round" stroke-width="3"/><path d="m461.52145 67.296875.5-4.328125h4.78125v1.40625h-3.39062l-.21875 1.84375q.60937-.328125 1.28125-.328125 1.21875 0 1.90625.765625.70312.75.70312 2.109375 0 .828125-.35937 1.484375-.34375.640625-1 1.015625-.64063.359375-1.53125.359375-.76563 0-1.4375-.3125-.65625-.328125-1.04688-.890625-.375-.5625-.40625-1.296875h1.6875q.04688.53125.35938.828125.32812.296875.84375.296875.57812 0 .875-.40625.3125-.421875.3125-1.171875 0-.734375-.35938-1.109375-.34375-.390625-1-.390625-.60937 0-.98437.3125l-.15625.15625zm12.59375 4.203125h-5.84375v-1.15625l2.76563-2.953125q.5625-.609375.82812-1.078125.28125-.46875.28125-.875 0-.578125-.29687-.890625-.28125-.328125-.8125-.328125-.57813 0-.90625.390625-.32813.390625-.32813 1.046875h-1.70312q0-.78125.375-1.421875.375-.65625 1.04687-1.015625.6875-.375 1.54688-.375 1.3125 0 2.04687.640625.73438.625.73438 1.78125 0 .640625-.32813 1.296875-.32812.65625-1.125 1.53125l-1.9375 2.046875h3.65625zm1.3125-.828125q0-.40625.26563-.65625.28125-.25.6875-.25.42187 0 .6875.25.28125.25.28125.65625 0 .390625-.28125.640625-.26563.25-.6875.25-.40625 0-.6875-.25-.26563-.25-.26563-.640625zm8.59375-2.703125q0 1.765625-.73437 2.71875-.73438.9375-2.14063.9375-1.40625 0-2.14062-.921875-.73438-.921875-.75-2.640625v-1.578125q0-1.78125.73437-2.703125.75-.9375 2.14063-.9375 1.39062 0 2.125.921875.75.921875.76562 2.640625zm-1.70312-1.71875q0-1.0625-.29688-1.546875-.28125-.484375-.89062-.484375-.59375 0-.89063.46875-.28125.453125-.29687 1.4375v2.0625q0 1.046875.28125 1.5625.28125.5.92187.5.60938 0 .89063-.484375.28125-.484375.28125-1.484375zm3.20312 1.046875.5-4.328125h4.78125v1.40625h-3.39062l-.21875 1.84375q.60937-.328125 1.28125-.328125 1.21875 0 1.90625.765625.70312.75.70312 2.109375 0 .828125-.35937 1.484375-.34375.640625-1 1.015625-.64063.359375-1.53125.359375-.76563 0-1.4375-.3125-.65625-.328125-1.04688-.890625-.375-.5625-.40625-1.296875h1.6875q.04688.53125.35938.828125.32812.296875.84375.296875.57812 0 .875-.40625.3125-.421875.3125-1.171875 0-.734375-.35938-1.109375-.34375-.390625-1-.390625-.60937 0-.98437.3125l-.15625.15625z" fill="#fff"/><path d="m325.8961 123.484375h.90624q.64062 0 .95312-.3125.3125-.328125.3125-.859375 0-.515625-.3125-.796875-.29686-.296875-.84376-.296875-.48436 0-.8125.265625-.3281.265625-.3281.6875h-1.6875q0-.65625.35936-1.1875.35938-.53125 1-.828125.65624-.3125 1.4375-.3125 1.34374 0 2.10938.65625.78126.640625.78126 1.78125 0 .59375-.3594 1.09375-.35936.484375-.9375.734375.71876.265625 1.0625.78125.3594.515625.3594 1.21875 0 1.140625-.82814 1.828125-.82812.6875-2.1875.6875-1.28126 0-2.09376-.671875-.8125-.6875-.8125-1.796875h1.6875q0 .484375.3594.796875.375.296875.8906.296875.6094 0 .95314-.3125.34376-.328125.34376-.859375 0-1.265625-1.40626-1.265625h-.90624zm11.125 5.015625h-5.84376v-1.15625l2.76562-2.953125q.5625-.609375.82814-1.078125.28124-.46875.28124-.875 0-.578125-.29688-.890625-.28126-.328125-.8125-.328125-.57812 0-.90626.390625-.3281.390625-.3281 1.046875h-1.70314q0-.78125.375-1.421875.375-.65625 1.04688-1.015625.6875-.375 1.54686-.375 1.3125 0 2.0469.640625.73436.625.73436 1.78125 0 .640625-.32812 1.296875-.32814.65625-1.125 1.53125l-1.9375 2.046875h3.65626zm1.3125-.828125q0-.40625.2656-.65625.28126-.25.6875-.25.4219 0 .6875.25.28126.25.28126.65625 0 .390625-.28126.640625-.2656.25-.6875.25-.40624 0-.6875-.25-.2656-.25-.2656-.640625zm8.59374-2.703125q0 1.765625-.73438 2.71875-.73436.9375-2.14062.9375-1.40624 0-2.14064-.921875-.73436-.921875-.75-2.640625v-1.578125q0-1.78125.7344-2.703125.75-.9375 2.1406-.9375 1.39064 0 2.125.921875.75.921875.76564 2.640625zm-1.70314-1.71875q0-1.0625-.29686-1.546875-.28124-.484375-.89064-.484375-.59374 0-.8906.46875-.28126.453125-.2969 1.4375v2.0625q0 1.046875.28126 1.5625.28124.5.92188.5.60936 0 .89062-.484375.28124-.484375.28124-1.484375zm8.75-2.328125-3.29686 7.578125h-1.78124l3.29686-7.15625h-4.23436v-1.375h6.0156z" stroke="#38761d" stroke-linecap="round" stroke-linejoin="round" stroke-width="3"/><path d="m325.8961 123.484375h.90624q.64062 0 .95312-.3125.3125-.328125.3125-.859375 0-.515625-.3125-.796875-.29686-.296875-.84376-.296875-.48436 0-.8125.265625-.3281.265625-.3281.6875h-1.6875q0-.65625.35936-1.1875.35938-.53125 1-.828125.65624-.3125 1.4375-.3125 1.34374 0 2.10938.65625.78126.640625.78126 1.78125 0 .59375-.3594 1.09375-.35936.484375-.9375.734375.71876.265625 1.0625.78125.3594.515625.3594 1.21875 0 1.140625-.82814 1.828125-.82812.6875-2.1875.6875-1.28126 0-2.09376-.671875-.8125-.6875-.8125-1.796875h1.6875q0 .484375.3594.796875.375.296875.8906.296875.6094 0 .95314-.3125.34376-.328125.34376-.859375 0-1.265625-1.40626-1.265625h-.90624zm11.125 5.015625h-5.84376v-1.15625l2.76562-2.953125q.5625-.609375.82814-1.078125.28124-.46875.28124-.875 0-.578125-.29688-.890625-.28126-.328125-.8125-.328125-.57812 0-.90626.390625-.3281.390625-.3281 1.046875h-1.70314q0-.78125.375-1.421875.375-.65625 1.04688-1.015625.6875-.375 1.54686-.375 1.3125 0 2.0469.640625.73436.625.73436 1.78125 0 .640625-.32812 1.296875-.32814.65625-1.125 1.53125l-1.9375 2.046875h3.65626zm1.3125-.828125q0-.40625.2656-.65625.28126-.25.6875-.25.4219 0 .6875.25.28126.25.28126.65625 0 .390625-.28126.640625-.2656.25-.6875.25-.40624 0-.6875-.25-.2656-.25-.2656-.640625zm8.59374-2.703125q0 1.765625-.73438 2.71875-.73436.9375-2.14062.9375-1.40624 0-2.14064-.921875-.73436-.921875-.75-2.640625v-1.578125q0-1.78125.7344-2.703125.75-.9375 2.1406-.9375 1.39064 0 2.125.921875.75.921875.76564 2.640625zm-1.70314-1.71875q0-1.0625-.29686-1.546875-.28124-.484375-.89064-.484375-.59374 0-.8906.46875-.28126.453125-.2969 1.4375v2.0625q0 1.046875.28126 1.5625.28124.5.92188.5.60936 0 .89062-.484375.28124-.484375.28124-1.484375zm8.75-2.328125-3.29686 7.578125h-1.78124l3.29686-7.15625h-4.23436v-1.375h6.0156z" fill="#fff"/><path d="m258.52768 185.5h-5.84374v-1.15625l2.76563-2.95313q.56248-.60937.82811-1.07812.28125-.46875.28125-.875 0-.57812-.29688-.89062-.28123-.32813-.81248-.32813-.57813 0-.90625.39063-.32812.39062-.32812 1.04687h-1.70313q0-.78125.375-1.42187.375-.65626 1.04687-1.01563.6875-.375 1.54688-.375 1.31248 0 2.04686.64063.73437.625.73437 1.78124 0 .64063-.32812 1.29688-.32813.65625-1.125 1.53125l-1.93749 2.04687h3.65624zm5.26562 0h-1.6875v-6.53125l-2.01562.625v-1.375l3.53125-1.26563h.17187zm3.04688-.82812q0-.40626.26562-.65626.28125-.25.6875-.25.42188 0 .6875.25.28125.25.28125.65626 0 .39062-.28125.64062-.26562.25-.6875.25-.40625 0-.6875-.25-.26562-.25-.26562-.64062zm7.4375-7.79688v1.40625h-.15625q-1.15625.01563-1.85938.59375-.6875.57812-.82812 1.60938.67187-.6875 1.70312-.6875 1.125 0 1.78125.79687.65625.79687.65625 2.09375 0 .82812-.35937 1.5-.35938.67188-1.03125 1.0625-.65625.375-1.48438.375-1.34375 0-2.17187-.9375-.82813-.95312-.82813-2.51562v-.60938q0-1.39062.51563-2.45312.53125-1.0625 1.5-1.64063.98437-.57813 2.28125-.59375zm-1.65625 4.28125q-.40625 0-.75.21875-.32813.20312-.48438.5625v.51562q0 .84376.32813 1.32813.34375.46875.95312.46875.54688 0 .875-.42188.34375-.4375.34375-1.125 0-.70312-.34375-1.125-.34375-.42187-.92187-.42187zm4.3125.14063.5-4.32813h4.78125v1.40625h-3.39063l-.21875 1.84375q.60938-.32813 1.28125-.32813 1.21875 0 1.90625.76563.70313.75.70313 2.10937 0 .82813-.35938 1.48438-.34375.64062-1 1.01562-.64062.35938-1.53125.35938-.76562 0-1.4375-.3125-.65625-.32812-1.04687-.89062-.375-.5625-.40625-1.29688h1.6875q.04687.53125.35937.82812.32813.29688.84375.29688.57813 0 .875-.40625.3125-.42187.3125-1.17187 0-.73438-.35937-1.10938-.34375-.39062-1-.39062-.60938 0-.98438.3125l-.15625.15624z" stroke="#38761d" stroke-linecap="round" stroke-linejoin="round" stroke-width="3"/><path d="m258.5277 185.5h-5.84376v-1.15625l2.76563-2.95313q.56253-.60937.82813-1.07812.28126-.46875.28126-.875 0-.57812-.29686-.89062-.28128-.32813-.81253-.32813-.57813 0-.90625.39063-.32812.39062-.32812 1.04687h-1.70313q0-.78125.375-1.42187.375-.65626 1.04687-1.01563.6875-.375 1.54688-.375 1.31251 0 2.04688.64063.7344.625.7344 1.78124 0 .64063-.32814 1.29688-.32813.65625-1.125 1.53125l-1.93752 2.04687h3.65626zm5.26563 0h-1.6875v-6.53125l-2.01563.625v-1.375l3.53126-1.26563h.17187zm3.04687-.82812q0-.40626.26563-.65626.28127-.25.6875-.25.42187 0 .6875.25.28127.25.28127.65626 0 .39062-.28127.64062-.26563.25-.6875.25-.40623 0-.6875-.25-.26563-.25-.26563-.64062zm7.4375-7.79688v1.40625h-.15624q-1.15626.01563-1.85936.59375-.6875.57812-.82814 1.60938.67187-.6875 1.70314-.6875 1.125 0 1.78123.79687.65627.79687.65627 2.09375 0 .82812-.3594 1.5-.35937.67188-1.03124 1.0625-.65626.375-1.48436.375-1.34377 0-2.1719-.9375-.8281-.95312-.8281-2.51562v-.60938q0-1.39062.5156-2.45312.53126-1.0625 1.5-1.64063.9844-.57813 2.28126-.59375zm-1.65624 4.28125q-.40626 0-.75.21875-.32813.20312-.48436.5625v.51562q0 .84376.3281 1.32813.34376.46875.95313.46875.54687 0 .875-.42188.34377-.4375.34377-1.125 0-.70312-.34377-1.125-.34373-.42187-.92187-.42187zm4.3125.14063.5-4.32813h4.78124v1.40625h-3.3906l-.21877 1.84375q.60937-.32813 1.28127-.32813 1.21873 0 1.90623.76563.70313.75.70313 2.10937 0 .82813-.35936 1.48438-.34377.64062-1 1.01562-.64064.35938-1.53127.35938-.76563 0-1.4375-.3125-.65623-.32812-1.04687-.89062-.375-.5625-.40626-1.29688h1.6875q.0469.53125.3594.82812.3281.29688.84373.29688.57813 0 .875-.40625.3125-.42187.3125-1.17187 0-.73438-.35937-1.10938-.34376-.39062-1-.39062-.60936 0-.98436.3125l-.15627.15624z" fill="#fff"/><path d="m225.11757 242.5h-1.6875v-6.53125l-2.01563.625v-1.375l3.53126-1.26563h.17187zm8.6875-7.57812-3.29687 7.57812h-1.78126l3.29688-7.15625h-4.23438v-1.375h6.01563zm1.35937 6.75q0-.40626.26563-.65626.28125-.25.6875-.25.42187 0 .6875.25.28125.25.28125.65626 0 .39062-.28125.64062-.26563.25-.6875.25-.40625 0-.6875-.25-.26563-.25-.26563-.64062zm8.59376-2.70313q0 1.76563-.73438 2.71875-.73438.9375-2.14062.9375-1.40626 0-2.14063-.92188-.73437-.92187-.75-2.64062v-1.57812q0-1.78126.73437-2.70313.75-.9375 2.14063-.9375 1.39063 0 2.125.92187.75.92188.76563 2.64063zm-1.70313-1.71875q0-1.0625-.29687-1.54688-.28126-.48437-.89063-.48437-.59375 0-.89063.46875-.28124.45312-.29687 1.4375v2.0625q0 1.04688.28125 1.5625.28125.5.92188.5.60937 0 .89062-.48438.28125-.48437.28125-1.48437zm4.67187.23438h.90626q.64062 0 .95312-.3125.3125-.32813.3125-.85938 0-.51562-.3125-.79688-.29688-.29687-.84375-.29687-.48437 0-.8125.26563-.32813.26562-.32813.6875h-1.6875q0-.65626.35938-1.1875.35938-.53126 1-.82813.65625-.3125 1.4375-.3125 1.34375 0 2.10938.65625.78124.64062.78124 1.78125 0 .59375-.35937 1.09375-.35937.48438-.9375.73438.71875.26562 1.0625.78124.35937.51563.35937 1.21876 0 1.14062-.82812 1.82812-.82812.6875-2.1875.6875-1.28125 0-2.09375-.67188-.8125-.6875-.8125-1.79687h1.6875q0 .48437.35937.79687.375.29688.89063.29688.60937 0 .95313-.3125.34374-.32812.34374-.85938 0-1.26562-1.40624-1.26562h-.90626z" stroke="#38761d" stroke-linecap="round" stroke-linejoin="round" stroke-width="3"/><path d="m225.11757 242.5h-1.6875v-6.53125l-2.01563.625v-1.375l3.53126-1.26563h.17187zm8.6875-7.57812-3.29687 7.57812h-1.78126l3.29688-7.15625h-4.23438v-1.375h6.01563zm1.35937 6.75q0-.40626.26563-.65626.28125-.25.6875-.25.42187 0 .6875.25.28125.25.28125.65626 0 .39062-.28125.64062-.26563.25-.6875.25-.40625 0-.6875-.25-.26563-.25-.26563-.64062zm8.59376-2.70313q0 1.76563-.73438 2.71875-.73438.9375-2.14062.9375-1.40626 0-2.14063-.92188-.73437-.92187-.75-2.64062v-1.57812q0-1.78126.73437-2.70313.75-.9375 2.14063-.9375 1.39063 0 2.125.92187.75.92188.76563 2.64063zm-1.70313-1.71875q0-1.0625-.29687-1.54688-.28126-.48437-.89063-.48437-.59375 0-.89063.46875-.28124.45312-.29687 1.4375v2.0625q0 1.04688.28125 1.5625.28125.5.92188.5.60937 0 .89062-.48438.28125-.48437.28125-1.48437zm4.67187.23438h.90626q.64062 0 .95312-.3125.3125-.32813.3125-.85938 0-.51562-.3125-.79688-.29688-.29687-.84375-.29687-.48437 0-.8125.26563-.32813.26562-.32813.6875h-1.6875q0-.65626.35938-1.1875.35938-.53126 1-.82813.65625-.3125 1.4375-.3125 1.34375 0 2.10938.65625.78124.64062.78124 1.78125 0 .59375-.35937 1.09375-.35937.48438-.9375.73438.71875.26562 1.0625.78124.35937.51563.35937 1.21876 0 1.14062-.82812 1.82812-.82812.6875-2.1875.6875-1.28125 0-2.09375-.67188-.8125-.6875-.8125-1.79687h1.6875q0 .48437.35937.79687.375.29688.89063.29688.60937 0 .95313-.3125.34374-.32812.34374-.85938 0-1.26562-1.40624-1.26562h-.90626z" fill="#fff"/><path d="m216.08498 298.5h-1.6875v-6.53125l-2.01563.625v-1.375l3.53125-1.26563h.17188zm3.14062-4.20312.5-4.32813h4.78125v1.40625h-3.39062l-.21875 1.84375q.60937-.32813 1.28125-.32813 1.21875 0 1.90625.76563.70312.75.70312 2.10937 0 .82813-.35937 1.48438-.34375.64062-1 1.01562-.64063.35938-1.53125.35938-.76563 0-1.4375-.3125-.65625-.32812-1.04688-.89062-.375-.5625-.40625-1.29688h1.6875q.04688.53125.35938.82812.32812.29688.84375.29688.57812 0 .875-.40625.3125-.42187.3125-1.17187 0-.73438-.35938-1.10938-.34375-.39062-1-.39062-.60937 0-.98437.3125l-.15625.15624zm6.90625 3.375q0-.40626.26563-.65626.28125-.25.6875-.25.42187 0 .6875.25.28125.25.28125.65626 0 .39062-.28125.64062-.26563.25-.6875.25-.40625 0-.6875-.25-.26563-.25-.26563-.64062zm8.64063-6.75-3.29688 7.57812h-1.78125l3.29688-7.15625h-4.23438v-1.375h6.01563zm5.3125 7.57812h-1.6875v-6.53125l-2.01563.625v-1.375l3.53125-1.26563h.17188z" stroke="#38761d" stroke-linecap="round" stroke-linejoin="round" stroke-width="3"/><path d="m216.08498 298.5h-1.6875v-6.53125l-2.01563.625v-1.375l3.53125-1.26563h.17188zm3.14062-4.20312.5-4.32813h4.78125v1.40625h-3.39062l-.21875 1.84375q.60937-.32813 1.28125-.32813 1.21875 0 1.90625.76563.70312.75.70312 2.10937 0 .82813-.35937 1.48438-.34375.64062-1 1.01562-.64063.35938-1.53125.35938-.76563 0-1.4375-.3125-.65625-.32812-1.04688-.89062-.375-.5625-.40625-1.29688h1.6875q.04688.53125.35938.82812.32812.29688.84375.29688.57812 0 .875-.40625.3125-.42187.3125-1.17187 0-.73438-.35938-1.10938-.34375-.39062-1-.39062-.60937 0-.98437.3125l-.15625.15624zm6.90625 3.375q0-.40626.26563-.65626.28125-.25.6875-.25.42187 0 .6875.25.28125.25.28125.65626 0 .39062-.28125.64062-.26563.25-.6875.25-.40625 0-.6875-.25-.26563-.25-.26563-.64062zm8.64063-6.75-3.29688 7.57812h-1.78125l3.29688-7.15625h-4.23438v-1.375h6.01563zm5.3125 7.57812h-1.6875v-6.53125l-2.01563.625v-1.375l3.53125-1.26563h.17188z" fill="#fff"/><path d="m201.62238 355.5h-1.6875v-6.53125l-2.01563.625v-1.375l3.53125-1.26563h.17188zm4.60937-5.01562h.90625q.64063 0 .95313-.3125.3125-.32813.3125-.85938 0-.51562-.3125-.79688-.29688-.29687-.84375-.29687-.48438 0-.8125.26563-.32813.26562-.32813.6875h-1.6875q0-.65626.35938-1.1875.35937-.53126 1-.82813.65625-.3125 1.4375-.3125 1.34375 0 2.10937.65625.78125.64062.78125 1.78125 0 .59375-.35937 1.09375-.35938.48438-.9375.73438.71875.26562 1.0625.78124.35937.51563.35937 1.21876 0 1.14062-.82812 1.82812-.82813.6875-2.1875.6875-1.28125 0-2.09375-.67188-.8125-.6875-.8125-1.79687h1.6875q0 .48437.35937.79687.375.29688.89063.29688.60937 0 .95312-.3125.34375-.32812.34375-.85938 0-1.26562-1.40625-1.26562h-.90625zm5.4375 4.1875q0-.40626.26563-.65626.28125-.25.6875-.25.42187 0 .6875.25.28125.25.28125.65626 0 .39062-.28125.64062-.26563.25-.6875.25-.40625 0-.6875-.25-.26563-.25-.26563-.64062zm7.4375-7.79688v1.40625h-.15625q-1.15625.01563-1.85937.59375-.6875.57812-.82813 1.60938.67188-.6875 1.70313-.6875 1.125 0 1.78125.79687.65625.79687.65625 2.09375 0 .82812-.35938 1.5-.35937.67188-1.03125 1.0625-.65625.375-1.48437.375-1.34375 0-2.17188-.9375-.82812-.95312-.82812-2.51562v-.60938q0-1.39062.51562-2.45312.53125-1.0625 1.5-1.64063.98438-.57813 2.28125-.59375zm-1.65625 4.28125q-.40625 0-.75.21875-.32812.20312-.48437.5625v.51562q0 .84376.32812 1.32813.34375.46875.95313.46875.54687 0 .875-.42188.34375-.4375.34375-1.125 0-.70312-.34375-1.125-.34375-.42187-.92188-.42187zm8.17188 4.34375h-1.6875v-6.53125l-2.01563.625v-1.375l3.53125-1.26563h.17188z" stroke="#38761d" stroke-linecap="round" stroke-linejoin="round" stroke-width="3"/><path d="m201.62238 355.5h-1.6875v-6.53125l-2.01563.625v-1.375l3.53125-1.26563h.17188zm4.60937-5.01562h.90625q.64063 0 .95313-.3125.3125-.32813.3125-.85938 0-.51562-.3125-.79688-.29688-.29687-.84375-.29687-.48438 0-.8125.26563-.32813.26562-.32813.6875h-1.6875q0-.65626.35938-1.1875.35937-.53126 1-.82813.65625-.3125 1.4375-.3125 1.34375 0 2.10937.65625.78125.64062.78125 1.78125 0 .59375-.35937 1.09375-.35938.48438-.9375.73438.71875.26562 1.0625.78124.35937.51563.35937 1.21876 0 1.14062-.82812 1.82812-.82813.6875-2.1875.6875-1.28125 0-2.09375-.67188-.8125-.6875-.8125-1.79687h1.6875q0 .48437.35937.79687.375.29688.89063.29688.60937 0 .95312-.3125.34375-.32812.34375-.85938 0-1.26562-1.40625-1.26562h-.90625zm5.4375 4.1875q0-.40626.26563-.65626.28125-.25.6875-.25.42187 0 .6875.25.28125.25.28125.65626 0 .39062-.28125.64062-.26563.25-.6875.25-.40625 0-.6875-.25-.26563-.25-.26563-.64062zm7.4375-7.79688v1.40625h-.15625q-1.15625.01563-1.85937.59375-.6875.57812-.82813 1.60938.67188-.6875 1.70313-.6875 1.125 0 1.78125.79687.65625.79687.65625 2.09375 0 .82812-.35938 1.5-.35937.67188-1.03125 1.0625-.65625.375-1.48437.375-1.34375 0-2.17188-.9375-.82812-.95312-.82812-2.51562v-.60938q0-1.39062.51562-2.45312.53125-1.0625 1.5-1.64063.98438-.57813 2.28125-.59375zm-1.65625 4.28125q-.40625 0-.75.21875-.32812.20312-.48437.5625v.51562q0 .84376.32812 1.32813.34375.46875.95313.46875.54687 0 .875-.42188.34375-.4375.34375-1.125 0-.70312-.34375-1.125-.34375-.42187-.92188-.42187zm8.17188 4.34375h-1.6875v-6.53125l-2.01563.625v-1.375l3.53125-1.26563h.17188z" fill="#fff"/><path d="m198.75644 412.5h-1.6875v-6.53125l-2.01563.625v-1.375l3.53125-1.26563h.17188zm4.60937-5.01562h.90625q.64063 0 .95313-.3125.3125-.32813.3125-.85938 0-.51562-.3125-.79688-.29688-.29687-.84375-.29687-.48438 0-.8125.26563-.32813.26562-.32813.6875h-1.6875q0-.65626.35938-1.1875.35937-.53126 1-.82813.65625-.3125 1.4375-.3125 1.34375 0 2.10937.65625.78125.64062.78125 1.78125 0 .59375-.35937 1.09375-.35938.48438-.9375.73438.71875.26562 1.0625.78124.35937.51563.35937 1.21876 0 1.14062-.82812 1.82812-.82813.6875-2.1875.6875-1.28125 0-2.09375-.67188-.8125-.6875-.8125-1.79687h1.6875q0 .48437.35937.79687.375.29688.89063.29688.60937 0 .95312-.3125.34375-.32812.34375-.85938 0-1.26562-1.40625-1.26562h-.90625zm5.4375 4.1875q0-.40626.26563-.65626.28125-.25.6875-.25.42187 0 .6875.25.28125.25.28125.65626 0 .39062-.28125.64062-.26563.25-.6875.25-.40625 0-.6875-.25-.26563-.25-.26563-.64062zm6.95313.82812h-1.6875v-6.53125l-2.01563.625v-1.375l3.53125-1.26563h.17188zm6.85937-3.40625q-.67187.64063-1.54687.64063-1.14063 0-1.82813-.76563-.67187-.78125-.67187-2.09375 0-.84375.35937-1.54688.375-.70312 1.03125-1.09374.65625-.39063 1.48438-.39063.84375 0 1.5.42187.65625.42188 1.01562 1.21876.35938.79687.375 1.8125v.625q0 2.14062-1.0625 3.35937-1.0625 1.21875-3.01562 1.29687h-.40625v-1.40624l.375-.01563q2.20312-.09375 2.39062-2.0625zm-1.14062-.65625q.42187 0 .70312-.20312.29688-.21876.45313-.51563v-.6875q0-.85937-.32813-1.32813-.32812-.48437-.875-.48437-.51562 0-.84375.46875-.32812.45312-.32812 1.15625 0 .70313.3125 1.15625.32812.4375.90625.4375z" stroke="#38761d" stroke-linecap="round" stroke-linejoin="round" stroke-width="3"/><path d="m198.75644 412.5h-1.6875v-6.53125l-2.01563.625v-1.375l3.53125-1.26563h.17188zm4.60937-5.01562h.90625q.64063 0 .95313-.3125.3125-.32813.3125-.85938 0-.51562-.3125-.79688-.29688-.29687-.84375-.29687-.48438 0-.8125.26563-.32813.26562-.32813.6875h-1.6875q0-.65626.35938-1.1875.35937-.53126 1-.82813.65625-.3125 1.4375-.3125 1.34375 0 2.10937.65625.78125.64062.78125 1.78125 0 .59375-.35937 1.09375-.35938.48438-.9375.73438.71875.26562 1.0625.78124.35937.51563.35937 1.21876 0 1.14062-.82812 1.82812-.82813.6875-2.1875.6875-1.28125 0-2.09375-.67188-.8125-.6875-.8125-1.79687h1.6875q0 .48437.35937.79687.375.29688.89063.29688.60937 0 .95312-.3125.34375-.32812.34375-.85938 0-1.26562-1.40625-1.26562h-.90625zm5.4375 4.1875q0-.40626.26563-.65626.28125-.25.6875-.25.42187 0 .6875.25.28125.25.28125.65626 0 .39062-.28125.64062-.26563.25-.6875.25-.40625 0-.6875-.25-.26563-.25-.26563-.64062zm6.95313.82812h-1.6875v-6.53125l-2.01563.625v-1.375l3.53125-1.26563h.17188zm6.85937-3.40625q-.67187.64063-1.54687.64063-1.14063 0-1.82813-.76563-.67187-.78125-.67187-2.09375 0-.84375.35937-1.54688.375-.70312 1.03125-1.09374.65625-.39063 1.48438-.39063.84375 0 1.5.42187.65625.42188 1.01562 1.21876.35938.79687.375 1.8125v.625q0 2.14062-1.0625 3.35937-1.0625 1.21875-3.01562 1.29687h-.40625v-1.40624l.375-.01563q2.20312-.09375 2.39062-2.0625zm-1.14062-.65625q.42187 0 .70312-.20312.29688-.21876.45313-.51563v-.6875q0-.85937-.32813-1.32813-.32812-.48437-.875-.48437-.51562 0-.84375.46875-.32812.45312-.32812 1.15625 0 .70313.3125 1.15625.32812.4375.90625.4375z" fill="#fff"/><path d="m173.5431 462.23438q0 .625-.3125 1.10937-.3125.46875-.85937.76563.625.29687.98437.82812.375.51562.375 1.21875 0 1.14063-.78124 1.8125-.76563.65625-2.10938.65625-1.32812 0-2.10938-.65625-.76562-.67187-.76562-1.8125 0-.70313.35938-1.23437.35937-.53126.98437-.8125-.54687-.29688-.85937-.76563-.3125-.48437-.3125-1.10937 0-1.09376.71874-1.73438.73438-.65625 1.98438-.65625 1.25 0 1.96875.65625.73437.64062.73437 1.73438zm-1.51562 3.79687q0-.54687-.32812-.875-.3125-.34375-.85938-.34375-.54688 0-.875.32812-.3125.32813-.3125.89063 0 .54687.3125.89063.32812.32812.89062.32812.54688 0 .85938-.3125.3125-.32812.3125-.90625zm-.17188-3.71875q0-.5-.26562-.79688-.26562-.29687-.75-.29687-.46875 0-.73438.29687-.26562.28126-.26562.79688 0 .51562.26562.82812.26563.3125.73438.3125.48438 0 .75-.3125.26562-.3125.26562-.82812zm3.28126 5.35938q0-.40626.26562-.65626.28125-.25.6875-.25.42188 0 .6875.25.28125.25.28125.65626 0 .39062-.28125.64062-.26562.25-.6875.25-.40625 0-.6875-.25-.26562-.25-.26562-.64062zm8.6875.82812h-5.84376v-1.15625l2.76563-2.95313q.5625-.60937.82813-1.07812.28124-.46875.28124-.875 0-.57812-.29687-.89062-.28125-.32813-.8125-.32813-.57813 0-.90625.39063-.32812.39062-.32812 1.04687h-1.70313q0-.78125.375-1.42187.375-.65626 1.04687-1.01563.6875-.375 1.54688-.375 1.3125 0 2.04688.64063.73437.625.73437 1.78124 0 .64063-.32813 1.29688-.32812.65625-1.125 1.53125l-1.9375 2.04687h3.65626zm6.71874-6.26562q0 .625-.3125 1.10937-.3125.46875-.85937.76563.625.29687.98437.82812.375.51562.375 1.21875 0 1.14063-.78124 1.8125-.76563.65625-2.10938.65625-1.32812 0-2.10938-.65625-.76562-.67187-.76562-1.8125 0-.70313.35938-1.23437.35937-.53126.98437-.8125-.54687-.29688-.85937-.76563-.3125-.48437-.3125-1.10937 0-1.09376.71874-1.73438.73438-.65625 1.98438-.65625 1.25 0 1.96875.65625.73437.64062.73437 1.73438zm-1.51562 3.79687q0-.54687-.32812-.875-.3125-.34375-.85938-.34375-.54688 0-.875.32812-.3125.32813-.3125.89063 0 .54687.3125.89063.32812.32812.89062.32812.54688 0 .85938-.3125.3125-.32812.3125-.90625zm-.17188-3.71875q0-.5-.26562-.79688-.26562-.29687-.75-.29687-.46875 0-.73438.29687-.26562.28126-.26562.79688 0 .51562.26562.82812.26563.3125.73438.3125.48438 0 .75-.3125.26562-.3125.26562-.82812z" stroke="#38761d" stroke-linecap="round" stroke-linejoin="round" stroke-width="3"/><path d="m173.5431 462.23438q0 .625-.3125 1.10937-.3125.46875-.85937.76563.625.29687.98437.82812.375.51562.375 1.21875 0 1.14063-.78124 1.8125-.76563.65625-2.10938.65625-1.32812 0-2.10938-.65625-.76562-.67187-.76562-1.8125 0-.70313.35938-1.23437.35937-.53126.98437-.8125-.54687-.29688-.85937-.76563-.3125-.48437-.3125-1.10937 0-1.09376.71874-1.73438.73438-.65625 1.98438-.65625 1.25 0 1.96875.65625.73437.64062.73437 1.73438zm-1.51562 3.79687q0-.54687-.32812-.875-.3125-.34375-.85938-.34375-.54688 0-.875.32812-.3125.32813-.3125.89063 0 .54687.3125.89063.32812.32812.89062.32812.54688 0 .85938-.3125.3125-.32812.3125-.90625zm-.17188-3.71875q0-.5-.26562-.79688-.26562-.29687-.75-.29687-.46875 0-.73438.29687-.26562.28126-.26562.79688 0 .51562.26562.82812.26563.3125.73438.3125.48438 0 .75-.3125.26562-.3125.26562-.82812zm3.28126 5.35938q0-.40626.26562-.65626.28125-.25.6875-.25.42188 0 .6875.25.28125.25.28125.65626 0 .39062-.28125.64062-.26562.25-.6875.25-.40625 0-.6875-.25-.26562-.25-.26562-.64062zm8.6875.82812h-5.84376v-1.15625l2.76563-2.95313q.5625-.60937.82813-1.07812.28124-.46875.28124-.875 0-.57812-.29687-.89062-.28125-.32813-.8125-.32813-.57813 0-.90625.39063-.32812.39062-.32812 1.04687h-1.70313q0-.78125.375-1.42187.375-.65626 1.04687-1.01563.6875-.375 1.54688-.375 1.3125 0 2.04688.64063.73437.625.73437 1.78124 0 .64063-.32813 1.29688-.32812.65625-1.125 1.53125l-1.9375 2.04687h3.65626zm6.71874-6.26562q0 .625-.3125 1.10937-.3125.46875-.85937.76563.625.29687.98437.82812.375.51562.375 1.21875 0 1.14063-.78124 1.8125-.76563.65625-2.10938.65625-1.32812 0-2.10938-.65625-.76562-.67187-.76562-1.8125 0-.70313.35938-1.23437.35937-.53126.98437-.8125-.54687-.29688-.85937-.76563-.3125-.48437-.3125-1.10937 0-1.09376.71874-1.73438.73438-.65625 1.98438-.65625 1.25 0 1.96875.65625.73437.64062.73437 1.73438zm-1.51562 3.79687q0-.54687-.32812-.875-.3125-.34375-.85938-.34375-.54688 0-.875.32812-.3125.32813-.3125.89063 0 .54687.3125.89063.32812.32812.89062.32812.54688 0 .85938-.3125.3125-.32812.3125-.90625zm-.17188-3.71875q0-.5-.26562-.79688-.26562-.29687-.75-.29687-.46875 0-.73438.29687-.26562.28126-.26562.79688 0 .51562.26562.82812.26563.3125.73438.3125.48438 0 .75-.3125.26562-.3125.26562-.82812z" fill="#fff"/><path d="m165.01657 517.9219-3.29687 7.5781h-1.78125l3.29687-7.15625h-4.23437v-1.375h6.01562zm1.35938 6.75q0-.4063.26562-.6563.28125-.25.6875-.25.42188 0 .6875.25.28125.25.28125.6563 0 .3906-.28125.6406-.26562.25-.6875.25-.40625 0-.6875-.25-.26562-.25-.26562-.6406zm8.59375-2.70315q0 1.76565-.73438 2.71875-.73437.9375-2.14062.9375-1.40625 0-2.14063-.9219-.73437-.92185-.75-2.6406v-1.5781q0-1.7813.73438-2.70315.75-.9375 2.14062-.9375 1.39063 0 2.125.92185.75.9219.76563 2.64065zm-1.70313-1.71875q0-1.0625-.29687-1.5469-.28125-.48435-.89063-.48435-.59375 0-.89062.46875-.28125.4531-.29688 1.4375v2.0625q0 1.0469.28125 1.5625.28125.5.92188.5.60937 0 .89062-.4844.28125-.48435.28125-1.48435zm8.70313 1.71875q0 1.76565-.73438 2.71875-.73437.9375-2.14062.9375-1.40625 0-2.14063-.9219-.73437-.92185-.75-2.6406v-1.5781q0-1.7813.73438-2.70315.75-.9375 2.14062-.9375 1.39063 0 2.125.92185.75.9219.76563 2.64065zm-1.70313-1.71875q0-1.0625-.29687-1.5469-.28125-.48435-.89063-.48435-.59375 0-.89062.46875-.28125.4531-.29688 1.4375v2.0625q0 1.0469.28125 1.5625.28125.5.92188.5.60937 0 .89062-.4844.28125-.48435.28125-1.48435z" stroke="#38761d" stroke-linecap="round" stroke-linejoin="round" stroke-width="3"/><path d="m165.01657 517.9219-3.29687 7.5781h-1.78125l3.29687-7.15625h-4.23437v-1.375h6.01562zm1.35938 6.75q0-.4063.26562-.6563.28125-.25.6875-.25.42188 0 .6875.25.28125.25.28125.6563 0 .3906-.28125.6406-.26562.25-.6875.25-.40625 0-.6875-.25-.26562-.25-.26562-.6406zm8.59375-2.70315q0 1.76565-.73438 2.71875-.73437.9375-2.14062.9375-1.40625 0-2.14063-.9219-.73437-.92185-.75-2.6406v-1.5781q0-1.7813.73438-2.70315.75-.9375 2.14062-.9375 1.39063 0 2.125.92185.75.9219.76563 2.64065zm-1.70313-1.71875q0-1.0625-.29687-1.5469-.28125-.48435-.89063-.48435-.59375 0-.89062.46875-.28125.4531-.29688 1.4375v2.0625q0 1.0469.28125 1.5625.28125.5.92188.5.60937 0 .89062-.4844.28125-.48435.28125-1.48435zm8.70313 1.71875q0 1.76565-.73438 2.71875-.73437.9375-2.14062.9375-1.40625 0-2.14063-.9219-.73437-.92185-.75-2.6406v-1.5781q0-1.7813.73438-2.70315.75-.9375 2.14062-.9375 1.39063 0 2.125.92185.75.9219.76563 2.64065zm-1.70313-1.71875q0-1.0625-.29687-1.5469-.28125-.48435-.89063-.48435-.59375 0-.89062.46875-.28125.4531-.29688 1.4375v2.0625q0 1.0469.28125 1.5625.28125.5.92188.5.60937 0 .89062-.4844.28125-.48435.28125-1.48435z" fill="#fff"/><path d="m159.85419 573.875v1.40625h-.15625q-1.15625.01565-1.85938.59375-.6875.5781-.82812 1.6094.67187-.6875 1.70312-.6875 1.125 0 1.78125.79685.65625.79685.65625 2.09375 0 .8281-.35937 1.5-.35938.6719-1.03125 1.0625-.65625.375-1.48438.375-1.34375 0-2.17187-.9375-.82813-.9531-.82813-2.5156v-.6094q0-1.3906.51563-2.4531.53125-1.0625 1.5-1.64065.98437-.57815 2.28125-.59375zm-1.65625 4.28125q-.40625 0-.75.21875-.32813.2031-.48438.5625v.5156q0 .8438.32813 1.32815.34375.46875.95312.46875.54688 0 .875-.4219.34375-.4375.34375-1.125 0-.7031-.34375-1.125-.34375-.42185-.92187-.42185zm4.21875 3.51565q0-.4063.26562-.6563.28125-.25.6875-.25.42188 0 .6875.25.28125.25.28125.6563 0 .3906-.28125.6406-.26562.25-.6875.25-.40625 0-.6875-.25-.26562-.25-.26562-.6406zm7.85937-2.39065h.96875v1.375h-.96875v1.84375h-1.70312v-1.84375h-3.48438l-.07812-1.0625 3.54687-5.625h1.71875zm-3.57812 0h1.875v-3l-.10938.1875zm7.28125-1.79685h.90625q.64062 0 .95312-.3125.3125-.32815.3125-.8594 0-.5156-.3125-.7969-.29687-.29685-.84375-.29685-.48437 0-.8125.26565-.32812.2656-.32812.6875h-1.6875q0-.6563.35937-1.1875.35938-.5313 1-.82815.65625-.3125 1.4375-.3125 1.34375 0 2.10938.65625.78125.6406.78125 1.78125 0 .59375-.35938 1.09375-.35937.4844-.9375.7344.71875.2656 1.0625.7812.35938.51565.35938 1.2188 0 1.1406-.82813 1.8281-.82812.6875-2.1875.6875-1.28125 0-2.09375-.6719-.8125-.6875-.8125-1.79685h1.6875q0 .48435.35938.79685.375.2969.89062.2969.60938 0 .95313-.3125.34375-.3281.34375-.8594 0-1.2656-1.40625-1.2656h-.90625z" stroke="#38761d" stroke-linecap="round" stroke-linejoin="round" stroke-width="3"/><path d="m159.85419 573.875v1.40625h-.15625q-1.15625.01565-1.85938.59375-.6875.5781-.82812 1.6094.67187-.6875 1.70312-.6875 1.125 0 1.78125.79685.65625.79685.65625 2.09375 0 .8281-.35937 1.5-.35938.6719-1.03125 1.0625-.65625.375-1.48438.375-1.34375 0-2.17187-.9375-.82813-.9531-.82813-2.5156v-.6094q0-1.3906.51563-2.4531.53125-1.0625 1.5-1.64065.98437-.57815 2.28125-.59375zm-1.65625 4.28125q-.40625 0-.75.21875-.32813.2031-.48438.5625v.5156q0 .8438.32813 1.32815.34375.46875.95312.46875.54688 0 .875-.4219.34375-.4375.34375-1.125 0-.7031-.34375-1.125-.34375-.42185-.92187-.42185zm4.21875 3.51565q0-.4063.26562-.6563.28125-.25.6875-.25.42188 0 .6875.25.28125.25.28125.6563 0 .3906-.28125.6406-.26562.25-.6875.25-.40625 0-.6875-.25-.26562-.25-.26562-.6406zm7.85937-2.39065h.96875v1.375h-.96875v1.84375h-1.70312v-1.84375h-3.48438l-.07812-1.0625 3.54687-5.625h1.71875zm-3.57812 0h1.875v-3l-.10938.1875zm7.28125-1.79685h.90625q.64062 0 .95312-.3125.3125-.32815.3125-.8594 0-.5156-.3125-.7969-.29687-.29685-.84375-.29685-.48437 0-.8125.26565-.32812.2656-.32812.6875h-1.6875q0-.6563.35937-1.1875.35938-.5313 1-.82815.65625-.3125 1.4375-.3125 1.34375 0 2.10938.65625.78125.6406.78125 1.78125 0 .59375-.35938 1.09375-.35937.4844-.9375.7344.71875.2656 1.0625.7812.35938.51565.35938 1.2188 0 1.1406-.82813 1.8281-.82812.6875-2.1875.6875-1.28125 0-2.09375-.6719-.8125-.6875-.8125-1.79685h1.6875q0 .48435.35938.79685.375.2969.89062.2969.60938 0 .95313-.3125.34375-.3281.34375-.8594 0-1.2656-1.40625-1.2656h-.90625z" fill="#fff"/><path d="m314.9386 639.5h-5.84375v-1.15625l2.76562-2.95315q.5625-.60935.82813-1.0781.28125-.46875.28125-.875 0-.5781-.29688-.8906-.28125-.32815-.8125-.32815-.57812 0-.90625.39065-.32812.3906-.32812 1.04685h-1.70313q0-.78125.375-1.42185.375-.6563 1.04688-1.01565.6875-.375 1.54687-.375 1.3125 0 2.04688.64065.73437.625.73437 1.7812 0 .64065-.32812 1.2969-.32813.65625-1.125 1.53125l-1.9375 2.04685h3.65625zm5.125-3.40625q-.67188.64065-1.54688.64065-1.14062 0-1.82812-.76565-.67188-.78125-.67188-2.09375 0-.84375.35938-1.5469.375-.7031 1.03125-1.0937.65625-.39065 1.48437-.39065.84375 0 1.5.42185.65625.4219 1.01563 1.2188.35937.79685.375 1.8125v.625q0 2.1406-1.0625 3.35935-1.0625 1.21875-3.01563 1.29685h-.40625v-1.4062l.375-.01565q2.20313-.09375 2.39063-2.0625zm-1.14063-.65625q.42188 0 .70313-.2031.29687-.2188.45312-.51565v-.6875q0-.85935-.32812-1.32815-.32813-.48435-.875-.48435-.51563 0-.84375.46875-.32813.4531-.32813 1.15625 0 .70315.3125 1.15625.32813.4375.90625.4375zm4.32813 3.2344q0-.4063.26562-.6563.28125-.25.6875-.25.42188 0 .6875.25.28125.25.28125.6563 0 .3906-.28125.6406-.26562.25-.6875.25-.40625 0-.6875-.25-.26562-.25-.26562-.6406zm8.40625-5.4375q0 .625-.3125 1.10935-.3125.46875-.85938.76565.625.29685.98438.8281.375.5156.375 1.21875 0 1.14065-.78125 1.8125-.76563.65625-2.10938.65625-1.32812 0-2.10937-.65625-.76563-.67185-.76563-1.8125 0-.70315.35938-1.23435.35937-.5313.98437-.8125-.54687-.2969-.85937-.76565-.3125-.48435-.3125-1.10935 0-1.0938.71875-1.7344.73437-.65625 1.98437-.65625 1.25 0 1.96875.65625.73438.6406.73438 1.7344zm-1.51563 3.79685q0-.54685-.32812-.875-.3125-.34375-.85938-.34375-.54687 0-.875.3281-.3125.32815-.3125.89065 0 .54685.3125.89065.32813.3281.89063.3281.54687 0 .85937-.3125.3125-.3281.3125-.90625zm-.17187-3.71875q0-.5-.26563-.7969-.26562-.29685-.75-.29685-.46875 0-.73437.29685-.26563.2813-.26563.7969 0 .5156.26563.8281.26562.3125.73437.3125.48438 0 .75-.3125.26563-.3125.26563-.8281zm8.92187-1.3906-3.29687 7.5781h-1.78125l3.29687-7.15625h-4.23437v-1.375h6.01562z" stroke="#38761d" stroke-linecap="round" stroke-linejoin="round" stroke-width="3"/><path d="m314.9386 639.5h-5.84375v-1.15625l2.76562-2.95315q.5625-.60935.82813-1.0781.28125-.46875.28125-.875 0-.5781-.29688-.8906-.28125-.32815-.8125-.32815-.57812 0-.90625.39065-.32812.3906-.32812 1.04685h-1.70313q0-.78125.375-1.42185.375-.6563 1.04688-1.01565.6875-.375 1.54687-.375 1.3125 0 2.04688.64065.73437.625.73437 1.7812 0 .64065-.32812 1.2969-.32813.65625-1.125 1.53125l-1.9375 2.04685h3.65625zm5.125-3.40625q-.67188.64065-1.54688.64065-1.14062 0-1.82812-.76565-.67188-.78125-.67188-2.09375 0-.84375.35938-1.5469.375-.7031 1.03125-1.0937.65625-.39065 1.48437-.39065.84375 0 1.5.42185.65625.4219 1.01563 1.2188.35937.79685.375 1.8125v.625q0 2.1406-1.0625 3.35935-1.0625 1.21875-3.01563 1.29685h-.40625v-1.4062l.375-.01565q2.20313-.09375 2.39063-2.0625zm-1.14063-.65625q.42188 0 .70313-.2031.29687-.2188.45312-.51565v-.6875q0-.85935-.32812-1.32815-.32813-.48435-.875-.48435-.51563 0-.84375.46875-.32813.4531-.32813 1.15625 0 .70315.3125 1.15625.32813.4375.90625.4375zm4.32813 3.2344q0-.4063.26562-.6563.28125-.25.6875-.25.42188 0 .6875.25.28125.25.28125.6563 0 .3906-.28125.6406-.26562.25-.6875.25-.40625 0-.6875-.25-.26562-.25-.26562-.6406zm8.40625-5.4375q0 .625-.3125 1.10935-.3125.46875-.85938.76565.625.29685.98438.8281.375.5156.375 1.21875 0 1.14065-.78125 1.8125-.76563.65625-2.10938.65625-1.32812 0-2.10937-.65625-.76563-.67185-.76563-1.8125 0-.70315.35938-1.23435.35937-.5313.98437-.8125-.54687-.2969-.85937-.76565-.3125-.48435-.3125-1.10935 0-1.0938.71875-1.7344.73437-.65625 1.98437-.65625 1.25 0 1.96875.65625.73438.6406.73438 1.7344zm-1.51563 3.79685q0-.54685-.32812-.875-.3125-.34375-.85938-.34375-.54687 0-.875.3281-.3125.32815-.3125.89065 0 .54685.3125.89065.32813.3281.89063.3281.54687 0 .85937-.3125.3125-.3281.3125-.90625zm-.17187-3.71875q0-.5-.26563-.7969-.26562-.29685-.75-.29685-.46875 0-.73437.29685-.26563.2813-.26563.7969 0 .5156.26563.8281.26562.3125.73437.3125.48438 0 .75-.3125.26563-.3125.26563-.8281zm8.92187-1.3906-3.29687 7.5781h-1.78125l3.29687-7.15625h-4.23437v-1.375h6.01562z" fill="#fff"/><g fill="#000"><path d="m89.22813 70.877686h4.89062v.921874h-6.21875v-.84375l4.6875-6.765624h-4.60937v-.921876h5.95312v.828126zm8.07812-.546876 1.57813-4.875h1.10937l-2.28125 6.34375h-.82812l-2.29688-6.34375h1.10938zm5.09375 1.46875h-1.07812v-6.34375h1.07812zm-1.17187-8.015624q0-.265626.15625-.453126.17187-.1875.48437-.1875.3125 0 .46875.1875.17188.1875.17188.453126 0 .25-.17188.4375-.15625.171874-.46875.171874-.3125 0-.48437-.171874-.15625-.1875-.15625-.4375zm5.625 8.140624q-1.29688 0-2.10938-.84375-.79687-.859374-.79687-2.28125v-.1875q0-.953124.35937-1.6875.35938-.75 1-1.15625.65625-.421874 1.40625-.421874 1.23438 0 1.92188.8125.6875.8125.6875 2.328124v.453126h-4.29688q.03125.9375.54688 1.515624.53125.578126 1.34375.578126.5625 0 .95312-.234376.40625-.234374.71875-.625l.65625.515626q-.79687 1.234374-2.39062 1.234374zm-.14063-5.6875q-.65625 0-1.10937.484376-.4375.46875-.53125 1.328124h3.17187v-.078124q-.04687-.828126-.45312-1.28125-.39063-.453126-1.07813-.453126zm3.25 2.34375q0-1.46875.6875-2.34375.6875-.890624 1.8125-.890624 1.10938 0 1.76563.75v-3.296876h1.07812v9h-1l-.04687-.6875q-.65625.8125-1.8125.8125-1.09375 0-1.79688-.90625-.6875-.90625-.6875-2.359374zm1.07813.125q0 1.078126.4375 1.6875.45312.609376 1.23437.609376 1.03125 0 1.51563-.9375v-2.90625q-.48438-.890626-1.5-.890626-.79688 0-1.25.609376-.4375.609374-.4375 1.828124zm9.25-2.28125q-.25-.03125-.53125-.03125-1.07813 0-1.45313.90625v4.5h-1.07812v-6.34375h1.04687l.01563.734376q.53125-.84375 1.51562-.84375.3125 0 .48438.078124zm2.10937 5.375h-1.07812v-6.34375h1.07812zm-1.17187-8.015624q0-.265626.15625-.453126.17187-.1875.48437-.1875.3125 0 .46875.1875.17188.1875.17188.453126 0 .25-.17188.4375-.15625.171874-.46875.171874-.3125 0-.48437-.171874-.15625-.1875-.15625-.4375zm4.10937 1.671874v7.078126q0 1.828124-1.65625 1.828124-.35937 0-.65625-.109374v-.859376q.1875.046876.48438.046876.35937 0 .54687-.203126.20313-.1875.20313-.6875v-7.09375zm-1.1875-1.671874q0-.265626.15625-.453126.15625-.1875.46875-.1875.3125 0 .46875.1875.17188.1875.17188.453126 0 .25-.17188.4375-.15625.171874-.46875.171874-.3125 0-.46875-.171874-.15625-.1875-.15625-.4375zm6.98437 8.015624q-.09375-.1875-.15625-.671874-.75.796874-1.79688.796874-.9375 0-1.54686-.53125-.59375-.53125-.59375-1.359374 0-.984376.75-1.53125.74999-.546876 2.12499-.546876h1.04688v-.5q0-.5625-.34376-.890624-.32812-.34375-1-.34375-.57812 0-.96874.296874-.39063.28125-.39063.703126h-1.09374q0-.484376.32812-.921876.34375-.4375.92187-.6875.57812-.265624 1.26562-.265624 1.10938 0 1.71876.546874.625.546876.65624 1.5v2.921876q0 .875.21876 1.390624v.09375zm-1.79687-.828124q.51562 0 .96874-.265626.45313-.265624.65626-.6875v-1.296874h-.84376q-2 0-2 1.171874 0 .5.34376.796876.34374.28125.875.28125z"/><path d="m103.2125 127.03964 2.4375-7.03125h1.23438l-3.17188 8.53125h-.98437l-3.15625-8.53125h1.21875zm8.92188 1.5q-.09375-.1875-.15625-.67187-.75.79687-1.79688.79687-.9375 0-1.54687-.53125-.59375-.53125-.59375-1.35937 0-.98438.75-1.53125.75-.54688 2.125-.54688h1.04687v-.5q0-.5625-.34375-.89062-.32812-.34375-1-.34375-.57812 0-.96875.29687-.39062.28125-.39062.70313h-1.09375q0-.48438.32812-.92188.34375-.4375.92188-.6875.57812-.26562 1.26562-.26562 1.10938 0 1.71875.54687.625.54688.65625 1.5v2.92188q0 .875.21875 1.39062v.09375zm-1.79688-.82812q.51563 0 .96875-.26563.45313-.26562.65625-.6875v-1.29687h-.84375q-2 0-2 1.17187 0 .5.34375.79688.34375.28125.875.28125zm2.46875-6.84375h-3.9375v-.84375h3.9375zm4.95313 6.90625q.57812 0 1.01562-.34375.4375-.35938.48438-.89063h1.03125q-.03125.54688-.39063 1.04688-.34375.48437-.92187.78125-.5625.29687-1.21875.29687-1.29688 0-2.0625-.85937-.75-.875-.75-2.375v-.1875q0-.92188.32812-1.64063.34375-.71875.96875-1.10937.64063-.40625 1.51563-.40625 1.0625 0 1.76562.64062.71875.625.76563 1.65625h-1.03125q-.04688-.625-.46875-1.01562-.42188-.39063-1.03125-.39063-.82813 0-1.28125.59375-.45313.59375-.45313 1.71875v.20313q0 1.09375.45313 1.6875.45312.59375 1.28125.59375zm4.64062.76562h-1.07812v-6.34375h1.07812zm-1.17187-8.01562q0-.26563.15625-.45313.17187-.1875.48437-.1875.3125 0 .46875.1875.17188.1875.17188.45313 0 .25-.17188.4375-.15625.17187-.46875.17187-.3125 0-.48437-.17187-.15625-.1875-.15625-.4375zm4.10937 1.67187v7.07813q0 1.82812-1.65625 1.82812-.35937 0-.65625-.10937v-.85938q.1875.04688.48438.04688.35937 0 .54687-.20313.20313-.1875.20313-.6875v-7.09375zm-1.1875-1.67187q0-.26563.15625-.45313.15625-.1875.46875-.1875.3125 0 .46875.1875.17188.1875.17188.45313 0 .25-.17188.4375-.15625.17187-.46875.17187-.3125 0-.46875-.17187-.15625-.1875-.15625-.4375zm6.98437 8.01562q-.09375-.1875-.15625-.67187-.75.79687-1.79688.79687-.9375 0-1.54686-.53125-.59375-.53125-.59375-1.35937 0-.98438.75-1.53125.74999-.54688 2.12499-.54688h1.04688v-.5q0-.5625-.34376-.89062-.32812-.34375-1-.34375-.57812 0-.96874.29687-.39063.28125-.39063.70313h-1.09374q0-.48438.32812-.92188.34375-.4375.92187-.6875.57812-.26562 1.26562-.26562 1.10938 0 1.71876.54687.625.54688.65624 1.5v2.92188q0 .875.21876 1.39062v.09375zm-1.79687-.82812q.51562 0 .96874-.26563.45313-.26562.65626-.6875v-1.29687h-.84376q-2 0-2 1.17187 0 .5.34376.79688.34374.28125.875.28125z"/><path d="m99.38438 185.27974v-8.53125h2.42187q1.10938 0 1.95313.5.85937.48437 1.32812 1.39062.46875.90625.46875 2.09375v.53125q0 1.21875-.46875 2.125-.45312.90625-1.32812 1.39063-.85938.48437-2 .5zm1.125-7.60938v6.6875h1.1875q1.29687 0 2.01562-.79687.73438-.8125.73438-2.3125v-.5q0-1.45313-.6875-2.25-.67188-.8125-1.9375-.82813zm10.625 7.60938q-.09375-.1875-.15625-.67188-.75.79688-1.79688.79688-.9375 0-1.54687-.53125-.59375-.53125-.59375-1.35938 0-.98437.75-1.53125.75-.54687 2.125-.54687h1.04687v-.5q0-.5625-.34375-.89063-.32812-.34375-1-.34375-.57812 0-.96875.29688-.39062.28125-.39062.70312h-1.09375q0-.48437.32812-.92187.34375-.4375.92188-.6875.57812-.26563 1.26562-.26563 1.10938 0 1.71875.54688.625.54687.65625 1.5v2.92187q0 .875.21875 1.39063v.09375zm-1.79688-.82813q.51563 0 .96875-.26562.45313-.26563.65625-.6875v-1.29688h-.84375q-2 0-2 1.17188 0 .5.34375.79687.34375.28125.875.28125zm2.46875-6.84375h-3.9375v-.84375h3.9375zm3.4375 1.32813.03125.79687q.73438-.90625 1.90625-.90625 2.01563 0 2.03125 2.26563v4.1875h-1.09375v-4.20313q0-.67187-.3125-1-.29687-.32812-.95312-.32812-.53125 0-.9375.28125-.39063.28125-.60938.73437v4.51563h-1.07812v-6.34375zm7.15625 6.34375h-1.07812v-6.34375h1.07812zm-1.17187-8.01563q0-.26562.15625-.45312.17187-.1875.48437-.1875.3125 0 .46875.1875.17188.1875.17188.45312 0 .25-.17188.4375-.15625.17188-.46875.17188-.3125 0-.48437-.17188-.15625-.1875-.15625-.4375zm4.10937 1.67188v7.07812q0 1.82813-1.65625 1.82813-.35937 0-.65625-.10938v-.85937q.1875.04687.48438.04687.35937 0 .54687-.20312.20313-.1875.20313-.6875v-7.09375zm-1.1875-1.67188q0-.26562.15625-.45312.15625-.1875.46875-.1875.3125 0 .46875.1875.17188.1875.17188.45312 0 .25-.17188.4375-.15625.17188-.46875.17188-.3125 0-.46875-.17188-.15625-.1875-.15625-.4375zm6.98437 8.01563q-.09375-.1875-.15625-.67188-.75.79688-1.79688.79688-.9375 0-1.54686-.53125-.59375-.53125-.59375-1.35938 0-.98437.75-1.53125.74999-.54687 2.12499-.54687h1.04688v-.5q0-.5625-.34376-.89063-.32812-.34375-1-.34375-.57812 0-.96874.29688-.39063.28125-.39063.70312h-1.09374q0-.48437.32812-.92187.34375-.4375.92187-.6875.57812-.26563 1.26562-.26563 1.10938 0 1.71876.54688.625.54687.65624 1.5v2.92187q0 .875.21876 1.39063v.09375zm-1.79687-.82813q.51562 0 .96874-.26562.45313-.26563.65626-.6875v-1.29688h-.84376q-2 0-2 1.17188 0 .5.34376.79687.34374.28125.875.28125z"/><path d="m91.60313 242.01982h-1.125v-8.53125h1.125zm1.35937-3.21875q0-1.48437.6875-2.35937.6875-.875 1.8125-.875 1.15625 0 1.8125.8125l.04688-.70313h1v6.1875q0 1.23438-.73438 1.9375-.73437.71875-1.95312.71875-.6875 0-1.34375-.29687-.65625-.29688-1-.79688l.5625-.65625q.6875.85938 1.70312.85938.78125 0 1.21875-.45313.45313-.4375.45313-1.25v-.54687q-.65625.76562-1.78125.76562-1.10938 0-1.79688-.89062-.6875-.90625-.6875-2.45313zm1.09375.125q0 1.0625.4375 1.6875.4375.60938 1.23438.60938 1.01562 0 1.5-.9375v-2.89063q-.5-.90625-1.5-.90625-.78125 0-1.23438.60938-.4375.60937-.4375 1.82812zm10.07813 3.09375q-.09375-.1875-.15625-.67187-.75.79687-1.79688.79687-.9375 0-1.54687-.53125-.59375-.53125-.59375-1.35937 0-.98438.75-1.53125.75-.54688 2.125-.54688h1.04687v-.5q0-.5625-.34375-.89062-.32812-.34375-1-.34375-.57812 0-.96875.29687-.39062.28125-.39062.70313h-1.09375q0-.48438.32812-.92188.34375-.4375.92188-.6875.57812-.26562 1.26562-.26562 1.10938 0 1.71875.54687.625.54688.65625 1.5v2.92188q0 .875.21875 1.39062v.09375zm-1.79688-.82812q.51563 0 .96875-.26563.45313-.26562.65625-.6875v-1.29687h-.84375q-2 0-2 1.17187 0 .5.34375.79688.34375.28125.875.28125zm8.79688.20312q-.625.75-1.85938.75-1.01562 0-1.54687-.59375-.53125-.59375-.53125-1.75v-4.125h1.07812v4.09375q0 1.45313 1.17188 1.45313 1.25 0 1.65625-.9375v-4.60938h1.09375v6.34375h-1.03125zm4.10937-5.71875.03125.79688q.73438-.90625 1.90625-.90625 2.01563 0 2.03125 2.26562v4.1875h-1.09375v-4.20312q0-.67188-.3125-1-.29687-.32813-.95312-.32813-.53125 0-.9375.28125-.39063.28125-.60938.73438v4.51562h-1.07812v-6.34375zm7.15625 6.34375h-1.07812v-6.34375h1.07812zm-1.17187-8.01562q0-.26563.15625-.45313.17187-.1875.48437-.1875.3125 0 .46875.1875.17188.1875.17188.45313 0 .25-.17188.4375-.15625.17187-.46875.17187-.3125 0-.48437-.17187-.15625-.1875-.15625-.4375zm4.10937 1.67187v7.07813q0 1.82812-1.65625 1.82812-.35937 0-.65625-.10937v-.85938q.1875.04688.48438.04688.35937 0 .54687-.20313.20313-.1875.20313-.6875v-7.09375zm-1.1875-1.67187q0-.26563.15625-.45313.15625-.1875.46875-.1875.3125 0 .46875.1875.17188.1875.17188.45313 0 .25-.17188.4375-.15625.17187-.46875.17187-.3125 0-.46875-.17187-.15625-.1875-.15625-.4375zm6.98437 8.01562q-.09375-.1875-.15625-.67187-.75.79687-1.79688.79687-.9375 0-1.54686-.53125-.59375-.53125-.59375-1.35937 0-.98438.75-1.53125.74999-.54688 2.12499-.54688h1.04688v-.5q0-.5625-.34376-.89062-.32812-.34375-1-.34375-.57812 0-.96874.29687-.39063.28125-.39063.70313h-1.09374q0-.48438.32812-.92188.34375-.4375.92187-.6875.57812-.26562 1.26562-.26562 1.10938 0 1.71876.54687.625.54688.65624 1.5v2.92188q0 .875.21876 1.39062v.09375zm-1.79687-.82812q.51562 0 .96874-.26563.45313-.26562.65626-.6875v-1.29687h-.84376q-2 0-2 1.17187 0 .5.34376.79688.34374.28125.875.28125z"/><path d="m96.525 297.83804h4.04688v.92188h-5.1875v-8.53125h1.14062zm5.875.92188h-1.07812v-6.34375h1.07812zm-1.17187-8.01562q0-.26563.15625-.45313.17187-.1875.48437-.1875.3125 0 .46875.1875.17188.1875.17188.45313 0 .25-.17188.4375-.15625.17187-.46875.17187-.3125 0-.48437-.17187-.15625-.1875-.15625-.4375zm5.625 8.14062q-1.29688 0-2.10938-.84375-.79687-.85937-.79687-2.28125v-.1875q0-.95312.35937-1.6875.35938-.75 1-1.15625.65625-.42187 1.40625-.42187 1.23438 0 1.92188.8125.6875.8125.6875 2.32812v.45312h-4.29688q.03125.9375.54688 1.51563.53125.57813 1.34375.57813.5625 0 .95312-.23438.40625-.23438.71875-.625l.65625.51562q-.79687 1.23438-2.39062 1.23438zm-.14063-5.6875q-.65625 0-1.10937.48438-.4375.46874-.53125 1.32812h3.17187v-.07812q-.04687-.82813-.45312-1.28126-.39063-.45312-1.07813-.45312zm4.98438-2.3125v1.53125h1.17187v.84375h-1.17187v3.92188q0 .39062.15625.57812.15625.1875.53125.1875.1875 0 .51562-.0625v.875q-.42187.125-.82812.125-.71875 0-1.09375-.4375-.375-.45312-.375-1.26562v-3.92188h-1.15625v-.84375h1.15625v-1.53125zm6.4375 7.25q-.625.75-1.85938.75-1.01562 0-1.54687-.59375-.53125-.59375-.53125-1.75v-4.125h1.07812v4.09375q0 1.45312 1.17188 1.45312 1.25 0 1.65625-.9375v-4.60937h1.09375v6.34375h-1.03125zm5.17187-.84375 1.57813-4.875h1.10937l-2.28125 6.34375h-.82812l-2.29688-6.34375h1.10938zm7.82812 1.46875q-.09375-.1875-.15625-.67188-.75.79688-1.79688.79688-.9375 0-1.54686-.53125-.59375-.53125-.59375-1.35937 0-.98438.75-1.53126.74999-.54687 2.12499-.54687h1.04688v-.5q0-.5625-.34376-.89063-.32812-.34374-1-.34374-.57812 0-.96874.29687-.39063.28125-.39063.70313h-1.09374q0-.48438.32812-.92188.34375-.4375.92187-.6875.57812-.26562 1.26562-.26562 1.10938 0 1.71876.54687.625.54687.65624 1.5v2.92187q0 .875.21876 1.39063v.09375zm-1.79687-.82812q.51562 0 .96874-.26563.45313-.26563.65626-.6875v-1.29687h-.84376q-2 0-2 1.17187 0 .5.34376.79687.34374.28126.875.28126z"/><path d="m84.10313 345.76562h-3.57813l-.79687 2.23438h-1.15625l3.25-8.53125h.98437l3.26563 8.53125h-1.15625zm-3.23438-.92187h2.90625l-1.45312-3.98437zm11.70313.0625q0 1.4375-.65625 2.32813-.65625.89062-1.79688.89062-1.15625 0-1.8125-.73438v3.04688h-1.07812v-8.78125h.98437l.04688.70313q.67187-.8125 1.84375-.8125 1.14062 0 1.79687.85937.67188.85937.67188 2.39063zm-1.07813-.125q0-1.07813-.46875-1.6875-.45312-.625-1.25-.625-.98437 0-1.46875.85937v3.03126q.48438.875 1.48438.875.78125 0 1.23437-.60938.46875-.625.46875-1.84375zm4.8125 1.75 1.57813-4.875h1.10937l-2.28125 6.34375h-.82812l-2.29688-6.34375h1.10938zm5.09375 1.46875h-1.07812v-6.34375h1.07812zm-1.17187-8.01562q0-.26563.15625-.45313.17187-.1875.48437-.1875.3125 0 .46875.1875.17188.1875.17188.45313 0 .25-.17188.4375-.15625.17187-.46875.17187-.3125 0-.48437-.17187-.15625-.1875-.15625-.4375zm5.625 8.14062q-1.29688 0-2.10938-.84375-.79687-.85937-.79687-2.28125v-.1875q0-.95312.35937-1.6875.35938-.75 1-1.15625.65625-.42187 1.40625-.42187 1.23438 0 1.92188.8125.6875.8125.6875 2.32812v.45312h-4.29688q.03125.9375.54688 1.51563.53125.57813 1.34375.57813.5625 0 .95312-.23438.40625-.23438.71875-.625l.65625.51562q-.79687 1.23438-2.39062 1.23438zm-.14063-5.6875q-.65625 0-1.10937.48438-.4375.46874-.53125 1.32812h3.17187v-.07812q-.04687-.82813-.45312-1.28126-.39063-.45312-1.07813-.45312zm4.53125-.78125.03125.79687q.73438-.90624 1.90625-.90624 2.01563 0 2.03125 2.26562v4.1875h-1.09375v-4.20312q0-.67188-.3125-1-.29687-.32813-.95312-.32813-.53125 0-.9375.28125-.39063.28125-.60938.73438v4.51562h-1.07812v-6.34375zm5.6875 3.10937q0-.92187.35938-1.67187.375-.75 1.03125-1.14063.65625-.40624 1.48437-.40624 1.29688 0 2.09375.89062.8125.89062.8125 2.39062v.07813q0 .92187-.35937 1.65625-.35938.73438-1.01563 1.15625-.65625.40625-1.51562.40625-1.28125 0-2.09375-.89062-.79688-.90626-.79688-2.39063zm1.09375.14063q0 1.04687.48438 1.6875.5.64063 1.3125.64063.82812 0 1.3125-.64063.48437-.65625.48437-1.82813 0-1.03124-.5-1.67187-.48437-.65625-1.3125-.65625-.79687 0-1.29687.64062-.48438.625-.48438 1.82813zm7.67188-4.78125v1.53125h1.17187v.84375h-1.17187v3.92188q0 .39062.15625.57812.15625.1875.53125.1875.1875 0 .51562-.0625v.875q-.42187.125-.82812.125-.71875 0-1.09375-.4375-.375-.45312-.375-1.26562v-3.92188h-1.15625v-.84375h1.15625v-1.53125zm6.43749 7.875q-.09375-.1875-.15625-.67188-.75.79688-1.79688.79688-.9375 0-1.54686-.53125-.59375-.53125-.59375-1.35937 0-.98438.75-1.53126.74999-.54687 2.12499-.54687h1.04688v-.5q0-.5625-.34376-.89063-.32812-.34374-1-.34374-.57812 0-.96874.29687-.39063.28125-.39063.70313h-1.09374q0-.48438.32812-.92188.34375-.4375.92187-.6875.57812-.26562 1.26562-.26562 1.10938 0 1.71876.54687.625.54687.65624 1.5v2.92187q0 .875.21876 1.39063v.09375zm-1.79687-.82812q.51562 0 .96874-.26563.45313-.26563.65626-.6875v-1.29687h-.84376q-2 0-2 1.17187 0 .5.34376.79687.34374.28126.875.28126zm2.46874-6.84376h-3.93749v-.84374h3.93749z"/><path d="m88.55625 359.03125-1.04687 1.07813v2.89062h-1.125v-8.53125h1.125v4.21875l3.79687-4.21875h1.35938l-3.35938 3.76563 3.625 4.76562h-1.34375zm9.57813 3.96875q-.09375-.1875-.15625-.67188-.75.79688-1.79688.79688-.9375 0-1.54687-.53125-.59375-.53125-.59375-1.35937 0-.98438.75-1.53126.75-.54687 2.125-.54687h1.04687v-.5q0-.5625-.34375-.89063-.32812-.34374-1-.34374-.57812 0-.96875.29687-.39062.28125-.39062.70313h-1.09375q0-.48438.32812-.92188.34375-.4375.92188-.6875.57812-.26562 1.26562-.26562 1.10938 0 1.71875.54687.625.54687.65625 1.5v2.92187q0 .875.21875 1.39063v.09375zm-1.79688-.82812q.51563 0 .96875-.26563.45313-.26563.65625-.6875v-1.29687h-.84375q-2 0-2 1.17187 0 .5.34375.79687.34375.28126.875.28126zm7.95313-4.54688q-.25-.03125-.53125-.03125-1.07813 0-1.45313.90625v4.5h-1.07812v-6.34375h1.04687l.01563.73437q.53125-.84374 1.51562-.84374.3125 0 .48438.07812zm4.84375 5.375q-.09375-.1875-.15625-.67188-.75.79688-1.79688.79688-.9375 0-1.54687-.53125-.59375-.53125-.59375-1.35937 0-.98438.75-1.53126.75-.54687 2.125-.54687h1.04687v-.5q0-.5625-.34375-.89063-.32812-.34374-1-.34374-.57812 0-.96875.29687-.39062.28125-.39062.70313h-1.09375q0-.48438.32812-.92188.34375-.4375.92188-.6875.57812-.26562 1.26562-.26562 1.10938 0 1.71875.54687.625.54687.65625 1.5v2.92187q0 .875.21875 1.39063v.09375zm-1.79688-.82812q.51563 0 .96875-.26563.45313-.26563.65625-.6875v-1.29687h-.84375q-2 0-2 1.17187 0 .5.34375.79687.34375.28126.875.28126zm6.0625.82812h-1.07812v-9h1.07812zm3 0h-1.07812v-6.34375h1.07812zm-1.17187-8.01562q0-.26563.15625-.45313.17187-.1875.48437-.1875.3125 0 .46875.1875.17188.1875.17188.45313 0 .25-.17188.4375-.15625.17187-.46875.17187-.3125 0-.48437-.17187-.15625-.1875-.15625-.4375zm6.6875 6.32812q0-.4375-.34375-.67188-.32813-.25-1.15625-.42187-.8125-.17187-1.29688-.42187-.48437-.25-.71875-.57813-.21875-.34375-.21875-.8125 0-.78125.65625-1.3125.65625-.54687 1.6875-.54687 1.07813 0 1.73438.5625.67187.54687.67187 1.40624h-1.07812q0-.4375-.39063-.75-.375-.32812-.9375-.32812-.59375 0-.9375.26562-.32812.25-.32812.65626 0 .39062.3125.59374.3125.20313 1.125.39063.8125.17187 1.3125.42187.5.25.73437.60938.25.35938.25.85938 0 .85937-.6875 1.375-.67187.51562-1.75.51562-.76562 0-1.35937-.26562-.57813-.28126-.90625-.76563-.32813-.48437-.32813-1.04687h1.07813q.03125.54687.4375.875.40625.3125 1.07812.3125.60938 0 .98438-.25.375-.25.375-.67188zm3.78125-6.1875v1.53125h1.17187v.84375h-1.17187v3.92188q0 .39062.15625.57812.15625.1875.53125.1875.1875 0 .51562-.0625v.875q-.42187.125-.82812.125-.71875 0-1.09375-.4375-.375-.45312-.375-1.26562v-3.92188h-1.15625v-.84375h1.15625v-1.53125zm5.15624 8q-1.29688 0-2.10938-.84375-.79686-.85937-.79686-2.28125v-.1875q0-.95312.35936-1.6875.35938-.75 1-1.15625.65626-.42187 1.40626-.42187 1.23437 0 1.92187.8125.6875.8125.6875 2.32812v.45312h-4.29687q.03124.9375.54687 1.51563.53125.57813 1.34375.57813.5625 0 .95312-.23438.40626-.23438.71876-.625l.65624.51562q-.79687 1.23438-2.39062 1.23438zm-.14062-5.6875q-.65626 0-1.10938.48438-.4375.46874-.53125 1.32812h3.17187v-.07812q-.04687-.82813-.45312-1.28126-.39062-.45312-1.07812-.45312z"/><path d="m88.94688 412.24008h-1.125l-4.29688-6.57812v6.57812h-1.14062v-8.53125h1.14062l4.29688 6.60937v-6.60937h1.125zm1.98437-3.23438q0-.92187.35938-1.67187.375-.75 1.03125-1.14063.65625-.40624 1.48437-.40624 1.29688 0 2.09375.89062.8125.89062.8125 2.39062v.07813q0 .92187-.35937 1.65625-.35938.73438-1.01563 1.15625-.65625.40625-1.51562.40625-1.28125 0-2.09375-.89062-.79688-.90626-.79688-2.39063zm1.09375.14063q0 1.04687.48438 1.6875.5.64063 1.3125.64063.82812 0 1.3125-.64063.48437-.65625.48437-1.82813 0-1.03124-.5-1.67187-.48437-.65625-1.3125-.65625-.79687 0-1.29687.64062-.48438.625-.48438 1.82813zm9.26563-2.28125q-.25-.03125-.53125-.03125-1.07813 0-1.45313.90625v4.5h-1.07812v-6.34375h1.04687l.01563.73437q.53125-.84374 1.51562-.84374.3125 0 .48438.07812zm3.01562 3.90625 1.57813-4.875h1.10937l-2.28125 6.34375h-.82812l-2.29688-6.34375h1.10938zm6.54688 1.59375q-1.29688 0-2.10938-.84375-.79687-.85937-.79687-2.28125v-.1875q0-.95312.35937-1.6875.35938-.75 1-1.15625.65625-.42187 1.40625-.42187 1.23438 0 1.92188.8125.6875.8125.6875 2.32812v.45312h-4.29688q.03125.9375.54688 1.51563.53125.57813 1.34375.57813.5625 0 .95312-.23438.40625-.23438.71875-.625l.65625.51562q-.79687 1.23438-2.39062 1.23438zm-.14063-5.6875q-.65625 0-1.10937.48438-.4375.46874-.53125 1.32812h3.17187v-.07812q-.04687-.82813-.45312-1.28126-.39063-.45312-1.07813-.45312zm2-2.10938h-3.9375v-.84374h3.9375zm1.25 4.45313q0-1.48437.6875-2.35937.6875-.875 1.8125-.875 1.15625 0 1.8125.8125l.04688-.70313h1v6.1875q0 1.23437-.73438 1.9375-.73437.71875-1.95312.71875-.6875 0-1.34375-.29688-.65625-.29687-1-.79687l.5625-.65625q.6875.85938 1.70312.85938.78125 0 1.21875-.45313.45313-.4375.45313-1.25v-.54687q-.65625.76562-1.78125.76562-1.10938 0-1.79688-.89062-.6875-.90626-.6875-2.45313zm1.09375.125q0 1.0625.4375 1.6875.4375.60937 1.23438.60937 1.01562 0 1.5-.9375v-2.89062q-.5-.90625-1.5-.90625-.78125 0-1.23438.60937-.4375.60938-.4375 1.82813zm1.84375-6.76563.625.48438q-.34375.57812-.35937 1.23438v.79687h-1.07813v-.76563q0-.45312.23438-.95312.25-.51562.57812-.79688zm5.5 9.85938h-1.07812v-6.34375h1.07812zm-1.17187-8.01562q0-.26563.15625-.45313.17187-.1875.48437-.1875.3125 0 .46875.1875.17188.1875.17188.45313 0 .25-.17188.4375-.15625.17187-.46875.17187-.3125 0-.48437-.17187-.15625-.1875-.15625-.4375zm4.10937 1.67187v7.07813q0 1.82812-1.65625 1.82812-.35937 0-.65625-.10938v-.85937q.1875.04687.48438.04687.35937 0 .54687-.20312.20313-.1875.20313-.6875v-7.09375zm-1.1875-1.67187q0-.26563.15625-.45313.15625-.1875.46875-.1875.3125 0 .46875.1875.17188.1875.17188.45313 0 .25-.17188.4375-.15625.17187-.46875.17187-.3125 0-.46875-.17187-.15625-.1875-.15625-.4375zm6.98437 8.01562q-.09375-.1875-.15625-.67188-.75.79688-1.79688.79688-.9375 0-1.54686-.53125-.59375-.53125-.59375-1.35937 0-.98438.75-1.53126.74999-.54687 2.12499-.54687h1.04688v-.5q0-.5625-.34376-.89063-.32812-.34374-1-.34374-.57812 0-.96874.29687-.39063.28125-.39063.70313h-1.09374q0-.48438.32812-.92188.34375-.4375.92187-.6875.57812-.26562 1.26562-.26562 1.10938 0 1.71876.54687.625.54687.65624 1.5v2.92187q0 .875.21876 1.39063v.09375zm-1.79687-.82812q.51562 0 .96874-.26563.45313-.26563.65626-.6875v-1.29687h-.84376q-2 0-2 1.17187 0 .5.34376.79687.34374.28126.875.28126z"/><path d="m98.9 465.1833q-1.4375-.4219-2.10937-1.03126-.65625-.60938-.65625-1.5 0-1 .79687-1.65624.8125-.6719 2.10938-.6719.875 0 1.5625.34376.6875.34374 1.0625.9375.39062.59374.39062 1.3125h-1.14062q0-.78126-.5-1.21876-.48438-.4375-1.375-.4375-.82813 0-1.29688.375-.46875.3594-.46875 1 0 .53126.4375.89064.45313.35936 1.51563.65626 1.0625.29686 1.65625.65624.60937.35936.89062.84376.29688.48436.29688 1.125 0 1.04686-.8125 1.67186-.8125.625-2.15625.625-.89063 0-1.65625-.34376-.75-.34374-1.17188-.92186-.40625-.59374-.40625-1.32814h1.125q0 .76564.57813 1.21876.57812.45314 1.53125.45314.89062 0 1.35937-.3594.46875-.375.46875-1 0-.625-.4375-.96874-.4375-.34376-1.59375-.67186zm4.03125.5625q0-.9219.35938-1.6719.375-.75 1.03125-1.1406.65625-.40626 1.48437-.40626 1.29688 0 2.09375.89062.8125.89064.8125 2.39064v.0781q0 .9219-.35937 1.65626-.35938.73438-1.01563 1.15624-.65625.40626-1.51562.40626-1.28125 0-2.09375-.89062-.79688-.90624-.79688-2.39064zm1.09375.1406q0 1.0469.48438 1.6875.5.64064 1.3125.64064.82812 0 1.3125-.64064.48437-.65624.48437-1.8281 0-1.03126-.5-1.6719-.48437-.65624-1.3125-.65624-.79687 0-1.29687.64064-.48438.625-.48438 1.8281zm7.21875-3.25.03125.70314q.6875-.8125 1.875-.8125 1.32813 0 1.8125 1.01562.3125-.45312.8125-.73436.51563-.28126 1.20313-.28126 2.09375 0 2.125 2.20312v4.25h-1.07813v-4.1875q0-.67186-.3125-1-.3125-.34376-1.04687-.34376-.60938 0-1.01563.3594-.39062.35936-.45312.96874v4.20312h-1.07813v-4.15626q0-1.375-1.35937-1.375-1.0625 0-1.45313.90626v4.625h-1.09375v-6.34376zm11.15625 6.34376h-1.07812v-6.34376h1.07812zm-1.17187-8.01562q0-.26564.15625-.45314.17187-.1875.48437-.1875.3125 0 .46875.1875.17188.1875.17188.45314 0 .25-.17188.4375-.15625.17186-.46875.17186-.3125 0-.48437-.17186-.15625-.1875-.15625-.4375zm4.10937 1.67186v7.07814q0 1.82812-1.65625 1.82812-.35937 0-.65625-.10936v-.8594q.1875.0469.48438.0469.35937 0 .54687-.20314.20313-.1875.20313-.6875v-7.09376zm-1.1875-1.67186q0-.26564.15625-.45314.15625-.1875.46875-.1875.3125 0 .46875.1875.17188.1875.17188.45314 0 .25-.17188.4375-.15625.17186-.46875.17186-.3125 0-.46875-.17186-.15625-.1875-.15625-.4375zm6.98437 8.01562q-.09375-.1875-.15625-.67186-.75.79686-1.79688.79686-.9375 0-1.54686-.53126-.59375-.53124-.59375-1.35936 0-.98438.75-1.53124.74999-.5469 2.12499-.5469h1.04688v-.5q0-.5625-.34376-.8906-.32812-.34376-1-.34376-.57812 0-.96874.29686-.39063.28126-.39063.70314h-1.09374q0-.48438.32812-.92188.34375-.4375.92187-.6875.57812-.26562 1.26562-.26562 1.10938 0 1.71876.54686.625.5469.65624 1.5v2.9219q0 .875.21876 1.3906v.09376zm-1.79687-.82812q.51562 0 .96874-.26564.45313-.2656.65626-.6875v-1.29686h-.84376q-2 0-2 1.17186 0 .5.34376.7969.34374.28124.875.28124z"/><path d="m94.4 517.189v5.7969q-.01562 1.2031-.76562 1.9844-.75.7656-2.03125.85935l-.3125.01565q-1.39063 0-2.23438-.75-.82812-.76565-.82812-2.0938v-5.8125h1.10937v5.7813q0 .92185.5 1.4375.51563.5156 1.45313.5156.96875 0 1.46875-.5156.5-.51565.5-1.4375v-5.7813zm2.84375 2.1875.03125.7969q.73438-.90625 1.90625-.90625 2.01563 0 2.03125 2.26565v4.1875h-1.09375v-4.20315q0-.67185-.3125-1-.29687-.32815-.95312-.32815-.53125 0-.9375.2813-.39063.2812-.60938.73435v4.51565h-1.07812v-6.3438zm5.71875 3.125q0-1.48435.6875-2.35935.6875-.875 1.8125-.875 1.15625 0 1.8125.8125l.04688-.70315h1v6.1875q0 1.2344-.73438 1.9375-.73437.7188-1.95312.7188-.6875 0-1.34375-.2969-.65625-.2969-1-.7969l.5625-.6562q.6875.85935 1.70312.85935.78125 0 1.21875-.45315.45313-.4375.45313-1.25v-.54685q-.65625.76565-1.78125.76565-1.10938 0-1.79688-.89065-.6875-.90625-.6875-2.45315zm1.09375.125q0 1.0625.4375 1.6875.4375.6094 1.23438.6094 1.01562 0 1.5-.9375v-2.8906q-.5-.9063-1.5-.9063-.78125 0-1.23438.6094-.4375.6094-.4375 1.8281zm10.07813 3.0938q-.09375-.1875-.15625-.6719-.75.7969-1.79688.7969-.9375 0-1.54687-.5313-.59375-.5312-.59375-1.35935 0-.98435.75-1.53125.75-.5469 2.125-.5469h1.04687v-.5q0-.5625-.34375-.8906-.32812-.34375-1-.34375-.57812 0-.96875.29685-.39062.2813-.39062.70315h-1.09375q0-.48435.32812-.92185.34375-.4375.92188-.6875.57812-.26565 1.26562-.26565 1.10938 0 1.71875.54685.625.5469.65625 1.5v2.9219q0 .875.21875 1.3906v.0938zm-1.79688-.82815q.51563 0 .96875-.26565.45313-.2656.65625-.6875v-1.29685h-.84375q-2 0-2 1.17185 0 .5.34375.7969.34375.28125.875.28125zm2.46875-6.84375h-3.9375v-.84375h3.9375zm5.48438 2.2969q-.25-.0313-.53125-.0313-1.07813 0-1.45313.9063v4.5h-1.07812v-6.3438h1.04687l.01563.7344q.53125-.84375 1.51562-.84375.3125 0 .48438.07815zm2.10937 5.375h-1.07812v-6.3438h1.07812zm-1.17187-8.01565q0-.26565.15625-.45315.17187-.1875.48437-.1875.3125 0 .46875.1875.17188.1875.17188.45315 0 .25-.17188.4375-.15625.17185-.46875.17185-.3125 0-.48437-.17185-.15625-.1875-.15625-.4375zm4.10937 1.67185v7.07815q0 1.82815-1.65625 1.82815-.35937 0-.65625-.1094v-.8594q.1875.0469.48438.0469.35937 0 .54687-.2031.20313-.1875.20313-.6875v-7.0938zm-1.1875-1.67185q0-.26565.15625-.45315.15625-.1875.46875-.1875.3125 0 .46875.1875.17188.1875.17188.45315 0 .25-.17188.4375-.15625.17185-.46875.17185-.3125 0-.46875-.17185-.15625-.1875-.15625-.4375zm6.98437 8.01565q-.09375-.1875-.15625-.6719-.75.7969-1.79688.7969-.9375 0-1.54686-.5313-.59375-.5312-.59375-1.35935 0-.98435.75-1.53125.74999-.5469 2.12499-.5469h1.04688v-.5q0-.5625-.34376-.8906-.32812-.34375-1-.34375-.57812 0-.96874.29685-.39063.2813-.39063.70315h-1.09374q0-.48435.32812-.92185.34375-.4375.92187-.6875.57812-.26565 1.26562-.26565 1.10938 0 1.71876.54685.625.5469.65624 1.5v2.9219q0 .875.21876 1.3906v.0938zm-1.79687-.82815q.51562 0 .96874-.26565.45313-.2656.65626-.6875v-1.29685h-.84376q-2 0-2 1.17185 0 .5.34376.7969.34374.28125.875.28125z"/><path d="m105.60313 582.4603h-1.125v-8.5312h1.125zm3.09375-7.875v1.5313h1.17187v.8437h-1.17187v3.9219q0 .3906.15625.5781.15625.1875.53125.1875.1875 0 .51562-.0625v.875q-.42187.125-.82812.125-.71875 0-1.09375-.4375-.375-.4531-.375-1.2656v-3.9219h-1.15625v-.8437h1.15625v-1.5313zm6.4375 7.875q-.09375-.1875-.15625-.67185-.75.79685-1.79688.79685-.9375 0-1.54687-.5312-.59375-.5313-.59375-1.3594 0-.9844.75-1.53125.75-.54685 2.125-.54685h1.04687v-.5q0-.5625-.34375-.89065-.32812-.34375-1-.34375-.57812 0-.96875.2969-.39062.2812-.39062.7031h-1.09375q0-.4844.32812-.9219.34375-.4375.92188-.6875.57812-.2656 1.26562-.2656 1.10938 0 1.71875.5469.625.54685.65625 1.5v2.92185q0 .875.21875 1.39065v.0937zm-1.79688-.8281q.51563 0 .96875-.2656.45313-.26565.65625-.6875v-1.2969h-.84375q-2 0-2 1.1719 0 .5.34375.79685.34375.28125.875.28125zm2.46875-6.84375h-3.9375v-.84375h3.9375zm3.59375 7.67185h-1.07812v-9h1.07812zm3 0h-1.07812v-6.3437h1.07812zm-1.17187-8.0156q0-.2656.15625-.4531.17187-.1875.48437-.1875.3125 0 .46875.1875.17188.1875.17188.4531 0 .25-.17188.4375-.15625.1719-.46875.1719-.3125 0-.48437-.1719-.15625-.1875-.15625-.4375zm4.10937 1.6719v7.0781q0 1.8281-1.65625 1.8281-.35937 0-.65625-.10935v-.85935q.1875.04685.48438.04685.35937 0 .54687-.20315.20313-.1875.20313-.6875v-7.0937zm-1.1875-1.6719q0-.2656.15625-.4531.15625-.1875.46875-.1875.3125 0 .46875.1875.17188.1875.17188.4531 0 .25-.17188.4375-.15625.1719-.46875.1719-.3125 0-.46875-.1719-.15625-.1875-.15625-.4375zm6.98437 8.0156q-.09375-.1875-.15625-.67185-.75.79685-1.79688.79685-.9375 0-1.54686-.5312-.59375-.5313-.59375-1.3594 0-.9844.75-1.53125.74999-.54685 2.12499-.54685h1.04688v-.5q0-.5625-.34376-.89065-.32812-.34375-1-.34375-.57812 0-.96874.2969-.39063.2812-.39063.7031h-1.09374q0-.4844.32812-.9219.34375-.4375.92187-.6875.57812-.2656 1.26562-.2656 1.10938 0 1.71876.5469.625.54685.65624 1.5v2.92185q0 .875.21876 1.39065v.0937zm-1.79687-.8281q.51562 0 .96874-.2656.45313-.26565.65626-.6875v-1.2969h-.84376q-2 0-2 1.1719 0 .5.34376.79685.34374.28125.875.28125z"/><path d="m56.509377 635.8567v3.34374h-1.125v-8.53124h3.15625q1.390623 0 2.1875.71874.796873.70312.796873 1.89062 0 1.23438-.78125 1.90624-.765623.6719-2.21875.6719zm0-.9219h2.03125q.90625 0 1.375-.42186.484373-.42188.484373-1.21874 0-.76564-.484373-1.21876-.46875-.46874-1.3125-.48438h-2.09375zm10.625003 4.26564q-.09375-.1875-.15625-.67188-.75.79688-1.79688.79688-.9375 0-1.546873-.53124-.59375-.53126-.59375-1.3594 0-.98436.75-1.53124.750003-.54686 2.125003-.54686h1.04687v-.5q0-.5625-.34375-.89064-.32812-.34376-1-.34376-.57812 0-.96875.2969-.39062.28124-.39062.7031h-1.093753q0-.48436.328123-.92186.34375-.4375.92188-.6875.57812-.26564 1.26562-.26564 1.10938 0 1.71875.5469.625.54686.65625 1.5v2.92186q0 .875.21875 1.39064v.09374zm-1.79688-.82814q.51563 0 .96875-.2656.45313-.26564.65625-.6875v-1.2969h-.84375q-2 0-2 1.1719 0 .5.34375.79686.34375.28124.875.28124zm2.46875-6.84374h-3.9375v-.84376h3.9375zm5.48438 2.29688q-.25-.03124-.53125-.03124-1.07813 0-1.45313.90624v4.5h-1.07812v-6.34374h1.04687l.01563.73436q.53125-.84376 1.51562-.84376.3125 0 .48438.07814zm3.5625 5.5q-1.29688 0-2.10938-.84374-.79687-.8594-.79687-2.28126v-.1875q0-.95314.35937-1.6875.35938-.75 1-1.15624.65625-.4219 1.40625-.4219 1.23438 0 1.92188.8125.6875.8125.6875 2.32814v.45312h-4.29688q.03125.9375.54688 1.51564.53125.5781 1.34375.5781.5625 0 .95312-.23436.40625-.23438.71875-.625l.65625.51562q-.79687 1.23438-2.39062 1.23438zm-.14063-5.6875q-.65625 0-1.10937.48436-.4375.46876-.53125 1.32814h3.17187v-.07814q-.04687-.8281-.45312-1.28124-.39063-.45312-1.07813-.45312zm2-2.10938h-3.9375v-.84376h3.9375zm2.625 1.32814v7.0781q0 1.82814-1.65625 1.82814-.35937 0-.65625-.10938v-.85936q.1875.04686.48438.04686.35937 0 .54687-.20312.20313-.1875.20313-.6875v-7.09374zm-1.1875-1.6719q0-.2656.15625-.4531.15625-.1875.46875-.1875.3125 0 .46875.1875.17188.1875.17188.4531 0 .25-.17188.4375-.15625.1719-.46875.1719-.3125 0-.46875-.1719-.15625-.1875-.15625-.4375zm6.98438 8.01564q-.09375-.1875-.15625-.67188-.75.79688-1.79688.79688-.9375 0-1.54687-.53124-.59375-.53126-.59375-1.3594 0-.98436.75-1.53124.75-.54686 2.125-.54686h1.04687v-.5q0-.5625-.34375-.89064-.32812-.34376-1-.34376-.57812 0-.96875.2969-.39062.28124-.39062.7031h-1.09375q0-.48436.32812-.92186.34375-.4375.92188-.6875.57812-.26564 1.26562-.26564 1.10938 0 1.71875.5469.625.54686.65625 1.5v2.92186q0 .875.21875 1.39064v.09374zm-1.79688-.82814q.51563 0 .96875-.2656.45313-.26564.65625-.6875v-1.2969h-.84375q-2 0-2 1.1719 0 .5.34375.79686.34375.28124.875.28124zm2.46875-6.84374h-3.9375v-.84376h3.9375zm6.10938 5.98438q0-.4375-.34375-.67188-.32813-.25-1.15625-.42186-.8125-.1719-1.29688-.4219-.48437-.25-.71875-.5781-.21875-.34376-.21875-.8125 0-.78126.65625-1.3125.65625-.5469 1.6875-.5469 1.07813 0 1.73438.5625.67187.5469.67187 1.40626h-1.07812q0-.4375-.39063-.75-.375-.32812-.9375-.32812-.59375 0-.9375.26562-.32812.25-.32812.65624 0 .39064.3125.59376.3125.20314 1.125.39064.8125.17186 1.3125.42186.5.25.73437.60938.25.35936.25.85936 0 .8594-.6875 1.375-.67187.51564-1.75.51564-.76562 0-1.35937-.26564-.57813-.28124-.90625-.7656-.32813-.4844-.32813-1.0469h1.07813q.03125.5469.4375.875.40625.3125 1.07812.3125.60938 0 .98438-.25.375-.25.375-.67186zm7.39062.21876 1.57813-4.875h1.10937l-2.28125 6.34374h-.82812l-2.29688-6.34374h1.10938zm7.82813 1.46874q-.09375-.1875-.15625-.67188-.75.79688-1.79688.79688-.9375 0-1.54687-.53124-.59375-.53126-.59375-1.3594 0-.98436.75-1.53124.75-.54686 2.125-.54686h1.04687v-.5q0-.5625-.34375-.89064-.32812-.34376-1-.34376-.57812 0-.96875.2969-.39062.28124-.39062.7031h-1.09375q0-.48436.32812-.92186.34375-.4375.92188-.6875.57812-.26564 1.26562-.26564 1.10938 0 1.71875.5469.625.54686.65625 1.5v2.92186q0 .875.21875 1.39064v.09374zm-1.79688-.82814q.51563 0 .96875-.2656.45313-.26564.65625-.6875v-1.2969h-.84375q-2 0-2 1.1719 0 .5.34375.79686.34375.28124.875.28124zm6.0625.82814h-1.07812v-9h1.07812zm5.51563-1.6875q0-.4375-.34375-.67188-.32813-.25-1.15625-.42186-.8125-.1719-1.29688-.4219-.48437-.25-.71875-.5781-.21875-.34376-.21875-.8125 0-.78126.65625-1.3125.65625-.5469 1.6875-.5469 1.07813 0 1.73438.5625.67187.5469.67187 1.40626h-1.07812q0-.4375-.39063-.75-.375-.32812-.9375-.32812-.59375 0-.9375.26562-.32812.25-.32812.65624 0 .39064.3125.59376.3125.20314 1.125.39064.8125.17186 1.3125.42186.5.25.73437.60938.25.35936.25.85936 0 .8594-.6875 1.375-.67187.51564-1.75.51564-.76562 0-1.35937-.26564-.57813-.28124-.90625-.7656-.32813-.4844-.32813-1.0469h1.07813q.03125.5469.4375.875.40625.3125 1.07812.3125.60938 0 .98438-.25.375-.25.375-.67186zm3.78125-6.1875v1.53126h1.17187v.84374h-1.17187v3.92186q0 .39064.15625.57814.15625.1875.53125.1875.1875 0 .51562-.0625v.875q-.42187.125-.82812.125-.71875 0-1.09375-.4375-.375-.45314-.375-1.26564v-3.92186h-1.15625v-.84374h1.15625v-1.53126zm3.70312 7.875h-1.07812v-6.34374h1.07812zm-1.17187-8.01564q0-.2656.15625-.4531.17187-.1875.48437-.1875.3125 0 .46875.1875.17188.1875.17188.4531 0 .25-.17188.4375-.15625.1719-.46875.1719-.3125 0-.48437-.1719-.15625-.1875-.15625-.4375zm6.68749 6.32814q0-.4375-.34375-.67188-.32813-.25-1.15625-.42186-.8125-.1719-1.29688-.4219-.48437-.25-.71874-.5781-.21876-.34376-.21876-.8125 0-.78126.65626-1.3125.65624-.5469 1.6875-.5469 1.07812 0 1.73437.5625.67187.5469.67187 1.40626h-1.07812q0-.4375-.39062-.75-.375-.32812-.9375-.32812-.59376 0-.9375.26562-.32813.25-.32813.65624 0 .39064.3125.59376.3125.20314 1.125.39064.8125.17186 1.3125.42186.5.25.73437.60938.25.35936.25.85936 0 .8594-.6875 1.375-.67187.51564-1.75.51564-.76562 0-1.35937-.26564-.57813-.28124-.90625-.7656-.32812-.4844-.32812-1.0469h1.07812q.03125.5469.4375.875.40625.3125 1.07812.3125.60938 0 .98438-.25.375-.25.375-.67186z"/><path d="m142.22812 693.46875q0 1.76565-.73438 2.71875-.73437.9375-2.14062.9375-1.40625 0-2.14062-.9219-.73438-.92185-.75-2.6406v-1.5781q0-1.7813.73437-2.70315.75-.9375 2.14063-.9375 1.39062 0 2.125.92185.75.9219.76562 2.64065zm-1.70312-1.71875q0-1.0625-.29688-1.5469-.28125-.48435-.89062-.48435-.59376 0-.89063.46875-.28125.4531-.29687 1.4375v2.0625q0 1.0469.28124 1.5625.28126.5.92188.5.60938 0 .89062-.4844.28126-.48435.28126-1.48435z"/><path d="m276.02188 697h-5.84375v-1.15625l2.76563-2.95315q.5625-.60935.82812-1.0781.28125-.46875.28125-.875 0-.5781-.29687-.8906-.28126-.32815-.8125-.32815-.57813 0-.90626.39065-.32812.3906-.32812 1.04685h-1.70312q0-.78125.375-1.42185.375-.6563 1.04687-1.01565.6875-.375 1.54687-.375 1.3125 0 2.04688.64065.73438.625.73438 1.7812 0 .64065-.32813 1.2969-.32813.65625-1.125 1.53125l-1.9375 2.04685h3.65625zm6.90625-3.53125q0 1.76565-.73437 2.71875-.73438.9375-2.14063.9375-1.40625 0-2.14063-.9219-.73437-.92185-.75-2.6406v-1.5781q0-1.7813.73438-2.70315.75-.9375 2.14062-.9375 1.39063 0 2.125.92185.75.9219.76563 2.64065zm-1.70313-1.71875q0-1.0625-.29687-1.5469-.28125-.48435-.89063-.48435-.59374 0-.89062.46875-.28125.4531-.29688 1.4375v2.0625q0 1.0469.28126 1.5625.28124.5.92187.5.60937 0 .89063-.4844.28124-.48435.28124-1.48435z"/><path d="m412.39374 693.78125h.96876v1.375h-.96876v1.84375h-1.70314v-1.84375h-3.48436l-.07814-1.0625 3.5469-5.625h1.71874zm-3.57814 0h1.875v-3l-.10936.1875zm11.3125-.3125q0 1.76565-.73436 2.71875-.73438.9375-2.14064.9375-1.40624 0-2.1406-.9219-.7344-.92185-.75-2.6406v-1.5781q0-1.7813.73436-2.70315.75-.9375 2.14064-.9375 1.3906 0 2.125.92185.75.9219.7656 2.64065zm-1.7031-1.71875q0-1.0625-.2969-1.5469-.28124-.48435-.8906-.48435-.59376 0-.89064.46875-.28126.4531-.29686 1.4375v2.0625q0 1.0469.28124 1.5625.28126.5.92186.5.6094 0 .89064-.4844.28126-.48435.28126-1.48435z"/><path d="m549.1719 688.375v1.40625h-.1563q-1.1562.01565-1.85935.59375-.6875.5781-.82815 1.6094.6719-.6875 1.70315-.6875 1.125 0 1.78125.79685.65625.79685.65625 2.09375 0 .8281-.35935 1.5-.3594.6719-1.0313 1.0625-.6562.375-1.48435.375-1.34375 0-2.17185-.9375-.82815-.9531-.82815-2.5156v-.6094q0-1.3906.51565-2.4531.5312-1.0625 1.5-1.64065.98435-.57815 2.2812-.59375zm-1.6563 4.28125q-.4062 0-.75.21875-.3281.2031-.48435.5625v.5156q0 .8438.32815 1.32815.3437.46875.9531.46875.5469 0 .875-.4219.34375-.4375.34375-1.125 0-.7031-.34375-1.125-.34375-.42185-.9219-.42185zm9.8125.8125q0 1.76565-.73435 2.71875-.73435.9375-2.14065.9375-1.4062 0-2.1406-.9219-.7344-.92185-.75-2.6406v-1.5781q0-1.7813.7344-2.70315.75-.9375 2.1406-.9375 1.3906 0 2.125.92185.75.9219.7656 2.64065zm-1.7031-1.71875q0-1.0625-.2969-1.5469-.2812-.48435-.8906-.48435-.59375 0-.8906.46875-.2813.4531-.2969 1.4375v2.0625q0 1.0469.28125 1.5625.28125.5.92185.5.6094 0 .89065-.4844.28125-.48435.28125-1.48435z"/></g></svg>