<svg fill="none" height="728" stroke-linecap="square" stroke-miterlimit="10" viewBox="0 0 580 728" width="580" xmlns="http://www.w3.org/2000/svg" xmlns:xlink="http://www.w3.org/1999/xlink"><clipPath id="a"><path d="m139 29h412v643h-412z"/></clipPath><path d="m0 0h580v728h-580z" fill="none"/><path d="m139.5 29.5v643" stroke="#333" stroke-linecap="butt"/><path d="m276.5 29.5v643" stroke="#ccc" stroke-linecap="butt"/><path d="m413.5 29.5v643" stroke="#ccc" stroke-linecap="butt"/><path d="m551.5 29.5v643" stroke="#ccc" stroke-linecap="butt"/><path d="m184.5 29.5v643"/><path d="m230.5 29.5v643"/><path d="m322.5 29.5v643"/><path d="m367.5 29.5v643"/><path d="m459.5 29.5v643"/><path d="m505.5 29.5v643"/><path d="m139.5 672.5v-643" stroke="#000" stroke-linecap="butt"/><path clip-path="url(#a)" d="m139 86v-37h344c1.10458 0 2 .89543 2 2v33c0 1.10457-.89542 2-2 2z"/><path clip-path="url(#a)" d="m139 86v-37h344c1.10458 0 2 .89543 2 2v33c0 1.10457-.89542 2-2 2z" fill="#666"/><path clip-path="url(#a)" d="m139 143v-37h109c1.10457 0 2 .89543 2 2v33c0 1.10457-.89543 2-2 2z"/><path clip-path="url(#a)" d="m139 143v-37h109c1.10457 0 2 .89543 2 2v33c0 1.10457-.89543 2-2 2z" fill="#666"/><path clip-path="url(#a)" d="m139 200v-37h64c1.10457 0 2 .89543 2 2v33c0 1.10457-.89543 2-2 2z"/><path clip-path="url(#a)" d="m139 200v-37h64c1.10457 0 2 .89543 2 2v33c0 1.10457-.89543 2-2 2z" fill="#666"/><path clip-path="url(#a)" d="m139 256v-37h60c1.10457 0 2 .89543 2 2v33c0 1.10457-.89543 2-2 2z"/><path clip-path="url(#a)" d="m139 256v-37h60c1.10457 0 2 .89543 2 2v33c0 1.10457-.89543 2-2 2z" fill="#666"/><path clip-path="url(#a)" d="m139 313v-37h60c1.10457 0 2 .89542 2 2v33c0 1.10458-.89543 2-2 2z"/><path clip-path="url(#a)" d="m139 313v-37h60c1.10457 0 2 .89542 2 2v33c0 1.10458-.89543 2-2 2z" fill="#666"/><path clip-path="url(#a)" d="m139 370v-37h57c1.10457 0 2 .89542 2 2v33c0 1.10458-.89543 2-2 2z"/><path clip-path="url(#a)" d="m139 370v-37h57c1.10457 0 2 .89542 2 2v33c0 1.10458-.89543 2-2 2z" fill="#666"/><path clip-path="url(#a)" d="m139 426v-37h49c1.10457 0 2 .89542 2 2v33c0 1.10458-.89543 2-2 2z"/><path clip-path="url(#a)" d="m139 426v-37h49c1.10457 0 2 .89542 2 2v33c0 1.10458-.89543 2-2 2z" fill="#666"/><path clip-path="url(#a)" d="m139 483v-37h47c1.10457 0 2 .89542 2 2v33c0 1.10458-.89543 2-2 2z"/><path clip-path="url(#a)" d="m139 483v-37h47c1.10457 0 2 .89542 2 2v33c0 1.10458-.89543 2-2 2z" fill="#666"/><path clip-path="url(#a)" d="m139 539v-37h40c1.10457 0 2 .89542 2 2v33c0 1.10455-.89543 2-2 2z"/><path clip-path="url(#a)" d="m139 539v-37h40c1.10457 0 2 .89542 2 2v33c0 1.10455-.89543 2-2 2z" fill="#666"/><path clip-path="url(#a)" d="m139 596v-37h31c1.10457 0 2 .89545 2 2v33c0 1.10455-.89543 2-2 2z"/><path clip-path="url(#a)" d="m139 596v-37h31c1.10457 0 2 .89545 2 2v33c0 1.10455-.89543 2-2 2z" fill="#666"/><path clip-path="url(#a)" d="m139 653v-37h199c1.10458 0 2 .89545 2 2v33c0 1.10455-.89542 2-2 2z"/><path clip-path="url(#a)" d="m139 653v-37h199c1.10458 0 2 .89545 2 2v33c0 1.10455-.89542 2-2 2z" fill="#666"/><path d="m139.5 678.5v-12" stroke="#000" stroke-linecap="butt"/><path d="m276.5 678.5v-12" stroke="#000" stroke-linecap="butt"/><path d="m413.5 678.5v-12" stroke="#000" stroke-linecap="butt"/><path d="m551.5 678.5v-12" stroke="#000" stroke-linecap="butt"/><path d="m450.2163 67.296875.5-4.328125h4.78126v1.40625h-3.39063l-.21875 1.84375q.60938-.328125 1.28125-.328125 1.21875 0 1.90625.765625.70312.75.70312 2.109375 0 .828125-.35937 1.484375-.34375.640625-1 1.015625-.64063.359375-1.53125.359375-.76562 0-1.4375-.3125-.65625-.328125-1.04688-.890625-.375-.5625-.40624-1.296875h1.6875q.04687.53125.35937.828125.32813.296875.84375.296875.57812 0 .875-.40625.3125-.421875.3125-1.171875 0-.734375-.35938-1.109375-.34374-.390625-1-.390625-.60937 0-.98437.3125l-.15625.15625zm12.5.671875q0 1.765625-.73437 2.71875-.73437.9375-2.14063.9375-1.40624 0-2.14062-.921875-.73438-.921875-.75-2.640625v-1.578125q0-1.78125.73438-2.703125.75-.9375 2.14062-.9375 1.39062 0 2.125.921875.75.921875.76562 2.640625zm-1.70312-1.71875q0-1.0625-.29688-1.546875-.28124-.484375-.89062-.484375-.59375 0-.89062.46875-.28126.453125-.29688 1.4375v2.0625q0 1.046875.28125 1.5625.28125.5.92187.5.60938 0 .89063-.484375.28125-.484375.28125-1.484375zm3.10938 4.421875q0-.40625.26562-.65625.28125-.25.6875-.25.42188 0 .6875.25.28125.25.28125.65625 0 .390625-.28125.640625-.26562.25-.6875.25-.40625 0-.6875-.25-.26562-.25-.26562-.640625zm7.85937-2.390625h.96875v1.375h-.96875v1.84375h-1.70313v-1.84375h-3.48437l-.07813-1.0625 3.54688-5.625h1.71875zm-3.57813 0h1.875v-3l-.10937.1875zm11.40626 3.21875h-5.84376v-1.15625l2.76563-2.953125q.5625-.609375.82813-1.078125.28124-.46875.28124-.875 0-.578125-.29687-.890625-.28125-.328125-.8125-.328125-.57813 0-.90625.390625-.32812.390625-.32812 1.046875h-1.70313q0-.78125.375-1.421875.375-.65625 1.04687-1.015625.6875-.375 1.54688-.375 1.3125 0 2.04688.640625.73437.625.73437 1.78125 0 .640625-.32813 1.296875-.32812.65625-1.125 1.53125l-1.9375 2.046875h3.65626z" stroke="#666" stroke-linecap="round" stroke-linejoin="round" stroke-width="3"/><path d="m450.2163 67.296875.5-4.328125h4.78126v1.40625h-3.39063l-.21875 1.84375q.60938-.328125 1.28125-.328125 1.21875 0 1.90625.765625.70312.75.70312 2.109375 0 .828125-.35937 1.484375-.34375.640625-1 1.015625-.64063.359375-1.53125.359375-.76562 0-1.4375-.3125-.65625-.328125-1.04688-.890625-.375-.5625-.40624-1.296875h1.6875q.04687.53125.35937.828125.32813.296875.84375.296875.57812 0 .875-.40625.3125-.421875.3125-1.171875 0-.734375-.35938-1.109375-.34374-.390625-1-.390625-.60937 0-.98437.3125l-.15625.15625zm12.5.671875q0 1.765625-.73437 2.71875-.73437.9375-2.14063.9375-1.40624 0-2.14062-.921875-.73438-.921875-.75-2.640625v-1.578125q0-1.78125.73438-2.703125.75-.9375 2.14062-.9375 1.39062 0 2.125.921875.75.921875.76562 2.640625zm-1.70312-1.71875q0-1.0625-.29688-1.546875-.28124-.484375-.89062-.484375-.59375 0-.89062.46875-.28126.453125-.29688 1.4375v2.0625q0 1.046875.28125 1.5625.28125.5.92187.5.60938 0 .89063-.484375.28125-.484375.28125-1.484375zm3.10938 4.421875q0-.40625.26562-.65625.28125-.25.6875-.25.42188 0 .6875.25.28125.25.28125.65625 0 .390625-.28125.640625-.26562.25-.6875.25-.40625 0-.6875-.25-.26562-.25-.26562-.640625zm7.85937-2.390625h.96875v1.375h-.96875v1.84375h-1.70313v-1.84375h-3.48437l-.07813-1.0625 3.54688-5.625h1.71875zm-3.57813 0h1.875v-3l-.10937.1875zm11.40626 3.21875h-5.84376v-1.15625l2.76563-2.953125q.5625-.609375.82813-1.078125.28124-.46875.28124-.875 0-.578125-.29687-.890625-.28125-.328125-.8125-.328125-.57813 0-.90625.390625-.32812.390625-.32812 1.046875h-1.70313q0-.78125.375-1.421875.375-.65625 1.04687-1.015625.6875-.375 1.54688-.375 1.3125 0 2.04688.640625.73437.625.73437 1.78125 0 .640625-.32813 1.296875-.32812.65625-1.125 1.53125l-1.9375 2.046875h3.65626z" fill="#fff"/><path d="m219.33794 128.5h-1.6875v-6.53125l-2.01563.625v-1.375l3.53125-1.265625h.17188zm7.48437-8.625v1.40625h-.15625q-1.15625.015625-1.85937.59375-.6875.578125-.82813 1.609375.67188-.6875 1.70313-.6875 1.125 0 1.78125.796875.65625.796875.65625 2.09375 0 .828125-.35938 1.5-.35937.671875-1.03125 1.0625-.65625.375-1.48437.375-1.34375 0-2.17188-.9375-.82812-.953125-.82812-2.515625v-.609375q0-1.390625.51562-2.453125.53125-1.0625 1.5-1.640625.98438-.578125 2.28125-.59375zm-1.65625 4.28125q-.40625 0-.75.21875-.32812.203125-.48437.5625v.515625q0 .84375.32812 1.328125.34375.46875.95313.46875.54687 0 .875-.421875.34375-.4375.34375-1.125 0-.703125-.34375-1.125-.34375-.421875-.92188-.421875zm4.21875 3.515625q0-.40625.26563-.65625.28125-.25.6875-.25.42187 0 .6875.25.28125.25.28125.65625 0 .390625-.28125.640625-.26563.25-.6875.25-.40625 0-.6875-.25-.26563-.25-.26563-.640625zm8.6875.828125h-5.84375v-1.15625l2.76563-2.953125q.5625-.609375.82812-1.078125.28125-.46875.28125-.875 0-.578125-.29687-.890625-.28125-.328125-.8125-.328125-.57813 0-.90625.390625-.32813.390625-.32813 1.046875h-1.70312q0-.78125.375-1.421875.375-.65625 1.04687-1.015625.6875-.375 1.54688-.375 1.3125 0 2.04687.640625.73438.625.73438 1.78125 0 .640625-.32813 1.296875-.32812.65625-1.125 1.53125l-1.9375 2.046875h3.65625zm2.875-5.015625h.90625q.64063 0 .95313-.3125.3125-.328125.3125-.859375 0-.515625-.3125-.796875-.29688-.296875-.84375-.296875-.48438 0-.8125.265625-.32813.265625-.32813.6875h-1.6875q0-.65625.35938-1.1875.35937-.53125 1-.828125.65625-.3125 1.4375-.3125 1.34375 0 2.10937.65625.78125.640625.78125 1.78125 0 .59375-.35937 1.09375-.35938.484375-.9375.734375.71875.265625 1.0625.78125.35937.515625.35937 1.21875 0 1.140625-.82812 1.828125-.82813.6875-2.1875.6875-1.28125 0-2.09375-.671875-.8125-.6875-.8125-1.796875h1.6875q0 .484375.35937.796875.375.296875.89063.296875.60937 0 .95312-.3125.34375-.328125.34375-.859375 0-1.265625-1.40625-1.265625h-.90625z" stroke="#666" stroke-linecap="round" stroke-linejoin="round" stroke-width="3"/><path d="m219.33794 128.5h-1.6875v-6.53125l-2.01563.625v-1.375l3.53125-1.265625h.17188zm7.48437-8.625v1.40625h-.15625q-1.15625.015625-1.85937.59375-.6875.578125-.82813 1.609375.67188-.6875 1.70313-.6875 1.125 0 1.78125.796875.65625.796875.65625 2.09375 0 .828125-.35938 1.5-.35937.671875-1.03125 1.0625-.65625.375-1.48437.375-1.34375 0-2.17188-.9375-.82812-.953125-.82812-2.515625v-.609375q0-1.390625.51562-2.453125.53125-1.0625 1.5-1.640625.98438-.578125 2.28125-.59375zm-1.65625 4.28125q-.40625 0-.75.21875-.32812.203125-.48437.5625v.515625q0 .84375.32812 1.328125.34375.46875.95313.46875.54687 0 .875-.421875.34375-.4375.34375-1.125 0-.703125-.34375-1.125-.34375-.421875-.92188-.421875zm4.21875 3.515625q0-.40625.26563-.65625.28125-.25.6875-.25.42187 0 .6875.25.28125.25.28125.65625 0 .390625-.28125.640625-.26563.25-.6875.25-.40625 0-.6875-.25-.26563-.25-.26563-.640625zm8.6875.828125h-5.84375v-1.15625l2.76563-2.953125q.5625-.609375.82812-1.078125.28125-.46875.28125-.875 0-.578125-.29687-.890625-.28125-.328125-.8125-.328125-.57813 0-.90625.390625-.32813.390625-.32813 1.046875h-1.70312q0-.78125.375-1.421875.375-.65625 1.04687-1.015625.6875-.375 1.54688-.375 1.3125 0 2.04687.640625.73438.625.73438 1.78125 0 .640625-.32813 1.296875-.32812.65625-1.125 1.53125l-1.9375 2.046875h3.65625zm2.875-5.015625h.90625q.64063 0 .95313-.3125.3125-.328125.3125-.859375 0-.515625-.3125-.796875-.29688-.296875-.84375-.296875-.48438 0-.8125.265625-.32813.265625-.32813.6875h-1.6875q0-.65625.35938-1.1875.35937-.53125 1-.828125.65625-.3125 1.4375-.3125 1.34375 0 2.10937.65625.78125.640625.78125 1.78125 0 .59375-.35937 1.09375-.35938.484375-.9375.734375.71875.265625 1.0625.78125.35937.515625.35937 1.21875 0 1.140625-.82812 1.828125-.82813.6875-2.1875.6875-1.28125 0-2.09375-.671875-.8125-.6875-.8125-1.796875h1.6875q0 .484375.35937.796875.375.296875.89063.296875.60937 0 .95312-.3125.34375-.328125.34375-.859375 0-1.265625-1.40625-1.265625h-.90625z" fill="#fff"/><path d="m181.11905 182.09375q-.67188.64063-1.54688.64063-1.14062 0-1.82812-.76563-.67188-.78125-.67188-2.09375 0-.84375.35938-1.54688.375-.70312 1.03125-1.09374.65625-.39063 1.48437-.39063.84375 0 1.5.42187.65625.42188 1.01563 1.21876.35937.79687.375 1.8125v.625q0 2.14062-1.0625 3.35937-1.0625 1.21875-3.01563 1.29687h-.40625v-1.40624l.375-.01563q2.20313-.09375 2.39063-2.0625zm-1.14063-.65625q.42188 0 .70313-.20312.29687-.21876.45312-.51563v-.6875q0-.85937-.32812-1.32813-.32813-.48437-.875-.48437-.51563 0-.84375.46875-.32813.45312-.32813 1.15625 0 .70313.3125 1.15625.32813.4375.90625.4375zm4.32813 3.23438q0-.40626.26562-.65626.28125-.25.6875-.25.42188 0 .6875.25.28125.25.28125.65626 0 .39062-.28125.64062-.26562.25-.6875.25-.40625 0-.6875-.25-.26562-.25-.26562-.64062zm7.4375-7.79688v1.40625h-.15625q-1.15625.01563-1.85938.59375-.6875.57812-.82812 1.60938.67187-.6875 1.70312-.6875 1.125 0 1.78125.79687.65625.79687.65625 2.09375 0 .82812-.35937 1.5-.35938.67188-1.03125 1.0625-.65625.375-1.48438.375-1.34375 0-2.17187-.9375-.82813-.95312-.82813-2.51562v-.60938q0-1.39062.51563-2.45312.53125-1.0625 1.5-1.64063.98437-.57813 2.28125-.59375zm-1.65625 4.28125q-.40625 0-.75.21875-.32813.20312-.48438.5625v.51562q0 .84376.32813 1.32813.34375.46875.95312.46875.54688 0 .875-.42188.34375-.4375.34375-1.125 0-.70312-.34375-1.125-.34375-.42187-.92187-.42187zm9.85937-3.23437-3.29687 7.57812h-1.78125l3.29687-7.15625h-4.23437v-1.375h6.01562z" stroke="#666" stroke-linecap="round" stroke-linejoin="round" stroke-width="3"/><path d="m181.11905 182.09375q-.67188.64063-1.54688.64063-1.14062 0-1.82812-.76563-.67188-.78125-.67188-2.09375 0-.84375.35938-1.54688.375-.70312 1.03125-1.09374.65625-.39063 1.48437-.39063.84375 0 1.5.42187.65625.42188 1.01563 1.21876.35937.79687.375 1.8125v.625q0 2.14062-1.0625 3.35937-1.0625 1.21875-3.01563 1.29687h-.40625v-1.40624l.375-.01563q2.20313-.09375 2.39063-2.0625zm-1.14063-.65625q.42188 0 .70313-.20312.29687-.21876.45312-.51563v-.6875q0-.85937-.32812-1.32813-.32813-.48437-.875-.48437-.51563 0-.84375.46875-.32813.45312-.32813 1.15625 0 .70313.3125 1.15625.32813.4375.90625.4375zm4.32813 3.23438q0-.40626.26562-.65626.28125-.25.6875-.25.42188 0 .6875.25.28125.25.28125.65626 0 .39062-.28125.64062-.26562.25-.6875.25-.40625 0-.6875-.25-.26562-.25-.26562-.64062zm7.4375-7.79688v1.40625h-.15625q-1.15625.01563-1.85938.59375-.6875.57812-.82812 1.60938.67187-.6875 1.70312-.6875 1.125 0 1.78125.79687.65625.79687.65625 2.09375 0 .82812-.35937 1.5-.35938.67188-1.03125 1.0625-.65625.375-1.48438.375-1.34375 0-2.17187-.9375-.82813-.95312-.82813-2.51562v-.60938q0-1.39062.51563-2.45312.53125-1.0625 1.5-1.64063.98437-.57813 2.28125-.59375zm-1.65625 4.28125q-.40625 0-.75.21875-.32813.20312-.48438.5625v.51562q0 .84376.32813 1.32813.34375.46875.95312.46875.54688 0 .875-.42188.34375-.4375.34375-1.125 0-.70312-.34375-1.125-.34375-.42187-.92187-.42187zm9.85937-3.23437-3.29687 7.57812h-1.78125l3.29687-7.15625h-4.23437v-1.375h6.01562z" fill="#fff"/><path d="m177.04257 238.09375q-.67187.64063-1.54687.64063-1.14063 0-1.82813-.76563-.67187-.78125-.67187-2.09375 0-.84375.35937-1.54688.375-.70312 1.03125-1.09374.65625-.39063 1.48438-.39063.84375 0 1.5.42187.65625.42188 1.01562 1.21876.35938.79687.375 1.8125v.625q0 2.14062-1.0625 3.35937-1.0625 1.21875-3.01562 1.29687h-.40625v-1.40624l.375-.01563q2.20312-.09375 2.39062-2.0625zm-1.14062-.65625q.42187 0 .70312-.20312.29688-.21876.45313-.51563v-.6875q0-.85937-.32813-1.32813-.32812-.48437-.875-.48437-.51562 0-.84375.46875-.32812.45312-.32812 1.15625 0 .70313.3125 1.15625.32812.4375.90625.4375zm4.32812 3.23438q0-.40626.26563-.65626.28125-.25.6875-.25.42187 0 .6875.25.28125.25.28125.65626 0 .39062-.28125.64062-.26563.25-.6875.25-.40625 0-.6875-.25-.26563-.25-.26563-.64062zm8.59375-2.70313q0 1.76563-.73437 2.71875-.73438.9375-2.14063.9375-1.40625 0-2.14062-.92188-.73438-.92187-.75-2.64062v-1.57812q0-1.78126.73437-2.70313.75-.9375 2.14063-.9375 1.39062 0 2.125.92187.75.92188.76562 2.64063zm-1.70312-1.71875q0-1.0625-.29688-1.54688-.28125-.48437-.89062-.48437-.59375 0-.89063.46875-.28125.45312-.29687 1.4375v2.0625q0 1.04688.28125 1.5625.28125.5.92187.5.60938 0 .89063-.48438.28125-.48437.28125-1.48437zm8.75-2.32812-3.29688 7.57812h-1.78125l3.29688-7.15625h-4.23438v-1.375h6.01563z" stroke="#666" stroke-linecap="round" stroke-linejoin="round" stroke-width="3"/><path d="m177.04257 238.09375q-.67187.64063-1.54687.64063-1.14063 0-1.82813-.76563-.67187-.78125-.67187-2.09375 0-.84375.35937-1.54688.375-.70312 1.03125-1.09374.65625-.39063 1.48438-.39063.84375 0 1.5.42187.65625.42188 1.01562 1.21876.35938.79687.375 1.8125v.625q0 2.14062-1.0625 3.35937-1.0625 1.21875-3.01562 1.29687h-.40625v-1.40624l.375-.01563q2.20312-.09375 2.39062-2.0625zm-1.14062-.65625q.42187 0 .70312-.20312.29688-.21876.45313-.51563v-.6875q0-.85937-.32813-1.32813-.32812-.48437-.875-.48437-.51562 0-.84375.46875-.32812.45312-.32812 1.15625 0 .70313.3125 1.15625.32812.4375.90625.4375zm4.32812 3.23438q0-.40626.26563-.65626.28125-.25.6875-.25.42187 0 .6875.25.28125.25.28125.65626 0 .39062-.28125.64062-.26563.25-.6875.25-.40625 0-.6875-.25-.26563-.25-.26563-.64062zm8.59375-2.70313q0 1.76563-.73437 2.71875-.73438.9375-2.14063.9375-1.40625 0-2.14062-.92188-.73438-.92187-.75-2.64062v-1.57812q0-1.78126.73437-2.70313.75-.9375 2.14063-.9375 1.39062 0 2.125.92187.75.92188.76562 2.64063zm-1.70312-1.71875q0-1.0625-.29688-1.54688-.28125-.48437-.89062-.48437-.59375 0-.89063.46875-.28125.45312-.29687 1.4375v2.0625q0 1.04688.28125 1.5625.28125.5.92187.5.60938 0 .89063-.48438.28125-.48437.28125-1.48437zm8.75-2.32812-3.29688 7.57812h-1.78125l3.29688-7.15625h-4.23438v-1.375h6.01563z" fill="#fff"/><path d="m176.53082 295.09375q-.67187.64063-1.54687.64063-1.14063 0-1.82813-.76563-.67187-.78125-.67187-2.09375 0-.84375.35937-1.54688.375-.70312 1.03125-1.09374.65625-.39063 1.48438-.39063.84375 0 1.5.42187.65625.42188 1.01562 1.21876.35938.79687.375 1.8125v.625q0 2.14062-1.0625 3.35937-1.0625 1.21875-3.01562 1.29687h-.40625v-1.40624l.375-.01563q2.20312-.09375 2.39062-2.0625zm-1.14062-.65625q.42187 0 .70312-.20312.29688-.21876.45313-.51563v-.6875q0-.85937-.32813-1.32813-.32812-.48437-.875-.48437-.51562 0-.84375.46875-.32812.45312-.32812 1.15625 0 .70313.3125 1.15625.32812.4375.90625.4375zm4.32812 3.23438q0-.40626.26563-.65626.28125-.25.6875-.25.42187 0 .6875.25.28125.25.28125.65626 0 .39062-.28125.64062-.26563.25-.6875.25-.40625 0-.6875-.25-.26563-.25-.26563-.64062zm8.59375-2.70313q0 1.76563-.73437 2.71875-.73438.9375-2.14063.9375-1.40625 0-2.14062-.92188-.73438-.92187-.75-2.64062v-1.57812q0-1.78126.73437-2.70313.75-.9375 2.14063-.9375 1.39062 0 2.125.92187.75.92188.76562 2.64063zm-1.70312-1.71875q0-1.0625-.29688-1.54688-.28125-.48437-.89062-.48437-.59375 0-.89063.46875-.28125.45312-.29687 1.4375v2.0625q0 1.04688.28125 1.5625.28125.5.92187.5.60938 0 .89063-.48438.28125-.48437.28125-1.48437zm8.70312 1.71875q0 1.76563-.73437 2.71875-.73438.9375-2.14063.9375-1.40625 0-2.14062-.92188-.73438-.92187-.75-2.64062v-1.57812q0-1.78126.73437-2.70313.75-.9375 2.14063-.9375 1.39062 0 2.125.92187.75.92188.76562 2.64063zm-1.70312-1.71875q0-1.0625-.29688-1.54688-.28125-.48437-.89062-.48437-.59375 0-.89063.46875-.28125.45312-.29687 1.4375v2.0625q0 1.04688.28125 1.5625.28125.5.92187.5.60938 0 .89063-.48438.28125-.48437.28125-1.48437z" stroke="#666" stroke-linecap="round" stroke-linejoin="round" stroke-width="3"/><path d="m176.53082 295.09375q-.67187.64063-1.54687.64063-1.14063 0-1.82813-.76563-.67187-.78125-.67187-2.09375 0-.84375.35937-1.54688.375-.70312 1.03125-1.09374.65625-.39063 1.48438-.39063.84375 0 1.5.42187.65625.42188 1.01562 1.21876.35938.79687.375 1.8125v.625q0 2.14062-1.0625 3.35937-1.0625 1.21875-3.01562 1.29687h-.40625v-1.40624l.375-.01563q2.20312-.09375 2.39062-2.0625zm-1.14062-.65625q.42187 0 .70312-.20312.29688-.21876.45313-.51563v-.6875q0-.85937-.32813-1.32813-.32812-.48437-.875-.48437-.51562 0-.84375.46875-.32812.45312-.32812 1.15625 0 .70313.3125 1.15625.32812.4375.90625.4375zm4.32812 3.23438q0-.40626.26563-.65626.28125-.25.6875-.25.42187 0 .6875.25.28125.25.28125.65626 0 .39062-.28125.64062-.26563.25-.6875.25-.40625 0-.6875-.25-.26563-.25-.26563-.64062zm8.59375-2.70313q0 1.76563-.73437 2.71875-.73438.9375-2.14063.9375-1.40625 0-2.14062-.92188-.73438-.92187-.75-2.64062v-1.57812q0-1.78126.73437-2.70313.75-.9375 2.14063-.9375 1.39062 0 2.125.92187.75.92188.76562 2.64063zm-1.70312-1.71875q0-1.0625-.29688-1.54688-.28125-.48437-.89062-.48437-.59375 0-.89063.46875-.28125.45312-.29687 1.4375v2.0625q0 1.04688.28125 1.5625.28125.5.92187.5.60938 0 .89063-.48438.28125-.48437.28125-1.48437zm8.70312 1.71875q0 1.76563-.73437 2.71875-.73438.9375-2.14063.9375-1.40625 0-2.14062-.92188-.73438-.92187-.75-2.64062v-1.57812q0-1.78126.73437-2.70313.75-.9375 2.14063-.9375 1.39062 0 2.125.92187.75.92188.76562 2.64063zm-1.70312-1.71875q0-1.0625-.29688-1.54688-.28125-.48437-.89062-.48437-.59375 0-.89063.46875-.28125.45312-.29687 1.4375v2.0625q0 1.04688.28125 1.5625.28125.5.92187.5.60938 0 .89063-.48438.28125-.48437.28125-1.48437z" fill="#fff"/><path d="m175.27634 349.23438q0 .625-.3125 1.10937-.3125.46875-.85938.76563.625.29687.98438.82812.375.51562.375 1.21875 0 1.14063-.78125 1.8125-.76563.65625-2.10938.65625-1.32812 0-2.10937-.65625-.76563-.67187-.76563-1.8125 0-.70313.35938-1.23437.35937-.53126.98437-.8125-.54687-.29688-.85937-.76563-.3125-.48437-.3125-1.10937 0-1.09376.71875-1.73438.73437-.65625 1.98437-.65625 1.25 0 1.96875.65625.73438.64062.73438 1.73438zm-1.51563 3.79687q0-.54687-.32812-.875-.3125-.34375-.85938-.34375-.54687 0-.875.32812-.3125.32813-.3125.89063 0 .54687.3125.89063.32813.32812.89063.32812.54687 0 .85937-.3125.3125-.32812.3125-.90625zm-.17187-3.71875q0-.5-.26563-.79688-.26562-.29687-.75-.29687-.46875 0-.73437.29687-.26563.28126-.26563.79688 0 .51562.26563.82812.26562.3125.73437.3125.48438 0 .75-.3125.26563-.3125.26563-.82812zm3.28125 5.35938q0-.40626.26562-.65626.28125-.25.6875-.25.42188 0 .6875.25.28125.25.28125.65626 0 .39062-.28125.64062-.26562.25-.6875.25-.40625 0-.6875-.25-.26562-.25-.26562-.64062zm3.09375-3.375.5-4.32813h4.78125v1.40625h-3.39063l-.21875 1.84375q.60938-.32813 1.28125-.32813 1.21875 0 1.90625.76563.70313.75.70313 2.10937 0 .82813-.35938 1.48438-.34375.64062-1 1.01562-.64062.35938-1.53125.35938-.76562 0-1.4375-.3125-.65625-.32812-1.04687-.89062-.375-.5625-.40625-1.29688h1.6875q.04687.53125.35937.82812.32813.29688.84375.29688.57813 0 .875-.40625.3125-.42187.3125-1.17187 0-.73438-.35937-1.10938-.34375-.39062-1-.39062-.60938 0-.98438.3125l-.15625.15624zm12.3125-2.0625q0 .625-.3125 1.10937-.3125.46875-.85938.76563.625.29687.98438.82812.375.51562.375 1.21875 0 1.14063-.78125 1.8125-.76563.65625-2.10938.65625-1.32812 0-2.10937-.65625-.76563-.67187-.76563-1.8125 0-.70313.35938-1.23437.35937-.53126.98437-.8125-.54687-.29688-.85937-.76563-.3125-.48437-.3125-1.10937 0-1.09376.71875-1.73438.73437-.65625 1.98437-.65625 1.25 0 1.96875.65625.73438.64062.73438 1.73438zm-1.51563 3.79687q0-.54687-.32812-.875-.3125-.34375-.85938-.34375-.54687 0-.875.32812-.3125.32813-.3125.89063 0 .54687.3125.89063.32813.32812.89063.32812.54687 0 .85937-.3125.3125-.32812.3125-.90625zm-.17187-3.71875q0-.5-.26563-.79688-.26562-.29687-.75-.29687-.46875 0-.73437.29687-.26563.28126-.26563.79688 0 .51562.26563.82812.26562.3125.73437.3125.48438 0 .75-.3125.26563-.3125.26563-.82812z" stroke="#666" stroke-linecap="round" stroke-linejoin="round" stroke-width="3"/><path d="m175.27634 349.23438q0 .625-.3125 1.10937-.3125.46875-.85938.76563.625.29687.98438.82812.375.51562.375 1.21875 0 1.14063-.78125 1.8125-.76563.65625-2.10938.65625-1.32812 0-2.10937-.65625-.76563-.67187-.76563-1.8125 0-.70313.35938-1.23437.35937-.53126.98437-.8125-.54687-.29688-.85937-.76563-.3125-.48437-.3125-1.10937 0-1.09376.71875-1.73438.73437-.65625 1.98437-.65625 1.25 0 1.96875.65625.73438.64062.73438 1.73438zm-1.51563 3.79687q0-.54687-.32812-.875-.3125-.34375-.85938-.34375-.54687 0-.875.32812-.3125.32813-.3125.89063 0 .54687.3125.89063.32813.32812.89063.32812.54687 0 .85937-.3125.3125-.32812.3125-.90625zm-.17187-3.71875q0-.5-.26563-.79688-.26562-.29687-.75-.29687-.46875 0-.73437.29687-.26563.28126-.26563.79688 0 .51562.26563.82812.26562.3125.73437.3125.48438 0 .75-.3125.26563-.3125.26563-.82812zm3.28125 5.35938q0-.40626.26562-.65626.28125-.25.6875-.25.42188 0 .6875.25.28125.25.28125.65626 0 .39062-.28125.64062-.26562.25-.6875.25-.40625 0-.6875-.25-.26562-.25-.26562-.64062zm3.09375-3.375.5-4.32813h4.78125v1.40625h-3.39063l-.21875 1.84375q.60938-.32813 1.28125-.32813 1.21875 0 1.90625.76563.70313.75.70313 2.10937 0 .82813-.35938 1.48438-.34375.64062-1 1.01562-.64062.35938-1.53125.35938-.76562 0-1.4375-.3125-.65625-.32812-1.04687-.89062-.375-.5625-.40625-1.29688h1.6875q.04687.53125.35937.82812.32813.29688.84375.29688.57813 0 .875-.40625.3125-.42187.3125-1.17187 0-.73438-.35937-1.10938-.34375-.39062-1-.39062-.60938 0-.98438.3125l-.15625.15624zm12.3125-2.0625q0 .625-.3125 1.10937-.3125.46875-.85938.76563.625.29687.98438.82812.375.51562.375 1.21875 0 1.14063-.78125 1.8125-.76563.65625-2.10938.65625-1.32812 0-2.10937-.65625-.76563-.67187-.76563-1.8125 0-.70313.35938-1.23437.35937-.53126.98437-.8125-.54687-.29688-.85937-.76563-.3125-.48437-.3125-1.10937 0-1.09376.71875-1.73438.73437-.65625 1.98437-.65625 1.25 0 1.96875.65625.73438.64062.73438 1.73438zm-1.51563 3.79687q0-.54687-.32812-.875-.3125-.34375-.85938-.34375-.54687 0-.875.32812-.3125.32813-.3125.89063 0 .54687.3125.89063.32813.32812.89063.32812.54687 0 .85937-.3125.3125-.32812.3125-.90625zm-.17187-3.71875q0-.5-.26563-.79688-.26562-.29687-.75-.29687-.46875 0-.73437.29687-.26563.28126-.26563.79688 0 .51562.26563.82812.26562.3125.73437.3125.48438 0 .75-.3125.26563-.3125.26563-.82812z" fill="#fff"/><path d="m168.07423 403.92188-3.29687 7.57812h-1.78125l3.29687-7.15625h-4.23437v-1.375h6.01562zm1.35938 6.75q0-.40626.26562-.65626.28125-.25.6875-.25.42188 0 .6875.25.28125.25.28125.65626 0 .39062-.28125.64062-.26562.25-.6875.25-.40625 0-.6875-.25-.26562-.25-.26562-.64062zm3.09375-3.375.5-4.32813h4.78125v1.40625h-3.39063l-.21875 1.84375q.60938-.32813 1.28125-.32813 1.21875 0 1.90625.76563.70313.75.70313 2.10937 0 .82813-.35938 1.48438-.34375.64062-1 1.01562-.64062.35938-1.53125.35938-.76562 0-1.4375-.3125-.65625-.32812-1.04687-.89062-.375-.5625-.40625-1.29688h1.6875q.04687.53125.35937.82812.32813.29688.84375.29688.57813 0 .875-.40625.3125-.42187.3125-1.17187 0-.73438-.35937-1.10938-.34375-.39062-1-.39062-.60938 0-.98438.3125l-.15625.15624zm12.5.67187q0 1.76563-.73438 2.71875-.73437.9375-2.14062.9375-1.40625 0-2.14063-.92188-.73437-.92187-.75-2.64062v-1.57812q0-1.78126.73438-2.70313.75-.9375 2.14062-.9375 1.39063 0 2.125.92187.75.92188.76563 2.64063zm-1.70313-1.71875q0-1.0625-.29687-1.54688-.28125-.48437-.89063-.48437-.59375 0-.89062.46875-.28125.45312-.29688 1.4375v2.0625q0 1.04688.28125 1.5625.28125.5.92188.5.60937 0 .89062-.48438.28125-.48437.28125-1.48437z" stroke="#666" stroke-linecap="round" stroke-linejoin="round" stroke-width="3"/><path d="m168.07423 403.92188-3.29687 7.57812h-1.78125l3.29687-7.15625h-4.23437v-1.375h6.01562zm1.35938 6.75q0-.40626.26562-.65626.28125-.25.6875-.25.42188 0 .6875.25.28125.25.28125.65626 0 .39062-.28125.64062-.26562.25-.6875.25-.40625 0-.6875-.25-.26562-.25-.26562-.64062zm3.09375-3.375.5-4.32813h4.78125v1.40625h-3.39063l-.21875 1.84375q.60938-.32813 1.28125-.32813 1.21875 0 1.90625.76563.70313.75.70313 2.10937 0 .82813-.35938 1.48438-.34375.64062-1 1.01562-.64062.35938-1.53125.35938-.76562 0-1.4375-.3125-.65625-.32812-1.04687-.89062-.375-.5625-.40625-1.29688h1.6875q.04687.53125.35937.82812.32813.29688.84375.29688.57813 0 .875-.40625.3125-.42187.3125-1.17187 0-.73438-.35937-1.10938-.34375-.39062-1-.39062-.60938 0-.98438.3125l-.15625.15624zm12.5.67187q0 1.76563-.73438 2.71875-.73437.9375-2.14062.9375-1.40625 0-2.14063-.92188-.73437-.92187-.75-2.64062v-1.57812q0-1.78126.73438-2.70313.75-.9375 2.14062-.9375 1.39063 0 2.125.92187.75.92188.76563 2.64063zm-1.70313-1.71875q0-1.0625-.29687-1.54688-.28125-.48437-.89063-.48437-.59375 0-.89062.46875-.28125.45312-.29688 1.4375v2.0625q0 1.04688.28125 1.5625.28125.5.92188.5.60937 0 .89062-.48438.28125-.48437.28125-1.48437z" fill="#fff"/><path d="m165.28941 460.92188-3.29687 7.57812h-1.78125l3.29687-7.15625h-4.23437v-1.375h6.01562zm1.35938 6.75q0-.40626.26562-.65626.28125-.25.6875-.25.42188 0 .6875.25.28125.25.28125.65626 0 .39062-.28125.64062-.26562.25-.6875.25-.40625 0-.6875-.25-.26562-.25-.26562-.64062zm8.59375-2.70313q0 1.76563-.73438 2.71875-.73437.9375-2.14062.9375-1.40625 0-2.14063-.92188-.73437-.92187-.75-2.64062v-1.57812q0-1.78126.73438-2.70313.75-.9375 2.14062-.9375 1.39063 0 2.125.92187.75.92188.76563 2.64063zm-1.70313-1.71875q0-1.0625-.29687-1.54688-.28125-.48437-.89063-.48437-.59375 0-.89062.46875-.28125.45312-.29688 1.4375v2.0625q0 1.04688.28125 1.5625.28125.5.92188.5.60937 0 .89062-.48438.28125-.48437.28125-1.48437zm6.92188 1.84375q-.67188.64063-1.54688.64063-1.14062 0-1.82812-.76563-.67188-.78125-.67188-2.09375 0-.84375.35938-1.54688.375-.70312 1.03125-1.09374.65625-.39063 1.48437-.39063.84375 0 1.5.42187.65625.42188 1.01563 1.21876.35937.79687.375 1.8125v.625q0 2.14062-1.0625 3.35937-1.0625 1.21875-3.01563 1.29687h-.40625v-1.40624l.375-.01563q2.20313-.09375 2.39063-2.0625zm-1.14063-.65625q.42188 0 .70313-.20312.29687-.21876.45312-.51563v-.6875q0-.85937-.32812-1.32813-.32813-.48437-.875-.48437-.51563 0-.84375.46875-.32813.45312-.32813 1.15625 0 .70313.3125 1.15625.32813.4375.90625.4375z" stroke="#666" stroke-linecap="round" stroke-linejoin="round" stroke-width="3"/><path d="m165.28941 460.92188-3.29687 7.57812h-1.78125l3.29687-7.15625h-4.23437v-1.375h6.01562zm1.35938 6.75q0-.40626.26562-.65626.28125-.25.6875-.25.42188 0 .6875.25.28125.25.28125.65626 0 .39062-.28125.64062-.26562.25-.6875.25-.40625 0-.6875-.25-.26562-.25-.26562-.64062zm8.59375-2.70313q0 1.76563-.73438 2.71875-.73437.9375-2.14062.9375-1.40625 0-2.14063-.92188-.73437-.92187-.75-2.64062v-1.57812q0-1.78126.73438-2.70313.75-.9375 2.14062-.9375 1.39063 0 2.125.92187.75.92188.76563 2.64063zm-1.70313-1.71875q0-1.0625-.29687-1.54688-.28125-.48437-.89063-.48437-.59375 0-.89062.46875-.28125.45312-.29688 1.4375v2.0625q0 1.04688.28125 1.5625.28125.5.92188.5.60937 0 .89062-.48438.28125-.48437.28125-1.48437zm6.92188 1.84375q-.67188.64063-1.54688.64063-1.14062 0-1.82812-.76563-.67188-.78125-.67188-2.09375 0-.84375.35938-1.54688.375-.70312 1.03125-1.09374.65625-.39063 1.48437-.39063.84375 0 1.5.42187.65625.42188 1.01563 1.21876.35937.79687.375 1.8125v.625q0 2.14062-1.0625 3.35937-1.0625 1.21875-3.01563 1.29687h-.40625v-1.40624l.375-.01563q2.20313-.09375 2.39063-2.0625zm-1.14063-.65625q.42188 0 .70313-.20312.29687-.21876.45312-.51563v-.6875q0-.85937-.32812-1.32813-.32813-.48437-.875-.48437-.51563 0-.84375.46875-.32813.45312-.32813 1.15625 0 .70313.3125 1.15625.32813.4375.90625.4375z" fill="#fff"/><path d="m156.99919 515.875v1.40625h-.15625q-1.15625.01565-1.85937.59375-.6875.5781-.82813 1.6094.67188-.6875 1.70313-.6875 1.125 0 1.78125.79685.65625.79685.65625 2.09375 0 .8281-.35938 1.5-.35937.6719-1.03125 1.0625-.65625.375-1.48437.375-1.34375 0-2.17188-.9375-.82812-.9531-.82812-2.5156v-.6094q0-1.3906.51562-2.4531.53125-1.0625 1.5-1.64065.98438-.57815 2.28125-.59375zm-1.65625 4.28125q-.40625 0-.75.21875-.32812.2031-.48437.5625v.5156q0 .8438.32812 1.32815.34375.46875.95313.46875.54687 0 .875-.4219.34375-.4375.34375-1.125 0-.7031-.34375-1.125-.34375-.42185-.92188-.42185zm4.21875 3.51565q0-.4063.26563-.6563.28125-.25.6875-.25.42187 0 .6875.25.28125.25.28125.6563 0 .3906-.28125.6406-.26563.25-.6875.25-.40625 0-.6875-.25-.26563-.25-.26563-.6406zm8.59375-2.70315q0 1.76565-.73437 2.71875-.73438.9375-2.14063.9375-1.40625 0-2.14062-.9219-.73438-.92185-.75-2.6406v-1.5781q0-1.7813.73437-2.70315.75-.9375 2.14063-.9375 1.39062 0 2.125.92185.75.9219.76562 2.64065zm-1.70312-1.71875q0-1.0625-.29688-1.5469-.28125-.48435-.89062-.48435-.59375 0-.89063.46875-.28125.4531-.29687 1.4375v2.0625q0 1.0469.28125 1.5625.28125.5.92187.5.60938 0 .89063-.4844.28125-.48435.28125-1.48435zm7.54687-3.375v1.40625h-.15625q-1.15625.01565-1.85937.59375-.6875.5781-.82813 1.6094.67188-.6875 1.70313-.6875 1.125 0 1.78125.79685.65625.79685.65625 2.09375 0 .8281-.35938 1.5-.35937.6719-1.03125 1.0625-.65625.375-1.48437.375-1.34375 0-2.17188-.9375-.82812-.9531-.82812-2.5156v-.6094q0-1.3906.51562-2.4531.53125-1.0625 1.5-1.64065.98438-.57815 2.28125-.59375zm-1.65625 4.28125q-.40625 0-.75.21875-.32812.2031-.48437.5625v.5156q0 .8438.32812 1.32815.34375.46875.95313.46875.54687 0 .875-.4219.34375-.4375.34375-1.125 0-.7031-.34375-1.125-.34375-.42185-.92188-.42185z" stroke="#666" stroke-linecap="round" stroke-linejoin="round" stroke-width="3"/><path d="m156.99919 515.875v1.40625h-.15625q-1.15625.01565-1.85937.59375-.6875.5781-.82813 1.6094.67188-.6875 1.70313-.6875 1.125 0 1.78125.79685.65625.79685.65625 2.09375 0 .8281-.35938 1.5-.35937.6719-1.03125 1.0625-.65625.375-1.48437.375-1.34375 0-2.17188-.9375-.82812-.9531-.82812-2.5156v-.6094q0-1.3906.51562-2.4531.53125-1.0625 1.5-1.64065.98438-.57815 2.28125-.59375zm-1.65625 4.28125q-.40625 0-.75.21875-.32812.2031-.48437.5625v.5156q0 .8438.32812 1.32815.34375.46875.95313.46875.54687 0 .875-.4219.34375-.4375.34375-1.125 0-.7031-.34375-1.125-.34375-.42185-.92188-.42185zm4.21875 3.51565q0-.4063.26563-.6563.28125-.25.6875-.25.42187 0 .6875.25.28125.25.28125.6563 0 .3906-.28125.6406-.26563.25-.6875.25-.40625 0-.6875-.25-.26563-.25-.26563-.6406zm8.59375-2.70315q0 1.76565-.73437 2.71875-.73438.9375-2.14063.9375-1.40625 0-2.14062-.9219-.73438-.92185-.75-2.6406v-1.5781q0-1.7813.73437-2.70315.75-.9375 2.14063-.9375 1.39062 0 2.125.92185.75.9219.76562 2.64065zm-1.70312-1.71875q0-1.0625-.29688-1.5469-.28125-.48435-.89062-.48435-.59375 0-.89063.46875-.28125.4531-.29687 1.4375v2.0625q0 1.0469.28125 1.5625.28125.5.92187.5.60938 0 .89063-.4844.28125-.48435.28125-1.48435zm7.54687-3.375v1.40625h-.15625q-1.15625.01565-1.85937.59375-.6875.5781-.82813 1.6094.67188-.6875 1.70313-.6875 1.125 0 1.78125.79685.65625.79685.65625 2.09375 0 .8281-.35938 1.5-.35937.6719-1.03125 1.0625-.65625.375-1.48437.375-1.34375 0-2.17188-.9375-.82812-.9531-.82812-2.5156v-.6094q0-1.3906.51562-2.4531.53125-1.0625 1.5-1.64065.98438-.57815 2.28125-.59375zm-1.65625 4.28125q-.40625 0-.75.21875-.32812.2031-.48437.5625v.5156q0 .8438.32812 1.32815.34375.46875.95313.46875.54687 0 .875-.4219.34375-.4375.34375-1.125 0-.7031-.34375-1.125-.34375-.42185-.92188-.42185z" fill="#fff"/><path d="m148.98766 578.28125h.96874v1.375h-.96874v1.84375h-1.70313v-1.84375h-3.48437l-.07813-1.0625 3.54687-5.625h1.71876zm-3.57813 0h1.875v-3l-.10937.1875zm5.71875 2.39065q0-.4063.26562-.6563.28126-.25.6875-.25.42188 0 .6875.25.28126.25.28126.6563 0 .3906-.28126.6406-.26562.25-.6875.25-.40624 0-.6875-.25-.26562-.25-.26562-.6406zm8.64062-6.75-3.29687 7.5781h-1.78125l3.29688-7.15625h-4.23438v-1.375h6.01562zm7 0-3.29687 7.5781h-1.78125l3.29688-7.15625h-4.23438v-1.375h6.01562z" stroke="#666" stroke-linecap="round" stroke-linejoin="round" stroke-width="3"/><path d="m148.98766 578.28125h.96874v1.375h-.96874v1.84375h-1.70313v-1.84375h-3.48437l-.07813-1.0625 3.54687-5.625h1.71876zm-3.57813 0h1.875v-3l-.10937.1875zm5.71875 2.39065q0-.4063.26562-.6563.28126-.25.6875-.25.42188 0 .6875.25.28126.25.28126.6563 0 .3906-.28126.6406-.26562.25-.6875.25-.40624 0-.6875-.25-.26562-.25-.26562-.6406zm8.64062-6.75-3.29687 7.5781h-1.78125l3.29688-7.15625h-4.23438v-1.375h6.01562zm7 0-3.29687 7.5781h-1.78125l3.29688-7.15625h-4.23438v-1.375h6.01562z" fill="#fff"/><path d="m310.3036 638.5h-5.84376v-1.15625l2.76562-2.95315q.5625-.60935.82814-1.0781.28124-.46875.28124-.875 0-.5781-.29688-.8906-.28126-.32815-.8125-.32815-.57812 0-.90626.39065-.3281.3906-.3281 1.04685h-1.70314q0-.78125.375-1.42185.375-.6563 1.04688-1.01565.6875-.375 1.54686-.375 1.3125 0 2.0469.64065.73436.625.73436 1.7812 0 .64065-.32812 1.2969-.32814.65625-1.125 1.53125l-1.9375 2.04685h3.65626zm5.125-3.40625q-.6719.64065-1.5469.64065-1.1406 0-1.8281-.76565-.6719-.78125-.6719-2.09375 0-.84375.3594-1.5469.375-.7031 1.03124-1.0937.65626-.39065 1.48436-.39065.84376 0 1.5.42185.65626.4219 1.01564 1.2188.35936.79685.375 1.8125v.625q0 2.1406-1.0625 3.35935-1.0625 1.21875-3.01564 1.29685h-.40624v-1.4062l.375-.01565q2.20314-.09375 2.39064-2.0625zm-1.14064-.65625q.42188 0 .70314-.2031.29686-.2188.4531-.51565v-.6875q0-.85935-.3281-1.32815-.32814-.48435-.875-.48435-.51564 0-.84376.46875-.32814.4531-.32814 1.15625 0 .70315.3125 1.15625.32814.4375.90626.4375zm4.32814 3.2344q0-.4063.2656-.6563.28126-.25.6875-.25.4219 0 .6875.25.28126.25.28126.6563 0 .3906-.28126.6406-.2656.25-.6875.25-.40624 0-.6875-.25-.2656-.25-.2656-.6406zm8.6875.8281h-5.84376v-1.15625l2.76562-2.95315q.5625-.60935.82814-1.0781.28124-.46875.28124-.875 0-.5781-.29688-.8906-.28126-.32815-.8125-.32815-.57812 0-.90626.39065-.3281.3906-.3281 1.04685h-1.70314q0-.78125.375-1.42185.375-.6563 1.04688-1.01565.6875-.375 1.54686-.375 1.3125 0 2.0469.64065.73436.625.73436 1.7812 0 .64065-.32812 1.2969-.32814.65625-1.125 1.53125l-1.9375 2.04685h3.65626zm2.875-5.0156h.90624q.64062 0 .95312-.3125.3125-.32815.3125-.8594 0-.5156-.3125-.7969-.29686-.29685-.84376-.29685-.48436 0-.8125.26565-.3281.2656-.3281.6875h-1.6875q0-.6563.35936-1.1875.35938-.5313 1-.82815.65624-.3125 1.4375-.3125 1.34374 0 2.10938.65625.78126.6406.78126 1.78125 0 .59375-.3594 1.09375-.35936.4844-.9375.7344.71876.2656 1.0625.7812.3594.51565.3594 1.2188 0 1.1406-.82814 1.8281-.82812.6875-2.1875.6875-1.28126 0-2.09376-.6719-.8125-.6875-.8125-1.79685h1.6875q0 .48435.3594.79685.375.2969.8906.2969.6094 0 .95314-.3125.34376-.3281.34376-.8594 0-1.2656-1.40626-1.2656h-.90624z" stroke="#666" stroke-linecap="round" stroke-linejoin="round" stroke-width="3"/><path d="m310.3036 638.5h-5.84376v-1.15625l2.76562-2.95315q.5625-.60935.82814-1.0781.28124-.46875.28124-.875 0-.5781-.29688-.8906-.28126-.32815-.8125-.32815-.57812 0-.90626.39065-.3281.3906-.3281 1.04685h-1.70314q0-.78125.375-1.42185.375-.6563 1.04688-1.01565.6875-.375 1.54686-.375 1.3125 0 2.0469.64065.73436.625.73436 1.7812 0 .64065-.32812 1.2969-.32814.65625-1.125 1.53125l-1.9375 2.04685h3.65626zm5.125-3.40625q-.6719.64065-1.5469.64065-1.1406 0-1.8281-.76565-.6719-.78125-.6719-2.09375 0-.84375.3594-1.5469.375-.7031 1.03124-1.0937.65626-.39065 1.48436-.39065.84376 0 1.5.42185.65626.4219 1.01564 1.2188.35936.79685.375 1.8125v.625q0 2.1406-1.0625 3.35935-1.0625 1.21875-3.01564 1.29685h-.40624v-1.4062l.375-.01565q2.20314-.09375 2.39064-2.0625zm-1.14064-.65625q.42188 0 .70314-.2031.29686-.2188.4531-.51565v-.6875q0-.85935-.3281-1.32815-.32814-.48435-.875-.48435-.51564 0-.84376.46875-.32814.4531-.32814 1.15625 0 .70315.3125 1.15625.32814.4375.90626.4375zm4.32814 3.2344q0-.4063.2656-.6563.28126-.25.6875-.25.4219 0 .6875.25.28126.25.28126.6563 0 .3906-.28126.6406-.2656.25-.6875.25-.40624 0-.6875-.25-.2656-.25-.2656-.6406zm8.6875.8281h-5.84376v-1.15625l2.76562-2.95315q.5625-.60935.82814-1.0781.28124-.46875.28124-.875 0-.5781-.29688-.8906-.28126-.32815-.8125-.32815-.57812 0-.90626.39065-.3281.3906-.3281 1.04685h-1.70314q0-.78125.375-1.42185.375-.6563 1.04688-1.01565.6875-.375 1.54686-.375 1.3125 0 2.0469.64065.73436.625.73436 1.7812 0 .64065-.32812 1.2969-.32814.65625-1.125 1.53125l-1.9375 2.04685h3.65626zm2.875-5.0156h.90624q.64062 0 .95312-.3125.3125-.32815.3125-.8594 0-.5156-.3125-.7969-.29686-.29685-.84376-.29685-.48436 0-.8125.26565-.3281.2656-.3281.6875h-1.6875q0-.6563.35936-1.1875.35938-.5313 1-.82815.65624-.3125 1.4375-.3125 1.34374 0 2.10938.65625.78126.6406.78126 1.78125 0 .59375-.3594 1.09375-.35936.4844-.9375.7344.71876.2656 1.0625.7812.3594.51565.3594 1.2188 0 1.1406-.82814 1.8281-.82812.6875-2.1875.6875-1.28126 0-2.09376-.6719-.8125-.6875-.8125-1.79685h1.6875q0 .48435.3594.79685.375.2969.8906.2969.6094 0 .95314-.3125.34376-.3281.34376-.8594 0-1.2656-1.40626-1.2656h-.90624z" fill="#fff"/><g fill="#000"><path d="m102.8125 70.24009 2.4375-7.03125h1.234375l-3.171875 8.53125h-.984375l-3.15625-8.53125h1.21875zm8.921875 1.5q-.09375-.1875-.15625-.671876-.75.796876-1.796875.796876-.9375 0-1.546875-.53125-.59375-.53125-.59375-1.359376 0-.984374.75-1.53125.75-.546874 2.125-.546874h1.046875v-.5q0-.5625-.34375-.890626-.328125-.34375-1-.34375-.578125 0-.96875.296876-.390625.28125-.390625.703124h-1.09375q0-.484374.328125-.921874.34375-.4375.921875-.6875.578125-.265626 1.265625-.265626 1.109375 0 1.71875.546876.625.546874.65625 1.5v2.921874q0 .875.21875 1.390626v.09375zm-1.796875-.828126q.515625 0 .96875-.265624.453125-.265626.65625-.6875v-1.296876h-.84375q-2 0-2 1.171876 0 .5.34375.796874.34375.28125.875.28125zm2.46875-6.84375h-3.9375v-.84375h3.9375zm4.953125 6.90625q.578125 0 1.015625-.34375.4375-.359374.484375-.890624h1.03125q-.03125.546874-.390625 1.046874-.34375.484376-.921875.78125-.5625.296876-1.21875.296876-1.296875 0-2.0625-.859376-.75-.875-.75-2.375v-.1875q0-.921874.328125-1.640624.34375-.71875.96875-1.109376.640625-.40625 1.515625-.40625 1.0625 0 1.765625.640626.71875.625.765625 1.65625h-1.03125q-.046875-.625-.46875-1.015626-.421875-.390624-1.03125-.390624-.828125 0-1.28125.59375-.453125.59375-.453125 1.71875v.203124q0 1.09375.453125 1.6875.453125.59375 1.28125.59375zm4.640625.765626h-1.078125v-6.34375h1.078125zm-1.171875-8.015626q0-.265624.15625-.453124.171875-.1875.484375-.1875.3125 0 .46875.1875.171875.1875.171875.453124 0 .25-.171875.4375-.15625.171876-.46875.171876-.3125 0-.484375-.171876-.15625-.1875-.15625-.4375zm4.109375 1.671876v7.078124q0 1.828126-1.65625 1.828126-.359375 0-.65625-.109376v-.859374q.1875.046874.484375.046874.359375 0 .546875-.203124.203125-.1875.203125-.6875v-7.09375zm-1.1875-1.671876q0-.265624.15625-.453124.15625-.1875.46875-.1875.3125 0 .46875.1875.171875.1875.171875.453124 0 .25-.171875.4375-.15625.171876-.46875.171876-.3125 0-.46875-.171876-.15625-.1875-.15625-.4375zm6.98438 8.015626q-.09376-.1875-.15626-.671876-.75.796876-1.79687.796876-.9375 0-1.546875-.53125-.59375-.53125-.59375-1.359376 0-.984374.75-1.53125.749995-.546874 2.124995-.546874h1.04688v-.5q0-.5625-.34375-.890626-.32813-.34375-1-.34375-.57813 0-.96875.296876-.390625.28125-.390625.703124h-1.09375q0-.484374.328125-.921874.34375-.4375.92187-.6875.57813-.265626 1.26563-.265626 1.10937 0 1.71875.546876.625.546874.65625 1.5v2.921874q0 .875.21875 1.390626v.09375zm-1.79688-.828126q.51562 0 .96875-.265624.45313-.265626.65625-.6875v-1.296876h-.84375q-2 0-2 1.171876 0 .5.34375.796874.34375.28125.875.28125z"/><path d="m88.828125 127.4702h4.890625v.92187h-6.21875v-.843745l4.6875-6.765625h-4.609375v-.921875h5.953125v.828125zm8.078125-.546875 1.578125-4.875h1.109375l-2.28125 6.343745h-.828125l-2.296875-6.343745h1.109375zm5.09375 1.468745h-1.078125v-6.343745h1.078125zm-1.171875-8.01562q0-.265625.15625-.453125.171875-.1875.484375-.1875.3125 0 .46875.1875.171875.1875.171875.453125 0 .25-.171875.4375-.15625.171875-.46875.171875-.3125 0-.484375-.171875-.15625-.1875-.15625-.4375zm5.625 8.14062q-1.296875 0-2.109375-.843745-.796875-.859375-.796875-2.28125v-.1875q0-.953125.359375-1.6875.359375-.75 1-1.15625.65625-.421875 1.40625-.421875 1.234375 0 1.921875.8125.6875.8125.6875 2.328125v.453125h-4.296875q.03125.9375.546875 1.515625.53125.578125 1.34375.578125.5625 0 .953125-.234375.40625-.234375.71875-.625l.65625.515625q-.796875 1.23437-2.390625 1.23437zm-.140625-5.687495q-.65625 0-1.109375.484375-.4375.46875-.53125 1.328125h3.171875v-.078125q-.046875-.828125-.453125-1.28125-.390625-.453125-1.078125-.453125zm3.25 2.34375q0-1.46875.6875-2.34375.6875-.890625 1.8125-.890625 1.109375 0 1.765625.75v-3.296875h1.078125v8.999995h-1l-.046875-.687495q-.65625.812495-1.8125.812495-1.09375 0-1.796875-.906245-.6875-.90625-.6875-2.359375zm1.078125.125q0 1.078125.4375 1.6875.453125.609375 1.234375.609375 1.03125 0 1.515625-.9375v-2.90625q-.484375-.890625-1.5-.890625-.796875 0-1.25.609375-.4375.609375-.4375 1.828125zm9.25-2.28125q-.25-.03125-.53125-.03125-1.078125 0-1.453125.90625v4.499995h-1.078125v-6.343745h1.046875l.015625.734375q.53125-.84375 1.515625-.84375.3125 0 .484375.078125zm2.109375 5.374995h-1.078125v-6.343745h1.078125zm-1.171875-8.01562q0-.265625.15625-.453125.171875-.1875.484375-.1875.3125 0 .46875.1875.171875.1875.171875.453125 0 .25-.171875.4375-.15625.171875-.46875.171875-.3125 0-.484375-.171875-.15625-.1875-.15625-.4375zm4.109375 1.671875v7.078125q0 1.82812-1.65625 1.82812-.359375 0-.65625-.10937v-.85938q.1875.04688.484375.04688.359375 0 .546875-.20313.203125-.1875.203125-.6875v-7.093745zm-1.1875-1.671875q0-.265625.15625-.453125.15625-.1875.46875-.1875.3125 0 .46875.1875.171875.1875.171875.453125 0 .25-.171875.4375-.15625.171875-.46875.171875-.3125 0-.46875-.171875-.15625-.1875-.15625-.4375zm6.98438 8.01562q-.09376-.1875-.15626-.67187-.75.79687-1.79687.79687-.9375 0-1.546875-.531245-.59375-.53125-.59375-1.359375 0-.984375.75-1.53125.749995-.546875 2.124995-.546875h1.04688v-.5q0-.5625-.34375-.890625-.32813-.34375-1-.34375-.57813 0-.96875.296875-.390625.28125-.390625.703125h-1.09375q0-.484375.328125-.921875.34375-.4375.92187-.6875.57813-.265625 1.26563-.265625 1.10937 0 1.71875.546875.625.546875.65625 1.5v2.921875q0 .875.21875 1.39062v.09375zm-1.79688-.82812q.51562 0 .96875-.265625.45313-.265625.65625-.6875v-1.296875h-.84375q-2 0-2 1.171875 0 .5.34375.796875.34375.28125.875.28125z"/><path d="m81.546875 185.04405h-1.125l-4.296875-6.57812v6.57812h-1.140625v-8.53125h1.140625l4.296875 6.60938v-6.60938h1.125zm3.453125 0h-1.09375v-6.34375h1.09375zm1.46875-7.65625h-3.9375v-.84375h3.9375zm.09375 4.4375q0-1.46875.6875-2.34375.6875-.89062 1.8125-.89062 1.109375 0 1.765625.75v-3.29688h1.078125v9h-1l-.046875-.6875q-.65625.8125-1.8125.8125-1.09375 0-1.796875-.90625-.6875-.90625-.6875-2.35937zm1.078125.125q0 1.07813.4375 1.6875.453125.60938 1.234375.60938 1.03125 0 1.515625-.9375v-2.90625q-.484375-.89063-1.5-.89063-.796875 0-1.25.60938-.4375.60937-.4375 1.82812zm8.8125 3.21875q-1.296875 0-2.109375-.84375-.796875-.85937-.796875-2.28125v-.1875q0-.95312.359375-1.6875.359375-.75 1-1.15625.65625-.42187 1.40625-.42187 1.234375 0 1.921875.8125.6875.8125.6875 2.32812v.45313h-4.296875q.03125.9375.546875 1.51562.53125.57813 1.34375.57813.5625 0 .953125-.23438.40625-.23437.71875-.625l.65625.51563q-.796875 1.23437-2.390625 1.23437zm-.140625-5.6875q-.65625 0-1.109375.48438-.4375.46875-.53125 1.32812h3.171875v-.07812q-.046875-.82813-.453125-1.28125-.390625-.45313-1.078125-.45313zm6.578125.1875q-.25-.03125-.53125-.03125-1.078125 0-1.453125.90625v4.5h-1.078125v-6.34375h1.046875l.015625.73438q.53125-.84375 1.515625-.84375.3125 0 .484375.07812zm2.109375 5.375h-1.078125v-9h1.078125zm5.734375 0q-.09375-.1875-.15625-.67187-.75.79687-1.796875.79687-.9375 0-1.546875-.53125-.59375-.53125-.59375-1.35937 0-.98438.75-1.53125.75-.54688 2.125-.54688h1.046875v-.5q0-.5625-.34375-.89062-.328125-.34375-1-.34375-.578125 0-.96875.29687-.390625.28125-.390625.70313h-1.09375q0-.48438.328125-.92188.34375-.4375.921875-.6875.578125-.26562 1.265625-.26562 1.109375 0 1.71875.54687.625.54688.65625 1.5v2.92188q0 .875.21875 1.39062v.09375zm-1.796875-.82812q.515625 0 .96875-.26563.453125-.26562.65625-.6875v-1.29687h-.84375q-2 0-2 1.17187 0 .5.34375.79688.34375.28125.875.28125zm5.90625-5.51563.03125.79688q.734375-.90625 1.90625-.90625 2.015625 0 2.03125 2.26562v4.1875h-1.09375v-4.20312q0-.67188-.3125-1-.296875-.32813-.953125-.32813-.53125 0-.9375.28125-.390625.28125-.609375.73438v4.51562h-1.078125v-6.34375zm5.71875 3.125q0-1.46875.6875-2.34375.6875-.89062 1.8125-.89062 1.109375 0 1.765625.75v-3.29688h1.078125v9h-1l-.046875-.6875q-.65625.8125-1.8125.8125-1.09375 0-1.796875-.90625-.6875-.90625-.6875-2.35937zm1.078125.125q0 1.07813.4375 1.6875.453125.60938 1.234375.60938 1.03125 0 1.515625-.9375v-2.90625q-.484375-.89063-1.5-.89063-.796875 0-1.25.60938-.4375.60937-.4375 1.82812zm8.812495 3.21875q-1.29687 0-2.10937-.84375-.796875-.85937-.796875-2.28125v-.1875q0-.95312.359375-1.6875.35937-.75 1-1.15625.65625-.42187 1.40625-.42187 1.23438 0 1.92188.8125.6875.8125.6875 2.32812v.45313h-4.29688q.03125.9375.54688 1.51562.53124.57813 1.34374.57813.5625 0 .95313-.23438.40625-.23437.71875-.625l.65625.51563q-.79687 1.23437-2.39063 1.23437zm-.14062-5.6875q-.65625 0-1.10938.48438-.4375.46875-.53124 1.32812h3.17187v-.07812q-.04687-.82813-.45313-1.28125-.39062-.45313-1.07812-.45313z"/><path d="m97.984375 241.69603v-8.53125h2.796875q1.390625 0 2.078125.57812.703125.5625.703125 1.6875 0 .60938-.34375 1.07813-.328125.45312-.921875.70312.703125.1875 1.09375.73438.40625.53125.40625 1.28125 0 1.15625-.75 1.8125-.734375.65625-2.09375.65625zm1.125-3.98438v3.0625h1.859375q.796875 0 1.25-.40625.453125-.40625.453125-1.125 0-1.53125-1.6875-1.53125zm0-.90625h1.703125q.734375 0 1.171875-.35937.453125-.375.453125-1.01563 0-.70312-.40625-1.01562-.40625-.32813-1.25-.32813h-1.671875zm8.34375 5.01563q-1.296875 0-2.109375-.84375-.796875-.85938-.796875-2.28125v-.1875q0-.95313.359375-1.6875.359375-.75 1-1.15625.65625-.42188 1.40625-.42188 1.234375 0 1.921875.8125.6875.8125.6875 2.32813v.45312h-4.296875q.03125.9375.546875 1.51563.53125.57812 1.34375.57812.5625 0 .953125-.23437.40625-.23438.71875-.625l.65625.51562q-.796875 1.23438-2.390625 1.23438zm-.140625-5.6875q-.65625 0-1.109375.48437-.4375.46875-.53125 1.32813h3.171875v-.07813q-.046875-.82812-.453125-1.28125-.390625-.45312-1.078125-.45312zm4.6875 5.5625h-1.078125v-9h1.078125zm-.875 2.9375-.609375-.42188q.421875-.64062.421875-1.375v-.54687h1.046875v.45312q0 .53125-.234375 1.04688-.234375.53125-.625.84375zm2.4375-6.15625q0-1.48438.6875-2.35938.6875-.875 1.8125-.875 1.15625 0 1.8125.8125l.046875-.70312h1v6.1875q0 1.23437-.734375 1.9375-.734375.71875-1.953125.71875-.6875 0-1.34375-.29688-.65625-.29687-1-.79687l.5625-.65625q.6875.85937 1.703125.85937.78125 0 1.21875-.45312.453125-.4375.453125-1.25v-.54688q-.65625.76563-1.78125.76563-1.109375 0-1.796875-.89063-.6875-.90625-.6875-2.45312zm1.09375.125q0 1.0625.4375 1.6875.4375.60937 1.234375.60937 1.015625 0 1.5-.9375v-2.89062q-.5-.90625-1.5-.90625-.78125 0-1.234375.60937-.4375.60938-.4375 1.82813zm1.84375-6.76563.625.48438q-.34375.57812-.359375 1.23437v.79688h-1.078125v-.76563q0-.45312.234375-.95312.25-.51563.578125-.79688zm5.5 9.85938h-1.078125v-6.34375h1.078125zm-1.171875-8.01563q0-.26562.15625-.45312.171875-.1875.484375-.1875.3125 0 .46875.1875.171875.1875.171875.45312 0 .25-.171875.4375-.15625.17188-.46875.17188-.3125 0-.484375-.17188-.15625-.1875-.15625-.4375zm4.109375 1.67188v7.07812q0 1.82813-1.65625 1.82813-.359375 0-.65625-.10938v-.85937q.1875.04687.484375.04687.359375 0 .546875-.20312.203125-.1875.203125-.6875v-7.09375zm-1.1875-1.67188q0-.26562.15625-.45312.15625-.1875.46875-.1875.3125 0 .46875.1875.171875.1875.171875.45312 0 .25-.171875.4375-.15625.17188-.46875.17188-.3125 0-.46875-.17188-.15625-.1875-.15625-.4375zm6.98438 8.01563q-.09376-.1875-.15626-.67188-.75.79688-1.79687.79688-.9375 0-1.546875-.53125-.59375-.53125-.59375-1.35938 0-.98437.75-1.53125.749995-.54687 2.124995-.54687h1.04688v-.5q0-.5625-.34375-.89063-.32813-.34375-1-.34375-.57813 0-.96875.29688-.390625.28125-.390625.70312h-1.09375q0-.48437.328125-.92187.34375-.4375.92187-.6875.57813-.26563 1.26563-.26563 1.10937 0 1.71875.54688.625.54687.65625 1.5v2.92187q0 .875.21875 1.39063v.09375zm-1.79688-.82813q.51562 0 .96875-.26562.45313-.26563.65625-.6875v-1.29688h-.84375q-2 0-2 1.17188 0 .5.34375.79687.34375.28125.875.28125z"/><path d="m94.703125 294.5824h-3.59375v3.76562h-1.125v-8.53125h5.296875v.92188h-4.171875v2.92187h3.59375zm5.1875-1.60938q-.25-.03125-.53125-.03125-1.078125 0-1.453125.90625v4.5h-1.078125v-6.34375h1.046875l.015625.73438q.53125-.84375 1.515625-.84375.3125 0 .484375.07812zm4.84375 5.375q-.09375-.1875-.15625-.67187-.75.79687-1.796875.79687-.9375 0-1.546875-.53125-.59375-.53125-.59375-1.35937 0-.98438.75-1.53125.75-.54688 2.125-.54688h1.046875v-.5q0-.5625-.34375-.89062-.328125-.34375-1-.34375-.578125 0-.96875.29687-.390625.28125-.390625.70313h-1.09375q0-.48438.328125-.92188.34375-.4375.921875-.6875.578125-.26562 1.265625-.26562 1.109375 0 1.71875.54687.625.54688.65625 1.5v2.92188q0 .875.21875 1.39062v.09375zm-1.796875-.82812q.515625 0 .96875-.26563.453125-.26562.65625-.6875v-1.29687h-.84375q-2 0-2 1.17187 0 .5.34375.79688.34375.28125.875.28125zm5.90625-5.51563.03125.79688q.734375-.90625 1.90625-.90625 2.015625 0 2.03125 2.26562v4.1875h-1.09375v-4.20312q0-.67188-.3125-1-.296875-.32813-.953125-.32813-.53125 0-.9375.28125-.390625.28125-.609375.73438v4.51562h-1.078125v-6.34375zm8.515625 5.57813q.578125 0 1.015625-.34375.4375-.35938.484375-.89063h1.03125q-.03125.54688-.390625 1.04688-.34375.48437-.921875.78125-.5625.29687-1.21875.29687-1.296875 0-2.0625-.85937-.75-.875-.75-2.375v-.1875q0-.92188.328125-1.64063.34375-.71875.96875-1.10937.640625-.40625 1.515625-.40625 1.0625 0 1.765625.64062.71875.625.765625 1.65625h-1.03125q-.046875-.625-.46875-1.01562-.421875-.39063-1.03125-.39063-.828125 0-1.28125.59375-.453125.59375-.453125 1.71875v.20313q0 1.09375.453125 1.6875.453125.59375 1.28125.59375zm4.640625.76562h-1.078125v-6.34375h1.078125zm-1.171875-8.01562q0-.26563.15625-.45313.171875-.1875.484375-.1875.3125 0 .46875.1875.171875.1875.171875.45313 0 .25-.171875.4375-.15625.17187-.46875.17187-.3125 0-.484375-.17187-.15625-.1875-.15625-.4375zm4.109375 1.67187v7.07813q0 1.82812-1.65625 1.82812-.359375 0-.65625-.10937v-.85938q.1875.04688.484375.04688.359375 0 .546875-.20313.203125-.1875.203125-.6875v-7.09375zm-1.1875-1.67187q0-.26563.15625-.45313.15625-.1875.46875-.1875.3125 0 .46875.1875.171875.1875.171875.45313 0 .25-.171875.4375-.15625.17187-.46875.17187-.3125 0-.46875-.17187-.15625-.1875-.15625-.4375zm6.98438 8.01562q-.09376-.1875-.15626-.67187-.75.79687-1.79687.79687-.9375 0-1.546875-.53125-.59375-.53125-.59375-1.35937 0-.98438.75-1.53125.749995-.54688 2.124995-.54688h1.04688v-.5q0-.5625-.34375-.89062-.32813-.34375-1-.34375-.57813 0-.96875.29687-.390625.28125-.390625.70313h-1.09375q0-.48438.328125-.92188.34375-.4375.92187-.6875.57813-.26562 1.26563-.26562 1.10937 0 1.71875.54687.625.54688.65625 1.5v2.92188q0 .875.21875 1.39062v.09375zm-1.79688-.82812q.51562 0 .96875-.26563.45313-.26562.65625-.6875v-1.29687h-.84375q-2 0-2 1.17187 0 .5.34375.79688.34375.28125.875.28125z"/><path d="m96.125 354.07812h4.046875v.92188h-5.1875v-8.53125h1.140625zm5.875.92188h-1.078125v-6.34375h1.078125zm-1.171875-8.01562q0-.26563.15625-.45313.171875-.1875.484375-.1875.3125 0 .46875.1875.171875.1875.171875.45313 0 .25-.171875.4375-.15625.17187-.46875.17187-.3125 0-.484375-.17187-.15625-.1875-.15625-.4375zm5.625 8.14062q-1.296875 0-2.109375-.84375-.796875-.85937-.796875-2.28125v-.1875q0-.95312.359375-1.6875.359375-.75 1-1.15625.65625-.42187 1.40625-.42187 1.234375 0 1.921875.8125.6875.8125.6875 2.32812v.45312h-4.296875q.03125.9375.546875 1.51563.53125.57813 1.34375.57813.5625 0 .953125-.23438.40625-.23438.71875-.625l.65625.51562q-.796875 1.23438-2.390625 1.23438zm-.140625-5.6875q-.65625 0-1.109375.48438-.4375.46874-.53125 1.32812h3.171875v-.07812q-.046875-.82813-.453125-1.28126-.390625-.45312-1.078125-.45312zm4.984375-2.3125v1.53125h1.171875v.84375h-1.171875v3.92188q0 .39062.15625.57812.15625.1875.53125.1875.1875 0 .515625-.0625v.875q-.421875.125-.828125.125-.71875 0-1.09375-.4375-.375-.45312-.375-1.26562v-3.92188h-1.15625v-.84375h1.15625v-1.53125zm6.4375 7.25q-.625.75-1.859375.75-1.015625 0-1.546875-.59375-.53125-.59375-.53125-1.75v-4.125h1.078125v4.09375q0 1.45312 1.171875 1.45312 1.25 0 1.65625-.9375v-4.60937h1.09375v6.34375h-1.03125zm5.171875-.84375 1.578125-4.875h1.109375l-2.28125 6.34375h-.828125l-2.296875-6.34375h1.109375zm7.82813 1.46875q-.09376-.1875-.15626-.67188-.75.79688-1.79687.79688-.9375 0-1.546875-.53125-.59375-.53125-.59375-1.35937 0-.98438.75-1.53126.749995-.54687 2.124995-.54687h1.04688v-.5q0-.5625-.34375-.89063-.32813-.34374-1-.34374-.57813 0-.96875.29687-.390625.28125-.390625.70313h-1.09375q0-.48438.328125-.92188.34375-.4375.92187-.6875.57813-.26562 1.26563-.26562 1.10937 0 1.71875.54687.625.54687.65625 1.5v2.92187q0 .875.21875 1.39063v.09375zm-1.79688-.82812q.51562 0 .96875-.26563.45313-.26563.65625-.6875v-1.29687h-.84375q-2 0-2 1.17187 0 .5.34375.79687.34375.28126.875.28126z"/><path d="m91.203125 411.65198h-1.125v-8.53125h1.125zm1.359375-3.21875q0-1.48438.6875-2.35938.6875-.875 1.8125-.875 1.15625 0 1.8125.8125l.046875-.70312h1v6.1875q0 1.23437-.734375 1.9375-.734375.71875-1.953125.71875-.6875 0-1.34375-.29688-.65625-.29687-1-.79687l.5625-.65625q.6875.85937 1.703125.85937.78125 0 1.21875-.45312.453125-.4375.453125-1.25v-.54688q-.65625.76563-1.78125.76563-1.109375 0-1.796875-.89063-.6875-.90625-.6875-2.45312zm1.09375.125q0 1.0625.4375 1.6875.4375.60937 1.234375.60937 1.015625 0 1.5-.9375v-2.89062q-.5-.90625-1.5-.90625-.78125 0-1.234375.60937-.4375.60938-.4375 1.82813zm10.078125 3.09375q-.09375-.1875-.15625-.67188-.75.79688-1.796875.79688-.9375 0-1.546875-.53125-.59375-.53125-.59375-1.35938 0-.98437.75-1.53125.75-.54687 2.125-.54687h1.046875v-.5q0-.5625-.34375-.89063-.328125-.34375-1-.34375-.578125 0-.96875.29688-.390625.28125-.390625.70312h-1.09375q0-.48437.328125-.92187.34375-.4375.921875-.6875.578125-.26563 1.265625-.26563 1.109375 0 1.71875.54688.625.54687.65625 1.5v2.92187q0 .875.21875 1.39063v.09375zm-1.796875-.82813q.515625 0 .96875-.26562.453125-.26563.65625-.6875v-1.29688h-.84375q-2 0-2 1.17188 0 .5.34375.79687.34375.28125.875.28125zm8.796875.20313q-.625.75-1.859375.75-1.015625 0-1.546875-.59375-.53125-.59375-.53125-1.75v-4.125h1.078125v4.09375q0 1.45312 1.171875 1.45312 1.25 0 1.65625-.9375v-4.60937h1.09375v6.34375h-1.03125zm4.109375-5.71875.03125.79687q.734375-.90625 1.90625-.90625 2.015625 0 2.03125 2.26563v4.1875h-1.09375v-4.20313q0-.67187-.3125-1-.296875-.32812-.953125-.32812-.53125 0-.9375.28125-.390625.28125-.609375.73437v4.51563h-1.078125v-6.34375zm7.15625 6.34375h-1.078125v-6.34375h1.078125zm-1.171875-8.01563q0-.26562.15625-.45312.171875-.1875.484375-.1875.3125 0 .46875.1875.171875.1875.171875.45312 0 .25-.171875.4375-.15625.17188-.46875.17188-.3125 0-.484375-.17188-.15625-.1875-.15625-.4375zm4.109375 1.67188v7.07812q0 1.82813-1.65625 1.82813-.359375 0-.65625-.10938v-.85937q.1875.04687.484375.04687.359375 0 .546875-.20312.203125-.1875.203125-.6875v-7.09375zm-1.1875-1.67188q0-.26562.15625-.45312.15625-.1875.46875-.1875.3125 0 .46875.1875.171875.1875.171875.45312 0 .25-.171875.4375-.15625.17188-.46875.17188-.3125 0-.46875-.17188-.15625-.1875-.15625-.4375zm6.98438 8.01563q-.09376-.1875-.15626-.67188-.75.79688-1.79687.79688-.9375 0-1.546875-.53125-.59375-.53125-.59375-1.35938 0-.98437.75-1.53125.749995-.54687 2.124995-.54687h1.04688v-.5q0-.5625-.34375-.89063-.32813-.34375-1-.34375-.57813 0-.96875.29688-.390625.28125-.390625.70312h-1.09375q0-.48437.328125-.92187.34375-.4375.92187-.6875.57813-.26563 1.26563-.26563 1.10937 0 1.71875.54688.625.54687.65625 1.5v2.92187q0 .875.21875 1.39063v.09375zm-1.79688-.82813q.51562 0 .96875-.26562.45313-.26563.65625-.6875v-1.29688h-.84375q-2 0-2 1.17188 0 .5.34375.79687.34375.28125.875.28125z"/><path d="m105.203125 468.30396h-1.125v-8.53126h1.125zm3.09375-7.875v1.53124h1.171875v.84376h-1.171875v3.92187q0 .39063.15625.57813.15625.1875.53125.1875.1875 0 .515625-.0625v.875q-.421875.125-.828125.125-.71875 0-1.09375-.4375-.375-.45313-.375-1.26563v-3.92187h-1.15625v-.84376h1.15625v-1.53124zm6.4375 7.875q-.09375-.1875-.15625-.67188-.75.79688-1.796875.79688-.9375 0-1.546875-.53126-.59375-.53124-.59375-1.35937 0-.98437.75-1.53125.75-.54688 2.125-.54688h1.046875v-.5q0-.5625-.34375-.89062-.328125-.34375-1-.34375-.578125 0-.96875.29687-.390625.28126-.390625.70313h-1.09375q0-.48437.328125-.92187.34375-.4375.921875-.6875.578125-.26563 1.265625-.26563 1.109375 0 1.71875.54687.625.54688.65625 1.5v2.92188q0 .875.21875 1.39062v.09376zm-1.796875-.82813q.515625 0 .96875-.26563.453125-.26562.65625-.6875v-1.29687h-.84375q-2 0-2 1.17187 0 .5.34375.79688.34375.28125.875.28125zm2.46875-6.84375h-3.9375v-.84375h3.9375zm3.59375 7.67188h-1.078125v-9h1.078125zm3 0h-1.078125v-6.34376h1.078125zm-1.171875-8.01563q0-.26563.15625-.45313.171875-.1875.484375-.1875.3125 0 .46875.1875.171875.1875.171875.45313 0 .25-.171875.4375-.15625.17187-.46875.17187-.3125 0-.484375-.17187-.15625-.1875-.15625-.4375zm4.109375 1.67187v7.07813q0 1.82813-1.65625 1.82813-.359375 0-.65625-.10938v-.85938q.1875.04688.484375.04688.359375 0 .546875-.20312.203125-.1875.203125-.6875v-7.09376zm-1.1875-1.67187q0-.26563.15625-.45313.15625-.1875.46875-.1875.3125 0 .46875.1875.171875.1875.171875.45313 0 .25-.171875.4375-.15625.17187-.46875.17187-.3125 0-.46875-.17187-.15625-.1875-.15625-.4375zm6.98438 8.01563q-.09376-.1875-.15626-.67188-.75.79688-1.79687.79688-.9375 0-1.546875-.53126-.59375-.53124-.59375-1.35937 0-.98437.75-1.53125.749995-.54688 2.124995-.54688h1.04688v-.5q0-.5625-.34375-.89062-.32813-.34375-1-.34375-.57813 0-.96875.29687-.390625.28126-.390625.70313h-1.09375q0-.48437.328125-.92187.34375-.4375.92187-.6875.57813-.26563 1.26563-.26563 1.10937 0 1.71875.54687.625.54688.65625 1.5v2.92188q0 .875.21875 1.39062v.09376zm-1.79688-.82813q.51562 0 .96875-.26563.45313-.26562.65625-.6875v-1.29687h-.84375q-2 0-2 1.17187 0 .5.34375.79688.34375.28125.875.28125z"/><path d="m34.703125 522.72156h-3.578125l-.796875 2.23437h-1.15625l3.25-8.53123h.984375l3.265625 8.53123h-1.15625zm-3.234375-.92186h2.90625l-1.453125-3.9844zm11.703125.0625q0 1.4375-.65625 2.3281-.65625.89063-1.796875.89063-1.15625 0-1.8125-.73437v3.04687h-1.078125v-8.78123h.984375l.046875.7031q.671875-.8125 1.84375-.8125 1.140625 0 1.796875.8594.671875.85936.671875 2.3906zm-1.078125-.125q0-1.07814-.46875-1.6875-.453125-.625-1.25-.625-.984375 0-1.46875.85936v3.03124q.484375.875 1.484375.875.78125 0 1.234375-.60937.46875-.625.46875-1.84373zm4.8125 1.75 1.578125-4.875h1.109375l-2.28125 6.34373h-.828125l-2.296875-6.34373h1.109375zm5.09375 1.46873h-1.078125v-6.34373h1.078125zm-1.171875-8.01563q0-.2656.15625-.4531.171875-.1875.484375-.1875.3125 0 .46875.1875.171875.1875.171875.4531 0 .25-.171875.4375-.15625.1719-.46875.1719-.3125 0-.484375-.1719-.15625-.1875-.15625-.4375zm5.625 8.14063q-1.296875 0-2.109375-.84373-.796875-.8594-.796875-2.28127v-.1875q0-.95313.359375-1.6875.359375-.75 1-1.15623.65625-.4219 1.40625-.4219 1.234375 0 1.921875.8125.6875.8125.6875 2.32813v.45313h-4.296875q.03125.9375.546875 1.51564.53125.5781 1.34375.5781.5625 0 .953125-.23437.40625-.23437.71875-.625l.65625.51563q-.796875 1.23437-2.390625 1.23437zm-.140625-5.6875q-.65625 0-1.109375.48437-.4375.46876-.53125 1.32813h3.171875v-.07813q-.046875-.8281-.453125-1.28124-.390625-.45313-1.078125-.45313zm4.53125-.78123.03125.79686q.734375-.90626 1.90625-.90626 2.015625 0 2.03125 2.26563v4.1875h-1.09375v-4.20313q0-.67187-.3125-1-.296875-.3281-.953125-.3281-.53125 0-.9375.28123-.390625.28127-.609375.73437v4.51563h-1.078125v-6.34373zm5.6875 3.10936q0-.92186.359375-1.67186.375-.75 1.03125-1.14064.65625-.40626 1.484375-.40626 1.296875 0 2.09375.89063.8125.89063.8125 2.39063v.07814q0 .92186-.359375 1.65623-.359375.73437-1.015625 1.15627-.65625.40623-1.515625.40623-1.28125 0-2.09375-.89063-.796875-.90624-.796875-2.3906zm1.09375.14064q0 1.04686.484375 1.6875.5.6406 1.3125.6406.828125 0 1.3125-.6406.484375-.65627.484375-1.82814 0-1.03126-.5-1.67186-.484375-.65627-1.3125-.65627-.796875 0-1.296875.64063-.484375.625-.484375 1.82814zm7.671875-4.78127v1.53127h1.171875v.84373h-1.171875v3.92187q0 .39063.15625.57813.15625.1875.53125.1875.1875 0 .515625-.0625v.875q-.421875.125-.828125.125-.71875 0-1.09375-.4375-.375-.45313-.375-1.26563v-3.92187h-1.15625v-.84373h1.15625v-1.53127zm6.4375 7.875q-.09375-.1875-.15625-.67187-.75.79687-1.796875.79687-.9375 0-1.546875-.53123-.59375-.53127-.59375-1.3594 0-.98437.75-1.53124.75-.54686 2.125-.54686h1.046875v-.5q0-.5625-.34375-.89064-.328125-.34376-1-.34376-.578125 0-.96875.2969-.390625.28123-.390625.7031h-1.09375q0-.48437.328125-.92187.34375-.4375.921875-.6875.578125-.26563 1.265625-.26563 1.109375 0 1.71875.5469.625.54686.65625 1.5v2.92186q0 .875.21875 1.39064v.09373zm-1.796875-.82813q.515625 0 .96875-.2656.453125-.26564.65625-.6875v-1.2969h-.84375q-2 0-2 1.1719 0 .5.34375.79686.34375.28124.875.28124zm2.46875-6.84374h-3.9375v-.84376h3.9375zm7.1875 4.73437-.6875.70313v2.23437h-1.078125v-9h1.078125v5.4375l.578125-.6875 1.984375-2.09373h1.3125l-2.46875 2.65623 2.765625 3.6875h-1.28125zm8.140625 2.9375q-.09375-.1875-.15625-.67187-.75.79687-1.796875.79687-.9375 0-1.546875-.53123-.59375-.53127-.59375-1.3594 0-.98437.75-1.53124.75-.54686 2.125-.54686h1.046875v-.5q0-.5625-.34375-.89064-.328125-.34376-1-.34376-.578125 0-.96875.2969-.390625.28123-.390625.7031h-1.09375q0-.48437.328125-.92187.34375-.4375.921875-.6875.578125-.26563 1.265625-.26563 1.109375 0 1.71875.5469.625.54686.65625 1.5v2.92186q0 .875.21875 1.39064v.09373zm-1.796875-.82813q.515625 0 .96875-.2656.453125-.26564.65625-.6875v-1.2969h-.84375q-2 0-2 1.1719 0 .5.34375.79686.34375.28124.875.28124zm7.953125-4.54687q-.25-.03123-.53125-.03123-1.078125 0-1.453125.90623v4.5h-1.078125v-6.34373h1.046875l.015625.73436q.53125-.84376 1.515625-.84376.3125 0 .484375.07813zm4.84375 5.375q-.09375-.1875-.15625-.67187-.75.79687-1.796875.79687-.9375 0-1.546875-.53123-.59375-.53127-.59375-1.3594 0-.98437.75-1.53124.75-.54686 2.125-.54686h1.046875v-.5q0-.5625-.34375-.89064-.328125-.34376-1-.34376-.578125 0-.96875.2969-.390625.28123-.390625.7031h-1.09375q0-.48437.328125-.92187.34375-.4375.921875-.6875.578125-.26563 1.265625-.26563 1.109375 0 1.71875.5469.625.54686.65625 1.5v2.92186q0 .875.21875 1.39064v.09373zm-1.796875-.82813q.515625 0 .96875-.2656.453125-.26564.65625-.6875v-1.2969h-.84375q-2 0-2 1.1719 0 .5.34375.79686.34375.28124.875.28124zm6.0625.82813h-1.078125v-9h1.078125zm3 0h-1.078125v-6.34373h1.078125zm-1.171875-8.01563q0-.2656.15625-.4531.171875-.1875.484375-.1875.3125 0 .46875.1875.171875.1875.171875.4531 0 .25-.171875.4375-.15625.1719-.46875.1719-.3125 0-.484375-.1719-.15625-.1875-.15625-.4375zm6.6875 6.32813q0-.4375-.34375-.67187-.328125-.25-1.15625-.42186-.8125-.1719-1.296875-.4219-.484375-.25-.71875-.5781-.21875-.34377-.21875-.8125 0-.78127.65625-1.3125.65625-.5469 1.6875-.5469 1.078125 0 1.734375.5625.671875.5469.671875 1.40626h-1.078125q0-.4375-.390625-.75-.375-.32813-.9375-.32813-.59375 0-.9375.26563-.328125.25-.328125.65624 0 .39063.3125.59376.3125.20314 1.125.39064.8125.17186 1.3125.42186.5.25.734375.60937.25.35937.25.85937 0 .8594-.6875 1.375-.671875.51563-1.75.51563-.765625 0-1.359375-.26563-.578125-.28124-.90625-.7656-.328125-.4844-.328125-1.0469h1.078125q.03125.5469.4375.875.40625.3125 1.078125.3125.609375 0 .984375-.25.375-.25.375-.67187zm3.78125-6.1875v1.53127h1.171875v.84373h-1.171875v3.92187q0 .39063.15625.57813.15625.1875.53125.1875.1875 0 .515625-.0625v.875q-.421875.125-.828125.125-.71875 0-1.09375-.4375-.375-.45313-.375-1.26563v-3.92187h-1.15625v-.84373h1.15625v-1.53127zm5.156245 8q-1.29687 0-2.10937-.84373-.796875-.8594-.796875-2.28127v-.1875q0-.95313.359375-1.6875.35937-.75 1-1.15623.65625-.4219 1.40625-.4219 1.23438 0 1.92188.8125.6875.8125.6875 2.32813v.45313h-4.29688q.03125.9375.54688 1.51564.53124.5781 1.34374.5781.5625 0 .95313-.23437.40625-.23437.71875-.625l.65625.51563q-.79687 1.23437-2.39063 1.23437zm-.14062-5.6875q-.65625 0-1.10938.48437-.4375.46876-.53124 1.32813h3.17187v-.07813q-.04687-.8281-.45313-1.28124-.39062-.45313-1.07812-.45313z"/><path d="m98.984375 581.6079v-8.53124h2.421875q1.109375 0 1.953125.5.859375.48438 1.328125 1.39064.46875.90624.46875 2.09374v.53126q0 1.21874-.46875 2.125-.453125.90624-1.328125 1.3906-.859375.4844-2 .5zm1.125-7.60936v6.6875h1.1875q1.296875 0 2.015625-.79688.734375-.8125.734375-2.3125v-.5q0-1.45312-.6875-2.25-.671875-.8125-1.9375-.82812zm10.625 7.60936q-.09375-.1875-.15625-.67186-.75.79686-1.796875.79686-.9375 0-1.546875-.53124-.59375-.53126-.59375-1.35936 0-.9844.75-1.53126.75-.54688 2.125-.54688h1.046875v-.5q0-.5625-.34375-.89062-.328125-.34374-1-.34374-.578125 0-.96875.29686-.390625.28124-.390625.70314h-1.09375q0-.4844.328125-.9219.34375-.4375.921875-.6875.578125-.2656 1.265625-.2656 1.109375 0 1.71875.54686.625.54688.65625 1.5v2.92188q0 .875.21875 1.39062v.09374zm-1.796875-.8281q.515625 0 .96875-.26564.453125-.26562.65625-.6875v-1.29686h-.84375q-2 0-2 1.17186 0 .5.34375.79688.34375.28126.875.28126zm2.46875-6.84376h-3.9375v-.84374h3.9375zm3.4375 1.32812.03125.79688q.734375-.90624 1.90625-.90624 2.015625 0 2.03125 2.2656v4.1875h-1.09375v-4.2031q0-.6719-.3125-1-.296875-.32814-.953125-.32814-.53125 0-.9375.28124-.390625.28126-.609375.7344v4.5156h-1.078125v-6.34374zm7.15625 6.34374h-1.078125v-6.34374h1.078125zm-1.171875-8.0156q0-.26564.15625-.45314.171875-.1875.484375-.1875.3125 0 .46875.1875.171875.1875.171875.45314 0 .25-.171875.4375-.15625.17186-.46875.17186-.3125 0-.484375-.17186-.15625-.1875-.15625-.4375zm4.109375 1.67186v7.07814q0 1.8281-1.65625 1.8281-.359375 0-.65625-.10936v-.85938q.1875.04688.484375.04688.359375 0 .546875-.20314.203125-.1875.203125-.6875v-7.09374zm-1.1875-1.67186q0-.26564.15625-.45314.15625-.1875.46875-.1875.3125 0 .46875.1875.171875.1875.171875.45314 0 .25-.171875.4375-.15625.17186-.46875.17186-.3125 0-.46875-.17186-.15625-.1875-.15625-.4375zm6.98438 8.0156q-.09376-.1875-.15626-.67186-.75.79686-1.79687.79686-.9375 0-1.546875-.53124-.59375-.53126-.59375-1.35936 0-.9844.75-1.53126.749995-.54688 2.124995-.54688h1.04688v-.5q0-.5625-.34375-.89062-.32813-.34374-1-.34374-.57813 0-.96875.29686-.390625.28124-.390625.70314h-1.09375q0-.4844.328125-.9219.34375-.4375.92187-.6875.57813-.2656 1.26563-.2656 1.10937 0 1.71875.54686.625.54688.65625 1.5v2.92188q0 .875.21875 1.39062v.09374zm-1.79688-.8281q.51562 0 .96875-.26564.45313-.26562.65625-.6875v-1.29686h-.84375q-2 0-2 1.17186 0 .5.34375.79688.34375.28126.875.28126z"/><path d="m56.109375 634.91614v3.34376h-1.125v-8.53126h3.15625q1.390625 0 2.1875.71876.796875.7031.796875 1.8906 0 1.2344-.78125 1.90626-.765625.67188-2.21875.67188zm0-.92188h2.03125q.90625 0 1.375-.42186.484375-.4219.484375-1.21876 0-.76564-.484375-1.21874-.46875-.46876-1.3125-.4844h-2.09375zm10.625 4.26564q-.09375-.1875-.15625-.6719-.75.7969-1.796875.7969-.9375 0-1.546875-.53126-.59375-.53124-.59375-1.35938 0-.98436.75-1.53126.75-.54686 2.125-.54686h1.046875v-.5q0-.5625-.34375-.89064-.328125-.34374-1-.34374-.578125 0-.96875.29688-.390625.28126-.390625.70312h-1.09375q0-.48436.328125-.92186.34375-.4375.921875-.6875.578125-.26564 1.265625-.26564 1.109375 0 1.71875.54688.625.54686.65625 1.5v2.92186q0 .875.21875 1.39064v.09376zm-1.796875-.82814q.515625 0 .96875-.26562.453125-.26564.65625-.6875v-1.29688h-.84375q-2 0-2 1.17188 0 .5.34375.79686.34375.28126.875.28126zm2.46875-6.84376h-3.9375v-.84374h3.9375zm5.484375 2.2969q-.25-.03126-.53125-.03126-1.078125 0-1.453125.90626v4.5h-1.078125v-6.34376h1.046875l.015625.73436q.53125-.84374 1.515625-.84374.3125 0 .484375.07814zm3.5625 5.5q-1.296875 0-2.109375-.84376-.796875-.85938-.796875-2.28124v-.1875q0-.95314.359375-1.6875.359375-.75 1-1.15626.65625-.42188 1.40625-.42188 1.234375 0 1.921875.8125.6875.8125.6875 2.32814v.4531h-4.296875q.03125.9375.546875 1.51564.53125.57812 1.34375.57812.5625 0 .953125-.23436.40625-.2344.71875-.625l.65625.5156q-.796875 1.2344-2.390625 1.2344zm-.140625-5.6875q-.65625 0-1.109375.48436-.4375.46874-.53125 1.32814h3.171875v-.07814q-.046875-.82812-.453125-1.28126-.390625-.4531-1.078125-.4531zm2-2.1094h-3.9375v-.84374h3.9375zm2.625 1.32814v7.07812q0 1.82814-1.65625 1.82814-.359375 0-.65625-.1094v-.85936q.1875.04686.484375.04686.359375 0 .546875-.2031.203125-.1875.203125-.6875v-7.09376zm-1.1875-1.67188q0-.26562.15625-.45312.15625-.1875.46875-.1875.3125 0 .46875.1875.171875.1875.171875.45312 0 .25-.171875.4375-.15625.17188-.46875.17188-.3125 0-.46875-.17188-.15625-.1875-.15625-.4375zm6.984375 8.01564q-.09375-.1875-.15625-.6719-.75.7969-1.796875.7969-.9375 0-1.546875-.53126-.59375-.53124-.59375-1.35938 0-.98436.75-1.53126.75-.54686 2.125-.54686h1.046875v-.5q0-.5625-.34375-.89064-.328125-.34374-1-.34374-.578125 0-.96875.29688-.390625.28126-.390625.70312h-1.09375q0-.48436.328125-.92186.34375-.4375.921875-.6875.578125-.26564 1.265625-.26564 1.109375 0 1.71875.54688.625.54686.65625 1.5v2.92186q0 .875.21875 1.39064v.09376zm-1.796875-.82814q.515625 0 .96875-.26562.453125-.26564.65625-.6875v-1.29688h-.84375q-2 0-2 1.17188 0 .5.34375.79686.34375.28126.875.28126zm2.46875-6.84376h-3.9375v-.84374h3.9375zm6.109375 5.9844q0-.4375-.34375-.6719-.328125-.25-1.15625-.42186-.8125-.17188-1.296875-.42188-.484375-.25-.71875-.57812-.21875-.34374-.21875-.8125 0-.78124.65625-1.3125.65625-.54688 1.6875-.54688 1.078125 0 1.734375.5625.671875.54688.671875 1.40624h-1.078125q0-.4375-.390625-.75-.375-.3281-.9375-.3281-.59375 0-.9375.2656-.328125.25-.328125.65626 0 .39064.3125.59374.3125.20314 1.125.39064.8125.17186 1.3125.42186.5.25.734375.6094.25.35936.25.85936 0 .85938-.6875 1.375-.671875.51564-1.75.51564-.765625 0-1.359375-.26564-.578125-.28126-.90625-.76562-.328125-.48438-.328125-1.04688h1.078125q.03125.54688.4375.875.40625.3125 1.078125.3125.609375 0 .984375-.25.375-.25.375-.67186zm7.390625.21874 1.578125-4.875h1.109375l-2.28125 6.34376h-.828125l-2.296875-6.34376h1.109375zm7.828125 1.46876q-.09375-.1875-.15625-.6719-.75.7969-1.796875.7969-.9375 0-1.546875-.53126-.59375-.53124-.59375-1.35938 0-.98436.75-1.53126.75-.54686 2.125-.54686h1.046875v-.5q0-.5625-.34375-.89064-.328125-.34374-1-.34374-.578125 0-.96875.29688-.390625.28126-.390625.70312h-1.09375q0-.48436.328125-.92186.34375-.4375.921875-.6875.578125-.26564 1.265625-.26564 1.109375 0 1.71875.54688.625.54686.65625 1.5v2.92186q0 .875.21875 1.39064v.09376zm-1.796875-.82814q.515625 0 .96875-.26562.453125-.26564.65625-.6875v-1.29688h-.84375q-2 0-2 1.17188 0 .5.34375.79686.34375.28126.875.28126zm6.0625.82814h-1.078125v-9h1.078125zm5.515625-1.6875q0-.4375-.34375-.6719-.328125-.25-1.15625-.42186-.8125-.17188-1.296875-.42188-.484375-.25-.71875-.57812-.21875-.34374-.21875-.8125 0-.78124.65625-1.3125.65625-.54688 1.6875-.54688 1.078125 0 1.734375.5625.671875.54688.671875 1.40624h-1.078125q0-.4375-.390625-.75-.375-.3281-.9375-.3281-.59375 0-.9375.2656-.328125.25-.328125.65626 0 .39064.3125.59374.3125.20314 1.125.39064.8125.17186 1.3125.42186.5.25.734375.6094.25.35936.25.85936 0 .85938-.6875 1.375-.671875.51564-1.75.51564-.765625 0-1.359375-.26564-.578125-.28126-.90625-.76562-.328125-.48438-.328125-1.04688h1.078125q.03125.54688.4375.875.40625.3125 1.078125.3125.609375 0 .984375-.25.375-.25.375-.67186zm3.78125-6.1875v1.53124h1.171875v.84376h-1.171875v3.92186q0 .39064.15625.57814.15625.1875.53125.1875.1875 0 .515625-.0625v.875q-.421875.125-.828125.125-.71875 0-1.09375-.4375-.375-.45314-.375-1.26564v-3.92186h-1.15625v-.84376h1.15625v-1.53124zm3.703125 7.875h-1.078125v-6.34376h1.078125zm-1.171875-8.01564q0-.26562.15625-.45312.171875-.1875.484375-.1875.3125 0 .46875.1875.171875.1875.171875.45312 0 .25-.171875.4375-.15625.17188-.46875.17188-.3125 0-.484375-.17188-.15625-.1875-.15625-.4375zm6.687495 6.32814q0-.4375-.34374-.6719-.32813-.25-1.15626-.42186-.8125-.17188-1.29687-.42188-.48437-.25-.71875-.57812-.21875-.34374-.21875-.8125 0-.78124.65625-1.3125.65625-.54688 1.6875-.54688 1.07812 0 1.73438.5625.67187.54688.67187 1.40624h-1.07813q0-.4375-.39062-.75-.375-.3281-.9375-.3281-.59375 0-.9375.2656-.32812.25-.32812.65626 0 .39064.3125.59374.3125.20314 1.125.39064.8125.17186 1.3125.42186.5.25.73437.6094.25.35936.25.85936 0 .85938-.6875 1.375-.67187.51564-1.75.51564-.76563 0-1.35937-.26564-.57813-.28126-.906255-.76562-.328125-.48438-.328125-1.04688h1.07812q.03126.54688.4375.875.40626.3125 1.07813.3125.60937 0 .98437-.25.375-.25.375-.67186z"/><path d="m141.82812 692.46875q0 1.76565-.73437 2.71875-.73437.9375-2.14063.9375-1.40624 0-2.14062-.9219-.73438-.92185-.75-2.6406v-1.5781q0-1.7813.73438-2.70315.75-.9375 2.14062-.9375 1.39062 0 2.125.92185.75.9219.76562 2.64065zm-1.70312-1.71875q0-1.0625-.29688-1.5469-.28124-.48435-.89062-.48435-.59375 0-.89062.46875-.28126.4531-.29688 1.4375v2.0625q0 1.0469.28125 1.5625.28125.5.92187.5.60938 0 .89063-.4844.28125-.48435.28125-1.48435z"/><path d="m275.75522 696h-5.84375v-1.15625l2.76563-2.95315q.5625-.60935.82812-1.0781.28125-.46875.28125-.875 0-.5781-.29687-.8906-.28126-.32815-.8125-.32815-.57813 0-.90626.39065-.32812.3906-.32812 1.04685h-1.70312q0-.78125.375-1.42185.375-.6563 1.04687-1.01565.6875-.375 1.54687-.375 1.3125 0 2.04688.64065.73438.625.73438 1.7812 0 .64065-.32813 1.2969-.32813.65625-1.125 1.53125l-1.9375 2.04685h3.65625zm6.90625-3.53125q0 1.76565-.73437 2.71875-.73438.9375-2.14063.9375-1.40625 0-2.14063-.9219-.73437-.92185-.75-2.6406v-1.5781q0-1.7813.73438-2.70315.75-.9375 2.14062-.9375 1.39063 0 2.125.92185.75.9219.76563 2.64065zm-1.70313-1.71875q0-1.0625-.29687-1.5469-.28125-.48435-.89063-.48435-.59374 0-.89062.46875-.28125.4531-.29688 1.4375v2.0625q0 1.0469.28126 1.5625.28124.5.92187.5.60937 0 .89063-.4844.28124-.48435.28124-1.48435z"/><path d="m412.2604 692.78125h.96876v1.375h-.96876v1.84375h-1.70312v-1.84375h-3.48438l-.07812-1.0625 3.54688-5.625h1.71874zm-3.57812 0h1.875v-3l-.10938.1875zm11.3125-.3125q0 1.76565-.73438 2.71875-.73437.9375-2.14062.9375-1.40625 0-2.14062-.9219-.73438-.92185-.75-2.6406v-1.5781q0-1.7813.73437-2.70315.75-.9375 2.14063-.9375 1.39062 0 2.125.92185.75.9219.76562 2.64065zm-1.70312-1.71875q0-1.0625-.29688-1.5469-.28125-.48435-.89062-.48435-.59376 0-.89063.46875-.28125.4531-.29687 1.4375v2.0625q0 1.0469.28124 1.5625.28126.5.92188.5.60938 0 .89062-.4844.28126-.48435.28126-1.48435z"/><path d="m549.1719 687.375v1.40625h-.1563q-1.1562.01565-1.85935.59375-.6875.5781-.82815 1.6094.6719-.6875 1.70315-.6875 1.125 0 1.78125.79685.65625.79685.65625 2.09375 0 .8281-.35935 1.5-.3594.6719-1.0313 1.0625-.6562.375-1.48435.375-1.34375 0-2.17185-.9375-.82815-.9531-.82815-2.5156v-.6094q0-1.3906.51565-2.4531.5312-1.0625 1.5-1.64065.98435-.57815 2.2812-.59375zm-1.6563 4.28125q-.4062 0-.75.21875-.3281.2031-.48435.5625v.5156q0 .8438.32815 1.32815.3437.46875.9531.46875.5469 0 .875-.4219.34375-.4375.34375-1.125 0-.7031-.34375-1.125-.34375-.42185-.9219-.42185zm9.8125.8125q0 1.76565-.73435 2.71875-.73435.9375-2.14065.9375-1.4062 0-2.1406-.9219-.7344-.92185-.75-2.6406v-1.5781q0-1.7813.7344-2.70315.75-.9375 2.1406-.9375 1.3906 0 2.125.92185.75.9219.7656 2.64065zm-1.7031-1.71875q0-1.0625-.2969-1.5469-.2812-.48435-.8906-.48435-.59375 0-.8906.46875-.2813.4531-.2969 1.4375v2.0625q0 1.0469.28125 1.5625.28125.5.92185.5.6094 0 .89065-.4844.28125-.48435.28125-1.48435z"/></g></svg>