<svg fill="none" height="730" stroke-linecap="square" stroke-miterlimit="10" viewBox="0 0 580 730" width="580" xmlns="http://www.w3.org/2000/svg" xmlns:xlink="http://www.w3.org/1999/xlink"><clipPath id="a"><path d="m126 29h425v645h-425z"/></clipPath><path d="m0 0h580v730h-580z" fill="none"/><path d="m126.5 29.5v645" stroke="#333" stroke-linecap="butt"/><path d="m267.5 29.5v645" stroke="#ccc" stroke-linecap="butt"/><path d="m409.5 29.5v645" stroke="#ccc" stroke-linecap="butt"/><path d="m551.5 29.5v645" stroke="#ccc" stroke-linecap="butt"/><path d="m173.5 29.5v645"/><path d="m220.5 29.5v645"/><path d="m314.5 29.5v645"/><path d="m362.5 29.5v645"/><path d="m456.5 29.5v645"/><path d="m503.5 29.5v645"/><path d="m126.5 674.5v-645" stroke="#000" stroke-linecap="butt"/><path clip-path="url(#a)" d="m126 86v-37h357c1.10458 0 2 .89543 2 2v33c0 1.10457-.89542 2-2 2z"/><path clip-path="url(#a)" d="m126 86v-37h357c1.10458 0 2 .89543 2 2v33c0 1.10457-.89542 2-2 2z" fill="#01ad96"/><path clip-path="url(#a)" d="m126 143v-37h153c1.10458 0 2 .89543 2 2v33c0 1.10457-.89542 2-2 2z"/><path clip-path="url(#a)" d="m126 143v-37h153c1.10458 0 2 .89543 2 2v33c0 1.10457-.89542 2-2 2z" fill="#01ad96"/><path clip-path="url(#a)" d="m126 200v-37h54c1.10457 0 2 .89543 2 2v33c0 1.10457-.89543 2-2 2z"/><path clip-path="url(#a)" d="m126 200v-37h54c1.10457 0 2 .89543 2 2v33c0 1.10457-.89543 2-2 2z" fill="#01ad96"/><path clip-path="url(#a)" d="m126 257v-37h29c1.10457 0 2 .89543 2 2v33c0 1.10458-.89543 2-2 2z"/><path clip-path="url(#a)" d="m126 257v-37h29c1.10457 0 2 .89543 2 2v33c0 1.10458-.89543 2-2 2z" fill="#01ad96"/><path clip-path="url(#a)" d="m126 314v-37h21c1.10457 0 2 .89542 2 2v33c0 1.10458-.89543 2-2 2z"/><path clip-path="url(#a)" d="m126 314v-37h21c1.10457 0 2 .89542 2 2v33c0 1.10458-.89543 2-2 2z" fill="#01ad96"/><path clip-path="url(#a)" d="m126 371v-37h21c1.10457 0 2 .89542 2 2v33c0 1.10458-.89543 2-2 2z"/><path clip-path="url(#a)" d="m126 371v-37h21c1.10457 0 2 .89542 2 2v33c0 1.10458-.89543 2-2 2z" fill="#01ad96"/><path clip-path="url(#a)" d="m126 427v-37h20c1.10457 0 2 .89542 2 2v33c0 1.10458-.89543 2-2 2z"/><path clip-path="url(#a)" d="m126 427v-37h20c1.10457 0 2 .89542 2 2v33c0 1.10458-.89543 2-2 2z" fill="#01ad96"/><path clip-path="url(#a)" d="m126 484v-37h20c1.10457 0 2 .89542 2 2v33c0 1.10458-.89543 2-2 2z"/><path clip-path="url(#a)" d="m126 484v-37h20c1.10457 0 2 .89542 2 2v33c0 1.10458-.89543 2-2 2z" fill="#01ad96"/><path clip-path="url(#a)" d="m126 541v-37h16c1.10457 0 2 .89542 2 2v33c0 1.10455-.89543 2-2 2z"/><path clip-path="url(#a)" d="m126 541v-37h16c1.10457 0 2 .89542 2 2v33c0 1.10455-.89543 2-2 2z" fill="#01ad96"/><path clip-path="url(#a)" d="m126 598v-37h7c1.10457 0 2 .89545 2 2v33c0 1.10455-.89543 2-2 2z"/><path clip-path="url(#a)" d="m126 598v-37h7c1.10457 0 2 .89545 2 2v33c0 1.10455-.89543 2-2 2z" fill="#01ad96"/><path clip-path="url(#a)" d="m126 655v-37h31c1.10457 0 2 .89545 2 2v33c0 1.10455-.89543 2-2 2z"/><path clip-path="url(#a)" d="m126 655v-37h31c1.10457 0 2 .89545 2 2v33c0 1.10455-.89543 2-2 2z" fill="#01ad96"/><path d="m126.5 680.5v-12" stroke="#000" stroke-linecap="butt"/><path d="m267.5 680.5v-12" stroke="#000" stroke-linecap="butt"/><path d="m409.5 680.5v-12" stroke="#000" stroke-linecap="butt"/><path d="m551.5 680.5v-12" stroke="#000" stroke-linecap="butt"/><path d="m448.65768 71.5h-5.84375v-1.15625l2.76563-2.953125q.5625-.609375.82812-1.078125.28125-.46875.28125-.875 0-.578125-.29687-.890625-.28126-.328125-.8125-.328125-.57813 0-.90626.390625-.32812.390625-.32812 1.046875h-1.70312q0-.78125.375-1.421875.375-.65625 1.04687-1.015625.6875-.375 1.54687-.375 1.3125 0 2.04688.640625.73438.625.73438 1.78125 0 .640625-.32813 1.296875-.32813.65625-1.125 1.53125l-1.9375 2.046875h3.65625zm1.40625-4.203125.5-4.328125h4.78125v1.40625h-3.39062l-.21876 1.84375q.60938-.328125 1.28126-.328125 1.21874 0 1.90624.765625.70313.75.70313 2.109375 0 .828125-.35937 1.484375-.34376.640625-1 1.015625-.64063.359375-1.53126.359375-.76562 0-1.4375-.3125-.65624-.328125-1.04687-.890625-.375-.5625-.40625-1.296875h1.6875q.04688.53125.35938.828125.32812.296875.84374.296875.57813 0 .875-.40625.3125-.421875.3125-1.171875 0-.734375-.35937-1.109375-.34375-.390625-1-.390625-.60937 0-.98437.3125l-.15626.15625zm8.46875-.8125h.90625q.64063 0 .95313-.3125.3125-.328125.3125-.859375 0-.515625-.3125-.796875-.29688-.296875-.84376-.296875-.48437 0-.8125.265625-.32812.265625-.32812.6875h-1.6875q0-.65625.35938-1.1875.35937-.53125 1-.828125.65624-.3125 1.4375-.3125 1.34374 0 2.10937.65625.78125.640625.78125 1.78125 0 .59375-.35938 1.09375-.35937.484375-.9375.734375.71876.265625 1.0625.78125.35938.515625.35938 1.21875 0 1.140625-.82812 1.828125-.82813.6875-2.1875.6875-1.28126 0-2.09376-.671875-.8125-.6875-.8125-1.796875h1.6875q0 .484375.35938.796875.375.296875.89062.296875.60938 0 .95313-.3125.34375-.328125.34375-.859375 0-1.265625-1.40625-1.265625h-.90625zm5.4375 4.1875q0-.40625.26562-.65625.28126-.25.6875-.25.42188 0 .6875.25.28126.25.28126.65625 0 .390625-.28126.640625-.26562.25-.6875.25-.40624 0-.6875-.25-.26562-.25-.26562-.640625zm7.85938-2.390625h.96874v1.375h-.96874v1.84375h-1.70313v-1.84375h-3.48437l-.07813-1.0625 3.54687-5.625h1.71876zm-3.57813 0h1.875v-3l-.10937.1875zm10.57813 0h.96874v1.375h-.96874v1.84375h-1.70313v-1.84375h-3.48437l-.07813-1.0625 3.54687-5.625h1.71876zm-3.57813 0h1.875v-3l-.10937.1875z" stroke="#01ad96" stroke-linecap="round" stroke-linejoin="round" stroke-width="3"/><path d="m448.65768 71.5h-5.84375v-1.15625l2.76563-2.953125q.5625-.609375.82812-1.078125.28125-.46875.28125-.875 0-.578125-.29687-.890625-.28126-.328125-.8125-.328125-.57813 0-.90626.390625-.32812.390625-.32812 1.046875h-1.70312q0-.78125.375-1.421875.375-.65625 1.04687-1.015625.6875-.375 1.54687-.375 1.3125 0 2.04688.640625.73438.625.73438 1.78125 0 .640625-.32813 1.296875-.32813.65625-1.125 1.53125l-1.9375 2.046875h3.65625zm1.40625-4.203125.5-4.328125h4.78125v1.40625h-3.39062l-.21876 1.84375q.60938-.328125 1.28126-.328125 1.21874 0 1.90624.765625.70313.75.70313 2.109375 0 .828125-.35937 1.484375-.34376.640625-1 1.015625-.64063.359375-1.53126.359375-.76562 0-1.4375-.3125-.65624-.328125-1.04687-.890625-.375-.5625-.40625-1.296875h1.6875q.04688.53125.35938.828125.32812.296875.84374.296875.57813 0 .875-.40625.3125-.421875.3125-1.171875 0-.734375-.35937-1.109375-.34375-.390625-1-.390625-.60937 0-.98437.3125l-.15626.15625zm8.46875-.8125h.90625q.64063 0 .95313-.3125.3125-.328125.3125-.859375 0-.515625-.3125-.796875-.29688-.296875-.84376-.296875-.48437 0-.8125.265625-.32812.265625-.32812.6875h-1.6875q0-.65625.35938-1.1875.35937-.53125 1-.828125.65624-.3125 1.4375-.3125 1.34374 0 2.10937.65625.78125.640625.78125 1.78125 0 .59375-.35938 1.09375-.35937.484375-.9375.734375.71876.265625 1.0625.78125.35938.515625.35938 1.21875 0 1.140625-.82812 1.828125-.82813.6875-2.1875.6875-1.28126 0-2.09376-.671875-.8125-.6875-.8125-1.796875h1.6875q0 .484375.35938.796875.375.296875.89062.296875.60938 0 .95313-.3125.34375-.328125.34375-.859375 0-1.265625-1.40625-1.265625h-.90625zm5.4375 4.1875q0-.40625.26562-.65625.28126-.25.6875-.25.42188 0 .6875.25.28126.25.28126.65625 0 .390625-.28126.640625-.26562.25-.6875.25-.40624 0-.6875-.25-.26562-.25-.26562-.640625zm7.85938-2.390625h.96874v1.375h-.96874v1.84375h-1.70313v-1.84375h-3.48437l-.07813-1.0625 3.54687-5.625h1.71876zm-3.57813 0h1.875v-3l-.10937.1875zm10.57813 0h.96874v1.375h-.96874v1.84375h-1.70313v-1.84375h-3.48437l-.07813-1.0625 3.54687-5.625h1.71876zm-3.57813 0h1.875v-3l-.10937.1875z" fill="#fff"/><path d="m242.63988 128.5h-1.6875v-6.53125l-2.01563.625v-1.375l3.53125-1.265625h.17188zm8.64062-3.53125q0 1.765625-.73437 2.71875-.73438.9375-2.14063.9375-1.40625 0-2.14062-.921875-.73438-.921875-.75-2.640625v-1.578125q0-1.78125.73437-2.703125.75-.9375 2.14063-.9375 1.39062 0 2.125.921875.75.921875.76562 2.640625zm-1.70312-1.71875q0-1.0625-.29688-1.546875-.28125-.484375-.89062-.484375-.59375 0-.89063.46875-.28125.453125-.29687 1.4375v2.0625q0 1.046875.28125 1.5625.28125.5.92187.5.60938 0 .89063-.484375.28125-.484375.28125-1.484375zm6.92189 1.84375q-.67189.640625-1.54689.640625-1.14063 0-1.82813-.765625-.67187-.78125-.67187-2.09375 0-.84375.35937-1.546875.375-.703125 1.03125-1.09375.65625-.390625 1.48438-.390625.84376 0 1.50002.421875.65624.421875 1.01562 1.21875.35938.796875.375 1.8125v.625q0 2.140625-1.0625 3.359375-1.0625 1.21875-3.01564 1.29687h-.40625v-1.406245l.375-.015625q2.20314-.09375 2.39064-2.0625zm-1.14064-.65625q.42187 0 .70314-.203125.29687-.21875.45313-.515625v-.6875q0-.859375-.32813-1.328125-.32814-.484375-.87502-.484375-.51562 0-.84375.46875-.32812.453125-.32812 1.15625 0 .703125.3125 1.15625.32812.4375.90625.4375zm4.32814 3.234375q0-.40625.26563-.65625.28124-.25.6875-.25.42187 0 .6875.25.28124.25.28124.65625 0 .390625-.28124.640625-.26563.25-.6875.25-.40626 0-.6875-.25-.26563-.25-.26563-.640625zm8.6875.828125h-5.84375v-1.15625l2.76562-2.953125q.5625-.609375.82813-1.078125.28125-.46875.28125-.875 0-.578125-.29688-.890625-.28124-.328125-.8125-.328125-.57812 0-.90624.390625-.32813.390625-.32813 1.046875h-1.70313q0-.78125.375-1.421875.375-.65625 1.04688-1.015625.6875-.375 1.54688-.375 1.3125 0 2.04687.640625.73437.625.73437 1.78125 0 .640625-.32812 1.296875-.32812.65625-1.125 1.53125l-1.9375 2.046875h3.65625zm6.17187-3.21875h.96876v1.375h-.96876v1.84375h-1.70312v-1.84375h-3.48438l-.07812-1.0625 3.54688-5.625h1.71874zm-3.57812 0h1.875v-3l-.10938.1875z" stroke="#01ad96" stroke-linecap="round" stroke-linejoin="round" stroke-width="3"/><path d="m242.63988 128.5h-1.6875v-6.53125l-2.01563.625v-1.375l3.53125-1.265625h.17188zm8.64062-3.53125q0 1.765625-.73437 2.71875-.73438.9375-2.14063.9375-1.40625 0-2.14062-.921875-.73438-.921875-.75-2.640625v-1.578125q0-1.78125.73437-2.703125.75-.9375 2.14063-.9375 1.39062 0 2.125.921875.75.921875.76562 2.640625zm-1.70312-1.71875q0-1.0625-.29688-1.546875-.28125-.484375-.89062-.484375-.59375 0-.89063.46875-.28125.453125-.29687 1.4375v2.0625q0 1.046875.28125 1.5625.28125.5.92187.5.60938 0 .89063-.484375.28125-.484375.28125-1.484375zm6.92189 1.84375q-.67189.640625-1.54689.640625-1.14063 0-1.82813-.765625-.67187-.78125-.67187-2.09375 0-.84375.35937-1.546875.375-.703125 1.03125-1.09375.65625-.390625 1.48438-.390625.84376 0 1.50002.421875.65624.421875 1.01562 1.21875.35938.796875.375 1.8125v.625q0 2.140625-1.0625 3.359375-1.0625 1.21875-3.01564 1.29687h-.40625v-1.406245l.375-.015625q2.20314-.09375 2.39064-2.0625zm-1.14064-.65625q.42187 0 .70314-.203125.29687-.21875.45313-.515625v-.6875q0-.859375-.32813-1.328125-.32814-.484375-.87502-.484375-.51562 0-.84375.46875-.32812.453125-.32812 1.15625 0 .703125.3125 1.15625.32812.4375.90625.4375zm4.32814 3.234375q0-.40625.26563-.65625.28124-.25.6875-.25.42187 0 .6875.25.28124.25.28124.65625 0 .390625-.28124.640625-.26563.25-.6875.25-.40626 0-.6875-.25-.26563-.25-.26563-.640625zm8.6875.828125h-5.84375v-1.15625l2.76562-2.953125q.5625-.609375.82813-1.078125.28125-.46875.28125-.875 0-.578125-.29688-.890625-.28124-.328125-.8125-.328125-.57812 0-.90624.390625-.32813.390625-.32813 1.046875h-1.70313q0-.78125.375-1.421875.375-.65625 1.04688-1.015625.6875-.375 1.54688-.375 1.3125 0 2.04687.640625.73437.625.73437 1.78125 0 .640625-.32812 1.296875-.32812.65625-1.125 1.53125l-1.9375 2.046875h3.65625zm6.17187-3.21875h.96876v1.375h-.96876v1.84375h-1.70312v-1.84375h-3.48438l-.07812-1.0625 3.54688-5.625h1.71874zm-3.57812 0h1.875v-3l-.10938.1875z" fill="#fff"/><path d="m148.10403 180.48438h.90625q.64063 0 .95313-.3125.3125-.32813.3125-.85938 0-.51562-.3125-.79688-.29688-.29687-.84375-.29687-.48438 0-.8125.26563-.32813.26562-.32813.6875h-1.6875q0-.65626.35938-1.1875.35937-.53126 1-.82813.65625-.3125 1.4375-.3125 1.34375 0 2.10937.65625.78125.64062.78125 1.78125 0 .59375-.35937 1.09375-.35938.48438-.9375.73438.71875.26562 1.0625.78124.35937.51563.35937 1.21876 0 1.14062-.82812 1.82812-.82813.6875-2.1875.6875-1.28125 0-2.09375-.67188-.8125-.6875-.8125-1.79687h1.6875q0 .48437.35937.79687.375.29688.89063.29688.60937 0 .95312-.3125.34375-.32812.34375-.85938 0-1.26562-1.40625-1.26562h-.90625zm9.25 1.60937q-.67187.64063-1.54687.64063-1.14063 0-1.82813-.76563-.67187-.78125-.67187-2.09375 0-.84375.35937-1.54688.375-.70312 1.03125-1.09374.65625-.39063 1.48438-.39063.84375 0 1.5.42187.65625.42188 1.01562 1.21876.35938.79687.375 1.8125v.625q0 2.14062-1.0625 3.35937-1.0625 1.21875-3.01562 1.29687h-.40625v-1.40624l.375-.01563q2.20312-.09375 2.39062-2.0625zm-1.14062-.65625q.42187 0 .70312-.20312.29688-.21876.45313-.51563v-.6875q0-.85937-.32813-1.32813-.32812-.48437-.875-.48437-.51562 0-.84375.46875-.32812.45312-.32812 1.15625 0 .70313.3125 1.15625.32812.4375.90625.4375zm4.32812 3.23438q0-.40626.26563-.65626.28125-.25.6875-.25.42187 0 .6875.25.28125.25.28125.65626 0 .39062-.28125.64062-.26563.25-.6875.25-.40625 0-.6875-.25-.26563-.25-.26563-.64062zm8.6875.82812h-5.84375v-1.15625l2.76563-2.95313q.5625-.60937.82812-1.07812.28125-.46875.28125-.875 0-.57812-.29687-.89062-.28125-.32813-.8125-.32813-.57813 0-.90625.39063-.32813.39062-.32813 1.04687h-1.70312q0-.78125.375-1.42187.375-.65626 1.04687-1.01563.6875-.375 1.54688-.375 1.3125 0 2.04687.64063.73438.625.73438 1.78124 0 .64063-.32813 1.29688-.32812.65625-1.125 1.53125l-1.9375 2.04687h3.65625zm1.40625-4.20312.5-4.32813h4.78125v1.40625h-3.39062l-.21875 1.84375q.60937-.32813 1.28125-.32813 1.21875 0 1.90625.76563.70312.75.70312 2.10937 0 .82813-.35937 1.48438-.34375.64062-1 1.01562-.64063.35938-1.53125.35938-.76563 0-1.4375-.3125-.65625-.32812-1.04688-.89062-.375-.5625-.40625-1.29688h1.6875q.04688.53125.35938.82812.32812.29688.84375.29688.57812 0 .875-.40625.3125-.42187.3125-1.17187 0-.73438-.35938-1.10938-.34375-.39062-1-.39062-.60937 0-.98437.3125l-.15625.15624z" stroke="#01ad96" stroke-linecap="round" stroke-linejoin="round" stroke-width="3"/><path d="m148.10403 180.48438h.90625q.64063 0 .95313-.3125.3125-.32813.3125-.85938 0-.51562-.3125-.79688-.29688-.29687-.84375-.29687-.48438 0-.8125.26563-.32813.26562-.32813.6875h-1.6875q0-.65626.35938-1.1875.35937-.53126 1-.82813.65625-.3125 1.4375-.3125 1.34375 0 2.10937.65625.78125.64062.78125 1.78125 0 .59375-.35937 1.09375-.35938.48438-.9375.73438.71875.26562 1.0625.78124.35937.51563.35937 1.21876 0 1.14062-.82812 1.82812-.82813.6875-2.1875.6875-1.28125 0-2.09375-.67188-.8125-.6875-.8125-1.79687h1.6875q0 .48437.35937.79687.375.29688.89063.29688.60937 0 .95312-.3125.34375-.32812.34375-.85938 0-1.26562-1.40625-1.26562h-.90625zm9.25 1.60937q-.67187.64063-1.54687.64063-1.14063 0-1.82813-.76563-.67187-.78125-.67187-2.09375 0-.84375.35937-1.54688.375-.70312 1.03125-1.09374.65625-.39063 1.48438-.39063.84375 0 1.5.42187.65625.42188 1.01562 1.21876.35938.79687.375 1.8125v.625q0 2.14062-1.0625 3.35937-1.0625 1.21875-3.01562 1.29687h-.40625v-1.40624l.375-.01563q2.20312-.09375 2.39062-2.0625zm-1.14062-.65625q.42187 0 .70312-.20312.29688-.21876.45313-.51563v-.6875q0-.85937-.32813-1.32813-.32812-.48437-.875-.48437-.51562 0-.84375.46875-.32812.45312-.32812 1.15625 0 .70313.3125 1.15625.32812.4375.90625.4375zm4.32812 3.23438q0-.40626.26563-.65626.28125-.25.6875-.25.42187 0 .6875.25.28125.25.28125.65626 0 .39062-.28125.64062-.26563.25-.6875.25-.40625 0-.6875-.25-.26563-.25-.26563-.64062zm8.6875.82812h-5.84375v-1.15625l2.76563-2.95313q.5625-.60937.82812-1.07812.28125-.46875.28125-.875 0-.57812-.29687-.89062-.28125-.32813-.8125-.32813-.57813 0-.90625.39063-.32813.39062-.32813 1.04687h-1.70312q0-.78125.375-1.42187.375-.65626 1.04687-1.01563.6875-.375 1.54688-.375 1.3125 0 2.04687.64063.73438.625.73438 1.78124 0 .64063-.32813 1.29688-.32812.65625-1.125 1.53125l-1.9375 2.04687h3.65625zm1.40625-4.20312.5-4.32813h4.78125v1.40625h-3.39062l-.21875 1.84375q.60937-.32813 1.28125-.32813 1.21875 0 1.90625.76563.70312.75.70312 2.10937 0 .82813-.35937 1.48438-.34375.64062-1 1.01562-.64063.35938-1.53125.35938-.76563 0-1.4375-.3125-.65625-.32812-1.04688-.89062-.375-.5625-.40625-1.29688h1.6875q.04688.53125.35938.82812.32812.29688.84375.29688.57812 0 .875-.40625.3125-.42187.3125-1.17187 0-.73438-.35938-1.10938-.34375-.39062-1-.39062-.60937 0-.98437.3125l-.15625.15624z" fill="#fff"/><path d="m175.80322 242.5h-5.84375v-1.15625l2.76563-2.95313q.5625-.60937.82812-1.07812.28125-.46875.28125-.875 0-.57812-.29687-.89062-.28125-.32813-.8125-.32813-.57813 0-.90625.39063-.32813.39062-.32813 1.04687h-1.70312q0-.78125.375-1.42187.375-.65626 1.04687-1.01563.6875-.375 1.54688-.375 1.3125 0 2.04687.64063.73438.625.73438 1.78124 0 .64063-.32813 1.29688-.32812.65625-1.125 1.53125l-1.9375 2.04687h3.65625zm7 0h-5.84375v-1.15625l2.76563-2.95313q.5625-.60937.82812-1.07812.28125-.46875.28125-.875 0-.57812-.29687-.89062-.28125-.32813-.8125-.32813-.57813 0-.90625.39063-.32813.39062-.32813 1.04687h-1.70312q0-.78125.375-1.42187.375-.65626 1.04687-1.01563.6875-.375 1.54688-.375 1.3125 0 2.04687.64063.73438.625.73438 1.78124 0 .64063-.32813 1.29688-.32812.65625-1.125 1.53125l-1.9375 2.04687h3.65625zm1.3125-.82812q0-.40626.26563-.65626.28125-.25.6875-.25.42187 0 .6875.25.28125.25.28125.65626 0 .39062-.28125.64062-.26563.25-.6875.25-.40625 0-.6875-.25-.26563-.25-.26563-.64062zm6.95313.82812h-1.6875v-6.53125l-2.01563.625v-1.375l3.53125-1.26563h.17188zm3.14062-4.20312.5-4.32813h4.78125v1.40625h-3.39062l-.21875 1.84375q.60937-.32813 1.28125-.32813 1.21875 0 1.90625.76563.70312.75.70312 2.10937 0 .82813-.35937 1.48438-.34375.64062-1 1.01562-.64063.35938-1.53125.35938-.76563 0-1.4375-.3125-.65625-.32812-1.04688-.89062-.375-.5625-.40625-1.29688h1.6875q.04688.53125.35938.82812.32812.29688.84375.29688.57812 0 .875-.40625.3125-.42187.3125-1.17187 0-.73438-.35938-1.10938-.34375-.39062-1-.39062-.60937 0-.98437.3125l-.15625.15624z" stroke="#fff" stroke-linecap="round" stroke-linejoin="round" stroke-width="3"/><path d="m175.80322 242.5h-5.84375v-1.15625l2.76563-2.95313q.5625-.60937.82812-1.07812.28125-.46875.28125-.875 0-.57812-.29687-.89062-.28125-.32813-.8125-.32813-.57813 0-.90625.39063-.32813.39062-.32813 1.04687h-1.70312q0-.78125.375-1.42187.375-.65626 1.04687-1.01563.6875-.375 1.54688-.375 1.3125 0 2.04687.64063.73438.625.73438 1.78124 0 .64063-.32813 1.29688-.32812.65625-1.125 1.53125l-1.9375 2.04687h3.65625zm7 0h-5.84375v-1.15625l2.76563-2.95313q.5625-.60937.82812-1.07812.28125-.46875.28125-.875 0-.57812-.29687-.89062-.28125-.32813-.8125-.32813-.57813 0-.90625.39063-.32813.39062-.32813 1.04687h-1.70312q0-.78125.375-1.42187.375-.65626 1.04687-1.01563.6875-.375 1.54688-.375 1.3125 0 2.04687.64063.73438.625.73438 1.78124 0 .64063-.32813 1.29688-.32812.65625-1.125 1.53125l-1.9375 2.04687h3.65625zm1.3125-.82812q0-.40626.26563-.65626.28125-.25.6875-.25.42187 0 .6875.25.28125.25.28125.65626 0 .39062-.28125.64062-.26563.25-.6875.25-.40625 0-.6875-.25-.26563-.25-.26563-.64062zm6.95313.82812h-1.6875v-6.53125l-2.01563.625v-1.375l3.53125-1.26563h.17188zm3.14062-4.20312.5-4.32813h4.78125v1.40625h-3.39062l-.21875 1.84375q.60937-.32813 1.28125-.32813 1.21875 0 1.90625.76563.70312.75.70312 2.10937 0 .82813-.35937 1.48438-.34375.64062-1 1.01562-.64063.35938-1.53125.35938-.76563 0-1.4375-.3125-.65625-.32812-1.04688-.89062-.375-.5625-.40625-1.29688h1.6875q.04688.53125.35938.82812.32812.29688.84375.29688.57812 0 .875-.40625.3125-.42187.3125-1.17187 0-.73438-.35938-1.10938-.34375-.39062-1-.39062-.60937 0-.98437.3125l-.15625.15624z" fill="#01ad96"/><path d="m166.07353 299.5h-1.6875v-6.53125l-2.01563.625v-1.375l3.53126-1.26563h.17187zm7.48437-8.625v1.40625h-.15624q-1.15626.01563-1.85938.59375-.6875.57812-.82812 1.60938.67187-.6875 1.70312-.6875 1.125 0 1.78125.79687.65625.79687.65625 2.09375 0 .82812-.35938 1.5-.35937.67188-1.03124 1.0625-.65626.375-1.48438.375-1.34375 0-2.17188-.9375-.82812-.95312-.82812-2.51562v-.60938q0-1.39062.51562-2.45312.53126-1.0625 1.5-1.64063.98438-.57813 2.28126-.59375zm-1.65624 4.28125q-.40626 0-.75.21875-.32813.20312-.48438.5625v.51562q0 .84376.32812 1.32813.34376.46875.95313.46875.54687 0 .875-.42188.34375-.4375.34375-1.125 0-.70312-.34375-1.125-.34375-.42187-.92187-.42187zm4.21874 3.51563q0-.40626.26563-.65626.28125-.25.6875-.25.42187 0 .6875.25.28125.25.28125.65626 0 .39062-.28125.64062-.26563.25-.6875.25-.40625 0-.6875-.25-.26563-.25-.26563-.64062zm3.09376-3.375.5-4.32813h4.78124v1.40625h-3.39062l-.21875 1.84375q.60937-.32813 1.28125-.32813 1.21875 0 1.90625.76563.70313.75.70313 2.10937 0 .82813-.35938 1.48438-.34375.64062-1 1.01562-.64062.35938-1.53125.35938-.76563 0-1.4375-.3125-.65625-.32812-1.04687-.89062-.375-.5625-.40626-1.29688h1.6875q.04688.53125.35938.82812.32812.29688.84375.29688.57813 0 .875-.40625.3125-.42187.3125-1.17187 0-.73438-.35937-1.10938-.34376-.39062-1-.39062-.60938 0-.98438.3125l-.15625.15624zm10.85937 4.20312h-1.6875v-6.53125l-2.01563.625v-1.375l3.53126-1.26563h.17187z" stroke="#fff" stroke-linecap="round" stroke-linejoin="round" stroke-width="3"/><path d="m166.07353 299.5h-1.6875v-6.53125l-2.01563.625v-1.375l3.53126-1.26563h.17187zm7.48437-8.625v1.40625h-.15624q-1.15626.01563-1.85938.59375-.6875.57812-.82812 1.60938.67187-.6875 1.70312-.6875 1.125 0 1.78125.79687.65625.79687.65625 2.09375 0 .82812-.35938 1.5-.35937.67188-1.03124 1.0625-.65626.375-1.48438.375-1.34375 0-2.17188-.9375-.82812-.95312-.82812-2.51562v-.60938q0-1.39062.51562-2.45312.53126-1.0625 1.5-1.64063.98438-.57813 2.28126-.59375zm-1.65624 4.28125q-.40626 0-.75.21875-.32813.20312-.48438.5625v.51562q0 .84376.32812 1.32813.34376.46875.95313.46875.54687 0 .875-.42188.34375-.4375.34375-1.125 0-.70312-.34375-1.125-.34375-.42187-.92187-.42187zm4.21874 3.51563q0-.40626.26563-.65626.28125-.25.6875-.25.42187 0 .6875.25.28125.25.28125.65626 0 .39062-.28125.64062-.26563.25-.6875.25-.40625 0-.6875-.25-.26563-.25-.26563-.64062zm3.09376-3.375.5-4.32813h4.78124v1.40625h-3.39062l-.21875 1.84375q.60937-.32813 1.28125-.32813 1.21875 0 1.90625.76563.70313.75.70313 2.10937 0 .82813-.35938 1.48438-.34375.64062-1 1.01562-.64062.35938-1.53125.35938-.76563 0-1.4375-.3125-.65625-.32812-1.04687-.89062-.375-.5625-.40626-1.29688h1.6875q.04688.53125.35938.82812.32812.29688.84375.29688.57813 0 .875-.40625.3125-.42187.3125-1.17187 0-.73438-.35937-1.10938-.34376-.39062-1-.39062-.60938 0-.98438.3125l-.15625.15624zm10.85937 4.20312h-1.6875v-6.53125l-2.01563.625v-1.375l3.53126-1.26563h.17187z" fill="#01ad96"/><path d="m165.88045 356.5h-1.6875v-6.53125l-2.01563.625v-1.375l3.53125-1.26563h.17188zm7.48437-8.625v1.40625h-.15625q-1.15625.01563-1.85937.59375-.6875.57812-.82813 1.60938.67188-.6875 1.70313-.6875 1.125 0 1.78125.79687.65625.79687.65625 2.09375 0 .82812-.35938 1.5-.35937.67188-1.03125 1.0625-.65625.375-1.48437.375-1.34375 0-2.17188-.9375-.82812-.95312-.82812-2.51562v-.60938q0-1.39062.51562-2.45312.53125-1.0625 1.5-1.64063.98438-.57813 2.28125-.59375zm-1.65625 4.28125q-.40625 0-.75.21875-.32812.20312-.48437.5625v.51562q0 .84376.32812 1.32813.34375.46875.95313.46875.54687 0 .875-.42188.34375-.4375.34375-1.125 0-.70312-.34375-1.125-.34375-.42187-.92188-.42187zm4.21875 3.51563q0-.40626.26563-.65626.28125-.25.6875-.25.42187 0 .6875.25.28125.25.28125.65626 0 .39062-.28125.64062-.26563.25-.6875.25-.40625 0-.6875-.25-.26563-.25-.26563-.64062zm4.5625-4.1875h.90625q.64063 0 .95313-.3125.3125-.32813.3125-.85938 0-.51562-.3125-.79688-.29688-.29687-.84375-.29687-.48438 0-.8125.26563-.32813.26562-.32813.6875h-1.6875q0-.65626.35938-1.1875.35937-.53126 1-.82813.65625-.3125 1.4375-.3125 1.34375 0 2.10937.65625.78125.64062.78125 1.78125 0 .59375-.35937 1.09375-.35938.48438-.9375.73438.71875.26562 1.0625.78124.35937.51563.35937 1.21876 0 1.14062-.82812 1.82812-.82813.6875-2.1875.6875-1.28125 0-2.09375-.67188-.8125-.6875-.8125-1.79687h1.6875q0 .48437.35937.79687.375.29688.89063.29688.60937 0 .95312-.3125.34375-.32812.34375-.85938 0-1.26562-1.40625-1.26562h-.90625zm11.07813-2.5625-3.29688 7.57812h-1.78125l3.29688-7.15625h-4.23438v-1.375h6.01563z" stroke="#fff" stroke-linecap="round" stroke-linejoin="round" stroke-width="3"/><path d="m165.88045 356.5h-1.6875v-6.53125l-2.01563.625v-1.375l3.53125-1.26563h.17188zm7.48437-8.625v1.40625h-.15625q-1.15625.01563-1.85937.59375-.6875.57812-.82813 1.60938.67188-.6875 1.70313-.6875 1.125 0 1.78125.79687.65625.79687.65625 2.09375 0 .82812-.35938 1.5-.35937.67188-1.03125 1.0625-.65625.375-1.48437.375-1.34375 0-2.17188-.9375-.82812-.95312-.82812-2.51562v-.60938q0-1.39062.51562-2.45312.53125-1.0625 1.5-1.64063.98438-.57813 2.28125-.59375zm-1.65625 4.28125q-.40625 0-.75.21875-.32812.20312-.48437.5625v.51562q0 .84376.32812 1.32813.34375.46875.95313.46875.54687 0 .875-.42188.34375-.4375.34375-1.125 0-.70312-.34375-1.125-.34375-.42187-.92188-.42187zm4.21875 3.51563q0-.40626.26563-.65626.28125-.25.6875-.25.42187 0 .6875.25.28125.25.28125.65626 0 .39062-.28125.64062-.26563.25-.6875.25-.40625 0-.6875-.25-.26563-.25-.26563-.64062zm4.5625-4.1875h.90625q.64063 0 .95313-.3125.3125-.32813.3125-.85938 0-.51562-.3125-.79688-.29688-.29687-.84375-.29687-.48438 0-.8125.26563-.32813.26562-.32813.6875h-1.6875q0-.65626.35938-1.1875.35937-.53126 1-.82813.65625-.3125 1.4375-.3125 1.34375 0 2.10937.65625.78125.64062.78125 1.78125 0 .59375-.35937 1.09375-.35938.48438-.9375.73438.71875.26562 1.0625.78124.35937.51563.35937 1.21876 0 1.14062-.82812 1.82812-.82813.6875-2.1875.6875-1.28125 0-2.09375-.67188-.8125-.6875-.8125-1.79687h1.6875q0 .48437.35937.79687.375.29688.89063.29688.60937 0 .95312-.3125.34375-.32812.34375-.85938 0-1.26562-1.40625-1.26562h-.90625zm11.07813-2.5625-3.29688 7.57812h-1.78125l3.29688-7.15625h-4.23438v-1.375h6.01563z" fill="#01ad96"/><path d="m164.29538 412.5h-1.6875v-6.53125l-2.01563.625v-1.375l3.53125-1.26563h.17188zm3.14062-4.20312.5-4.32813h4.78125v1.40625h-3.39062l-.21875 1.84375q.60937-.32813 1.28125-.32813 1.21875 0 1.90625.76563.70312.75.70312 2.10937 0 .82813-.35937 1.48438-.34375.64062-1 1.01562-.64063.35938-1.53125.35938-.76563 0-1.4375-.3125-.65625-.32812-1.04688-.89062-.375-.5625-.40625-1.29688h1.6875q.04688.53125.35938.82812.32812.29688.84375.29688.57812 0 .875-.40625.3125-.42187.3125-1.17187 0-.73438-.35938-1.10938-.34375-.39062-1-.39062-.60937 0-.98437.3125l-.15625.15624zm6.90625 3.375q0-.40626.26563-.65626.28125-.25.6875-.25.42187 0 .6875.25.28125.25.28125.65626 0 .39062-.28125.64062-.26563.25-.6875.25-.40625 0-.6875-.25-.26563-.25-.26563-.64062zm8.6875.82812h-5.84375v-1.15625l2.76563-2.95313q.5625-.60937.82812-1.07812.28125-.46875.28125-.875 0-.57812-.29687-.89062-.28125-.32813-.8125-.32813-.57813 0-.90625.39063-.32813.39062-.32813 1.04687h-1.70312q0-.78125.375-1.42187.375-.65626 1.04687-1.01563.6875-.375 1.54688-.375 1.3125 0 2.04687.64063.73438.625.73438 1.78124 0 .64063-.32813 1.29688-.32812.65625-1.125 1.53125l-1.9375 2.04687h3.65625zm1.40625-4.20312.5-4.32813h4.78125v1.40625h-3.39062l-.21875 1.84375q.60937-.32813 1.28125-.32813 1.21875 0 1.90625.76563.70312.75.70312 2.10937 0 .82813-.35937 1.48438-.34375.64062-1 1.01562-.64063.35938-1.53125.35938-.76563 0-1.4375-.3125-.65625-.32812-1.04688-.89062-.375-.5625-.40625-1.29688h1.6875q.04688.53125.35938.82812.32812.29688.84375.29688.57812 0 .875-.40625.3125-.42187.3125-1.17187 0-.73438-.35938-1.10938-.34375-.39062-1-.39062-.60937 0-.98437.3125l-.15625.15624z" stroke="#fff" stroke-linecap="round" stroke-linejoin="round" stroke-width="3"/><path d="m164.29538 412.5h-1.6875v-6.53125l-2.01563.625v-1.375l3.53125-1.26563h.17188zm3.14062-4.20312.5-4.32813h4.78125v1.40625h-3.39062l-.21875 1.84375q.60937-.32813 1.28125-.32813 1.21875 0 1.90625.76563.70312.75.70312 2.10937 0 .82813-.35937 1.48438-.34375.64062-1 1.01562-.64063.35938-1.53125.35938-.76563 0-1.4375-.3125-.65625-.32812-1.04688-.89062-.375-.5625-.40625-1.29688h1.6875q.04688.53125.35938.82812.32812.29688.84375.29688.57812 0 .875-.40625.3125-.42187.3125-1.17187 0-.73438-.35938-1.10938-.34375-.39062-1-.39062-.60937 0-.98437.3125l-.15625.15624zm6.90625 3.375q0-.40626.26563-.65626.28125-.25.6875-.25.42187 0 .6875.25.28125.25.28125.65626 0 .39062-.28125.64062-.26563.25-.6875.25-.40625 0-.6875-.25-.26563-.25-.26563-.64062zm8.6875.82812h-5.84375v-1.15625l2.76563-2.95313q.5625-.60937.82812-1.07812.28125-.46875.28125-.875 0-.57812-.29687-.89062-.28125-.32813-.8125-.32813-.57813 0-.90625.39063-.32813.39062-.32813 1.04687h-1.70312q0-.78125.375-1.42187.375-.65626 1.04687-1.01563.6875-.375 1.54688-.375 1.3125 0 2.04687.64063.73438.625.73438 1.78124 0 .64063-.32813 1.29688-.32812.65625-1.125 1.53125l-1.9375 2.04687h3.65625zm1.40625-4.20312.5-4.32813h4.78125v1.40625h-3.39062l-.21875 1.84375q.60937-.32813 1.28125-.32813 1.21875 0 1.90625.76563.70312.75.70312 2.10937 0 .82813-.35937 1.48438-.34375.64062-1 1.01562-.64063.35938-1.53125.35938-.76563 0-1.4375-.3125-.65625-.32812-1.04688-.89062-.375-.5625-.40625-1.29688h1.6875q.04688.53125.35938.82812.32812.29688.84375.29688.57812 0 .875-.40625.3125-.42187.3125-1.17187 0-.73438-.35938-1.10938-.34375-.39062-1-.39062-.60937 0-.98437.3125l-.15625.15624z" fill="#01ad96"/><path d="m164.19073 469.5h-1.6875v-6.53125l-2.01562.625v-1.375l3.53125-1.26563h.17187zm3.14063-4.20312.5-4.32813h4.78125v1.40625h-3.39063l-.21875 1.84375q.60938-.32813 1.28125-.32813 1.21875 0 1.90625.76563.70313.75.70313 2.10937 0 .82813-.35938 1.48438-.34375.64062-1 1.01562-.64062.35938-1.53125.35938-.76562 0-1.4375-.3125-.65625-.32812-1.04687-.89062-.375-.5625-.40625-1.29688h1.6875q.04687.53125.35937.82812.32813.29688.84375.29688.57813 0 .875-.40625.3125-.42187.3125-1.17187 0-.73438-.35937-1.10938-.34375-.39062-1-.39062-.60938 0-.98438.3125l-.15625.15624zm6.90625 3.375q0-.40626.26562-.65626.28125-.25.6875-.25.42188 0 .6875.25.28125.25.28125.65626 0 .39062-.28125.64062-.26562.25-.6875.25-.40625 0-.6875-.25-.26562-.25-.26562-.64062zm6.95312.82812h-1.6875v-6.53125l-2.01562.625v-1.375l3.53125-1.26563h.17187zm8.45313-6.26562q0 .625-.3125 1.10937-.3125.46875-.85938.76563.625.29687.98438.82812.375.51562.375 1.21875 0 1.14063-.78125 1.8125-.76563.65625-2.10938.65625-1.32812 0-2.10937-.65625-.76563-.67187-.76563-1.8125 0-.70313.35938-1.23437.35937-.53126.98437-.8125-.54687-.29688-.85937-.76563-.3125-.48437-.3125-1.10937 0-1.09376.71875-1.73438.73437-.65625 1.98437-.65625 1.25 0 1.96875.65625.73438.64062.73438 1.73438zm-1.51563 3.79687q0-.54687-.32812-.875-.3125-.34375-.85938-.34375-.54687 0-.875.32812-.3125.32813-.3125.89063 0 .54687.3125.89063.32813.32812.89063.32812.54687 0 .85937-.3125.3125-.32812.3125-.90625zm-.17187-3.71875q0-.5-.26563-.79688-.26562-.29687-.75-.29687-.46875 0-.73437.29687-.26563.28126-.26563.79688 0 .51562.26563.82812.26562.3125.73437.3125.48438 0 .75-.3125.26563-.3125.26563-.82812z" stroke="#fff" stroke-linecap="round" stroke-linejoin="round" stroke-width="3"/><path d="m164.19073 469.5h-1.6875v-6.53125l-2.01562.625v-1.375l3.53125-1.26563h.17187zm3.14063-4.20312.5-4.32813h4.78125v1.40625h-3.39063l-.21875 1.84375q.60938-.32813 1.28125-.32813 1.21875 0 1.90625.76563.70313.75.70313 2.10937 0 .82813-.35938 1.48438-.34375.64062-1 1.01562-.64062.35938-1.53125.35938-.76562 0-1.4375-.3125-.65625-.32812-1.04687-.89062-.375-.5625-.40625-1.29688h1.6875q.04687.53125.35937.82812.32813.29688.84375.29688.57813 0 .875-.40625.3125-.42187.3125-1.17187 0-.73438-.35937-1.10938-.34375-.39062-1-.39062-.60938 0-.98438.3125l-.15625.15624zm6.90625 3.375q0-.40626.26562-.65626.28125-.25.6875-.25.42188 0 .6875.25.28125.25.28125.65626 0 .39062-.28125.64062-.26562.25-.6875.25-.40625 0-.6875-.25-.26562-.25-.26562-.64062zm6.95312.82812h-1.6875v-6.53125l-2.01562.625v-1.375l3.53125-1.26563h.17187zm8.45313-6.26562q0 .625-.3125 1.10937-.3125.46875-.85938.76563.625.29687.98438.82812.375.51562.375 1.21875 0 1.14063-.78125 1.8125-.76563.65625-2.10938.65625-1.32812 0-2.10937-.65625-.76563-.67187-.76563-1.8125 0-.70313.35938-1.23437.35937-.53126.98437-.8125-.54687-.29688-.85937-.76563-.3125-.48437-.3125-1.10937 0-1.09376.71875-1.73438.73437-.65625 1.98437-.65625 1.25 0 1.96875.65625.73438.64062.73438 1.73438zm-1.51563 3.79687q0-.54687-.32812-.875-.3125-.34375-.85938-.34375-.54687 0-.875.32812-.3125.32813-.3125.89063 0 .54687.3125.89063.32813.32812.89063.32812.54687 0 .85937-.3125.3125-.32812.3125-.90625zm-.17187-3.71875q0-.5-.26563-.79688-.26562-.29687-.75-.29687-.46875 0-.73437.29687-.26563.28126-.26563.79688 0 .51562.26563.82812.26562.3125.73437.3125.48438 0 .75-.3125.26563-.3125.26563-.82812z" fill="#01ad96"/><path d="m160.1929 526.5h-1.6875v-6.53125l-2.01562.625v-1.375l3.53125-1.26565h.17187zm8.73438 0h-5.84375v-1.15625l2.76562-2.95315q.5625-.60935.82813-1.0781.28125-.46875.28125-.875 0-.5781-.29688-.8906-.28125-.32815-.8125-.32815-.57812 0-.90625.39065-.32812.3906-.32812 1.04685h-1.70313q0-.78125.375-1.42185.375-.6563 1.04688-1.01565.6875-.375 1.54687-.375 1.3125 0 2.04688.64065.73437.625.73437 1.7812 0 .64065-.32812 1.2969-.32813.65625-1.125 1.53125l-1.9375 2.04685h3.65625zm1.3125-.8281q0-.4063.26562-.6563.28125-.25.6875-.25.42188 0 .6875.25.28125.25.28125.6563 0 .3906-.28125.6406-.26562.25-.6875.25-.40625 0-.6875-.25-.26562-.25-.26562-.6406zm4.5625-4.1875h.90625q.64062 0 .95312-.3125.3125-.32815.3125-.8594 0-.5156-.3125-.7969-.29687-.29685-.84375-.29685-.48437 0-.8125.26565-.32812.2656-.32812.6875h-1.6875q0-.6563.35937-1.1875.35938-.5313 1-.82815.65625-.3125 1.4375-.3125 1.34375 0 2.10938.65625.78125.6406.78125 1.78125 0 .59375-.35938 1.09375-.35937.4844-.9375.7344.71875.2656 1.0625.7812.35938.51565.35938 1.2188 0 1.1406-.82813 1.8281-.82812.6875-2.1875.6875-1.28125 0-2.09375-.6719-.8125-.6875-.8125-1.79685h1.6875q0 .48435.35938.79685.375.2969.89062.2969.60938 0 .95313-.3125.34375-.3281.34375-.8594 0-1.2656-1.40625-1.2656h-.90625zm9.875-3.6094v1.40625h-.15625q-1.15625.01565-1.85938.59375-.6875.5781-.82812 1.6094.67187-.6875 1.70312-.6875 1.125 0 1.78125.79685.65625.79685.65625 2.09375 0 .8281-.35937 1.5-.35938.6719-1.03125 1.0625-.65625.375-1.48438.375-1.34375 0-2.17187-.9375-.82813-.9531-.82813-2.5156v-.6094q0-1.3906.51563-2.4531.53125-1.0625 1.5-1.64065.98437-.57815 2.28125-.59375zm-1.65625 4.28125q-.40625 0-.75.21875-.32813.2031-.48438.5625v.5156q0 .8438.32813 1.32815.34375.46875.95312.46875.54688 0 .875-.4219.34375-.4375.34375-1.125 0-.7031-.34375-1.125-.34375-.42185-.92187-.42185z" stroke="#fff" stroke-linecap="round" stroke-linejoin="round" stroke-width="3"/><path d="m160.1929 526.5h-1.6875v-6.53125l-2.01562.625v-1.375l3.53125-1.26565h.17187zm8.73438 0h-5.84375v-1.15625l2.76562-2.95315q.5625-.60935.82813-1.0781.28125-.46875.28125-.875 0-.5781-.29688-.8906-.28125-.32815-.8125-.32815-.57812 0-.90625.39065-.32812.3906-.32812 1.04685h-1.70313q0-.78125.375-1.42185.375-.6563 1.04688-1.01565.6875-.375 1.54687-.375 1.3125 0 2.04688.64065.73437.625.73437 1.7812 0 .64065-.32812 1.2969-.32813.65625-1.125 1.53125l-1.9375 2.04685h3.65625zm1.3125-.8281q0-.4063.26562-.6563.28125-.25.6875-.25.42188 0 .6875.25.28125.25.28125.6563 0 .3906-.28125.6406-.26562.25-.6875.25-.40625 0-.6875-.25-.26562-.25-.26562-.6406zm4.5625-4.1875h.90625q.64062 0 .95312-.3125.3125-.32815.3125-.8594 0-.5156-.3125-.7969-.29687-.29685-.84375-.29685-.48437 0-.8125.26565-.32812.2656-.32812.6875h-1.6875q0-.6563.35937-1.1875.35938-.5313 1-.82815.65625-.3125 1.4375-.3125 1.34375 0 2.10938.65625.78125.6406.78125 1.78125 0 .59375-.35938 1.09375-.35937.4844-.9375.7344.71875.2656 1.0625.7812.35938.51565.35938 1.2188 0 1.1406-.82813 1.8281-.82812.6875-2.1875.6875-1.28125 0-2.09375-.6719-.8125-.6875-.8125-1.79685h1.6875q0 .48435.35938.79685.375.2969.89062.2969.60938 0 .95313-.3125.34375-.3281.34375-.8594 0-1.2656-1.40625-1.2656h-.90625zm9.875-3.6094v1.40625h-.15625q-1.15625.01565-1.85938.59375-.6875.5781-.82812 1.6094.67187-.6875 1.70312-.6875 1.125 0 1.78125.79685.65625.79685.65625 2.09375 0 .8281-.35937 1.5-.35938.6719-1.03125 1.0625-.65625.375-1.48438.375-1.34375 0-2.17187-.9375-.82813-.9531-.82813-2.5156v-.6094q0-1.3906.51563-2.4531.53125-1.0625 1.5-1.64065.98437-.57815 2.28125-.59375zm-1.65625 4.28125q-.40625 0-.75.21875-.32813.2031-.48438.5625v.5156q0 .8438.32813 1.32815.34375.46875.95312.46875.54688 0 .875-.4219.34375-.4375.34375-1.125 0-.7031-.34375-1.125-.34375-.42185-.92187-.42185z" fill="#01ad96"/><path d="m152.54593 574.875v1.40625h-.15625q-1.15625.01565-1.85938.59375-.6875.5781-.82812 1.6094.67187-.6875 1.70312-.6875 1.125 0 1.78125.79685.65625.79685.65625 2.09375 0 .8281-.35937 1.5-.35938.6719-1.03125 1.0625-.65625.375-1.48438.375-1.34375 0-2.17187-.9375-.82813-.9531-.82813-2.5156v-.6094q0-1.3906.51563-2.4531.53125-1.0625 1.5-1.64065.98437-.57815 2.28125-.59375zm-1.65625 4.28125q-.40625 0-.75.21875-.32813.2031-.48438.5625v.5156q0 .8438.32813 1.32815.34375.46875.95312.46875.54688 0 .875-.4219.34375-.4375.34375-1.125 0-.7031-.34375-1.125-.34375-.42185-.92187-.42185zm4.21875 3.51565q0-.4063.26562-.6563.28125-.25.6875-.25.42188 0 .6875.25.28125.25.28125.6563 0 .3906-.28125.6406-.26562.25-.6875.25-.40625 0-.6875-.25-.26562-.25-.26562-.6406zm7.4375-7.7969v1.40625h-.15625q-1.15625.01565-1.85938.59375-.6875.5781-.82812 1.6094.67187-.6875 1.70312-.6875 1.125 0 1.78125.79685.65625.79685.65625 2.09375 0 .8281-.35937 1.5-.35938.6719-1.03125 1.0625-.65625.375-1.48438.375-1.34375 0-2.17187-.9375-.82813-.9531-.82813-2.5156v-.6094q0-1.3906.51563-2.4531.53125-1.0625 1.5-1.64065.98437-.57815 2.28125-.59375zm-1.65625 4.28125q-.40625 0-.75.21875-.32813.2031-.48438.5625v.5156q0 .8438.32813 1.32815.34375.46875.95312.46875.54688 0 .875-.4219.34375-.4375.34375-1.125 0-.7031-.34375-1.125-.34375-.42185-.92187-.42185zm9.90625 4.34375h-5.84375v-1.15625l2.76562-2.95315q.5625-.60935.82813-1.0781.28125-.46875.28125-.875 0-.5781-.29688-.8906-.28125-.32815-.8125-.32815-.57812 0-.90625.39065-.32812.3906-.32812 1.04685h-1.70313q0-.78125.375-1.42185.375-.6563 1.04688-1.01565.6875-.375 1.54687-.375 1.3125 0 2.04688.64065.73437.625.73437 1.7812 0 .64065-.32812 1.2969-.32813.65625-1.125 1.53125l-1.9375 2.04685h3.65625z" stroke="#fff" stroke-linecap="round" stroke-linejoin="round" stroke-width="3"/><path d="m152.54593 574.875v1.40625h-.15625q-1.15625.01565-1.85938.59375-.6875.5781-.82812 1.6094.67187-.6875 1.70312-.6875 1.125 0 1.78125.79685.65625.79685.65625 2.09375 0 .8281-.35937 1.5-.35938.6719-1.03125 1.0625-.65625.375-1.48438.375-1.34375 0-2.17187-.9375-.82813-.9531-.82813-2.5156v-.6094q0-1.3906.51563-2.4531.53125-1.0625 1.5-1.64065.98437-.57815 2.28125-.59375zm-1.65625 4.28125q-.40625 0-.75.21875-.32813.2031-.48438.5625v.5156q0 .8438.32813 1.32815.34375.46875.95312.46875.54688 0 .875-.4219.34375-.4375.34375-1.125 0-.7031-.34375-1.125-.34375-.42185-.92187-.42185zm4.21875 3.51565q0-.4063.26562-.6563.28125-.25.6875-.25.42188 0 .6875.25.28125.25.28125.6563 0 .3906-.28125.6406-.26562.25-.6875.25-.40625 0-.6875-.25-.26562-.25-.26562-.6406zm7.4375-7.7969v1.40625h-.15625q-1.15625.01565-1.85938.59375-.6875.5781-.82812 1.6094.67187-.6875 1.70312-.6875 1.125 0 1.78125.79685.65625.79685.65625 2.09375 0 .8281-.35937 1.5-.35938.6719-1.03125 1.0625-.65625.375-1.48438.375-1.34375 0-2.17187-.9375-.82813-.9531-.82813-2.5156v-.6094q0-1.3906.51563-2.4531.53125-1.0625 1.5-1.64065.98437-.57815 2.28125-.59375zm-1.65625 4.28125q-.40625 0-.75.21875-.32813.2031-.48438.5625v.5156q0 .8438.32813 1.32815.34375.46875.95312.46875.54688 0 .875-.4219.34375-.4375.34375-1.125 0-.7031-.34375-1.125-.34375-.42185-.92187-.42185zm9.90625 4.34375h-5.84375v-1.15625l2.76562-2.95315q.5625-.60935.82813-1.0781.28125-.46875.28125-.875 0-.5781-.29688-.8906-.28125-.32815-.8125-.32815-.57812 0-.90625.39065-.32812.3906-.32812 1.04685h-1.70313q0-.78125.375-1.42185.375-.6563 1.04688-1.01565.6875-.375 1.54687-.375 1.3125 0 2.04688.64065.73437.625.73437 1.7812 0 .64065-.32812 1.2969-.32813.65625-1.125 1.53125l-1.9375 2.04685h3.65625z" fill="#01ad96"/><path d="m177.55568 640.5h-5.84375v-1.15625l2.76562-2.95315q.5625-.60935.82813-1.0781.28125-.46875.28125-.875 0-.5781-.29688-.8906-.28125-.32815-.8125-.32815-.57812 0-.90625.39065-.32812.3906-.32812 1.04685h-1.70313q0-.78125.375-1.42185.375-.6563 1.04688-1.01565.6875-.375 1.54687-.375 1.3125 0 2.04688.64065.73437.625.73437 1.7812 0 .64065-.32812 1.2969-.32813.65625-1.125 1.53125l-1.9375 2.04685h3.65625zm2.875-5.0156h.90625q.64062 0 .95312-.3125.3125-.32815.3125-.8594 0-.5156-.3125-.7969-.29687-.29685-.84375-.29685-.48437 0-.8125.26565-.32812.2656-.32812.6875h-1.6875q0-.6563.35937-1.1875.35938-.5313 1-.82815.65625-.3125 1.4375-.3125 1.34375 0 2.10938.65625.78125.6406.78125 1.78125 0 .59375-.35938 1.09375-.35937.4844-.9375.7344.71875.2656 1.0625.7812.35938.51565.35938 1.2188 0 1.1406-.82813 1.8281-.82812.6875-2.1875.6875-1.28125 0-2.09375-.6719-.8125-.6875-.8125-1.79685h1.6875q0 .48435.35938.79685.375.2969.89062.2969.60938 0 .95313-.3125.34375-.3281.34375-.8594 0-1.2656-1.40625-1.2656h-.90625zm5.4375 4.1875q0-.4063.26562-.6563.28125-.25.6875-.25.42188 0 .6875.25.28125.25.28125.6563 0 .3906-.28125.6406-.26562.25-.6875.25-.40625 0-.6875-.25-.26562-.25-.26562-.6406zm4.5625-4.1875h.90625q.64062 0 .95312-.3125.3125-.32815.3125-.8594 0-.5156-.3125-.7969-.29687-.29685-.84375-.29685-.48437 0-.8125.26565-.32812.2656-.32812.6875h-1.6875q0-.6563.35937-1.1875.35938-.5313 1-.82815.65625-.3125 1.4375-.3125 1.34375 0 2.10938.65625.78125.6406.78125 1.78125 0 .59375-.35938 1.09375-.35937.4844-.9375.7344.71875.2656 1.0625.7812.35938.51565.35938 1.2188 0 1.1406-.82813 1.8281-.82812.6875-2.1875.6875-1.28125 0-2.09375-.6719-.8125-.6875-.8125-1.79685h1.6875q0 .48435.35938.79685.375.2969.89062.2969.60938 0 .95313-.3125.34375-.3281.34375-.8594 0-1.2656-1.40625-1.2656h-.90625zm9.25 1.60935q-.67188.64065-1.54688.64065-1.14062 0-1.82812-.76565-.67188-.78125-.67188-2.09375 0-.84375.35938-1.5469.375-.7031 1.03125-1.0937.65625-.39065 1.48437-.39065.84375 0 1.5.42185.65625.4219 1.01563 1.2188.35937.79685.375 1.8125v.625q0 2.1406-1.0625 3.35935-1.0625 1.21875-3.01563 1.29685h-.40625v-1.4062l.375-.01565q2.20313-.09375 2.39063-2.0625zm-1.14063-.65625q.42188 0 .70313-.2031.29687-.2188.45312-.51565v-.6875q0-.85935-.32812-1.32815-.32813-.48435-.875-.48435-.51563 0-.84375.46875-.32813.4531-.32813 1.15625 0 .70315.3125 1.15625.32813.4375.90625.4375z" stroke="#fff" stroke-linecap="round" stroke-linejoin="round" stroke-width="3"/><path d="m177.55568 640.5h-5.84375v-1.15625l2.76562-2.95315q.5625-.60935.82813-1.0781.28125-.46875.28125-.875 0-.5781-.29688-.8906-.28125-.32815-.8125-.32815-.57812 0-.90625.39065-.32812.3906-.32812 1.04685h-1.70313q0-.78125.375-1.42185.375-.6563 1.04688-1.01565.6875-.375 1.54687-.375 1.3125 0 2.04688.64065.73437.625.73437 1.7812 0 .64065-.32812 1.2969-.32813.65625-1.125 1.53125l-1.9375 2.04685h3.65625zm2.875-5.0156h.90625q.64062 0 .95312-.3125.3125-.32815.3125-.8594 0-.5156-.3125-.7969-.29687-.29685-.84375-.29685-.48437 0-.8125.26565-.32812.2656-.32812.6875h-1.6875q0-.6563.35937-1.1875.35938-.5313 1-.82815.65625-.3125 1.4375-.3125 1.34375 0 2.10938.65625.78125.6406.78125 1.78125 0 .59375-.35938 1.09375-.35937.4844-.9375.7344.71875.2656 1.0625.7812.35938.51565.35938 1.2188 0 1.1406-.82813 1.8281-.82812.6875-2.1875.6875-1.28125 0-2.09375-.6719-.8125-.6875-.8125-1.79685h1.6875q0 .48435.35938.79685.375.2969.89062.2969.60938 0 .95313-.3125.34375-.3281.34375-.8594 0-1.2656-1.40625-1.2656h-.90625zm5.4375 4.1875q0-.4063.26562-.6563.28125-.25.6875-.25.42188 0 .6875.25.28125.25.28125.6563 0 .3906-.28125.6406-.26562.25-.6875.25-.40625 0-.6875-.25-.26562-.25-.26562-.6406zm4.5625-4.1875h.90625q.64062 0 .95312-.3125.3125-.32815.3125-.8594 0-.5156-.3125-.7969-.29687-.29685-.84375-.29685-.48437 0-.8125.26565-.32812.2656-.32812.6875h-1.6875q0-.6563.35937-1.1875.35938-.5313 1-.82815.65625-.3125 1.4375-.3125 1.34375 0 2.10938.65625.78125.6406.78125 1.78125 0 .59375-.35938 1.09375-.35937.4844-.9375.7344.71875.2656 1.0625.7812.35938.51565.35938 1.2188 0 1.1406-.82813 1.8281-.82812.6875-2.1875.6875-1.28125 0-2.09375-.6719-.8125-.6875-.8125-1.79685h1.6875q0 .48435.35938.79685.375.2969.89062.2969.60938 0 .95313-.3125.34375-.3281.34375-.8594 0-1.2656-1.40625-1.2656h-.90625zm9.25 1.60935q-.67188.64065-1.54688.64065-1.14062 0-1.82812-.76565-.67188-.78125-.67188-2.09375 0-.84375.35938-1.5469.375-.7031 1.03125-1.0937.65625-.39065 1.48437-.39065.84375 0 1.5.42185.65625.4219 1.01563 1.2188.35937.79685.375 1.8125v.625q0 2.1406-1.0625 3.35935-1.0625 1.21875-3.01563 1.29685h-.40625v-1.4062l.375-.01565q2.20313-.09375 2.39063-2.0625zm-1.14063-.65625q.42188 0 .70313-.2031.29687-.2188.45312-.51565v-.6875q0-.85935-.32812-1.32815-.32813-.48435-.875-.48435-.51563 0-.84375.46875-.32813.4531-.32813 1.15625 0 .70315.3125 1.15625.32813.4375.90625.4375z" fill="#01ad96"/><g fill="#000"><path d="m39 63.32778v5.79688q-.015625 1.20312-.765625 1.98437-.75.76563-2.03125.85938l-.3125.01562q-1.390625 0-2.234375-.75-.828125-.76562-.828125-2.09375v-5.8125h1.109375v5.78125q0 .92188.5 1.4375.515625.51563 1.453125.51563.96875 0 1.46875-.51563.5-.51562.5-1.4375v-5.78125zm2.84375 2.1875.03125.79688q.734375-.90625 1.90625-.90625 2.015625 0 2.03125 2.26562v4.1875h-1.09375v-4.20312q0-.67188-.3125-1-.296875-.32813-.953125-.32813-.53125 0-.9375.28125-.390625.28125-.609375.73438v4.51562h-1.078125v-6.34375zm7.15625 6.34375h-1.078125v-6.34375h1.078125zm-1.171875-8.015623q0-.265627.15625-.453127.171875-.1875.484375-.1875.3125 0 .46875.1875.171875.1875.171875.453127 0 .250003-.171875.437503-.15625.17187-.46875.17187-.3125 0-.484375-.17187-.15625-.1875-.15625-.437503zm4.46875.140623v1.53125h1.171875v.84375h-1.171875v3.92188q0 .39062.15625.57812.15625.1875.53125.1875.1875 0 .515625-.0625v.875q-.421875.125-.828125.125-.71875 0-1.09375-.4375-.375-.45312-.375-1.26562v-3.92188h-1.15625v-.84375h1.15625v-1.53125zm5.15625 8q-1.296875 0-2.109375-.84375-.796875-.85937-.796875-2.28125v-.1875q0-.95312.359375-1.6875.359375-.75 1-1.15625.65625-.42187 1.40625-.42187 1.234375 0 1.921875.8125.6875.8125.6875 2.32812v.45313h-4.296875q.03125.9375.546875 1.51562.53125.57813 1.34375.57813.5625 0 .953125-.23438.40625-.23437.71875-.625l.65625.51563q-.796875 1.23437-2.390625 1.23437zm-.140625-5.6875q-.65625 0-1.109375.48438-.4375.46875-.53125 1.32812h3.171875v-.07812q-.046875-.82813-.453125-1.28125-.390625-.45313-1.078125-.45313zm3.25 2.34375q0-1.46875.6875-2.34375.6875-.89062 1.8125-.89062 1.109375 0 1.765625.75v-3.29688h1.078125v9h-1l-.046875-.6875q-.65625.8125-1.8125.8125-1.09375 0-1.796875-.90625-.6875-.90625-.6875-2.35937zm1.078125.125q0 1.07813.4375 1.6875.453125.60938 1.234375.60938 1.03125 0 1.515625-.9375v-2.90625q-.484375-.89063-1.5-.89063-.796875 0-1.25.60938-.4375.60937-.4375 1.82812zm11.515625-.875-1.046875 1.07813v2.89062h-1.125v-8.53125h1.125v4.21875l3.796875-4.21875h1.359375l-3.359375 3.76563 3.625 4.76562h-1.34375zm6.84375 3.96875h-1.078125v-6.34375h1.078125zm-1.171875-8.015623q0-.265627.15625-.453127.171875-.1875.484375-.1875.3125 0 .46875.1875.171875.1875.171875.453127 0 .250003-.171875.437503-.15625.17187-.46875.17187-.3125 0-.484375-.17187-.15625-.1875-.15625-.437503zm4.015625 1.671873.03125.79688q.734375-.90625 1.90625-.90625 2.015625 0 2.03125 2.26562v4.1875h-1.09375v-4.20312q0-.67188-.3125-1-.296875-.32813-.953125-.32813-.53125 0-.9375.28125-.390625.28125-.609375.73438v4.51562h-1.078125v-6.34375zm5.71875 3.125q0-1.48437.6875-2.35937.6875-.875 1.8125-.875 1.15625 0 1.8125.8125l.046875-.70313h1v6.1875q0 1.23438-.734375 1.9375-.734375.71875-1.953125.71875-.6875 0-1.34375-.29687-.65625-.29688-1-.79688l.5625-.65625q.6875.85938 1.703125.85938.78125 0 1.21875-.45313.453125-.4375.453125-1.25v-.54687q-.65625.76562-1.78125.76562-1.109375 0-1.796875-.89062-.6875-.90625-.6875-2.45313zm1.09375.125q0 1.0625.4375 1.6875.4375.60938 1.234375.60938 1.015625 0 1.5-.9375v-2.89063q-.5-.90625-1.5-.90625-.78125 0-1.234375.60938-.4375.60937-.4375 1.82812zm5.90625-.125q0-1.46875.6875-2.34375.6875-.89062 1.8125-.89062 1.109375 0 1.765625.75v-3.29688h1.078125v9h-1l-.046875-.6875q-.65625.8125-1.8125.8125-1.09375 0-1.796875-.90625-.6875-.90625-.6875-2.35937zm1.078125.125q0 1.07813.4375 1.6875.453125.60938 1.234375.60938 1.03125 0 1.515625-.9375v-2.90625q-.484375-.89063-1.5-.89063-.796875 0-1.25.60938-.4375.60937-.4375 1.82812zm5.890625-.14062q0-.92188.359375-1.67188.375-.75 1.03125-1.14062.65625-.40625 1.484375-.40625 1.296875 0 2.09375.89062.8125.89063.8125 2.39063v.07812q0 .92188-.359375 1.65625-.359375.73438-1.015625 1.15625-.65625.40625-1.515625.40625-1.28125 0-2.09375-.89062-.796875-.90625-.796875-2.39063zm1.09375.14062q0 1.04688.484375 1.6875.5.64063 1.3125.64063.828125 0 1.3125-.64063.484375-.65625.484375-1.82812 0-1.03125-.5-1.67188-.484375-.65625-1.3125-.65625-.796875 0-1.296875.64063-.484375.625-.484375 1.82812zm7.21875-3.25.03125.70313q.6875-.8125 1.875-.8125 1.328125 0 1.8125 1.01562.3125-.45312.8125-.73437.515625-.28125 1.203125-.28125 2.09375 0 2.125 2.20312v4.25h-1.078125v-4.1875q0-.67187-.3125-1-.3125-.34375-1.046875-.34375-.609375 0-1.015625.35938-.390625.35937-.453125.96875v4.20312h-1.078125v-4.15625q0-1.375-1.359375-1.375-1.0625 0-1.453125.90625v4.625h-1.09375v-6.34375z"/><path d="m71.984375 128.68723v-8.531255h2.421875q1.109375 0 1.953125.5.859375.484375 1.328125 1.390625.46875.90625.46875 2.09375v.53125q0 1.21875-.46875 2.125-.453125.90625-1.328125 1.39063-.859375.48437-2 .5zm1.125-7.60938v6.6875h1.1875q1.296875 0 2.015625-.796875.734375-.8125.734375-2.3125v-.5q0-1.453125-.6875-2.25-.671875-.8125-1.9375-.828125zm9.34375 7.73438q-1.296875 0-2.109375-.843755-.796875-.859375-.796875-2.28125v-.1875q0-.953125.359375-1.6875.359375-.75 1-1.15625.65625-.421875 1.40625-.421875 1.234375 0 1.921875.8125.6875.8125.6875 2.328125v.453125h-4.296875q.03125.9375.546875 1.515625.53125.578125 1.34375.578125.5625 0 .953125-.234375.40625-.234375.71875-.625l.65625.515625q-.796875 1.23438-2.390625 1.23438zm-.140625-5.687505q-.65625 0-1.109375.484375-.4375.46875-.53125 1.328125h3.171875v-.078125q-.046875-.828125-.453125-1.28125-.390625-.453125-1.078125-.453125zm4.53125-.78125.03125.796875q.734375-.90625 1.90625-.90625 2.015625 0 2.03125 2.265625v4.187505h-1.09375v-4.20313q0-.671875-.3125-1-.296875-.328125-.953125-.328125-.53125 0-.9375.28125-.390625.28125-.609375.734375v4.51563h-1.078125v-6.343755zm7 0 .03125.703125q.6875-.8125 1.875-.8125 1.328125 0 1.8125 1.015625.3125-.453125.8125-.734375.515625-.28125 1.203125-.28125 2.09375 0 2.125 2.203125v4.250005h-1.078125v-4.187505q0-.671875-.3125-1-.3125-.34375-1.046875-.34375-.609375 0-1.015625.359375-.390625.359375-.453125.96875v4.20313h-1.078125v-4.156255q0-1.375-1.359375-1.375-1.0625 0-1.453125.90625v4.625005h-1.09375v-6.343755zm13.890625 6.343755q-.09375-.1875-.15625-.67188-.75.79688-1.796875.79688-.9375 0-1.546875-.53125-.59375-.531255-.59375-1.35938 0-.984375.75-1.53125.75-.546875 2.125-.546875h1.046875v-.5q0-.5625-.34375-.890625-.328125-.34375-1-.34375-.578125 0-.96875.296875-.390625.28125-.390625.703125h-1.09375q0-.484375.328125-.921875.34375-.4375.921875-.6875.578125-.265625 1.265625-.265625 1.109375 0 1.71875.546875.625.546875.65625 1.5v2.921875q0 .875.21875 1.39063v.09375zm-1.796875-.82813q.515625 0 .96875-.265625.453125-.265625.65625-.6875v-1.296875h-.84375q-2 0-2 1.171875 0 .5.34375.796875.34375.28125.875.28125zm7.953125-4.546875q-.25-.03125-.53125-.03125-1.078125 0-1.453125.90625v4.500005h-1.078125v-6.343755h1.046875l.015625.734375q.53125-.84375 1.515625-.84375.3125 0 .484375.078125zm2.703125 2.4375-.6875.703125v2.23438h-1.078125v-9.000005h1.078125v5.4375l.578125-.6875 1.984375-2.09375h1.3125l-2.46875 2.65625 2.765625 3.687505h-1.28125z"/><path d="m81.5 181.71854q-1.4375-.42188-2.109375-1.03125-.65625-.60938-.65625-1.5 0-1 .796875-1.65625.8125-.67188 2.109375-.67188.875 0 1.5625.34375.6875.34375 1.0625.9375.390625.59375.390625 1.3125h-1.140625q0-.78125-.5-1.21875-.484375-.4375-1.375-.4375-.828125 0-1.296875.375-.46875.35938-.46875 1 0 .53125.4375.89063.453125.35937 1.515625.65625 1.0625.29687 1.65625.65625.609375.35937.890625.84375.296875.48437.296875 1.125 0 1.04687-.8125 1.67187-.8125.625-2.15625.625-.890625 0-1.65625-.34375-.75-.34375-1.171875-.92187-.40625-.59375-.40625-1.32813h1.125q0 .76563.578125 1.21875.578125.45313 1.53125.45313.890625 0 1.359375-.35938.46875-.375.46875-1 0-.625-.4375-.96875-.4375-.34375-1.59375-.67187zm9.9375 2.29687 1.21875-4.84375h1.078125l-1.84375 6.34375h-.875l-1.546875-4.8125-1.5 4.8125h-.875l-1.84375-6.34375h1.078125l1.25 4.75 1.484375-4.75h.859375zm6.015625 1.625q-1.296875 0-2.109375-.84375-.796875-.85937-.796875-2.28125v-.1875q0-.95312.359375-1.6875.359375-.75 1-1.15625.65625-.42187 1.40625-.42187 1.234375 0 1.921875.8125.6875.8125.6875 2.32812v.45313h-4.296875q.03125.9375.546875 1.51562.53125.57813 1.34375.57813.5625 0 .953125-.23438.40625-.23437.71875-.625l.65625.51563q-.796875 1.23437-2.390625 1.23437zm-.140625-5.6875q-.65625 0-1.109375.48438-.4375.46875-.53125 1.32812h3.171875v-.07812q-.046875-.82813-.453125-1.28125-.390625-.45313-1.078125-.45313zm3.25 2.34375q0-1.46875.6875-2.34375.6875-.89062 1.8125-.89062 1.109375 0 1.765625.75v-3.29688h1.078125v9h-1l-.046875-.6875q-.65625.8125-1.8125.8125-1.09375 0-1.796875-.90625-.6875-.90625-.6875-2.35937zm1.078125.125q0 1.07813.4375 1.6875.453125.60938 1.234375.60938 1.03125 0 1.515625-.9375v-2.90625q-.484375-.89063-1.5-.89063-.796875 0-1.25.60938-.4375.60937-.4375 1.82812zm8.8125 3.21875q-1.296875 0-2.109375-.84375-.796875-.85937-.796875-2.28125v-.1875q0-.95312.359375-1.6875.359375-.75 1-1.15625.65625-.42187 1.40625-.42187 1.234375 0 1.921875.8125.6875.8125.6875 2.32812v.45313h-4.296875q.03125.9375.546875 1.51562.53125.57813 1.34375.57813.5625 0 .953125-.23438.40625-.23437.71875-.625l.65625.51563q-.796875 1.23437-2.390625 1.23437zm-.140625-5.6875q-.65625 0-1.109375.48438-.4375.46875-.53125 1.32812h3.171875v-.07812q-.046875-.82813-.453125-1.28125-.390625-.45313-1.078125-.45313zm4.53125-.78125.03125.79688q.734375-.90625 1.90625-.90625 2.015625 0 2.03125 2.26562v4.1875h-1.09375v-4.20312q0-.67188-.3125-1-.296875-.32813-.953125-.32813-.53125 0-.9375.28125-.390625.28125-.609375.73438v4.51562h-1.078125v-6.34375z"/><path d="m84.703125 238.57799h-3.59375v3.76562h-1.125v-8.53125h5.296875v.92188h-4.171875v2.92187h3.59375zm3.296875 3.76562h-1.078125v-6.34375h1.078125zm-1.171875-8.01562q0-.26563.15625-.45313.171875-.1875.484375-.1875.3125 0 .46875.1875.171875.1875.171875.45313 0 .25-.171875.4375-.15625.17187-.46875.17187-.3125 0-.484375-.17187-.15625-.1875-.15625-.4375zm4.015625 1.67187.03125.79688q.734375-.90625 1.90625-.90625 2.015625 0 2.03125 2.26562v4.1875h-1.09375v-4.20312q0-.67188-.3125-1-.296875-.32813-.953125-.32813-.53125 0-.9375.28125-.390625.28125-.609375.73438v4.51562h-1.078125v-6.34375zm7.15625 6.34375h-1.078125v-9h1.078125zm5.734375 0q-.09375-.1875-.15625-.67187-.75.79687-1.796875.79687-.9375 0-1.546875-.53125-.59375-.53125-.59375-1.35937 0-.98438.75-1.53125.75-.54688 2.125-.54688h1.046875v-.5q0-.5625-.34375-.89062-.328125-.34375-1-.34375-.578125 0-.96875.29687-.390625.28125-.390625.70313h-1.09375q0-.48438.328125-.92188.34375-.4375.921875-.6875.578125-.26562 1.265625-.26562 1.109375 0 1.71875.54687.625.54688.65625 1.5v2.92188q0 .875.21875 1.39062v.09375zm-1.796875-.82812q.515625 0 .96875-.26563.453125-.26562.65625-.6875v-1.29687h-.84375q-2 0-2 1.17187 0 .5.34375.79688.34375.28125.875.28125zm5.90625-5.51563.03125.79688q.734375-.90625 1.90625-.90625 2.015625 0 2.03125 2.26562v4.1875h-1.09375v-4.20312q0-.67188-.3125-1-.296875-.32813-.953125-.32813-.53125 0-.9375.28125-.390625.28125-.609375.73438v4.51562h-1.078125v-6.34375zm5.71875 3.125q0-1.46875.6875-2.34375.6875-.89062 1.8125-.89062 1.109375 0 1.765625.75v-3.29688h1.078125v9h-1l-.046875-.6875q-.65625.8125-1.8125.8125-1.09375 0-1.796875-.90625-.6875-.90625-.6875-2.35937zm1.078125.125q0 1.07813.4375 1.6875.453125.60938 1.234375.60938 1.03125 0 1.515625-.9375v-2.90625q-.484375-.89063-1.5-.89063-.796875 0-1.25.60938-.4375.60937-.4375 1.82812z"/><path d="m37.890625 291.56244h-2.75v7.60936h-1.109375v-7.60936h-2.75v-.92188h6.609375zm2.015625 2.03126q.71875-.875 1.875-.875 2.015625 0 2.03125 2.2656v4.1875h-1.09375v-4.2031q0-.6719-.3125-1-.296875-.32814-.953125-.32814-.53125 0-.9375.28124-.390625.28126-.609375.7344v4.5156h-1.078125v-9h1.078125zm8.546875 5.7031q-1.296875 0-2.109375-.84374-.796875-.85936-.796875-2.28126v-.1875q0-.9531.359375-1.6875.359375-.75 1-1.15624.65625-.42186 1.40625-.42186 1.234375 0 1.921875.8125.6875.8125.6875 2.3281v.45314h-4.296875q.03125.9375.546875 1.51562.53125.57814 1.34375.57814.5625 0 .953125-.2344.40625-.23436.71875-.625l.65625.51564q-.796875 1.23436-2.390625 1.23436zm-.140625-5.6875q-.65625 0-1.109375.4844-.4375.46874-.53125 1.3281h3.171875v-.0781q-.046875-.82814-.453125-1.28126-.390625-.45314-1.078125-.45314zm13.234375 5.5625h-1.125l-4.296875-6.5781v6.5781h-1.140625v-8.53124h1.140625l4.296875 6.60938v-6.60938h1.125zm4.90625.125q-1.296875 0-2.109375-.84374-.796875-.85936-.796875-2.28126v-.1875q0-.9531.359375-1.6875.359375-.75 1-1.15624.65625-.42186 1.40625-.42186 1.234375 0 1.921875.8125.6875.8125.6875 2.3281v.45314h-4.296875q.03125.9375.546875 1.51562.53125.57814 1.34375.57814.5625 0 .953125-.2344.40625-.23436.71875-.625l.65625.51564q-.796875 1.23436-2.390625 1.23436zm-.140625-5.6875q-.65625 0-1.109375.4844-.4375.46874-.53125 1.3281h3.171875v-.0781q-.046875-.82814-.453125-1.28126-.390625-.45314-1.078125-.45314zm4.984375-2.3125v1.53126h1.171875v.84374h-1.171875v3.9219q0 .3906.15625.5781.15625.1875.53125.1875.1875 0 .515625-.0625v.875q-.421875.125-.828125.125-.71875 0-1.09375-.4375-.375-.4531-.375-1.2656v-3.9219h-1.15625v-.84374h1.15625v-1.53126zm3.609375 2.2969q.71875-.875 1.875-.875 2.015625 0 2.03125 2.2656v4.1875h-1.09375v-4.2031q0-.6719-.3125-1-.296875-.32814-.953125-.32814-.53125 0-.9375.28124-.390625.28126-.609375.7344v4.5156h-1.078125v-9h1.078125zm8.546875 5.7031q-1.296875 0-2.109375-.84374-.796875-.85936-.796875-2.28126v-.1875q0-.9531.359375-1.6875.359375-.75 1-1.15624.65625-.42186 1.40625-.42186 1.234375 0 1.921875.8125.6875.8125.6875 2.3281v.45314h-4.296875q.03125.9375.546875 1.51562.53125.57814 1.34375.57814.5625 0 .953125-.2344.40625-.23436.71875-.625l.65625.51564q-.796875 1.23436-2.390625 1.23436zm-.140625-5.6875q-.65625 0-1.109375.4844-.4375.46874-.53125 1.3281h3.171875v-.0781q-.046875-.82814-.453125-1.28126-.390625-.45314-1.078125-.45314zm6.578125.1875q-.25-.03124-.53125-.03124-1.078125 0-1.453125.90624v4.5h-1.078125v-6.34374h1.046875l.015625.73438q.53125-.84374 1.515625-.84374.3125 0 .484375.0781zm2.109375 5.375h-1.078125v-9h1.078125zm5.734375 0q-.09375-.1875-.15625-.67186-.75.79686-1.796875.79686-.9375 0-1.546875-.53124-.59375-.53126-.59375-1.35936 0-.9844.75-1.53126.75-.54688 2.125-.54688h1.046875v-.5q0-.5625-.34375-.89062-.328125-.34374-1-.34374-.578125 0-.96875.29686-.390625.28124-.390625.70314h-1.09375q0-.4844.328125-.9219.34375-.4375.921875-.6875.578125-.2656 1.265625-.2656 1.109375 0 1.71875.54686.625.54688.65625 1.5v2.92188q0 .875.21875 1.39062v.09374zm-1.796875-.8281q.515625 0 .96875-.26564.453125-.26562.65625-.6875v-1.29686h-.84375q-2 0-2 1.17186 0 .5.34375.79688.34375.28126.875.28126zm5.90625-5.51564.03125.79688q.734375-.90624 1.90625-.90624 2.015625 0 2.03125 2.2656v4.1875h-1.09375v-4.2031q0-.6719-.3125-1-.296875-.32814-.953125-.32814-.53125 0-.9375.28124-.390625.28126-.609375.7344v4.5156h-1.078125v-6.34374zm5.71875 3.125q0-1.46876.6875-2.34376.6875-.8906 1.8125-.8906 1.109375 0 1.765625.75v-3.2969h1.078125v9h-1l-.046875-.6875q-.65625.8125-1.8125.8125-1.09375 0-1.796875-.90624-.6875-.90626-.6875-2.35936zm1.078125.125q0 1.07814.4375 1.6875.453125.60938 1.234375.60938 1.03125 0 1.515625-.9375v-2.90624q-.484375-.89064-1.5-.89064-.796875 0-1.25.60938-.4375.60936-.4375 1.82812zm9.875 1.40624q0-.4375-.34375-.67186-.328125-.25-1.15625-.42188-.8125-.17186-1.296875-.42186-.484375-.25-.71875-.57814-.21875-.34376-.21875-.8125 0-.78126.65625-1.3125.65625-.54686 1.6875-.54686 1.078125 0 1.734375.5625.671875.54686.671875 1.40624h-1.078125q0-.4375-.390625-.75-.375-.32814-.9375-.32814-.59375 0-.9375.26564-.328125.25-.328125.65626 0 .3906.3125.59374.3125.20312 1.125.39062.8125.17188 1.3125.42188.5.25.734375.60936.25.3594.25.8594 0 .85936-.6875 1.375-.671875.5156-1.75.5156-.765625 0-1.359375-.2656-.578125-.28126-.90625-.76564-.328125-.48436-.328125-1.04686h1.078125q.03125.54686.4375.875.40625.3125 1.078125.3125.609375 0 .984375-.25.375-.25.375-.6719z"/><path d="m99.203125 356h-1.125v-8.53125h1.125zm3.09375-7.875v1.53125h1.171875v.84375h-1.171875v3.92188q0 .39062.15625.57812.15625.1875.53125.1875.1875 0 .515625-.0625v.875q-.421875.125-.828125.125-.71875 0-1.09375-.4375-.375-.45312-.375-1.26562v-3.92188h-1.15625v-.84375h1.15625v-1.53125zm6.4375 7.875q-.09375-.1875-.15625-.67188-.75.79688-1.796875.79688-.9375 0-1.546875-.53125-.59375-.53125-.59375-1.35937 0-.98438.75-1.53126.75-.54687 2.125-.54687h1.046875v-.5q0-.5625-.34375-.89063-.328125-.34374-1-.34374-.578125 0-.96875.29687-.390625.28125-.390625.70313h-1.09375q0-.48438.328125-.92188.34375-.4375.921875-.6875.578125-.26562 1.265625-.26562 1.109375 0 1.71875.54687.625.54687.65625 1.5v2.92187q0 .875.21875 1.39063v.09375zm-1.796875-.82812q.515625 0 .96875-.26563.453125-.26563.65625-.6875v-1.29687h-.84375q-2 0-2 1.17187 0 .5.34375.79687.34375.28126.875.28126zm6.0625.82812h-1.078125v-9h1.078125zm3.890625-1.59375 1.484375-4.75h1.15625l-2.546875 7.32813q-.59375 1.57812-1.875 1.57812l-.21875-.01562-.390625-.07813v-.875l.28125.01563q.5625 0 .859375-.21876.3125-.21874.515625-.8125l.234375-.65624-2.265625-6.26563h1.1875z"/><path d="m84.8125 408.8907h-3.703125v3.0156h4.296875v.9219h-5.421875v-8.53126h5.375v.92186h-4.25v2.75h3.703125zm5.703125 2.25q0-.4375-.34375-.6719-.328125-.25-1.15625-.42186-.8125-.17188-1.296875-.42188-.484375-.25-.71875-.57812-.21875-.34374-.21875-.8125 0-.78124.65625-1.3125.65625-.54688 1.6875-.54688 1.078125 0 1.734375.5625.671875.54688.671875 1.40624h-1.078125q0-.4375-.390625-.75-.375-.3281-.9375-.3281-.59375 0-.9375.2656-.328125.25-.328125.65626 0 .39064.3125.59374.3125.20314 1.125.39064.8125.17186 1.3125.42186.5.25.734375.6094.25.35936.25.85936 0 .85938-.6875 1.375-.671875.51564-1.75.51564-.765625 0-1.359375-.26564-.578125-.28126-.90625-.76562-.328125-.48438-.328125-1.04688h1.078125q.03125.54688.4375.875.40625.3125 1.078125.3125.609375 0 .984375-.25.375-.25.375-.67186zm3.78125-6.1875v1.53124h1.171875v.84376h-1.171875v3.92186q0 .39064.15625.57814.15625.1875.53125.1875.1875 0 .515625-.0625v.875q-.421875.125-.828125.125-.71875 0-1.09375-.4375-.375-.45314-.375-1.26564v-3.92186h-1.15625v-.84376h1.15625v-1.53124zm2.234375 4.6406q0-.92186.359375-1.67186.375-.75 1.03125-1.14064.65625-.40624 1.484375-.40624 1.296875 0 2.09375.89064.8125.8906.8125 2.3906v.07814q0 .92186-.359375 1.65626-.359375.73436-1.015625 1.15624-.65625.40626-1.515625.40626-1.28125 0-2.09375-.89064-.796875-.90626-.796875-2.39062zm1.09375.14064q0 1.04686.484375 1.6875.5.64062 1.3125.64062.828125 0 1.3125-.64062.484375-.65624.484375-1.82814 0-1.03124-.5-1.67186-.484375-.65624-1.3125-.65624-.796875 0-1.296875.6406-.484375.625-.484375 1.82814zm7.21875-3.25.03125.79686q.734375-.90624 1.90625-.90624 2.015625 0 2.03125 2.26564v4.1875h-1.09375v-4.20314q0-.67186-.3125-1-.296875-.32812-.953125-.32812-.53125 0-.9375.28126-.390625.28124-.609375.73436v4.51564h-1.078125v-6.34376zm7.15625 6.34376h-1.078125v-6.34376h1.078125zm-1.171875-8.01564q0-.26562.15625-.45312.171875-.1875.484375-.1875.3125 0 .46875.1875.171875.1875.171875.45312 0 .25-.171875.4375-.15625.17188-.46875.17188-.3125 0-.484375-.17188-.15625-.1875-.15625-.4375zm6.90625 8.01564q-.09375-.1875-.15625-.6719-.75.7969-1.796875.7969-.9375 0-1.546875-.53126-.59375-.53124-.59375-1.35938 0-.98436.75-1.53126.75-.54686 2.125-.54686h1.046875v-.5q0-.5625-.34375-.89064-.328125-.34374-1-.34374-.578125 0-.96875.29688-.390625.28126-.390625.70312h-1.09375q0-.48436.328125-.92186.34375-.4375.921875-.6875.578125-.26564 1.265625-.26564 1.109375 0 1.71875.54688.625.54686.65625 1.5v2.92186q0 .875.21875 1.39064v.09376zm-1.796875-.82814q.515625 0 .96875-.26562.453125-.26564.65625-.6875v-1.29688h-.84375q-2 0-2 1.17188 0 .5.34375.79686.34375.28126.875.28126z"/><path d="m71.125 468.73453h4.046875v.92187h-5.1875v-8.53125h1.140625zm5.875.92187h-1.078125v-6.34375h1.078125zm-1.171875-8.01562q0-.26563.15625-.45313.171875-.1875.484375-.1875.3125 0 .46875.1875.171875.1875.171875.45313 0 .25-.171875.4375-.15625.17187-.46875.17187-.3125 0-.484375-.17187-.15625-.1875-.15625-.4375zm4.46875.14062v1.53125h1.171875v.84375h-1.171875v3.92188q0 .39062.15625.57812.15625.1875.53125.1875.1875 0 .515625-.0625v.875q-.421875.125-.828125.125-.71875 0-1.09375-.4375-.375-.45312-.375-1.26562v-3.92188h-1.15625v-.84375h1.15625v-1.53125zm3.609375 2.29688q.71875-.875 1.875-.875 2.015625 0 2.03125 2.26562v4.1875h-1.09375v-4.20312q0-.67188-.3125-1-.296875-.32813-.953125-.32813-.53125 0-.9375.28125-.390625.28125-.609375.73438v4.51562h-1.078125v-9h1.078125zm9.828125 4.95312q-.625.75-1.859375.75-1.015625 0-1.546875-.59375-.53125-.59375-.53125-1.75v-4.125h1.078125v4.09375q0 1.45313 1.171875 1.45313 1.25 0 1.65625-.9375v-4.60938h1.09375v6.34375h-1.03125zm7 .625q-.09375-.1875-.15625-.67187-.75.79687-1.796875.79687-.9375 0-1.546875-.53125-.59375-.53125-.59375-1.35937 0-.98438.75-1.53125.75-.54688 2.125-.54688h1.046875v-.5q0-.5625-.34375-.89062-.328125-.34375-1-.34375-.578125 0-.96875.29687-.390625.28125-.390625.70313h-1.09375q0-.48438.328125-.92188.34375-.4375.921875-.6875.578125-.26562 1.265625-.26562 1.109375 0 1.71875.54687.625.54688.65625 1.5v2.92188q0 .875.21875 1.39062v.09375zm-1.796875-.82812q.515625 0 .96875-.26563.453125-.26562.65625-.6875v-1.29687h-.84375q-2 0-2 1.17187 0 .5.34375.79688.34375.28125.875.28125zm5.90625-5.51563.03125.79688q.734375-.90625 1.90625-.90625 2.015625 0 2.03125 2.26562v4.1875h-1.09375v-4.20312q0-.67188-.3125-1-.296875-.32813-.953125-.32813-.53125 0-.9375.28125-.390625.28125-.609375.73438v4.51562h-1.078125v-6.34375zm7.15625 6.34375h-1.078125v-6.34375h1.078125zm-1.171875-8.01562q0-.26563.15625-.45313.171875-.1875.484375-.1875.3125 0 .46875.1875.171875.1875.171875.45313 0 .25-.171875.4375-.15625.17187-.46875.17187-.3125 0-.484375-.17187-.15625-.1875-.15625-.4375zm6.90625 8.01562q-.09375-.1875-.15625-.67187-.75.79687-1.796875.79687-.9375 0-1.546875-.53125-.59375-.53125-.59375-1.35937 0-.98438.75-1.53125.75-.54688 2.125-.54688h1.046875v-.5q0-.5625-.34375-.89062-.328125-.34375-1-.34375-.578125 0-.96875.29687-.390625.28125-.390625.70313h-1.09375q0-.48438.328125-.92188.34375-.4375.921875-.6875.578125-.26562 1.265625-.26562 1.109375 0 1.71875.54687.625.54688.65625 1.5v2.92188q0 .875.21875 1.39062v.09375zm-1.796875-.82812q.515625 0 .96875-.26563.453125-.26562.65625-.6875v-1.29687h-.84375q-2 0-2 1.17187 0 .5.34375.79688.34375.28125.875.28125z"/><path d="m55 517.9533v5.7969q-.015625 1.2031-.765625 1.98436-.75.76564-2.03125.85937l-.3125.01563q-1.390625 0-2.234375-.75-.828125-.76563-.828125-2.09376v-5.8125h1.109375v5.78126q0 .92187.5 1.4375.515625.51564 1.453125.51564.96875 0 1.46875-.51564.5-.51563.5-1.4375v-5.78126zm2.84375 2.1875.03125.7969q.734375-.90627 1.90625-.90627 2.015625 0 2.03125 2.26563v4.1875h-1.09375v-4.20313q0-.67187-.3125-1-.296875-.32813-.953125-.32813-.53125 0-.9375.28126-.390625.28124-.609375.73437v4.51563h-1.078125v-6.34376zm7.15625 6.34376h-1.078125v-6.34376h1.078125zm-1.171875-8.01563q0-.26563.15625-.45313.171875-.1875.484375-.1875.3125 0 .46875.1875.171875.1875.171875.45313 0 .25-.171875.4375-.15625.17187-.46875.17187-.3125 0-.484375-.17187-.15625-.1875-.15625-.4375zm4.46875.14063v1.53124h1.171875v.84376h-1.171875v3.92187q0 .39063.15625.57813.15625.1875.53125.1875.1875 0 .515625-.0625v.875q-.421875.125-.828125.125-.71875 0-1.09375-.4375-.375-.45313-.375-1.26563v-3.92187h-1.15625v-.84376h1.15625v-1.53124zm5.15625 8q-1.296875 0-2.109375-.84376-.796875-.85937-.796875-2.28124v-.1875q0-.95313.359375-1.6875.359375-.75 1-1.15626.65625-.42187 1.40625-.42187 1.234375 0 1.921875.8125.6875.8125.6875 2.32813v.45314h-4.296875q.03125.9375.546875 1.5156.53125.57813 1.34375.57813.5625 0 .953125-.23437.40625-.23436.71875-.625l.65625.51564q-.796875 1.23436-2.390625 1.23436zm-.140625-5.6875q-.65625 0-1.109375.48437-.4375.46877-.53125 1.32813h3.171875v-.07813q-.046875-.82813-.453125-1.28123-.390625-.45314-1.078125-.45314zm3.25 2.34374q0-1.46874.6875-2.34374.6875-.89063 1.8125-.89063 1.109375 0 1.765625.75v-3.29687h1.078125v9h-1l-.046875-.6875q-.65625.8125-1.8125.8125-1.09375 0-1.796875-.90626-.6875-.90624-.6875-2.35937zm1.078125.125q0 1.07813.4375 1.6875.453125.6094 1.234375.6094 1.03125 0 1.515625-.9375v-2.90627q-.484375-.89063-1.5-.89063-.796875 0-1.25.6094-.4375.60936-.4375 1.8281zm11.859375-.7031q-1.4375-.4219-2.109375-1.03127-.65625-.60937-.65625-1.5 0-1 .796875-1.65623.8125-.6719 2.109375-.6719.875 0 1.5625.34376.6875.34374 1.0625.9375.390625.59374.390625 1.3125h-1.140625q0-.78126-.5-1.21876-.484375-.4375-1.375-.4375-.828125 0-1.296875.375-.46875.3594-.46875 1 0 .53126.4375.89063.453125.35937 1.515625.65627 1.0625.29686 1.65625.65623.609375.35937.890625.84377.296875.48436.296875 1.125 0 1.04686-.8125 1.67186-.8125.625-2.15625.625-.890625 0-1.65625-.34376-.75-.34374-1.171875-.92187-.40625-.59373-.40625-1.32813h1.125q0 .76563.578125 1.21876.578125.45314 1.53125.45314.890625 0 1.359375-.3594.46875-.375.46875-1 0-.625-.4375-.96874-.4375-.34376-1.59375-.67186zm5.796875-4.07814v1.53124h1.171875v.84376h-1.171875v3.92187q0 .39063.15625.57813.15625.1875.53125.1875.1875 0 .515625-.0625v.875q-.421875.125-.828125.125-.71875 0-1.09375-.4375-.375-.45313-.375-1.26563v-3.92187h-1.15625v-.84376h1.15625v-1.53124zm6.4375 7.875q-.09375-.1875-.15625-.67186-.75.79686-1.796875.79686-.9375 0-1.546875-.53126-.59375-.53124-.59375-1.35937 0-.98437.75-1.53123.75-.5469 2.125-.5469h1.046875v-.5q0-.5625-.34375-.8906-.328125-.34377-1-.34377-.578125 0-.96875.29687-.390625.28126-.390625.70313h-1.09375q0-.48437.328125-.92187.34375-.4375.921875-.6875.578125-.26563 1.265625-.26563 1.109375 0 1.71875.54687.625.5469.65625 1.5v2.9219q0 .875.21875 1.3906v.09376zm-1.796875-.82813q.515625 0 .96875-.26563.453125-.2656.65625-.6875v-1.29687h-.84375q-2 0-2 1.17187 0 .5.34375.7969.34375.28123.875.28123zm6.359375-7.04687v1.53124h1.171875v.84376h-1.171875v3.92187q0 .39063.15625.57813.15625.1875.53125.1875.1875 0 .515625-.0625v.875q-.421875.125-.828125.125-.71875 0-1.09375-.4375-.375-.45313-.375-1.26563v-3.92187h-1.15625v-.84376h1.15625v-1.53124zm5.15625 8q-1.296875 0-2.109375-.84376-.796875-.85937-.796875-2.28124v-.1875q0-.95313.359375-1.6875.359375-.75 1-1.15626.65625-.42187 1.40625-.42187 1.234375 0 1.921875.8125.6875.8125.6875 2.32813v.45314h-4.296875q.03125.9375.546875 1.5156.53125.57813 1.34375.57813.5625 0 .953125-.23437.40625-.23436.71875-.625l.65625.51564q-.796875 1.23436-2.390625 1.23436zm-.140625-5.6875q-.65625 0-1.109375.48437-.4375.46877-.53125 1.32813h3.171875v-.07813q-.046875-.82813-.453125-1.28123-.390625-.45314-1.078125-.45314zm7.203125 3.875q0-.4375-.34375-.67186-.328125-.25-1.15625-.4219-.8125-.17187-1.296875-.42187-.484375-.25-.71875-.57813-.21875-.34374-.21875-.8125 0-.78124.65625-1.3125.65625-.54687 1.6875-.54687 1.078125 0 1.734375.5625.671875.54687.671875 1.40627h-1.078125q0-.4375-.390625-.75-.375-.32814-.9375-.32814-.59375 0-.9375.26564-.328125.25-.328125.65623 0 .39063.3125.59377.3125.2031 1.125.3906.8125.1719 1.3125.4219.5.25.734375.60936.25.35937.25.85937 0 .85937-.6875 1.375-.671875.51563-1.75.51563-.765625 0-1.359375-.26563-.578125-.28123-.90625-.76563-.328125-.48437-.328125-1.04687h1.078125q.03125.54687.4375.875.40625.3125 1.078125.3125.609375 0 .984375-.25.375-.25.375-.67187z"/><path d="m76.984375 583.3128v-8.53124h2.796875q1.390625 0 2.078125.57814.703125.5625.703125 1.6875 0 .60936-.34375 1.0781-.328125.4531-.921875.7031.703125.1875 1.09375.7344.40625.53126.40625 1.28126 0 1.15624-.75 1.8125-.734375.65624-2.09375.65624zm1.125-3.9844v3.0625h1.859375q.796875 0 1.25-.4062.453125-.4063.453125-1.125 0-1.5313-1.6875-1.5313zm0-.9062h1.703125q.734375 0 1.171875-.3594.453125-.375.453125-1.0156 0-.70314-.40625-1.01564-.40625-.32816-1.25-.32816h-1.671875zm8.34375 5.0156q-1.296875 0-2.109375-.84374-.796875-.85936-.796875-2.28126v-.1875q0-.9531.359375-1.6875.359375-.75 1-1.15624.65625-.42186 1.40625-.42186 1.234375 0 1.921875.8125.6875.8125.6875 2.3281v.4531h-4.296875q.03125.9375.546875 1.51566.53125.57814 1.34375.57814.5625 0 .953125-.2344.40625-.2344.71875-.625l.65625.5156q-.796875 1.2344-2.390625 1.2344zm-.140625-5.6875q-.65625 0-1.109375.4844-.4375.4687-.53125 1.3281h3.171875v-.0781q-.046875-.82814-.453125-1.2813-.390625-.4531-1.078125-.4531zm4.6875 5.5625h-1.078125v-9h1.078125zm1.5625-3.21874q0-1.48436.6875-2.35936.6875-.875 1.8125-.875 1.15625 0 1.8125.8125l.046875-.70314h1v6.1875q0 1.23434-.734375 1.9375-.734375.71874-1.953125.71874-.6875 0-1.34375-.2969-.65625-.29684-1-.79684l.5625-.65626q.6875.8594 1.703125.8594.78125 0 1.21875-.45314.453125-.4375.453125-1.25v-.54686q-.65625.7656-1.78125.7656-1.109375 0-1.796875-.8906-.6875-.9063-.6875-2.45314zm1.09375.125q0 1.0625.4375 1.6875.4375.60934 1.234375.60934 1.015625 0 1.5-.9375v-2.8906q-.5-.90624-1.5-.90624-.78125 0-1.234375.60934-.4375.6094-.4375 1.82816zm7.34375 3.09374h-1.078125v-6.34374h1.078125zm-1.171875-8.0156q0-.26564.15625-.45314.171875-.1875.484375-.1875.3125 0 .46875.1875.171875.1875.171875.45314 0 .25-.171875.4375-.15625.17186-.46875.17186-.3125 0-.484375-.17186-.15625-.1875-.15625-.4375zm6.90625 7.3906q-.625.75-1.859375.75-1.015625 0-1.546875-.59374-.53125-.59376-.53125-1.75v-4.125h1.078125v4.09374q0 1.4531 1.171875 1.4531 1.25 0 1.65625-.9375v-4.60934h1.09375v6.34374h-1.03125zm4.109375-5.71874.03125.70314q.6875-.8125 1.875-.8125 1.328125 0 1.8125 1.0156.3125-.4531.8125-.7344.515625-.2812 1.203125-.2812 2.09375 0 2.125 2.2031v4.25h-1.078125v-4.1875q0-.6719-.3125-1-.3125-.34374-1.046875-.34374-.609375 0-1.015625.35934-.390625.3594-.453125.9688v4.2031h-1.078125v-4.15624q0-1.375-1.359375-1.375-1.0625 0-1.453125.90624v4.625h-1.09375v-6.34374z"/><path d="m45.546875 636.1566q0 1.25-.421875 2.1875-.421875.9219-1.203125 1.4219-.765625.5-1.796875.5-1 0-1.78125-.5-.78125-.5-1.21875-1.40626-.421875-.92187-.4375-2.14064v-.60936q0-1.23437.421875-2.17187.4375-.9375 1.21875-1.4375.78125-.51563 1.796875-.51563 1.015625 0 1.796875.5.78125.5 1.203125 1.4375.421875.9375.421875 2.1875zm-1.109375-.5625q0-1.5156-.609375-2.3281-.609375-.8125-1.703125-.8125-1.078125 0-1.6875.8125-.609375.8125-.625 2.25v.6406q0 1.46877.609375 2.3125.625.82814 1.703125.82814 1.09375 0 1.6875-.78124.609375-.7969.625-2.28126zm3.859375-3.3281v1.53124h1.171875v.84376h-1.171875v3.92187q0 .39063.15625.57813.15625.1875.53125.1875.1875 0 .515625-.0625v.875q-.421875.125-.828125.125-.71875 0-1.09375-.4375-.375-.45313-.375-1.26563v-3.92187h-1.15625v-.84376h1.15625v-1.53124zm3.609375 2.29687q.71875-.875 1.875-.875 2.015625 0 2.03125 2.26563v4.1875h-1.09375v-4.20313q0-.67187-.3125-1-.296875-.32813-.953125-.32813-.53125 0-.9375.28126-.390625.28124-.609375.73437v4.51563h-1.078125v-9h1.078125zm8.546875 5.70313q-1.296875 0-2.109375-.84376-.796875-.85937-.796875-2.28124v-.1875q0-.95313.359375-1.6875.359375-.75 1-1.15626.65625-.42187 1.40625-.42187 1.234375 0 1.921875.8125.6875.8125.6875 2.32813v.4531h-4.296875q.03125.9375.546875 1.51564.53125.57813 1.34375.57813.5625 0 .953125-.23437.40625-.2344.71875-.625l.65625.5156q-.796875 1.2344-2.390625 1.2344zm-.140625-5.6875q-.65625 0-1.109375.48437-.4375.46873-.53125 1.32813h3.171875v-.07813q-.046875-.82813-.453125-1.28127-.390625-.4531-1.078125-.4531zm6.578125.1875q-.25-.03126-.53125-.03126-1.078125 0-1.453125.90626v4.5h-1.078125v-6.34376h1.046875l.015625.73436q.53125-.84373 1.515625-.84373.3125 0 .484375.07813zm6.46875 4.60937q.578125 0 1.015625-.34377.4375-.35936.484375-.8906h1.03125q-.03125.54687-.390625 1.04687-.34375.48437-.921875.78123-.5625.2969-1.21875.2969-1.296875 0-2.0625-.8594-.75-.875-.75-2.375v-.1875q0-.92186.328125-1.6406.34375-.71876.96875-1.1094.640625-.40623 1.515625-.40623 1.0625 0 1.765625.64063.71875.625.765625 1.65624h-1.03125q-.046875-.625-.46875-1.01564-.421875-.3906-1.03125-.3906-.828125 0-1.28125.59374-.453125.59376-.453125 1.71876v.2031q0 1.09377.453125 1.6875.453125.59377 1.28125.59377zm3.171875-2.46877q0-.92186.359375-1.67186.375-.75 1.03125-1.14064.65625-.40623 1.484375-.40623 1.296875 0 2.09375.89063.8125.8906.8125 2.3906v.07814q0 .92186-.359375 1.65626-.359375.73437-1.015625 1.15624-.65625.40626-1.515625.40626-1.28125 0-2.09375-.89063-.796875-.90627-.796875-2.39063zm1.09375.14064q0 1.04686.484375 1.6875.5.64063 1.3125.64063.828125 0 1.3125-.64063.484375-.65624.484375-1.82814 0-1.03123-.5-1.67186-.484375-.65624-1.3125-.65624-.796875 0-1.296875.6406-.484375.625-.484375 1.82814zm10.109375 2.46876q-.625.75-1.859375.75-1.015625 0-1.546875-.59376-.53125-.59374-.53125-1.75v-4.125h1.078125v4.09376q0 1.4531 1.171875 1.4531 1.25 0 1.65625-.9375v-4.60936h1.09375v6.34376h-1.03125zm4.109375-5.71876.03125.79686q.734375-.90623 1.90625-.90623 2.015625 0 2.03125 2.26563v4.1875h-1.09375v-4.20313q0-.67187-.3125-1-.296875-.32813-.953125-.32813-.53125 0-.9375.28126-.390625.28124-.609375.73437v4.51563h-1.078125v-6.34376zm7.453125-1.53124v1.53124h1.171875v.84376h-1.171875v3.92187q0 .39063.15625.57813.15625.1875.53125.1875.1875 0 .515625-.0625v.875q-.421875.125-.828125.125-.71875 0-1.09375-.4375-.375-.45313-.375-1.26563v-3.92187h-1.15625v-.84376h1.15625v-1.53124zm5.59375 2.5q-.25-.03126-.53125-.03126-1.078125 0-1.453125.90626v4.5h-1.078125v-6.34376h1.046875l.015625.73436q.53125-.84373 1.515625-.84373.3125 0 .484375.07813zm2.109375 5.375h-1.078125v-6.34376h1.078125zm-1.171875-8.01563q0-.26563.15625-.45313.171875-.1875.484375-.1875.3125 0 .46875.1875.171875.1875.171875.45313 0 .25-.171875.4375-.15625.17187-.46875.17187-.3125 0-.484375-.17187-.15625-.1875-.15625-.4375zm5.625 8.14063q-1.296875 0-2.109375-.84376-.796875-.85937-.796875-2.28124v-.1875q0-.95313.359375-1.6875.359375-.75 1-1.15626.65625-.42187 1.40625-.42187 1.234375 0 1.921875.8125.6875.8125.6875 2.32813v.4531h-4.296875q.03125.9375.546875 1.51564.53125.57813 1.34375.57813.5625 0 .953125-.23437.40625-.2344.71875-.625l.65625.5156q-.796875 1.2344-2.390625 1.2344zm-.140625-5.6875q-.65625 0-1.109375.48437-.4375.46873-.53125 1.32813h3.171875v-.07813q-.046875-.82813-.453125-1.28127-.390625-.4531-1.078125-.4531zm7.203125 3.875q0-.4375-.34375-.6719-.328125-.25-1.15625-.42186-.8125-.17187-1.296875-.42187-.484375-.25-.71875-.57813-.21875-.34374-.21875-.8125 0-.78124.65625-1.3125.65625-.54687 1.6875-.54687 1.078125 0 1.734375.5625.671875.54687.671875 1.40623h-1.078125q0-.4375-.390625-.75-.375-.3281-.9375-.3281-.59375 0-.9375.2656-.328125.25-.328125.65627 0 .39063.3125.59373.3125.20314 1.125.39064.8125.17186 1.3125.42186.5.25.734375.6094.25.35937.25.85937 0 .85937-.6875 1.375-.671875.51563-1.75.51563-.765625 0-1.359375-.26563-.578125-.28127-.90625-.76563-.328125-.48437-.328125-1.04687h1.078125q.03125.54687.4375.875.40625.3125 1.078125.3125.609375 0 .984375-.25.375-.25.375-.67187z"/><path d="m128.82812 694.46875q0 1.76565-.73437 2.71875-.734375.9375-2.140625.9375-1.40625 0-2.140625-.9219-.734375-.92185-.75-2.6406v-1.5781q0-1.7813.734375-2.70315.75-.9375 2.140625-.9375 1.390625 0 2.125.92185.75.9219.76562 2.64065zm-1.70312-1.71875q0-1.0625-.296875-1.5469-.28125-.48435-.890625-.48435-.59375 0-.890625.46875-.28125.4531-.296875 1.4375v2.0625q0 1.0469.28125 1.5625.28125.5.921875.5.609375 0 .890625-.4844.28125-.48435.28125-1.48435z"/><path d="m261.85416 698h-1.6875v-6.53125l-2.01563.625v-1.375l3.53125-1.26565h.17188zm8.64062-3.53125q0 1.76565-.73438 2.71875-.73437.9375-2.14062.9375-1.40625 0-2.14062-.9219-.73438-.92185-.75-2.6406v-1.5781q0-1.7813.73437-2.70315.75-.9375 2.14063-.9375 1.39062 0 2.125.92185.75.9219.76562 2.64065zm-1.70312-1.71875q0-1.0625-.29688-1.5469-.28125-.48435-.89062-.48435-.59376 0-.89063.46875-.28125.4531-.29687 1.4375v2.0625q0 1.0469.28124 1.5625.28126.5.92188.5.60938 0 .89062-.4844.28126-.48435.28126-1.48435zm8.70312 1.71875q0 1.76565-.73438 2.71875-.73437.9375-2.14062.9375-1.40625 0-2.14062-.9219-.73438-.92185-.75-2.6406v-1.5781q0-1.7813.73437-2.70315.75-.9375 2.14063-.9375 1.39062 0 2.125.92185.75.9219.76562 2.64065zm-1.70312-1.71875q0-1.0625-.29688-1.5469-.28125-.48435-.89062-.48435-.59376 0-.89063.46875-.28125.4531-.29687 1.4375v2.0625q0 1.0469.28124 1.5625.28126.5.92188.5.60938 0 .89062-.4844.28126-.48435.28126-1.48435z"/><path d="m405.25522 698h-5.84375v-1.15625l2.76563-2.95315q.5625-.60935.82812-1.0781.28125-.46875.28125-.875 0-.5781-.29687-.8906-.28126-.32815-.8125-.32815-.57813 0-.90626.39065-.32812.3906-.32812 1.04685h-1.70312q0-.78125.375-1.42185.375-.6563 1.04687-1.01565.6875-.375 1.54687-.375 1.3125 0 2.04688.64065.73438.625.73438 1.7812 0 .64065-.32813 1.2969-.32813.65625-1.125 1.53125l-1.9375 2.04685h3.65625zm6.90625-3.53125q0 1.76565-.73437 2.71875-.73438.9375-2.14063.9375-1.40625 0-2.14063-.9219-.73437-.92185-.75-2.6406v-1.5781q0-1.7813.73438-2.70315.75-.9375 2.14062-.9375 1.39063 0 2.125.92185.75.9219.76563 2.64065zm-1.70313-1.71875q0-1.0625-.29687-1.5469-.28125-.48435-.89063-.48435-.59374 0-.89062.46875-.28125.4531-.29688 1.4375v2.0625q0 1.0469.28126 1.5625.28124.5.92187.5.60937 0 .89063-.4844.28124-.48435.28124-1.48435zm8.70313 1.71875q0 1.76565-.73437 2.71875-.73438.9375-2.14063.9375-1.40625 0-2.14063-.9219-.73437-.92185-.75-2.6406v-1.5781q0-1.7813.73438-2.70315.75-.9375 2.14062-.9375 1.39063 0 2.125.92185.75.9219.76563 2.64065zm-1.70313-1.71875q0-1.0625-.29687-1.5469-.28125-.48435-.89063-.48435-.59374 0-.89062.46875-.28125.4531-.29688 1.4375v2.0625q0 1.0469.28126 1.5625.28124.5.92187.5.60937 0 .89063-.4844.28124-.48435.28124-1.48435z"/><path d="m542.7969 692.9844h.9062q.64065 0 .95315-.3125.3125-.32815.3125-.8594 0-.5156-.3125-.7969-.29685-.29685-.84375-.29685-.4844 0-.8125.26565-.3281.2656-.3281.6875h-1.6875q0-.6563.35935-1.1875.35935-.5313 1-.82815.65625-.3125 1.4375-.3125 1.34375 0 2.10935.65625.7813.6406.7813 1.78125 0 .59375-.3594 1.09375-.3594.4844-.9375.7344.71875.2656 1.0625.7812.3594.51565.3594 1.2188 0 1.1406-.82815 1.8281-.82815.6875-2.1875.6875-1.28125 0-2.09375-.6719-.8125-.6875-.8125-1.79685h1.6875q0 .48435.3594.79685.375.2969.8906.2969.6094 0 .9531-.3125.3438-.3281.3438-.8594 0-1.2656-1.4063-1.2656h-.9062zm11.0312 1.48435q0 1.76565-.73435 2.71875-.73435.9375-2.14065.9375-1.4062 0-2.1406-.9219-.7344-.92185-.75-2.6406v-1.5781q0-1.7813.7344-2.70315.75-.9375 2.1406-.9375 1.3906 0 2.125.92185.75.9219.7656 2.64065zm-1.7031-1.71875q0-1.0625-.2969-1.5469-.2812-.48435-.8906-.48435-.59375 0-.8906.46875-.2813.4531-.2969 1.4375v2.0625q0 1.0469.28125 1.5625.28125.5.92185.5.6094 0 .89065-.4844.28125-.48435.28125-1.48435zm8.7031 1.71875q0 1.76565-.73435 2.71875-.73435.9375-2.14065.9375-1.4062 0-2.1406-.9219-.7344-.92185-.75-2.6406v-1.5781q0-1.7813.7344-2.70315.75-.9375 2.1406-.9375 1.3906 0 2.125.92185.75.9219.7656 2.64065zm-1.7031-1.71875q0-1.0625-.2969-1.5469-.2812-.48435-.8906-.48435-.59375 0-.8906.46875-.2813.4531-.2969 1.4375v2.0625q0 1.0469.28125 1.5625.28125.5.92185.5.6094 0 .89065-.4844.28125-.48435.28125-1.48435z"/></g></svg>