<svg fill="none" height="730" stroke-linecap="square" stroke-miterlimit="10" viewBox="0 0 580 730" width="580" xmlns="http://www.w3.org/2000/svg" xmlns:xlink="http://www.w3.org/1999/xlink"><clipPath id="a"><path d="m139.4 29h411.6v645h-411.6z"/></clipPath><path d="m0 0h580v730h-580z" fill="none"/><path d="m139.5 29.5v645" stroke="#333" stroke-linecap="butt"/><path d="m276.5 29.5v645" stroke="#ccc" stroke-linecap="butt"/><path d="m413.5 29.5v645" stroke="#ccc" stroke-linecap="butt"/><path d="m551.5 29.5v645" stroke="#ccc" stroke-linecap="butt"/><path d="m185.5 29.5v645"/><path d="m230.5 29.5v645"/><path d="m322.5 29.5v645"/><path d="m368.5 29.5v645"/><path d="m459.5 29.5v645"/><path d="m505.5 29.5v645"/><path d="m139.5 674.5v-645" stroke="#000" stroke-linecap="butt"/><path clip-path="url(#a)" d="m139 86v-37h346c1.10458 0 2 .89543 2 2v33c0 1.10457-.89542 2-2 2z"/><path clip-path="url(#a)" d="m139 86v-37h346c1.10458 0 2 .89543 2 2v33c0 1.10457-.89542 2-2 2z" fill="#01ad96"/><path clip-path="url(#a)" d="m139 143v-37h148c1.10458 0 2 .89543 2 2v33c0 1.10457-.89542 2-2 2z"/><path clip-path="url(#a)" d="m139 143v-37h148c1.10458 0 2 .89543 2 2v33c0 1.10457-.89542 2-2 2z" fill="#01ad96"/><path clip-path="url(#a)" d="m139 200v-37h52c1.10457 0 2 .89543 2 2v33c0 1.10457-.89543 2-2 2z"/><path clip-path="url(#a)" d="m139 200v-37h52c1.10457 0 2 .89543 2 2v33c0 1.10457-.89543 2-2 2z" fill="#01ad96"/><path clip-path="url(#a)" d="m139 257v-37h29c1.10457 0 2 .89543 2 2v33c0 1.10458-.89543 2-2 2z"/><path clip-path="url(#a)" d="m139 257v-37h29c1.10457 0 2 .89543 2 2v33c0 1.10458-.89543 2-2 2z" fill="#01ad96"/><path clip-path="url(#a)" d="m139 314v-37h21c1.10457 0 2 .89542 2 2v33c0 1.10458-.89543 2-2 2z"/><path clip-path="url(#a)" d="m139 314v-37h21c1.10457 0 2 .89542 2 2v33c0 1.10458-.89543 2-2 2z" fill="#01ad96"/><path clip-path="url(#a)" d="m139 371v-37h21c1.10457 0 2 .89542 2 2v33c0 1.10458-.89543 2-2 2z"/><path clip-path="url(#a)" d="m139 371v-37h21c1.10457 0 2 .89542 2 2v33c0 1.10458-.89543 2-2 2z" fill="#01ad96"/><path clip-path="url(#a)" d="m139 427v-37h19c1.10457 0 2 .89542 2 2v33c0 1.10458-.89543 2-2 2z"/><path clip-path="url(#a)" d="m139 427v-37h19c1.10457 0 2 .89542 2 2v33c0 1.10458-.89543 2-2 2z" fill="#01ad96"/><path clip-path="url(#a)" d="m139 484v-37h19c1.10457 0 2 .89542 2 2v33c0 1.10458-.89543 2-2 2z"/><path clip-path="url(#a)" d="m139 484v-37h19c1.10457 0 2 .89542 2 2v33c0 1.10458-.89543 2-2 2z" fill="#01ad96"/><path clip-path="url(#a)" d="m139 541v-37h15c1.10457 0 2 .89542 2 2v33c0 1.10455-.89543 2-2 2z"/><path clip-path="url(#a)" d="m139 541v-37h15c1.10457 0 2 .89542 2 2v33c0 1.10455-.89543 2-2 2z" fill="#01ad96"/><path clip-path="url(#a)" d="m139 598v-37h7c1.10457 0 2 .89545 2 2v33c0 1.10455-.89543 2-2 2z"/><path clip-path="url(#a)" d="m139 598v-37h7c1.10457 0 2 .89545 2 2v33c0 1.10455-.89543 2-2 2z" fill="#01ad96"/><path clip-path="url(#a)" d="m139 655v-37h30c1.10457 0 2 .89545 2 2v33c0 1.10455-.89543 2-2 2z"/><path clip-path="url(#a)" d="m139 655v-37h30c1.10457 0 2 .89545 2 2v33c0 1.10455-.89543 2-2 2z" fill="#01ad96"/><path d="m139.5 680.5v-12" stroke="#000" stroke-linecap="butt"/><path d="m276.5 680.5v-12" stroke="#000" stroke-linecap="butt"/><path d="m413.5 680.5v-12" stroke="#000" stroke-linecap="butt"/><path d="m551.5 680.5v-12" stroke="#000" stroke-linecap="butt"/><path d="m450.7375 71.5h-5.84376v-1.15625l2.76562-2.953125q.5625-.609375.82814-1.078125.28124-.46875.28124-.875 0-.578125-.29688-.890625-.28126-.328125-.8125-.328125-.57812 0-.90626.390625-.3281.390625-.3281 1.046875h-1.70314q0-.78125.375-1.421875.375-.65625 1.04688-1.015625.6875-.375 1.54686-.375 1.3125 0 2.0469.640625.73436.625.73436 1.78125 0 .640625-.32812 1.296875-.32814.65625-1.125 1.53125l-1.9375 2.046875h3.65626zm1.40624-4.203125.5-4.328125h4.78126v1.40625h-3.39064l-.21876 1.84375q.6094-.328125 1.28126-.328125 1.21874 0 1.90624.765625.70314.75.70314 2.109375 0 .828125-.35938 1.484375-.34376.640625-1 1.015625-.64062.359375-1.53126.359375-.7656 0-1.4375-.3125-.65624-.328125-1.04686-.890625-.375-.5625-.40624-1.296875h1.6875q.04686.53125.35936.828125.32814.296875.84374.296875.57814 0 .875-.40625.3125-.421875.3125-1.171875 0-.734375-.35936-1.109375-.34374-.390625-1-.390625-.60938 0-.98438.3125l-.15626.15625zm8.46876-.8125h.90624q.64062 0 .95312-.3125.3125-.328125.3125-.859375 0-.515625-.3125-.796875-.29686-.296875-.84376-.296875-.48436 0-.8125.265625-.3281.265625-.3281.6875h-1.6875q0-.65625.35936-1.1875.35938-.53125 1-.828125.65624-.3125 1.4375-.3125 1.34374 0 2.10938.65625.78126.640625.78126 1.78125 0 .59375-.3594 1.09375-.35936.484375-.9375.734375.71876.265625 1.0625.78125.3594.515625.3594 1.21875 0 1.140625-.82814 1.828125-.82812.6875-2.1875.6875-1.28126 0-2.09376-.671875-.8125-.6875-.8125-1.796875h1.6875q0 .484375.3594.796875.375.296875.8906.296875.6094 0 .95314-.3125.34376-.328125.34376-.859375 0-1.265625-1.40626-1.265625h-.90624zm5.4375 4.1875q0-.40625.2656-.65625.28126-.25.6875-.25.4219 0 .6875.25.28126.25.28126.65625 0 .390625-.28126.640625-.2656.25-.6875.25-.40624 0-.6875-.25-.2656-.25-.2656-.640625zm7.85936-2.390625h.96874v1.375h-.96874v1.84375h-1.70312v-1.84375h-3.48438l-.07812-1.0625 3.54686-5.625h1.71876zm-3.57812 0h1.875v-3l-.10938.1875zm10.57812 0h.96874v1.375h-.96874v1.84375h-1.70312v-1.84375h-3.48438l-.07812-1.0625 3.54686-5.625h1.71876zm-3.57812 0h1.875v-3l-.10938.1875z" stroke="#01ad96" stroke-linecap="round" stroke-linejoin="round" stroke-width="3"/><path d="m450.7375 71.5h-5.84376v-1.15625l2.76562-2.953125q.5625-.609375.82814-1.078125.28124-.46875.28124-.875 0-.578125-.29688-.890625-.28126-.328125-.8125-.328125-.57812 0-.90626.390625-.3281.390625-.3281 1.046875h-1.70314q0-.78125.375-1.421875.375-.65625 1.04688-1.015625.6875-.375 1.54686-.375 1.3125 0 2.0469.640625.73436.625.73436 1.78125 0 .640625-.32812 1.296875-.32814.65625-1.125 1.53125l-1.9375 2.046875h3.65626zm1.40624-4.203125.5-4.328125h4.78126v1.40625h-3.39064l-.21876 1.84375q.6094-.328125 1.28126-.328125 1.21874 0 1.90624.765625.70314.75.70314 2.109375 0 .828125-.35938 1.484375-.34376.640625-1 1.015625-.64062.359375-1.53126.359375-.7656 0-1.4375-.3125-.65624-.328125-1.04686-.890625-.375-.5625-.40624-1.296875h1.6875q.04686.53125.35936.828125.32814.296875.84374.296875.57814 0 .875-.40625.3125-.421875.3125-1.171875 0-.734375-.35936-1.109375-.34374-.390625-1-.390625-.60938 0-.98438.3125l-.15626.15625zm8.46876-.8125h.90624q.64062 0 .95312-.3125.3125-.328125.3125-.859375 0-.515625-.3125-.796875-.29686-.296875-.84376-.296875-.48436 0-.8125.265625-.3281.265625-.3281.6875h-1.6875q0-.65625.35936-1.1875.35938-.53125 1-.828125.65624-.3125 1.4375-.3125 1.34374 0 2.10938.65625.78126.640625.78126 1.78125 0 .59375-.3594 1.09375-.35936.484375-.9375.734375.71876.265625 1.0625.78125.3594.515625.3594 1.21875 0 1.140625-.82814 1.828125-.82812.6875-2.1875.6875-1.28126 0-2.09376-.671875-.8125-.6875-.8125-1.796875h1.6875q0 .484375.3594.796875.375.296875.8906.296875.6094 0 .95314-.3125.34376-.328125.34376-.859375 0-1.265625-1.40626-1.265625h-.90624zm5.4375 4.1875q0-.40625.2656-.65625.28126-.25.6875-.25.4219 0 .6875.25.28126.25.28126.65625 0 .390625-.28126.640625-.2656.25-.6875.25-.40624 0-.6875-.25-.2656-.25-.2656-.640625zm7.85936-2.390625h.96874v1.375h-.96874v1.84375h-1.70312v-1.84375h-3.48438l-.07812-1.0625 3.54686-5.625h1.71876zm-3.57812 0h1.875v-3l-.10938.1875zm10.57812 0h.96874v1.375h-.96874v1.84375h-1.70312v-1.84375h-3.48438l-.07812-1.0625 3.54686-5.625h1.71876zm-3.57812 0h1.875v-3l-.10938.1875z" fill="#fff"/><path d="m251.16063 128.5h-1.6875v-6.53125l-2.01563.625v-1.375l3.53125-1.265625h.17188zm8.64064-3.53125q0 1.765625-.73437 2.71875-.73438.9375-2.14063.9375-1.40627 0-2.14064-.921875-.73438-.921875-.75-2.640625v-1.578125q0-1.78125.73437-2.703125.75-.9375 2.14064-.9375 1.39063 0 2.125.921875.75.921875.76563 2.640625zm-1.70313-1.71875q0-1.0625-.29687-1.546875-.28125-.484375-.89063-.484375-.59374 0-.89062.46875-.28127.453125-.29689 1.4375v2.0625q0 1.046875.28127 1.5625.28124.5.92187.5.60937 0 .89063-.484375.28124-.484375.28124-1.484375zm6.92188 1.84375q-.67188.640625-1.54688.640625-1.14062 0-1.82812-.765625-.67188-.78125-.67188-2.09375 0-.84375.35938-1.546875.375-.703125 1.03125-1.09375.65625-.390625 1.48437-.390625.84376 0 1.5.421875.65626.421875 1.01563 1.21875.35937.796875.375 1.8125v.625q0 2.140625-1.0625 3.359375-1.0625 1.21875-3.01563 1.29687h-.40624v-1.406245l.375-.015625q2.20312-.09375 2.39062-2.0625zm-1.14062-.65625q.42187 0 .70312-.203125.29688-.21875.45312-.515625v-.6875q0-.859375-.32812-1.328125-.32812-.484375-.875-.484375-.51562 0-.84375.46875-.32813.453125-.32813 1.15625 0 .703125.3125 1.15625.32813.4375.90626.4375zm4.32812 3.234375q0-.40625.26562-.65625.28126-.25.6875-.25.42188 0 .6875.25.28126.25.28126.65625 0 .390625-.28126.640625-.26562.25-.6875.25-.40624 0-.6875-.25-.26562-.25-.26562-.640625zm8.6875.828125h-5.84375v-1.15625l2.76563-2.953125q.5625-.609375.82812-1.078125.28125-.46875.28125-.875 0-.578125-.29687-.890625-.28126-.328125-.8125-.328125-.57813 0-.90626.390625-.32812.390625-.32812 1.046875h-1.70312q0-.78125.375-1.421875.375-.65625 1.04687-1.015625.6875-.375 1.54687-.375 1.3125 0 2.04688.640625.73438.625.73438 1.78125 0 .640625-.32813 1.296875-.32813.65625-1.125 1.53125l-1.9375 2.046875h3.65625zm6.17188-3.21875h.96874v1.375h-.96874v1.84375h-1.70313v-1.84375h-3.48437l-.07813-1.0625 3.54687-5.625h1.71876zm-3.57813 0h1.875v-3l-.10937.1875z" stroke="#01ad96" stroke-linecap="round" stroke-linejoin="round" stroke-width="3"/><path d="m251.16063 128.5h-1.6875v-6.53125l-2.01563.625v-1.375l3.53125-1.265625h.17188zm8.64064-3.53125q0 1.765625-.73437 2.71875-.73438.9375-2.14063.9375-1.40627 0-2.14064-.921875-.73438-.921875-.75-2.640625v-1.578125q0-1.78125.73437-2.703125.75-.9375 2.14064-.9375 1.39063 0 2.125.921875.75.921875.76563 2.640625zm-1.70313-1.71875q0-1.0625-.29687-1.546875-.28125-.484375-.89063-.484375-.59374 0-.89062.46875-.28127.453125-.29689 1.4375v2.0625q0 1.046875.28127 1.5625.28124.5.92187.5.60937 0 .89063-.484375.28124-.484375.28124-1.484375zm6.92188 1.84375q-.67188.640625-1.54688.640625-1.14062 0-1.82812-.765625-.67188-.78125-.67188-2.09375 0-.84375.35938-1.546875.375-.703125 1.03125-1.09375.65625-.390625 1.48437-.390625.84376 0 1.5.421875.65626.421875 1.01563 1.21875.35937.796875.375 1.8125v.625q0 2.140625-1.0625 3.359375-1.0625 1.21875-3.01563 1.29687h-.40624v-1.406245l.375-.015625q2.20312-.09375 2.39062-2.0625zm-1.14062-.65625q.42187 0 .70312-.203125.29688-.21875.45312-.515625v-.6875q0-.859375-.32812-1.328125-.32812-.484375-.875-.484375-.51562 0-.84375.46875-.32813.453125-.32813 1.15625 0 .703125.3125 1.15625.32813.4375.90626.4375zm4.32812 3.234375q0-.40625.26562-.65625.28126-.25.6875-.25.42188 0 .6875.25.28126.25.28126.65625 0 .390625-.28126.640625-.26562.25-.6875.25-.40624 0-.6875-.25-.26562-.25-.26562-.640625zm8.6875.828125h-5.84375v-1.15625l2.76563-2.953125q.5625-.609375.82812-1.078125.28125-.46875.28125-.875 0-.578125-.29687-.890625-.28126-.328125-.8125-.328125-.57813 0-.90626.390625-.32812.390625-.32812 1.046875h-1.70312q0-.78125.375-1.421875.375-.65625 1.04687-1.015625.6875-.375 1.54687-.375 1.3125 0 2.04688.640625.73438.625.73438 1.78125 0 .640625-.32813 1.296875-.32813.65625-1.125 1.53125l-1.9375 2.046875h3.65625zm6.17188-3.21875h.96874v1.375h-.96874v1.84375h-1.70313v-1.84375h-3.48437l-.07813-1.0625 3.54687-5.625h1.71876zm-3.57813 0h1.875v-3l-.10937.1875z" fill="#fff"/><path d="m159.75078 180.48438h.90625q.64062 0 .95312-.3125.3125-.32813.3125-.85938 0-.51562-.3125-.79688-.29687-.29687-.84375-.29687-.48437 0-.8125.26563-.32812.26562-.32812.6875h-1.6875q0-.65626.35937-1.1875.35938-.53126 1-.82813.65625-.3125 1.4375-.3125 1.34375 0 2.10938.65625.78125.64062.78125 1.78125 0 .59375-.35938 1.09375-.35937.48438-.9375.73438.71875.26562 1.0625.78124.35938.51563.35938 1.21876 0 1.14062-.82813 1.82812-.82812.6875-2.1875.6875-1.28125 0-2.09375-.67188-.8125-.6875-.8125-1.79687h1.6875q0 .48437.35938.79687.375.29688.89062.29688.60938 0 .95313-.3125.34375-.32812.34375-.85938 0-1.26562-1.40625-1.26562h-.90625zm9.25 1.60937q-.67188.64063-1.54688.64063-1.14062 0-1.82812-.76563-.67188-.78125-.67188-2.09375 0-.84375.35938-1.54688.375-.70312 1.03125-1.09374.65625-.39063 1.48437-.39063.84375 0 1.5.42187.65625.42188 1.01563 1.21876.35937.79687.375 1.8125v.625q0 2.14062-1.0625 3.35937-1.0625 1.21875-3.01563 1.29687h-.40625v-1.40624l.375-.01563q2.20313-.09375 2.39063-2.0625zm-1.14063-.65625q.42188 0 .70313-.20312.29687-.21876.45312-.51563v-.6875q0-.85937-.32812-1.32813-.32813-.48437-.875-.48437-.51563 0-.84375.46875-.32813.45312-.32813 1.15625 0 .70313.3125 1.15625.32813.4375.90625.4375zm4.32813 3.23438q0-.40626.26562-.65626.28125-.25.6875-.25.42188 0 .6875.25.28125.25.28125.65626 0 .39062-.28125.64062-.26562.25-.6875.25-.40625 0-.6875-.25-.26562-.25-.26562-.64062zm8.6875.82812h-5.84375v-1.15625l2.76562-2.95313q.5625-.60937.82813-1.07812.28125-.46875.28125-.875 0-.57812-.29688-.89062-.28125-.32813-.8125-.32813-.57812 0-.90625.39063-.32812.39062-.32812 1.04687h-1.70313q0-.78125.375-1.42187.375-.65626 1.04688-1.01563.6875-.375 1.54687-.375 1.3125 0 2.04688.64063.73437.625.73437 1.78124 0 .64063-.32812 1.29688-.32813.65625-1.125 1.53125l-1.9375 2.04687h3.65625zm1.40625-4.20312.5-4.32813h4.78125v1.40625h-3.39063l-.21875 1.84375q.60938-.32813 1.28125-.32813 1.21875 0 1.90625.76563.70313.75.70313 2.10937 0 .82813-.35938 1.48438-.34375.64062-1 1.01562-.64062.35938-1.53125.35938-.76562 0-1.4375-.3125-.65625-.32812-1.04687-.89062-.375-.5625-.40625-1.29688h1.6875q.04687.53125.35937.82812.32813.29688.84375.29688.57813 0 .875-.40625.3125-.42187.3125-1.17187 0-.73438-.35937-1.10938-.34375-.39062-1-.39062-.60938 0-.98438.3125l-.15625.15624z" stroke="#01ad96" stroke-linecap="round" stroke-linejoin="round" stroke-width="3"/><path d="m159.75078 180.48438h.90625q.64062 0 .95312-.3125.3125-.32813.3125-.85938 0-.51562-.3125-.79688-.29687-.29687-.84375-.29687-.48437 0-.8125.26563-.32812.26562-.32812.6875h-1.6875q0-.65626.35937-1.1875.35938-.53126 1-.82813.65625-.3125 1.4375-.3125 1.34375 0 2.10938.65625.78125.64062.78125 1.78125 0 .59375-.35938 1.09375-.35937.48438-.9375.73438.71875.26562 1.0625.78124.35938.51563.35938 1.21876 0 1.14062-.82813 1.82812-.82812.6875-2.1875.6875-1.28125 0-2.09375-.67188-.8125-.6875-.8125-1.79687h1.6875q0 .48437.35938.79687.375.29688.89062.29688.60938 0 .95313-.3125.34375-.32812.34375-.85938 0-1.26562-1.40625-1.26562h-.90625zm9.25 1.60937q-.67188.64063-1.54688.64063-1.14062 0-1.82812-.76563-.67188-.78125-.67188-2.09375 0-.84375.35938-1.54688.375-.70312 1.03125-1.09374.65625-.39063 1.48437-.39063.84375 0 1.5.42187.65625.42188 1.01563 1.21876.35937.79687.375 1.8125v.625q0 2.14062-1.0625 3.35937-1.0625 1.21875-3.01563 1.29687h-.40625v-1.40624l.375-.01563q2.20313-.09375 2.39063-2.0625zm-1.14063-.65625q.42188 0 .70313-.20312.29687-.21876.45312-.51563v-.6875q0-.85937-.32812-1.32813-.32813-.48437-.875-.48437-.51563 0-.84375.46875-.32813.45312-.32813 1.15625 0 .70313.3125 1.15625.32813.4375.90625.4375zm4.32813 3.23438q0-.40626.26562-.65626.28125-.25.6875-.25.42188 0 .6875.25.28125.25.28125.65626 0 .39062-.28125.64062-.26562.25-.6875.25-.40625 0-.6875-.25-.26562-.25-.26562-.64062zm8.6875.82812h-5.84375v-1.15625l2.76562-2.95313q.5625-.60937.82813-1.07812.28125-.46875.28125-.875 0-.57812-.29688-.89062-.28125-.32813-.8125-.32813-.57812 0-.90625.39063-.32812.39062-.32812 1.04687h-1.70313q0-.78125.375-1.42187.375-.65626 1.04688-1.01563.6875-.375 1.54687-.375 1.3125 0 2.04688.64063.73437.625.73437 1.78124 0 .64063-.32812 1.29688-.32813.65625-1.125 1.53125l-1.9375 2.04687h3.65625zm1.40625-4.20312.5-4.32813h4.78125v1.40625h-3.39063l-.21875 1.84375q.60938-.32813 1.28125-.32813 1.21875 0 1.90625.76563.70313.75.70313 2.10937 0 .82813-.35938 1.48438-.34375.64062-1 1.01562-.64062.35938-1.53125.35938-.76562 0-1.4375-.3125-.65625-.32812-1.04687-.89062-.375-.5625-.40625-1.29688h1.6875q.04687.53125.35937.82812.32813.29688.84375.29688.57813 0 .875-.40625.3125-.42187.3125-1.17187 0-.73438-.35937-1.10938-.34375-.39062-1-.39062-.60938 0-.98438.3125l-.15625.15624z" fill="#fff"/><path d="m188.21378 242.5h-5.84375v-1.15625l2.76562-2.95313q.5625-.60937.82813-1.07812.28125-.46875.28125-.875 0-.57812-.29688-.89062-.28125-.32813-.8125-.32813-.57812 0-.90625.39063-.32812.39062-.32812 1.04687h-1.70313q0-.78125.375-1.42187.375-.65626 1.04688-1.01563.6875-.375 1.54687-.375 1.3125 0 2.04688.64063.73437.625.73437 1.78124 0 .64063-.32812 1.29688-.32813.65625-1.125 1.53125l-1.9375 2.04687h3.65625zm7 0h-5.84375v-1.15625l2.76562-2.95313q.5625-.60937.82813-1.07812.28125-.46875.28125-.875 0-.57812-.29688-.89062-.28125-.32813-.8125-.32813-.57812 0-.90625.39063-.32812.39062-.32812 1.04687h-1.70313q0-.78125.375-1.42187.375-.65626 1.04688-1.01563.6875-.375 1.54687-.375 1.3125 0 2.04688.64063.73437.625.73437 1.78124 0 .64063-.32812 1.29688-.32813.65625-1.125 1.53125l-1.9375 2.04687h3.65625zm1.3125-.82812q0-.40626.26562-.65626.28125-.25.6875-.25.42188 0 .6875.25.28125.25.28125.65626 0 .39062-.28125.64062-.26562.25-.6875.25-.40625 0-.6875-.25-.26562-.25-.26562-.64062zm6.95312.82812h-1.6875v-6.53125l-2.01562.625v-1.375l3.53125-1.26563h.17187zm3.14063-4.20312.5-4.32813h4.78125v1.40625h-3.39063l-.21875 1.84375q.60938-.32813 1.28125-.32813 1.21875 0 1.90625.76563.70313.75.70313 2.10937 0 .82813-.35938 1.48438-.34375.64062-1 1.01562-.64062.35938-1.53125.35938-.76562 0-1.4375-.3125-.65625-.32812-1.04687-.89062-.375-.5625-.40625-1.29688h1.6875q.04687.53125.35937.82812.32813.29688.84375.29688.57813 0 .875-.40625.3125-.42187.3125-1.17187 0-.73438-.35937-1.10938-.34375-.39062-1-.39062-.60938 0-.98438.3125l-.15625.15624z" stroke="#fff" stroke-linecap="round" stroke-linejoin="round" stroke-width="3"/><path d="m188.21378 242.5h-5.84375v-1.15625l2.76562-2.95313q.5625-.60937.82813-1.07812.28125-.46875.28125-.875 0-.57812-.29688-.89062-.28125-.32813-.8125-.32813-.57812 0-.90625.39063-.32812.39062-.32812 1.04687h-1.70313q0-.78125.375-1.42187.375-.65626 1.04688-1.01563.6875-.375 1.54687-.375 1.3125 0 2.04688.64063.73437.625.73437 1.78124 0 .64063-.32812 1.29688-.32813.65625-1.125 1.53125l-1.9375 2.04687h3.65625zm7 0h-5.84375v-1.15625l2.76562-2.95313q.5625-.60937.82813-1.07812.28125-.46875.28125-.875 0-.57812-.29688-.89062-.28125-.32813-.8125-.32813-.57812 0-.90625.39063-.32812.39062-.32812 1.04687h-1.70313q0-.78125.375-1.42187.375-.65626 1.04688-1.01563.6875-.375 1.54687-.375 1.3125 0 2.04688.64063.73437.625.73437 1.78124 0 .64063-.32812 1.29688-.32813.65625-1.125 1.53125l-1.9375 2.04687h3.65625zm1.3125-.82812q0-.40626.26562-.65626.28125-.25.6875-.25.42188 0 .6875.25.28125.25.28125.65626 0 .39062-.28125.64062-.26562.25-.6875.25-.40625 0-.6875-.25-.26562-.25-.26562-.64062zm6.95312.82812h-1.6875v-6.53125l-2.01562.625v-1.375l3.53125-1.26563h.17187zm3.14063-4.20312.5-4.32813h4.78125v1.40625h-3.39063l-.21875 1.84375q.60938-.32813 1.28125-.32813 1.21875 0 1.90625.76563.70313.75.70313 2.10937 0 .82813-.35938 1.48438-.34375.64062-1 1.01562-.64062.35938-1.53125.35938-.76562 0-1.4375-.3125-.65625-.32812-1.04687-.89062-.375-.5625-.40625-1.29688h1.6875q.04687.53125.35937.82812.32813.29688.84375.29688.57813 0 .875-.40625.3125-.42187.3125-1.17187 0-.73438-.35937-1.10938-.34375-.39062-1-.39062-.60938 0-.98438.3125l-.15625.15624z" fill="#01ad96"/><path d="m178.73619 299.5h-1.6875v-6.53125l-2.01562.625v-1.375l3.53125-1.26563h.17187zm7.48438-8.625v1.40625h-.15625q-1.15625.01563-1.85938.59375-.6875.57812-.82812 1.60938.67187-.6875 1.70312-.6875 1.125 0 1.78125.79687.65625.79687.65625 2.09375 0 .82812-.35937 1.5-.35938.67188-1.03125 1.0625-.65625.375-1.48438.375-1.34375 0-2.17187-.9375-.82813-.95312-.82813-2.51562v-.60938q0-1.39062.51563-2.45312.53125-1.0625 1.5-1.64063.98437-.57813 2.28125-.59375zm-1.65625 4.28125q-.40625 0-.75.21875-.32813.20312-.48438.5625v.51562q0 .84376.32813 1.32813.34375.46875.95312.46875.54688 0 .875-.42188.34375-.4375.34375-1.125 0-.70312-.34375-1.125-.34375-.42187-.92187-.42187zm4.21875 3.51563q0-.40626.26562-.65626.28125-.25.6875-.25.42188 0 .6875.25.28125.25.28125.65626 0 .39062-.28125.64062-.26562.25-.6875.25-.40625 0-.6875-.25-.26562-.25-.26562-.64062zm3.09375-3.375.5-4.32813h4.78125v1.40625h-3.39063l-.21875 1.84375q.60938-.32813 1.28125-.32813 1.21875 0 1.90625.76563.70313.75.70313 2.10937 0 .82813-.35938 1.48438-.34375.64062-1 1.01562-.64062.35938-1.53125.35938-.76562 0-1.4375-.3125-.65625-.32812-1.04687-.89062-.375-.5625-.40625-1.29688h1.6875q.04687.53125.35937.82812.32813.29688.84375.29688.57813 0 .875-.40625.3125-.42187.3125-1.17187 0-.73438-.35937-1.10938-.34375-.39062-1-.39062-.60938 0-.98438.3125l-.15625.15624zm10.85937 4.20312h-1.6875v-6.53125l-2.01562.625v-1.375l3.53125-1.26563h.17187z" stroke="#fff" stroke-linecap="round" stroke-linejoin="round" stroke-width="3"/><path d="m178.73619 299.5h-1.6875v-6.53125l-2.01562.625v-1.375l3.53125-1.26563h.17187zm7.48438-8.625v1.40625h-.15625q-1.15625.01563-1.85938.59375-.6875.57812-.82812 1.60938.67187-.6875 1.70312-.6875 1.125 0 1.78125.79687.65625.79687.65625 2.09375 0 .82812-.35937 1.5-.35938.67188-1.03125 1.0625-.65625.375-1.48438.375-1.34375 0-2.17187-.9375-.82813-.95312-.82813-2.51562v-.60938q0-1.39062.51563-2.45312.53125-1.0625 1.5-1.64063.98437-.57813 2.28125-.59375zm-1.65625 4.28125q-.40625 0-.75.21875-.32813.20312-.48438.5625v.51562q0 .84376.32813 1.32813.34375.46875.95312.46875.54688 0 .875-.42188.34375-.4375.34375-1.125 0-.70312-.34375-1.125-.34375-.42187-.92187-.42187zm4.21875 3.51563q0-.40626.26562-.65626.28125-.25.6875-.25.42188 0 .6875.25.28125.25.28125.65626 0 .39062-.28125.64062-.26562.25-.6875.25-.40625 0-.6875-.25-.26562-.25-.26562-.64062zm3.09375-3.375.5-4.32813h4.78125v1.40625h-3.39063l-.21875 1.84375q.60938-.32813 1.28125-.32813 1.21875 0 1.90625.76563.70313.75.70313 2.10937 0 .82813-.35938 1.48438-.34375.64062-1 1.01562-.64062.35938-1.53125.35938-.76562 0-1.4375-.3125-.65625-.32812-1.04687-.89062-.375-.5625-.40625-1.29688h1.6875q.04687.53125.35937.82812.32813.29688.84375.29688.57813 0 .875-.40625.3125-.42187.3125-1.17187 0-.73438-.35937-1.10938-.34375-.39062-1-.39062-.60938 0-.98438.3125l-.15625.15624zm10.85937 4.20312h-1.6875v-6.53125l-2.01562.625v-1.375l3.53125-1.26563h.17187z" fill="#01ad96"/><path d="m178.5492 356.5h-1.6875v-6.53125l-2.01563.625v-1.375l3.53125-1.26563h.17188zm7.48437-8.625v1.40625h-.15625q-1.15625.01563-1.85938.59375-.6875.57812-.82812 1.60938.67188-.6875 1.70312-.6875 1.125 0 1.78126.79687.65624.79687.65624 2.09375 0 .82812-.35937 1.5-.35937.67188-1.03125 1.0625-.65625.375-1.48438.375-1.34374 0-2.17187-.9375-.82813-.95312-.82813-2.51562v-.60938q0-1.39062.51563-2.45312.53125-1.0625 1.5-1.64063.98437-.57813 2.28125-.59375zm-1.65625 4.28125q-.40625 0-.75.21875-.32812.20312-.48438.5625v.51562q0 .84376.32813 1.32813.34375.46875.95313.46875.54687 0 .875-.42188.34374-.4375.34374-1.125 0-.70312-.34374-1.125-.34376-.42187-.92188-.42187zm4.21875 3.51563q0-.40626.26563-.65626.28124-.25.6875-.25.42187 0 .6875.25.28124.25.28124.65626 0 .39062-.28124.64062-.26563.25-.6875.25-.40626 0-.6875-.25-.26563-.25-.26563-.64062zm4.5625-4.1875h.90625q.64062 0 .95312-.3125.3125-.32813.3125-.85938 0-.51562-.3125-.79688-.29687-.29687-.84374-.29687-.48438 0-.8125.26563-.32813.26562-.32813.6875h-1.6875q0-.65626.35937-1.1875.35938-.53126 1-.82813.65626-.3125 1.4375-.3125 1.34376 0 2.10938.65625.78125.64062.78125 1.78125 0 .59375-.35937 1.09375-.35938.48438-.9375.73438.71874.26562 1.0625.78124.35937.51563.35937 1.21876 0 1.14062-.82813 1.82812-.82812.6875-2.1875.6875-1.28124 0-2.09374-.67188-.8125-.6875-.8125-1.79687h1.6875q0 .48437.35937.79687.375.29688.89063.29688.60937 0 .95312-.3125.34375-.32812.34375-.85938 0-1.26562-1.40625-1.26562h-.90625zm11.07813-2.5625-3.29688 7.57812h-1.78125l3.29687-7.15625h-4.23437v-1.375h6.01563z" stroke="#fff" stroke-linecap="round" stroke-linejoin="round" stroke-width="3"/><path d="m178.5492 356.5h-1.6875v-6.53125l-2.01563.625v-1.375l3.53125-1.26563h.17188zm7.48437-8.625v1.40625h-.15625q-1.15625.01563-1.85938.59375-.6875.57812-.82812 1.60938.67188-.6875 1.70312-.6875 1.125 0 1.78126.79687.65624.79687.65624 2.09375 0 .82812-.35937 1.5-.35937.67188-1.03125 1.0625-.65625.375-1.48438.375-1.34374 0-2.17187-.9375-.82813-.95312-.82813-2.51562v-.60938q0-1.39062.51563-2.45312.53125-1.0625 1.5-1.64063.98437-.57813 2.28125-.59375zm-1.65625 4.28125q-.40625 0-.75.21875-.32812.20312-.48438.5625v.51562q0 .84376.32813 1.32813.34375.46875.95313.46875.54687 0 .875-.42188.34374-.4375.34374-1.125 0-.70312-.34374-1.125-.34376-.42187-.92188-.42187zm4.21875 3.51563q0-.40626.26563-.65626.28124-.25.6875-.25.42187 0 .6875.25.28124.25.28124.65626 0 .39062-.28124.64062-.26563.25-.6875.25-.40626 0-.6875-.25-.26563-.25-.26563-.64062zm4.5625-4.1875h.90625q.64062 0 .95312-.3125.3125-.32813.3125-.85938 0-.51562-.3125-.79688-.29687-.29687-.84374-.29687-.48438 0-.8125.26563-.32813.26562-.32813.6875h-1.6875q0-.65626.35937-1.1875.35938-.53126 1-.82813.65626-.3125 1.4375-.3125 1.34376 0 2.10938.65625.78125.64062.78125 1.78125 0 .59375-.35937 1.09375-.35938.48438-.9375.73438.71874.26562 1.0625.78124.35937.51563.35937 1.21876 0 1.14062-.82813 1.82812-.82812.6875-2.1875.6875-1.28124 0-2.09374-.67188-.8125-.6875-.8125-1.79687h1.6875q0 .48437.35937.79687.375.29688.89063.29688.60937 0 .95312-.3125.34375-.32812.34375-.85938 0-1.26562-1.40625-1.26562h-.90625zm11.07813-2.5625-3.29688 7.57812h-1.78125l3.29687-7.15625h-4.23437v-1.375h6.01563z" fill="#01ad96"/><path d="m177.0141 412.5h-1.6875v-6.53125l-2.01563.625v-1.375l3.53125-1.26563h.17188zm3.14062-4.20312.5-4.32813h4.78125v1.40625h-3.39062l-.21875 1.84375q.60937-.32813 1.28125-.32813 1.21875 0 1.90625.76563.70312.75.70312 2.10937 0 .82813-.35937 1.48438-.34375.64062-1 1.01562-.64063.35938-1.53125.35938-.76563 0-1.4375-.3125-.65625-.32812-1.04688-.89062-.375-.5625-.40625-1.29688h1.6875q.04688.53125.35938.82812.32812.29688.84375.29688.57812 0 .875-.40625.3125-.42187.3125-1.17187 0-.73438-.35938-1.10938-.34375-.39062-1-.39062-.60937 0-.98437.3125l-.15625.15624zm6.90625 3.375q0-.40626.26563-.65626.28125-.25.6875-.25.42187 0 .6875.25.28125.25.28125.65626 0 .39062-.28125.64062-.26563.25-.6875.25-.40625 0-.6875-.25-.26563-.25-.26563-.64062zm8.6875.82812h-5.84375v-1.15625l2.76563-2.95313q.5625-.60937.82812-1.07812.28125-.46875.28125-.875 0-.57812-.29687-.89062-.28125-.32813-.8125-.32813-.57813 0-.90625.39063-.32813.39062-.32813 1.04687h-1.70312q0-.78125.375-1.42187.375-.65626 1.04687-1.01563.6875-.375 1.54688-.375 1.3125 0 2.04687.64063.73438.625.73438 1.78124 0 .64063-.32813 1.29688-.32812.65625-1.125 1.53125l-1.9375 2.04687h3.65625zm1.40625-4.20312.5-4.32813h4.78125v1.40625h-3.39062l-.21875 1.84375q.60937-.32813 1.28125-.32813 1.21875 0 1.90625.76563.70312.75.70312 2.10937 0 .82813-.35937 1.48438-.34375.64062-1 1.01562-.64063.35938-1.53125.35938-.76563 0-1.4375-.3125-.65625-.32812-1.04688-.89062-.375-.5625-.40625-1.29688h1.6875q.04688.53125.35938.82812.32812.29688.84375.29688.57812 0 .875-.40625.3125-.42187.3125-1.17187 0-.73438-.35938-1.10938-.34375-.39062-1-.39062-.60937 0-.98437.3125l-.15625.15624z" stroke="#fff" stroke-linecap="round" stroke-linejoin="round" stroke-width="3"/><path d="m177.0141 412.5h-1.6875v-6.53125l-2.01563.625v-1.375l3.53125-1.26563h.17188zm3.14062-4.20312.5-4.32813h4.78125v1.40625h-3.39062l-.21875 1.84375q.60937-.32813 1.28125-.32813 1.21875 0 1.90625.76563.70312.75.70312 2.10937 0 .82813-.35937 1.48438-.34375.64062-1 1.01562-.64063.35938-1.53125.35938-.76563 0-1.4375-.3125-.65625-.32812-1.04688-.89062-.375-.5625-.40625-1.29688h1.6875q.04688.53125.35938.82812.32812.29688.84375.29688.57812 0 .875-.40625.3125-.42187.3125-1.17187 0-.73438-.35938-1.10938-.34375-.39062-1-.39062-.60937 0-.98437.3125l-.15625.15624zm6.90625 3.375q0-.40626.26563-.65626.28125-.25.6875-.25.42187 0 .6875.25.28125.25.28125.65626 0 .39062-.28125.64062-.26563.25-.6875.25-.40625 0-.6875-.25-.26563-.25-.26563-.64062zm8.6875.82812h-5.84375v-1.15625l2.76563-2.95313q.5625-.60937.82812-1.07812.28125-.46875.28125-.875 0-.57812-.29687-.89062-.28125-.32813-.8125-.32813-.57813 0-.90625.39063-.32813.39062-.32813 1.04687h-1.70312q0-.78125.375-1.42187.375-.65626 1.04687-1.01563.6875-.375 1.54688-.375 1.3125 0 2.04687.64063.73438.625.73438 1.78124 0 .64063-.32813 1.29688-.32812.65625-1.125 1.53125l-1.9375 2.04687h3.65625zm1.40625-4.20312.5-4.32813h4.78125v1.40625h-3.39062l-.21875 1.84375q.60937-.32813 1.28125-.32813 1.21875 0 1.90625.76563.70312.75.70312 2.10937 0 .82813-.35937 1.48438-.34375.64062-1 1.01562-.64063.35938-1.53125.35938-.76563 0-1.4375-.3125-.65625-.32812-1.04688-.89062-.375-.5625-.40625-1.29688h1.6875q.04688.53125.35938.82812.32812.29688.84375.29688.57812 0 .875-.40625.3125-.42187.3125-1.17187 0-.73438-.35938-1.10938-.34375-.39062-1-.39062-.60937 0-.98437.3125l-.15625.15624z" fill="#01ad96"/><path d="m176.91275 469.5h-1.6875v-6.53125l-2.01562.625v-1.375l3.53125-1.26563h.17187zm3.14063-4.20312.5-4.32813h4.78125v1.40625h-3.39063l-.21875 1.84375q.60938-.32813 1.28125-.32813 1.21875 0 1.90625.76563.70313.75.70313 2.10937 0 .82813-.35938 1.48438-.34375.64062-1 1.01562-.64062.35938-1.53125.35938-.76562 0-1.4375-.3125-.65625-.32812-1.04687-.89062-.375-.5625-.40625-1.29688h1.6875q.04687.53125.35937.82812.32813.29688.84375.29688.57813 0 .875-.40625.3125-.42187.3125-1.17187 0-.73438-.35937-1.10938-.34375-.39062-1-.39062-.60938 0-.98438.3125l-.15625.15624zm6.90625 3.375q0-.40626.26562-.65626.28125-.25.6875-.25.42188 0 .6875.25.28125.25.28125.65626 0 .39062-.28125.64062-.26562.25-.6875.25-.40625 0-.6875-.25-.26562-.25-.26562-.64062zm6.95312.82812h-1.6875v-6.53125l-2.01562.625v-1.375l3.53125-1.26563h.17187zm8.45313-6.26562q0 .625-.3125 1.10937-.3125.46875-.85938.76563.625.29687.98438.82812.375.51562.375 1.21875 0 1.14063-.78125 1.8125-.76563.65625-2.10938.65625-1.32812 0-2.10937-.65625-.76563-.67187-.76563-1.8125 0-.70313.35938-1.23437.35937-.53126.98437-.8125-.54687-.29688-.85937-.76563-.3125-.48437-.3125-1.10937 0-1.09376.71875-1.73438.73437-.65625 1.98437-.65625 1.25 0 1.96875.65625.73438.64062.73438 1.73438zm-1.51563 3.79687q0-.54687-.32812-.875-.3125-.34375-.85938-.34375-.54687 0-.875.32812-.3125.32813-.3125.89063 0 .54687.3125.89063.32813.32812.89063.32812.54687 0 .85937-.3125.3125-.32812.3125-.90625zm-.17187-3.71875q0-.5-.26563-.79688-.26562-.29687-.75-.29687-.46875 0-.73437.29687-.26563.28126-.26563.79688 0 .51562.26563.82812.26562.3125.73437.3125.48438 0 .75-.3125.26563-.3125.26563-.82812z" stroke="#fff" stroke-linecap="round" stroke-linejoin="round" stroke-width="3"/><path d="m176.91275 469.5h-1.6875v-6.53125l-2.01562.625v-1.375l3.53125-1.26563h.17187zm3.14063-4.20312.5-4.32813h4.78125v1.40625h-3.39063l-.21875 1.84375q.60938-.32813 1.28125-.32813 1.21875 0 1.90625.76563.70313.75.70313 2.10937 0 .82813-.35938 1.48438-.34375.64062-1 1.01562-.64062.35938-1.53125.35938-.76562 0-1.4375-.3125-.65625-.32812-1.04687-.89062-.375-.5625-.40625-1.29688h1.6875q.04687.53125.35937.82812.32813.29688.84375.29688.57813 0 .875-.40625.3125-.42187.3125-1.17187 0-.73438-.35937-1.10938-.34375-.39062-1-.39062-.60938 0-.98438.3125l-.15625.15624zm6.90625 3.375q0-.40626.26562-.65626.28125-.25.6875-.25.42188 0 .6875.25.28125.25.28125.65626 0 .39062-.28125.64062-.26562.25-.6875.25-.40625 0-.6875-.25-.26562-.25-.26562-.64062zm6.95312.82812h-1.6875v-6.53125l-2.01562.625v-1.375l3.53125-1.26563h.17187zm8.45313-6.26562q0 .625-.3125 1.10937-.3125.46875-.85938.76563.625.29687.98438.82812.375.51562.375 1.21875 0 1.14063-.78125 1.8125-.76563.65625-2.10938.65625-1.32812 0-2.10937-.65625-.76563-.67187-.76563-1.8125 0-.70313.35938-1.23437.35937-.53126.98437-.8125-.54687-.29688-.85937-.76563-.3125-.48437-.3125-1.10937 0-1.09376.71875-1.73438.73437-.65625 1.98437-.65625 1.25 0 1.96875.65625.73438.64062.73438 1.73438zm-1.51563 3.79687q0-.54687-.32812-.875-.3125-.34375-.85938-.34375-.54687 0-.875.32812-.3125.32813-.3125.89063 0 .54687.3125.89063.32813.32812.89063.32812.54687 0 .85937-.3125.3125-.32812.3125-.90625zm-.17187-3.71875q0-.5-.26563-.79688-.26562-.29687-.75-.29687-.46875 0-.73437.29687-.26563.28126-.26563.79688 0 .51562.26563.82812.26562.3125.73437.3125.48438 0 .75-.3125.26563-.3125.26563-.82812z" fill="#01ad96"/><path d="m173.04095 526.5h-1.6875v-6.53125l-2.01562.625v-1.375l3.53125-1.26565h.17187zm8.73438 0h-5.84375v-1.15625l2.76562-2.95315q.5625-.60935.82813-1.0781.28125-.46875.28125-.875 0-.5781-.29688-.8906-.28125-.32815-.8125-.32815-.57812 0-.90625.39065-.32812.3906-.32812 1.04685h-1.70313q0-.78125.375-1.42185.375-.6563 1.04688-1.01565.6875-.375 1.54687-.375 1.3125 0 2.04688.64065.73437.625.73437 1.7812 0 .64065-.32812 1.2969-.32813.65625-1.125 1.53125l-1.9375 2.04685h3.65625zm1.3125-.8281q0-.4063.26562-.6563.28125-.25.6875-.25.42188 0 .6875.25.28125.25.28125.6563 0 .3906-.28125.6406-.26562.25-.6875.25-.40625 0-.6875-.25-.26562-.25-.26562-.6406zm4.5625-4.1875h.90625q.64062 0 .95312-.3125.3125-.32815.3125-.8594 0-.5156-.3125-.7969-.29687-.29685-.84375-.29685-.48437 0-.8125.26565-.32812.2656-.32812.6875h-1.6875q0-.6563.35937-1.1875.35938-.5313 1-.82815.65625-.3125 1.4375-.3125 1.34375 0 2.10938.65625.78125.6406.78125 1.78125 0 .59375-.35938 1.09375-.35937.4844-.9375.7344.71875.2656 1.0625.7812.35938.51565.35938 1.2188 0 1.1406-.82813 1.8281-.82812.6875-2.1875.6875-1.28125 0-2.09375-.6719-.8125-.6875-.8125-1.79685h1.6875q0 .48435.35938.79685.375.2969.89062.2969.60938 0 .95313-.3125.34375-.3281.34375-.8594 0-1.2656-1.40625-1.2656h-.90625zm9.875-3.6094v1.40625h-.15625q-1.15625.01565-1.85938.59375-.6875.5781-.82812 1.6094.67187-.6875 1.70312-.6875 1.125 0 1.78125.79685.65625.79685.65625 2.09375 0 .8281-.35937 1.5-.35938.6719-1.03125 1.0625-.65625.375-1.48438.375-1.34375 0-2.17187-.9375-.82813-.9531-.82813-2.5156v-.6094q0-1.3906.51563-2.4531.53125-1.0625 1.5-1.64065.98437-.57815 2.28125-.59375zm-1.65625 4.28125q-.40625 0-.75.21875-.32813.2031-.48438.5625v.5156q0 .8438.32813 1.32815.34375.46875.95312.46875.54688 0 .875-.4219.34375-.4375.34375-1.125 0-.7031-.34375-1.125-.34375-.42185-.92187-.42185z" stroke="#fff" stroke-linecap="round" stroke-linejoin="round" stroke-width="3"/><path d="m173.04095 526.5h-1.6875v-6.53125l-2.01562.625v-1.375l3.53125-1.26565h.17187zm8.73438 0h-5.84375v-1.15625l2.76562-2.95315q.5625-.60935.82813-1.0781.28125-.46875.28125-.875 0-.5781-.29688-.8906-.28125-.32815-.8125-.32815-.57812 0-.90625.39065-.32812.3906-.32812 1.04685h-1.70313q0-.78125.375-1.42185.375-.6563 1.04688-1.01565.6875-.375 1.54687-.375 1.3125 0 2.04688.64065.73437.625.73437 1.7812 0 .64065-.32812 1.2969-.32813.65625-1.125 1.53125l-1.9375 2.04685h3.65625zm1.3125-.8281q0-.4063.26562-.6563.28125-.25.6875-.25.42188 0 .6875.25.28125.25.28125.6563 0 .3906-.28125.6406-.26562.25-.6875.25-.40625 0-.6875-.25-.26562-.25-.26562-.6406zm4.5625-4.1875h.90625q.64062 0 .95312-.3125.3125-.32815.3125-.8594 0-.5156-.3125-.7969-.29687-.29685-.84375-.29685-.48437 0-.8125.26565-.32812.2656-.32812.6875h-1.6875q0-.6563.35937-1.1875.35938-.5313 1-.82815.65625-.3125 1.4375-.3125 1.34375 0 2.10938.65625.78125.6406.78125 1.78125 0 .59375-.35938 1.09375-.35937.4844-.9375.7344.71875.2656 1.0625.7812.35938.51565.35938 1.2188 0 1.1406-.82813 1.8281-.82812.6875-2.1875.6875-1.28125 0-2.09375-.6719-.8125-.6875-.8125-1.79685h1.6875q0 .48435.35938.79685.375.2969.89062.2969.60938 0 .95313-.3125.34375-.3281.34375-.8594 0-1.2656-1.40625-1.2656h-.90625zm9.875-3.6094v1.40625h-.15625q-1.15625.01565-1.85938.59375-.6875.5781-.82812 1.6094.67187-.6875 1.70312-.6875 1.125 0 1.78125.79685.65625.79685.65625 2.09375 0 .8281-.35937 1.5-.35938.6719-1.03125 1.0625-.65625.375-1.48438.375-1.34375 0-2.17187-.9375-.82813-.9531-.82813-2.5156v-.6094q0-1.3906.51563-2.4531.53125-1.0625 1.5-1.64065.98437-.57815 2.28125-.59375zm-1.65625 4.28125q-.40625 0-.75.21875-.32813.2031-.48438.5625v.5156q0 .8438.32813 1.32815.34375.46875.95312.46875.54688 0 .875-.4219.34375-.4375.34375-1.125 0-.7031-.34375-1.125-.34375-.42185-.92187-.42185z" fill="#01ad96"/><path d="m165.65036 574.875v1.40625h-.15625q-1.15625.01565-1.85937.59375-.6875.5781-.82813 1.6094.67188-.6875 1.70313-.6875 1.125 0 1.78125.79685.65625.79685.65625 2.09375 0 .8281-.35938 1.5-.35937.6719-1.03125 1.0625-.65625.375-1.48437.375-1.34375 0-2.17188-.9375-.82812-.9531-.82812-2.5156v-.6094q0-1.3906.51562-2.4531.53125-1.0625 1.5-1.64065.98438-.57815 2.28125-.59375zm-1.65625 4.28125q-.40625 0-.75.21875-.32812.2031-.48437.5625v.5156q0 .8438.32812 1.32815.34375.46875.95313.46875.54687 0 .875-.4219.34375-.4375.34375-1.125 0-.7031-.34375-1.125-.34375-.42185-.92188-.42185zm4.21875 3.51565q0-.4063.26563-.6563.28125-.25.6875-.25.42187 0 .6875.25.28125.25.28125.6563 0 .3906-.28125.6406-.26563.25-.6875.25-.40625 0-.6875-.25-.26563-.25-.26563-.6406zm7.4375-7.7969v1.40625h-.15625q-1.15625.01565-1.85937.59375-.6875.5781-.82813 1.6094.67188-.6875 1.70313-.6875 1.125 0 1.78125.79685.65625.79685.65625 2.09375 0 .8281-.35938 1.5-.35937.6719-1.03125 1.0625-.65625.375-1.48437.375-1.34375 0-2.17188-.9375-.82812-.9531-.82812-2.5156v-.6094q0-1.3906.51562-2.4531.53125-1.0625 1.5-1.64065.98438-.57815 2.28125-.59375zm-1.65625 4.28125q-.40625 0-.75.21875-.32812.2031-.48437.5625v.5156q0 .8438.32812 1.32815.34375.46875.95313.46875.54687 0 .875-.4219.34375-.4375.34375-1.125 0-.7031-.34375-1.125-.34375-.42185-.92188-.42185zm9.90625 4.34375h-5.84375v-1.15625l2.76563-2.95315q.5625-.60935.82812-1.0781.28125-.46875.28125-.875 0-.5781-.29687-.8906-.28125-.32815-.8125-.32815-.57813 0-.90625.39065-.32813.3906-.32813 1.04685h-1.70312q0-.78125.375-1.42185.375-.6563 1.04687-1.01565.6875-.375 1.54688-.375 1.3125 0 2.04687.64065.73438.625.73438 1.7812 0 .64065-.32813 1.2969-.32812.65625-1.125 1.53125l-1.9375 2.04685h3.65625z" stroke="#fff" stroke-linecap="round" stroke-linejoin="round" stroke-width="3"/><path d="m165.65036 574.875v1.40625h-.15625q-1.15625.01565-1.85937.59375-.6875.5781-.82813 1.6094.67188-.6875 1.70313-.6875 1.125 0 1.78125.79685.65625.79685.65625 2.09375 0 .8281-.35938 1.5-.35937.6719-1.03125 1.0625-.65625.375-1.48437.375-1.34375 0-2.17188-.9375-.82812-.9531-.82812-2.5156v-.6094q0-1.3906.51562-2.4531.53125-1.0625 1.5-1.64065.98438-.57815 2.28125-.59375zm-1.65625 4.28125q-.40625 0-.75.21875-.32812.2031-.48437.5625v.5156q0 .8438.32812 1.32815.34375.46875.95313.46875.54687 0 .875-.4219.34375-.4375.34375-1.125 0-.7031-.34375-1.125-.34375-.42185-.92188-.42185zm4.21875 3.51565q0-.4063.26563-.6563.28125-.25.6875-.25.42187 0 .6875.25.28125.25.28125.6563 0 .3906-.28125.6406-.26563.25-.6875.25-.40625 0-.6875-.25-.26563-.25-.26563-.6406zm7.4375-7.7969v1.40625h-.15625q-1.15625.01565-1.85937.59375-.6875.5781-.82813 1.6094.67188-.6875 1.70313-.6875 1.125 0 1.78125.79685.65625.79685.65625 2.09375 0 .8281-.35938 1.5-.35937.6719-1.03125 1.0625-.65625.375-1.48437.375-1.34375 0-2.17188-.9375-.82812-.9531-.82812-2.5156v-.6094q0-1.3906.51562-2.4531.53125-1.0625 1.5-1.64065.98438-.57815 2.28125-.59375zm-1.65625 4.28125q-.40625 0-.75.21875-.32812.2031-.48437.5625v.5156q0 .8438.32812 1.32815.34375.46875.95313.46875.54687 0 .875-.4219.34375-.4375.34375-1.125 0-.7031-.34375-1.125-.34375-.42185-.92188-.42185zm9.90625 4.34375h-5.84375v-1.15625l2.76563-2.95315q.5625-.60935.82812-1.0781.28125-.46875.28125-.875 0-.5781-.29687-.8906-.28125-.32815-.8125-.32815-.57813 0-.90625.39065-.32813.3906-.32813 1.04685h-1.70312q0-.78125.375-1.42185.375-.6563 1.04687-1.01565.6875-.375 1.54688-.375 1.3125 0 2.04687.64065.73438.625.73438 1.7812 0 .64065-.32813 1.2969-.32812.65625-1.125 1.53125l-1.9375 2.04685h3.65625z" fill="#01ad96"/><path d="m189.91098 640.5h-5.84375v-1.15625l2.76563-2.95315q.5625-.60935.82812-1.0781.28125-.46875.28125-.875 0-.5781-.29687-.8906-.28126-.32815-.8125-.32815-.57813 0-.90626.39065-.32812.3906-.32812 1.04685h-1.70312q0-.78125.375-1.42185.375-.6563 1.04687-1.01565.6875-.375 1.54687-.375 1.3125 0 2.04688.64065.73438.625.73438 1.7812 0 .64065-.32813 1.2969-.32813.65625-1.125 1.53125l-1.9375 2.04685h3.65625zm2.875-5.0156h.90625q.64063 0 .95313-.3125.3125-.32815.3125-.8594 0-.5156-.3125-.7969-.29688-.29685-.84376-.29685-.48437 0-.8125.26565-.32812.2656-.32812.6875h-1.6875q0-.6563.35938-1.1875.35937-.5313 1-.82815.65624-.3125 1.4375-.3125 1.34374 0 2.10937.65625.78125.6406.78125 1.78125 0 .59375-.35938 1.09375-.35937.4844-.9375.7344.71876.2656 1.0625.7812.35938.51565.35938 1.2188 0 1.1406-.82812 1.8281-.82813.6875-2.1875.6875-1.28126 0-2.09376-.6719-.8125-.6875-.8125-1.79685h1.6875q0 .48435.35938.79685.375.2969.89062.2969.60938 0 .95313-.3125.34375-.3281.34375-.8594 0-1.2656-1.40625-1.2656h-.90625zm5.4375 4.1875q0-.4063.26562-.6563.28126-.25.6875-.25.42188 0 .6875.25.28126.25.28126.6563 0 .3906-.28126.6406-.26562.25-.6875.25-.40624 0-.6875-.25-.26562-.25-.26562-.6406zm4.5625-4.1875h.90625q.64063 0 .95313-.3125.3125-.32815.3125-.8594 0-.5156-.3125-.7969-.29688-.29685-.84376-.29685-.48437 0-.8125.26565-.32812.2656-.32812.6875h-1.6875q0-.6563.35938-1.1875.35937-.5313 1-.82815.65624-.3125 1.4375-.3125 1.34374 0 2.10937.65625.78125.6406.78125 1.78125 0 .59375-.35938 1.09375-.35937.4844-.9375.7344.71876.2656 1.0625.7812.35938.51565.35938 1.2188 0 1.1406-.82812 1.8281-.82813.6875-2.1875.6875-1.28126 0-2.09376-.6719-.8125-.6875-.8125-1.79685h1.6875q0 .48435.35938.79685.375.2969.89062.2969.60938 0 .95313-.3125.34375-.3281.34375-.8594 0-1.2656-1.40625-1.2656h-.90625zm9.25 1.60935q-.67188.64065-1.54688.64065-1.14062 0-1.82812-.76565-.67188-.78125-.67188-2.09375 0-.84375.35938-1.5469.375-.7031 1.03125-1.0937.65625-.39065 1.48437-.39065.84376 0 1.5.42185.65626.4219 1.01563 1.2188.35937.79685.375 1.8125v.625q0 2.1406-1.0625 3.35935-1.0625 1.21875-3.01563 1.29685h-.40624v-1.4062l.375-.01565q2.20312-.09375 2.39062-2.0625zm-1.14062-.65625q.42187 0 .70312-.2031.29688-.2188.45312-.51565v-.6875q0-.85935-.32812-1.32815-.32812-.48435-.875-.48435-.51562 0-.84375.46875-.32813.4531-.32813 1.15625 0 .70315.3125 1.15625.32813.4375.90626.4375z" stroke="#fff" stroke-linecap="round" stroke-linejoin="round" stroke-width="3"/><path d="m189.91098 640.5h-5.84375v-1.15625l2.76563-2.95315q.5625-.60935.82812-1.0781.28125-.46875.28125-.875 0-.5781-.29687-.8906-.28126-.32815-.8125-.32815-.57813 0-.90626.39065-.32812.3906-.32812 1.04685h-1.70312q0-.78125.375-1.42185.375-.6563 1.04687-1.01565.6875-.375 1.54687-.375 1.3125 0 2.04688.64065.73438.625.73438 1.7812 0 .64065-.32813 1.2969-.32813.65625-1.125 1.53125l-1.9375 2.04685h3.65625zm2.875-5.0156h.90625q.64063 0 .95313-.3125.3125-.32815.3125-.8594 0-.5156-.3125-.7969-.29688-.29685-.84376-.29685-.48437 0-.8125.26565-.32812.2656-.32812.6875h-1.6875q0-.6563.35938-1.1875.35937-.5313 1-.82815.65624-.3125 1.4375-.3125 1.34374 0 2.10937.65625.78125.6406.78125 1.78125 0 .59375-.35938 1.09375-.35937.4844-.9375.7344.71876.2656 1.0625.7812.35938.51565.35938 1.2188 0 1.1406-.82812 1.8281-.82813.6875-2.1875.6875-1.28126 0-2.09376-.6719-.8125-.6875-.8125-1.79685h1.6875q0 .48435.35938.79685.375.2969.89062.2969.60938 0 .95313-.3125.34375-.3281.34375-.8594 0-1.2656-1.40625-1.2656h-.90625zm5.4375 4.1875q0-.4063.26562-.6563.28126-.25.6875-.25.42188 0 .6875.25.28126.25.28126.6563 0 .3906-.28126.6406-.26562.25-.6875.25-.40624 0-.6875-.25-.26562-.25-.26562-.6406zm4.5625-4.1875h.90625q.64063 0 .95313-.3125.3125-.32815.3125-.8594 0-.5156-.3125-.7969-.29688-.29685-.84376-.29685-.48437 0-.8125.26565-.32812.2656-.32812.6875h-1.6875q0-.6563.35938-1.1875.35937-.5313 1-.82815.65624-.3125 1.4375-.3125 1.34374 0 2.10937.65625.78125.6406.78125 1.78125 0 .59375-.35938 1.09375-.35937.4844-.9375.7344.71876.2656 1.0625.7812.35938.51565.35938 1.2188 0 1.1406-.82812 1.8281-.82813.6875-2.1875.6875-1.28126 0-2.09376-.6719-.8125-.6875-.8125-1.79685h1.6875q0 .48435.35938.79685.375.2969.89062.2969.60938 0 .95313-.3125.34375-.3281.34375-.8594 0-1.2656-1.40625-1.2656h-.90625zm9.25 1.60935q-.67188.64065-1.54688.64065-1.14062 0-1.82812-.76565-.67188-.78125-.67188-2.09375 0-.84375.35938-1.5469.375-.7031 1.03125-1.0937.65625-.39065 1.48437-.39065.84376 0 1.5.42185.65626.4219 1.01563 1.2188.35937.79685.375 1.8125v.625q0 2.1406-1.0625 3.35935-1.0625 1.21875-3.01563 1.29685h-.40624v-1.4062l.375-.01565q2.20312-.09375 2.39062-2.0625zm-1.14062-.65625q.42187 0 .70312-.2031.29688-.2188.45312-.51565v-.6875q0-.85935-.32812-1.32815-.32812-.48435-.875-.48435-.51562 0-.84375.46875-.32813.4531-.32813 1.15625 0 .70315.3125 1.15625.32813.4375.90626.4375z" fill="#01ad96"/><g fill="#000"><path d="m84.10313 62.124657h-3.57813l-.79687 2.234373h-1.15625l3.25-8.53125h.98437l3.26563 8.53125h-1.15625zm-3.23438-.921877h2.90625l-1.45312-3.984373zm11.70313.0625q0 1.4375-.65625 2.328127-.65625.890623-1.79688.890623-1.15625 0-1.8125-.734373v3.046873h-1.07812v-8.78125h.98437l.04688.703127q.67187-.8125 1.84375-.8125 1.14062 0 1.79687.859373.67188.859377.67188 2.390627zm-1.07813-.125q0-1.078123-.46875-1.6875-.45312-.625-1.25-.625-.98437 0-1.46875.859377v3.03125q.48438.875 1.48438.875.78125 0 1.23437-.609377.46875-.625.46875-1.84375zm4.8125 1.75 1.57813-4.875h1.10937l-2.28125 6.34375h-.82812l-2.29688-6.34375h1.10938zm5.09375 1.46875h-1.07812v-6.34375h1.07812zm-1.17187-8.015623q0-.265627.15625-.453127.17187-.1875.48437-.1875.3125 0 .46875.1875.17188.1875.17188.453127 0 .25-.17188.4375-.15625.171873-.46875.171873-.3125 0-.48437-.171873-.15625-.1875-.15625-.4375zm5.625 8.140623q-1.29688 0-2.10938-.84375-.79687-.859373-.79687-2.28125v-.1875q0-.953123.35937-1.6875.35938-.75 1-1.15625.65625-.421873 1.40625-.421873 1.23438 0 1.92188.8125.6875.8125.6875 2.328123v.453127h-4.29688q.03125.9375.54688 1.515623.53125.578127 1.34375.578127.5625 0 .95312-.234377.40625-.234373.71875-.625l.65625.515627q-.79687 1.234373-2.39062 1.234373zm-.14063-5.6875q-.65625 0-1.10937.484377-.4375.46875-.53125 1.328123h3.17187v-.078123q-.04687-.828127-.45312-1.28125-.39063-.453127-1.07813-.453127zm4.53125-.78125.03125.796877q.73438-.90625 1.90625-.90625 2.01563 0 2.03125 2.265623v4.1875h-1.09375v-4.203123q0-.671877-.3125-1-.29687-.328127-.95312-.328127-.53125 0-.9375.28125-.39063.28125-.60938.734377v4.515623h-1.07812v-6.34375zm5.6875 3.109377q0-.921877.35938-1.671877.375-.75 1.03125-1.140623.65625-.40625 1.48437-.40625 1.29688 0 2.09375.890623.8125.890627.8125 2.390627v.078123q0 .921877-.35937 1.65625-.35938.734377-1.01563 1.15625-.65625.40625-1.51562.40625-1.28125 0-2.09375-.890623-.79688-.90625-.79688-2.390627zm1.09375.140623q0 1.046877.48438 1.6875.5.640627 1.3125.640627.82812 0 1.3125-.640627.48437-.65625.48437-1.828123 0-1.03125-.5-1.671877-.48437-.65625-1.3125-.65625-.79687 0-1.29687.640627-.48438.625-.48438 1.828123zm7.67188-4.78125v1.53125h1.17187v.84375h-1.17187v3.921877q0 .390623.15625.578123.15625.1875.53125.1875.1875 0 .51562-.0625v.875q-.42187.125-.82812.125-.71875 0-1.09375-.4375-.375-.453123-.375-1.265623v-3.921877h-1.15625v-.84375h1.15625v-1.53125zm6.43749 7.875q-.09375-.1875-.15625-.671873-.75.796873-1.79688.796873-.9375 0-1.54686-.53125-.59375-.53125-.59375-1.359373 0-.984377.75-1.53125.74999-.546877 2.12499-.546877h1.04688v-.5q0-.5625-.34376-.890623-.32812-.34375-1-.34375-.57812 0-.96874.296873-.39063.28125-.39063.703127h-1.09374q0-.484377.32812-.921877.34375-.4375.92187-.6875.57812-.265623 1.26562-.265623 1.10938 0 1.71876.546873.625.546877.65624 1.5v2.921877q0 .875.21876 1.390623v.09375zm-1.79687-.828123q.51562 0 .96874-.265627.45313-.265623.65626-.6875v-1.296873h-.84376q-2 0-2 1.171873 0 .5.34376.796877.34374.28125.875.28125zm2.46874-6.84375h-3.93749v-.84375h3.93749z"/><path d="m88.55625 75.39028-1.04687 1.07813v2.89062h-1.125v-8.53125h1.125v4.21875l3.79687-4.21875h1.35938l-3.35938 3.76563 3.625 4.76562h-1.34375zm9.57813 3.96875q-.09375-.1875-.15625-.67187-.75.79687-1.79688.79687-.9375 0-1.54687-.53125-.59375-.53125-.59375-1.35937 0-.98438.75-1.53125.75-.54688 2.125-.54688h1.04687v-.5q0-.5625-.34375-.89062-.32812-.34375-1-.34375-.57812 0-.96875.29687-.39062.28125-.39062.70313h-1.09375q0-.48438.32812-.92188.34375-.4375.92188-.6875.57812-.26562 1.26562-.26562 1.10938 0 1.71875.54687.625.54688.65625 1.5v2.92188q0 .875.21875 1.39062v.09375zm-1.79688-.82812q.51563 0 .96875-.26563.45313-.26562.65625-.6875v-1.29687h-.84375q-2 0-2 1.17187 0 .5.34375.79688.34375.28125.875.28125zm7.95313-4.54688q-.25-.03125-.53125-.03125-1.07813 0-1.45313.90625v4.5h-1.07812v-6.34375h1.04687l.01563.73438q.53125-.84375 1.51562-.84375.3125 0 .48438.07812zm4.84375 5.375q-.09375-.1875-.15625-.67187-.75.79687-1.79688.79687-.9375 0-1.54687-.53125-.59375-.53125-.59375-1.35937 0-.98438.75-1.53125.75-.54688 2.125-.54688h1.04687v-.5q0-.5625-.34375-.89062-.32812-.34375-1-.34375-.57812 0-.96875.29687-.39062.28125-.39062.70313h-1.09375q0-.48438.32812-.92188.34375-.4375.92188-.6875.57812-.26562 1.26562-.26562 1.10938 0 1.71875.54687.625.54688.65625 1.5v2.92188q0 .875.21875 1.39062v.09375zm-1.79688-.82812q.51563 0 .96875-.26563.45313-.26562.65625-.6875v-1.29687h-.84375q-2 0-2 1.17187 0 .5.34375.79688.34375.28125.875.28125zm6.0625.82812h-1.07812v-9h1.07812zm3 0h-1.07812v-6.34375h1.07812zm-1.17187-8.01562q0-.26563.15625-.45313.17187-.1875.48437-.1875.3125 0 .46875.1875.17188.1875.17188.45313 0 .25-.17188.4375-.15625.17187-.46875.17187-.3125 0-.48437-.17187-.15625-.1875-.15625-.4375zm6.6875 6.32812q0-.4375-.34375-.67187-.32813-.25-1.15625-.42188-.8125-.17187-1.29688-.42187-.48437-.25-.71875-.57813-.21875-.34375-.21875-.8125 0-.78125.65625-1.3125.65625-.54687 1.6875-.54687 1.07813 0 1.73438.5625.67187.54687.67187 1.40625h-1.07812q0-.4375-.39063-.75-.375-.32813-.9375-.32813-.59375 0-.9375.26563-.32812.25-.32812.65625 0 .39062.3125.59375.3125.20312 1.125.39062.8125.17188 1.3125.42188.5.25.73437.60937.25.35938.25.85938 0 .85937-.6875 1.375-.67187.51562-1.75.51562-.76562 0-1.35937-.26562-.57813-.28125-.90625-.76563-.32813-.48437-.32813-1.04687h1.07813q.03125.54687.4375.875.40625.3125 1.07812.3125.60938 0 .98438-.25.375-.25.375-.67188zm3.78125-6.1875v1.53125h1.17187v.84375h-1.17187v3.92188q0 .39062.15625.57812.15625.1875.53125.1875.1875 0 .51562-.0625v.875q-.42187.125-.82812.125-.71875 0-1.09375-.4375-.375-.45312-.375-1.26562v-3.92188h-1.15625v-.84375h1.15625v-1.53125zm5.15624 8q-1.29688 0-2.10938-.84375-.79686-.85937-.79686-2.28125v-.1875q0-.95312.35936-1.6875.35938-.75 1-1.15625.65626-.42187 1.40626-.42187 1.23437 0 1.92187.8125.6875.8125.6875 2.32812v.45313h-4.29687q.03124.9375.54687 1.51562.53125.57813 1.34375.57813.5625 0 .95312-.23438.40626-.23437.71876-.625l.65624.51563q-.79687 1.23437-2.39062 1.23437zm-.14062-5.6875q-.65626 0-1.10938.48438-.4375.46875-.53125 1.32812h3.17187v-.07812q-.04687-.82813-.45312-1.28125-.39062-.45313-1.07812-.45313z"/><path d="m99.38438 128.68723v-8.531255h2.42187q1.10938 0 1.95313.5.85937.484375 1.32812 1.390625.46875.90625.46875 2.09375v.53125q0 1.21875-.46875 2.125-.45312.90625-1.32812 1.39063-.85938.48437-2 .5zm1.125-7.60938v6.6875h1.1875q1.29687 0 2.01562-.796875.73438-.8125.73438-2.3125v-.5q0-1.453125-.6875-2.25-.67188-.8125-1.9375-.828125zm10.625 7.60938q-.09375-.1875-.15625-.67188-.75.79688-1.79688.79688-.9375 0-1.54687-.53125-.59375-.531255-.59375-1.35938 0-.984375.75-1.53125.75-.546875 2.125-.546875h1.04687v-.5q0-.5625-.34375-.890625-.32812-.34375-1-.34375-.57812 0-.96875.296875-.39062.28125-.39062.703125h-1.09375q0-.484375.32812-.921875.34375-.4375.92188-.6875.57812-.265625 1.26562-.265625 1.10938 0 1.71875.546875.625.546875.65625 1.5v2.921875q0 .875.21875 1.39063v.09375zm-1.79688-.82813q.51563 0 .96875-.265625.45313-.265625.65625-.6875v-1.296875h-.84375q-2 0-2 1.171875 0 .5.34375.796875.34375.28125.875.28125zm2.46875-6.84375h-3.9375v-.84375h3.9375zm3.4375 1.328125.03125.796875q.73438-.90625 1.90625-.90625 2.01563 0 2.03125 2.265625v4.187505h-1.09375v-4.20313q0-.671875-.3125-1-.29687-.328125-.95312-.328125-.53125 0-.9375.28125-.39063.28125-.60938.734375v4.51563h-1.07812v-6.343755zm7.15625 6.343755h-1.07812v-6.343755h1.07812zm-1.17187-8.01563q0-.265625.15625-.453125.17187-.1875.48437-.1875.3125 0 .46875.1875.17188.1875.17188.453125 0 .25-.17188.4375-.15625.171875-.46875.171875-.3125 0-.48437-.171875-.15625-.1875-.15625-.4375zm4.10937 1.671875v7.078125q0 1.82813-1.65625 1.82813-.35937 0-.65625-.10938v-.85937q.1875.04687.48438.04687.35937 0 .54687-.20312.20313-.1875.20313-.6875v-7.093755zm-1.1875-1.671875q0-.265625.15625-.453125.15625-.1875.46875-.1875.3125 0 .46875.1875.17188.1875.17188.453125 0 .25-.17188.4375-.15625.171875-.46875.171875-.3125 0-.46875-.171875-.15625-.1875-.15625-.4375zm6.98437 8.01563q-.09375-.1875-.15625-.67188-.75.79688-1.79688.79688-.9375 0-1.54686-.53125-.59375-.531255-.59375-1.35938 0-.984375.75-1.53125.74999-.546875 2.12499-.546875h1.04688v-.5q0-.5625-.34376-.890625-.32812-.34375-1-.34375-.57812 0-.96874.296875-.39063.28125-.39063.703125h-1.09374q0-.484375.32812-.921875.34375-.4375.92187-.6875.57812-.265625 1.26562-.265625 1.10938 0 1.71876.546875.625.546875.65624 1.5v2.921875q0 .875.21876 1.39063v.09375zm-1.79687-.82813q.51562 0 .96874-.265625.45313-.265625.65626-.6875v-1.296875h-.84376q-2 0-2 1.171875 0 .5.34376.796875.34374.28125.875.28125z"/><path d="m89.22813 184.59354h4.89062v.92187h-6.21875v-.84375l4.6875-6.76562h-4.60937v-.92188h5.95312v.82813zm8.07812-.54688 1.57813-4.875h1.10937l-2.28125 6.34375h-.82812l-2.29688-6.34375h1.10938zm5.09375 1.46875h-1.07812v-6.34375h1.07812zm-1.17187-8.01562q0-.26563.15625-.45313.17187-.1875.48437-.1875.3125 0 .46875.1875.17188.1875.17188.45313 0 .25-.17188.4375-.15625.17187-.46875.17187-.3125 0-.48437-.17187-.15625-.1875-.15625-.4375zm5.625 8.14062q-1.29688 0-2.10938-.84375-.79687-.85937-.79687-2.28125v-.1875q0-.95312.35937-1.6875.35938-.75 1-1.15625.65625-.42187 1.40625-.42187 1.23438 0 1.92188.8125.6875.8125.6875 2.32812v.45313h-4.29688q.03125.9375.54688 1.51562.53125.57813 1.34375.57813.5625 0 .95312-.23438.40625-.23437.71875-.625l.65625.51563q-.79687 1.23437-2.39062 1.23437zm-.14063-5.6875q-.65625 0-1.10937.48438-.4375.46875-.53125 1.32812h3.17187v-.07812q-.04687-.82813-.45312-1.28125-.39063-.45313-1.07813-.45313zm3.25 2.34375q0-1.46875.6875-2.34375.6875-.89062 1.8125-.89062 1.10938 0 1.76563.75v-3.29688h1.07812v9h-1l-.04687-.6875q-.65625.8125-1.8125.8125-1.09375 0-1.79688-.90625-.6875-.90625-.6875-2.35937zm1.07813.125q0 1.07813.4375 1.6875.45312.60938 1.23437.60938 1.03125 0 1.51563-.9375v-2.90625q-.48438-.89063-1.5-.89063-.79688 0-1.25.60938-.4375.60937-.4375 1.82812zm9.25-2.28125q-.25-.03125-.53125-.03125-1.07813 0-1.45313.90625v4.5h-1.07812v-6.34375h1.04687l.01563.73438q.53125-.84375 1.51562-.84375.3125 0 .48438.07812zm2.10937 5.375h-1.07812v-6.34375h1.07812zm-1.17187-8.01562q0-.26563.15625-.45313.17187-.1875.48437-.1875.3125 0 .46875.1875.17188.1875.17188.45313 0 .25-.17188.4375-.15625.17187-.46875.17187-.3125 0-.48437-.17187-.15625-.1875-.15625-.4375zm4.10937 1.67187v7.07813q0 1.82812-1.65625 1.82812-.35937 0-.65625-.10937v-.85938q.1875.04688.48438.04688.35937 0 .54687-.20313.20313-.1875.20313-.6875v-7.09375zm-1.1875-1.67187q0-.26563.15625-.45313.15625-.1875.46875-.1875.3125 0 .46875.1875.17188.1875.17188.45313 0 .25-.17188.4375-.15625.17187-.46875.17187-.3125 0-.46875-.17187-.15625-.1875-.15625-.4375zm6.98437 8.01562q-.09375-.1875-.15625-.67187-.75.79687-1.79688.79687-.9375 0-1.54686-.53125-.59375-.53125-.59375-1.35937 0-.98438.75-1.53125.74999-.54688 2.12499-.54688h1.04688v-.5q0-.5625-.34376-.89062-.32812-.34375-1-.34375-.57812 0-.96874.29687-.39063.28125-.39063.70313h-1.09374q0-.48438.32812-.92188.34375-.4375.92187-.6875.57812-.26562 1.26562-.26562 1.10938 0 1.71876.54687.625.54688.65624 1.5v2.92188q0 .875.21876 1.39062v.09375zm-1.79687-.82812q.51562 0 .96874-.26563.45313-.26562.65626-.6875v-1.29687h-.84376q-2 0-2 1.17187 0 .5.34376.79688.34374.28125.875.28125z"/><path d="m98.9 238.54674q-1.4375-.42188-2.10937-1.03125-.65625-.60938-.65625-1.5 0-1 .79687-1.65625.8125-.67188 2.10938-.67188.875 0 1.5625.34375.6875.34375 1.0625.9375.39062.59375.39062 1.3125h-1.14062q0-.78125-.5-1.21875-.48438-.4375-1.375-.4375-.82813 0-1.29688.375-.46875.35938-.46875 1 0 .53125.4375.89063.45313.35937 1.51563.65625 1.0625.29687 1.65625.65625.60937.35937.89062.84375.29688.48437.29688 1.125 0 1.04687-.8125 1.67187-.8125.625-2.15625.625-.89063 0-1.65625-.34375-.75-.34375-1.17188-.92187-.40625-.59375-.40625-1.32813h1.125q0 .76563.57813 1.21875.57812.45313 1.53125.45313.89062 0 1.35937-.35938.46875-.375.46875-1 0-.625-.4375-.96875-.4375-.34375-1.59375-.67187zm4.03125.5625q0-.92188.35938-1.67188.375-.75 1.03125-1.14062.65625-.40625 1.48437-.40625 1.29688 0 2.09375.89062.8125.89063.8125 2.39063v.07812q0 .92188-.35937 1.65625-.35938.73438-1.01563 1.15625-.65625.40625-1.51562.40625-1.28125 0-2.09375-.89062-.79688-.90625-.79688-2.39063zm1.09375.14062q0 1.04688.48438 1.6875.5.64063 1.3125.64063.82812 0 1.3125-.64063.48437-.65625.48437-1.82812 0-1.03125-.5-1.67188-.48437-.65625-1.3125-.65625-.79687 0-1.29687.64063-.48438.625-.48438 1.82812zm7.21875-3.25.03125.70313q.6875-.8125 1.875-.8125 1.32813 0 1.8125 1.01562.3125-.45312.8125-.73437.51563-.28125 1.20313-.28125 2.09375 0 2.125 2.20312v4.25h-1.07813v-4.1875q0-.67187-.3125-1-.3125-.34375-1.04687-.34375-.60938 0-1.01563.35938-.39062.35937-.45312.96875v4.20312h-1.07813v-4.15625q0-1.375-1.35937-1.375-1.0625 0-1.45313.90625v4.625h-1.09375v-6.34375zm11.15625 6.34375h-1.07812v-6.34375h1.07812zm-1.17187-8.01562q0-.26563.15625-.45313.17187-.1875.48437-.1875.3125 0 .46875.1875.17188.1875.17188.45313 0 .25-.17188.4375-.15625.17187-.46875.17187-.3125 0-.48437-.17187-.15625-.1875-.15625-.4375zm4.10937 1.67187v7.07813q0 1.82812-1.65625 1.82812-.35937 0-.65625-.10937v-.85938q.1875.04688.48438.04688.35937 0 .54687-.20313.20313-.1875.20313-.6875v-7.09375zm-1.1875-1.67187q0-.26563.15625-.45313.15625-.1875.46875-.1875.3125 0 .46875.1875.17188.1875.17188.45313 0 .25-.17188.4375-.15625.17187-.46875.17187-.3125 0-.46875-.17187-.15625-.1875-.15625-.4375zm6.98437 8.01562q-.09375-.1875-.15625-.67187-.75.79687-1.79688.79687-.9375 0-1.54686-.53125-.59375-.53125-.59375-1.35937 0-.98438.75-1.53125.74999-.54688 2.12499-.54688h1.04688v-.5q0-.5625-.34376-.89062-.32812-.34375-1-.34375-.57812 0-.96874.29687-.39063.28125-.39063.70313h-1.09374q0-.48438.32812-.92188.34375-.4375.92187-.6875.57812-.26562 1.26562-.26562 1.10938 0 1.71876.54687.625.54688.65624 1.5v2.92188q0 .875.21876 1.39062v.09375zm-1.79687-.82812q.51562 0 .96874-.26563.45313-.26562.65626-.6875v-1.29687h-.84376q-2 0-2 1.17187 0 .5.34376.79688.34374.28125.875.28125z"/><path d="m81.94688 299.1718h-1.125l-4.29688-6.5781v6.5781h-1.14062v-8.53124h1.14062l4.29688 6.60938v-6.60938h1.125zm3.45312 0h-1.09375v-6.34374h1.09375zm1.46875-7.65624h-3.9375v-.84376h3.9375zm.09375 4.4375q0-1.46876.6875-2.34376.6875-.8906 1.8125-.8906 1.10938 0 1.76563.75v-3.2969h1.07812v9h-1l-.04687-.6875q-.65625.8125-1.8125.8125-1.09375 0-1.79688-.90624-.6875-.90626-.6875-2.35936zm1.07813.125q0 1.07814.4375 1.6875.45312.60938 1.23437.60938 1.03125 0 1.51563-.9375v-2.90624q-.48438-.89064-1.5-.89064-.79688 0-1.25.60938-.4375.60936-.4375 1.82812zm8.8125 3.21874q-1.29688 0-2.10938-.84374-.79687-.85936-.79687-2.28126v-.1875q0-.9531.35937-1.6875.35938-.75 1-1.15624.65625-.42186 1.40625-.42186 1.23438 0 1.92188.8125.6875.8125.6875 2.3281v.45314h-4.29688q.03125.9375.54688 1.51562.53125.57814 1.34375.57814.5625 0 .95312-.2344.40625-.23436.71875-.625l.65625.51564q-.79687 1.23436-2.39062 1.23436zm-.14063-5.6875q-.65625 0-1.10937.4844-.4375.46874-.53125 1.3281h3.17187v-.0781q-.04687-.82814-.45312-1.28126-.39063-.45314-1.07813-.45314zm6.57813.1875q-.25-.03124-.53125-.03124-1.07813 0-1.45313.90624v4.5h-1.07812v-6.34374h1.04687l.01563.73438q.53125-.84374 1.51562-.84374.3125 0 .48438.0781zm2.10937 5.375h-1.07812v-9h1.07812zm5.73438 0q-.09375-.1875-.15625-.67186-.75.79686-1.79688.79686-.9375 0-1.54687-.53124-.59375-.53126-.59375-1.35936 0-.9844.75-1.53126.75-.54688 2.125-.54688h1.04687v-.5q0-.5625-.34375-.89062-.32812-.34374-1-.34374-.57812 0-.96875.29686-.39062.28124-.39062.70314h-1.09375q0-.4844.32812-.9219.34375-.4375.92188-.6875.57812-.2656 1.26562-.2656 1.10938 0 1.71875.54686.625.54688.65625 1.5v2.92188q0 .875.21875 1.39062v.09374zm-1.79688-.8281q.51563 0 .96875-.26564.45313-.26562.65625-.6875v-1.29686h-.84375q-2 0-2 1.17186 0 .5.34375.79688.34375.28126.875.28126zm5.90625-5.51564.03125.79688q.73438-.90624 1.90625-.90624 2.01563 0 2.03125 2.2656v4.1875h-1.09375v-4.2031q0-.6719-.3125-1-.29687-.32814-.95312-.32814-.53125 0-.9375.28124-.39063.28126-.60938.7344v4.5156h-1.07812v-6.34374zm5.71875 3.125q0-1.46876.6875-2.34376.6875-.8906 1.8125-.8906 1.10938 0 1.76563.75v-3.2969h1.07812v9h-1l-.04687-.6875q-.65625.8125-1.8125.8125-1.09375 0-1.79688-.90624-.6875-.90626-.6875-2.35936zm1.07813.125q0 1.07814.4375 1.6875.45312.60938 1.23437.60938 1.03125 0 1.51563-.9375v-2.90624q-.48438-.89064-1.5-.89064-.79688 0-1.25.60938-.4375.60936-.4375 1.82812zm8.81249 3.21874q-1.29688 0-2.10938-.84374-.79686-.85936-.79686-2.28126v-.1875q0-.9531.35936-1.6875.35938-.75 1-1.15624.65626-.42186 1.40626-.42186 1.23437 0 1.92187.8125.6875.8125.6875 2.3281v.45314h-4.29687q.03124.9375.54687 1.51562.53125.57814 1.34375.57814.5625 0 .95312-.2344.40626-.23436.71876-.625l.65624.51564q-.79687 1.23436-2.39062 1.23436zm-.14062-5.6875q-.65626 0-1.10938.4844-.4375.46874-.53125 1.3281h3.17187v-.0781q-.04687-.82814-.45312-1.28126-.39062-.45314-1.07812-.45314z"/><path d="m105.60313 356h-1.125v-8.53125h1.125zm3.09375-7.875v1.53125h1.17187v.84375h-1.17187v3.92188q0 .39062.15625.57812.15625.1875.53125.1875.1875 0 .51562-.0625v.875q-.42187.125-.82812.125-.71875 0-1.09375-.4375-.375-.45312-.375-1.26562v-3.92188h-1.15625v-.84375h1.15625v-1.53125zm6.4375 7.875q-.09375-.1875-.15625-.67188-.75.79688-1.79688.79688-.9375 0-1.54687-.53125-.59375-.53125-.59375-1.35937 0-.98438.75-1.53126.75-.54687 2.125-.54687h1.04687v-.5q0-.5625-.34375-.89063-.32812-.34374-1-.34374-.57812 0-.96875.29687-.39062.28125-.39062.70313h-1.09375q0-.48438.32812-.92188.34375-.4375.92188-.6875.57812-.26562 1.26562-.26562 1.10938 0 1.71875.54687.625.54687.65625 1.5v2.92187q0 .875.21875 1.39063v.09375zm-1.79688-.82812q.51563 0 .96875-.26563.45313-.26563.65625-.6875v-1.29687h-.84375q-2 0-2 1.17187 0 .5.34375.79687.34375.28126.875.28126zm2.46875-6.84376h-3.9375v-.84374h3.9375zm3.59375 7.67188h-1.07812v-9h1.07812zm3 0h-1.07812v-6.34375h1.07812zm-1.17187-8.01562q0-.26563.15625-.45313.17187-.1875.48437-.1875.3125 0 .46875.1875.17188.1875.17188.45313 0 .25-.17188.4375-.15625.17187-.46875.17187-.3125 0-.48437-.17187-.15625-.1875-.15625-.4375zm4.10937 1.67187v7.07813q0 1.82812-1.65625 1.82812-.35937 0-.65625-.10938v-.85937q.1875.04687.48438.04687.35937 0 .54687-.20312.20313-.1875.20313-.6875v-7.09375zm-1.1875-1.67187q0-.26563.15625-.45313.15625-.1875.46875-.1875.3125 0 .46875.1875.17188.1875.17188.45313 0 .25-.17188.4375-.15625.17187-.46875.17187-.3125 0-.46875-.17187-.15625-.1875-.15625-.4375zm6.98437 8.01562q-.09375-.1875-.15625-.67188-.75.79688-1.79688.79688-.9375 0-1.54686-.53125-.59375-.53125-.59375-1.35937 0-.98438.75-1.53126.74999-.54687 2.12499-.54687h1.04688v-.5q0-.5625-.34376-.89063-.32812-.34374-1-.34374-.57812 0-.96874.29687-.39063.28125-.39063.70313h-1.09374q0-.48438.32812-.92188.34375-.4375.92187-.6875.57812-.26562 1.26562-.26562 1.10938 0 1.71876.54687.625.54687.65624 1.5v2.92187q0 .875.21876 1.39063v.09375zm-1.79687-.82812q.51562 0 .96874-.26563.45313-.26563.65626-.6875v-1.29687h-.84376q-2 0-2 1.17187 0 .5.34376.79687.34374.28126.875.28126z"/><path d="m91.60313 412.8282h-1.125v-8.53126h1.125zm1.35937-3.21876q0-1.48438.6875-2.35938.6875-.875 1.8125-.875 1.15625 0 1.8125.8125l.04688-.70312h1v6.1875q0 1.23436-.73438 1.9375-.73437.71876-1.95312.71876-.6875 0-1.34375-.2969-.65625-.29686-1-.79686l.5625-.65624q.6875.85936 1.70312.85936.78125 0 1.21875-.45312.45313-.4375.45313-1.25v-.54688q-.65625.76564-1.78125.76564-1.10938 0-1.79688-.89064-.6875-.90626-.6875-2.45312zm1.09375.125q0 1.0625.4375 1.6875.4375.60936 1.23438.60936 1.01562 0 1.5-.9375v-2.8906q-.5-.90626-1.5-.90626-.78125 0-1.23438.60936-.4375.6094-.4375 1.82814zm10.07813 3.09376q-.09375-.1875-.15625-.6719-.75.7969-1.79688.7969-.9375 0-1.54687-.53126-.59375-.53124-.59375-1.35938 0-.98436.75-1.53126.75-.54686 2.125-.54686h1.04687v-.5q0-.5625-.34375-.89064-.32812-.34374-1-.34374-.57812 0-.96875.29688-.39062.28126-.39062.70312h-1.09375q0-.48436.32812-.92186.34375-.4375.92188-.6875.57812-.26564 1.26562-.26564 1.10938 0 1.71875.54688.625.54686.65625 1.5v2.92186q0 .875.21875 1.39064v.09376zm-1.79688-.82814q.51563 0 .96875-.26562.45313-.26564.65625-.6875v-1.29688h-.84375q-2 0-2 1.17188 0 .5.34375.79686.34375.28126.875.28126zm8.79688.20314q-.625.75-1.85938.75-1.01562 0-1.54687-.59376-.53125-.59374-.53125-1.75v-4.125h1.07812v4.09376q0 1.4531 1.17188 1.4531 1.25 0 1.65625-.9375v-4.60936h1.09375v6.34376h-1.03125zm4.10937-5.71876.03125.79686q.73438-.90624 1.90625-.90624 2.01563 0 2.03125 2.26564v4.1875h-1.09375v-4.20314q0-.67186-.3125-1-.29687-.32812-.95312-.32812-.53125 0-.9375.28126-.39063.28124-.60938.73436v4.51564h-1.07812v-6.34376zm7.15625 6.34376h-1.07812v-6.34376h1.07812zm-1.17187-8.01564q0-.26562.15625-.45312.17187-.1875.48437-.1875.3125 0 .46875.1875.17188.1875.17188.45312 0 .25-.17188.4375-.15625.17188-.46875.17188-.3125 0-.48437-.17188-.15625-.1875-.15625-.4375zm4.10937 1.67188v7.07812q0 1.82814-1.65625 1.82814-.35937 0-.65625-.1094v-.85936q.1875.04686.48438.04686.35937 0 .54687-.2031.20313-.1875.20313-.6875v-7.09376zm-1.1875-1.67188q0-.26562.15625-.45312.15625-.1875.46875-.1875.3125 0 .46875.1875.17188.1875.17188.45312 0 .25-.17188.4375-.15625.17188-.46875.17188-.3125 0-.46875-.17188-.15625-.1875-.15625-.4375zm6.98437 8.01564q-.09375-.1875-.15625-.6719-.75.7969-1.79688.7969-.9375 0-1.54686-.53126-.59375-.53124-.59375-1.35938 0-.98436.75-1.53126.74999-.54686 2.12499-.54686h1.04688v-.5q0-.5625-.34376-.89064-.32812-.34374-1-.34374-.57812 0-.96874.29688-.39063.28126-.39063.70312h-1.09374q0-.48436.32812-.92186.34375-.4375.92187-.6875.57812-.26564 1.26562-.26564 1.10938 0 1.71876.54688.625.54686.65624 1.5v2.92186q0 .875.21876 1.39064v.09376zm-1.79687-.82814q.51562 0 .96874-.26562.45313-.26564.65626-.6875v-1.29688h-.84376q-2 0-2 1.17188 0 .5.34376.79686.34374.28126.875.28126z"/><path d="m96.525 468.73453h4.04688v.92187h-5.1875v-8.53125h1.14062zm5.875.92187h-1.07812v-6.34375h1.07812zm-1.17187-8.01562q0-.26563.15625-.45313.17187-.1875.48437-.1875.3125 0 .46875.1875.17188.1875.17188.45313 0 .25-.17188.4375-.15625.17187-.46875.17187-.3125 0-.48437-.17187-.15625-.1875-.15625-.4375zm5.625 8.14062q-1.29688 0-2.10938-.84375-.79687-.85937-.79687-2.28125v-.1875q0-.95312.35937-1.6875.35938-.75 1-1.15625.65625-.42187 1.40625-.42187 1.23438 0 1.92188.8125.6875.8125.6875 2.32812v.45313h-4.29688q.03125.9375.54688 1.51562.53125.57813 1.34375.57813.5625 0 .95312-.23438.40625-.23437.71875-.625l.65625.51563q-.79687 1.23437-2.39062 1.23437zm-.14063-5.6875q-.65625 0-1.10937.48438-.4375.46875-.53125 1.32812h3.17187v-.07812q-.04687-.82813-.45312-1.28125-.39063-.45313-1.07813-.45313zm4.98438-2.3125v1.53125h1.17187v.84375h-1.17187v3.92188q0 .39062.15625.57812.15625.1875.53125.1875.1875 0 .51562-.0625v.875q-.42187.125-.82812.125-.71875 0-1.09375-.4375-.375-.45312-.375-1.26562v-3.92188h-1.15625v-.84375h1.15625v-1.53125zm6.4375 7.25q-.625.75-1.85938.75-1.01562 0-1.54687-.59375-.53125-.59375-.53125-1.75v-4.125h1.07812v4.09375q0 1.45313 1.17188 1.45313 1.25 0 1.65625-.9375v-4.60938h1.09375v6.34375h-1.03125zm5.17187-.84375 1.57813-4.875h1.10937l-2.28125 6.34375h-.82812l-2.29688-6.34375h1.10938zm7.82812 1.46875q-.09375-.1875-.15625-.67187-.75.79687-1.79688.79687-.9375 0-1.54686-.53125-.59375-.53125-.59375-1.35937 0-.98438.75-1.53125.74999-.54688 2.12499-.54688h1.04688v-.5q0-.5625-.34376-.89062-.32812-.34375-1-.34375-.57812 0-.96874.29687-.39063.28125-.39063.70313h-1.09374q0-.48438.32812-.92188.34375-.4375.92187-.6875.57812-.26562 1.26562-.26562 1.10938 0 1.71876.54687.625.54688.65624 1.5v2.92188q0 .875.21876 1.39062v.09375zm-1.79687-.82812q.51562 0 .96874-.26563.45313-.26562.65626-.6875v-1.29687h-.84376q-2 0-2 1.17187 0 .5.34376.79688.34374.28125.875.28125z"/><path d="m88.10313 516.7502h-3.57813l-.79687 2.23436h-1.15625l3.25-8.53126h.98437l3.26563 8.53126h-1.15625zm-3.23438-.9219h2.90625l-1.45312-3.98437zm7.375-3.1875.03125.70313q.6875-.8125 1.875-.8125 1.32813 0 1.8125 1.01563.3125-.45313.8125-.73436.51563-.28127 1.20313-.28127 2.09375 0 2.125 2.20313v4.25h-1.07813v-4.1875q0-.67186-.3125-1-.3125-.34376-1.04687-.34376-.60938 0-1.01563.3594-.39062.35936-.45312.96873v4.20313h-1.07813v-4.15626q0-1.375-1.35937-1.375-1.0625 0-1.45313.90626v4.625h-1.09375v-6.34376zm12.60938 6.46876q-1.29688 0-2.10938-.84376-.79687-.85937-.79687-2.28124v-.1875q0-.95313.35937-1.6875.35938-.75 1-1.15626.65625-.42187 1.40625-.42187 1.23438 0 1.92188.8125.6875.8125.6875 2.32813v.45314h-4.29688q.03125.9375.54688 1.5156.53125.57813 1.34375.57813.5625 0 .95312-.23437.40625-.23436.71875-.625l.65625.51564q-.79687 1.23436-2.39062 1.23436zm-.14063-5.6875q-.65625 0-1.10937.48437-.4375.46877-.53125 1.32813h3.17187v-.07813q-.04687-.82813-.45312-1.28123-.39063-.45314-1.07813-.45314zm6.57813.1875q-.25-.03126-.53125-.03126-1.07813 0-1.45313.90626v4.5h-1.07812v-6.34376h1.04687l.01563.7344q.53125-.84377 1.51562-.84377.3125 0 .48438.07813zm2.10937 5.375h-1.07812v-6.34376h1.07812zm-1.17187-8.01563q0-.26563.15625-.45313.17187-.1875.48437-.1875.3125 0 .46875.1875.17188.1875.17188.45313 0 .25-.17188.4375-.15625.17187-.46875.17187-.3125 0-.48437-.17187-.15625-.1875-.15625-.4375zm4.76562 5.07813-.6875.70314v2.23436h-1.07812v-9h1.07812v5.4375l.57813-.6875 1.98437-2.09376h1.3125l-2.46875 2.65626 2.76563 3.6875h-1.28125zm8.14063 2.9375q-.09375-.1875-.15625-.67186-.75.79686-1.79688.79686-.9375 0-1.54687-.53126-.59375-.53124-.59375-1.35937 0-.98437.75-1.53123.75-.5469 2.125-.5469h1.04687v-.5q0-.5625-.34375-.8906-.32812-.34377-1-.34377-.57812 0-.96875.29687-.39062.28126-.39062.70313h-1.09375q0-.48437.32812-.92187.34375-.4375.92188-.6875.57812-.26563 1.26562-.26563 1.10938 0 1.71875.54687.625.5469.65625 1.5v2.9219q0 .875.21875 1.3906v.09376zm-1.79688-.82813q.51563 0 .96875-.26563.45313-.2656.65625-.6875v-1.29687h-.84375q-2 0-2 1.17187 0 .5.34375.7969.34375.28123.875.28123zm8.57812-.85937q0-.4375-.34375-.67186-.32813-.25-1.15625-.4219-.8125-.17187-1.29688-.42187-.48437-.25-.71874-.57813-.21876-.34374-.21876-.8125 0-.78124.65626-1.3125.65624-.54687 1.6875-.54687 1.07812 0 1.73437.5625.67187.54687.67187 1.40627h-1.07812q0-.4375-.39062-.75-.375-.32814-.9375-.32814-.59376 0-.9375.26564-.32813.25-.32813.65623 0 .39063.3125.59377.3125.2031 1.125.3906.8125.1719 1.3125.4219.5.25.73437.60936.25.35937.25.85937 0 .85937-.6875 1.375-.67187.51563-1.75.51563-.76562 0-1.35937-.26563-.57813-.28123-.90625-.76563-.32812-.48437-.32812-1.04687h1.07812q.03125.54687.4375.875.40625.3125 1.07812.3125.60938 0 .98438-.25.375-.25.375-.67187z"/><path d="m36.9 530.1877q-1.4375-.4219-2.109373-1.03127-.65625-.60937-.65625-1.5 0-1 .796873-1.65623.8125-.6719 2.109377-.6719.875 0 1.5625.34376.6875.34374 1.0625.9375.390623.59374.390623 1.3125h-1.140623q0-.78126-.5-1.21876-.484377-.4375-1.375-.4375-.828127 0-1.296877.375-.46875.3594-.46875 1 0 .53126.4375.89063.453127.35937 1.515627.65627 1.0625.29686 1.65625.65623.609373.35937.890623.84377.296877.48436.296877 1.125 0 1.04686-.8125 1.67186-.8125.625-2.15625.625-.890627 0-1.65625-.34376-.75-.34374-1.171877-.92187-.40625-.59373-.40625-1.32813h1.125q0 .76563.578127 1.21876.578123.45314 1.53125.45314.890623 0 1.359373-.3594.46875-.375.46875-1 0-.625-.4375-.96874-.4375-.34376-1.59375-.67186zm8.234377 3.79686q-.09375-.1875-.15625-.67186-.75.79686-1.796877.79686-.9375 0-1.546873-.53126-.59375-.53124-.59375-1.35937 0-.98437.75-1.53123.75-.5469 2.125-.5469h1.046873v-.5q0-.5625-.34375-.8906-.328123-.34377-1-.34377-.578123 0-.96875.29687-.390623.28126-.390623.70313h-1.09375q0-.48437.328123-.92187.34375-.4375.921877-.6875.578123-.26563 1.265623-.26563 1.109377 0 1.71875.54687.625.5469.65625 1.5v2.9219q0 .875.21875 1.3906v.09376zm-1.796877-.82813q.515627 0 .96875-.26563.453127-.2656.65625-.6875v-1.29687h-.84375q-2 0-2 1.17187 0 .5.34375.7969.34375.28123.875.28123zm6.96875-.64063 1.578127-4.875h1.109373l-2.28125 6.34376h-.828123l-2.296877-6.34376h1.109377zm5.09375 1.46876h-1.078123v-6.34376h1.078123zm-1.171873-8.01563q0-.26563.15625-.45313.171873-.1875.484373-.1875.3125 0 .46875.1875.171877.1875.171877.45313 0 .25-.171877.4375-.15625.17187-.46875.17187-.3125 0-.484373-.17187-.15625-.1875-.15625-.4375zm5.625 8.14063q-1.296877 0-2.109377-.84376-.796873-.85937-.796873-2.28124v-.1875q0-.95313.359373-1.6875.359377-.75 1-1.15626.65625-.42187 1.40625-.42187 1.234377 0 1.921877.8125.6875.8125.6875 2.32813v.45314h-4.296877q.03125.9375.546877 1.5156.53125.57813 1.34375.57813.5625 0 .953123-.23437.40625-.23436.71875-.625l.65625.51564q-.796873 1.23436-2.390623 1.23436zm-.140627-5.6875q-.65625 0-1.109373.48437-.4375.46877-.53125 1.32813h3.171873v-.07813q-.046873-.82813-.453123-1.28123-.390627-.45314-1.078127-.45314zm4.53125-.78126.03125.7969q.73438-.90627 1.90625-.90627 2.01563 0 2.03125 2.26563v4.1875h-1.09375v-4.20313q0-.67187-.3125-1-.29687-.32813-.95312-.32813-.53125 0-.9375.28126-.39063.28124-.60938.73437v4.51563h-1.078123v-6.34376zm5.6875 3.1094q0-.9219.35938-1.6719.375-.75 1.03125-1.1406.65625-.40627 1.48437-.40627 1.29688 0 2.09375.89063.8125.89064.8125 2.39064v.0781q0 .9219-.35937 1.65626-.35938.73437-1.01563 1.15624-.65625.40626-1.51562.40626-1.28125 0-2.09375-.89063-.79688-.90623-.79688-2.39063zm1.09375.1406q0 1.0469.48438 1.6875.5.64063 1.3125.64063.82812 0 1.3125-.64063.48437-.65624.48437-1.8281 0-1.03127-.5-1.6719-.48437-.65624-1.3125-.65624-.79687 0-1.29687.64064-.48438.625-.48438 1.8281zm7.67188-4.78124v1.53124h1.17187v.84376h-1.17187v3.92187q0 .39063.15625.57813.15625.1875.53125.1875.1875 0 .51562-.0625v.875q-.42187.125-.82812.125-.71875 0-1.09375-.4375-.375-.45313-.375-1.26563v-3.92187h-1.15625v-.84376h1.15625v-1.53124zm6.4375 7.875q-.09375-.1875-.15625-.67186-.75.79686-1.79688.79686-.9375 0-1.54687-.53126-.59375-.53124-.59375-1.35937 0-.98437.75-1.53123.75-.5469 2.125-.5469h1.04687v-.5q0-.5625-.34375-.8906-.32812-.34377-1-.34377-.57812 0-.96875.29687-.39062.28126-.39062.70313h-1.09375q0-.48437.32812-.92187.34375-.4375.92188-.6875.57812-.26563 1.26562-.26563 1.10938 0 1.71875.54687.625.5469.65625 1.5v2.9219q0 .875.21875 1.3906v.09376zm-1.79688-.82813q.51563 0 .96875-.26563.45313-.2656.65625-.6875v-1.29687h-.84375q-2 0-2 1.17187 0 .5.34375.7969.34375.28123.875.28123zm2.46875-6.84373h-3.9375v-.84377h3.9375zm6.10938 5.98436q0-.4375-.34375-.67186-.32813-.25-1.15625-.4219-.8125-.17187-1.29688-.42187-.48437-.25-.71875-.57813-.21875-.34374-.21875-.8125 0-.78124.65625-1.3125.65625-.54687 1.6875-.54687 1.07813 0 1.73438.5625.67187.54687.67187 1.40627h-1.07812q0-.4375-.39063-.75-.375-.32814-.9375-.32814-.59375 0-.9375.26564-.32812.25-.32812.65623 0 .39063.3125.59377.3125.2031 1.125.3906.8125.1719 1.3125.4219.5.25.73437.60936.25.35937.25.85937 0 .85937-.6875 1.375-.67187.51563-1.75.51563-.76562 0-1.35937-.26563-.57813-.28123-.90625-.76563-.32813-.48437-.32813-1.04687h1.07813q.03125.54687.4375.875.40625.3125 1.07812.3125.60938 0 .98438-.25.375-.25.375-.67187zm8.29687.1875 2.4375-7.03126h1.23438l-3.17188 8.53126h-.98437l-3.15625-8.53126h1.21875zm8.92188 1.5q-.09375-.1875-.15625-.67186-.75.79686-1.79688.79686-.9375 0-1.54687-.53126-.59375-.53124-.59375-1.35937 0-.98437.75-1.53123.75-.5469 2.125-.5469h1.04687v-.5q0-.5625-.34375-.8906-.32812-.34377-1-.34377-.57812 0-.96875.29687-.39062.28126-.39062.70313h-1.09375q0-.48437.32812-.92187.34375-.4375.92188-.6875.57812-.26563 1.26562-.26563 1.10938 0 1.71875.54687.625.5469.65625 1.5v2.9219q0 .875.21875 1.3906v.09376zm-1.79688-.82813q.51563 0 .96875-.26563.45313-.2656.65625-.6875v-1.29687h-.84375q-2 0-2 1.17187 0 .5.34375.7969.34375.28123.875.28123zm6.0625.82813h-1.07812v-9h1.07812zm5.51563-1.6875q0-.4375-.34375-.67186-.32813-.25-1.15625-.4219-.8125-.17187-1.29688-.42187-.48437-.25-.71875-.57813-.21875-.34374-.21875-.8125 0-.78124.65625-1.3125.65625-.54687 1.6875-.54687 1.07813 0 1.73438.5625.67187.54687.67187 1.40627h-1.07812q0-.4375-.39063-.75-.375-.32814-.9375-.32814-.59375 0-.9375.26564-.32812.25-.32812.65623 0 .39063.3125.59377.3125.2031 1.125.3906.8125.1719 1.3125.4219.5.25.73437.60936.25.35937.25.85937 0 .85937-.6875 1.375-.67187.51563-1.75.51563-.76562 0-1.35937-.26563-.57813-.28123-.90625-.76563-.32813-.48437-.32813-1.04687h1.07813q.03125.54687.4375.875.40625.3125 1.07812.3125.60938 0 .98438-.25.375-.25.375-.67187zm3.78125-6.1875v1.53124h1.17187v.84376h-1.17187v3.92187q0 .39063.15625.57813.15625.1875.53125.1875.1875 0 .51562-.0625v.875q-.42187.125-.82812.125-.71875 0-1.09375-.4375-.375-.45313-.375-1.26563v-3.92187h-1.15625v-.84376h1.15625v-1.53124zm3.70312 7.875h-1.07812v-6.34376h1.07812zm-1.17187-8.01563q0-.26563.15625-.45313.17187-.1875.48437-.1875.3125 0 .46875.1875.17188.1875.17188.45313 0 .25-.17188.4375-.15625.17187-.46875.17187-.3125 0-.48437-.17187-.15625-.1875-.15625-.4375zm6.68749 6.32813q0-.4375-.34375-.67186-.32813-.25-1.15625-.4219-.8125-.17187-1.29688-.42187-.48437-.25-.71874-.57813-.21876-.34374-.21876-.8125 0-.78124.65626-1.3125.65624-.54687 1.6875-.54687 1.07812 0 1.73437.5625.67187.54687.67187 1.40627h-1.07812q0-.4375-.39062-.75-.375-.32814-.9375-.32814-.59376 0-.9375.26564-.32813.25-.32813.65623 0 .39063.3125.59377.3125.2031 1.125.3906.8125.1719 1.3125.4219.5.25.73437.60936.25.35937.25.85937 0 .85937-.6875 1.375-.67187.51563-1.75.51563-.76562 0-1.35937-.26563-.57813-.28123-.90625-.76563-.32812-.48437-.32812-1.04687h1.07812q.03125.54687.4375.875.40625.3125 1.07812.3125.60938 0 .98438-.25.375-.25.375-.67187z"/><path d="m98.38438 583.3128v-8.53124h2.79687q1.39063 0 2.07813.57814.70312.5625.70312 1.6875 0 .60936-.34375 1.0781-.32812.4531-.92187.7031.70312.1875 1.09375.7344.40625.53126.40625 1.28126 0 1.15624-.75 1.8125-.73438.65624-2.09375.65624zm1.125-3.9844v3.0625h1.85937q.79688 0 1.25-.4062.45313-.4063.45313-1.125 0-1.5313-1.6875-1.5313zm0-.9062h1.70312q.73438 0 1.17188-.3594.45312-.375.45312-1.0156 0-.70314-.40625-1.01564-.40625-.32816-1.25-.32816h-1.67187zm8.34375 5.0156q-1.29688 0-2.10938-.84374-.79687-.85936-.79687-2.28126v-.1875q0-.9531.35937-1.6875.35938-.75 1-1.15624.65625-.42186 1.40625-.42186 1.23438 0 1.92188.8125.6875.8125.6875 2.3281v.4531h-4.29688q.03125.9375.54688 1.51566.53125.57814 1.34375.57814.5625 0 .95312-.2344.40625-.2344.71875-.625l.65625.5156q-.79687 1.2344-2.39062 1.2344zm-.14063-5.6875q-.65625 0-1.10937.4844-.4375.4687-.53125 1.3281h3.17187v-.0781q-.04687-.82814-.45312-1.2813-.39063-.4531-1.07813-.4531zm4.6875 5.5625h-1.07812v-9h1.07812zm-.875 2.9375-.60937-.4219q.42187-.6406.42187-1.375v-.54684h1.04688v.45314q0 .5312-.23438 1.04686-.23437.53124-.625.84374zm2.4375-6.15624q0-1.48436.6875-2.35936.6875-.875 1.8125-.875 1.15625 0 1.8125.8125l.04688-.70314h1v6.1875q0 1.23434-.73438 1.9375-.73437.71874-1.95312.71874-.6875 0-1.34375-.2969-.65625-.29684-1-.79684l.5625-.65626q.6875.8594 1.70312.8594.78125 0 1.21875-.45314.45313-.4375.45313-1.25v-.54686q-.65625.7656-1.78125.7656-1.10938 0-1.79688-.8906-.6875-.9063-.6875-2.45314zm1.09375.125q0 1.0625.4375 1.6875.4375.60934 1.23438.60934 1.01562 0 1.5-.9375v-2.8906q-.5-.90624-1.5-.90624-.78125 0-1.23438.60934-.4375.6094-.4375 1.82816zm1.84375-6.76566.625.4844q-.34375.5781-.35937 1.2344v.79686h-1.07813v-.76566q0-.4531.23438-.9531.25-.5156.57812-.7969zm5.5 9.8594h-1.07812v-6.34374h1.07812zm-1.17187-8.0156q0-.26564.15625-.45314.17187-.1875.48437-.1875.3125 0 .46875.1875.17188.1875.17188.45314 0 .25-.17188.4375-.15625.17186-.46875.17186-.3125 0-.48437-.17186-.15625-.1875-.15625-.4375zm4.10937 1.67186v7.07814q0 1.8281-1.65625 1.8281-.35937 0-.65625-.1094v-.85934q.1875.04684.48438.04684.35937 0 .54687-.2031.20313-.1875.20313-.6875v-7.09374zm-1.1875-1.67186q0-.26564.15625-.45314.15625-.1875.46875-.1875.3125 0 .46875.1875.17188.1875.17188.45314 0 .25-.17188.4375-.15625.17186-.46875.17186-.3125 0-.46875-.17186-.15625-.1875-.15625-.4375zm6.98437 8.0156q-.09375-.1875-.15625-.6719-.75.7969-1.79688.7969-.9375 0-1.54686-.53124-.59375-.53126-.59375-1.35936 0-.9844.75-1.5313.74999-.54684 2.12499-.54684h1.04688v-.5q0-.5625-.34376-.89066-.32812-.3437-1-.3437-.57812 0-.96874.29686-.39063.28124-.39063.70314h-1.09374q0-.4844.32812-.9219.34375-.4375.92187-.6875.57812-.2656 1.26562-.2656 1.10938 0 1.71876.54686.625.54684.65624 1.5v2.92184q0 .875.21876 1.39066v.09374zm-1.79687-.8281q.51562 0 .96874-.26564.45313-.26566.65626-.6875v-1.29686h-.84376q-2 0-2 1.17186 0 .5.34376.79684.34374.2813.875.2813z"/><path d="m56.509377 636.79724v3.34376h-1.125v-8.53126h3.15625q1.390623 0 2.1875.71876.796873.7031.796873 1.8906 0 1.2344-.78125 1.90627-.765623.67187-2.21875.67187zm0-.92187h2.03125q.90625 0 1.375-.42187.484373-.4219.484373-1.21876 0-.76564-.484373-1.21874-.46875-.46876-1.3125-.4844h-2.09375zm10.625003 4.26563q-.09375-.1875-.15625-.6719-.75.7969-1.79688.7969-.9375 0-1.546873-.53126-.59375-.53124-.59375-1.35937 0-.98437.75-1.53127.750003-.54686 2.125003-.54686h1.04687v-.5q0-.5625-.34375-.89064-.32812-.34373-1-.34373-.57812 0-.96875.29687-.39062.28126-.39062.70313h-1.093753q0-.48437.328123-.92187.34375-.4375.92188-.6875.57812-.26563 1.26562-.26563 1.10938 0 1.71875.54687.625.54686.65625 1.5v2.92186q0 .875.21875 1.39064v.09376zm-1.79688-.82813q.51563 0 .96875-.26563.45313-.26564.65625-.6875v-1.29687h-.84375q-2 0-2 1.17187 0 .5.34375.79686.34375.28127.875.28127zm2.46875-6.84377h-3.9375v-.84373h3.9375zm5.48438 2.2969q-.25-.03126-.53125-.03126-1.07813 0-1.45313.90626v4.5h-1.07812v-6.34376h1.04687l.01563.73436q.53125-.84373 1.51562-.84373.3125 0 .48438.07813zm3.5625 5.5q-1.29688 0-2.10938-.84376-.79687-.85937-.79687-2.28124v-.1875q0-.95313.35937-1.6875.35938-.75 1-1.15626.65625-.42187 1.40625-.42187 1.23438 0 1.92188.8125.6875.8125.6875 2.32813v.4531h-4.29688q.03125.9375.54688 1.51564.53125.57813 1.34375.57813.5625 0 .95312-.23437.40625-.2344.71875-.625l.65625.5156q-.79687 1.2344-2.39062 1.2344zm-.14063-5.6875q-.65625 0-1.10937.48437-.4375.46873-.53125 1.32813h3.17187v-.07813q-.04687-.82813-.45312-1.28127-.39063-.4531-1.07813-.4531zm2-2.1094h-3.9375v-.84373h3.9375zm2.625 1.32814v7.07813q0 1.82813-1.65625 1.82813-.35937 0-.65625-.1094v-.85936q.1875.04686.48438.04686.35937 0 .54687-.2031.20313-.1875.20313-.6875v-7.09376zm-1.1875-1.67187q0-.26563.15625-.45313.15625-.1875.46875-.1875.3125 0 .46875.1875.17188.1875.17188.45313 0 .25-.17188.4375-.15625.17187-.46875.17187-.3125 0-.46875-.17187-.15625-.1875-.15625-.4375zm6.98438 8.01563q-.09375-.1875-.15625-.6719-.75.7969-1.79688.7969-.9375 0-1.54687-.53126-.59375-.53124-.59375-1.35937 0-.98437.75-1.53127.75-.54686 2.125-.54686h1.04687v-.5q0-.5625-.34375-.89064-.32812-.34373-1-.34373-.57812 0-.96875.29687-.39062.28126-.39062.70313h-1.09375q0-.48437.32812-.92187.34375-.4375.92188-.6875.57812-.26563 1.26562-.26563 1.10938 0 1.71875.54687.625.54686.65625 1.5v2.92186q0 .875.21875 1.39064v.09376zm-1.79688-.82813q.51563 0 .96875-.26563.45313-.26564.65625-.6875v-1.29687h-.84375q-2 0-2 1.17187 0 .5.34375.79686.34375.28127.875.28127zm2.46875-6.84377h-3.9375v-.84373h3.9375zm6.10938 5.9844q0-.4375-.34375-.6719-.32813-.25-1.15625-.42186-.8125-.17187-1.29688-.42187-.48437-.25-.71875-.57813-.21875-.34374-.21875-.8125 0-.78124.65625-1.3125.65625-.54687 1.6875-.54687 1.07813 0 1.73438.5625.67187.54687.67187 1.40623h-1.07812q0-.4375-.39063-.75-.375-.3281-.9375-.3281-.59375 0-.9375.2656-.32812.25-.32812.65627 0 .39063.3125.59373.3125.20314 1.125.39064.8125.17186 1.3125.42186.5.25.73437.6094.25.35937.25.85937 0 .85937-.6875 1.375-.67187.51563-1.75.51563-.76562 0-1.35937-.26563-.57813-.28127-.90625-.76563-.32813-.48437-.32813-1.04687h1.07813q.03125.54687.4375.875.40625.3125 1.07812.3125.60938 0 .98438-.25.375-.25.375-.67187zm7.39062.21874 1.57813-4.875h1.10937l-2.28125 6.34376h-.82812l-2.29688-6.34376h1.10938zm7.82813 1.46876q-.09375-.1875-.15625-.6719-.75.7969-1.79688.7969-.9375 0-1.54687-.53126-.59375-.53124-.59375-1.35937 0-.98437.75-1.53127.75-.54686 2.125-.54686h1.04687v-.5q0-.5625-.34375-.89064-.32812-.34373-1-.34373-.57812 0-.96875.29687-.39062.28126-.39062.70313h-1.09375q0-.48437.32812-.92187.34375-.4375.92188-.6875.57812-.26563 1.26562-.26563 1.10938 0 1.71875.54687.625.54686.65625 1.5v2.92186q0 .875.21875 1.39064v.09376zm-1.79688-.82813q.51563 0 .96875-.26563.45313-.26564.65625-.6875v-1.29687h-.84375q-2 0-2 1.17187 0 .5.34375.79686.34375.28127.875.28127zm6.0625.82813h-1.07812v-9h1.07812zm5.51563-1.6875q0-.4375-.34375-.6719-.32813-.25-1.15625-.42186-.8125-.17187-1.29688-.42187-.48437-.25-.71875-.57813-.21875-.34374-.21875-.8125 0-.78124.65625-1.3125.65625-.54687 1.6875-.54687 1.07813 0 1.73438.5625.67187.54687.67187 1.40623h-1.07812q0-.4375-.39063-.75-.375-.3281-.9375-.3281-.59375 0-.9375.2656-.32812.25-.32812.65627 0 .39063.3125.59373.3125.20314 1.125.39064.8125.17186 1.3125.42186.5.25.73437.6094.25.35937.25.85937 0 .85937-.6875 1.375-.67187.51563-1.75.51563-.76562 0-1.35937-.26563-.57813-.28127-.90625-.76563-.32813-.48437-.32813-1.04687h1.07813q.03125.54687.4375.875.40625.3125 1.07812.3125.60938 0 .98438-.25.375-.25.375-.67187zm3.78125-6.1875v1.53124h1.17187v.84376h-1.17187v3.92187q0 .39063.15625.57813.15625.1875.53125.1875.1875 0 .51562-.0625v.875q-.42187.125-.82812.125-.71875 0-1.09375-.4375-.375-.45313-.375-1.26563v-3.92187h-1.15625v-.84376h1.15625v-1.53124zm3.70312 7.875h-1.07812v-6.34376h1.07812zm-1.17187-8.01563q0-.26563.15625-.45313.17187-.1875.48437-.1875.3125 0 .46875.1875.17188.1875.17188.45313 0 .25-.17188.4375-.15625.17187-.46875.17187-.3125 0-.48437-.17187-.15625-.1875-.15625-.4375zm6.68749 6.32813q0-.4375-.34375-.6719-.32813-.25-1.15625-.42186-.8125-.17187-1.29688-.42187-.48437-.25-.71874-.57813-.21876-.34374-.21876-.8125 0-.78124.65626-1.3125.65624-.54687 1.6875-.54687 1.07812 0 1.73437.5625.67187.54687.67187 1.40623h-1.07812q0-.4375-.39062-.75-.375-.3281-.9375-.3281-.59376 0-.9375.2656-.32813.25-.32813.65627 0 .39063.3125.59373.3125.20314 1.125.39064.8125.17186 1.3125.42186.5.25.73437.6094.25.35937.25.85937 0 .85937-.6875 1.375-.67187.51563-1.75.51563-.76562 0-1.35937-.26563-.57813-.28127-.90625-.76563-.32812-.48437-.32812-1.04687h1.07812q.03125.54687.4375.875.40625.3125 1.07812.3125.60938 0 .98438-.25.375-.25.375-.67187z"/><path d="m142.22812 694.46875q0 1.76565-.73438 2.71875-.73437.9375-2.14062.9375-1.40625 0-2.14062-.9219-.73438-.92185-.75-2.6406v-1.5781q0-1.7813.73437-2.70315.75-.9375 2.14063-.9375 1.39062 0 2.125.92185.75.9219.76562 2.64065zm-1.70312-1.71875q0-1.0625-.29688-1.5469-.28125-.48435-.89062-.48435-.59376 0-.89063.46875-.28125.4531-.29687 1.4375v2.0625q0 1.0469.28124 1.5625.28126.5.92188.5.60938 0 .89062-.4844.28126-.48435.28126-1.48435z"/><path d="m270.7875 698h-1.6875v-6.53125l-2.01562.625v-1.375l3.53125-1.26565h.17187zm8.64063-3.53125q0 1.76565-.73437 2.71875-.73438.9375-2.14063.9375-1.40625 0-2.14063-.9219-.73437-.92185-.75-2.6406v-1.5781q0-1.7813.73438-2.70315.75-.9375 2.14062-.9375 1.39063 0 2.125.92185.75.9219.76563 2.64065zm-1.70313-1.71875q0-1.0625-.29687-1.5469-.28125-.48435-.89063-.48435-.59374 0-.89062.46875-.28125.4531-.29688 1.4375v2.0625q0 1.0469.28126 1.5625.28124.5.92187.5.60937 0 .89063-.4844.28124-.48435.28124-1.48435zm8.70313 1.71875q0 1.76565-.73437 2.71875-.73438.9375-2.14063.9375-1.40625 0-2.14063-.9219-.73437-.92185-.75-2.6406v-1.5781q0-1.7813.73438-2.70315.75-.9375 2.14062-.9375 1.39063 0 2.125.92185.75.9219.76563 2.64065zm-1.70313-1.71875q0-1.0625-.29687-1.5469-.28125-.48435-.89063-.48435-.59374 0-.89062.46875-.28125.4531-.29688 1.4375v2.0625q0 1.0469.28126 1.5625.28124.5.92187.5.60937 0 .89063-.4844.28124-.48435.28124-1.48435z"/><path d="m409.72186 698h-5.84376v-1.15625l2.76564-2.95315q.5625-.60935.82812-1.0781.28124-.46875.28124-.875 0-.5781-.29686-.8906-.28124-.32815-.8125-.32815-.57814 0-.90624.39065-.32814.3906-.32814 1.04685h-1.70312q0-.78125.375-1.42185.375-.6563 1.04686-1.01565.6875-.375 1.5469-.375 1.3125 0 2.04686.64065.73438.625.73438 1.7812 0 .64065-.32814 1.2969-.3281.65625-1.125 1.53125l-1.9375 2.04685h3.65626zm6.90624-3.53125q0 1.76565-.73436 2.71875-.73438.9375-2.14064.9375-1.40624 0-2.1406-.9219-.7344-.92185-.75-2.6406v-1.5781q0-1.7813.73436-2.70315.75-.9375 2.14064-.9375 1.3906 0 2.125.92185.75.9219.7656 2.64065zm-1.7031-1.71875q0-1.0625-.2969-1.5469-.28124-.48435-.8906-.48435-.59376 0-.89064.46875-.28126.4531-.29686 1.4375v2.0625q0 1.0469.28124 1.5625.28126.5.92186.5.6094 0 .89064-.4844.28126-.48435.28126-1.48435zm8.7031 1.71875q0 1.76565-.73436 2.71875-.73438.9375-2.14064.9375-1.40624 0-2.1406-.9219-.7344-.92185-.75-2.6406v-1.5781q0-1.7813.73436-2.70315.75-.9375 2.14064-.9375 1.3906 0 2.125.92185.75.9219.7656 2.64065zm-1.7031-1.71875q0-1.0625-.2969-1.5469-.28124-.48435-.8906-.48435-.59376 0-.89064.46875-.28126.4531-.29686 1.4375v2.0625q0 1.0469.28124 1.5625.28126.5.92186.5.6094 0 .89064-.4844.28126-.48435.28126-1.48435z"/><path d="m542.7969 692.9844h.9062q.64065 0 .95315-.3125.3125-.32815.3125-.8594 0-.5156-.3125-.7969-.29685-.29685-.84375-.29685-.4844 0-.8125.26565-.3281.2656-.3281.6875h-1.6875q0-.6563.35935-1.1875.35935-.5313 1-.82815.65625-.3125 1.4375-.3125 1.34375 0 2.10935.65625.7813.6406.7813 1.78125 0 .59375-.3594 1.09375-.3594.4844-.9375.7344.71875.2656 1.0625.7812.3594.51565.3594 1.2188 0 1.1406-.82815 1.8281-.82815.6875-2.1875.6875-1.28125 0-2.09375-.6719-.8125-.6875-.8125-1.79685h1.6875q0 .48435.3594.79685.375.2969.8906.2969.6094 0 .9531-.3125.3438-.3281.3438-.8594 0-1.2656-1.4063-1.2656h-.9062zm11.0312 1.48435q0 1.76565-.73435 2.71875-.73435.9375-2.14065.9375-1.4062 0-2.1406-.9219-.7344-.92185-.75-2.6406v-1.5781q0-1.7813.7344-2.70315.75-.9375 2.1406-.9375 1.3906 0 2.125.92185.75.9219.7656 2.64065zm-1.7031-1.71875q0-1.0625-.2969-1.5469-.2812-.48435-.8906-.48435-.59375 0-.8906.46875-.2813.4531-.2969 1.4375v2.0625q0 1.0469.28125 1.5625.28125.5.92185.5.6094 0 .89065-.4844.28125-.48435.28125-1.48435zm8.7031 1.71875q0 1.76565-.73435 2.71875-.73435.9375-2.14065.9375-1.4062 0-2.1406-.9219-.7344-.92185-.75-2.6406v-1.5781q0-1.7813.7344-2.70315.75-.9375 2.1406-.9375 1.3906 0 2.125.92185.75.9219.7656 2.64065zm-1.7031-1.71875q0-1.0625-.2969-1.5469-.2812-.48435-.8906-.48435-.59375 0-.8906.46875-.2813.4531-.2969 1.4375v2.0625q0 1.0469.28125 1.5625.28125.5.92185.5.6094 0 .89065-.4844.28125-.48435.28125-1.48435z"/></g></svg>