<svg fill="none" height="730" stroke-linecap="square" stroke-miterlimit="10" viewBox="0 0 580 730" width="580" xmlns="http://www.w3.org/2000/svg" xmlns:xlink="http://www.w3.org/1999/xlink"><clipPath id="a"><path d="m122 29h429v645h-429z"/></clipPath><path d="m0 0h580v730h-580z" fill="none"/><path d="m122.5 29.5v645" stroke="#333" stroke-linecap="butt"/><path d="m229.5 29.5v645" stroke="#ccc" stroke-linecap="butt"/><path d="m336.5 29.5v645" stroke="#ccc" stroke-linecap="butt"/><path d="m443.5 29.5v645" stroke="#ccc" stroke-linecap="butt"/><path d="m551.5 29.5v645" stroke="#ccc" stroke-linecap="butt"/><path d="m157.5 29.5v645"/><path d="m193.5 29.5v645"/><path d="m265.5 29.5v645"/><path d="m300.5 29.5v645"/><path d="m372.5 29.5v645"/><path d="m407.5 29.5v645"/><path d="m479.5 29.5v645"/><path d="m515.5 29.5v645"/><path d="m122.5 674.5v-645" stroke="#000" stroke-linecap="butt"/><path clip-path="url(#a)" d="m122 86v-37h331c1.10458 0 2 .89543 2 2v33c0 1.10457-.89542 2-2 2z"/><path clip-path="url(#a)" d="m122 86v-37h331c1.10458 0 2 .89543 2 2v33c0 1.10457-.89542 2-2 2z" fill="#4472c4"/><path clip-path="url(#a)" d="m122 143v-37h139c1.10458 0 2 .89543 2 2v33c0 1.10457-.89542 2-2 2z"/><path clip-path="url(#a)" d="m122 143v-37h139c1.10458 0 2 .89543 2 2v33c0 1.10457-.89542 2-2 2z" fill="#4472c4"/><path clip-path="url(#a)" d="m122 200v-37h47c1.10457 0 2 .89543 2 2v33c0 1.10457-.89543 2-2 2z"/><path clip-path="url(#a)" d="m122 200v-37h47c1.10457 0 2 .89543 2 2v33c0 1.10457-.89543 2-2 2z" fill="#4472c4"/><path clip-path="url(#a)" d="m122 257v-37h19c1.10457 0 2 .89543 2 2v33c0 1.10458-.89543 2-2 2z"/><path clip-path="url(#a)" d="m122 257v-37h19c1.10457 0 2 .89543 2 2v33c0 1.10458-.89543 2-2 2z" fill="#4472c4"/><path clip-path="url(#a)" d="m122 314v-37h16c1.10457 0 2 .89542 2 2v33c0 1.10458-.89543 2-2 2z"/><path clip-path="url(#a)" d="m122 314v-37h16c1.10457 0 2 .89542 2 2v33c0 1.10458-.89543 2-2 2z" fill="#4472c4"/><path clip-path="url(#a)" d="m122 371v-37h15c1.10457 0 2 .89542 2 2v33c0 1.10458-.89543 2-2 2z"/><path clip-path="url(#a)" d="m122 371v-37h15c1.10457 0 2 .89542 2 2v33c0 1.10458-.89543 2-2 2z" fill="#4472c4"/><path clip-path="url(#a)" d="m122 427v-37h15c1.10457 0 2 .89542 2 2v33c0 1.10458-.89543 2-2 2z"/><path clip-path="url(#a)" d="m122 427v-37h15c1.10457 0 2 .89542 2 2v33c0 1.10458-.89543 2-2 2z" fill="#4472c4"/><path clip-path="url(#a)" d="m122 484v-37h14c1.10457 0 2 .89542 2 2v33c0 1.10458-.89543 2-2 2z"/><path clip-path="url(#a)" d="m122 484v-37h14c1.10457 0 2 .89542 2 2v33c0 1.10458-.89543 2-2 2z" fill="#4472c4"/><path clip-path="url(#a)" d="m122 541v-37h13c1.10457 0 2 .89542 2 2v33c0 1.10455-.89543 2-2 2z"/><path clip-path="url(#a)" d="m122 541v-37h13c1.10457 0 2 .89542 2 2v33c0 1.10455-.89543 2-2 2z" fill="#4472c4"/><path clip-path="url(#a)" d="m122 598v-37h1c.552284 0 1 .4477 1 1v35c0 .5523-.447716 1-1 1z"/><path clip-path="url(#a)" d="m122 598v-37h1c.552284 0 1 .4477 1 1v35c0 .5523-.447716 1-1 1z" fill="#4472c4"/><path clip-path="url(#a)" d="m122 655v-37h1.5c.82843 0 1.5.6716 1.5 1.5v34c0 .8284-.67157 1.5-1.5 1.5z"/><path clip-path="url(#a)" d="m122 655v-37h1.5c.82843 0 1.5.6716 1.5 1.5v34c0 .8284-.67157 1.5-1.5 1.5z" fill="#4472c4"/><path d="m122.5 680.5v-12" stroke="#000" stroke-linecap="butt"/><path d="m229.5 680.5v-12" stroke="#000" stroke-linecap="butt"/><path d="m336.5 680.5v-12" stroke="#000" stroke-linecap="butt"/><path d="m443.5 680.5v-12" stroke="#000" stroke-linecap="butt"/><path d="m551.5 680.5v-12" stroke="#000" stroke-linecap="butt"/><path d="m424.39795 62.875v1.40625h-.15625q-1.15625.015625-1.85938.59375-.6875.578125-.82812 1.609375.67187-.6875 1.70312-.6875 1.125 0 1.78125.796875.65625.796875.65625 2.09375 0 .828125-.35937 1.5-.35938.671875-1.03125 1.0625-.65625.375-1.48438.375-1.34375 0-2.17187-.9375-.82813-.953125-.82813-2.515625v-.609375q0-1.390625.51563-2.453125.53125-1.0625 1.5-1.640625.98437-.578125 2.28125-.59375zm-1.65625 4.28125q-.40625 0-.75.21875-.32813.203125-.48438.5625v.515625q0 .84375.32813 1.328125.34375.46875.95312.46875.54688 0 .875-.421875.34375-.4375.34375-1.125 0-.703125-.34375-1.125-.34375-.421875-.92187-.421875zm9.90625 4.34375h-5.84375v-1.15625l2.76562-2.953125q.5625-.609375.82813-1.078125.28125-.46875.28125-.875 0-.578125-.29688-.890625-.28125-.328125-.8125-.328125-.57812 0-.90625.390625-.32812.390625-.32812 1.046875h-1.70313q0-.78125.375-1.421875.375-.65625 1.04688-1.015625.6875-.375 1.54687-.375 1.3125 0 2.04688.640625.73437.625.73437 1.78125 0 .640625-.32812 1.296875-.32813.65625-1.125 1.53125l-1.9375 2.046875h3.65625zm1.3125-.828125q0-.40625.26562-.65625.28125-.25.6875-.25.42188 0 .6875.25.28125.25.28125.65625 0 .390625-.28125.640625-.26562.25-.6875.25-.40625 0-.6875-.25-.26562-.25-.26562-.640625zm6.95312.828125h-1.6875v-6.53125l-2.01562.625v-1.375l3.53125-1.265625h.17187zm8.64063-3.53125q0 1.765625-.73438 2.71875-.73437.9375-2.14062.9375-1.40625 0-2.14063-.921875-.73437-.921875-.75-2.640625v-1.578125q0-1.78125.73438-2.703125.75-.9375 2.14062-.9375 1.39063 0 2.125.921875.75.921875.76563 2.640625zm-1.70313-1.71875q0-1.0625-.29687-1.546875-.28125-.484375-.89063-.484375-.59375 0-.89062.46875-.28125.453125-.29688 1.4375v2.0625q0 1.046875.28125 1.5625.28125.5.92188.5.60937 0 .89062-.484375.28125-.484375.28125-1.484375z" stroke="#4472c4" stroke-linecap="round" stroke-linejoin="round" stroke-width="3"/><path d="m424.39795 62.875v1.40625h-.15625q-1.15625.015625-1.85938.59375-.6875.578125-.82812 1.609375.67187-.6875 1.70312-.6875 1.125 0 1.78125.796875.65625.796875.65625 2.09375 0 .828125-.35937 1.5-.35938.671875-1.03125 1.0625-.65625.375-1.48438.375-1.34375 0-2.17187-.9375-.82813-.953125-.82813-2.515625v-.609375q0-1.390625.51563-2.453125.53125-1.0625 1.5-1.640625.98437-.578125 2.28125-.59375zm-1.65625 4.28125q-.40625 0-.75.21875-.32813.203125-.48438.5625v.515625q0 .84375.32813 1.328125.34375.46875.95312.46875.54688 0 .875-.421875.34375-.4375.34375-1.125 0-.703125-.34375-1.125-.34375-.421875-.92187-.421875zm9.90625 4.34375h-5.84375v-1.15625l2.76562-2.953125q.5625-.609375.82813-1.078125.28125-.46875.28125-.875 0-.578125-.29688-.890625-.28125-.328125-.8125-.328125-.57812 0-.90625.390625-.32812.390625-.32812 1.046875h-1.70313q0-.78125.375-1.421875.375-.65625 1.04688-1.015625.6875-.375 1.54687-.375 1.3125 0 2.04688.640625.73437.625.73437 1.78125 0 .640625-.32812 1.296875-.32813.65625-1.125 1.53125l-1.9375 2.046875h3.65625zm1.3125-.828125q0-.40625.26562-.65625.28125-.25.6875-.25.42188 0 .6875.25.28125.25.28125.65625 0 .390625-.28125.640625-.26562.25-.6875.25-.40625 0-.6875-.25-.26562-.25-.26562-.640625zm6.95312.828125h-1.6875v-6.53125l-2.01562.625v-1.375l3.53125-1.265625h.17187zm8.64063-3.53125q0 1.765625-.73438 2.71875-.73437.9375-2.14062.9375-1.40625 0-2.14063-.921875-.73437-.921875-.75-2.640625v-1.578125q0-1.78125.73438-2.703125.75-.9375 2.14062-.9375 1.39063 0 2.125.921875.75.921875.76563 2.640625zm-1.70313-1.71875q0-1.0625-.29687-1.546875-.28125-.484375-.89063-.484375-.59375 0-.89062.46875-.28125.453125-.29688 1.4375v2.0625q0 1.046875.28125 1.5625.28125.5.92188.5.60937 0 .89062-.484375.28125-.484375.28125-1.484375z" fill="#fff"/><path d="m234.11324 128.5h-5.84375v-1.15625l2.76562-2.953125q.5625-.609375.82813-1.078125.28125-.46875.28125-.875 0-.578125-.29688-.890625-.28125-.328125-.8125-.328125-.57812 0-.90625.390625-.32812.390625-.32812 1.046875h-1.70313q0-.78125.375-1.421875.375-.65625 1.04688-1.015625.6875-.375 1.54687-.375 1.3125 0 2.04688.640625.73437.625.73437 1.78125 0 .640625-.32812 1.296875-.32813.65625-1.125 1.53125l-1.9375 2.046875h3.65625zm5.75-8.625v1.40625h-.15625q-1.15625.015625-1.85938.59375-.6875.578125-.82812 1.609375.67187-.6875 1.70312-.6875 1.125 0 1.78125.796875.65625.796875.65625 2.09375 0 .828125-.35937 1.5-.35938.671875-1.03125 1.0625-.65625.375-1.48438.375-1.34375 0-2.17187-.9375-.82813-.953125-.82813-2.515625v-.609375q0-1.390625.51563-2.453125.53125-1.0625 1.5-1.640625.98437-.578125 2.28125-.59375zm-1.65625 4.28125q-.40625 0-.75.21875-.32813.203125-.48438.5625v.515625q0 .84375.32813 1.328125.34375.46875.95312.46875.54688 0 .875-.421875.34375-.4375.34375-1.125 0-.703125-.34375-1.125-.34375-.421875-.92187-.421875zm4.21875 3.515625q0-.40625.26562-.65625.28125-.25.6875-.25.42188 0 .6875.25.28125.25.28125.65625 0 .390625-.28125.640625-.26562.25-.6875.25-.40625 0-.6875-.25-.26562-.25-.26562-.640625zm4.5625-4.1875h.90625q.64062 0 .95312-.3125.3125-.328125.3125-.859375 0-.515625-.3125-.796875-.29687-.296875-.84375-.296875-.48437 0-.8125.265625-.32812.265625-.32812.6875h-1.6875q0-.65625.35937-1.1875.35938-.53125 1-.828125.65625-.3125 1.4375-.3125 1.34375 0 2.10938.65625.78125.640625.78125 1.78125 0 .59375-.35938 1.09375-.35937.484375-.9375.734375.71875.265625 1.0625.78125.35938.515625.35938 1.21875 0 1.140625-.82813 1.828125-.82812.6875-2.1875.6875-1.28125 0-2.09375-.671875-.8125-.6875-.8125-1.796875h1.6875q0 .484375.35938.796875.375.296875.89062.296875.60938 0 .95313-.3125.34375-.328125.34375-.859375 0-1.265625-1.40625-1.265625h-.90625zm9.24998 1.609375q-.67186.640625-1.54686.640625-1.14062 0-1.82812-.765625-.67188-.78125-.67188-2.09375 0-.84375.35938-1.546875.375-.703125 1.03125-1.09375.65625-.390625 1.48437-.390625.84375 0 1.49999.421875.65625.421875 1.01562 1.21875.35938.796875.375 1.8125v.625q0 2.140625-1.0625 3.359375-1.06248 1.21875-3.01561 1.29687h-.40625v-1.406245l.375-.015625q2.20311-.09375 2.39061-2.0625zm-1.14061-.65625q.42188 0 .70313-.203125.29686-.21875.45311-.515625v-.6875q0-.859375-.32811-1.328125-.32813-.484375-.875-.484375-.51563 0-.84375.46875-.32813.453125-.32813 1.15625 0 .703125.3125 1.15625.32813.4375.90625.4375z" stroke="#4472c4" stroke-linecap="round" stroke-linejoin="round" stroke-width="3"/><path d="m234.11324 128.5h-5.84375v-1.15625l2.76562-2.953125q.5625-.609375.82813-1.078125.28125-.46875.28125-.875 0-.578125-.29688-.890625-.28125-.328125-.8125-.328125-.57812 0-.90625.390625-.32812.390625-.32812 1.046875h-1.70313q0-.78125.375-1.421875.375-.65625 1.04688-1.015625.6875-.375 1.54687-.375 1.3125 0 2.04688.640625.73437.625.73437 1.78125 0 .640625-.32812 1.296875-.32813.65625-1.125 1.53125l-1.9375 2.046875h3.65625zm5.75-8.625v1.40625h-.15625q-1.15625.015625-1.85938.59375-.6875.578125-.82812 1.609375.67187-.6875 1.70312-.6875 1.125 0 1.78125.796875.65625.796875.65625 2.09375 0 .828125-.35937 1.5-.35938.671875-1.03125 1.0625-.65625.375-1.48438.375-1.34375 0-2.17187-.9375-.82813-.953125-.82813-2.515625v-.609375q0-1.390625.51563-2.453125.53125-1.0625 1.5-1.640625.98437-.578125 2.28125-.59375zm-1.65625 4.28125q-.40625 0-.75.21875-.32813.203125-.48438.5625v.515625q0 .84375.32813 1.328125.34375.46875.95312.46875.54688 0 .875-.421875.34375-.4375.34375-1.125 0-.703125-.34375-1.125-.34375-.421875-.92187-.421875zm4.21875 3.515625q0-.40625.26562-.65625.28125-.25.6875-.25.42188 0 .6875.25.28125.25.28125.65625 0 .390625-.28125.640625-.26562.25-.6875.25-.40625 0-.6875-.25-.26562-.25-.26562-.640625zm4.5625-4.1875h.90625q.64062 0 .95312-.3125.3125-.328125.3125-.859375 0-.515625-.3125-.796875-.29687-.296875-.84375-.296875-.48437 0-.8125.265625-.32812.265625-.32812.6875h-1.6875q0-.65625.35937-1.1875.35938-.53125 1-.828125.65625-.3125 1.4375-.3125 1.34375 0 2.10938.65625.78125.640625.78125 1.78125 0 .59375-.35938 1.09375-.35937.484375-.9375.734375.71875.265625 1.0625.78125.35938.515625.35938 1.21875 0 1.140625-.82813 1.828125-.82812.6875-2.1875.6875-1.28125 0-2.09375-.671875-.8125-.6875-.8125-1.796875h1.6875q0 .484375.35938.796875.375.296875.89062.296875.60938 0 .95313-.3125.34375-.328125.34375-.859375 0-1.265625-1.40625-1.265625h-.90625zm9.24998 1.609375q-.67186.640625-1.54686.640625-1.14062 0-1.82812-.765625-.67188-.78125-.67188-2.09375 0-.84375.35938-1.546875.375-.703125 1.03125-1.09375.65625-.390625 1.48437-.390625.84375 0 1.49999.421875.65625.421875 1.01562 1.21875.35938.796875.375 1.8125v.625q0 2.140625-1.0625 3.359375-1.06248 1.21875-3.01561 1.29687h-.40625v-1.406245l.375-.015625q2.20311-.09375 2.39061-2.0625zm-1.14061-.65625q.42188 0 .70313-.203125.29686-.21875.45311-.515625v-.6875q0-.859375-.32811-1.328125-.32813-.484375-.875-.484375-.51563 0-.84375.46875-.32813.453125-.32813 1.15625 0 .703125.3125 1.15625.32813.4375.90625.4375z" fill="#fff"/><path d="m146.61906 182.09375q-.67187.64063-1.54687.64063-1.14063 0-1.82813-.76563-.67187-.78125-.67187-2.09375 0-.84375.35937-1.54688.375-.70312 1.03125-1.09374.65625-.39063 1.48438-.39063.84375 0 1.5.42187.65625.42188 1.01562 1.21876.35938.79687.375 1.8125v.625q0 2.14062-1.0625 3.35937-1.0625 1.21875-3.01562 1.29687h-.40625v-1.40624l.375-.01563q2.20312-.09375 2.39062-2.0625zm-1.14062-.65625q.42187 0 .70312-.20312.29688-.21876.45313-.51563v-.6875q0-.85937-.32813-1.32813-.32812-.48437-.875-.48437-.51562 0-.84375.46875-.32812.45312-.32812 1.15625 0 .70313.3125 1.15625.32812.4375.90625.4375zm4.32812 3.23438q0-.40626.26563-.65626.28125-.25.6875-.25.42187 0 .6875.25.28125.25.28125.65626 0 .39062-.28125.64062-.26563.25-.6875.25-.40625 0-.6875-.25-.26563-.25-.26563-.64062zm6.95313.82812h-1.6875v-6.53125l-2.01563.625v-1.375l3.53125-1.26563h.17188zm7 0h-1.6875v-6.53125l-2.01563.625v-1.375l3.53125-1.26563h.17188z" stroke="#4472c4" stroke-linecap="round" stroke-linejoin="round" stroke-width="3"/><path d="m146.61906 182.09375q-.67187.64063-1.54687.64063-1.14063 0-1.82813-.76563-.67187-.78125-.67187-2.09375 0-.84375.35937-1.54688.375-.70312 1.03125-1.09374.65625-.39063 1.48438-.39063.84375 0 1.5.42187.65625.42188 1.01562 1.21876.35938.79687.375 1.8125v.625q0 2.14062-1.0625 3.35937-1.0625 1.21875-3.01562 1.29687h-.40625v-1.40624l.375-.01563q2.20312-.09375 2.39062-2.0625zm-1.14062-.65625q.42187 0 .70312-.20312.29688-.21876.45313-.51563v-.6875q0-.85937-.32813-1.32813-.32812-.48437-.875-.48437-.51562 0-.84375.46875-.32812.45312-.32812 1.15625 0 .70313.3125 1.15625.32812.4375.90625.4375zm4.32812 3.23438q0-.40626.26563-.65626.28125-.25.6875-.25.42187 0 .6875.25.28125.25.28125.65626 0 .39062-.28125.64062-.26563.25-.6875.25-.40625 0-.6875-.25-.26563-.25-.26563-.64062zm6.95313.82812h-1.6875v-6.53125l-2.01563.625v-1.375l3.53125-1.26563h.17188zm7 0h-1.6875v-6.53125l-2.01563.625v-1.375l3.53125-1.26563h.17188z" fill="#fff"/><path d="m156.86359 237.48438h.90625q.64062 0 .95312-.3125.3125-.32813.3125-.85938 0-.51562-.3125-.79688-.29687-.29687-.84375-.29687-.48437 0-.8125.26563-.32812.26562-.32812.6875h-1.6875q0-.65626.35937-1.1875.35938-.53126 1-.82813.65625-.3125 1.4375-.3125 1.34375 0 2.10938.65625.78125.64062.78125 1.78125 0 .59375-.35938 1.09375-.35937.48438-.9375.73438.71875.26562 1.0625.78124.35938.51563.35938 1.21876 0 1.14062-.82813 1.82812-.82812.6875-2.1875.6875-1.28125 0-2.09375-.67188-.8125-.6875-.8125-1.79687h1.6875q0 .48437.35938.79687.375.29688.89062.29688.60938 0 .95313-.3125.34375-.32812.34375-.85938 0-1.26562-1.40625-1.26562h-.90625zm5.4375 4.1875q0-.40626.26562-.65626.28125-.25.6875-.25.42188 0 .6875.25.28125.25.28125.65626 0 .39062-.28125.64062-.26562.25-.6875.25-.40625 0-.6875-.25-.26562-.25-.26562-.64062zm8.40625-5.4375q0 .625-.3125 1.10937-.3125.46875-.85938.76563.625.29687.98438.82812.375.51562.375 1.21875 0 1.14063-.78125 1.8125-.76563.65625-2.10938.65625-1.32812 0-2.10937-.65625-.76563-.67187-.76563-1.8125 0-.70313.35938-1.23437.35937-.53126.98437-.8125-.54687-.29688-.85937-.76563-.3125-.48437-.3125-1.10937 0-1.09376.71875-1.73438.73437-.65625 1.98437-.65625 1.25 0 1.96875.65625.73438.64062.73438 1.73438zm-1.51563 3.79687q0-.54687-.32812-.875-.3125-.34375-.85938-.34375-.54687 0-.875.32812-.3125.32813-.3125.89063 0 .54687.3125.89063.32813.32812.89063.32812.54687 0 .85937-.3125.3125-.32812.3125-.90625zm-.17187-3.71875q0-.5-.26563-.79688-.26562-.29687-.75-.29687-.46875 0-.73437.29687-.26563.28126-.26563.79688 0 .51562.26563.82812.26562.3125.73437.3125.48438 0 .75-.3125.26563-.3125.26563-.82812zm8.14062 2.96875h.96875v1.375h-.96875v1.84375h-1.70312v-1.84375h-3.48438l-.07812-1.0625 3.54687-5.625h1.71875zm-3.57812 0h1.875v-3l-.10938.1875z" stroke="#fff" stroke-linecap="round" stroke-linejoin="round" stroke-width="3"/><path d="m156.86359 237.48438h.90625q.64062 0 .95312-.3125.3125-.32813.3125-.85938 0-.51562-.3125-.79688-.29687-.29687-.84375-.29687-.48437 0-.8125.26563-.32812.26562-.32812.6875h-1.6875q0-.65626.35937-1.1875.35938-.53126 1-.82813.65625-.3125 1.4375-.3125 1.34375 0 2.10938.65625.78125.64062.78125 1.78125 0 .59375-.35938 1.09375-.35937.48438-.9375.73438.71875.26562 1.0625.78124.35938.51563.35938 1.21876 0 1.14062-.82813 1.82812-.82812.6875-2.1875.6875-1.28125 0-2.09375-.67188-.8125-.6875-.8125-1.79687h1.6875q0 .48437.35938.79687.375.29688.89062.29688.60938 0 .95313-.3125.34375-.32812.34375-.85938 0-1.26562-1.40625-1.26562h-.90625zm5.4375 4.1875q0-.40626.26562-.65626.28125-.25.6875-.25.42188 0 .6875.25.28125.25.28125.65626 0 .39062-.28125.64062-.26562.25-.6875.25-.40625 0-.6875-.25-.26562-.25-.26562-.64062zm8.40625-5.4375q0 .625-.3125 1.10937-.3125.46875-.85938.76563.625.29687.98438.82812.375.51562.375 1.21875 0 1.14063-.78125 1.8125-.76563.65625-2.10938.65625-1.32812 0-2.10937-.65625-.76563-.67187-.76563-1.8125 0-.70313.35938-1.23437.35937-.53126.98437-.8125-.54687-.29688-.85937-.76563-.3125-.48437-.3125-1.10937 0-1.09376.71875-1.73438.73437-.65625 1.98437-.65625 1.25 0 1.96875.65625.73438.64062.73438 1.73438zm-1.51563 3.79687q0-.54687-.32812-.875-.3125-.34375-.85938-.34375-.54687 0-.875.32812-.3125.32813-.3125.89063 0 .54687.3125.89063.32813.32812.89063.32812.54687 0 .85937-.3125.3125-.32812.3125-.90625zm-.17187-3.71875q0-.5-.26563-.79688-.26562-.29687-.75-.29687-.46875 0-.73437.29687-.26563.28126-.26563.79688 0 .51562.26563.82812.26562.3125.73437.3125.48438 0 .75-.3125.26563-.3125.26563-.82812zm8.14062 2.96875h.96875v1.375h-.96875v1.84375h-1.70312v-1.84375h-3.48438l-.07812-1.0625 3.54687-5.625h1.71875zm-3.57812 0h1.875v-3l-.10938.1875z" fill="#4472c4"/><path d="m154.47731 294.48438h.90625q.64063 0 .95313-.3125.3125-.32813.3125-.85938 0-.51562-.3125-.79688-.29688-.29687-.84375-.29687-.48438 0-.8125.26563-.32813.26562-.32813.6875h-1.6875q0-.65626.35938-1.1875.35937-.53126 1-.82813.65625-.3125 1.4375-.3125 1.34375 0 2.10937.65625.78125.64062.78125 1.78125 0 .59375-.35937 1.09375-.35938.48438-.9375.73438.71875.26562 1.0625.78124.35937.51563.35937 1.21876 0 1.14062-.82812 1.82812-.82813.6875-2.1875.6875-1.28125 0-2.09375-.67188-.8125-.6875-.8125-1.79687h1.6875q0 .48437.35937.79687.375.29688.89063.29688.60937 0 .95312-.3125.34375-.32812.34375-.85938 0-1.26562-1.40625-1.26562h-.90625zm5.4375 4.1875q0-.40626.26563-.65626.28125-.25.6875-.25.42187 0 .6875.25.28125.25.28125.65626 0 .39062-.28125.64062-.26563.25-.6875.25-.40625 0-.6875-.25-.26563-.25-.26563-.64062zm4.5625-4.1875h.90625q.64063 0 .95313-.3125.3125-.32813.3125-.85938 0-.51562-.3125-.79688-.29688-.29687-.84375-.29687-.48438 0-.8125.26563-.32813.26562-.32813.6875h-1.6875q0-.65626.35938-1.1875.35937-.53126 1-.82813.65625-.3125 1.4375-.3125 1.34375 0 2.10937.65625.78125.64062.78125 1.78125 0 .59375-.35937 1.09375-.35938.48438-.9375.73438.71875.26562 1.0625.78124.35937.51563.35937 1.21876 0 1.14062-.82812 1.82812-.82813.6875-2.1875.6875-1.28125 0-2.09375-.67188-.8125-.6875-.8125-1.79687h1.6875q0 .48437.35937.79687.375.29688.89063.29688.60937 0 .95312-.3125.34375-.32812.34375-.85938 0-1.26562-1.40625-1.26562h-.90625zm9.25 1.60937q-.67187.64063-1.54687.64063-1.14063 0-1.82813-.76563-.67187-.78125-.67187-2.09375 0-.84375.35937-1.54688.375-.70312 1.03125-1.09374.65625-.39063 1.48438-.39063.84375 0 1.5.42187.65625.42188 1.01562 1.21876.35938.79687.375 1.8125v.625q0 2.14062-1.0625 3.35937-1.0625 1.21875-3.01562 1.29687h-.40625v-1.40624l.375-.01563q2.20312-.09375 2.39062-2.0625zm-1.14062-.65625q.42187 0 .70312-.20312.29688-.21876.45313-.51563v-.6875q0-.85937-.32813-1.32813-.32812-.48437-.875-.48437-.51562 0-.84375.46875-.32812.45312-.32812 1.15625 0 .70313.3125 1.15625.32812.4375.90625.4375z" stroke="#fff" stroke-linecap="round" stroke-linejoin="round" stroke-width="3"/><path d="m154.47731 294.48438h.90625q.64063 0 .95313-.3125.3125-.32813.3125-.85938 0-.51562-.3125-.79688-.29688-.29687-.84375-.29687-.48438 0-.8125.26563-.32813.26562-.32813.6875h-1.6875q0-.65626.35938-1.1875.35937-.53126 1-.82813.65625-.3125 1.4375-.3125 1.34375 0 2.10937.65625.78125.64062.78125 1.78125 0 .59375-.35937 1.09375-.35938.48438-.9375.73438.71875.26562 1.0625.78124.35937.51563.35937 1.21876 0 1.14062-.82812 1.82812-.82813.6875-2.1875.6875-1.28125 0-2.09375-.67188-.8125-.6875-.8125-1.79687h1.6875q0 .48437.35937.79687.375.29688.89063.29688.60937 0 .95312-.3125.34375-.32812.34375-.85938 0-1.26562-1.40625-1.26562h-.90625zm5.4375 4.1875q0-.40626.26563-.65626.28125-.25.6875-.25.42187 0 .6875.25.28125.25.28125.65626 0 .39062-.28125.64062-.26563.25-.6875.25-.40625 0-.6875-.25-.26563-.25-.26563-.64062zm4.5625-4.1875h.90625q.64063 0 .95313-.3125.3125-.32813.3125-.85938 0-.51562-.3125-.79688-.29688-.29687-.84375-.29687-.48438 0-.8125.26563-.32813.26562-.32813.6875h-1.6875q0-.65626.35938-1.1875.35937-.53126 1-.82813.65625-.3125 1.4375-.3125 1.34375 0 2.10937.65625.78125.64062.78125 1.78125 0 .59375-.35937 1.09375-.35938.48438-.9375.73438.71875.26562 1.0625.78124.35937.51563.35937 1.21876 0 1.14062-.82812 1.82812-.82813.6875-2.1875.6875-1.28125 0-2.09375-.67188-.8125-.6875-.8125-1.79687h1.6875q0 .48437.35937.79687.375.29688.89063.29688.60937 0 .95312-.3125.34375-.32812.34375-.85938 0-1.26562-1.40625-1.26562h-.90625zm9.25 1.60937q-.67187.64063-1.54687.64063-1.14063 0-1.82813-.76563-.67187-.78125-.67187-2.09375 0-.84375.35937-1.54688.375-.70312 1.03125-1.09374.65625-.39063 1.48438-.39063.84375 0 1.5.42187.65625.42188 1.01562 1.21876.35938.79687.375 1.8125v.625q0 2.14062-1.0625 3.35937-1.0625 1.21875-3.01562 1.29687h-.40625v-1.40624l.375-.01563q2.20312-.09375 2.39062-2.0625zm-1.14062-.65625q.42187 0 .70312-.20312.29688-.21876.45313-.51563v-.6875q0-.85937-.32813-1.32813-.32812-.48437-.875-.48437-.51562 0-.84375.46875-.32812.45312-.32812 1.15625 0 .70313.3125 1.15625.32812.4375.90625.4375z" fill="#4472c4"/><path d="m153.15549 351.48438h.90625q.64062 0 .95312-.3125.3125-.32813.3125-.85938 0-.51562-.3125-.79688-.29687-.29687-.84375-.29687-.48437 0-.8125.26563-.32812.26562-.32812.6875h-1.6875q0-.65626.35937-1.1875.35938-.53126 1-.82813.65625-.3125 1.4375-.3125 1.34375 0 2.10938.65625.78125.64062.78125 1.78125 0 .59375-.35938 1.09375-.35937.48438-.9375.73438.71875.26562 1.0625.78124.35938.51563.35938 1.21876 0 1.14062-.82813 1.82812-.82812.6875-2.1875.6875-1.28125 0-2.09375-.67188-.8125-.6875-.8125-1.79687h1.6875q0 .48437.35938.79687.375.29688.89062.29688.60938 0 .95313-.3125.34375-.32812.34375-.85938 0-1.26562-1.40625-1.26562h-.90625zm5.4375 4.1875q0-.40626.26562-.65626.28125-.25.6875-.25.42188 0 .6875.25.28125.25.28125.65626 0 .39062-.28125.64062-.26562.25-.6875.25-.40625 0-.6875-.25-.26562-.25-.26562-.64062zm6.95312.82812h-1.6875v-6.53125l-2.01562.625v-1.375l3.53125-1.26563h.17187zm7.90625-3.21875h.96875v1.375h-.96875v1.84375h-1.70312v-1.84375h-3.48438l-.07812-1.0625 3.54687-5.625h1.71875zm-3.57812 0h1.875v-3l-.10938.1875z" stroke="#fff" stroke-linecap="round" stroke-linejoin="round" stroke-width="3"/><path d="m153.15549 351.48438h.90625q.64062 0 .95312-.3125.3125-.32813.3125-.85938 0-.51562-.3125-.79688-.29687-.29687-.84375-.29687-.48437 0-.8125.26563-.32812.26562-.32812.6875h-1.6875q0-.65626.35937-1.1875.35938-.53126 1-.82813.65625-.3125 1.4375-.3125 1.34375 0 2.10938.65625.78125.64062.78125 1.78125 0 .59375-.35938 1.09375-.35937.48438-.9375.73438.71875.26562 1.0625.78124.35938.51563.35938 1.21876 0 1.14062-.82813 1.82812-.82812.6875-2.1875.6875-1.28125 0-2.09375-.67188-.8125-.6875-.8125-1.79687h1.6875q0 .48437.35938.79687.375.29688.89062.29688.60938 0 .95313-.3125.34375-.32812.34375-.85938 0-1.26562-1.40625-1.26562h-.90625zm5.4375 4.1875q0-.40626.26562-.65626.28125-.25.6875-.25.42188 0 .6875.25.28125.25.28125.65626 0 .39062-.28125.64062-.26562.25-.6875.25-.40625 0-.6875-.25-.26562-.25-.26562-.64062zm6.95312.82812h-1.6875v-6.53125l-2.01562.625v-1.375l3.53125-1.26563h.17187zm7.90625-3.21875h.96875v1.375h-.96875v1.84375h-1.70312v-1.84375h-3.48438l-.07812-1.0625 3.54687-5.625h1.71875zm-3.57812 0h1.875v-3l-.10938.1875z" fill="#4472c4"/><path d="m153.01706 407.48438h.90625q.64062 0 .95312-.3125.3125-.32813.3125-.85938 0-.51562-.3125-.79688-.29687-.29687-.84375-.29687-.48437 0-.8125.26563-.32812.26562-.32812.6875h-1.6875q0-.65626.35937-1.1875.35938-.53126 1-.82813.65625-.3125 1.4375-.3125 1.34375 0 2.10938.65625.78125.64062.78125 1.78125 0 .59375-.35938 1.09375-.35937.48438-.9375.73438.71875.26562 1.0625.78124.35938.51563.35938 1.21876 0 1.14062-.82813 1.82812-.82812.6875-2.1875.6875-1.28125 0-2.09375-.67188-.8125-.6875-.8125-1.79687h1.6875q0 .48437.35938.79687.375.29688.89062.29688.60938 0 .95313-.3125.34375-.32812.34375-.85938 0-1.26562-1.40625-1.26562h-.90625zm5.4375 4.1875q0-.40626.26562-.65626.28125-.25.6875-.25.42188 0 .6875.25.28125.25.28125.65626 0 .39062-.28125.64062-.26562.25-.6875.25-.40625 0-.6875-.25-.26562-.25-.26562-.64062zm6.95312.82812h-1.6875v-6.53125l-2.01562.625v-1.375l3.53125-1.26563h.17187zm8.73438 0h-5.84375v-1.15625l2.76562-2.95313q.5625-.60937.82813-1.07812.28125-.46875.28125-.875 0-.57812-.29688-.89062-.28125-.32813-.8125-.32813-.57812 0-.90625.39063-.32812.39062-.32812 1.04687h-1.70313q0-.78125.375-1.42187.375-.65626 1.04688-1.01563.6875-.375 1.54687-.375 1.3125 0 2.04688.64063.73437.625.73437 1.78124 0 .64063-.32812 1.29688-.32813.65625-1.125 1.53125l-1.9375 2.04687h3.65625z" stroke="#fff" stroke-linecap="round" stroke-linejoin="round" stroke-width="3"/><path d="m153.01706 407.48438h.90625q.64062 0 .95312-.3125.3125-.32813.3125-.85938 0-.51562-.3125-.79688-.29687-.29687-.84375-.29687-.48437 0-.8125.26563-.32812.26562-.32812.6875h-1.6875q0-.65626.35937-1.1875.35938-.53126 1-.82813.65625-.3125 1.4375-.3125 1.34375 0 2.10938.65625.78125.64062.78125 1.78125 0 .59375-.35938 1.09375-.35937.48438-.9375.73438.71875.26562 1.0625.78124.35938.51563.35938 1.21876 0 1.14062-.82813 1.82812-.82812.6875-2.1875.6875-1.28125 0-2.09375-.67188-.8125-.6875-.8125-1.79687h1.6875q0 .48437.35938.79687.375.29688.89062.29688.60938 0 .95313-.3125.34375-.32812.34375-.85938 0-1.26562-1.40625-1.26562h-.90625zm5.4375 4.1875q0-.40626.26562-.65626.28125-.25.6875-.25.42188 0 .6875.25.28125.25.28125.65626 0 .39062-.28125.64062-.26562.25-.6875.25-.40625 0-.6875-.25-.26562-.25-.26562-.64062zm6.95312.82812h-1.6875v-6.53125l-2.01562.625v-1.375l3.53125-1.26563h.17187zm8.73438 0h-5.84375v-1.15625l2.76562-2.95313q.5625-.60937.82813-1.07812.28125-.46875.28125-.875 0-.57812-.29688-.89062-.28125-.32813-.8125-.32813-.57812 0-.90625.39063-.32812.39062-.32812 1.04687h-1.70313q0-.78125.375-1.42187.375-.65626 1.04688-1.01563.6875-.375 1.54687-.375 1.3125 0 2.04688.64063.73437.625.73437 1.78124 0 .64063-.32812 1.29688-.32813.65625-1.125 1.53125l-1.9375 2.04687h3.65625z" fill="#4472c4"/><path d="m152.45581 464.48438h.90625q.64063 0 .95313-.3125.3125-.32813.3125-.85938 0-.51562-.3125-.79688-.29688-.29687-.84375-.29687-.48438 0-.8125.26563-.32813.26562-.32813.6875h-1.6875q0-.65626.35938-1.1875.35937-.53126 1-.82813.65625-.3125 1.4375-.3125 1.34375 0 2.10937.65625.78125.64062.78125 1.78125 0 .59375-.35937 1.09375-.35938.48438-.9375.73438.71875.26562 1.0625.78124.35937.51563.35937 1.21876 0 1.14062-.82812 1.82812-.82813.6875-2.1875.6875-1.28125 0-2.09375-.67188-.8125-.6875-.8125-1.79687h1.6875q0 .48437.35937.79687.375.29688.89063.29688.60937 0 .95312-.3125.34375-.32812.34375-.85938 0-1.26562-1.40625-1.26562h-.90625zm5.4375 4.1875q0-.40626.26563-.65626.28125-.25.6875-.25.42187 0 .6875.25.28125.25.28125.65626 0 .39062-.28125.64062-.26563.25-.6875.25-.40625 0-.6875-.25-.26563-.25-.26563-.64062zm8.59375-2.70313q0 1.76563-.73437 2.71875-.73438.9375-2.14063.9375-1.40625 0-2.14062-.92188-.73438-.92187-.75-2.64062v-1.57812q0-1.78126.73437-2.70313.75-.9375 2.14063-.9375 1.39062 0 2.125.92187.75.92188.76562 2.64063zm-1.70312-1.71875q0-1.0625-.29688-1.54688-.28125-.48437-.89062-.48437-.59375 0-.89063.46875-.28125.45312-.29687 1.4375v2.0625q0 1.04688.28125 1.5625.28125.5.92187.5.60938 0 .89063-.48438.28125-.48437.28125-1.48437zm7.0625 5.25h-1.6875v-6.53125l-2.01563.625v-1.375l3.53125-1.26563h.17188z" stroke="#fff" stroke-linecap="round" stroke-linejoin="round" stroke-width="3"/><path d="m152.45581 464.48438h.90625q.64063 0 .95313-.3125.3125-.32813.3125-.85938 0-.51562-.3125-.79688-.29688-.29687-.84375-.29687-.48438 0-.8125.26563-.32813.26562-.32813.6875h-1.6875q0-.65626.35938-1.1875.35937-.53126 1-.82813.65625-.3125 1.4375-.3125 1.34375 0 2.10937.65625.78125.64062.78125 1.78125 0 .59375-.35937 1.09375-.35938.48438-.9375.73438.71875.26562 1.0625.78124.35937.51563.35937 1.21876 0 1.14062-.82812 1.82812-.82813.6875-2.1875.6875-1.28125 0-2.09375-.67188-.8125-.6875-.8125-1.79687h1.6875q0 .48437.35937.79687.375.29688.89063.29688.60937 0 .95312-.3125.34375-.32812.34375-.85938 0-1.26562-1.40625-1.26562h-.90625zm5.4375 4.1875q0-.40626.26563-.65626.28125-.25.6875-.25.42187 0 .6875.25.28125.25.28125.65626 0 .39062-.28125.64062-.26563.25-.6875.25-.40625 0-.6875-.25-.26563-.25-.26563-.64062zm8.59375-2.70313q0 1.76563-.73437 2.71875-.73438.9375-2.14063.9375-1.40625 0-2.14062-.92188-.73438-.92187-.75-2.64062v-1.57812q0-1.78126.73437-2.70313.75-.9375 2.14063-.9375 1.39062 0 2.125.92187.75.92188.76562 2.64063zm-1.70312-1.71875q0-1.0625-.29688-1.54688-.28125-.48437-.89062-.48437-.59375 0-.89063.46875-.28125.45312-.29687 1.4375v2.0625q0 1.04688.28125 1.5625.28125.5.92187.5.60938 0 .89063-.48438.28125-.48437.28125-1.48437zm7.0625 5.25h-1.6875v-6.53125l-2.01563.625v-1.375l3.53125-1.26563h.17188z" fill="#4472c4"/><path d="m155.82181 526.5h-5.84375v-1.15625l2.76562-2.95315q.5625-.60935.82813-1.0781.28125-.46875.28125-.875 0-.5781-.29688-.8906-.28125-.32815-.8125-.32815-.57812 0-.90625.39065-.32812.3906-.32812 1.04685h-1.70313q0-.78125.375-1.42185.375-.6563 1.04688-1.01565.6875-.375 1.54687-.375 1.3125 0 2.04688.64065.73437.625.73437 1.7812 0 .64065-.32812 1.2969-.32813.65625-1.125 1.53125l-1.9375 2.04685h3.65625zm1.3125-.8281q0-.4063.26562-.6563.28125-.25.6875-.25.42188 0 .6875.25.28125.25.28125.6563 0 .3906-.28125.6406-.26562.25-.6875.25-.40625 0-.6875-.25-.26562-.25-.26562-.6406zm8.40625-5.4375q0 .625-.3125 1.10935-.3125.46875-.85938.76565.625.29685.98438.8281.375.5156.375 1.21875 0 1.14065-.78125 1.8125-.76563.65625-2.10938.65625-1.32812 0-2.10937-.65625-.76563-.67185-.76563-1.8125 0-.70315.35938-1.23435.35937-.5313.98437-.8125-.54687-.2969-.85937-.76565-.3125-.48435-.3125-1.10935 0-1.0938.71875-1.7344.73437-.65625 1.98437-.65625 1.25 0 1.96875.65625.73438.6406.73438 1.7344zm-1.51563 3.79685q0-.54685-.32812-.875-.3125-.34375-.85938-.34375-.54687 0-.875.3281-.3125.32815-.3125.89065 0 .54685.3125.89065.32813.3281.89063.3281.54687 0 .85937-.3125.3125-.3281.3125-.90625zm-.17187-3.71875q0-.5-.26563-.7969-.26562-.29685-.75-.29685-.46875 0-.73437.29685-.26563.2813-.26563.7969 0 .5156.26563.8281.26562.3125.73437.3125.48438 0 .75-.3125.26563-.3125.26563-.8281zm8.92187-1.3906-3.29687 7.5781h-1.78125l3.29687-7.15625h-4.23437v-1.375h6.01562z" stroke="#fff" stroke-linecap="round" stroke-linejoin="round" stroke-width="3"/><path d="m155.82181 526.5h-5.84375v-1.15625l2.76562-2.95315q.5625-.60935.82813-1.0781.28125-.46875.28125-.875 0-.5781-.29688-.8906-.28125-.32815-.8125-.32815-.57812 0-.90625.39065-.32812.3906-.32812 1.04685h-1.70313q0-.78125.375-1.42185.375-.6563 1.04688-1.01565.6875-.375 1.54687-.375 1.3125 0 2.04688.64065.73437.625.73437 1.7812 0 .64065-.32812 1.2969-.32813.65625-1.125 1.53125l-1.9375 2.04685h3.65625zm1.3125-.8281q0-.4063.26562-.6563.28125-.25.6875-.25.42188 0 .6875.25.28125.25.28125.6563 0 .3906-.28125.6406-.26562.25-.6875.25-.40625 0-.6875-.25-.26562-.25-.26562-.6406zm8.40625-5.4375q0 .625-.3125 1.10935-.3125.46875-.85938.76565.625.29685.98438.8281.375.5156.375 1.21875 0 1.14065-.78125 1.8125-.76563.65625-2.10938.65625-1.32812 0-2.10937-.65625-.76563-.67185-.76563-1.8125 0-.70315.35938-1.23435.35937-.5313.98437-.8125-.54687-.2969-.85937-.76565-.3125-.48435-.3125-1.10935 0-1.0938.71875-1.7344.73437-.65625 1.98437-.65625 1.25 0 1.96875.65625.73438.6406.73438 1.7344zm-1.51563 3.79685q0-.54685-.32812-.875-.3125-.34375-.85938-.34375-.54687 0-.875.3281-.3125.32815-.3125.89065 0 .54685.3125.89065.32813.3281.89063.3281.54687 0 .85937-.3125.3125-.3281.3125-.90625zm-.17187-3.71875q0-.5-.26563-.7969-.26562-.29685-.75-.29685-.46875 0-.73437.29685-.26563.2813-.26563.7969 0 .5156.26563.8281.26562.3125.73437.3125.48438 0 .75-.3125.26563-.3125.26563-.8281zm8.92187-1.3906-3.29687 7.5781h-1.78125l3.29687-7.15625h-4.23437v-1.375h6.01562z" fill="#4472c4"/><path d="m142.35965 579.96875q0 1.76565-.73438 2.71875-.73437.9375-2.14062.9375-1.40625 0-2.14063-.9219-.73437-.92185-.75-2.6406v-1.5781q0-1.7813.73438-2.70315.75-.9375 2.14062-.9375 1.39063 0 2.125.92185.75.9219.76563 2.64065zm-1.70313-1.71875q0-1.0625-.29687-1.5469-.28125-.48435-.89063-.48435-.59375 0-.89062.46875-.28125.4531-.29688 1.4375v2.0625q0 1.0469.28125 1.5625.28125.5.92188.5.60937 0 .89062-.4844.28125-.48435.28125-1.48435zm3.10938 4.4219q0-.4063.26562-.6563.28125-.25.6875-.25.42188 0 .6875.25.28125.25.28125.6563 0 .3906-.28125.6406-.26562.25-.6875.25-.40625 0-.6875-.25-.26562-.25-.26562-.6406zm4.5625-4.1875h.90625q.64062 0 .95312-.3125.3125-.32815.3125-.8594 0-.5156-.3125-.7969-.29687-.29685-.84375-.29685-.48437 0-.8125.26565-.32812.2656-.32812.6875h-1.6875q0-.6563.35937-1.1875.35938-.5313 1-.82815.65625-.3125 1.4375-.3125 1.34375 0 2.10938.65625.78125.6406.78125 1.78125 0 .59375-.35938 1.09375-.35937.4844-.9375.7344.71875.2656 1.0625.7812.35938.51565.35938 1.2188 0 1.1406-.82813 1.8281-.82812.6875-2.1875.6875-1.28125 0-2.09375-.6719-.8125-.6875-.8125-1.79685h1.6875q0 .48435.35938.79685.375.2969.89062.2969.60938 0 .95313-.3125.34375-.3281.34375-.8594 0-1.2656-1.40625-1.2656h-.90625zm10.84375-1.25q0 .625-.3125 1.10935-.3125.46875-.85938.76565.625.29685.98438.8281.375.5156.375 1.21875 0 1.14065-.78125 1.8125-.76563.65625-2.10938.65625-1.32812 0-2.10937-.65625-.76563-.67185-.76563-1.8125 0-.70315.35938-1.23435.35937-.5313.98437-.8125-.54687-.2969-.85937-.76565-.3125-.48435-.3125-1.10935 0-1.0938.71875-1.7344.73437-.65625 1.98437-.65625 1.25 0 1.96875.65625.73438.6406.73438 1.7344zm-1.51563 3.79685q0-.54685-.32812-.875-.3125-.34375-.85938-.34375-.54687 0-.875.3281-.3125.32815-.3125.89065 0 .54685.3125.89065.32813.3281.89063.3281.54687 0 .85937-.3125.3125-.3281.3125-.90625zm-.17187-3.71875q0-.5-.26563-.7969-.26562-.29685-.75-.29685-.46875 0-.73437.29685-.26563.2813-.26563.7969 0 .5156.26563.8281.26562.3125.73437.3125.48438 0 .75-.3125.26563-.3125.26563-.8281z" stroke="#fff" stroke-linecap="round" stroke-linejoin="round" stroke-width="3"/><path d="m142.35965 579.96875q0 1.76565-.73438 2.71875-.73437.9375-2.14062.9375-1.40625 0-2.14063-.9219-.73437-.92185-.75-2.6406v-1.5781q0-1.7813.73438-2.70315.75-.9375 2.14062-.9375 1.39063 0 2.125.92185.75.9219.76563 2.64065zm-1.70313-1.71875q0-1.0625-.29687-1.5469-.28125-.48435-.89063-.48435-.59375 0-.89062.46875-.28125.4531-.29688 1.4375v2.0625q0 1.0469.28125 1.5625.28125.5.92188.5.60937 0 .89062-.4844.28125-.48435.28125-1.48435zm3.10938 4.4219q0-.4063.26562-.6563.28125-.25.6875-.25.42188 0 .6875.25.28125.25.28125.6563 0 .3906-.28125.6406-.26562.25-.6875.25-.40625 0-.6875-.25-.26562-.25-.26562-.6406zm4.5625-4.1875h.90625q.64062 0 .95312-.3125.3125-.32815.3125-.8594 0-.5156-.3125-.7969-.29687-.29685-.84375-.29685-.48437 0-.8125.26565-.32812.2656-.32812.6875h-1.6875q0-.6563.35937-1.1875.35938-.5313 1-.82815.65625-.3125 1.4375-.3125 1.34375 0 2.10938.65625.78125.6406.78125 1.78125 0 .59375-.35938 1.09375-.35937.4844-.9375.7344.71875.2656 1.0625.7812.35938.51565.35938 1.2188 0 1.1406-.82813 1.8281-.82812.6875-2.1875.6875-1.28125 0-2.09375-.6719-.8125-.6875-.8125-1.79685h1.6875q0 .48435.35938.79685.375.2969.89062.2969.60938 0 .95313-.3125.34375-.3281.34375-.8594 0-1.2656-1.40625-1.2656h-.90625zm10.84375-1.25q0 .625-.3125 1.10935-.3125.46875-.85938.76565.625.29685.98438.8281.375.5156.375 1.21875 0 1.14065-.78125 1.8125-.76563.65625-2.10938.65625-1.32812 0-2.10937-.65625-.76563-.67185-.76563-1.8125 0-.70315.35938-1.23435.35937-.5313.98437-.8125-.54687-.2969-.85937-.76565-.3125-.48435-.3125-1.10935 0-1.0938.71875-1.7344.73437-.65625 1.98437-.65625 1.25 0 1.96875.65625.73438.6406.73438 1.7344zm-1.51563 3.79685q0-.54685-.32812-.875-.3125-.34375-.85938-.34375-.54687 0-.875.3281-.3125.32815-.3125.89065 0 .54685.3125.89065.32813.3281.89063.3281.54687 0 .85937-.3125.3125-.3281.3125-.90625zm-.17187-3.71875q0-.5-.26563-.7969-.26562-.29685-.75-.29685-.46875 0-.73437.29685-.26563.2813-.26563.7969 0 .5156.26563.8281.26562.3125.73437.3125.48438 0 .75-.3125.26563-.3125.26563-.8281z" fill="#4472c4"/><path d="m143.54674 636.96875q0 1.76565-.73438 2.71875-.73437.9375-2.14062.9375-1.40625 0-2.14063-.9219-.73437-.92185-.75-2.6406v-1.5781q0-1.7813.73438-2.70315.75-.9375 2.14062-.9375 1.39063 0 2.125.92185.75.9219.76563 2.64065zm-1.70313-1.71875q0-1.0625-.29687-1.5469-.28125-.48435-.89063-.48435-.59375 0-.89062.46875-.28125.4531-.29688 1.4375v2.0625q0 1.0469.28125 1.5625.28125.5.92188.5.60937 0 .89062-.4844.28125-.48435.28125-1.48435zm3.10938 4.4219q0-.4063.26562-.6563.28125-.25.6875-.25.42188 0 .6875.25.28125.25.28125.6563 0 .3906-.28125.6406-.26562.25-.6875.25-.40625 0-.6875-.25-.26562-.25-.26562-.6406zm7.4375-7.7969v1.40625h-.15625q-1.15625.01565-1.85938.59375-.6875.5781-.82812 1.6094.67187-.6875 1.70312-.6875 1.125 0 1.78125.79685.65625.79685.65625 2.09375 0 .8281-.35937 1.5-.35938.6719-1.03125 1.0625-.65625.375-1.48438.375-1.34375 0-2.17187-.9375-.82813-.9531-.82813-2.5156v-.6094q0-1.3906.51563-2.4531.53125-1.0625 1.5-1.64065.98437-.57815 2.28125-.59375zm-1.65625 4.28125q-.40625 0-.75.21875-.32813.2031-.48438.5625v.5156q0 .8438.32813 1.32815.34375.46875.95312.46875.54688 0 .875-.4219.34375-.4375.34375-1.125 0-.7031-.34375-1.125-.34375-.42185-.92187-.42185zm9.8125.8125q0 1.76565-.73438 2.71875-.73437.9375-2.14062.9375-1.40625 0-2.14063-.9219-.73437-.92185-.75-2.6406v-1.5781q0-1.7813.73438-2.70315.75-.9375 2.14062-.9375 1.39063 0 2.125.92185.75.9219.76563 2.64065zm-1.70313-1.71875q0-1.0625-.29687-1.5469-.28125-.48435-.89063-.48435-.59375 0-.89062.46875-.28125.4531-.29688 1.4375v2.0625q0 1.0469.28125 1.5625.28125.5.92188.5.60937 0 .89062-.4844.28125-.48435.28125-1.48435z" stroke="#fff" stroke-linecap="round" stroke-linejoin="round" stroke-width="3"/><path d="m143.54674 636.96875q0 1.76565-.73438 2.71875-.73437.9375-2.14062.9375-1.40625 0-2.14063-.9219-.73437-.92185-.75-2.6406v-1.5781q0-1.7813.73438-2.70315.75-.9375 2.14062-.9375 1.39063 0 2.125.92185.75.9219.76563 2.64065zm-1.70313-1.71875q0-1.0625-.29687-1.5469-.28125-.48435-.89063-.48435-.59375 0-.89062.46875-.28125.4531-.29688 1.4375v2.0625q0 1.0469.28125 1.5625.28125.5.92188.5.60937 0 .89062-.4844.28125-.48435.28125-1.48435zm3.10938 4.4219q0-.4063.26562-.6563.28125-.25.6875-.25.42188 0 .6875.25.28125.25.28125.6563 0 .3906-.28125.6406-.26562.25-.6875.25-.40625 0-.6875-.25-.26562-.25-.26562-.6406zm7.4375-7.7969v1.40625h-.15625q-1.15625.01565-1.85938.59375-.6875.5781-.82812 1.6094.67187-.6875 1.70312-.6875 1.125 0 1.78125.79685.65625.79685.65625 2.09375 0 .8281-.35937 1.5-.35938.6719-1.03125 1.0625-.65625.375-1.48438.375-1.34375 0-2.17187-.9375-.82813-.9531-.82813-2.5156v-.6094q0-1.3906.51563-2.4531.53125-1.0625 1.5-1.64065.98437-.57815 2.28125-.59375zm-1.65625 4.28125q-.40625 0-.75.21875-.32813.2031-.48438.5625v.5156q0 .8438.32813 1.32815.34375.46875.95312.46875.54688 0 .875-.4219.34375-.4375.34375-1.125 0-.7031-.34375-1.125-.34375-.42185-.92187-.42185zm9.8125.8125q0 1.76565-.73438 2.71875-.73437.9375-2.14062.9375-1.40625 0-2.14063-.9219-.73437-.92185-.75-2.6406v-1.5781q0-1.7813.73438-2.70315.75-.9375 2.14062-.9375 1.39063 0 2.125.92185.75.9219.76563 2.64065zm-1.70313-1.71875q0-1.0625-.29687-1.5469-.28125-.48435-.89063-.48435-.59375 0-.89062.46875-.28125.4531-.29688 1.4375v2.0625q0 1.0469.28125 1.5625.28125.5.92188.5.60937 0 .89062-.4844.28125-.48435.28125-1.48435z" fill="#4472c4"/><g fill="#000"><path d="m79.1875 69.62466q0-.5-.359375-.76563-.34375-.26562-1.265625-.5625-.90625-.29687-1.4375-.59375-1.453125-.78125-1.453125-2.10937 0-.6875.390625-1.23438.390625-.546873 1.109375-.84375.734375-.3125 1.640625-.3125.921875 0 1.625.34375.71875.328127 1.109375.9375.40625.59375.40625 1.35938h-1.765625q0-.57813-.375-.90625-.359375-.32813-1.03125-.32813-.640625 0-1 .28125-.359375.26563-.359375.70313 0 .42187.421875.70312.421875.28125 1.234375.53125 1.5.45313 2.1875 1.125.6875.65625.6875 1.65625 0 1.10938-.84375 1.75-.828125.625-2.25.625-.984375 0-1.796875-.35937-.8125-.375-1.234375-1-.421875-.625-.421875-1.45313h1.765625q0 1.42188 1.6875 1.42188.625 0 .96875-.25.359375-.26563.359375-.71875zm7.984375-.0625.828125-4.04688h1.625l-1.609375 6.34375h-1.421875l-1.203125-3.98437-1.203125 3.98437h-1.40625l-1.609375-6.34375h1.625l.828125 4.03125 1.15625-4.03125h1.234375zm6.390625 2.42187q-1.390625 0-2.265625-.85937-.875-.85938-.875-2.28125v-.17188q0-.95312.359375-1.70312.375-.75 1.046875-1.15625.6875-.40625 1.546875-.40625 1.3125 0 2.046875.82812.75.8125.75 2.3125v.6875h-4.03125q.078125.625.484375 1 .421875.375 1.0625.375.96875 0 1.515625-.70312l.84375.92187q-.390625.54688-1.046875.85938-.640625.29687-1.4375.29687zm-.1875-5.21875q-.5 0-.8125.34375-.3125.34375-.40625.96875h2.359375v-.125q-.015625-.5625-.3125-.875-.28125-.3125-.828125-.3125zm3.015625 1.875q0-1.48437.65625-2.35937.671875-.875 1.828125-.875.921875 0 1.53125.6875v-3.23438h1.6875v9h-1.515625l-.09375-.67187q-.625.79687-1.625.79687-1.125 0-1.796875-.875-.671875-.89062-.671875-2.46875zm1.6875.125q0 .89063.3125 1.375.3125.46875.90625.46875.78125 0 1.109375-.67187v-2.5q-.328125-.65625-1.09375-.65625-1.234375 0-1.234375 1.98437zm8.484375 3.21875q-1.390625 0-2.265625-.85937-.875-.85938-.875-2.28125v-.17188q0-.95312.359375-1.70312.375-.75 1.046875-1.15625.6875-.40625 1.546875-.40625 1.3125 0 2.046875.82812.75.8125.75 2.3125v.6875h-4.03125q.078125.625.484375 1 .421875.375 1.0625.375.96875 0 1.515625-.70312l.84375.92187q-.390625.54688-1.046875.85938-.640625.29687-1.4375.29687zm-.1875-5.21875q-.5 0-.8125.34375-.3125.34375-.40625.96875h2.359375v-.125q-.015625-.5625-.3125-.875-.28125-.3125-.828125-.3125zm4.828125-1.25.0625.73438q.671875-.84375 1.8125-.84375 1.015625 0 1.5.59375.5.57812.515625 1.76562v4.09375h-1.703125v-4.0625q0-.53125-.234375-.76562-.234375-.25-.78125-.25-.703125 0-1.0625.60937v4.46875h-1.703125v-6.34375z"/><path d="m81.890625 125.20285h-3.375v3.48438h-1.75v-8.531255h5.546875v1.421875h-3.796875v2.203125h3.375zm3.546875 3.48438h-1.703125v-6.343755h1.703125zm-1.796875-7.98438q0-.375.25-.625.265625-.25.703125-.25.421875 0 .671875.25.265625.25.265625.625 0 .390625-.265625.640625-.25.234375-.6875.234375-.421875 0-.6875-.234375-.25-.25-.25-.640625zm4.5625 1.640625.0625.734375q.671875-.84375 1.8125-.84375 1.015625 0 1.5.59375.5.578125.515625 1.765625v4.093755h-1.703125v-4.062505q0-.53125-.234375-.765625-.234375-.25-.78125-.25-.703125 0-1.0625.609375v4.468755h-1.703125v-6.343755zm7.234375 6.343755h-1.703125v-9.000005h1.703125zm4.890625 0q-.125-.23438-.171875-.5625-.609375.6875-1.59375.6875-.9375 0-1.546875-.54688-.609375-.546875-.609375-1.359375 0-1.015625.734375-1.546875.75-.546875 2.171875-.546875h.765625v-.359375q0-.4375-.21875-.703125-.21875-.265625-.71875-.265625-.421875 0-.671875.203125-.234375.203125-.234375.5625h-1.6875q0-.546875.328125-1.015625.34375-.46875.96875-.734375.625-.265625 1.390625-.265625 1.171875 0 1.859375.59375.6875.578125.6875 1.640625v2.75q.015625.906255.25 1.375005v.09375zm-1.40625-1.17188q.375 0 .6875-.171875.328125-.171875.46875-.453125v-1.09375h-.625q-1.265625 0-1.359375.890625v.09375q0 .3125.21875.53125.21875.203125.609375.203125zm5.28125-5.171875.0625.734375q.671875-.84375 1.8125-.84375 1.015625 0 1.5.59375.5.578125.515625 1.765625v4.093755h-1.703125v-4.062505q0-.53125-.234375-.765625-.234375-.25-.78125-.25-.703125 0-1.0625.609375v4.468755h-1.703125v-6.343755zm5.1875 3.125q0-1.484375.65625-2.359375.671875-.875 1.828125-.875.921875 0 1.53125.6875v-3.234375h1.6875v9.000005h-1.515625l-.09375-.67188q-.625.79688-1.625.79688-1.125 0-1.796875-.875005-.671875-.890625-.671875-2.46875zm1.6875.125q0 .890625.3125 1.375.3125.46875.90625.46875.78125 0 1.109375-.671875v-2.5q-.328125-.65625-1.09375-.65625-1.234375 0-1.234375 1.984375z"/><path d="m81.890625 181.81229h-3.375v2.29687h3.96875v1.40625h-5.71875v-8.53125h5.703125v1.42188h-3.953125v2.03125h3.375zm5.1875 1.95312q0-.3125-.3125-.48437-.296875-.1875-.96875-.32813-2.265625-.46875-2.265625-1.92187 0-.84375.6875-1.40625.703125-.5625 1.84375-.5625 1.203125 0 1.921875.5625.734375.5625.734375 1.48437h-1.703125q0-.375-.234375-.60937-.234375-.23438-.734375-.23438-.421875 0-.65625.20313-.234375.1875-.234375.48437 0 .28125.265625.45313.265625.17187.890625.29687.640625.125 1.078125.28125 1.34375.5 1.34375 1.70313 0 .875-.75 1.42187-.734375.53125-1.921875.53125-.796875 0-1.421875-.28125-.609375-.29687-.96875-.78125-.34375-.5-.34375-1.07812h1.609375q.015625.45312.328125.70312.3125.23438.828125.23438.5 0 .734375-.1875.25-.1875.25-.48438zm4.59375-6.15625v1.5625h1.09375v1.25h-1.09375v3.15625q0 .35938.140625.51563.140625.14062.515625.14062.28125 0 .5-.03125v1.28125q-.5.15625-1.03125.15625-1.78125 0-1.8125-1.8125v-3.40625h-.921875v-1.25h.921875v-1.5625zm1.71875 4.67188q0-.9375.359375-1.67188.359375-.75 1.046875-1.14062.6875-.40625 1.578125-.40625 1.296875 0 2.09375.78125.8125.78125.90625 2.125l.015625.4375q0 1.46875-.8125 2.35937-.8125.875-2.1875.875-1.375 0-2.1875-.875-.8125-.89062-.8125-2.40625zm1.6875.125q0 .90625.34375 1.39062.34375.46875.96875.46875.625 0 .96875-.46875.34375-.46875.34375-1.51562 0-.875-.34375-1.35938-.34375-.5-.984375-.5-.609375 0-.953125.48438-.34375.48437-.34375 1.5zm7.125-3.23438.0625.73438q.671875-.84375 1.8125-.84375 1.015625 0 1.5.59375.5.57812.515625 1.76562v4.09375h-1.703125v-4.0625q0-.53125-.234375-.76562-.234375-.25-.78125-.25-.703125 0-1.0625.60937v4.46875h-1.703125v-6.34375zm7.234375 6.34375h-1.703125v-6.34375h1.703125zm-1.796875-7.98437q0-.375.25-.625.265625-.25.703125-.25.421875 0 .671875.25.265625.25.265625.625 0 .39062-.265625.64062-.25.23438-.6875.23438-.421875 0-.6875-.23438-.25-.25-.25-.64062zm6.6875 7.98437q-.125-.23437-.171875-.5625-.609375.6875-1.59375.6875-.9375 0-1.546875-.54687-.609375-.54688-.609375-1.35938 0-1.01562.734375-1.54687.75-.54688 2.171875-.54688h.765625v-.35937q0-.4375-.21875-.70313-.21875-.26562-.71875-.26562-.421875 0-.671875.20312-.234375.20313-.234375.5625h-1.6875q0-.54687.328125-1.01562.34375-.46875.96875-.73438.625-.26562 1.390625-.26562 1.171875 0 1.859375.59375.6875.57812.6875 1.64062v2.75q.015625.90625.25 1.375v.09375zm-1.40625-1.17187q.375 0 .6875-.17188.328125-.17187.46875-.45312v-1.09375h-.625q-1.265625 0-1.359375.89062v.09375q0 .3125.21875.53125.21875.20313.609375.20313z"/><path d="m92.453125 239.49986q-.09375 1.375-1.015625 2.17188-.90625.79687-2.40625.79687-1.640625 0-2.59375-1.10937-.9375-1.10938-.9375-3.03125v-.53125q0-1.21875.4375-2.15625.4375-.9375 1.234375-1.4375.8125-.51563 1.875-.51563 1.484375 0 2.375.79688.90625.79687 1.046875 2.21875h-1.75q-.0625-.82813-.46875-1.1875-.390625-.375-1.203125-.375-.875 0-1.3125.625-.4375.625-.453125 1.95312v.64063q0 1.39062.421875 2.03125.421875.64062 1.328125.64062.8125 0 1.203125-.375.40625-.375.46875-1.15625zm2.84375-2.8125q.6875-.79687 1.703125-.79687 2.0625 0 2.09375 2.39062v4.0625h-1.703125v-4.01562q0-.54688-.234375-.79688-.234375-.26562-.78125-.26562-.734375 0-1.078125.57812v4.5h-1.6875v-9h1.6875zm7.140625 5.65625h-1.703125v-6.34375h1.703125zm-1.796875-7.98437q0-.375.25-.625.265625-.25.703125-.25.421875 0 .671875.25.265625.25.265625.625 0 .39062-.265625.64062-.25.23438-.6875.23438-.421875 0-.6875-.23438-.25-.25-.25-.64062zm4.5625 1.64062.0625.73438q.671875-.84375 1.8125-.84375 1.015625 0 1.5.59375.5.57812.515625 1.76562v4.09375h-1.703125v-4.0625q0-.53125-.234375-.76562-.234375-.25-.78125-.25-.703125 0-1.0625.60937v4.46875h-1.703125v-6.34375zm9.125 6.34375q-.125-.23437-.171875-.5625-.609375.6875-1.59375.6875-.9375 0-1.546875-.54687-.609375-.54688-.609375-1.35938 0-1.01562.734375-1.54687.75-.54688 2.171875-.54688h.765625v-.35937q0-.4375-.21875-.70313-.21875-.26562-.71875-.26562-.421875 0-.671875.20312-.234375.20313-.234375.5625h-1.6875q0-.54687.328125-1.01562.34375-.46875.96875-.73438.625-.26562 1.390625-.26562 1.171875 0 1.859375.59375.6875.57812.6875 1.64062v2.75q.015625.90625.25 1.375v.09375zm-1.40625-1.17187q.375 0 .6875-.17188.328125-.17187.46875-.45312v-1.09375h-.625q-1.265625 0-1.359375.89062v.09375q0 .3125.21875.53125.21875.20313.609375.20313z"/><path d="m76.515625 298.0937q-.484375.5625-1.359375.8906-.859375.3125-1.90625.3125-1.109375 0-1.953125-.48436-.828125-.48438-1.28125-1.40624-.453125-.9219-.46875-2.1719v-.5781q0-1.28126.421875-2.20314.4375-.9375 1.25-1.4375.8125-.5 1.90625-.5 1.515625 0 2.375.73438.859375.71876 1.015625 2.10936h-1.71875q-.109375-.73436-.515625-1.0781-.40625-.34376-1.109375-.34376-.890625 0-1.359375.67186-.46875.6719-.46875 2.01564v.53126q0 1.34374.5 2.03124.515625.6875 1.5.6875.984375 0 1.40625-.42188v-1.46876h-1.59375v-1.29686h3.359375zm4.046875 1.2031q-1.390625 0-2.265625-.85936-.875-.85938-.875-2.28124v-.1719q0-.9531.359375-1.7031.375-.75 1.046875-1.15626.6875-.40624 1.546875-.40624 1.3125 0 2.046875.8281.75.8125.75 2.3125v.6875h-4.03125q.078125.625.484375 1 .421875.375 1.0625.375.96875 0 1.515625-.7031l.84375.92186q-.390625.54688-1.046875.85938-.640625.29686-1.4375.29686zm-.1875-5.21874q-.5 0-.8125.34374-.3125.34376-.40625.96876h2.359375v-.125q-.015625-.5625-.3125-.875-.28125-.3125-.828125-.3125zm6.84375.34374q-.34375-.04686-.609375-.04686-.96875 0-1.265625.64062v4.15624h-1.6875v-6.34374h1.59375l.046875.76564q.515625-.875 1.40625-.875.28125 0 .53125.0781zm2.015625-1.59374.0625.71874q.671875-.8281 1.8125-.8281 1.234375 0 1.6875.96874.671875-.96874 1.90625-.96874 1.03125 0 1.53125.60936.5.59374.5 1.79688v4.04686h-1.6875v-4.04686q0-.53124-.21875-.78124-.203125-.25-.75-.25-.75 0-1.046875.71874v4.35936h-1.6875v-4.03124q0-.5625-.21875-.79686-.21875-.25-.734375-.25-.71875 0-1.046875.59374v4.48436h-1.6875v-6.34374zm12.09375 6.34374q-.125-.23436-.171875-.5625-.609375.6875-1.59375.6875-.9375 0-1.546875-.54686-.609375-.54688-.609375-1.35938 0-1.01562.734375-1.54686.75-.5469 2.171875-.5469h.765625v-.35936q0-.4375-.21875-.70314-.21875-.2656-.71875-.2656-.421875 0-.671875.2031-.234375.20314-.234375.5625h-1.6875q0-.54686.328125-1.0156.34375-.46876.96875-.7344.625-.2656 1.390625-.2656 1.171875 0 1.859375.59374.6875.57812.6875 1.64062v2.75q.015625.90624.25 1.375v.09374zm-1.40625-1.17186q.375 0 .6875-.17188.328125-.17186.46875-.45312v-1.09374h-.625q-1.265625 0-1.359375.8906v.09376q0 .3125.21875.53124.21875.20314.609375.20314zm5.28125-5.17188.0625.73438q.671875-.84374 1.8125-.84374 1.015625 0 1.5.59374.5.57812.515625 1.76562v4.09374h-1.703125v-4.0625q0-.53124-.234375-.7656-.234375-.25-.78125-.25-.703125 0-1.0625.60936v4.46874h-1.703125v-6.34374zm7.8125 3.95314 1.171875-3.95314h1.8125l-2.546875 7.32814-.140625.3281q-.5625 1.25-1.875 1.25-.359375 0-.75-.10936v-1.28124h.265625q.484375 0 .71875-.15626.234375-.14064.375-.46874l.1875-.53126-2.21875-6.35938h1.828125z"/><path d="m80.515625 353v3h-1.75v-8.53125h3.328125q.953125 0 1.6875.35937.734375.34376 1.125 1 .390625.64063.390625 1.46876 0 1.25-.859375 1.98437-.859375.71875-2.375.71875zm0-1.4375h1.578125q.6875 0 1.046875-.32812.375-.32813.375-.9375 0-.625-.375-1-.359375-.39063-1.015625-.40626h-1.609375zm5.875 1.20312q0-.9375.359375-1.67187.359375-.75 1.046875-1.14063.6875-.40624 1.578125-.40624 1.296875 0 2.09375.78124.8125.78126.90625 2.125l.015625.4375q0 1.46876-.8125 2.35938-.8125.875-2.1875.875-1.375 0-2.1875-.875-.8125-.89062-.8125-2.40625zm1.6875.125q0 .90626.34375 1.39063.34375.46875.96875.46875.625 0 .96875-.46875.34375-.46875.34375-1.51563 0-.875-.34375-1.35937-.34375-.5-.984375-.5-.609375 0-.953125.48437-.34375.48438-.34375 1.5zm7.359375 3.10938h-1.703125v-9h1.703125zm4.890625 0q-.125-.23438-.171875-.5625-.609375.6875-1.59375.6875-.9375 0-1.546875-.54688-.609375-.54687-.609375-1.35937 0-1.01563.734375-1.54687.75-.54688 2.171875-.54688h.765625v-.35938q0-.4375-.21875-.70312-.21875-.26562-.71875-.26562-.421875 0-.671875.20312-.234375.20312-.234375.5625h-1.6875q0-.54688.328125-1.01562.34375-.46876.96875-.73438.625-.26562 1.390625-.26562 1.171875 0 1.859375.59374.6875.57813.6875 1.64063v2.75q.015625.90625.25 1.375v.09375zm-1.40625-1.17188q.375 0 .6875-.17187.328125-.17187.46875-.45313v-1.09374h-.625q-1.265625 0-1.359375.89062v.09375q0 .3125.21875.53125.21875.20312.609375.20312zm5.28125-5.17187.0625.73437q.671875-.84374 1.8125-.84374 1.015625 0 1.5.59374.5.57813.515625 1.76563v4.09375h-1.703125v-4.0625q0-.53125-.234375-.76562-.234375-.25-.78125-.25-.703125 0-1.0625.60937v4.46875h-1.703125v-6.34375zm5.1875 3.125q0-1.48437.65625-2.35937.671875-.875 1.828125-.875.921875 0 1.53125.6875v-3.23438h1.6875v9h-1.515625l-.09375-.67188q-.625.79688-1.625.79688-1.125 0-1.796875-.875-.671875-.89062-.671875-2.46875zm1.6875.125q0 .89063.3125 1.375.3125.46875.90625.46875.78125 0 1.109375-.67188v-2.5q-.328125-.65624-1.09375-.65624-1.234375 0-1.234375 1.98437z"/><path d="m36.21875 404.29694v5.625q0 1.39062-.875 2.21876-.875.8125-2.390625.8125-1.5 0-2.375-.7969-.875-.79686-.890625-2.17186v-5.6875h1.75v5.625q0 .84376.390625 1.23436.40625.375 1.125.375 1.484375 0 1.5-1.5625v-5.67186zm2.984375 2.1875.0625.73436q.671875-.84374 1.8125-.84374 1.015625 0 1.5.59374.5.57814.515625 1.76564v4.09376h-1.703125v-4.0625q0-.53126-.234375-.76564-.234375-.25-.78125-.25-.703125 0-1.0625.60938v4.46876h-1.703125v-6.34376zm7.234375 6.34376h-1.703125v-6.34376h1.703125zm-1.796875-7.9844q0-.375.25-.625.265625-.25.703125-.25.421875 0 .671875.25.265625.25.265625.625 0 .39064-.265625.64064-.25.23436-.6875.23436-.421875 0-.6875-.23436-.25-.25-.25-.64064zm5.03125.07814v1.5625h1.09375v1.25h-1.09375v3.15626q0 .35936.140625.5156.140625.14064.515625.14064.28125 0 .5-.03124v1.28124q-.5.15626-1.03125.15626-1.78125 0-1.8125-1.8125v-3.40626h-.921875v-1.25h.921875v-1.5625zm4.890625 8.03126q-1.390625 0-2.265625-.8594-.875-.85936-.875-2.28124v-.17186q0-.95314.359375-1.70314.375-.75 1.046875-1.15626.6875-.40624 1.546875-.40624 1.3125 0 2.046875.82814.75.8125.75 2.3125v.6875h-4.03125q.078125.625.484375 1 .421875.375 1.0625.375.96875 0 1.515625-.70314l.84375.92188q-.390625.54686-1.046875.85936-.640625.2969-1.4375.2969zm-.1875-5.21876q-.5 0-.8125.34376-.3125.34374-.40625.96874h2.359375v-.125q-.015625-.5625-.3125-.875-.28125-.3125-.828125-.3125zm3.015625 1.875q0-1.48438.65625-2.35938.671875-.875 1.828125-.875.921875 0 1.53125.6875v-3.23436h1.6875v9h-1.515625l-.09375-.6719q-.625.7969-1.625.7969-1.125 0-1.796875-.875-.671875-.89064-.671875-2.46876zm1.6875.125q0 .89062.3125 1.375.3125.46876.90625.46876.78125 0 1.109375-.6719v-2.5q-.328125-.65624-1.09375-.65624-1.234375 0-1.234375 1.98438zm11.359375-.32814-.921875.9844v2.4375h-1.75v-8.53126h1.75v3.85936l.78125-1.04686 2.171875-2.8125h2.15625l-3.03125 3.79686 3.125 4.7344h-2.09375zm7 3.4219h-1.703125v-6.34376h1.703125zm-1.796875-7.9844q0-.375.25-.625.265625-.25.703125-.25.421875 0 .671875.25.265625.25.265625.625 0 .39064-.265625.64064-.25.23436-.6875.23436-.421875 0-.6875-.23436-.25-.25-.25-.64064zm4.5625 1.64064.0625.73436q.671875-.84374 1.8125-.84374 1.015625 0 1.5.59374.5.57814.515625 1.76564v4.09376h-1.703125v-4.0625q0-.53126-.234375-.76564-.234375-.25-.78125-.25-.703125 0-1.0625.60938v4.46876h-1.703125v-6.34376zm5.203125 3.125q0-1.45314.6875-2.34374.703125-.89064 1.875-.89064 1.046875 0 1.625.70314l.078125-.59376h1.53125v6.125q0 .84376-.390625 1.45312-.375.625-1.0625.9375-.671875.32814-1.59375.32814-.703125 0-1.375-.28126-.65625-.28124-.984375-.71874l.75-1.03126q.625.70312 1.53125.70312.671875 0 1.046875-.35936.375-.3594.375-1.01564v-.34376q-.578125.6719-1.546875.6719-1.140625 0-1.84375-.89064-.703125-.90626-.703125-2.375zm1.6875.125q0 .85936.34375 1.35936.359375.4844.953125.4844.78125 0 1.109375-.57814v-2.67186q-.34375-.57814-1.09375-.57814-.609375 0-.96875.5-.34375.5-.34375 1.48438zm5.296875-.125q0-1.48438.65625-2.35938.671875-.875 1.828125-.875.921875 0 1.53125.6875v-3.23436h1.6875v9h-1.515625l-.09375-.6719q-.625.7969-1.625.7969-1.125 0-1.796875-.875-.671875-.89064-.671875-2.46876zm1.6875.125q0 .89062.3125 1.375.3125.46876.90625.46876.78125 0 1.109375-.6719v-2.5q-.328125-.65624-1.09375-.65624-1.234375 0-1.234375 1.98438zm5.3125-.14064q0-.9375.359375-1.67186.359375-.75 1.046875-1.14064.6875-.40624 1.578125-.40624 1.296875 0 2.09375.78124.8125.78126.90625 2.125l.015625.4375q0 1.46876-.8125 2.3594-.8125.875-2.1875.875-1.375 0-2.1875-.875-.8125-.89064-.8125-2.40626zm1.6875.125q0 .90626.34375 1.39064.34375.46876.96875.46876.625 0 .96875-.46876.34375-.46874.34375-1.51564 0-.875-.34375-1.35936-.34375-.5-.984375-.5-.609375 0-.953125.48436-.34375.4844-.34375 1.5zm7.15625-3.23436.0625.71876q.671875-.82814 1.8125-.82814 1.234375 0 1.6875.96874.671875-.96874 1.90625-.96874 1.03125 0 1.53125.60938.5.59376.5 1.79686v4.0469h-1.6875v-4.0469q0-.53124-.21875-.78124-.203125-.25-.75-.25-.75 0-1.046875.71874v4.3594h-1.6875v-4.03126q0-.5625-.21875-.79688-.21875-.25-.734375-.25-.71875 0-1.046875.59374v4.4844h-1.6875v-6.34376z"/><path d="m72.765625 469.6564v-8.53125h2.984375q1.546875 0 2.34375.59375.8125.59375.8125 1.75 0 .625-.328125 1.10938-.3125.46875-.890625.6875.65625.17187 1.03125.67187.390625.48438.390625 1.20313 0 1.23437-.796875 1.875-.78125.625-2.234375.64062zm1.75-3.71875v2.3125h1.515625q.609375 0 .953125-.29687.359375-.29688.359375-.82813 0-1.17187-1.21875-1.1875zm0-1.23437h1.3125q1.328125-.03125 1.328125-1.0625 0-.57813-.34375-.82813-.328125-.26562-1.0625-.26562h-1.234375zm9.046875 5.07812q-1.390625 0-2.265625-.85937-.875-.85938-.875-2.28125v-.17188q0-.95312.359375-1.70312.375-.75 1.046875-1.15625.6875-.40625 1.546875-.40625 1.3125 0 2.046875.82812.75.8125.75 2.3125v.6875h-4.03125q.078125.625.484375 1 .421875.375 1.0625.375.96875 0 1.515625-.70312l.84375.92187q-.390625.54688-1.046875.85938-.640625.29687-1.4375.29687zm-.1875-5.21875q-.5 0-.8125.34375-.3125.34375-.40625.96875h2.359375v-.125q-.015625-.5625-.3125-.875-.28125-.3125-.828125-.3125zm5.0625 5.09375h-1.703125v-9h1.703125zm.96875-3.21875q0-1.45312.6875-2.34375.703125-.89062 1.875-.89062 1.046875 0 1.625.70312l.078125-.59375h1.53125v6.125q0 .84375-.390625 1.45313-.375.625-1.0625.9375-.671875.32812-1.59375.32812-.703125 0-1.375-.28125-.65625-.28125-.984375-.71875l.75-1.03125q.625.70313 1.53125.70313.671875 0 1.046875-.35938.375-.35937.375-1.01562v-.34375q-.578125.67187-1.546875.67187-1.140625 0-1.84375-.89062-.703125-.90625-.703125-2.375zm1.6875.125q0 .85938.34375 1.35938.359375.48437.953125.48437.78125 0 1.109375-.57812v-2.67188q-.34375-.57812-1.09375-.57812-.609375 0-.96875.5-.34375.5-.34375 1.48437zm7.34375 3.09375h-1.703125v-6.34375h1.703125zm-1.796875-7.98437q0-.375.25-.625.265625-.25.703125-.25.421875 0 .671875.25.265625.25.265625.625 0 .39062-.265625.64062-.25.23438-.6875.23438-.421875 0-.6875-.23438-.25-.25-.25-.64062zm6.8125 7.34375q-.625.76562-1.734375.76562-1.03125 0-1.5625-.59375-.53125-.59375-.546875-1.71875v-4.15625h1.6875v4.09375q0 1 .90625 1 .859375 0 1.1875-.60937v-4.48438h1.703125v6.34375h-1.59375zm4.78125-5.70313.0625.71875q.671875-.82812 1.8125-.82812 1.234375 0 1.6875.96875.671875-.96875 1.90625-.96875 1.03125 0 1.53125.60937.5.59375.5 1.79688v4.04687h-1.6875v-4.04687q0-.53125-.21875-.78125-.203125-.25-.75-.25-.75 0-1.046875.71875v4.35937h-1.6875v-4.03125q0-.5625-.21875-.79687-.21875-.25-.734375-.25-.71875 0-1.046875.59375v4.48437h-1.6875v-6.34375z"/><path d="m68.515625 525.0783h3.734375v1.40626h-5.484375v-8.53126h1.75zm6.921875 1.40626h-1.703125v-6.34376h1.703125zm-1.796875-7.98436q0-.375.25-.625.265625-.25.703125-.25.421875 0 .671875.25.265625.25.265625.625 0 .3906-.265625.6406-.25.2344-.6875.2344-.421875 0-.6875-.2344-.25-.25-.25-.6406zm5.03125.0781v1.5625h1.09375v1.25h-1.09375v3.15626q0 .35937.140625.51564.140625.1406.515625.1406.28125 0 .5-.03124v1.28124q-.5.15626-1.03125.15626-1.78125 0-1.8125-1.8125v-3.40626h-.921875v-1.25h.921875v-1.5625zm3.625 2.25q.6875-.79687 1.703125-.79687 2.0625 0 2.09375 2.39063v4.0625h-1.703125v-4.01563q0-.54687-.234375-.79687-.234375-.26563-.78125-.26563-.734375 0-1.078125.57813v4.5h-1.6875v-9h1.6875zm9.15625 5.01563q-.625.76563-1.734375.76563-1.03125 0-1.5625-.59376-.53125-.59374-.546875-1.71874v-4.15626h1.6875v4.09376q0 1 .90625 1 .859375 0 1.1875-.60936v-4.4844h1.703125v6.34376h-1.59375zm6.875.64063q-.125-.23436-.171875-.5625-.609375.6875-1.59375.6875-.9375 0-1.546875-.54686-.609375-.5469-.609375-1.3594 0-1.0156.734375-1.54687.75-.54687 2.171875-.54687h.765625v-.35936q0-.4375-.21875-.70314-.21875-.26563-.71875-.26563-.421875 0-.671875.20313-.234375.20314-.234375.5625h-1.6875q0-.54686.328125-1.01563.34375-.46873.96875-.73437.625-.26563 1.390625-.26563 1.171875 0 1.859375.59377.6875.5781.6875 1.6406v2.75q.015625.90626.25 1.375v.09376zm-1.40625-1.17186q.375 0 .6875-.1719.328125-.17187.46875-.4531v-1.09377h-.625q-1.265625 0-1.359375.89063v.09374q0 .3125.21875.53126.21875.20314.609375.20314zm5.28125-5.1719.0625.7344q.671875-.84377 1.8125-.84377 1.015625 0 1.5.59377.5.5781.515625 1.7656v4.09376h-1.703125v-4.0625q0-.53126-.234375-.76563-.234375-.25-.78125-.25-.703125 0-1.0625.60937v4.46876h-1.703125v-6.34376zm7.234375 6.34376h-1.703125v-6.34376h1.703125zm-1.796875-7.98436q0-.375.25-.625.265625-.25.703125-.25.421875 0 .671875.25.265625.25.265625.625 0 .3906-.265625.6406-.25.2344-.6875.2344-.421875 0-.6875-.2344-.25-.25-.25-.6406zm6.6875 7.98436q-.125-.23436-.171875-.5625-.609375.6875-1.59375.6875-.9375 0-1.546875-.54686-.609375-.5469-.609375-1.3594 0-1.0156.734375-1.54687.75-.54687 2.171875-.54687h.765625v-.35936q0-.4375-.21875-.70314-.21875-.26563-.71875-.26563-.421875 0-.671875.20313-.234375.20314-.234375.5625h-1.6875q0-.54686.328125-1.01563.34375-.46873.96875-.73437.625-.26563 1.390625-.26563 1.171875 0 1.859375.59377.6875.5781.6875 1.6406v2.75q.015625.90626.25 1.375v.09376zm-1.40625-1.17186q.375 0 .6875-.1719.328125-.17187.46875-.4531v-1.09377h-.625q-1.265625 0-1.359375.89063v.09374q0 .3125.21875.53126.21875.20314.609375.20314z"/><path d="m83.703125 583.3128h-1.765625l-3.421875-5.6094v5.6094h-1.75v-8.53124h1.75l3.4375 5.625v-5.625h1.75zm.6875-3.2344q0-.9375.359375-1.67184.359375-.75 1.046875-1.14066.6875-.4062 1.578125-.4062 1.296875 0 2.09375.7812.8125.7813.90625 2.125l.015625.4375q0 1.4688-.8125 2.3594-.8125.875-2.1875.875-1.375 0-2.1875-.875-.8125-.8906-.8125-2.40624zm1.6875.125q0 .9063.34375 1.39066.34375.46874.96875.46874.625 0 .96875-.46874.34375-.46876.34375-1.51566 0-.875-.34375-1.35934-.34375-.5-.984375-.5-.609375 0-.953125.48434-.34375.4844-.34375 1.5zm9.140625-1.6406q-.34375-.0469-.609375-.0469-.96875 0-1.265625.64066v4.15624h-1.6875v-6.34374h1.59375l.046875.76564q.515625-.875 1.40625-.875.28125 0 .53125.0781zm5.953125 2.4531.828125-4.04684h1.625l-1.609375 6.34374h-1.421875l-1.203125-3.9844-1.203125 3.9844h-1.40625l-1.609375-6.34374h1.625l.828125 4.03124 1.15625-4.03124h1.234375zm7.15625 2.2969q-.125-.2344-.171875-.5625-.609375.6875-1.59375.6875-.9375 0-1.546875-.5469-.609375-.54684-.609375-1.35934 0-1.01566.734375-1.54686.75-.5469 2.171875-.5469h.765625v-.3594q0-.4375-.21875-.7031-.21875-.2656-.71875-.2656-.421875 0-.671875.2031-.234375.2031-.234375.5625h-1.6875q0-.5469.328125-1.0156.34375-.4688.96875-.7344.625-.2656 1.390625-.2656 1.171875 0 1.859375.5937.6875.57816.6875 1.64066v2.75q.015625.90624.25 1.375v.09374zm-1.40625-1.1719q.375 0 .6875-.17184.328125-.17186.46875-.45316v-1.0937h-.625q-1.265625 0-1.359375.8906v.09376q0 .3125.21875.53124.21875.2031.609375.2031zm6.09375-1.2187 1.171875-3.95314h1.8125l-2.546875 7.32814-.140625.3281q-.5625 1.25-1.875 1.25-.359375 0-.75-.1094v-1.2812h.265625q.484375 0 .71875-.1563.234375-.1406.375-.4687l.1875-.5313-2.21875-6.35934h1.828125z"/><path d="m41.765625 636.06287q0 1.26563-.453125 2.21873-.4375.9375-1.265625 1.46877-.828125.51563-1.890625.51563-1.0625 0-1.90625-.51563-.828125-.51563-1.28125-1.45313-.453125-.95314-.46875-2.1875v-.42187q0-1.25.453125-2.20313.453125-.96874 1.28125-1.48437.84375-.51563 1.90625-.51563 1.0625 0 1.890625.51563.828125.51563 1.28125 1.48437.453125.95313.453125 2.20313zm-1.78125-.375q0-1.34377-.484375-2.04687-.46875-.70313-1.359375-.70313-.890625 0-1.375.70313-.46875.6875-.484375 2.0156v.40627q0 1.3125.484375 2.03123.484375.71877 1.390625.71877.875 0 1.34375-.6875.484375-.70313.484375-2.03127zm4.6875-3.45313v1.5625h1.09375v1.25h-1.09375v3.15626q0 .35937.140625.5156.140625.14064.515625.14064.28125 0 .5-.03124v1.28124q-.5.15626-1.03125.15626-1.78125 0-1.8125-1.8125v-3.40626h-.921875v-1.25h.921875v-1.5625zm3.625 2.25q.6875-.79687 1.703125-.79687 2.0625 0 2.09375 2.39063v4.0625h-1.703125v-4.01563q0-.54687-.234375-.79687-.234375-.26563-.78125-.26563-.734375 0-1.078125.57813v4.5h-1.6875v-9h1.6875zm8.265625 5.78126q-1.390625 0-2.265625-.8594-.875-.85936-.875-2.28123v-.17187q0-.95313.359375-1.70313.375-.75 1.046875-1.15627.6875-.40623 1.546875-.40623 1.3125 0 2.046875.82813.75.8125.75 2.3125v.6875h-4.03125q.078125.625.484375 1 .421875.375 1.0625.375.96875 0 1.515625-.70313l.84375.92187q-.390625.54686-1.046875.85936-.640625.2969-1.4375.2969zm-.1875-5.21876q-.5 0-.8125.34376-.3125.34374-.40625.96874h2.359375v-.125q-.015625-.5625-.3125-.875-.28125-.3125-.828125-.3125zm6.84375.34376q-.34375-.0469-.609375-.0469-.96875 0-1.265625.64064v4.15626h-1.6875v-6.34376h1.59375l.046875.76563q.515625-.875 1.40625-.875.28125 0 .53125.07813zm6.0625 3.5q.46875 0 .765625-.25.296875-.26563.3125-.6875h1.578125q0 .6406-.34375 1.1875-.34375.53124-.953125.8281-.59375.2969-1.328125.2969-1.359375 0-2.140625-.8594-.78125-.875-.78125-2.40623v-.10937q0-1.46876.78125-2.32813.78125-.875 2.140625-.875 1.1875 0 1.90625.67187.71875.67186.71875 1.79686h-1.578125q-.015625-.48436-.3125-.79686-.296875-.3125-.765625-.3125-.59375 0-.90625.4375-.296875.4375-.296875 1.39063v.1875q0 .96873.296875 1.40623.296875.4219.90625.4219zm3.109375-1.9844q0-.9375.359375-1.67186.359375-.75 1.046875-1.14064.6875-.40623 1.578125-.40623 1.296875 0 2.09375.78123.8125.78127.90625 2.125l.015625.4375q0 1.46877-.8125 2.3594-.8125.875-2.1875.875-1.375 0-2.1875-.875-.8125-.89063-.8125-2.40626zm1.6875.125q0 .90627.34375 1.39064.34375.46876.96875.46876.625 0 .96875-.46876.34375-.46874.34375-1.51564 0-.875-.34375-1.35936-.34375-.5-.984375-.5-.609375 0-.953125.48436-.34375.4844-.34375 1.5zm9.375 2.46877q-.625.76563-1.734375.76563-1.03125 0-1.5625-.59376-.53125-.59374-.546875-1.71874v-4.15626h1.6875v4.09376q0 1 .90625 1 .859375 0 1.1875-.6094v-4.48436h1.703125v6.34376h-1.59375zm4.75-5.70313.0625.73436q.671875-.84373 1.8125-.84373 1.015625 0 1.5.59373.5.57814.515625 1.76564v4.09376h-1.703125v-4.0625q0-.53126-.234375-.76563-.234375-.25-.78125-.25-.703125 0-1.0625.60937v4.46876h-1.703125v-6.34376zm7.46875-1.5625v1.5625h1.09375v1.25h-1.09375v3.15626q0 .35937.140625.5156.140625.14064.515625.14064.28125 0 .5-.03124v1.28124q-.5.15626-1.03125.15626-1.78125 0-1.8125-1.8125v-3.40626h-.921875v-1.25h.921875v-1.5625zm5.546875 3.15626q-.34375-.0469-.609375-.0469-.96875 0-1.265625.64064v4.15626h-1.6875v-6.34376h1.59375l.046875.76563q.515625-.875 1.40625-.875.28125 0 .53125.07813zm2.21875 4.75h-1.703125v-6.34376h1.703125zm-1.796875-7.9844q0-.375.25-.625.265625-.25.703125-.25.421875 0 .671875.25.265625.25.265625.625 0 .39064-.265625.64064-.25.23436-.6875.23436-.421875 0-.6875-.23436-.25-.25-.25-.64064zm5.921875 8.1094q-1.390625 0-2.265625-.8594-.875-.85936-.875-2.28123v-.17187q0-.95313.359375-1.70313.375-.75 1.046875-1.15627.6875-.40623 1.546875-.40623 1.3125 0 2.046875.82813.75.8125.75 2.3125v.6875h-4.03125q.078125.625.484375 1 .421875.375 1.0625.375.96875 0 1.515625-.70313l.84375.92187q-.390625.54686-1.046875.85936-.640625.2969-1.4375.2969zm-.1875-5.21876q-.5 0-.8125.34376-.3125.34374-.40625.96874h2.359375v-.125q-.015625-.5625-.3125-.875-.28125-.3125-.828125-.3125zm6.703125 3.34376q0-.3125-.3125-.4844-.296875-.1875-.96875-.3281-2.265625-.46876-2.265625-1.9219 0-.84373.6875-1.40623.703125-.5625 1.84375-.5625 1.203125 0 1.921875.5625.734375.5625.734375 1.48437h-1.703125q0-.375-.234375-.60937-.234375-.23437-.734375-.23437-.421875 0-.65625.2031-.234375.1875-.234375.4844 0 .28124.265625.4531.265625.1719.890625.2969.640625.125 1.078125.28124 1.34375.5 1.34375 1.70313 0 .875-.75 1.42187-.734375.53126-1.921875.53126-.796875 0-1.421875-.28126-.609375-.29687-.96875-.78124-.34375-.5-.34375-1.07813h1.609375q.015625.45313.328125.70313.3125.23437.828125.23437.5 0 .734375-.1875.25-.1875.25-.48437z"/><path d="m124.828125 694.46875q0 1.76565-.734375 2.71875-.734375.9375-2.140625.9375-1.40625 0-2.140625-.9219-.734375-.92185-.75-2.6406v-1.5781q0-1.7813.734375-2.70315.75-.9375 2.140625-.9375 1.390625 0 2.125.92185.75.9219.765625 2.64065zm-1.703125-1.71875q0-1.0625-.296875-1.5469-.28125-.48435-.890625-.48435-.59375 0-.890625.46875-.28125.4531-.296875 1.4375v2.0625q0 1.0469.28125 1.5625.28125.5.921875.5.609375 0 .890625-.4844.28125-.48435.28125-1.48435z"/><path d="m228.67188 698h-5.84376v-1.15625l2.76563-2.95315q.5625-.60935.82813-1.0781.28124-.46875.28124-.875 0-.5781-.29687-.8906-.28125-.32815-.8125-.32815-.57813 0-.90625.39065-.32812.3906-.32812 1.04685h-1.70313q0-.78125.375-1.42185.375-.6563 1.04687-1.01565.6875-.375 1.54688-.375 1.3125 0 2.04688.64065.73437.625.73437 1.7812 0 .64065-.32813 1.2969-.32812.65625-1.125 1.53125l-1.9375 2.04685h3.65626zm6.90624-3.53125q0 1.76565-.73437 2.71875-.73437.9375-2.14063.9375-1.40624 0-2.14062-.9219-.73438-.92185-.75-2.6406v-1.5781q0-1.7813.73438-2.70315.75-.9375 2.14062-.9375 1.39062 0 2.125.92185.75.9219.76562 2.64065zm-1.70312-1.71875q0-1.0625-.29688-1.5469-.28124-.48435-.89062-.48435-.59375 0-.89062.46875-.28126.4531-.29688 1.4375v2.0625q0 1.0469.28125 1.5625.28125.5.92187.5.60938 0 .89063-.4844.28125-.48435.28125-1.48435z"/><path d="m335.09375 694.78125h.96875v1.375h-.96875v1.84375h-1.70313v-1.84375h-3.48437l-.07813-1.0625 3.54688-5.625h1.71875zm-3.57813 0h1.875v-3l-.10937.1875zm11.3125-.3125q0 1.76565-.73437 2.71875-.73437.9375-2.14063.9375-1.40624 0-2.14062-.9219-.73438-.92185-.75-2.6406v-1.5781q0-1.7813.73438-2.70315.75-.9375 2.14062-.9375 1.39062 0 2.125.92185.75.9219.76562 2.64065zm-1.70312-1.71875q0-1.0625-.29688-1.5469-.28124-.48435-.89062-.48435-.59375 0-.89062.46875-.28126.4531-.29688 1.4375v2.0625q0 1.0469.28125 1.5625.28125.5.92187.5.60938 0 .89063-.4844.28125-.48435.28125-1.48435z"/><path d="m441.92188 689.375v1.40625h-.15626q-1.15624.01565-1.85937.59375-.6875.5781-.82813 1.6094.67188-.6875 1.70313-.6875 1.125 0 1.78125.79685.65625.79685.65625 2.09375 0 .8281-.35937 1.5-.35938.6719-1.03126 1.0625-.65624.375-1.48437.375-1.34375 0-2.17187-.9375-.82813-.9531-.82813-2.5156v-.6094q0-1.3906.51563-2.4531.53124-1.0625 1.5-1.64065.98437-.57815 2.28124-.59375zm-1.65626 4.28125q-.40624 0-.75.21875-.32812.2031-.48437.5625v.5156q0 .8438.32813 1.32815.34374.46875.95312.46875.54688 0 .875-.4219.34375-.4375.34375-1.125 0-.7031-.34375-1.125-.34375-.42185-.92188-.42185zm9.8125.8125q0 1.76565-.73437 2.71875-.73437.9375-2.14063.9375-1.40624 0-2.14062-.9219-.73438-.92185-.75-2.6406v-1.5781q0-1.7813.73438-2.70315.75-.9375 2.14062-.9375 1.39062 0 2.125.92185.75.9219.76562 2.64065zm-1.70312-1.71875q0-1.0625-.29688-1.5469-.28124-.48435-.89062-.48435-.59375 0-.89062.46875-.28126.4531-.29688 1.4375v2.0625q0 1.0469.28125 1.5625.28125.5.92187.5.60938 0 .89063-.4844.28125-.48435.28125-1.48435z"/><path d="m550.1406 691.7344q0 .625-.3125 1.10935-.3125.46875-.85935.76565.625.29685.98435.8281.375.5156.375 1.21875 0 1.14065-.7812 1.8125-.76565.65625-2.1094.65625-1.3281 0-2.1094-.65625-.7656-.67185-.7656-1.8125 0-.70315.3594-1.23435.35935-.5313.98435-.8125-.54685-.2969-.85935-.76565-.3125-.48435-.3125-1.10935 0-1.0938.7187-1.7344.7344-.65625 1.9844-.65625 1.25 0 1.96875.65625.73435.6406.73435 1.7344zm-1.5156 3.79685q0-.54685-.3281-.875-.3125-.34375-.8594-.34375-.5469 0-.875.3281-.3125.32815-.3125.89065 0 .54685.3125.89065.3281.3281.8906.3281.5469 0 .8594-.3125.3125-.3281.3125-.90625zm-.1719-3.71875q0-.5-.2656-.7969-.2656-.29685-.75-.29685-.46875 0-.7344.29685-.2656.2813-.2656.7969 0 .5156.2656.8281.26565.3125.7344.3125.4844 0 .75-.3125.2656-.3125.2656-.8281zm8.875 2.65625q0 1.76565-.73435 2.71875-.73435.9375-2.14065.9375-1.4062 0-2.1406-.9219-.7344-.92185-.75-2.6406v-1.5781q0-1.7813.7344-2.70315.75-.9375 2.1406-.9375 1.3906 0 2.125.92185.75.9219.7656 2.64065zm-1.7031-1.71875q0-1.0625-.2969-1.5469-.2812-.48435-.8906-.48435-.59375 0-.8906.46875-.2813.4531-.2969 1.4375v2.0625q0 1.0469.28125 1.5625.28125.5.92185.5.6094 0 .89065-.4844.28125-.48435.28125-1.48435z"/></g></svg>