<svg fill="none" height="729" stroke-linecap="square" stroke-miterlimit="10" viewBox="0 0 580 729" width="580" xmlns="http://www.w3.org/2000/svg" xmlns:xlink="http://www.w3.org/1999/xlink"><clipPath id="a"><path d="m138 29h413v644h-413z"/></clipPath><path d="m0 0h580v729h-580z" fill="none"/><path d="m138.5 29.5v644" stroke="#333" stroke-linecap="butt"/><path d="m241.5 29.5v644" stroke="#ccc" stroke-linecap="butt"/><path d="m344.5 29.5v644" stroke="#ccc" stroke-linecap="butt"/><path d="m447.5 29.5v644" stroke="#ccc" stroke-linecap="butt"/><path d="m551.5 29.5v644" stroke="#ccc" stroke-linecap="butt"/><path d="m172.5 29.5v644"/><path d="m206.5 29.5v644"/><path d="m275.5 29.5v644"/><path d="m310.5 29.5v644"/><path d="m378.5 29.5v644"/><path d="m413.5 29.5v644"/><path d="m482.5 29.5v644"/><path d="m516.5 29.5v644"/><path d="m138.5 673.5v-644" stroke="#000" stroke-linecap="butt"/><path clip-path="url(#a)" d="m138 86v-37h323c1.10458 0 2 .89543 2 2v33c0 1.10457-.89542 2-2 2z"/><path clip-path="url(#a)" d="m138 86v-37h323c1.10458 0 2 .89543 2 2v33c0 1.10457-.89542 2-2 2z" fill="#ed7d31"/><path clip-path="url(#a)" d="m138 143v-37h112c1.10457 0 2 .89543 2 2v33c0 1.10457-.89543 2-2 2z"/><path clip-path="url(#a)" d="m138 143v-37h112c1.10457 0 2 .89543 2 2v33c0 1.10457-.89543 2-2 2z" fill="#ed7d31"/><path clip-path="url(#a)" d="m138 200v-37h107c1.10457 0 2 .89543 2 2v33c0 1.10457-.89543 2-2 2z"/><path clip-path="url(#a)" d="m138 200v-37h107c1.10457 0 2 .89543 2 2v33c0 1.10457-.89543 2-2 2z" fill="#ed7d31"/><path clip-path="url(#a)" d="m138 257v-37h92c1.10457 0 2 .89543 2 2v33c0 1.10458-.89543 2-2 2z"/><path clip-path="url(#a)" d="m138 257v-37h92c1.10457 0 2 .89543 2 2v33c0 1.10458-.89543 2-2 2z" fill="#ed7d31"/><path clip-path="url(#a)" d="m138 313v-37h67c1.10457 0 2 .89542 2 2v33c0 1.10458-.89543 2-2 2z"/><path clip-path="url(#a)" d="m138 313v-37h67c1.10457 0 2 .89542 2 2v33c0 1.10458-.89543 2-2 2z" fill="#ed7d31"/><path clip-path="url(#a)" d="m138 370v-37h64c1.10457 0 2 .89542 2 2v33c0 1.10458-.89543 2-2 2z"/><path clip-path="url(#a)" d="m138 370v-37h64c1.10457 0 2 .89542 2 2v33c0 1.10458-.89543 2-2 2z" fill="#ed7d31"/><path clip-path="url(#a)" d="m138 427v-37h46c1.10457 0 2 .89542 2 2v33c0 1.10458-.89543 2-2 2z"/><path clip-path="url(#a)" d="m138 427v-37h46c1.10457 0 2 .89542 2 2v33c0 1.10458-.89543 2-2 2z" fill="#ed7d31"/><path clip-path="url(#a)" d="m138 483v-37h40c1.10457 0 2 .89542 2 2v33c0 1.10458-.89543 2-2 2z"/><path clip-path="url(#a)" d="m138 483v-37h40c1.10457 0 2 .89542 2 2v33c0 1.10458-.89543 2-2 2z" fill="#ed7d31"/><path clip-path="url(#a)" d="m138 540v-37h37c1.10457 0 2 .89542 2 2v33c0 1.10455-.89543 2-2 2z"/><path clip-path="url(#a)" d="m138 540v-37h37c1.10457 0 2 .89542 2 2v33c0 1.10455-.89543 2-2 2z" fill="#ed7d31"/><path clip-path="url(#a)" d="m138 597v-37h32c1.10457 0 2 .89545 2 2v33c0 1.10455-.89543 2-2 2z"/><path clip-path="url(#a)" d="m138 597v-37h32c1.10457 0 2 .89545 2 2v33c0 1.10455-.89543 2-2 2z" fill="#ed7d31"/><path clip-path="url(#a)" d="m138 654v-37h207c1.10458 0 2 .89545 2 2v33c0 1.10455-.89542 2-2 2z"/><path clip-path="url(#a)" d="m138 654v-37h207c1.10458 0 2 .89545 2 2v33c0 1.10455-.89542 2-2 2z" fill="#ed7d31"/><path d="m138.5 679.5v-12" stroke="#000" stroke-linecap="butt"/><path d="m241.5 679.5v-12" stroke="#000" stroke-linecap="butt"/><path d="m344.5 679.5v-12" stroke="#000" stroke-linecap="butt"/><path d="m447.5 679.5v-12" stroke="#000" stroke-linecap="butt"/><path d="m551.5 679.5v-12" stroke="#000" stroke-linecap="butt"/><path d="m432.69293 62.875v1.40625h-.15625q-1.15625.015625-1.85938.59375-.6875.578125-.82812 1.609375.67188-.6875 1.70312-.6875 1.125 0 1.78126.796875.65624.796875.65624 2.09375 0 .828125-.35937 1.5-.35937.671875-1.03125 1.0625-.65625.375-1.48438.375-1.34374 0-2.17187-.9375-.82813-.953125-.82813-2.515625v-.609375q0-1.390625.51563-2.453125.53125-1.0625 1.5-1.640625.98437-.578125 2.28125-.59375zm-1.65625 4.28125q-.40625 0-.75.21875-.32812.203125-.48438.5625v.515625q0 .84375.32813 1.328125.34375.46875.95313.46875.54687 0 .875-.421875.34374-.4375.34374-1.125 0-.703125-.34374-1.125-.34376-.421875-.92188-.421875zm5.78125-.671875h.90625q.64062 0 .95312-.3125.3125-.328125.3125-.859375 0-.515625-.3125-.796875-.29687-.296875-.84374-.296875-.48438 0-.8125.265625-.32813.265625-.32813.6875h-1.6875q0-.65625.35937-1.1875.35938-.53125 1-.828125.65626-.3125 1.4375-.3125 1.34376 0 2.10938.65625.78125.640625.78125 1.78125 0 .59375-.35937 1.09375-.35938.484375-.9375.734375.71874.265625 1.0625.78125.35937.515625.35937 1.21875 0 1.140625-.82813 1.828125-.82812.6875-2.1875.6875-1.28124 0-2.09374-.671875-.8125-.6875-.8125-1.796875h1.6875q0 .484375.35937.796875.375.296875.89063.296875.60937 0 .95312-.3125.34375-.328125.34375-.859375 0-1.265625-1.40625-1.265625h-.90625zm5.4375 4.1875q0-.40625.26563-.65625.28124-.25.6875-.25.42187 0 .6875.25.28124.25.28124.65625 0 .390625-.28124.640625-.26563.25-.6875.25-.40626 0-.6875-.25-.26563-.25-.26563-.640625zm8.59375-2.703125q0 1.765625-.73438 2.71875-.73437.9375-2.14062.9375-1.40625 0-2.14062-.921875-.73438-.921875-.75-2.640625v-1.578125q0-1.78125.73437-2.703125.75-.9375 2.14063-.9375 1.39062 0 2.125.921875.75.921875.76562 2.640625zm-1.70312-1.71875q0-1.0625-.29688-1.546875-.28125-.484375-.89062-.484375-.59376 0-.89063.46875-.28125.453125-.29687 1.4375v2.0625q0 1.046875.28124 1.5625.28126.5.92188.5.60938 0 .89062-.484375.28126-.484375.28126-1.484375zm8.79687 5.25h-5.84375v-1.15625l2.76562-2.953125q.5625-.609375.82813-1.078125.28125-.46875.28125-.875 0-.578125-.29688-.890625-.28124-.328125-.8125-.328125-.57812 0-.90624.390625-.32813.390625-.32813 1.046875h-1.70313q0-.78125.375-1.421875.375-.65625 1.04688-1.015625.6875-.375 1.54688-.375 1.3125 0 2.04687.640625.73437.625.73437 1.78125 0 .640625-.32812 1.296875-.32812.65625-1.125 1.53125l-1.9375 2.046875h3.65625z" stroke="#ed7d31" stroke-linecap="round" stroke-linejoin="round" stroke-width="3"/><path d="m432.69293 62.875v1.40625h-.15625q-1.15625.015625-1.85938.59375-.6875.578125-.82812 1.609375.67188-.6875 1.70312-.6875 1.125 0 1.78126.796875.65624.796875.65624 2.09375 0 .828125-.35937 1.5-.35937.671875-1.03125 1.0625-.65625.375-1.48438.375-1.34374 0-2.17187-.9375-.82813-.953125-.82813-2.515625v-.609375q0-1.390625.51563-2.453125.53125-1.0625 1.5-1.640625.98437-.578125 2.28125-.59375zm-1.65625 4.28125q-.40625 0-.75.21875-.32812.203125-.48438.5625v.515625q0 .84375.32813 1.328125.34375.46875.95313.46875.54687 0 .875-.421875.34374-.4375.34374-1.125 0-.703125-.34374-1.125-.34376-.421875-.92188-.421875zm5.78125-.671875h.90625q.64062 0 .95312-.3125.3125-.328125.3125-.859375 0-.515625-.3125-.796875-.29687-.296875-.84374-.296875-.48438 0-.8125.265625-.32813.265625-.32813.6875h-1.6875q0-.65625.35937-1.1875.35938-.53125 1-.828125.65626-.3125 1.4375-.3125 1.34376 0 2.10938.65625.78125.640625.78125 1.78125 0 .59375-.35937 1.09375-.35938.484375-.9375.734375.71874.265625 1.0625.78125.35937.515625.35937 1.21875 0 1.140625-.82813 1.828125-.82812.6875-2.1875.6875-1.28124 0-2.09374-.671875-.8125-.6875-.8125-1.796875h1.6875q0 .484375.35937.796875.375.296875.89063.296875.60937 0 .95312-.3125.34375-.328125.34375-.859375 0-1.265625-1.40625-1.265625h-.90625zm5.4375 4.1875q0-.40625.26563-.65625.28124-.25.6875-.25.42187 0 .6875.25.28124.25.28124.65625 0 .390625-.28124.640625-.26563.25-.6875.25-.40626 0-.6875-.25-.26563-.25-.26563-.640625zm8.59375-2.703125q0 1.765625-.73438 2.71875-.73437.9375-2.14062.9375-1.40625 0-2.14062-.921875-.73438-.921875-.75-2.640625v-1.578125q0-1.78125.73437-2.703125.75-.9375 2.14063-.9375 1.39062 0 2.125.921875.75.921875.76562 2.640625zm-1.70312-1.71875q0-1.0625-.29688-1.546875-.28125-.484375-.89062-.484375-.59376 0-.89063.46875-.28125.453125-.29687 1.4375v2.0625q0 1.046875.28124 1.5625.28126.5.92188.5.60938 0 .89062-.484375.28126-.484375.28126-1.484375zm8.79687 5.25h-5.84375v-1.15625l2.76562-2.953125q.5625-.609375.82813-1.078125.28125-.46875.28125-.875 0-.578125-.29688-.890625-.28124-.328125-.8125-.328125-.57812 0-.90624.390625-.32813.390625-.32813 1.046875h-1.70313q0-.78125.375-1.421875.375-.65625 1.04688-1.015625.6875-.375 1.54688-.375 1.3125 0 2.04687.640625.73437.625.73437 1.78125 0 .640625-.32812 1.296875-.32812.65625-1.125 1.53125l-1.9375 2.046875h3.65625z" fill="#000"/><path d="m222.90498 128.5h-5.84375v-1.15625l2.76563-2.953125q.5625-.609375.82812-1.078125.28125-.46875.28125-.875 0-.578125-.29687-.890625-.28125-.328125-.8125-.328125-.57813 0-.90625.390625-.32813.390625-.32813 1.046875h-1.70312q0-.78125.375-1.421875.375-.65625 1.04687-1.015625.6875-.375 1.54688-.375 1.3125 0 2.04687.640625.73438.625.73438 1.78125 0 .640625-.32813 1.296875-.32812.65625-1.125 1.53125l-1.9375 2.046875h3.65625zm7 0h-5.84375v-1.15625l2.76563-2.953125q.5625-.609375.82812-1.078125.28125-.46875.28125-.875 0-.578125-.29687-.890625-.28125-.328125-.8125-.328125-.57813 0-.90625.390625-.32813.390625-.32813 1.046875h-1.70312q0-.78125.375-1.421875.375-.65625 1.04687-1.015625.6875-.375 1.54688-.375 1.3125 0 2.04687.640625.73438.625.73438 1.78125 0 .640625-.32813 1.296875-.32812.65625-1.125 1.53125l-1.9375 2.046875h3.65625zm1.3125-.828125q0-.40625.26563-.65625.28125-.25.6875-.25.42187 0 .6875.25.28125.25.28125.65625 0 .390625-.28125.640625-.26563.25-.6875.25-.40625 0-.6875-.25-.26563-.25-.26563-.640625zm6.95313.828125h-1.6875v-6.53125l-2.01563.625v-1.375l3.53125-1.265625h.17188zm7.90625-3.21875h.96875v1.375h-.96875v1.84375h-1.70313v-1.84375h-3.48437l-.07813-1.0625 3.54688-5.625h1.71875zm-3.57813 0h1.875v-3l-.10937.1875z" stroke="#ed7d31" stroke-linecap="round" stroke-linejoin="round" stroke-width="3"/><path d="m222.90498 128.5h-5.84375v-1.15625l2.76563-2.953125q.5625-.609375.82812-1.078125.28125-.46875.28125-.875 0-.578125-.29687-.890625-.28125-.328125-.8125-.328125-.57813 0-.90625.390625-.32813.390625-.32813 1.046875h-1.70312q0-.78125.375-1.421875.375-.65625 1.04687-1.015625.6875-.375 1.54688-.375 1.3125 0 2.04687.640625.73438.625.73438 1.78125 0 .640625-.32813 1.296875-.32812.65625-1.125 1.53125l-1.9375 2.046875h3.65625zm7 0h-5.84375v-1.15625l2.76563-2.953125q.5625-.609375.82812-1.078125.28125-.46875.28125-.875 0-.578125-.29687-.890625-.28125-.328125-.8125-.328125-.57813 0-.90625.390625-.32813.390625-.32813 1.046875h-1.70312q0-.78125.375-1.421875.375-.65625 1.04687-1.015625.6875-.375 1.54688-.375 1.3125 0 2.04687.640625.73438.625.73438 1.78125 0 .640625-.32813 1.296875-.32812.65625-1.125 1.53125l-1.9375 2.046875h3.65625zm1.3125-.828125q0-.40625.26563-.65625.28125-.25.6875-.25.42187 0 .6875.25.28125.25.28125.65625 0 .390625-.28125.640625-.26563.25-.6875.25-.40625 0-.6875-.25-.26563-.25-.26563-.640625zm6.95313.828125h-1.6875v-6.53125l-2.01563.625v-1.375l3.53125-1.265625h.17188zm7.90625-3.21875h.96875v1.375h-.96875v1.84375h-1.70313v-1.84375h-3.48437l-.07813-1.0625 3.54688-5.625h1.71875zm-3.57813 0h1.875v-3l-.10937.1875z" fill="#000"/><path d="m217.44733 185.5h-5.84375v-1.15625l2.76562-2.95313q.5625-.60937.82813-1.07812.28125-.46875.28125-.875 0-.57812-.29688-.89062-.28125-.32813-.8125-.32813-.57812 0-.90625.39063-.32812.39062-.32812 1.04687h-1.70313q0-.78125.375-1.42187.375-.65626 1.04688-1.01563.6875-.375 1.54687-.375 1.3125 0 2.04688.64063.73437.625.73437 1.78124 0 .64063-.32812 1.29688-.32813.65625-1.125 1.53125l-1.9375 2.04687h3.65625zm5.26562 0h-1.6875v-6.53125l-2.01562.625v-1.375l3.53125-1.26563h.17187zm3.04688-.82812q0-.40626.26562-.65626.28125-.25.6875-.25.42188 0 .6875.25.28125.25.28125.65626 0 .39062-.28125.64062-.26562.25-.6875.25-.40625 0-.6875-.25-.26562-.25-.26562-.64062zm8.59375-2.70313q0 1.76563-.73438 2.71875-.73437.9375-2.14062.9375-1.40625 0-2.14063-.92188-.73437-.92187-.75-2.64062v-1.57812q0-1.78126.73438-2.70313.75-.9375 2.14062-.9375 1.39063 0 2.125.92187.75.92188.76563 2.64063zm-1.70313-1.71875q0-1.0625-.29687-1.54688-.28125-.48437-.89063-.48437-.59375 0-.89062.46875-.28125.45312-.29688 1.4375v2.0625q0 1.04688.28125 1.5625.28125.5.92188.5.60937 0 .89062-.48438.28125-.48437.28125-1.48437zm8.51563-1.01562q0 .625-.3125 1.10937-.3125.46875-.85938.76563.625.29687.98438.82812.375.51562.375 1.21875 0 1.14063-.78125 1.8125-.76563.65625-2.10938.65625-1.32812 0-2.10937-.65625-.76563-.67187-.76563-1.8125 0-.70313.35938-1.23437.35937-.53126.98437-.8125-.54687-.29688-.85937-.76563-.3125-.48437-.3125-1.10937 0-1.09376.71875-1.73438.73437-.65625 1.98437-.65625 1.25 0 1.96875.65625.73438.64062.73438 1.73438zm-1.51563 3.79687q0-.54687-.32812-.875-.3125-.34375-.85938-.34375-.54687 0-.875.32812-.3125.32813-.3125.89063 0 .54687.3125.89063.32813.32812.89063.32812.54687 0 .85937-.3125.3125-.32812.3125-.90625zm-.17187-3.71875q0-.5-.26563-.79688-.26562-.29687-.75-.29687-.46875 0-.73437.29687-.26563.28126-.26563.79688 0 .51562.26563.82812.26562.3125.73437.3125.48438 0 .75-.3125.26563-.3125.26563-.82812z" stroke="#ed7d31" stroke-linecap="round" stroke-linejoin="round" stroke-width="3"/><path d="m217.44733 185.5h-5.84375v-1.15625l2.76562-2.95313q.5625-.60937.82813-1.07812.28125-.46875.28125-.875 0-.57812-.29688-.89062-.28125-.32813-.8125-.32813-.57812 0-.90625.39063-.32812.39062-.32812 1.04687h-1.70313q0-.78125.375-1.42187.375-.65626 1.04688-1.01563.6875-.375 1.54687-.375 1.3125 0 2.04688.64063.73437.625.73437 1.78124 0 .64063-.32812 1.29688-.32813.65625-1.125 1.53125l-1.9375 2.04687h3.65625zm5.26562 0h-1.6875v-6.53125l-2.01562.625v-1.375l3.53125-1.26563h.17187zm3.04688-.82812q0-.40626.26562-.65626.28125-.25.6875-.25.42188 0 .6875.25.28125.25.28125.65626 0 .39062-.28125.64062-.26562.25-.6875.25-.40625 0-.6875-.25-.26562-.25-.26562-.64062zm8.59375-2.70313q0 1.76563-.73438 2.71875-.73437.9375-2.14062.9375-1.40625 0-2.14063-.92188-.73437-.92187-.75-2.64062v-1.57812q0-1.78126.73438-2.70313.75-.9375 2.14062-.9375 1.39063 0 2.125.92187.75.92188.76563 2.64063zm-1.70313-1.71875q0-1.0625-.29687-1.54688-.28125-.48437-.89063-.48437-.59375 0-.89062.46875-.28125.45312-.29688 1.4375v2.0625q0 1.04688.28125 1.5625.28125.5.92188.5.60937 0 .89062-.48438.28125-.48437.28125-1.48437zm8.51563-1.01562q0 .625-.3125 1.10937-.3125.46875-.85938.76563.625.29687.98438.82812.375.51562.375 1.21875 0 1.14063-.78125 1.8125-.76563.65625-2.10938.65625-1.32812 0-2.10937-.65625-.76563-.67187-.76563-1.8125 0-.70313.35938-1.23437.35937-.53126.98437-.8125-.54687-.29688-.85937-.76563-.3125-.48437-.3125-1.10937 0-1.09376.71875-1.73438.73437-.65625 1.98437-.65625 1.25 0 1.96875.65625.73438.64062.73438 1.73438zm-1.51563 3.79687q0-.54687-.32812-.875-.3125-.34375-.85938-.34375-.54687 0-.875.32812-.3125.32813-.3125.89063 0 .54687.3125.89063.32813.32812.89063.32812.54687 0 .85937-.3125.3125-.32812.3125-.90625zm-.17187-3.71875q0-.5-.26563-.79688-.26562-.29687-.75-.29687-.46875 0-.73437.29687-.26563.28126-.26563.79688 0 .51562.26563.82812.26562.3125.73437.3125.48438 0 .75-.3125.26563-.3125.26563-.82812z" fill="#000"/><path d="m200.93094 242.5h-1.6875v-6.53125l-2.01563.625v-1.375l3.53125-1.26563h.17188zm8.45312-6.26562q0 .625-.3125 1.10937-.3125.46875-.85937.76563.625.29687.98437.82812.375.51562.375 1.21875 0 1.14063-.78125 1.8125-.76562.65625-2.10937.65625-1.32813 0-2.10938-.65625-.76562-.67187-.76562-1.8125 0-.70313.35937-1.23437.35938-.53126.98438-.8125-.54688-.29688-.85938-.76563-.3125-.48437-.3125-1.10937 0-1.09376.71875-1.73438.73438-.65625 1.98438-.65625 1.25 0 1.96875.65625.73437.64062.73437 1.73438zm-1.51562 3.79687q0-.54687-.32813-.875-.3125-.34375-.85937-.34375-.54688 0-.875.32812-.3125.32813-.3125.89063 0 .54687.3125.89063.32812.32812.89062.32812.54688 0 .85938-.3125.3125-.32812.3125-.90625zm-.17188-3.71875q0-.5-.26562-.79688-.26563-.29687-.75-.29687-.46875 0-.73438.29687-.26562.28126-.26562.79688 0 .51562.26562.82812.26563.3125.73438.3125.48437 0 .75-.3125.26562-.3125.26562-.82812zm3.28125 5.35938q0-.40626.26563-.65626.28125-.25.6875-.25.42187 0 .6875.25.28125.25.28125.65626 0 .39062-.28125.64062-.26563.25-.6875.25-.40625 0-.6875-.25-.26563-.25-.26563-.64062zm8.6875.82812h-5.84375v-1.15625l2.76563-2.95313q.5625-.60937.82812-1.07812.28125-.46875.28125-.875 0-.57812-.29687-.89062-.28125-.32813-.8125-.32813-.57813 0-.90625.39063-.32813.39062-.32813 1.04687h-1.70312q0-.78125.375-1.42187.375-.65626 1.04687-1.01563.6875-.375 1.54688-.375 1.3125 0 2.04687.64063.73438.625.73438 1.78124 0 .64063-.32813 1.29688-.32812.65625-1.125 1.53125l-1.9375 2.04687h3.65625zm7 0h-5.84375v-1.15625l2.76563-2.95313q.5625-.60937.82812-1.07812.28125-.46875.28125-.875 0-.57812-.29687-.89062-.28125-.32813-.8125-.32813-.57813 0-.90625.39063-.32813.39062-.32813 1.04687h-1.70312q0-.78125.375-1.42187.375-.65626 1.04687-1.01563.6875-.375 1.54688-.375 1.3125 0 2.04687.64063.73438.625.73438 1.78124 0 .64063-.32813 1.29688-.32812.65625-1.125 1.53125l-1.9375 2.04687h3.65625z" stroke="#ed7d31" stroke-linecap="round" stroke-linejoin="round" stroke-width="3"/><path d="m200.93094 242.5h-1.6875v-6.53125l-2.01563.625v-1.375l3.53125-1.26563h.17188zm8.45312-6.26562q0 .625-.3125 1.10937-.3125.46875-.85937.76563.625.29687.98437.82812.375.51562.375 1.21875 0 1.14063-.78125 1.8125-.76562.65625-2.10937.65625-1.32813 0-2.10938-.65625-.76562-.67187-.76562-1.8125 0-.70313.35937-1.23437.35938-.53126.98438-.8125-.54688-.29688-.85938-.76563-.3125-.48437-.3125-1.10937 0-1.09376.71875-1.73438.73438-.65625 1.98438-.65625 1.25 0 1.96875.65625.73437.64062.73437 1.73438zm-1.51562 3.79687q0-.54687-.32813-.875-.3125-.34375-.85937-.34375-.54688 0-.875.32812-.3125.32813-.3125.89063 0 .54687.3125.89063.32812.32812.89062.32812.54688 0 .85938-.3125.3125-.32812.3125-.90625zm-.17188-3.71875q0-.5-.26562-.79688-.26563-.29687-.75-.29687-.46875 0-.73438.29687-.26562.28126-.26562.79688 0 .51562.26562.82812.26563.3125.73438.3125.48437 0 .75-.3125.26562-.3125.26562-.82812zm3.28125 5.35938q0-.40626.26563-.65626.28125-.25.6875-.25.42187 0 .6875.25.28125.25.28125.65626 0 .39062-.28125.64062-.26563.25-.6875.25-.40625 0-.6875-.25-.26563-.25-.26563-.64062zm8.6875.82812h-5.84375v-1.15625l2.76563-2.95313q.5625-.60937.82812-1.07812.28125-.46875.28125-.875 0-.57812-.29687-.89062-.28125-.32813-.8125-.32813-.57813 0-.90625.39063-.32813.39062-.32813 1.04687h-1.70312q0-.78125.375-1.42187.375-.65626 1.04687-1.01563.6875-.375 1.54688-.375 1.3125 0 2.04687.64063.73438.625.73438 1.78124 0 .64063-.32813 1.29688-.32812.65625-1.125 1.53125l-1.9375 2.04687h3.65625zm7 0h-5.84375v-1.15625l2.76563-2.95313q.5625-.60937.82812-1.07812.28125-.46875.28125-.875 0-.57812-.29687-.89062-.28125-.32813-.8125-.32813-.57813 0-.90625.39063-.32813.39062-.32813 1.04687h-1.70312q0-.78125.375-1.42187.375-.65626 1.04687-1.01563.6875-.375 1.54688-.375 1.3125 0 2.04687.64063.73438.625.73438 1.78124 0 .64063-.32813 1.29688-.32812.65625-1.125 1.53125l-1.9375 2.04687h3.65625z" fill="#000"/><path d="m175.47421 298.5h-1.6875v-6.53125l-2.01562.625v-1.375l3.53125-1.26563h.17187zm4.60938-5.01562h.90625q.64062 0 .95312-.3125.3125-.32813.3125-.85938 0-.51562-.3125-.79688-.29687-.29687-.84375-.29687-.48437 0-.8125.26563-.32812.26562-.32812.6875h-1.6875q0-.65626.35937-1.1875.35938-.53126 1-.82813.65625-.3125 1.4375-.3125 1.34375 0 2.10938.65625.78125.64062.78125 1.78125 0 .59375-.35938 1.09375-.35937.48438-.9375.73438.71875.26562 1.0625.78124.35938.51563.35938 1.21876 0 1.14062-.82813 1.82812-.82812.6875-2.1875.6875-1.28125 0-2.09375-.67188-.8125-.6875-.8125-1.79687h1.6875q0 .48437.35938.79687.375.29688.89062.29688.60938 0 .95313-.3125.34375-.32812.34375-.85938 0-1.26562-1.40625-1.26562h-.90625zm5.4375 4.1875q0-.40626.26562-.65626.28125-.25.6875-.25.42188 0 .6875.25.28125.25.28125.65626 0 .39062-.28125.64062-.26562.25-.6875.25-.40625 0-.6875-.25-.26562-.25-.26562-.64062zm8.6875.82812h-5.84375v-1.15625l2.76562-2.95313q.5625-.60937.82813-1.07812.28125-.46875.28125-.875 0-.57812-.29688-.89062-.28125-.32813-.8125-.32813-.57812 0-.90625.39063-.32812.39062-.32812 1.04687h-1.70313q0-.78125.375-1.42187.375-.65626 1.04688-1.01563.6875-.375 1.54687-.375 1.3125 0 2.04688.64063.73437.625.73437 1.78124 0 .64063-.32812 1.29688-.32813.65625-1.125 1.53125l-1.9375 2.04687h3.65625zm5.125-3.40625q-.67188.64063-1.54688.64063-1.14062 0-1.82812-.76563-.67188-.78125-.67188-2.09375 0-.84375.35938-1.54688.375-.70312 1.03125-1.09374.65625-.39063 1.48437-.39063.84375 0 1.5.42187.65625.42188 1.01563 1.21876.35937.79687.375 1.8125v.625q0 2.14062-1.0625 3.35937-1.0625 1.21875-3.01563 1.29687h-.40625v-1.40624l.375-.01563q2.20313-.09375 2.39063-2.0625zm-1.14063-.65625q.42188 0 .70313-.20312.29687-.21876.45312-.51563v-.6875q0-.85937-.32812-1.32813-.32813-.48437-.875-.48437-.51563 0-.84375.46875-.32813.45312-.32813 1.15625 0 .70313.3125 1.15625.32813.4375.90625.4375z" stroke="#ed7d31" stroke-linecap="round" stroke-linejoin="round" stroke-width="3"/><path d="m175.47421 298.5h-1.6875v-6.53125l-2.01562.625v-1.375l3.53125-1.26563h.17187zm4.60938-5.01562h.90625q.64062 0 .95312-.3125.3125-.32813.3125-.85938 0-.51562-.3125-.79688-.29687-.29687-.84375-.29687-.48437 0-.8125.26563-.32812.26562-.32812.6875h-1.6875q0-.65626.35937-1.1875.35938-.53126 1-.82813.65625-.3125 1.4375-.3125 1.34375 0 2.10938.65625.78125.64062.78125 1.78125 0 .59375-.35938 1.09375-.35937.48438-.9375.73438.71875.26562 1.0625.78124.35938.51563.35938 1.21876 0 1.14062-.82813 1.82812-.82812.6875-2.1875.6875-1.28125 0-2.09375-.67188-.8125-.6875-.8125-1.79687h1.6875q0 .48437.35938.79687.375.29688.89062.29688.60938 0 .95313-.3125.34375-.32812.34375-.85938 0-1.26562-1.40625-1.26562h-.90625zm5.4375 4.1875q0-.40626.26562-.65626.28125-.25.6875-.25.42188 0 .6875.25.28125.25.28125.65626 0 .39062-.28125.64062-.26562.25-.6875.25-.40625 0-.6875-.25-.26562-.25-.26562-.64062zm8.6875.82812h-5.84375v-1.15625l2.76562-2.95313q.5625-.60937.82813-1.07812.28125-.46875.28125-.875 0-.57812-.29688-.89062-.28125-.32813-.8125-.32813-.57812 0-.90625.39063-.32812.39062-.32812 1.04687h-1.70313q0-.78125.375-1.42187.375-.65626 1.04688-1.01563.6875-.375 1.54687-.375 1.3125 0 2.04688.64063.73437.625.73437 1.78124 0 .64063-.32812 1.29688-.32813.65625-1.125 1.53125l-1.9375 2.04687h3.65625zm5.125-3.40625q-.67188.64063-1.54688.64063-1.14062 0-1.82812-.76563-.67188-.78125-.67188-2.09375 0-.84375.35938-1.54688.375-.70312 1.03125-1.09374.65625-.39063 1.48437-.39063.84375 0 1.5.42187.65625.42188 1.01563 1.21876.35937.79687.375 1.8125v.625q0 2.14062-1.0625 3.35937-1.0625 1.21875-3.01563 1.29687h-.40625v-1.40624l.375-.01563q2.20313-.09375 2.39063-2.0625zm-1.14063-.65625q.42188 0 .70313-.20312.29687-.21876.45312-.51563v-.6875q0-.85937-.32812-1.32813-.32813-.48437-.875-.48437-.51563 0-.84375.46875-.32813.45312-.32813 1.15625 0 .70313.3125 1.15625.32813.4375.90625.4375z" fill="#000"/><path d="m173.11018 355.5h-1.6875v-6.53125l-2.01562.625v-1.375l3.53125-1.26563h.17187zm8.73438 0h-5.84375v-1.15625l2.76562-2.95313q.5625-.60937.82813-1.07812.28125-.46875.28125-.875 0-.57812-.29688-.89062-.28125-.32813-.8125-.32813-.57812 0-.90625.39063-.32812.39062-.32812 1.04687h-1.70313q0-.78125.375-1.42187.375-.65626 1.04688-1.01563.6875-.375 1.54687-.375 1.3125 0 2.04688.64063.73437.625.73437 1.78124 0 .64063-.32812 1.29688-.32813.65625-1.125 1.53125l-1.9375 2.04687h3.65625zm1.3125-.82812q0-.40626.26562-.65626.28125-.25.6875-.25.42188 0 .6875.25.28125.25.28125.65626 0 .39062-.28125.64062-.26562.25-.6875.25-.40625 0-.6875-.25-.26562-.25-.26562-.64062zm8.40625-5.4375q0 .625-.3125 1.10937-.3125.46875-.85938.76563.625.29687.98438.82812.375.51562.375 1.21875 0 1.14063-.78125 1.8125-.76563.65625-2.10938.65625-1.32812 0-2.10937-.65625-.76563-.67187-.76563-1.8125 0-.70313.35938-1.23437.35937-.53126.98437-.8125-.54687-.29688-.85937-.76563-.3125-.48437-.3125-1.10937 0-1.09376.71875-1.73438.73437-.65625 1.98437-.65625 1.25 0 1.96875.65625.73438.64062.73438 1.73438zm-1.51563 3.79687q0-.54687-.32812-.875-.3125-.34375-.85938-.34375-.54687 0-.875.32812-.3125.32813-.3125.89063 0 .54687.3125.89063.32813.32812.89063.32812.54687 0 .85937-.3125.3125-.32812.3125-.90625zm-.17187-3.71875q0-.5-.26563-.79688-.26562-.29687-.75-.29687-.46875 0-.73437.29687-.26563.28126-.26563.79688 0 .51562.26563.82812.26562.3125.73437.3125.48438 0 .75-.3125.26563-.3125.26563-.82812zm4.84375 1.17188h.90625q.64062 0 .95312-.3125.3125-.32813.3125-.85938 0-.51562-.3125-.79688-.29687-.29687-.84375-.29687-.48437 0-.8125.26563-.32812.26562-.32812.6875h-1.6875q0-.65626.35937-1.1875.35938-.53126 1-.82813.65625-.3125 1.4375-.3125 1.34375 0 2.10938.65625.78125.64062.78125 1.78125 0 .59375-.35938 1.09375-.35937.48438-.9375.73438.71875.26562 1.0625.78124.35938.51563.35938 1.21876 0 1.14062-.82813 1.82812-.82812.6875-2.1875.6875-1.28125 0-2.09375-.67188-.8125-.6875-.8125-1.79687h1.6875q0 .48437.35938.79687.375.29688.89062.29688.60938 0 .95313-.3125.34375-.32812.34375-.85938 0-1.26562-1.40625-1.26562h-.90625z" stroke="#ed7d31" stroke-linecap="round" stroke-linejoin="round" stroke-width="3"/><path d="m173.11018 355.5h-1.6875v-6.53125l-2.01562.625v-1.375l3.53125-1.26563h.17187zm8.73438 0h-5.84375v-1.15625l2.76562-2.95313q.5625-.60937.82813-1.07812.28125-.46875.28125-.875 0-.57812-.29688-.89062-.28125-.32813-.8125-.32813-.57812 0-.90625.39063-.32812.39062-.32812 1.04687h-1.70313q0-.78125.375-1.42187.375-.65626 1.04688-1.01563.6875-.375 1.54687-.375 1.3125 0 2.04688.64063.73437.625.73437 1.78124 0 .64063-.32812 1.29688-.32813.65625-1.125 1.53125l-1.9375 2.04687h3.65625zm1.3125-.82812q0-.40626.26562-.65626.28125-.25.6875-.25.42188 0 .6875.25.28125.25.28125.65626 0 .39062-.28125.64062-.26562.25-.6875.25-.40625 0-.6875-.25-.26562-.25-.26562-.64062zm8.40625-5.4375q0 .625-.3125 1.10937-.3125.46875-.85938.76563.625.29687.98438.82812.375.51562.375 1.21875 0 1.14063-.78125 1.8125-.76563.65625-2.10938.65625-1.32812 0-2.10937-.65625-.76563-.67187-.76563-1.8125 0-.70313.35938-1.23437.35937-.53126.98437-.8125-.54687-.29688-.85937-.76563-.3125-.48437-.3125-1.10937 0-1.09376.71875-1.73438.73437-.65625 1.98437-.65625 1.25 0 1.96875.65625.73438.64062.73438 1.73438zm-1.51563 3.79687q0-.54687-.32812-.875-.3125-.34375-.85938-.34375-.54687 0-.875.32812-.3125.32813-.3125.89063 0 .54687.3125.89063.32813.32812.89063.32812.54687 0 .85937-.3125.3125-.32812.3125-.90625zm-.17187-3.71875q0-.5-.26563-.79688-.26562-.29687-.75-.29687-.46875 0-.73437.29687-.26563.28126-.26563.79688 0 .51562.26563.82812.26562.3125.73437.3125.48438 0 .75-.3125.26563-.3125.26563-.82812zm4.84375 1.17188h.90625q.64062 0 .95312-.3125.3125-.32813.3125-.85938 0-.51562-.3125-.79688-.29687-.29687-.84375-.29687-.48437 0-.8125.26563-.32812.26562-.32812.6875h-1.6875q0-.65626.35937-1.1875.35938-.53126 1-.82813.65625-.3125 1.4375-.3125 1.34375 0 2.10938.65625.78125.64062.78125 1.78125 0 .59375-.35938 1.09375-.35937.48438-.9375.73438.71875.26562 1.0625.78124.35938.51563.35938 1.21876 0 1.14062-.82813 1.82812-.82812.6875-2.1875.6875-1.28125 0-2.09375-.67188-.8125-.6875-.8125-1.79687h1.6875q0 .48437.35938.79687.375.29688.89062.29688.60938 0 .95313-.3125.34375-.32812.34375-.85938 0-1.26562-1.40625-1.26562h-.90625z" fill="#000"/><path d="m162.06143 409.09375q-.67187.64063-1.54687.64063-1.14063 0-1.82813-.76563-.67187-.78125-.67187-2.09375 0-.84375.35937-1.54688.375-.70312 1.03125-1.09374.65625-.39063 1.48438-.39063.84374 0 1.5.42187.65624.42188 1.01562 1.21876.35938.79687.375 1.8125v.625q0 2.14062-1.0625 3.35937-1.0625 1.21875-3.01562 1.29687h-.40626v-1.40624l.375-.01563q2.20313-.09375 2.39063-2.0625zm-1.14063-.65625q.42188 0 .70313-.20312.29687-.21876.45313-.51563v-.6875q0-.85937-.32813-1.32813-.32813-.48437-.875-.48437-.51563 0-.84375.46875-.32812.45312-.32812 1.15625 0 .70313.3125 1.15625.32812.4375.90624.4375zm4.32813 3.23438q0-.40626.26563-.65626.28124-.25.6875-.25.42187 0 .6875.25.28124.25.28124.65626 0 .39062-.28124.64062-.26563.25-.6875.25-.40626 0-.6875-.25-.26563-.25-.26563-.64062zm4.5625-4.1875h.90625q.64062 0 .95312-.3125.3125-.32813.3125-.85938 0-.51562-.3125-.79688-.29687-.29687-.84374-.29687-.48438 0-.8125.26563-.32813.26562-.32813.6875h-1.6875q0-.65626.35937-1.1875.35938-.53126 1-.82813.65626-.3125 1.4375-.3125 1.34376 0 2.10938.65625.78125.64062.78125 1.78125 0 .59375-.35937 1.09375-.35938.48438-.9375.73438.71874.26562 1.0625.78124.35937.51563.35937 1.21876 0 1.14062-.82813 1.82812-.82812.6875-2.1875.6875-1.28124 0-2.09374-.67188-.8125-.6875-.8125-1.79687h1.6875q0 .48437.35937.79687.375.29688.89063.29688.60937 0 .95312-.3125.34375-.32812.34375-.85938 0-1.26562-1.40625-1.26562h-.90625zm9.875-3.60938v1.40625h-.15625q-1.15625.01563-1.85938.59375-.6875.57812-.82812 1.60938.67188-.6875 1.70312-.6875 1.125 0 1.78126.79687.65624.79687.65624 2.09375 0 .82812-.35937 1.5-.35937.67188-1.03125 1.0625-.65625.375-1.48438.375-1.34374 0-2.17187-.9375-.82813-.95312-.82813-2.51562v-.60938q0-1.39062.51563-2.45312.53125-1.0625 1.5-1.64063.98437-.57813 2.28125-.59375zm-1.65625 4.28125q-.40625 0-.75.21875-.32812.20312-.48438.5625v.51562q0 .84376.32813 1.32813.34375.46875.95313.46875.54687 0 .875-.42188.34374-.4375.34374-1.125 0-.70312-.34374-1.125-.34376-.42187-.92188-.42187z" stroke="#ed7d31" stroke-linecap="round" stroke-linejoin="round" stroke-width="3"/><path d="m162.06143 409.09375q-.67187.64063-1.54687.64063-1.14063 0-1.82813-.76563-.67187-.78125-.67187-2.09375 0-.84375.35937-1.54688.375-.70312 1.03125-1.09374.65625-.39063 1.48438-.39063.84374 0 1.5.42187.65624.42188 1.01562 1.21876.35938.79687.375 1.8125v.625q0 2.14062-1.0625 3.35937-1.0625 1.21875-3.01562 1.29687h-.40626v-1.40624l.375-.01563q2.20313-.09375 2.39063-2.0625zm-1.14063-.65625q.42188 0 .70313-.20312.29687-.21876.45313-.51563v-.6875q0-.85937-.32813-1.32813-.32813-.48437-.875-.48437-.51563 0-.84375.46875-.32812.45312-.32812 1.15625 0 .70313.3125 1.15625.32812.4375.90624.4375zm4.32813 3.23438q0-.40626.26563-.65626.28124-.25.6875-.25.42187 0 .6875.25.28124.25.28124.65626 0 .39062-.28124.64062-.26563.25-.6875.25-.40626 0-.6875-.25-.26563-.25-.26563-.64062zm4.5625-4.1875h.90625q.64062 0 .95312-.3125.3125-.32813.3125-.85938 0-.51562-.3125-.79688-.29687-.29687-.84374-.29687-.48438 0-.8125.26563-.32813.26562-.32813.6875h-1.6875q0-.65626.35937-1.1875.35938-.53126 1-.82813.65626-.3125 1.4375-.3125 1.34376 0 2.10938.65625.78125.64062.78125 1.78125 0 .59375-.35937 1.09375-.35938.48438-.9375.73438.71874.26562 1.0625.78124.35937.51563.35937 1.21876 0 1.14062-.82813 1.82812-.82812.6875-2.1875.6875-1.28124 0-2.09374-.67188-.8125-.6875-.8125-1.79687h1.6875q0 .48437.35937.79687.375.29688.89063.29688.60937 0 .95312-.3125.34375-.32812.34375-.85938 0-1.26562-1.40625-1.26562h-.90625zm9.875-3.60938v1.40625h-.15625q-1.15625.01563-1.85938.59375-.6875.57812-.82812 1.60938.67188-.6875 1.70312-.6875 1.125 0 1.78126.79687.65624.79687.65624 2.09375 0 .82812-.35937 1.5-.35937.67188-1.03125 1.0625-.65625.375-1.48438.375-1.34374 0-2.17187-.9375-.82813-.95312-.82813-2.51562v-.60938q0-1.39062.51563-2.45312.53125-1.0625 1.5-1.64063.98437-.57813 2.28125-.59375zm-1.65625 4.28125q-.40625 0-.75.21875-.32812.20312-.48438.5625v.51562q0 .84376.32813 1.32813.34375.46875.95313.46875.54687 0 .875-.42188.34374-.4375.34374-1.125 0-.70312-.34374-1.125-.34376-.42187-.92188-.42187z" fill="#000"/><path d="m156.8577 462.23438q0 .625-.3125 1.10937-.3125.46875-.85938.76563.625.29687.98438.82812.375.51562.375 1.21875 0 1.14063-.78125 1.8125-.76563.65625-2.10938.65625-1.32812 0-2.10937-.65625-.76563-.67187-.76563-1.8125 0-.70313.35938-1.23437.35937-.53126.98437-.8125-.54687-.29688-.85937-.76563-.3125-.48437-.3125-1.10937 0-1.09376.71875-1.73438.73437-.65625 1.98437-.65625 1.25 0 1.96875.65625.73438.64062.73438 1.73438zm-1.51563 3.79687q0-.54687-.32812-.875-.3125-.34375-.85938-.34375-.54687 0-.875.32812-.3125.32813-.3125.89063 0 .54687.3125.89063.32813.32812.89063.32812.54687 0 .85937-.3125.3125-.32812.3125-.90625zm-.17187-3.71875q0-.5-.26563-.79688-.26562-.29687-.75-.29687-.46875 0-.73437.29687-.26563.28126-.26563.79688 0 .51562.26563.82812.26562.3125.73437.3125.48438 0 .75-.3125.26563-.3125.26563-.82812zm3.28125 5.35938q0-.40626.26562-.65626.28125-.25.6875-.25.42188 0 .6875.25.28125.25.28125.65626 0 .39062-.28125.64062-.26562.25-.6875.25-.40625 0-.6875-.25-.26562-.25-.26562-.64062zm8.59375-2.70313q0 1.76563-.73438 2.71875-.73437.9375-2.14062.9375-1.40625 0-2.14063-.92188-.73437-.92187-.75-2.64062v-1.57812q0-1.78126.73438-2.70313.75-.9375 2.14062-.9375 1.39063 0 2.125.92187.75.92188.76563 2.64063zm-1.70313-1.71875q0-1.0625-.29687-1.54688-.28125-.48437-.89063-.48437-.59375 0-.89062.46875-.28125.45312-.29688 1.4375v2.0625q0 1.04688.28125 1.5625.28125.5.92188.5.60937 0 .89062-.48438.28125-.48437.28125-1.48437zm7.96875 2.03125h.96875v1.375h-.96875v1.84375h-1.70312v-1.84375h-3.48438l-.07812-1.0625 3.54687-5.625h1.71875zm-3.57812 0h1.875v-3l-.10938.1875z" stroke="#ed7d31" stroke-linecap="round" stroke-linejoin="round" stroke-width="3"/><path d="m156.8577 462.23438q0 .625-.3125 1.10937-.3125.46875-.85938.76563.625.29687.98438.82812.375.51562.375 1.21875 0 1.14063-.78125 1.8125-.76563.65625-2.10938.65625-1.32812 0-2.10937-.65625-.76563-.67187-.76563-1.8125 0-.70313.35938-1.23437.35937-.53126.98437-.8125-.54687-.29688-.85937-.76563-.3125-.48437-.3125-1.10937 0-1.09376.71875-1.73438.73437-.65625 1.98437-.65625 1.25 0 1.96875.65625.73438.64062.73438 1.73438zm-1.51563 3.79687q0-.54687-.32812-.875-.3125-.34375-.85938-.34375-.54687 0-.875.32812-.3125.32813-.3125.89063 0 .54687.3125.89063.32813.32812.89063.32812.54687 0 .85937-.3125.3125-.32812.3125-.90625zm-.17187-3.71875q0-.5-.26563-.79688-.26562-.29687-.75-.29687-.46875 0-.73437.29687-.26563.28126-.26563.79688 0 .51562.26563.82812.26562.3125.73437.3125.48438 0 .75-.3125.26563-.3125.26563-.82812zm3.28125 5.35938q0-.40626.26562-.65626.28125-.25.6875-.25.42188 0 .6875.25.28125.25.28125.65626 0 .39062-.28125.64062-.26562.25-.6875.25-.40625 0-.6875-.25-.26562-.25-.26562-.64062zm8.59375-2.70313q0 1.76563-.73438 2.71875-.73437.9375-2.14062.9375-1.40625 0-2.14063-.92188-.73437-.92187-.75-2.64062v-1.57812q0-1.78126.73438-2.70313.75-.9375 2.14062-.9375 1.39063 0 2.125.92187.75.92188.76563 2.64063zm-1.70313-1.71875q0-1.0625-.29687-1.54688-.28125-.48437-.89063-.48437-.59375 0-.89062.46875-.28125.45312-.29688 1.4375v2.0625q0 1.04688.28125 1.5625.28125.5.92188.5.60937 0 .89062-.48438.28125-.48437.28125-1.48437zm7.96875 2.03125h.96875v1.375h-.96875v1.84375h-1.70312v-1.84375h-3.48438l-.07812-1.0625 3.54687-5.625h1.71875zm-3.57812 0h1.875v-3l-.10938.1875z" fill="#000"/><path d="m154.13275 517.9219-3.29687 7.5781h-1.78125l3.29687-7.15625h-4.23437v-1.375h6.01562zm1.35938 6.75q0-.4063.26562-.6563.28125-.25.6875-.25.42188 0 .6875.25.28125.25.28125.6563 0 .3906-.28125.6406-.26562.25-.6875.25-.40625 0-.6875-.25-.26562-.25-.26562-.6406zm7.85937-2.39065h.96875v1.375h-.96875v1.84375h-1.70312v-1.84375h-3.48438l-.07812-1.0625 3.54687-5.625h1.71875zm-3.57812 0h1.875v-3l-.10938.1875zm11.35937-4.35935-3.29687 7.5781h-1.78125l3.29687-7.15625h-4.23437v-1.375h6.01562z" stroke="#ed7d31" stroke-linecap="round" stroke-linejoin="round" stroke-width="3"/><path d="m154.13275 517.9219-3.29687 7.5781h-1.78125l3.29687-7.15625h-4.23437v-1.375h6.01562zm1.35938 6.75q0-.4063.26562-.6563.28125-.25.6875-.25.42188 0 .6875.25.28125.25.28125.6563 0 .3906-.28125.6406-.26562.25-.6875.25-.40625 0-.6875-.25-.26562-.25-.26562-.6406zm7.85937-2.39065h.96875v1.375h-.96875v1.84375h-1.70312v-1.84375h-3.48438l-.07812-1.0625 3.54687-5.625h1.71875zm-3.57812 0h1.875v-3l-.10938.1875zm11.35937-4.35935-3.29687 7.5781h-1.78125l3.29687-7.15625h-4.23437v-1.375h6.01562z" fill="#000"/><path d="m148.24277 573.875v1.40625h-.15625q-1.15625.01565-1.85938.59375-.6875.5781-.82812 1.6094.67187-.6875 1.70312-.6875 1.125 0 1.78125.79685.65625.79685.65625 2.09375 0 .8281-.35937 1.5-.35938.6719-1.03125 1.0625-.65625.375-1.48438.375-1.34375 0-2.17187-.9375-.82813-.9531-.82813-2.5156v-.6094q0-1.3906.51563-2.4531.53125-1.0625 1.5-1.64065.98437-.57815 2.28125-.59375zm-1.65625 4.28125q-.40625 0-.75.21875-.32813.2031-.48438.5625v.5156q0 .8438.32813 1.32815.34375.46875.95312.46875.54688 0 .875-.4219.34375-.4375.34375-1.125 0-.7031-.34375-1.125-.34375-.42185-.92187-.42185zm4.21875 3.51565q0-.4063.26562-.6563.28125-.25.6875-.25.42188 0 .6875.25.28125.25.28125.6563 0 .3906-.28125.6406-.26562.25-.6875.25-.40625 0-.6875-.25-.26562-.25-.26562-.6406zm3.09375-3.375.5-4.32815h4.78125v1.40625h-3.39063l-.21875 1.84375q.60938-.32815 1.28125-.32815 1.21875 0 1.90625.76565.70313.75.70313 2.10935 0 .82815-.35938 1.4844-.34375.6406-1 1.0156-.64062.3594-1.53125.3594-.76562 0-1.4375-.3125-.65625-.3281-1.04687-.8906-.375-.5625-.40625-1.2969h1.6875q.04687.53125.35937.8281.32813.2969.84375.2969.57813 0 .875-.40625.3125-.42185.3125-1.17185 0-.7344-.35937-1.1094-.34375-.3906-1-.3906-.60938 0-.98438.3125l-.15625.1562zm11.34375-4.4219v1.40625h-.15625q-1.15625.01565-1.85938.59375-.6875.5781-.82812 1.6094.67187-.6875 1.70312-.6875 1.125 0 1.78125.79685.65625.79685.65625 2.09375 0 .8281-.35937 1.5-.35938.6719-1.03125 1.0625-.65625.375-1.48438.375-1.34375 0-2.17187-.9375-.82813-.9531-.82813-2.5156v-.6094q0-1.3906.51563-2.4531.53125-1.0625 1.5-1.64065.98437-.57815 2.28125-.59375zm-1.65625 4.28125q-.40625 0-.75.21875-.32813.2031-.48438.5625v.5156q0 .8438.32813 1.32815.34375.46875.95312.46875.54688 0 .875-.4219.34375-.4375.34375-1.125 0-.7031-.34375-1.125-.34375-.42185-.92187-.42185z" stroke="#ed7d31" stroke-linecap="round" stroke-linejoin="round" stroke-width="3"/><path d="m148.24277 573.875v1.40625h-.15625q-1.15625.01565-1.85938.59375-.6875.5781-.82812 1.6094.67187-.6875 1.70312-.6875 1.125 0 1.78125.79685.65625.79685.65625 2.09375 0 .8281-.35937 1.5-.35938.6719-1.03125 1.0625-.65625.375-1.48438.375-1.34375 0-2.17187-.9375-.82813-.9531-.82813-2.5156v-.6094q0-1.3906.51563-2.4531.53125-1.0625 1.5-1.64065.98437-.57815 2.28125-.59375zm-1.65625 4.28125q-.40625 0-.75.21875-.32813.2031-.48438.5625v.5156q0 .8438.32813 1.32815.34375.46875.95312.46875.54688 0 .875-.4219.34375-.4375.34375-1.125 0-.7031-.34375-1.125-.34375-.42185-.92187-.42185zm4.21875 3.51565q0-.4063.26562-.6563.28125-.25.6875-.25.42188 0 .6875.25.28125.25.28125.6563 0 .3906-.28125.6406-.26562.25-.6875.25-.40625 0-.6875-.25-.26562-.25-.26562-.6406zm3.09375-3.375.5-4.32815h4.78125v1.40625h-3.39063l-.21875 1.84375q.60938-.32815 1.28125-.32815 1.21875 0 1.90625.76565.70313.75.70313 2.10935 0 .82815-.35938 1.4844-.34375.6406-1 1.0156-.64062.3594-1.53125.3594-.76562 0-1.4375-.3125-.65625-.3281-1.04687-.8906-.375-.5625-.40625-1.2969h1.6875q.04687.53125.35937.8281.32813.2969.84375.2969.57813 0 .875-.40625.3125-.42185.3125-1.17185 0-.7344-.35937-1.1094-.34375-.3906-1-.3906-.60938 0-.98438.3125l-.15625.1562zm11.34375-4.4219v1.40625h-.15625q-1.15625.01565-1.85938.59375-.6875.5781-.82812 1.6094.67187-.6875 1.70312-.6875 1.125 0 1.78125.79685.65625.79685.65625 2.09375 0 .8281-.35937 1.5-.35938.6719-1.03125 1.0625-.65625.375-1.48438.375-1.34375 0-2.17187-.9375-.82813-.9531-.82813-2.5156v-.6094q0-1.3906.51563-2.4531.53125-1.0625 1.5-1.64065.98437-.57815 2.28125-.59375zm-1.65625 4.28125q-.40625 0-.75.21875-.32813.2031-.48438.5625v.5156q0 .8438.32813 1.32815.34375.46875.95312.46875.54688 0 .875-.4219.34375-.4375.34375-1.125 0-.7031-.34375-1.125-.34375-.42185-.92187-.42185z" fill="#000"/><path d="m316.36172 636.28125h.96875v1.375h-.96875v1.84375h-1.70312v-1.84375h-3.48438l-.07812-1.0625 3.54687-5.625h1.71875zm-3.57812 0h1.875v-3l-.10938.1875zm11.3125-.3125q0 1.76565-.73438 2.71875-.73437.9375-2.14062.9375-1.40625 0-2.14063-.9219-.73437-.92185-.75-2.6406v-1.5781q0-1.7813.73438-2.70315.75-.9375 2.14062-.9375 1.39063 0 2.125.92185.75.9219.76563 2.64065zm-1.70313-1.71875q0-1.0625-.29687-1.5469-.28125-.48435-.89063-.48435-.59375 0-.89062.46875-.28125.4531-.29688 1.4375v2.0625q0 1.0469.28125 1.5625.28125.5.92188.5.60937 0 .89062-.4844.28125-.48435.28125-1.48435zm3.10938 4.4219q0-.4063.26562-.6563.28125-.25.6875-.25.42188 0 .6875.25.28125.25.28125.6563 0 .3906-.28125.6406-.26562.25-.6875.25-.40625 0-.6875-.25-.26562-.25-.26562-.6406zm7.85937-2.39065h.96875v1.375h-.96875v1.84375h-1.70312v-1.84375h-3.48438l-.07812-1.0625 3.54687-5.625h1.71875zm-3.57812 0h1.875v-3l-.10938.1875zm11.3125-.3125q0 1.76565-.73438 2.71875-.73437.9375-2.14062.9375-1.40625 0-2.14063-.9219-.73437-.92185-.75-2.6406v-1.5781q0-1.7813.73438-2.70315.75-.9375 2.14062-.9375 1.39063 0 2.125.92185.75.9219.76563 2.64065zm-1.70313-1.71875q0-1.0625-.29687-1.5469-.28125-.48435-.89063-.48435-.59375 0-.89062.46875-.28125.4531-.29688 1.4375v2.0625q0 1.0469.28125 1.5625.28125.5.92188.5.60937 0 .89062-.4844.28125-.48435.28125-1.48435z" stroke="#ed7d31" stroke-linecap="round" stroke-linejoin="round" stroke-width="3"/><g fill="#000"><path d="m316.36172 636.28125h.96875v1.375h-.96875v1.84375h-1.70312v-1.84375h-3.48438l-.07812-1.0625 3.54687-5.625h1.71875zm-3.57812 0h1.875v-3l-.10938.1875zm11.3125-.3125q0 1.76565-.73438 2.71875-.73437.9375-2.14062.9375-1.40625 0-2.14063-.9219-.73437-.92185-.75-2.6406v-1.5781q0-1.7813.73438-2.70315.75-.9375 2.14062-.9375 1.39063 0 2.125.92185.75.9219.76563 2.64065zm-1.70313-1.71875q0-1.0625-.29687-1.5469-.28125-.48435-.89063-.48435-.59375 0-.89062.46875-.28125.4531-.29688 1.4375v2.0625q0 1.0469.28125 1.5625.28125.5.92188.5.60937 0 .89062-.4844.28125-.48435.28125-1.48435zm3.10938 4.4219q0-.4063.26562-.6563.28125-.25.6875-.25.42188 0 .6875.25.28125.25.28125.6563 0 .3906-.28125.6406-.26562.25-.6875.25-.40625 0-.6875-.25-.26562-.25-.26562-.6406zm7.85937-2.39065h.96875v1.375h-.96875v1.84375h-1.70312v-1.84375h-3.48438l-.07812-1.0625 3.54687-5.625h1.71875zm-3.57812 0h1.875v-3l-.10938.1875zm11.3125-.3125q0 1.76565-.73438 2.71875-.73437.9375-2.14062.9375-1.40625 0-2.14063-.9219-.73437-.92185-.75-2.6406v-1.5781q0-1.7813.73438-2.70315.75-.9375 2.14062-.9375 1.39063 0 2.125.92185.75.9219.76563 2.64065zm-1.70313-1.71875q0-1.0625-.29687-1.5469-.28125-.48435-.89063-.48435-.59375 0-.89062.46875-.28125.4531-.29688 1.4375v2.0625q0 1.0469.28125 1.5625.28125.5.92188.5.60937 0 .89062-.4844.28125-.48435.28125-1.48435z"/><path d="m99.765625 71.79956v-8.53125h2.625q1.125 0 2 .515626.890625.5 1.390625 1.4375.5.921874.5 2.125v.390624q0 1.1875-.484375 2.109376-.484375.921874-1.375 1.4375-.890625.515624-2.015625.515624zm1.75-7.109374v5.703124h.859375q1.03125 0 1.5625-.671874.546875-.6875.5625-1.9375v-.453126q0-1.296874-.546875-1.96875-.53125-.671874-1.5625-.671874zm9.8125 7.109374q-.125-.234374-.171875-.5625-.609375.6875-1.59375.6875-.9375 0-1.546875-.546874-.609375-.546876-.609375-1.359376 0-1.015624.734375-1.546874.75-.546876 2.171875-.546876h.765625v-.359374q0-.4375-.21875-.703126-.21875-.265624-.71875-.265624-.421875 0-.671875.203124-.234375.203126-.234375.5625h-1.6875q0-.546874.328125-1.015624.34375-.46875.96875-.734376.625-.265624 1.390625-.265624 1.171875 0 1.859375.59375.6875.578124.6875 1.640624v2.75q.015625.90625.25 1.375v.09375zm-1.40625-1.171874q.375 0 .6875-.171876.328125-.171874.46875-.453124v-1.09375h-.625q-1.265625 0-1.359375.890624v.09375q0 .3125.21875.53125.21875.203126.609375.203126zm2.34375-6.375h-4.046875v-.96875h4.046875zm2.9375 1.203124.0625.734376q.671875-.84375 1.8125-.84375 1.015625 0 1.5.59375.5.578124.515625 1.765624v4.09375h-1.703125v-4.0625q0-.53125-.234375-.765624-.234375-.25-.78125-.25-.703125 0-1.0625.609374v4.46875h-1.703125v-6.34375zm7.234375 6.34375h-1.703125v-6.34375h1.703125zm-1.796875-7.984374q0-.375.25-.625.265625-.25.703125-.25.421875 0 .671875.25.265625.25.265625.625 0 .390624-.265625.640624-.25.234376-.6875.234376-.421875 0-.6875-.234376-.25-.25-.25-.640624zm4.796875 1.640624v6.6875q0 1.046876-.5625 1.625-.546875.59375-1.59375.59375-.4375 0-.84375-.09375v-1.34375q.3125.046876.53125.046876.78125 0 .78125-.8125v-6.703126zm-1.828125-1.640624q0-.375.25-.625.265625-.25.703125-.25.4375 0 .6875.25.265625.25.265625.625 0 .390624-.265625.640624-.265625.234376-.703125.234376-.421875 0-.6875-.234376-.25-.25-.25-.640624zm6.718745 7.984374q-.125-.234374-.17187-.5625-.60937.6875-1.59375.6875-.9375 0-1.546875-.546874-.609375-.546876-.609375-1.359376 0-1.015624.734375-1.546874.75-.546876 2.171875-.546876h.76562v-.359374q0-.4375-.21874-.703126-.21876-.265624-.71876-.265624-.42187 0-.67187.203124-.23437.203126-.23437.5625h-1.687505q0-.546874.328125-1.015624.34375-.46875.96875-.734376.625-.265624 1.39063-.265624 1.17187 0 1.85937.59375.6875.578124.6875 1.640624v2.75q.01563.90625.25 1.375v.09375zm-1.40624-1.171874q.375 0 .6875-.171876.32812-.171874.46874-.453124v-1.09375h-.625q-1.26562 0-1.35937.890624v.09375q0 .3125.21875.53125.21875.203126.60938.203126z"/><path d="m91.625 128.53964h-1.75v-8.53125h1.75zm1.78125-3.21875q0-1.45312.6875-2.34375.703125-.89062 1.875-.89062 1.046875 0 1.625.70312l.078125-.59375h1.53125v6.125q0 .84375-.390625 1.45313-.375.625-1.0625.9375-.671875.32812-1.59375.32812-.703125 0-1.375-.28125-.65625-.28125-.984375-.71875l.75-1.03125q.625.70313 1.53125.70313.671875 0 1.046875-.35938.375-.35937.375-1.01562v-.34375q-.578125.67187-1.546875.67187-1.140625 0-1.84375-.89062-.703125-.90625-.703125-2.375zm1.6875.125q0 .85938.34375 1.35938.359375.48437.953125.48437.78125 0 1.109375-.57812v-2.67188q-.34375-.57812-1.09375-.57812-.609375 0-.96875.5-.34375.5-.34375 1.48437zm9.234375 3.09375q-.125-.23437-.171875-.5625-.609375.6875-1.59375.6875-.9375 0-1.546875-.54687-.609375-.54688-.609375-1.35938 0-1.01562.734375-1.54687.75-.54688 2.171875-.54688h.765625v-.35937q0-.4375-.21875-.70313-.21875-.26562-.71875-.26562-.421875 0-.671875.20312-.234375.20313-.234375.5625h-1.6875q0-.54687.328125-1.01562.34375-.46875.96875-.73438.625-.26562 1.390625-.26562 1.171875 0 1.859375.59375.6875.57812.6875 1.64062v2.75q.015625.90625.25 1.375v.09375zm-1.40625-1.17187q.375 0 .6875-.17188.328125-.17187.46875-.45312v-1.09375h-.625q-1.265625 0-1.359375.89062v.09375q0 .3125.21875.53125.21875.20313.609375.20313zm7.53125.53125q-.625.76562-1.734375.76562-1.03125 0-1.5625-.59375-.53125-.59375-.546875-1.71875v-4.15625h1.6875v4.09375q0 1 .90625 1 .859375 0 1.1875-.60937v-4.48438h1.703125v6.34375h-1.59375zm4.75-5.70313.0625.73438q.671875-.84375 1.8125-.84375 1.015625 0 1.5.59375.5.57812.515625 1.76562v4.09375h-1.703125v-4.0625q0-.53125-.234375-.76562-.234375-.25-.78125-.25-.703125 0-1.0625.60937v4.46875h-1.703125v-6.34375zm7.234375 6.34375h-1.703125v-6.34375h1.703125zm-1.796875-7.98437q0-.375.25-.625.265625-.25.703125-.25.421875 0 .671875.25.265625.25.265625.625 0 .39062-.265625.64062-.25.23438-.6875.23438-.421875 0-.6875-.23438-.25-.25-.25-.64062zm4.796875 1.64062v6.6875q0 1.04688-.5625 1.625-.546875.59375-1.59375.59375-.4375 0-.84375-.09375v-1.34375q.3125.04688.53125.04688.78125 0 .78125-.8125v-6.70313zm-1.828125-1.64062q0-.375.25-.625.265625-.25.703125-.25.4375 0 .6875.25.265625.25.265625.625 0 .39062-.265625.64062-.265625.23438-.703125.23438-.421875 0-.6875-.23438-.25-.25-.25-.64062zm6.718745 7.98437q-.125-.23437-.17187-.5625-.60937.6875-1.59375.6875-.9375 0-1.546875-.54687-.609375-.54688-.609375-1.35938 0-1.01562.734375-1.54687.75-.54688 2.171875-.54688h.76562v-.35937q0-.4375-.21874-.70313-.21876-.26562-.71876-.26562-.42187 0-.67187.20312-.23437.20313-.23437.5625h-1.687505q0-.54687.328125-1.01562.34375-.46875.96875-.73438.625-.26562 1.39063-.26562 1.17187 0 1.85937.59375.6875.57812.6875 1.64062v2.75q.01563.90625.25 1.375v.09375zm-1.40624-1.17187q.375 0 .6875-.17188.32812-.17187.46874-.45312v-1.09375h-.625q-1.26562 0-1.35937.89062v.09375q0 .3125.21875.53125.21875.20313.60938.20313z"/><path d="m103.921875 183.17036 1.921875-6.42187h1.96875l-2.984375 8.53125h-1.828125l-2.953125-8.53125h1.953125zm8.40625 2.10938q-.125-.23438-.171875-.5625-.609375.6875-1.59375.6875-.9375 0-1.546875-.54688-.609375-.54687-.609375-1.35937 0-1.01563.734375-1.54688.75-.54687 2.171875-.54687h.765625v-.35938q0-.4375-.21875-.70312-.21875-.26563-.71875-.26563-.421875 0-.671875.20313-.234375.20312-.234375.5625h-1.6875q0-.54688.328125-1.01563.34375-.46875.96875-.73437.625-.26563 1.390625-.26563 1.171875 0 1.859375.59375.6875.57813.6875 1.64063v2.75q.015625.90625.25 1.375v.09375zm-1.40625-1.17188q.375 0 .6875-.17187.328125-.17188.46875-.45313v-1.09375h-.625q-1.265625 0-1.359375.89063v.09375q0 .3125.21875.53125.21875.20312.609375.20312zm2.34375-6.375h-4.046875v-.96875h4.046875zm4.015625 6.29688q.46875 0 .765625-.25.296875-.26563.3125-.6875h1.578125q0 .64062-.34375 1.1875-.34375.53125-.953125.82812-.59375.29688-1.328125.29688-1.359375 0-2.140625-.85938-.78125-.875-.78125-2.40625v-.10937q0-1.46875.78125-2.32813.78125-.875 2.140625-.875 1.1875 0 1.90625.67188.71875.67187.71875 1.79687h-1.578125q-.015625-.48437-.3125-.79687-.296875-.3125-.765625-.3125-.59375 0-.90625.4375-.296875.4375-.296875 1.39062v.1875q0 .96875.296875 1.40625.296875.42188.90625.42188zm5.15625 1.25h-1.703125v-6.34375h1.703125zm-1.796875-7.98438q0-.375.25-.625.265625-.25.703125-.25.421875 0 .671875.25.265625.25.265625.625 0 .39063-.265625.64063-.25.23437-.6875.23437-.421875 0-.6875-.23437-.25-.25-.25-.64063zm4.796875 1.64063v6.6875q0 1.04687-.5625 1.625-.546875.59375-1.59375.59375-.4375 0-.84375-.09375v-1.34375q.3125.04687.53125.04687.78125 0 .78125-.8125v-6.70312zm-1.828125-1.64063q0-.375.25-.625.265625-.25.703125-.25.4375 0 .6875.25.265625.25.265625.625 0 .39063-.265625.64063-.265625.23437-.703125.23437-.421875 0-.6875-.23437-.25-.25-.25-.64063zm6.718745 7.98438q-.125-.23438-.17187-.5625-.60937.6875-1.59375.6875-.9375 0-1.546875-.54688-.609375-.54687-.609375-1.35937 0-1.01563.734375-1.54688.75-.54687 2.171875-.54687h.76562v-.35938q0-.4375-.21874-.70312-.21876-.26563-.71876-.26563-.42187 0-.67187.20313-.23437.20312-.23437.5625h-1.687505q0-.54688.328125-1.01563.34375-.46875.96875-.73437.625-.26563 1.39063-.26563 1.17187 0 1.85937.59375.6875.57813.6875 1.64063v2.75q.01563.90625.25 1.375v.09375zm-1.40624-1.17188q.375 0 .6875-.17187.32812-.17188.46874-.45313v-1.09375h-.625q-1.26562 0-1.35937.89063v.09375q0 .3125.21875.53125.21875.20312.60938.20312z"/><path d="m89.625 240.61357h4.296875v1.40625h-6.5v-1.03125l4.21875-6.07812h-4.203125v-1.42188h6.390625v1zm7.40625-.65625 1.171875-4.28125h1.765625l-2.140625 6.34375h-1.609375l-2.140625-6.34375h1.765625zm5.40625 2.0625h-1.703125v-6.34375h1.703125zm-1.796875-7.98437q0-.375.25-.625.265625-.25.703125-.25.421875 0 .671875.25.265625.25.265625.625 0 .39062-.265625.64062-.25.23438-.6875.23438-.421875 0-.6875-.23438-.25-.25-.25-.64062zm5.921875 8.10937q-1.390625 0-2.265625-.85937-.875-.85938-.875-2.28125v-.17188q0-.95312.359375-1.70312.375-.75 1.046875-1.15625.6875-.40625 1.546875-.40625 1.3125 0 2.046875.82812.75.8125.75 2.3125v.6875h-4.03125q.078125.625.484375 1 .421875.375 1.0625.375.96875 0 1.515625-.70312l.84375.92187q-.390625.54688-1.046875.85938-.640625.29687-1.4375.29687zm-.1875-5.21875q-.5 0-.8125.34375-.3125.34375-.40625.96875h2.359375v-.125q-.015625-.5625-.3125-.875-.28125-.3125-.828125-.3125zm3.015625 1.875q0-1.48437.65625-2.35937.671875-.875 1.828125-.875.921875 0 1.53125.6875v-3.23438h1.6875v9h-1.515625l-.09375-.67187q-.625.79687-1.625.79687-1.125 0-1.796875-.875-.671875-.89062-.671875-2.46875zm1.6875.125q0 .89063.3125 1.375.3125.46875.90625.46875.78125 0 1.109375-.67187v-2.5q-.328125-.65625-1.09375-.65625-1.234375 0-1.234375 1.98437zm9.140625-1.65625q-.34375-.04687-.609375-.04687-.96875 0-1.265625.64062v4.15625h-1.6875v-6.34375h1.59375l.046875.76563q.515625-.875 1.40625-.875.28125 0 .53125.07812zm2.21875 4.75h-1.703125v-6.34375h1.703125zm-1.796875-7.98437q0-.375.25-.625.265625-.25.703125-.25.421875 0 .671875.25.265625.25.265625.625 0 .39062-.265625.64062-.25.23438-.6875.23438-.421875 0-.6875-.23438-.25-.25-.25-.64062zm4.796875 1.64062v6.6875q0 1.04688-.5625 1.625-.546875.59375-1.59375.59375-.4375 0-.84375-.09375v-1.34375q.3125.04688.53125.04688.78125 0 .78125-.8125v-6.70313zm-1.828125-1.64062q0-.375.25-.625.265625-.25.703125-.25.4375 0 .6875.25.265625.25.265625.625 0 .39062-.265625.64062-.265625.23438-.703125.23438-.421875 0-.6875-.23438-.25-.25-.25-.64062zm6.718745 7.98437q-.125-.23437-.17187-.5625-.60937.6875-1.59375.6875-.9375 0-1.546875-.54687-.609375-.54688-.609375-1.35938 0-1.01562.734375-1.54687.75-.54688 2.171875-.54688h.76562v-.35937q0-.4375-.21874-.70313-.21876-.26562-.71876-.26562-.42187 0-.67187.20312-.23437.20313-.23437.5625h-1.687505q0-.54687.328125-1.01562.34375-.46875.96875-.73438.625-.26562 1.39063-.26562 1.17187 0 1.85937.59375.6875.57812.6875 1.64062v2.75q.01563.90625.25 1.375v.09375zm-1.40624-1.17187q.375 0 .6875-.17188.32812-.17187.46874-.45312v-1.09375h-.625q-1.26562 0-1.35937.89062v.09375q0 .3125.21875.53125.21875.20313.60938.20313z"/><path d="m34.578125 296.9943h-3.078125l-.59375 1.76562h-1.859375l3.171875-8.53125h1.625l3.203125 8.53125h-1.875zm-2.609375-1.42188h2.140625l-1.078125-3.1875zm11.390625.07812q0 1.46876-.671875 2.35938-.65625.875-1.796875.875-.953125 0-1.546875-.67188v2.98438h-1.6875v-8.78125h1.5625l.0625.625q.609375-.73437 1.609375-.73437 1.171875 0 1.8125.875.65625.85937.65625 2.375zm-1.6875-.125q0-.89062-.328125-1.35937-.3125-.48437-.90625-.48437-.796875 0-1.09375.60937v2.59375q.3125.625 1.109375.625 1.21875 0 1.21875-1.98438zm5.359375 1.17188 1.171875-4.28125h1.765625l-2.140625 6.34375h-1.609375l-2.140625-6.34375h1.765625zm5.40625 2.0625h-1.703125v-6.34375h1.703125zm-1.796875-7.98438q0-.375.25-.625.265625-.25.703125-.25.421875 0 .671875.25.265625.25.265625.625 0 .39063-.265625.64063-.25.23437-.6875.23437-.421875 0-.6875-.23437-.25-.25-.25-.64063zm5.921875 8.10938q-1.390625 0-2.265625-.85938-.875-.85937-.875-2.28124v-.17188q0-.95312.359375-1.70312.375-.75 1.046875-1.15626.6875-.40624 1.546875-.40624 1.3125 0 2.046875.82812.75.8125.75 2.3125v.6875h-4.03125q.078125.625.484375 1 .421875.375 1.0625.375.96875 0 1.515625-.70312l.84375.92187q-.390625.54687-1.046875.85937-.640625.29688-1.4375.29688zm-.1875-5.21875q-.5 0-.8125.34375-.3125.34375-.40625.96875h2.359375v-.125q-.015625-.5625-.3125-.875-.28125-.3125-.828125-.3125zm4.828125-1.25.0625.73437q.671875-.84374 1.8125-.84374 1.015625 0 1.5.59374.5.57813.515625 1.76563v4.09375h-1.703125v-4.0625q0-.53125-.234375-.76562-.234375-.25-.78125-.25-.703125 0-1.0625.60937v4.46875h-1.703125v-6.34375zm5.1875 3.10937q0-.9375.359375-1.67187.359375-.75 1.046875-1.14063.6875-.40624 1.578125-.40624 1.296875 0 2.09375.78124.8125.78126.90625 2.125l.015625.4375q0 1.46876-.8125 2.35938-.8125.875-2.1875.875-1.375 0-2.1875-.875-.8125-.89062-.8125-2.40625zm1.6875.125q0 .90626.34375 1.39063.34375.46875.96875.46875.625 0 .96875-.46875.34375-.46875.34375-1.51563 0-.875-.34375-1.35937-.34375-.5-.984375-.5-.609375 0-.953125.48437-.34375.48438-.34375 1.5zm7.59375-4.79687v1.5625h1.09375v1.25h-1.09375v3.15625q0 .35938.140625.51562.140625.14063.515625.14063.28125 0 .5-.03125v1.28125q-.5.15625-1.03125.15625-1.78125 0-1.8125-1.8125v-3.40625h-.921875v-1.25h.921875v-1.5625zm5.65625 7.90625q-.125-.23438-.171875-.5625-.609375.6875-1.59375.6875-.9375 0-1.546875-.54688-.609375-.54687-.609375-1.35937 0-1.01563.734375-1.54687.75-.54688 2.171875-.54688h.765625v-.35938q0-.4375-.21875-.70312-.21875-.26562-.71875-.26562-.421875 0-.671875.20312-.234375.20312-.234375.5625h-1.6875q0-.54688.328125-1.01562.34375-.46876.96875-.73438.625-.26562 1.390625-.26562 1.171875 0 1.859375.59374.6875.57813.6875 1.64063v2.75q.015625.90625.25 1.375v.09375zm-1.40625-1.17188q.375 0 .6875-.17187.328125-.17187.46875-.45313v-1.09374h-.625q-1.265625 0-1.359375.89062v.09375q0 .3125.21875.53125.21875.20312.609375.20312zm2.34375-6.375h-4.046875v-.96874h4.046875zm7.171875 4.125-.921875.98438v2.4375h-1.75v-8.53125h1.75v3.85937l.78125-1.04687 2.171875-2.8125h2.15625l-3.03125 3.79687 3.125 4.73438h-2.09375zm8.890625 3.42188q-.125-.23438-.171875-.5625-.609375.6875-1.59375.6875-.9375 0-1.546875-.54688-.609375-.54687-.609375-1.35937 0-1.01563.734375-1.54687.75-.54688 2.171875-.54688h.765625v-.35938q0-.4375-.21875-.70312-.21875-.26562-.71875-.26562-.421875 0-.671875.20312-.234375.20312-.234375.5625h-1.6875q0-.54688.328125-1.01562.34375-.46876.96875-.73438.625-.26562 1.390625-.26562 1.171875 0 1.859375.59374.6875.57813.6875 1.64063v2.75q.015625.90625.25 1.375v.09375zm-1.40625-1.17188q.375 0 .6875-.17187.328125-.17187.46875-.45313v-1.09374h-.625q-1.265625 0-1.359375.89062v.09375q0 .3125.21875.53125.21875.20312.609375.20312zm7.296875-3.57812q-.34375-.04688-.609375-.04688-.96875 0-1.265625.64063v4.15625h-1.6875v-6.34375h1.59375l.046875.76563q.515625-.875 1.40625-.875.28125 0 .53125.07812zm4.109375 4.75q-.125-.23438-.171875-.5625-.609375.6875-1.59375.6875-.9375 0-1.546875-.54688-.609375-.54687-.609375-1.35937 0-1.01563.734375-1.54687.75-.54688 2.171875-.54688h.765625v-.35938q0-.4375-.21875-.70312-.21875-.26562-.71875-.26562-.421875 0-.671875.20312-.234375.20312-.234375.5625h-1.6875q0-.54688.328125-1.01562.34375-.46876.96875-.73438.625-.26562 1.390625-.26562 1.171875 0 1.859375.59374.6875.57813.6875 1.64063v2.75q.015625.90625.25 1.375v.09375zm-1.40625-1.17188q.375 0 .6875-.17187.328125-.17187.46875-.45313v-1.09374h-.625q-1.265625 0-1.359375.89062v.09375q0 .3125.21875.53125.21875.20312.609375.20312zm5.515625 1.17188h-1.703125v-9h1.703125zm3 0h-1.703125v-6.34375h1.703125zm-1.796875-7.98438q0-.375.25-.625.265625-.25.703125-.25.421875 0 .671875.25.265625.25.265625.625 0 .39063-.265625.64063-.25.23437-.6875.23437-.421875 0-.6875-.23437-.25-.25-.25-.64063zm6.4375 6.23438q0-.3125-.3125-.48438-.296875-.1875-.96875-.32812-2.265625-.46875-2.265625-1.92188 0-.84374.6875-1.40624.703125-.5625 1.84375-.5625 1.203125 0 1.921875.5625.734375.5625.734375 1.48437h-1.703125q0-.375-.234375-.60937-.234375-.23438-.734375-.23438-.421875 0-.65625.20312-.234375.1875-.234375.48438 0 .28125.265625.45312.265625.17188.890625.29688.640625.125 1.078125.28125 1.34375.5 1.34375 1.70313 0 .875-.75 1.42187-.734375.53125-1.921875.53125-.796875 0-1.421875-.28125-.609375-.29687-.96875-.78125-.34375-.5-.34375-1.07812h1.609375q.015625.45312.328125.70312.3125.23438.828125.23438.5 0 .734375-.1875.25-.1875.25-.48438zm4.59375-6.15625v1.5625h1.09375v1.25h-1.09375v3.15625q0 .35938.140625.51562.140625.14063.515625.14063.28125 0 .5-.03125v1.28125q-.5.15625-1.03125.15625-1.78125 0-1.8125-1.8125v-3.40625h-.921875v-1.25h.921875v-1.5625zm4.890625 8.03125q-1.39062 0-2.265625-.85938-.875-.85937-.875-2.28124v-.17188q0-.95312.359375-1.70312.375-.75 1.046875-1.15626.687495-.40624 1.546875-.40624 1.3125 0 2.04688.82812.75.8125.75 2.3125v.6875h-4.03126q.07813.625.48438 1 .42188.375 1.0625.375.96875 0 1.51562-.70312l.84376.92187q-.39063.54687-1.04688.85937-.64062.29688-1.4375.29688zm-.1875-5.21875q-.5 0-.8125.34375-.3125.34375-.40625.96875h2.35937v-.125q-.01562-.5625-.3125-.875-.28124-.3125-.82812-.3125z"/><path d="m95.890625 352.01562h-3.375v3.48438h-1.75v-8.53125h5.546875v1.42187h-3.796875v2.20313h3.375zm5.328125-1.26562q-.34375-.04688-.609375-.04688-.96875 0-1.265625.64063v4.15625h-1.6875v-6.34375h1.59375l.046875.76563q.515625-.875 1.40625-.875.28125 0 .53125.07812zm4.109375 4.75q-.125-.23438-.171875-.5625-.609375.6875-1.59375.6875-.9375 0-1.546875-.54688-.609375-.54687-.609375-1.35937 0-1.01563.734375-1.54687.75-.54688 2.171875-.54688h.765625v-.35938q0-.4375-.21875-.70312-.21875-.26562-.71875-.26562-.421875 0-.671875.20312-.234375.20312-.234375.5625h-1.6875q0-.54688.328125-1.01562.34375-.46876.96875-.73438.625-.26562 1.390625-.26562 1.171875 0 1.859375.59374.6875.57813.6875 1.64063v2.75q.015625.90625.25 1.375v.09375zm-1.40625-1.17188q.375 0 .6875-.17187.328125-.17187.46875-.45313v-1.09374h-.625q-1.265625 0-1.359375.89062v.09375q0 .3125.21875.53125.21875.20312.609375.20312zm5.28125-5.17187.0625.73437q.671875-.84374 1.8125-.84374 1.015625 0 1.5.59374.5.57813.515625 1.76563v4.09375h-1.703125v-4.0625q0-.53125-.234375-.76562-.234375-.25-.78125-.25-.703125 0-1.0625.60937v4.46875h-1.703125v-6.34375zm8.078125 5.09375q.46875 0 .765625-.25.296875-.26562.3125-.6875h1.578125q0 .64062-.34375 1.1875-.34375.53125-.953125.82812-.59375.29688-1.328125.29688-1.359375 0-2.140625-.85938-.78125-.875-.78125-2.40624v-.10938q0-1.46875.78125-2.32812.78125-.875 2.140625-.875 1.1875 0 1.90625.67187.71875.67187.71875 1.79687h-1.578125q-.015625-.48437-.3125-.79687-.296875-.3125-.765625-.3125-.59375 0-.90625.4375-.296875.4375-.296875 1.39063v.1875q0 .96874.296875 1.40624.296875.42188.90625.42188zm5.15625 1.25h-1.703125v-6.34375h1.703125zm-1.796875-7.98438q0-.375.25-.625.265625-.25.703125-.25.421875 0 .671875.25.265625.25.265625.625 0 .39063-.265625.64063-.25.23437-.6875.23437-.421875 0-.6875-.23437-.25-.25-.25-.64063zm4.796875 1.64063v6.6875q0 1.04687-.5625 1.625-.546875.59375-1.59375.59375-.4375 0-.84375-.09375v-1.34375q.3125.04688.53125.04688.78125 0 .78125-.8125v-6.70313zm-1.828125-1.64063q0-.375.25-.625.265625-.25.703125-.25.4375 0 .6875.25.265625.25.265625.625 0 .39063-.265625.64063-.265625.23437-.703125.23437-.421875 0-.6875-.23437-.25-.25-.25-.64063zm6.718745 7.98438q-.125-.23438-.17187-.5625-.60937.6875-1.59375.6875-.9375 0-1.546875-.54688-.609375-.54687-.609375-1.35937 0-1.01563.734375-1.54687.75-.54688 2.171875-.54688h.76562v-.35938q0-.4375-.21874-.70312-.21876-.26562-.71876-.26562-.42187 0-.67187.20312-.23437.20312-.23437.5625h-1.687505q0-.54688.328125-1.01562.34375-.46876.96875-.73438.625-.26562 1.39063-.26562 1.17187 0 1.85937.59374.6875.57813.6875 1.64063v2.75q.01563.90625.25 1.375v.09375zm-1.40624-1.17188q.375 0 .6875-.17187.32812-.17187.46874-.45313v-1.09374h-.625q-1.26562 0-1.35937.89062v.09375q0 .3125.21875.53125.21875.20312.60938.20312z"/><path d="m96.4375 408.8182-.921875.98438v2.4375h-1.75v-8.53125h1.75v3.85937l.78125-1.04687 2.171875-2.8125h2.15625l-3.03125 3.79687 3.125 4.73438h-2.09375zm8.78125-1.32812q-.34375-.04688-.609375-.04688-.96875 0-1.265625.64063v4.15625h-1.6875v-6.34375h1.59375l.046875.76563q.515625-.875 1.40625-.875.28125 0 .53125.07812zm2.21875 4.75h-1.703125v-6.34375h1.703125zm-1.796875-7.98438q0-.375.25-.625.265625-.25.703125-.25.421875 0 .671875.25.265625.25.265625.625 0 .39063-.265625.64063-.25.23437-.6875.23437-.421875 0-.6875-.23437-.25-.25-.25-.64063zm5.921875 8.10938q-1.390625 0-2.265625-.85938-.875-.85937-.875-2.28124v-.17188q0-.95312.359375-1.70312.375-.75 1.046875-1.15626.6875-.40624 1.546875-.40624 1.3125 0 2.046875.82812.75.8125.75 2.3125v.6875h-4.03125q.078125.625.484375 1 .421875.375 1.0625.375.96875 0 1.515625-.70312l.84375.92187q-.390625.54687-1.046875.85937-.640625.29688-1.4375.29688zm-.1875-5.21875q-.5 0-.8125.34375-.3125.34375-.40625.96875h2.359375v-.125q-.015625-.5625-.3125-.875-.28125-.3125-.828125-.3125zm5.65625 3.03125 1.171875-4.28125h1.765625l-2.140625 6.34375h-1.609375l-2.140625-6.34375h1.765625zm5.40625 2.0625h-1.703125v-6.34375h1.703125zm-1.796875-7.98438q0-.375.25-.625.265625-.25.703125-.25.421875 0 .671875.25.265625.25.265625.625 0 .39063-.265625.64063-.25.23437-.6875.23437-.421875 0-.6875-.23437-.25-.25-.25-.64063zm4.796875 1.64063v6.6875q0 1.04687-.5625 1.625-.546875.59375-1.59375.59375-.4375 0-.84375-.09375v-1.34375q.3125.04688.53125.04688.78125 0 .78125-.8125v-6.70313zm-1.828125-1.64063q0-.375.25-.625.265625-.25.703125-.25.4375 0 .6875.25.265625.25.265625.625 0 .39063-.265625.64063-.265625.23437-.703125.23437-.421875 0-.6875-.23437-.25-.25-.25-.64063zm6.718745 7.98438q-.125-.23438-.17187-.5625-.60937.6875-1.59375.6875-.9375 0-1.546875-.54688-.609375-.54687-.609375-1.35937 0-1.01563.734375-1.54687.75-.54688 2.171875-.54688h.76562v-.35938q0-.4375-.21874-.70312-.21876-.26562-.71876-.26562-.42187 0-.67187.20312-.23437.20312-.23437.5625h-1.687505q0-.54688.328125-1.01562.34375-.46876.96875-.73438.625-.26562 1.39063-.26562 1.17187 0 1.85937.59374.6875.57813.6875 1.64063v2.75q.01563.90625.25 1.375v.09375zm-1.40624-1.17188q.375 0 .6875-.17187.32812-.17187.46874-.45313v-1.09374h-.625q-1.26562 0-1.35937.89062v.09375q0 .3125.21875.53125.21875.20312.60938.20312z"/><path d="m95.515625 467.5739h3.734375v1.40626h-5.484375v-8.53126h1.75zm6.921875 1.40626h-1.703125v-6.34376h1.703125zm-1.796875-7.98436q0-.375.25-.625.265625-.25.703125-.25.421875 0 .671875.25.265625.25.265625.625 0 .3906-.265625.6406-.25.2344-.6875.2344-.421875 0-.6875-.2344-.25-.25-.25-.6406zm5.921875 8.10936q-1.390625 0-2.265625-.85936-.875-.8594-.875-2.28126v-.17188q0-.95312.359375-1.70312.375-.75 1.046875-1.15624.6875-.40626 1.546875-.40626 1.3125 0 2.046875.82812.75.8125.75 2.3125v.6875h-4.03125q.078125.625.484375 1 .421875.375 1.0625.375.96875 0 1.515625-.70312l.84375.92186q-.390625.5469-1.046875.8594-.640625.29686-1.4375.29686zm-.1875-5.21876q-.5 0-.8125.34376-.3125.34374-.40625.96874h2.359375v-.125q-.015625-.5625-.3125-.875-.28125-.3125-.828125-.3125zm5.296875-2.8125v1.5625h1.09375v1.25h-1.09375v3.15626q0 .35938.140625.51564.140625.1406.515625.1406.28125 0 .5-.03124v1.28124q-.5.15626-1.03125.15626-1.78125 0-1.8125-1.8125v-3.40626h-.921875v-1.25h.921875v-1.5625zm5.78125 7.26564q-.625.76562-1.734375.76562-1.03125 0-1.5625-.59376-.53125-.59374-.546875-1.71874v-4.15626h1.6875v4.09376q0 1 .90625 1 .859375 0 1.1875-.60936v-4.4844h1.703125v6.34376h-1.59375zm5.578125-1.42188 1.171875-4.28126h1.765625l-2.140625 6.34376h-1.609375l-2.140625-6.34376h1.765625zm7.29687 2.0625q-.125-.23436-.17187-.5625-.60937.6875-1.59375.6875-.9375 0-1.546875-.54686-.609375-.5469-.609375-1.3594 0-1.0156.734375-1.54686.75-.54688 2.171875-.54688h.76562v-.35936q0-.4375-.21874-.70314-.21876-.26562-.71876-.26562-.42187 0-.67187.20312-.23437.20314-.23437.5625h-1.687505q0-.54686.328125-1.01562.34375-.46874.96875-.73438.625-.26562 1.39063-.26562 1.17187 0 1.85937.59376.6875.5781.6875 1.6406v2.75q.01563.90626.25 1.375v.09376zm-1.40624-1.17186q.375 0 .6875-.1719.32812-.17186.46874-.4531v-1.09376h-.625q-1.26562 0-1.35937.89062v.09374q0 .3125.21875.53126.21875.20314.60938.20314z"/><path d="m82.703125 525.7203h-1.765625l-3.421875-5.6094v5.6094h-1.75v-8.5313h1.75l3.4375 5.625v-5.625h1.75zm2.78125 0h-1.703125v-6.3438h1.703125zm1.203125-7.45315h-4.046875v-.96875h4.046875zm-.296875 4.23435q0-1.48435.65625-2.35935.671875-.875 1.828125-.875.921875 0 1.53125.6875v-3.23435h1.6875v9h-1.515625l-.09375-.6719q-.625.7969-1.625.7969-1.125 0-1.796875-.875-.671875-.89065-.671875-2.4688zm1.6875.125q0 .89065.3125 1.375.3125.4688.90625.4688.78125 0 1.109375-.6719v-2.5q-.328125-.65625-1.09375-.65625-1.234375 0-1.234375 1.98435zm8.484375 3.2188q-1.390625 0-2.265625-.8594-.875-.8594-.875-2.28125v-.17185q0-.95315.359375-1.70315.375-.75 1.046875-1.15625.6875-.40625 1.546875-.40625 1.3125 0 2.046875.82815.75.8125.75 2.3125v.6875h-4.03125q.078125.625.484375 1 .421875.375 1.0625.375.96875 0 1.515625-.70315l.84375.92185q-.390625.5469-1.046875.8594-.640625.2969-1.4375.2969zm-.1875-5.2188q-.5 0-.8125.3438-.3125.3437-.40625.9687h2.359375v-.125q-.015625-.5625-.3125-.875-.28125-.3125-.828125-.3125zm6.84375.3438q-.34375-.0469-.609375-.0469-.96875 0-1.265625.6406v4.1563h-1.6875v-6.3438h1.59375l.046875.76565q.515625-.875 1.40625-.875.28125 0 .53125.07815zm2.21875 4.75h-1.703125v-9h1.703125zm4.890625 0q-.125-.2344-.171875-.5625-.609375.6875-1.59375.6875-.9375 0-1.546875-.5469-.609375-.5469-.609375-1.3594 0-1.0156.734375-1.54685.75-.54685 2.171875-.54685h.765625v-.3594q0-.4375-.21875-.7031-.21875-.26565-.71875-.26565-.421875 0-.671875.20315-.234375.2031-.234375.5625h-1.6875q0-.5469.328125-1.01565.34375-.46875.96875-.73435.625-.26565 1.390625-.26565 1.171875 0 1.859375.59375.6875.5781.6875 1.6406v2.75q.015625.9063.25 1.375v.0938zm-1.40625-1.1719q.375 0 .6875-.1719.328125-.17185.46875-.4531v-1.09375h-.625q-1.265625 0-1.359375.89065v.0937q0 .3125.21875.5313.21875.2031.609375.2031zm5.28125-5.1719.0625.7344q.671875-.84375 1.8125-.84375 1.015625 0 1.5.59375.5.5781.515625 1.7656v4.0938h-1.703125v-4.0625q0-.5313-.234375-.76565-.234375-.25-.78125-.25-.703125 0-1.0625.60935v4.4688h-1.703125v-6.3438zm5.1875 3.125q0-1.48435.65625-2.35935.671875-.875 1.828125-.875.921875 0 1.53125.6875v-3.23435h1.6875v9h-1.515625l-.09375-.6719q-.625.7969-1.625.7969-1.125 0-1.796875-.875-.671875-.89065-.671875-2.4688zm1.6875.125q0 .89065.3125 1.375.3125.4688.90625.4688.78125 0 1.109375-.6719v-2.5q-.328125-.65625-1.09375-.65625-1.234375 0-1.234375 1.98435zm8.484375 3.2188q-1.39062 0-2.265625-.8594-.875-.8594-.875-2.28125v-.17185q0-.95315.359375-1.70315.375-.75 1.046875-1.15625.687495-.40625 1.546875-.40625 1.3125 0 2.04688.82815.75.8125.75 2.3125v.6875h-4.03126q.07813.625.48438 1 .42188.375 1.0625.375.96875 0 1.51562-.70315l.84376.92185q-.39063.5469-1.04688.8594-.64062.2969-1.4375.2969zm-.1875-5.2188q-.5 0-.8125.3438-.3125.3437-.40625.9687h2.35937v-.125q-.01562-.5625-.3125-.875-.28124-.3125-.82812-.3125z"/><path d="m114.578125 580.6947h-3.078125l-.59375 1.7656h-1.859375l3.171875-8.5312h1.625l3.203125 8.5312h-1.875zm-2.609375-1.4219h2.140625l-1.078125-3.1875zm10.21875.95315q0-.5-.359375-.76565-.34375-.2656-1.265625-.5625-.90625-.29685-1.4375-.5937-1.453125-.7813-1.453125-2.1094 0-.6875.390625-1.2344.390625-.54685 1.109375-.8437.734375-.3125 1.640625-.3125.921875 0 1.625.3437.71875.32815 1.109375.9375.40625.5938.40625 1.3594h-1.765625q0-.5781-.375-.90625-.359375-.32815-1.03125-.32815-.640625 0-1 .2813-.359375.2656-.359375.7031 0 .4219.421875.7031.421875.2813 1.234375.5313 1.5.4531 2.1875 1.125.6875.6562.6875 1.6562 0 1.1094-.84375 1.75-.828125.625-2.25.625-.984375 0-1.796875-.35935-.8125-.375-1.234375-1-.421875-.625-.421875-1.45315h1.765625q0 1.4219 1.6875 1.4219.625 0 .96875-.25.359375-.2656.359375-.71875zm5.734375.125 1.921875-6.42185h1.96875l-2.98438 8.5312h-1.82812l-2.953125-8.5312h1.953125z"/><path d="m58.515625 636.20044v3h-1.75v-8.53124h3.328125q.953125 0 1.6875.35936.734375.34374 1.125 1 .390625.64064.390625 1.46874 0 1.25-.859375 1.9844-.859375.71874-2.375.71874zm0-1.4375h1.578125q.6875 0 1.046875-.32814.375-.3281.375-.9375 0-.625-.375-1-.359375-.3906-1.015625-.40624h-1.609375zm9.8125 4.4375q-.125-.23438-.171875-.5625-.609375.6875-1.59375.6875-.9375 0-1.546875-.54688-.609375-.54686-.609375-1.35936 0-1.01564.734375-1.5469.75-.54686 2.171875-.54686h.765625v-.35938q0-.4375-.21875-.70312-.21875-.26564-.71875-.26564-.421875 0-.671875.20314-.234375.20312-.234375.5625h-1.6875q0-.54688.328125-1.01564.34375-.46874.96875-.73436.625-.26564 1.390625-.26564 1.171875 0 1.859375.59376.6875.57814.6875 1.64064v2.75q.015625.90624.25 1.375v.09374zm-1.40625-1.17188q.375 0 .6875-.17186.328125-.1719.46875-.45314v-1.09376h-.625q-1.265625 0-1.359375.89064v.09376q0 .3125.21875.53124.21875.20312.609375.20312zm2.34375-6.375h-4.046875v-.96876h4.046875zm4.953125 2.79688q-.34375-.04688-.609375-.04688-.96875 0-1.265625.64064v4.15624h-1.6875v-6.34374h1.59375l.046875.7656q.515625-.875 1.40625-.875.28125 0 .53125.07814zm3.34375 4.875q-1.390625 0-2.265625-.85938-.875-.85936-.875-2.28126v-.17186q0-.95314.359375-1.70314.375-.75 1.046875-1.15624.6875-.40626 1.546875-.40626 1.3125 0 2.046875.82814.75.8125.75 2.3125v.6875h-4.03125q.078125.625.484375 1 .421875.375 1.0625.375.96875 0 1.515625-.70314l.84375.9219q-.390625.54686-1.046875.85936-.640625.29688-1.4375.29688zm-.1875-5.21874q-.5 0-.8125.34374-.3125.34376-.40625.96876h2.359375v-.125q-.015625-.5625-.3125-.875-.28125-.3125-.828125-.3125zm1.84375-2.45314h-4.046875v-.96876h4.046875zm3.21875 1.20314v6.6875q0 1.04686-.5625 1.625-.546875.59374-1.59375.59374-.4375 0-.84375-.09374v-1.34376q.3125.04686.53125.04686.78125 0 .78125-.8125v-6.7031zm-1.828125-1.64064q0-.375.25-.625.265625-.25.703125-.25.4375 0 .6875.25.265625.25.265625.625 0 .39064-.265625.64064-.265625.23436-.703125.23436-.421875 0-.6875-.23436-.25-.25-.25-.64064zm6.71875 7.98438q-.125-.23438-.171875-.5625-.609375.6875-1.59375.6875-.9375 0-1.546875-.54688-.609375-.54686-.609375-1.35936 0-1.01564.734375-1.5469.75-.54686 2.171875-.54686h.765625v-.35938q0-.4375-.21875-.70312-.21875-.26564-.71875-.26564-.421875 0-.671875.20314-.234375.20312-.234375.5625h-1.6875q0-.54688.328125-1.01564.34375-.46874.96875-.73436.625-.26564 1.390625-.26564 1.171875 0 1.859375.59376.6875.57814.6875 1.64064v2.75q.015625.90624.25 1.375v.09374zm-1.40625-1.17188q.375 0 .6875-.17186.328125-.1719.46875-.45314v-1.09376h-.625q-1.265625 0-1.359375.89064v.09376q0 .3125.21875.53124.21875.20312.609375.20312zm2.34375-6.375h-4.046875v-.96876h4.046875zm4.8125 5.79688q0-.3125-.3125-.48438-.296875-.1875-.96875-.32812-2.265625-.46874-2.265625-1.92188 0-.84376.6875-1.40626.703125-.5625 1.84375-.5625 1.203125 0 1.921875.5625.734375.5625.734375 1.4844h-1.703125q0-.375-.234375-.6094-.234375-.23436-.734375-.23436-.421875 0-.65625.20312-.234375.1875-.234375.48438 0 .28126.265625.45312.265625.17188.890625.29688.640625.125 1.078125.28126 1.34375.5 1.34375 1.7031 0 .875-.75 1.4219-.734375.53124-1.921875.53124-.796875 0-1.421875-.28124-.609375-.2969-.96875-.78126-.34375-.5-.34375-1.07814h1.609375q.015625.45314.328125.70314.3125.23436.828125.23436.5 0 .734375-.1875.25-.1875.25-.48436zm7.953125-.3125 1.171875-4.28124h1.765625l-2.140625 6.34374h-1.609375l-2.140625-6.34374h1.765625zm7.296875 2.0625q-.125-.23438-.171875-.5625-.609375.6875-1.59375.6875-.9375 0-1.546875-.54688-.609375-.54686-.609375-1.35936 0-1.01564.734375-1.5469.75-.54686 2.171875-.54686h.765625v-.35938q0-.4375-.21875-.70312-.21875-.26564-.71875-.26564-.421875 0-.671875.20314-.234375.20312-.234375.5625h-1.6875q0-.54688.328125-1.01564.34375-.46874.96875-.73436.625-.26564 1.390625-.26564 1.171875 0 1.859375.59376.6875.57814.6875 1.64064v2.75q.015625.90624.25 1.375v.09374zm-1.40625-1.17188q.375 0 .6875-.17186.328125-.1719.46875-.45314v-1.09376h-.625q-1.265625 0-1.359375.89064v.09376q0 .3125.21875.53124.21875.20312.609375.20312zm5.515625 1.17188h-1.703125v-9h1.703125zm4.640625-1.75q0-.3125-.3125-.48438-.296875-.1875-.96875-.32812-2.265625-.46874-2.265625-1.92188 0-.84376.6875-1.40626.703125-.5625 1.84375-.5625 1.203125 0 1.921875.5625.734375.5625.734375 1.4844h-1.703125q0-.375-.234375-.6094-.234375-.23436-.734375-.23436-.421875 0-.65625.20312-.234375.1875-.234375.48438 0 .28126.265625.45312.265625.17188.890625.29688.640625.125 1.078125.28126 1.34375.5 1.34375 1.7031 0 .875-.75 1.4219-.734375.53124-1.921875.53124-.796875 0-1.421875-.28124-.609375-.2969-.96875-.78126-.34375-.5-.34375-1.07814h1.609375q.015625.45314.328125.70314.3125.23436.828125.23436.5 0 .734375-.1875.25-.1875.25-.48436zm4.59375-6.15624v1.5625h1.09375v1.25h-1.09375v3.15624q0 .35936.140625.51562.140625.14064.515625.14064.28125 0 .5-.03126v1.28126q-.5.15624-1.03125.15624-1.78125 0-1.8125-1.8125v-3.40624h-.921875v-1.25h.921875v-1.5625zm3.765625 7.90624h-1.703125v-6.34374h1.703125zm-1.796875-7.98438q0-.375.25-.625.265625-.25.703125-.25.421875 0 .671875.25.265625.25.265625.625 0 .39064-.265625.64064-.25.23436-.6875.23436-.421875 0-.6875-.23436-.25-.25-.25-.64064zm6.437495 6.23438q0-.3125-.3125-.48438-.29687-.1875-.96874-.32812-2.26563-.46874-2.26563-1.92188 0-.84376.6875-1.40626.703125-.5625 1.84375-.5625 1.20312 0 1.92188.5625.73437.5625.73437 1.4844h-1.70313q0-.375-.23437-.6094-.23437-.23436-.73437-.23436-.42188 0-.65626.20312-.23437.1875-.23437.48438 0 .28126.26563.45312.26562.17188.89062.29688.64062.125 1.07812.28126 1.34376.5 1.34376 1.7031 0 .875-.75 1.4219-.73438.53124-1.92188.53124-.79688 0-1.421875-.28124-.609375-.2969-.96875-.78126-.34375-.5-.34375-1.07814h1.609375q.015625.45314.32812.70314.3125.23436.82813.23436.5 0 .73437-.1875.25-.1875.25-.48436z"/><path d="m140.5625 693.3594q0 1.9062-.65625 2.8437-.64063.9219-2.03125.9219-1.35938 0-2.01562-.90625-.65626-.90625-.6875-2.71875v-1.4375q0-1.8906.64062-2.7969.65625-.92185 2.04688-.92185 1.375 0 2.03124.89065.65626.875.67188 2.7187zm-1.09375-1.4844q0-1.375-.39063-2-.375-.6406-1.21874-.6406-.82813 0-1.21876.6406-.375.625-.375 1.9219v1.73435q0 1.375.39063 2.04685.40625.6563 1.21875.6563.79688 0 1.1875-.625.39062-.625.40625-1.95315z"/><path d="m240.54688 697h-5.59376v-.78125l2.95313-3.28125q.65625-.75.90625-1.2031.25-.4688.25-.9688 0-.67185-.40625-1.0937-.39063-.4375-1.07813-.4375-.79687 0-1.25.4687-.45312.45315-.45312 1.2813h-1.07812q0-1.1875.75-1.9063.76562-.73435 2.03124-.73435 1.20313 0 1.89063.625.6875.625.6875 1.67185 0 1.25-1.60937 3l-2.28126 2.4688h4.28126zm6.76562-3.6406q0 1.9062-.65625 2.8437-.64063.9219-2.03125.9219-1.35938 0-2.01562-.90625-.65626-.90625-.6875-2.71875v-1.4375q0-1.8906.64062-2.7969.65625-.92185 2.04688-.92185 1.375 0 2.03124.89065.65626.875.67188 2.7187zm-1.09375-1.4844q0-1.375-.39063-2-.375-.6406-1.21874-.6406-.82813 0-1.21876.6406-.375.625-.375 1.9219v1.73435q0 1.375.39063 2.04685.40625.6563 1.21875.6563.79688 0 1.1875-.625.39062-.625.40625-1.95315z"/><path d="m342.78125 694.1406h1.1875v.875h-1.1875v1.9844h-1.07813v-1.9844h-3.89062v-.6406l3.8125-5.90625h1.15625zm-3.73437 0h2.65624v-4.1875l-.14062.2344zm11.51562-.7812q0 1.9062-.65625 2.8437-.64063.9219-2.03125.9219-1.35938 0-2.01562-.90625-.65626-.90625-.6875-2.71875v-1.4375q0-1.8906.64062-2.7969.65625-.92185 2.04688-.92185 1.375 0 2.03124.89065.65626.875.67188 2.7187zm-1.09375-1.4844q0-1.375-.39063-2-.375-.6406-1.21874-.6406-.82813 0-1.21876.6406-.375.625-.375 1.9219v1.73435q0 1.375.39063 2.04685.40625.6563 1.21875.6563.79688 0 1.1875-.625.39062-.625.40625-1.95315z"/><path d="m445.71875 688.46875v.90625h-.20313q-1.26562.03125-2.01562.7656-.75.7188-.875 2.0313.6875-.76565 1.84375-.76565 1.10937 0 1.78125.78125.67188.78125.67188 2.03125 0 1.3125-.71876 2.10935-.71874.7969-1.9375.7969-1.21874 0-1.98437-.9375-.75-.9531-.75-2.4375v-.40625q0-2.35935 1-3.60935 1-1.25 2.98437-1.26565zm-1.42187 3.84375q-.5625 0-1.03126.3281-.46874.32815-.65624.8438v.3906q0 1.0625.46874 1.7031.48438.64065 1.1875.64065.73438 0 1.15626-.53125.42187-.5469.42187-1.4219 0-.875-.42187-1.4062-.42188-.5469-1.125-.5469zm9.51562 1.0469q0 1.9062-.65625 2.8437-.64063.9219-2.03125.9219-1.35938 0-2.01562-.90625-.65626-.90625-.6875-2.71875v-1.4375q0-1.8906.64062-2.7969.65625-.92185 2.04688-.92185 1.375 0 2.03124.89065.65626.875.67188 2.7187zm-1.09375-1.4844q0-1.375-.39063-2-.375-.6406-1.21874-.6406-.82813 0-1.21876.6406-.375.625-.375 1.9219v1.73435q0 1.375.39063 2.04685.40625.6563 1.21875.6563.79688 0 1.1875-.625.39062-.625.40625-1.95315z"/><path d="m549.8906 690.6875q0 .6406-.3437 1.1406-.3438.5-.9063.7813.6563.2812 1.0469.8437.3906.5469.3906 1.25 0 1.0938-.75 1.76565-.73435.65625-1.9531.65625-1.2344 0-1.9844-.65625-.73435-.67185-.73435-1.76565 0-.7031.375-1.25.375-.5625 1.04685-.8437-.5625-.2813-.8906-.7813-.3281-.5-.3281-1.1406 0-1.0781.6875-1.7031.6875-.64065 1.8281-.64065 1.125 0 1.8125.64065.7031.625.7031 1.7031zm-.8906 3.9844q0-.7188-.4531-1.1563-.45315-.4531-1.1875-.4531-.7344 0-1.1875.4531-.4375.4375-.4375 1.1719 0 .71875.4375 1.1406.4375.4063 1.2031.4063.75 0 1.1875-.4219.4375-.4219.4375-1.1406zm-1.625-5.4375q-.6406 0-1.0469.4062-.3906.39065-.3906 1.07815 0 .64065.3906 1.04685.39065.4063 1.0313.4063.6562 0 1.04685-.4063.39065-.4062.39065-1.04685 0-.65625-.4063-1.0625-.4062-.42185-1.0156-.42185zm9.6875 4.125q0 1.9062-.65625 2.8437-.64065.9219-2.03125.9219-1.3594 0-2.0156-.90625-.6563-.90625-.6875-2.71875v-1.4375q0-1.8906.6406-2.7969.65625-.92185 2.0469-.92185 1.375 0 2.0312.89065.6563.875.6719 2.7187zm-1.09375-1.4844q0-1.375-.39065-2-.375-.6406-1.2187-.6406-.82815 0-1.2188.6406-.375.625-.375 1.9219v1.73435q0 1.375.39065 2.04685.40625.6563 1.21875.6563.7969 0 1.1875-.625.3906-.625.40625-1.95315z"/></g></svg>