<svg fill="none" height="730" stroke-linecap="square" stroke-miterlimit="10" viewBox="0 0 580 730" width="580" xmlns="http://www.w3.org/2000/svg" xmlns:xlink="http://www.w3.org/1999/xlink"><clipPath id="a"><path d="m139.4 29h411.6v645h-411.6z"/></clipPath><path d="m0 0h580v730h-580z" fill="none"/><path d="m139.5 29.5v645" stroke="#333" stroke-linecap="butt"/><path d="m276.5 29.5v645" stroke="#ccc" stroke-linecap="butt"/><path d="m413.5 29.5v645" stroke="#ccc" stroke-linecap="butt"/><path d="m551.5 29.5v645" stroke="#ccc" stroke-linecap="butt"/><path d="m185.5 29.5v645"/><path d="m230.5 29.5v645"/><path d="m322.5 29.5v645"/><path d="m368.5 29.5v645"/><path d="m459.5 29.5v645"/><path d="m505.5 29.5v645"/><path d="m139.5 674.5v-645" stroke="#000" stroke-linecap="butt"/><path clip-path="url(#a)" d="m139 86v-37h346c1.10458 0 2 .89543 2 2v33c0 1.10457-.89542 2-2 2z"/><path clip-path="url(#a)" d="m139 86v-37h346c1.10458 0 2 .89543 2 2v33c0 1.10457-.89542 2-2 2z" fill="#01ad96"/><path clip-path="url(#a)" d="m139 143v-37h148c1.10458 0 2 .89543 2 2v33c0 1.10457-.89542 2-2 2z"/><path clip-path="url(#a)" d="m139 143v-37h148c1.10458 0 2 .89543 2 2v33c0 1.10457-.89542 2-2 2z" fill="#01ad96"/><path clip-path="url(#a)" d="m139 200v-37h52c1.10457 0 2 .89543 2 2v33c0 1.10457-.89543 2-2 2z"/><path clip-path="url(#a)" d="m139 200v-37h52c1.10457 0 2 .89543 2 2v33c0 1.10457-.89543 2-2 2z" fill="#01ad96"/><path clip-path="url(#a)" d="m139 257v-37h29c1.10457 0 2 .89543 2 2v33c0 1.10458-.89543 2-2 2z"/><path clip-path="url(#a)" d="m139 257v-37h29c1.10457 0 2 .89543 2 2v33c0 1.10458-.89543 2-2 2z" fill="#01ad96"/><path clip-path="url(#a)" d="m139 314v-37h21c1.10457 0 2 .89542 2 2v33c0 1.10458-.89543 2-2 2z"/><path clip-path="url(#a)" d="m139 314v-37h21c1.10457 0 2 .89542 2 2v33c0 1.10458-.89543 2-2 2z" fill="#01ad96"/><path clip-path="url(#a)" d="m139 371v-37h21c1.10457 0 2 .89542 2 2v33c0 1.10458-.89543 2-2 2z"/><path clip-path="url(#a)" d="m139 371v-37h21c1.10457 0 2 .89542 2 2v33c0 1.10458-.89543 2-2 2z" fill="#01ad96"/><path clip-path="url(#a)" d="m139 427v-37h19c1.10457 0 2 .89542 2 2v33c0 1.10458-.89543 2-2 2z"/><path clip-path="url(#a)" d="m139 427v-37h19c1.10457 0 2 .89542 2 2v33c0 1.10458-.89543 2-2 2z" fill="#01ad96"/><path clip-path="url(#a)" d="m139 484v-37h19c1.10457 0 2 .89542 2 2v33c0 1.10458-.89543 2-2 2z"/><path clip-path="url(#a)" d="m139 484v-37h19c1.10457 0 2 .89542 2 2v33c0 1.10458-.89543 2-2 2z" fill="#01ad96"/><path clip-path="url(#a)" d="m139 541v-37h15c1.10457 0 2 .89542 2 2v33c0 1.10455-.89543 2-2 2z"/><path clip-path="url(#a)" d="m139 541v-37h15c1.10457 0 2 .89542 2 2v33c0 1.10455-.89543 2-2 2z" fill="#01ad96"/><path clip-path="url(#a)" d="m139 598v-37h7c1.10457 0 2 .89545 2 2v33c0 1.10455-.89543 2-2 2z"/><path clip-path="url(#a)" d="m139 598v-37h7c1.10457 0 2 .89545 2 2v33c0 1.10455-.89543 2-2 2z" fill="#01ad96"/><path clip-path="url(#a)" d="m139 655v-37h30c1.10457 0 2 .89545 2 2v33c0 1.10455-.89543 2-2 2z"/><path clip-path="url(#a)" d="m139 655v-37h30c1.10457 0 2 .89545 2 2v33c0 1.10455-.89543 2-2 2z" fill="#01ad96"/><path d="m139.5 680.5v-12" stroke="#000" stroke-linecap="butt"/><path d="m276.5 680.5v-12" stroke="#000" stroke-linecap="butt"/><path d="m413.5 680.5v-12" stroke="#000" stroke-linecap="butt"/><path d="m551.5 680.5v-12" stroke="#000" stroke-linecap="butt"/><path d="m450.7375 71.5h-5.84376v-1.15625l2.76562-2.953125q.5625-.609375.82814-1.078125.28124-.46875.28124-.875 0-.578125-.29688-.890625-.28126-.328125-.8125-.328125-.57812 0-.90626.390625-.3281.390625-.3281 1.046875h-1.70314q0-.78125.375-1.421875.375-.65625 1.04688-1.015625.6875-.375 1.54686-.375 1.3125 0 2.0469.640625.73436.625.73436 1.78125 0 .640625-.32812 1.296875-.32814.65625-1.125 1.53125l-1.9375 2.046875h3.65626zm1.40624-4.203125.5-4.328125h4.78126v1.40625h-3.39064l-.21876 1.84375q.6094-.328125 1.28126-.328125 1.21874 0 1.90624.765625.70314.75.70314 2.109375 0 .828125-.35938 1.484375-.34376.640625-1 1.015625-.64062.359375-1.53126.359375-.7656 0-1.4375-.3125-.65624-.328125-1.04686-.890625-.375-.5625-.40624-1.296875h1.6875q.04686.53125.35936.828125.32814.296875.84374.296875.57814 0 .875-.40625.3125-.421875.3125-1.171875 0-.734375-.35936-1.109375-.34374-.390625-1-.390625-.60938 0-.98438.3125l-.15626.15625zm8.46876-.8125h.90624q.64062 0 .95312-.3125.3125-.328125.3125-.859375 0-.515625-.3125-.796875-.29686-.296875-.84376-.296875-.48436 0-.8125.265625-.3281.265625-.3281.6875h-1.6875q0-.65625.35936-1.1875.35938-.53125 1-.828125.65624-.3125 1.4375-.3125 1.34374 0 2.10938.65625.78126.640625.78126 1.78125 0 .59375-.3594 1.09375-.35936.484375-.9375.734375.71876.265625 1.0625.78125.3594.515625.3594 1.21875 0 1.140625-.82814 1.828125-.82812.6875-2.1875.6875-1.28126 0-2.09376-.671875-.8125-.6875-.8125-1.796875h1.6875q0 .484375.3594.796875.375.296875.8906.296875.6094 0 .95314-.3125.34376-.328125.34376-.859375 0-1.265625-1.40626-1.265625h-.90624zm5.4375 4.1875q0-.40625.2656-.65625.28126-.25.6875-.25.4219 0 .6875.25.28126.25.28126.65625 0 .390625-.28126.640625-.2656.25-.6875.25-.40624 0-.6875-.25-.2656-.25-.2656-.640625zm7.85936-2.390625h.96874v1.375h-.96874v1.84375h-1.70312v-1.84375h-3.48438l-.07812-1.0625 3.54686-5.625h1.71876zm-3.57812 0h1.875v-3l-.10938.1875zm10.57812 0h.96874v1.375h-.96874v1.84375h-1.70312v-1.84375h-3.48438l-.07812-1.0625 3.54686-5.625h1.71876zm-3.57812 0h1.875v-3l-.10938.1875z" stroke="#01ad96" stroke-linecap="round" stroke-linejoin="round" stroke-width="3"/><path d="m450.7375 71.5h-5.84376v-1.15625l2.76562-2.953125q.5625-.609375.82814-1.078125.28124-.46875.28124-.875 0-.578125-.29688-.890625-.28126-.328125-.8125-.328125-.57812 0-.90626.390625-.3281.390625-.3281 1.046875h-1.70314q0-.78125.375-1.421875.375-.65625 1.04688-1.015625.6875-.375 1.54686-.375 1.3125 0 2.0469.640625.73436.625.73436 1.78125 0 .640625-.32812 1.296875-.32814.65625-1.125 1.53125l-1.9375 2.046875h3.65626zm1.40624-4.203125.5-4.328125h4.78126v1.40625h-3.39064l-.21876 1.84375q.6094-.328125 1.28126-.328125 1.21874 0 1.90624.765625.70314.75.70314 2.109375 0 .828125-.35938 1.484375-.34376.640625-1 1.015625-.64062.359375-1.53126.359375-.7656 0-1.4375-.3125-.65624-.328125-1.04686-.890625-.375-.5625-.40624-1.296875h1.6875q.04686.53125.35936.828125.32814.296875.84374.296875.57814 0 .875-.40625.3125-.421875.3125-1.171875 0-.734375-.35936-1.109375-.34374-.390625-1-.390625-.60938 0-.98438.3125l-.15626.15625zm8.46876-.8125h.90624q.64062 0 .95312-.3125.3125-.328125.3125-.859375 0-.515625-.3125-.796875-.29686-.296875-.84376-.296875-.48436 0-.8125.265625-.3281.265625-.3281.6875h-1.6875q0-.65625.35936-1.1875.35938-.53125 1-.828125.65624-.3125 1.4375-.3125 1.34374 0 2.10938.65625.78126.640625.78126 1.78125 0 .59375-.3594 1.09375-.35936.484375-.9375.734375.71876.265625 1.0625.78125.3594.515625.3594 1.21875 0 1.140625-.82814 1.828125-.82812.6875-2.1875.6875-1.28126 0-2.09376-.671875-.8125-.6875-.8125-1.796875h1.6875q0 .484375.3594.796875.375.296875.8906.296875.6094 0 .95314-.3125.34376-.328125.34376-.859375 0-1.265625-1.40626-1.265625h-.90624zm5.4375 4.1875q0-.40625.2656-.65625.28126-.25.6875-.25.4219 0 .6875.25.28126.25.28126.65625 0 .390625-.28126.640625-.2656.25-.6875.25-.40624 0-.6875-.25-.2656-.25-.2656-.640625zm7.85936-2.390625h.96874v1.375h-.96874v1.84375h-1.70312v-1.84375h-3.48438l-.07812-1.0625 3.54686-5.625h1.71876zm-3.57812 0h1.875v-3l-.10938.1875zm10.57812 0h.96874v1.375h-.96874v1.84375h-1.70312v-1.84375h-3.48438l-.07812-1.0625 3.54686-5.625h1.71876zm-3.57812 0h1.875v-3l-.10938.1875z" fill="#fff"/><path d="m251.16063 128.5h-1.6875v-6.53125l-2.01563.625v-1.375l3.53125-1.265625h.17188zm8.64064-3.53125q0 1.765625-.73437 2.71875-.73438.9375-2.14063.9375-1.40627 0-2.14064-.921875-.73438-.921875-.75-2.640625v-1.578125q0-1.78125.73437-2.703125.75-.9375 2.14064-.9375 1.39063 0 2.125.921875.75.921875.76563 2.640625zm-1.70313-1.71875q0-1.0625-.29687-1.546875-.28125-.484375-.89063-.484375-.59374 0-.89062.46875-.28127.453125-.29689 1.4375v2.0625q0 1.046875.28127 1.5625.28124.5.92187.5.60937 0 .89063-.484375.28124-.484375.28124-1.484375zm6.92188 1.84375q-.67188.640625-1.54688.640625-1.14062 0-1.82812-.765625-.67188-.78125-.67188-2.09375 0-.84375.35938-1.546875.375-.703125 1.03125-1.09375.65625-.390625 1.48437-.390625.84376 0 1.5.421875.65626.421875 1.01563 1.21875.35937.796875.375 1.8125v.625q0 2.140625-1.0625 3.359375-1.0625 1.21875-3.01563 1.29687h-.40624v-1.406245l.375-.015625q2.20312-.09375 2.39062-2.0625zm-1.14062-.65625q.42187 0 .70312-.203125.29688-.21875.45312-.515625v-.6875q0-.859375-.32812-1.328125-.32812-.484375-.875-.484375-.51562 0-.84375.46875-.32813.453125-.32813 1.15625 0 .703125.3125 1.15625.32813.4375.90626.4375zm4.32812 3.234375q0-.40625.26562-.65625.28126-.25.6875-.25.42188 0 .6875.25.28126.25.28126.65625 0 .390625-.28126.640625-.26562.25-.6875.25-.40624 0-.6875-.25-.26562-.25-.26562-.640625zm8.6875.828125h-5.84375v-1.15625l2.76563-2.953125q.5625-.609375.82812-1.078125.28125-.46875.28125-.875 0-.578125-.29687-.890625-.28126-.328125-.8125-.328125-.57813 0-.90626.390625-.32812.390625-.32812 1.046875h-1.70312q0-.78125.375-1.421875.375-.65625 1.04687-1.015625.6875-.375 1.54687-.375 1.3125 0 2.04688.640625.73438.625.73438 1.78125 0 .640625-.32813 1.296875-.32813.65625-1.125 1.53125l-1.9375 2.046875h3.65625zm6.17188-3.21875h.96874v1.375h-.96874v1.84375h-1.70313v-1.84375h-3.48437l-.07813-1.0625 3.54687-5.625h1.71876zm-3.57813 0h1.875v-3l-.10937.1875z" stroke="#01ad96" stroke-linecap="round" stroke-linejoin="round" stroke-width="3"/><path d="m251.16063 128.5h-1.6875v-6.53125l-2.01563.625v-1.375l3.53125-1.265625h.17188zm8.64064-3.53125q0 1.765625-.73437 2.71875-.73438.9375-2.14063.9375-1.40627 0-2.14064-.921875-.73438-.921875-.75-2.640625v-1.578125q0-1.78125.73437-2.703125.75-.9375 2.14064-.9375 1.39063 0 2.125.921875.75.921875.76563 2.640625zm-1.70313-1.71875q0-1.0625-.29687-1.546875-.28125-.484375-.89063-.484375-.59374 0-.89062.46875-.28127.453125-.29689 1.4375v2.0625q0 1.046875.28127 1.5625.28124.5.92187.5.60937 0 .89063-.484375.28124-.484375.28124-1.484375zm6.92188 1.84375q-.67188.640625-1.54688.640625-1.14062 0-1.82812-.765625-.67188-.78125-.67188-2.09375 0-.84375.35938-1.546875.375-.703125 1.03125-1.09375.65625-.390625 1.48437-.390625.84376 0 1.5.421875.65626.421875 1.01563 1.21875.35937.796875.375 1.8125v.625q0 2.140625-1.0625 3.359375-1.0625 1.21875-3.01563 1.29687h-.40624v-1.406245l.375-.015625q2.20312-.09375 2.39062-2.0625zm-1.14062-.65625q.42187 0 .70312-.203125.29688-.21875.45312-.515625v-.6875q0-.859375-.32812-1.328125-.32812-.484375-.875-.484375-.51562 0-.84375.46875-.32813.453125-.32813 1.15625 0 .703125.3125 1.15625.32813.4375.90626.4375zm4.32812 3.234375q0-.40625.26562-.65625.28126-.25.6875-.25.42188 0 .6875.25.28126.25.28126.65625 0 .390625-.28126.640625-.26562.25-.6875.25-.40624 0-.6875-.25-.26562-.25-.26562-.640625zm8.6875.828125h-5.84375v-1.15625l2.76563-2.953125q.5625-.609375.82812-1.078125.28125-.46875.28125-.875 0-.578125-.29687-.890625-.28126-.328125-.8125-.328125-.57813 0-.90626.390625-.32812.390625-.32812 1.046875h-1.70312q0-.78125.375-1.421875.375-.65625 1.04687-1.015625.6875-.375 1.54687-.375 1.3125 0 2.04688.640625.73438.625.73438 1.78125 0 .640625-.32813 1.296875-.32813.65625-1.125 1.53125l-1.9375 2.046875h3.65625zm6.17188-3.21875h.96874v1.375h-.96874v1.84375h-1.70313v-1.84375h-3.48437l-.07813-1.0625 3.54687-5.625h1.71876zm-3.57813 0h1.875v-3l-.10937.1875z" fill="#fff"/><path d="m159.75078 180.48438h.90625q.64062 0 .95312-.3125.3125-.32813.3125-.85938 0-.51562-.3125-.79688-.29687-.29687-.84375-.29687-.48437 0-.8125.26563-.32812.26562-.32812.6875h-1.6875q0-.65626.35937-1.1875.35938-.53126 1-.82813.65625-.3125 1.4375-.3125 1.34375 0 2.10938.65625.78125.64062.78125 1.78125 0 .59375-.35938 1.09375-.35937.48438-.9375.73438.71875.26562 1.0625.78124.35938.51563.35938 1.21876 0 1.14062-.82813 1.82812-.82812.6875-2.1875.6875-1.28125 0-2.09375-.67188-.8125-.6875-.8125-1.79687h1.6875q0 .48437.35938.79687.375.29688.89062.29688.60938 0 .95313-.3125.34375-.32812.34375-.85938 0-1.26562-1.40625-1.26562h-.90625zm9.25 1.60937q-.67188.64063-1.54688.64063-1.14062 0-1.82812-.76563-.67188-.78125-.67188-2.09375 0-.84375.35938-1.54688.375-.70312 1.03125-1.09374.65625-.39063 1.48437-.39063.84375 0 1.5.42187.65625.42188 1.01563 1.21876.35937.79687.375 1.8125v.625q0 2.14062-1.0625 3.35937-1.0625 1.21875-3.01563 1.29687h-.40625v-1.40624l.375-.01563q2.20313-.09375 2.39063-2.0625zm-1.14063-.65625q.42188 0 .70313-.20312.29687-.21876.45312-.51563v-.6875q0-.85937-.32812-1.32813-.32813-.48437-.875-.48437-.51563 0-.84375.46875-.32813.45312-.32813 1.15625 0 .70313.3125 1.15625.32813.4375.90625.4375zm4.32813 3.23438q0-.40626.26562-.65626.28125-.25.6875-.25.42188 0 .6875.25.28125.25.28125.65626 0 .39062-.28125.64062-.26562.25-.6875.25-.40625 0-.6875-.25-.26562-.25-.26562-.64062zm8.6875.82812h-5.84375v-1.15625l2.76562-2.95313q.5625-.60937.82813-1.07812.28125-.46875.28125-.875 0-.57812-.29688-.89062-.28125-.32813-.8125-.32813-.57812 0-.90625.39063-.32812.39062-.32812 1.04687h-1.70313q0-.78125.375-1.42187.375-.65626 1.04688-1.01563.6875-.375 1.54687-.375 1.3125 0 2.04688.64063.73437.625.73437 1.78124 0 .64063-.32812 1.29688-.32813.65625-1.125 1.53125l-1.9375 2.04687h3.65625zm1.40625-4.20312.5-4.32813h4.78125v1.40625h-3.39063l-.21875 1.84375q.60938-.32813 1.28125-.32813 1.21875 0 1.90625.76563.70313.75.70313 2.10937 0 .82813-.35938 1.48438-.34375.64062-1 1.01562-.64062.35938-1.53125.35938-.76562 0-1.4375-.3125-.65625-.32812-1.04687-.89062-.375-.5625-.40625-1.29688h1.6875q.04687.53125.35937.82812.32813.29688.84375.29688.57813 0 .875-.40625.3125-.42187.3125-1.17187 0-.73438-.35937-1.10938-.34375-.39062-1-.39062-.60938 0-.98438.3125l-.15625.15624z" stroke="#01ad96" stroke-linecap="round" stroke-linejoin="round" stroke-width="3"/><path d="m159.75078 180.48438h.90625q.64062 0 .95312-.3125.3125-.32813.3125-.85938 0-.51562-.3125-.79688-.29687-.29687-.84375-.29687-.48437 0-.8125.26563-.32812.26562-.32812.6875h-1.6875q0-.65626.35937-1.1875.35938-.53126 1-.82813.65625-.3125 1.4375-.3125 1.34375 0 2.10938.65625.78125.64062.78125 1.78125 0 .59375-.35938 1.09375-.35937.48438-.9375.73438.71875.26562 1.0625.78124.35938.51563.35938 1.21876 0 1.14062-.82813 1.82812-.82812.6875-2.1875.6875-1.28125 0-2.09375-.67188-.8125-.6875-.8125-1.79687h1.6875q0 .48437.35938.79687.375.29688.89062.29688.60938 0 .95313-.3125.34375-.32812.34375-.85938 0-1.26562-1.40625-1.26562h-.90625zm9.25 1.60937q-.67188.64063-1.54688.64063-1.14062 0-1.82812-.76563-.67188-.78125-.67188-2.09375 0-.84375.35938-1.54688.375-.70312 1.03125-1.09374.65625-.39063 1.48437-.39063.84375 0 1.5.42187.65625.42188 1.01563 1.21876.35937.79687.375 1.8125v.625q0 2.14062-1.0625 3.35937-1.0625 1.21875-3.01563 1.29687h-.40625v-1.40624l.375-.01563q2.20313-.09375 2.39063-2.0625zm-1.14063-.65625q.42188 0 .70313-.20312.29687-.21876.45312-.51563v-.6875q0-.85937-.32812-1.32813-.32813-.48437-.875-.48437-.51563 0-.84375.46875-.32813.45312-.32813 1.15625 0 .70313.3125 1.15625.32813.4375.90625.4375zm4.32813 3.23438q0-.40626.26562-.65626.28125-.25.6875-.25.42188 0 .6875.25.28125.25.28125.65626 0 .39062-.28125.64062-.26562.25-.6875.25-.40625 0-.6875-.25-.26562-.25-.26562-.64062zm8.6875.82812h-5.84375v-1.15625l2.76562-2.95313q.5625-.60937.82813-1.07812.28125-.46875.28125-.875 0-.57812-.29688-.89062-.28125-.32813-.8125-.32813-.57812 0-.90625.39063-.32812.39062-.32812 1.04687h-1.70313q0-.78125.375-1.42187.375-.65626 1.04688-1.01563.6875-.375 1.54687-.375 1.3125 0 2.04688.64063.73437.625.73437 1.78124 0 .64063-.32812 1.29688-.32813.65625-1.125 1.53125l-1.9375 2.04687h3.65625zm1.40625-4.20312.5-4.32813h4.78125v1.40625h-3.39063l-.21875 1.84375q.60938-.32813 1.28125-.32813 1.21875 0 1.90625.76563.70313.75.70313 2.10937 0 .82813-.35938 1.48438-.34375.64062-1 1.01562-.64062.35938-1.53125.35938-.76562 0-1.4375-.3125-.65625-.32812-1.04687-.89062-.375-.5625-.40625-1.29688h1.6875q.04687.53125.35937.82812.32813.29688.84375.29688.57813 0 .875-.40625.3125-.42187.3125-1.17187 0-.73438-.35937-1.10938-.34375-.39062-1-.39062-.60938 0-.98438.3125l-.15625.15624z" fill="#fff"/><path d="m188.21378 242.5h-5.84375v-1.15625l2.76562-2.95313q.5625-.60937.82813-1.07812.28125-.46875.28125-.875 0-.57812-.29688-.89062-.28125-.32813-.8125-.32813-.57812 0-.90625.39063-.32812.39062-.32812 1.04687h-1.70313q0-.78125.375-1.42187.375-.65626 1.04688-1.01563.6875-.375 1.54687-.375 1.3125 0 2.04688.64063.73437.625.73437 1.78124 0 .64063-.32812 1.29688-.32813.65625-1.125 1.53125l-1.9375 2.04687h3.65625zm7 0h-5.84375v-1.15625l2.76562-2.95313q.5625-.60937.82813-1.07812.28125-.46875.28125-.875 0-.57812-.29688-.89062-.28125-.32813-.8125-.32813-.57812 0-.90625.39063-.32812.39062-.32812 1.04687h-1.70313q0-.78125.375-1.42187.375-.65626 1.04688-1.01563.6875-.375 1.54687-.375 1.3125 0 2.04688.64063.73437.625.73437 1.78124 0 .64063-.32812 1.29688-.32813.65625-1.125 1.53125l-1.9375 2.04687h3.65625zm1.3125-.82812q0-.40626.26562-.65626.28125-.25.6875-.25.42188 0 .6875.25.28125.25.28125.65626 0 .39062-.28125.64062-.26562.25-.6875.25-.40625 0-.6875-.25-.26562-.25-.26562-.64062zm6.95312.82812h-1.6875v-6.53125l-2.01562.625v-1.375l3.53125-1.26563h.17187zm3.14063-4.20312.5-4.32813h4.78125v1.40625h-3.39063l-.21875 1.84375q.60938-.32813 1.28125-.32813 1.21875 0 1.90625.76563.70313.75.70313 2.10937 0 .82813-.35938 1.48438-.34375.64062-1 1.01562-.64062.35938-1.53125.35938-.76562 0-1.4375-.3125-.65625-.32812-1.04687-.89062-.375-.5625-.40625-1.29688h1.6875q.04687.53125.35937.82812.32813.29688.84375.29688.57813 0 .875-.40625.3125-.42187.3125-1.17187 0-.73438-.35937-1.10938-.34375-.39062-1-.39062-.60938 0-.98438.3125l-.15625.15624z" stroke="#fff" stroke-linecap="round" stroke-linejoin="round" stroke-width="3"/><path d="m188.21378 242.5h-5.84375v-1.15625l2.76562-2.95313q.5625-.60937.82813-1.07812.28125-.46875.28125-.875 0-.57812-.29688-.89062-.28125-.32813-.8125-.32813-.57812 0-.90625.39063-.32812.39062-.32812 1.04687h-1.70313q0-.78125.375-1.42187.375-.65626 1.04688-1.01563.6875-.375 1.54687-.375 1.3125 0 2.04688.64063.73437.625.73437 1.78124 0 .64063-.32812 1.29688-.32813.65625-1.125 1.53125l-1.9375 2.04687h3.65625zm7 0h-5.84375v-1.15625l2.76562-2.95313q.5625-.60937.82813-1.07812.28125-.46875.28125-.875 0-.57812-.29688-.89062-.28125-.32813-.8125-.32813-.57812 0-.90625.39063-.32812.39062-.32812 1.04687h-1.70313q0-.78125.375-1.42187.375-.65626 1.04688-1.01563.6875-.375 1.54687-.375 1.3125 0 2.04688.64063.73437.625.73437 1.78124 0 .64063-.32812 1.29688-.32813.65625-1.125 1.53125l-1.9375 2.04687h3.65625zm1.3125-.82812q0-.40626.26562-.65626.28125-.25.6875-.25.42188 0 .6875.25.28125.25.28125.65626 0 .39062-.28125.64062-.26562.25-.6875.25-.40625 0-.6875-.25-.26562-.25-.26562-.64062zm6.95312.82812h-1.6875v-6.53125l-2.01562.625v-1.375l3.53125-1.26563h.17187zm3.14063-4.20312.5-4.32813h4.78125v1.40625h-3.39063l-.21875 1.84375q.60938-.32813 1.28125-.32813 1.21875 0 1.90625.76563.70313.75.70313 2.10937 0 .82813-.35938 1.48438-.34375.64062-1 1.01562-.64062.35938-1.53125.35938-.76562 0-1.4375-.3125-.65625-.32812-1.04687-.89062-.375-.5625-.40625-1.29688h1.6875q.04687.53125.35937.82812.32813.29688.84375.29688.57813 0 .875-.40625.3125-.42187.3125-1.17187 0-.73438-.35937-1.10938-.34375-.39062-1-.39062-.60938 0-.98438.3125l-.15625.15624z" fill="#01ad96"/><path d="m178.73619 299.5h-1.6875v-6.53125l-2.01562.625v-1.375l3.53125-1.26563h.17187zm7.48438-8.625v1.40625h-.15625q-1.15625.01563-1.85938.59375-.6875.57812-.82812 1.60938.67187-.6875 1.70312-.6875 1.125 0 1.78125.79687.65625.79687.65625 2.09375 0 .82812-.35937 1.5-.35938.67188-1.03125 1.0625-.65625.375-1.48438.375-1.34375 0-2.17187-.9375-.82813-.95312-.82813-2.51562v-.60938q0-1.39062.51563-2.45312.53125-1.0625 1.5-1.64063.98437-.57813 2.28125-.59375zm-1.65625 4.28125q-.40625 0-.75.21875-.32813.20312-.48438.5625v.51562q0 .84376.32813 1.32813.34375.46875.95312.46875.54688 0 .875-.42188.34375-.4375.34375-1.125 0-.70312-.34375-1.125-.34375-.42187-.92187-.42187zm4.21875 3.51563q0-.40626.26562-.65626.28125-.25.6875-.25.42188 0 .6875.25.28125.25.28125.65626 0 .39062-.28125.64062-.26562.25-.6875.25-.40625 0-.6875-.25-.26562-.25-.26562-.64062zm3.09375-3.375.5-4.32813h4.78125v1.40625h-3.39063l-.21875 1.84375q.60938-.32813 1.28125-.32813 1.21875 0 1.90625.76563.70313.75.70313 2.10937 0 .82813-.35938 1.48438-.34375.64062-1 1.01562-.64062.35938-1.53125.35938-.76562 0-1.4375-.3125-.65625-.32812-1.04687-.89062-.375-.5625-.40625-1.29688h1.6875q.04687.53125.35937.82812.32813.29688.84375.29688.57813 0 .875-.40625.3125-.42187.3125-1.17187 0-.73438-.35937-1.10938-.34375-.39062-1-.39062-.60938 0-.98438.3125l-.15625.15624zm10.85937 4.20312h-1.6875v-6.53125l-2.01562.625v-1.375l3.53125-1.26563h.17187z" stroke="#fff" stroke-linecap="round" stroke-linejoin="round" stroke-width="3"/><path d="m178.73619 299.5h-1.6875v-6.53125l-2.01562.625v-1.375l3.53125-1.26563h.17187zm7.48438-8.625v1.40625h-.15625q-1.15625.01563-1.85938.59375-.6875.57812-.82812 1.60938.67187-.6875 1.70312-.6875 1.125 0 1.78125.79687.65625.79687.65625 2.09375 0 .82812-.35937 1.5-.35938.67188-1.03125 1.0625-.65625.375-1.48438.375-1.34375 0-2.17187-.9375-.82813-.95312-.82813-2.51562v-.60938q0-1.39062.51563-2.45312.53125-1.0625 1.5-1.64063.98437-.57813 2.28125-.59375zm-1.65625 4.28125q-.40625 0-.75.21875-.32813.20312-.48438.5625v.51562q0 .84376.32813 1.32813.34375.46875.95312.46875.54688 0 .875-.42188.34375-.4375.34375-1.125 0-.70312-.34375-1.125-.34375-.42187-.92187-.42187zm4.21875 3.51563q0-.40626.26562-.65626.28125-.25.6875-.25.42188 0 .6875.25.28125.25.28125.65626 0 .39062-.28125.64062-.26562.25-.6875.25-.40625 0-.6875-.25-.26562-.25-.26562-.64062zm3.09375-3.375.5-4.32813h4.78125v1.40625h-3.39063l-.21875 1.84375q.60938-.32813 1.28125-.32813 1.21875 0 1.90625.76563.70313.75.70313 2.10937 0 .82813-.35938 1.48438-.34375.64062-1 1.01562-.64062.35938-1.53125.35938-.76562 0-1.4375-.3125-.65625-.32812-1.04687-.89062-.375-.5625-.40625-1.29688h1.6875q.04687.53125.35937.82812.32813.29688.84375.29688.57813 0 .875-.40625.3125-.42187.3125-1.17187 0-.73438-.35937-1.10938-.34375-.39062-1-.39062-.60938 0-.98438.3125l-.15625.15624zm10.85937 4.20312h-1.6875v-6.53125l-2.01562.625v-1.375l3.53125-1.26563h.17187z" fill="#01ad96"/><path d="m178.5492 356.5h-1.6875v-6.53125l-2.01563.625v-1.375l3.53125-1.26563h.17188zm7.48437-8.625v1.40625h-.15625q-1.15625.01563-1.85938.59375-.6875.57812-.82812 1.60938.67188-.6875 1.70312-.6875 1.125 0 1.78126.79687.65624.79687.65624 2.09375 0 .82812-.35937 1.5-.35937.67188-1.03125 1.0625-.65625.375-1.48438.375-1.34374 0-2.17187-.9375-.82813-.95312-.82813-2.51562v-.60938q0-1.39062.51563-2.45312.53125-1.0625 1.5-1.64063.98437-.57813 2.28125-.59375zm-1.65625 4.28125q-.40625 0-.75.21875-.32812.20312-.48438.5625v.51562q0 .84376.32813 1.32813.34375.46875.95313.46875.54687 0 .875-.42188.34374-.4375.34374-1.125 0-.70312-.34374-1.125-.34376-.42187-.92188-.42187zm4.21875 3.51563q0-.40626.26563-.65626.28124-.25.6875-.25.42187 0 .6875.25.28124.25.28124.65626 0 .39062-.28124.64062-.26563.25-.6875.25-.40626 0-.6875-.25-.26563-.25-.26563-.64062zm4.5625-4.1875h.90625q.64062 0 .95312-.3125.3125-.32813.3125-.85938 0-.51562-.3125-.79688-.29687-.29687-.84374-.29687-.48438 0-.8125.26563-.32813.26562-.32813.6875h-1.6875q0-.65626.35937-1.1875.35938-.53126 1-.82813.65626-.3125 1.4375-.3125 1.34376 0 2.10938.65625.78125.64062.78125 1.78125 0 .59375-.35937 1.09375-.35938.48438-.9375.73438.71874.26562 1.0625.78124.35937.51563.35937 1.21876 0 1.14062-.82813 1.82812-.82812.6875-2.1875.6875-1.28124 0-2.09374-.67188-.8125-.6875-.8125-1.79687h1.6875q0 .48437.35937.79687.375.29688.89063.29688.60937 0 .95312-.3125.34375-.32812.34375-.85938 0-1.26562-1.40625-1.26562h-.90625zm11.07813-2.5625-3.29688 7.57812h-1.78125l3.29687-7.15625h-4.23437v-1.375h6.01563z" stroke="#fff" stroke-linecap="round" stroke-linejoin="round" stroke-width="3"/><path d="m178.5492 356.5h-1.6875v-6.53125l-2.01563.625v-1.375l3.53125-1.26563h.17188zm7.48437-8.625v1.40625h-.15625q-1.15625.01563-1.85938.59375-.6875.57812-.82812 1.60938.67188-.6875 1.70312-.6875 1.125 0 1.78126.79687.65624.79687.65624 2.09375 0 .82812-.35937 1.5-.35937.67188-1.03125 1.0625-.65625.375-1.48438.375-1.34374 0-2.17187-.9375-.82813-.95312-.82813-2.51562v-.60938q0-1.39062.51563-2.45312.53125-1.0625 1.5-1.64063.98437-.57813 2.28125-.59375zm-1.65625 4.28125q-.40625 0-.75.21875-.32812.20312-.48438.5625v.51562q0 .84376.32813 1.32813.34375.46875.95313.46875.54687 0 .875-.42188.34374-.4375.34374-1.125 0-.70312-.34374-1.125-.34376-.42187-.92188-.42187zm4.21875 3.51563q0-.40626.26563-.65626.28124-.25.6875-.25.42187 0 .6875.25.28124.25.28124.65626 0 .39062-.28124.64062-.26563.25-.6875.25-.40626 0-.6875-.25-.26563-.25-.26563-.64062zm4.5625-4.1875h.90625q.64062 0 .95312-.3125.3125-.32813.3125-.85938 0-.51562-.3125-.79688-.29687-.29687-.84374-.29687-.48438 0-.8125.26563-.32813.26562-.32813.6875h-1.6875q0-.65626.35937-1.1875.35938-.53126 1-.82813.65626-.3125 1.4375-.3125 1.34376 0 2.10938.65625.78125.64062.78125 1.78125 0 .59375-.35937 1.09375-.35938.48438-.9375.73438.71874.26562 1.0625.78124.35937.51563.35937 1.21876 0 1.14062-.82813 1.82812-.82812.6875-2.1875.6875-1.28124 0-2.09374-.67188-.8125-.6875-.8125-1.79687h1.6875q0 .48437.35937.79687.375.29688.89063.29688.60937 0 .95312-.3125.34375-.32812.34375-.85938 0-1.26562-1.40625-1.26562h-.90625zm11.07813-2.5625-3.29688 7.57812h-1.78125l3.29687-7.15625h-4.23437v-1.375h6.01563z" fill="#01ad96"/><path d="m177.0141 412.5h-1.6875v-6.53125l-2.01563.625v-1.375l3.53125-1.26563h.17188zm3.14062-4.20312.5-4.32813h4.78125v1.40625h-3.39062l-.21875 1.84375q.60937-.32813 1.28125-.32813 1.21875 0 1.90625.76563.70312.75.70312 2.10937 0 .82813-.35937 1.48438-.34375.64062-1 1.01562-.64063.35938-1.53125.35938-.76563 0-1.4375-.3125-.65625-.32812-1.04688-.89062-.375-.5625-.40625-1.29688h1.6875q.04688.53125.35938.82812.32812.29688.84375.29688.57812 0 .875-.40625.3125-.42187.3125-1.17187 0-.73438-.35938-1.10938-.34375-.39062-1-.39062-.60937 0-.98437.3125l-.15625.15624zm6.90625 3.375q0-.40626.26563-.65626.28125-.25.6875-.25.42187 0 .6875.25.28125.25.28125.65626 0 .39062-.28125.64062-.26563.25-.6875.25-.40625 0-.6875-.25-.26563-.25-.26563-.64062zm8.6875.82812h-5.84375v-1.15625l2.76563-2.95313q.5625-.60937.82812-1.07812.28125-.46875.28125-.875 0-.57812-.29687-.89062-.28125-.32813-.8125-.32813-.57813 0-.90625.39063-.32813.39062-.32813 1.04687h-1.70312q0-.78125.375-1.42187.375-.65626 1.04687-1.01563.6875-.375 1.54688-.375 1.3125 0 2.04687.64063.73438.625.73438 1.78124 0 .64063-.32813 1.29688-.32812.65625-1.125 1.53125l-1.9375 2.04687h3.65625zm1.40625-4.20312.5-4.32813h4.78125v1.40625h-3.39062l-.21875 1.84375q.60937-.32813 1.28125-.32813 1.21875 0 1.90625.76563.70312.75.70312 2.10937 0 .82813-.35937 1.48438-.34375.64062-1 1.01562-.64063.35938-1.53125.35938-.76563 0-1.4375-.3125-.65625-.32812-1.04688-.89062-.375-.5625-.40625-1.29688h1.6875q.04688.53125.35938.82812.32812.29688.84375.29688.57812 0 .875-.40625.3125-.42187.3125-1.17187 0-.73438-.35938-1.10938-.34375-.39062-1-.39062-.60937 0-.98437.3125l-.15625.15624z" stroke="#fff" stroke-linecap="round" stroke-linejoin="round" stroke-width="3"/><path d="m177.0141 412.5h-1.6875v-6.53125l-2.01563.625v-1.375l3.53125-1.26563h.17188zm3.14062-4.20312.5-4.32813h4.78125v1.40625h-3.39062l-.21875 1.84375q.60937-.32813 1.28125-.32813 1.21875 0 1.90625.76563.70312.75.70312 2.10937 0 .82813-.35937 1.48438-.34375.64062-1 1.01562-.64063.35938-1.53125.35938-.76563 0-1.4375-.3125-.65625-.32812-1.04688-.89062-.375-.5625-.40625-1.29688h1.6875q.04688.53125.35938.82812.32812.29688.84375.29688.57812 0 .875-.40625.3125-.42187.3125-1.17187 0-.73438-.35938-1.10938-.34375-.39062-1-.39062-.60937 0-.98437.3125l-.15625.15624zm6.90625 3.375q0-.40626.26563-.65626.28125-.25.6875-.25.42187 0 .6875.25.28125.25.28125.65626 0 .39062-.28125.64062-.26563.25-.6875.25-.40625 0-.6875-.25-.26563-.25-.26563-.64062zm8.6875.82812h-5.84375v-1.15625l2.76563-2.95313q.5625-.60937.82812-1.07812.28125-.46875.28125-.875 0-.57812-.29687-.89062-.28125-.32813-.8125-.32813-.57813 0-.90625.39063-.32813.39062-.32813 1.04687h-1.70312q0-.78125.375-1.42187.375-.65626 1.04687-1.01563.6875-.375 1.54688-.375 1.3125 0 2.04687.64063.73438.625.73438 1.78124 0 .64063-.32813 1.29688-.32812.65625-1.125 1.53125l-1.9375 2.04687h3.65625zm1.40625-4.20312.5-4.32813h4.78125v1.40625h-3.39062l-.21875 1.84375q.60937-.32813 1.28125-.32813 1.21875 0 1.90625.76563.70312.75.70312 2.10937 0 .82813-.35937 1.48438-.34375.64062-1 1.01562-.64063.35938-1.53125.35938-.76563 0-1.4375-.3125-.65625-.32812-1.04688-.89062-.375-.5625-.40625-1.29688h1.6875q.04688.53125.35938.82812.32812.29688.84375.29688.57812 0 .875-.40625.3125-.42187.3125-1.17187 0-.73438-.35938-1.10938-.34375-.39062-1-.39062-.60937 0-.98437.3125l-.15625.15624z" fill="#01ad96"/><path d="m176.91275 469.5h-1.6875v-6.53125l-2.01562.625v-1.375l3.53125-1.26563h.17187zm3.14063-4.20312.5-4.32813h4.78125v1.40625h-3.39063l-.21875 1.84375q.60938-.32813 1.28125-.32813 1.21875 0 1.90625.76563.70313.75.70313 2.10937 0 .82813-.35938 1.48438-.34375.64062-1 1.01562-.64062.35938-1.53125.35938-.76562 0-1.4375-.3125-.65625-.32812-1.04687-.89062-.375-.5625-.40625-1.29688h1.6875q.04687.53125.35937.82812.32813.29688.84375.29688.57813 0 .875-.40625.3125-.42187.3125-1.17187 0-.73438-.35937-1.10938-.34375-.39062-1-.39062-.60938 0-.98438.3125l-.15625.15624zm6.90625 3.375q0-.40626.26562-.65626.28125-.25.6875-.25.42188 0 .6875.25.28125.25.28125.65626 0 .39062-.28125.64062-.26562.25-.6875.25-.40625 0-.6875-.25-.26562-.25-.26562-.64062zm6.95312.82812h-1.6875v-6.53125l-2.01562.625v-1.375l3.53125-1.26563h.17187zm8.45313-6.26562q0 .625-.3125 1.10937-.3125.46875-.85938.76563.625.29687.98438.82812.375.51562.375 1.21875 0 1.14063-.78125 1.8125-.76563.65625-2.10938.65625-1.32812 0-2.10937-.65625-.76563-.67187-.76563-1.8125 0-.70313.35938-1.23437.35937-.53126.98437-.8125-.54687-.29688-.85937-.76563-.3125-.48437-.3125-1.10937 0-1.09376.71875-1.73438.73437-.65625 1.98437-.65625 1.25 0 1.96875.65625.73438.64062.73438 1.73438zm-1.51563 3.79687q0-.54687-.32812-.875-.3125-.34375-.85938-.34375-.54687 0-.875.32812-.3125.32813-.3125.89063 0 .54687.3125.89063.32813.32812.89063.32812.54687 0 .85937-.3125.3125-.32812.3125-.90625zm-.17187-3.71875q0-.5-.26563-.79688-.26562-.29687-.75-.29687-.46875 0-.73437.29687-.26563.28126-.26563.79688 0 .51562.26563.82812.26562.3125.73437.3125.48438 0 .75-.3125.26563-.3125.26563-.82812z" stroke="#fff" stroke-linecap="round" stroke-linejoin="round" stroke-width="3"/><path d="m176.91275 469.5h-1.6875v-6.53125l-2.01562.625v-1.375l3.53125-1.26563h.17187zm3.14063-4.20312.5-4.32813h4.78125v1.40625h-3.39063l-.21875 1.84375q.60938-.32813 1.28125-.32813 1.21875 0 1.90625.76563.70313.75.70313 2.10937 0 .82813-.35938 1.48438-.34375.64062-1 1.01562-.64062.35938-1.53125.35938-.76562 0-1.4375-.3125-.65625-.32812-1.04687-.89062-.375-.5625-.40625-1.29688h1.6875q.04687.53125.35937.82812.32813.29688.84375.29688.57813 0 .875-.40625.3125-.42187.3125-1.17187 0-.73438-.35937-1.10938-.34375-.39062-1-.39062-.60938 0-.98438.3125l-.15625.15624zm6.90625 3.375q0-.40626.26562-.65626.28125-.25.6875-.25.42188 0 .6875.25.28125.25.28125.65626 0 .39062-.28125.64062-.26562.25-.6875.25-.40625 0-.6875-.25-.26562-.25-.26562-.64062zm6.95312.82812h-1.6875v-6.53125l-2.01562.625v-1.375l3.53125-1.26563h.17187zm8.45313-6.26562q0 .625-.3125 1.10937-.3125.46875-.85938.76563.625.29687.98438.82812.375.51562.375 1.21875 0 1.14063-.78125 1.8125-.76563.65625-2.10938.65625-1.32812 0-2.10937-.65625-.76563-.67187-.76563-1.8125 0-.70313.35938-1.23437.35937-.53126.98437-.8125-.54687-.29688-.85937-.76563-.3125-.48437-.3125-1.10937 0-1.09376.71875-1.73438.73437-.65625 1.98437-.65625 1.25 0 1.96875.65625.73438.64062.73438 1.73438zm-1.51563 3.79687q0-.54687-.32812-.875-.3125-.34375-.85938-.34375-.54687 0-.875.32812-.3125.32813-.3125.89063 0 .54687.3125.89063.32813.32812.89063.32812.54687 0 .85937-.3125.3125-.32812.3125-.90625zm-.17187-3.71875q0-.5-.26563-.79688-.26562-.29687-.75-.29687-.46875 0-.73437.29687-.26563.28126-.26563.79688 0 .51562.26563.82812.26562.3125.73437.3125.48438 0 .75-.3125.26563-.3125.26563-.82812z" fill="#01ad96"/><path d="m173.04095 526.5h-1.6875v-6.53125l-2.01562.625v-1.375l3.53125-1.26565h.17187zm8.73438 0h-5.84375v-1.15625l2.76562-2.95315q.5625-.60935.82813-1.0781.28125-.46875.28125-.875 0-.5781-.29688-.8906-.28125-.32815-.8125-.32815-.57812 0-.90625.39065-.32812.3906-.32812 1.04685h-1.70313q0-.78125.375-1.42185.375-.6563 1.04688-1.01565.6875-.375 1.54687-.375 1.3125 0 2.04688.64065.73437.625.73437 1.7812 0 .64065-.32812 1.2969-.32813.65625-1.125 1.53125l-1.9375 2.04685h3.65625zm1.3125-.8281q0-.4063.26562-.6563.28125-.25.6875-.25.42188 0 .6875.25.28125.25.28125.6563 0 .3906-.28125.6406-.26562.25-.6875.25-.40625 0-.6875-.25-.26562-.25-.26562-.6406zm4.5625-4.1875h.90625q.64062 0 .95312-.3125.3125-.32815.3125-.8594 0-.5156-.3125-.7969-.29687-.29685-.84375-.29685-.48437 0-.8125.26565-.32812.2656-.32812.6875h-1.6875q0-.6563.35937-1.1875.35938-.5313 1-.82815.65625-.3125 1.4375-.3125 1.34375 0 2.10938.65625.78125.6406.78125 1.78125 0 .59375-.35938 1.09375-.35937.4844-.9375.7344.71875.2656 1.0625.7812.35938.51565.35938 1.2188 0 1.1406-.82813 1.8281-.82812.6875-2.1875.6875-1.28125 0-2.09375-.6719-.8125-.6875-.8125-1.79685h1.6875q0 .48435.35938.79685.375.2969.89062.2969.60938 0 .95313-.3125.34375-.3281.34375-.8594 0-1.2656-1.40625-1.2656h-.90625zm9.875-3.6094v1.40625h-.15625q-1.15625.01565-1.85938.59375-.6875.5781-.82812 1.6094.67187-.6875 1.70312-.6875 1.125 0 1.78125.79685.65625.79685.65625 2.09375 0 .8281-.35937 1.5-.35938.6719-1.03125 1.0625-.65625.375-1.48438.375-1.34375 0-2.17187-.9375-.82813-.9531-.82813-2.5156v-.6094q0-1.3906.51563-2.4531.53125-1.0625 1.5-1.64065.98437-.57815 2.28125-.59375zm-1.65625 4.28125q-.40625 0-.75.21875-.32813.2031-.48438.5625v.5156q0 .8438.32813 1.32815.34375.46875.95312.46875.54688 0 .875-.4219.34375-.4375.34375-1.125 0-.7031-.34375-1.125-.34375-.42185-.92187-.42185z" stroke="#fff" stroke-linecap="round" stroke-linejoin="round" stroke-width="3"/><path d="m173.04095 526.5h-1.6875v-6.53125l-2.01562.625v-1.375l3.53125-1.26565h.17187zm8.73438 0h-5.84375v-1.15625l2.76562-2.95315q.5625-.60935.82813-1.0781.28125-.46875.28125-.875 0-.5781-.29688-.8906-.28125-.32815-.8125-.32815-.57812 0-.90625.39065-.32812.3906-.32812 1.04685h-1.70313q0-.78125.375-1.42185.375-.6563 1.04688-1.01565.6875-.375 1.54687-.375 1.3125 0 2.04688.64065.73437.625.73437 1.7812 0 .64065-.32812 1.2969-.32813.65625-1.125 1.53125l-1.9375 2.04685h3.65625zm1.3125-.8281q0-.4063.26562-.6563.28125-.25.6875-.25.42188 0 .6875.25.28125.25.28125.6563 0 .3906-.28125.6406-.26562.25-.6875.25-.40625 0-.6875-.25-.26562-.25-.26562-.6406zm4.5625-4.1875h.90625q.64062 0 .95312-.3125.3125-.32815.3125-.8594 0-.5156-.3125-.7969-.29687-.29685-.84375-.29685-.48437 0-.8125.26565-.32812.2656-.32812.6875h-1.6875q0-.6563.35937-1.1875.35938-.5313 1-.82815.65625-.3125 1.4375-.3125 1.34375 0 2.10938.65625.78125.6406.78125 1.78125 0 .59375-.35938 1.09375-.35937.4844-.9375.7344.71875.2656 1.0625.7812.35938.51565.35938 1.2188 0 1.1406-.82813 1.8281-.82812.6875-2.1875.6875-1.28125 0-2.09375-.6719-.8125-.6875-.8125-1.79685h1.6875q0 .48435.35938.79685.375.2969.89062.2969.60938 0 .95313-.3125.34375-.3281.34375-.8594 0-1.2656-1.40625-1.2656h-.90625zm9.875-3.6094v1.40625h-.15625q-1.15625.01565-1.85938.59375-.6875.5781-.82812 1.6094.67187-.6875 1.70312-.6875 1.125 0 1.78125.79685.65625.79685.65625 2.09375 0 .8281-.35937 1.5-.35938.6719-1.03125 1.0625-.65625.375-1.48438.375-1.34375 0-2.17187-.9375-.82813-.9531-.82813-2.5156v-.6094q0-1.3906.51563-2.4531.53125-1.0625 1.5-1.64065.98437-.57815 2.28125-.59375zm-1.65625 4.28125q-.40625 0-.75.21875-.32813.2031-.48438.5625v.5156q0 .8438.32813 1.32815.34375.46875.95312.46875.54688 0 .875-.4219.34375-.4375.34375-1.125 0-.7031-.34375-1.125-.34375-.42185-.92187-.42185z" fill="#01ad96"/><path d="m165.65036 574.875v1.40625h-.15625q-1.15625.01565-1.85937.59375-.6875.5781-.82813 1.6094.67188-.6875 1.70313-.6875 1.125 0 1.78125.79685.65625.79685.65625 2.09375 0 .8281-.35938 1.5-.35937.6719-1.03125 1.0625-.65625.375-1.48437.375-1.34375 0-2.17188-.9375-.82812-.9531-.82812-2.5156v-.6094q0-1.3906.51562-2.4531.53125-1.0625 1.5-1.64065.98438-.57815 2.28125-.59375zm-1.65625 4.28125q-.40625 0-.75.21875-.32812.2031-.48437.5625v.5156q0 .8438.32812 1.32815.34375.46875.95313.46875.54687 0 .875-.4219.34375-.4375.34375-1.125 0-.7031-.34375-1.125-.34375-.42185-.92188-.42185zm4.21875 3.51565q0-.4063.26563-.6563.28125-.25.6875-.25.42187 0 .6875.25.28125.25.28125.6563 0 .3906-.28125.6406-.26563.25-.6875.25-.40625 0-.6875-.25-.26563-.25-.26563-.6406zm7.4375-7.7969v1.40625h-.15625q-1.15625.01565-1.85937.59375-.6875.5781-.82813 1.6094.67188-.6875 1.70313-.6875 1.125 0 1.78125.79685.65625.79685.65625 2.09375 0 .8281-.35938 1.5-.35937.6719-1.03125 1.0625-.65625.375-1.48437.375-1.34375 0-2.17188-.9375-.82812-.9531-.82812-2.5156v-.6094q0-1.3906.51562-2.4531.53125-1.0625 1.5-1.64065.98438-.57815 2.28125-.59375zm-1.65625 4.28125q-.40625 0-.75.21875-.32812.2031-.48437.5625v.5156q0 .8438.32812 1.32815.34375.46875.95313.46875.54687 0 .875-.4219.34375-.4375.34375-1.125 0-.7031-.34375-1.125-.34375-.42185-.92188-.42185zm9.90625 4.34375h-5.84375v-1.15625l2.76563-2.95315q.5625-.60935.82812-1.0781.28125-.46875.28125-.875 0-.5781-.29687-.8906-.28125-.32815-.8125-.32815-.57813 0-.90625.39065-.32813.3906-.32813 1.04685h-1.70312q0-.78125.375-1.42185.375-.6563 1.04687-1.01565.6875-.375 1.54688-.375 1.3125 0 2.04687.64065.73438.625.73438 1.7812 0 .64065-.32813 1.2969-.32812.65625-1.125 1.53125l-1.9375 2.04685h3.65625z" stroke="#fff" stroke-linecap="round" stroke-linejoin="round" stroke-width="3"/><path d="m165.65036 574.875v1.40625h-.15625q-1.15625.01565-1.85937.59375-.6875.5781-.82813 1.6094.67188-.6875 1.70313-.6875 1.125 0 1.78125.79685.65625.79685.65625 2.09375 0 .8281-.35938 1.5-.35937.6719-1.03125 1.0625-.65625.375-1.48437.375-1.34375 0-2.17188-.9375-.82812-.9531-.82812-2.5156v-.6094q0-1.3906.51562-2.4531.53125-1.0625 1.5-1.64065.98438-.57815 2.28125-.59375zm-1.65625 4.28125q-.40625 0-.75.21875-.32812.2031-.48437.5625v.5156q0 .8438.32812 1.32815.34375.46875.95313.46875.54687 0 .875-.4219.34375-.4375.34375-1.125 0-.7031-.34375-1.125-.34375-.42185-.92188-.42185zm4.21875 3.51565q0-.4063.26563-.6563.28125-.25.6875-.25.42187 0 .6875.25.28125.25.28125.6563 0 .3906-.28125.6406-.26563.25-.6875.25-.40625 0-.6875-.25-.26563-.25-.26563-.6406zm7.4375-7.7969v1.40625h-.15625q-1.15625.01565-1.85937.59375-.6875.5781-.82813 1.6094.67188-.6875 1.70313-.6875 1.125 0 1.78125.79685.65625.79685.65625 2.09375 0 .8281-.35938 1.5-.35937.6719-1.03125 1.0625-.65625.375-1.48437.375-1.34375 0-2.17188-.9375-.82812-.9531-.82812-2.5156v-.6094q0-1.3906.51562-2.4531.53125-1.0625 1.5-1.64065.98438-.57815 2.28125-.59375zm-1.65625 4.28125q-.40625 0-.75.21875-.32812.2031-.48437.5625v.5156q0 .8438.32812 1.32815.34375.46875.95313.46875.54687 0 .875-.4219.34375-.4375.34375-1.125 0-.7031-.34375-1.125-.34375-.42185-.92188-.42185zm9.90625 4.34375h-5.84375v-1.15625l2.76563-2.95315q.5625-.60935.82812-1.0781.28125-.46875.28125-.875 0-.5781-.29687-.8906-.28125-.32815-.8125-.32815-.57813 0-.90625.39065-.32813.3906-.32813 1.04685h-1.70312q0-.78125.375-1.42185.375-.6563 1.04687-1.01565.6875-.375 1.54688-.375 1.3125 0 2.04687.64065.73438.625.73438 1.7812 0 .64065-.32813 1.2969-.32812.65625-1.125 1.53125l-1.9375 2.04685h3.65625z" fill="#01ad96"/><path d="m189.91098 640.5h-5.84375v-1.15625l2.76563-2.95315q.5625-.60935.82812-1.0781.28125-.46875.28125-.875 0-.5781-.29687-.8906-.28126-.32815-.8125-.32815-.57813 0-.90626.39065-.32812.3906-.32812 1.04685h-1.70312q0-.78125.375-1.42185.375-.6563 1.04687-1.01565.6875-.375 1.54687-.375 1.3125 0 2.04688.64065.73438.625.73438 1.7812 0 .64065-.32813 1.2969-.32813.65625-1.125 1.53125l-1.9375 2.04685h3.65625zm2.875-5.0156h.90625q.64063 0 .95313-.3125.3125-.32815.3125-.8594 0-.5156-.3125-.7969-.29688-.29685-.84376-.29685-.48437 0-.8125.26565-.32812.2656-.32812.6875h-1.6875q0-.6563.35938-1.1875.35937-.5313 1-.82815.65624-.3125 1.4375-.3125 1.34374 0 2.10937.65625.78125.6406.78125 1.78125 0 .59375-.35938 1.09375-.35937.4844-.9375.7344.71876.2656 1.0625.7812.35938.51565.35938 1.2188 0 1.1406-.82812 1.8281-.82813.6875-2.1875.6875-1.28126 0-2.09376-.6719-.8125-.6875-.8125-1.79685h1.6875q0 .48435.35938.79685.375.2969.89062.2969.60938 0 .95313-.3125.34375-.3281.34375-.8594 0-1.2656-1.40625-1.2656h-.90625zm5.4375 4.1875q0-.4063.26562-.6563.28126-.25.6875-.25.42188 0 .6875.25.28126.25.28126.6563 0 .3906-.28126.6406-.26562.25-.6875.25-.40624 0-.6875-.25-.26562-.25-.26562-.6406zm4.5625-4.1875h.90625q.64063 0 .95313-.3125.3125-.32815.3125-.8594 0-.5156-.3125-.7969-.29688-.29685-.84376-.29685-.48437 0-.8125.26565-.32812.2656-.32812.6875h-1.6875q0-.6563.35938-1.1875.35937-.5313 1-.82815.65624-.3125 1.4375-.3125 1.34374 0 2.10937.65625.78125.6406.78125 1.78125 0 .59375-.35938 1.09375-.35937.4844-.9375.7344.71876.2656 1.0625.7812.35938.51565.35938 1.2188 0 1.1406-.82812 1.8281-.82813.6875-2.1875.6875-1.28126 0-2.09376-.6719-.8125-.6875-.8125-1.79685h1.6875q0 .48435.35938.79685.375.2969.89062.2969.60938 0 .95313-.3125.34375-.3281.34375-.8594 0-1.2656-1.40625-1.2656h-.90625zm9.25 1.60935q-.67188.64065-1.54688.64065-1.14062 0-1.82812-.76565-.67188-.78125-.67188-2.09375 0-.84375.35938-1.5469.375-.7031 1.03125-1.0937.65625-.39065 1.48437-.39065.84376 0 1.5.42185.65626.4219 1.01563 1.2188.35937.79685.375 1.8125v.625q0 2.1406-1.0625 3.35935-1.0625 1.21875-3.01563 1.29685h-.40624v-1.4062l.375-.01565q2.20312-.09375 2.39062-2.0625zm-1.14062-.65625q.42187 0 .70312-.2031.29688-.2188.45312-.51565v-.6875q0-.85935-.32812-1.32815-.32812-.48435-.875-.48435-.51562 0-.84375.46875-.32813.4531-.32813 1.15625 0 .70315.3125 1.15625.32813.4375.90626.4375z" stroke="#fff" stroke-linecap="round" stroke-linejoin="round" stroke-width="3"/><path d="m189.91098 640.5h-5.84375v-1.15625l2.76563-2.95315q.5625-.60935.82812-1.0781.28125-.46875.28125-.875 0-.5781-.29687-.8906-.28126-.32815-.8125-.32815-.57813 0-.90626.39065-.32812.3906-.32812 1.04685h-1.70312q0-.78125.375-1.42185.375-.6563 1.04687-1.01565.6875-.375 1.54687-.375 1.3125 0 2.04688.64065.73438.625.73438 1.7812 0 .64065-.32813 1.2969-.32813.65625-1.125 1.53125l-1.9375 2.04685h3.65625zm2.875-5.0156h.90625q.64063 0 .95313-.3125.3125-.32815.3125-.8594 0-.5156-.3125-.7969-.29688-.29685-.84376-.29685-.48437 0-.8125.26565-.32812.2656-.32812.6875h-1.6875q0-.6563.35938-1.1875.35937-.5313 1-.82815.65624-.3125 1.4375-.3125 1.34374 0 2.10937.65625.78125.6406.78125 1.78125 0 .59375-.35938 1.09375-.35937.4844-.9375.7344.71876.2656 1.0625.7812.35938.51565.35938 1.2188 0 1.1406-.82812 1.8281-.82813.6875-2.1875.6875-1.28126 0-2.09376-.6719-.8125-.6875-.8125-1.79685h1.6875q0 .48435.35938.79685.375.2969.89062.2969.60938 0 .95313-.3125.34375-.3281.34375-.8594 0-1.2656-1.40625-1.2656h-.90625zm5.4375 4.1875q0-.4063.26562-.6563.28126-.25.6875-.25.42188 0 .6875.25.28126.25.28126.6563 0 .3906-.28126.6406-.26562.25-.6875.25-.40624 0-.6875-.25-.26562-.25-.26562-.6406zm4.5625-4.1875h.90625q.64063 0 .95313-.3125.3125-.32815.3125-.8594 0-.5156-.3125-.7969-.29688-.29685-.84376-.29685-.48437 0-.8125.26565-.32812.2656-.32812.6875h-1.6875q0-.6563.35938-1.1875.35937-.5313 1-.82815.65624-.3125 1.4375-.3125 1.34374 0 2.10937.65625.78125.6406.78125 1.78125 0 .59375-.35938 1.09375-.35937.4844-.9375.7344.71876.2656 1.0625.7812.35938.51565.35938 1.2188 0 1.1406-.82812 1.8281-.82813.6875-2.1875.6875-1.28126 0-2.09376-.6719-.8125-.6875-.8125-1.79685h1.6875q0 .48435.35938.79685.375.2969.89062.2969.60938 0 .95313-.3125.34375-.3281.34375-.8594 0-1.2656-1.40625-1.2656h-.90625zm9.25 1.60935q-.67188.64065-1.54688.64065-1.14062 0-1.82812-.76565-.67188-.78125-.67188-2.09375 0-.84375.35938-1.5469.375-.7031 1.03125-1.0937.65625-.39065 1.48437-.39065.84376 0 1.5.42185.65626.4219 1.01563 1.2188.35937.79685.375 1.8125v.625q0 2.1406-1.0625 3.35935-1.0625 1.21875-3.01563 1.29685h-.40624v-1.4062l.375-.01565q2.20312-.09375 2.39062-2.0625zm-1.14062-.65625q.42187 0 .70312-.2031.29688-.2188.45312-.51565v-.6875q0-.85935-.32812-1.32815-.32812-.48435-.875-.48435-.51562 0-.84375.46875-.32813.4531-.32813 1.15625 0 .70315.3125 1.15625.32813.4375.90626.4375z" fill="#01ad96"/><g fill="#000"><path d="m35.978127 70.09341h-3.078127l-.59375 1.76562h-1.859375l3.171875-8.53125h1.625l3.203127 8.53125h-1.875zm-2.609377-1.42188h2.140627l-1.078127-3.1875zm11.390627.07813q0 1.46875-.671877 2.35937-.65625.875-1.796873.875-.953127 0-1.546877-.67187v2.98437h-1.6875v-8.78125h1.5625l.0625.625q.609377-.73437 1.609377-.73437 1.171873 0 1.8125.875.65625.85937.65625 2.375zm-1.6875-.125q0-.89063-.328127-1.35938-.3125-.48437-.90625-.48437-.796873 0-1.09375.60937v2.59375q.3125.625 1.109377.625 1.21875 0 1.21875-1.98437zm5.359373 1.17187 1.171877-4.28125h1.765623l-2.140623 6.34375h-1.609377l-2.140623-6.34375h1.765623zm5.40625 2.0625h-1.703123v-6.34375h1.703123zm-1.796873-7.984373q0-.375.25-.625.265623-.25.703123-.25.421877 0 .671877.25.265623.25.265623.625 0 .390623-.265623.640623-.25.23438-.6875.23438-.421877 0-.6875-.23438-.25-.25-.25-.640623zm5.921873 8.109373q-1.390623 0-2.265623-.85937-.875-.85938-.875-2.28125v-.17188q0-.95312.359373-1.70312.375-.75 1.046877-1.15625.6875-.40625 1.546873-.40625 1.3125 0 2.046877.82812.75.8125.75 2.3125v.6875h-4.03125q.078123.625.484373 1 .421877.375 1.0625.375.96875 0 1.515627-.70312l.84375.92187q-.390627.54688-1.046877.85938-.640623.29687-1.4375.29687zm-.1875-5.21875q-.5 0-.8125.34375-.3125.34375-.40625.96875h2.359377v-.125q-.015627-.5625-.3125-.875-.28125-.3125-.828127-.3125zm4.828127-1.25.0625.73438q.671873-.84375 1.812503-.84375 1.01562 0 1.5.59375.5.57812.51562 1.76562v4.09375h-1.70312v-4.0625q0-.53125-.23438-.76562-.23437-.25-.78125-.25-.703123 0-1.0625.60937v4.46875h-1.703123v-6.34375zm5.187503 3.10938q0-.9375.35937-1.67188.35938-.75 1.04688-1.14062.6875-.40625 1.57812-.40625 1.29688 0 2.09375.78125.8125.78125.90625 2.125l.01563.4375q0 1.46875-.8125 2.35937-.8125.875-2.1875.875-1.375 0-2.1875-.875-.8125-.89062-.8125-2.40625zm1.6875.125q0 .90625.34375 1.39062.34375.46875.96875.46875.625 0 .96875-.46875.34375-.46875.34375-1.51562 0-.875-.34375-1.35938-.34375-.5-.98438-.5-.60937 0-.95312.48438-.34375.48437-.34375 1.5zm7.59375-4.79688v1.5625h1.09375v1.25h-1.09375v3.15625q0 .35938.14062.51563.14063.14062.51563.14062.28125 0 .5-.03125v1.28125q-.5.15625-1.03125.15625-1.78125 0-1.8125-1.8125v-3.40625h-.92188v-1.25h.92188v-1.5625zm5.65625 7.90625q-.125-.23437-.17188-.5625-.60937.6875-1.59375.6875-.9375 0-1.54687-.54687-.60938-.54688-.60938-1.35938 0-1.01562.73438-1.54687.75-.54688 2.17187-.54688h.76563v-.35937q0-.4375-.21875-.70313-.21875-.26562-.71875-.26562-.42188 0-.67188.20312-.23437.20313-.23437.5625h-1.6875q0-.54687.32812-1.01562.34375-.46875.96875-.73438.625-.26562 1.39063-.26562 1.17187 0 1.85937.59375.6875.57812.6875 1.64062v2.75q.01563.90625.25 1.375v.09375zm-1.40625-1.17187q.375 0 .6875-.17188.32812-.17187.46875-.45312v-1.09375h-.625q-1.26563 0-1.35938.89062v.09375q0 .3125.21875.53125.21875.20313.60938.20313zm2.34375-6.375h-4.04688v-.968753h4.04688zm7.17187 4.125-.92187.98437v2.4375h-1.75v-8.53125h1.75v3.85938l.78125-1.04688 2.17187-2.8125h2.15625l-3.03125 3.79688 3.125 4.73437h-2.09375zm8.89063 3.42187q-.125-.23437-.17188-.5625-.60937.6875-1.59375.6875-.9375 0-1.54687-.54687-.60938-.54688-.60938-1.35938 0-1.01562.73438-1.54687.75-.54688 2.17187-.54688h.76563v-.35937q0-.4375-.21875-.70313-.21875-.26562-.71875-.26562-.42188 0-.67188.20312-.23437.20313-.23437.5625h-1.6875q0-.54687.32812-1.01562.34375-.46875.96875-.73438.625-.26562 1.39063-.26562 1.17187 0 1.85937.59375.6875.57812.6875 1.64062v2.75q.01563.90625.25 1.375v.09375zm-1.40625-1.17187q.375 0 .6875-.17188.32812-.17187.46875-.45312v-1.09375h-.625q-1.26563 0-1.35938.89062v.09375q0 .3125.21875.53125.21875.20313.60938.20313zm7.29687-3.57813q-.34375-.04687-.60937-.04687-.96875 0-1.26563.64062v4.15625h-1.6875v-6.34375h1.59375l.04688.76563q.51562-.875 1.40625-.875.28125 0 .53125.07812zm4.10938 4.75q-.125-.23437-.17188-.5625-.60937.6875-1.59375.6875-.9375 0-1.54687-.54687-.60938-.54688-.60938-1.35938 0-1.01562.73438-1.54687.75-.54688 2.17187-.54688h.76563v-.35937q0-.4375-.21875-.70313-.21875-.26562-.71875-.26562-.42188 0-.67188.20312-.23437.20313-.23437.5625h-1.6875q0-.54687.32812-1.01562.34375-.46875.96875-.73438.625-.26562 1.39063-.26562 1.17187 0 1.85937.59375.6875.57812.6875 1.64062v2.75q.01563.90625.25 1.375v.09375zm-1.40625-1.17187q.375 0 .6875-.17188.32812-.17187.46875-.45312v-1.09375h-.625q-1.26563 0-1.35938.89062v.09375q0 .3125.21875.53125.21875.20313.60938.20313zm5.51562 1.17187h-1.70312v-9h1.70312zm3 0h-1.70312v-6.34375h1.70312zm-1.79687-7.984373q0-.375.25-.625.26562-.25.70312-.25.42188 0 .67188.25.26562.25.26562.625 0 .390623-.26562.640623-.25.23438-.6875.23438-.42188 0-.6875-.23438-.25-.25-.25-.640623zm6.4375 6.234373q0-.3125-.3125-.48437-.29688-.1875-.96875-.32813-2.26563-.46875-2.26563-1.92187 0-.84375.6875-1.40625.70313-.5625 1.84375-.5625 1.20313 0 1.92188.5625.73437.5625.73437 1.48437h-1.70312q0-.375-.23438-.60937-.23437-.23438-.73437-.23438-.42188 0-.65625.20313-.23438.1875-.23438.48437 0 .28125.26563.45313.26562.17187.89062.29687.64063.125 1.07813.28125 1.34375.5 1.34375 1.70313 0 .875-.75 1.42187-.73438.53125-1.92188.53125-.79687 0-1.42187-.28125-.60938-.29687-.96875-.78125-.34375-.5-.34375-1.07812h1.60937q.01563.45312.32813.70312.3125.23438.82812.23438.5 0 .73438-.1875.25-.1875.25-.48438zm4.59375-6.15625v1.5625h1.09375v1.25h-1.09375v3.15625q0 .35938.14062.51563.14063.14062.51563.14062.28125 0 .5-.03125v1.28125q-.5.15625-1.03125.15625-1.78125 0-1.8125-1.8125v-3.40625h-.92188v-1.25h.92188v-1.5625zm4.89062 8.03125q-1.39063 0-2.26563-.85937-.87499-.85938-.87499-2.28125v-.17188q0-.95312.35936-1.70312.375-.75 1.04688-1.15625.6875-.40625 1.54688-.40625 1.3125 0 2.04687.82812.75.8125.75 2.3125v.6875h-4.03125q.07812.625.48438 1 .42187.375 1.0625.375.96874 0 1.51562-.70312l.84375.92187q-.39063.54688-1.04687.85938-.64063.29687-1.4375.29687zm-.1875-5.21875q-.5 0-.8125.34375-.3125.34375-.40626.96875h2.35938v-.125q-.01562-.5625-.3125-.875-.28125-.3125-.82812-.3125z"/><path d="m101.16563 128.68723v-8.531255h2.625q1.125 0 2 .515625.89062.5 1.39062 1.4375.5.921875.5 2.125v.390625q0 1.1875-.48437 2.109375-.48438.921875-1.375 1.4375-.89063.51563-2.01563.51563zm1.75-7.10938v5.703125h.85937q1.03125 0 1.5625-.671875.54688-.6875.5625-1.9375v-.453125q0-1.296875-.54687-1.96875-.53125-.671875-1.5625-.671875zm9.8125 7.10938q-.125-.23438-.17188-.5625-.60937.6875-1.59375.6875-.9375 0-1.54687-.54688-.60938-.546875-.60938-1.359375 0-1.015625.73438-1.546875.75-.546875 2.17187-.546875h.76563v-.359375q0-.4375-.21875-.703125-.21875-.265625-.71875-.265625-.42188 0-.67188.203125-.23437.203125-.23437.5625h-1.6875q0-.546875.32812-1.015625.34375-.46875.96875-.734375.625-.265625 1.39063-.265625 1.17187 0 1.85937.59375.6875.578125.6875 1.640625v2.75q.01563.906255.25 1.375005v.09375zm-1.40625-1.17188q.375 0 .6875-.171875.32812-.171875.46875-.453125v-1.09375h-.625q-1.26563 0-1.35938.890625v.09375q0 .3125.21875.53125.21875.203125.60938.203125zm2.34375-6.375h-4.04688v-.96875h4.04688zm2.9375 1.203125.0625.734375q.67187-.84375 1.8125-.84375 1.01562 0 1.5.59375.5.578125.51562 1.765625v4.093755h-1.70312v-4.062505q0-.53125-.23438-.765625-.23437-.25-.78125-.25-.70312 0-1.0625.609375v4.468755h-1.70312v-6.343755zm7.23437 6.343755h-1.70312v-6.343755h1.70312zm-1.79687-7.98438q0-.375.25-.625.26562-.25.70312-.25.42188 0 .67188.25.26562.25.26562.625 0 .390625-.26562.640625-.25.234375-.6875.234375-.42188 0-.6875-.234375-.25-.25-.25-.640625zm4.79687 1.640625v6.687505q0 1.04687-.5625 1.625-.54687.59375-1.59375.59375-.4375 0-.84375-.09375v-1.34375q.3125.04687.53125.04687.78125 0 .78125-.8125v-6.703125zm-1.82812-1.640625q0-.375.25-.625.26562-.25.70312-.25.4375 0 .6875.25.26563.25.26563.625 0 .390625-.26563.640625-.26562.234375-.70312.234375-.42188 0-.6875-.234375-.25-.25-.25-.640625zm6.71874 7.98438q-.125-.23438-.17188-.5625-.60937.6875-1.59374.6875-.9375 0-1.54688-.54688-.60937-.546875-.60937-1.359375 0-1.015625.73437-1.546875.75-.546875 2.17188-.546875h.76562v-.359375q0-.4375-.21875-.703125-.21875-.265625-.71875-.265625-.42188 0-.67188.203125-.23437.203125-.23437.5625h-1.68749q0-.546875.32812-1.015625.34374-.46875.96874-.734375.625-.265625 1.39063-.265625 1.17187 0 1.85937.59375.6875.578125.6875 1.640625v2.75q.01563.906255.25 1.375005v.09375zm-1.40625-1.17188q.375 0 .6875-.171875.32813-.171875.46875-.453125v-1.09375h-.625q-1.26562 0-1.35938.890625v.09375q0 .3125.21876.53125.21874.203125.60937.203125z"/><path d="m91.025 184.10916h4.29688v1.40625h-6.5v-1.03125l4.21875-6.07812h-4.20313v-1.42188h6.39063v1zm7.40625-.65625 1.17188-4.28125h1.76562l-2.14062 6.34375h-1.60938l-2.14062-6.34375h1.76562zm5.40625 2.0625h-1.70312v-6.34375h1.70312zm-1.79687-7.98437q0-.375.25-.625.26562-.25.70312-.25.42188 0 .67188.25.26562.25.26562.625 0 .39062-.26562.64062-.25.23438-.6875.23438-.42188 0-.6875-.23438-.25-.25-.25-.64062zm5.92187 8.10937q-1.39062 0-2.26562-.85937-.875-.85938-.875-2.28125v-.17188q0-.95312.35937-1.70312.375-.75 1.04688-1.15625.6875-.40625 1.54687-.40625 1.3125 0 2.04688.82812.75.8125.75 2.3125v.6875h-4.03125q.07812.625.48437 1 .42188.375 1.0625.375.96875 0 1.51563-.70312l.84375.92187q-.39063.54688-1.04688.85938-.64062.29687-1.4375.29687zm-.1875-5.21875q-.5 0-.8125.34375-.3125.34375-.40625.96875h2.35938v-.125q-.01563-.5625-.3125-.875-.28125-.3125-.82813-.3125zm3.01563 1.875q0-1.48437.65625-2.35937.67187-.875 1.82812-.875.92188 0 1.53125.6875v-3.23438h1.6875v9h-1.51562l-.09375-.67187q-.625.79687-1.625.79687-1.125 0-1.79688-.875-.67187-.89062-.67187-2.46875zm1.6875.125q0 .89063.3125 1.375.3125.46875.90625.46875.78125 0 1.10937-.67187v-2.5q-.32812-.65625-1.09375-.65625-1.23437 0-1.23437 1.98437zm9.14062-1.65625q-.34375-.04687-.60937-.04687-.96875 0-1.26563.64062v4.15625h-1.6875v-6.34375h1.59375l.04688.76563q.51562-.875 1.40625-.875.28125 0 .53125.07812zm2.21875 4.75h-1.70312v-6.34375h1.70312zm-1.79687-7.98437q0-.375.25-.625.26562-.25.70312-.25.42188 0 .67188.25.26562.25.26562.625 0 .39062-.26562.64062-.25.23438-.6875.23438-.42188 0-.6875-.23438-.25-.25-.25-.64062zm4.79687 1.64062v6.6875q0 1.04688-.5625 1.625-.54687.59375-1.59375.59375-.4375 0-.84375-.09375v-1.34375q.3125.04688.53125.04688.78125 0 .78125-.8125v-6.70313zm-1.82812-1.64062q0-.375.25-.625.26562-.25.70312-.25.4375 0 .6875.25.26563.25.26563.625 0 .39062-.26563.64062-.26562.23438-.70312.23438-.42188 0-.6875-.23438-.25-.25-.25-.64062zm6.71874 7.98437q-.125-.23437-.17188-.5625-.60937.6875-1.59374.6875-.9375 0-1.54688-.54687-.60937-.54688-.60937-1.35938 0-1.01562.73437-1.54687.75-.54688 2.17188-.54688h.76562v-.35937q0-.4375-.21875-.70313-.21875-.26562-.71875-.26562-.42188 0-.67188.20312-.23437.20313-.23437.5625h-1.68749q0-.54687.32812-1.01562.34374-.46875.96874-.73438.625-.26562 1.39063-.26562 1.17187 0 1.85937.59375.6875.57812.6875 1.64062v2.75q.01563.90625.25 1.375v.09375zm-1.40625-1.17187q.375 0 .6875-.17188.32813-.17187.46875-.45312v-1.09375h-.625q-1.26562 0-1.35938.89062v.09375q0 .3125.21876.53125.21874.20313.60937.20313z"/><path d="m102.5875 240.10924q0-.5-.35937-.76563-.34375-.26562-1.26563-.5625-.90625-.29687-1.4375-.59375-1.45312-.78125-1.45312-2.10937 0-.6875.39062-1.23438.39063-.54687 1.10938-.84375.73437-.3125 1.64062-.3125.92188 0 1.625.34375.71875.32813 1.10938.9375.40625.59375.40625 1.35938h-1.76563q0-.57813-.375-.90625-.35937-.32813-1.03125-.32813-.64062 0-1 .28125-.35937.26563-.35937.70313 0 .42187.42187.70312.42188.28125 1.23438.53125 1.5.45313 2.1875 1.125.6875.65625.6875 1.65625 0 1.10938-.84375 1.75-.82813.625-2.25.625-.98438 0-1.79688-.35937-.8125-.375-1.23437-1-.42188-.625-.42188-1.45313h1.76563q0 1.42188 1.6875 1.42188.625 0 .96875-.25.35937-.26563.35937-.71875zm2.20313-1q0-.9375.35937-1.67188.35938-.75 1.04688-1.14062.6875-.40625 1.57812-.40625 1.29688 0 2.09375.78125.8125.78125.90625 2.125l.01563.4375q0 1.46875-.8125 2.35937-.8125.875-2.1875.875-1.375 0-2.1875-.875-.8125-.89062-.8125-2.40625zm1.6875.125q0 .90625.34375 1.39062.34375.46875.96875.46875.625 0 .96875-.46875.34375-.46875.34375-1.51562 0-.875-.34375-1.35938-.34375-.5-.98438-.5-.60937 0-.95312.48438-.34375.48437-.34375 1.5zm7.15625-3.23438.0625.71875q.67187-.82812 1.8125-.82812 1.23437 0 1.6875.96875.67187-.96875 1.90625-.96875 1.03125 0 1.53125.60937.5.59375.5 1.79688v4.04687h-1.6875v-4.04687q0-.53125-.21875-.78125-.20313-.25-.75-.25-.75 0-1.04688.71875v4.35937h-1.6875v-4.03125q0-.5625-.21875-.79687-.21875-.25-.73437-.25-.71875 0-1.04688.59375v4.48437h-1.6875v-6.34375zm10.20312 6.34375h-1.70312v-6.34375h1.70312zm-1.79687-7.98437q0-.375.25-.625.26562-.25.70312-.25.42188 0 .67188.25.26562.25.26562.625 0 .39062-.26562.64062-.25.23438-.6875.23438-.42188 0-.6875-.23438-.25-.25-.25-.64062zm4.79687 1.64062v6.6875q0 1.04688-.5625 1.625-.54687.59375-1.59375.59375-.4375 0-.84375-.09375v-1.34375q.3125.04688.53125.04688.78125 0 .78125-.8125v-6.70313zm-1.82812-1.64062q0-.375.25-.625.26562-.25.70312-.25.4375 0 .6875.25.26563.25.26563.625 0 .39062-.26563.64062-.26562.23438-.70312.23438-.42188 0-.6875-.23438-.25-.25-.25-.64062zm6.71874 7.98437q-.125-.23437-.17188-.5625-.60937.6875-1.59374.6875-.9375 0-1.54688-.54687-.60937-.54688-.60937-1.35938 0-1.01562.73437-1.54687.75-.54688 2.17188-.54688h.76562v-.35937q0-.4375-.21875-.70313-.21875-.26562-.71875-.26562-.42188 0-.67188.20312-.23437.20313-.23437.5625h-1.68749q0-.54687.32812-1.01562.34374-.46875.96874-.73438.625-.26562 1.39063-.26562 1.17187 0 1.85937.59375.6875.57812.6875 1.64062v2.75q.01563.90625.25 1.375v.09375zm-1.40625-1.17187q.375 0 .6875-.17188.32813-.17187.46875-.45312v-1.09375h-.625q-1.26562 0-1.35938.89062v.09375q0 .3125.21876.53125.21874.20313.60937.20313z"/><path d="m84.10313 299.1718h-1.76563l-3.42187-5.60936v5.60936h-1.75v-8.53124h1.75l3.4375 5.625v-5.625h1.75zm2.78125 0h-1.70313v-6.34374h1.70313zm1.20312-7.4531h-4.04687v-.96876h4.04687zm-.29687 4.23436q0-1.48436.65625-2.35936.67187-.875 1.82812-.875.92188 0 1.53125.6875v-3.2344h1.6875v9h-1.51562l-.09375-.67186q-.625.79686-1.625.79686-1.125 0-1.79688-.875-.67187-.8906-.67187-2.46874zm1.6875.125q0 .89064.3125 1.375.3125.46874.90625.46874.78125 0 1.10937-.67186v-2.5q-.32812-.65624-1.09375-.65624-1.23437 0-1.23437 1.98436zm8.48437 3.21874q-1.39062 0-2.26562-.85936-.875-.85938-.875-2.28124v-.1719q0-.9531.35937-1.7031.375-.75 1.04688-1.15626.6875-.40624 1.54687-.40624 1.3125 0 2.04688.8281.75.8125.75 2.3125v.6875h-4.03125q.07812.625.48437 1 .42188.375 1.0625.375.96875 0 1.51563-.7031l.84375.92186q-.39063.54688-1.04688.85938-.64062.29686-1.4375.29686zm-.1875-5.21874q-.5 0-.8125.34374-.3125.34376-.40625.96876h2.35938v-.125q-.01563-.5625-.3125-.875-.28125-.3125-.82813-.3125zm6.84375.34374q-.34375-.04686-.60937-.04686-.96875 0-1.26563.64062v4.15624h-1.6875v-6.34374h1.59375l.04688.76564q.51562-.875 1.40625-.875.28125 0 .53125.0781zm2.21875 4.75h-1.70312v-9h1.70312zm4.89063 0q-.125-.23436-.17188-.5625-.60937.6875-1.59375.6875-.9375 0-1.54687-.54686-.60938-.54688-.60938-1.35938 0-1.01562.73438-1.54686.75-.5469 2.17187-.5469h.76563v-.35936q0-.4375-.21875-.70314-.21875-.2656-.71875-.2656-.42188 0-.67188.2031-.23437.20314-.23437.5625h-1.6875q0-.54686.32812-1.0156.34375-.46876.96875-.7344.625-.2656 1.39063-.2656 1.17187 0 1.85937.59374.6875.57812.6875 1.64062v2.75q.01563.90624.25 1.375v.09374zm-1.40625-1.17186q.375 0 .6875-.17188.32812-.17186.46875-.45312v-1.09374h-.625q-1.26563 0-1.35938.8906v.09376q0 .3125.21875.53124.21875.20314.60938.20314zm5.28125-5.17188.0625.73438q.67187-.84374 1.8125-.84374 1.01562 0 1.5.59374.5.57812.51562 1.76562v4.09374h-1.70312v-4.0625q0-.53124-.23438-.7656-.23437-.25-.78125-.25-.70312 0-1.0625.60936v4.46874h-1.70312v-6.34374zm5.1875 3.125q0-1.48436.65625-2.35936.67187-.875 1.82812-.875.92188 0 1.53125.6875v-3.2344h1.6875v9h-1.51562l-.09375-.67186q-.625.79686-1.625.79686-1.125 0-1.79688-.875-.67187-.8906-.67187-2.46874zm1.6875.125q0 .89064.3125 1.375.3125.46874.90625.46874.78125 0 1.10937-.67186v-2.5q-.32812-.65624-1.09375-.65624-1.23437 0-1.23437 1.98436zm8.48437 3.21874q-1.39063 0-2.26563-.85936-.87499-.85938-.87499-2.28124v-.1719q0-.9531.35936-1.7031.375-.75 1.04688-1.15626.6875-.40624 1.54688-.40624 1.3125 0 2.04687.8281.75.8125.75 2.3125v.6875h-4.03125q.07812.625.48438 1 .42187.375 1.0625.375.96874 0 1.51562-.7031l.84375.92186q-.39063.54688-1.04687.85938-.64063.29686-1.4375.29686zm-.1875-5.21874q-.5 0-.8125.34374-.3125.34376-.40626.96876h2.35938v-.125q-.01562-.5625-.3125-.875-.28125-.3125-.82812-.3125z"/><path d="m107.025 356h-1.75v-8.53125h1.75zm4.04688-7.90625v1.5625h1.09375v1.25h-1.09375v3.15625q0 .35938.14062.51562.14063.14063.51563.14063.28125 0 .5-.03125v1.28125q-.5.15625-1.03125.15625-1.78125 0-1.8125-1.8125v-3.40625h-.92188v-1.25h.92188v-1.5625zm5.65625 7.90625q-.125-.23438-.17188-.5625-.60937.6875-1.59375.6875-.9375 0-1.54687-.54688-.60938-.54687-.60938-1.35937 0-1.01563.73438-1.54687.75-.54688 2.17187-.54688h.76563v-.35938q0-.4375-.21875-.70312-.21875-.26562-.71875-.26562-.42188 0-.67188.20312-.23437.20312-.23437.5625h-1.6875q0-.54688.32812-1.01562.34375-.46876.96875-.73438.625-.26562 1.39063-.26562 1.17187 0 1.85937.59374.6875.57813.6875 1.64063v2.75q.01563.90625.25 1.375v.09375zm-1.40625-1.17188q.375 0 .6875-.17187.32812-.17187.46875-.45313v-1.09374h-.625q-1.26563 0-1.35938.89062v.09375q0 .3125.21875.53125.21875.20312.60938.20312zm2.34375-6.375h-4.04688v-.96874h4.04688zm3.17187 7.54688h-1.70312v-9h1.70312zm3 0h-1.70312v-6.34375h1.70312zm-1.79687-7.98438q0-.375.25-.625.26562-.25.70312-.25.42188 0 .67188.25.26562.25.26562.625 0 .39063-.26562.64063-.25.23437-.6875.23437-.42188 0-.6875-.23437-.25-.25-.25-.64063zm4.79687 1.64063v6.6875q0 1.04687-.5625 1.625-.54687.59375-1.59375.59375-.4375 0-.84375-.09375v-1.34375q.3125.04688.53125.04688.78125 0 .78125-.8125v-6.70313zm-1.82812-1.64063q0-.375.25-.625.26562-.25.70312-.25.4375 0 .6875.25.26563.25.26563.625 0 .39063-.26563.64063-.26562.23437-.70312.23437-.42188 0-.6875-.23437-.25-.25-.25-.64063zm6.71874 7.98438q-.125-.23438-.17188-.5625-.60937.6875-1.59374.6875-.9375 0-1.54688-.54688-.60937-.54687-.60937-1.35937 0-1.01563.73437-1.54687.75-.54688 2.17188-.54688h.76562v-.35938q0-.4375-.21875-.70312-.21875-.26562-.71875-.26562-.42188 0-.67188.20312-.23437.20312-.23437.5625h-1.68749q0-.54688.32812-1.01562.34374-.46876.96874-.73438.625-.26562 1.39063-.26562 1.17187 0 1.85937.59374.6875.57813.6875 1.64063v2.75q.01563.90625.25 1.375v.09375zm-1.40625-1.17188q.375 0 .6875-.17187.32813-.17187.46875-.45313v-1.09374h-.625q-1.26562 0-1.35938.89062v.09375q0 .3125.21876.53125.21874.20312.60937.20312z"/><path d="m93.025 412.8282h-1.75v-8.53126h1.75zm1.78125-3.21876q0-1.45314.6875-2.34374.70313-.89064 1.875-.89064 1.04688 0 1.625.70314l.07813-.59376h1.53125v6.125q0 .84376-.39063 1.45312-.375.625-1.0625.9375-.67187.32814-1.59375.32814-.70312 0-1.375-.28126-.65625-.28124-.98437-.71874l.75-1.03126q.625.70312 1.53125.70312.67187 0 1.04687-.35936.375-.3594.375-1.01564v-.34376q-.57812.6719-1.54687.6719-1.14063 0-1.84375-.89064-.70313-.90626-.70313-2.375zm1.6875.125q0 .85936.34375 1.35936.35938.4844.95313.4844.78125 0 1.10937-.57814v-2.67186q-.34375-.57814-1.09375-.57814-.60937 0-.96875.5-.34375.5-.34375 1.48438zm9.23438 3.09376q-.125-.2344-.17188-.5625-.60937.6875-1.59375.6875-.9375 0-1.54687-.5469-.60938-.54686-.60938-1.35936 0-1.01564.73438-1.54688.75-.54686 2.17187-.54686h.76563v-.3594q0-.4375-.21875-.7031-.21875-.26564-.71875-.26564-.42188 0-.67188.20314-.23437.2031-.23437.5625h-1.6875q0-.5469.32812-1.01564.34375-.46876.96875-.73436.625-.26564 1.39063-.26564 1.17187 0 1.85937.59374.6875.57814.6875 1.64064v2.75q.01563.90626.25 1.375v.09376zm-1.40625-1.1719q.375 0 .6875-.17186.32812-.17188.46875-.45314v-1.09374h-.625q-1.26563 0-1.35938.89064v.09374q0 .3125.21875.53126.21875.2031.60938.2031zm7.53125.53126q-.625.76564-1.73438.76564-1.03125 0-1.5625-.59376-.53125-.59374-.54687-1.71874v-4.15626h1.6875v4.09376q0 1 .90625 1 .85937 0 1.1875-.6094v-4.48436h1.70312v6.34376h-1.59375zm4.75-5.70312.0625.73436q.67187-.84374 1.8125-.84374 1.01562 0 1.5.59374.5.57814.51562 1.76564v4.09376h-1.70312v-4.0625q0-.53126-.23438-.76564-.23437-.25-.78125-.25-.70312 0-1.0625.60938v4.46876h-1.70312v-6.34376zm7.23437 6.34376h-1.70312v-6.34376h1.70312zm-1.79687-7.9844q0-.375.25-.625.26562-.25.70312-.25.42188 0 .67188.25.26562.25.26562.625 0 .39064-.26562.64064-.25.23436-.6875.23436-.42188 0-.6875-.23436-.25-.25-.25-.64064zm4.79687 1.64064v6.6875q0 1.04686-.5625 1.625-.54687.59376-1.59375.59376-.4375 0-.84375-.09376v-1.34374q.3125.04686.53125.04686.78125 0 .78125-.8125v-6.70312zm-1.82812-1.64064q0-.375.25-.625.26562-.25.70312-.25.4375 0 .6875.25.26563.25.26563.625 0 .39064-.26563.64064-.26562.23436-.70312.23436-.42188 0-.6875-.23436-.25-.25-.25-.64064zm6.71874 7.9844q-.125-.2344-.17188-.5625-.60937.6875-1.59374.6875-.9375 0-1.54688-.5469-.60937-.54686-.60937-1.35936 0-1.01564.73437-1.54688.75-.54686 2.17188-.54686h.76562v-.3594q0-.4375-.21875-.7031-.21875-.26564-.71875-.26564-.42188 0-.67188.20314-.23437.2031-.23437.5625h-1.68749q0-.5469.32812-1.01564.34374-.46876.96874-.73436.625-.26564 1.39063-.26564 1.17187 0 1.85937.59374.6875.57814.6875 1.64064v2.75q.01563.90626.25 1.375v.09376zm-1.40625-1.1719q.375 0 .6875-.17186.32813-.17188.46875-.45314v-1.09374h-.625q-1.26562 0-1.35938.89064v.09374q0 .3125.21876.53126.21874.2031.60937.2031z"/><path d="m96.91563 468.25015h3.73437v1.40625h-5.48437v-8.53125h1.75zm6.92187 1.40625h-1.70312v-6.34375h1.70312zm-1.79687-7.98437q0-.375.25-.625.26562-.25.70312-.25.42188 0 .67188.25.26562.25.26562.625 0 .39062-.26562.64062-.25.23438-.6875.23438-.42188 0-.6875-.23438-.25-.25-.25-.64062zm5.92187 8.10937q-1.39062 0-2.26562-.85937-.875-.85938-.875-2.28125v-.17188q0-.95312.35937-1.70312.375-.75 1.04688-1.15625.6875-.40625 1.54687-.40625 1.3125 0 2.04688.82812.75.8125.75 2.3125v.6875h-4.03125q.07812.625.48437 1 .42188.375 1.0625.375.96875 0 1.51563-.70312l.84375.92187q-.39063.54688-1.04688.85938-.64062.29687-1.4375.29687zm-.1875-5.21875q-.5 0-.8125.34375-.3125.34375-.40625.96875h2.35938v-.125q-.01563-.5625-.3125-.875-.28125-.3125-.82813-.3125zm5.29688-2.8125v1.5625h1.09375v1.25h-1.09375v3.15625q0 .35938.14062.51563.14063.14062.51563.14062.28125 0 .5-.03125v1.28125q-.5.15625-1.03125.15625-1.78125 0-1.8125-1.8125v-3.40625h-.92188v-1.25h.92188v-1.5625zm5.78125 7.26563q-.625.76562-1.73438.76562-1.03125 0-1.5625-.59375-.53125-.59375-.54687-1.71875v-4.15625h1.6875v4.09375q0 1 .90625 1 .85937 0 1.1875-.60937v-4.48438h1.70312v6.34375h-1.59375zm5.57812-1.42188 1.17188-4.28125h1.76562l-2.14062 6.34375h-1.60938l-2.14062-6.34375h1.76562zm7.29687 2.0625q-.125-.23437-.17188-.5625-.60937.6875-1.59374.6875-.9375 0-1.54688-.54687-.60937-.54688-.60937-1.35938 0-1.01562.73437-1.54687.75-.54688 2.17188-.54688h.76562v-.35937q0-.4375-.21875-.70313-.21875-.26562-.71875-.26562-.42188 0-.67188.20312-.23437.20313-.23437.5625h-1.68749q0-.54687.32812-1.01562.34374-.46875.96874-.73438.625-.26562 1.39063-.26562 1.17187 0 1.85937.59375.6875.57812.6875 1.64062v2.75q.01563.90625.25 1.375v.09375zm-1.40625-1.17187q.375 0 .6875-.17188.32813-.17187.46875-.45312v-1.09375h-.625q-1.26562 0-1.35938.89062v.09375q0 .3125.21876.53125.21874.20313.60937.20313z"/><path d="m89.97813 517.21893h-3.07813l-.59375 1.76563h-1.85937l3.17187-8.53126h1.625l3.20313 8.53126h-1.875zm-2.60938-1.42187h2.14063l-1.07813-3.1875zm7.26563-3.15626.0625.71876q.67187-.82813 1.8125-.82813 1.23437 0 1.6875.96877.67187-.96877 1.90625-.96877 1.03125 0 1.53125.60937.5.59376.5 1.7969v4.04686h-1.6875v-4.04686q0-.53127-.21875-.78127-.20313-.25-.75-.25-.75 0-1.04688.71877v4.35936h-1.6875v-4.03126q0-.5625-.21875-.79687-.21875-.25-.73437-.25-.71875 0-1.04688.59377v4.48436h-1.6875v-6.34376zm11.32812 6.46876q-1.39062 0-2.26562-.85936-.875-.8594-.875-2.28127v-.17187q0-.95313.35937-1.70313.375-.75 1.04688-1.15623.6875-.40627 1.54687-.40627 1.3125 0 2.04688.82813.75.8125.75 2.3125v.6875h-4.03125q.07812.625.48437 1 .42188.375 1.0625.375.96875 0 1.51563-.70313l.84375.92187q-.39063.5469-1.04688.8594-.64062.29686-1.4375.29686zm-.1875-5.21876q-.5 0-.8125.34376-.3125.34374-.40625.96874h2.35938v-.125q-.01563-.5625-.3125-.875-.28125-.3125-.82813-.3125zm6.84375.34376q-.34375-.04686-.60937-.04686-.96875 0-1.26563.6406v4.15626h-1.6875v-6.34376h1.59375l.04688.76563q.51562-.875 1.40625-.875.28125 0 .53125.07813zm2.21875 4.75h-1.70312v-6.34376h1.70312zm-1.79687-7.98438q0-.375.25-.625.26562-.25.70312-.25.42188 0 .67188.25.26562.25.26562.625 0 .39062-.26562.64062-.25.23438-.6875.23438-.42188 0-.6875-.23438-.25-.25-.25-.64062zm5.3125 5.43752-.60938.60936v1.9375h-1.6875v-9h1.6875v4.98437l.32813-.42187 1.625-1.90626h2.03125l-2.29688 2.64063 2.5 3.70313h-1.95312zm7.375 2.54686q-.125-.23436-.17188-.5625-.60937.6875-1.59375.6875-.9375 0-1.54687-.54686-.60938-.5469-.60938-1.3594 0-1.0156.73438-1.54687.75-.54687 2.17187-.54687h.76563v-.35936q0-.4375-.21875-.70314-.21875-.26563-.71875-.26563-.42188 0-.67188.20313-.23437.20314-.23437.5625h-1.6875q0-.54686.32812-1.01563.34375-.46873.96875-.73437.625-.26563 1.39063-.26563 1.17187 0 1.85937.59377.6875.5781.6875 1.6406v2.75q.01563.90626.25 1.375v.09376zm-1.40625-1.17186q.375 0 .6875-.1719.32812-.17187.46875-.4531v-1.09377h-.625q-1.26563 0-1.35938.89063v.09374q0 .3125.21875.53126.21875.20314.60938.20314zm7.15624-.57814q0-.3125-.3125-.48436-.29688-.1875-.96875-.32814-2.26562-.46876-2.26562-1.92186 0-.84377.68749-1.40627.70313-.5625 1.84376-.5625 1.20312 0 1.92187.5625.73437.5625.73437 1.48437h-1.70312q0-.375-.23438-.60937-.23437-.23437-.73437-.23437-.42187 0-.65625.20314-.23438.1875-.23438.48436 0 .28124.26563.45314.26563.17186.89063.29686.64062.125 1.07812.28124 1.34375.5 1.34375 1.70313 0 .875-.75 1.42187-.73437.53126-1.92187.53126-.79688 0-1.42188-.28126-.60938-.29687-.96875-.78124-.34374-.5-.34374-1.07813h1.60937q.01562.45313.32812.70313.3125.23437.82812.23437.5 0 .73438-.1875.25-.1875.25-.48437z"/><path d="m41.5875 531.7502q0-.5-.359373-.76564-.34375-.26563-1.265627-.5625-.90625-.29686-1.4375-.59376-1.453123-.78124-1.453123-2.10937 0-.6875.390623-1.23437.390627-.54686 1.109377-.84376.734373-.3125 1.640623-.3125.921877 0 1.625.34376.71875.32814 1.109377.9375.40625.59374.40625 1.35937h-1.765627q0-.57813-.375-.90623-.359373-.32814-1.03125-.32814-.640623 0-1 .28124-.359373.26563-.359373.70313 0 .42187.421873.70313.421877.28124 1.234377.53124 1.5.45313 2.1875 1.125.6875.65626.6875 1.65626 0 1.10937-.84375 1.75-.828127.625-2.25.625-.984377 0-1.796877-.35936-.8125-.375-1.234373-1-.421877-.625-.421877-1.45314h1.765627q0 1.42187 1.6875 1.42187.625 0 .96875-.25.359373-.26563.359373-.71873zm6.140627 2.23436q-.125-.23436-.171877-.5625-.609373.6875-1.59375.6875-.9375 0-1.546873-.54686-.609377-.5469-.609377-1.3594 0-1.0156.734377-1.54687.75-.54687 2.171873-.54687h.765627v-.35936q0-.4375-.21875-.70314-.21875-.26563-.71875-.26563-.421877 0-.671877.20313-.234373.20314-.234373.5625h-1.6875q0-.54686.328123-1.01563.34375-.46873.96875-.73437.625-.26563 1.390627-.26563 1.171873 0 1.859373.59377.6875.5781.6875 1.6406v2.75q.015627.90626.25 1.375v.09376zm-1.40625-1.17186q.375 0 .6875-.1719.328123-.17187.46875-.4531v-1.09377h-.625q-1.265627 0-1.359377.89063v.09374q0 .3125.21875.53126.21875.20314.609377.20314zm6.109373-.89064 1.171877-4.28126h1.765623l-2.140623 6.34376h-1.609377l-2.140623-6.34376h1.765623zm5.40625 2.0625h-1.703123v-6.34376h1.703123zm-1.796873-7.98436q0-.375.25-.625.265623-.25.703123-.25.421877 0 .671877.25.265623.25.265623.625 0 .3906-.265623.6406-.25.2344-.6875.2344-.421877 0-.6875-.2344-.25-.25-.25-.6406zm5.921873 8.10936q-1.390623 0-2.265623-.85936-.875-.8594-.875-2.28127v-.17187q0-.95313.359373-1.70313.375-.75 1.046877-1.15623.6875-.40627 1.546873-.40627 1.3125 0 2.046877.82813.750003.8125.750003 2.3125v.6875h-4.031253q.078123.625.484373 1 .421877.375 1.0625.375.96875 0 1.515627-.70313l.843753.92187q-.39063.5469-1.04688.8594-.640623.29686-1.4375.29686zm-.1875-5.21876q-.5 0-.8125.34376-.3125.34374-.40625.96874h2.359377v-.125q-.015627-.5625-.3125-.875-.28125-.3125-.828127-.3125zm4.82813-1.25.0625.7344q.67187-.84377 1.8125-.84377 1.01562 0 1.5.59377.5.5781.51562 1.7656v4.09376h-1.70312v-4.0625q0-.53126-.23438-.76563-.23437-.25-.78125-.25-.70312 0-1.0625.60937v4.46876h-1.70312v-6.34376zm5.1875 3.1094q0-.9375.35937-1.6719.35938-.75 1.04688-1.1406.6875-.40627 1.57812-.40627 1.29688 0 2.09375.78127.8125.78123.90625 2.125l.01563.4375q0 1.46873-.8125 2.35936-.8125.875-2.1875.875-1.375 0-2.1875-.875-.8125-.89063-.8125-2.40626zm1.6875.125q0 .90623.34375 1.3906.34375.46876.96875.46876.625 0 .96875-.46876.34375-.46874.34375-1.5156 0-.875-.34375-1.3594-.34375-.5-.98438-.5-.60937 0-.95312.4844-.34375.48436-.34375 1.5zm7.59375-4.7969v1.5625h1.09375v1.25h-1.09375v3.15626q0 .35937.14062.51564.14063.1406.51563.1406.28125 0 .5-.03124v1.28124q-.5.15626-1.03125.15626-1.78125 0-1.8125-1.8125v-3.40626h-.92188v-1.25h.92188v-1.5625zm5.65625 7.90626q-.125-.23436-.17188-.5625-.60937.6875-1.59375.6875-.9375 0-1.54687-.54686-.60938-.5469-.60938-1.3594 0-1.0156.73438-1.54687.75-.54687 2.17187-.54687h.76563v-.35936q0-.4375-.21875-.70314-.21875-.26563-.71875-.26563-.42188 0-.67188.20313-.23437.20314-.23437.5625h-1.6875q0-.54686.32812-1.01563.34375-.46873.96875-.73437.625-.26563 1.39063-.26563 1.17187 0 1.85937.59377.6875.5781.6875 1.6406v2.75q.01563.90626.25 1.375v.09376zm-1.40625-1.17186q.375 0 .6875-.1719.32812-.17187.46875-.4531v-1.09377h-.625q-1.26563 0-1.35938.89063v.09374q0 .3125.21875.53126.21875.20314.60938.20314zm2.34375-6.375h-4.04688v-.96877h4.04688zm4.8125 5.79686q0-.3125-.3125-.48436-.29688-.1875-.96875-.32814-2.26563-.46876-2.26563-1.92186 0-.84377.6875-1.40627.70313-.5625 1.84375-.5625 1.20313 0 1.92188.5625.73437.5625.73437 1.48437h-1.70312q0-.375-.23438-.60937-.23437-.23437-.73437-.23437-.42188 0-.65625.20314-.23438.1875-.23438.48436 0 .28124.26563.45314.26562.17186.89062.29686.64063.125 1.07813.28124 1.34375.5 1.34375 1.70313 0 .875-.75 1.42187-.73438.53126-1.92188.53126-.79687 0-1.42187-.28126-.60938-.29687-.96875-.78124-.34375-.5-.34375-1.07813h1.60937q.01563.45313.32813.70313.3125.23437.82812.23437.5 0 .73438-.1875.25-.1875.25-.48437zm8.84375-.35936 1.92187-6.4219h1.96875l-2.98437 8.53126h-1.82813l-2.95312-8.53126h1.95312zm8.40625 2.10936q-.125-.23436-.17188-.5625-.60937.6875-1.59375.6875-.9375 0-1.54687-.54686-.60938-.5469-.60938-1.3594 0-1.0156.73438-1.54687.75-.54687 2.17187-.54687h.76563v-.35936q0-.4375-.21875-.70314-.21875-.26563-.71875-.26563-.42188 0-.67188.20313-.23437.20314-.23437.5625h-1.6875q0-.54686.32812-1.01563.34375-.46873.96875-.73437.625-.26563 1.39063-.26563 1.17187 0 1.85937.59377.6875.5781.6875 1.6406v2.75q.01563.90626.25 1.375v.09376zm-1.40625-1.17186q.375 0 .6875-.1719.32812-.17187.46875-.4531v-1.09377h-.625q-1.26563 0-1.35938.89063v.09374q0 .3125.21875.53126.21875.20314.60938.20314zm5.51562 1.17186h-1.70312v-9h1.70312zm4.64063-1.75q0-.3125-.3125-.48436-.29688-.1875-.96875-.32814-2.26563-.46876-2.26563-1.92186 0-.84377.6875-1.40627.70313-.5625 1.84375-.5625 1.20313 0 1.92188.5625.73437.5625.73437 1.48437h-1.70312q0-.375-.23438-.60937-.23437-.23437-.73437-.23437-.42188 0-.65625.20314-.23438.1875-.23438.48436 0 .28124.26563.45314.26562.17186.89062.29686.64063.125 1.07813.28124 1.34375.5 1.34375 1.70313 0 .875-.75 1.42187-.73438.53126-1.92188.53126-.79687 0-1.42187-.28126-.60938-.29687-.96875-.78124-.34375-.5-.34375-1.07813h1.60937q.01563.45313.32813.70313.3125.23437.82812.23437.5 0 .73438-.1875.25-.1875.25-.48437zm4.59375-6.15626v1.5625h1.09375v1.25h-1.09375v3.15626q0 .35937.14062.51564.14063.1406.51563.1406.28125 0 .5-.03124v1.28124q-.5.15626-1.03125.15626-1.78125 0-1.8125-1.8125v-3.40626h-.92188v-1.25h.92188v-1.5625zm3.76562 7.90626h-1.70312v-6.34376h1.70312zm-1.79687-7.98436q0-.375.25-.625.26562-.25.70312-.25.42188 0 .67188.25.26562.25.26562.625 0 .3906-.26562.6406-.25.2344-.6875.2344-.42188 0-.6875-.2344-.25-.25-.25-.6406zm6.43749 6.23436q0-.3125-.3125-.48436-.29688-.1875-.96875-.32814-2.26562-.46876-2.26562-1.92186 0-.84377.68749-1.40627.70313-.5625 1.84376-.5625 1.20312 0 1.92187.5625.73437.5625.73437 1.48437h-1.70312q0-.375-.23438-.60937-.23437-.23437-.73437-.23437-.42187 0-.65625.20314-.23438.1875-.23438.48436 0 .28124.26563.45314.26563.17186.89063.29686.64062.125 1.07812.28124 1.34375.5 1.34375 1.70313 0 .875-.75 1.42187-.73437.53126-1.92187.53126-.79688 0-1.42188-.28126-.60938-.29687-.96875-.78124-.34374-.5-.34374-1.07813h1.60937q.01562.45313.32812.70313.3125.23437.82812.23437.5 0 .73438-.1875.25-.1875.25-.48437z"/><path d="m98.16563 583.3128v-8.53124h2.98437q1.54688 0 2.34375.59374.8125.59376.8125 1.75 0 .625-.32812 1.1094-.3125.4687-.89063.6875.65625.17186 1.03125.67186.39063.48434.39063 1.20314 0 1.23436-.79688 1.875-.78125.625-2.23437.6406zm1.75-3.71874v2.3125h1.51562q.60938 0 .95313-.29686.35937-.2969.35937-.82814 0-1.17186-1.21875-1.1875zm0-1.23436h1.3125q1.32812-.0313 1.32812-1.0625 0-.57814-.34375-.82814-.32812-.26566-1.0625-.26566h-1.23437zm9.04687 5.0781q-1.39062 0-2.26562-.8594-.875-.85934-.875-2.2812v-.1719q0-.9531.35937-1.7031.375-.75 1.04688-1.1563.6875-.4062 1.54687-.4062 1.3125 0 2.04688.8281.75.8125.75 2.3125v.6875h-4.03125q.07812.625.48437 1 .42188.375 1.0625.375.96875 0 1.51563-.7031l.84375.92186q-.39063.54684-1.04688.85934-.64062.2969-1.4375.2969zm-.1875-5.21874q-.5 0-.8125.34374-.3125.34376-.40625.96876h2.35938v-.125q-.01563-.5625-.3125-.875-.28125-.3125-.82813-.3125zm5.0625 5.09374h-1.70312v-9h1.70312zm-1.0625 2.96876-.82812-.46876q.42187-.6719.4375-1.4219v-.5937h1.25v.4062q0 .5469-.25 1.125-.25.5938-.60938.95316zm2.03125-6.1875q0-1.45316.6875-2.34376.70313-.8906 1.875-.8906 1.04688 0 1.625.7031l.07813-.59374h1.53125v6.125q0 .84374-.39063 1.45314-.375.625-1.0625.9375-.67187.3281-1.59375.3281-.70312 0-1.375-.28124-.65625-.28126-.98437-.71876l.75-1.03124q.625.70314 1.53125.70314.67187 0 1.04687-.3594.375-.3594.375-1.0156v-.3438q-.57812.6719-1.54687.6719-1.14063 0-1.84375-.8906-.70313-.9063-.70313-2.375zm1.6875.125q0 .85934.34375 1.35934.35938.4844.95313.4844.78125 0 1.10937-.5781v-2.6719q-.34375-.5781-1.09375-.5781-.60937 0-.96875.5-.34375.5-.34375 1.48436zm1.3125-6.98436.875.4531q-.39062.6875-.39062 1.4531l-.01563.7969h-1.3125v-.8281q0-.57814.23438-1.0938.23437-.5312.60937-.7812zm6.03125 10.0781h-1.70312v-6.34374h1.70312zm-1.79687-7.9844q0-.375.25-.625.26562-.25.70312-.25.42188 0 .67188.25.26562.25.26562.625 0 .39066-.26562.64066-.25.23434-.6875.23434-.42188 0-.6875-.23434-.25-.25-.25-.64066zm4.79687 1.64066v6.6875q0 1.04684-.5625 1.625-.54687.59374-1.59375.59374-.4375 0-.84375-.09374v-1.34376q.3125.0469.53125.0469.78125 0 .78125-.8125v-6.70314zm-1.82812-1.64066q0-.375.25-.625.26562-.25.70312-.25.4375 0 .6875.25.26563.25.26563.625 0 .39066-.26563.64066-.26562.23434-.70312.23434-.42188 0-.6875-.23434-.25-.25-.25-.64066zm6.71874 7.9844q-.125-.2344-.17188-.5625-.60937.6875-1.59374.6875-.9375 0-1.54688-.5469-.60937-.54684-.60937-1.35934 0-1.01566.73437-1.54686.75-.5469 2.17188-.5469h.76562v-.3594q0-.4375-.21875-.7031-.21875-.2656-.71875-.2656-.42188 0-.67188.2031-.23437.2031-.23437.5625h-1.68749q0-.5469.32812-1.0156.34374-.4688.96874-.7344.625-.2656 1.39063-.2656 1.17187 0 1.85937.5937.6875.57816.6875 1.64066v2.75q.01563.90624.25 1.375v.09374zm-1.40625-1.1719q.375 0 .6875-.17184.32813-.17186.46875-.45316v-1.0937h-.625q-1.26562 0-1.35938.8906v.09376q0 .3125.21876.53124.21874.2031.60937.2031z"/><path d="m59.915627 637.141v3h-1.75v-8.53126h3.328123q.953127 0 1.6875.35936.734377.34377 1.125 1 .39063.64064.39063 1.46877 0 1.25-.85938 1.98437-.859373.71876-2.375.71876zm0-1.4375h1.578123q.6875 0 1.046877-.32813.375-.32813.375-.9375 0-.625-.375-1-.359377-.39063-1.015627-.40627h-1.609373zm9.812503 4.4375q-.125-.2344-.17188-.5625-.60937.6875-1.59375.6875-.9375 0-1.54687-.5469-.60938-.54686-.60938-1.35936 0-1.01564.73438-1.54687.75-.54687 2.17187-.54687h.76563v-.3594q0-.4375-.21875-.7031-.21875-.26563-.71875-.26563-.42188 0-.67188.20313-.23437.2031-.23437.5625h-1.6875q0-.5469.32812-1.01563.34375-.46877.96875-.73437.625-.26563 1.39063-.26563 1.17187 0 1.85937.59373.6875.57814.6875 1.64064v2.75q.01563.90626.25 1.375v.09376zm-1.40625-1.1719q.375 0 .6875-.17186.32812-.17187.46875-.45314v-1.09373h-.625q-1.26563 0-1.35938.89063v.09374q0 .3125.21875.53126.21875.2031.60938.2031zm2.34375-6.375h-4.04688v-.96873h4.04688zm4.95312 2.7969q-.34375-.0469-.60937-.0469-.96875 0-1.26563.64064v4.15626h-1.6875v-6.34376h1.59375l.04688.76563q.51562-.875 1.40625-.875.28125 0 .53125.07813zm3.34375 4.875q-1.39062 0-2.26562-.8594-.875-.85936-.875-2.28123v-.17187q0-.95313.35937-1.70313.375-.75 1.04688-1.15627.6875-.40623 1.54687-.40623 1.3125 0 2.04688.82813.75.8125.75 2.3125v.6875h-4.03125q.07812.625.48437 1 .42188.375 1.0625.375.96875 0 1.51563-.70313l.84375.92187q-.39063.54686-1.04688.85936-.64062.2969-1.4375.2969zm-.1875-5.21876q-.5 0-.8125.34376-.3125.34374-.40625.96874h2.35938v-.125q-.01563-.5625-.3125-.875-.28125-.3125-.82813-.3125zm1.84375-2.45314h-4.04687v-.96873h4.04687zm3.21875 1.20314v6.6875q0 1.04686-.5625 1.625-.54687.59376-1.59375.59376-.4375 0-.84375-.09376v-1.34374q.3125.04687.53125.04687.78125 0 .78125-.8125v-6.70313zm-1.82812-1.64064q0-.375.25-.625.26562-.25.70312-.25.4375 0 .6875.25.26563.25.26563.625 0 .39064-.26563.64064-.26562.23436-.70312.23436-.42188 0-.6875-.23436-.25-.25-.25-.64064zm6.71875 7.9844q-.125-.2344-.17188-.5625-.60937.6875-1.59375.6875-.9375 0-1.54687-.5469-.60938-.54686-.60938-1.35936 0-1.01564.73438-1.54687.75-.54687 2.17187-.54687h.76563v-.3594q0-.4375-.21875-.7031-.21875-.26563-.71875-.26563-.42188 0-.67188.20313-.23437.2031-.23437.5625h-1.6875q0-.5469.32812-1.01563.34375-.46877.96875-.73437.625-.26563 1.39063-.26563 1.17187 0 1.85937.59373.6875.57814.6875 1.64064v2.75q.01563.90626.25 1.375v.09376zm-1.40625-1.1719q.375 0 .6875-.17186.32812-.17187.46875-.45314v-1.09373h-.625q-1.26563 0-1.35938.89063v.09374q0 .3125.21875.53126.21875.2031.60938.2031zm2.34375-6.375h-4.04688v-.96873h4.04688zm4.8125 5.7969q0-.3125-.3125-.4844-.29688-.1875-.96875-.3281-2.26563-.46876-2.26563-1.9219 0-.84373.6875-1.40623.70313-.5625 1.84375-.5625 1.20313 0 1.92188.5625.73437.5625.73437 1.48437h-1.70312q0-.375-.23438-.60937-.23437-.23437-.73437-.23437-.42188 0-.65625.2031-.23438.1875-.23438.4844 0 .28124.26563.4531.26562.1719.89062.2969.64063.125 1.07813.28124 1.34375.5 1.34375 1.70313 0 .875-.75 1.42187-.73438.53126-1.92188.53126-.79687 0-1.42187-.28126-.60938-.29687-.96875-.78124-.34375-.5-.34375-1.07813h1.60937q.01563.45313.32813.70313.3125.23437.82812.23437.5 0 .73438-.1875.25-.1875.25-.48437zm7.95312-.3125 1.17188-4.28126h1.76562l-2.14062 6.34376h-1.60938l-2.14062-6.34376h1.76562zm7.29688 2.0625q-.125-.2344-.17188-.5625-.60937.6875-1.59375.6875-.9375 0-1.54687-.5469-.60938-.54686-.60938-1.35936 0-1.01564.73438-1.54687.75-.54687 2.17187-.54687h.76563v-.3594q0-.4375-.21875-.7031-.21875-.26563-.71875-.26563-.42188 0-.67188.20313-.23437.2031-.23437.5625h-1.6875q0-.5469.32812-1.01563.34375-.46877.96875-.73437.625-.26563 1.39063-.26563 1.17187 0 1.85937.59373.6875.57814.6875 1.64064v2.75q.01563.90626.25 1.375v.09376zm-1.40625-1.1719q.375 0 .6875-.17186.32812-.17187.46875-.45314v-1.09373h-.625q-1.26563 0-1.35938.89063v.09374q0 .3125.21875.53126.21875.2031.60938.2031zm5.51562 1.1719h-1.70312v-9h1.70312zm4.64063-1.75q0-.3125-.3125-.4844-.29688-.1875-.96875-.3281-2.26563-.46876-2.26563-1.9219 0-.84373.6875-1.40623.70313-.5625 1.84375-.5625 1.20313 0 1.92188.5625.73437.5625.73437 1.48437h-1.70312q0-.375-.23438-.60937-.23437-.23437-.73437-.23437-.42188 0-.65625.2031-.23438.1875-.23438.4844 0 .28124.26563.4531.26562.1719.89062.2969.64063.125 1.07813.28124 1.34375.5 1.34375 1.70313 0 .875-.75 1.42187-.73438.53126-1.92188.53126-.79687 0-1.42187-.28126-.60938-.29687-.96875-.78124-.34375-.5-.34375-1.07813h1.60937q.01563.45313.32813.70313.3125.23437.82812.23437.5 0 .73438-.1875.25-.1875.25-.48437zm4.59375-6.15626v1.5625h1.09375v1.25h-1.09375v3.15626q0 .35937.14062.5156.14063.14064.51563.14064.28125 0 .5-.03124v1.28124q-.5.15626-1.03125.15626-1.78125 0-1.8125-1.8125v-3.40626h-.92188v-1.25h.92188v-1.5625zm3.76562 7.90626h-1.70312v-6.34376h1.70312zm-1.79687-7.9844q0-.375.25-.625.26562-.25.70312-.25.42188 0 .67188.25.26562.25.26562.625 0 .39064-.26562.64064-.25.23436-.6875.23436-.42188 0-.6875-.23436-.25-.25-.25-.64064zm6.43749 6.2344q0-.3125-.3125-.4844-.29688-.1875-.96875-.3281-2.26562-.46876-2.26562-1.9219 0-.84373.68749-1.40623.70313-.5625 1.84376-.5625 1.20312 0 1.92187.5625.73437.5625.73437 1.48437h-1.70312q0-.375-.23438-.60937-.23437-.23437-.73437-.23437-.42187 0-.65625.2031-.23438.1875-.23438.4844 0 .28124.26563.4531.26563.1719.89063.2969.64062.125 1.07812.28124 1.34375.5 1.34375 1.70313 0 .875-.75 1.42187-.73437.53126-1.92187.53126-.79688 0-1.42188-.28126-.60938-.29687-.96875-.78124-.34374-.5-.34374-1.07813h1.60937q.01562.45313.32812.70313.3125.23437.82812.23437.5 0 .73438-.1875.25-.1875.25-.48437z"/><path d="m141.9625 694.3594q0 1.9062-.65626 2.8437-.64062.9219-2.03124.9219-1.35938 0-2.01563-.90625-.65625-.90625-.6875-2.71875v-1.4375q0-1.8906.64063-2.7969.65624-.92185 2.04687-.92185 1.375 0 2.03125.89065.65625.875.67188 2.7187zm-1.09376-1.4844q0-1.375-.39062-2-.375-.6406-1.21875-.6406-.82813 0-1.21875.6406-.375.625-.375 1.9219v1.73435q0 1.375.39062 2.04685.40626.6563 1.21876.6563.79687 0 1.1875-.625.39062-.625.40624-1.95315z"/><path d="m270.36563 698h-1.07813v-7.21875l-2.1875.79685v-.98435l3.10938-1.17185h.15625zm8.79687-3.6406q0 1.9062-.65624 2.8437-.64063.9219-2.03126.9219-1.35937 0-2.01562-.90625-.65625-.90625-.6875-2.71875v-1.4375q0-1.8906.64062-2.7969.65626-.92185 2.04688-.92185 1.375 0 2.03125.89065.65625.875.67187 2.7187zm-1.09374-1.4844q0-1.375-.39063-2-.375-.6406-1.21875-.6406-.82812 0-1.21875.6406-.375.625-.375 1.9219v1.73435q0 1.375.39063 2.04685.40624.6563 1.21874.6563.79688 0 1.1875-.625.39063-.625.40626-1.95315zm8.09374 1.4844q0 1.9062-.65624 2.8437-.64063.9219-2.03126.9219-1.35937 0-2.01562-.90625-.65625-.90625-.6875-2.71875v-1.4375q0-1.8906.64062-2.7969.65626-.92185 2.04688-.92185 1.375 0 2.03125.89065.65625.875.67187 2.7187zm-1.09374-1.4844q0-1.375-.39063-2-.375-.6406-1.21875-.6406-.82812 0-1.21875.6406-.375.625-.375 1.9219v1.73435q0 1.375.39063 2.04685.40624.6563 1.21874.6563.79688 0 1.1875-.625.39063-.625.40626-1.95315z"/><path d="m409.59686 698h-5.59376v-.78125l2.95314-3.28125q.65626-.75.90626-1.2031.25-.4688.25-.9688 0-.67185-.40626-1.0937-.39064-.4375-1.07814-.4375-.79686 0-1.25.4687-.4531.45315-.4531 1.2813h-1.07814q0-1.1875.75-1.9063.76564-.73435 2.03124-.73435 1.20314 0 1.89064.625.6875.625.6875 1.67185 0 1.25-1.60938 3l-2.28126 2.4688h4.28126zm6.76564-3.6406q0 1.9062-.65626 2.8437-.64064.9219-2.03124.9219-1.3594 0-2.01564-.90625-.65626-.90625-.6875-2.71875v-1.4375q0-1.8906.64064-2.7969.65624-.92185 2.04686-.92185 1.375 0 2.03124.89065.65626.875.6719 2.7187zm-1.09376-1.4844q0-1.375-.39064-2-.375-.6406-1.21874-.6406-.82812 0-1.21876.6406-.375.625-.375 1.9219v1.73435q0 1.375.39064 2.04685.40626.6563 1.21876.6563.79686 0 1.1875-.625.3906-.625.40624-1.95315zm8.09376 1.4844q0 1.9062-.65626 2.8437-.64064.9219-2.03124.9219-1.3594 0-2.01564-.90625-.65626-.90625-.6875-2.71875v-1.4375q0-1.8906.64064-2.7969.65624-.92185 2.04686-.92185 1.375 0 2.03124.89065.65626.875.6719 2.7187zm-1.09376-1.4844q0-1.375-.39064-2-.375-.6406-1.21874-.6406-.82812 0-1.21876.6406-.375.625-.375 1.9219v1.73435q0 1.375.39064 2.04685.40626.6563 1.21876.6563.79686 0 1.1875-.625.3906-.625.40624-1.95315z"/><path d="m542.78125 693.2031h.8125q.78125-.0156 1.21875-.4062.4375-.39065.4375-1.0625 0-1.5-1.5-1.5-.7031 0-1.125.4062-.40625.4063-.40625 1.0625h-1.09375q0-1.0156.7344-1.6875.75-.67185 1.8906-.67185 1.2031 0 1.8906.64065.6875.6406.6875 1.7812 0 .5625-.35935 1.07815-.35935.51565-.98435.78125.7031.21875 1.0781.7344.3906.5156.3906 1.2656 0 1.1406-.75 1.8281-.75.6719-1.9531.6719-1.1875 0-1.9531-.65625-.75-.65625-.75-1.71875h1.0937q0 .6719.4375 1.0781.4375.4063 1.1875.4063.7813 0 1.1875-.4063.4219-.42185.4219-1.1875 0-.73435-.4531-1.125-.45315-.4062-1.32815-.42185h-.8125zm10.78125 1.1563q0 1.9062-.65625 2.8437-.64065.9219-2.03125.9219-1.3594 0-2.0156-.90625-.6563-.90625-.6875-2.71875v-1.4375q0-1.8906.6406-2.7969.65625-.92185 2.0469-.92185 1.375 0 2.0312.89065.6563.875.6719 2.7187zm-1.09375-1.4844q0-1.375-.39065-2-.375-.6406-1.2187-.6406-.82815 0-1.2188.6406-.375.625-.375 1.9219v1.73435q0 1.375.39065 2.04685.40625.6563 1.21875.6563.7969 0 1.1875-.625.3906-.625.40625-1.95315zm8.09375 1.4844q0 1.9062-.65625 2.8437-.64065.9219-2.03125.9219-1.3594 0-2.0156-.90625-.6563-.90625-.6875-2.71875v-1.4375q0-1.8906.6406-2.7969.65625-.92185 2.0469-.92185 1.375 0 2.0312.89065.6563.875.6719 2.7187zm-1.09375-1.4844q0-1.375-.39065-2-.375-.6406-1.2187-.6406-.82815 0-1.2188.6406-.375.625-.375 1.9219v1.73435q0 1.375.39065 2.04685.40625.6563 1.21875.6563.7969 0 1.1875-.625.3906-.625.40625-1.95315z"/></g></svg>