<svg fill="none" height="729" stroke-linecap="square" stroke-miterlimit="10" viewBox="0 0 580 729" width="580" xmlns="http://www.w3.org/2000/svg" xmlns:xlink="http://www.w3.org/1999/xlink"><clipPath id="a"><path d="m111 29h440v644h-440z"/></clipPath><path d="m0 0h580v729h-580z" fill="none"/><path d="m111.5 29.5v644" stroke="#333" stroke-linecap="butt"/><path d="m257.5 29.5v644" stroke="#ccc" stroke-linecap="butt"/><path d="m404.5 29.5v644" stroke="#ccc" stroke-linecap="butt"/><path d="m551.5 29.5v644" stroke="#ccc" stroke-linecap="butt"/><path d="m159.5 29.5v644"/><path d="m208.5 29.5v644"/><path d="m306.5 29.5v644"/><path d="m355.5 29.5v644"/><path d="m453.5 29.5v644"/><path d="m502.5 29.5v644"/><path d="m111.5 673.5v-644" stroke="#000" stroke-linecap="butt"/><path clip-path="url(#a)" d="m111 86v-37h278c1.10458 0 2 .89543 2 2v33c0 1.10457-.89542 2-2 2z"/><path clip-path="url(#a)" d="m111 86v-37h278c1.10458 0 2 .89543 2 2v33c0 1.10457-.89542 2-2 2z" fill="#5b9bd5"/><path clip-path="url(#a)" d="m111 143v-37h171c1.10458 0 2 .89543 2 2v33c0 1.10457-.89542 2-2 2z"/><path clip-path="url(#a)" d="m111 143v-37h171c1.10458 0 2 .89543 2 2v33c0 1.10457-.89542 2-2 2z" fill="#5b9bd5"/><path clip-path="url(#a)" d="m111 200v-37h158c1.10458 0 2 .89543 2 2v33c0 1.10457-.89542 2-2 2z"/><path clip-path="url(#a)" d="m111 200v-37h158c1.10458 0 2 .89543 2 2v33c0 1.10457-.89542 2-2 2z" fill="#5b9bd5"/><path clip-path="url(#a)" d="m111 257v-37h148c1.10458 0 2 .89543 2 2v33c0 1.10458-.89542 2-2 2z"/><path clip-path="url(#a)" d="m111 257v-37h148c1.10458 0 2 .89543 2 2v33c0 1.10458-.89542 2-2 2z" fill="#5b9bd5"/><path clip-path="url(#a)" d="m111 313v-37h121c1.10457 0 2 .89542 2 2v33c0 1.10458-.89543 2-2 2z"/><path clip-path="url(#a)" d="m111 313v-37h121c1.10457 0 2 .89542 2 2v33c0 1.10458-.89543 2-2 2z" fill="#5b9bd5"/><path clip-path="url(#a)" d="m111 370v-37h100c1.10457 0 2 .89542 2 2v33c0 1.10458-.89543 2-2 2z"/><path clip-path="url(#a)" d="m111 370v-37h100c1.10457 0 2 .89542 2 2v33c0 1.10458-.89543 2-2 2z" fill="#5b9bd5"/><path clip-path="url(#a)" d="m111 427v-37h78c1.10457 0 2 .89542 2 2v33c0 1.10458-.89543 2-2 2z"/><path clip-path="url(#a)" d="m111 427v-37h78c1.10457 0 2 .89542 2 2v33c0 1.10458-.89543 2-2 2z" fill="#5b9bd5"/><path clip-path="url(#a)" d="m111 483v-37h73c1.10457 0 2 .89542 2 2v33c0 1.10458-.89543 2-2 2z"/><path clip-path="url(#a)" d="m111 483v-37h73c1.10457 0 2 .89542 2 2v33c0 1.10458-.89543 2-2 2z" fill="#5b9bd5"/><path clip-path="url(#a)" d="m111 540v-37h61c1.10457 0 2 .89542 2 2v33c0 1.10455-.89543 2-2 2z"/><path clip-path="url(#a)" d="m111 540v-37h61c1.10457 0 2 .89542 2 2v33c0 1.10455-.89543 2-2 2z" fill="#5b9bd5"/><path clip-path="url(#a)" d="m111 597v-37h59c1.10457 0 2 .89545 2 2v33c0 1.10455-.89543 2-2 2z"/><path clip-path="url(#a)" d="m111 597v-37h59c1.10457 0 2 .89545 2 2v33c0 1.10455-.89543 2-2 2z" fill="#5b9bd5"/><path clip-path="url(#a)" d="m111 654v-37h430c1.10455 0 2 .89545 2 2v33c0 1.10455-.89545 2-2 2z"/><path clip-path="url(#a)" d="m111 654v-37h430c1.10455 0 2 .89545 2 2v33c0 1.10455-.89545 2-2 2z" fill="#5b9bd5"/><path d="m111.5 679.5v-12" stroke="#000" stroke-linecap="butt"/><path d="m257.5 679.5v-12" stroke="#000" stroke-linecap="butt"/><path d="m404.5 679.5v-12" stroke="#000" stroke-linecap="butt"/><path d="m551.5 679.5v-12" stroke="#000" stroke-linecap="butt"/><path d="m359.46362 68.09375q-.67187.640625-1.54687.640625-1.14063 0-1.82813-.765625-.67187-.78125-.67187-2.09375 0-.84375.35937-1.546875.375-.703125 1.03125-1.09375.65625-.390625 1.48438-.390625.84375 0 1.5.421875.65625.421875 1.01562 1.21875.35938.796875.375 1.8125v.625q0 2.140625-1.0625 3.359375-1.0625 1.21875-3.01562 1.296875h-.40625v-1.40625l.375-.015625q2.20312-.09375 2.39062-2.0625zm-1.14062-.65625q.42187 0 .70312-.203125.29688-.21875.45313-.515625v-.6875q0-.859375-.32813-1.328125-.32812-.484375-.875-.484375-.51562 0-.84375.46875-.32812.453125-.32812 1.15625 0 .703125.3125 1.15625.32812.4375.90625.4375zm4.42187-.140625.5-4.328125h4.78125v1.40625h-3.39062l-.21875 1.84375q.60937-.328125 1.28125-.328125 1.21875 0 1.90625.765625.70312.75.70312 2.109375 0 .828125-.35937 1.484375-.34375.640625-1 1.015625-.64063.359375-1.53125.359375-.76563 0-1.4375-.3125-.65625-.328125-1.04688-.890625-.375-.5625-.40625-1.296875h1.6875q.04688.53125.35938.828125.32812.296875.84375.296875.57812 0 .875-.40625.3125-.421875.3125-1.171875 0-.734375-.35938-1.109375-.34375-.390625-1-.390625-.60937 0-.98437.3125l-.15625.15625zm6.90625 3.375q0-.40625.26563-.65625.28125-.25.6875-.25.42187 0 .6875.25.28125.25.28125.65625 0 .390625-.28125.640625-.26563.25-.6875.25-.40625 0-.6875-.25-.26563-.25-.26563-.640625zm4.5625-4.1875h.90625q.64063 0 .95313-.3125.3125-.328125.3125-.859375 0-.515625-.3125-.796875-.29688-.296875-.84375-.296875-.48438 0-.8125.265625-.32813.265625-.32813.6875h-1.6875q0-.65625.35938-1.1875.35937-.53125 1-.828125.65625-.3125 1.4375-.3125 1.34375 0 2.10937.65625.78125.640625.78125 1.78125 0 .59375-.35937 1.09375-.35938.484375-.9375.734375.71875.265625 1.0625.78125.35937.515625.35937 1.21875 0 1.140625-.82812 1.828125-.82813.6875-2.1875.6875-1.28125 0-2.09375-.671875-.8125-.6875-.8125-1.796875h1.6875q0 .484375.35937.796875.375.296875.89063.296875.60937 0 .95312-.3125.34375-.328125.34375-.859375 0-1.265625-1.40625-1.265625h-.90625zm9.875-3.609375v1.40625h-.15625q-1.15625.015625-1.85937.59375-.6875.578125-.82813 1.609375.67188-.6875 1.70313-.6875 1.125 0 1.78125.796875.65625.796875.65625 2.09375 0 .828125-.35938 1.5-.35937.671875-1.03125 1.0625-.65625.375-1.48437.375-1.34375 0-2.17188-.9375-.82812-.953125-.82812-2.515625v-.609375q0-1.390625.51562-2.453125.53125-1.0625 1.5-1.640625.98438-.578125 2.28125-.59375zm-1.65625 4.28125q-.40625 0-.75.21875-.32812.203125-.48437.5625v.515625q0 .84375.32812 1.328125.34375.46875.95313.46875.54687 0 .875-.421875.34375-.4375.34375-1.125 0-.703125-.34375-1.125-.34375-.421875-.92188-.421875z" stroke="#5b9bd5" stroke-linecap="round" stroke-linejoin="round" stroke-width="3"/><path d="m359.46362 68.09375q-.67187.640625-1.54687.640625-1.14063 0-1.82813-.765625-.67187-.78125-.67187-2.09375 0-.84375.35937-1.546875.375-.703125 1.03125-1.09375.65625-.390625 1.48438-.390625.84375 0 1.5.421875.65625.421875 1.01562 1.21875.35938.796875.375 1.8125v.625q0 2.140625-1.0625 3.359375-1.0625 1.21875-3.01562 1.296875h-.40625v-1.40625l.375-.015625q2.20312-.09375 2.39062-2.0625zm-1.14062-.65625q.42187 0 .70312-.203125.29688-.21875.45313-.515625v-.6875q0-.859375-.32813-1.328125-.32812-.484375-.875-.484375-.51562 0-.84375.46875-.32812.453125-.32812 1.15625 0 .703125.3125 1.15625.32812.4375.90625.4375zm4.42187-.140625.5-4.328125h4.78125v1.40625h-3.39062l-.21875 1.84375q.60937-.328125 1.28125-.328125 1.21875 0 1.90625.765625.70312.75.70312 2.109375 0 .828125-.35937 1.484375-.34375.640625-1 1.015625-.64063.359375-1.53125.359375-.76563 0-1.4375-.3125-.65625-.328125-1.04688-.890625-.375-.5625-.40625-1.296875h1.6875q.04688.53125.35938.828125.32812.296875.84375.296875.57812 0 .875-.40625.3125-.421875.3125-1.171875 0-.734375-.35938-1.109375-.34375-.390625-1-.390625-.60937 0-.98437.3125l-.15625.15625zm6.90625 3.375q0-.40625.26563-.65625.28125-.25.6875-.25.42187 0 .6875.25.28125.25.28125.65625 0 .390625-.28125.640625-.26563.25-.6875.25-.40625 0-.6875-.25-.26563-.25-.26563-.640625zm4.5625-4.1875h.90625q.64063 0 .95313-.3125.3125-.328125.3125-.859375 0-.515625-.3125-.796875-.29688-.296875-.84375-.296875-.48438 0-.8125.265625-.32813.265625-.32813.6875h-1.6875q0-.65625.35938-1.1875.35937-.53125 1-.828125.65625-.3125 1.4375-.3125 1.34375 0 2.10937.65625.78125.640625.78125 1.78125 0 .59375-.35937 1.09375-.35938.484375-.9375.734375.71875.265625 1.0625.78125.35937.515625.35937 1.21875 0 1.140625-.82812 1.828125-.82813.6875-2.1875.6875-1.28125 0-2.09375-.671875-.8125-.6875-.8125-1.796875h1.6875q0 .484375.35937.796875.375.296875.89063.296875.60937 0 .95312-.3125.34375-.328125.34375-.859375 0-1.265625-1.40625-1.265625h-.90625zm9.875-3.609375v1.40625h-.15625q-1.15625.015625-1.85937.59375-.6875.578125-.82813 1.609375.67188-.6875 1.70313-.6875 1.125 0 1.78125.796875.65625.796875.65625 2.09375 0 .828125-.35938 1.5-.35937.671875-1.03125 1.0625-.65625.375-1.48437.375-1.34375 0-2.17188-.9375-.82812-.953125-.82812-2.515625v-.609375q0-1.390625.51562-2.453125.53125-1.0625 1.5-1.640625.98438-.578125 2.28125-.59375zm-1.65625 4.28125q-.40625 0-.75.21875-.32812.203125-.48437.5625v.515625q0 .84375.32812 1.328125.34375.46875.95313.46875.54687 0 .875-.421875.34375-.4375.34375-1.125 0-.703125-.34375-1.125-.34375-.421875-.92188-.421875z" fill="#000"/><path d="m249.52219 124.296875.5-4.328125h4.78125v1.40625h-3.39063l-.21875 1.84375q.60938-.328125 1.28125-.328125 1.21875 0 1.90625.765625.70313.75.70313 2.109375 0 .828125-.35938 1.484375-.34375.640625-1 1.01562-.64062.35938-1.53125.35938-.76562 0-1.4375-.3125-.65625-.328125-1.04687-.890625-.375-.5625-.40625-1.296875h1.6875q.04687.53125.35937.828125.32813.296875.84375.296875.57813 0 .875-.40625.3125-.421875.3125-1.171875 0-.734375-.35937-1.109375-.34375-.390625-1-.390625-.60938 0-.98438.3125l-.15625.15625zm10.71875.796875q-.67188.640625-1.54688.640625-1.14062 0-1.82812-.765625-.67188-.78125-.67188-2.09375 0-.84375.35938-1.546875.375-.703125 1.03126-1.09375.65624-.390625 1.48436-.390625.84374 0 1.5.421875.65624.421875 1.01564 1.21875.35936.796875.375 1.8125v.625q0 2.140625-1.0625 3.359375-1.0625 1.21875-3.01564 1.29687h-.40626v-1.406245l.375-.015625q2.20314-.09375 2.39064-2.0625zm-1.14064-.65625q.4219 0 .70314-.203125.29686-.21875.45312-.515625v-.6875q0-.859375-.32812-1.328125-.32814-.484375-.875-.484375-.51564 0-.84374.46875-.32814.453125-.32814 1.15625 0 .703125.3125 1.15625.32814.4375.90624.4375zm4.32814 3.234375q0-.40625.26562-.65625.28124-.25.6875-.25.42188 0 .6875.25.28124.25.28124.65625 0 .390625-.28124.640625-.26562.25-.6875.25-.40626 0-.6875-.25-.26562-.25-.26562-.640625zm6.95312.828125h-1.6875v-6.53125l-2.01562.625v-1.375l3.53126-1.265625h.17186zm3.14064-4.203125.5-4.328125h4.78124v1.40625h-3.39064l-.21874 1.84375q.60938-.328125 1.28124-.328125 1.21876 0 1.90626.765625.70314.75.70314 2.109375 0 .828125-.3594 1.484375-.34374.640625-1 1.01562-.6406.35938-1.53124.35938-.76562 0-1.4375-.3125-.65626-.328125-1.04686-.890625-.375-.5625-.40626-1.296875h1.6875q.04686.53125.35936.828125.32814.296875.84376.296875.57814 0 .875-.40625.3125-.421875.3125-1.171875 0-.734375-.35936-1.109375-.34376-.390625-1-.390625-.6094 0-.9844.3125l-.15624.15625z" stroke="#5b9bd5" stroke-linecap="round" stroke-linejoin="round" stroke-width="3"/><path d="m249.52219 124.296875.5-4.328125h4.78125v1.40625h-3.39063l-.21875 1.84375q.60938-.328125 1.28125-.328125 1.21875 0 1.90625.765625.70313.75.70313 2.109375 0 .828125-.35938 1.484375-.34375.640625-1 1.01562-.64062.35938-1.53125.35938-.76562 0-1.4375-.3125-.65625-.328125-1.04687-.890625-.375-.5625-.40625-1.296875h1.6875q.04687.53125.35937.828125.32813.296875.84375.296875.57813 0 .875-.40625.3125-.421875.3125-1.171875 0-.734375-.35937-1.109375-.34375-.390625-1-.390625-.60938 0-.98438.3125l-.15625.15625zm10.71875.796875q-.67188.640625-1.54688.640625-1.14062 0-1.82812-.765625-.67188-.78125-.67188-2.09375 0-.84375.35938-1.546875.375-.703125 1.03126-1.09375.65624-.390625 1.48436-.390625.84374 0 1.5.421875.65624.421875 1.01564 1.21875.35936.796875.375 1.8125v.625q0 2.140625-1.0625 3.359375-1.0625 1.21875-3.01564 1.29687h-.40626v-1.406245l.375-.015625q2.20314-.09375 2.39064-2.0625zm-1.14064-.65625q.4219 0 .70314-.203125.29686-.21875.45312-.515625v-.6875q0-.859375-.32812-1.328125-.32814-.484375-.875-.484375-.51564 0-.84374.46875-.32814.453125-.32814 1.15625 0 .703125.3125 1.15625.32814.4375.90624.4375zm4.32814 3.234375q0-.40625.26562-.65625.28124-.25.6875-.25.42188 0 .6875.25.28124.25.28124.65625 0 .390625-.28124.640625-.26562.25-.6875.25-.40626 0-.6875-.25-.26562-.25-.26562-.640625zm6.95312.828125h-1.6875v-6.53125l-2.01562.625v-1.375l3.53126-1.265625h.17186zm3.14064-4.203125.5-4.328125h4.78124v1.40625h-3.39064l-.21874 1.84375q.60938-.328125 1.28124-.328125 1.21876 0 1.90626.765625.70314.75.70314 2.109375 0 .828125-.3594 1.484375-.34374.640625-1 1.01562-.6406.35938-1.53124.35938-.76562 0-1.4375-.3125-.65626-.328125-1.04686-.890625-.375-.5625-.40626-1.296875h1.6875q.04686.53125.35936.828125.32814.296875.84376.296875.57814 0 .875-.40625.3125-.421875.3125-1.171875 0-.734375-.35936-1.109375-.34376-.390625-1-.390625-.6094 0-.9844.3125l-.15624.15625z" fill="#000"/><path d="m235.68675 181.29688.5-4.32813h4.78125v1.40625h-3.39062l-.21875 1.84375q.60937-.32813 1.28125-.32813 1.21875 0 1.90625.76563.70312.75.70312 2.10937 0 .82813-.35937 1.48438-.34375.64062-1 1.01562-.64063.35938-1.53125.35938-.76563 0-1.4375-.3125-.65625-.32812-1.04688-.89062-.375-.5625-.40625-1.29688h1.6875q.04688.53125.35938.82812.32812.29688.84375.29688.57812 0 .875-.40625.3125-.42187.3125-1.17187 0-.73438-.35938-1.10938-.34375-.39062-1-.39062-.60937 0-.98437.3125l-.15625.15624zm11.76563.98437h.96875v1.375h-.96875v1.84375h-1.70313v-1.84375h-3.48437l-.07813-1.0625 3.54688-5.625h1.71875zm-3.57813 0h1.875v-3l-.10937.1875zm5.71875 2.39063q0-.40626.26563-.65626.28125-.25.6875-.25.42187 0 .6875.25.28125.25.28125.65626 0 .39062-.28125.64062-.26563.25-.6875.25-.40625 0-.6875-.25-.26563-.25-.26563-.64062zm7.8594-2.39063h.96874v1.375h-.96874v1.84375h-1.70315v-1.84375h-3.48437l-.07813-1.0625 3.54688-5.625h1.71877zm-3.57815 0h1.875v-3l-.10937.1875zm7.28127-1.79687h.90625q.64063 0 .95313-.3125.3125-.32813.3125-.85938 0-.51562-.3125-.79688-.29688-.29687-.84376-.29687-.48437 0-.8125.26563-.32812.26562-.32812.6875h-1.6875q0-.65626.35938-1.1875.35937-.53126 1-.82813.65624-.3125 1.4375-.3125 1.34374 0 2.10937.65625.78125.64062.78125 1.78125 0 .59375-.35938 1.09375-.35937.48438-.9375.73438.71876.26562 1.0625.78124.35938.51563.35938 1.21876 0 1.14062-.82812 1.82812-.82813.6875-2.1875.6875-1.28126 0-2.09376-.67188-.8125-.6875-.8125-1.79687h1.6875q0 .48437.35938.79687.375.29688.89062.29688.60938 0 .95313-.3125.34375-.32812.34375-.85938 0-1.26562-1.40625-1.26562h-.90625z" stroke="#5b9bd5" stroke-linecap="round" stroke-linejoin="round" stroke-width="3"/><path d="m235.68675 181.29688.5-4.32813h4.78125v1.40625h-3.39062l-.21875 1.84375q.60937-.32813 1.28125-.32813 1.21875 0 1.90625.76563.70312.75.70312 2.10937 0 .82813-.35937 1.48438-.34375.64062-1 1.01562-.64063.35938-1.53125.35938-.76563 0-1.4375-.3125-.65625-.32812-1.04688-.89062-.375-.5625-.40625-1.29688h1.6875q.04688.53125.35938.82812.32812.29688.84375.29688.57812 0 .875-.40625.3125-.42187.3125-1.17187 0-.73438-.35938-1.10938-.34375-.39062-1-.39062-.60937 0-.98437.3125l-.15625.15624zm11.76563.98437h.96875v1.375h-.96875v1.84375h-1.70313v-1.84375h-3.48437l-.07813-1.0625 3.54688-5.625h1.71875zm-3.57813 0h1.875v-3l-.10937.1875zm5.71875 2.39063q0-.40626.26563-.65626.28125-.25.6875-.25.42187 0 .6875.25.28125.25.28125.65626 0 .39062-.28125.64062-.26563.25-.6875.25-.40625 0-.6875-.25-.26563-.25-.26563-.64062zm7.8594-2.39063h.96874v1.375h-.96874v1.84375h-1.70315v-1.84375h-3.48437l-.07813-1.0625 3.54688-5.625h1.71877zm-3.57815 0h1.875v-3l-.10937.1875zm7.28127-1.79687h.90625q.64063 0 .95313-.3125.3125-.32813.3125-.85938 0-.51562-.3125-.79688-.29688-.29687-.84376-.29687-.48437 0-.8125.26563-.32812.26562-.32812.6875h-1.6875q0-.65626.35938-1.1875.35937-.53126 1-.82813.65624-.3125 1.4375-.3125 1.34374 0 2.10937.65625.78125.64062.78125 1.78125 0 .59375-.35938 1.09375-.35937.48438-.9375.73438.71876.26562 1.0625.78124.35938.51563.35938 1.21876 0 1.14062-.82812 1.82812-.82813.6875-2.1875.6875-1.28126 0-2.09376-.67188-.8125-.6875-.8125-1.79687h1.6875q0 .48437.35938.79687.375.29688.89062.29688.60938 0 .95313-.3125.34375-.32812.34375-.85938 0-1.26562-1.40625-1.26562h-.90625z" fill="#000"/><path d="m226.18492 238.29688.5-4.32813h4.78125v1.40625h-3.39062l-.21875 1.84375q.60937-.32813 1.28125-.32813 1.21875 0 1.90625.76563.70312.75.70312 2.10937 0 .82813-.35937 1.48438-.34375.64062-1 1.01562-.64063.35938-1.53125.35938-.76563 0-1.4375-.3125-.65625-.32812-1.04688-.89062-.375-.5625-.40625-1.29688h1.6875q.04688.53125.35938.82812.32812.29688.84375.29688.57812 0 .875-.40625.3125-.42187.3125-1.17187 0-.73438-.35938-1.10938-.34375-.39062-1-.39062-.60937 0-.98437.3125l-.15625.15624zm10.85938 4.20312h-1.6875v-6.53125l-2.01563.625v-1.375l3.53125-1.26563h.17188zm3.04687-.82812q0-.40626.26563-.65626.28125-.25.6875-.25.42187 0 .6875.25.28125.25.28125.65626 0 .39062-.28125.64062-.26563.25-.6875.25-.40625 0-.6875-.25-.26563-.25-.26563-.64062zm6.95313.82812h-1.6875v-6.53125l-2.01563.625v-1.375l3.53125-1.26563h.17188zm6.85937-3.40625q-.67187.64063-1.54687.64063-1.14063 0-1.82813-.76563-.67187-.78125-.67187-2.09375 0-.84375.35937-1.54688.375-.70312 1.03125-1.09374.65625-.39063 1.48438-.39063.84375 0 1.5.42187.65625.42188 1.01562 1.21876.35938.79687.375 1.8125v.625q0 2.14062-1.0625 3.35937-1.0625 1.21875-3.01562 1.29687h-.40625v-1.40624l.375-.01563q2.20312-.09375 2.39062-2.0625zm-1.14062-.65625q.42187 0 .70312-.20312.29688-.21876.45313-.51563v-.6875q0-.85937-.32813-1.32813-.32812-.48437-.875-.48437-.51562 0-.84375.46875-.32812.45312-.32812 1.15625 0 .70313.3125 1.15625.32812.4375.90625.4375z" stroke="#5b9bd5" stroke-linecap="round" stroke-linejoin="round" stroke-width="3"/><path d="m226.18492 238.29688.5-4.32813h4.78125v1.40625h-3.39062l-.21875 1.84375q.60937-.32813 1.28125-.32813 1.21875 0 1.90625.76563.70312.75.70312 2.10937 0 .82813-.35937 1.48438-.34375.64062-1 1.01562-.64063.35938-1.53125.35938-.76563 0-1.4375-.3125-.65625-.32812-1.04688-.89062-.375-.5625-.40625-1.29688h1.6875q.04688.53125.35938.82812.32812.29688.84375.29688.57812 0 .875-.40625.3125-.42187.3125-1.17187 0-.73438-.35938-1.10938-.34375-.39062-1-.39062-.60937 0-.98437.3125l-.15625.15624zm10.85938 4.20312h-1.6875v-6.53125l-2.01563.625v-1.375l3.53125-1.26563h.17188zm3.04687-.82812q0-.40626.26563-.65626.28125-.25.6875-.25.42187 0 .6875.25.28125.25.28125.65626 0 .39062-.28125.64062-.26563.25-.6875.25-.40625 0-.6875-.25-.26563-.25-.26563-.64062zm6.95313.82812h-1.6875v-6.53125l-2.01563.625v-1.375l3.53125-1.26563h.17188zm6.85937-3.40625q-.67187.64063-1.54687.64063-1.14063 0-1.82813-.76563-.67187-.78125-.67187-2.09375 0-.84375.35937-1.54688.375-.70312 1.03125-1.09374.65625-.39063 1.48438-.39063.84375 0 1.5.42187.65625.42188 1.01562 1.21876.35938.79687.375 1.8125v.625q0 2.14062-1.0625 3.35937-1.0625 1.21875-3.01562 1.29687h-.40625v-1.40624l.375-.01563q2.20312-.09375 2.39062-2.0625zm-1.14062-.65625q.42187 0 .70312-.20312.29688-.21876.45313-.51563v-.6875q0-.85937-.32813-1.32813-.32812-.48437-.875-.48437-.51562 0-.84375.46875-.32812.45312-.32812 1.15625 0 .70313.3125 1.15625.32812.4375.90625.4375z" fill="#000"/><path d="m203.70532 295.28125h.96875v1.375h-.96875v1.84375h-1.70312v-1.84375h-3.48438l-.07812-1.0625 3.54687-5.625h1.71875zm-3.57812 0h1.875v-3l-.10938.1875zm9.67187 3.21875h-1.6875v-6.53125l-2.01562.625v-1.375l3.53125-1.26563h.17187zm3.04688-.82812q0-.40626.26562-.65626.28125-.25.6875-.25.42188 0 .6875.25.28125.25.28125.65626 0 .39062-.28125.64062-.26562.25-.6875.25-.40625 0-.6875-.25-.26562-.25-.26562-.64062zm6.8125-2.57813q-.67188.64063-1.54688.64063-1.14062 0-1.82812-.76563-.67188-.78125-.67188-2.09375 0-.84375.35938-1.54688.375-.70312 1.03125-1.09374.65625-.39063 1.48437-.39063.84375 0 1.5.42187.65625.42188 1.01563 1.21876.35937.79687.375 1.8125v.625q0 2.14062-1.0625 3.35937-1.0625 1.21875-3.01563 1.29687h-.40625v-1.40624l.375-.01563q2.20313-.09375 2.39063-2.0625zm-1.14063-.65625q.42188 0 .70313-.20312.29687-.21876.45312-.51563v-.6875q0-.85937-.32812-1.32813-.32813-.48437-.875-.48437-.51563 0-.84375.46875-.32813.45312-.32813 1.15625 0 .70313.3125 1.15625.32813.4375.90625.4375zm9.92188.53125q0 1.76563-.73438 2.71875-.73437.9375-2.14062.9375-1.40625 0-2.14063-.92188-.73437-.92187-.75-2.64062v-1.57812q0-1.78126.73438-2.70313.75-.9375 2.14062-.9375 1.39063 0 2.125.92187.75.92188.76563 2.64063zm-1.70313-1.71875q0-1.0625-.29687-1.54688-.28125-.48437-.89063-.48437-.59375 0-.89062.46875-.28125.45312-.29688 1.4375v2.0625q0 1.04688.28125 1.5625.28125.5.92188.5.60937 0 .89062-.48438.28125-.48437.28125-1.48437z" stroke="#5b9bd5" stroke-linecap="round" stroke-linejoin="round" stroke-width="3"/><path d="m203.70532 295.28125h.96875v1.375h-.96875v1.84375h-1.70312v-1.84375h-3.48438l-.07812-1.0625 3.54687-5.625h1.71875zm-3.57812 0h1.875v-3l-.10938.1875zm9.67187 3.21875h-1.6875v-6.53125l-2.01562.625v-1.375l3.53125-1.26563h.17187zm3.04688-.82812q0-.40626.26562-.65626.28125-.25.6875-.25.42188 0 .6875.25.28125.25.28125.65626 0 .39062-.28125.64062-.26562.25-.6875.25-.40625 0-.6875-.25-.26562-.25-.26562-.64062zm6.8125-2.57813q-.67188.64063-1.54688.64063-1.14062 0-1.82812-.76563-.67188-.78125-.67188-2.09375 0-.84375.35938-1.54688.375-.70312 1.03125-1.09374.65625-.39063 1.48437-.39063.84375 0 1.5.42187.65625.42188 1.01563 1.21876.35937.79687.375 1.8125v.625q0 2.14062-1.0625 3.35937-1.0625 1.21875-3.01563 1.29687h-.40625v-1.40624l.375-.01563q2.20313-.09375 2.39063-2.0625zm-1.14063-.65625q.42188 0 .70313-.20312.29687-.21876.45312-.51563v-.6875q0-.85937-.32812-1.32813-.32813-.48437-.875-.48437-.51563 0-.84375.46875-.32813.45312-.32813 1.15625 0 .70313.3125 1.15625.32813.4375.90625.4375zm9.92188.53125q0 1.76563-.73438 2.71875-.73437.9375-2.14062.9375-1.40625 0-2.14063-.92188-.73437-.92187-.75-2.64062v-1.57812q0-1.78126.73438-2.70313.75-.9375 2.14062-.9375 1.39063 0 2.125.92187.75.92188.76563 2.64063zm-1.70313-1.71875q0-1.0625-.29687-1.54688-.28125-.48437-.89063-.48437-.59375 0-.89062.46875-.28125.45312-.29688 1.4375v2.0625q0 1.04688.28125 1.5625.28125.5.92188.5.60937 0 .89062-.48438.28125-.48437.28125-1.48437z" fill="#000"/><path d="m179.96938 350.48438h.90625q.64062 0 .95312-.3125.3125-.32813.3125-.85938 0-.51562-.3125-.79688-.29687-.29687-.84375-.29687-.48437 0-.8125.26563-.32812.26562-.32812.6875h-1.6875q0-.65626.35937-1.1875.35938-.53126 1-.82813.65625-.3125 1.4375-.3125 1.34375 0 2.10938.65625.78125.64062.78125 1.78125 0 .59375-.35938 1.09375-.35937.48438-.9375.73438.71875.26562 1.0625.78124.35938.51563.35938 1.21876 0 1.14062-.82813 1.82812-.82812.6875-2.1875.6875-1.28125 0-2.09375-.67188-.8125-.6875-.8125-1.79687h1.6875q0 .48437.35938.79687.375.29688.89062.29688.60938 0 .95313-.3125.34375-.32812.34375-.85938 0-1.26562-1.40625-1.26562h-.90625zm10.29687 1.79687h.96875v1.375h-.96875v1.84375h-1.70312v-1.84375h-3.48438l-.07812-1.0625 3.54687-5.625h1.71875zm-3.57812 0h1.875v-3l-.10938.1875zm5.71875 2.39063q0-.40626.26562-.65626.28125-.25.6875-.25.42188 0 .6875.25.28125.25.28125.65626 0 .39062-.28125.64062-.26562.25-.6875.25-.40625 0-.6875-.25-.26562-.25-.26562-.64062zm6.8125-2.57813q-.67188.64063-1.54688.64063-1.14062 0-1.82812-.76563-.67188-.78125-.67188-2.09375 0-.84375.35938-1.54688.375-.70312 1.03125-1.09374.65625-.39063 1.48437-.39063.84375 0 1.5.42187.65625.42188 1.01563 1.21876.35937.79687.375 1.8125v.625q0 2.14062-1.0625 3.35937-1.0625 1.21875-3.01563 1.29687h-.40625v-1.40624l.375-.01563q2.20313-.09375 2.39063-2.0625zm-1.14063-.65625q.42188 0 .70313-.20312.29687-.21876.45312-.51563v-.6875q0-.85937-.32812-1.32813-.32813-.48437-.875-.48437-.51563 0-.84375.46875-.32813.45312-.32813 1.15625 0 .70313.3125 1.15625.32813.4375.90625.4375zm5.89063-.95312h.90625q.64062 0 .95312-.3125.3125-.32813.3125-.85938 0-.51562-.3125-.79688-.29687-.29687-.84375-.29687-.48437 0-.8125.26563-.32812.26562-.32812.6875h-1.6875q0-.65626.35937-1.1875.35938-.53126 1-.82813.65625-.3125 1.4375-.3125 1.34375 0 2.10938.65625.78125.64062.78125 1.78125 0 .59375-.35938 1.09375-.35937.48438-.9375.73438.71875.26562 1.0625.78124.35938.51563.35938 1.21876 0 1.14062-.82813 1.82812-.82812.6875-2.1875.6875-1.28125 0-2.09375-.67188-.8125-.6875-.8125-1.79687h1.6875q0 .48437.35938.79687.375.29688.89062.29688.60938 0 .95313-.3125.34375-.32812.34375-.85938 0-1.26562-1.40625-1.26562h-.90625z" stroke="#5b9bd5" stroke-linecap="round" stroke-linejoin="round" stroke-width="3"/><path d="m179.96938 350.48438h.90625q.64062 0 .95312-.3125.3125-.32813.3125-.85938 0-.51562-.3125-.79688-.29687-.29687-.84375-.29687-.48437 0-.8125.26563-.32812.26562-.32812.6875h-1.6875q0-.65626.35937-1.1875.35938-.53126 1-.82813.65625-.3125 1.4375-.3125 1.34375 0 2.10938.65625.78125.64062.78125 1.78125 0 .59375-.35938 1.09375-.35937.48438-.9375.73438.71875.26562 1.0625.78124.35938.51563.35938 1.21876 0 1.14062-.82813 1.82812-.82812.6875-2.1875.6875-1.28125 0-2.09375-.67188-.8125-.6875-.8125-1.79687h1.6875q0 .48437.35938.79687.375.29688.89062.29688.60938 0 .95313-.3125.34375-.32812.34375-.85938 0-1.26562-1.40625-1.26562h-.90625zm10.29687 1.79687h.96875v1.375h-.96875v1.84375h-1.70312v-1.84375h-3.48438l-.07812-1.0625 3.54687-5.625h1.71875zm-3.57812 0h1.875v-3l-.10938.1875zm5.71875 2.39063q0-.40626.26562-.65626.28125-.25.6875-.25.42188 0 .6875.25.28125.25.28125.65626 0 .39062-.28125.64062-.26562.25-.6875.25-.40625 0-.6875-.25-.26562-.25-.26562-.64062zm6.8125-2.57813q-.67188.64063-1.54688.64063-1.14062 0-1.82812-.76563-.67188-.78125-.67188-2.09375 0-.84375.35938-1.54688.375-.70312 1.03125-1.09374.65625-.39063 1.48437-.39063.84375 0 1.5.42187.65625.42188 1.01563 1.21876.35937.79687.375 1.8125v.625q0 2.14062-1.0625 3.35937-1.0625 1.21875-3.01563 1.29687h-.40625v-1.40624l.375-.01563q2.20313-.09375 2.39063-2.0625zm-1.14063-.65625q.42188 0 .70313-.20312.29687-.21876.45312-.51563v-.6875q0-.85937-.32812-1.32813-.32813-.48437-.875-.48437-.51563 0-.84375.46875-.32813.45312-.32813 1.15625 0 .70313.3125 1.15625.32813.4375.90625.4375zm5.89063-.95312h.90625q.64062 0 .95312-.3125.3125-.32813.3125-.85938 0-.51562-.3125-.79688-.29687-.29687-.84375-.29687-.48437 0-.8125.26563-.32812.26562-.32812.6875h-1.6875q0-.65626.35937-1.1875.35938-.53126 1-.82813.65625-.3125 1.4375-.3125 1.34375 0 2.10938.65625.78125.64062.78125 1.78125 0 .59375-.35938 1.09375-.35937.48438-.9375.73438.71875.26562 1.0625.78124.35938.51563.35938 1.21876 0 1.14062-.82813 1.82812-.82812.6875-2.1875.6875-1.28125 0-2.09375-.67188-.8125-.6875-.8125-1.79687h1.6875q0 .48437.35938.79687.375.29688.89062.29688.60938 0 .95313-.3125.34375-.32812.34375-.85938 0-1.26562-1.40625-1.26562h-.90625z" fill="#000"/><path d="m161.25128 412.5h-5.84375v-1.15625l2.76563-2.95313q.5625-.60937.82812-1.07812.28125-.46875.28125-.875 0-.57812-.29687-.89062-.28126-.32813-.8125-.32813-.57813 0-.90626.39063-.32812.39062-.32812 1.04687h-1.70312q0-.78125.375-1.42187.375-.65626 1.04687-1.01563.6875-.375 1.54687-.375 1.3125 0 2.04688.64063.73438.625.73438 1.78124 0 .64063-.32813 1.29688-.32813.65625-1.125 1.53125l-1.9375 2.04687h3.65625zm6.95312-7.57812-3.29687 7.57812h-1.78125l3.29688-7.15625h-4.23438v-1.375h6.01562zm1.35938 6.75q0-.40626.26562-.65626.28126-.25.6875-.25.42188 0 .6875.25.28126.25.28126.65626 0 .39062-.28126.64062-.26562.25-.6875.25-.40624 0-.6875-.25-.26562-.25-.26562-.64062zm6.95312.82812h-1.6875v-6.53125l-2.01562.625v-1.375l3.53125-1.26563h.17187zm3.14063-4.20312.5-4.32813h4.78125v1.40625h-3.39062l-.21876 1.84375q.60938-.32813 1.28126-.32813 1.21874 0 1.90624.76563.70313.75.70313 2.10937 0 .82813-.35937 1.48438-.34376.64062-1 1.01562-.64063.35938-1.53126.35938-.76562 0-1.4375-.3125-.65624-.32812-1.04687-.89062-.375-.5625-.40625-1.29688h1.6875q.04688.53125.35938.82812.32812.29688.84374.29688.57813 0 .875-.40625.3125-.42187.3125-1.17187 0-.73438-.35937-1.10938-.34375-.39062-1-.39062-.60937 0-.98437.3125l-.15626.15624z" stroke="#5b9bd5" stroke-linecap="round" stroke-linejoin="round" stroke-width="3"/><path d="m161.25128 412.5h-5.84375v-1.15625l2.76563-2.95313q.5625-.60937.82812-1.07812.28125-.46875.28125-.875 0-.57812-.29687-.89062-.28126-.32813-.8125-.32813-.57813 0-.90626.39063-.32812.39062-.32812 1.04687h-1.70312q0-.78125.375-1.42187.375-.65626 1.04687-1.01563.6875-.375 1.54687-.375 1.3125 0 2.04688.64063.73438.625.73438 1.78124 0 .64063-.32813 1.29688-.32813.65625-1.125 1.53125l-1.9375 2.04687h3.65625zm6.95312-7.57812-3.29687 7.57812h-1.78125l3.29688-7.15625h-4.23438v-1.375h6.01562zm1.35938 6.75q0-.40626.26562-.65626.28126-.25.6875-.25.42188 0 .6875.25.28126.25.28126.65626 0 .39062-.28126.64062-.26562.25-.6875.25-.40624 0-.6875-.25-.26562-.25-.26562-.64062zm6.95312.82812h-1.6875v-6.53125l-2.01562.625v-1.375l3.53125-1.26563h.17187zm3.14063-4.20312.5-4.32813h4.78125v1.40625h-3.39062l-.21876 1.84375q.60938-.32813 1.28126-.32813 1.21874 0 1.90624.76563.70313.75.70313 2.10937 0 .82813-.35937 1.48438-.34376.64062-1 1.01562-.64063.35938-1.53126.35938-.76562 0-1.4375-.3125-.65624-.32812-1.04687-.89062-.375-.5625-.40625-1.29688h1.6875q.04688.53125.35938.82812.32812.29688.84374.29688.57813 0 .875-.40625.3125-.42187.3125-1.17187 0-.73438-.35937-1.10938-.34375-.39062-1-.39062-.60937 0-.98437.3125l-.15626.15624z" fill="#000"/><path d="m156.39038 468.5h-5.84375v-1.15625l2.76563-2.95313q.5625-.60937.82812-1.07812.28125-.46875.28125-.875 0-.57812-.29687-.89062-.28126-.32813-.8125-.32813-.57813 0-.90626.39063-.32812.39062-.32812 1.04687h-1.70312q0-.78125.375-1.42187.375-.65626 1.04687-1.01563.6875-.375 1.54687-.375 1.3125 0 2.04688.64063.73438.625.73438 1.78124 0 .64063-.32813 1.29688-.32813.65625-1.125 1.53125l-1.9375 2.04687h3.65625zm1.40625-4.20312.5-4.32813h4.78125v1.40625h-3.39062l-.21876 1.84375q.60938-.32813 1.28126-.32813 1.21874 0 1.90624.76563.70313.75.70313 2.10937 0 .82813-.35937 1.48438-.34376.64062-1 1.01562-.64063.35938-1.53126.35938-.76562 0-1.4375-.3125-.65624-.32812-1.04687-.89062-.375-.5625-.40625-1.29688h1.6875q.04688.53125.35938.82812.32812.29688.84374.29688.57813 0 .875-.40625.3125-.42187.3125-1.17187 0-.73438-.35937-1.10938-.34375-.39062-1-.39062-.60937 0-.98437.3125l-.15626.15624zm6.90625 3.375q0-.40626.26562-.65626.28126-.25.6875-.25.42188 0 .6875.25.28126.25.28126.65626 0 .39062-.28126.64062-.26562.25-.6875.25-.40624 0-.6875-.25-.26562-.25-.26562-.64062zm7.85938-2.39063h.96874v1.375h-.96874v1.84375h-1.70313v-1.84375h-3.48437l-.07813-1.0625 3.54687-5.625h1.71876zm-3.57813 0h1.875v-3l-.10937.1875zm9.53125-.1875q-.67188.64063-1.54688.64063-1.14062 0-1.82812-.76563-.67188-.78125-.67188-2.09375 0-.84375.35938-1.54688.375-.70312 1.03125-1.09374.65625-.39063 1.48437-.39063.84376 0 1.5.42187.65626.42188 1.01563 1.21876.35937.79687.375 1.8125v.625q0 2.14062-1.0625 3.35937-1.0625 1.21875-3.01563 1.29687h-.40624v-1.40624l.375-.01563q2.20312-.09375 2.39062-2.0625zm-1.14062-.65625q.42187 0 .70312-.20312.29688-.21876.45312-.51563v-.6875q0-.85937-.32812-1.32813-.32812-.48437-.875-.48437-.51562 0-.84375.46875-.32813.45312-.32813 1.15625 0 .70313.3125 1.15625.32813.4375.90626.4375z" stroke="#5b9bd5" stroke-linecap="round" stroke-linejoin="round" stroke-width="3"/><path d="m156.39038 468.5h-5.84375v-1.15625l2.76563-2.95313q.5625-.60937.82812-1.07812.28125-.46875.28125-.875 0-.57812-.29687-.89062-.28126-.32813-.8125-.32813-.57813 0-.90626.39063-.32812.39062-.32812 1.04687h-1.70312q0-.78125.375-1.42187.375-.65626 1.04687-1.01563.6875-.375 1.54687-.375 1.3125 0 2.04688.64063.73438.625.73438 1.78124 0 .64063-.32813 1.29688-.32813.65625-1.125 1.53125l-1.9375 2.04687h3.65625zm1.40625-4.20312.5-4.32813h4.78125v1.40625h-3.39062l-.21876 1.84375q.60938-.32813 1.28126-.32813 1.21874 0 1.90624.76563.70313.75.70313 2.10937 0 .82813-.35937 1.48438-.34376.64062-1 1.01562-.64063.35938-1.53126.35938-.76562 0-1.4375-.3125-.65624-.32812-1.04687-.89062-.375-.5625-.40625-1.29688h1.6875q.04688.53125.35938.82812.32812.29688.84374.29688.57813 0 .875-.40625.3125-.42187.3125-1.17187 0-.73438-.35937-1.10938-.34375-.39062-1-.39062-.60937 0-.98437.3125l-.15626.15624zm6.90625 3.375q0-.40626.26562-.65626.28126-.25.6875-.25.42188 0 .6875.25.28126.25.28126.65626 0 .39062-.28126.64062-.26562.25-.6875.25-.40624 0-.6875-.25-.26562-.25-.26562-.64062zm7.85938-2.39063h.96874v1.375h-.96874v1.84375h-1.70313v-1.84375h-3.48437l-.07813-1.0625 3.54687-5.625h1.71876zm-3.57813 0h1.875v-3l-.10937.1875zm9.53125-.1875q-.67188.64063-1.54688.64063-1.14062 0-1.82812-.76563-.67188-.78125-.67188-2.09375 0-.84375.35938-1.54688.375-.70312 1.03125-1.09374.65625-.39063 1.48437-.39063.84376 0 1.5.42187.65626.42188 1.01563 1.21876.35937.79687.375 1.8125v.625q0 2.14062-1.0625 3.35937-1.0625 1.21875-3.01563 1.29687h-.40624v-1.40624l.375-.01563q2.20312-.09375 2.39062-2.0625zm-1.14062-.65625q.42187 0 .70312-.20312.29688-.21876.45312-.51563v-.6875q0-.85937-.32812-1.32813-.32812-.48437-.875-.48437-.51562 0-.84375.46875-.32813.45312-.32813 1.15625 0 .70313.3125 1.15625.32813.4375.90626.4375z" fill="#000"/><path d="m144.20734 525.5h-5.84375v-1.15625l2.76562-2.95315q.5625-.60935.82813-1.0781.28125-.46875.28125-.875 0-.5781-.29688-.8906-.28125-.32815-.8125-.32815-.57812 0-.90625.39065-.32812.3906-.32812 1.04685h-1.70313q0-.78125.375-1.42185.375-.6563 1.04688-1.01565.6875-.375 1.54687-.375 1.3125 0 2.04688.64065.73437.625.73437 1.7812 0 .64065-.32812 1.2969-.32813.65625-1.125 1.53125l-1.9375 2.04685h3.65625zm5.26562 0h-1.6875v-6.53125l-2.01562.625v-1.375l3.53125-1.26565h.17187zm3.04688-.8281q0-.4063.26562-.6563.28125-.25.6875-.25.42188 0 .6875.25.28125.25.28125.6563 0 .3906-.28125.6406-.26562.25-.6875.25-.40625 0-.6875-.25-.26562-.25-.26562-.6406zm4.5625-4.1875h.90625q.64062 0 .95312-.3125.3125-.32815.3125-.8594 0-.5156-.3125-.7969-.29687-.29685-.84375-.29685-.48437 0-.8125.26565-.32812.2656-.32812.6875h-1.6875q0-.6563.35937-1.1875.35938-.5313 1-.82815.65625-.3125 1.4375-.3125 1.34375 0 2.10938.65625.78125.6406.78125 1.78125 0 .59375-.35938 1.09375-.35937.4844-.9375.7344.71875.2656 1.0625.7812.35938.51565.35938 1.2188 0 1.1406-.82813 1.8281-.82812.6875-2.1875.6875-1.28125 0-2.09375-.6719-.8125-.6875-.8125-1.79685h1.6875q0 .48435.35938.79685.375.2969.89062.2969.60938 0 .95313-.3125.34375-.3281.34375-.8594 0-1.2656-1.40625-1.2656h-.90625zm10.29687 1.79685h.96875v1.375h-.96875v1.84375h-1.70312v-1.84375h-3.48438l-.07812-1.0625 3.54687-5.625h1.71875zm-3.57812 0h1.875v-3l-.10938.1875z" stroke="#5b9bd5" stroke-linecap="round" stroke-linejoin="round" stroke-width="3"/><path d="m144.20734 525.5h-5.84375v-1.15625l2.76562-2.95315q.5625-.60935.82813-1.0781.28125-.46875.28125-.875 0-.5781-.29688-.8906-.28125-.32815-.8125-.32815-.57812 0-.90625.39065-.32812.3906-.32812 1.04685h-1.70313q0-.78125.375-1.42185.375-.6563 1.04688-1.01565.6875-.375 1.54687-.375 1.3125 0 2.04688.64065.73437.625.73437 1.7812 0 .64065-.32812 1.2969-.32813.65625-1.125 1.53125l-1.9375 2.04685h3.65625zm5.26562 0h-1.6875v-6.53125l-2.01562.625v-1.375l3.53125-1.26565h.17187zm3.04688-.8281q0-.4063.26562-.6563.28125-.25.6875-.25.42188 0 .6875.25.28125.25.28125.6563 0 .3906-.28125.6406-.26562.25-.6875.25-.40625 0-.6875-.25-.26562-.25-.26562-.6406zm4.5625-4.1875h.90625q.64062 0 .95312-.3125.3125-.32815.3125-.8594 0-.5156-.3125-.7969-.29687-.29685-.84375-.29685-.48437 0-.8125.26565-.32812.2656-.32812.6875h-1.6875q0-.6563.35937-1.1875.35938-.5313 1-.82815.65625-.3125 1.4375-.3125 1.34375 0 2.10938.65625.78125.6406.78125 1.78125 0 .59375-.35938 1.09375-.35937.4844-.9375.7344.71875.2656 1.0625.7812.35938.51565.35938 1.2188 0 1.1406-.82813 1.8281-.82812.6875-2.1875.6875-1.28125 0-2.09375-.6719-.8125-.6875-.8125-1.79685h1.6875q0 .48435.35938.79685.375.2969.89062.2969.60938 0 .95313-.3125.34375-.3281.34375-.8594 0-1.2656-1.40625-1.2656h-.90625zm10.29687 1.79685h.96875v1.375h-.96875v1.84375h-1.70312v-1.84375h-3.48438l-.07812-1.0625 3.54687-5.625h1.71875zm-3.57812 0h1.875v-3l-.10938.1875z" fill="#000"/><path d="m142.80197 582.5h-5.84375v-1.15625l2.76563-2.95315q.5625-.60935.82812-1.0781.28125-.46875.28125-.875 0-.5781-.29687-.8906-.28125-.32815-.8125-.32815-.57813 0-.90625.39065-.32813.3906-.32813 1.04685h-1.70312q0-.78125.375-1.42185.375-.6563 1.04687-1.01565.6875-.375 1.54688-.375 1.3125 0 2.04687.64065.73438.625.73438 1.7812 0 .64065-.32813 1.2969-.32812.65625-1.125 1.53125l-1.9375 2.04685h3.65625zm6.90625-3.53125q0 1.76565-.73437 2.71875-.73438.9375-2.14063.9375-1.40625 0-2.14062-.9219-.73438-.92185-.75-2.6406v-1.5781q0-1.7813.73437-2.70315.75-.9375 2.14063-.9375 1.39062 0 2.125.92185.75.9219.76562 2.64065zm-1.70312-1.71875q0-1.0625-.29688-1.5469-.28125-.48435-.89062-.48435-.59375 0-.89063.46875-.28125.4531-.29687 1.4375v2.0625q0 1.0469.28125 1.5625.28125.5.92187.5.60938 0 .89063-.4844.28125-.48435.28125-1.48435zm3.10937 4.4219q0-.4063.26563-.6563.28125-.25.6875-.25.42187 0 .6875.25.28125.25.28125.6563 0 .3906-.28125.6406-.26563.25-.6875.25-.40625 0-.6875-.25-.26563-.25-.26563-.6406zm8.40625-5.4375q0 .625-.3125 1.10935-.3125.46875-.85937.76565.625.29685.98437.8281.375.5156.375 1.21875 0 1.14065-.78125 1.8125-.76562.65625-2.10937.65625-1.32813 0-2.10938-.65625-.76562-.67185-.76562-1.8125 0-.70315.35937-1.23435.35938-.5313.98438-.8125-.54688-.2969-.85938-.76565-.3125-.48435-.3125-1.10935 0-1.0938.71875-1.7344.73438-.65625 1.98438-.65625 1.25 0 1.96875.65625.73437.6406.73437 1.7344zm-1.51562 3.79685q0-.54685-.32813-.875-.3125-.34375-.85937-.34375-.54688 0-.875.3281-.3125.32815-.3125.89065 0 .54685.3125.89065.32812.3281.89062.3281.54688 0 .85938-.3125.3125-.3281.3125-.90625zm-.17188-3.71875q0-.5-.26562-.7969-.26563-.29685-.75-.29685-.46875 0-.73438.29685-.26562.2813-.26562.7969 0 .5156.26562.8281.26563.3125.73438.3125.48437 0 .75-.3125.26562-.3125.26562-.8281zm7.71875-2.4375v1.40625h-.15625q-1.15625.01565-1.85937.59375-.6875.5781-.82813 1.6094.67188-.6875 1.70313-.6875 1.125 0 1.78125.79685.65625.79685.65625 2.09375 0 .8281-.35938 1.5-.35937.6719-1.03125 1.0625-.65625.375-1.48437.375-1.34375 0-2.17188-.9375-.82812-.9531-.82812-2.5156v-.6094q0-1.3906.51562-2.4531.53125-1.0625 1.5-1.64065.98438-.57815 2.28125-.59375zm-1.65625 4.28125q-.40625 0-.75.21875-.32812.2031-.48437.5625v.5156q0 .8438.32812 1.32815.34375.46875.95313.46875.54687 0 .875-.4219.34375-.4375.34375-1.125 0-.7031-.34375-1.125-.34375-.42185-.92188-.42185z" stroke="#5b9bd5" stroke-linecap="round" stroke-linejoin="round" stroke-width="3"/><path d="m142.80197 582.5h-5.84375v-1.15625l2.76563-2.95315q.5625-.60935.82812-1.0781.28125-.46875.28125-.875 0-.5781-.29687-.8906-.28125-.32815-.8125-.32815-.57813 0-.90625.39065-.32813.3906-.32813 1.04685h-1.70312q0-.78125.375-1.42185.375-.6563 1.04687-1.01565.6875-.375 1.54688-.375 1.3125 0 2.04687.64065.73438.625.73438 1.7812 0 .64065-.32813 1.2969-.32812.65625-1.125 1.53125l-1.9375 2.04685h3.65625zm6.90625-3.53125q0 1.76565-.73437 2.71875-.73438.9375-2.14063.9375-1.40625 0-2.14062-.9219-.73438-.92185-.75-2.6406v-1.5781q0-1.7813.73437-2.70315.75-.9375 2.14063-.9375 1.39062 0 2.125.92185.75.9219.76562 2.64065zm-1.70312-1.71875q0-1.0625-.29688-1.5469-.28125-.48435-.89062-.48435-.59375 0-.89063.46875-.28125.4531-.29687 1.4375v2.0625q0 1.0469.28125 1.5625.28125.5.92187.5.60938 0 .89063-.4844.28125-.48435.28125-1.48435zm3.10937 4.4219q0-.4063.26563-.6563.28125-.25.6875-.25.42187 0 .6875.25.28125.25.28125.6563 0 .3906-.28125.6406-.26563.25-.6875.25-.40625 0-.6875-.25-.26563-.25-.26563-.6406zm8.40625-5.4375q0 .625-.3125 1.10935-.3125.46875-.85937.76565.625.29685.98437.8281.375.5156.375 1.21875 0 1.14065-.78125 1.8125-.76562.65625-2.10937.65625-1.32813 0-2.10938-.65625-.76562-.67185-.76562-1.8125 0-.70315.35937-1.23435.35938-.5313.98438-.8125-.54688-.2969-.85938-.76565-.3125-.48435-.3125-1.10935 0-1.0938.71875-1.7344.73438-.65625 1.98438-.65625 1.25 0 1.96875.65625.73437.6406.73437 1.7344zm-1.51562 3.79685q0-.54685-.32813-.875-.3125-.34375-.85937-.34375-.54688 0-.875.3281-.3125.32815-.3125.89065 0 .54685.3125.89065.32812.3281.89062.3281.54688 0 .85938-.3125.3125-.3281.3125-.90625zm-.17188-3.71875q0-.5-.26562-.7969-.26563-.29685-.75-.29685-.46875 0-.73438.29685-.26562.2813-.26562.7969 0 .5156.26562.8281.26563.3125.73438.3125.48437 0 .75-.3125.26562-.3125.26562-.8281zm7.71875-2.4375v1.40625h-.15625q-1.15625.01565-1.85937.59375-.6875.5781-.82813 1.6094.67188-.6875 1.70313-.6875 1.125 0 1.78125.79685.65625.79685.65625 2.09375 0 .8281-.35938 1.5-.35937.6719-1.03125 1.0625-.65625.375-1.48437.375-1.34375 0-2.17188-.9375-.82812-.9531-.82812-2.5156v-.6094q0-1.3906.51562-2.4531.53125-1.0625 1.5-1.64065.98438-.57815 2.28125-.59375zm-1.65625 4.28125q-.40625 0-.75.21875-.32812.2031-.48437.5625v.5156q0 .8438.32812 1.32815.34375.46875.95313.46875.54687 0 .875-.4219.34375-.4375.34375-1.125 0-.7031-.34375-1.125-.34375-.42185-.92188-.42185z" fill="#000"/><path d="m504.57373 639.5h-1.6875v-6.53125l-2.01563.625v-1.375l3.53126-1.26565h.17187zm7.90627-3.21875h.9687v1.375h-.9687v1.84375h-1.70314v-1.84375h-3.48438l-.07812-1.0625 3.54687-5.625h1.71877zm-3.57814 0h1.875v-3l-.10938.1875zm11.35934-4.35935-3.29684 7.5781h-1.78126l3.2969-7.15625h-4.2344v-1.375h6.0156zm1.3594 6.75q0-.4063.2656-.6563.2813-.25.6875-.25.4219 0 .6875.25.2813.25.2813.6563 0 .3906-.2813.6406-.2656.25-.6875.25-.4062 0-.6875-.25-.2656-.25-.2656-.6406zm6.9531.8281h-1.6875v-6.53125l-2.0156.625v-1.375l3.53126-1.26565h.17184zm8.6875-7.5781-3.29684 7.5781h-1.78126l3.2969-7.15625h-4.2344v-1.375h6.0156z" stroke="#5b9bd5" stroke-linecap="round" stroke-linejoin="round" stroke-width="3"/><g fill="#000"><path d="m504.57373 639.5h-1.6875v-6.53125l-2.01563.625v-1.375l3.53126-1.26565h.17187zm7.90627-3.21875h.9687v1.375h-.9687v1.84375h-1.70314v-1.84375h-3.48438l-.07812-1.0625 3.54687-5.625h1.71877zm-3.57814 0h1.875v-3l-.10938.1875zm11.35934-4.35935-3.29684 7.5781h-1.78126l3.2969-7.15625h-4.2344v-1.375h6.0156zm1.3594 6.75q0-.4063.2656-.6563.2813-.25.6875-.25.4219 0 .6875.25.2813.25.2813.6563 0 .3906-.2813.6406-.2656.25-.6875.25-.4062 0-.6875-.25-.2656-.25-.2656-.6406zm6.9531.8281h-1.6875v-6.53125l-2.0156.625v-1.375l3.53126-1.26565h.17184zm8.6875-7.5781-3.29684 7.5781h-1.78126l3.2969-7.15625h-4.2344v-1.375h6.0156z"/><path d="m87.578125 70.033936h-3.078125l-.59375 1.765624h-1.859375l3.171875-8.53125h1.625l3.203125 8.53125h-1.875zm-2.609375-1.421876h2.140625l-1.078125-3.1875zm10.21875.953126q0-.5-.359375-.765626-.34375-.265624-1.265625-.5625-.90625-.296874-1.4375-.59375-1.453125-.78125-1.453125-2.109374 0-.6875.390625-1.234376.390625-.546874 1.109375-.84375.734375-.3125 1.640625-.3125.921875 0 1.625.34375.71875.328126 1.109375.9375.40625.59375.40625 1.359376h-1.765625q0-.578126-.375-.90625-.359375-.328126-1.03125-.328126-.640625 0-1 .28125-.359375.265626-.359375.703126 0 .421874.421875.703124.421875.28125 1.234375.53125 1.5.453126 2.1875 1.125.6875.65625.6875 1.65625 0 1.109376-.84375 1.75-.828125.625-2.25.625-.984375 0-1.796875-.359374-.8125-.375-1.234375-1-.421875-.625-.421875-1.453126h1.765625q0 1.421876 1.6875 1.421876.625 0 .96875-.25.359375-.265626.359375-.71875zm5.734375.125 1.921875-6.421876h1.96875l-2.984375 8.53125h-1.828125l-2.953125-8.53125h1.953125z"/><path d="m45.515625 127.13339h3.734375v1.40625h-5.484375v-8.53125h1.75zm6.921875 1.40625h-1.703125v-6.34375h1.703125zm-1.796875-7.98437q0-.375.25-.625.265625-.25.703125-.25.421875 0 .671875.25.265625.25.265625.625 0 .39062-.265625.64062-.25.23438-.6875.23438-.421875 0-.6875-.23438-.25-.25-.25-.64062zm5.921875 8.10937q-1.390625 0-2.265625-.85937-.875-.85938-.875-2.28125v-.17188q0-.95312.359375-1.70312.375-.75 1.046875-1.15625.6875-.40625 1.546875-.40625 1.3125 0 2.046875.82812.75.8125.75 2.3125v.6875h-4.03125q.078125.625.484375 1 .421875.375 1.0625.375.96875 0 1.515625-.70312l.84375.92187q-.390625.54688-1.046875.85938-.640625.29687-1.4375.29687zm-.1875-5.21875q-.5 0-.8125.34375-.3125.34375-.40625.96875h2.359375v-.125q-.015625-.5625-.3125-.875-.28125-.3125-.828125-.3125zm5.0625 5.09375h-1.703125v-9h1.703125zm6.921875-3.10937q0 1.51562-.65625 2.375-.640625.85937-1.8125.85937-1.03125 0-1.640625-.79687l-.078125.67187h-1.515625v-9h1.6875v3.23438q.59375-.6875 1.546875-.6875 1.15625 0 1.8125.85937.65625.84375.65625 2.39063zm-1.6875-.125q0-.96875-.3125-1.40625-.296875-.4375-.90625-.4375-.796875 0-1.109375.65625v2.5q.3125.67187 1.125.67187.828125 0 1.078125-.8125.125-.375.125-1.17187zm6.546875-1.51563q-.34375-.04687-.609375-.04687-.96875 0-1.265625.64062v4.15625h-1.6875v-6.34375h1.59375l.046875.76563q.515625-.875 1.40625-.875.28125 0 .53125.07812zm2.21875 4.75h-1.703125v-6.34375h1.703125zm-1.796875-7.98437q0-.375.25-.625.265625-.25.703125-.25.421875 0 .671875.25.265625.25.265625.625 0 .39062-.265625.64062-.25.23438-.6875.23438-.421875 0-.6875-.23438-.25-.25-.25-.64062zm5.03125.07812v1.5625h1.09375v1.25h-1.09375v3.15625q0 .35938.140625.51563.140625.14062.515625.14062.28125 0 .5-.03125v1.28125q-.5.15625-1.03125.15625-1.78125 0-1.8125-1.8125v-3.40625h-.921875v-1.25h.921875v-1.5625zm5.65625 7.90625q-.125-.23437-.171875-.5625-.609375.6875-1.59375.6875-.9375 0-1.546875-.54687-.609375-.54688-.609375-1.35938 0-1.01562.734375-1.54687.75-.54688 2.171875-.54688h.765625v-.35937q0-.4375-.21875-.70313-.21875-.26562-.71875-.26562-.421875 0-.671875.20312-.234375.20313-.234375.5625h-1.6875q0-.54687.328125-1.01562.34375-.46875.96875-.73438.625-.26562 1.390625-.26562 1.171875 0 1.859375.59375.6875.57812.6875 1.64062v2.75q.015625.90625.25 1.375v.09375zm-1.40625-1.17187q.375 0 .6875-.17188.328125-.17187.46875-.45312v-1.09375h-.625q-1.265625 0-1.359375.89062v.09375q0 .3125.21875.53125.21875.20313.609375.20313zm2.34375-6.375h-4.046875v-.96875h4.046875zm2.9375 1.20312.0625.73438q.671875-.84375 1.8125-.84375 1.015625 0 1.5.59375.5.57812.515625 1.76562v4.09375h-1.703125v-4.0625q0-.53125-.234375-.76562-.234375-.25-.78125-.25-.703125 0-1.0625.60937v4.46875h-1.703125v-6.34375zm7.234375 6.34375h-1.703125v-6.34375h1.703125zm-1.796875-7.98437q0-.375.25-.625.265625-.25.703125-.25.421875 0 .671875.25.265625.25.265625.625 0 .39062-.265625.64062-.25.23438-.6875.23438-.421875 0-.6875-.23438-.25-.25-.25-.64062zm4.796875 1.64062v6.6875q0 1.04688-.5625 1.625-.546875.59375-1.59375.59375-.4375 0-.84375-.09375v-1.34375q.3125.04688.53125.04688.78125 0 .78125-.8125v-6.70313zm-1.828125-1.64062q0-.375.25-.625.265625-.25.703125-.25.4375 0 .6875.25.265625.25.265625.625 0 .39062-.265625.64062-.265625.23438-.703125.23438-.421875 0-.6875-.23438-.25-.25-.25-.64062zm6.71875 7.98437q-.125-.23437-.171875-.5625-.609375.6875-1.59375.6875-.9375 0-1.546875-.54687-.609375-.54688-.609375-1.35938 0-1.01562.734375-1.54687.75-.54688 2.171875-.54688h.765625v-.35937q0-.4375-.21875-.70313-.21875-.26562-.71875-.26562-.421875 0-.671875.20312-.234375.20313-.234375.5625h-1.6875q0-.54687.328125-1.01562.34375-.46875.96875-.73438.625-.26562 1.390625-.26562 1.171875 0 1.859375.59375.6875.57812.6875 1.64062v2.75q.015625.90625.25 1.375v.09375zm-1.40625-1.17187q.375 0 .6875-.17188.328125-.17187.46875-.45312v-1.09375h-.625q-1.265625 0-1.359375.89062v.09375q0 .3125.21875.53125.21875.20313.609375.20313z"/><path d="m68.515625 183.87349h3.734375v1.40625h-5.484375v-8.53125h1.75zm6.921875 1.40625h-1.703125v-6.34375h1.703125zm-1.796875-7.98438q0-.375.25-.625.265625-.25.703125-.25.421875 0 .671875.25.265625.25.265625.625 0 .39063-.265625.64063-.25.23437-.6875.23437-.421875 0-.6875-.23437-.25-.25-.25-.64063zm5.921875 8.10938q-1.390625 0-2.265625-.85938-.875-.85937-.875-2.28125v-.17187q0-.95313.359375-1.70313.375-.75 1.046875-1.15625.6875-.40625 1.546875-.40625 1.3125 0 2.046875.82813.75.8125.75 2.3125v.6875h-4.03125q.078125.625.484375 1 .421875.375 1.0625.375.96875 0 1.515625-.70313l.84375.92188q-.390625.54687-1.046875.85937-.640625.29688-1.4375.29688zm-.1875-5.21875q-.5 0-.8125.34375-.3125.34375-.40625.96875h2.359375v-.125q-.015625-.5625-.3125-.875-.28125-.3125-.828125-.3125zm5.296875-2.8125v1.5625h1.09375v1.25h-1.09375v3.15625q0 .35937.140625.51562.140625.14063.515625.14063.28125 0 .5-.03125v1.28125q-.5.15625-1.03125.15625-1.78125 0-1.8125-1.8125v-3.40625h-.921875v-1.25h.921875v-1.5625zm5.78125 7.26562q-.625.76563-1.734375.76563-1.03125 0-1.5625-.59375-.53125-.59375-.546875-1.71875v-4.15625h1.6875v4.09375q0 1 .90625 1 .859375 0 1.1875-.60938v-4.48437h1.703125v6.34375h-1.59375zm5.578125-1.42187 1.171875-4.28125h1.765625l-2.140625 6.34375h-1.609375l-2.140625-6.34375h1.765625zm7.296875 2.0625q-.125-.23438-.171875-.5625-.609375.6875-1.59375.6875-.9375 0-1.546875-.54688-.609375-.54687-.609375-1.35937 0-1.01563.734375-1.54688.75-.54687 2.171875-.54687h.765625v-.35938q0-.4375-.21875-.70312-.21875-.26563-.71875-.26563-.421875 0-.671875.20313-.234375.20312-.234375.5625h-1.6875q0-.54688.328125-1.01563.34375-.46875.96875-.73437.625-.26563 1.390625-.26563 1.171875 0 1.859375.59375.6875.57813.6875 1.64063v2.75q.015625.90625.25 1.375v.09375zm-1.40625-1.17188q.375 0 .6875-.17187.328125-.17188.46875-.45313v-1.09375h-.625q-1.265625 0-1.359375.89063v.09375q0 .3125.21875.53125.21875.20312.609375.20312z"/><path d="m76.921875 239.91045 1.921875-6.42188h1.96875l-2.984375 8.53125h-1.828125l-2.953125-8.53125h1.953125zm8.40625 2.10937q-.125-.23437-.171875-.5625-.609375.6875-1.59375.6875-.9375 0-1.546875-.54687-.609375-.54688-.609375-1.35938 0-1.01562.734375-1.54687.75-.54688 2.171875-.54688h.765625v-.35937q0-.4375-.21875-.70313-.21875-.26562-.71875-.26562-.421875 0-.671875.20312-.234375.20313-.234375.5625h-1.6875q0-.54687.328125-1.01562.34375-.46875.96875-.73438.625-.26562 1.390625-.26562 1.171875 0 1.859375.59375.6875.57812.6875 1.64062v2.75q.015625.90625.25 1.375v.09375zm-1.40625-1.17187q.375 0 .6875-.17188.328125-.17187.46875-.45312v-1.09375h-.625q-1.265625 0-1.359375.89062v.09375q0 .3125.21875.53125.21875.20313.609375.20313zm2.34375-6.375h-4.046875v-.96875h4.046875zm4.015625 6.29687q.46875 0 .765625-.25.296875-.26562.3125-.6875h1.578125q0 .64063-.34375 1.1875-.34375.53125-.953125.82813-.59375.29687-1.328125.29687-1.359375 0-2.140625-.85937-.78125-.875-.78125-2.40625v-.10938q0-1.46875.78125-2.32812.78125-.875 2.140625-.875 1.1875 0 1.90625.67187.71875.67188.71875 1.79688h-1.578125q-.015625-.48438-.3125-.79688-.296875-.3125-.765625-.3125-.59375 0-.90625.4375-.296875.4375-.296875 1.39063v.1875q0 .96875.296875 1.40625.296875.42187.90625.42187zm5.15625 1.25h-1.703125v-6.34375h1.703125zm-1.796875-7.98437q0-.375.25-.625.265625-.25.703125-.25.421875 0 .671875.25.265625.25.265625.625 0 .39062-.265625.64062-.25.23438-.6875.23438-.421875 0-.6875-.23438-.25-.25-.25-.64062zm4.796875 1.64062v6.6875q0 1.04688-.5625 1.625-.546875.59375-1.59375.59375-.4375 0-.84375-.09375v-1.34375q.3125.04688.53125.04688.78125 0 .78125-.8125v-6.70313zm-1.828125-1.64062q0-.375.25-.625.265625-.25.703125-.25.4375 0 .6875.25.265625.25.265625.625 0 .39062-.265625.64062-.265625.23438-.703125.23438-.421875 0-.6875-.23438-.25-.25-.25-.64062zm6.71875 7.98437q-.125-.23437-.171875-.5625-.609375.6875-1.59375.6875-.9375 0-1.546875-.54687-.609375-.54688-.609375-1.35938 0-1.01562.734375-1.54687.75-.54688 2.171875-.54688h.765625v-.35937q0-.4375-.21875-.70313-.21875-.26562-.71875-.26562-.421875 0-.671875.20312-.234375.20313-.234375.5625h-1.6875q0-.54687.328125-1.01562.34375-.46875.96875-.73438.625-.26562 1.390625-.26562 1.171875 0 1.859375.59375.6875.57812.6875 1.64062v2.75q.015625.90625.25 1.375v.09375zm-1.40625-1.17187q.375 0 .6875-.17188.328125-.17187.46875-.45312v-1.09375h-.625q-1.265625 0-1.359375.89062v.09375q0 .3125.21875.53125.21875.20313.609375.20313z"/><path d="m62.625 297.35367h4.296875v1.40625h-6.5v-1.03125l4.21875-6.07813h-4.203125v-1.42187h6.390625v1zm7.40625-.65625 1.171875-4.28125h1.765625l-2.140625 6.34375h-1.609375l-2.140625-6.34375h1.765625zm5.40625 2.0625h-1.703125v-6.34375h1.703125zm-1.796875-7.98438q0-.375.25-.625.265625-.25.703125-.25.421875 0 .671875.25.265625.25.265625.625 0 .39063-.265625.64063-.25.23437-.6875.23437-.421875 0-.6875-.23437-.25-.25-.25-.64063zm5.921875 8.10938q-1.390625 0-2.265625-.85938-.875-.85937-.875-2.28124v-.17188q0-.95312.359375-1.70312.375-.75 1.046875-1.15626.6875-.40624 1.546875-.40624 1.3125 0 2.046875.82812.75.8125.75 2.3125v.6875h-4.03125q.078125.625.484375 1 .421875.375 1.0625.375.96875 0 1.515625-.70312l.84375.92187q-.390625.54687-1.046875.85937-.640625.29688-1.4375.29688zm-.1875-5.21875q-.5 0-.8125.34375-.3125.34375-.40625.96875h2.359375v-.125q-.015625-.5625-.3125-.875-.28125-.3125-.828125-.3125zm3.015625 1.875q0-1.48437.65625-2.35937.671875-.875 1.828125-.875.921875 0 1.53125.6875v-3.23438h1.6875v9h-1.515625l-.09375-.67188q-.625.79688-1.625.79688-1.125 0-1.796875-.875-.671875-.89062-.671875-2.46875zm1.6875.125q0 .89063.3125 1.375.3125.46875.90625.46875.78125 0 1.109375-.67188v-2.5q-.328125-.65624-1.09375-.65624-1.234375 0-1.234375 1.98437zm9.140625-1.65625q-.34375-.04688-.609375-.04688-.96875 0-1.265625.64063v4.15625h-1.6875v-6.34375h1.59375l.046875.76563q.515625-.875 1.40625-.875.28125 0 .53125.07812zm2.21875 4.75h-1.703125v-6.34375h1.703125zm-1.796875-7.98438q0-.375.25-.625.265625-.25.703125-.25.421875 0 .671875.25.265625.25.265625.625 0 .39063-.265625.64063-.25.23437-.6875.23437-.421875 0-.6875-.23437-.25-.25-.25-.64063zm4.796875 1.64063v6.6875q0 1.04687-.5625 1.625-.546875.59375-1.59375.59375-.4375 0-.84375-.09375v-1.34375q.3125.04688.53125.04688.78125 0 .78125-.8125v-6.70313zm-1.828125-1.64063q0-.375.25-.625.265625-.25.703125-.25.4375 0 .6875.25.265625.25.265625.625 0 .39063-.265625.64063-.265625.23437-.703125.23437-.421875 0-.6875-.23437-.25-.25-.25-.64063zm6.71875 7.98438q-.125-.23438-.171875-.5625-.609375.6875-1.59375.6875-.9375 0-1.546875-.54688-.609375-.54687-.609375-1.35937 0-1.01563.734375-1.54687.75-.54688 2.171875-.54688h.765625v-.35938q0-.4375-.21875-.70312-.21875-.26562-.71875-.26562-.421875 0-.671875.20312-.234375.20312-.234375.5625h-1.6875q0-.54688.328125-1.01562.34375-.46876.96875-.73438.625-.26562 1.390625-.26562 1.171875 0 1.859375.59374.6875.57813.6875 1.64063v2.75q.015625.90625.25 1.375v.09375zm-1.40625-1.17188q.375 0 .6875-.17187.328125-.17187.46875-.45313v-1.09374h-.625q-1.265625 0-1.359375.89062v.09375q0 .3125.21875.53125.21875.20312.609375.20312z"/><path d="m62.703125 355.5h-1.765625l-3.421875-5.60938v5.60938h-1.75v-8.53125h1.75l3.4375 5.625v-5.625h1.75zm.6875-3.23438q0-.9375.359375-1.67187.359375-.75 1.046875-1.14063.6875-.40624 1.578125-.40624 1.296875 0 2.09375.78124.8125.78126.90625 2.125l.015625.4375q0 1.46876-.8125 2.35938-.8125.875-2.1875.875-1.375 0-2.1875-.875-.8125-.89062-.8125-2.40625zm1.6875.125q0 .90626.34375 1.39063.34375.46875.96875.46875.625 0 .96875-.46875.34375-.46875.34375-1.51563 0-.875-.34375-1.35937-.34375-.5-.984375-.5-.609375 0-.953125.48437-.34375.48438-.34375 1.5zm9.140625-1.64062q-.34375-.04688-.609375-.04688-.96875 0-1.265625.64063v4.15625h-1.6875v-6.34375h1.59375l.046875.76563q.515625-.875 1.40625-.875.28125 0 .53125.07812zm2.8125 2.6875 1.171875-4.28125h1.765625l-2.140625 6.34375h-1.609375l-2.140625-6.34375h1.765625zm6.53125 2.1875q-1.390625 0-2.265625-.85938-.875-.85937-.875-2.28124v-.17188q0-.95312.359375-1.70312.375-.75 1.046875-1.15626.6875-.40624 1.546875-.40624 1.3125 0 2.046875.82812.75.8125.75 2.3125v.6875h-4.03125q.078125.625.484375 1 .421875.375 1.0625.375.96875 0 1.515625-.70312l.84375.92187q-.390625.54687-1.046875.85937-.640625.29688-1.4375.29688zm-.1875-5.21875q-.5 0-.8125.34375-.3125.34375-.40625.96875h2.359375v-.125q-.015625-.5625-.3125-.875-.28125-.3125-.828125-.3125zm1.84375-2.45313h-4.046875v-.96874h4.046875zm1.1875 4.32813q0-1.45313.6875-2.34375.703125-.89062 1.875-.89062 1.046875 0 1.625.70312l.078125-.59375h1.53125v6.125q0 .84375-.390625 1.45313-.375.625-1.0625.9375-.671875.32812-1.59375.32812-.703125 0-1.375-.28125-.65625-.28125-.984375-.71875l.75-1.03125q.625.70313 1.53125.70313.671875 0 1.046875-.35938.375-.35938.375-1.01562v-.34376q-.578125.67188-1.546875.67188-1.140625 0-1.84375-.89062-.703125-.90626-.703125-2.375zm1.6875.125q0 .85937.34375 1.35937.359375.48438.953125.48438.78125 0 1.109375-.57812v-2.67188q-.34375-.57812-1.09375-.57812-.609375 0-.96875.5-.34375.5-.34375 1.48437zm1.3125-6.98437.875.45312q-.390625.6875-.390625 1.45312l-.015625.79688h-1.3125v-.82812q0-.57813.234375-1.09376.234375-.53124.609375-.78124zm6.03125 10.07812h-1.703125v-6.34375h1.703125zm-1.796875-7.98438q0-.375.25-.625.265625-.25.703125-.25.421875 0 .671875.25.265625.25.265625.625 0 .39063-.265625.64063-.25.23437-.6875.23437-.421875 0-.6875-.23437-.25-.25-.25-.64063zm4.796875 1.64063v6.6875q0 1.04687-.5625 1.625-.546875.59375-1.59375.59375-.4375 0-.84375-.09375v-1.34375q.3125.04688.53125.04688.78125 0 .78125-.8125v-6.70313zm-1.828125-1.64063q0-.375.25-.625.265625-.25.703125-.25.4375 0 .6875.25.265625.25.265625.625 0 .39063-.265625.64063-.265625.23437-.703125.23437-.421875 0-.6875-.23437-.25-.25-.25-.64063zm6.71875 7.98438q-.125-.23438-.171875-.5625-.609375.6875-1.59375.6875-.9375 0-1.546875-.54688-.609375-.54687-.609375-1.35937 0-1.01563.734375-1.54687.75-.54688 2.171875-.54688h.765625v-.35938q0-.4375-.21875-.70312-.21875-.26562-.71875-.26562-.421875 0-.671875.20312-.234375.20312-.234375.5625h-1.6875q0-.54688.328125-1.01562.34375-.46876.96875-.73438.625-.26562 1.390625-.26562 1.171875 0 1.859375.59374.6875.57813.6875 1.64063v2.75q.015625.90625.25 1.375v.09375zm-1.40625-1.17188q.375 0 .6875-.17187.328125-.17187.46875-.45313v-1.09374h-.625q-1.265625 0-1.359375.89062v.09375q0 .3125.21875.53125.21875.20312.609375.20312z"/><path d="m64.625 412.24008h-1.75v-8.53125h1.75zm1.78125-3.21875q0-1.45313.6875-2.34375.703125-.89062 1.875-.89062 1.046875 0 1.625.70312l.078125-.59375h1.53125v6.125q0 .84375-.390625 1.45313-.375.625-1.0625.9375-.671875.32812-1.59375.32812-.703125 0-1.375-.28125-.65625-.28125-.984375-.71875l.75-1.03125q.625.70313 1.53125.70313.671875 0 1.046875-.35938.375-.35938.375-1.01562v-.34376q-.578125.67188-1.546875.67188-1.140625 0-1.84375-.89062-.703125-.90626-.703125-2.375zm1.6875.125q0 .85937.34375 1.35937.359375.48438.953125.48438.78125 0 1.109375-.57812v-2.67188q-.34375-.57812-1.09375-.57812-.609375 0-.96875.5-.34375.5-.34375 1.48437zm9.234375 3.09375q-.125-.23438-.171875-.5625-.609375.6875-1.59375.6875-.9375 0-1.546875-.54688-.609375-.54687-.609375-1.35937 0-1.01563.734375-1.54687.75-.54688 2.171875-.54688h.765625v-.35938q0-.4375-.21875-.70312-.21875-.26562-.71875-.26562-.421875 0-.671875.20312-.234375.20312-.234375.5625h-1.6875q0-.54688.328125-1.01562.34375-.46876.96875-.73438.625-.26562 1.390625-.26562 1.171875 0 1.859375.59374.6875.57813.6875 1.64063v2.75q.015625.90625.25 1.375v.09375zm-1.40625-1.17188q.375 0 .6875-.17187.328125-.17187.46875-.45313v-1.09374h-.625q-1.265625 0-1.359375.89062v.09375q0 .3125.21875.53125.21875.20312.609375.20312zm7.53125.53126q-.625.76562-1.734375.76562-1.03125 0-1.5625-.59375-.53125-.59375-.546875-1.71875v-4.15625h1.6875v4.09375q0 1 .90625 1 .859375 0 1.1875-.60938v-4.48437h1.703125v6.34375h-1.59375zm4.75-5.70313.0625.73437q.671875-.84374 1.8125-.84374 1.015625 0 1.5.59374.5.57813.515625 1.76563v4.09375h-1.703125v-4.0625q0-.53125-.234375-.76562-.234375-.25-.78125-.25-.703125 0-1.0625.60937v4.46875h-1.703125v-6.34375zm7.234375 6.34375h-1.703125v-6.34375h1.703125zm-1.796875-7.98438q0-.375.25-.625.265625-.25.703125-.25.421875 0 .671875.25.265625.25.265625.625 0 .39063-.265625.64063-.25.23437-.6875.23437-.421875 0-.6875-.23437-.25-.25-.25-.64063zm4.796875 1.64063v6.6875q0 1.04687-.5625 1.625-.546875.59375-1.59375.59375-.4375 0-.84375-.09375v-1.34375q.3125.04688.53125.04688.78125 0 .78125-.8125v-6.70313zm-1.828125-1.64063q0-.375.25-.625.265625-.25.703125-.25.4375 0 .6875.25.265625.25.265625.625 0 .39063-.265625.64063-.265625.23437-.703125.23437-.421875 0-.6875-.23437-.25-.25-.25-.64063zm6.71875 7.98438q-.125-.23438-.171875-.5625-.609375.6875-1.59375.6875-.9375 0-1.546875-.54688-.609375-.54687-.609375-1.35937 0-1.01563.734375-1.54687.75-.54688 2.171875-.54688h.765625v-.35938q0-.4375-.21875-.70312-.21875-.26562-.71875-.26562-.421875 0-.671875.20312-.234375.20312-.234375.5625h-1.6875q0-.54688.328125-1.01562.34375-.46876.96875-.73438.625-.26562 1.390625-.26562 1.171875 0 1.859375.59374.6875.57813.6875 1.64063v2.75q.015625.90625.25 1.375v.09375zm-1.40625-1.17188q.375 0 .6875-.17187.328125-.17187.46875-.45313v-1.09374h-.625q-1.265625 0-1.359375.89062v.09375q0 .3125.21875.53125.21875.20312.609375.20312z"/><path d="m72.765625 468.98016v-8.53126h2.625q1.125 0 2 .51564.890625.5 1.390625 1.4375.5.92186.5 2.125v.39062q0 1.1875-.484375 2.10938-.484375.92186-1.375 1.4375-.890625.51562-2.015625.51562zm1.75-7.10936v5.7031h.859375q1.03125 0 1.5625-.67186.546875-.6875.5625-1.9375v-.45314q0-1.29686-.546875-1.96874-.53125-.67186-1.5625-.67186zm9.8125 7.10936q-.125-.23436-.171875-.5625-.609375.6875-1.59375.6875-.9375 0-1.546875-.54686-.609375-.5469-.609375-1.3594 0-1.0156.734375-1.54686.75-.54688 2.171875-.54688h.765625v-.35936q0-.4375-.21875-.70314-.21875-.26562-.71875-.26562-.421875 0-.671875.20312-.234375.20314-.234375.5625h-1.6875q0-.54686.328125-1.01562.34375-.46874.96875-.73438.625-.26562 1.390625-.26562 1.171875 0 1.859375.59376.6875.5781.6875 1.6406v2.75q.015625.90626.25 1.375v.09376zm-1.40625-1.17186q.375 0 .6875-.1719.328125-.17186.46875-.4531v-1.09376h-.625q-1.265625 0-1.359375.89062v.09374q0 .3125.21875.53126.21875.20314.609375.20314zm2.34375-6.375h-4.046875v-.96876h4.046875zm2.9375 1.2031.0625.7344q.671875-.84376 1.8125-.84376 1.015625 0 1.5.59376.5.5781.515625 1.7656v4.09376h-1.703125v-4.0625q0-.53126-.234375-.76562-.234375-.25-.78125-.25-.703125 0-1.0625.60936v4.46876h-1.703125v-6.34376zm7.234375 6.34376h-1.703125v-6.34376h1.703125zm-1.796875-7.98436q0-.375.25-.625.265625-.25.703125-.25.421875 0 .671875.25.265625.25.265625.625 0 .3906-.265625.6406-.25.2344-.6875.2344-.421875 0-.6875-.2344-.25-.25-.25-.6406zm4.796875 1.6406v6.6875q0 1.0469-.5625 1.625-.546875.59376-1.59375.59376-.4375 0-.84375-.09376v-1.34374q.3125.04688.53125.04688.78125 0 .78125-.8125v-6.70314zm-1.828125-1.6406q0-.375.25-.625.265625-.25.703125-.25.4375 0 .6875.25.265625.25.265625.625 0 .3906-.265625.6406-.265625.2344-.703125.2344-.421875 0-.6875-.2344-.25-.25-.25-.6406zm6.71875 7.98436q-.125-.23436-.171875-.5625-.609375.6875-1.59375.6875-.9375 0-1.546875-.54686-.609375-.5469-.609375-1.3594 0-1.0156.734375-1.54686.75-.54688 2.171875-.54688h.765625v-.35936q0-.4375-.21875-.70314-.21875-.26562-.71875-.26562-.421875 0-.671875.20312-.234375.20314-.234375.5625h-1.6875q0-.54686.328125-1.01562.34375-.46874.96875-.73438.625-.26562 1.390625-.26562 1.171875 0 1.859375.59376.6875.5781.6875 1.6406v2.75q.015625.90626.25 1.375v.09376zm-1.40625-1.17186q.375 0 .6875-.1719.328125-.17186.46875-.4531v-1.09376h-.625q-1.265625 0-1.359375.89062v.09374q0 .3125.21875.53126.21875.20314.609375.20314z"/><path d="m77.515625 522.7203v3h-1.75v-8.5313h3.328125q.953125 0 1.6875.3594.734375.34375 1.125 1 .390625.6406.390625 1.46875 0 1.25-.859375 1.98435-.859375.7188-2.375.7188zm0-1.4375h1.578125q.6875 0 1.046875-.32815.375-.32815.375-.9375 0-.625-.375-1-.359375-.39065-1.015625-.40625h-1.609375zm5.875 1.2031q0-.9375.359375-1.6719.359375-.75 1.046875-1.1406.6875-.40625 1.578125-.40625 1.296875 0 2.09375.78125.8125.78125.90625 2.125l.015625.4375q0 1.46875-.8125 2.3594-.8125.875-2.1875.875-1.375 0-2.1875-.875-.8125-.89065-.8125-2.4063zm1.6875.125q0 .90625.34375 1.3906.34375.4688.96875.4688.625 0 .96875-.4688.34375-.4687.34375-1.5156 0-.875-.34375-1.3594-.34375-.5-.984375-.5-.609375 0-.953125.4844-.34375.4844-.34375 1.5zm7.359375 3.1094h-1.703125v-9h1.703125zm3 0h-1.703125v-6.3438h1.703125zm-1.796875-7.9844q0-.375.25-.625.265625-.25.703125-.25.421875 0 .671875.25.265625.25.265625.625 0 .3906-.265625.6406-.25.2344-.6875.2344-.421875 0-.6875-.2344-.25-.25-.25-.6406zm4.796875 1.6406v6.6875q0 1.0469-.5625 1.625-.546875.5938-1.59375.5938-.4375 0-.84375-.0938v-1.3437q.3125.04685.53125.04685.78125 0 .78125-.8125v-6.70315zm-1.828125-1.6406q0-.375.25-.625.265625-.25.703125-.25.4375 0 .6875.25.265625.25.265625.625 0 .3906-.265625.6406-.265625.2344-.703125.2344-.421875 0-.6875-.2344-.25-.25-.25-.6406zm6.71875 7.9844q-.125-.2344-.171875-.5625-.609375.6875-1.59375.6875-.9375 0-1.546875-.5469-.609375-.5469-.609375-1.3594 0-1.0156.734375-1.54685.75-.54685 2.171875-.54685h.765625v-.3594q0-.4375-.21875-.7031-.21875-.26565-.71875-.26565-.421875 0-.671875.20315-.234375.2031-.234375.5625h-1.6875q0-.5469.328125-1.01565.34375-.46875.96875-.73435.625-.26565 1.390625-.26565 1.171875 0 1.859375.59375.6875.5781.6875 1.6406v2.75q.015625.9063.25 1.375v.0938zm-1.40625-1.1719q.375 0 .6875-.1719.328125-.17185.46875-.4531v-1.09375h-.625q-1.265625 0-1.359375.89065v.0937q0 .3125.21875.5313.21875.2031.609375.2031z"/><path d="m55.703125 582.4603h-1.765625l-3.421875-5.60935v5.60935h-1.75v-8.5312h1.75l3.4375 5.625v-5.625h1.75zm2.78125 0h-1.703125v-6.3437h1.703125zm1.203125-7.4531h-4.046875v-.96875h4.046875zm-.296875 4.2344q0-1.4844.65625-2.3594.671875-.875 1.828125-.875.921875 0 1.53125.6875v-3.2344h1.6875v9h-1.515625l-.09375-.67185q-.625.79685-1.625.79685-1.125 0-1.796875-.875-.671875-.8906-.671875-2.4687zm1.6875.125q0 .8906.3125 1.375.3125.4687.90625.4687.78125 0 1.109375-.67185v-2.5q-.328125-.65625-1.09375-.65625-1.234375 0-1.234375 1.9844zm8.484375 3.2187q-1.390625 0-2.265625-.85935-.875-.85935-.875-2.28125v-.1719q0-.9531.359375-1.7031.375-.75 1.046875-1.15625.6875-.40625 1.546875-.40625 1.3125 0 2.046875.8281.75.8125.75 2.3125v.6875h-4.03125q.078125.625.484375 1 .421875.375 1.0625.375.96875 0 1.515625-.7031l.84375.9219q-.390625.54685-1.046875.85935-.640625.29685-1.4375.29685zm-.1875-5.2187q-.5 0-.8125.3437-.3125.3438-.40625.9688h2.359375v-.125q-.015625-.5625-.3125-.875-.28125-.3125-.828125-.3125zm6.84375.3437q-.34375-.04685-.609375-.04685-.96875 0-1.265625.64065v4.1562h-1.6875v-6.3437h1.59375l.046875.7656q.515625-.875 1.40625-.875.28125 0 .53125.0781zm2.21875 4.75h-1.703125v-9h1.703125zm4.890625 0q-.125-.23435-.171875-.5625-.609375.6875-1.59375.6875-.9375 0-1.546875-.54685-.609375-.54685-.609375-1.35935 0-1.01565.734375-1.5469.75-.5469 2.171875-.5469h.765625v-.35935q0-.4375-.21875-.70315-.21875-.2656-.71875-.2656-.421875 0-.671875.2031-.234375.20315-.234375.5625h-1.6875q0-.54685.328125-1.0156.34375-.46875.96875-.7344.625-.2656 1.390625-.2656 1.171875 0 1.859375.59375.6875.57815.6875 1.64065v2.75q.015625.9062.25 1.375v.0937zm-1.40625-1.17185q.375 0 .6875-.17185.328125-.1719.46875-.45315v-1.09375h-.625q-1.265625 0-1.359375.8906v.0938q0 .3125.21875.5312.21875.20315.609375.20315zm5.28125-5.17185.0625.73435q.671875-.84375 1.8125-.84375 1.015625 0 1.5.59375.5.57815.515625 1.76565v4.0937h-1.703125v-4.0625q0-.5312-.234375-.7656-.234375-.25-.78125-.25-.703125 0-1.0625.6094v4.4687h-1.703125v-6.3437zm5.1875 3.125q0-1.4844.65625-2.3594.671875-.875 1.828125-.875.921875 0 1.53125.6875v-3.2344h1.6875v9h-1.515625l-.09375-.67185q-.625.79685-1.625.79685-1.125 0-1.796875-.875-.671875-.8906-.671875-2.4687zm1.6875.125q0 .8906.3125 1.375.3125.4687.90625.4687.78125 0 1.109375-.67185v-2.5q-.328125-.65625-1.09375-.65625-1.234375 0-1.234375 1.9844zm8.484375 3.2187q-1.390625 0-2.265625-.85935-.875-.85935-.875-2.28125v-.1719q0-.9531.359375-1.7031.375-.75 1.046875-1.15625.6875-.40625 1.546875-.40625 1.3125 0 2.046875.8281.75.8125.75 2.3125v.6875h-4.03125q.078125.625.484375 1 .421875.375 1.0625.375.96875 0 1.515625-.7031l.84375.9219q-.390625.54685-1.046875.85935-.640625.29685-1.4375.29685zm-.1875-5.2187q-.5 0-.8125.3437-.3125.3438-.40625.9688h2.359375v-.125q-.015625-.5625-.3125-.875-.28125-.3125-.828125-.3125z"/><path d="m31.515625 636.20044v3h-1.75v-8.53124h3.328125q.953125 0 1.6875.35936.734375.34374 1.125 1 .390625.64064.390625 1.46874 0 1.25-.859375 1.9844-.859375.71874-2.375.71874zm0-1.4375h1.578125q.6875 0 1.046875-.32814.375-.3281.375-.9375 0-.625-.375-1-.359375-.3906-1.015625-.40624h-1.609375zm9.8125 4.4375q-.125-.23438-.171875-.5625-.609375.6875-1.59375.6875-.9375 0-1.546875-.54688-.609375-.54686-.609375-1.35936 0-1.01564.734375-1.5469.75-.54686 2.171875-.54686h.765625v-.35938q0-.4375-.21875-.70312-.21875-.26564-.71875-.26564-.421875 0-.671875.20314-.234375.20312-.234375.5625h-1.6875q0-.54688.328125-1.01564.34375-.46874.96875-.73436.625-.26564 1.390625-.26564 1.171875 0 1.859375.59376.6875.57814.6875 1.64064v2.75q.015625.90624.25 1.375v.09374zm-1.40625-1.17188q.375 0 .6875-.17186.328125-.1719.46875-.45314v-1.09376h-.625q-1.265625 0-1.359375.89064v.09376q0 .3125.21875.53124.21875.20312.609375.20312zm2.34375-6.375h-4.046875v-.96876h4.046875zm4.953125 2.79688q-.34375-.04688-.609375-.04688-.96875 0-1.265625.64064v4.15624h-1.6875v-6.34374h1.59375l.046875.7656q.515625-.875 1.40625-.875.28125 0 .53125.07814zm3.34375 4.875q-1.390625 0-2.265625-.85938-.875-.85936-.875-2.28126v-.17186q0-.95314.359375-1.70314.375-.75 1.046875-1.15624.6875-.40626 1.546875-.40626 1.3125 0 2.046875.82814.75.8125.75 2.3125v.6875h-4.03125q.078125.625.484375 1 .421875.375 1.0625.375.96875 0 1.515625-.70314l.84375.9219q-.390625.54686-1.046875.85936-.640625.29688-1.4375.29688zm-.1875-5.21874q-.5 0-.8125.34374-.3125.34376-.40625.96876h2.359375v-.125q-.015625-.5625-.3125-.875-.28125-.3125-.828125-.3125zm1.84375-2.45314h-4.046875v-.96876h4.046875zm3.21875 1.20314v6.6875q0 1.04686-.5625 1.625-.546875.59374-1.59375.59374-.4375 0-.84375-.09374v-1.34376q.3125.04686.53125.04686.78125 0 .78125-.8125v-6.7031zm-1.828125-1.64064q0-.375.25-.625.265625-.25.703125-.25.4375 0 .6875.25.265625.25.265625.625 0 .39064-.265625.64064-.265625.23436-.703125.23436-.421875 0-.6875-.23436-.25-.25-.25-.64064zm6.71875 7.98438q-.125-.23438-.171875-.5625-.609375.6875-1.59375.6875-.9375 0-1.546875-.54688-.609375-.54686-.609375-1.35936 0-1.01564.734375-1.5469.75-.54686 2.171875-.54686h.765625v-.35938q0-.4375-.21875-.70312-.21875-.26564-.71875-.26564-.421875 0-.671875.20314-.234375.20312-.234375.5625h-1.6875q0-.54688.328125-1.01564.34375-.46874.96875-.73436.625-.26564 1.390625-.26564 1.171875 0 1.859375.59376.6875.57814.6875 1.64064v2.75q.015625.90624.25 1.375v.09374zm-1.40625-1.17188q.375 0 .6875-.17186.328125-.1719.46875-.45314v-1.09376h-.625q-1.265625 0-1.359375.89064v.09376q0 .3125.21875.53124.21875.20312.609375.20312zm2.34375-6.375h-4.046875v-.96876h4.046875zm4.8125 5.79688q0-.3125-.3125-.48438-.296875-.1875-.96875-.32812-2.265625-.46874-2.265625-1.92188 0-.84376.6875-1.40626.703125-.5625 1.84375-.5625 1.203125 0 1.921875.5625.734375.5625.734375 1.4844h-1.703125q0-.375-.234375-.6094-.234375-.23436-.734375-.23436-.421875 0-.65625.20312-.234375.1875-.234375.48438 0 .28126.265625.45312.265625.17188.890625.29688.640625.125 1.078125.28126 1.34375.5 1.34375 1.7031 0 .875-.75 1.4219-.734375.53124-1.921875.53124-.796875 0-1.421875-.28124-.609375-.2969-.96875-.78126-.34375-.5-.34375-1.07814h1.609375q.015625.45314.328125.70314.3125.23436.828125.23436.5 0 .734375-.1875.25-.1875.25-.48436zm7.953125-.3125 1.171875-4.28124h1.765625l-2.140625 6.34374h-1.609375l-2.140625-6.34374h1.765625zm7.296875 2.0625q-.125-.23438-.171875-.5625-.609375.6875-1.59375.6875-.9375 0-1.546875-.54688-.609375-.54686-.609375-1.35936 0-1.01564.734375-1.5469.75-.54686 2.171875-.54686h.765625v-.35938q0-.4375-.21875-.70312-.21875-.26564-.71875-.26564-.421875 0-.671875.20314-.234375.20312-.234375.5625h-1.6875q0-.54688.328125-1.01564.34375-.46874.96875-.73436.625-.26564 1.390625-.26564 1.171875 0 1.859375.59376.6875.57814.6875 1.64064v2.75q.015625.90624.25 1.375v.09374zm-1.40625-1.17188q.375 0 .6875-.17186.328125-.1719.46875-.45314v-1.09376h-.625q-1.265625 0-1.359375.89064v.09376q0 .3125.21875.53124.21875.20312.609375.20312zm5.515625 1.17188h-1.703125v-9h1.703125zm4.640625-1.75q0-.3125-.3125-.48438-.296875-.1875-.96875-.32812-2.265625-.46874-2.265625-1.92188 0-.84376.6875-1.40626.703125-.5625 1.84375-.5625 1.203125 0 1.921875.5625.734375.5625.734375 1.4844h-1.703125q0-.375-.234375-.6094-.234375-.23436-.734375-.23436-.421875 0-.65625.20312-.234375.1875-.234375.48438 0 .28126.265625.45312.265625.17188.890625.29688.640625.125 1.078125.28126 1.34375.5 1.34375 1.7031 0 .875-.75 1.4219-.734375.53124-1.921875.53124-.796875 0-1.421875-.28124-.609375-.2969-.96875-.78126-.34375-.5-.34375-1.07814h1.609375q.015625.45314.328125.70314.3125.23436.828125.23436.5 0 .734375-.1875.25-.1875.25-.48436zm4.59375-6.15624v1.5625h1.09375v1.25h-1.09375v3.15624q0 .35936.140625.51562.140625.14064.515625.14064.28125 0 .5-.03126v1.28126q-.5.15624-1.03125.15624-1.78125 0-1.8125-1.8125v-3.40624h-.921875v-1.25h.921875v-1.5625zm3.765625 7.90624h-1.703125v-6.34374h1.703125zm-1.796875-7.98438q0-.375.25-.625.265625-.25.703125-.25.421875 0 .671875.25.265625.25.265625.625 0 .39064-.265625.64064-.25.23436-.6875.23436-.421875 0-.6875-.23436-.25-.25-.25-.64064zm6.4375 6.23438q0-.3125-.3125-.48438-.296875-.1875-.96875-.32812-2.265625-.46874-2.265625-1.92188 0-.84376.6875-1.40626.703125-.5625 1.84375-.5625 1.203125 0 1.921875.5625.734375.5625.734375 1.4844h-1.703125q0-.375-.234375-.6094-.234375-.23436-.734375-.23436-.421875 0-.65625.20312-.234375.1875-.234375.48438 0 .28126.265625.45312.265625.17188.890625.29688.640625.125 1.078125.28126 1.34375.5 1.34375 1.7031 0 .875-.75 1.4219-.734375.53124-1.921875.53124-.796875 0-1.421875-.28124-.609375-.2969-.96875-.78126-.34375-.5-.34375-1.07814h1.609375q.015625.45314.328125.70314.3125.23436.828125.23436.5 0 .734375-.1875.25-.1875.25-.48436z"/><path d="m113.5625 693.3594q0 1.9062-.65625 2.8437-.640625.9219-2.03125.9219-1.359375 0-2.015625-.90625-.65625-.90625-.6875-2.71875v-1.4375q0-1.8906.640625-2.7969.65625-.92185 2.046875-.92185 1.375 0 2.03125.89065.65625.875.671875 2.7187zm-1.09375-1.4844q0-1.375-.390625-2-.375-.6406-1.21875-.6406-.828125 0-1.21875.6406-.375.625-.375 1.9219v1.73435q0 1.375.390625 2.04685.40625.6563 1.21875.6563.796875 0 1.1875-.625.390625-.625.40625-1.95315z"/><path d="m251.8698 692.71875.4375-4.25h4.375v1h-3.45313l-.26562 2.32815q.64062-.375 1.4375-.375 1.15625 0 1.84375.7812.6875.76565.6875 2.07815 0 1.3125-.71874 2.07815-.70314.7656-1.98439.7656-1.125 0-1.84375-.625-.71875-.6406-.8125-1.75h1.01563q.10937.7344.53125 1.1094.42187.375 1.10937.375.75 0 1.1875-.51565.4375-.51565.4375-1.42185 0-.8594-.46875-1.375-.46875-.51565-1.25-.51565-.70312 0-1.10937.29685l-.28125.2344zm11.8594.64065q0 1.9062-.65626 2.8437-.64064.9219-2.03124.9219-1.3594 0-2.01564-.90625-.65626-.90625-.6875-2.71875v-1.4375q0-1.8906.64064-2.7969.65624-.92185 2.04686-.92185 1.375 0 2.03124.89065.65626.875.6719 2.7187zm-1.09376-1.4844q0-1.375-.39064-2-.375-.6406-1.21874-.6406-.82812 0-1.21876.6406-.375.625-.375 1.9219v1.73435q0 1.375.39064 2.04685.40626.6563 1.21876.6563.79686 0 1.1875-.625.3906-.625.40624-1.95315z"/><path d="m398.09897 697h-1.07813v-7.21875l-2.1875.79685v-.98435l3.10938-1.17185h.15625zm8.79687-3.6406q0 1.9062-.65624 2.8437-.64063.9219-2.03126.9219-1.35937 0-2.01562-.90625-.65625-.90625-.6875-2.71875v-1.4375q0-1.8906.64062-2.7969.65626-.92185 2.04688-.92185 1.375 0 2.03125.89065.65625.875.67187 2.7187zm-1.09374-1.4844q0-1.375-.39063-2-.375-.6406-1.21875-.6406-.82812 0-1.21875.6406-.375.625-.375 1.9219v1.73435q0 1.375.39063 2.04685.40624.6563 1.21874.6563.79688 0 1.1875-.625.39063-.625.40626-1.95315zm8.09374 1.4844q0 1.9062-.65624 2.8437-.64063.9219-2.03126.9219-1.35937 0-2.01562-.90625-.65625-.90625-.6875-2.71875v-1.4375q0-1.8906.64062-2.7969.65626-.92185 2.04688-.92185 1.375 0 2.03125.89065.65625.875.67187 2.7187zm-1.09374-1.4844q0-1.375-.39063-2-.375-.6406-1.21875-.6406-.82812 0-1.21875.6406-.375.625-.375 1.9219v1.73435q0 1.375.39063 2.04685.40624.6563 1.21874.6563.79688 0 1.1875-.625.39063-.625.40626-1.95315z"/><path d="m544.7656 697h-1.0781v-7.21875l-2.1875.79685v-.98435l3.1094-1.17185h.1562zm3.9375-4.28125.4375-4.25h4.375v1h-3.4531l-.2656 2.32815q.6406-.375 1.4375-.375 1.1562 0 1.8437.7812.6875.76565.6875 2.07815 0 1.3125-.7187 2.07815-.70315.7656-1.9844.7656-1.125 0-1.84375-.625-.71875-.6406-.8125-1.75h1.01565q.10935.7344.5312 1.1094.4219.375 1.1094.375.75 0 1.1875-.51565.4375-.51565.4375-1.42185 0-.8594-.46875-1.375-.46875-.51565-1.25-.51565-.70315 0-1.10935.29685l-.2813.2344zm11.8594.64065q0 1.9062-.65625 2.8437-.64065.9219-2.03125.9219-1.3594 0-2.0156-.90625-.6563-.90625-.6875-2.71875v-1.4375q0-1.8906.6406-2.7969.65625-.92185 2.0469-.92185 1.375 0 2.0312.89065.6563.875.6719 2.7187zm-1.09375-1.4844q0-1.375-.39065-2-.375-.6406-1.2187-.6406-.82815 0-1.2188.6406-.375.625-.375 1.9219v1.73435q0 1.375.39065 2.04685.40625.6563 1.21875.6563.7969 0 1.1875-.625.3906-.625.40625-1.95315z"/></g></svg>