<svg fill="none" height="730" stroke-linecap="square" stroke-miterlimit="10" viewBox="0 0 580 730" width="580" xmlns="http://www.w3.org/2000/svg" xmlns:xlink="http://www.w3.org/1999/xlink"><clipPath id="a"><path d="m136 29h415v645h-415z"/></clipPath><path d="m0 0h580v730h-580z" fill="none"/><path d="m136.5 29.5v645" stroke="#333" stroke-linecap="butt"/><path d="m239.5 29.5v645" stroke="#ccc" stroke-linecap="butt"/><path d="m343.5 29.5v645" stroke="#ccc" stroke-linecap="butt"/><path d="m447.5 29.5v645" stroke="#ccc" stroke-linecap="butt"/><path d="m551.5 29.5v645" stroke="#ccc" stroke-linecap="butt"/><path d="m170.5 29.5v645"/><path d="m205.5 29.5v645"/><path d="m274.5 29.5v645"/><path d="m308.5 29.5v645"/><path d="m378.5 29.5v645"/><path d="m412.5 29.5v645"/><path d="m481.5 29.5v645"/><path d="m516.5 29.5v645"/><path d="m136.5 674.5v-645" stroke="#000" stroke-linecap="butt"/><path clip-path="url(#a)" d="m136 86v-37h320c1.10458 0 2 .89543 2 2v33c0 1.10457-.89542 2-2 2z"/><path clip-path="url(#a)" d="m136 86v-37h320c1.10458 0 2 .89543 2 2v33c0 1.10457-.89542 2-2 2z" fill="#4472c4"/><path clip-path="url(#a)" d="m136 143v-37h135c1.10458 0 2 .89543 2 2v33c0 1.10457-.89542 2-2 2z"/><path clip-path="url(#a)" d="m136 143v-37h135c1.10458 0 2 .89543 2 2v33c0 1.10457-.89542 2-2 2z" fill="#4472c4"/><path clip-path="url(#a)" d="m136 200v-37h45c1.10457 0 2 .89543 2 2v33c0 1.10457-.89543 2-2 2z"/><path clip-path="url(#a)" d="m136 200v-37h45c1.10457 0 2 .89543 2 2v33c0 1.10457-.89543 2-2 2z" fill="#4472c4"/><path clip-path="url(#a)" d="m136 257v-37h18c1.10457 0 2 .89543 2 2v33c0 1.10458-.89543 2-2 2z"/><path clip-path="url(#a)" d="m136 257v-37h18c1.10457 0 2 .89543 2 2v33c0 1.10458-.89543 2-2 2z" fill="#4472c4"/><path clip-path="url(#a)" d="m136 314v-37h16c1.10457 0 2 .89542 2 2v33c0 1.10458-.89543 2-2 2z"/><path clip-path="url(#a)" d="m136 314v-37h16c1.10457 0 2 .89542 2 2v33c0 1.10458-.89543 2-2 2z" fill="#4472c4"/><path clip-path="url(#a)" d="m136 371v-37h14c1.10457 0 2 .89542 2 2v33c0 1.10458-.89543 2-2 2z"/><path clip-path="url(#a)" d="m136 371v-37h14c1.10457 0 2 .89542 2 2v33c0 1.10458-.89543 2-2 2z" fill="#4472c4"/><path clip-path="url(#a)" d="m136 427v-37h14c1.10457 0 2 .89542 2 2v33c0 1.10458-.89543 2-2 2z"/><path clip-path="url(#a)" d="m136 427v-37h14c1.10457 0 2 .89542 2 2v33c0 1.10458-.89543 2-2 2z" fill="#4472c4"/><path clip-path="url(#a)" d="m136 484v-37h14c1.10457 0 2 .89542 2 2v33c0 1.10458-.89543 2-2 2z"/><path clip-path="url(#a)" d="m136 484v-37h14c1.10457 0 2 .89542 2 2v33c0 1.10458-.89543 2-2 2z" fill="#4472c4"/><path clip-path="url(#a)" d="m136 541v-37h13c1.10457 0 2 .89542 2 2v33c0 1.10455-.89543 2-2 2z"/><path clip-path="url(#a)" d="m136 541v-37h13c1.10457 0 2 .89542 2 2v33c0 1.10455-.89543 2-2 2z" fill="#4472c4"/><path clip-path="url(#a)" d="m136 598v-37h1c.55229 0 1 .4477 1 1v35c0 .5523-.44771 1-1 1z"/><path clip-path="url(#a)" d="m136 598v-37h1c.55229 0 1 .4477 1 1v35c0 .5523-.44771 1-1 1z" fill="#4472c4"/><path clip-path="url(#a)" d="m136 655v-37h1.5c.82843 0 1.5.6716 1.5 1.5v34c0 .8284-.67157 1.5-1.5 1.5z"/><path clip-path="url(#a)" d="m136 655v-37h1.5c.82843 0 1.5.6716 1.5 1.5v34c0 .8284-.67157 1.5-1.5 1.5z" fill="#4472c4"/><path d="m136.5 680.5v-12" stroke="#000" stroke-linecap="butt"/><path d="m239.5 680.5v-12" stroke="#000" stroke-linecap="butt"/><path d="m343.5 680.5v-12" stroke="#000" stroke-linecap="butt"/><path d="m447.5 680.5v-12" stroke="#000" stroke-linecap="butt"/><path d="m551.5 680.5v-12" stroke="#000" stroke-linecap="butt"/><path d="m427.52994 62.875v1.40625h-.15624q-1.15626.015625-1.8594.59375-.6875.578125-.8281 1.609375.67186-.6875 1.7031-.6875 1.125 0 1.78126.796875.65624.796875.65624 2.09375 0 .828125-.35936 1.5-.35938.671875-1.03124 1.0625-.65626.375-1.4844.375-1.34374 0-2.17186-.9375-.82814-.953125-.82814-2.515625v-.609375q0-1.390625.51564-2.453125.53126-1.0625 1.5-1.640625.98436-.578125 2.28126-.59375zm-1.65624 4.28125q-.40626 0-.75.21875-.32814.203125-.4844.5625v.515625q0 .84375.32814 1.328125.34376.46875.95312.46875.54688 0 .875-.421875.34374-.4375.34374-1.125 0-.703125-.34374-1.125-.34376-.421875-.92186-.421875zm9.90624 4.34375h-5.84374v-1.15625l2.7656-2.953125q.5625-.609375.82814-1.078125.28126-.46875.28126-.875 0-.578125-.2969-.890625-.28124-.328125-.8125-.328125-.5781 0-.90624.390625-.32812.390625-.32812 1.046875h-1.70314q0-.78125.375-1.421875.375-.65625 1.0469-1.015625.6875-.375 1.54686-.375 1.3125 0 2.04688.640625.73436.625.73436 1.78125 0 .640625-.3281 1.296875-.32814.65625-1.125 1.53125l-1.9375 2.046875h3.65624zm1.3125-.828125q0-.40625.26562-.65625.28124-.25.6875-.25.42188 0 .6875.25.28124.25.28124.65625 0 .390625-.28124.640625-.26562.25-.6875.25-.40626 0-.6875-.25-.26562-.25-.26562-.640625zm6.95312.828125h-1.6875v-6.53125l-2.01562.625v-1.375l3.53126-1.265625h.17186zm8.64064-3.53125q0 1.765625-.7344 2.71875-.73436.9375-2.1406.9375-1.40626 0-2.14064-.921875-.73436-.921875-.75-2.640625v-1.578125q0-1.78125.73438-2.703125.75-.9375 2.14062-.9375 1.39064 0 2.125.921875.75.921875.76564 2.640625zm-1.70314-1.71875q0-1.0625-.29686-1.546875-.28126-.484375-.89064-.484375-.59376 0-.89062.46875-.28124.453125-.29688 1.4375v2.0625q0 1.046875.28124 1.5625.28126.5.9219.5.60936 0 .8906-.484375.28126-.484375.28126-1.484375z" stroke="#4472c4" stroke-linecap="round" stroke-linejoin="round" stroke-width="3"/><path d="m427.52994 62.875v1.40625h-.15624q-1.15626.015625-1.8594.59375-.6875.578125-.8281 1.609375.67186-.6875 1.7031-.6875 1.125 0 1.78126.796875.65624.796875.65624 2.09375 0 .828125-.35936 1.5-.35938.671875-1.03124 1.0625-.65626.375-1.4844.375-1.34374 0-2.17186-.9375-.82814-.953125-.82814-2.515625v-.609375q0-1.390625.51564-2.453125.53126-1.0625 1.5-1.640625.98436-.578125 2.28126-.59375zm-1.65624 4.28125q-.40626 0-.75.21875-.32814.203125-.4844.5625v.515625q0 .84375.32814 1.328125.34376.46875.95312.46875.54688 0 .875-.421875.34374-.4375.34374-1.125 0-.703125-.34374-1.125-.34376-.421875-.92186-.421875zm9.90624 4.34375h-5.84374v-1.15625l2.7656-2.953125q.5625-.609375.82814-1.078125.28126-.46875.28126-.875 0-.578125-.2969-.890625-.28124-.328125-.8125-.328125-.5781 0-.90624.390625-.32812.390625-.32812 1.046875h-1.70314q0-.78125.375-1.421875.375-.65625 1.0469-1.015625.6875-.375 1.54686-.375 1.3125 0 2.04688.640625.73436.625.73436 1.78125 0 .640625-.3281 1.296875-.32814.65625-1.125 1.53125l-1.9375 2.046875h3.65624zm1.3125-.828125q0-.40625.26562-.65625.28124-.25.6875-.25.42188 0 .6875.25.28124.25.28124.65625 0 .390625-.28124.640625-.26562.25-.6875.25-.40626 0-.6875-.25-.26562-.25-.26562-.640625zm6.95312.828125h-1.6875v-6.53125l-2.01562.625v-1.375l3.53126-1.265625h.17186zm8.64064-3.53125q0 1.765625-.7344 2.71875-.73436.9375-2.1406.9375-1.40626 0-2.14064-.921875-.73436-.921875-.75-2.640625v-1.578125q0-1.78125.73438-2.703125.75-.9375 2.14062-.9375 1.39064 0 2.125.921875.75.921875.76564 2.640625zm-1.70314-1.71875q0-1.0625-.29686-1.546875-.28126-.484375-.89064-.484375-.59376 0-.89062.46875-.28124.453125-.29688 1.4375v2.0625q0 1.046875.28124 1.5625.28126.5.9219.5.60936 0 .8906-.484375.28126-.484375.28126-1.484375z" fill="#fff"/><path d="m243.4958 128.5h-5.84375v-1.15625l2.76563-2.953125q.5625-.609375.82812-1.078125.28125-.46875.28125-.875 0-.578125-.29687-.890625-.28125-.328125-.8125-.328125-.57813 0-.90625.390625-.32813.390625-.32813 1.046875h-1.70312q0-.78125.375-1.421875.375-.65625 1.04687-1.015625.6875-.375 1.54688-.375 1.3125 0 2.04687.640625.73438.625.73438 1.78125 0 .640625-.32813 1.296875-.32812.65625-1.125 1.53125l-1.9375 2.046875h3.65625zm5.75-8.625v1.40625h-.15625q-1.15625.015625-1.85937.59375-.6875.578125-.82813 1.609375.67188-.6875 1.70313-.6875 1.125 0 1.78125.796875.65625.796875.65625 2.09375 0 .828125-.35938 1.5-.35937.671875-1.03125 1.0625-.65625.375-1.48437.375-1.34375 0-2.17188-.9375-.82812-.953125-.82812-2.515625v-.609375q0-1.390625.51562-2.453125.53125-1.0625 1.5-1.640625.98438-.578125 2.28125-.59375zm-1.65625 4.28125q-.40625 0-.75.21875-.32812.203125-.48437.5625v.515625q0 .84375.32812 1.328125.34375.46875.95313.46875.54687 0 .875-.421875.34375-.4375.34375-1.125 0-.703125-.34375-1.125-.34375-.421875-.92188-.421875zm4.21875 3.515625q0-.40625.26563-.65625.28125-.25.6875-.25.42187 0 .6875.25.28125.25.28125.65625 0 .390625-.28125.640625-.26563.25-.6875.25-.40625 0-.6875-.25-.26563-.25-.26563-.640625zm4.5625-4.1875h.90624q.64062 0 .95312-.3125.3125-.328125.3125-.859375 0-.515625-.3125-.796875-.29686-.296875-.84376-.296875-.48436 0-.8125.265625-.3281.265625-.3281.6875h-1.6875q0-.65625.35938-1.1875.35937-.53125 1-.828125.65622-.3125 1.43748-.3125 1.34374 0 2.10938.65625.78126.640625.78126 1.78125 0 .59375-.3594 1.09375-.35936.484375-.9375.734375.71876.265625 1.0625.78125.3594.515625.3594 1.21875 0 1.140625-.82814 1.828125-.82812.6875-2.1875.6875-1.28126 0-2.09373-.671875-.8125-.6875-.8125-1.796875h1.68747q0 .484375.3594.796875.375.296875.8906.296875.6094 0 .95314-.3125.34376-.328125.34376-.859375 0-1.265625-1.40626-1.265625h-.90624zm9.25 1.609375q-.6719.640625-1.5469.640625-1.1406 0-1.8281-.765625-.6719-.78125-.6719-2.09375 0-.84375.3594-1.546875.375-.703125 1.03124-1.09375.65626-.390625 1.48436-.390625.84376 0 1.5.421875.65626.421875 1.01564 1.21875.35936.796875.375 1.8125v.625q0 2.140625-1.0625 3.359375-1.0625 1.21875-3.01564 1.29687h-.40624v-1.406245l.375-.015625q2.20314-.09375 2.39064-2.0625zm-1.14064-.65625q.42188 0 .70314-.203125.29686-.21875.4531-.515625v-.6875q0-.859375-.3281-1.328125-.32814-.484375-.875-.484375-.51564 0-.84376.46875-.32814.453125-.32814 1.15625 0 .703125.3125 1.15625.32814.4375.90626.4375z" stroke="#4472c4" stroke-linecap="round" stroke-linejoin="round" stroke-width="3"/><path d="m243.4958 128.5h-5.84375v-1.15625l2.76563-2.953125q.5625-.609375.82812-1.078125.28125-.46875.28125-.875 0-.578125-.29687-.890625-.28125-.328125-.8125-.328125-.57813 0-.90625.390625-.32813.390625-.32813 1.046875h-1.70312q0-.78125.375-1.421875.375-.65625 1.04687-1.015625.6875-.375 1.54688-.375 1.3125 0 2.04687.640625.73438.625.73438 1.78125 0 .640625-.32813 1.296875-.32812.65625-1.125 1.53125l-1.9375 2.046875h3.65625zm5.75-8.625v1.40625h-.15625q-1.15625.015625-1.85937.59375-.6875.578125-.82813 1.609375.67188-.6875 1.70313-.6875 1.125 0 1.78125.796875.65625.796875.65625 2.09375 0 .828125-.35938 1.5-.35937.671875-1.03125 1.0625-.65625.375-1.48437.375-1.34375 0-2.17188-.9375-.82812-.953125-.82812-2.515625v-.609375q0-1.390625.51562-2.453125.53125-1.0625 1.5-1.640625.98438-.578125 2.28125-.59375zm-1.65625 4.28125q-.40625 0-.75.21875-.32812.203125-.48437.5625v.515625q0 .84375.32812 1.328125.34375.46875.95313.46875.54687 0 .875-.421875.34375-.4375.34375-1.125 0-.703125-.34375-1.125-.34375-.421875-.92188-.421875zm4.21875 3.515625q0-.40625.26563-.65625.28125-.25.6875-.25.42187 0 .6875.25.28125.25.28125.65625 0 .390625-.28125.640625-.26563.25-.6875.25-.40625 0-.6875-.25-.26563-.25-.26563-.640625zm4.5625-4.1875h.90624q.64062 0 .95312-.3125.3125-.328125.3125-.859375 0-.515625-.3125-.796875-.29686-.296875-.84376-.296875-.48436 0-.8125.265625-.3281.265625-.3281.6875h-1.6875q0-.65625.35938-1.1875.35937-.53125 1-.828125.65622-.3125 1.43748-.3125 1.34374 0 2.10938.65625.78126.640625.78126 1.78125 0 .59375-.3594 1.09375-.35936.484375-.9375.734375.71876.265625 1.0625.78125.3594.515625.3594 1.21875 0 1.140625-.82814 1.828125-.82812.6875-2.1875.6875-1.28126 0-2.09373-.671875-.8125-.6875-.8125-1.796875h1.68747q0 .484375.3594.796875.375.296875.8906.296875.6094 0 .95314-.3125.34376-.328125.34376-.859375 0-1.265625-1.40626-1.265625h-.90624zm9.25 1.609375q-.6719.640625-1.5469.640625-1.1406 0-1.8281-.765625-.6719-.78125-.6719-2.09375 0-.84375.3594-1.546875.375-.703125 1.03124-1.09375.65626-.390625 1.48436-.390625.84376 0 1.5.421875.65626.421875 1.01564 1.21875.35936.796875.375 1.8125v.625q0 2.140625-1.0625 3.359375-1.0625 1.21875-3.01564 1.29687h-.40624v-1.406245l.375-.015625q2.20314-.09375 2.39064-2.0625zm-1.14064-.65625q.42188 0 .70314-.203125.29686-.21875.4531-.515625v-.6875q0-.859375-.3281-1.328125-.32814-.484375-.875-.484375-.51564 0-.84376.46875-.32814.453125-.32814 1.15625 0 .703125.3125 1.15625.32814.4375.90626.4375z" fill="#fff"/><path d="m159.02417 182.09375q-.67187.64063-1.54687.64063-1.14063 0-1.82813-.76563-.67187-.78125-.67187-2.09375 0-.84375.35937-1.54688.375-.70312 1.03125-1.09374.65625-.39063 1.48438-.39063.84374 0 1.5.42187.65624.42188 1.01562 1.21876.35938.79687.375 1.8125v.625q0 2.14062-1.0625 3.35937-1.0625 1.21875-3.01562 1.29687h-.40626v-1.40624l.375-.01563q2.20313-.09375 2.39063-2.0625zm-1.14063-.65625q.42188 0 .70313-.20312.29687-.21876.45313-.51563v-.6875q0-.85937-.32813-1.32813-.32813-.48437-.875-.48437-.51563 0-.84375.46875-.32812.45312-.32812 1.15625 0 .70313.3125 1.15625.32812.4375.90624.4375zm4.32813 3.23438q0-.40626.26563-.65626.28124-.25.6875-.25.42187 0 .6875.25.28124.25.28124.65626 0 .39062-.28124.64062-.26563.25-.6875.25-.40626 0-.6875-.25-.26563-.25-.26563-.64062zm6.95313.82812h-1.6875v-6.53125l-2.01563.625v-1.375l3.53125-1.26563h.17188zm7 0h-1.6875v-6.53125l-2.01563.625v-1.375l3.53125-1.26563h.17188z" stroke="#4472c4" stroke-linecap="round" stroke-linejoin="round" stroke-width="3"/><path d="m159.02417 182.09375q-.67187.64063-1.54687.64063-1.14063 0-1.82813-.76563-.67187-.78125-.67187-2.09375 0-.84375.35937-1.54688.375-.70312 1.03125-1.09374.65625-.39063 1.48438-.39063.84374 0 1.5.42187.65624.42188 1.01562 1.21876.35938.79687.375 1.8125v.625q0 2.14062-1.0625 3.35937-1.0625 1.21875-3.01562 1.29687h-.40626v-1.40624l.375-.01563q2.20313-.09375 2.39063-2.0625zm-1.14063-.65625q.42188 0 .70313-.20312.29687-.21876.45313-.51563v-.6875q0-.85937-.32813-1.32813-.32813-.48437-.875-.48437-.51563 0-.84375.46875-.32812.45312-.32812 1.15625 0 .70313.3125 1.15625.32812.4375.90624.4375zm4.32813 3.23438q0-.40626.26563-.65626.28124-.25.6875-.25.42187 0 .6875.25.28124.25.28124.65626 0 .39062-.28124.64062-.26563.25-.6875.25-.40626 0-.6875-.25-.26563-.25-.26563-.64062zm6.95313.82812h-1.6875v-6.53125l-2.01563.625v-1.375l3.53125-1.26563h.17188zm7 0h-1.6875v-6.53125l-2.01563.625v-1.375l3.53125-1.26563h.17188z" fill="#fff"/><path d="m170.1924 237.48438h.90625q.64062 0 .95312-.3125.3125-.32813.3125-.85938 0-.51562-.3125-.79688-.29687-.29687-.84375-.29687-.48437 0-.8125.26563-.32812.26562-.32812.6875h-1.6875q0-.65626.35937-1.1875.35938-.53126 1-.82813.65625-.3125 1.4375-.3125 1.34375 0 2.10938.65625.78125.64062.78125 1.78125 0 .59375-.35938 1.09375-.35937.48438-.9375.73438.71875.26562 1.0625.78124.35938.51563.35938 1.21876 0 1.14062-.82813 1.82812-.82812.6875-2.1875.6875-1.28125 0-2.09375-.67188-.8125-.6875-.8125-1.79687h1.6875q0 .48437.35938.79687.375.29688.89062.29688.60938 0 .95313-.3125.34375-.32812.34375-.85938 0-1.26562-1.40625-1.26562h-.90625zm5.4375 4.1875q0-.40626.26562-.65626.28125-.25.6875-.25.42188 0 .6875.25.28125.25.28125.65626 0 .39062-.28125.64062-.26562.25-.6875.25-.40625 0-.6875-.25-.26562-.25-.26562-.64062zm8.40625-5.4375q0 .625-.3125 1.10937-.3125.46875-.85938.76563.625.29687.98438.82812.375.51562.375 1.21875 0 1.14063-.78125 1.8125-.76563.65625-2.10938.65625-1.32812 0-2.10937-.65625-.76563-.67187-.76563-1.8125 0-.70313.35938-1.23437.35937-.53126.98437-.8125-.54687-.29688-.85937-.76563-.3125-.48437-.3125-1.10937 0-1.09376.71875-1.73438.73437-.65625 1.98437-.65625 1.25 0 1.96875.65625.73438.64062.73438 1.73438zm-1.51563 3.79687q0-.54687-.32812-.875-.3125-.34375-.85938-.34375-.54687 0-.875.32812-.3125.32813-.3125.89063 0 .54687.3125.89063.32813.32812.89063.32812.54687 0 .85937-.3125.3125-.32812.3125-.90625zm-.17187-3.71875q0-.5-.26563-.79688-.26562-.29687-.75-.29687-.46875 0-.73437.29687-.26563.28126-.26563.79688 0 .51562.26563.82812.26562.3125.73437.3125.48438 0 .75-.3125.26563-.3125.26563-.82812zm8.14062 2.96875h.96875v1.375h-.96875v1.84375h-1.70312v-1.84375h-3.48438l-.07812-1.0625 3.54687-5.625h1.71875zm-3.57812 0h1.875v-3l-.10938.1875z" stroke="#fff" stroke-linecap="round" stroke-linejoin="round" stroke-width="3"/><path d="m170.1924 237.48438h.90625q.64062 0 .95312-.3125.3125-.32813.3125-.85938 0-.51562-.3125-.79688-.29687-.29687-.84375-.29687-.48437 0-.8125.26563-.32812.26562-.32812.6875h-1.6875q0-.65626.35937-1.1875.35938-.53126 1-.82813.65625-.3125 1.4375-.3125 1.34375 0 2.10938.65625.78125.64062.78125 1.78125 0 .59375-.35938 1.09375-.35937.48438-.9375.73438.71875.26562 1.0625.78124.35938.51563.35938 1.21876 0 1.14062-.82813 1.82812-.82812.6875-2.1875.6875-1.28125 0-2.09375-.67188-.8125-.6875-.8125-1.79687h1.6875q0 .48437.35938.79687.375.29688.89062.29688.60938 0 .95313-.3125.34375-.32812.34375-.85938 0-1.26562-1.40625-1.26562h-.90625zm5.4375 4.1875q0-.40626.26562-.65626.28125-.25.6875-.25.42188 0 .6875.25.28125.25.28125.65626 0 .39062-.28125.64062-.26562.25-.6875.25-.40625 0-.6875-.25-.26562-.25-.26562-.64062zm8.40625-5.4375q0 .625-.3125 1.10937-.3125.46875-.85938.76563.625.29687.98438.82812.375.51562.375 1.21875 0 1.14063-.78125 1.8125-.76563.65625-2.10938.65625-1.32812 0-2.10937-.65625-.76563-.67187-.76563-1.8125 0-.70313.35938-1.23437.35937-.53126.98437-.8125-.54687-.29688-.85937-.76563-.3125-.48437-.3125-1.10937 0-1.09376.71875-1.73438.73437-.65625 1.98437-.65625 1.25 0 1.96875.65625.73438.64062.73438 1.73438zm-1.51563 3.79687q0-.54687-.32812-.875-.3125-.34375-.85938-.34375-.54687 0-.875.32812-.3125.32813-.3125.89063 0 .54687.3125.89063.32813.32812.89063.32812.54687 0 .85937-.3125.3125-.32812.3125-.90625zm-.17187-3.71875q0-.5-.26563-.79688-.26562-.29687-.75-.29687-.46875 0-.73437.29687-.26563.28126-.26563.79688 0 .51562.26563.82812.26562.3125.73437.3125.48438 0 .75-.3125.26563-.3125.26563-.82812zm8.14062 2.96875h.96875v1.375h-.96875v1.84375h-1.70312v-1.84375h-3.48438l-.07812-1.0625 3.54687-5.625h1.71875zm-3.57812 0h1.875v-3l-.10938.1875z" fill="#4472c4"/><path d="m167.884 294.48438h.90625q.64063 0 .95313-.3125.3125-.32813.3125-.85938 0-.51562-.3125-.79688-.29688-.29687-.84375-.29687-.48438 0-.8125.26563-.32813.26562-.32813.6875h-1.6875q0-.65626.35938-1.1875.35937-.53126 1-.82813.65625-.3125 1.4375-.3125 1.34375 0 2.10937.65625.78125.64062.78125 1.78125 0 .59375-.35937 1.09375-.35938.48438-.9375.73438.71875.26562 1.0625.78124.35937.51563.35937 1.21876 0 1.14062-.82812 1.82812-.82813.6875-2.1875.6875-1.28125 0-2.09375-.67188-.8125-.6875-.8125-1.79687h1.6875q0 .48437.35937.79687.375.29688.89063.29688.60937 0 .95312-.3125.34375-.32812.34375-.85938 0-1.26562-1.40625-1.26562h-.90625zm5.4375 4.1875q0-.40626.26563-.65626.28125-.25.6875-.25.42187 0 .6875.25.28125.25.28125.65626 0 .39062-.28125.64062-.26563.25-.6875.25-.40625 0-.6875-.25-.26563-.25-.26563-.64062zm4.5625-4.1875h.90625q.64063 0 .95313-.3125.3125-.32813.3125-.85938 0-.51562-.3125-.79688-.29688-.29687-.84375-.29687-.48438 0-.8125.26563-.32813.26562-.32813.6875h-1.6875q0-.65626.35938-1.1875.35937-.53126 1-.82813.65625-.3125 1.4375-.3125 1.34375 0 2.10937.65625.78125.64062.78125 1.78125 0 .59375-.35937 1.09375-.35938.48438-.9375.73438.71875.26562 1.0625.78124.35937.51563.35937 1.21876 0 1.14062-.82812 1.82812-.82813.6875-2.1875.6875-1.28125 0-2.09375-.67188-.8125-.6875-.8125-1.79687h1.6875q0 .48437.35937.79687.375.29688.89063.29688.60937 0 .95312-.3125.34375-.32812.34375-.85938 0-1.26562-1.40625-1.26562h-.90625zm9.25 1.60937q-.67187.64063-1.54687.64063-1.14063 0-1.82813-.76563-.67187-.78125-.67187-2.09375 0-.84375.35937-1.54688.375-.70312 1.03125-1.09374.65625-.39063 1.48438-.39063.84375 0 1.5.42187.65625.42188 1.01562 1.21876.35938.79687.375 1.8125v.625q0 2.14062-1.0625 3.35937-1.0625 1.21875-3.01562 1.29687h-.40625v-1.40624l.375-.01563q2.20312-.09375 2.39062-2.0625zm-1.14062-.65625q.42187 0 .70312-.20312.29688-.21876.45313-.51563v-.6875q0-.85937-.32813-1.32813-.32812-.48437-.875-.48437-.51562 0-.84375.46875-.32812.45312-.32812 1.15625 0 .70313.3125 1.15625.32812.4375.90625.4375z" stroke="#fff" stroke-linecap="round" stroke-linejoin="round" stroke-width="3"/><path d="m167.884 294.48438h.90625q.64063 0 .95313-.3125.3125-.32813.3125-.85938 0-.51562-.3125-.79688-.29688-.29687-.84375-.29687-.48438 0-.8125.26563-.32813.26562-.32813.6875h-1.6875q0-.65626.35938-1.1875.35937-.53126 1-.82813.65625-.3125 1.4375-.3125 1.34375 0 2.10937.65625.78125.64062.78125 1.78125 0 .59375-.35937 1.09375-.35938.48438-.9375.73438.71875.26562 1.0625.78124.35937.51563.35937 1.21876 0 1.14062-.82812 1.82812-.82813.6875-2.1875.6875-1.28125 0-2.09375-.67188-.8125-.6875-.8125-1.79687h1.6875q0 .48437.35937.79687.375.29688.89063.29688.60937 0 .95312-.3125.34375-.32812.34375-.85938 0-1.26562-1.40625-1.26562h-.90625zm5.4375 4.1875q0-.40626.26563-.65626.28125-.25.6875-.25.42187 0 .6875.25.28125.25.28125.65626 0 .39062-.28125.64062-.26563.25-.6875.25-.40625 0-.6875-.25-.26563-.25-.26563-.64062zm4.5625-4.1875h.90625q.64063 0 .95313-.3125.3125-.32813.3125-.85938 0-.51562-.3125-.79688-.29688-.29687-.84375-.29687-.48438 0-.8125.26563-.32813.26562-.32813.6875h-1.6875q0-.65626.35938-1.1875.35937-.53126 1-.82813.65625-.3125 1.4375-.3125 1.34375 0 2.10937.65625.78125.64062.78125 1.78125 0 .59375-.35937 1.09375-.35938.48438-.9375.73438.71875.26562 1.0625.78124.35937.51563.35937 1.21876 0 1.14062-.82812 1.82812-.82813.6875-2.1875.6875-1.28125 0-2.09375-.67188-.8125-.6875-.8125-1.79687h1.6875q0 .48437.35937.79687.375.29688.89063.29688.60937 0 .95312-.3125.34375-.32812.34375-.85938 0-1.26562-1.40625-1.26562h-.90625zm9.25 1.60937q-.67187.64063-1.54687.64063-1.14063 0-1.82813-.76563-.67187-.78125-.67187-2.09375 0-.84375.35937-1.54688.375-.70312 1.03125-1.09374.65625-.39063 1.48438-.39063.84375 0 1.5.42187.65625.42188 1.01562 1.21876.35938.79687.375 1.8125v.625q0 2.14062-1.0625 3.35937-1.0625 1.21875-3.01562 1.29687h-.40625v-1.40624l.375-.01563q2.20312-.09375 2.39062-2.0625zm-1.14062-.65625q.42187 0 .70312-.20312.29688-.21876.45313-.51563v-.6875q0-.85937-.32813-1.32813-.32812-.48437-.875-.48437-.51562 0-.84375.46875-.32812.45312-.32812 1.15625 0 .70313.3125 1.15625.32812.4375.90625.4375z" fill="#4472c4"/><path d="m166.60532 351.48438h.90625q.64062 0 .95312-.3125.3125-.32813.3125-.85938 0-.51562-.3125-.79688-.29687-.29687-.84375-.29687-.48437 0-.8125.26563-.32812.26562-.32812.6875h-1.6875q0-.65626.35937-1.1875.35938-.53126 1-.82813.65625-.3125 1.4375-.3125 1.34375 0 2.10938.65625.78125.64062.78125 1.78125 0 .59375-.35938 1.09375-.35937.48438-.9375.73438.71875.26562 1.0625.78124.35938.51563.35938 1.21876 0 1.14062-.82813 1.82812-.82812.6875-2.1875.6875-1.28125 0-2.09375-.67188-.8125-.6875-.8125-1.79687h1.6875q0 .48437.35938.79687.375.29688.89062.29688.60938 0 .95313-.3125.34375-.32812.34375-.85938 0-1.26562-1.40625-1.26562h-.90625zm5.4375 4.1875q0-.40626.26562-.65626.28125-.25.6875-.25.42188 0 .6875.25.28125.25.28125.65626 0 .39062-.28125.64062-.26562.25-.6875.25-.40625 0-.6875-.25-.26562-.25-.26562-.64062zm6.95312.82812h-1.6875v-6.53125l-2.01562.625v-1.375l3.53125-1.26563h.17187zm7.90625-3.21875h.96875v1.375h-.96875v1.84375h-1.70312v-1.84375h-3.48438l-.07812-1.0625 3.54687-5.625h1.71875zm-3.57812 0h1.875v-3l-.10938.1875z" stroke="#fff" stroke-linecap="round" stroke-linejoin="round" stroke-width="3"/><path d="m166.60532 351.48438h.90625q.64062 0 .95312-.3125.3125-.32813.3125-.85938 0-.51562-.3125-.79688-.29687-.29687-.84375-.29687-.48437 0-.8125.26563-.32812.26562-.32812.6875h-1.6875q0-.65626.35937-1.1875.35938-.53126 1-.82813.65625-.3125 1.4375-.3125 1.34375 0 2.10938.65625.78125.64062.78125 1.78125 0 .59375-.35938 1.09375-.35937.48438-.9375.73438.71875.26562 1.0625.78124.35938.51563.35938 1.21876 0 1.14062-.82813 1.82812-.82812.6875-2.1875.6875-1.28125 0-2.09375-.67188-.8125-.6875-.8125-1.79687h1.6875q0 .48437.35938.79687.375.29688.89062.29688.60938 0 .95313-.3125.34375-.32812.34375-.85938 0-1.26562-1.40625-1.26562h-.90625zm5.4375 4.1875q0-.40626.26562-.65626.28125-.25.6875-.25.42188 0 .6875.25.28125.25.28125.65626 0 .39062-.28125.64062-.26562.25-.6875.25-.40625 0-.6875-.25-.26562-.25-.26562-.64062zm6.95312.82812h-1.6875v-6.53125l-2.01562.625v-1.375l3.53125-1.26563h.17187zm7.90625-3.21875h.96875v1.375h-.96875v1.84375h-1.70312v-1.84375h-3.48438l-.07812-1.0625 3.54687-5.625h1.71875zm-3.57812 0h1.875v-3l-.10938.1875z" fill="#4472c4"/><path d="m166.4714 407.48438h.90626q.64062 0 .95312-.3125.3125-.32813.3125-.85938 0-.51562-.3125-.79688-.29688-.29687-.84375-.29687-.48437 0-.8125.26563-.32813.26562-.32813.6875h-1.6875q0-.65626.35938-1.1875.35938-.53126 1-.82813.65625-.3125 1.4375-.3125 1.34375 0 2.10938.65625.78124.64062.78124 1.78125 0 .59375-.35937 1.09375-.35937.48438-.9375.73438.71875.26562 1.0625.78124.35937.51563.35937 1.21876 0 1.14062-.82812 1.82812-.82812.6875-2.1875.6875-1.28125 0-2.09375-.67188-.8125-.6875-.8125-1.79687h1.6875q0 .48437.35937.79687.375.29688.89063.29688.60937 0 .95313-.3125.34374-.32812.34374-.85938 0-1.26562-1.40624-1.26562h-.90626zm5.4375 4.1875q0-.40626.26563-.65626.28125-.25.6875-.25.42187 0 .6875.25.28125.25.28125.65626 0 .39062-.28125.64062-.26563.25-.6875.25-.40625 0-.6875-.25-.26563-.25-.26563-.64062zm6.95313.82812h-1.6875v-6.53125l-2.01563.625v-1.375l3.53126-1.26563h.17187zm8.73437 0h-5.84374v-1.15625l2.76562-2.95313q.5625-.60937.82812-1.07812.28126-.46875.28126-.875 0-.57812-.29688-.89062-.28125-.32813-.8125-.32813-.57812 0-.90625.39063-.32813.39062-.32813 1.04687h-1.70312q0-.78125.375-1.42187.375-.65626 1.04688-1.01563.6875-.375 1.54687-.375 1.3125 0 2.04687.64063.73438.625.73438 1.78124 0 .64063-.32812 1.29688-.32813.65625-1.125 1.53125l-1.9375 2.04687h3.65624z" stroke="#fff" stroke-linecap="round" stroke-linejoin="round" stroke-width="3"/><path d="m166.4714 407.48438h.90626q.64062 0 .95312-.3125.3125-.32813.3125-.85938 0-.51562-.3125-.79688-.29688-.29687-.84375-.29687-.48437 0-.8125.26563-.32813.26562-.32813.6875h-1.6875q0-.65626.35938-1.1875.35938-.53126 1-.82813.65625-.3125 1.4375-.3125 1.34375 0 2.10938.65625.78124.64062.78124 1.78125 0 .59375-.35937 1.09375-.35937.48438-.9375.73438.71875.26562 1.0625.78124.35937.51563.35937 1.21876 0 1.14062-.82812 1.82812-.82812.6875-2.1875.6875-1.28125 0-2.09375-.67188-.8125-.6875-.8125-1.79687h1.6875q0 .48437.35937.79687.375.29688.89063.29688.60937 0 .95313-.3125.34374-.32812.34374-.85938 0-1.26562-1.40624-1.26562h-.90626zm5.4375 4.1875q0-.40626.26563-.65626.28125-.25.6875-.25.42187 0 .6875.25.28125.25.28125.65626 0 .39062-.28125.64062-.26563.25-.6875.25-.40625 0-.6875-.25-.26563-.25-.26563-.64062zm6.95313.82812h-1.6875v-6.53125l-2.01563.625v-1.375l3.53126-1.26563h.17187zm8.73437 0h-5.84374v-1.15625l2.76562-2.95313q.5625-.60937.82812-1.07812.28126-.46875.28126-.875 0-.57812-.29688-.89062-.28125-.32813-.8125-.32813-.57812 0-.90625.39063-.32813.39062-.32813 1.04687h-1.70312q0-.78125.375-1.42187.375-.65626 1.04688-1.01563.6875-.375 1.54687-.375 1.3125 0 2.04687.64063.73438.625.73438 1.78124 0 .64063-.32812 1.29688-.32813.65625-1.125 1.53125l-1.9375 2.04687h3.65624z" fill="#4472c4"/><path d="m165.92848 464.48438h.90625q.64063 0 .95313-.3125.3125-.32813.3125-.85938 0-.51562-.3125-.79688-.29688-.29687-.84376-.29687-.48437 0-.8125.26563-.32812.26562-.32812.6875h-1.6875q0-.65626.35938-1.1875.35937-.53126 1-.82813.65624-.3125 1.4375-.3125 1.34374 0 2.10937.65625.78125.64062.78125 1.78125 0 .59375-.35938 1.09375-.35937.48438-.9375.73438.71876.26562 1.0625.78124.35938.51563.35938 1.21876 0 1.14062-.82812 1.82812-.82813.6875-2.1875.6875-1.28126 0-2.09376-.67188-.8125-.6875-.8125-1.79687h1.6875q0 .48437.35938.79687.375.29688.89062.29688.60938 0 .95313-.3125.34375-.32812.34375-.85938 0-1.26562-1.40625-1.26562h-.90625zm5.4375 4.1875q0-.40626.26562-.65626.28126-.25.6875-.25.42188 0 .6875.25.28126.25.28126.65626 0 .39062-.28126.64062-.26562.25-.6875.25-.40624 0-.6875-.25-.26562-.25-.26562-.64062zm8.59375-2.70313q0 1.76563-.73437 2.71875-.73438.9375-2.14063.9375-1.40625 0-2.14063-.92188-.73437-.92187-.75-2.64062v-1.57812q0-1.78126.73438-2.70313.75-.9375 2.14062-.9375 1.39063 0 2.125.92187.75.92188.76563 2.64063zm-1.70313-1.71875q0-1.0625-.29687-1.54688-.28125-.48437-.89063-.48437-.59374 0-.89062.46875-.28125.45312-.29688 1.4375v2.0625q0 1.04688.28126 1.5625.28124.5.92187.5.60937 0 .89063-.48438.28124-.48437.28124-1.48437zm7.0625 5.25h-1.6875v-6.53125l-2.01562.625v-1.375l3.53125-1.26563h.17187z" stroke="#fff" stroke-linecap="round" stroke-linejoin="round" stroke-width="3"/><path d="m165.92848 464.48438h.90625q.64063 0 .95313-.3125.3125-.32813.3125-.85938 0-.51562-.3125-.79688-.29688-.29687-.84376-.29687-.48437 0-.8125.26563-.32812.26562-.32812.6875h-1.6875q0-.65626.35938-1.1875.35937-.53126 1-.82813.65624-.3125 1.4375-.3125 1.34374 0 2.10937.65625.78125.64062.78125 1.78125 0 .59375-.35938 1.09375-.35937.48438-.9375.73438.71876.26562 1.0625.78124.35938.51563.35938 1.21876 0 1.14062-.82812 1.82812-.82813.6875-2.1875.6875-1.28126 0-2.09376-.67188-.8125-.6875-.8125-1.79687h1.6875q0 .48437.35938.79687.375.29688.89062.29688.60938 0 .95313-.3125.34375-.32812.34375-.85938 0-1.26562-1.40625-1.26562h-.90625zm5.4375 4.1875q0-.40626.26562-.65626.28126-.25.6875-.25.42188 0 .6875.25.28126.25.28126.65626 0 .39062-.28126.64062-.26562.25-.6875.25-.40624 0-.6875-.25-.26562-.25-.26562-.64062zm8.59375-2.70313q0 1.76563-.73437 2.71875-.73438.9375-2.14063.9375-1.40625 0-2.14063-.92188-.73437-.92187-.75-2.64062v-1.57812q0-1.78126.73438-2.70313.75-.9375 2.14062-.9375 1.39063 0 2.125.92187.75.92188.76563 2.64063zm-1.70313-1.71875q0-1.0625-.29687-1.54688-.28125-.48437-.89063-.48437-.59374 0-.89062.46875-.28125.45312-.29688 1.4375v2.0625q0 1.04688.28126 1.5625.28124.5.92187.5.60937 0 .89063-.48438.28124-.48437.28124-1.48437zm7.0625 5.25h-1.6875v-6.53125l-2.01562.625v-1.375l3.53125-1.26563h.17187z" fill="#4472c4"/><path d="m169.31924 526.5h-5.84374v-1.15625l2.76562-2.95315q.5625-.60935.82812-1.0781.28126-.46875.28126-.875 0-.5781-.29688-.8906-.28125-.32815-.8125-.32815-.57812 0-.90625.39065-.32813.3906-.32813 1.04685h-1.70312q0-.78125.375-1.42185.375-.6563 1.04688-1.01565.6875-.375 1.54687-.375 1.3125 0 2.04687.64065.73438.625.73438 1.7812 0 .64065-.32812 1.2969-.32813.65625-1.125 1.53125l-1.9375 2.04685h3.65624zm1.3125-.8281q0-.4063.26563-.6563.28125-.25.6875-.25.42187 0 .6875.25.28125.25.28125.6563 0 .3906-.28125.6406-.26563.25-.6875.25-.40625 0-.6875-.25-.26563-.25-.26563-.6406zm8.40626-5.4375q0 .625-.3125 1.10935-.3125.46875-.85938.76565.625.29685.98438.8281.375.5156.375 1.21875 0 1.14065-.78126 1.8125-.76562.65625-2.10937.65625-1.32813 0-2.10937-.65625-.76563-.67185-.76563-1.8125 0-.70315.35937-1.23435.35938-.5313.98438-.8125-.54688-.2969-.85938-.76565-.3125-.48435-.3125-1.10935 0-1.0938.71876-1.7344.73437-.65625 1.98437-.65625 1.25 0 1.96875.65625.73438.6406.73438 1.7344zm-1.51563 3.79685q0-.54685-.32813-.875-.3125-.34375-.85937-.34375-.54687 0-.875.3281-.3125.32815-.3125.89065 0 .54685.3125.89065.32813.3281.89063.3281.54687 0 .85937-.3125.3125-.3281.3125-.90625zm-.17187-3.71875q0-.5-.26563-.7969-.26563-.29685-.75-.29685-.46875 0-.73437.29685-.26563.2813-.26563.7969 0 .5156.26563.8281.26562.3125.73437.3125.48437 0 .75-.3125.26563-.3125.26563-.8281zm8.92187-1.3906-3.29687 7.5781h-1.78126l3.29688-7.15625h-4.23438v-1.375h6.01563z" stroke="#fff" stroke-linecap="round" stroke-linejoin="round" stroke-width="3"/><path d="m169.31924 526.5h-5.84374v-1.15625l2.76562-2.95315q.5625-.60935.82812-1.0781.28126-.46875.28126-.875 0-.5781-.29688-.8906-.28125-.32815-.8125-.32815-.57812 0-.90625.39065-.32813.3906-.32813 1.04685h-1.70312q0-.78125.375-1.42185.375-.6563 1.04688-1.01565.6875-.375 1.54687-.375 1.3125 0 2.04687.64065.73438.625.73438 1.7812 0 .64065-.32812 1.2969-.32813.65625-1.125 1.53125l-1.9375 2.04685h3.65624zm1.3125-.8281q0-.4063.26563-.6563.28125-.25.6875-.25.42187 0 .6875.25.28125.25.28125.6563 0 .3906-.28125.6406-.26563.25-.6875.25-.40625 0-.6875-.25-.26563-.25-.26563-.6406zm8.40626-5.4375q0 .625-.3125 1.10935-.3125.46875-.85938.76565.625.29685.98438.8281.375.5156.375 1.21875 0 1.14065-.78126 1.8125-.76562.65625-2.10937.65625-1.32813 0-2.10937-.65625-.76563-.67185-.76563-1.8125 0-.70315.35937-1.23435.35938-.5313.98438-.8125-.54688-.2969-.85938-.76565-.3125-.48435-.3125-1.10935 0-1.0938.71876-1.7344.73437-.65625 1.98437-.65625 1.25 0 1.96875.65625.73438.6406.73438 1.7344zm-1.51563 3.79685q0-.54685-.32813-.875-.3125-.34375-.85937-.34375-.54687 0-.875.3281-.3125.32815-.3125.89065 0 .54685.3125.89065.32813.3281.89063.3281.54687 0 .85937-.3125.3125-.3281.3125-.90625zm-.17187-3.71875q0-.5-.26563-.7969-.26563-.29685-.75-.29685-.46875 0-.73437.29685-.26563.2813-.26563.7969 0 .5156.26563.8281.26562.3125.73437.3125.48437 0 .75-.3125.26563-.3125.26563-.8281zm8.92187-1.3906-3.29687 7.5781h-1.78126l3.29688-7.15625h-4.23438v-1.375h6.01563z" fill="#4472c4"/><path d="m156.29335 579.96875q0 1.76565-.73437 2.71875-.73438.9375-2.14063.9375-1.40625 0-2.14062-.9219-.73438-.92185-.75-2.6406v-1.5781q0-1.7813.73437-2.70315.75-.9375 2.14063-.9375 1.39062 0 2.125.92185.75.9219.76562 2.64065zm-1.70312-1.71875q0-1.0625-.29688-1.5469-.28125-.48435-.89062-.48435-.59375 0-.89063.46875-.28125.4531-.29687 1.4375v2.0625q0 1.0469.28125 1.5625.28125.5.92187.5.60938 0 .89063-.4844.28125-.48435.28125-1.48435zm3.10937 4.4219q0-.4063.26563-.6563.28125-.25.6875-.25.42187 0 .6875.25.28125.25.28125.6563 0 .3906-.28125.6406-.26563.25-.6875.25-.40625 0-.6875-.25-.26563-.25-.26563-.6406zm4.5625-4.1875h.90625q.64063 0 .95313-.3125.3125-.32815.3125-.8594 0-.5156-.3125-.7969-.29688-.29685-.84375-.29685-.48438 0-.8125.26565-.32813.2656-.32813.6875h-1.6875q0-.6563.35938-1.1875.35937-.5313 1-.82815.65625-.3125 1.4375-.3125 1.34375 0 2.10937.65625.78125.6406.78125 1.78125 0 .59375-.35937 1.09375-.35938.4844-.9375.7344.71875.2656 1.0625.7812.35937.51565.35937 1.2188 0 1.1406-.82812 1.8281-.82813.6875-2.1875.6875-1.28125 0-2.09375-.6719-.8125-.6875-.8125-1.79685h1.6875q0 .48435.35937.79685.375.2969.89063.2969.60937 0 .95312-.3125.34375-.3281.34375-.8594 0-1.2656-1.40625-1.2656h-.90625zm10.84375-1.25q0 .625-.3125 1.10935-.3125.46875-.85937.76565.625.29685.98437.8281.375.5156.375 1.21875 0 1.14065-.78125 1.8125-.76562.65625-2.10937.65625-1.32813 0-2.10938-.65625-.76562-.67185-.76562-1.8125 0-.70315.35937-1.23435.35938-.5313.98438-.8125-.54688-.2969-.85938-.76565-.3125-.48435-.3125-1.10935 0-1.0938.71875-1.7344.73438-.65625 1.98438-.65625 1.25 0 1.96875.65625.73437.6406.73437 1.7344zm-1.51562 3.79685q0-.54685-.32813-.875-.3125-.34375-.85937-.34375-.54688 0-.875.3281-.3125.32815-.3125.89065 0 .54685.3125.89065.32812.3281.89062.3281.54688 0 .85938-.3125.3125-.3281.3125-.90625zm-.17188-3.71875q0-.5-.26562-.7969-.26563-.29685-.75-.29685-.46875 0-.73438.29685-.26562.2813-.26562.7969 0 .5156.26562.8281.26563.3125.73438.3125.48437 0 .75-.3125.26562-.3125.26562-.8281z" stroke="#fff" stroke-linecap="round" stroke-linejoin="round" stroke-width="3"/><path d="m156.29335 579.96875q0 1.76565-.73437 2.71875-.73438.9375-2.14063.9375-1.40625 0-2.14062-.9219-.73438-.92185-.75-2.6406v-1.5781q0-1.7813.73437-2.70315.75-.9375 2.14063-.9375 1.39062 0 2.125.92185.75.9219.76562 2.64065zm-1.70312-1.71875q0-1.0625-.29688-1.5469-.28125-.48435-.89062-.48435-.59375 0-.89063.46875-.28125.4531-.29687 1.4375v2.0625q0 1.0469.28125 1.5625.28125.5.92187.5.60938 0 .89063-.4844.28125-.48435.28125-1.48435zm3.10937 4.4219q0-.4063.26563-.6563.28125-.25.6875-.25.42187 0 .6875.25.28125.25.28125.6563 0 .3906-.28125.6406-.26563.25-.6875.25-.40625 0-.6875-.25-.26563-.25-.26563-.6406zm4.5625-4.1875h.90625q.64063 0 .95313-.3125.3125-.32815.3125-.8594 0-.5156-.3125-.7969-.29688-.29685-.84375-.29685-.48438 0-.8125.26565-.32813.2656-.32813.6875h-1.6875q0-.6563.35938-1.1875.35937-.5313 1-.82815.65625-.3125 1.4375-.3125 1.34375 0 2.10937.65625.78125.6406.78125 1.78125 0 .59375-.35937 1.09375-.35938.4844-.9375.7344.71875.2656 1.0625.7812.35937.51565.35937 1.2188 0 1.1406-.82812 1.8281-.82813.6875-2.1875.6875-1.28125 0-2.09375-.6719-.8125-.6875-.8125-1.79685h1.6875q0 .48435.35937.79685.375.2969.89063.2969.60937 0 .95312-.3125.34375-.3281.34375-.8594 0-1.2656-1.40625-1.2656h-.90625zm10.84375-1.25q0 .625-.3125 1.10935-.3125.46875-.85937.76565.625.29685.98437.8281.375.5156.375 1.21875 0 1.14065-.78125 1.8125-.76562.65625-2.10937.65625-1.32813 0-2.10938-.65625-.76562-.67185-.76562-1.8125 0-.70315.35937-1.23435.35938-.5313.98438-.8125-.54688-.2969-.85938-.76565-.3125-.48435-.3125-1.10935 0-1.0938.71875-1.7344.73438-.65625 1.98438-.65625 1.25 0 1.96875.65625.73437.6406.73437 1.7344zm-1.51562 3.79685q0-.54685-.32813-.875-.3125-.34375-.85937-.34375-.54688 0-.875.3281-.3125.32815-.3125.89065 0 .54685.3125.89065.32812.3281.89062.3281.54688 0 .85938-.3125.3125-.3281.3125-.90625zm-.17188-3.71875q0-.5-.26562-.7969-.26563-.29685-.75-.29685-.46875 0-.73438.29685-.26562.2813-.26562.7969 0 .5156.26562.8281.26563.3125.73438.3125.48437 0 .75-.3125.26562-.3125.26562-.8281z" fill="#4472c4"/><path d="m157.4417 636.96875q0 1.76565-.73438 2.71875-.73437.9375-2.14062.9375-1.40625 0-2.14063-.9219-.73437-.92185-.75-2.6406v-1.5781q0-1.7813.73438-2.70315.75-.9375 2.14062-.9375 1.39063 0 2.125.92185.75.9219.76563 2.64065zm-1.70313-1.71875q0-1.0625-.29687-1.5469-.28125-.48435-.89063-.48435-.59375 0-.89062.46875-.28125.4531-.29688 1.4375v2.0625q0 1.0469.28125 1.5625.28125.5.92188.5.60937 0 .89062-.4844.28125-.48435.28125-1.48435zm3.10938 4.4219q0-.4063.26562-.6563.28125-.25.6875-.25.42188 0 .6875.25.28125.25.28125.6563 0 .3906-.28125.6406-.26562.25-.6875.25-.40625 0-.6875-.25-.26562-.25-.26562-.6406zm7.4375-7.7969v1.40625h-.15625q-1.15625.01565-1.85938.59375-.6875.5781-.82812 1.6094.67187-.6875 1.70312-.6875 1.125 0 1.78125.79685.65625.79685.65625 2.09375 0 .8281-.35937 1.5-.35938.6719-1.03125 1.0625-.65625.375-1.48438.375-1.34375 0-2.17187-.9375-.82813-.9531-.82813-2.5156v-.6094q0-1.3906.51563-2.4531.53125-1.0625 1.5-1.64065.98437-.57815 2.28125-.59375zm-1.65625 4.28125q-.40625 0-.75.21875-.32813.2031-.48438.5625v.5156q0 .8438.32813 1.32815.34375.46875.95312.46875.54688 0 .875-.4219.34375-.4375.34375-1.125 0-.7031-.34375-1.125-.34375-.42185-.92187-.42185zm9.8125.8125q0 1.76565-.73438 2.71875-.73437.9375-2.14062.9375-1.40625 0-2.14063-.9219-.73437-.92185-.75-2.6406v-1.5781q0-1.7813.73438-2.70315.75-.9375 2.14062-.9375 1.39063 0 2.125.92185.75.9219.76563 2.64065zm-1.70313-1.71875q0-1.0625-.29687-1.5469-.28125-.48435-.89063-.48435-.59375 0-.89062.46875-.28125.4531-.29688 1.4375v2.0625q0 1.0469.28125 1.5625.28125.5.92188.5.60937 0 .89062-.4844.28125-.48435.28125-1.48435z" stroke="#fff" stroke-linecap="round" stroke-linejoin="round" stroke-width="3"/><path d="m157.4417 636.96875q0 1.76565-.73438 2.71875-.73437.9375-2.14062.9375-1.40625 0-2.14063-.9219-.73437-.92185-.75-2.6406v-1.5781q0-1.7813.73438-2.70315.75-.9375 2.14062-.9375 1.39063 0 2.125.92185.75.9219.76563 2.64065zm-1.70313-1.71875q0-1.0625-.29687-1.5469-.28125-.48435-.89063-.48435-.59375 0-.89062.46875-.28125.4531-.29688 1.4375v2.0625q0 1.0469.28125 1.5625.28125.5.92188.5.60937 0 .89062-.4844.28125-.48435.28125-1.48435zm3.10938 4.4219q0-.4063.26562-.6563.28125-.25.6875-.25.42188 0 .6875.25.28125.25.28125.6563 0 .3906-.28125.6406-.26562.25-.6875.25-.40625 0-.6875-.25-.26562-.25-.26562-.6406zm7.4375-7.7969v1.40625h-.15625q-1.15625.01565-1.85938.59375-.6875.5781-.82812 1.6094.67187-.6875 1.70312-.6875 1.125 0 1.78125.79685.65625.79685.65625 2.09375 0 .8281-.35937 1.5-.35938.6719-1.03125 1.0625-.65625.375-1.48438.375-1.34375 0-2.17187-.9375-.82813-.9531-.82813-2.5156v-.6094q0-1.3906.51563-2.4531.53125-1.0625 1.5-1.64065.98437-.57815 2.28125-.59375zm-1.65625 4.28125q-.40625 0-.75.21875-.32813.2031-.48438.5625v.5156q0 .8438.32813 1.32815.34375.46875.95312.46875.54688 0 .875-.4219.34375-.4375.34375-1.125 0-.7031-.34375-1.125-.34375-.42185-.92187-.42185zm9.8125.8125q0 1.76565-.73438 2.71875-.73437.9375-2.14062.9375-1.40625 0-2.14063-.9219-.73437-.92185-.75-2.6406v-1.5781q0-1.7813.73438-2.70315.75-.9375 2.14062-.9375 1.39063 0 2.125.92185.75.9219.76563 2.64065zm-1.70313-1.71875q0-1.0625-.29687-1.5469-.28125-.48435-.89063-.48435-.59375 0-.89062.46875-.28125.4531-.29688 1.4375v2.0625q0 1.0469.28125 1.5625.28125.5.92188.5.60937 0 .89062-.4844.28125-.48435.28125-1.48435z" fill="#4472c4"/><g fill="#000"><path d="m87.625 70.45278h4.296875v1.40625h-6.5v-1.03125l4.21875-6.07812h-4.203125v-1.42188h6.390625v1zm7.40625-.65625 1.171875-4.28125h1.765625l-2.140625 6.34375h-1.609375l-2.140625-6.34375h1.765625zm5.40625 2.0625h-1.703125v-6.34375h1.703125zm-1.796875-7.984373q0-.375.25-.625.265625-.25.703125-.25.421875 0 .671875.25.265625.25.265625.625 0 .390623-.265625.640623-.25.23438-.6875.23438-.421875 0-.6875-.23438-.25-.25-.25-.640623zm5.921875 8.109373q-1.390625 0-2.265625-.85937-.875-.85938-.875-2.28125v-.17188q0-.95312.359375-1.70312.375-.75 1.046875-1.15625.6875-.40625 1.546875-.40625 1.3125 0 2.046875.82812.75.8125.75 2.3125v.6875h-4.03125q.078125.625.484375 1 .421875.375 1.0625.375.96875 0 1.515625-.70312l.84375.92187q-.390625.54688-1.046875.85938-.640625.29687-1.4375.29687zm-.1875-5.21875q-.5 0-.8125.34375-.3125.34375-.40625.96875h2.359375v-.125q-.015625-.5625-.3125-.875-.28125-.3125-.828125-.3125zm3.015625 1.875q0-1.48437.65625-2.35937.671875-.875 1.828125-.875.921875 0 1.53125.6875v-3.23438h1.6875v9h-1.515625l-.09375-.67187q-.625.79687-1.625.79687-1.125 0-1.796875-.875-.671875-.89062-.671875-2.46875zm1.6875.125q0 .89063.3125 1.375.3125.46875.90625.46875.78125 0 1.109375-.67187v-2.5q-.328125-.65625-1.09375-.65625-1.234375 0-1.234375 1.98437zm9.140625-1.65625q-.34375-.04687-.609375-.04687-.96875 0-1.265625.64062v4.15625h-1.6875v-6.34375h1.59375l.046875.76563q.515625-.875 1.40625-.875.28125 0 .53125.07812zm2.21875 4.75h-1.703125v-6.34375h1.703125zm-1.796875-7.984373q0-.375.25-.625.265625-.25.703125-.25.421875 0 .671875.25.265625.25.265625.625 0 .390623-.265625.640623-.25.23438-.6875.23438-.421875 0-.6875-.23438-.25-.25-.25-.640623zm4.796875 1.640623v6.6875q0 1.04688-.5625 1.625-.546875.59375-1.59375.59375-.4375 0-.84375-.09375v-1.34375q.3125.04688.53125.04688.78125 0 .78125-.8125v-6.70313zm-1.828125-1.640623q0-.375.25-.625.265625-.25.703125-.25.4375 0 .6875.25.265625.25.265625.625 0 .390623-.265625.640623-.265625.23438-.703125.23438-.421875 0-.6875-.23438-.25-.25-.25-.640623zm6.718745 7.984373q-.125-.23437-.17187-.5625-.609375.6875-1.59375.6875-.9375 0-1.546875-.54687-.609375-.54688-.609375-1.35938 0-1.01562.734375-1.54687.75-.54688 2.171875-.54688h.76562v-.35937q0-.4375-.218745-.70313-.21875-.26562-.71875-.26562-.421875 0-.671875.20312-.234375.20313-.234375.5625h-1.6875q0-.54687.328125-1.01562.34375-.46875.96875-.73438.625-.26562 1.390625-.26562 1.171875 0 1.859375.59375.6875.57812.6875 1.64062v2.75q.01563.90625.25 1.375v.09375zm-1.406245-1.17187q.375 0 .6875-.17188.328125-.17187.468745-.45312v-1.09375h-.624995q-1.265625 0-1.359375.89062v.09375q0 .3125.21875.53125.21875.20313.609375.20313z"/><path d="m99.1875 126.45285q0-.5-.359375-.765625-.34375-.265625-1.265625-.5625-.90625-.296875-1.4375-.59375-1.453125-.78125-1.453125-2.109375 0-.6875.390625-1.234375.390625-.546875 1.109375-.84375.734375-.3125 1.640625-.3125.921875 0 1.625.34375.71875.328125 1.109375.9375.40625.59375.40625 1.359375h-1.765625q0-.578125-.375-.90625-.359375-.328125-1.03125-.328125-.640625 0-1 .28125-.359375.265625-.359375.703125 0 .421875.421875.703125.421875.28125 1.234375.53125 1.5.453125 2.1875 1.125.6875.65625.6875 1.65625 0 1.109375-.84375 1.750005-.828125.625-2.25.625-.984375 0-1.796875-.35938-.8125-.375-1.234375-1-.421875-.625-.421875-1.453125h1.765625q0 1.421875 1.6875 1.421875.625 0 .96875-.25.359375-.265625.359375-.71875zm2.203125-1q0-.9375.359375-1.671875.359375-.75 1.046875-1.140625.6875-.40625 1.578125-.40625 1.296875 0 2.09375.78125.8125.78125.90625 2.125l.015625.4375q0 1.46875-.8125 2.359375-.8125.875005-2.1875.875005-1.375 0-2.1875-.875005-.8125-.890625-.8125-2.40625zm1.6875.125q0 .90625.34375 1.390625.34375.46875.96875.46875.625 0 .96875-.46875.34375-.46875.34375-1.515625 0-.875-.34375-1.359375-.34375-.5-.984375-.5-.609375 0-.953125.484375-.34375.484375-.34375 1.5zm7.15625-3.234375.0625.71875q.671875-.828125 1.8125-.828125 1.234375 0 1.6875.96875.671875-.96875 1.90625-.96875 1.03125 0 1.53125.609375.5.59375.5 1.796875v4.04688h-1.6875v-4.04688q0-.53125-.21875-.78125-.203125-.25-.75-.25-.75 0-1.046875.71875v4.35938h-1.6875v-4.031255q0-.5625-.21875-.796875-.21875-.25-.734375-.25-.71875 0-1.046875.59375v4.48438h-1.6875v-6.343755zm10.203125 6.343755h-1.703125v-6.343755h1.703125zm-1.796875-7.98438q0-.375.25-.625.265625-.25.703125-.25.421875 0 .671875.25.265625.25.265625.625 0 .390625-.265625.640625-.25.234375-.6875.234375-.421875 0-.6875-.234375-.25-.25-.25-.640625zm4.796875 1.640625v6.687505q0 1.04687-.5625 1.625-.546875.59375-1.59375.59375-.4375 0-.84375-.09375v-1.34375q.3125.04687.53125.04687.78125 0 .78125-.8125v-6.703125zm-1.828125-1.640625q0-.375.25-.625.265625-.25.703125-.25.4375 0 .6875.25.265625.25.265625.625 0 .390625-.265625.640625-.265625.234375-.703125.234375-.421875 0-.6875-.234375-.25-.25-.25-.640625zm6.718745 7.98438q-.125-.23438-.17187-.5625-.609375.6875-1.59375.6875-.9375 0-1.546875-.54688-.609375-.546875-.609375-1.359375 0-1.015625.734375-1.546875.75-.546875 2.171875-.546875h.76562v-.359375q0-.4375-.218745-.703125-.21875-.265625-.71875-.265625-.421875 0-.671875.203125-.234375.203125-.234375.5625h-1.6875q0-.546875.328125-1.015625.34375-.46875.96875-.734375.625-.265625 1.390625-.265625 1.171875 0 1.859375.59375.6875.578125.6875 1.640625v2.75q.01563.906255.25 1.375005v.09375zm-1.406245-1.17188q.375 0 .6875-.171875.328125-.171875.468745-.453125v-1.09375h-.624995q-1.265625 0-1.359375.890625v.09375q0 .3125.21875.53125.21875.203125.609375.203125z"/><path d="m89.625 185.51541h-1.75v-8.53125h1.75zm1.78125-3.21875q0-1.45312.6875-2.34375.703125-.89062 1.875-.89062 1.046875 0 1.625.70312l.078125-.59375h1.53125v6.125q0 .84375-.390625 1.45313-.375.625-1.0625.9375-.671875.32812-1.59375.32812-.703125 0-1.375-.28125-.65625-.28125-.984375-.71875l.75-1.03125q.625.70313 1.53125.70313.671875 0 1.046875-.35938.375-.35937.375-1.01562v-.34375q-.578125.67187-1.546875.67187-1.140625 0-1.84375-.89062-.703125-.90625-.703125-2.375zm1.6875.125q0 .85938.34375 1.35938.359375.48437.953125.48437.78125 0 1.109375-.57812v-2.67188q-.34375-.57812-1.09375-.57812-.609375 0-.96875.5-.34375.5-.34375 1.48437zm9.234375 3.09375q-.125-.23437-.171875-.5625-.609375.6875-1.59375.6875-.9375 0-1.546875-.54687-.609375-.54688-.609375-1.35938 0-1.01562.734375-1.54687.75-.54688 2.171875-.54688h.765625v-.35937q0-.4375-.21875-.70313-.21875-.26562-.71875-.26562-.421875 0-.671875.20312-.234375.20313-.234375.5625h-1.6875q0-.54687.328125-1.01562.34375-.46875.96875-.73438.625-.26562 1.390625-.26562 1.171875 0 1.859375.59375.6875.57812.6875 1.64062v2.75q.015625.90625.25 1.375v.09375zm-1.40625-1.17187q.375 0 .6875-.17188.328125-.17187.46875-.45312v-1.09375h-.625q-1.265625 0-1.359375.89062v.09375q0 .3125.21875.53125.21875.20313.609375.20313zm7.53125.53125q-.625.76562-1.734375.76562-1.03125 0-1.5625-.59375-.53125-.59375-.546875-1.71875v-4.15625h1.6875v4.09375q0 1 .90625 1 .859375 0 1.1875-.60937v-4.48438h1.703125v6.34375h-1.59375zm4.75-5.70313.0625.73438q.671875-.84375 1.8125-.84375 1.015625 0 1.5.59375.5.57812.515625 1.76562v4.09375h-1.703125v-4.0625q0-.53125-.234375-.76562-.234375-.25-.78125-.25-.703125 0-1.0625.60937v4.46875h-1.703125v-6.34375zm7.234375 6.34375h-1.703125v-6.34375h1.703125zm-1.796875-7.98437q0-.375.25-.625.265625-.25.703125-.25.421875 0 .671875.25.265625.25.265625.625 0 .39062-.265625.64062-.25.23438-.6875.23438-.421875 0-.6875-.23438-.25-.25-.25-.64062zm4.796875 1.64062v6.6875q0 1.04688-.5625 1.625-.546875.59375-1.59375.59375-.4375 0-.84375-.09375v-1.34375q.3125.04688.53125.04688.78125 0 .78125-.8125v-6.70313zm-1.828125-1.64062q0-.375.25-.625.265625-.25.703125-.25.4375 0 .6875.25.265625.25.265625.625 0 .39062-.265625.64062-.265625.23438-.703125.23438-.421875 0-.6875-.23438-.25-.25-.25-.64062zm6.718745 7.98437q-.125-.23437-.17187-.5625-.609375.6875-1.59375.6875-.9375 0-1.546875-.54687-.609375-.54688-.609375-1.35938 0-1.01562.734375-1.54687.75-.54688 2.171875-.54688h.76562v-.35937q0-.4375-.218745-.70313-.21875-.26562-.71875-.26562-.421875 0-.671875.20312-.234375.20313-.234375.5625h-1.6875q0-.54687.328125-1.01562.34375-.46875.96875-.73438.625-.26562 1.390625-.26562 1.171875 0 1.859375.59375.6875.57812.6875 1.64062v2.75q.01563.90625.25 1.375v.09375zm-1.406245-1.17187q.375 0 .6875-.17188.328125-.17187.468745-.45312v-1.09375h-.624995q-1.265625 0-1.359375.89062v.09375q0 .3125.21875.53125.21875.20313.609375.20313z"/><path d="m109.4375 238.92174-.921875.98437v2.4375h-1.75v-8.53125h1.75v3.85938l.78125-1.04688 2.171875-2.8125h2.15625l-3.03125 3.79688 3.125 4.73437h-2.09375zm.171875 6.07812-.828125-.46875q.421875-.67187.4375-1.42187v-.59375h1.25v.40625q0 .54687-.25 1.125-.25.59375-.609375.95312zm6.875-2.65625h-1.703125v-6.34375h1.703125zm1.203125-7.45312h-4.046875v-.96875h4.046875zm1.515625 1.10937.0625.73438q.671875-.84375 1.8125-.84375 1.015625 0 1.5.59375.5.57812.515625 1.76562v4.09375h-1.703125v-4.0625q0-.53125-.234375-.76562-.234375-.25-.78125-.25-.703125 0-1.0625.60937v4.46875h-1.703125v-6.34375zm9.124995 6.34375q-.125-.23437-.17187-.5625-.609375.6875-1.59375.6875-.9375 0-1.546875-.54687-.609375-.54688-.609375-1.35938 0-1.01562.734375-1.54687.75-.54688 2.171875-.54688h.76562v-.35937q0-.4375-.218745-.70313-.21875-.26562-.71875-.26562-.421875 0-.671875.20312-.234375.20313-.234375.5625h-1.6875q0-.54687.328125-1.01562.34375-.46875.96875-.73438.625-.26562 1.390625-.26562 1.171875 0 1.859375.59375.6875.57812.6875 1.64062v2.75q.01563.90625.25 1.375v.09375zm-1.406245-1.17187q.375 0 .6875-.17188.328125-.17187.468745-.45312v-1.09375h-.624995q-1.265625 0-1.359375.89062v.09375q0 .3125.21875.53125.21875.20313.609375.20313z"/><path d="m101.921875 297.06244 1.921875-6.42188h1.96875l-2.984375 8.53124h-1.828125l-2.953125-8.53124h1.953125zm8.40625 2.10936q-.125-.23436-.171875-.5625-.609375.6875-1.59375.6875-.9375 0-1.546875-.54686-.609375-.54688-.609375-1.35938 0-1.01562.734375-1.54686.75-.5469 2.171875-.5469h.765625v-.35936q0-.4375-.21875-.70314-.21875-.2656-.71875-.2656-.421875 0-.671875.2031-.234375.20314-.234375.5625h-1.6875q0-.54686.328125-1.0156.34375-.46876.96875-.7344.625-.2656 1.390625-.2656 1.171875 0 1.859375.59374.6875.57812.6875 1.64062v2.75q.015625.90624.25 1.375v.09374zm-1.40625-1.17186q.375 0 .6875-.17188.328125-.17186.46875-.45312v-1.09374h-.625q-1.265625 0-1.359375.8906v.09376q0 .3125.21875.53124.21875.20314.609375.20314zm2.34375-6.375h-4.046875v-.96874h4.046875zm4.015625 6.29686q.46875 0 .765625-.25.296875-.2656.3125-.6875h1.578125q0 .64064-.34375 1.1875-.34375.53126-.953125.82814-.59375.29686-1.328125.29686-1.359375 0-2.140625-.85936-.78125-.875-.78125-2.40624v-.1094q0-1.46874.78125-2.3281.78125-.875 2.140625-.875 1.1875 0 1.90625.67186.71875.67188.71875 1.79688h-1.578125q-.015625-.48438-.3125-.79688-.296875-.3125-.765625-.3125-.59375 0-.90625.4375-.296875.4375-.296875 1.39064v.1875q0 .96874.296875 1.40624.296875.42186.90625.42186zm5.15625 1.25h-1.703125v-6.34374h1.703125zm-1.796875-7.98436q0-.375.25-.625.265625-.25.703125-.25.421875 0 .671875.25.265625.25.265625.625 0 .39062-.265625.64062-.25.23438-.6875.23438-.421875 0-.6875-.23438-.25-.25-.25-.64062zm4.796875 1.64062v6.6875q0 1.04688-.5625 1.625-.546875.59374-1.59375.59374-.4375 0-.84375-.09374v-1.34376q.3125.0469.53125.0469.78125 0 .78125-.8125v-6.70314zm-1.828125-1.64062q0-.375.25-.625.265625-.25.703125-.25.4375 0 .6875.25.265625.25.265625.625 0 .39062-.265625.64062-.265625.23438-.703125.23438-.421875 0-.6875-.23438-.25-.25-.25-.64062zm6.718745 7.98436q-.125-.23436-.17187-.5625-.609375.6875-1.59375.6875-.9375 0-1.546875-.54686-.609375-.54688-.609375-1.35938 0-1.01562.734375-1.54686.75-.5469 2.171875-.5469h.76562v-.35936q0-.4375-.218745-.70314-.21875-.2656-.71875-.2656-.421875 0-.671875.2031-.234375.20314-.234375.5625h-1.6875q0-.54686.328125-1.0156.34375-.46876.96875-.7344.625-.2656 1.390625-.2656 1.171875 0 1.859375.59374.6875.57812.6875 1.64062v2.75q.01563.90624.25 1.375v.09374zm-1.406245-1.17186q.375 0 .6875-.17188.328125-.17186.468745-.45312v-1.09374h-.624995q-1.265625 0-1.359375.8906v.09376q0 .3125.21875.53124.21875.20314.609375.20314z"/><path d="m102.515625 353v3h-1.75v-8.53125h3.328125q.953125 0 1.6875.35937.734375.34376 1.125 1 .390625.64063.390625 1.46876 0 1.25-.859375 1.98437-.859375.71875-2.375.71875zm0-1.4375h1.578125q.6875 0 1.046875-.32812.375-.32813.375-.9375 0-.625-.375-1-.359375-.39063-1.015625-.40626h-1.609375zm5.875 1.20312q0-.9375.359375-1.67187.359375-.75 1.046875-1.14063.6875-.40624 1.578125-.40624 1.296875 0 2.09375.78124.8125.78126.90625 2.125l.015625.4375q0 1.46876-.8125 2.35938-.8125.875-2.1875.875-1.375 0-2.1875-.875-.8125-.89062-.8125-2.40625zm1.6875.125q0 .90626.34375 1.39063.34375.46875.96875.46875.625 0 .96875-.46875.34375-.46875.34375-1.51563 0-.875-.34375-1.35937-.34375-.5-.984375-.5-.609375 0-.953125.48437-.34375.48438-.34375 1.5zm7.359375 3.10938h-1.703125v-9h1.703125zm3 0h-1.703125v-6.34375h1.703125zm-1.796875-7.98438q0-.375.25-.625.265625-.25.703125-.25.421875 0 .671875.25.265625.25.265625.625 0 .39063-.265625.64063-.25.23437-.6875.23437-.421875 0-.6875-.23437-.25-.25-.25-.64063zm4.796875 1.64063v6.6875q0 1.04687-.5625 1.625-.546875.59375-1.59375.59375-.4375 0-.84375-.09375v-1.34375q.3125.04688.53125.04688.78125 0 .78125-.8125v-6.70313zm-1.828125-1.64063q0-.375.25-.625.265625-.25.703125-.25.4375 0 .6875.25.265625.25.265625.625 0 .39063-.265625.64063-.265625.23437-.703125.23437-.421875 0-.6875-.23437-.25-.25-.25-.64063zm6.718745 7.98438q-.125-.23438-.17187-.5625-.609375.6875-1.59375.6875-.9375 0-1.546875-.54688-.609375-.54687-.609375-1.35937 0-1.01563.734375-1.54687.75-.54688 2.171875-.54688h.76562v-.35938q0-.4375-.218745-.70312-.21875-.26562-.71875-.26562-.421875 0-.671875.20312-.234375.20312-.234375.5625h-1.6875q0-.54688.328125-1.01562.34375-.46876.96875-.73438.625-.26562 1.390625-.26562 1.171875 0 1.859375.59374.6875.57813.6875 1.64063v2.75q.01563.90625.25 1.375v.09375zm-1.406245-1.17188q.375 0 .6875-.17187.328125-.17187.468745-.45313v-1.09374h-.624995q-1.265625 0-1.359375.89062v.09375q0 .3125.21875.53125.21875.20312.609375.20312z"/><path d="m34.578125 411.06256h-3.078125l-.59375 1.76564h-1.859375l3.171875-8.53126h1.625l3.203125 8.53126h-1.875zm-2.609375-1.42186h2.140625l-1.078125-3.1875zm11.390625.0781q0 1.46876-.671875 2.3594-.65625.875-1.796875.875-.953125 0-1.546875-.6719v2.9844h-1.6875v-8.78126h1.5625l.0625.625q.609375-.73438 1.609375-.73438 1.171875 0 1.8125.875.65625.85938.65625 2.375zm-1.6875-.125q0-.8906-.328125-1.35936-.3125-.48438-.90625-.48438-.796875 0-1.09375.60938v2.59376q.3125.625 1.109375.625 1.21875 0 1.21875-1.9844zm5.359375 1.1719 1.171875-4.28126h1.765625l-2.140625 6.34376h-1.609375l-2.140625-6.34376h1.765625zm5.40625 2.0625h-1.703125v-6.34376h1.703125zm-1.796875-7.9844q0-.375.25-.625.265625-.25.703125-.25.421875 0 .671875.25.265625.25.265625.625 0 .39064-.265625.64064-.25.23436-.6875.23436-.421875 0-.6875-.23436-.25-.25-.25-.64064zm5.921875 8.1094q-1.390625 0-2.265625-.8594-.875-.85936-.875-2.28124v-.17186q0-.95314.359375-1.70314.375-.75 1.046875-1.15626.6875-.40624 1.546875-.40624 1.3125 0 2.046875.82814.75.8125.75 2.3125v.6875h-4.03125q.078125.625.484375 1 .421875.375 1.0625.375.96875 0 1.515625-.70314l.84375.92188q-.390625.54686-1.046875.85936-.640625.2969-1.4375.2969zm-.1875-5.21876q-.5 0-.8125.34376-.3125.34374-.40625.96874h2.359375v-.125q-.015625-.5625-.3125-.875-.28125-.3125-.828125-.3125zm4.828125-1.25.0625.73436q.671875-.84374 1.8125-.84374 1.015625 0 1.5.59374.5.57814.515625 1.76564v4.09376h-1.703125v-4.0625q0-.53126-.234375-.76564-.234375-.25-.78125-.25-.703125 0-1.0625.60938v4.46876h-1.703125v-6.34376zm5.1875 3.10936q0-.9375.359375-1.67186.359375-.75 1.046875-1.14064.6875-.40624 1.578125-.40624 1.296875 0 2.09375.78124.8125.78126.90625 2.125l.015625.4375q0 1.46876-.8125 2.3594-.8125.875-2.1875.875-1.375 0-2.1875-.875-.8125-.89064-.8125-2.40626zm1.6875.125q0 .90626.34375 1.39064.34375.46876.96875.46876.625 0 .96875-.46876.34375-.46874.34375-1.51564 0-.875-.34375-1.35936-.34375-.5-.984375-.5-.609375 0-.953125.48436-.34375.4844-.34375 1.5zm7.59375-4.79686v1.5625h1.09375v1.25h-1.09375v3.15626q0 .35936.140625.5156.140625.14064.515625.14064.28125 0 .5-.03124v1.28124q-.5.15626-1.03125.15626-1.78125 0-1.8125-1.8125v-3.40626h-.921875v-1.25h.921875v-1.5625zm5.65625 7.90626q-.125-.2344-.171875-.5625-.609375.6875-1.59375.6875-.9375 0-1.546875-.5469-.609375-.54686-.609375-1.35936 0-1.01564.734375-1.54688.75-.54686 2.171875-.54686h.765625v-.3594q0-.4375-.21875-.7031-.21875-.26564-.71875-.26564-.421875 0-.671875.20314-.234375.2031-.234375.5625h-1.6875q0-.5469.328125-1.01564.34375-.46876.96875-.73436.625-.26564 1.390625-.26564 1.171875 0 1.859375.59374.6875.57814.6875 1.64064v2.75q.015625.90626.25 1.375v.09376zm-1.40625-1.1719q.375 0 .6875-.17186.328125-.17188.46875-.45314v-1.09374h-.625q-1.265625 0-1.359375.89064v.09374q0 .3125.21875.53126.21875.2031.609375.2031zm2.34375-6.375h-4.046875v-.96874h4.046875zm6.6875 5-.609375.6094v1.9375h-1.6875v-9h1.6875v4.98436l.328125-.42186 1.625-1.90626h2.03125l-2.296875 2.64062 2.5 3.70314h-1.953125zm7.375 2.5469q-.125-.2344-.171875-.5625-.609375.6875-1.59375.6875-.9375 0-1.546875-.5469-.609375-.54686-.609375-1.35936 0-1.01564.734375-1.54688.75-.54686 2.171875-.54686h.765625v-.3594q0-.4375-.21875-.7031-.21875-.26564-.71875-.26564-.421875 0-.671875.20314-.234375.2031-.234375.5625h-1.6875q0-.5469.328125-1.01564.34375-.46876.96875-.73436.625-.26564 1.390625-.26564 1.171875 0 1.859375.59374.6875.57814.6875 1.64064v2.75q.015625.90626.25 1.375v.09376zm-1.40625-1.1719q.375 0 .6875-.17186.328125-.17188.46875-.45314v-1.09374h-.625q-1.265625 0-1.359375.89064v.09374q0 .3125.21875.53126.21875.2031.609375.2031zm7.296875-3.5781q-.34375-.0469-.609375-.0469-.96875 0-1.265625.64064v4.15626h-1.6875v-6.34376h1.59375l.046875.76562q.515625-.875 1.40625-.875.28125 0 .53125.07814zm4.109375 4.75q-.125-.2344-.171875-.5625-.609375.6875-1.59375.6875-.9375 0-1.546875-.5469-.609375-.54686-.609375-1.35936 0-1.01564.734375-1.54688.75-.54686 2.171875-.54686h.765625v-.3594q0-.4375-.21875-.7031-.21875-.26564-.71875-.26564-.421875 0-.671875.20314-.234375.2031-.234375.5625h-1.6875q0-.5469.328125-1.01564.34375-.46876.96875-.73436.625-.26564 1.390625-.26564 1.171875 0 1.859375.59374.6875.57814.6875 1.64064v2.75q.015625.90626.25 1.375v.09376zm-1.40625-1.1719q.375 0 .6875-.17186.328125-.17188.46875-.45314v-1.09374h-.625q-1.265625 0-1.359375.89064v.09374q0 .3125.21875.53126.21875.2031.609375.2031zm5.515625 1.1719h-1.703125v-9h1.703125zm3 0h-1.703125v-6.34376h1.703125zm-1.796875-7.9844q0-.375.25-.625.265625-.25.703125-.25.421875 0 .671875.25.265625.25.265625.625 0 .39064-.265625.64064-.25.23436-.6875.23436-.421875 0-.6875-.23436-.25-.25-.25-.64064zm6.4375 6.2344q0-.3125-.3125-.4844-.296875-.1875-.96875-.3281-2.265625-.46876-2.265625-1.9219 0-.84374.6875-1.40624.703125-.5625 1.84375-.5625 1.203125 0 1.921875.5625.734375.5625.734375 1.48438h-1.703125q0-.375-.234375-.60938-.234375-.23436-.734375-.23436-.421875 0-.65625.2031-.234375.1875-.234375.4844 0 .28124.265625.4531.265625.1719.890625.2969.640625.125 1.078125.28124 1.34375.5 1.34375 1.70312 0 .875-.75 1.42188-.734375.53126-1.921875.53126-.796875 0-1.421875-.28126-.609375-.29688-.96875-.78124-.34375-.5-.34375-1.07814h1.609375q.015625.45314.328125.70314.3125.23436.828125.23436.5 0 .734375-.1875.25-.1875.25-.48436zm4.59375-6.15626v1.5625h1.09375v1.25h-1.09375v3.15626q0 .35936.140625.5156.140625.14064.515625.14064.28125 0 .5-.03124v1.28124q-.5.15626-1.03125.15626-1.78125 0-1.8125-1.8125v-3.40626h-.921875v-1.25h.921875v-1.5625zm4.890625 8.03126q-1.390625 0-2.265625-.8594-.875-.85936-.875-2.28124v-.17186q0-.95314.359375-1.70314.375-.75 1.046875-1.15626.6875-.40624 1.546875-.40624 1.3125 0 2.04688.82814.75.8125.75 2.3125v.6875h-4.031255q.078125.625.484375 1 .421875.375 1.0625.375.96875 0 1.51562-.70314l.84376.92188q-.39063.54686-1.04688.85936-.64062.2969-1.4375.2969zm-.1875-5.21876q-.5 0-.8125.34376-.3125.34374-.40625.96874h2.35937v-.125q-.01562-.5625-.3125-.875-.281245-.3125-.82812-.3125z"/><path d="m94.765625 469.6564v-8.53125h2.984375q1.546875 0 2.34375.59375.8125.59375.8125 1.75 0 .625-.328125 1.10938-.3125.46875-.890625.6875.65625.17187 1.03125.67187.390625.48438.390625 1.20313 0 1.23437-.796875 1.875-.78125.625-2.234375.64062zm1.75-3.71875v2.3125h1.515625q.609375 0 .953125-.29687.359375-.29688.359375-.82813 0-1.17187-1.21875-1.1875zm0-1.23437h1.3125q1.328125-.03125 1.328125-1.0625 0-.57813-.34375-.82813-.328125-.26562-1.0625-.26562h-1.234375zm9.046875 5.07812q-1.390625 0-2.265625-.85937-.875-.85938-.875-2.28125v-.17188q0-.95312.359375-1.70312.375-.75 1.046875-1.15625.6875-.40625 1.546875-.40625 1.3125 0 2.046875.82812.75.8125.75 2.3125v.6875h-4.03125q.078125.625.484375 1 .421875.375 1.0625.375.96875 0 1.515625-.70312l.84375.92187q-.390625.54688-1.046875.85938-.640625.29687-1.4375.29687zm-.1875-5.21875q-.5 0-.8125.34375-.3125.34375-.40625.96875h2.359375v-.125q-.015625-.5625-.3125-.875-.28125-.3125-.828125-.3125zm5.0625 5.09375h-1.703125v-9h1.703125zm-1.0625 2.96875-.828125-.46875q.421875-.67187.4375-1.42187v-.59375h1.25v.40625q0 .54687-.25 1.125-.25.59375-.609375.95312zm2.03125-6.1875q0-1.45312.6875-2.34375.703125-.89062 1.875-.89062 1.046875 0 1.625.70312l.078125-.59375h1.53125v6.125q0 .84375-.390625 1.45313-.375.625-1.0625.9375-.671875.32812-1.59375.32812-.703125 0-1.375-.28125-.65625-.28125-.984375-.71875l.75-1.03125q.625.70313 1.53125.70313.671875 0 1.046875-.35938.375-.35937.375-1.01562v-.34375q-.578125.67187-1.546875.67187-1.140625 0-1.84375-.89062-.703125-.90625-.703125-2.375zm1.6875.125q0 .85938.34375 1.35938.359375.48437.953125.48437.78125 0 1.109375-.57812v-2.67188q-.34375-.57812-1.09375-.57812-.609375 0-.96875.5-.34375.5-.34375 1.48437zm1.3125-6.98437.875.45312q-.390625.6875-.390625 1.45313l-.015625.79687h-1.3125v-.82812q0-.57813.234375-1.09375.234375-.53125.609375-.78125zm6.03125 10.07812h-1.703125v-6.34375h1.703125zm-1.796875-7.98437q0-.375.25-.625.265625-.25.703125-.25.421875 0 .671875.25.265625.25.265625.625 0 .39062-.265625.64062-.25.23438-.6875.23438-.421875 0-.6875-.23438-.25-.25-.25-.64062zm4.796875 1.64062v6.6875q0 1.04688-.5625 1.625-.546875.59375-1.59375.59375-.4375 0-.84375-.09375v-1.34375q.3125.04688.53125.04688.78125 0 .78125-.8125v-6.70313zm-1.828125-1.64062q0-.375.25-.625.265625-.25.703125-.25.4375 0 .6875.25.265625.25.265625.625 0 .39062-.265625.64062-.265625.23438-.703125.23438-.421875 0-.6875-.23438-.25-.25-.25-.64062zm6.718745 7.98437q-.125-.23437-.17187-.5625-.609375.6875-1.59375.6875-.9375 0-1.546875-.54687-.609375-.54688-.609375-1.35938 0-1.01562.734375-1.54687.75-.54688 2.171875-.54688h.76562v-.35937q0-.4375-.218745-.70313-.21875-.26562-.71875-.26562-.421875 0-.671875.20312-.234375.20313-.234375.5625h-1.6875q0-.54687.328125-1.01562.34375-.46875.96875-.73438.625-.26562 1.390625-.26562 1.171875 0 1.859375.59375.6875.57812.6875 1.64062v2.75q.01563.90625.25 1.375v.09375zm-1.406245-1.17187q.375 0 .6875-.17188.328125-.17187.468745-.45312v-1.09375h-.624995q-1.265625 0-1.359375.89062v.09375q0 .3125.21875.53125.21875.20313.609375.20313z"/><path d="m93.515625 525.0783h3.734375v1.40626h-5.484375v-8.53126h1.75zm6.921875 1.40626h-1.703125v-6.34376h1.703125zm-1.796875-7.98436q0-.375.25-.625.265625-.25.703125-.25.421875 0 .671875.25.265625.25.265625.625 0 .3906-.265625.6406-.25.2344-.6875.2344-.421875 0-.6875-.2344-.25-.25-.25-.6406zm5.921875 8.10936q-1.390625 0-2.265625-.85936-.875-.8594-.875-2.28127v-.17187q0-.95313.359375-1.70313.375-.75 1.046875-1.15623.6875-.40627 1.546875-.40627 1.3125 0 2.046875.82813.75.8125.75 2.3125v.6875h-4.03125q.078125.625.484375 1 .421875.375 1.0625.375.96875 0 1.515625-.70313l.84375.92187q-.390625.5469-1.046875.8594-.640625.29686-1.4375.29686zm-.1875-5.21876q-.5 0-.8125.34376-.3125.34374-.40625.96874h2.359375v-.125q-.015625-.5625-.3125-.875-.28125-.3125-.828125-.3125zm5.296875-2.8125v1.5625h1.09375v1.25h-1.09375v3.15626q0 .35937.140625.51564.140625.1406.515625.1406.28125 0 .5-.03124v1.28124q-.5.15626-1.03125.15626-1.78125 0-1.8125-1.8125v-3.40626h-.921875v-1.25h.921875v-1.5625zm5.78125 7.26563q-.625.76563-1.734375.76563-1.03125 0-1.5625-.59376-.53125-.59374-.546875-1.71874v-4.15626h1.6875v4.09376q0 1 .90625 1 .859375 0 1.1875-.60936v-4.4844h1.703125v6.34376h-1.59375zm5.578125-1.42187 1.171875-4.28126h1.765625l-2.140625 6.34376h-1.609375l-2.140625-6.34376h1.765625zm7.29687 2.0625q-.125-.23436-.17187-.5625-.609375.6875-1.59375.6875-.9375 0-1.546875-.54686-.609375-.5469-.609375-1.3594 0-1.0156.734375-1.54687.75-.54687 2.171875-.54687h.76562v-.35936q0-.4375-.218745-.70314-.21875-.26563-.71875-.26563-.421875 0-.671875.20313-.234375.20314-.234375.5625h-1.6875q0-.54686.328125-1.01563.34375-.46873.96875-.73437.625-.26563 1.390625-.26563 1.171875 0 1.859375.59377.6875.5781.6875 1.6406v2.75q.01563.90626.25 1.375v.09376zm-1.406245-1.17186q.375 0 .6875-.1719.328125-.17187.468745-.4531v-1.09377h-.624995q-1.265625 0-1.359375.89063v.09374q0 .3125.21875.53126.21875.20314.609375.20314z"/><path d="m87.703125 583.3128h-1.765625l-3.421875-5.6094v5.6094h-1.75v-8.53124h1.75l3.4375 5.625v-5.625h1.75zm.6875-3.2344q0-.9375.359375-1.67184.359375-.75 1.046875-1.14066.6875-.4062 1.578125-.4062 1.296875 0 2.09375.7812.8125.7813.90625 2.125l.015625.4375q0 1.4688-.8125 2.3594-.8125.875-2.1875.875-1.375 0-2.1875-.875-.8125-.8906-.8125-2.40624zm1.6875.125q0 .9063.34375 1.39066.34375.46874.96875.46874.625 0 .96875-.46874.34375-.46876.34375-1.51566 0-.875-.34375-1.35934-.34375-.5-.984375-.5-.609375 0-.953125.48434-.34375.4844-.34375 1.5zm9.140625-1.6406q-.34375-.0469-.609375-.0469-.96875 0-1.265625.64066v4.15624h-1.6875v-6.34374h1.59375l.046875.76564q.515625-.875 1.40625-.875.28125 0 .53125.0781zm2.8125 2.6875 1.171875-4.28124h1.765625l-2.140625 6.34374h-1.609375l-2.140625-6.34374h1.765625zm6.53125 2.1875q-1.390625 0-2.265625-.8594-.875-.85934-.875-2.2812v-.1719q0-.9531.359375-1.7031.375-.75 1.046875-1.1563.6875-.4062 1.546875-.4062 1.3125 0 2.046875.8281.75.8125.75 2.3125v.6875h-4.03125q.078125.625.484375 1 .421875.375 1.0625.375.96875 0 1.515625-.7031l.84375.92186q-.390625.54684-1.046875.85934-.640625.2969-1.4375.2969zm-.1875-5.21874q-.5 0-.8125.34374-.3125.34376-.40625.96876h2.359375v-.125q-.015625-.5625-.3125-.875-.28125-.3125-.828125-.3125zm1.84375-2.45316h-4.046875v-.9687h4.046875zm1.1875 4.32816q0-1.45316.6875-2.34376.703125-.8906 1.875-.8906 1.046875 0 1.625.7031l.078125-.59374h1.53125v6.125q0 .84374-.390625 1.45314-.375.625-1.0625.9375-.671875.3281-1.59375.3281-.703125 0-1.375-.28124-.65625-.28126-.984375-.71876l.75-1.03124q.625.70314 1.53125.70314.671875 0 1.046875-.3594.375-.3594.375-1.0156v-.3438q-.578125.6719-1.546875.6719-1.140625 0-1.84375-.8906-.703125-.9063-.703125-2.375zm1.6875.125q0 .85934.34375 1.35934.359375.4844.953125.4844.78125 0 1.109375-.5781v-2.6719q-.34375-.5781-1.09375-.5781-.609375 0-.96875.5-.34375.5-.34375 1.48436zm1.3125-6.98436.875.4531q-.390625.6875-.390625 1.4531l-.015625.7969h-1.3125v-.8281q0-.57814.234375-1.0938.234375-.5312.609375-.7812zm6.03125 10.0781h-1.703125v-6.34374h1.703125zm-1.796875-7.9844q0-.375.25-.625.265625-.25.703125-.25.421875 0 .671875.25.265625.25.265625.625 0 .39066-.265625.64066-.25.23434-.6875.23434-.421875 0-.6875-.23434-.25-.25-.25-.64066zm4.796875 1.64066v6.6875q0 1.04684-.5625 1.625-.546875.59374-1.59375.59374-.4375 0-.84375-.09374v-1.34376q.3125.0469.53125.0469.78125 0 .78125-.8125v-6.70314zm-1.828125-1.64066q0-.375.25-.625.265625-.25.703125-.25.4375 0 .6875.25.265625.25.265625.625 0 .39066-.265625.64066-.265625.23434-.703125.23434-.421875 0-.6875-.23434-.25-.25-.25-.64066zm6.718745 7.9844q-.125-.2344-.17187-.5625-.609375.6875-1.59375.6875-.9375 0-1.546875-.5469-.609375-.54684-.609375-1.35934 0-1.01566.734375-1.54686.75-.5469 2.171875-.5469h.76562v-.3594q0-.4375-.218745-.7031-.21875-.2656-.71875-.2656-.421875 0-.671875.2031-.234375.2031-.234375.5625h-1.6875q0-.5469.328125-1.0156.34375-.4688.96875-.7344.625-.2656 1.390625-.2656 1.171875 0 1.859375.5937.6875.57816.6875 1.64066v2.75q.01563.90624.25 1.375v.09374zm-1.406245-1.1719q.375 0 .6875-.17184.328125-.17186.468745-.45316v-1.0937h-.624995q-1.265625 0-1.359375.8906v.09376q0 .3125.21875.53124.21875.2031.609375.2031z"/><path d="m56.515625 637.141v3h-1.75v-8.53126h3.328125q.953125 0 1.6875.35936.734375.34377 1.125 1 .390625.64064.390625 1.46877 0 1.25-.859375 1.98437-.859375.71876-2.375.71876zm0-1.4375h1.578125q.6875 0 1.046875-.32813.375-.32813.375-.9375 0-.625-.375-1-.359375-.39063-1.015625-.40627h-1.609375zm9.8125 4.4375q-.125-.2344-.171875-.5625-.609375.6875-1.59375.6875-.9375 0-1.546875-.5469-.609375-.54686-.609375-1.35936 0-1.01564.734375-1.54687.75-.54687 2.171875-.54687h.765625v-.3594q0-.4375-.21875-.7031-.21875-.26563-.71875-.26563-.421875 0-.671875.20313-.234375.2031-.234375.5625h-1.6875q0-.5469.328125-1.01563.34375-.46877.96875-.73437.625-.26563 1.390625-.26563 1.171875 0 1.859375.59373.6875.57814.6875 1.64064v2.75q.015625.90626.25 1.375v.09376zm-1.40625-1.1719q.375 0 .6875-.17186.328125-.17187.46875-.45314v-1.09373h-.625q-1.265625 0-1.359375.89063v.09374q0 .3125.21875.53126.21875.2031.609375.2031zm2.34375-6.375h-4.046875v-.96873h4.046875zm4.953125 2.7969q-.34375-.0469-.609375-.0469-.96875 0-1.265625.64064v4.15626h-1.6875v-6.34376h1.59375l.046875.76563q.515625-.875 1.40625-.875.28125 0 .53125.07813zm3.34375 4.875q-1.390625 0-2.265625-.8594-.875-.85936-.875-2.28123v-.17187q0-.95313.359375-1.70313.375-.75 1.046875-1.15627.6875-.40623 1.546875-.40623 1.3125 0 2.046875.82813.75.8125.75 2.3125v.6875h-4.03125q.078125.625.484375 1 .421875.375 1.0625.375.96875 0 1.515625-.70313l.84375.92187q-.390625.54686-1.046875.85936-.640625.2969-1.4375.2969zm-.1875-5.21876q-.5 0-.8125.34376-.3125.34374-.40625.96874h2.359375v-.125q-.015625-.5625-.3125-.875-.28125-.3125-.828125-.3125zm1.84375-2.45314h-4.046875v-.96873h4.046875zm3.21875 1.20314v6.6875q0 1.04686-.5625 1.625-.546875.59376-1.59375.59376-.4375 0-.84375-.09376v-1.34374q.3125.04687.53125.04687.78125 0 .78125-.8125v-6.70313zm-1.828125-1.64064q0-.375.25-.625.265625-.25.703125-.25.4375 0 .6875.25.265625.25.265625.625 0 .39064-.265625.64064-.265625.23436-.703125.23436-.421875 0-.6875-.23436-.25-.25-.25-.64064zm6.71875 7.9844q-.125-.2344-.171875-.5625-.609375.6875-1.59375.6875-.9375 0-1.546875-.5469-.609375-.54686-.609375-1.35936 0-1.01564.734375-1.54687.75-.54687 2.171875-.54687h.765625v-.3594q0-.4375-.21875-.7031-.21875-.26563-.71875-.26563-.421875 0-.671875.20313-.234375.2031-.234375.5625h-1.6875q0-.5469.328125-1.01563.34375-.46877.96875-.73437.625-.26563 1.390625-.26563 1.171875 0 1.859375.59373.6875.57814.6875 1.64064v2.75q.015625.90626.25 1.375v.09376zm-1.40625-1.1719q.375 0 .6875-.17186.328125-.17187.46875-.45314v-1.09373h-.625q-1.265625 0-1.359375.89063v.09374q0 .3125.21875.53126.21875.2031.609375.2031zm2.34375-6.375h-4.046875v-.96873h4.046875zm4.8125 5.7969q0-.3125-.3125-.4844-.296875-.1875-.96875-.3281-2.265625-.46876-2.265625-1.9219 0-.84373.6875-1.40623.703125-.5625 1.84375-.5625 1.203125 0 1.921875.5625.734375.5625.734375 1.48437h-1.703125q0-.375-.234375-.60937-.234375-.23437-.734375-.23437-.421875 0-.65625.2031-.234375.1875-.234375.4844 0 .28124.265625.4531.265625.1719.890625.2969.640625.125 1.078125.28124 1.34375.5 1.34375 1.70313 0 .875-.75 1.42187-.734375.53126-1.921875.53126-.796875 0-1.421875-.28126-.609375-.29687-.96875-.78124-.34375-.5-.34375-1.07813h1.609375q.015625.45313.328125.70313.3125.23437.828125.23437.5 0 .734375-.1875.25-.1875.25-.48437zm7.953125-.3125 1.171875-4.28126h1.765625l-2.140625 6.34376h-1.609375l-2.140625-6.34376h1.765625zm7.296875 2.0625q-.125-.2344-.171875-.5625-.609375.6875-1.59375.6875-.9375 0-1.546875-.5469-.609375-.54686-.609375-1.35936 0-1.01564.734375-1.54687.75-.54687 2.171875-.54687h.765625v-.3594q0-.4375-.21875-.7031-.21875-.26563-.71875-.26563-.421875 0-.671875.20313-.234375.2031-.234375.5625h-1.6875q0-.5469.328125-1.01563.34375-.46877.96875-.73437.625-.26563 1.390625-.26563 1.171875 0 1.859375.59373.6875.57814.6875 1.64064v2.75q.015625.90626.25 1.375v.09376zm-1.40625-1.1719q.375 0 .6875-.17186.328125-.17187.46875-.45314v-1.09373h-.625q-1.265625 0-1.359375.89063v.09374q0 .3125.21875.53126.21875.2031.609375.2031zm5.515625 1.1719h-1.703125v-9h1.703125zm4.640625-1.75q0-.3125-.3125-.4844-.296875-.1875-.96875-.3281-2.265625-.46876-2.265625-1.9219 0-.84373.6875-1.40623.703125-.5625 1.84375-.5625 1.203125 0 1.921875.5625.734375.5625.734375 1.48437h-1.703125q0-.375-.234375-.60937-.234375-.23437-.734375-.23437-.421875 0-.65625.2031-.234375.1875-.234375.4844 0 .28124.265625.4531.265625.1719.890625.2969.640625.125 1.078125.28124 1.34375.5 1.34375 1.70313 0 .875-.75 1.42187-.734375.53126-1.921875.53126-.796875 0-1.421875-.28126-.609375-.29687-.96875-.78124-.34375-.5-.34375-1.07813h1.609375q.015625.45313.328125.70313.3125.23437.828125.23437.5 0 .734375-.1875.25-.1875.25-.48437zm4.59375-6.15626v1.5625h1.09375v1.25h-1.09375v3.15626q0 .35937.140625.5156.140625.14064.515625.14064.28125 0 .5-.03124v1.28124q-.5.15626-1.03125.15626-1.78125 0-1.8125-1.8125v-3.40626h-.921875v-1.25h.921875v-1.5625zm3.765625 7.90626h-1.703125v-6.34376h1.703125zm-1.796875-7.9844q0-.375.25-.625.265625-.25.703125-.25.421875 0 .671875.25.265625.25.265625.625 0 .39064-.265625.64064-.25.23436-.6875.23436-.421875 0-.6875-.23436-.25-.25-.25-.64064zm6.437495 6.2344q0-.3125-.312495-.4844-.296875-.1875-.96875-.3281-2.265625-.46876-2.265625-1.9219 0-.84373.6875-1.40623.703125-.5625 1.84375-.5625 1.20312 0 1.92188.5625.73437.5625.73437 1.48437h-1.70313q0-.375-.23437-.60937-.234375-.23437-.734375-.23437-.421875 0-.65625.2031-.234375.1875-.234375.4844 0 .28124.265625.4531.265625.1719.890625.2969.640625.125 1.07812.28124 1.34376.5 1.34376 1.70313 0 .875-.75 1.42187-.73438.53126-1.92188.53126-.796875 0-1.421875-.28126-.609375-.29687-.96875-.78124-.34375-.5-.34375-1.07813h1.609375q.015625.45313.328125.70313.3125.23437.828125.23437.5 0 .734375-.1875.249995-.1875.249995-.48437z"/><path d="m138.5625 694.3594q0 1.9062-.65625 2.8437-.64063.9219-2.03125.9219-1.35938 0-2.01562-.90625-.65626-.90625-.6875-2.71875v-1.4375q0-1.8906.64062-2.7969.65625-.92185 2.04688-.92185 1.375 0 2.03124.89065.65626.875.67188 2.7187zm-1.09375-1.4844q0-1.375-.39063-2-.375-.6406-1.21874-.6406-.82813 0-1.21876.6406-.375.625-.375 1.9219v1.73435q0 1.375.39063 2.04685.40625.6563 1.21875.6563.79688 0 1.1875-.625.39062-.625.40625-1.95315z"/><path d="m239.04688 698h-5.59376v-.78125l2.95313-3.28125q.65625-.75.90625-1.2031.25-.4688.25-.9688 0-.67185-.40625-1.0937-.39063-.4375-1.07813-.4375-.79687 0-1.25.4687-.45312.45315-.45312 1.2813h-1.07812q0-1.1875.75-1.9063.76562-.73435 2.03124-.73435 1.20313 0 1.89063.625.6875.625.6875 1.67185 0 1.25-1.60937 3l-2.28126 2.4688h4.28126zm6.76562-3.6406q0 1.9062-.65625 2.8437-.64063.9219-2.03125.9219-1.35938 0-2.01562-.90625-.65626-.90625-.6875-2.71875v-1.4375q0-1.8906.64062-2.7969.65625-.92185 2.04688-.92185 1.375 0 2.03124.89065.65626.875.67188 2.7187zm-1.09375-1.4844q0-1.375-.39063-2-.375-.6406-1.21874-.6406-.82813 0-1.21876.6406-.375.625-.375 1.9219v1.73435q0 1.375.39063 2.04685.40625.6563 1.21875.6563.79688 0 1.1875-.625.39062-.625.40625-1.95315z"/><path d="m341.78125 695.1406h1.1875v.875h-1.1875v1.9844h-1.07813v-1.9844h-3.89062v-.6406l3.8125-5.90625h1.15625zm-3.73437 0h2.65624v-4.1875l-.14062.2344zm11.51562-.7812q0 1.9062-.65625 2.8437-.64063.9219-2.03125.9219-1.35938 0-2.01562-.90625-.65626-.90625-.6875-2.71875v-1.4375q0-1.8906.64062-2.7969.65625-.92185 2.04688-.92185 1.375 0 2.03124.89065.65626.875.67188 2.7187zm-1.09375-1.4844q0-1.375-.39063-2-.375-.6406-1.21874-.6406-.82813 0-1.21876.6406-.375.625-.375 1.9219v1.73435q0 1.375.39063 2.04685.40625.6563 1.21875.6563.79688 0 1.1875-.625.39062-.625.40625-1.95315z"/><path d="m445.21875 689.46875v.90625h-.20313q-1.26562.03125-2.01562.7656-.75.7188-.875 2.0313.6875-.76565 1.84375-.76565 1.10937 0 1.78125.78125.67188.78125.67188 2.03125 0 1.3125-.71876 2.10935-.71874.7969-1.9375.7969-1.21874 0-1.98437-.9375-.75-.9531-.75-2.4375v-.40625q0-2.35935 1-3.60935 1-1.25 2.98437-1.26565zm-1.42187 3.84375q-.5625 0-1.03126.3281-.46874.32815-.65624.8438v.3906q0 1.0625.46874 1.7031.48438.64065 1.1875.64065.73438 0 1.15626-.53125.42187-.5469.42187-1.4219 0-.875-.42187-1.4062-.42188-.5469-1.125-.5469zm9.51562 1.0469q0 1.9062-.65625 2.8437-.64063.9219-2.03125.9219-1.35938 0-2.01562-.90625-.65626-.90625-.6875-2.71875v-1.4375q0-1.8906.64062-2.7969.65625-.92185 2.04688-.92185 1.375 0 2.03124.89065.65626.875.67188 2.7187zm-1.09375-1.4844q0-1.375-.39063-2-.375-.6406-1.21874-.6406-.82813 0-1.21876.6406-.375.625-.375 1.9219v1.73435q0 1.375.39063 2.04685.40625.6563 1.21875.6563.79688 0 1.1875-.625.39062-.625.40625-1.95315z"/><path d="m549.8906 691.6875q0 .6406-.3437 1.1406-.3438.5-.9063.7813.6563.2812 1.0469.8437.3906.5469.3906 1.25 0 1.0938-.75 1.76565-.73435.65625-1.9531.65625-1.2344 0-1.9844-.65625-.73435-.67185-.73435-1.76565 0-.7031.375-1.25.375-.5625 1.04685-.8437-.5625-.2813-.8906-.7813-.3281-.5-.3281-1.1406 0-1.0781.6875-1.7031.6875-.64065 1.8281-.64065 1.125 0 1.8125.64065.7031.625.7031 1.7031zm-.8906 3.9844q0-.7188-.4531-1.1563-.45315-.4531-1.1875-.4531-.7344 0-1.1875.4531-.4375.4375-.4375 1.1719 0 .71875.4375 1.1406.4375.4063 1.2031.4063.75 0 1.1875-.4219.4375-.4219.4375-1.1406zm-1.625-5.4375q-.6406 0-1.0469.4062-.3906.39065-.3906 1.07815 0 .64065.3906 1.04685.39065.4063 1.0313.4063.6562 0 1.04685-.4063.39065-.4062.39065-1.04685 0-.65625-.4063-1.0625-.4062-.42185-1.0156-.42185zm9.6875 4.125q0 1.9062-.65625 2.8437-.64065.9219-2.03125.9219-1.3594 0-2.0156-.90625-.6563-.90625-.6875-2.71875v-1.4375q0-1.8906.6406-2.7969.65625-.92185 2.0469-.92185 1.375 0 2.0312.89065.6563.875.6719 2.7187zm-1.09375-1.4844q0-1.375-.39065-2-.375-.6406-1.2187-.6406-.82815 0-1.2188.6406-.375.625-.375 1.9219v1.73435q0 1.375.39065 2.04685.40625.6563 1.21875.6563.7969 0 1.1875-.625.3906-.625.40625-1.95315z"/></g></svg>