<svg fill="none" height="728" stroke-linecap="square" stroke-miterlimit="10" viewBox="0 0 580 728" width="580" xmlns="http://www.w3.org/2000/svg" xmlns:xlink="http://www.w3.org/1999/xlink"><clipPath id="a"><path d="m136 29h415v643h-415z"/></clipPath><path d="m0 0h580v728h-580z" fill="none"/><path d="m136.5 29.5v643" stroke="#333" stroke-linecap="butt"/><path d="m274.5 29.5v643" stroke="#ccc" stroke-linecap="butt"/><path d="m412.5 29.5v643" stroke="#ccc" stroke-linecap="butt"/><path d="m551.5 29.5v643" stroke="#ccc" stroke-linecap="butt"/><path d="m182.5 29.5v643"/><path d="m228.5 29.5v643"/><path d="m320.5 29.5v643"/><path d="m366.5 29.5v643"/><path d="m458.5 29.5v643"/><path d="m504.5 29.5v643"/><path d="m136.5 672.5v-643" stroke="#000" stroke-linecap="butt"/><path clip-path="url(#a)" d="m136 86v-37h347c1.10458 0 2 .89543 2 2v33c0 1.10457-.89542 2-2 2z"/><path clip-path="url(#a)" d="m136 86v-37h347c1.10458 0 2 .89543 2 2v33c0 1.10457-.89542 2-2 2z" fill="#a5a5a5"/><path clip-path="url(#a)" d="m136 143v-37h110c1.10457 0 2 .89543 2 2v33c0 1.10457-.89543 2-2 2z"/><path clip-path="url(#a)" d="m136 143v-37h110c1.10457 0 2 .89543 2 2v33c0 1.10457-.89543 2-2 2z" fill="#a5a5a5"/><path clip-path="url(#a)" d="m136 200v-37h65c1.10457 0 2 .89543 2 2v33c0 1.10457-.89543 2-2 2z"/><path clip-path="url(#a)" d="m136 200v-37h65c1.10457 0 2 .89543 2 2v33c0 1.10457-.89543 2-2 2z" fill="#a5a5a5"/><path clip-path="url(#a)" d="m136 256v-37h61c1.10457 0 2 .89543 2 2v33c0 1.10457-.89543 2-2 2z"/><path clip-path="url(#a)" d="m136 256v-37h61c1.10457 0 2 .89543 2 2v33c0 1.10457-.89543 2-2 2z" fill="#a5a5a5"/><path clip-path="url(#a)" d="m136 313v-37h60c1.10457 0 2 .89542 2 2v33c0 1.10458-.89543 2-2 2z"/><path clip-path="url(#a)" d="m136 313v-37h60c1.10457 0 2 .89542 2 2v33c0 1.10458-.89543 2-2 2z" fill="#a5a5a5"/><path clip-path="url(#a)" d="m136 370v-37h57c1.10457 0 2 .89542 2 2v33c0 1.10458-.89543 2-2 2z"/><path clip-path="url(#a)" d="m136 370v-37h57c1.10457 0 2 .89542 2 2v33c0 1.10458-.89543 2-2 2z" fill="#a5a5a5"/><path clip-path="url(#a)" d="m136 426v-37h50c1.10457 0 2 .89542 2 2v33c0 1.10458-.89543 2-2 2z"/><path clip-path="url(#a)" d="m136 426v-37h50c1.10457 0 2 .89542 2 2v33c0 1.10458-.89543 2-2 2z" fill="#a5a5a5"/><path clip-path="url(#a)" d="m136 483v-37h47c1.10457 0 2 .89542 2 2v33c0 1.10458-.89543 2-2 2z"/><path clip-path="url(#a)" d="m136 483v-37h47c1.10457 0 2 .89542 2 2v33c0 1.10458-.89543 2-2 2z" fill="#a5a5a5"/><path clip-path="url(#a)" d="m136 539v-37h40c1.10457 0 2 .89542 2 2v33c0 1.10455-.89543 2-2 2z"/><path clip-path="url(#a)" d="m136 539v-37h40c1.10457 0 2 .89542 2 2v33c0 1.10455-.89543 2-2 2z" fill="#a5a5a5"/><path clip-path="url(#a)" d="m136 596v-37h31c1.10457 0 2 .89545 2 2v33c0 1.10455-.89543 2-2 2z"/><path clip-path="url(#a)" d="m136 596v-37h31c1.10457 0 2 .89545 2 2v33c0 1.10455-.89543 2-2 2z" fill="#a5a5a5"/><path clip-path="url(#a)" d="m136 653v-37h200c1.10458 0 2 .89545 2 2v33c0 1.10455-.89542 2-2 2z"/><path clip-path="url(#a)" d="m136 653v-37h200c1.10458 0 2 .89545 2 2v33c0 1.10455-.89542 2-2 2z" fill="#a5a5a5"/><path d="m136.5 678.5v-12" stroke="#000" stroke-linecap="butt"/><path d="m274.5 678.5v-12" stroke="#000" stroke-linecap="butt"/><path d="m412.5 678.5v-12" stroke="#000" stroke-linecap="butt"/><path d="m551.5 678.5v-12" stroke="#000" stroke-linecap="butt"/><path d="m449.7371 67.296875.5-4.328125h4.78124v1.40625h-3.39062l-.21875 1.84375q.60937-.328125 1.28125-.328125 1.21875 0 1.90625.765625.70313.75.70313 2.109375 0 .828125-.35938 1.484375-.34375.640625-1 1.015625-.64062.359375-1.53125.359375-.76563 0-1.4375-.3125-.65625-.328125-1.04687-.890625-.375-.5625-.40626-1.296875h1.6875q.04688.53125.35938.828125.32812.296875.84375.296875.57813 0 .875-.40625.3125-.421875.3125-1.171875 0-.734375-.35937-1.109375-.34376-.390625-1-.390625-.60938 0-.98438.3125l-.15625.15625zm12.5.671875q0 1.765625-.73438 2.71875-.73438.9375-2.14062.9375-1.40626 0-2.14063-.921875-.73437-.921875-.75-2.640625v-1.578125q0-1.78125.73437-2.703125.75-.9375 2.14063-.9375 1.39063 0 2.125.921875.75.921875.76563 2.640625zm-1.70313-1.71875q0-1.0625-.29687-1.546875-.28126-.484375-.89063-.484375-.59375 0-.89063.46875-.28124.453125-.29687 1.4375v2.0625q0 1.046875.28125 1.5625.28125.5.92188.5.60937 0 .89062-.484375.28125-.484375.28125-1.484375zm3.10937 4.421875q0-.40625.26563-.65625.28125-.25.6875-.25.42187 0 .6875.25.28125.25.28125.65625 0 .390625-.28125.640625-.26563.25-.6875.25-.40625 0-.6875-.25-.26563-.25-.26563-.640625zm7.85938-2.390625h.96875v1.375h-.96875v1.84375h-1.70312v-1.84375h-3.48438l-.07812-1.0625 3.54687-5.625h1.71875zm-3.57812 0h1.875v-3l-.10938.1875zm11.40624 3.21875h-5.84374v-1.15625l2.76562-2.953125q.5625-.609375.82812-1.078125.28126-.46875.28126-.875 0-.578125-.29688-.890625-.28125-.328125-.8125-.328125-.57812 0-.90625.390625-.32813.390625-.32813 1.046875h-1.70312q0-.78125.375-1.421875.375-.65625 1.04688-1.015625.6875-.375 1.54687-.375 1.3125 0 2.04687.640625.73438.625.73438 1.78125 0 .640625-.32812 1.296875-.32813.65625-1.125 1.53125l-1.9375 2.046875h3.65624z" stroke="#a5a5a5" stroke-linecap="round" stroke-linejoin="round" stroke-width="3"/><path d="m449.7371 67.296875.5-4.328125h4.78124v1.40625h-3.39062l-.21875 1.84375q.60937-.328125 1.28125-.328125 1.21875 0 1.90625.765625.70313.75.70313 2.109375 0 .828125-.35938 1.484375-.34375.640625-1 1.015625-.64062.359375-1.53125.359375-.76563 0-1.4375-.3125-.65625-.328125-1.04687-.890625-.375-.5625-.40626-1.296875h1.6875q.04688.53125.35938.828125.32812.296875.84375.296875.57813 0 .875-.40625.3125-.421875.3125-1.171875 0-.734375-.35937-1.109375-.34376-.390625-1-.390625-.60938 0-.98438.3125l-.15625.15625zm12.5.671875q0 1.765625-.73438 2.71875-.73438.9375-2.14062.9375-1.40626 0-2.14063-.921875-.73437-.921875-.75-2.640625v-1.578125q0-1.78125.73437-2.703125.75-.9375 2.14063-.9375 1.39063 0 2.125.921875.75.921875.76563 2.640625zm-1.70313-1.71875q0-1.0625-.29687-1.546875-.28126-.484375-.89063-.484375-.59375 0-.89063.46875-.28124.453125-.29687 1.4375v2.0625q0 1.046875.28125 1.5625.28125.5.92188.5.60937 0 .89062-.484375.28125-.484375.28125-1.484375zm3.10937 4.421875q0-.40625.26563-.65625.28125-.25.6875-.25.42187 0 .6875.25.28125.25.28125.65625 0 .390625-.28125.640625-.26563.25-.6875.25-.40625 0-.6875-.25-.26563-.25-.26563-.640625zm7.85938-2.390625h.96875v1.375h-.96875v1.84375h-1.70312v-1.84375h-3.48438l-.07812-1.0625 3.54687-5.625h1.71875zm-3.57812 0h1.875v-3l-.10938.1875zm11.40624 3.21875h-5.84374v-1.15625l2.76562-2.953125q.5625-.609375.82812-1.078125.28126-.46875.28126-.875 0-.578125-.29688-.890625-.28125-.328125-.8125-.328125-.57812 0-.90625.390625-.32813.390625-.32813 1.046875h-1.70312q0-.78125.375-1.421875.375-.65625 1.04688-1.015625.6875-.375 1.54687-.375 1.3125 0 2.04687.640625.73438.625.73438 1.78125 0 .640625-.32812 1.296875-.32813.65625-1.125 1.53125l-1.9375 2.046875h3.65624z" fill="#000"/><path d="m217.14948 128.5h-1.6875v-6.53125l-2.01563.625v-1.375l3.53125-1.265625h.17188zm7.48437-8.625v1.40625h-.15625q-1.15625.015625-1.85937.59375-.6875.578125-.82813 1.609375.67188-.6875 1.70313-.6875 1.125 0 1.78125.796875.65625.796875.65625 2.09375 0 .828125-.35938 1.5-.35937.671875-1.03125 1.0625-.65625.375-1.48437.375-1.34375 0-2.17188-.9375-.82812-.953125-.82812-2.515625v-.609375q0-1.390625.51562-2.453125.53125-1.0625 1.5-1.640625.98438-.578125 2.28125-.59375zm-1.65625 4.28125q-.40625 0-.75.21875-.32812.203125-.48437.5625v.515625q0 .84375.32812 1.328125.34375.46875.95313.46875.54687 0 .875-.421875.34375-.4375.34375-1.125 0-.703125-.34375-1.125-.34375-.421875-.92188-.421875zm4.21875 3.515625q0-.40625.26563-.65625.28125-.25.6875-.25.42187 0 .6875.25.28125.25.28125.65625 0 .390625-.28125.640625-.26563.25-.6875.25-.40625 0-.6875-.25-.26563-.25-.26563-.640625zm8.6875.828125h-5.84375v-1.15625l2.76563-2.953125q.5625-.609375.82812-1.078125.28125-.46875.28125-.875 0-.578125-.29687-.890625-.28125-.328125-.8125-.328125-.57813 0-.90625.390625-.32813.390625-.32813 1.046875h-1.70312q0-.78125.375-1.421875.375-.65625 1.04687-1.015625.6875-.375 1.54688-.375 1.3125 0 2.04687.640625.73438.625.73438 1.78125 0 .640625-.32813 1.296875-.32812.65625-1.125 1.53125l-1.9375 2.046875h3.65625zm2.875-5.015625h.90625q.64063 0 .95313-.3125.3125-.328125.3125-.859375 0-.515625-.3125-.796875-.29688-.296875-.84375-.296875-.48438 0-.8125.265625-.32813.265625-.32813.6875h-1.6875q0-.65625.35938-1.1875.35937-.53125 1-.828125.65625-.3125 1.4375-.3125 1.34375 0 2.10937.65625.78125.640625.78125 1.78125 0 .59375-.35937 1.09375-.35938.484375-.9375.734375.71875.265625 1.0625.78125.35937.515625.35937 1.21875 0 1.140625-.82812 1.828125-.82813.6875-2.1875.6875-1.28125 0-2.09375-.671875-.8125-.6875-.8125-1.796875h1.6875q0 .484375.35937.796875.375.296875.89063.296875.60937 0 .95312-.3125.34375-.328125.34375-.859375 0-1.265625-1.40625-1.265625h-.90625z" stroke="#a5a5a5" stroke-linecap="round" stroke-linejoin="round" stroke-width="3"/><path d="m217.14948 128.5h-1.6875v-6.53125l-2.01563.625v-1.375l3.53125-1.265625h.17188zm7.48437-8.625v1.40625h-.15625q-1.15625.015625-1.85937.59375-.6875.578125-.82813 1.609375.67188-.6875 1.70313-.6875 1.125 0 1.78125.796875.65625.796875.65625 2.09375 0 .828125-.35938 1.5-.35937.671875-1.03125 1.0625-.65625.375-1.48437.375-1.34375 0-2.17188-.9375-.82812-.953125-.82812-2.515625v-.609375q0-1.390625.51562-2.453125.53125-1.0625 1.5-1.640625.98438-.578125 2.28125-.59375zm-1.65625 4.28125q-.40625 0-.75.21875-.32812.203125-.48437.5625v.515625q0 .84375.32812 1.328125.34375.46875.95313.46875.54687 0 .875-.421875.34375-.4375.34375-1.125 0-.703125-.34375-1.125-.34375-.421875-.92188-.421875zm4.21875 3.515625q0-.40625.26563-.65625.28125-.25.6875-.25.42187 0 .6875.25.28125.25.28125.65625 0 .390625-.28125.640625-.26563.25-.6875.25-.40625 0-.6875-.25-.26563-.25-.26563-.640625zm8.6875.828125h-5.84375v-1.15625l2.76563-2.953125q.5625-.609375.82812-1.078125.28125-.46875.28125-.875 0-.578125-.29687-.890625-.28125-.328125-.8125-.328125-.57813 0-.90625.390625-.32813.390625-.32813 1.046875h-1.70312q0-.78125.375-1.421875.375-.65625 1.04687-1.015625.6875-.375 1.54688-.375 1.3125 0 2.04687.640625.73438.625.73438 1.78125 0 .640625-.32813 1.296875-.32812.65625-1.125 1.53125l-1.9375 2.046875h3.65625zm2.875-5.015625h.90625q.64063 0 .95313-.3125.3125-.328125.3125-.859375 0-.515625-.3125-.796875-.29688-.296875-.84375-.296875-.48438 0-.8125.265625-.32813.265625-.32813.6875h-1.6875q0-.65625.35938-1.1875.35937-.53125 1-.828125.65625-.3125 1.4375-.3125 1.34375 0 2.10937.65625.78125.640625.78125 1.78125 0 .59375-.35937 1.09375-.35938.484375-.9375.734375.71875.265625 1.0625.78125.35937.515625.35937 1.21875 0 1.140625-.82812 1.828125-.82813.6875-2.1875.6875-1.28125 0-2.09375-.671875-.8125-.6875-.8125-1.796875h1.6875q0 .484375.35937.796875.375.296875.89063.296875.60937 0 .95312-.3125.34375-.328125.34375-.859375 0-1.265625-1.40625-1.265625h-.90625z" fill="#000"/><path d="m178.60234 182.09375q-.67187.64063-1.54687.64063-1.14063 0-1.82813-.76563-.67187-.78125-.67187-2.09375 0-.84375.35937-1.54688.375-.70312 1.03125-1.09374.65625-.39063 1.48438-.39063.84375 0 1.5.42187.65625.42188 1.01562 1.21876.35938.79687.375 1.8125v.625q0 2.14062-1.0625 3.35937-1.0625 1.21875-3.01562 1.29687h-.40625v-1.40624l.375-.01563q2.20312-.09375 2.39062-2.0625zm-1.14062-.65625q.42187 0 .70312-.20312.29688-.21876.45313-.51563v-.6875q0-.85937-.32813-1.32813-.32812-.48437-.875-.48437-.51562 0-.84375.46875-.32812.45312-.32812 1.15625 0 .70313.3125 1.15625.32812.4375.90625.4375zm4.32812 3.23438q0-.40626.26563-.65626.28125-.25.6875-.25.42187 0 .6875.25.28125.25.28125.65626 0 .39062-.28125.64062-.26563.25-.6875.25-.40625 0-.6875-.25-.26563-.25-.26563-.64062zm7.4375-7.79688v1.40625h-.15625q-1.15625.01563-1.85937.59375-.6875.57812-.82813 1.60938.67188-.6875 1.70313-.6875 1.125 0 1.78125.79687.65625.79687.65625 2.09375 0 .82812-.35938 1.5-.35937.67188-1.03125 1.0625-.65625.375-1.48437.375-1.34375 0-2.17188-.9375-.82812-.95312-.82812-2.51562v-.60938q0-1.39062.51562-2.45312.53125-1.0625 1.5-1.64063.98438-.57813 2.28125-.59375zm-1.65625 4.28125q-.40625 0-.75.21875-.32812.20312-.48437.5625v.51562q0 .84376.32812 1.32813.34375.46875.95313.46875.54687 0 .875-.42188.34375-.4375.34375-1.125 0-.70312-.34375-1.125-.34375-.42187-.92188-.42187zm9.85938-3.23437-3.29688 7.57812h-1.78125l3.29688-7.15625h-4.23438v-1.375h6.01563z" stroke="#a5a5a5" stroke-linecap="round" stroke-linejoin="round" stroke-width="3"/><path d="m178.60234 182.09375q-.67187.64063-1.54687.64063-1.14063 0-1.82813-.76563-.67187-.78125-.67187-2.09375 0-.84375.35937-1.54688.375-.70312 1.03125-1.09374.65625-.39063 1.48438-.39063.84375 0 1.5.42187.65625.42188 1.01562 1.21876.35938.79687.375 1.8125v.625q0 2.14062-1.0625 3.35937-1.0625 1.21875-3.01562 1.29687h-.40625v-1.40624l.375-.01563q2.20312-.09375 2.39062-2.0625zm-1.14062-.65625q.42187 0 .70312-.20312.29688-.21876.45313-.51563v-.6875q0-.85937-.32813-1.32813-.32812-.48437-.875-.48437-.51562 0-.84375.46875-.32812.45312-.32812 1.15625 0 .70313.3125 1.15625.32812.4375.90625.4375zm4.32812 3.23438q0-.40626.26563-.65626.28125-.25.6875-.25.42187 0 .6875.25.28125.25.28125.65626 0 .39062-.28125.64062-.26563.25-.6875.25-.40625 0-.6875-.25-.26563-.25-.26563-.64062zm7.4375-7.79688v1.40625h-.15625q-1.15625.01563-1.85937.59375-.6875.57812-.82813 1.60938.67188-.6875 1.70313-.6875 1.125 0 1.78125.79687.65625.79687.65625 2.09375 0 .82812-.35938 1.5-.35937.67188-1.03125 1.0625-.65625.375-1.48437.375-1.34375 0-2.17188-.9375-.82812-.95312-.82812-2.51562v-.60938q0-1.39062.51562-2.45312.53125-1.0625 1.5-1.64063.98438-.57813 2.28125-.59375zm-1.65625 4.28125q-.40625 0-.75.21875-.32812.20312-.48437.5625v.51562q0 .84376.32812 1.32813.34375.46875.95313.46875.54687 0 .875-.42188.34375-.4375.34375-1.125 0-.70312-.34375-1.125-.34375-.42187-.92188-.42187zm9.85938-3.23437-3.29688 7.57812h-1.78125l3.29688-7.15625h-4.23438v-1.375h6.01563z" fill="#000"/><path d="m174.49617 238.09375q-.67187.64063-1.54687.64063-1.14063 0-1.82813-.76563-.67187-.78125-.67187-2.09375 0-.84375.35937-1.54688.375-.70312 1.03125-1.09374.65625-.39063 1.48438-.39063.84375 0 1.5.42187.65625.42188 1.01562 1.21876.35938.79687.375 1.8125v.625q0 2.14062-1.0625 3.35937-1.0625 1.21875-3.01562 1.29687h-.40625v-1.40624l.375-.01563q2.20312-.09375 2.39062-2.0625zm-1.14062-.65625q.42187 0 .70312-.20312.29688-.21876.45313-.51563v-.6875q0-.85937-.32813-1.32813-.32812-.48437-.875-.48437-.51562 0-.84375.46875-.32812.45312-.32812 1.15625 0 .70313.3125 1.15625.32812.4375.90625.4375zm4.32812 3.23438q0-.40626.26563-.65626.28125-.25.6875-.25.42187 0 .6875.25.28125.25.28125.65626 0 .39062-.28125.64062-.26563.25-.6875.25-.40625 0-.6875-.25-.26563-.25-.26563-.64062zm8.59375-2.70313q0 1.76563-.73437 2.71875-.73438.9375-2.14063.9375-1.40625 0-2.14062-.92188-.73438-.92187-.75-2.64062v-1.57812q0-1.78126.73437-2.70313.75-.9375 2.14063-.9375 1.39062 0 2.125.92187.75.92188.76562 2.64063zm-1.70312-1.71875q0-1.0625-.29688-1.54688-.28125-.48437-.89062-.48437-.59375 0-.89063.46875-.28125.45312-.29687 1.4375v2.0625q0 1.04688.28125 1.5625.28125.5.92187.5.60938 0 .89063-.48438.28125-.48437.28125-1.48437zm8.75-2.32812-3.29688 7.57812h-1.78125l3.29688-7.15625h-4.23438v-1.375h6.01563z" stroke="#a5a5a5" stroke-linecap="round" stroke-linejoin="round" stroke-width="3"/><path d="m174.49617 238.09375q-.67187.64063-1.54687.64063-1.14063 0-1.82813-.76563-.67187-.78125-.67187-2.09375 0-.84375.35937-1.54688.375-.70312 1.03125-1.09374.65625-.39063 1.48438-.39063.84375 0 1.5.42187.65625.42188 1.01562 1.21876.35938.79687.375 1.8125v.625q0 2.14062-1.0625 3.35937-1.0625 1.21875-3.01562 1.29687h-.40625v-1.40624l.375-.01563q2.20312-.09375 2.39062-2.0625zm-1.14062-.65625q.42187 0 .70312-.20312.29688-.21876.45313-.51563v-.6875q0-.85937-.32813-1.32813-.32812-.48437-.875-.48437-.51562 0-.84375.46875-.32812.45312-.32812 1.15625 0 .70313.3125 1.15625.32812.4375.90625.4375zm4.32812 3.23438q0-.40626.26563-.65626.28125-.25.6875-.25.42187 0 .6875.25.28125.25.28125.65626 0 .39062-.28125.64062-.26563.25-.6875.25-.40625 0-.6875-.25-.26563-.25-.26563-.64062zm8.59375-2.70313q0 1.76563-.73437 2.71875-.73438.9375-2.14063.9375-1.40625 0-2.14062-.92188-.73438-.92187-.75-2.64062v-1.57812q0-1.78126.73437-2.70313.75-.9375 2.14063-.9375 1.39062 0 2.125.92187.75.92188.76562 2.64063zm-1.70312-1.71875q0-1.0625-.29688-1.54688-.28125-.48437-.89062-.48437-.59375 0-.89063.46875-.28125.45312-.29687 1.4375v2.0625q0 1.04688.28125 1.5625.28125.5.92187.5.60938 0 .89063-.48438.28125-.48437.28125-1.48437zm8.75-2.32812-3.29688 7.57812h-1.78125l3.29688-7.15625h-4.23438v-1.375h6.01563z" fill="#000"/><path d="m173.98071 295.09375q-.67187.64063-1.54687.64063-1.14063 0-1.82813-.76563-.67187-.78125-.67187-2.09375 0-.84375.35937-1.54688.375-.70312 1.03125-1.09374.65625-.39063 1.48438-.39063.84375 0 1.5.42187.65625.42188 1.01562 1.21876.35938.79687.375 1.8125v.625q0 2.14062-1.0625 3.35937-1.0625 1.21875-3.01562 1.29687h-.40625v-1.40624l.375-.01563q2.20312-.09375 2.39062-2.0625zm-1.14062-.65625q.42187 0 .70312-.20312.29688-.21876.45313-.51563v-.6875q0-.85937-.32813-1.32813-.32812-.48437-.875-.48437-.51562 0-.84375.46875-.32812.45312-.32812 1.15625 0 .70313.3125 1.15625.32812.4375.90625.4375zm4.32812 3.23438q0-.40626.26563-.65626.28125-.25.6875-.25.42187 0 .6875.25.28125.25.28125.65626 0 .39062-.28125.64062-.26563.25-.6875.25-.40625 0-.6875-.25-.26563-.25-.26563-.64062zm8.59375-2.70313q0 1.76563-.73437 2.71875-.73438.9375-2.14063.9375-1.40625 0-2.14062-.92188-.73438-.92187-.75-2.64062v-1.57812q0-1.78126.73437-2.70313.75-.9375 2.14063-.9375 1.39062 0 2.125.92187.75.92188.76562 2.64063zm-1.70312-1.71875q0-1.0625-.29688-1.54688-.28125-.48437-.89062-.48437-.59375 0-.89063.46875-.28125.45312-.29687 1.4375v2.0625q0 1.04688.28125 1.5625.28125.5.92187.5.60938 0 .89063-.48438.28125-.48437.28125-1.48437zm8.70312 1.71875q0 1.76563-.73437 2.71875-.73438.9375-2.14063.9375-1.40625 0-2.14062-.92188-.73438-.92187-.75-2.64062v-1.57812q0-1.78126.73437-2.70313.75-.9375 2.14063-.9375 1.39062 0 2.125.92187.75.92188.76562 2.64063zm-1.70312-1.71875q0-1.0625-.29688-1.54688-.28125-.48437-.89062-.48437-.59375 0-.89063.46875-.28125.45312-.29687 1.4375v2.0625q0 1.04688.28125 1.5625.28125.5.92187.5.60938 0 .89063-.48438.28125-.48437.28125-1.48437z" stroke="#a5a5a5" stroke-linecap="round" stroke-linejoin="round" stroke-width="3"/><path d="m173.98071 295.09375q-.67187.64063-1.54687.64063-1.14063 0-1.82813-.76563-.67187-.78125-.67187-2.09375 0-.84375.35937-1.54688.375-.70312 1.03125-1.09374.65625-.39063 1.48438-.39063.84375 0 1.5.42187.65625.42188 1.01562 1.21876.35938.79687.375 1.8125v.625q0 2.14062-1.0625 3.35937-1.0625 1.21875-3.01562 1.29687h-.40625v-1.40624l.375-.01563q2.20312-.09375 2.39062-2.0625zm-1.14062-.65625q.42187 0 .70312-.20312.29688-.21876.45313-.51563v-.6875q0-.85937-.32813-1.32813-.32812-.48437-.875-.48437-.51562 0-.84375.46875-.32812.45312-.32812 1.15625 0 .70313.3125 1.15625.32812.4375.90625.4375zm4.32812 3.23438q0-.40626.26563-.65626.28125-.25.6875-.25.42187 0 .6875.25.28125.25.28125.65626 0 .39062-.28125.64062-.26563.25-.6875.25-.40625 0-.6875-.25-.26563-.25-.26563-.64062zm8.59375-2.70313q0 1.76563-.73437 2.71875-.73438.9375-2.14063.9375-1.40625 0-2.14062-.92188-.73438-.92187-.75-2.64062v-1.57812q0-1.78126.73437-2.70313.75-.9375 2.14063-.9375 1.39062 0 2.125.92187.75.92188.76562 2.64063zm-1.70312-1.71875q0-1.0625-.29688-1.54688-.28125-.48437-.89062-.48437-.59375 0-.89063.46875-.28125.45312-.29687 1.4375v2.0625q0 1.04688.28125 1.5625.28125.5.92187.5.60938 0 .89063-.48438.28125-.48437.28125-1.48437zm8.70312 1.71875q0 1.76563-.73437 2.71875-.73438.9375-2.14063.9375-1.40625 0-2.14062-.92188-.73438-.92187-.75-2.64062v-1.57812q0-1.78126.73437-2.70313.75-.9375 2.14063-.9375 1.39062 0 2.125.92187.75.92188.76562 2.64063zm-1.70312-1.71875q0-1.0625-.29688-1.54688-.28125-.48437-.89062-.48437-.59375 0-.89063.46875-.28125.45312-.29687 1.4375v2.0625q0 1.04688.28125 1.5625.28125.5.92187.5.60938 0 .89063-.48438.28125-.48437.28125-1.48437z" fill="#000"/><path d="m172.70547 349.23438q0 .625-.3125 1.10937-.3125.46875-.85937.76563.625.29687.98437.82812.375.51562.375 1.21875 0 1.14063-.78125 1.8125-.76562.65625-2.10937.65625-1.32813 0-2.10938-.65625-.76562-.67187-.76562-1.8125 0-.70313.35937-1.23437.35938-.53126.98438-.8125-.54688-.29688-.85938-.76563-.3125-.48437-.3125-1.10937 0-1.09376.71875-1.73438.73438-.65625 1.98438-.65625 1.25 0 1.96875.65625.73437.64062.73437 1.73438zm-1.51562 3.79687q0-.54687-.32813-.875-.3125-.34375-.85937-.34375-.54688 0-.875.32812-.3125.32813-.3125.89063 0 .54687.3125.89063.32812.32812.89062.32812.54688 0 .85938-.3125.3125-.32812.3125-.90625zm-.17188-3.71875q0-.5-.26562-.79688-.26563-.29687-.75-.29687-.46875 0-.73438.29687-.26562.28126-.26562.79688 0 .51562.26562.82812.26563.3125.73438.3125.48437 0 .75-.3125.26562-.3125.26562-.82812zm3.28125 5.35938q0-.40626.26563-.65626.28125-.25.6875-.25.42187 0 .6875.25.28125.25.28125.65626 0 .39062-.28125.64062-.26563.25-.6875.25-.40625 0-.6875-.25-.26563-.25-.26563-.64062zm3.09375-3.375.5-4.32813h4.78125v1.40625h-3.39062l-.21875 1.84375q.60937-.32813 1.28125-.32813 1.21875 0 1.90625.76563.70312.75.70312 2.10937 0 .82813-.35937 1.48438-.34375.64062-1 1.01562-.64063.35938-1.53125.35938-.76563 0-1.4375-.3125-.65625-.32812-1.04688-.89062-.375-.5625-.40625-1.29688h1.6875q.04688.53125.35938.82812.32812.29688.84375.29688.57812 0 .875-.40625.3125-.42187.3125-1.17187 0-.73438-.35938-1.10938-.34375-.39062-1-.39062-.60937 0-.98437.3125l-.15625.15624zm12.3125-2.0625q0 .625-.3125 1.10937-.3125.46875-.85937.76563.625.29687.98437.82812.375.51562.375 1.21875 0 1.14063-.78125 1.8125-.76562.65625-2.10937.65625-1.32813 0-2.10938-.65625-.76562-.67187-.76562-1.8125 0-.70313.35937-1.23437.35938-.53126.98438-.8125-.54688-.29688-.85938-.76563-.3125-.48437-.3125-1.10937 0-1.09376.71875-1.73438.73438-.65625 1.98438-.65625 1.25 0 1.96875.65625.73437.64062.73437 1.73438zm-1.51562 3.79687q0-.54687-.32813-.875-.3125-.34375-.85937-.34375-.54688 0-.875.32812-.3125.32813-.3125.89063 0 .54687.3125.89063.32812.32812.89062.32812.54688 0 .85938-.3125.3125-.32812.3125-.90625zm-.17188-3.71875q0-.5-.26562-.79688-.26563-.29687-.75-.29687-.46875 0-.73438.29687-.26562.28126-.26562.79688 0 .51562.26562.82812.26563.3125.73438.3125.48437 0 .75-.3125.26562-.3125.26562-.82812z" stroke="#a5a5a5" stroke-linecap="round" stroke-linejoin="round" stroke-width="3"/><path d="m172.70547 349.23438q0 .625-.3125 1.10937-.3125.46875-.85937.76563.625.29687.98437.82812.375.51562.375 1.21875 0 1.14063-.78125 1.8125-.76562.65625-2.10937.65625-1.32813 0-2.10938-.65625-.76562-.67187-.76562-1.8125 0-.70313.35937-1.23437.35938-.53126.98438-.8125-.54688-.29688-.85938-.76563-.3125-.48437-.3125-1.10937 0-1.09376.71875-1.73438.73438-.65625 1.98438-.65625 1.25 0 1.96875.65625.73437.64062.73437 1.73438zm-1.51562 3.79687q0-.54687-.32813-.875-.3125-.34375-.85937-.34375-.54688 0-.875.32812-.3125.32813-.3125.89063 0 .54687.3125.89063.32812.32812.89062.32812.54688 0 .85938-.3125.3125-.32812.3125-.90625zm-.17188-3.71875q0-.5-.26562-.79688-.26563-.29687-.75-.29687-.46875 0-.73438.29687-.26562.28126-.26562.79688 0 .51562.26562.82812.26563.3125.73438.3125.48437 0 .75-.3125.26562-.3125.26562-.82812zm3.28125 5.35938q0-.40626.26563-.65626.28125-.25.6875-.25.42187 0 .6875.25.28125.25.28125.65626 0 .39062-.28125.64062-.26563.25-.6875.25-.40625 0-.6875-.25-.26563-.25-.26563-.64062zm3.09375-3.375.5-4.32813h4.78125v1.40625h-3.39062l-.21875 1.84375q.60937-.32813 1.28125-.32813 1.21875 0 1.90625.76563.70312.75.70312 2.10937 0 .82813-.35937 1.48438-.34375.64062-1 1.01562-.64063.35938-1.53125.35938-.76563 0-1.4375-.3125-.65625-.32812-1.04688-.89062-.375-.5625-.40625-1.29688h1.6875q.04688.53125.35938.82812.32812.29688.84375.29688.57812 0 .875-.40625.3125-.42187.3125-1.17187 0-.73438-.35938-1.10938-.34375-.39062-1-.39062-.60937 0-.98437.3125l-.15625.15624zm12.3125-2.0625q0 .625-.3125 1.10937-.3125.46875-.85937.76563.625.29687.98437.82812.375.51562.375 1.21875 0 1.14063-.78125 1.8125-.76562.65625-2.10937.65625-1.32813 0-2.10938-.65625-.76562-.67187-.76562-1.8125 0-.70313.35937-1.23437.35938-.53126.98438-.8125-.54688-.29688-.85938-.76563-.3125-.48437-.3125-1.10937 0-1.09376.71875-1.73438.73438-.65625 1.98438-.65625 1.25 0 1.96875.65625.73437.64062.73437 1.73438zm-1.51562 3.79687q0-.54687-.32813-.875-.3125-.34375-.85937-.34375-.54688 0-.875.32812-.3125.32813-.3125.89063 0 .54687.3125.89063.32812.32812.89062.32812.54688 0 .85938-.3125.3125-.32812.3125-.90625zm-.17188-3.71875q0-.5-.26562-.79688-.26563-.29687-.75-.29687-.46875 0-.73438.29687-.26562.28126-.26562.79688 0 .51562.26562.82812.26563.3125.73438.3125.48437 0 .75-.3125.26562-.3125.26562-.82812z" fill="#000"/><path d="m165.44923 403.92188-3.29687 7.57812h-1.78125l3.29687-7.15625h-4.23437v-1.375h6.01562zm1.35938 6.75q0-.40626.26562-.65626.28125-.25.6875-.25.42188 0 .6875.25.28125.25.28125.65626 0 .39062-.28125.64062-.26562.25-.6875.25-.40625 0-.6875-.25-.26562-.25-.26562-.64062zm3.09375-3.375.5-4.32813h4.78125v1.40625h-3.39063l-.21875 1.84375q.60938-.32813 1.28125-.32813 1.21875 0 1.90625.76563.70313.75.70313 2.10937 0 .82813-.35938 1.48438-.34375.64062-1 1.01562-.64062.35938-1.53125.35938-.76562 0-1.4375-.3125-.65625-.32812-1.04687-.89062-.375-.5625-.40625-1.29688h1.6875q.04687.53125.35937.82812.32813.29688.84375.29688.57813 0 .875-.40625.3125-.42187.3125-1.17187 0-.73438-.35937-1.10938-.34375-.39062-1-.39062-.60938 0-.98438.3125l-.15625.15624zm12.5.67187q0 1.76563-.73438 2.71875-.73437.9375-2.14062.9375-1.40625 0-2.14063-.92188-.73437-.92187-.75-2.64062v-1.57812q0-1.78126.73438-2.70313.75-.9375 2.14062-.9375 1.39063 0 2.125.92187.75.92188.76563 2.64063zm-1.70313-1.71875q0-1.0625-.29687-1.54688-.28125-.48437-.89063-.48437-.59375 0-.89062.46875-.28125.45312-.29688 1.4375v2.0625q0 1.04688.28125 1.5625.28125.5.92188.5.60937 0 .89062-.48438.28125-.48437.28125-1.48437z" stroke="#a5a5a5" stroke-linecap="round" stroke-linejoin="round" stroke-width="3"/><path d="m165.44923 403.92188-3.29687 7.57812h-1.78125l3.29687-7.15625h-4.23437v-1.375h6.01562zm1.35938 6.75q0-.40626.26562-.65626.28125-.25.6875-.25.42188 0 .6875.25.28125.25.28125.65626 0 .39062-.28125.64062-.26562.25-.6875.25-.40625 0-.6875-.25-.26562-.25-.26562-.64062zm3.09375-3.375.5-4.32813h4.78125v1.40625h-3.39063l-.21875 1.84375q.60938-.32813 1.28125-.32813 1.21875 0 1.90625.76563.70313.75.70313 2.10937 0 .82813-.35938 1.48438-.34375.64062-1 1.01562-.64062.35938-1.53125.35938-.76562 0-1.4375-.3125-.65625-.32812-1.04687-.89062-.375-.5625-.40625-1.29688h1.6875q.04687.53125.35937.82812.32813.29688.84375.29688.57813 0 .875-.40625.3125-.42187.3125-1.17187 0-.73438-.35937-1.10938-.34375-.39062-1-.39062-.60938 0-.98438.3125l-.15625.15624zm12.5.67187q0 1.76563-.73438 2.71875-.73437.9375-2.14062.9375-1.40625 0-2.14063-.92188-.73437-.92187-.75-2.64062v-1.57812q0-1.78126.73438-2.70313.75-.9375 2.14062-.9375 1.39063 0 2.125.92187.75.92188.76563 2.64063zm-1.70313-1.71875q0-1.0625-.29687-1.54688-.28125-.48437-.89063-.48437-.59375 0-.89062.46875-.28125.45312-.29688 1.4375v2.0625q0 1.04688.28125 1.5625.28125.5.92188.5.60937 0 .89062-.48438.28125-.48437.28125-1.48437z" fill="#000"/><path d="m162.64412 460.92188-3.29688 7.57812h-1.78124l3.29687-7.15625h-4.23437v-1.375h6.01562zm1.35938 6.75q0-.40626.26562-.65626.28125-.25.6875-.25.42188 0 .6875.25.28125.25.28125.65626 0 .39062-.28125.64062-.26562.25-.6875.25-.40625 0-.6875-.25-.26562-.25-.26562-.64062zm8.59374-2.70313q0 1.76563-.73437 2.71875-.73437.9375-2.14063.9375-1.40624 0-2.14062-.92188-.73438-.92187-.75-2.64062v-1.57812q0-1.78126.73438-2.70313.75-.9375 2.14062-.9375 1.39062 0 2.125.92187.75.92188.76562 2.64063zm-1.70312-1.71875q0-1.0625-.29688-1.54688-.28124-.48437-.89062-.48437-.59375 0-.89062.46875-.28126.45312-.29688 1.4375v2.0625q0 1.04688.28125 1.5625.28125.5.92187.5.60938 0 .89063-.48438.28125-.48437.28125-1.48437zm6.92188 1.84375q-.67188.64063-1.54688.64063-1.14062 0-1.82812-.76563-.67188-.78125-.67188-2.09375 0-.84375.35938-1.54688.375-.70312 1.03124-1.09374.65626-.39063 1.48438-.39063.84375 0 1.5.42187.65625.42188 1.01562 1.21876.35938.79687.375 1.8125v.625q0 2.14062-1.0625 3.35937-1.0625 1.21875-3.01562 1.29687h-.40625v-1.40624l.375-.01563q2.20313-.09375 2.39063-2.0625zm-1.14063-.65625q.42187 0 .70313-.20312.29687-.21876.45312-.51563v-.6875q0-.85937-.32812-1.32813-.32813-.48437-.875-.48437-.51563 0-.84376.46875-.32812.45312-.32812 1.15625 0 .70313.3125 1.15625.32812.4375.90625.4375z" stroke="#a5a5a5" stroke-linecap="round" stroke-linejoin="round" stroke-width="3"/><path d="m162.64412 460.92188-3.29688 7.57812h-1.78124l3.29687-7.15625h-4.23437v-1.375h6.01562zm1.35938 6.75q0-.40626.26562-.65626.28125-.25.6875-.25.42188 0 .6875.25.28125.25.28125.65626 0 .39062-.28125.64062-.26562.25-.6875.25-.40625 0-.6875-.25-.26562-.25-.26562-.64062zm8.59374-2.70313q0 1.76563-.73437 2.71875-.73437.9375-2.14063.9375-1.40624 0-2.14062-.92188-.73438-.92187-.75-2.64062v-1.57812q0-1.78126.73438-2.70313.75-.9375 2.14062-.9375 1.39062 0 2.125.92187.75.92188.76562 2.64063zm-1.70312-1.71875q0-1.0625-.29688-1.54688-.28124-.48437-.89062-.48437-.59375 0-.89062.46875-.28126.45312-.29688 1.4375v2.0625q0 1.04688.28125 1.5625.28125.5.92187.5.60938 0 .89063-.48438.28125-.48437.28125-1.48437zm6.92188 1.84375q-.67188.64063-1.54688.64063-1.14062 0-1.82812-.76563-.67188-.78125-.67188-2.09375 0-.84375.35938-1.54688.375-.70312 1.03124-1.09374.65626-.39063 1.48438-.39063.84375 0 1.5.42187.65625.42188 1.01562 1.21876.35938.79687.375 1.8125v.625q0 2.14062-1.0625 3.35937-1.0625 1.21875-3.01562 1.29687h-.40625v-1.40624l.375-.01563q2.20313-.09375 2.39063-2.0625zm-1.14063-.65625q.42187 0 .70313-.20312.29687-.21876.45312-.51563v-.6875q0-.85937-.32812-1.32813-.32813-.48437-.875-.48437-.51563 0-.84376.46875-.32812.45312-.32812 1.15625 0 .70313.3125 1.15625.32812.4375.90625.4375z" fill="#000"/><path d="m154.30229 515.875v1.40625h-.15625q-1.15625.01565-1.85937.59375-.6875.5781-.82813 1.6094.67188-.6875 1.70313-.6875 1.125 0 1.78125.79685.65625.79685.65625 2.09375 0 .8281-.35938 1.5-.35937.6719-1.03125 1.0625-.65625.375-1.48437.375-1.34375 0-2.17188-.9375-.82812-.9531-.82812-2.5156v-.6094q0-1.3906.51562-2.4531.53125-1.0625 1.5-1.64065.98438-.57815 2.28125-.59375zm-1.65625 4.28125q-.40625 0-.75.21875-.32812.2031-.48437.5625v.5156q0 .8438.32812 1.32815.34375.46875.95313.46875.54687 0 .875-.4219.34375-.4375.34375-1.125 0-.7031-.34375-1.125-.34375-.42185-.92188-.42185zm4.21875 3.51565q0-.4063.26563-.6563.28125-.25.6875-.25.42187 0 .6875.25.28125.25.28125.6563 0 .3906-.28125.6406-.26563.25-.6875.25-.40625 0-.6875-.25-.26563-.25-.26563-.6406zm8.59375-2.70315q0 1.76565-.73437 2.71875-.73438.9375-2.14063.9375-1.40625 0-2.14062-.9219-.73438-.92185-.75-2.6406v-1.5781q0-1.7813.73437-2.70315.75-.9375 2.14063-.9375 1.39062 0 2.125.92185.75.9219.76562 2.64065zm-1.70312-1.71875q0-1.0625-.29688-1.5469-.28125-.48435-.89062-.48435-.59375 0-.89063.46875-.28125.4531-.29687 1.4375v2.0625q0 1.0469.28125 1.5625.28125.5.92187.5.60938 0 .89063-.4844.28125-.48435.28125-1.48435zm7.54687-3.375v1.40625h-.15625q-1.15625.01565-1.85937.59375-.6875.5781-.82813 1.6094.67188-.6875 1.70313-.6875 1.125 0 1.78125.79685.65625.79685.65625 2.09375 0 .8281-.35938 1.5-.35937.6719-1.03125 1.0625-.65625.375-1.48437.375-1.34375 0-2.17188-.9375-.82812-.9531-.82812-2.5156v-.6094q0-1.3906.51562-2.4531.53125-1.0625 1.5-1.64065.98438-.57815 2.28125-.59375zm-1.65625 4.28125q-.40625 0-.75.21875-.32812.2031-.48437.5625v.5156q0 .8438.32812 1.32815.34375.46875.95313.46875.54687 0 .875-.4219.34375-.4375.34375-1.125 0-.7031-.34375-1.125-.34375-.42185-.92188-.42185z" stroke="#a5a5a5" stroke-linecap="round" stroke-linejoin="round" stroke-width="3"/><path d="m154.30229 515.875v1.40625h-.15625q-1.15625.01565-1.85937.59375-.6875.5781-.82813 1.6094.67188-.6875 1.70313-.6875 1.125 0 1.78125.79685.65625.79685.65625 2.09375 0 .8281-.35938 1.5-.35937.6719-1.03125 1.0625-.65625.375-1.48437.375-1.34375 0-2.17188-.9375-.82812-.9531-.82812-2.5156v-.6094q0-1.3906.51562-2.4531.53125-1.0625 1.5-1.64065.98438-.57815 2.28125-.59375zm-1.65625 4.28125q-.40625 0-.75.21875-.32812.2031-.48437.5625v.5156q0 .8438.32812 1.32815.34375.46875.95313.46875.54687 0 .875-.4219.34375-.4375.34375-1.125 0-.7031-.34375-1.125-.34375-.42185-.92188-.42185zm4.21875 3.51565q0-.4063.26563-.6563.28125-.25.6875-.25.42187 0 .6875.25.28125.25.28125.6563 0 .3906-.28125.6406-.26563.25-.6875.25-.40625 0-.6875-.25-.26563-.25-.26563-.6406zm8.59375-2.70315q0 1.76565-.73437 2.71875-.73438.9375-2.14063.9375-1.40625 0-2.14062-.9219-.73438-.92185-.75-2.6406v-1.5781q0-1.7813.73437-2.70315.75-.9375 2.14063-.9375 1.39062 0 2.125.92185.75.9219.76562 2.64065zm-1.70312-1.71875q0-1.0625-.29688-1.5469-.28125-.48435-.89062-.48435-.59375 0-.89063.46875-.28125.4531-.29687 1.4375v2.0625q0 1.0469.28125 1.5625.28125.5.92187.5.60938 0 .89063-.4844.28125-.48435.28125-1.48435zm7.54687-3.375v1.40625h-.15625q-1.15625.01565-1.85937.59375-.6875.5781-.82813 1.6094.67188-.6875 1.70313-.6875 1.125 0 1.78125.79685.65625.79685.65625 2.09375 0 .8281-.35938 1.5-.35937.6719-1.03125 1.0625-.65625.375-1.48437.375-1.34375 0-2.17188-.9375-.82812-.9531-.82812-2.5156v-.6094q0-1.3906.51562-2.4531.53125-1.0625 1.5-1.64065.98438-.57815 2.28125-.59375zm-1.65625 4.28125q-.40625 0-.75.21875-.32812.2031-.48437.5625v.5156q0 .8438.32812 1.32815.34375.46875.95313.46875.54687 0 .875-.4219.34375-.4375.34375-1.125 0-.7031-.34375-1.125-.34375-.42185-.92188-.42185z" fill="#000"/><path d="m146.10703 578.28125h.96875v1.375h-.96875v1.84375h-1.70313v-1.84375h-3.48437l-.07813-1.0625 3.54688-5.625h1.71875zm-3.57813 0h1.875v-3l-.10937.1875zm5.71875 2.39065q0-.4063.26563-.6563.28125-.25.6875-.25.42187 0 .6875.25.28125.25.28125.6563 0 .3906-.28125.6406-.26563.25-.6875.25-.40625 0-.6875-.25-.26563-.25-.26563-.6406zm8.64063-6.75-3.29688 7.5781h-1.78125l3.29688-7.15625h-4.23438v-1.375h6.01563zm7 0-3.29688 7.5781h-1.78125l3.29688-7.15625h-4.23438v-1.375h6.01563z" stroke="#a5a5a5" stroke-linecap="round" stroke-linejoin="round" stroke-width="3"/><path d="m146.10703 578.28125h.96875v1.375h-.96875v1.84375h-1.70313v-1.84375h-3.48437l-.07813-1.0625 3.54688-5.625h1.71875zm-3.57813 0h1.875v-3l-.10937.1875zm5.71875 2.39065q0-.4063.26563-.6563.28125-.25.6875-.25.42187 0 .6875.25.28125.25.28125.6563 0 .3906-.28125.6406-.26563.25-.6875.25-.40625 0-.6875-.25-.26563-.25-.26563-.6406zm8.64063-6.75-3.29688 7.5781h-1.78125l3.29688-7.15625h-4.23438v-1.375h6.01563zm7 0-3.29688 7.5781h-1.78125l3.29688-7.15625h-4.23438v-1.375h6.01563z" fill="#000"/><path d="m308.76486 638.5h-5.84376v-1.15625l2.76564-2.95315q.5625-.60935.82812-1.0781.28124-.46875.28124-.875 0-.5781-.29686-.8906-.28124-.32815-.8125-.32815-.57814 0-.90624.39065-.32814.3906-.32814 1.04685h-1.70312q0-.78125.375-1.42185.375-.6563 1.04686-1.01565.6875-.375 1.5469-.375 1.3125 0 2.04686.64065.73438.625.73438 1.7812 0 .64065-.32814 1.2969-.3281.65625-1.125 1.53125l-1.9375 2.04685h3.65626zm5.125-3.40625q-.67186.64065-1.54686.64065-1.14064 0-1.82814-.76565-.67186-.78125-.67186-2.09375 0-.84375.35936-1.5469.375-.7031 1.03124-1.0937.65626-.39065 1.4844-.39065.84374 0 1.5.42185.65624.4219 1.0156 1.2188.3594.79685.375 1.8125v.625q0 2.1406-1.0625 3.35935-1.0625 1.21875-3.0156 1.29685h-.40626v-1.4062l.375-.01565q2.20312-.09375 2.39062-2.0625zm-1.14062-.65625q.42186 0 .70312-.2031.29688-.2188.45314-.51565v-.6875q0-.85935-.32814-1.32815-.32812-.48435-.875-.48435-.51562 0-.84376.46875-.3281.4531-.3281 1.15625 0 .70315.3125 1.15625.3281.4375.90624.4375zm4.32812 3.2344q0-.4063.26564-.6563.28124-.25.6875-.25.42186 0 .6875.25.28124.25.28124.6563 0 .3906-.28124.6406-.26564.25-.6875.25-.40626 0-.6875-.25-.26564-.25-.26564-.6406zm8.6875.8281h-5.84376v-1.15625l2.76564-2.95315q.5625-.60935.82812-1.0781.28124-.46875.28124-.875 0-.5781-.29686-.8906-.28124-.32815-.8125-.32815-.57814 0-.90624.39065-.32814.3906-.32814 1.04685h-1.70312q0-.78125.375-1.42185.375-.6563 1.04686-1.01565.6875-.375 1.5469-.375 1.3125 0 2.04686.64065.73438.625.73438 1.7812 0 .64065-.32814 1.2969-.3281.65625-1.125 1.53125l-1.9375 2.04685h3.65626zm2.875-5.0156h.90624q.64064 0 .95314-.3125.3125-.32815.3125-.8594 0-.5156-.3125-.7969-.29688-.29685-.84374-.29685-.4844 0-.8125.26565-.32814.2656-.32814.6875h-1.6875q0-.6563.35938-1.1875.35936-.5313 1-.82815.65626-.3125 1.4375-.3125 1.34376 0 2.10936.65625.78126.6406.78126 1.78125 0 .59375-.35936 1.09375-.3594.4844-.9375.7344.71874.2656 1.0625.7812.35936.51565.35936 1.2188 0 1.1406-.82812 1.8281-.82814.6875-2.1875.6875-1.28124 0-2.09374-.6719-.8125-.6875-.8125-1.79685h1.6875q0 .48435.35936.79685.375.2969.89064.2969.60936 0 .9531-.3125.34376-.3281.34376-.8594 0-1.2656-1.40626-1.2656h-.90624z" stroke="#a5a5a5" stroke-linecap="round" stroke-linejoin="round" stroke-width="3"/><g fill="#000"><path d="m308.76486 638.5h-5.84376v-1.15625l2.76564-2.95315q.5625-.60935.82812-1.0781.28124-.46875.28124-.875 0-.5781-.29686-.8906-.28124-.32815-.8125-.32815-.57814 0-.90624.39065-.32814.3906-.32814 1.04685h-1.70312q0-.78125.375-1.42185.375-.6563 1.04686-1.01565.6875-.375 1.5469-.375 1.3125 0 2.04686.64065.73438.625.73438 1.7812 0 .64065-.32814 1.2969-.3281.65625-1.125 1.53125l-1.9375 2.04685h3.65626zm5.125-3.40625q-.67186.64065-1.54686.64065-1.14064 0-1.82814-.76565-.67186-.78125-.67186-2.09375 0-.84375.35936-1.5469.375-.7031 1.03124-1.0937.65626-.39065 1.4844-.39065.84374 0 1.5.42185.65624.4219 1.0156 1.2188.3594.79685.375 1.8125v.625q0 2.1406-1.0625 3.35935-1.0625 1.21875-3.0156 1.29685h-.40626v-1.4062l.375-.01565q2.20312-.09375 2.39062-2.0625zm-1.14062-.65625q.42186 0 .70312-.2031.29688-.2188.45314-.51565v-.6875q0-.85935-.32814-1.32815-.32812-.48435-.875-.48435-.51562 0-.84376.46875-.3281.4531-.3281 1.15625 0 .70315.3125 1.15625.3281.4375.90624.4375zm4.32812 3.2344q0-.4063.26564-.6563.28124-.25.6875-.25.42186 0 .6875.25.28124.25.28124.6563 0 .3906-.28124.6406-.26564.25-.6875.25-.40626 0-.6875-.25-.26564-.25-.26564-.6406zm8.6875.8281h-5.84376v-1.15625l2.76564-2.95315q.5625-.60935.82812-1.0781.28124-.46875.28124-.875 0-.5781-.29686-.8906-.28124-.32815-.8125-.32815-.57814 0-.90624.39065-.32814.3906-.32814 1.04685h-1.70312q0-.78125.375-1.42185.375-.6563 1.04686-1.01565.6875-.375 1.5469-.375 1.3125 0 2.04686.64065.73438.625.73438 1.7812 0 .64065-.32814 1.2969-.3281.65625-1.125 1.53125l-1.9375 2.04685h3.65626zm2.875-5.0156h.90624q.64064 0 .95314-.3125.3125-.32815.3125-.8594 0-.5156-.3125-.7969-.29688-.29685-.84374-.29685-.4844 0-.8125.26565-.32814.2656-.32814.6875h-1.6875q0-.6563.35938-1.1875.35936-.5313 1-.82815.65626-.3125 1.4375-.3125 1.34376 0 2.10936.65625.78126.6406.78126 1.78125 0 .59375-.35936 1.09375-.3594.4844-.9375.7344.71874.2656 1.0625.7812.35936.51565.35936 1.2188 0 1.1406-.82812 1.8281-.82814.6875-2.1875.6875-1.28124 0-2.09374-.6719-.8125-.6875-.8125-1.79685h1.6875q0 .48435.35936.79685.375.2969.89064.2969.60936 0 .9531-.3125.34376-.3281.34376-.8594 0-1.2656-1.40626-1.2656h-.90624z"/><path d="m101.921875 69.630714 1.921875-6.421874h1.96875l-2.984375 8.53125h-1.828125l-2.953125-8.53125h1.953125zm8.40625 2.109376q-.125-.234376-.171875-.5625-.609375.6875-1.59375.6875-.9375 0-1.546875-.546876-.609375-.546874-.609375-1.359374 0-1.015626.734375-1.546876.75-.546874 2.171875-.546874h.765625v-.359376q0-.4375-.21875-.703124-.21875-.265626-.71875-.265626-.421875 0-.671875.203126-.234375.203124-.234375.5625h-1.6875q0-.546876.328125-1.015626.34375-.46875.96875-.734374.625-.265626 1.390625-.265626 1.171875 0 1.859375.59375.6875.578126.6875 1.640626v2.75q.015625.90625.25 1.375v.09375zm-1.40625-1.171876q.375 0 .6875-.171874.328125-.171876.46875-.453126v-1.09375h-.625q-1.265625 0-1.359375.890626v.09375q0 .3125.21875.53125.21875.203124.609375.203124zm2.34375-6.375h-4.046875v-.96875h4.046875zm4.015625 6.296876q.46875 0 .765625-.25.296875-.265626.3125-.6875h1.578125q0 .640624-.34375 1.1875-.34375.53125-.953125.828124-.59375.296876-1.328125.296876-1.359375 0-2.140625-.859376-.78125-.875-.78125-2.40625v-.109374q0-1.46875.78125-2.328126.78125-.875 2.140625-.875 1.1875 0 1.90625.671876.71875.671874.71875 1.796874h-1.578125q-.015625-.484374-.3125-.796874-.296875-.3125-.765625-.3125-.59375 0-.90625.4375-.296875.4375-.296875 1.390624v.1875q0 .96875.296875 1.40625.296875.421876.90625.421876zm5.15625 1.25h-1.703125v-6.34375h1.703125zm-1.796875-7.984376q0-.375.25-.625.265625-.25.703125-.25.421875 0 .671875.25.265625.25.265625.625 0 .390626-.265625.640626-.25.234374-.6875.234374-.421875 0-.6875-.234374-.25-.25-.25-.640626zm4.796875 1.640626v6.6875q0 1.046874-.5625 1.625-.546875.59375-1.59375.59375-.4375 0-.84375-.09375v-1.34375q.3125.046874.53125.046874.78125 0 .78125-.8125v-6.703124zm-1.828125-1.640626q0-.375.25-.625.265625-.25.703125-.25.4375 0 .6875.25.265625.25.265625.625 0 .390626-.265625.640626-.265625.234374-.703125.234374-.421875 0-.6875-.234374-.25-.25-.25-.640626zm6.718745 7.984376q-.125-.234376-.17187-.5625-.609375.6875-1.59375.6875-.9375 0-1.546875-.546876-.609375-.546874-.609375-1.359374 0-1.015626.734375-1.546876.75-.546874 2.171875-.546874h.76562v-.359376q0-.4375-.218745-.703124-.21875-.265626-.71875-.265626-.421875 0-.671875.203126-.234375.203124-.234375.5625h-1.6875q0-.546876.328125-1.015626.34375-.46875.96875-.734374.625-.265626 1.390625-.265626 1.171875 0 1.859375.59375.6875.578126.6875 1.640626v2.75q.01563.90625.25 1.375v.09375zm-1.406245-1.171876q.375 0 .6875-.171874.328125-.171876.468745-.453126v-1.09375h-.624995q-1.265625 0-1.359375.890626v.09375q0 .3125.21875.53125.21875.203124.609375.203124z"/><path d="m87.625 126.985825h4.296875v1.406245h-6.5v-1.031245l4.21875-6.078125h-4.203125v-1.421875h6.390625v1zm7.40625-.65625 1.171875-4.28125h1.765625l-2.140625 6.343745h-1.609375l-2.140625-6.343745h1.765625zm5.40625 2.062495h-1.703125v-6.343745h1.703125zm-1.796875-7.98437q0-.375.25-.625.265625-.25.703125-.25.421875 0 .671875.25.265625.25.265625.625 0 .390625-.265625.640625-.25.234375-.6875.234375-.421875 0-.6875-.234375-.25-.25-.25-.640625zm5.921875 8.10937q-1.390625 0-2.265625-.85937-.875-.859375-.875-2.28125v-.171875q0-.953125.359375-1.703125.375-.75 1.046875-1.15625.6875-.40625 1.546875-.40625 1.3125 0 2.046875.828125.75.8125.75 2.3125v.6875h-4.03125q.078125.625.484375 1 .421875.375 1.0625.375.96875 0 1.515625-.703125l.84375.921875q-.390625.546875-1.046875.859375-.640625.29687-1.4375.29687zm-.1875-5.218745q-.5 0-.8125.34375-.3125.34375-.40625.96875h2.359375v-.125q-.015625-.5625-.3125-.875-.28125-.3125-.828125-.3125zm3.015625 1.875q0-1.484375.65625-2.359375.671875-.875 1.828125-.875.921875 0 1.53125.6875v-3.234375h1.6875v8.999995h-1.515625l-.09375-.67187q-.625.79687-1.625.79687-1.125 0-1.796875-.874995-.671875-.890625-.671875-2.46875zm1.6875.125q0 .890625.3125 1.375.3125.46875.90625.46875.78125 0 1.109375-.671875v-2.5q-.328125-.65625-1.09375-.65625-1.234375 0-1.234375 1.984375zm9.140625-1.65625q-.34375-.046875-.609375-.046875-.96875 0-1.265625.640625v4.156245h-1.6875v-6.343745h1.59375l.046875.765625q.515625-.875 1.40625-.875.28125 0 .53125.078125zm2.21875 4.749995h-1.703125v-6.343745h1.703125zm-1.796875-7.98437q0-.375.25-.625.265625-.25.703125-.25.421875 0 .671875.25.265625.25.265625.625 0 .390625-.265625.640625-.25.234375-.6875.234375-.421875 0-.6875-.234375-.25-.25-.25-.640625zm4.796875 1.640625v6.687495q0 1.04688-.5625 1.625-.546875.59375-1.59375.59375-.4375 0-.84375-.09375v-1.34375q.3125.04688.53125.04688.78125 0 .78125-.8125v-6.703125zm-1.828125-1.640625q0-.375.25-.625.265625-.25.703125-.25.4375 0 .6875.25.265625.25.265625.625 0 .390625-.265625.640625-.265625.234375-.703125.234375-.421875 0-.6875-.234375-.25-.25-.25-.640625zm6.718745 7.98437q-.125-.23437-.17187-.562495-.609375.687495-1.59375.687495-.9375 0-1.546875-.54687-.609375-.546875-.609375-1.359375 0-1.015625.734375-1.546875.75-.546875 2.171875-.546875h.76562v-.359375q0-.4375-.218745-.703125-.21875-.265625-.71875-.265625-.421875 0-.671875.203125-.234375.203125-.234375.5625h-1.6875q0-.546875.328125-1.015625.34375-.46875.96875-.734375.625-.265625 1.390625-.265625 1.171875 0 1.859375.59375.6875.578125.6875 1.640625v2.75q.01563.90625.25 1.374995v.09375zm-1.406245-1.17187q.375 0 .6875-.171875.328125-.171875.468745-.453125v-1.09375h-.624995q-1.265625 0-1.359375.890625v.09375q0 .3125.21875.53125.21875.203125.609375.203125z"/><path d="m80.703125 185.04405h-1.765625l-3.421875-5.60937v5.60937h-1.75v-8.53125h1.75l3.4375 5.625v-5.625h1.75zm2.78125 0h-1.703125v-6.34375h1.703125zm1.203125-7.45312h-4.046875v-.96875h4.046875zm-.296875 4.23437q0-1.48437.65625-2.35937.671875-.875 1.828125-.875.921875 0 1.53125.6875v-3.23438h1.6875v9h-1.515625l-.09375-.67187q-.625.79687-1.625.79687-1.125 0-1.796875-.875-.671875-.89062-.671875-2.46875zm1.6875.125q0 .89063.3125 1.375.3125.46875.90625.46875.78125 0 1.109375-.67187v-2.5q-.328125-.65625-1.09375-.65625-1.234375 0-1.234375 1.98437zm8.484375 3.21875q-1.390625 0-2.265625-.85937-.875-.85938-.875-2.28125v-.17188q0-.95312.359375-1.70312.375-.75 1.046875-1.15625.6875-.40625 1.546875-.40625 1.3125 0 2.046875.82812.75.8125.75 2.3125v.6875h-4.03125q.078125.625.484375 1 .421875.375 1.0625.375.96875 0 1.515625-.70312l.84375.92187q-.390625.54688-1.046875.85938-.640625.29687-1.4375.29687zm-.1875-5.21875q-.5 0-.8125.34375-.3125.34375-.40625.96875h2.359375v-.125q-.015625-.5625-.3125-.875-.28125-.3125-.828125-.3125zm6.84375.34375q-.34375-.04687-.609375-.04687-.96875 0-1.265625.64062v4.15625h-1.6875v-6.34375h1.59375l.046875.76563q.515625-.875 1.40625-.875.28125 0 .53125.07812zm2.21875 4.75h-1.703125v-9h1.703125zm4.890625 0q-.125-.23437-.171875-.5625-.609375.6875-1.59375.6875-.9375 0-1.546875-.54687-.609375-.54688-.609375-1.35938 0-1.01562.734375-1.54687.75-.54688 2.171875-.54688h.765625v-.35937q0-.4375-.21875-.70313-.21875-.26562-.71875-.26562-.421875 0-.671875.20312-.234375.20313-.234375.5625h-1.6875q0-.54687.328125-1.01562.34375-.46875.96875-.73438.625-.26562 1.390625-.26562 1.171875 0 1.859375.59375.6875.57812.6875 1.64062v2.75q.015625.90625.25 1.375v.09375zm-1.40625-1.17187q.375 0 .6875-.17188.328125-.17187.46875-.45312v-1.09375h-.625q-1.265625 0-1.359375.89062v.09375q0 .3125.21875.53125.21875.20313.609375.20313zm5.28125-5.17188.0625.73438q.671875-.84375 1.8125-.84375 1.015625 0 1.5.59375.5.57812.515625 1.76562v4.09375h-1.703125v-4.0625q0-.53125-.234375-.76562-.234375-.25-.78125-.25-.703125 0-1.0625.60937v4.46875h-1.703125v-6.34375zm5.1875 3.125q0-1.48437.65625-2.35937.671875-.875 1.828125-.875.921875 0 1.53125.6875v-3.23438h1.6875v9h-1.515625l-.09375-.67187q-.625.79687-1.625.79687-1.125 0-1.796875-.875-.671875-.89062-.671875-2.46875zm1.6875.125q0 .89063.3125 1.375.3125.46875.90625.46875.78125 0 1.109375-.67187v-2.5q-.328125-.65625-1.09375-.65625-1.234375 0-1.234375 1.98437zm8.484375 3.21875q-1.390625 0-2.265625-.85937-.875-.85938-.875-2.28125v-.17188q0-.95312.359375-1.70312.375-.75 1.046875-1.15625.6875-.40625 1.546875-.40625 1.3125 0 2.04688.82812.75.8125.75 2.3125v.6875h-4.031255q.078125.625.484375 1 .421875.375 1.0625.375.96875 0 1.51562-.70312l.84376.92187q-.39063.54688-1.04688.85938-.64062.29687-1.4375.29687zm-.1875-5.21875q-.5 0-.8125.34375-.3125.34375-.40625.96875h2.35937v-.125q-.01562-.5625-.3125-.875-.281245-.3125-.82812-.3125z"/><path d="m94.765625 241.69603v-8.53125h2.984375q1.546875 0 2.34375.59375.8125.59375.8125 1.75 0 .625-.328125 1.10937-.3125.46875-.890625.6875.65625.17188 1.03125.67188.390625.48437.390625 1.20312 0 1.23438-.796875 1.875-.78125.625-2.234375.64063zm1.75-3.71875v2.3125h1.515625q.609375 0 .953125-.29688.359375-.29687.359375-.82812 0-1.17188-1.21875-1.1875zm0-1.23438h1.3125q1.328125-.03125 1.328125-1.0625 0-.57812-.34375-.82812-.328125-.26563-1.0625-.26563h-1.234375zm9.046875 5.07813q-1.390625 0-2.265625-.85938-.875-.85937-.875-2.28125v-.17187q0-.95313.359375-1.70313.375-.75 1.046875-1.15625.6875-.40625 1.546875-.40625 1.3125 0 2.046875.82813.75.8125.75 2.3125v.6875h-4.03125q.078125.625.484375 1 .421875.375 1.0625.375.96875 0 1.515625-.70313l.84375.92188q-.390625.54687-1.046875.85937-.640625.29688-1.4375.29688zm-.1875-5.21875q-.5 0-.8125.34375-.3125.34375-.40625.96875h2.359375v-.125q-.015625-.5625-.3125-.875-.28125-.3125-.828125-.3125zm5.0625 5.09375h-1.703125v-9h1.703125zm-1.0625 2.96875-.828125-.46875q.421875-.67188.4375-1.42188v-.59375h1.25v.40625q0 .54688-.25 1.125-.25.59375-.609375.95313zm2.03125-6.1875q0-1.45313.6875-2.34375.703125-.89063 1.875-.89063 1.046875 0 1.625.70313l.078125-.59375h1.53125v6.125q0 .84375-.390625 1.45312-.375.625-1.0625.9375-.671875.32813-1.59375.32813-.703125 0-1.375-.28125-.65625-.28125-.984375-.71875l.75-1.03125q.625.70312 1.53125.70312.671875 0 1.046875-.35937.375-.35938.375-1.01563v-.34375q-.578125.67188-1.546875.67188-1.140625 0-1.84375-.89063-.703125-.90625-.703125-2.375zm1.6875.125q0 .85937.34375 1.35937.359375.48438.953125.48438.78125 0 1.109375-.57813v-2.67187q-.34375-.57813-1.09375-.57813-.609375 0-.96875.5-.34375.5-.34375 1.48438zm1.3125-6.98438.875.45313q-.390625.6875-.390625 1.45312l-.015625.79688h-1.3125v-.82813q0-.57812.234375-1.09375.234375-.53125.609375-.78125zm6.03125 10.07813h-1.703125v-6.34375h1.703125zm-1.796875-7.98438q0-.375.25-.625.265625-.25.703125-.25.421875 0 .671875.25.265625.25.265625.625 0 .39063-.265625.64063-.25.23437-.6875.23437-.421875 0-.6875-.23437-.25-.25-.25-.64063zm4.796875 1.64063v6.6875q0 1.04687-.5625 1.625-.546875.59375-1.59375.59375-.4375 0-.84375-.09375v-1.34375q.3125.04687.53125.04687.78125 0 .78125-.8125v-6.70312zm-1.828125-1.64063q0-.375.25-.625.265625-.25.703125-.25.4375 0 .6875.25.265625.25.265625.625 0 .39063-.265625.64063-.265625.23437-.703125.23437-.421875 0-.6875-.23437-.25-.25-.25-.64063zm6.718745 7.98438q-.125-.23438-.17187-.5625-.609375.6875-1.59375.6875-.9375 0-1.546875-.54688-.609375-.54687-.609375-1.35937 0-1.01563.734375-1.54688.75-.54687 2.171875-.54687h.76562v-.35938q0-.4375-.218745-.70312-.21875-.26563-.71875-.26563-.421875 0-.671875.20313-.234375.20312-.234375.5625h-1.6875q0-.54688.328125-1.01563.34375-.46875.96875-.73437.625-.26563 1.390625-.26563 1.171875 0 1.859375.59375.6875.57813.6875 1.64063v2.75q.01563.90625.25 1.375v.09375zm-1.406245-1.17188q.375 0 .6875-.17187.328125-.17188.468745-.45313v-1.09375h-.624995q-1.265625 0-1.359375.89063v.09375q0 .3125.21875.53125.21875.20312.609375.20312z"/><path d="m93.890625 294.86365h-3.375v3.48437h-1.75v-8.53125h5.546875v1.42188h-3.796875v2.20312h3.375zm5.328125-1.26563q-.34375-.04687-.609375-.04687-.96875 0-1.265625.64062v4.15625h-1.6875v-6.34375h1.59375l.046875.76563q.515625-.875 1.40625-.875.28125 0 .53125.07812zm4.109375 4.75q-.125-.23437-.171875-.5625-.609375.6875-1.59375.6875-.9375 0-1.546875-.54687-.609375-.54688-.609375-1.35938 0-1.01562.734375-1.54687.75-.54688 2.171875-.54688h.765625v-.35937q0-.4375-.21875-.70313-.21875-.26562-.71875-.26562-.421875 0-.671875.20312-.234375.20313-.234375.5625h-1.6875q0-.54687.328125-1.01562.34375-.46875.96875-.73438.625-.26562 1.390625-.26562 1.171875 0 1.859375.59375.6875.57812.6875 1.64062v2.75q.015625.90625.25 1.375v.09375zm-1.40625-1.17187q.375 0 .6875-.17188.328125-.17187.46875-.45312v-1.09375h-.625q-1.265625 0-1.359375.89062v.09375q0 .3125.21875.53125.21875.20313.609375.20313zm5.28125-5.17188.0625.73438q.671875-.84375 1.8125-.84375 1.015625 0 1.5.59375.5.57812.515625 1.76562v4.09375h-1.703125v-4.0625q0-.53125-.234375-.76562-.234375-.25-.78125-.25-.703125 0-1.0625.60937v4.46875h-1.703125v-6.34375zm8.078125 5.09375q.46875 0 .765625-.25.296875-.26562.3125-.6875h1.578125q0 .64063-.34375 1.1875-.34375.53125-.953125.82813-.59375.29687-1.328125.29687-1.359375 0-2.140625-.85937-.78125-.875-.78125-2.40625v-.10938q0-1.46875.78125-2.32812.78125-.875 2.140625-.875 1.1875 0 1.90625.67187.71875.67188.71875 1.79688h-1.578125q-.015625-.48438-.3125-.79688-.296875-.3125-.765625-.3125-.59375 0-.90625.4375-.296875.4375-.296875 1.39063v.1875q0 .96875.296875 1.40625.296875.42187.90625.42187zm5.15625 1.25h-1.703125v-6.34375h1.703125zm-1.796875-7.98437q0-.375.25-.625.265625-.25.703125-.25.421875 0 .671875.25.265625.25.265625.625 0 .39062-.265625.64062-.25.23438-.6875.23438-.421875 0-.6875-.23438-.25-.25-.25-.64062zm4.796875 1.64062v6.6875q0 1.04688-.5625 1.625-.546875.59375-1.59375.59375-.4375 0-.84375-.09375v-1.34375q.3125.04688.53125.04688.78125 0 .78125-.8125v-6.70313zm-1.828125-1.64062q0-.375.25-.625.265625-.25.703125-.25.4375 0 .6875.25.265625.25.265625.625 0 .39062-.265625.64062-.265625.23438-.703125.23438-.421875 0-.6875-.23438-.25-.25-.25-.64062zm6.718745 7.98437q-.125-.23437-.17187-.5625-.609375.6875-1.59375.6875-.9375 0-1.546875-.54687-.609375-.54688-.609375-1.35938 0-1.01562.734375-1.54687.75-.54688 2.171875-.54688h.76562v-.35937q0-.4375-.218745-.70313-.21875-.26562-.71875-.26562-.421875 0-.671875.20312-.234375.20313-.234375.5625h-1.6875q0-.54687.328125-1.01562.34375-.46875.96875-.73438.625-.26562 1.390625-.26562 1.171875 0 1.859375.59375.6875.57812.6875 1.64062v2.75q.01563.90625.25 1.375v.09375zm-1.406245-1.17187q.375 0 .6875-.17188.328125-.17187.468745-.45312v-1.09375h-.624995q-1.265625 0-1.359375.89062v.09375q0 .3125.21875.53125.21875.20313.609375.20313z"/><path d="m93.515625 353.59375h3.734375v1.40625h-5.484375v-8.53125h1.75zm6.921875 1.40625h-1.703125v-6.34375h1.703125zm-1.796875-7.98438q0-.375.25-.625.265625-.25.703125-.25.421875 0 .671875.25.265625.25.265625.625 0 .39063-.265625.64063-.25.23437-.6875.23437-.421875 0-.6875-.23437-.25-.25-.25-.64063zm5.921875 8.10938q-1.390625 0-2.265625-.85938-.875-.85937-.875-2.28124v-.17188q0-.95312.359375-1.70312.375-.75 1.046875-1.15626.6875-.40624 1.546875-.40624 1.3125 0 2.046875.82812.75.8125.75 2.3125v.6875h-4.03125q.078125.625.484375 1 .421875.375 1.0625.375.96875 0 1.515625-.70312l.84375.92187q-.390625.54687-1.046875.85937-.640625.29688-1.4375.29688zm-.1875-5.21875q-.5 0-.8125.34375-.3125.34375-.40625.96875h2.359375v-.125q-.015625-.5625-.3125-.875-.28125-.3125-.828125-.3125zm5.296875-2.8125v1.5625h1.09375v1.25h-1.09375v3.15625q0 .35938.140625.51562.140625.14063.515625.14063.28125 0 .5-.03125v1.28125q-.5.15625-1.03125.15625-1.78125 0-1.8125-1.8125v-3.40625h-.921875v-1.25h.921875v-1.5625zm5.78125 7.26563q-.625.76562-1.734375.76562-1.03125 0-1.5625-.59375-.53125-.59375-.546875-1.71875v-4.15625h1.6875v4.09375q0 1 .90625 1 .859375 0 1.1875-.60938v-4.48437h1.703125v6.34375h-1.59375zm5.578125-1.42188 1.171875-4.28125h1.765625l-2.140625 6.34375h-1.609375l-2.140625-6.34375h1.765625zm7.29687 2.0625q-.125-.23438-.17187-.5625-.609375.6875-1.59375.6875-.9375 0-1.546875-.54688-.609375-.54687-.609375-1.35937 0-1.01563.734375-1.54687.75-.54688 2.171875-.54688h.76562v-.35938q0-.4375-.218745-.70312-.21875-.26562-.71875-.26562-.421875 0-.671875.20312-.234375.20312-.234375.5625h-1.6875q0-.54688.328125-1.01562.34375-.46876.96875-.73438.625-.26562 1.390625-.26562 1.171875 0 1.859375.59374.6875.57813.6875 1.64063v2.75q.01563.90625.25 1.375v.09375zm-1.406245-1.17188q.375 0 .6875-.17187.328125-.17187.468745-.45313v-1.09374h-.624995q-1.265625 0-1.359375.89062v.09375q0 .3125.21875.53125.21875.20312.609375.20312z"/><path d="m89.625 411.65198h-1.75v-8.53125h1.75zm1.78125-3.21875q0-1.45313.6875-2.34375.703125-.89063 1.875-.89063 1.046875 0 1.625.70313l.078125-.59375h1.53125v6.125q0 .84375-.390625 1.45312-.375.625-1.0625.9375-.671875.32813-1.59375.32813-.703125 0-1.375-.28125-.65625-.28125-.984375-.71875l.75-1.03125q.625.70312 1.53125.70312.671875 0 1.046875-.35937.375-.35938.375-1.01563v-.34375q-.578125.67188-1.546875.67188-1.140625 0-1.84375-.89063-.703125-.90625-.703125-2.375zm1.6875.125q0 .85937.34375 1.35937.359375.48438.953125.48438.78125 0 1.109375-.57813v-2.67187q-.34375-.57813-1.09375-.57813-.609375 0-.96875.5-.34375.5-.34375 1.48438zm9.234375 3.09375q-.125-.23438-.171875-.5625-.609375.6875-1.59375.6875-.9375 0-1.546875-.54688-.609375-.54687-.609375-1.35937 0-1.01563.734375-1.54688.75-.54687 2.171875-.54687h.765625v-.35938q0-.4375-.21875-.70312-.21875-.26563-.71875-.26563-.421875 0-.671875.20313-.234375.20312-.234375.5625h-1.6875q0-.54688.328125-1.01563.34375-.46875.96875-.73437.625-.26563 1.390625-.26563 1.171875 0 1.859375.59375.6875.57813.6875 1.64063v2.75q.015625.90625.25 1.375v.09375zm-1.40625-1.17188q.375 0 .6875-.17187.328125-.17188.46875-.45313v-1.09375h-.625q-1.265625 0-1.359375.89063v.09375q0 .3125.21875.53125.21875.20312.609375.20312zm7.53125.53125q-.625.76563-1.734375.76563-1.03125 0-1.5625-.59375-.53125-.59375-.546875-1.71875v-4.15625h1.6875v4.09375q0 1 .90625 1 .859375 0 1.1875-.60938v-4.48437h1.703125v6.34375h-1.59375zm4.75-5.70312.0625.73437q.671875-.84375 1.8125-.84375 1.015625 0 1.5.59375.5.57813.515625 1.76563v4.09375h-1.703125v-4.0625q0-.53125-.234375-.76563-.234375-.25-.78125-.25-.703125 0-1.0625.60938v4.46875h-1.703125v-6.34375zm7.234375 6.34375h-1.703125v-6.34375h1.703125zm-1.796875-7.98438q0-.375.25-.625.265625-.25.703125-.25.421875 0 .671875.25.265625.25.265625.625 0 .39063-.265625.64063-.25.23437-.6875.23437-.421875 0-.6875-.23437-.25-.25-.25-.64063zm4.796875 1.64063v6.6875q0 1.04687-.5625 1.625-.546875.59375-1.59375.59375-.4375 0-.84375-.09375v-1.34375q.3125.04687.53125.04687.78125 0 .78125-.8125v-6.70312zm-1.828125-1.64063q0-.375.25-.625.265625-.25.703125-.25.4375 0 .6875.25.265625.25.265625.625 0 .39063-.265625.64063-.265625.23437-.703125.23437-.421875 0-.6875-.23437-.25-.25-.25-.64063zm6.718745 7.98438q-.125-.23438-.17187-.5625-.609375.6875-1.59375.6875-.9375 0-1.546875-.54688-.609375-.54687-.609375-1.35937 0-1.01563.734375-1.54688.75-.54687 2.171875-.54687h.76562v-.35938q0-.4375-.218745-.70312-.21875-.26563-.71875-.26563-.421875 0-.671875.20313-.234375.20312-.234375.5625h-1.6875q0-.54688.328125-1.01563.34375-.46875.96875-.73437.625-.26563 1.390625-.26563 1.171875 0 1.859375.59375.6875.57813.6875 1.64063v2.75q.01563.90625.25 1.375v.09375zm-1.406245-1.17188q.375 0 .6875-.17187.328125-.17188.468745-.45313v-1.09375h-.624995q-1.265625 0-1.359375.89063v.09375q0 .3125.21875.53125.21875.20312.609375.20312z"/><path d="m103.625 468.30396h-1.75v-8.53126h1.75zm4.046875-7.90626v1.5625h1.09375v1.25h-1.09375v3.15626q0 .35937.140625.51562.140625.14062.515625.14062.28125 0 .5-.03124v1.28124q-.5.15626-1.03125.15626-1.78125 0-1.8125-1.8125v-3.40626h-.921875v-1.25h.921875v-1.5625zm5.65625 7.90626q-.125-.23438-.171875-.5625-.609375.6875-1.59375.6875-.9375 0-1.546875-.54688-.609375-.54688-.609375-1.35938 0-1.01562.734375-1.54687.75-.54687 2.171875-.54687h.765625v-.35938q0-.4375-.21875-.70312-.21875-.26563-.71875-.26563-.421875 0-.671875.20313-.234375.20312-.234375.5625h-1.6875q0-.54688.328125-1.01563.34375-.46875.96875-.73437.625-.26563 1.390625-.26563 1.171875 0 1.859375.59375.6875.57812.6875 1.64062v2.75q.015625.90626.25 1.375v.09376zm-1.40625-1.17188q.375 0 .6875-.17188.328125-.17187.46875-.45312v-1.09375h-.625q-1.265625 0-1.359375.89063v.09374q0 .3125.21875.53126.21875.20312.609375.20312zm2.34375-6.375h-4.046875v-.96875h4.046875zm3.171875 7.54688h-1.703125v-9h1.703125zm3 0h-1.703125v-6.34376h1.703125zm-1.796875-7.98438q0-.375.25-.625.265625-.25.703125-.25.421875 0 .671875.25.265625.25.265625.625 0 .39062-.265625.64062-.25.23438-.6875.23438-.421875 0-.6875-.23438-.25-.25-.25-.64062zm4.796875 1.64062v6.6875q0 1.04688-.5625 1.625-.546875.59376-1.59375.59376-.4375 0-.84375-.09376v-1.34374q.3125.04687.53125.04687.78125 0 .78125-.8125v-6.70313zm-1.828125-1.64062q0-.375.25-.625.265625-.25.703125-.25.4375 0 .6875.25.265625.25.265625.625 0 .39062-.265625.64062-.265625.23438-.703125.23438-.421875 0-.6875-.23438-.25-.25-.25-.64062zm6.718745 7.98438q-.125-.23438-.17187-.5625-.609375.6875-1.59375.6875-.9375 0-1.546875-.54688-.609375-.54688-.609375-1.35938 0-1.01562.734375-1.54687.75-.54687 2.171875-.54687h.76562v-.35938q0-.4375-.218745-.70312-.21875-.26563-.71875-.26563-.421875 0-.671875.20313-.234375.20312-.234375.5625h-1.6875q0-.54688.328125-1.01563.34375-.46875.96875-.73437.625-.26563 1.390625-.26563 1.171875 0 1.859375.59375.6875.57812.6875 1.64062v2.75q.01563.90626.25 1.375v.09376zm-1.406245-1.17188q.375 0 .6875-.17188.328125-.17187.468745-.45312v-1.09375h-.624995q-1.265625 0-1.359375.89063v.09374q0 .3125.21875.53126.21875.20312.609375.20312z"/><path d="m34.578125 523.1903h-3.078125l-.59375 1.76563h-1.859375l3.171875-8.53123h1.625l3.203125 8.53123h-1.875zm-2.609375-1.42187h2.140625l-1.078125-3.1875zm11.390625.07813q0 1.46874-.671875 2.35937-.65625.875-1.796875.875-.953125 0-1.546875-.67187v2.98437h-1.6875v-8.78123h1.5625l.0625.625q.609375-.7344 1.609375-.7344 1.171875 0 1.8125.875.65625.8594.65625 2.375zm-1.6875-.125q0-.89063-.328125-1.35936-.3125-.4844-.90625-.4844-.796875 0-1.09375.6094v2.59373q.3125.625 1.109375.625 1.21875 0 1.21875-1.98437zm5.359375 1.17187 1.171875-4.28123h1.765625l-2.140625 6.34373h-1.609375l-2.140625-6.34373h1.765625zm5.40625 2.0625h-1.703125v-6.34373h1.703125zm-1.796875-7.98437q0-.375.25-.625.265625-.25.703125-.25.421875 0 .671875.25.265625.25.265625.625 0 .39064-.265625.64064-.25.23436-.6875.23436-.421875 0-.6875-.23436-.25-.25-.25-.64064zm5.921875 8.10937q-1.390625 0-2.265625-.85937-.875-.85936-.875-2.28126v-.17187q0-.95313.359375-1.70313.375-.75 1.046875-1.15624.6875-.40626 1.546875-.40626 1.3125 0 2.046875.82813.75.8125.75 2.3125v.6875h-4.03125q.078125.625.484375 1 .421875.375 1.0625.375.96875 0 1.515625-.70313l.84375.9219q-.390625.54686-1.046875.85936-.640625.29687-1.4375.29687zm-.1875-5.21873q-.5 0-.8125.34373-.3125.34377-.40625.96877h2.359375v-.125q-.015625-.5625-.3125-.875-.28125-.3125-.828125-.3125zm4.828125-1.25.0625.73436q.671875-.84376 1.8125-.84376 1.015625 0 1.5.59376.5.57814.515625 1.76564v4.09373h-1.703125v-4.0625q0-.53123-.234375-.76563-.234375-.25-.78125-.25-.703125 0-1.0625.6094v4.46873h-1.703125v-6.34373zm5.1875 3.10936q0-.9375.359375-1.67186.359375-.75 1.046875-1.14064.6875-.40626 1.578125-.40626 1.296875 0 2.09375.78126.8125.78124.90625 2.125l.015625.4375q0 1.46874-.8125 2.35937-.8125.875-2.1875.875-1.375 0-2.1875-.875-.8125-.89063-.8125-2.40623zm1.6875.125q0 .90624.34375 1.39064.34375.46873.96875.46873.625 0 .96875-.46873.34375-.46877.34375-1.51564 0-.875-.34375-1.35936-.34375-.5-.984375-.5-.609375 0-.953125.48436-.34375.48437-.34375 1.5zm7.59375-4.79686v1.5625h1.09375v1.25h-1.09375v3.15623q0 .35937.140625.51563.140625.14064.515625.14064.28125 0 .5-.03127v1.28127q-.5.15623-1.03125.15623-1.78125 0-1.8125-1.8125v-3.40623h-.921875v-1.25h.921875v-1.5625zm5.65625 7.90623q-.125-.23437-.171875-.5625-.609375.6875-1.59375.6875-.9375 0-1.546875-.54687-.609375-.54686-.609375-1.35936 0-1.01564.734375-1.5469.75-.54687 2.171875-.54687h.765625v-.35937q0-.4375-.21875-.70313-.21875-.26563-.71875-.26563-.421875 0-.671875.20313-.234375.20313-.234375.5625h-1.6875q0-.54687.328125-1.01563.34375-.46874.96875-.73437.625-.26563 1.390625-.26563 1.171875 0 1.859375.59376.6875.57814.6875 1.64064v2.75q.015625.90623.25 1.375v.09373zm-1.40625-1.17187q.375 0 .6875-.17186.328125-.1719.46875-.45314v-1.09376h-.625q-1.265625 0-1.359375.89063v.09377q0 .3125.21875.53123.21875.20313.609375.20313zm2.34375-6.375h-4.046875v-.96876h4.046875zm6.6875 5-.609375.60937v1.9375h-1.6875v-9h1.6875v4.98437l.328125-.42187 1.625-1.90623h2.03125l-2.296875 2.6406 2.5 3.70313h-1.953125zm7.375 2.54687q-.125-.23437-.171875-.5625-.609375.6875-1.59375.6875-.9375 0-1.546875-.54687-.609375-.54686-.609375-1.35936 0-1.01564.734375-1.5469.75-.54687 2.171875-.54687h.765625v-.35937q0-.4375-.21875-.70313-.21875-.26563-.71875-.26563-.421875 0-.671875.20313-.234375.20313-.234375.5625h-1.6875q0-.54687.328125-1.01563.34375-.46874.96875-.73437.625-.26563 1.390625-.26563 1.171875 0 1.859375.59376.6875.57814.6875 1.64064v2.75q.015625.90623.25 1.375v.09373zm-1.40625-1.17187q.375 0 .6875-.17186.328125-.1719.46875-.45314v-1.09376h-.625q-1.265625 0-1.359375.89063v.09377q0 .3125.21875.53123.21875.20313.609375.20313zm7.296875-3.57813q-.34375-.04687-.609375-.04687-.96875 0-1.265625.64064v4.15623h-1.6875v-6.34373h1.59375l.046875.7656q.515625-.875 1.40625-.875.28125 0 .53125.07813zm4.109375 4.75q-.125-.23437-.171875-.5625-.609375.6875-1.59375.6875-.9375 0-1.546875-.54687-.609375-.54686-.609375-1.35936 0-1.01564.734375-1.5469.75-.54687 2.171875-.54687h.765625v-.35937q0-.4375-.21875-.70313-.21875-.26563-.71875-.26563-.421875 0-.671875.20313-.234375.20313-.234375.5625h-1.6875q0-.54687.328125-1.01563.34375-.46874.96875-.73437.625-.26563 1.390625-.26563 1.171875 0 1.859375.59376.6875.57814.6875 1.64064v2.75q.015625.90623.25 1.375v.09373zm-1.40625-1.17187q.375 0 .6875-.17186.328125-.1719.46875-.45314v-1.09376h-.625q-1.265625 0-1.359375.89063v.09377q0 .3125.21875.53123.21875.20313.609375.20313zm5.515625 1.17187h-1.703125v-9h1.703125zm3 0h-1.703125v-6.34373h1.703125zm-1.796875-7.98437q0-.375.25-.625.265625-.25.703125-.25.421875 0 .671875.25.265625.25.265625.625 0 .39064-.265625.64064-.25.23436-.6875.23436-.421875 0-.6875-.23436-.25-.25-.25-.64064zm6.4375 6.23437q0-.3125-.3125-.48437-.296875-.1875-.96875-.32813-2.265625-.46873-2.265625-1.92187 0-.84376.6875-1.40626.703125-.5625 1.84375-.5625 1.203125 0 1.921875.5625.734375.5625.734375 1.4844h-1.703125q0-.375-.234375-.6094-.234375-.23437-.734375-.23437-.421875 0-.65625.20313-.234375.1875-.234375.48437 0 .28127.265625.45313.265625.17187.890625.29687.640625.125 1.078125.28127 1.34375.5 1.34375 1.7031 0 .875-.75 1.4219-.734375.53123-1.921875.53123-.796875 0-1.421875-.28123-.609375-.2969-.96875-.78127-.34375-.5-.34375-1.07813h1.609375q.015625.45313.328125.70313.3125.23437.828125.23437.5 0 .734375-.1875.25-.1875.25-.48437zm4.59375-6.15623v1.5625h1.09375v1.25h-1.09375v3.15623q0 .35937.140625.51563.140625.14064.515625.14064.28125 0 .5-.03127v1.28127q-.5.15623-1.03125.15623-1.78125 0-1.8125-1.8125v-3.40623h-.921875v-1.25h.921875v-1.5625zm4.890625 8.03123q-1.390625 0-2.265625-.85937-.875-.85936-.875-2.28126v-.17187q0-.95313.359375-1.70313.375-.75 1.046875-1.15624.6875-.40626 1.546875-.40626 1.3125 0 2.04688.82813.75.8125.75 2.3125v.6875h-4.031255q.078125.625.484375 1 .421875.375 1.0625.375.96875 0 1.51562-.70313l.84376.9219q-.39063.54686-1.04688.85936-.64062.29687-1.4375.29687zm-.1875-5.21873q-.5 0-.8125.34373-.3125.34377-.40625.96877h2.35937v-.125q-.01562-.5625-.3125-.875-.281245-.3125-.82812-.3125z"/><path d="m97.765625 581.6079v-8.53124h2.625q1.125 0 2 .51564.890625.5 1.390625 1.4375.5.92186.5 2.125v.3906q0 1.1875-.484375 2.1094-.484375.92186-1.375 1.4375-.890625.5156-2.015625.5156zm1.75-7.10936v5.70312h.859375q1.03125 0 1.5625-.67186.546875-.6875.5625-1.9375v-.45314q0-1.29686-.546875-1.96876-.53125-.67186-1.5625-.67186zm9.8125 7.10936q-.125-.23436-.171875-.5625-.609375.6875-1.59375.6875-.9375 0-1.546875-.54686-.609375-.54688-.609375-1.35938 0-1.01562.734375-1.54686.75-.5469 2.171875-.5469h.765625v-.35936q0-.4375-.21875-.70314-.21875-.2656-.71875-.2656-.421875 0-.671875.2031-.234375.20314-.234375.5625h-1.6875q0-.54686.328125-1.0156.34375-.46876.96875-.7344.625-.2656 1.390625-.2656 1.171875 0 1.859375.59374.6875.57812.6875 1.64062v2.75q.015625.90624.25 1.375v.09374zm-1.40625-1.17186q.375 0 .6875-.17188.328125-.17186.46875-.45312v-1.09374h-.625q-1.265625 0-1.359375.8906v.09376q0 .3125.21875.53124.21875.20314.609375.20314zm2.34375-6.375h-4.046875v-.96874h4.046875zm2.9375 1.20312.0625.73438q.671875-.84374 1.8125-.84374 1.015625 0 1.5.59374.5.57812.515625 1.76562v4.09374h-1.703125v-4.0625q0-.53124-.234375-.7656-.234375-.25-.78125-.25-.703125 0-1.0625.60936v4.46874h-1.703125v-6.34374zm7.234375 6.34374h-1.703125v-6.34374h1.703125zm-1.796875-7.98436q0-.375.25-.625.265625-.25.703125-.25.421875 0 .671875.25.265625.25.265625.625 0 .39062-.265625.64062-.25.23438-.6875.23438-.421875 0-.6875-.23438-.25-.25-.25-.64062zm4.796875 1.64062v6.6875q0 1.04688-.5625 1.625-.546875.59374-1.59375.59374-.4375 0-.84375-.09374v-1.34376q.3125.0469.53125.0469.78125 0 .78125-.8125v-6.70314zm-1.828125-1.64062q0-.375.25-.625.265625-.25.703125-.25.4375 0 .6875.25.265625.25.265625.625 0 .39062-.265625.64062-.265625.23438-.703125.23438-.421875 0-.6875-.23438-.25-.25-.25-.64062zm6.718745 7.98436q-.125-.23436-.17187-.5625-.609375.6875-1.59375.6875-.9375 0-1.546875-.54686-.609375-.54688-.609375-1.35938 0-1.01562.734375-1.54686.75-.5469 2.171875-.5469h.76562v-.35936q0-.4375-.218745-.70314-.21875-.2656-.71875-.2656-.421875 0-.671875.2031-.234375.20314-.234375.5625h-1.6875q0-.54686.328125-1.0156.34375-.46876.96875-.7344.625-.2656 1.390625-.2656 1.171875 0 1.859375.59374.6875.57812.6875 1.64062v2.75q.01563.90624.25 1.375v.09374zm-1.406245-1.17186q.375 0 .6875-.17188.328125-.17186.468745-.45312v-1.09374h-.624995q-1.265625 0-1.359375.8906v.09376q0 .3125.21875.53124.21875.20314.609375.20314z"/><path d="m56.515625 635.2599v3h-1.75v-8.53126h3.328125q.953125 0 1.6875.35936.734375.34376 1.125 1 .390625.64064.390625 1.46876 0 1.25-.859375 1.98438-.859375.71876-2.375.71876zm0-1.4375h1.578125q.6875 0 1.046875-.32814.375-.32812.375-.9375 0-.625-.375-1-.359375-.39062-1.015625-.40626h-1.609375zm9.8125 4.4375q-.125-.2344-.171875-.5625-.609375.6875-1.59375.6875-.9375 0-1.546875-.5469-.609375-.54686-.609375-1.35936 0-1.01564.734375-1.54688.75-.54686 2.171875-.54686h.765625v-.3594q0-.4375-.21875-.7031-.21875-.26564-.71875-.26564-.421875 0-.671875.20314-.234375.2031-.234375.5625h-1.6875q0-.5469.328125-1.01564.34375-.46876.96875-.73436.625-.26564 1.390625-.26564 1.171875 0 1.859375.59374.6875.57814.6875 1.64064v2.75q.015625.90626.25 1.375v.09376zm-1.40625-1.1719q.375 0 .6875-.17186.328125-.17188.46875-.45314v-1.09374h-.625q-1.265625 0-1.359375.89064v.09374q0 .3125.21875.53126.21875.2031.609375.2031zm2.34375-6.375h-4.046875v-.96874h4.046875zm4.953125 2.7969q-.34375-.0469-.609375-.0469-.96875 0-1.265625.64064v4.15626h-1.6875v-6.34376h1.59375l.046875.76562q.515625-.875 1.40625-.875.28125 0 .53125.07814zm3.34375 4.875q-1.390625 0-2.265625-.8594-.875-.85936-.875-2.28124v-.17186q0-.95314.359375-1.70314.375-.75 1.046875-1.15626.6875-.40624 1.546875-.40624 1.3125 0 2.046875.82814.75.8125.75 2.3125v.6875h-4.03125q.078125.625.484375 1 .421875.375 1.0625.375.96875 0 1.515625-.70314l.84375.92188q-.390625.54686-1.046875.85936-.640625.2969-1.4375.2969zm-.1875-5.21876q-.5 0-.8125.34376-.3125.34374-.40625.96874h2.359375v-.125q-.015625-.5625-.3125-.875-.28125-.3125-.828125-.3125zm1.84375-2.45314h-4.046875v-.96874h4.046875zm3.21875 1.20314v6.6875q0 1.04686-.5625 1.625-.546875.59376-1.59375.59376-.4375 0-.84375-.09376v-1.34374q.3125.04686.53125.04686.78125 0 .78125-.8125v-6.70312zm-1.828125-1.64064q0-.375.25-.625.265625-.25.703125-.25.4375 0 .6875.25.265625.25.265625.625 0 .39064-.265625.64064-.265625.23436-.703125.23436-.421875 0-.6875-.23436-.25-.25-.25-.64064zm6.71875 7.9844q-.125-.2344-.171875-.5625-.609375.6875-1.59375.6875-.9375 0-1.546875-.5469-.609375-.54686-.609375-1.35936 0-1.01564.734375-1.54688.75-.54686 2.171875-.54686h.765625v-.3594q0-.4375-.21875-.7031-.21875-.26564-.71875-.26564-.421875 0-.671875.20314-.234375.2031-.234375.5625h-1.6875q0-.5469.328125-1.01564.34375-.46876.96875-.73436.625-.26564 1.390625-.26564 1.171875 0 1.859375.59374.6875.57814.6875 1.64064v2.75q.015625.90626.25 1.375v.09376zm-1.40625-1.1719q.375 0 .6875-.17186.328125-.17188.46875-.45314v-1.09374h-.625q-1.265625 0-1.359375.89064v.09374q0 .3125.21875.53126.21875.2031.609375.2031zm2.34375-6.375h-4.046875v-.96874h4.046875zm4.8125 5.7969q0-.3125-.3125-.4844-.296875-.1875-.96875-.3281-2.265625-.46876-2.265625-1.9219 0-.84374.6875-1.40624.703125-.5625 1.84375-.5625 1.203125 0 1.921875.5625.734375.5625.734375 1.48438h-1.703125q0-.375-.234375-.60938-.234375-.23436-.734375-.23436-.421875 0-.65625.2031-.234375.1875-.234375.4844 0 .28124.265625.4531.265625.1719.890625.2969.640625.125 1.078125.28124 1.34375.5 1.34375 1.70312 0 .875-.75 1.42188-.734375.53126-1.921875.53126-.796875 0-1.421875-.28126-.609375-.29688-.96875-.78124-.34375-.5-.34375-1.07814h1.609375q.015625.45314.328125.70314.3125.23436.828125.23436.5 0 .734375-.1875.25-.1875.25-.48436zm7.953125-.3125 1.171875-4.28126h1.765625l-2.140625 6.34376h-1.609375l-2.140625-6.34376h1.765625zm7.296875 2.0625q-.125-.2344-.171875-.5625-.609375.6875-1.59375.6875-.9375 0-1.546875-.5469-.609375-.54686-.609375-1.35936 0-1.01564.734375-1.54688.75-.54686 2.171875-.54686h.765625v-.3594q0-.4375-.21875-.7031-.21875-.26564-.71875-.26564-.421875 0-.671875.20314-.234375.2031-.234375.5625h-1.6875q0-.5469.328125-1.01564.34375-.46876.96875-.73436.625-.26564 1.390625-.26564 1.171875 0 1.859375.59374.6875.57814.6875 1.64064v2.75q.015625.90626.25 1.375v.09376zm-1.40625-1.1719q.375 0 .6875-.17186.328125-.17188.46875-.45314v-1.09374h-.625q-1.265625 0-1.359375.89064v.09374q0 .3125.21875.53126.21875.2031.609375.2031zm5.515625 1.1719h-1.703125v-9h1.703125zm4.640625-1.75q0-.3125-.3125-.4844-.296875-.1875-.96875-.3281-2.265625-.46876-2.265625-1.9219 0-.84374.6875-1.40624.703125-.5625 1.84375-.5625 1.203125 0 1.921875.5625.734375.5625.734375 1.48438h-1.703125q0-.375-.234375-.60938-.234375-.23436-.734375-.23436-.421875 0-.65625.2031-.234375.1875-.234375.4844 0 .28124.265625.4531.265625.1719.890625.2969.640625.125 1.078125.28124 1.34375.5 1.34375 1.70312 0 .875-.75 1.42188-.734375.53126-1.921875.53126-.796875 0-1.421875-.28126-.609375-.29688-.96875-.78124-.34375-.5-.34375-1.07814h1.609375q.015625.45314.328125.70314.3125.23436.828125.23436.5 0 .734375-.1875.25-.1875.25-.48436zm4.59375-6.15626v1.5625h1.09375v1.25h-1.09375v3.15626q0 .35936.140625.5156.140625.14064.515625.14064.28125 0 .5-.03124v1.28124q-.5.15626-1.03125.15626-1.78125 0-1.8125-1.8125v-3.40626h-.921875v-1.25h.921875v-1.5625zm3.765625 7.90626h-1.703125v-6.34376h1.703125zm-1.796875-7.9844q0-.375.25-.625.265625-.25.703125-.25.421875 0 .671875.25.265625.25.265625.625 0 .39064-.265625.64064-.25.23436-.6875.23436-.421875 0-.6875-.23436-.25-.25-.25-.64064zm6.437495 6.2344q0-.3125-.312495-.4844-.296875-.1875-.96875-.3281-2.265625-.46876-2.265625-1.9219 0-.84374.6875-1.40624.703125-.5625 1.84375-.5625 1.20312 0 1.92188.5625.73437.5625.73437 1.48438h-1.70313q0-.375-.23437-.60938-.234375-.23436-.734375-.23436-.421875 0-.65625.2031-.234375.1875-.234375.4844 0 .28124.265625.4531.265625.1719.890625.2969.640625.125 1.07812.28124 1.34376.5 1.34376 1.70312 0 .875-.75 1.42188-.73438.53126-1.92188.53126-.796875 0-1.421875-.28126-.609375-.29688-.96875-.78124-.34375-.5-.34375-1.07814h1.609375q.015625.45314.328125.70314.3125.23436.828125.23436.5 0 .734375-.1875.249995-.1875.249995-.48436z"/><path d="m138.5625 692.3594q0 1.9062-.65625 2.8437-.64063.9219-2.03125.9219-1.35938 0-2.01562-.90625-.65626-.90625-.6875-2.71875v-1.4375q0-1.8906.64062-2.7969.65625-.92185 2.04688-.92185 1.375 0 2.03124.89065.65626.875.67188 2.7187zm-1.09375-1.4844q0-1.375-.39063-2-.375-.6406-1.21874-.6406-.82813 0-1.21876.6406-.375.625-.375 1.9219v1.73435q0 1.375.39063 2.04685.40625.6563 1.21875.6563.79688 0 1.1875-.625.39062-.625.40625-1.95315z"/><path d="m273.63022 696h-5.59375v-.78125l2.95313-3.28125q.65624-.75.90624-1.2031.25-.4688.25-.9688 0-.67185-.40624-1.0937-.39063-.4375-1.07813-.4375-.79687 0-1.25.4687-.45313.45315-.45313 1.2813h-1.07812q0-1.1875.75-1.9063.76562-.73435 2.03125-.73435 1.20313 0 1.89063.625.6875.625.6875 1.67185 0 1.25-1.60938 3l-2.28125 2.4688h4.28125zm6.76562-3.6406q0 1.9062-.65624 2.8437-.64063.9219-2.03126.9219-1.35937 0-2.01562-.90625-.65625-.90625-.6875-2.71875v-1.4375q0-1.8906.64062-2.7969.65626-.92185 2.04688-.92185 1.375 0 2.03125.89065.65625.875.67187 2.7187zm-1.09374-1.4844q0-1.375-.39063-2-.375-.6406-1.21875-.6406-.82812 0-1.21875.6406-.375.625-.375 1.9219v1.73435q0 1.375.39063 2.04685.40624.6563 1.21874.6563.79688 0 1.1875-.625.39063-.625.40626-1.95315z"/><path d="m410.9479 693.1406h1.1875v.875h-1.1875v1.9844h-1.07812v-1.9844h-3.89062v-.6406l3.8125-5.90625h1.15624zm-3.73437 0h2.65625v-4.1875l-.14062.2344zm11.51563-.7812q0 1.9062-.65626 2.8437-.64062.9219-2.03124.9219-1.35938 0-2.01563-.90625-.65625-.90625-.6875-2.71875v-1.4375q0-1.8906.64063-2.7969.65624-.92185 2.04687-.92185 1.375 0 2.03125.89065.65625.875.67188 2.7187zm-1.09376-1.4844q0-1.375-.39062-2-.375-.6406-1.21875-.6406-.82813 0-1.21875.6406-.375.625-.375 1.9219v1.73435q0 1.375.39062 2.04685.40626.6563 1.21876.6563.79687 0 1.1875-.625.39062-.625.40624-1.95315z"/><path d="m548.96875 687.46875v.90625h-.20315q-1.2656.03125-2.0156.7656-.75.7188-.875 2.0313.6875-.76565 1.84375-.76565 1.10935 0 1.78125.78125.6719.78125.6719 2.03125 0 1.3125-.7188 2.10935-.7187.7969-1.9375.7969-1.2187 0-1.98435-.9375-.75-.9531-.75-2.4375v-.40625q0-2.35935 1-3.60935 1-1.25 2.98435-1.26565zm-1.42185 3.84375q-.5625 0-1.0313.3281-.4687.32815-.6562.8438v.3906q0 1.0625.4687 1.7031.4844.64065 1.1875.64065.7344 0 1.1563-.53125.42185-.5469.42185-1.4219 0-.875-.42185-1.4062-.4219-.5469-1.125-.5469zm9.5156 1.0469q0 1.9062-.65625 2.8437-.64065.9219-2.03125.9219-1.3594 0-2.0156-.90625-.6563-.90625-.6875-2.71875v-1.4375q0-1.8906.6406-2.7969.65625-.92185 2.0469-.92185 1.375 0 2.0312.89065.6563.875.6719 2.7187zm-1.09375-1.4844q0-1.375-.39065-2-.375-.6406-1.2187-.6406-.82815 0-1.2188.6406-.375.625-.375 1.9219v1.73435q0 1.375.39065 2.04685.40625.6563 1.21875.6563.7969 0 1.1875-.625.3906-.625.40625-1.95315z"/></g></svg>