<svg fill="none" height="731" stroke-linecap="square" stroke-miterlimit="10" viewBox="0 0 580 731" width="580" xmlns="http://www.w3.org/2000/svg" xmlns:xlink="http://www.w3.org/1999/xlink"><clipPath id="a"><path d="m111 29h440v646h-440z"/></clipPath><path d="m0 0h580v731h-580z" fill="none"/><path d="m111.5 29.5v646" stroke="#333" stroke-linecap="butt"/><path d="m221.5 29.5v646" stroke="#ccc" stroke-linecap="butt"/><path d="m331.5 29.5v646" stroke="#ccc" stroke-linecap="butt"/><path d="m441.5 29.5v646" stroke="#ccc" stroke-linecap="butt"/><path d="m551.5 29.5v646" stroke="#ccc" stroke-linecap="butt"/><path d="m147.5 29.5v646"/><path d="m184.5 29.5v646"/><path d="m257.5 29.5v646"/><path d="m294.5 29.5v646"/><path d="m367.5 29.5v646"/><path d="m404.5 29.5v646"/><path d="m477.5 29.5v646"/><path d="m514.5 29.5v646"/><path d="m111.5 675.5v-646" stroke="#000" stroke-linecap="butt"/><path clip-path="url(#a)" d="m111 86v-37h335c1.10458 0 2 .89543 2 2v33c0 1.10457-.89542 2-2 2z"/><path clip-path="url(#a)" d="m111 86v-37h335c1.10458 0 2 .89543 2 2v33c0 1.10457-.89542 2-2 2z" fill="#ffc000"/><path clip-path="url(#a)" d="m111 143v-37h38c1.10457 0 2 .89543 2 2v33c0 1.10457-.89543 2-2 2z"/><path clip-path="url(#a)" d="m111 143v-37h38c1.10457 0 2 .89543 2 2v33c0 1.10457-.89543 2-2 2z" fill="#ffc000"/><path clip-path="url(#a)" d="m111 200v-37h36c1.10457 0 2 .89543 2 2v33c0 1.10457-.89543 2-2 2z"/><path clip-path="url(#a)" d="m111 200v-37h36c1.10457 0 2 .89543 2 2v33c0 1.10457-.89543 2-2 2z" fill="#ffc000"/><path clip-path="url(#a)" d="m111 257v-37h27c1.10457 0 2 .89543 2 2v33c0 1.10458-.89543 2-2 2z"/><path clip-path="url(#a)" d="m111 257v-37h27c1.10457 0 2 .89543 2 2v33c0 1.10458-.89543 2-2 2z" fill="#ffc000"/><path clip-path="url(#a)" d="m111 314v-37h26c1.10457 0 2 .89542 2 2v33c0 1.10458-.89543 2-2 2z"/><path clip-path="url(#a)" d="m111 314v-37h26c1.10457 0 2 .89542 2 2v33c0 1.10458-.89543 2-2 2z" fill="#ffc000"/><path clip-path="url(#a)" d="m111 371v-37h25c1.10457 0 2 .89542 2 2v33c0 1.10458-.89543 2-2 2z"/><path clip-path="url(#a)" d="m111 371v-37h25c1.10457 0 2 .89542 2 2v33c0 1.10458-.89543 2-2 2z" fill="#ffc000"/><path clip-path="url(#a)" d="m111 428v-37h22c1.10457 0 2 .89542 2 2v33c0 1.10458-.89543 2-2 2z"/><path clip-path="url(#a)" d="m111 428v-37h22c1.10457 0 2 .89542 2 2v33c0 1.10458-.89543 2-2 2z" fill="#ffc000"/><path clip-path="url(#a)" d="m111 485v-37h21c1.10457 0 2 .89542 2 2v33c0 1.10458-.89543 2-2 2z"/><path clip-path="url(#a)" d="m111 485v-37h21c1.10457 0 2 .89542 2 2v33c0 1.10458-.89543 2-2 2z" fill="#ffc000"/><path clip-path="url(#a)" d="m111 542v-37h19c1.10457 0 2 .89542 2 2v33c0 1.10455-.89543 2-2 2z"/><path clip-path="url(#a)" d="m111 542v-37h19c1.10457 0 2 .89542 2 2v33c0 1.10455-.89543 2-2 2z" fill="#ffc000"/><path clip-path="url(#a)" d="m111 599v-37h10c1.10457 0 2 .89545 2 2v33c0 1.10455-.89543 2-2 2z"/><path clip-path="url(#a)" d="m111 599v-37h10c1.10457 0 2 .89545 2 2v33c0 1.10455-.89543 2-2 2z" fill="#ffc000"/><path clip-path="url(#a)" d="m111 656v-37h97c1.10457 0 2 .89545 2 2v33c0 1.10455-.89543 2-2 2z"/><path clip-path="url(#a)" d="m111 656v-37h97c1.10457 0 2 .89545 2 2v33c0 1.10455-.89543 2-2 2z" fill="#ffc000"/><path d="m111.5 681.5v-12" stroke="#000" stroke-linecap="butt"/><path d="m221.5 681.5v-12" stroke="#000" stroke-linecap="butt"/><path d="m331.5 681.5v-12" stroke="#000" stroke-linecap="butt"/><path d="m441.5 681.5v-12" stroke="#000" stroke-linecap="butt"/><path d="m551.5 681.5v-12" stroke="#000" stroke-linecap="butt"/><path d="m410.40936 62.875v1.40625h-.15626q-1.15624.015625-1.85936.59375-.6875.578125-.82814 1.609375.6719-.6875 1.70314-.6875 1.125 0 1.78126.796875.65624.796875.65624 2.09375 0 .828125-.35938 1.5-.35936.671875-1.03126 1.0625-.65624.375-1.48436.375-1.34374 0-2.17188-.9375-.82812-.953125-.82812-2.515625v-.609375q0-1.390625.51562-2.453125.53124-1.0625 1.5-1.640625.98438-.578125 2.28124-.59375zm-1.65626 4.28125q-.40624 0-.75.21875-.3281.203125-.48436.5625v.515625q0 .84375.32812 1.328125.34374.46875.95314.46875.54686 0 .875-.421875.34374-.4375.34374-1.125 0-.703125-.34374-1.125-.34376-.421875-.9219-.421875zm8.1719 4.34375h-1.6875v-6.53125l-2.01564.625v-1.375l3.53124-1.265625h.1719zm8.73436 0h-5.84376v-1.15625l2.76564-2.953125q.5625-.609375.82812-1.078125.28124-.46875.28124-.875 0-.578125-.29686-.890625-.28124-.328125-.8125-.328125-.57814 0-.90624.390625-.32814.390625-.32814 1.046875h-1.70312q0-.78125.375-1.421875.375-.65625 1.04686-1.015625.6875-.375 1.5469-.375 1.3125 0 2.04686.640625.73438.625.73438 1.78125 0 .640625-.32814 1.296875-.3281.65625-1.125 1.53125l-1.9375 2.046875h3.65626zm1.3125-.828125q0-.40625.26564-.65625.28124-.25.6875-.25.42186 0 .6875.25.28124.25.28124.65625 0 .390625-.28124.640625-.26564.25-.6875.25-.40626 0-.6875-.25-.26564-.25-.26564-.640625zm8.40624-5.4375q0 .625-.3125 1.109375-.3125.46875-.85936.765625.625.296875.98436.828125.375.515625.375 1.21875 0 1.140625-.78124 1.8125-.76562.65625-2.10936.65625-1.32814 0-2.1094-.65625-.7656-.671875-.7656-1.8125 0-.703125.35936-1.234375.35938-.53125.98438-.8125-.54688-.296875-.85938-.765625-.3125-.484375-.3125-1.109375 0-1.09375.71874-1.734375.7344-.65625 1.9844-.65625 1.25 0 1.96874.65625.73436.640625.73436 1.734375zm-1.5156 3.796875q0-.546875-.32814-.875-.3125-.34375-.85936-.34375-.5469 0-.875.328125-.3125.328125-.3125.890625 0 .546875.3125.890625.3281.328125.8906.328125.5469 0 .8594-.3125.3125-.328125.3125-.90625zm-.1719-3.71875q0-.5-.2656-.796875-.26564-.296875-.75-.296875-.46876 0-.7344.296875-.2656.28125-.2656.796875 0 .515625.2656.828125.26564.3125.7344.3125.48436 0 .75-.3125.2656-.3125.2656-.828125zm8.875 2.65625q0 1.765625-.73436 2.71875-.73438.9375-2.14064.9375-1.40624 0-2.1406-.921875-.7344-.921875-.75-2.640625v-1.578125q0-1.78125.73436-2.703125.75-.9375 2.14064-.9375 1.3906 0 2.125.921875.75.921875.7656 2.640625zm-1.7031-1.71875q0-1.0625-.2969-1.546875-.28124-.484375-.8906-.484375-.59376 0-.89064.46875-.28126.453125-.29686 1.4375v2.0625q0 1.046875.28124 1.5625.28126.5.92186.5.6094 0 .89064-.484375.28126-.484375.28126-1.484375z" stroke="#ffc000" stroke-linecap="round" stroke-linejoin="round" stroke-width="3"/><path d="m410.40936 62.875v1.40625h-.15626q-1.15624.015625-1.85936.59375-.6875.578125-.82814 1.609375.6719-.6875 1.70314-.6875 1.125 0 1.78126.796875.65624.796875.65624 2.09375 0 .828125-.35938 1.5-.35936.671875-1.03126 1.0625-.65624.375-1.48436.375-1.34374 0-2.17188-.9375-.82812-.953125-.82812-2.515625v-.609375q0-1.390625.51562-2.453125.53124-1.0625 1.5-1.640625.98438-.578125 2.28124-.59375zm-1.65626 4.28125q-.40624 0-.75.21875-.3281.203125-.48436.5625v.515625q0 .84375.32812 1.328125.34374.46875.95314.46875.54686 0 .875-.421875.34374-.4375.34374-1.125 0-.703125-.34374-1.125-.34376-.421875-.9219-.421875zm8.1719 4.34375h-1.6875v-6.53125l-2.01564.625v-1.375l3.53124-1.265625h.1719zm8.73436 0h-5.84376v-1.15625l2.76564-2.953125q.5625-.609375.82812-1.078125.28124-.46875.28124-.875 0-.578125-.29686-.890625-.28124-.328125-.8125-.328125-.57814 0-.90624.390625-.32814.390625-.32814 1.046875h-1.70312q0-.78125.375-1.421875.375-.65625 1.04686-1.015625.6875-.375 1.5469-.375 1.3125 0 2.04686.640625.73438.625.73438 1.78125 0 .640625-.32814 1.296875-.3281.65625-1.125 1.53125l-1.9375 2.046875h3.65626zm1.3125-.828125q0-.40625.26564-.65625.28124-.25.6875-.25.42186 0 .6875.25.28124.25.28124.65625 0 .390625-.28124.640625-.26564.25-.6875.25-.40626 0-.6875-.25-.26564-.25-.26564-.640625zm8.40624-5.4375q0 .625-.3125 1.109375-.3125.46875-.85936.765625.625.296875.98436.828125.375.515625.375 1.21875 0 1.140625-.78124 1.8125-.76562.65625-2.10936.65625-1.32814 0-2.1094-.65625-.7656-.671875-.7656-1.8125 0-.703125.35936-1.234375.35938-.53125.98438-.8125-.54688-.296875-.85938-.765625-.3125-.484375-.3125-1.109375 0-1.09375.71874-1.734375.7344-.65625 1.9844-.65625 1.25 0 1.96874.65625.73436.640625.73436 1.734375zm-1.5156 3.796875q0-.546875-.32814-.875-.3125-.34375-.85936-.34375-.5469 0-.875.328125-.3125.328125-.3125.890625 0 .546875.3125.890625.3281.328125.8906.328125.5469 0 .8594-.3125.3125-.328125.3125-.90625zm-.1719-3.71875q0-.5-.2656-.796875-.26564-.296875-.75-.296875-.46876 0-.7344.296875-.2656.28125-.2656.796875 0 .515625.2656.828125.26564.3125.7344.3125.48436 0 .75-.3125.2656-.3125.2656-.828125zm8.875 2.65625q0 1.765625-.73436 2.71875-.73438.9375-2.14064.9375-1.40624 0-2.1406-.921875-.7344-.921875-.75-2.640625v-1.578125q0-1.78125.73436-2.703125.75-.9375 2.14064-.9375 1.3906 0 2.125.921875.75.921875.7656 2.640625zm-1.7031-1.71875q0-1.0625-.2969-1.546875-.28124-.484375-.8906-.484375-.59376 0-.89064.46875-.28126.453125-.29686 1.4375v2.0625q0 1.046875.28124 1.5625.28126.5.92186.5.6094 0 .89064-.484375.28126-.484375.28126-1.484375z" fill="#000"/><path d="m121.977 120.921875-3.29688 7.578125h-1.78125l3.29688-7.15625h-4.23438v-1.375h6.01563zm2.92187 2.5625h.90625q.64063 0 .95313-.3125.3125-.328125.3125-.859375 0-.515625-.3125-.796875-.29688-.296875-.84375-.296875-.48438 0-.8125.265625-.32813.265625-.32813.6875h-1.6875q0-.65625.35938-1.1875.35937-.53125 1-.828125.65625-.3125 1.4375-.3125 1.34375 0 2.10937.65625.78124.640625.78124 1.78125 0 .59375-.35937 1.09375-.35938.484375-.93749.734375.71874.265625 1.06249.78125.35937.515625.35937 1.21875 0 1.140625-.82812 1.828125-.82812.6875-2.18749.6875-1.28125 0-2.09375-.671875-.8125-.6875-.8125-1.796875h1.6875q0 .484375.35937.796875.375.296875.89063.296875.60937 0 .95312-.3125.34375-.328125.34375-.859375 0-1.265625-1.40625-1.265625h-.90625zm5.43749 4.1875q0-.40625.26563-.65625.28125-.25.6875-.25.42187 0 .6875.25.28125.25.28125.65625 0 .390625-.28125.640625-.26563.25-.6875.25-.40625 0-.6875-.25-.26563-.25-.26563-.640625zm6.95313.828125h-1.6875v-6.53125l-2.01563.625v-1.375l3.53125-1.265625h.17188zm8.64062-3.53125q0 1.765625-.73437 2.71875-.73438.9375-2.14063.9375-1.40625 0-2.14062-.921875-.73438-.921875-.75-2.640625v-1.578125q0-1.78125.73437-2.703125.75-.9375 2.14063-.9375 1.39062 0 2.125.921875.75.921875.76562 2.640625zm-1.70312-1.71875q0-1.0625-.29688-1.546875-.28125-.484375-.89062-.484375-.59375 0-.89063.46875-.28125.453125-.29687 1.4375v2.0625q0 1.046875.28125 1.5625.28125.5.92187.5.60938 0 .89063-.484375.28125-.484375.28125-1.484375z" stroke="#ffc000" stroke-linecap="round" stroke-linejoin="round" stroke-width="3"/><path d="m121.977 120.921875-3.29688 7.578125h-1.78125l3.29688-7.15625h-4.23438v-1.375h6.01563zm2.92187 2.5625h.90625q.64063 0 .95313-.3125.3125-.328125.3125-.859375 0-.515625-.3125-.796875-.29688-.296875-.84375-.296875-.48438 0-.8125.265625-.32813.265625-.32813.6875h-1.6875q0-.65625.35938-1.1875.35937-.53125 1-.828125.65625-.3125 1.4375-.3125 1.34375 0 2.10937.65625.78124.640625.78124 1.78125 0 .59375-.35937 1.09375-.35938.484375-.93749.734375.71874.265625 1.06249.78125.35937.515625.35937 1.21875 0 1.140625-.82812 1.828125-.82812.6875-2.18749.6875-1.28125 0-2.09375-.671875-.8125-.6875-.8125-1.796875h1.6875q0 .484375.35937.796875.375.296875.89063.296875.60937 0 .95312-.3125.34375-.328125.34375-.859375 0-1.265625-1.40625-1.265625h-.90625zm5.43749 4.1875q0-.40625.26563-.65625.28125-.25.6875-.25.42187 0 .6875.25.28125.25.28125.65625 0 .390625-.28125.640625-.26563.25-.6875.25-.40625 0-.6875-.25-.26563-.25-.26563-.640625zm6.95313.828125h-1.6875v-6.53125l-2.01563.625v-1.375l3.53125-1.265625h.17188zm8.64062-3.53125q0 1.765625-.73437 2.71875-.73438.9375-2.14063.9375-1.40625 0-2.14062-.921875-.73438-.921875-.75-2.640625v-1.578125q0-1.78125.73437-2.703125.75-.9375 2.14063-.9375 1.39062 0 2.125.921875.75.921875.76562 2.640625zm-1.70312-1.71875q0-1.0625-.29688-1.546875-.28125-.484375-.89062-.484375-.59375 0-.89063.46875-.28125.453125-.29687 1.4375v2.0625q0 1.046875.28125 1.5625.28125.5.92187.5.60938 0 .89063-.484375.28125-.484375.28125-1.484375z" fill="#000"/><path d="m119.58623 176.875v1.40625h-.15625q-1.15625.01563-1.85938.59375-.6875.57812-.82812 1.60938.67187-.6875 1.70312-.6875 1.125 0 1.78125.79687.65625.79687.65625 2.09375 0 .82812-.35937 1.5-.35938.67188-1.03125 1.0625-.65625.375-1.48438.375-1.34375 0-2.17187-.9375-.82813-.95312-.82813-2.51562v-.60938q0-1.39062.51563-2.45312.53125-1.0625 1.5-1.64063.98437-.57813 2.28125-.59375zm-1.65625 4.28125q-.40625 0-.75.21875-.32813.20312-.48438.5625v.51562q0 .84376.32813 1.32813.34375.46875.95312.46875.54688 0 .875-.42188.34375-.4375.34375-1.125 0-.70312-.34375-1.125-.34375-.42187-.92187-.42187zm9.625-1.92187q0 .625-.3125 1.10937-.3125.46875-.85938.76563.625.29687.98438.82812.375.51562.375 1.21875 0 1.14063-.78125 1.8125-.76563.65625-2.10938.65625-1.32812 0-2.10937-.65625-.76563-.67187-.76563-1.8125 0-.70313.35938-1.23437.35937-.53126.98437-.8125-.54687-.29688-.85937-.76563-.3125-.48437-.3125-1.10937 0-1.09376.71875-1.73438.73437-.65625 1.98437-.65625 1.25 0 1.96875.65625.73438.64062.73438 1.73438zm-1.51563 3.79687q0-.54687-.32812-.875-.3125-.34375-.85938-.34375-.54687 0-.875.32812-.3125.32813-.3125.89063 0 .54687.3125.89063.32813.32812.89063.32812.54687 0 .85937-.3125.3125-.32812.3125-.90625zm-.17187-3.71875q0-.5-.26563-.79688-.26562-.29687-.75-.29687-.46875 0-.73437.29687-.26563.28126-.26563.79688 0 .51562.26563.82812.26562.3125.73437.3125.48438 0 .75-.3125.26563-.3125.26563-.82812zm3.28125 5.35938q0-.40626.26562-.65626.28125-.25.6875-.25.42188 0 .6875.25.28125.25.28125.65626 0 .39062-.28125.64062-.26562.25-.6875.25-.40625 0-.6875-.25-.26562-.25-.26562-.64062zm8.64062-6.75-3.29687 7.57812h-1.78125l3.29687-7.15625h-4.23437v-1.375h6.01562zm6.76563 1.3125q0 .625-.3125 1.10937-.3125.46875-.85938.76563.625.29687.98438.82812.375.51562.375 1.21875 0 1.14063-.78125 1.8125-.76563.65625-2.10938.65625-1.32812 0-2.10937-.65625-.76563-.67187-.76563-1.8125 0-.70313.35938-1.23437.35937-.53126.98437-.8125-.54687-.29688-.85937-.76563-.3125-.48437-.3125-1.10937 0-1.09376.71875-1.73438.73437-.65625 1.98437-.65625 1.25 0 1.96875.65625.73438.64062.73438 1.73438zm-1.51563 3.79687q0-.54687-.32812-.875-.3125-.34375-.85938-.34375-.54687 0-.875.32812-.3125.32813-.3125.89063 0 .54687.3125.89063.32813.32812.89063.32812.54687 0 .85937-.3125.3125-.32812.3125-.90625zm-.17187-3.71875q0-.5-.26563-.79688-.26562-.29687-.75-.29687-.46875 0-.73437.29687-.26563.28126-.26563.79688 0 .51562.26563.82812.26562.3125.73437.3125.48438 0 .75-.3125.26563-.3125.26563-.82812z" stroke="#ffc000" stroke-linecap="round" stroke-linejoin="round" stroke-width="3"/><path d="m119.58623 176.875v1.40625h-.15625q-1.15625.01563-1.85938.59375-.6875.57812-.82812 1.60938.67187-.6875 1.70312-.6875 1.125 0 1.78125.79687.65625.79687.65625 2.09375 0 .82812-.35937 1.5-.35938.67188-1.03125 1.0625-.65625.375-1.48438.375-1.34375 0-2.17187-.9375-.82813-.95312-.82813-2.51562v-.60938q0-1.39062.51563-2.45312.53125-1.0625 1.5-1.64063.98437-.57813 2.28125-.59375zm-1.65625 4.28125q-.40625 0-.75.21875-.32813.20312-.48438.5625v.51562q0 .84376.32813 1.32813.34375.46875.95312.46875.54688 0 .875-.42188.34375-.4375.34375-1.125 0-.70312-.34375-1.125-.34375-.42187-.92187-.42187zm9.625-1.92187q0 .625-.3125 1.10937-.3125.46875-.85938.76563.625.29687.98438.82812.375.51562.375 1.21875 0 1.14063-.78125 1.8125-.76563.65625-2.10938.65625-1.32812 0-2.10937-.65625-.76563-.67187-.76563-1.8125 0-.70313.35938-1.23437.35937-.53126.98437-.8125-.54687-.29688-.85937-.76563-.3125-.48437-.3125-1.10937 0-1.09376.71875-1.73438.73437-.65625 1.98437-.65625 1.25 0 1.96875.65625.73438.64062.73438 1.73438zm-1.51563 3.79687q0-.54687-.32812-.875-.3125-.34375-.85938-.34375-.54687 0-.875.32812-.3125.32813-.3125.89063 0 .54687.3125.89063.32813.32812.89063.32812.54687 0 .85937-.3125.3125-.32812.3125-.90625zm-.17187-3.71875q0-.5-.26563-.79688-.26562-.29687-.75-.29687-.46875 0-.73437.29687-.26563.28126-.26563.79688 0 .51562.26563.82812.26562.3125.73437.3125.48438 0 .75-.3125.26563-.3125.26563-.82812zm3.28125 5.35938q0-.40626.26562-.65626.28125-.25.6875-.25.42188 0 .6875.25.28125.25.28125.65626 0 .39062-.28125.64062-.26562.25-.6875.25-.40625 0-.6875-.25-.26562-.25-.26562-.64062zm8.64062-6.75-3.29687 7.57812h-1.78125l3.29687-7.15625h-4.23437v-1.375h6.01562zm6.76563 1.3125q0 .625-.3125 1.10937-.3125.46875-.85938.76563.625.29687.98438.82812.375.51562.375 1.21875 0 1.14063-.78125 1.8125-.76563.65625-2.10938.65625-1.32812 0-2.10937-.65625-.76563-.67187-.76563-1.8125 0-.70313.35938-1.23437.35937-.53126.98437-.8125-.54687-.29688-.85937-.76563-.3125-.48437-.3125-1.10937 0-1.09376.71875-1.73438.73437-.65625 1.98437-.65625 1.25 0 1.96875.65625.73438.64062.73438 1.73438zm-1.51563 3.79687q0-.54687-.32812-.875-.3125-.34375-.85938-.34375-.54687 0-.875.32812-.3125.32813-.3125.89063 0 .54687.3125.89063.32813.32812.89063.32812.54687 0 .85937-.3125.3125-.32812.3125-.90625zm-.17187-3.71875q0-.5-.26563-.79688-.26562-.29687-.75-.29687-.46875 0-.73437.29687-.26563.28126-.26563.79688 0 .51562.26563.82812.26562.3125.73437.3125.48438 0 .75-.3125.26563-.3125.26563-.82812z" fill="#000"/><path d="m153.10019 238.29688.5-4.32813h4.78125v1.40625h-3.39063l-.21875 1.84375q.60938-.32813 1.28125-.32813 1.21875 0 1.90625.76563.70313.75.70313 2.10937 0 .82813-.35938 1.48438-.34375.64062-1 1.01562-.64062.35938-1.53125.35938-.76562 0-1.4375-.3125-.65625-.32812-1.04687-.89062-.375-.5625-.40625-1.29688h1.6875q.04687.53125.35937.82812.32813.29688.84375.29688.57813 0 .875-.40625.3125-.42187.3125-1.17187 0-.73438-.35937-1.10938-.34375-.39062-1-.39062-.60938 0-.98438.3125l-.15625.15624zm8.46875-.8125h.90625q.64062 0 .95312-.3125.3125-.32813.3125-.85938 0-.51562-.3125-.79688-.29687-.29687-.84375-.29687-.48437 0-.8125.26563-.32812.26562-.32812.6875h-1.6875q0-.65626.35937-1.1875.35938-.53126 1-.82813.65625-.3125 1.4375-.3125 1.34375 0 2.10938.65625.78125.64062.78125 1.78125 0 .59375-.35938 1.09375-.35937.48438-.9375.73438.71875.26562 1.0625.78124.35938.51563.35938 1.21876 0 1.14062-.82813 1.82812-.82812.6875-2.1875.6875-1.28125 0-2.09375-.67188-.8125-.6875-.8125-1.79687h1.6875q0 .48437.35938.79687.375.29688.89062.29688.60938 0 .95313-.3125.34375-.32812.34375-.85938 0-1.26562-1.40625-1.26562h-.90625zm5.4375 4.1875q0-.40626.26562-.65626.28125-.25.6875-.25.42188 0 .6875.25.28125.25.28125.65626 0 .39062-.28125.64062-.26562.25-.6875.25-.40625 0-.6875-.25-.26562-.25-.26562-.64062zm8.6875.82812h-5.84375v-1.15625l2.76562-2.95313q.5625-.60937.82813-1.07812.28125-.46875.28125-.875 0-.57812-.29688-.89062-.28125-.32813-.8125-.32813-.57812 0-.90625.39063-.32812.39062-.32812 1.04687h-1.70313q0-.78125.375-1.42187.375-.65626 1.04688-1.01563.6875-.375 1.54687-.375 1.3125 0 2.04688.64063.73437.625.73437 1.78124 0 .64063-.32812 1.29688-.32813.65625-1.125 1.53125l-1.9375 2.04687h3.65625zm7 0h-5.84375v-1.15625l2.76562-2.95313q.5625-.60937.82813-1.07812.28125-.46875.28125-.875 0-.57812-.29688-.89062-.28125-.32813-.8125-.32813-.57812 0-.90625.39063-.32812.39062-.32812 1.04687h-1.70313q0-.78125.375-1.42187.375-.65626 1.04688-1.01563.6875-.375 1.54687-.375 1.3125 0 2.04688.64063.73437.625.73437 1.78124 0 .64063-.32812 1.29688-.32813.65625-1.125 1.53125l-1.9375 2.04687h3.65625z" stroke="#fff" stroke-linecap="round" stroke-linejoin="round" stroke-width="3"/><path d="m153.10019 238.29688.5-4.32813h4.78125v1.40625h-3.39063l-.21875 1.84375q.60938-.32813 1.28125-.32813 1.21875 0 1.90625.76563.70313.75.70313 2.10937 0 .82813-.35938 1.48438-.34375.64062-1 1.01562-.64062.35938-1.53125.35938-.76562 0-1.4375-.3125-.65625-.32812-1.04687-.89062-.375-.5625-.40625-1.29688h1.6875q.04687.53125.35937.82812.32813.29688.84375.29688.57813 0 .875-.40625.3125-.42187.3125-1.17187 0-.73438-.35937-1.10938-.34375-.39062-1-.39062-.60938 0-.98438.3125l-.15625.15624zm8.46875-.8125h.90625q.64062 0 .95312-.3125.3125-.32813.3125-.85938 0-.51562-.3125-.79688-.29687-.29687-.84375-.29687-.48437 0-.8125.26563-.32812.26562-.32812.6875h-1.6875q0-.65626.35937-1.1875.35938-.53126 1-.82813.65625-.3125 1.4375-.3125 1.34375 0 2.10938.65625.78125.64062.78125 1.78125 0 .59375-.35938 1.09375-.35937.48438-.9375.73438.71875.26562 1.0625.78124.35938.51563.35938 1.21876 0 1.14062-.82813 1.82812-.82812.6875-2.1875.6875-1.28125 0-2.09375-.67188-.8125-.6875-.8125-1.79687h1.6875q0 .48437.35938.79687.375.29688.89062.29688.60938 0 .95313-.3125.34375-.32812.34375-.85938 0-1.26562-1.40625-1.26562h-.90625zm5.4375 4.1875q0-.40626.26562-.65626.28125-.25.6875-.25.42188 0 .6875.25.28125.25.28125.65626 0 .39062-.28125.64062-.26562.25-.6875.25-.40625 0-.6875-.25-.26562-.25-.26562-.64062zm8.6875.82812h-5.84375v-1.15625l2.76562-2.95313q.5625-.60937.82813-1.07812.28125-.46875.28125-.875 0-.57812-.29688-.89062-.28125-.32813-.8125-.32813-.57812 0-.90625.39063-.32812.39062-.32812 1.04687h-1.70313q0-.78125.375-1.42187.375-.65626 1.04688-1.01563.6875-.375 1.54687-.375 1.3125 0 2.04688.64063.73437.625.73437 1.78124 0 .64063-.32812 1.29688-.32813.65625-1.125 1.53125l-1.9375 2.04687h3.65625zm7 0h-5.84375v-1.15625l2.76562-2.95313q.5625-.60937.82813-1.07812.28125-.46875.28125-.875 0-.57812-.29688-.89062-.28125-.32813-.8125-.32813-.57812 0-.90625.39063-.32812.39062-.32812 1.04687h-1.70313q0-.78125.375-1.42187.375-.65626 1.04688-1.01563.6875-.375 1.54687-.375 1.3125 0 2.04688.64063.73437.625.73437 1.78124 0 .64063-.32812 1.29688-.32813.65625-1.125 1.53125l-1.9375 2.04687h3.65625z" fill="#ffc000"/><path d="m152.1573 295.29688.5-4.32813h4.78125v1.40625h-3.39062l-.21875 1.84375q.60937-.32813 1.28125-.32813 1.21875 0 1.90625.76563.70312.75.70312 2.10937 0 .82813-.35937 1.48438-.34375.64062-1 1.01562-.64063.35938-1.53125.35938-.76563 0-1.4375-.3125-.65625-.32812-1.04688-.89062-.375-.5625-.40625-1.29688h1.6875q.04688.53125.35938.82812.32812.29688.84375.29688.57812 0 .875-.40625.3125-.42187.3125-1.17187 0-.73438-.35938-1.10938-.34375-.39062-1-.39062-.60937 0-.98437.3125l-.15625.15624zm10.85938 4.20312h-1.6875v-6.53125l-2.01563.625v-1.375l3.53125-1.26563h.17188zm3.04687-.82812q0-.40626.26563-.65626.28125-.25.6875-.25.42187 0 .6875.25.28125.25.28125.65626 0 .39062-.28125.64062-.26563.25-.6875.25-.40625 0-.6875-.25-.26563-.25-.26563-.64062zm3.09375-3.375.5-4.32813h4.78125v1.40625h-3.39062l-.21875 1.84375q.60937-.32813 1.28125-.32813 1.21875 0 1.90625.76563.70312.75.70312 2.10937 0 .82813-.35937 1.48438-.34375.64062-1 1.01562-.64063.35938-1.53125.35938-.76563 0-1.4375-.3125-.65625-.32812-1.04688-.89062-.375-.5625-.40625-1.29688h1.6875q.04688.53125.35938.82812.32812.29688.84375.29688.57812 0 .875-.40625.3125-.42187.3125-1.17187 0-.73438-.35938-1.10938-.34375-.39062-1-.39062-.60937 0-.98437.3125l-.15625.15624zm10.85938 4.20312h-1.6875v-6.53125l-2.01563.625v-1.375l3.53125-1.26563h.17188z" stroke="#fff" stroke-linecap="round" stroke-linejoin="round" stroke-width="3"/><path d="m152.1573 295.29688.5-4.32813h4.78125v1.40625h-3.39062l-.21875 1.84375q.60937-.32813 1.28125-.32813 1.21875 0 1.90625.76563.70312.75.70312 2.10937 0 .82813-.35937 1.48438-.34375.64062-1 1.01562-.64063.35938-1.53125.35938-.76563 0-1.4375-.3125-.65625-.32812-1.04688-.89062-.375-.5625-.40625-1.29688h1.6875q.04688.53125.35938.82812.32812.29688.84375.29688.57812 0 .875-.40625.3125-.42187.3125-1.17187 0-.73438-.35938-1.10938-.34375-.39062-1-.39062-.60937 0-.98437.3125l-.15625.15624zm10.85938 4.20312h-1.6875v-6.53125l-2.01563.625v-1.375l3.53125-1.26563h.17188zm3.04687-.82812q0-.40626.26563-.65626.28125-.25.6875-.25.42187 0 .6875.25.28125.25.28125.65626 0 .39062-.28125.64062-.26563.25-.6875.25-.40625 0-.6875-.25-.26563-.25-.26563-.64062zm3.09375-3.375.5-4.32813h4.78125v1.40625h-3.39062l-.21875 1.84375q.60937-.32813 1.28125-.32813 1.21875 0 1.90625.76563.70312.75.70312 2.10937 0 .82813-.35937 1.48438-.34375.64062-1 1.01562-.64063.35938-1.53125.35938-.76563 0-1.4375-.3125-.65625-.32812-1.04688-.89062-.375-.5625-.40625-1.29688h1.6875q.04688.53125.35938.82812.32812.29688.84375.29688.57812 0 .875-.40625.3125-.42187.3125-1.17187 0-.73438-.35938-1.10938-.34375-.39062-1-.39062-.60937 0-.98437.3125l-.15625.15624zm10.85938 4.20312h-1.6875v-6.53125l-2.01563.625v-1.375l3.53125-1.26563h.17188z" fill="#ffc000"/><path d="m155.10739 353.28125h.96875v1.375h-.96875v1.84375h-1.70312v-1.84375h-3.48438l-.07812-1.0625 3.54687-5.625h1.71875zm-3.57812 0h1.875v-3l-.10938.1875zm11.125-3.04687q0 .625-.3125 1.10937-.3125.46875-.85938.76563.625.29687.98438.82812.375.51562.375 1.21875 0 1.14063-.78125 1.8125-.76563.65625-2.10938.65625-1.32812 0-2.10937-.65625-.76563-.67187-.76563-1.8125 0-.70313.35938-1.23437.35937-.53126.98437-.8125-.54687-.29688-.85937-.76563-.3125-.48437-.3125-1.10937 0-1.09376.71875-1.73438.73437-.65625 1.98437-.65625 1.25 0 1.96875.65625.73438.64062.73438 1.73438zm-1.51563 3.79687q0-.54687-.32812-.875-.3125-.34375-.85938-.34375-.54687 0-.875.32812-.3125.32813-.3125.89063 0 .54687.3125.89063.32813.32812.89063.32812.54687 0 .85937-.3125.3125-.32812.3125-.90625zm-.17187-3.71875q0-.5-.26563-.79688-.26562-.29687-.75-.29687-.46875 0-.73437.29687-.26563.28126-.26563.79688 0 .51562.26563.82812.26562.3125.73437.3125.48438 0 .75-.3125.26563-.3125.26563-.82812zm3.28125 5.35938q0-.40626.26562-.65626.28125-.25.6875-.25.42188 0 .6875.25.28125.25.28125.65626 0 .39062-.28125.64062-.26562.25-.6875.25-.40625 0-.6875-.25-.26562-.25-.26562-.64062zm8.6875.82812h-5.84375v-1.15625l2.76562-2.95313q.5625-.60937.82813-1.07812.28125-.46875.28125-.875 0-.57812-.29688-.89062-.28125-.32813-.8125-.32813-.57812 0-.90625.39063-.32812.39062-.32812 1.04687h-1.70313q0-.78125.375-1.42187.375-.65626 1.04688-1.01563.6875-.375 1.54687-.375 1.3125 0 2.04688.64063.73437.625.73437 1.78124 0 .64063-.32812 1.29688-.32813.65625-1.125 1.53125l-1.9375 2.04687h3.65625zm5.26562 0h-1.6875v-6.53125l-2.01562.625v-1.375l3.53125-1.26563h.17187z" stroke="#fff" stroke-linecap="round" stroke-linejoin="round" stroke-width="3"/><path d="m155.10739 353.28125h.96875v1.375h-.96875v1.84375h-1.70312v-1.84375h-3.48438l-.07812-1.0625 3.54687-5.625h1.71875zm-3.57812 0h1.875v-3l-.10938.1875zm11.125-3.04687q0 .625-.3125 1.10937-.3125.46875-.85938.76563.625.29687.98438.82812.375.51562.375 1.21875 0 1.14063-.78125 1.8125-.76563.65625-2.10938.65625-1.32812 0-2.10937-.65625-.76563-.67187-.76563-1.8125 0-.70313.35938-1.23437.35937-.53126.98437-.8125-.54687-.29688-.85937-.76563-.3125-.48437-.3125-1.10937 0-1.09376.71875-1.73438.73437-.65625 1.98437-.65625 1.25 0 1.96875.65625.73438.64062.73438 1.73438zm-1.51563 3.79687q0-.54687-.32812-.875-.3125-.34375-.85938-.34375-.54687 0-.875.32812-.3125.32813-.3125.89063 0 .54687.3125.89063.32813.32812.89063.32812.54687 0 .85937-.3125.3125-.32812.3125-.90625zm-.17187-3.71875q0-.5-.26563-.79688-.26562-.29687-.75-.29687-.46875 0-.73437.29687-.26563.28126-.26563.79688 0 .51562.26563.82812.26562.3125.73437.3125.48438 0 .75-.3125.26563-.3125.26563-.82812zm3.28125 5.35938q0-.40626.26562-.65626.28125-.25.6875-.25.42188 0 .6875.25.28125.25.28125.65626 0 .39062-.28125.64062-.26562.25-.6875.25-.40625 0-.6875-.25-.26562-.25-.26562-.64062zm8.6875.82812h-5.84375v-1.15625l2.76562-2.95313q.5625-.60937.82813-1.07812.28125-.46875.28125-.875 0-.57812-.29688-.89062-.28125-.32813-.8125-.32813-.57812 0-.90625.39063-.32812.39062-.32812 1.04687h-1.70313q0-.78125.375-1.42187.375-.65626 1.04688-1.01563.6875-.375 1.54687-.375 1.3125 0 2.04688.64063.73437.625.73437 1.78124 0 .64063-.32812 1.29688-.32813.65625-1.125 1.53125l-1.9375 2.04687h3.65625zm5.26562 0h-1.6875v-6.53125l-2.01562.625v-1.375l3.53125-1.26563h.17187z" fill="#ffc000"/><path d="m152.75078 410.28125h.96875v1.375h-.96875v1.84375h-1.70313v-1.84375h-3.48437l-.07813-1.0625 3.54688-5.625h1.71875zm-3.57813 0h1.875v-3l-.10937.1875zm7.28125-1.79687h.90625q.64063 0 .95313-.3125.3125-.32813.3125-.85938 0-.51562-.3125-.79688-.29688-.29687-.84375-.29687-.48438 0-.8125.26563-.32813.26562-.32813.6875h-1.6875q0-.65626.35938-1.1875.35937-.53126 1-.82813.65625-.3125 1.4375-.3125 1.34375 0 2.10937.65625.78125.64062.78125 1.78125 0 .59375-.35937 1.09375-.35938.48438-.9375.73438.71875.26562 1.0625.78124.35937.51563.35937 1.21876 0 1.14062-.82812 1.82812-.82813.6875-2.1875.6875-1.28125 0-2.09375-.67188-.8125-.6875-.8125-1.79687h1.6875q0 .48437.35937.79687.375.29688.89063.29688.60937 0 .95312-.3125.34375-.32812.34375-.85938 0-1.26562-1.40625-1.26562h-.90625zm5.4375 4.1875q0-.40626.26563-.65626.28125-.25.6875-.25.42187 0 .6875.25.28125.25.28125.65626 0 .39062-.28125.64062-.26563.25-.6875.25-.40625 0-.6875-.25-.26563-.25-.26563-.64062zm6.8125-2.57813q-.67187.64063-1.54687.64063-1.14063 0-1.82813-.76563-.67187-.78125-.67187-2.09375 0-.84375.35937-1.54688.375-.70312 1.03125-1.09374.65625-.39063 1.48438-.39063.84375 0 1.5.42187.65625.42188 1.01562 1.21876.35938.79687.375 1.8125v.625q0 2.14062-1.0625 3.35937-1.0625 1.21875-3.01562 1.29687h-.40625v-1.40624l.375-.01563q2.20312-.09375 2.39062-2.0625zm-1.14062-.65625q.42187 0 .70312-.20312.29688-.21876.45313-.51563v-.6875q0-.85937-.32813-1.32813-.32812-.48437-.875-.48437-.51562 0-.84375.46875-.32812.45312-.32812 1.15625 0 .70313.3125 1.15625.32812.4375.90625.4375zm10.01562 4.0625h-5.84375v-1.15625l2.76563-2.95313q.5625-.60937.82812-1.07812.28125-.46875.28125-.875 0-.57812-.29687-.89062-.28125-.32813-.8125-.32813-.57813 0-.90625.39063-.32813.39062-.32813 1.04687h-1.70312q0-.78125.375-1.42187.375-.65626 1.04687-1.01563.6875-.375 1.54688-.375 1.3125 0 2.04687.64063.73438.625.73438 1.78124 0 .64063-.32813 1.29688-.32812.65625-1.125 1.53125l-1.9375 2.04687h3.65625z" stroke="#fff" stroke-linecap="round" stroke-linejoin="round" stroke-width="3"/><path d="m152.75078 410.28125h.96875v1.375h-.96875v1.84375h-1.70313v-1.84375h-3.48437l-.07813-1.0625 3.54688-5.625h1.71875zm-3.57813 0h1.875v-3l-.10937.1875zm7.28125-1.79687h.90625q.64063 0 .95313-.3125.3125-.32813.3125-.85938 0-.51562-.3125-.79688-.29688-.29687-.84375-.29687-.48438 0-.8125.26563-.32813.26562-.32813.6875h-1.6875q0-.65626.35938-1.1875.35937-.53126 1-.82813.65625-.3125 1.4375-.3125 1.34375 0 2.10937.65625.78125.64062.78125 1.78125 0 .59375-.35937 1.09375-.35938.48438-.9375.73438.71875.26562 1.0625.78124.35937.51563.35937 1.21876 0 1.14062-.82812 1.82812-.82813.6875-2.1875.6875-1.28125 0-2.09375-.67188-.8125-.6875-.8125-1.79687h1.6875q0 .48437.35937.79687.375.29688.89063.29688.60937 0 .95312-.3125.34375-.32812.34375-.85938 0-1.26562-1.40625-1.26562h-.90625zm5.4375 4.1875q0-.40626.26563-.65626.28125-.25.6875-.25.42187 0 .6875.25.28125.25.28125.65626 0 .39062-.28125.64062-.26563.25-.6875.25-.40625 0-.6875-.25-.26563-.25-.26563-.64062zm6.8125-2.57813q-.67187.64063-1.54687.64063-1.14063 0-1.82813-.76563-.67187-.78125-.67187-2.09375 0-.84375.35937-1.54688.375-.70312 1.03125-1.09374.65625-.39063 1.48438-.39063.84375 0 1.5.42187.65625.42188 1.01562 1.21876.35938.79687.375 1.8125v.625q0 2.14062-1.0625 3.35937-1.0625 1.21875-3.01562 1.29687h-.40625v-1.40624l.375-.01563q2.20312-.09375 2.39062-2.0625zm-1.14062-.65625q.42187 0 .70312-.20312.29688-.21876.45313-.51563v-.6875q0-.85937-.32813-1.32813-.32812-.48437-.875-.48437-.51562 0-.84375.46875-.32812.45312-.32812 1.15625 0 .70313.3125 1.15625.32812.4375.90625.4375zm10.01562 4.0625h-5.84375v-1.15625l2.76563-2.95313q.5625-.60937.82812-1.07812.28125-.46875.28125-.875 0-.57812-.29687-.89062-.28125-.32813-.8125-.32813-.57813 0-.90625.39063-.32813.39062-.32813 1.04687h-1.70312q0-.78125.375-1.42187.375-.65626 1.04687-1.01563.6875-.375 1.54688-.375 1.3125 0 2.04687.64063.73438.625.73438 1.78124 0 .64063-.32813 1.29688-.32812.65625-1.125 1.53125l-1.9375 2.04687h3.65625z" fill="#ffc000"/><path d="m151.95384 467.28125h.96875v1.375h-.96875v1.84375h-1.70312v-1.84375h-3.48438l-.07812-1.0625 3.54687-5.625h1.71875zm-3.57812 0h1.875v-3l-.10938.1875zm11.40625 3.21875h-5.84375v-1.15625l2.76562-2.95313q.5625-.60937.82813-1.07812.28125-.46875.28125-.875 0-.57812-.29688-.89062-.28125-.32813-.8125-.32813-.57812 0-.90625.39063-.32812.39062-.32812 1.04687h-1.70313q0-.78125.375-1.42187.375-.65626 1.04688-1.01563.6875-.375 1.54687-.375 1.3125 0 2.04688.64063.73437.625.73437 1.78124 0 .64063-.32812 1.29688-.32813.65625-1.125 1.53125l-1.9375 2.04687h3.65625zm1.3125-.82812q0-.40626.26562-.65626.28125-.25.6875-.25.42188 0 .6875.25.28125.25.28125.65626 0 .39062-.28125.64062-.26562.25-.6875.25-.40625 0-.6875-.25-.26562-.25-.26562-.64062zm7.85937-2.39063h.96875v1.375h-.96875v1.84375h-1.70312v-1.84375h-3.48438l-.07812-1.0625 3.54687-5.625h1.71875zm-3.57812 0h1.875v-3l-.10938.1875zm11.35937-4.35937-3.29687 7.57812h-1.78125l3.29687-7.15625h-4.23437v-1.375h6.01562z" stroke="#fff" stroke-linecap="round" stroke-linejoin="round" stroke-width="3"/><path d="m151.95384 467.28125h.96875v1.375h-.96875v1.84375h-1.70312v-1.84375h-3.48438l-.07812-1.0625 3.54687-5.625h1.71875zm-3.57812 0h1.875v-3l-.10938.1875zm11.40625 3.21875h-5.84375v-1.15625l2.76562-2.95313q.5625-.60937.82813-1.07812.28125-.46875.28125-.875 0-.57812-.29688-.89062-.28125-.32813-.8125-.32813-.57812 0-.90625.39063-.32812.39062-.32812 1.04687h-1.70313q0-.78125.375-1.42187.375-.65626 1.04688-1.01563.6875-.375 1.54687-.375 1.3125 0 2.04688.64063.73437.625.73437 1.78124 0 .64063-.32812 1.29688-.32813.65625-1.125 1.53125l-1.9375 2.04687h3.65625zm1.3125-.82812q0-.40626.26562-.65626.28125-.25.6875-.25.42188 0 .6875.25.28125.25.28125.65626 0 .39062-.28125.64062-.26562.25-.6875.25-.40625 0-.6875-.25-.26562-.25-.26562-.64062zm7.85937-2.39063h.96875v1.375h-.96875v1.84375h-1.70312v-1.84375h-3.48438l-.07812-1.0625 3.54687-5.625h1.71875zm-3.57812 0h1.875v-3l-.10938.1875zm11.35937-4.35937-3.29687 7.57812h-1.78125l3.29687-7.15625h-4.23437v-1.375h6.01562z" fill="#ffc000"/><path d="m146.78825 522.4844h.90625q.64063 0 .95313-.3125.3125-.32815.3125-.8594 0-.5156-.3125-.7969-.29688-.29685-.84375-.29685-.48438 0-.8125.26565-.32813.2656-.32813.6875h-1.6875q0-.6563.35938-1.1875.35937-.5313 1-.82815.65625-.3125 1.4375-.3125 1.34375 0 2.10937.65625.78125.6406.78125 1.78125 0 .59375-.35937 1.09375-.35938.4844-.9375.7344.71875.2656 1.0625.7812.35937.51565.35937 1.2188 0 1.1406-.82812 1.8281-.82813.6875-2.1875.6875-1.28125 0-2.09375-.6719-.8125-.6875-.8125-1.79685h1.6875q0 .48435.35937.79685.375.2969.89063.2969.60937 0 .95312-.3125.34375-.3281.34375-.8594 0-1.2656-1.40625-1.2656h-.90625zm9.25 1.60935q-.67187.64065-1.54687.64065-1.14063 0-1.82813-.76565-.67187-.78125-.67187-2.09375 0-.84375.35937-1.5469.375-.7031 1.03125-1.0937.65625-.39065 1.48438-.39065.84375 0 1.5.42185.65625.4219 1.01562 1.2188.35938.79685.375 1.8125v.625q0 2.1406-1.0625 3.35935-1.0625 1.21875-3.01562 1.29685h-.40625v-1.4062l.375-.01565q2.20312-.09375 2.39062-2.0625zm-1.14062-.65625q.42187 0 .70312-.2031.29688-.2188.45313-.51565v-.6875q0-.85935-.32813-1.32815-.32812-.48435-.875-.48435-.51562 0-.84375.46875-.32812.4531-.32812 1.15625 0 .70315.3125 1.15625.32812.4375.90625.4375zm4.32812 3.2344q0-.4063.26563-.6563.28125-.25.6875-.25.42187 0 .6875.25.28125.25.28125.6563 0 .3906-.28125.6406-.26563.25-.6875.25-.40625 0-.6875-.25-.26563-.25-.26563-.6406zm8.59375-2.70315q0 1.76565-.73437 2.71875-.73438.9375-2.14063.9375-1.40625 0-2.14062-.9219-.73438-.92185-.75-2.6406v-1.5781q0-1.7813.73437-2.70315.75-.9375 2.14063-.9375 1.39062 0 2.125.92185.75.9219.76562 2.64065zm-1.70312-1.71875q0-1.0625-.29688-1.5469-.28125-.48435-.89062-.48435-.59375 0-.89063.46875-.28125.4531-.29687 1.4375v2.0625q0 1.0469.28125 1.5625.28125.5.92187.5.60938 0 .89063-.4844.28125-.48435.28125-1.48435zm8.51562-1.0156q0 .625-.3125 1.10935-.3125.46875-.85937.76565.625.29685.98437.8281.375.5156.375 1.21875 0 1.14065-.78125 1.8125-.76562.65625-2.10937.65625-1.32813 0-2.10938-.65625-.76562-.67185-.76562-1.8125 0-.70315.35937-1.23435.35938-.5313.98438-.8125-.54688-.2969-.85938-.76565-.3125-.48435-.3125-1.10935 0-1.0938.71875-1.7344.73438-.65625 1.98438-.65625 1.25 0 1.96875.65625.73437.6406.73437 1.7344zm-1.51562 3.79685q0-.54685-.32813-.875-.3125-.34375-.85937-.34375-.54688 0-.875.3281-.3125.32815-.3125.89065 0 .54685.3125.89065.32812.3281.89062.3281.54688 0 .85938-.3125.3125-.3281.3125-.90625zm-.17188-3.71875q0-.5-.26562-.7969-.26563-.29685-.75-.29685-.46875 0-.73438.29685-.26562.2813-.26562.7969 0 .5156.26562.8281.26563.3125.73438.3125.48437 0 .75-.3125.26562-.3125.26562-.8281z" stroke="#fff" stroke-linecap="round" stroke-linejoin="round" stroke-width="3"/><path d="m146.78825 522.4844h.90625q.64063 0 .95313-.3125.3125-.32815.3125-.8594 0-.5156-.3125-.7969-.29688-.29685-.84375-.29685-.48438 0-.8125.26565-.32813.2656-.32813.6875h-1.6875q0-.6563.35938-1.1875.35937-.5313 1-.82815.65625-.3125 1.4375-.3125 1.34375 0 2.10937.65625.78125.6406.78125 1.78125 0 .59375-.35937 1.09375-.35938.4844-.9375.7344.71875.2656 1.0625.7812.35937.51565.35937 1.2188 0 1.1406-.82812 1.8281-.82813.6875-2.1875.6875-1.28125 0-2.09375-.6719-.8125-.6875-.8125-1.79685h1.6875q0 .48435.35937.79685.375.2969.89063.2969.60937 0 .95312-.3125.34375-.3281.34375-.8594 0-1.2656-1.40625-1.2656h-.90625zm9.25 1.60935q-.67187.64065-1.54687.64065-1.14063 0-1.82813-.76565-.67187-.78125-.67187-2.09375 0-.84375.35937-1.5469.375-.7031 1.03125-1.0937.65625-.39065 1.48438-.39065.84375 0 1.5.42185.65625.4219 1.01562 1.2188.35938.79685.375 1.8125v.625q0 2.1406-1.0625 3.35935-1.0625 1.21875-3.01562 1.29685h-.40625v-1.4062l.375-.01565q2.20312-.09375 2.39062-2.0625zm-1.14062-.65625q.42187 0 .70312-.2031.29688-.2188.45313-.51565v-.6875q0-.85935-.32813-1.32815-.32812-.48435-.875-.48435-.51562 0-.84375.46875-.32812.4531-.32812 1.15625 0 .70315.3125 1.15625.32812.4375.90625.4375zm4.32812 3.2344q0-.4063.26563-.6563.28125-.25.6875-.25.42187 0 .6875.25.28125.25.28125.6563 0 .3906-.28125.6406-.26563.25-.6875.25-.40625 0-.6875-.25-.26563-.25-.26563-.6406zm8.59375-2.70315q0 1.76565-.73437 2.71875-.73438.9375-2.14063.9375-1.40625 0-2.14062-.9219-.73438-.92185-.75-2.6406v-1.5781q0-1.7813.73437-2.70315.75-.9375 2.14063-.9375 1.39062 0 2.125.92185.75.9219.76562 2.64065zm-1.70312-1.71875q0-1.0625-.29688-1.5469-.28125-.48435-.89062-.48435-.59375 0-.89063.46875-.28125.4531-.29687 1.4375v2.0625q0 1.0469.28125 1.5625.28125.5.92187.5.60938 0 .89063-.4844.28125-.48435.28125-1.48435zm8.51562-1.0156q0 .625-.3125 1.10935-.3125.46875-.85937.76565.625.29685.98437.8281.375.5156.375 1.21875 0 1.14065-.78125 1.8125-.76562.65625-2.10937.65625-1.32813 0-2.10938-.65625-.76562-.67185-.76562-1.8125 0-.70315.35937-1.23435.35938-.5313.98438-.8125-.54688-.2969-.85938-.76565-.3125-.48435-.3125-1.10935 0-1.0938.71875-1.7344.73438-.65625 1.98438-.65625 1.25 0 1.96875.65625.73437.6406.73437 1.7344zm-1.51562 3.79685q0-.54685-.32813-.875-.3125-.34375-.85937-.34375-.54688 0-.875.3281-.3125.32815-.3125.89065 0 .54685.3125.89065.32812.3281.89062.3281.54688 0 .85938-.3125.3125-.3281.3125-.90625zm-.17188-3.71875q0-.5-.26562-.7969-.26563-.29685-.75-.29685-.46875 0-.73438.29685-.26562.2813-.26562.7969 0 .5156.26562.8281.26563.3125.73438.3125.48437 0 .75-.3125.26562-.3125.26562-.8281z" fill="#ffc000"/><path d="m141.37198 584.5h-5.84375v-1.15625l2.76562-2.95315q.5625-.60935.82813-1.0781.28125-.46875.28125-.875 0-.5781-.29688-.8906-.28125-.32815-.8125-.32815-.57812 0-.90625.39065-.32812.3906-.32812 1.04685h-1.70313q0-.78125.375-1.42185.375-.6563 1.04688-1.01565.6875-.375 1.54687-.375 1.3125 0 2.04688.64065.73437.625.73437 1.7812 0 .64065-.32812 1.2969-.32813.65625-1.125 1.53125l-1.9375 2.04685h3.65625zm5.26562 0h-1.6875v-6.53125l-2.01562.625v-1.375l3.53125-1.26565h.17187zm3.04688-.8281q0-.4063.26562-.6563.28125-.25.6875-.25.42188 0 .6875.25.28125.25.28125.6563 0 .3906-.28125.6406-.26562.25-.6875.25-.40625 0-.6875-.25-.26562-.25-.26562-.6406zm8.64062-6.75-3.29687 7.5781h-1.78125l3.29687-7.15625h-4.23437v-1.375h6.01562zm2.92188 2.5625h.90625q.64062 0 .95312-.3125.3125-.32815.3125-.8594 0-.5156-.3125-.7969-.29687-.29685-.84375-.29685-.48437 0-.8125.26565-.32812.2656-.32812.6875h-1.6875q0-.6563.35937-1.1875.35938-.5313 1-.82815.65625-.3125 1.4375-.3125 1.34375 0 2.10938.65625.78125.6406.78125 1.78125 0 .59375-.35938 1.09375-.35937.4844-.9375.7344.71875.2656 1.0625.7812.35938.51565.35938 1.2188 0 1.1406-.82813 1.8281-.82812.6875-2.1875.6875-1.28125 0-2.09375-.6719-.8125-.6875-.8125-1.79685h1.6875q0 .48435.35938.79685.375.2969.89062.2969.60938 0 .95313-.3125.34375-.3281.34375-.8594 0-1.2656-1.40625-1.2656h-.90625z" stroke="#fff" stroke-linecap="round" stroke-linejoin="round" stroke-width="3"/><path d="m141.37198 584.5h-5.84375v-1.15625l2.76562-2.95315q.5625-.60935.82813-1.0781.28125-.46875.28125-.875 0-.5781-.29688-.8906-.28125-.32815-.8125-.32815-.57812 0-.90625.39065-.32812.3906-.32812 1.04685h-1.70313q0-.78125.375-1.42185.375-.6563 1.04688-1.01565.6875-.375 1.54687-.375 1.3125 0 2.04688.64065.73437.625.73437 1.7812 0 .64065-.32812 1.2969-.32813.65625-1.125 1.53125l-1.9375 2.04685h3.65625zm5.26562 0h-1.6875v-6.53125l-2.01562.625v-1.375l3.53125-1.26565h.17187zm3.04688-.8281q0-.4063.26562-.6563.28125-.25.6875-.25.42188 0 .6875.25.28125.25.28125.6563 0 .3906-.28125.6406-.26562.25-.6875.25-.40625 0-.6875-.25-.26562-.25-.26562-.6406zm8.64062-6.75-3.29687 7.5781h-1.78125l3.29687-7.15625h-4.23437v-1.375h6.01562zm2.92188 2.5625h.90625q.64062 0 .95312-.3125.3125-.32815.3125-.8594 0-.5156-.3125-.7969-.29687-.29685-.84375-.29685-.48437 0-.8125.26565-.32812.2656-.32812.6875h-1.6875q0-.6563.35937-1.1875.35938-.5313 1-.82815.65625-.3125 1.4375-.3125 1.34375 0 2.10938.65625.78125.6406.78125 1.78125 0 .59375-.35938 1.09375-.35937.4844-.9375.7344.71875.2656 1.0625.7812.35938.51565.35938 1.2188 0 1.1406-.82813 1.8281-.82812.6875-2.1875.6875-1.28125 0-2.09375-.6719-.8125-.6875-.8125-1.79685h1.6875q0 .48435.35938.79685.375.2969.89062.2969.60938 0 .95313-.3125.34375-.3281.34375-.8594 0-1.2656-1.40625-1.2656h-.90625z" fill="#ffc000"/><path d="m171.552 641.5h-1.6875v-6.53125l-2.01562.625v-1.375l3.53125-1.26565h.17187zm8.6875-7.5781-3.29687 7.5781h-1.78125l3.29687-7.15625h-4.23437v-1.375h6.01562zm5.17188 4.17185q-.67188.64065-1.54688.64065-1.14062 0-1.82812-.76565-.67188-.78125-.67188-2.09375 0-.84375.35938-1.5469.375-.7031 1.03125-1.0937.65625-.39065 1.48437-.39065.84375 0 1.5.42185.65625.4219 1.01563 1.2188.35937.79685.375 1.8125v.625q0 2.1406-1.0625 3.35935-1.0625 1.21875-3.01563 1.29685h-.40625v-1.4062l.375-.01565q2.20313-.09375 2.39063-2.0625zm-1.14063-.65625q.42188 0 .70313-.2031.29687-.2188.45312-.51565v-.6875q0-.85935-.32812-1.32815-.32813-.48435-.875-.48435-.51563 0-.84375.46875-.32813.4531-.32813 1.15625 0 .70315.3125 1.15625.32813.4375.90625.4375zm4.32813 3.2344q0-.4063.26562-.6563.28125-.25.6875-.25.42188 0 .6875.25.28125.25.28125.6563 0 .3906-.28125.6406-.26562.25-.6875.25-.40625 0-.6875-.25-.26562-.25-.26562-.6406zm4.5625-4.1875h.90625q.64062 0 .95312-.3125.3125-.32815.3125-.8594 0-.5156-.3125-.7969-.29687-.29685-.84375-.29685-.48437 0-.8125.26565-.32812.2656-.32812.6875h-1.6875q0-.6563.35937-1.1875.35938-.5313 1-.82815.65625-.3125 1.4375-.3125 1.34375 0 2.10938.65625.78125.6406.78125 1.78125 0 .59375-.35938 1.09375-.35937.4844-.9375.7344.71875.2656 1.0625.7812.35938.51565.35938 1.2188 0 1.1406-.82813 1.8281-.82812.6875-2.1875.6875-1.28125 0-2.09375-.6719-.8125-.6875-.8125-1.79685h1.6875q0 .48435.35938.79685.375.2969.89062.2969.60938 0 .95313-.3125.34375-.3281.34375-.8594 0-1.2656-1.40625-1.2656h-.90625zm9.25 1.60935q-.67188.64065-1.54688.64065-1.14062 0-1.82812-.76565-.67188-.78125-.67188-2.09375 0-.84375.35938-1.5469.375-.7031 1.03125-1.0937.65625-.39065 1.48437-.39065.84375 0 1.5.42185.65625.4219 1.01563 1.2188.35937.79685.375 1.8125v.625q0 2.1406-1.0625 3.35935-1.0625 1.21875-3.01563 1.29685h-.40625v-1.4062l.375-.01565q2.20313-.09375 2.39063-2.0625zm-1.14063-.65625q.42188 0 .70313-.2031.29687-.2188.45312-.51565v-.6875q0-.85935-.32812-1.32815-.32813-.48435-.875-.48435-.51563 0-.84375.46875-.32813.4531-.32813 1.15625 0 .70315.3125 1.15625.32813.4375.90625.4375z" stroke="#ffc000" stroke-linecap="round" stroke-linejoin="round" stroke-width="3"/><g fill="#000"><path d="m171.552 641.5h-1.6875v-6.53125l-2.01562.625v-1.375l3.53125-1.26565h.17187zm8.6875-7.5781-3.29687 7.5781h-1.78125l3.29687-7.15625h-4.23437v-1.375h6.01562zm5.17188 4.17185q-.67188.64065-1.54688.64065-1.14062 0-1.82812-.76565-.67188-.78125-.67188-2.09375 0-.84375.35938-1.5469.375-.7031 1.03125-1.0937.65625-.39065 1.48437-.39065.84375 0 1.5.42185.65625.4219 1.01563 1.2188.35937.79685.375 1.8125v.625q0 2.1406-1.0625 3.35935-1.0625 1.21875-3.01563 1.29685h-.40625v-1.4062l.375-.01565q2.20313-.09375 2.39063-2.0625zm-1.14063-.65625q.42188 0 .70313-.2031.29687-.2188.45312-.51565v-.6875q0-.85935-.32812-1.32815-.32813-.48435-.875-.48435-.51563 0-.84375.46875-.32813.4531-.32813 1.15625 0 .70315.3125 1.15625.32813.4375.90625.4375zm4.32813 3.2344q0-.4063.26562-.6563.28125-.25.6875-.25.42188 0 .6875.25.28125.25.28125.6563 0 .3906-.28125.6406-.26562.25-.6875.25-.40625 0-.6875-.25-.26562-.25-.26562-.6406zm4.5625-4.1875h.90625q.64062 0 .95312-.3125.3125-.32815.3125-.8594 0-.5156-.3125-.7969-.29687-.29685-.84375-.29685-.48437 0-.8125.26565-.32812.2656-.32812.6875h-1.6875q0-.6563.35937-1.1875.35938-.5313 1-.82815.65625-.3125 1.4375-.3125 1.34375 0 2.10938.65625.78125.6406.78125 1.78125 0 .59375-.35938 1.09375-.35937.4844-.9375.7344.71875.2656 1.0625.7812.35938.51565.35938 1.2188 0 1.1406-.82813 1.8281-.82812.6875-2.1875.6875-1.28125 0-2.09375-.6719-.8125-.6875-.8125-1.79685h1.6875q0 .48435.35938.79685.375.2969.89062.2969.60938 0 .95313-.3125.34375-.3281.34375-.8594 0-1.2656-1.40625-1.2656h-.90625zm9.25 1.60935q-.67188.64065-1.54688.64065-1.14062 0-1.82812-.76565-.67188-.78125-.67188-2.09375 0-.84375.35938-1.5469.375-.7031 1.03125-1.0937.65625-.39065 1.48437-.39065.84375 0 1.5.42185.65625.4219 1.01563 1.2188.35937.79685.375 1.8125v.625q0 2.1406-1.0625 3.35935-1.0625 1.21875-3.01563 1.29685h-.40625v-1.4062l.375-.01565q2.20313-.09375 2.39063-2.0625zm-1.14063-.65625q.42188 0 .70313-.2031.29687-.2188.45312-.51565v-.6875q0-.85935-.32812-1.32815-.32813-.48435-.875-.48435-.51563 0-.84375.46875-.32813.4531-.32813 1.15625 0 .70315.3125 1.15625.32813.4375.90625.4375z"/><path d="m45.515625 70.51225h3.734375v1.40625h-5.484375v-8.531247h1.75zm6.921875 1.40625h-1.703125v-6.34375h1.703125zm-1.796875-7.984372q0-.375.25-.625.265625-.25.703125-.25.421875 0 .671875.25.265625.25.265625.625 0 .390622-.265625.640622-.25.23438-.6875.23438-.421875 0-.6875-.23438-.25-.25-.25-.640622zm5.921875 8.109372q-1.390625 0-2.265625-.85937-.875-.85938-.875-2.28125v-.17188q0-.95312.359375-1.70312.375-.75 1.046875-1.15625.6875-.40625 1.546875-.40625 1.3125 0 2.046875.82812.75.8125.75 2.3125v.6875h-4.03125q.078125.625.484375 1 .421875.375 1.0625.375.96875 0 1.515625-.70312l.84375.92187q-.390625.54688-1.046875.85938-.640625.29687-1.4375.29687zm-.1875-5.21875q-.5 0-.8125.34375-.3125.34375-.40625.96875h2.359375v-.125q-.015625-.5625-.3125-.875-.28125-.3125-.828125-.3125zm5.0625 5.09375h-1.703125v-8.999997h1.703125zm6.921875-3.10937q0 1.51562-.65625 2.375-.640625.85937-1.8125.85937-1.03125 0-1.640625-.79687l-.078125.67187h-1.515625v-8.999997h1.6875v3.234377q.59375-.6875 1.546875-.6875 1.15625 0 1.8125.85937.65625.84375.65625 2.39063zm-1.6875-.125q0-.96875-.3125-1.40625-.296875-.4375-.90625-.4375-.796875 0-1.109375.65625v2.5q.3125.67187 1.125.67187.828125 0 1.078125-.8125.125-.375.125-1.17187zm6.546875-1.51563q-.34375-.04687-.609375-.04687-.96875 0-1.265625.64062v4.15625h-1.6875v-6.34375h1.59375l.046875.76563q.515625-.875 1.40625-.875.28125 0 .53125.07812zm2.21875 4.75h-1.703125v-6.34375h1.703125zm-1.796875-7.984372q0-.375.25-.625.265625-.25.703125-.25.421875 0 .671875.25.265625.25.265625.625 0 .390622-.265625.640622-.25.23438-.6875.23438-.421875 0-.6875-.23438-.25-.25-.25-.640622zm5.03125.078122v1.5625h1.09375v1.25h-1.09375v3.15625q0 .35938.140625.51563.140625.14062.515625.14062.28125 0 .5-.03125v1.28125q-.5.15625-1.03125.15625-1.78125 0-1.8125-1.8125v-3.40625h-.921875v-1.25h.921875v-1.5625zm5.65625 7.90625q-.125-.23437-.171875-.5625-.609375.6875-1.59375.6875-.9375 0-1.546875-.54687-.609375-.54688-.609375-1.35938 0-1.01562.734375-1.54687.75-.54688 2.171875-.54688h.765625v-.35937q0-.4375-.21875-.70313-.21875-.26562-.71875-.26562-.421875 0-.671875.20312-.234375.20313-.234375.5625h-1.6875q0-.54687.328125-1.01562.34375-.46875.96875-.73438.625-.26562 1.390625-.26562 1.171875 0 1.859375.59375.6875.57812.6875 1.64062v2.75q.015625.90625.25 1.375v.09375zm-1.40625-1.17187q.375 0 .6875-.17188.328125-.17187.46875-.45312v-1.09375h-.625q-1.265625 0-1.359375.89062v.09375q0 .3125.21875.53125.21875.20313.609375.20313zm2.34375-6.375h-4.046875v-.968752h4.046875zm2.9375 1.20312.0625.73438q.671875-.84375 1.8125-.84375 1.015625 0 1.5.59375.5.57812.515625 1.76562v4.09375h-1.703125v-4.0625q0-.53125-.234375-.76562-.234375-.25-.78125-.25-.703125 0-1.0625.60937v4.46875h-1.703125v-6.34375zm7.234375 6.34375h-1.703125v-6.34375h1.703125zm-1.796875-7.984372q0-.375.25-.625.265625-.25.703125-.25.421875 0 .671875.25.265625.25.265625.625 0 .390622-.265625.640622-.25.23438-.6875.23438-.421875 0-.6875-.23438-.25-.25-.25-.640622zm4.796875 1.640622v6.6875q0 1.04688-.5625 1.625-.546875.59375-1.59375.59375-.4375 0-.84375-.09375v-1.34375q.3125.04688.53125.04688.78125 0 .78125-.8125v-6.70313zm-1.828125-1.640622q0-.375.25-.625.265625-.25.703125-.25.4375 0 .6875.25.265625.25.265625.625 0 .390622-.265625.640622-.265625.23438-.703125.23438-.421875 0-.6875-.23438-.25-.25-.25-.640622zm6.71875 7.984372q-.125-.23437-.171875-.5625-.609375.6875-1.59375.6875-.9375 0-1.546875-.54687-.609375-.54688-.609375-1.35938 0-1.01562.734375-1.54687.75-.54688 2.171875-.54688h.765625v-.35937q0-.4375-.21875-.70313-.21875-.26562-.71875-.26562-.421875 0-.671875.20312-.234375.20313-.234375.5625h-1.6875q0-.54687.328125-1.01562.34375-.46875.96875-.73438.625-.26562 1.390625-.26562 1.171875 0 1.859375.59375.6875.57812.6875 1.64062v2.75q.015625.90625.25 1.375v.09375zm-1.40625-1.17187q.375 0 .6875-.17188.328125-.17187.46875-.45312v-1.09375h-.625q-1.265625 0-1.359375.89062v.09375q0 .3125.21875.53125.21875.20313.609375.20313z"/><path d="m64.625 128.83481h-1.75v-8.53125h1.75zm1.78125-3.21875q0-1.45313.6875-2.34375.703125-.89063 1.875-.89063 1.046875 0 1.625.70313l.078125-.59375h1.53125v6.125q0 .84375-.390625 1.45312-.375.625-1.0625.9375-.671875.32813-1.59375.32813-.703125 0-1.375-.28125-.65625-.28125-.984375-.71875l.75-1.03125q.625.70312 1.53125.70312.671875 0 1.046875-.35937.375-.35938.375-1.01563v-.34375q-.578125.67188-1.546875.67188-1.140625 0-1.84375-.89063-.703125-.90625-.703125-2.375zm1.6875.125q0 .85937.34375 1.35937.359375.48438.953125.48438.78125 0 1.109375-.57813v-2.67187q-.34375-.57813-1.09375-.57813-.609375 0-.96875.5-.34375.5-.34375 1.48438zm9.234375 3.09375q-.125-.23438-.171875-.5625-.609375.6875-1.59375.6875-.9375 0-1.546875-.54688-.609375-.54687-.609375-1.35937 0-1.01563.734375-1.54688.75-.54687 2.171875-.54687h.765625v-.35938q0-.4375-.21875-.70312-.21875-.26563-.71875-.26563-.421875 0-.671875.20313-.234375.20312-.234375.5625h-1.6875q0-.54688.328125-1.01563.34375-.46875.96875-.73437.625-.26563 1.390625-.26563 1.171875 0 1.859375.59375.6875.57813.6875 1.64063v2.75q.015625.90625.25 1.375v.09375zm-1.40625-1.17188q.375 0 .6875-.17187.328125-.17188.46875-.45313v-1.09375h-.625q-1.265625 0-1.359375.89063v.09375q0 .3125.21875.53125.21875.20312.609375.20312zm7.53125.53125q-.625.76563-1.734375.76563-1.03125 0-1.5625-.59375-.53125-.59375-.546875-1.71875v-4.15625h1.6875v4.09375q0 1 .90625 1 .859375 0 1.1875-.60938v-4.48437h1.703125v6.34375h-1.59375zm4.75-5.70312.0625.73437q.671875-.84375 1.8125-.84375 1.015625 0 1.5.59375.5.57813.515625 1.76563v4.09375h-1.703125v-4.0625q0-.53125-.234375-.76563-.234375-.25-.78125-.25-.703125 0-1.0625.60938v4.46875h-1.703125v-6.34375zm7.234375 6.34375h-1.703125v-6.34375h1.703125zm-1.796875-7.98438q0-.375.25-.625.265625-.25.703125-.25.421875 0 .671875.25.265625.25.265625.625 0 .39063-.265625.64063-.25.23437-.6875.23437-.421875 0-.6875-.23437-.25-.25-.25-.64063zm4.796875 1.64063v6.6875q0 1.04687-.5625 1.625-.546875.59375-1.59375.59375-.4375 0-.84375-.09375v-1.34375q.3125.04687.53125.04687.78125 0 .78125-.8125v-6.70312zm-1.828125-1.64063q0-.375.25-.625.265625-.25.703125-.25.4375 0 .6875.25.265625.25.265625.625 0 .39063-.265625.64063-.265625.23437-.703125.23437-.421875 0-.6875-.23437-.25-.25-.25-.64063zm6.71875 7.98438q-.125-.23438-.171875-.5625-.609375.6875-1.59375.6875-.9375 0-1.546875-.54688-.609375-.54687-.609375-1.35937 0-1.01563.734375-1.54688.75-.54687 2.171875-.54687h.765625v-.35938q0-.4375-.21875-.70312-.21875-.26563-.71875-.26563-.421875 0-.671875.20313-.234375.20312-.234375.5625h-1.6875q0-.54688.328125-1.01563.34375-.46875.96875-.73437.625-.26563 1.390625-.26563 1.171875 0 1.859375.59375.6875.57813.6875 1.64063v2.75q.015625.90625.25 1.375v.09375zm-1.40625-1.17188q.375 0 .6875-.17187.328125-.17188.46875-.45313v-1.09375h-.625q-1.265625 0-1.359375.89063v.09375q0 .3125.21875.53125.21875.20312.609375.20312z"/><path d="m55.703125 185.7511h-1.765625l-3.421875-5.60938v5.60938h-1.75v-8.53125h1.75l3.4375 5.625v-5.625h1.75zm2.78125 0h-1.703125v-6.34375h1.703125zm1.203125-7.45313h-4.046875v-.96875h4.046875zm-.296875 4.23438q0-1.48438.65625-2.35938.671875-.875 1.828125-.875.921875 0 1.53125.6875v-3.23437h1.6875v9h-1.515625l-.09375-.67188q-.625.79688-1.625.79688-1.125 0-1.796875-.875-.671875-.89063-.671875-2.46875zm1.6875.125q0 .89062.3125 1.375.3125.46875.90625.46875.78125 0 1.109375-.67188v-2.5q-.328125-.65625-1.09375-.65625-1.234375 0-1.234375 1.98438zm8.484375 3.21875q-1.390625 0-2.265625-.85938-.875-.85937-.875-2.28125v-.17187q0-.95313.359375-1.70313.375-.75 1.046875-1.15625.6875-.40625 1.546875-.40625 1.3125 0 2.046875.82813.75.8125.75 2.3125v.6875h-4.03125q.078125.625.484375 1 .421875.375 1.0625.375.96875 0 1.515625-.70313l.84375.92188q-.390625.54687-1.046875.85937-.640625.29688-1.4375.29688zm-.1875-5.21875q-.5 0-.8125.34375-.3125.34375-.40625.96875h2.359375v-.125q-.015625-.5625-.3125-.875-.28125-.3125-.828125-.3125zm6.84375.34375q-.34375-.04688-.609375-.04688-.96875 0-1.265625.64063v4.15625h-1.6875v-6.34375h1.59375l.046875.76562q.515625-.875 1.40625-.875.28125 0 .53125.07813zm2.21875 4.75h-1.703125v-9h1.703125zm4.890625 0q-.125-.23438-.171875-.5625-.609375.6875-1.59375.6875-.9375 0-1.546875-.54688-.609375-.54687-.609375-1.35937 0-1.01563.734375-1.54688.75-.54687 2.171875-.54687h.765625v-.35938q0-.4375-.21875-.70312-.21875-.26563-.71875-.26563-.421875 0-.671875.20313-.234375.20312-.234375.5625h-1.6875q0-.54688.328125-1.01563.34375-.46875.96875-.73437.625-.26563 1.390625-.26563 1.171875 0 1.859375.59375.6875.57813.6875 1.64063v2.75q.015625.90625.25 1.375v.09375zm-1.40625-1.17188q.375 0 .6875-.17187.328125-.17188.46875-.45313v-1.09375h-.625q-1.265625 0-1.359375.89063v.09375q0 .3125.21875.53125.21875.20312.609375.20312zm5.28125-5.17187.0625.73437q.671875-.84375 1.8125-.84375 1.015625 0 1.5.59375.5.57813.515625 1.76563v4.09375h-1.703125v-4.0625q0-.53125-.234375-.76563-.234375-.25-.78125-.25-.703125 0-1.0625.60938v4.46875h-1.703125v-6.34375zm5.1875 3.125q0-1.48438.65625-2.35938.671875-.875 1.828125-.875.921875 0 1.53125.6875v-3.23437h1.6875v9h-1.515625l-.09375-.67188q-.625.79688-1.625.79688-1.125 0-1.796875-.875-.671875-.89063-.671875-2.46875zm1.6875.125q0 .89062.3125 1.375.3125.46875.90625.46875.78125 0 1.109375-.67188v-2.5q-.328125-.65625-1.09375-.65625-1.234375 0-1.234375 1.98438zm8.484375 3.21875q-1.390625 0-2.265625-.85938-.875-.85937-.875-2.28125v-.17187q0-.95313.359375-1.70313.375-.75 1.046875-1.15625.6875-.40625 1.546875-.40625 1.3125 0 2.046875.82813.75.8125.75 2.3125v.6875h-4.03125q.078125.625.484375 1 .421875.375 1.0625.375.96875 0 1.515625-.70313l.84375.92188q-.390625.54687-1.046875.85937-.640625.29688-1.4375.29688zm-.1875-5.21875q-.5 0-.8125.34375-.3125.34375-.40625.96875h2.359375v-.125q-.015625-.5625-.3125-.875-.28125-.3125-.828125-.3125z"/><path d="m76.921875 240.55803 1.921875-6.42188h1.96875l-2.984375 8.53125h-1.828125l-2.953125-8.53125h1.953125zm8.40625 2.10937q-.125-.23437-.171875-.5625-.609375.6875-1.59375.6875-.9375 0-1.546875-.54687-.609375-.54688-.609375-1.35938 0-1.01562.734375-1.54687.75-.54688 2.171875-.54688h.765625v-.35937q0-.4375-.21875-.70313-.21875-.26562-.71875-.26562-.421875 0-.671875.20312-.234375.20313-.234375.5625h-1.6875q0-.54687.328125-1.01562.34375-.46875.96875-.73438.625-.26562 1.390625-.26562 1.171875 0 1.859375.59375.6875.57812.6875 1.64062v2.75q.015625.90625.25 1.375v.09375zm-1.40625-1.17187q.375 0 .6875-.17188.328125-.17187.46875-.45312v-1.09375h-.625q-1.265625 0-1.359375.89062v.09375q0 .3125.21875.53125.21875.20313.609375.20313zm2.34375-6.375h-4.046875v-.96875h4.046875zm4.015625 6.29687q.46875 0 .765625-.25.296875-.26562.3125-.6875h1.578125q0 .64063-.34375 1.1875-.34375.53125-.953125.82813-.59375.29687-1.328125.29687-1.359375 0-2.140625-.85937-.78125-.875-.78125-2.40625v-.10938q0-1.46875.78125-2.32812.78125-.875 2.140625-.875 1.1875 0 1.90625.67187.71875.67188.71875 1.79688h-1.578125q-.015625-.48438-.3125-.79688-.296875-.3125-.765625-.3125-.59375 0-.90625.4375-.296875.4375-.296875 1.39063v.1875q0 .96875.296875 1.40625.296875.42187.90625.42187zm5.15625 1.25h-1.703125v-6.34375h1.703125zm-1.796875-7.98437q0-.375.25-.625.265625-.25.703125-.25.421875 0 .671875.25.265625.25.265625.625 0 .39062-.265625.64062-.25.23438-.6875.23438-.421875 0-.6875-.23438-.25-.25-.25-.64062zm4.796875 1.64062v6.6875q0 1.04688-.5625 1.625-.546875.59375-1.59375.59375-.4375 0-.84375-.09375v-1.34375q.3125.04688.53125.04688.78125 0 .78125-.8125v-6.70313zm-1.828125-1.64062q0-.375.25-.625.265625-.25.703125-.25.4375 0 .6875.25.265625.25.265625.625 0 .39062-.265625.64062-.265625.23438-.703125.23438-.421875 0-.6875-.23438-.25-.25-.25-.64062zm6.71875 7.98437q-.125-.23437-.171875-.5625-.609375.6875-1.59375.6875-.9375 0-1.546875-.54687-.609375-.54688-.609375-1.35938 0-1.01562.734375-1.54687.75-.54688 2.171875-.54688h.765625v-.35937q0-.4375-.21875-.70313-.21875-.26562-.71875-.26562-.421875 0-.671875.20312-.234375.20313-.234375.5625h-1.6875q0-.54687.328125-1.01562.34375-.46875.96875-.73438.625-.26562 1.390625-.26562 1.171875 0 1.859375.59375.6875.57812.6875 1.64062v2.75q.015625.90625.25 1.375v.09375zm-1.40625-1.17187q.375 0 .6875-.17188.328125-.17187.46875-.45312v-1.09375h-.625q-1.265625 0-1.359375.89062v.09375q0 .3125.21875.53125.21875.20313.609375.20313z"/><path d="m33.765625 299.5837v-8.53124h2.625q1.125 0 2 .51562.890625.5 1.390625 1.4375.5.92188.5 2.125v.39062q0 1.1875-.484375 2.10938-.484375.92188-1.375 1.4375-.890625.51562-2.015625.51562zm1.75-7.10937v5.70313h.859375q1.03125 0 1.5625-.67188.546875-.6875.5625-1.9375v-.45312q0-1.29688-.546875-1.96876-.53125-.67187-1.5625-.67187zm7.921875 7.10937h-1.703125v-6.34374h1.703125zm-1.796875-7.98437q0-.375.25-.625.265625-.25.703125-.25.421875 0 .671875.25.265625.25.265625.625 0 .39063-.265625.64063-.25.23437-.6875.23437-.421875 0-.6875-.23437-.25-.25-.25-.64063zm5.921875 8.10937q-1.390625 0-2.265625-.85937-.875-.85937-.875-2.28125v-.17188q0-.95312.359375-1.70312.375-.75 1.046875-1.15625.6875-.40625 1.546875-.40625 1.3125 0 2.046875.82812.75.8125.75 2.3125v.6875h-4.03125q.078125.625.484375 1 .421875.375 1.0625.375.96875 0 1.515625-.70312l.84375.92188q-.390625.54687-1.046875.85937-.640625.29687-1.4375.29687zm-.1875-5.21874q-.5 0-.8125.34374-.3125.34376-.40625.96876h2.359375v-.125q-.015625-.5625-.3125-.875-.28125-.3125-.828125-.3125zm4.828125-1.25.0625.73437q.671875-.84375 1.8125-.84375 1.015625 0 1.5.59375.5.57813.515625 1.76563v4.09374h-1.703125v-4.0625q0-.53124-.234375-.76562-.234375-.25-.78125-.25-.703125 0-1.0625.60938v4.46874h-1.703125v-6.34374zm7.828125 4.28124 1.171875-4.28124h1.765625l-2.140625 6.34374h-1.609375l-2.140625-6.34374h1.765625zm5.40625 2.0625h-1.703125v-6.34374h1.703125zm-1.796875-7.98437q0-.375.25-.625.265625-.25.703125-.25.421875 0 .671875.25.265625.25.265625.625 0 .39063-.265625.64063-.25.23437-.6875.23437-.421875 0-.6875-.23437-.25-.25-.25-.64063zm2.75 4.76563q0-1.48438.65625-2.35938.671875-.875 1.828125-.875.921875 0 1.53125.6875v-3.23438h1.6875v9h-1.515625l-.09375-.67187q-.625.79687-1.625.79687-1.125 0-1.796875-.875-.671875-.89062-.671875-2.46874zm1.6875.125q0 .89062.3125 1.375.3125.46874.90625.46874.78125 0 1.109375-.67187v-2.5q-.328125-.65625-1.09375-.65625-1.234375 0-1.234375 1.98438zm7.875.54687-.609375.60937v1.9375h-1.6875v-9h1.6875v4.98438l.328125-.42188 1.625-1.90624h2.03125l-2.296875 2.64062 2.5 3.70312h-1.953125zm3.4375-.6875q0-.9375.359375-1.67187.359375-.75 1.046875-1.14063.6875-.40625 1.578125-.40625 1.296875 0 2.09375.78125.8125.78125.90625 2.125l.015625.4375q0 1.46875-.8125 2.35937-.8125.875-2.1875.875-1.375 0-2.1875-.875-.8125-.89062-.8125-2.40624zm1.6875.125q0 .90625.34375 1.39063.34375.46874.96875.46874.625 0 .96875-.46874.34375-.46876.34375-1.51563 0-.875-.34375-1.35937-.34375-.5-.984375-.5-.609375 0-.953125.48437-.34375.48437-.34375 1.5zm9.140625-1.64063q-.34375-.04687-.609375-.04687-.96875 0-1.265625.64063v4.15624h-1.6875v-6.34374h1.59375l.046875.76562q.515625-.875 1.40625-.875.28125 0 .53125.07812zm3.34375 4.875q-1.390625 0-2.265625-.85937-.875-.85937-.875-2.28125v-.17188q0-.95312.359375-1.70312.375-.75 1.046875-1.15625.6875-.40625 1.546875-.40625 1.3125 0 2.046875.82812.75.8125.75 2.3125v.6875h-4.03125q.078125.625.484375 1 .421875.375 1.0625.375.96875 0 1.515625-.70312l.84375.92188q-.390625.54687-1.046875.85937-.640625.29687-1.4375.29687zm-.1875-5.21874q-.5 0-.8125.34374-.3125.34376-.40625.96876h2.359375v-.125q-.015625-.5625-.3125-.875-.28125-.3125-.828125-.3125zm5.0625-1.25v6.6875q0 1.04687-.5625 1.625-.546875.59374-1.59375.59374-.4375 0-.84375-.09374v-1.34376q.3125.04688.53125.04688.78125 0 .78125-.8125v-6.70312zm-1.828125-1.64063q0-.375.25-.625.265625-.25.703125-.25.4375 0 .6875.25.265625.25.265625.625 0 .39063-.265625.64063-.265625.23437-.703125.23437-.421875 0-.6875-.23437-.25-.25-.25-.64063zm6.71875 7.98437q-.125-.23437-.171875-.5625-.609375.6875-1.59375.6875-.9375 0-1.546875-.54687-.609375-.54687-.609375-1.35937 0-1.01563.734375-1.54688.75-.54688 2.171875-.54688h.765625v-.35937q0-.4375-.21875-.70313-.21875-.26562-.71875-.26562-.421875 0-.671875.20312-.234375.20313-.234375.5625h-1.6875q0-.54687.328125-1.01562.34375-.46875.96875-.73438.625-.26562 1.390625-.26562 1.171875 0 1.859375.59375.6875.57813.6875 1.64063v2.75q.015625.90624.25 1.375v.09374zm-1.40625-1.17187q.375 0 .6875-.17187.328125-.17188.46875-.45313v-1.09375h-.625q-1.265625 0-1.359375.89062v.09376q0 .3125.21875.53124.21875.20313.609375.20313z"/><path d="m68.515625 355.09375h3.734375v1.40625h-5.484375v-8.53125h1.75zm6.921875 1.40625h-1.703125v-6.34375h1.703125zm-1.796875-7.98438q0-.375.25-.625.265625-.25.703125-.25.421875 0 .671875.25.265625.25.265625.625 0 .39063-.265625.64063-.25.23437-.6875.23437-.421875 0-.6875-.23437-.25-.25-.25-.64063zm5.921875 8.10938q-1.390625 0-2.265625-.85938-.875-.85937-.875-2.28124v-.17188q0-.95312.359375-1.70312.375-.75 1.046875-1.15626.6875-.40624 1.546875-.40624 1.3125 0 2.046875.82812.75.8125.75 2.3125v.6875h-4.03125q.078125.625.484375 1 .421875.375 1.0625.375.96875 0 1.515625-.70312l.84375.92187q-.390625.54687-1.046875.85937-.640625.29688-1.4375.29688zm-.1875-5.21875q-.5 0-.8125.34375-.3125.34375-.40625.96875h2.359375v-.125q-.015625-.5625-.3125-.875-.28125-.3125-.828125-.3125zm5.296875-2.8125v1.5625h1.09375v1.25h-1.09375v3.15625q0 .35938.140625.51562.140625.14063.515625.14063.28125 0 .5-.03125v1.28125q-.5.15625-1.03125.15625-1.78125 0-1.8125-1.8125v-3.40625h-.921875v-1.25h.921875v-1.5625zm5.78125 7.26563q-.625.76562-1.734375.76562-1.03125 0-1.5625-.59375-.53125-.59375-.546875-1.71875v-4.15625h1.6875v4.09375q0 1 .90625 1 .859375 0 1.1875-.60938v-4.48437h1.703125v6.34375h-1.59375zm5.578125-1.42188 1.171875-4.28125h1.765625l-2.140625 6.34375h-1.609375l-2.140625-6.34375h1.765625zm7.296875 2.0625q-.125-.23438-.171875-.5625-.609375.6875-1.59375.6875-.9375 0-1.546875-.54688-.609375-.54687-.609375-1.35937 0-1.01563.734375-1.54687.75-.54688 2.171875-.54688h.765625v-.35938q0-.4375-.21875-.70312-.21875-.26562-.71875-.26562-.421875 0-.671875.20312-.234375.20312-.234375.5625h-1.6875q0-.54688.328125-1.01562.34375-.46876.96875-.73438.625-.26562 1.390625-.26562 1.171875 0 1.859375.59374.6875.57813.6875 1.64063v2.75q.015625.90625.25 1.375v.09375zm-1.40625-1.17188q.375 0 .6875-.17187.328125-.17187.46875-.45313v-1.09374h-.625q-1.265625 0-1.359375.89062v.09375q0 .3125.21875.53125.21875.20312.609375.20312z"/><path d="m70.203125 404.88504h1.75v5.90626q0 .8125-.359375 1.4375-.359375.625-1.015625.96874-.65625.34376-1.484375.34376-1.34375 0-2.109375-.6875-.75-.70313-.75-1.95313h1.765625q0 .625.265625.92187.265625.29688.828125.29688.515625 0 .8125-.34375.296875-.34375.296875-.98437zm7.125 8.53126q-.125-.23438-.171875-.5625-.609375.6875-1.59375.6875-.9375 0-1.546875-.54688-.609375-.54688-.609375-1.35938 0-1.01562.734375-1.54687.75-.54687 2.171875-.54687h.765625v-.35938q0-.4375-.21875-.70312-.21875-.26563-.71875-.26563-.421875 0-.671875.20313-.234375.20312-.234375.5625h-1.6875q0-.54688.328125-1.01563.34375-.46875.96875-.73437.625-.26563 1.390625-.26563 1.171875 0 1.859375.59375.6875.57812.6875 1.64062v2.75q.015625.90626.25 1.375v.09376zm-1.40625-1.17188q.375 0 .6875-.17188.328125-.17187.46875-.45312v-1.09375h-.625q-1.265625 0-1.359375.89063v.09374q0 .3125.21875.53126.21875.20312.609375.20312zm9.4375-1.9375q0 1.46875-.671875 2.35938-.65625.875-1.796875.875-.953125 0-1.546875-.67188v2.98438h-1.6875v-8.78126h1.5625l.0625.625q.609375-.73437 1.609375-.73437 1.171875 0 1.8125.875.65625.85937.65625 2.375zm-1.6875-.125q0-.89062-.328125-1.35938-.3125-.48437-.90625-.48437-.796875 0-1.09375.60937v2.59376q.3125.625 1.109375.625 1.21875 0 1.21875-1.98438zm6.65625 3.23438q-.125-.23438-.171875-.5625-.609375.6875-1.59375.6875-.9375 0-1.546875-.54688-.609375-.54688-.609375-1.35938 0-1.01562.734375-1.54687.75-.54687 2.171875-.54687h.765625v-.35938q0-.4375-.21875-.70312-.21875-.26563-.71875-.26563-.421875 0-.671875.20313-.234375.20312-.234375.5625h-1.6875q0-.54688.328125-1.01563.34375-.46875.96875-.73437.625-.26563 1.390625-.26563 1.171875 0 1.859375.59375.6875.57812.6875 1.64062v2.75q.015625.90626.25 1.375v.09376zm-1.40625-1.17188q.375 0 .6875-.17188.328125-.17187.46875-.45312v-1.09375h-.625q-1.265625 0-1.359375.89063v.09374q0 .3125.21875.53126.21875.20312.609375.20312zm2.34375-6.375h-4.046875v-.96875h4.046875zm2.9375 1.20312.0625.73438q.671875-.84375 1.8125-.84375 1.015625 0 1.5.59375.5.57812.515625 1.76562v4.09376h-1.703125v-4.0625q0-.53126-.234375-.76563-.234375-.25-.78125-.25-.703125 0-1.0625.60937v4.46876h-1.703125v-6.34376zm9.125 6.34376q-.125-.23438-.171875-.5625-.609375.6875-1.59375.6875-.9375 0-1.546875-.54688-.609375-.54688-.609375-1.35938 0-1.01562.734375-1.54687.75-.54687 2.171875-.54687h.765625v-.35938q0-.4375-.21875-.70312-.21875-.26563-.71875-.26563-.421875 0-.671875.20313-.234375.20312-.234375.5625h-1.6875q0-.54688.328125-1.01563.34375-.46875.96875-.73437.625-.26563 1.390625-.26563 1.171875 0 1.859375.59375.6875.57812.6875 1.64062v2.75q.015625.90626.25 1.375v.09376zm-1.40625-1.17188q.375 0 .6875-.17188.328125-.17187.46875-.45312v-1.09375h-.625q-1.265625 0-1.359375.89063v.09374q0 .3125.21875.53126.21875.20312.609375.20312z"/><path d="m68.890625 466.84824h-3.375v3.48436h-1.75v-8.53124h5.546875v1.42188h-3.796875v2.20312h3.375zm5.328125-1.26564q-.34375-.04686-.609375-.04686-.96875 0-1.265625.64062v4.15624h-1.6875v-6.34374h1.59375l.046875.76564q.515625-.875 1.40625-.875.28125 0 .53125.0781zm4.109375 4.75q-.125-.23436-.171875-.5625-.609375.6875-1.59375.6875-.9375 0-1.546875-.54686-.609375-.54688-.609375-1.35938 0-1.01562.734375-1.54686.75-.5469 2.171875-.5469h.765625v-.35936q0-.4375-.21875-.70314-.21875-.2656-.71875-.2656-.421875 0-.671875.2031-.234375.20314-.234375.5625h-1.6875q0-.54686.328125-1.0156.34375-.46876.96875-.7344.625-.2656 1.390625-.2656 1.171875 0 1.859375.59374.6875.57812.6875 1.64062v2.75q.015625.90624.25 1.375v.09374zm-1.40625-1.17186q.375 0 .6875-.17188.328125-.17186.46875-.45312v-1.09374h-.625q-1.265625 0-1.359375.8906v.09376q0 .3125.21875.53124.21875.20314.609375.20314zm5.28125-5.17188.0625.73438q.671875-.84374 1.8125-.84374 1.015625 0 1.5.59374.5.57812.515625 1.76562v4.09374h-1.703125v-4.0625q0-.53124-.234375-.7656-.234375-.25-.78125-.25-.703125 0-1.0625.60936v4.46874h-1.703125v-6.34374zm8.078125 5.09374q.46875 0 .765625-.25.296875-.2656.3125-.6875h1.578125q0 .64064-.34375 1.1875-.34375.53126-.953125.82814-.59375.29686-1.328125.29686-1.359375 0-2.140625-.85936-.78125-.875-.78125-2.40624v-.1094q0-1.46874.78125-2.3281.78125-.875 2.140625-.875 1.1875 0 1.90625.67186.71875.67188.71875 1.79688h-1.578125q-.015625-.48438-.3125-.79688-.296875-.3125-.765625-.3125-.59375 0-.90625.4375-.296875.4375-.296875 1.39064v.1875q0 .96874.296875 1.40624.296875.42186.90625.42186zm5.15625 1.25h-1.703125v-6.34374h1.703125zm-1.796875-7.98436q0-.375.25-.625.265625-.25.703125-.25.421875 0 .671875.25.265625.25.265625.625 0 .39062-.265625.64062-.25.23438-.6875.23438-.421875 0-.6875-.23438-.25-.25-.25-.64062zm4.796875 1.64062v6.6875q0 1.04688-.5625 1.625-.546875.59374-1.59375.59374-.4375 0-.84375-.09374v-1.34376q.3125.0469.53125.0469.78125 0 .78125-.8125v-6.70314zm-1.828125-1.64062q0-.375.25-.625.265625-.25.703125-.25.4375 0 .6875.25.265625.25.265625.625 0 .39062-.265625.64062-.265625.23438-.703125.23438-.421875 0-.6875-.23438-.25-.25-.25-.64062zm6.71875 7.98436q-.125-.23436-.171875-.5625-.609375.6875-1.59375.6875-.9375 0-1.546875-.54686-.609375-.54688-.609375-1.35938 0-1.01562.734375-1.54686.75-.5469 2.171875-.5469h.765625v-.35936q0-.4375-.21875-.70314-.21875-.2656-.71875-.2656-.421875 0-.671875.2031-.234375.20314-.234375.5625h-1.6875q0-.54686.328125-1.0156.34375-.46876.96875-.7344.625-.2656 1.390625-.2656 1.171875 0 1.859375.59374.6875.57812.6875 1.64062v2.75q.015625.90624.25 1.375v.09374zm-1.40625-1.17186q.375 0 .6875-.17188.328125-.17186.46875-.45312v-1.09374h-.625q-1.265625 0-1.359375.8906v.09376q0 .3125.21875.53124.21875.20314.609375.20314z"/><path d="m69.765625 527.2489v-8.53125h2.984375q1.546875 0 2.34375.59375.8125.59375.8125 1.75 0 .625-.328125 1.1094-.3125.4687-.890625.6875.65625.17185 1.03125.67185.390625.48435.390625 1.20315 0 1.23435-.796875 1.875-.78125.625-2.234375.6406zm1.75-3.71875v2.3125h1.515625q.609375 0 .953125-.29685.359375-.2969.359375-.82815 0-1.17185-1.21875-1.1875zm0-1.23435h1.3125q1.328125-.0313 1.328125-1.0625 0-.57815-.34375-.82815-.328125-.26565-1.0625-.26565h-1.234375zm9.046875 5.0781q-1.390625 0-2.265625-.8594-.875-.85935-.875-2.2812v-.1719q0-.9531.359375-1.7031.375-.75 1.046875-1.1563.6875-.4062 1.546875-.4062 1.3125 0 2.046875.8281.75.8125.75 2.3125v.6875h-4.03125q.078125.625.484375 1 .421875.375 1.0625.375.96875 0 1.515625-.7031l.84375.92185q-.390625.54685-1.046875.85935-.640625.2969-1.4375.2969zm-.1875-5.21875q-.5 0-.8125.34375-.3125.34375-.40625.96875h2.359375v-.125q-.015625-.5625-.3125-.875-.28125-.3125-.828125-.3125zm5.0625 5.09375h-1.703125v-9h1.703125zm-1.0625 2.96875-.828125-.46875q.421875-.6719.4375-1.4219v-.5937h1.25v.4062q0 .5469-.25 1.125-.25.5938-.609375.95315zm2.03125-6.1875q0-1.45315.6875-2.34375.703125-.8906 1.875-.8906 1.046875 0 1.625.7031l.078125-.59375h1.53125v6.125q0 .84375-.390625 1.45315-.375.625-1.0625.9375-.671875.3281-1.59375.3281-.703125 0-1.375-.28125-.65625-.28125-.984375-.71875l.75-1.03125q.625.70315 1.53125.70315.671875 0 1.046875-.3594.375-.3594.375-1.0156v-.3438q-.578125.6719-1.546875.6719-1.140625 0-1.84375-.8906-.703125-.9063-.703125-2.375zm1.6875.125q0 .85935.34375 1.35935.359375.4844.953125.4844.78125 0 1.109375-.5781v-2.6719q-.34375-.5781-1.09375-.5781-.609375 0-.96875.5-.34375.5-.34375 1.48435zm1.3125-6.98435.875.4531q-.390625.6875-.390625 1.4531l-.015625.7969h-1.3125v-.8281q0-.57815.234375-1.0938.234375-.5312.609375-.7812zm6.03125 10.0781h-1.703125v-6.34375h1.703125zm-1.796875-7.9844q0-.375.25-.625.265625-.25.703125-.25.421875 0 .671875.25.265625.25.265625.625 0 .39065-.265625.64065-.25.23435-.6875.23435-.421875 0-.6875-.23435-.25-.25-.25-.64065zm4.796875 1.64065v6.6875q0 1.04685-.5625 1.625-.546875.59375-1.59375.59375-.4375 0-.84375-.09375v-1.34375q.3125.0469.53125.0469.78125 0 .78125-.8125v-6.70315zm-1.828125-1.64065q0-.375.25-.625.265625-.25.703125-.25.4375 0 .6875.25.265625.25.265625.625 0 .39065-.265625.64065-.265625.23435-.703125.23435-.421875 0-.6875-.23435-.25-.25-.25-.64065zm6.71875 7.9844q-.125-.2344-.171875-.5625-.609375.6875-1.59375.6875-.9375 0-1.546875-.5469-.609375-.54685-.609375-1.35935 0-1.01565.734375-1.54685.75-.5469 2.171875-.5469h.765625v-.3594q0-.4375-.21875-.7031-.21875-.2656-.71875-.2656-.421875 0-.671875.2031-.234375.2031-.234375.5625h-1.6875q0-.5469.328125-1.0156.34375-.4688.96875-.7344.625-.2656 1.390625-.2656 1.171875 0 1.859375.5937.6875.57815.6875 1.64065v2.75q.015625.90625.25 1.375v.09375zm-1.40625-1.1719q.375 0 .6875-.17185.328125-.17185.46875-.45315v-1.0937h-.625q-1.265625 0-1.359375.8906v.09375q0 .3125.21875.53125.21875.2031.609375.2031z"/><path d="m76.890625 580.4621h-3.375v2.2969h3.96875v1.4062h-5.71875v-8.5312h5.703125v1.42185h-3.953125v2.03125h3.375zm-.125-5.6719h-4.046875v-.9687h4.046875zm1.640625 6.1563q0-1.45315.6875-2.3438.703125-.8906 1.875-.8906 1.046875 0 1.625.7031l.078125-.5937h1.53125v6.125q0 .8437-.390625 1.4531-.375.625-1.0625.9375-.671875.3281-1.59375.3281-.703125 0-1.375-.2812-.65625-.2813-.984375-.7188l.75-1.0312q.625.7031 1.53125.7031.671875 0 1.046875-.3594.375-.35935.375-1.0156v-.34375q-.578125.67185-1.546875.67185-1.140625 0-1.84375-.8906-.703125-.90625-.703125-2.375zm1.6875.125q0 .85935.34375 1.35935.359375.48435.953125.48435.78125 0 1.109375-.5781v-2.6719q-.34375-.5781-1.09375-.5781-.609375 0-.96875.5-.34375.5-.34375 1.4844zm1.3125-6.9844.875.4531q-.390625.6875-.390625 1.45315l-.015625.79685h-1.3125v-.8281q0-.5781.234375-1.09375.234375-.53125.609375-.78125zm6.03125 10.0781h-1.703125v-6.3437h1.703125zm-1.796875-7.98435q0-.375.25-.625.265625-.25.703125-.25.421875 0 .671875.25.265625.25.265625.625 0 .39065-.265625.64065-.25.23435-.6875.23435-.421875 0-.6875-.23435-.25-.25-.25-.64065zm8.71875 4.875q0 1.46875-.671875 2.35935-.65625.875-1.796875.875-.953125 0-1.546875-.67185v2.98435h-1.6875v-8.7812h1.5625l.0625.625q.609375-.7344 1.609375-.7344 1.171875 0 1.8125.875.65625.8594.65625 2.375zm-1.6875-.125q0-.89065-.328125-1.35935-.3125-.4844-.90625-.4844-.796875 0-1.09375.6094v2.5937q.3125.625 1.109375.625 1.21875 0 1.21875-1.98435zm5-4.67185v1.5625h1.09375v1.25h-1.09375v3.1562q0 .3594.140625.51565.140625.14065.515625.14065.28125 0 .5-.0313v1.2813q-.5.1562-1.03125.1562-1.78125 0-1.8125-1.8125v-3.4062h-.921875v-1.25h.921875v-1.5625zm4.890625 8.0312q-1.390625 0-2.265625-.85935-.875-.85935-.875-2.28125v-.1719q0-.9531.359375-1.7031.375-.75 1.046875-1.15625.6875-.40625 1.546875-.40625 1.3125 0 2.046875.8281.75.8125.75 2.3125v.6875h-4.03125q.078125.625.484375 1 .421875.375 1.0625.375.96875 0 1.515625-.7031l.84375.9219q-.390625.54685-1.046875.85935-.640625.29685-1.4375.29685zm-.1875-5.2187q-.5 0-.8125.3437-.3125.3438-.40625.9688h2.359375v-.125q-.015625-.5625-.3125-.875-.28125-.3125-.828125-.3125z"/><path d="m31.515625 638.0815v3h-1.75v-8.53127h3.328125q.953125 0 1.6875.35937.734375.34376 1.125 1 .390625.64063.390625 1.46876 0 1.25-.859375 1.98437-.859375.71877-2.375.71877zm0-1.4375h1.578125q.6875 0 1.046875-.32814.375-.32813.375-.9375 0-.625-.375-1-.359375-.39063-1.015625-.40626h-1.609375zm9.8125 4.4375q-.125-.2344-.171875-.5625-.609375.6875-1.59375.6875-.9375 0-1.546875-.5469-.609375-.54687-.609375-1.35937 0-1.01563.734375-1.54687.75-.54686 2.171875-.54686h.765625v-.3594q0-.4375-.21875-.7031-.21875-.26564-.71875-.26564-.421875 0-.671875.20314-.234375.2031-.234375.5625h-1.6875q0-.5469.328125-1.01564.34375-.46876.96875-.73436.625-.26564 1.390625-.26564 1.171875 0 1.859375.59374.6875.57813.6875 1.64063v2.75q.015625.90627.25 1.375v.09377zm-1.40625-1.1719q.375 0 .6875-.17187.328125-.17187.46875-.45313v-1.09374h-.625q-1.265625 0-1.359375.89064v.09373q0 .3125.21875.53127.21875.2031.609375.2031zm2.34375-6.375h-4.046875v-.96874h4.046875zm4.953125 2.7969q-.34375-.0469-.609375-.0469-.96875 0-1.265625.64063v4.15627h-1.6875v-6.34377h1.59375l.046875.76563q.515625-.875 1.40625-.875.28125 0 .53125.07814zm3.34375 4.875q-1.390625 0-2.265625-.8594-.875-.85937-.875-2.28124v-.17186q0-.95314.359375-1.70314.375-.75 1.046875-1.15626.6875-.40624 1.546875-.40624 1.3125 0 2.046875.82814.75.8125.75 2.3125v.6875h-4.03125q.078125.625.484375 1 .421875.375 1.0625.375.96875 0 1.515625-.70314l.84375.92187q-.390625.54687-1.046875.85937-.640625.2969-1.4375.2969zm-.1875-5.21877q-.5 0-.8125.34377-.3125.34373-.40625.96873h2.359375v-.125q-.015625-.5625-.3125-.875-.28125-.3125-.828125-.3125zm1.84375-2.45313h-4.046875v-.96874h4.046875zm3.21875 1.20313v6.6875q0 1.04687-.5625 1.625-.546875.59377-1.59375.59377-.4375 0-.84375-.09377v-1.34373q.3125.04686.53125.04686.78125 0 .78125-.8125v-6.70313zm-1.828125-1.64063q0-.375.25-.625.265625-.25.703125-.25.4375 0 .6875.25.265625.25.265625.625 0 .39063-.265625.64063-.265625.23437-.703125.23437-.421875 0-.6875-.23437-.25-.25-.25-.64063zm6.71875 7.9844q-.125-.2344-.171875-.5625-.609375.6875-1.59375.6875-.9375 0-1.546875-.5469-.609375-.54687-.609375-1.35937 0-1.01563.734375-1.54687.75-.54686 2.171875-.54686h.765625v-.3594q0-.4375-.21875-.7031-.21875-.26564-.71875-.26564-.421875 0-.671875.20314-.234375.2031-.234375.5625h-1.6875q0-.5469.328125-1.01564.34375-.46876.96875-.73436.625-.26564 1.390625-.26564 1.171875 0 1.859375.59374.6875.57813.6875 1.64063v2.75q.015625.90627.25 1.375v.09377zm-1.40625-1.1719q.375 0 .6875-.17187.328125-.17187.46875-.45313v-1.09374h-.625q-1.265625 0-1.359375.89064v.09373q0 .3125.21875.53127.21875.2031.609375.2031zm2.34375-6.375h-4.046875v-.96874h4.046875zm4.8125 5.7969q0-.3125-.3125-.4844-.296875-.1875-.96875-.3281-2.265625-.46877-2.265625-1.9219 0-.84374.6875-1.40624.703125-.5625 1.84375-.5625 1.203125 0 1.921875.5625.734375.5625.734375 1.48437h-1.703125q0-.375-.234375-.60937-.234375-.23436-.734375-.23436-.421875 0-.65625.2031-.234375.1875-.234375.4844 0 .28123.265625.4531.265625.1719.890625.2969.640625.125 1.078125.28123 1.34375.5 1.34375 1.70313 0 .875-.75 1.42187-.734375.53127-1.921875.53127-.796875 0-1.421875-.28127-.609375-.29687-.96875-.78123-.34375-.5-.34375-1.07814h1.609375q.015625.45314.328125.70314.3125.23436.828125.23436.5 0 .734375-.1875.25-.1875.25-.48436zm7.953125-.3125 1.171875-4.28127h1.765625l-2.140625 6.34377h-1.609375l-2.140625-6.34377h1.765625zm7.296875 2.0625q-.125-.2344-.171875-.5625-.609375.6875-1.59375.6875-.9375 0-1.546875-.5469-.609375-.54687-.609375-1.35937 0-1.01563.734375-1.54687.75-.54686 2.171875-.54686h.765625v-.3594q0-.4375-.21875-.7031-.21875-.26564-.71875-.26564-.421875 0-.671875.20314-.234375.2031-.234375.5625h-1.6875q0-.5469.328125-1.01564.34375-.46876.96875-.73436.625-.26564 1.390625-.26564 1.171875 0 1.859375.59374.6875.57813.6875 1.64063v2.75q.015625.90627.25 1.375v.09377zm-1.40625-1.1719q.375 0 .6875-.17187.328125-.17187.46875-.45313v-1.09374h-.625q-1.265625 0-1.359375.89064v.09373q0 .3125.21875.53127.21875.2031.609375.2031zm5.515625 1.1719h-1.703125v-9h1.703125zm4.640625-1.75q0-.3125-.3125-.4844-.296875-.1875-.96875-.3281-2.265625-.46877-2.265625-1.9219 0-.84374.6875-1.40624.703125-.5625 1.84375-.5625 1.203125 0 1.921875.5625.734375.5625.734375 1.48437h-1.703125q0-.375-.234375-.60937-.234375-.23436-.734375-.23436-.421875 0-.65625.2031-.234375.1875-.234375.4844 0 .28123.265625.4531.265625.1719.890625.2969.640625.125 1.078125.28123 1.34375.5 1.34375 1.70313 0 .875-.75 1.42187-.734375.53127-1.921875.53127-.796875 0-1.421875-.28127-.609375-.29687-.96875-.78123-.34375-.5-.34375-1.07814h1.609375q.015625.45314.328125.70314.3125.23436.828125.23436.5 0 .734375-.1875.25-.1875.25-.48436zm4.59375-6.15627v1.5625h1.09375v1.25h-1.09375v3.15627q0 .35936.140625.5156.140625.14063.515625.14063.28125 0 .5-.03123v1.28123q-.5.15627-1.03125.15627-1.78125 0-1.8125-1.8125v-3.40627h-.921875v-1.25h.921875v-1.5625zm3.765625 7.90627h-1.703125v-6.34377h1.703125zm-1.796875-7.9844q0-.375.25-.625.265625-.25.703125-.25.421875 0 .671875.25.265625.25.265625.625 0 .39063-.265625.64063-.25.23437-.6875.23437-.421875 0-.6875-.23437-.25-.25-.25-.64063zm6.4375 6.2344q0-.3125-.3125-.4844-.296875-.1875-.96875-.3281-2.265625-.46877-2.265625-1.9219 0-.84374.6875-1.40624.703125-.5625 1.84375-.5625 1.203125 0 1.921875.5625.734375.5625.734375 1.48437h-1.703125q0-.375-.234375-.60937-.234375-.23436-.734375-.23436-.421875 0-.65625.2031-.234375.1875-.234375.4844 0 .28123.265625.4531.265625.1719.890625.2969.640625.125 1.078125.28123 1.34375.5 1.34375 1.70313 0 .875-.75 1.42187-.734375.53127-1.921875.53127-.796875 0-1.421875-.28127-.609375-.29687-.96875-.78123-.34375-.5-.34375-1.07814h1.609375q.015625.45314.328125.70314.3125.23436.828125.23436.5 0 .734375-.1875.25-.1875.25-.48436z"/><path d="m113.5625 695.3594q0 1.9062-.65625 2.8437-.640625.9219-2.03125.9219-1.359375 0-2.015625-.90625-.65625-.90625-.6875-2.71875v-1.4375q0-1.8906.640625-2.7969.65625-.92185 2.046875-.92185 1.375 0 2.03125.89065.65625.875.671875 2.7187zm-1.09375-1.4844q0-1.375-.390625-2-.375-.6406-1.21875-.6406-.828125 0-1.21875.6406-.375.625-.375 1.9219v1.73435q0 1.375.390625 2.04685.40625.6563 1.21875.6563.796875 0 1.1875-.625.390625-.625.40625-1.95315z"/><path d="m216.79688 699h-5.59376v-.78125l2.95313-3.28125q.65625-.75.90625-1.2031.25-.4688.25-.9688 0-.67185-.40625-1.0937-.39063-.4375-1.07813-.4375-.79687 0-1.25.4687-.45312.45315-.45312 1.2813h-1.07812q0-1.1875.75-1.9063.76562-.73435 2.03124-.73435 1.20313 0 1.89063.625.6875.625.6875 1.67185 0 1.25-1.60937 3l-2.28126 2.4688h4.28126zm6.76562-3.6406q0 1.9062-.65625 2.8437-.64063.9219-2.03125.9219-1.35938 0-2.01562-.90625-.65626-.90625-.6875-2.71875v-1.4375q0-1.8906.64062-2.7969.65625-.92185 2.04688-.92185 1.375 0 2.03124.89065.65626.875.67188 2.7187zm-1.09375-1.4844q0-1.375-.39063-2-.375-.6406-1.21874-.6406-.82813 0-1.21876.6406-.375.625-.375 1.9219v1.73435q0 1.375.39063 2.04685.40625.6563 1.21875.6563.79688 0 1.1875-.625.39062-.625.40625-1.95315zm8.09375 1.4844q0 1.9062-.65625 2.8437-.64063.9219-2.03125.9219-1.35938 0-2.01562-.90625-.65626-.90625-.6875-2.71875v-1.4375q0-1.8906.64062-2.7969.65625-.92185 2.04688-.92185 1.375 0 2.03124.89065.65626.875.67188 2.7187zm-1.09375-1.4844q0-1.375-.39063-2-.375-.6406-1.21874-.6406-.82813 0-1.21876.6406-.375.625-.375 1.9219v1.73435q0 1.375.39063 2.04685.40625.6563 1.21875.6563.79688 0 1.1875-.625.39062-.625.40625-1.95315z"/><path d="m325.78125 696.1406h1.1875v.875h-1.1875v1.9844h-1.07813v-1.9844h-3.89062v-.6406l3.8125-5.90625h1.15625zm-3.73437 0h2.65624v-4.1875l-.14062.2344zm11.51562-.7812q0 1.9062-.65625 2.8437-.64063.9219-2.03125.9219-1.35938 0-2.01562-.90625-.65626-.90625-.6875-2.71875v-1.4375q0-1.8906.64062-2.7969.65625-.92185 2.04688-.92185 1.375 0 2.03124.89065.65626.875.67188 2.7187zm-1.09375-1.4844q0-1.375-.39063-2-.375-.6406-1.21874-.6406-.82813 0-1.21876.6406-.375.625-.375 1.9219v1.73435q0 1.375.39063 2.04685.40625.6563 1.21875.6563.79688 0 1.1875-.625.39062-.625.40625-1.95315zm8.09375 1.4844q0 1.9062-.65625 2.8437-.64063.9219-2.03125.9219-1.35938 0-2.01562-.90625-.65626-.90625-.6875-2.71875v-1.4375q0-1.8906.64062-2.7969.65625-.92185 2.04688-.92185 1.375 0 2.03124.89065.65626.875.67188 2.7187zm-1.09375-1.4844q0-1.375-.39063-2-.375-.6406-1.21874-.6406-.82813 0-1.21876.6406-.375.625-.375 1.9219v1.73435q0 1.375.39063 2.04685.40625.6563 1.21875.6563.79688 0 1.1875-.625.39062-.625.40625-1.95315z"/><path d="m435.46875 690.46875v.90625h-.20313q-1.26562.03125-2.01562.7656-.75.7188-.875 2.0313.6875-.76565 1.84375-.76565 1.10937 0 1.78125.78125.67188.78125.67188 2.03125 0 1.3125-.71876 2.10935-.71874.7969-1.9375.7969-1.21874 0-1.98437-.9375-.75-.9531-.75-2.4375v-.40625q0-2.35935 1-3.60935 1-1.25 2.98437-1.26565zm-1.42187 3.84375q-.5625 0-1.03126.3281-.46874.32815-.65624.8438v.3906q0 1.0625.46874 1.7031.48438.64065 1.1875.64065.73438 0 1.15626-.53125.42187-.5469.42187-1.4219 0-.875-.42187-1.4062-.42188-.5469-1.125-.5469zm9.51562 1.0469q0 1.9062-.65625 2.8437-.64063.9219-2.03125.9219-1.35938 0-2.01562-.90625-.65626-.90625-.6875-2.71875v-1.4375q0-1.8906.64062-2.7969.65625-.92185 2.04688-.92185 1.375 0 2.03124.89065.65626.875.67188 2.7187zm-1.09375-1.4844q0-1.375-.39063-2-.375-.6406-1.21874-.6406-.82813 0-1.21876.6406-.375.625-.375 1.9219v1.73435q0 1.375.39063 2.04685.40625.6563 1.21875.6563.79688 0 1.1875-.625.39062-.625.40625-1.95315zm8.09375 1.4844q0 1.9062-.65625 2.8437-.64063.9219-2.03125.9219-1.35938 0-2.01562-.90625-.65626-.90625-.6875-2.71875v-1.4375q0-1.8906.64062-2.7969.65625-.92185 2.04688-.92185 1.375 0 2.03124.89065.65626.875.67188 2.7187zm-1.09375-1.4844q0-1.375-.39063-2-.375-.6406-1.21874-.6406-.82813 0-1.21876.6406-.375.625-.375 1.9219v1.73435q0 1.375.39063 2.04685.40625.6563 1.21875.6563.79688 0 1.1875-.625.39062-.625.40625-1.95315z"/><path d="m546.3906 692.6875q0 .6406-.3437 1.1406-.3438.5-.9063.7813.6563.2812 1.0469.8437.3906.5469.3906 1.25 0 1.0938-.75 1.76565-.73435.65625-1.9531.65625-1.2344 0-1.9844-.65625-.73435-.67185-.73435-1.76565 0-.7031.375-1.25.375-.5625 1.04685-.8437-.5625-.2813-.8906-.7813-.3281-.5-.3281-1.1406 0-1.0781.6875-1.7031.6875-.64065 1.8281-.64065 1.125 0 1.8125.64065.7031.625.7031 1.7031zm-.8906 3.9844q0-.7188-.4531-1.1563-.45315-.4531-1.1875-.4531-.7344 0-1.1875.4531-.4375.4375-.4375 1.1719 0 .71875.4375 1.1406.4375.4063 1.2031.4063.75 0 1.1875-.4219.4375-.4219.4375-1.1406zm-1.625-5.4375q-.6406 0-1.0469.4062-.3906.39065-.3906 1.07815 0 .64065.3906 1.04685.39065.4063 1.0313.4063.6562 0 1.04685-.4063.39065-.4062.39065-1.04685 0-.65625-.4063-1.0625-.4062-.42185-1.0156-.42185zm9.6875 4.125q0 1.9062-.65625 2.8437-.64065.9219-2.03125.9219-1.3594 0-2.0156-.90625-.6563-.90625-.6875-2.71875v-1.4375q0-1.8906.6406-2.7969.65625-.92185 2.0469-.92185 1.375 0 2.0312.89065.6563.875.6719 2.7187zm-1.09375-1.4844q0-1.375-.39065-2-.375-.6406-1.2187-.6406-.82815 0-1.2188.6406-.375.625-.375 1.9219v1.73435q0 1.375.39065 2.04685.40625.6563 1.21875.6563.7969 0 1.1875-.625.3906-.625.40625-1.95315zm8.09375 1.4844q0 1.9062-.65625 2.8437-.64065.9219-2.03125.9219-1.3594 0-2.0156-.90625-.6563-.90625-.6875-2.71875v-1.4375q0-1.8906.6406-2.7969.65625-.92185 2.0469-.92185 1.375 0 2.0312.89065.6563.875.6719 2.7187zm-1.09375-1.4844q0-1.375-.39065-2-.375-.6406-1.2187-.6406-.82815 0-1.2188.6406-.375.625-.375 1.9219v1.73435q0 1.375.39065 2.04685.40625.6563 1.21875.6563.7969 0 1.1875-.625.3906-.625.40625-1.95315z"/></g></svg>