<svg fill="none" height="300" stroke-linecap="square" stroke-miterlimit="10" viewBox="0 0 580 300" width="580" xmlns="http://www.w3.org/2000/svg"><path d="m0 0h580v300h-580z" fill="none"/><path d="m290 15c68.88147 0 126.71664 51.85827 134.20078 120.33195 7.48412 68.4737-37.78324 131.601-105.03838 146.48061l-7.2906-32.95312c50.44137-11.15974 84.39187-58.50521 78.77877-109.86048-5.61307-51.35526-48.98947-90.24896-100.65057-90.24896z" fill="#ffc000"/><path d="m281.6071 15.261145c2.79424-.1740545 5.59325-.261145 8.3929-.261145v33.75c-2.09976 0-4.19897.06532-6.29468.195858z" fill="#002060"/><path d="m273.24667 16.043568c2.77803-.347435 5.56617-.608369 8.36043-.782423l2.09822 33.684713c-2.09567.130542-4.1868.326242-6.27032.586819z" fill="#70ad47"/><path d="m240.77205 24.295551c10.44018-4.088554 21.34907-6.860561 32.47462-8.251983l4.18833 33.489109c-8.34415 1.043567-16.52582 3.12257-24.35596 6.188987z" fill="#a64d79"/><path d="m211.32996 40.291183c9.11171-6.533823 19.00189-11.907077 29.44209-15.995632l12.30699 31.426113c-7.83015 3.066416-15.24779 7.096356-22.08157 11.996716z" fill="#38761d"/><path d="m166.72836 205.0373c-26.13624-58.53956-7.4972-127.38709 44.6016-164.746117l19.66751 27.427197c-39.0741 28.019276-53.05338 79.65492-33.45121 123.55959z" fill="#4472c4"/><path d="m319.1624 281.81256c-62.59547 13.84874-126.29779-18.23572-152.43404-76.77526l30.8179-13.75933c19.60219 43.90465 67.37894 67.968 114.32554 57.58147z" fill="#c00000"/><path d="m15.765625 27v-8.53125h2.984375q1.546875 0 2.34375.59375.8125.59375.8125 1.75 0 .625-.328125 1.109375-.3125.46875-.890625.6875.65625.171875 1.03125.671875.390625.484375.390625 1.203125 0 1.234375-.796875 1.875-.78125.625-2.234375.640625zm1.75-3.71875v2.3125h1.515625q.609375 0 .953125-.296875.359375-.296875.359375-.828125 0-1.171875-1.21875-1.1875zm0-1.234375h1.3125q1.328125-.03125 1.328125-1.0625 0-.578125-.34375-.828125-.328125-.265625-1.0625-.265625h-1.234375zm7.921875 4.953125h-1.703125v-9h1.703125zm4.890625 0q-.125-.234375-.171875-.5625-.609375.6875-1.59375.6875-.9375 0-1.546875-.546875-.609375-.546875-.609375-1.359375 0-1.015625.734375-1.546875.75-.546875 2.171875-.546875h.765625v-.359375q0-.4375-.21875-.703125-.21875-.265625-.71875-.265625-.421875 0-.671875.203125-.234375.203125-.234375.5625h-1.6875q0-.546875.328125-1.015625.34375-.46875.96875-.734375.625-.265625 1.390625-.265625 1.171875 0 1.859375.59375.6875.578125.6875 1.640625v2.75q.015625.90625.25 1.375v.09375zm-1.40625-1.171875q.375 0 .6875-.171875.328125-.171875.46875-.453125v-1.09375h-.625q-1.265625 0-1.359375.890625v.09375q0 .3125.21875.53125.21875.203125.609375.203125zm6.359375-.078125q.46875 0 .765625-.25.296875-.265625.3125-.6875h1.578125q0 .640625-.34375 1.1875-.34375.53125-.953125.828125-.59375.296875-1.328125.296875-1.359375 0-2.140625-.859375-.78125-.875-.78125-2.40625v-.109375q0-1.46875.78125-2.328125.78125-.875 2.140625-.875 1.1875 0 1.90625.671875.71875.671875.71875 1.796875h-1.578125q-.015625-.484375-.3125-.796875-.296875-.3125-.765625-.3125-.59375 0-.90625.4375-.296875.4375-.296875 1.390625v.1875q0 .96875.296875 1.40625.296875.421875.90625.421875zm5.671875-1.296875-.609375.609375v1.9375h-1.6875v-9h1.6875v4.984375l.328125-.421875 1.625-1.90625h2.03125l-2.296875 2.640625 2.5 3.703125h-1.953125zm10.375 2.546875q-.125-.234375-.171875-.5625-.609375.6875-1.59375.6875-.9375 0-1.546875-.546875-.609375-.546875-.609375-1.359375 0-1.015625.734375-1.546875.75-.546875 2.171875-.546875h.765625v-.359375q0-.4375-.21875-.703125-.21875-.265625-.71875-.265625-.421875 0-.671875.203125-.234375.203125-.234375.5625h-1.6875q0-.546875.328125-1.015625.34375-.46875.96875-.734375.625-.265625 1.390625-.265625 1.171875 0 1.859375.59375.6875.578125.6875 1.640625v2.75q.015625.90625.25 1.375v.09375zm-1.40625-1.171875q.375 0 .6875-.171875.328125-.171875.46875-.453125v-1.09375h-.625q-1.265625 0-1.359375.890625v.09375q0 .3125.21875.53125.21875.203125.609375.203125zm5.515625 1.171875h-1.703125v-9h1.703125zm.953125-3.21875q0-1.484375.65625-2.359375.671875-.875 1.828125-.875.921875 0 1.53125.6875v-3.234375h1.6875v9h-1.515625l-.09375-.671875q-.625.796875-1.625.796875-1.125 0-1.796875-.875-.671875-.890625-.671875-2.46875zm1.6875.125q0 .890625.3125 1.375.3125.46875.90625.46875.78125 0 1.109375-.671875v-2.5q-.328125-.65625-1.09375-.65625-1.234375 0-1.234375 1.984375zm8.484375 3.21875q-1.390625 0-2.265625-.859375-.875-.859375-.875-2.28125v-.171875q0-.953125.359375-1.703125.375-.75 1.046875-1.15625.6875-.40625 1.546875-.40625 1.3125 0 2.046875.828125.75.8125.75 2.3125v.6875h-4.03125q.078125.625.484375 1 .421875.375 1.0625.375.96875 0 1.515625-.703125l.84375.921875q-.390625.546875-1.046875.859375-.640625.296875-1.4375.296875zm-.1875-5.21875q-.5 0-.8125.34375-.3125.34375-.40625.96875h2.359375v-.125q-.015625-.5625-.3125-.875-.28125-.3125-.828125-.3125zm6.84375.34375q-.34375-.046875-.609375-.046875-.96875 0-1.265625.640625v4.15625h-1.6875v-6.34375h1.59375l.046875.765625q.515625-.875 1.40625-.875.28125 0 .53125.078125z" fill="#1a1a1a"/><path d="m20.59375 41.78125h.96875v1.375h-.96875v1.84375h-1.703125v-1.84375h-3.484375l-.078125-1.0625 3.546875-5.625h1.71875zm-3.578125 0h1.875v-3l-.109375.1875zm5.71875 2.390625q0-.40625.265625-.65625.28125-.25.6875-.25.421875 0 .6875.25.28125.25.28125.65625 0 .390625-.28125.640625-.265625.25-.6875.25-.40625 0-.6875-.25-.265625-.25-.265625-.640625zm8.59375-2.703125q0 1.765625-.734375 2.71875-.734375.9375-2.140625.9375-1.40625 0-2.140625-.921875-.734375-.921875-.75-2.640625v-1.578125q0-1.78125.734375-2.703125.75-.9375 2.140625-.9375 1.390625 0 2.125.921875.75.921875.765625 2.640625zm-1.703125-1.71875q0-1.0625-.296875-1.546875-.28125-.484375-.890625-.484375-.59375 0-.890625.46875-.28125.453125-.296875 1.4375v2.0625q0 1.046875.28125 1.5625.28125.5.921875.5.609375 0 .890625-.484375.28125-.484375.28125-1.484375zm2.9375-1.640625q0-.78125.5-1.265625.515625-.5 1.34375-.5.828125 0 1.34375.484375.515625.484375.515625 1.3125v.421875q0 .78125-.515625 1.265625-.515625.484375-1.328125.484375-.84375 0-1.359375-.484375-.5-.484375-.5-1.296875zm1.125.453125q0 .34375.203125.5625.203125.21875.53125.21875.328125 0 .515625-.21875.1875-.21875.1875-.578125v-.4375q0-.359375-.1875-.5625-.1875-.21875-.53125-.21875-.328125 0-.53125.21875-.1875.203125-.1875.578125zm2.953125 4.34375q0-.796875.515625-1.265625.515625-.484375 1.328125-.484375.828125 0 1.34375.484375.515625.46875.515625 1.296875v.421875q0 .796875-.5 1.28125-.5.484375-1.34375.484375-.84375 0-1.359375-.484375-.5-.5-.5-1.296875zm1.125.453125q0 .328125.203125.5625.21875.21875.53125.21875.71875 0 .71875-.78125v-.453125q0-.34375-.203125-.5625-.203125-.21875-.53125-.21875-.328125 0-.53125.21875-.1875.21875-.1875.578125zm-3.015625 1-.828125-.4375 4.171875-6.671875.828125.4375z" fill="#9e9e9e"/><path d="m15 31.5h134l109.41473-5.799772" stroke="#757575" stroke-linecap="butt"/><path d="m260.41473 25.700228c0-1.104568-.89543-2-2-2-1.10458 0-2 .895432-2 2 0 1.10457.89542 2 2 2 1.10457 0 2-.89543 2-2" fill="#9e9e9e"/><path d="m20.578125 58.234375h-3.078125l-.59375 1.765625h-1.859375l3.171875-8.53125h1.625l3.203125 8.53125h-1.875zm-2.609375-1.421875h2.140625l-1.078125-3.1875zm9.109375 1.4375q0-.3125-.3125-.484375-.296875-.1875-.96875-.328125-2.265625-.46875-2.265625-1.921875 0-.84375.6875-1.40625.703125-.5625 1.84375-.5625 1.203125 0 1.921875.5625.734375.5625.734375 1.484375h-1.703125q0-.375-.234375-.609375-.234375-.234375-.734375-.234375-.421875 0-.65625.203125-.234375.1875-.234375.484375 0 .28125.265625.453125.265625.171875.890625.296875.640625.125 1.078125.28125 1.34375.5 1.34375 1.703125 0 .875-.75 1.421875-.734375.53125-1.921875.53125-.796875 0-1.421875-.28125-.609375-.296875-.96875-.78125-.34375-.5-.34375-1.078125h1.609375q.015625.453125.328125.703125.3125.234375.828125.234375.5 0 .734375-.1875.25-.1875.25-.484375zm8.28125-1.359375q0 1.46875-.671875 2.359375-.65625.875-1.796875.875-.953125 0-1.546875-.671875v2.984375h-1.6875v-8.78125h1.5625l.0625.625q.609375-.734375 1.609375-.734375 1.171875 0 1.8125.875.65625.859375.65625 2.375zm-1.6875-.125q0-.890625-.328125-1.359375-.3125-.484375-.90625-.484375-.796875 0-1.09375.609375v2.59375q.3125.625 1.109375.625 1.21875 0 1.21875-1.984375zm5.890625 3.359375q-1.390625 0-2.265625-.859375-.875-.859375-.875-2.28125v-.171875q0-.953125.359375-1.703125.375-.75 1.046875-1.15625.6875-.40625 1.546875-.40625 1.3125 0 2.046875.828125.75.8125.75 2.3125v.6875h-4.03125q.078125.625.484375 1 .421875.375 1.0625.375.96875 0 1.515625-.703125l.84375.921875q-.390625.546875-1.046875.859375-.640625.296875-1.4375.296875zm-.1875-5.21875q-.5 0-.8125.34375-.3125.34375-.40625.96875h2.359375v-.125q-.015625-.5625-.3125-.875-.28125-.3125-.828125-.3125zm4.828125-1.25.0625.734375q.671875-.84375 1.8125-.84375 1.015625 0 1.5.59375.5.578125.515625 1.765625v4.09375h-1.703125v-4.0625q0-.53125-.234375-.765625-.234375-.25-.78125-.25-.703125 0-1.0625.609375v4.46875h-1.703125v-6.34375z" fill="#1a1a1a"/><path d="m20.59375 74.78125h.96875v1.375h-.96875v1.84375h-1.703125v-1.84375h-3.484375l-.078125-1.0625 3.546875-5.625h1.71875zm-3.578125 0h1.875v-3l-.109375.1875zm5.71875 2.390625q0-.40625.265625-.65625.28125-.25.6875-.25.421875 0 .6875.25.28125.25.28125.65625 0 .390625-.28125.640625-.265625.25-.6875.25-.40625 0-.6875-.25-.265625-.25-.265625-.640625zm8.59375-2.703125q0 1.765625-.734375 2.71875-.734375.9375-2.140625.9375-1.40625 0-2.140625-.921875-.734375-.921875-.75-2.640625v-1.578125q0-1.78125.734375-2.703125.75-.9375 2.140625-.9375 1.390625 0 2.125.921875.75.921875.765625 2.640625zm-1.703125-1.71875q0-1.0625-.296875-1.546875-.28125-.484375-.890625-.484375-.59375 0-.890625.46875-.28125.453125-.296875 1.4375v2.0625q0 1.046875.28125 1.5625.28125.5.921875.5.609375 0 .890625-.484375.28125-.484375.28125-1.484375zm2.9375-1.640625q0-.78125.5-1.265625.515625-.5 1.34375-.5.828125 0 1.34375.484375.515625.484375.515625 1.3125v.421875q0 .78125-.515625 1.265625-.515625.484375-1.328125.484375-.84375 0-1.359375-.484375-.5-.484375-.5-1.296875zm1.125.453125q0 .34375.203125.5625.203125.21875.53125.21875.328125 0 .515625-.21875.1875-.21875.1875-.578125v-.4375q0-.359375-.1875-.5625-.1875-.21875-.53125-.21875-.328125 0-.53125.21875-.1875.203125-.1875.578125zm2.953125 4.34375q0-.796875.515625-1.265625.515625-.484375 1.328125-.484375.828125 0 1.34375.484375.515625.46875.515625 1.296875v.421875q0 .796875-.5 1.28125-.5.484375-1.34375.484375-.84375 0-1.359375-.484375-.5-.5-.5-1.296875zm1.125.453125q0 .328125.203125.5625.21875.21875.53125.21875.71875 0 .71875-.78125v-.453125q0-.34375-.203125-.5625-.203125-.21875-.53125-.21875-.328125 0-.53125.21875-.1875.21875-.1875.578125zm-3.015625 1-.828125-.4375 4.171875-6.671875.828125.4375z" fill="#9e9e9e"/><path d="m15 64.5h134l79.77518-27.19243" stroke="#757575" stroke-linecap="butt"/><path d="m230.77518 37.30757c0-1.104567-.89543-2-2-2s-2 .895433-2 2c0 1.10457.89543 2 2 2s2-.89543 2-2" fill="#9e9e9e"/><path d="m15.765625 111.985466v-8.53125h2.984375q1.546875 0 2.34375.59375.8125.59375.8125 1.75 0 .625-.328125 1.109374-.3125.46875-.890625.6875.65625.171876 1.03125.671876.390625.484374.390625 1.203124 0 1.234376-.796875 1.875-.78125.625-2.234375.640626zm1.75-3.71875v2.3125h1.515625q.609375 0 .953125-.296876.359375-.296874.359375-.828124 0-1.171876-1.21875-1.1875zm0-1.234376h1.3125q1.328125-.03125 1.328125-1.0625 0-.578124-.34375-.828124-.328125-.265626-1.0625-.265626h-1.234375zm7.921875 4.953126h-1.703125v-6.34375h1.703125zm-1.796875-7.984376q0-.375.25-.625.265625-.25.703125-.25.421875 0 .671875.25.265625.25.265625.625 0 .390626-.265625.640626-.25.234374-.6875.234374-.421875 0-.6875-.234374-.25-.25-.25-.640626zm6.578125 3.234376q-.34375-.046876-.609375-.046876-.96875 0-1.265625.640626v4.15625h-1.6875v-6.34375h1.59375l.046875.765624q.515625-.875 1.40625-.875.28125 0 .53125.078126zm3.0625 3.5q.46875 0 .765625-.25.296875-.265626.3125-.6875h1.578125q0 .640624-.34375 1.1875-.34375.53125-.953125.828124-.59375.296876-1.328125.296876-1.359375 0-2.140625-.859376-.78125-.875-.78125-2.40625v-.109374q0-1.46875.78125-2.328126.78125-.875 2.140625-.875 1.1875 0 1.90625.671876.71875.671874.71875 1.796874h-1.578125q-.015625-.484374-.3125-.796874-.296875-.3125-.765625-.3125-.59375 0-.90625.4375-.296875.4375-.296875 1.390624v.1875q0 .96875.296875 1.40625.296875.421876.90625.421876zm5.015625-4.40625q.6875-.796876 1.703125-.796876 2.0625 0 2.09375 2.390626v4.0625h-1.703125v-4.015626q0-.546874-.234375-.796874-.234375-.265626-.78125-.265626-.734375 0-1.078125.578126v4.5h-1.6875v-9h1.6875z" fill="#1a1a1a"/><path d="m21.421875 129.98546h-5.84375v-1.15625l2.765625-2.95313q.5625-.60937.828125-1.07812.28125-.46875.28125-.875 0-.57813-.296875-.89063-.28125-.32812-.8125-.32812-.578125 0-.90625.39062-.328125.39063-.328125 1.04688h-1.703125q0-.78125.375-1.42188.375-.65625 1.046875-1.01562.6875-.375 1.546875-.375 1.3125 0 2.046875.64062.734375.625.734375 1.78125 0 .64063-.328125 1.29688-.328125.65625-1.125 1.53125l-1.9375 2.04687h3.65625zm5.265625 0h-1.6875v-6.53125l-2.015625.625v-1.375l3.53125-1.26563h.171875zm3.046875-.82813q0-.40625.265625-.65625.28125-.25.6875-.25.421875 0 .6875.25.28125.25.28125.65625 0 .39063-.28125.64063-.265625.25-.6875.25-.40625 0-.6875-.25-.265625-.25-.265625-.64063zm8.40625-5.4375q0 .625-.3125 1.10938-.3125.46875-.859375.76562.625.29688.984375.82813.375.51562.375 1.21875 0 1.14062-.78125 1.8125-.765625.65625-2.109375.65625-1.328125 0-2.109375-.65625-.765625-.67188-.765625-1.8125 0-.70313.359375-1.23438.359375-.53125.984375-.8125-.546875-.29687-.859375-.76562-.3125-.48438-.3125-1.10938 0-1.09375.71875-1.73437.734375-.65625 1.984375-.65625 1.25 0 1.96875.65625.734375.64062.734375 1.73437zm-1.515625 3.79688q0-.54688-.328125-.875-.3125-.34375-.859375-.34375-.546875 0-.875.32812-.3125.32813-.3125.89063 0 .54687.3125.89062.328125.32813.890625.32813.546875 0 .859375-.3125.3125-.32813.3125-.90625zm-.171875-3.71875q0-.5-.265625-.79688-.265625-.29687-.75-.29687-.46875 0-.734375.29687-.265625.28125-.265625.79688 0 .51562.265625.82812.265625.3125.734375.3125.484375 0 .75-.3125.265625-.3125.265625-.82812zm3.109375-.70313q0-.78125.5-1.26562.515625-.5 1.34375-.5.828125 0 1.34375.48437.515625.48438.515625 1.3125v.42188q0 .78125-.515625 1.26562-.515625.48438-1.328125.48438-.84375 0-1.359375-.48438-.5-.48437-.5-1.29687zm1.125.45313q0 .34375.203125.5625.203125.21875.53125.21875.328125 0 .515625-.21875.1875-.21875.1875-.57813v-.4375q0-.35937-.1875-.5625-.1875-.21875-.53125-.21875-.328125 0-.53125.21875-.1875.20313-.1875.57813zm2.953125 4.34375q0-.79688.515625-1.26563.515625-.48437 1.328125-.48437.828125 0 1.34375.48437.515625.46875.515625 1.29688v.42187q0 .79688-.5 1.28125-.5.48438-1.34375.48438-.84375 0-1.359375-.48438-.5-.5-.5-1.29687zm1.125.45312q0 .32813.203125.5625.21875.21875.53125.21875.71875 0 .71875-.78125v-.45312q0-.34375-.203125-.5625-.203125-.21875-.53125-.21875-.328125 0-.53125.21875-.1875.21875-.1875.57812zm-3.015625 1-.828125-.4375 4.171875-6.67187.828125.4375z" fill="#9e9e9e"/><path d="m15 116.485466h134 17.20647" stroke="#757575" stroke-linecap="butt"/><path d="m168.20647 116.485466c0-1.104566-.89543-2-2-2s-2 .895434-2 2c0 1.104568.89543 2 2 2s2-.895432 2-2" fill="#9e9e9e"/><path d="m20.1875 257.80762q0-.5-.359375-.76562-.34375-.26563-1.265625-.5625-.90625-.29688-1.4375-.59376-1.453125-.78125-1.453125-2.10937 0-.6875.390625-1.23438.390625-.54687 1.109375-.84375.734375-.3125 1.640625-.3125.921875 0 1.625.34375.71875.32813 1.109375.9375.40625.59375.40625 1.35938h-1.765625q0-.57813-.375-.90625-.359375-.32813-1.03125-.32813-.640625 0-1 .28125-.359375.26563-.359375.70313 0 .42187.421875.70312.421875.28125 1.234375.53125 1.5.45313 2.1875 1.125.6875.65626.6875 1.65626 0 1.10937-.84375 1.75-.828125.625-2.25.625-.984375 0-1.796875-.35938-.8125-.375-1.234375-1-.421875-.625-.421875-1.45312h1.765625q0 1.42187 1.6875 1.42187.625 0 .96875-.25.359375-.26563.359375-.71875zm8.171875-.875q0 1.46875-.671875 2.35938-.65625.875-1.796875.875-.953125 0-1.546875-.67188v2.98438h-1.6875v-8.78126h1.5625l.0625.625q.609375-.73437 1.609375-.73437 1.171875 0 1.8125.875.65625.85937.65625 2.375zm-1.6875-.125q0-.89063-.328125-1.35938-.3125-.48437-.90625-.48437-.796875 0-1.09375.60937v2.59376q.3125.625 1.109375.625 1.21875 0 1.21875-1.98438zm6.546875-1.51563q-.34375-.04687-.609375-.04687-.96875 0-1.265625.64062v4.15626h-1.6875v-6.34376h1.59375l.046875.76563q.515625-.875 1.40625-.875.28125 0 .53125.07812zm4.234375 4.10938q-.625.76563-1.734375.76563-1.03125 0-1.5625-.59376-.53125-.59374-.546875-1.71874v-4.15626h1.6875v4.09376q0 1 .90625 1 .859375 0 1.1875-.60938v-4.48438h1.703125v6.34376h-1.59375zm5.828125-.60937q.46875 0 .765625-.25.296875-.26563.3125-.6875h1.578125q0 .64062-.34375 1.1875-.34375.53124-.953125.82812-.59375.29688-1.328125.29688-1.359375 0-2.140625-.85938-.78125-.875-.78125-2.40625v-.10937q0-1.46876.78125-2.32813.78125-.875 2.140625-.875 1.1875 0 1.90625.67187.71875.67188.71875 1.79688h-1.578125q-.015625-.48438-.3125-.79688-.296875-.3125-.765625-.3125-.59375 0-.90625.4375-.296875.4375-.296875 1.39063v.1875q0 .96875.296875 1.40625.296875.42188.90625.42188zm6.28125 1.375q-1.390625 0-2.265625-.85938-.875-.85938-.875-2.28125v-.17187q0-.95313.359375-1.70313.375-.75 1.046875-1.15625.6875-.40625 1.546875-.40625 1.3125 0 2.046875.82812.75.8125.75 2.31251v.6875h-4.03125q.078125.625.484375 1 .421875.375 1.0625.375.96875 0 1.515625-.70313l.84375.92187q-.390625.54688-1.046875.85938-.640625.29688-1.4375.29688zm-.1875-5.21876q-.5 0-.8125.34375-.3125.34375-.40625.96875h2.359375v-.125q-.015625-.5625-.3125-.875-.28125-.3125-.828125-.3125z" fill="#1a1a1a"/><path d="m21.421875 278.042h-5.84375v-1.15626l2.765625-2.95312q.5625-.60938.828125-1.07812.28125-.46876.28125-.875 0-.57813-.296875-.89063-.28125-.32813-.8125-.32813-.578125 0-.90625.39063-.328125.39063-.328125 1.04687h-1.703125q0-.78124.375-1.42187.375-.65625 1.046875-1.01563.6875-.375 1.546875-.375 1.3125 0 2.046875.64063.734375.625.734375 1.78125 0 .64062-.328125 1.29688-.328125.65624-1.125 1.53124l-1.9375 2.04688h3.65625zm5.265625 0h-1.6875v-6.53126l-2.015625.625v-1.375l3.53125-1.26562h.171875zm3.046875-.82813q0-.40625.265625-.65625.28125-.25.6875-.25.421875 0 .6875.25.28125.25.28125.65625 0 .39063-.28125.64063-.265625.25-.6875.25-.40625 0-.6875-.25-.265625-.25-.265625-.64063zm8.40625-5.4375q0 .625-.3125 1.10937-.3125.46876-.859375.76563.625.29687.984375.82813.375.51562.375 1.21874 0 1.14063-.78125 1.8125-.765625.65626-2.109375.65626-1.328125 0-2.109375-.65626-.765625-.67187-.765625-1.8125 0-.70312.359375-1.23437.359375-.53125.984375-.8125-.546875-.29687-.859375-.76563-.3125-.48437-.3125-1.10937 0-1.09375.71875-1.73437.734375-.65626 1.984375-.65626 1.25 0 1.96875.65626.734375.64062.734375 1.73437zm-1.515625 3.79687q0-.54687-.328125-.875-.3125-.34374-.859375-.34374-.546875 0-.875.32812-.3125.32812-.3125.89062 0 .54688.3125.89063.328125.32813.890625.32813.546875 0 .859375-.3125.3125-.32813.3125-.90626zm-.171875-3.71874q0-.5-.265625-.79688-.265625-.29688-.75-.29688-.46875 0-.734375.29688-.265625.28125-.265625.79688 0 .51562.265625.82812.265625.3125.734375.3125.484375 0 .75-.3125.265625-.3125.265625-.82812zm3.109375-.70313q0-.78125.5-1.26563.515625-.5 1.34375-.5.828125 0 1.34375.48438.515625.48438.515625 1.3125v.42188q0 .78124-.515625 1.26562-.515625.48438-1.328125.48438-.84375 0-1.359375-.48438-.5-.48438-.5-1.29688zm1.125.45313q0 .34374.203125.5625.203125.21874.53125.21874.328125 0 .515625-.21874.1875-.21876.1875-.57813v-.4375q0-.35937-.1875-.5625-.1875-.21875-.53125-.21875-.328125 0-.53125.21875-.1875.20313-.1875.57813zm2.953125 4.34374q0-.79687.515625-1.26562.515625-.48438 1.328125-.48438.828125 0 1.34375.48438.515625.46875.515625 1.29688v.42187q0 .79687-.5 1.28125-.5.48438-1.34375.48438-.84375 0-1.359375-.48438-.5-.5-.5-1.29688zm1.125.45313q0 .32813.203125.5625.21875.21875.53125.21875.71875 0 .71875-.78125v-.45313q0-.34374-.203125-.5625-.203125-.21874-.53125-.21874-.328125 0-.53125.21874-.1875.21876-.1875.57813zm-3.015625 1-.828125-.4375 4.171875-6.67187.828125.4375z" fill="#9e9e9e"/><path d="m15 264.542h134 83.30951" stroke="#757575" stroke-linecap="butt"/><path d="m234.30951 264.542c0-1.10456-.89543-2-2-2s-2 .89544-2 2c0 1.10458.89543 2 2 2s2-.89542 2-2" fill="#9e9e9e"/><path d="m520.5156 128.56537v3h-1.75v-8.53125h3.32815q.95315 0 1.6875.35937.73435.34375 1.125 1 .39065.64063.39065 1.46875 0 1.25-.8594 1.98438-.8594.71875-2.375.71875zm0-1.4375h1.57815q.6875 0 1.04685-.32813.375-.32812.375-.9375 0-.625-.375-1-.35935-.39062-1.0156-.40625h-1.6094zm7.9219 4.4375h-1.7031v-6.34375h1.7031zm-1.7969-7.98438q0-.375.25-.625.26565-.25.70315-.25.42185 0 .67185.25.26565.25.26565.625 0 .39063-.26565.64063-.25.23437-.6875.23437-.42185 0-.6875-.23437-.25-.25-.25-.64063zm4.5625 1.64063.0625.73437q.6719-.84375 1.8125-.84375 1.01565 0 1.5.59375.5.57813.51565 1.76563v4.09375h-1.70315v-4.0625q0-.53125-.23435-.76563-.23435-.25-.78125-.25-.7031 0-1.0625.60938v4.46875h-1.7031v-6.34375zm8.3594 6.46875q-1.3906 0-2.2656-.85937-.875-.85938-.875-2.28126v-.17187q0-.95313.35935-1.70313.375-.75 1.04685-1.15625.6875-.40625 1.5469-.40625 1.3125 0 2.0469.82813.75.8125.75 2.3125v.6875h-4.0313q.07815.625.4844 1 .4219.375 1.0625.375.96875 0 1.5156-.70313l.8438.92188q-.39065.54688-1.0469.85938-.6406.29687-1.4375.29687zm-.1875-5.21875q-.5 0-.8125.34375-.3125.34375-.40625.96875h2.35935v-.125q-.0156-.5625-.3125-.875-.2812-.3125-.8281-.3125zm8.2969-2.8125v1.5625h1.0937v1.25h-1.0937v3.15625q0 .35937.1406.51563.1406.14062.5156.14062.2813 0 .5-.03125v1.28125q-.5.15625-1.0312.15625-1.7813 0-1.8125-1.8125v-3.40625h-.9219v-1.25h.9219v-1.5625zm5.54685 3.15625q-.34375-.04688-.60935-.04688-.9688 0-1.26565.64063v4.15625h-1.6875v-6.34375h1.59375l.0469.76562q.5156-.875 1.4062-.875.2813 0 .5313.07813zm3.34375 4.875q-1.3906 0-2.2656-.85937-.875-.85938-.875-2.28126v-.17187q0-.95313.35935-1.70313.375-.75 1.04685-1.15625.6875-.40625 1.5469-.40625 1.3125 0 2.0469.82813.75.8125.75 2.3125v.6875h-4.0313q.07815.625.4844 1 .4219.375 1.0625.375.96875 0 1.5156-.70313l.8438.92188q-.39065.54688-1.0469.85938-.6406.29687-1.4375.29687zm-.1875-5.21875q-.5 0-.8125.34375-.3125.34375-.40625.96875h2.35935v-.125q-.0156-.5625-.3125-.875-.2812-.3125-.8281-.3125zm6.1875 5.21875q-1.3906 0-2.2656-.85937-.875-.85938-.875-2.28126v-.17187q0-.95313.35935-1.70313.375-.75 1.04685-1.15625.6875-.40625 1.5469-.40625 1.3125 0 2.0469.82813.75.8125.75 2.3125v.6875h-4.0313q.07815.625.4844 1 .4219.375 1.0625.375.96875 0 1.5156-.70313l.8438.92188q-.39065.54688-1.0469.85938-.6406.29687-1.4375.29687zm-.1875-5.21875q-.5 0-.8125.34375-.3125.34375-.40625.96875h2.35935v-.125q-.0156-.5625-.3125-.875-.2812-.3125-.8281-.3125z" fill="#1a1a1a"/><path d="m537.59375 146.34662h.96875v1.375h-.96875v1.84375h-1.70315v-1.84375h-3.48435l-.07815-1.0625 3.5469-5.625h1.71875zm-3.57815 0h1.875v-3l-.10935.1875zm10.1563-5.40625v1.40625h-.1563q-1.1562.01562-1.85935.59375-.6875.57813-.82815 1.60937.6719-.6875 1.70315-.6875 1.125 0 1.78125.79688.65625.79688.65625 2.09375 0 .82813-.35935 1.5-.3594.67187-1.0313 1.0625-.6562.375-1.48435.375-1.34375 0-2.17185-.9375-.82815-.95313-.82815-2.51563v-.60937q0-1.39063.51565-2.45313.5312-1.0625 1.5-1.64062.98435-.57812 2.2812-.59375zm-1.6563 4.28125q-.4062 0-.75.21875-.3281.20313-.48435.5625v.51563q0 .84374.32815 1.32812.3437.46875.9531.46875.5469 0 .875-.42187.34375-.4375.34375-1.125 0-.70313-.34375-1.125-.34375-.42188-.9219-.42188zm4.2188 3.51562q0-.40624.2656-.65624.28125-.25.6875-.25.4219 0 .6875.25.28125.25.28125.65624 0 .39063-.28125.64063-.2656.25-.6875.25-.40625 0-.6875-.25-.2656-.25-.2656-.64063zm3.0937-3.375.5-4.32812h4.7813v1.40625h-3.39065l-.21875 1.84375q.6094-.32812 1.28125-.32812 1.21875 0 1.90625.76562.7031.75.7031 2.10938 0 .82812-.35935 1.48437-.34375.64063-1 1.01563-.64065.35937-1.53125.35937-.7656 0-1.4375-.3125-.65625-.32813-1.0469-.89063-.375-.5625-.4062-1.29687h1.6875q.04685.53125.35935.82813.32815.29687.84375.29687.5781 0 .875-.40625.3125-.42188.3125-1.17188 0-.73437-.3594-1.10937-.3437-.39063-1-.39063-.60935 0-.98435.3125l-.15625.15626zm6.7344-2.6875q0-.78124.5-1.26562.5156-.5 1.34375-.5.82815 0 1.34375.48438.5156.48437.5156 1.3125v.42187q0 .78125-.5156 1.26563-.5156.48437-1.3281.48437-.8438 0-1.3594-.48437-.5-.48438-.5-1.29688zm1.125.45313q0 .34375.2031.5625.20315.21875.5313.21875.3281 0 .5156-.21875.1875-.21875.1875-.57813v-.4375q0-.35937-.1875-.5625-.1875-.21874-.53125-.21874-.32815 0-.53125.21874-.1875.20313-.1875.57813zm2.9531 4.34375q0-.79688.51565-1.26562.51565-.48438 1.32815-.48438.8281 0 1.3437.48438.51565.46874.51565 1.29687v.42187q0 .79688-.5 1.28126-.5.48437-1.34375.48437-.84375 0-1.3594-.48437-.5-.5-.5-1.29688zm1.125.45312q0 .32813.20315.5625.21875.21876.53125.21876.71875 0 .71875-.78126v-.45312q0-.34375-.20315-.5625-.2031-.21875-.5312-.21875-.32815 0-.5313.21875-.1875.21875-.1875.57812zm-3.0156 1-.8281-.4375 4.17185-6.67187.82815.4375z" fill="#9e9e9e"/><path d="m565 136.06537h-134-13.50925" stroke="#757575" stroke-linecap="butt"/><path d="m419.49075 136.06537c0-1.10459-.89545-2-2-2-1.10458 0-2 .89541-2 2 0 1.10457.89542 2 2 2 1.10455 0 2-.89543 2-2" fill="#9e9e9e"/></svg>