<svg fill="none" height="300" stroke-linecap="square" stroke-miterlimit="10" viewBox="0 0 580 300" width="580" xmlns="http://www.w3.org/2000/svg"><path d="m0 0h580v300h-580z" fill="none"/><path d="m290 15c52.51654 0 100.26706 30.455738 122.41147 78.07521l-30.60287 14.231194c-16.60828-35.714599-52.42118-58.556404-91.8086-58.556404z" fill="#ffc000"/><path d="m269.63873 16.544321c6.73837-1.028071 13.54492-1.544321 20.36127-1.544321v33.75c-5.11227 0-10.2172.387188-15.27097 1.15824z" fill="#70ad47"/><path d="m230.76888 28.687704c12.26806-5.989924 25.37372-10.084288 38.86985-12.143383l5.0903 33.363919c-10.12207 1.54432-19.95133 4.615095-29.15237 9.107538z" fill="#a64d79"/><path d="m155.21753 142.33939c2.77142-48.7612 31.66334-92.22323 75.55135-113.651686l14.80778 30.328074c-32.916 16.071342-54.58495 48.667872-56.66351 85.238772z" fill="#38761d"/><path d="m193.64157 244.55186c-26.63061-27.13945-40.58167-64.25086-38.42404-102.21247l33.69562 1.91516c-1.61821 28.4712 8.84506 56.30476 28.81804 76.65935z" fill="#4472c4"/><path d="m412.41147 93.07521c27.71563 59.59992 8.47845 130.49878-45.56107 167.91585-54.03952 37.41704-127.17325 30.47594-173.20883-16.4392l24.08962-23.63796c34.52668 35.18638 89.37696 40.3922 129.90661 12.3294s54.95754-81.23695 34.1708-125.936896z" fill="#c00000"/><path d="m17.515625 24v3h-1.75v-8.53125h3.328125q.953125 0 1.6875.359375.734375.34375 1.125 1 .390625.640625.390625 1.46875 0 1.25-.859375 1.984375-.859375.71875-2.375.71875zm0-1.4375h1.578125q.6875 0 1.046875-.328125.375-.328125.375-.9375 0-.625-.375-1-.359375-.390625-1.015625-.40625h-1.609375zm9.8125 4.4375q-.125-.234375-.171875-.5625-.609375.6875-1.59375.6875-.9375 0-1.546875-.546875-.609375-.546875-.609375-1.359375 0-1.015625.734375-1.546875.75-.546875 2.171875-.546875h.765625v-.359375q0-.4375-.21875-.703125-.21875-.265625-.71875-.265625-.421875 0-.671875.203125-.234375.203125-.234375.5625h-1.6875q0-.546875.328125-1.015625.34375-.46875.96875-.734375.625-.265625 1.390625-.265625 1.171875 0 1.859375.59375.6875.578125.6875 1.640625v2.75q.015625.90625.25 1.375v.09375zm-1.40625-1.171875q.375 0 .6875-.171875.328125-.171875.46875-.453125v-1.09375h-.625q-1.265625 0-1.359375.890625v.09375q0 .3125.21875.53125.21875.203125.609375.203125zm2.34375-6.375h-4.046875v-.96875h4.046875zm4.953125 2.796875q-.34375-.046875-.609375-.046875-.96875 0-1.265625.640625v4.15625h-1.6875v-6.34375h1.59375l.046875.765625q.515625-.875 1.40625-.875.28125 0 .53125.078125zm3.34375 4.875q-1.390625 0-2.265625-.859375-.875-.859375-.875-2.28125v-.171875q0-.953125.359375-1.703125.375-.75 1.046875-1.15625.6875-.40625 1.546875-.40625 1.3125 0 2.046875.828125.75.8125.75 2.3125v.6875h-4.03125q.078125.625.484375 1 .421875.375 1.0625.375.96875 0 1.515625-.703125l.84375.921875q-.390625.546875-1.046875.859375-.640625.296875-1.4375.296875zm-.1875-5.21875q-.5 0-.8125.34375-.3125.34375-.40625.96875h2.359375v-.125q-.015625-.5625-.3125-.875-.28125-.3125-.828125-.3125zm1.84375-2.453125h-4.046875v-.96875h4.046875zm3.21875 1.203125v6.6875q0 1.046875-.5625 1.625-.546875.59375-1.59375.59375-.4375 0-.84375-.09375v-1.34375q.3125.046875.53125.046875.78125 0 .78125-.8125v-6.703125zm-1.828125-1.640625q0-.375.25-.625.265625-.25.703125-.25.4375 0 .6875.25.265625.25.265625.625 0 .390625-.265625.640625-.265625.234375-.703125.234375-.421875 0-.6875-.234375-.25-.25-.25-.640625zm6.71875 7.984375q-.125-.234375-.171875-.5625-.609375.6875-1.59375.6875-.9375 0-1.546875-.546875-.609375-.546875-.609375-1.359375 0-1.015625.734375-1.546875.75-.546875 2.171875-.546875h.765625v-.359375q0-.4375-.21875-.703125-.21875-.265625-.71875-.265625-.421875 0-.671875.203125-.234375.203125-.234375.5625h-1.6875q0-.546875.328125-1.015625.34375-.46875.96875-.734375.625-.265625 1.390625-.265625 1.171875 0 1.859375.59375.6875.578125.6875 1.640625v2.75q.015625.90625.25 1.375v.09375zm-1.40625-1.171875q.375 0 .6875-.171875.328125-.171875.46875-.453125v-1.09375h-.625q-1.265625 0-1.359375.890625v.09375q0 .3125.21875.53125.21875.203125.609375.203125zm2.34375-6.375h-4.046875v-.96875h4.046875zm4.8125 5.796875q0-.3125-.3125-.484375-.296875-.1875-.96875-.328125-2.265625-.46875-2.265625-1.921875 0-.84375.6875-1.40625.703125-.5625 1.84375-.5625 1.203125 0 1.921875.5625.734375.5625.734375 1.484375h-1.703125q0-.375-.234375-.609375-.234375-.234375-.734375-.234375-.421875 0-.65625.203125-.234375.1875-.234375.484375 0 .28125.265625.453125.265625.171875.890625.296875.640625.125 1.078125.28125 1.34375.5 1.34375 1.703125 0 .875-.75 1.421875-.734375.53125-1.921875.53125-.796875 0-1.421875-.28125-.609375-.296875-.96875-.78125-.34375-.5-.34375-1.078125h1.609375q.015625.453125.328125.703125.3125.234375.828125.234375.5 0 .734375-.1875.25-.1875.25-.484375zm9 0q0-.3125-.3125-.484375-.296875-.1875-.96875-.328125-2.265625-.46875-2.265625-1.921875 0-.84375.6875-1.40625.703125-.5625 1.84375-.5625 1.203125 0 1.921875.5625.734375.5625.734375 1.484375h-1.703125q0-.375-.234375-.609375-.234375-.234375-.734375-.234375-.421875 0-.65625.203125-.234375.1875-.234375.484375 0 .28125.265625.453125.265625.171875.890625.296875.640625.125 1.078125.28125 1.34375.5 1.34375 1.703125 0 .875-.75 1.421875-.734375.53125-1.921875.53125-.796875 0-1.421875-.28125-.609375-.296875-.96875-.78125-.34375-.5-.34375-1.078125h1.609375q.015625.453125.328125.703125.3125.234375.828125.234375.5 0 .734375-.1875.25-.1875.25-.484375zm6.375 1.109375q-.625.765625-1.734375.765625-1.03125 0-1.5625-.59375-.53125-.59375-.546875-1.71875v-4.15625h1.6875v4.09375q0 1 .90625 1 .859375 0 1.1875-.609375v-4.484375h1.703125v6.34375h-1.59375zm2.953125-2.578125q0-1.453125.6875-2.34375.703125-.890625 1.875-.890625 1.046875 0 1.625.703125l.078125-.59375h1.53125v6.125q0 .84375-.390625 1.453125-.375.625-1.0625.9375-.671875.328125-1.59375.328125-.703125 0-1.375-.28125-.65625-.28125-.984375-.71875l.75-1.03125q.625.703125 1.53125.703125.671875 0 1.046875-.359375.375-.359375.375-1.015625v-.34375q-.578125.671875-1.546875.671875-1.140625 0-1.84375-.890625-.703125-.90625-.703125-2.375zm1.6875.125q0 .859375.34375 1.359375.359375.484375.953125.484375.78125 0 1.109375-.578125v-2.671875q-.34375-.578125-1.09375-.578125-.609375 0-.96875.5-.34375.5-.34375 1.484375zm9.234375 3.09375q-.125-.234375-.171875-.5625-.609375.6875-1.59375.6875-.9375 0-1.546875-.546875-.609375-.546875-.609375-1.359375 0-1.015625.734375-1.546875.75-.546875 2.171875-.546875h.765625v-.359375q0-.4375-.21875-.703125-.21875-.265625-.71875-.265625-.421875 0-.671875.203125-.234375.203125-.234375.5625h-1.6875q0-.546875.328125-1.015625.34375-.46875.96875-.734375.625-.265625 1.390625-.265625 1.171875 0 1.859375.59375.6875.578125.6875 1.640625v2.75q.015625.90625.25 1.375v.09375zm-1.40625-1.171875q.375 0 .6875-.171875.328125-.171875.46875-.453125v-1.09375h-.625q-1.265625 0-1.359375.890625v.09375q0 .3125.21875.53125.21875.203125.609375.203125zm7.15625-.578125q0-.3125-.3125-.484375-.296875-.1875-.96875-.328125-2.265625-.46875-2.265625-1.921875 0-.84375.6875-1.40625.703125-.5625 1.84375-.5625 1.203125 0 1.921875.5625.734375.5625.734375 1.484375h-1.703125q0-.375-.234375-.609375-.234375-.234375-.734375-.234375-.421875 0-.65625.203125-.234375.1875-.234375.484375 0 .28125.265625.453125.265625.171875.890625.296875.640625.125 1.078125.28125 1.34375.5 1.34375 1.703125 0 .875-.75 1.421875-.734375.53125-1.921875.53125-.796875 0-1.421875-.28125-.609375-.296875-.96875-.78125-.34375-.5-.34375-1.078125h1.609375q.015625.453125.328125.703125.3125.234375.828125.234375.5 0 .734375-.1875.25-.1875.25-.484375z" fill="#1a1a1a"/><path d="m21.421875 45h-5.84375v-1.15625l2.765625-2.953125q.5625-.609375.828125-1.078125.28125-.46875.28125-.875 0-.578125-.296875-.890625-.28125-.328125-.8125-.328125-.578125 0-.90625.390625-.328125.390625-.328125 1.046875h-1.703125q0-.78125.375-1.421875.375-.65625 1.046875-1.015625.6875-.375 1.546875-.375 1.3125 0 2.046875.640625.734375.625.734375 1.78125 0 .640625-.328125 1.296875-.328125.65625-1.125 1.53125l-1.9375 2.046875h3.65625zm1.3125-.828125q0-.40625.265625-.65625.28125-.25.6875-.25.421875 0 .6875.25.28125.25.28125.65625 0 .390625-.28125.640625-.265625.25-.6875.25-.40625 0-.6875-.25-.265625-.25-.265625-.640625zm7.859375-2.390625h.96875v1.375h-.96875v1.84375h-1.703125v-1.84375h-3.484375l-.078125-1.0625 3.546875-5.625h1.71875zm-3.578125 0h1.875v-3l-.109375.1875zm5.546875-3.671875q0-.78125.5-1.265625.515625-.5 1.34375-.5.828125 0 1.34375.484375.515625.484375.515625 1.3125v.421875q0 .78125-.515625 1.265625-.515625.484375-1.328125.484375-.84375 0-1.359375-.484375-.5-.484375-.5-1.296875zm1.125.453125q0 .34375.203125.5625.203125.21875.53125.21875.328125 0 .515625-.21875.1875-.21875.1875-.578125v-.4375q0-.359375-.1875-.5625-.1875-.21875-.53125-.21875-.328125 0-.53125.21875-.1875.203125-.1875.578125zm2.953125 4.34375q0-.796875.515625-1.265625.515625-.484375 1.328125-.484375.828125 0 1.34375.484375.515625.46875.515625 1.296875v.421875q0 .796875-.5 1.28125-.5.484375-1.34375.484375-.84375 0-1.359375-.484375-.5-.5-.5-1.296875zm1.125.453125q0 .328125.203125.5625.21875.21875.53125.21875.71875 0 .71875-.78125v-.453125q0-.34375-.203125-.5625-.203125-.21875-.53125-.21875-.328125 0-.53125.21875-.1875.21875-.1875.578125zm-3.015625 1-.828125-.4375 4.171875-6.671875.828125.4375z" fill="#9e9e9e"/><path d="m15 31.5h134l131.3006-9.382698" stroke="#757575" stroke-linecap="butt"/><path d="m282.3006 22.117302c0-1.104569-.89542-2-2-2-1.10456 0-2 .895431-2 2 0 1.10457.89544 2 2 2 1.10458 0 2-.89543 2-2" fill="#9e9e9e"/><path d="m18.0625 51.46875 2.1875 6.1875 2.1875-6.1875h2.296875v8.53125h-1.765625v-2.328125l.1875-4.03125-2.3125 6.359375h-1.203125l-2.296875-6.359375.171875 4.03125v2.328125h-1.75v-8.53125zm11.5 8.65625q-1.390625 0-2.265625-.859375-.875-.859375-.875-2.28125v-.171875q0-.953125.359375-1.703125.375-.75 1.046875-1.15625.6875-.40625 1.546875-.40625 1.3125 0 2.046875.828125.75.8125.75 2.3125v.6875h-4.03125q.078125.625.484375 1 .421875.375 1.0625.375.96875 0 1.515625-.703125l.84375.921875q-.390625.546875-1.046875.859375-.640625.296875-1.4375.296875zm-.1875-5.21875q-.5 0-.8125.34375-.3125.34375-.40625.96875h2.359375v-.125q-.015625-.5625-.3125-.875-.28125-.3125-.828125-.3125zm5.0625 5.09375h-1.703125v-9h1.703125zm2.765625-6.34375.0625.734375q.671875-.84375 1.8125-.84375 1.015625 0 1.5.59375.5.578125.515625 1.765625v4.09375h-1.703125v-4.0625q0-.53125-.234375-.765625-.234375-.25-.78125-.25-.703125 0-1.0625.609375v4.46875h-1.703125v-6.34375zm9.125 6.34375q-.125-.234375-.171875-.5625-.609375.6875-1.59375.6875-.9375 0-1.546875-.546875-.609375-.546875-.609375-1.359375 0-1.015625.734375-1.546875.75-.546875 2.171875-.546875h.765625v-.359375q0-.4375-.21875-.703125-.21875-.265625-.71875-.265625-.421875 0-.671875.203125-.234375.203125-.234375.5625h-1.6875q0-.546875.328125-1.015625.34375-.46875.96875-.734375.625-.265625 1.390625-.265625 1.171875 0 1.859375.59375.6875.578125.6875 1.640625v2.75q.015625.90625.25 1.375v.09375zm-1.40625-1.171875q.375 0 .6875-.171875.328125-.171875.46875-.453125v-1.09375h-.625q-1.265625 0-1.359375.890625v.09375q0 .3125.21875.53125.21875.203125.609375.203125zm5.515625 1.171875h-1.703125v-9h1.703125zm3.515625-2.546875-.609375.609375v1.9375h-1.6875v-9h1.6875v4.984375l.328125-.421875 1.625-1.90625h2.03125l-2.296875 2.640625 2.5 3.703125h-1.953125zm7.125.796875q0-.3125-.3125-.484375-.296875-.1875-.96875-.328125-2.265625-.46875-2.265625-1.921875 0-.84375.6875-1.40625.703125-.5625 1.84375-.5625 1.203125 0 1.921875.5625.734375.5625.734375 1.484375h-1.703125q0-.375-.234375-.609375-.234375-.234375-.734375-.234375-.421875 0-.65625.203125-.234375.1875-.234375.484375 0 .28125.265625.453125.265625.171875.890625.296875.640625.125 1.078125.28125 1.34375.5 1.34375 1.703125 0 .875-.75 1.421875-.734375.53125-1.921875.53125-.796875 0-1.421875-.28125-.609375-.296875-.96875-.78125-.34375-.5-.34375-1.078125h1.609375q.015625.453125.328125.703125.3125.234375.828125.234375.5 0 .734375-.1875.25-.1875.25-.484375zm4.125-4.59375.0625.734375q.671875-.84375 1.8125-.84375 1.015625 0 1.5.59375.5.578125.515625 1.765625v4.09375h-1.703125v-4.0625q0-.53125-.234375-.765625-.234375-.25-.78125-.25-.703125 0-1.0625.609375v4.46875h-1.703125v-6.34375zm7.234375 6.34375h-1.703125v-6.34375h1.703125zm-1.796875-7.984375q0-.375.25-.625.265625-.25.703125-.25.421875 0 .671875.25.265625.25.265625.625 0 .390625-.265625.640625-.25.234375-.6875.234375-.421875 0-.6875-.234375-.25-.25-.25-.640625zm6.4375 6.234375q0-.3125-.3125-.484375-.296875-.1875-.96875-.328125-2.265625-.46875-2.265625-1.921875 0-.84375.6875-1.40625.703125-.5625 1.84375-.5625 1.203125 0 1.921875.5625.734375.5625.734375 1.484375h-1.703125q0-.375-.234375-.609375-.234375-.234375-.734375-.234375-.421875 0-.65625.203125-.234375.1875-.234375.484375 0 .28125.265625.453125.265625.171875.890625.296875.640625.125 1.078125.28125 1.34375.5 1.34375 1.703125 0 .875-.75 1.421875-.734375.53125-1.921875.53125-.796875 0-1.421875-.28125-.609375-.296875-.96875-.78125-.34375-.5-.34375-1.078125h1.609375q.015625.453125.328125.703125.3125.234375.828125.234375.5 0 .734375-.1875.25-.1875.25-.484375z" fill="#1a1a1a"/><path d="m20.59375 74.78125h.96875v1.375h-.96875v1.84375h-1.703125v-1.84375h-3.484375l-.078125-1.0625 3.546875-5.625h1.71875zm-3.578125 0h1.875v-3l-.109375.1875zm5.71875 2.390625q0-.40625.265625-.65625.28125-.25.6875-.25.421875 0 .6875.25.28125.25.28125.65625 0 .390625-.28125.640625-.265625.25-.6875.25-.40625 0-.6875-.25-.265625-.25-.265625-.640625zm8.40625-5.4375q0 .625-.3125 1.109375-.3125.46875-.859375.765625.625.296875.984375.828125.375.515625.375 1.21875 0 1.140625-.78125 1.8125-.765625.65625-2.109375.65625-1.328125 0-2.109375-.65625-.765625-.671875-.765625-1.8125 0-.703125.359375-1.234375.359375-.53125.984375-.8125-.546875-.296875-.859375-.765625-.3125-.484375-.3125-1.109375 0-1.09375.71875-1.734375.734375-.65625 1.984375-.65625 1.25 0 1.96875.65625.734375.640625.734375 1.734375zm-1.515625 3.796875q0-.546875-.328125-.875-.3125-.34375-.859375-.34375-.546875 0-.875.328125-.3125.328125-.3125.890625 0 .546875.3125.890625.328125.328125.890625.328125.546875 0 .859375-.3125.3125-.328125.3125-.90625zm-.171875-3.71875q0-.5-.265625-.796875-.265625-.296875-.75-.296875-.46875 0-.734375.296875-.265625.28125-.265625.796875 0 .515625.265625.828125.265625.3125.734375.3125.484375 0 .75-.3125.265625-.3125.265625-.828125zm3.109375-.703125q0-.78125.5-1.265625.515625-.5 1.34375-.5.828125 0 1.34375.484375.515625.484375.515625 1.3125v.421875q0 .78125-.515625 1.265625-.515625.484375-1.328125.484375-.84375 0-1.359375-.484375-.5-.484375-.5-1.296875zm1.125.453125q0 .34375.203125.5625.203125.21875.53125.21875.328125 0 .515625-.21875.1875-.21875.1875-.578125v-.4375q0-.359375-.1875-.5625-.1875-.21875-.53125-.21875-.328125 0-.53125.21875-.1875.203125-.1875.578125zm2.953125 4.34375q0-.796875.515625-1.265625.515625-.484375 1.328125-.484375.828125 0 1.34375.484375.515625.46875.515625 1.296875v.421875q0 .796875-.5 1.28125-.5.484375-1.34375.484375-.84375 0-1.359375-.484375-.5-.5-.5-1.296875zm1.125.453125q0 .328125.203125.5625.21875.21875.53125.21875.71875 0 .71875-.78125v-.453125q0-.34375-.203125-.5625-.203125-.21875-.53125-.21875-.328125 0-.53125.21875-.1875.21875-.1875.578125zm-3.015625 1-.828125-.4375 4.171875-6.671875.828125.4375z" fill="#9e9e9e"/><path d="m15 64.5h134l102.75612-36.915146" stroke="#757575" stroke-linecap="butt"/><path d="m253.75612 27.584854c0-1.10457-.89543-2-2-2s-2 .89543-2 2c0 1.104569.89543 2 2 2s2-.895431 2-2" fill="#9e9e9e"/><path d="m15.765625 93v-8.53125h2.984375q1.546875 0 2.34375.59375.8125.59375.8125 1.75 0 .625-.328125 1.109375-.3125.46875-.890625.6875.65625.171875 1.03125.671875.390625.484375.390625 1.203125 0 1.234375-.796875 1.875-.78125.625-2.234375.640625zm1.75-3.71875v2.3125h1.515625q.609375 0 .953125-.296875.359375-.296875.359375-.828125 0-1.171875-1.21875-1.1875zm0-1.234375h1.3125q1.328125-.03125 1.328125-1.0625 0-.578125-.34375-.828125-.328125-.265625-1.0625-.265625h-1.234375zm9.8125 4.953125q-.125-.234375-.171875-.5625-.609375.6875-1.59375.6875-.9375 0-1.546875-.546875-.609375-.546875-.609375-1.359375 0-1.015625.734375-1.546875.75-.546875 2.171875-.546875h.765625v-.359375q0-.4375-.21875-.703125-.21875-.265625-.71875-.265625-.421875 0-.671875.203125-.234375.203125-.234375.5625h-1.6875q0-.546875.328125-1.015625.34375-.46875.96875-.734375.625-.265625 1.390625-.265625 1.171875 0 1.859375.59375.6875.578125.6875 1.640625v2.75q.015625.90625.25 1.375v.09375zm-1.40625-1.171875q.375 0 .6875-.171875.328125-.171875.46875-.453125v-1.09375h-.625q-1.265625 0-1.359375.890625v.09375q0 .3125.21875.53125.21875.203125.609375.203125zm5.515625 1.171875h-1.703125v-9h1.703125zm3.234375-7.90625v1.5625h1.09375v1.25h-1.09375v3.15625q0 .359375.140625.515625.140625.140625.515625.140625.28125 0 .5-.03125v1.28125q-.5.15625-1.03125.15625-1.78125 0-1.8125-1.8125v-3.40625h-.921875v-1.25h.921875v-1.5625zm5.65625 7.90625q-.125-.234375-.171875-.5625-.609375.6875-1.59375.6875-.9375 0-1.546875-.546875-.609375-.546875-.609375-1.359375 0-1.015625.734375-1.546875.75-.546875 2.171875-.546875h.765625v-.359375q0-.4375-.21875-.703125-.21875-.265625-.71875-.265625-.421875 0-.671875.203125-.234375.203125-.234375.5625h-1.6875q0-.546875.328125-1.015625.34375-.46875.96875-.734375.625-.265625 1.390625-.265625 1.171875 0 1.859375.59375.6875.578125.6875 1.640625v2.75q.015625.90625.25 1.375v.09375zm-1.40625-1.171875q.375 0 .6875-.171875.328125-.171875.46875-.453125v-1.09375h-.625q-1.265625 0-1.359375.890625v.09375q0 .3125.21875.53125.21875.203125.609375.203125zm5.515625 1.171875h-1.703125v-9h1.703125zm3.515625-2.546875-.609375.609375v1.9375h-1.6875v-9h1.6875v4.984375l.328125-.421875 1.625-1.90625h2.03125l-2.296875 2.640625 2.5 3.703125h-1.953125zm7.125.796875q0-.3125-.3125-.484375-.296875-.1875-.96875-.328125-2.265625-.46875-2.265625-1.921875 0-.84375.6875-1.40625.703125-.5625 1.84375-.5625 1.203125 0 1.921875.5625.734375.5625.734375 1.484375h-1.703125q0-.375-.234375-.609375-.234375-.234375-.734375-.234375-.421875 0-.65625.203125-.234375.1875-.234375.484375 0 .28125.265625.453125.265625.171875.890625.296875.640625.125 1.078125.28125 1.34375.5 1.34375 1.703125 0 .875-.75 1.421875-.734375.53125-1.921875.53125-.796875 0-1.421875-.28125-.609375-.296875-.96875-.78125-.34375-.5-.34375-1.078125h1.609375q.015625.453125.328125.703125.3125.234375.828125.234375.5 0 .734375-.1875.25-.1875.25-.484375zm4.125-4.59375.0625.734375q.671875-.84375 1.8125-.84375 1.015625 0 1.5.59375.5.578125.515625 1.765625v4.09375h-1.703125v-4.0625q0-.53125-.234375-.765625-.234375-.25-.78125-.25-.703125 0-1.0625.609375v4.46875h-1.703125v-6.34375zm7.234375 6.34375h-1.703125v-6.34375h1.703125zm-1.796875-7.984375q0-.375.25-.625.265625-.25.703125-.25.421875 0 .671875.25.265625.25.265625.625 0 .390625-.265625.640625-.25.234375-.6875.234375-.421875 0-.6875-.234375-.25-.25-.25-.640625zm6.4375 6.234375q0-.3125-.3125-.484375-.296875-.1875-.96875-.328125-2.265625-.46875-2.265625-1.921875 0-.84375.6875-1.40625.703125-.5625 1.84375-.5625 1.203125 0 1.921875.5625.734375.5625.734375 1.484375h-1.703125q0-.375-.234375-.609375-.234375-.234375-.734375-.234375-.421875 0-.65625.203125-.234375.1875-.234375.484375 0 .28125.265625.453125.265625.171875.890625.296875.640625.125 1.078125.28125 1.34375.5 1.34375 1.703125 0 .875-.75 1.421875-.734375.53125-1.921875.53125-.796875 0-1.421875-.28125-.609375-.296875-.96875-.78125-.34375-.5-.34375-1.078125h1.609375q.015625.453125.328125.703125.3125.234375.828125.234375.5 0 .734375-.1875.25-.1875.25-.484375z" fill="#1a1a1a"/><path d="m19.6875 111h-1.6875v-6.53125l-2.015625.625v-1.375l3.53125-1.265625h.171875zm7.484375-8.625v1.40625h-.15625q-1.15625.015625-1.859375.59375-.6875.578125-.828125 1.609375.671875-.6875 1.703125-.6875 1.125 0 1.78125.796875.65625.796875.65625 2.09375 0 .828125-.359375 1.5-.359375.671875-1.03125 1.0625-.65625.375-1.484375.375-1.34375 0-2.171875-.9375-.828125-.953125-.828125-2.515625v-.609375q0-1.390625.515625-2.453125.53125-1.0625 1.5-1.640625.984375-.578125 2.28125-.59375zm-1.65625 4.28125q-.40625 0-.75.21875-.328125.203125-.484375.5625v.515625q0 .84375.328125 1.328125.34375.46875.953125.46875.546875 0 .875-.421875.34375-.4375.34375-1.125 0-.703125-.34375-1.125-.34375-.421875-.921875-.421875zm4.21875 3.515625q0-.40625.265625-.65625.28125-.25.6875-.25.421875 0 .6875.25.28125.25.28125.65625 0 .390625-.28125.640625-.265625.25-.6875.25-.40625 0-.6875-.25-.265625-.25-.265625-.640625zm6.8125-2.578125q-.671875.640625-1.546875.640625-1.140625 0-1.828125-.765625-.671875-.78125-.671875-2.09375 0-.84375.359375-1.546875.375-.703125 1.03125-1.09375.65625-.390625 1.484375-.390625.84375 0 1.5.421875.65625.421875 1.015625 1.21875.359375.796875.375 1.8125v.625q0 2.140625-1.0625 3.359375-1.0625 1.21875-3.015625 1.296875h-.40625v-1.40625l.375-.015625q2.203125-.09375 2.390625-2.0625zm-1.140625-.65625q.421875 0 .703125-.203125.296875-.21875.453125-.515625v-.6875q0-.859375-.328125-1.328125-.328125-.484375-.875-.484375-.515625 0-.84375.46875-.328125.453125-.328125 1.15625 0 .703125.3125 1.15625.328125.4375.90625.4375zm4.15625-2.828125q0-.78125.5-1.265625.515625-.5 1.34375-.5.828125 0 1.34375.484375.515625.484375.515625 1.3125v.421875q0 .78125-.515625 1.265625-.515625.484375-1.328125.484375-.84375 0-1.359375-.484375-.5-.484375-.5-1.296875zm1.125.453125q0 .34375.203125.5625.203125.21875.53125.21875.328125 0 .515625-.21875.1875-.21875.1875-.578125v-.4375q0-.359375-.1875-.5625-.1875-.21875-.53125-.21875-.328125 0-.53125.21875-.1875.203125-.1875.578125zm2.953125 4.34375q0-.796875.515625-1.265625.515625-.484375 1.328125-.484375.828125 0 1.34375.484375.515625.46875.515625 1.296875v.421875q0 .796875-.5 1.28125-.5.484375-1.34375.484375-.84375 0-1.359375-.484375-.5-.5-.5-1.296875zm1.125.453125q0 .328125.203125.5625.21875.21875.53125.21875.71875 0 .71875-.78125v-.453125q0-.34375-.203125-.5625-.203125-.21875-.53125-.21875-.328125 0-.53125.21875-.1875.21875-.1875.578125zm-3.015625 1-.828125-.4375 4.171875-6.671875.828125.4375z" fill="#9e9e9e"/><path d="m15 97.5h134l34.19577-18.49942" stroke="#757575" stroke-linecap="butt"/><path d="m185.19577 79.00058c0-1.10457-.89543-2-2-2-1.10458 0-2 .89543-2 2s.89542 2 2 2c1.10457 0 2-.89543 2-2" fill="#9e9e9e"/><path d="m20.578125 188.86311h-3.078125l-.59375 1.76563h-1.859375l3.171875-8.53125h1.625l3.203125 8.53125h-1.875zm-2.609375-1.42187h2.140625l-1.078125-3.1875zm11.390625.07812q0 1.46875-.671875 2.35938-.65625.875-1.796875.875-.953125 0-1.546875-.67188v2.98438h-1.6875v-8.78125h1.5625l.0625.625q.609375-.73438 1.609375-.73438 1.171875 0 1.8125.875.65625.85938.65625 2.375zm-1.6875-.125q0-.89062-.328125-1.35937-.3125-.48438-.90625-.48438-.796875 0-1.09375.60938v2.59375q.3125.625 1.109375.625 1.21875 0 1.21875-1.98438zm6.40625 1.48438q0-.3125-.3125-.48438-.296875-.1875-.96875-.32812-2.265625-.46875-2.265625-1.92188 0-.84375.6875-1.40625.703125-.5625 1.84375-.5625 1.203125 0 1.921875.5625.734375.5625.734375 1.48438h-1.703125q0-.375-.234375-.60938-.234375-.23437-.734375-.23437-.421875 0-.65625.20312-.234375.1875-.234375.48438 0 .28125.265625.45312.265625.17188.890625.29688.640625.125 1.078125.28125 1.34375.5 1.34375 1.70312 0 .875-.75 1.42188-.734375.53125-1.921875.53125-.796875 0-1.421875-.28125-.609375-.29688-.96875-.78125-.34375-.5-.34375-1.07813h1.609375q.015625.45313.328125.70313.3125.23437.828125.23437.5 0 .734375-.1875.25-.1875.25-.48437zm5.484375 1.875q-1.390625 0-2.265625-.85938-.875-.85937-.875-2.28125v-.17187q0-.95313.359375-1.70313.375-.75 1.046875-1.15625.6875-.40625 1.546875-.40625 1.3125 0 2.046875.82813.75.8125.75 2.3125v.6875h-4.03125q.078125.625.484375 1 .421875.375 1.0625.375.96875 0 1.515625-.70313l.84375.92188q-.390625.54687-1.046875.85937-.640625.29688-1.4375.29688zm-.1875-5.21875q-.5 0-.8125.34375-.3125.34375-.40625.96875h2.359375v-.125q-.015625-.5625-.3125-.875-.28125-.3125-.828125-.3125z" fill="#1a1a1a"/><path d="m19.6875 208.62874h-1.6875v-6.53125l-2.015625.625v-1.375l3.53125-1.26563h.171875zm4.609375-5.01563h.90625q.640625 0 .953125-.3125.3125-.32812.3125-.85937 0-.51563-.3125-.79688-.296875-.29687-.84375-.29687-.484375 0-.8125.26562-.328125.26563-.328125.6875h-1.6875q0-.65625.359375-1.1875.359375-.53125 1-.82812.65625-.3125 1.4375-.3125 1.34375 0 2.109375.65625.78125.64062.78125 1.78125 0 .59375-.359375 1.09375-.359375.48437-.9375.73437.71875.26563 1.0625.78125.359375.51563.359375 1.21875 0 1.14063-.828125 1.82813-.828125.6875-2.1875.6875-1.28125 0-2.09375-.67188-.8125-.6875-.8125-1.79687h1.6875q0 .48437.359375.79687.375.29688.890625.29688.609375 0 .953125-.3125.34375-.32813.34375-.85938 0-1.26562-1.40625-1.26562h-.90625zm5.4375 4.1875q0-.40625.265625-.65625.28125-.25.6875-.25.421875 0 .6875.25.28125.25.28125.65625 0 .39063-.28125.64063-.265625.25-.6875.25-.40625 0-.6875-.25-.265625-.25-.265625-.64063zm4.5625-4.1875h.90625q.640625 0 .953125-.3125.3125-.32812.3125-.85937 0-.51563-.3125-.79688-.296875-.29687-.84375-.29687-.484375 0-.8125.26562-.328125.26563-.328125.6875h-1.6875q0-.65625.359375-1.1875.359375-.53125 1-.82812.65625-.3125 1.4375-.3125 1.34375 0 2.109375.65625.78125.64062.78125 1.78125 0 .59375-.359375 1.09375-.359375.48437-.9375.73437.71875.26563 1.0625.78125.359375.51563.359375 1.21875 0 1.14063-.828125 1.82813-.828125.6875-2.1875.6875-1.28125 0-2.09375-.67188-.8125-.6875-.8125-1.79687h1.6875q0 .48437.359375.79687.375.29688.890625.29688.609375 0 .953125-.3125.34375-.32813.34375-.85938 0-1.26562-1.40625-1.26562h-.90625zm5.265625-1.875q0-.78125.5-1.26562.515625-.5 1.34375-.5.828125 0 1.34375.48437.515625.48438.515625 1.3125v.42188q0 .78125-.515625 1.26562-.515625.48438-1.328125.48438-.84375 0-1.359375-.48438-.5-.48437-.5-1.29687zm1.125.45313q0 .34375.203125.5625.203125.21875.53125.21875.328125 0 .515625-.21875.1875-.21875.1875-.57813v-.4375q0-.35937-.1875-.5625-.1875-.21875-.53125-.21875-.328125 0-.53125.21875-.1875.20313-.1875.57813zm2.953125 4.34375q0-.79688.515625-1.26563.515625-.48437 1.328125-.48437.828125 0 1.34375.48437.515625.46875.515625 1.29688v.42187q0 .79688-.5 1.28125-.5.48438-1.34375.48438-.84375 0-1.359375-.48438-.5-.5-.5-1.29687zm1.125.45312q0 .32813.203125.5625.21875.21875.53125.21875.71875 0 .71875-.78125v-.45312q0-.34375-.203125-.5625-.203125-.21875-.53125-.21875-.328125 0-.53125.21875-.1875.21875-.1875.57812zm-3.015625 1-.828125-.4375 4.171875-6.67187.828125.4375z" fill="#9e9e9e"/><path d="m15 195.12874h134 20.95226" stroke="#757575" stroke-linecap="butt"/><path d="m171.95226 195.12874c0-1.10457-.89542-2-2-2-1.10457 0-2 .89543-2 2 0 1.10456.89543 2 2 2 1.10458 0 2-.89544 2-2" fill="#9e9e9e"/><path d="m547.8906 33.668163h-3.375v2.296877h3.9688v1.40625h-5.7188v-8.531252h5.70315v1.421875h-3.95315v2.03125h3.375zm1.51565.484377q0-1.453127.6875-2.343752.70315-.890625 1.875-.890625 1.04685 0 1.625.703125l.07815-.59375h1.5312v6.125002q0 .84375-.3906 1.453123-.375.625-1.0625.9375-.6719.328127-1.59375.328127-.70315 0-1.375-.28125-.65625-.28125-.98435-.71875l.75-1.03125q.625.703123 1.5312.703123.6719 0 1.0469-.359373.375-.359377.375-1.015627v-.34375q-.5781.671877-1.5469.671877-1.1406 0-1.8437-.890627-.70315-.90625-.70315-2.375zm1.6875.125q0 .859373.34375 1.359373.3594.484377.9531.484377.7813 0 1.1094-.578127v-2.671873q-.34375-.578127-1.09375-.578127-.60935 0-.96875.5-.34375.5-.34375 1.484377zm7.34375 3.09375h-1.7031v-9.000002h1.7031zm4.125.125q-1.3906 0-2.2656-.859377-.875-.859373-.875-2.28125v-.171873q0-.953127.35935-1.703127.375-.75 1.04685-1.15625.6875-.40625 1.5469-.40625 1.3125 0 2.0469.828125.75.812502.75 2.312502v.6875h-4.0313q.07815.625.4844 1 .4219.375 1.0625.375.96875 0 1.5156-.703127l.8438.921877q-.39065.546873-1.0469.859373-.6406.296877-1.4375.296877zm-.1875-5.21875q-.5 0-.8125.34375-.3125.34375-.40625.96875h2.35935v-.125q-.0156-.5625-.3125-.875-.2812-.3125-.8281-.3125z" fill="#1a1a1a"/><path d="m536.6875 55.37129h-1.6875v-6.53125l-2.0156.625v-1.375l3.5312-1.265627h.1719zm8.4531-6.265627q0 .625-.3125 1.109377-.3125.46875-.85935.765623.625.296877.98435.828127.375.515623.375 1.21875 0 1.140623-.7812 1.8125-.76565.65625-2.1094.65625-1.3281 0-2.1094-.65625-.7656-.671877-.7656-1.8125 0-.703127.3594-1.234377.35935-.53125.98435-.8125-.54685-.296873-.85935-.765623-.3125-.484377-.3125-1.109377 0-1.09375.7187-1.734373.7344-.65625 1.9844-.65625 1.25 0 1.96875.65625.73435.640623.73435 1.734373zm-1.5156 3.796877q0-.546877-.3281-.875-.3125-.34375-.8594-.34375-.5469 0-.875.328123-.3125.328127-.3125.890627 0 .546873.3125.890623.3281.328127.8906.328127.5469 0 .8594-.3125.3125-.328127.3125-.90625zm-.1719-3.71875q0-.5-.2656-.796877-.2656-.296873-.75-.296873-.46875 0-.7344.296873-.2656.28125-.2656.796877 0 .515623.2656.828123.26565.3125.7344.3125.4844 0 .75-.3125.2656-.3125.2656-.828123zm3.2813 5.359373q0-.40625.2656-.65625.28125-.25.6875-.25.4219 0 .6875.25.28125.25.28125.65625 0 .390627-.28125.640627-.2656.25-.6875.25-.40625 0-.6875-.25-.2656-.25-.2656-.640627zm6.9531.828127h-1.6875v-6.53125l-2.0156.625v-1.375l3.5312-1.265627h.1719zm2.875-6.890627q0-.78125.5-1.265623.5156-.5 1.34375-.5.82815 0 1.34375.484373.5156.484377.5156 1.3125v.421877q0 .78125-.5156 1.265623-.5156.484377-1.3281.484377-.8438 0-1.3594-.484377-.5-.484373-.5-1.296873zm1.125.453127q0 .34375.2031.5625.20315.21875.5313.21875.3281 0 .5156-.21875.1875-.21875.1875-.578127v-.4375q0-.359373-.1875-.5625-.1875-.21875-.53125-.21875-.32815 0-.53125.21875-.1875.203127-.1875.578127zm2.9531 4.34375q0-.796877.51565-1.265627.51565-.484373 1.32815-.484373.8281 0 1.3437.484373.51565.46875.51565 1.296877v.421873q0 .796877-.5 1.28125-.5.484377-1.34375.484377-.84375 0-1.3594-.484377-.5-.5-.5-1.296873zm1.125.453123q0 .328127.20315.5625.21875.21875.53125.21875.71875 0 .71875-.78125v-.453123q0-.34375-.20315-.5625-.2031-.21875-.5312-.21875-.32815 0-.5313.21875-.1875.21875-.1875.578123zm-3.0156 1-.8281-.4375 4.17185-6.671873.82815.4375z" fill="#9e9e9e"/><path d="m565 41.87129h-134-72.0345" stroke="#757575" stroke-linecap="butt"/><path d="m360.9655 41.87129c0-1.10457-.8954-2-2-2-1.10454 0-2 .89543-2 2 0 1.104567.89546 2 2 2 1.1046 0 2-.895433 2-2" fill="#9e9e9e"/><path d="m535.7656 250.94151v-8.53125h2.9844q1.5469 0 2.34375.59375.8125.59375.8125 1.75 0 .625-.32815 1.10938-.3125.46875-.8906.6875.65625.17187 1.03125.67187.39065.48438.39065 1.20313 0 1.23437-.7969 1.875-.78125.625-2.2344.64062zm1.75-3.71875v2.3125h1.51565q.60935 0 .95315-.29687.35935-.29688.35935-.82813 0-1.17187-1.21875-1.1875zm0-1.23437h1.3125q1.32815-.03125 1.32815-1.0625 0-.57813-.34375-.82813-.3281-.26562-1.0625-.26562h-1.2344zm9.0469 5.07812q-1.3906 0-2.2656-.85937-.875-.85938-.875-2.28125v-.17188q0-.95312.35935-1.70312.375-.75 1.04685-1.15625.6875-.40625 1.5469-.40625 1.3125 0 2.0469.82812.75.8125.75 2.3125v.6875h-4.0313q.07815.625.4844 1 .4219.375 1.0625.375.96875 0 1.5156-.70312l.8438.92187q-.39065.54688-1.0469.85938-.6406.29687-1.4375.29687zm-.1875-5.21875q-.5 0-.8125.34375-.3125.34375-.40625.96875h2.35935v-.125q-.0156-.5625-.3125-.875-.2812-.3125-.8281-.3125zm1.84375-2.45312h-4.04685v-.96875h4.04685zm5 2.79687q-.34375-.04687-.60935-.04687-.9688 0-1.26565.64062v4.15625h-1.6875v-6.34375h1.59375l.0469.76563q.5156-.875 1.4062-.875.2813 0 .5313.07812zm2.375 3.39063h3.10935v1.35937h-5.2656v-1.03125l2.9844-3.9375h-2.9063v-1.375h5.0938v1zm7.48435-.39063q0-.3125-.3125-.48437-.29685-.1875-.9687-.32813-2.26565-.46875-2.26565-1.92187 0-.84375.6875-1.40625.70315-.5625 1.84375-.5625 1.2031 0 1.9219.5625.73435.5625.73435 1.48437h-1.70315q0-.375-.23435-.60937-.23435-.23438-.73435-.23438-.4219 0-.6563.20313-.23435.1875-.23435.48437 0 .28125.26565.45313.2656.17187.8906.29687.6406.125 1.0781.28125 1.3438.5 1.3438 1.70313 0 .875-.75 1.42187-.7344.53125-1.9219.53125-.7969 0-1.4219-.28125-.60935-.29687-.9687-.78125-.3438-.5-.3438-1.07812h1.6094q.0156.45312.3281.70312.3125.23438.82815.23438.5 0 .73435-.1875.25-.1875.25-.48438z" fill="#1a1a1a"/><path d="m537.59375 265.72275h.96875v1.375h-.96875v1.84375h-1.70315v-1.84375h-3.48435l-.07815-1.0625 3.5469-5.625h1.71875zm-3.57815 0h1.875v-3l-.10935.1875zm10.57815 0h.96875v1.375h-.96875v1.84375h-1.70315v-1.84375h-3.48435l-.07815-1.0625 3.5469-5.625h1.71875zm-3.57815 0h1.875v-3l-.10935.1875zm5.7188 2.39062q0-.40625.2656-.65625.28125-.25.6875-.25.4219 0 .6875.25.28125.25.28125.65625 0 .39063-.28125.64063-.2656.25-.6875.25-.40625 0-.6875-.25-.2656-.25-.2656-.64063zm7.4375-7.79687v1.40625h-.1563q-1.1562.01562-1.85935.59375-.6875.57812-.82815 1.60937.6719-.6875 1.70315-.6875 1.125 0 1.78125.79688.65625.79687.65625 2.09375 0 .82812-.35935 1.5-.3594.67187-1.0313 1.0625-.6562.375-1.48435.375-1.34375 0-2.17185-.9375-.82815-.95313-.82815-2.51563v-.60937q0-1.39063.51565-2.45313.5312-1.0625 1.5-1.64062.98435-.57813 2.2812-.59375zm-1.6563 4.28125q-.4062 0-.75.21875-.3281.20312-.48435.5625v.51562q0 .84375.32815 1.32813.3437.46875.9531.46875.5469 0 .875-.42188.34375-.4375.34375-1.125 0-.70312-.34375-1.125-.34375-.42187-.9219-.42187zm4.0469-2.54688q0-.78125.5-1.26562.5156-.5 1.34375-.5.82815 0 1.34375.48437.5156.48438.5156 1.3125v.42188q0 .78125-.5156 1.26562-.5156.48438-1.3281.48438-.8438 0-1.3594-.48438-.5-.48437-.5-1.29687zm1.125.45313q0 .34375.2031.5625.20315.21875.5313.21875.3281 0 .5156-.21875.1875-.21875.1875-.57813v-.4375q0-.35937-.1875-.5625-.1875-.21875-.53125-.21875-.32815 0-.53125.21875-.1875.20313-.1875.57813zm2.9531 4.34375q0-.79688.51565-1.26563.51565-.48437 1.32815-.48437.8281 0 1.3437.48437.51565.46875.51565 1.29688v.42187q0 .79688-.5 1.28125-.5.48438-1.34375.48438-.84375 0-1.3594-.48438-.5-.5-.5-1.29687zm1.125.45312q0 .32813.20315.5625.21875.21875.53125.21875.71875 0 .71875-.78125v-.45312q0-.34375-.20315-.5625-.2031-.21875-.5312-.21875-.32815 0-.5313.21875-.1875.21875-.1875.57812zm-3.0156 1-.8281-.4375 4.17185-6.67187.82815.4375z" fill="#9e9e9e"/><path d="m565 255.44151h-134-67.99213" stroke="#757575" stroke-linecap="butt"/><path d="m365.00787 255.44151c0-1.10457-.89541-2-2-2-1.10455 0-2 .89543-2 2s.89545 1.99999 2 1.99999c1.10459 0 2-.89542 2-1.99999" fill="#9e9e9e"/></svg>