<svg fill="none" height="297" stroke-linecap="square" stroke-miterlimit="10" viewBox="0 0 580 297" width="580" xmlns="http://www.w3.org/2000/svg" xmlns:xlink="http://www.w3.org/1999/xlink"><clipPath id="a"><path d="m57.85 51.25h507.3v177.9h-507.3z"/></clipPath><path d="m0 0h580v297h-580z" fill="none"/><path d="m57.5 229.5h508" stroke="#333" stroke-linecap="butt"/><path d="m57.5 169.5h508" stroke="#ccc" stroke-linecap="butt"/><path d="m57.5 110.5h508" stroke="#ccc" stroke-linecap="butt"/><path d="m57.5 51.5h508" stroke="#ccc" stroke-linecap="butt"/><path d="m57.5 209.5h508" stroke="#e6e6e6" stroke-linecap="butt"/><path d="m57.5 189.5h508" stroke="#e6e6e6" stroke-linecap="butt"/><path d="m57.5 150.5h508" stroke="#e6e6e6" stroke-linecap="butt"/><path d="m57.5 130.5h508" stroke="#e6e6e6" stroke-linecap="butt"/><path d="m57.5 90.5h508" stroke="#e6e6e6" stroke-linecap="butt"/><path d="m57.5 71.5h508" stroke="#e6e6e6" stroke-linecap="butt"/><path d="m57.5 229.5v-178" stroke="#000" stroke-linecap="butt"/><path clip-path="url(#a)" d="m88 229h-19v-3c0-1.10457.89543-2 2-2h15c1.10457 0 2 .89543 2 2z"/><path clip-path="url(#a)" d="m88 229h-19v-3c0-1.10457.89543-2 2-2h15c1.10457 0 2 .89543 2 2z" fill="#70ad47"/><path clip-path="url(#a)" d="m117 229h-19v-52c0-1.10457.89543-2 2-2h15c1.10457 0 2 .89543 2 2z"/><path clip-path="url(#a)" d="m117 229h-19v-52c0-1.10457.89543-2 2-2h15c1.10457 0 2 .89543 2 2z" fill="#70ad47"/><path clip-path="url(#a)" d="m146 229h-19v-68c0-1.10457.89543-2 2-2h15c1.10457 0 2 .89543 2 2z"/><path clip-path="url(#a)" d="m146 229h-19v-68c0-1.10457.89543-2 2-2h15c1.10457 0 2 .89543 2 2z" fill="#70ad47"/><path clip-path="url(#a)" d="m175 229h-19v-45c0-1.10457.89543-2 2-2h15c1.10457 0 2 .89543 2 2z"/><path clip-path="url(#a)" d="m175 229h-19v-45c0-1.10457.89543-2 2-2h15c1.10457 0 2 .89543 2 2z" fill="#70ad47"/><path clip-path="url(#a)" d="m205 229h-19v-94c0-1.10457.89543-2 2-2h15c1.10457 0 2 .89543 2 2z"/><path clip-path="url(#a)" d="m205 229h-19v-94c0-1.10457.89543-2 2-2h15c1.10457 0 2 .89543 2 2z" fill="#70ad47"/><path clip-path="url(#a)" d="m234 229h-19v-132c0-1.10457.89543-2 2-2h15c1.10457 0 2 .89543 2 2z"/><path clip-path="url(#a)" d="m234 229h-19v-132c0-1.10457.89543-2 2-2h15c1.10457 0 2 .89543 2 2z" fill="#38761d"/><path clip-path="url(#a)" d="m263 229h-19v-149c0-1.10457.89543-2 2-2h15c1.10458 0 2 .89543 2 2z"/><path clip-path="url(#a)" d="m263 229h-19v-149c0-1.10457.89543-2 2-2h15c1.10458 0 2 .89543 2 2z" fill="#38761d"/><path clip-path="url(#a)" d="m292 229h-19v-98c0-1.10457.89542-2 2-2h15c1.10458 0 2 .89543 2 2z"/><path clip-path="url(#a)" d="m292 229h-19v-98c0-1.10457.89542-2 2-2h15c1.10458 0 2 .89543 2 2z" fill="#38761d"/><path clip-path="url(#a)" d="m322 229h-19v-55c0-1.10457.89542-2 2-2h15c1.10458 0 2 .89543 2 2z"/><path clip-path="url(#a)" d="m322 229h-19v-55c0-1.10457.89542-2 2-2h15c1.10458 0 2 .89543 2 2z" fill="#38761d"/><path clip-path="url(#a)" d="m351 229h-19v-23c0-1.10457.89542-2 2-2h15c1.10458 0 2 .89543 2 2z"/><path clip-path="url(#a)" d="m351 229h-19v-23c0-1.10457.89542-2 2-2h15c1.10458 0 2 .89543 2 2z" fill="#274e13"/><path clip-path="url(#a)" d="m380 229h-19v-3c0-1.10457.89542-2 2-2h15c1.10458 0 2 .89543 2 2z"/><path clip-path="url(#a)" d="m380 229h-19v-3c0-1.10457.89542-2 2-2h15c1.10458 0 2 .89543 2 2z" fill="#274e13"/><path clip-path="url(#a)" d="m409 229h-19v-1.5c0-.82843.67157-1.5 1.5-1.5h16c.82843 0 1.5.67157 1.5 1.5z"/><path clip-path="url(#a)" d="m409 229h-19v-1.5c0-.82843.67157-1.5 1.5-1.5h16c.82843 0 1.5.67157 1.5 1.5z" fill="#274e13"/><path clip-path="url(#a)" d="m438 229h-19z"/><path clip-path="url(#a)" d="m438 229h-19z" fill="#274e13"/><path clip-path="url(#a)" d="m468 229h-19z"/><path clip-path="url(#a)" d="m468 229h-19z" fill="#7b5e40"/><path clip-path="url(#a)" d="m497 229h-19z"/><path clip-path="url(#a)" d="m497 229h-19z" fill="#7b5e40"/><path clip-path="url(#a)" d="m526 229h-19z"/><path clip-path="url(#a)" d="m526 229h-19z" fill="#7b5e40"/><path clip-path="url(#a)" d="m555 229h-19z"/><path clip-path="url(#a)" d="m555 229h-19z" fill="#7b5e40"/><path d="m51.5 229.5h12" stroke="#000" stroke-linecap="butt"/><path d="m51.5 169.5h12" stroke="#000" stroke-linecap="butt"/><path d="m51.5 110.5h12" stroke="#000" stroke-linecap="butt"/><path d="m51.5 51.5h12" stroke="#000" stroke-linecap="butt"/><path d="m75.828125 227.72835q0 1.76562-.734375 2.71875-.734375.9375-2.140625.9375-1.40625 0-2.140625-.92188-.734375-.92187-.75-2.64062v-1.57813q0-1.78125.734375-2.70312.75-.9375 2.140625-.9375 1.390625 0 2.125.92187.75.92188.765625 2.64063zm-1.703125-1.71875q0-1.0625-.296875-1.54688-.28125-.48437-.890625-.48437-.59375 0-.890625.46875-.28125.45312-.296875 1.4375v2.0625q0 1.04687.28125 1.5625.28125.5.921875.5.609375 0 .890625-.48438.28125-.48437.28125-1.48437zm3.109375 4.42187q0-.40625.265625-.65625.28125-.25.6875-.25.421875 0 .6875.25.28125.25.28125.65625 0 .39063-.28125.64063-.265625.25-.6875.25-.40625 0-.6875-.25-.265625-.25-.265625-.64063zm7.859375-2.39062h.96875v1.375h-.96875v1.84375h-1.703125v-1.84375h-3.484375l-.078125-1.0625 3.546875-5.625h1.71875zm-3.578125 0h1.875v-3l-.109375.1875z" stroke="#70ad47" stroke-linecap="round" stroke-linejoin="round" stroke-width="3"/><path d="m75.828125 227.72835q0 1.76562-.734375 2.71875-.734375.9375-2.140625.9375-1.40625 0-2.140625-.92188-.734375-.92187-.75-2.64062v-1.57813q0-1.78125.734375-2.70312.75-.9375 2.140625-.9375 1.390625 0 2.125.92187.75.92188.765625 2.64063zm-1.703125-1.71875q0-1.0625-.296875-1.54688-.28125-.48437-.890625-.48437-.59375 0-.890625.46875-.28125.45312-.296875 1.4375v2.0625q0 1.04687.28125 1.5625.28125.5.921875.5.609375 0 .890625-.48438.28125-.48437.28125-1.48437zm3.109375 4.42187q0-.40625.265625-.65625.28125-.25.6875-.25.421875 0 .6875.25.28125.25.28125.65625 0 .39063-.28125.64063-.265625.25-.6875.25-.40625 0-.6875-.25-.265625-.25-.265625-.64063zm7.859375-2.39062h.96875v1.375h-.96875v1.84375h-1.703125v-1.84375h-3.484375l-.078125-1.0625 3.546875-5.625h1.71875zm-3.578125 0h1.875v-3l-.109375.1875z" fill="#fff"/><path d="m104.09375 203.3465h.96875v1.375h-.96875v1.84375h-1.703125v-1.84375h-3.484375l-.078125-1.0625 3.546875-5.625h1.71875zm-3.578125 0h1.875v-3l-.109375.1875zm5.71875 2.39062q0-.40625.265625-.65625.28125-.25.6875-.25.421875 0 .6875.25.28125.25.28125.65625 0 .39063-.28125.64063-.265625.25-.6875.25-.40625 0-.6875-.25-.265625-.25-.265625-.64063zm7.4375-7.79687v1.40625h-.15625q-1.15625.01562-1.859375.59375-.6875.57812-.828125 1.60937.671875-.6875 1.703125-.6875 1.125 0 1.78125.79688.65625.79687.65625 2.09375 0 .82812-.359375 1.5-.359375.67187-1.03125 1.0625-.65625.375-1.484375.375-1.34375 0-2.171875-.9375-.828125-.95313-.828125-2.51563v-.60937q0-1.39063.515625-2.45313.53125-1.0625 1.5-1.64062.984375-.57813 2.28125-.59375zm-1.65625 4.28125q-.40625 0-.75.21875-.328125.20312-.484375.5625v.51562q0 .84375.328125 1.32813.34375.46875.953125.46875.546875 0 .875-.42188.34375-.4375.34375-1.125 0-.70312-.34375-1.125-.34375-.42187-.921875-.42187z" stroke="#70ad47" stroke-linecap="round" stroke-linejoin="round" stroke-width="3"/><path d="m104.09375 203.3465h.96875v1.375h-.96875v1.84375h-1.703125v-1.84375h-3.484375l-.078125-1.0625 3.546875-5.625h1.71875zm-3.578125 0h1.875v-3l-.109375.1875zm5.71875 2.39062q0-.40625.265625-.65625.28125-.25.6875-.25.421875 0 .6875.25.28125.25.28125.65625 0 .39063-.28125.64063-.265625.25-.6875.25-.40625 0-.6875-.25-.265625-.25-.265625-.64063zm7.4375-7.79687v1.40625h-.15625q-1.15625.01562-1.859375.59375-.6875.57812-.828125 1.60937.671875-.6875 1.703125-.6875 1.125 0 1.78125.79688.65625.79687.65625 2.09375 0 .82812-.359375 1.5-.359375.67187-1.03125 1.0625-.65625.375-1.484375.375-1.34375 0-2.171875-.9375-.828125-.95313-.828125-2.51563v-.60937q0-1.39063.515625-2.45313.53125-1.0625 1.5-1.64062.984375-.57813 2.28125-.59375zm-1.65625 4.28125q-.40625 0-.75.21875-.328125.20312-.484375.5625v.51562q0 .84375.328125 1.32813.34375.46875.953125.46875.546875 0 .875-.42188.34375-.4375.34375-1.125 0-.70312-.34375-1.125-.34375-.42187-.921875-.42187z" fill="#fff"/><path d="m128.32812 194.62149.5-4.32812h4.78126v1.40625h-3.39063l-.21875 1.84375q.60938-.32813 1.28125-.32813 1.21875 0 1.90625.76563.70312.75.70312 2.10937 0 .82813-.35937 1.48438-.34375.64062-1 1.01562-.64063.35938-1.53125.35938-.76562 0-1.4375-.3125-.65625-.32813-1.04688-.89063-.375-.5625-.40624-1.29687h1.6875q.04687.53125.35937.82812.32813.29688.84375.29688.57812 0 .875-.40625.3125-.42188.3125-1.17188 0-.73437-.35938-1.10937-.34374-.39063-1-.39063-.60937 0-.98437.3125l-.15625.15625zm6.90626 3.375q0-.40625.26562-.65625.28125-.25.6875-.25.42188 0 .6875.25.28125.25.28125.65625 0 .39063-.28125.64063-.26562.25-.6875.25-.40625 0-.6875-.25-.26562-.25-.26562-.64063zm6.8125-2.57812q-.67188.64062-1.54688.64062-1.14062 0-1.82812-.76562-.67188-.78125-.67188-2.09375 0-.84375.35938-1.54688.375-.70312 1.03124-1.09375.65626-.39062 1.48438-.39062.84375 0 1.5.42187.65625.42188 1.01562 1.21875.35938.79688.375 1.8125v.625q0 2.14063-1.0625 3.35938-1.0625 1.21875-3.01562 1.29687h-.40625v-1.40625l.375-.01562q2.20313-.09375 2.39063-2.0625zm-1.14063-.65625q.42187 0 .70313-.20313.29687-.21875.45312-.51562v-.6875q0-.85938-.32812-1.32813-.32813-.48437-.875-.48437-.51563 0-.84376.46875-.32812.45312-.32812 1.15625 0 .70312.3125 1.15625.32812.4375.90625.4375z" stroke="#70ad47" stroke-linecap="round" stroke-linejoin="round" stroke-width="3"/><path d="m128.32812 194.62149.5-4.32812h4.78126v1.40625h-3.39063l-.21875 1.84375q.60938-.32813 1.28125-.32813 1.21875 0 1.90625.76563.70312.75.70312 2.10937 0 .82813-.35937 1.48438-.34375.64062-1 1.01562-.64063.35938-1.53125.35938-.76562 0-1.4375-.3125-.65625-.32813-1.04688-.89063-.375-.5625-.40624-1.29687h1.6875q.04687.53125.35937.82812.32813.29688.84375.29688.57812 0 .875-.40625.3125-.42188.3125-1.17188 0-.73437-.35938-1.10937-.34374-.39063-1-.39063-.60937 0-.98437.3125l-.15625.15625zm6.90626 3.375q0-.40625.26562-.65625.28125-.25.6875-.25.42188 0 .6875.25.28125.25.28125.65625 0 .39063-.28125.64063-.26562.25-.6875.25-.40625 0-.6875-.25-.26562-.25-.26562-.64063zm6.8125-2.57812q-.67188.64062-1.54688.64062-1.14062 0-1.82812-.76562-.67188-.78125-.67188-2.09375 0-.84375.35938-1.54688.375-.70312 1.03124-1.09375.65626-.39062 1.48438-.39062.84375 0 1.5.42187.65625.42188 1.01562 1.21875.35938.79688.375 1.8125v.625q0 2.14063-1.0625 3.35938-1.0625 1.21875-3.01562 1.29687h-.40625v-1.40625l.375-.01562q2.20313-.09375 2.39063-2.0625zm-1.14063-.65625q.42187 0 .70313-.20313.29687-.21875.45312-.51562v-.6875q0-.85938-.32812-1.32813-.32813-.48437-.875-.48437-.51563 0-.84376.46875-.32812.45312-.32812 1.15625 0 .70312.3125 1.15625.32812.4375.90625.4375z" fill="#fff"/><path d="m162.09375 206.60771h.96875v1.375h-.96875v1.84375h-1.70313v-1.84375h-3.48437l-.07813-1.0625 3.54688-5.625h1.71875zm-3.57813 0h1.875v-3l-.10937.1875zm5.71876 2.39063q0-.40625.26562-.65625.28125-.25.6875-.25.42188 0 .6875.25.28125.25.28125.65625 0 .39062-.28125.64062-.26562.25-.6875.25-.40625 0-.6875-.25-.26562-.25-.26562-.64062zm8.59374-2.70313q0 1.76563-.73437 2.71875-.73437.9375-2.14063.9375-1.40624 0-2.14062-.92187-.73438-.92188-.75-2.64063v-1.57812q0-1.78125.73438-2.70313.75-.9375 2.14062-.9375 1.39062 0 2.125.92188.75.92187.76562 2.64062zm-1.70312-1.71875q0-1.0625-.29688-1.54687-.28124-.48438-.89062-.48438-.59375 0-.89062.46875-.28126.45313-.29688 1.4375v2.0625q0 1.04688.28125 1.5625.28125.5.92187.5.60938 0 .89063-.48437.28125-.48438.28125-1.48438z" stroke="#70ad47" stroke-linecap="round" stroke-linejoin="round" stroke-width="3"/><path d="m162.09375 206.60771h.96875v1.375h-.96875v1.84375h-1.70313v-1.84375h-3.48437l-.07813-1.0625 3.54688-5.625h1.71875zm-3.57813 0h1.875v-3l-.10937.1875zm5.71876 2.39063q0-.40625.26562-.65625.28125-.25.6875-.25.42188 0 .6875.25.28125.25.28125.65625 0 .39062-.28125.64062-.26562.25-.6875.25-.40625 0-.6875-.25-.26562-.25-.26562-.64062zm8.59374-2.70313q0 1.76563-.73437 2.71875-.73437.9375-2.14063.9375-1.40624 0-2.14062-.92187-.73438-.92188-.75-2.64063v-1.57812q0-1.78125.73438-2.70313.75-.9375 2.14062-.9375 1.39062 0 2.125.92188.75.92187.76562 2.64062zm-1.70312-1.71875q0-1.0625-.29688-1.54687-.28124-.48438-.89062-.48438-.59375 0-.89062.46875-.28126.45313-.29688 1.4375v2.0625q0 1.04688.28125 1.5625.28125.5.92187.5.60938 0 .89063-.48437.28125-.48438.28125-1.48438z" fill="#fff"/><path d="m192.64062 179.24115q0 .625-.3125 1.10937-.3125.46875-.85937.76563.625.29687.98437.82812.375.51563.375 1.21875 0 1.14063-.78124 1.8125-.76563.65625-2.10938.65625-1.32812 0-2.10938-.65625-.76562-.67187-.76562-1.8125 0-.70312.35938-1.23437.35937-.53125.98437-.8125-.54687-.29688-.85937-.76563-.3125-.48437-.3125-1.10937 0-1.09375.71874-1.73438.73438-.65625 1.98438-.65625 1.25 0 1.96875.65625.73437.64063.73437 1.73438zm-1.51562 3.79687q0-.54687-.32812-.875-.3125-.34375-.85938-.34375-.54688 0-.875.32813-.3125.32812-.3125.89062 0 .54688.3125.89063.32812.32812.89062.32812.54688 0 .85938-.3125.3125-.32812.3125-.90625zm-.17188-3.71875q0-.5-.26562-.79687-.26562-.29688-.75-.29688-.46875 0-.73438.29688-.26562.28125-.26562.79687 0 .51563.26562.82813.26563.3125.73438.3125.48438 0 .75-.3125.26562-.3125.26562-.82813zm3.28126 5.35938q0-.40625.26562-.65625.28125-.25.6875-.25.42188 0 .6875.25.28125.25.28125.65625 0 .39062-.28125.64062-.26562.25-.6875.25-.40625 0-.6875-.25-.26562-.25-.26562-.64062zm6.95312.82812h-1.6875v-6.53125l-2.01562.625v-1.375l3.53124-1.26562h.17188z" stroke="#70ad47" stroke-linecap="round" stroke-linejoin="round" stroke-width="3"/><path d="m192.64062 179.24115q0 .625-.3125 1.10937-.3125.46875-.85937.76563.625.29687.98437.82812.375.51563.375 1.21875 0 1.14063-.78124 1.8125-.76563.65625-2.10938.65625-1.32812 0-2.10938-.65625-.76562-.67187-.76562-1.8125 0-.70312.35938-1.23437.35937-.53125.98437-.8125-.54687-.29688-.85937-.76563-.3125-.48437-.3125-1.10937 0-1.09375.71874-1.73438.73438-.65625 1.98438-.65625 1.25 0 1.96875.65625.73437.64063.73437 1.73438zm-1.51562 3.79687q0-.54687-.32812-.875-.3125-.34375-.85938-.34375-.54688 0-.875.32813-.3125.32812-.3125.89062 0 .54688.3125.89063.32812.32812.89062.32812.54688 0 .85938-.3125.3125-.32812.3125-.90625zm-.17188-3.71875q0-.5-.26562-.79687-.26562-.29688-.75-.29688-.46875 0-.73438.29688-.26562.28125-.26562.79687 0 .51563.26562.82813.26563.3125.73438.3125.48438 0 .75-.3125.26562-.3125.26562-.82813zm3.28126 5.35938q0-.40625.26562-.65625.28125-.25.6875-.25.42188 0 .6875.25.28125.25.28125.65625 0 .39062-.28125.64062-.26562.25-.6875.25-.40625 0-.6875-.25-.26562-.25-.26562-.64062zm6.95312.82812h-1.6875v-6.53125l-2.01562.625v-1.375l3.53124-1.26562h.17188z" fill="#fff"/><path d="m216.6875 166.43535h-1.6875v-6.53125l-2.01562.625v-1.375l3.53124-1.26563h.17188zm7 0h-1.6875v-6.53125l-2.01562.625v-1.375l3.53124-1.26563h.17188zm3.04688-.82813q0-.40625.26562-.65625.28125-.25.6875-.25.42188 0 .6875.25.28125.25.28125.65625 0 .39063-.28125.64063-.26562.25-.6875.25-.40625 0-.6875-.25-.26562-.25-.26562-.64063zm4.5625-4.1875h.90624q.64063 0 .95313-.3125.3125-.32812.3125-.85937 0-.51563-.3125-.79688-.29687-.29687-.84375-.29687-.48438 0-.8125.26562-.32812.26563-.32812.6875h-1.6875q0-.65625.35937-1.1875.35937-.53125 1-.82812.65625-.3125 1.4375-.3125 1.34375 0 2.10937.65625.78126.64062.78126 1.78125 0 .59375-.35938 1.09375-.35938.48437-.9375.73437.71875.26563 1.0625.78125.35938.51563.35938 1.21875 0 1.14063-.82813 1.82813-.82813.6875-2.1875.6875-1.28125 0-2.09375-.67188-.8125-.6875-.8125-1.79687h1.6875q0 .48437.35938.79687.375.29688.89062.29688.60938 0 .95312-.3125.34376-.32813.34376-.85938 0-1.26562-1.40626-1.26562h-.90624z" stroke="#38761d" stroke-linecap="round" stroke-linejoin="round" stroke-width="3"/><path d="m216.6875 166.43535h-1.6875v-6.53125l-2.01562.625v-1.375l3.53124-1.26563h.17188zm7 0h-1.6875v-6.53125l-2.01562.625v-1.375l3.53124-1.26563h.17188zm3.04688-.82813q0-.40625.26562-.65625.28125-.25.6875-.25.42188 0 .6875.25.28125.25.28125.65625 0 .39063-.28125.64063-.26562.25-.6875.25-.40625 0-.6875-.25-.26562-.25-.26562-.64063zm4.5625-4.1875h.90624q.64063 0 .95313-.3125.3125-.32812.3125-.85937 0-.51563-.3125-.79688-.29687-.29687-.84375-.29687-.48438 0-.8125.26562-.32812.26563-.32812.6875h-1.6875q0-.65625.35937-1.1875.35937-.53125 1-.82812.65625-.3125 1.4375-.3125 1.34375 0 2.10937.65625.78126.64062.78126 1.78125 0 .59375-.35938 1.09375-.35938.48437-.9375.73437.71875.26563 1.0625.78125.35938.51563.35938 1.21875 0 1.14063-.82813 1.82813-.82813.6875-2.1875.6875-1.28125 0-2.09375-.67188-.8125-.6875-.8125-1.79687h1.6875q0 .48437.35938.79687.375.29688.89062.29688.60938 0 .95312-.3125.34376-.32813.34376-.85938 0-1.26562-1.40626-1.26562h-.90624z" fill="#fff"/><path d="m245.6875 157.97752h-1.6875v-6.53125l-2.01562.625v-1.375l3.53124-1.26562h.17188zm8.73438 0h-5.84376v-1.15625l2.76563-2.95312q.5625-.60938.82813-1.07813.28124-.46875.28124-.875 0-.57812-.29687-.89062-.28125-.32813-.8125-.32813-.57813 0-.90625.39063-.32812.39062-.32812 1.04687h-1.70313q0-.78125.375-1.42187.375-.65625 1.04687-1.01563.6875-.375 1.54688-.375 1.3125 0 2.04688.64063.73437.625.73437 1.78125 0 .64062-.32813 1.29687-.32812.65625-1.125 1.53125l-1.9375 2.04688h3.65626zm1.3125-.82812q0-.40625.26562-.65625.28125-.25.6875-.25.42188 0 .6875.25.28125.25.28125.65625 0 .39062-.28125.64062-.26562.25-.6875.25-.40625 0-.6875-.25-.26562-.25-.26562-.64062zm8.40624-5.4375q0 .625-.3125 1.10937-.3125.46875-.85937.76563.625.29687.98437.82812.375.51563.375 1.21875 0 1.14063-.78124 1.8125-.76563.65625-2.10938.65625-1.32812 0-2.10938-.65625-.76562-.67187-.76562-1.8125 0-.70312.35938-1.23437.35937-.53125.98437-.8125-.54687-.29688-.85937-.76563-.3125-.48437-.3125-1.10937 0-1.09375.71874-1.73438.73438-.65625 1.98438-.65625 1.25 0 1.96875.65625.73437.64063.73437 1.73438zm-1.51562 3.79687q0-.54687-.32812-.875-.3125-.34375-.85938-.34375-.54688 0-.875.32813-.3125.32812-.3125.89062 0 .54688.3125.89063.32812.32812.89062.32812.54688 0 .85938-.3125.3125-.32812.3125-.90625zm-.17188-3.71875q0-.5-.26562-.79687-.26562-.29688-.75-.29688-.46875 0-.73438.29688-.26562.28125-.26562.79687 0 .51563.26562.82813.26563.3125.73438.3125.48438 0 .75-.3125.26562-.3125.26562-.82813z" stroke="#38761d" stroke-linecap="round" stroke-linejoin="round" stroke-width="3"/><path d="m245.6875 157.97752h-1.6875v-6.53125l-2.01562.625v-1.375l3.53124-1.26562h.17188zm8.73438 0h-5.84376v-1.15625l2.76563-2.95312q.5625-.60938.82813-1.07813.28124-.46875.28124-.875 0-.57812-.29687-.89062-.28125-.32813-.8125-.32813-.57813 0-.90625.39063-.32812.39062-.32812 1.04687h-1.70313q0-.78125.375-1.42187.375-.65625 1.04687-1.01563.6875-.375 1.54688-.375 1.3125 0 2.04688.64063.73437.625.73437 1.78125 0 .64062-.32813 1.29687-.32812.65625-1.125 1.53125l-1.9375 2.04688h3.65626zm1.3125-.82812q0-.40625.26562-.65625.28125-.25.6875-.25.42188 0 .6875.25.28125.25.28125.65625 0 .39062-.28125.64062-.26562.25-.6875.25-.40625 0-.6875-.25-.26562-.25-.26562-.64062zm8.40624-5.4375q0 .625-.3125 1.10937-.3125.46875-.85937.76563.625.29687.98437.82812.375.51563.375 1.21875 0 1.14063-.78124 1.8125-.76563.65625-2.10938.65625-1.32812 0-2.10938-.65625-.76562-.67187-.76562-1.8125 0-.70312.35938-1.23437.35937-.53125.98437-.8125-.54687-.29688-.85937-.76563-.3125-.48437-.3125-1.10937 0-1.09375.71874-1.73438.73438-.65625 1.98438-.65625 1.25 0 1.96875.65625.73437.64063.73437 1.73438zm-1.51562 3.79687q0-.54687-.32812-.875-.3125-.34375-.85938-.34375-.54688 0-.875.32813-.3125.32812-.3125.89062 0 .54688.3125.89063.32812.32812.89062.32812.54688 0 .85938-.3125.3125-.32812.3125-.90625zm-.17188-3.71875q0-.5-.26562-.79687-.26562-.29688-.75-.29688-.46875 0-.73438.29688-.26562.28125-.26562.79687 0 .51563.26562.82813.26563.3125.73438.3125.48438 0 .75-.3125.26562-.3125.26562-.82813z" fill="#fff"/><path d="m279.64062 177.46236q0 .625-.3125 1.10937-.3125.46875-.85937.76563.625.29687.98437.82812.375.51562.375 1.21875 0 1.14063-.78124 1.8125-.76563.65625-2.10938.65625-1.32812 0-2.10938-.65625-.76562-.67187-.76562-1.8125 0-.70313.35938-1.23437.35937-.53126.98437-.8125-.54687-.29688-.85937-.76563-.3125-.48437-.3125-1.10937 0-1.09376.71874-1.73438.73438-.65625 1.98438-.65625 1.25 0 1.96875.65625.73437.64062.73437 1.73438zm-1.51562 3.79687q0-.54687-.32812-.875-.3125-.34375-.85938-.34375-.54688 0-.875.32812-.3125.32813-.3125.89063 0 .54687.3125.89063.32812.32812.89062.32812.54688 0 .85938-.3125.3125-.32812.3125-.90625zm-.17188-3.71875q0-.5-.26562-.79688-.26562-.29687-.75-.29687-.46875 0-.73438.29687-.26562.28126-.26562.79688 0 .51562.26562.82812.26563.3125.73438.3125.48438 0 .75-.3125.26562-.3125.26562-.82812zm3.28126 5.35938q0-.40626.26562-.65626.28125-.25.6875-.25.42188 0 .6875.25.28125.25.28125.65626 0 .39062-.28125.64062-.26562.25-.6875.25-.40625 0-.6875-.25-.26562-.25-.26562-.64062zm7.85937-2.39063h.96875v1.375h-.96875v1.84375h-1.70313v-1.84375h-3.48437l-.07813-1.0625 3.54688-5.625h1.71875zm-3.57813 0h1.875v-3l-.10937.1875z" stroke="#38761d" stroke-linecap="round" stroke-linejoin="round" stroke-width="3"/><path d="m279.64062 177.46236q0 .625-.3125 1.10937-.3125.46875-.85937.76563.625.29687.98437.82812.375.51562.375 1.21875 0 1.14063-.78124 1.8125-.76563.65625-2.10938.65625-1.32812 0-2.10938-.65625-.76562-.67187-.76562-1.8125 0-.70313.35938-1.23437.35937-.53126.98437-.8125-.54687-.29688-.85937-.76563-.3125-.48437-.3125-1.10937 0-1.09376.71874-1.73438.73438-.65625 1.98438-.65625 1.25 0 1.96875.65625.73437.64062.73437 1.73438zm-1.51562 3.79687q0-.54687-.32812-.875-.3125-.34375-.85938-.34375-.54688 0-.875.32812-.3125.32813-.3125.89063 0 .54687.3125.89063.32812.32812.89062.32812.54688 0 .85938-.3125.3125-.32812.3125-.90625zm-.17188-3.71875q0-.5-.26562-.79688-.26562-.29687-.75-.29687-.46875 0-.73438.29687-.26562.28126-.26562.79688 0 .51562.26562.82812.26563.3125.73438.3125.48438 0 .75-.3125.26562-.3125.26562-.82812zm3.28126 5.35938q0-.40626.26562-.65626.28125-.25.6875-.25.42188 0 .6875.25.28125.25.28125.65626 0 .39062-.28125.64062-.26562.25-.6875.25-.40625 0-.6875-.25-.26562-.25-.26562-.64062zm7.85937-2.39063h.96875v1.375h-.96875v1.84375h-1.70313v-1.84375h-3.48437l-.07813-1.0625 3.54688-5.625h1.71875zm-3.57813 0h1.875v-3l-.10937.1875z" fill="#fff"/><path d="m309.09375 202.08011h.96875v1.375h-.96875v1.84375h-1.70313v-1.84375h-3.48437l-.07813-1.0625 3.54688-5.625h1.71875zm-3.57813 0h1.875v-3l-.10937.1875zm5.71876 2.39062q0-.40625.26562-.65625.28125-.25.6875-.25.42188 0 .6875.25.28125.25.28125.65625 0 .39063-.28125.64063-.26562.25-.6875.25-.40625 0-.6875-.25-.26562-.25-.26562-.64063zm8.40624-5.4375q0 .625-.3125 1.10938-.3125.46875-.85937.76562.625.29688.98437.82813.375.51562.375 1.21875 0 1.14062-.78124 1.8125-.76563.65625-2.10938.65625-1.32812 0-2.10938-.65625-.76562-.67188-.76562-1.8125 0-.70313.35938-1.23438.35937-.53125.98437-.8125-.54687-.29687-.85937-.76562-.3125-.48438-.3125-1.10938 0-1.09375.71874-1.73437.73438-.65625 1.98438-.65625 1.25 0 1.96875.65625.73437.64062.73437 1.73437zm-1.51562 3.79688q0-.54688-.32812-.875-.3125-.34375-.85938-.34375-.54688 0-.875.32812-.3125.32813-.3125.89063 0 .54687.3125.89062.32812.32813.89062.32813.54688 0 .85938-.3125.3125-.32813.3125-.90625zm-.17188-3.71875q0-.5-.26562-.79688-.26562-.29687-.75-.29687-.46875 0-.73438.29687-.26562.28125-.26562.79688 0 .51562.26562.82812.26563.3125.73438.3125.48438 0 .75-.3125.26562-.3125.26562-.82812z" stroke="#38761d" stroke-linecap="round" stroke-linejoin="round" stroke-width="3"/><path d="m309.09375 202.08011h.96875v1.375h-.96875v1.84375h-1.70313v-1.84375h-3.48437l-.07813-1.0625 3.54688-5.625h1.71875zm-3.57813 0h1.875v-3l-.10937.1875zm5.71876 2.39062q0-.40625.26562-.65625.28125-.25.6875-.25.42188 0 .6875.25.28125.25.28125.65625 0 .39063-.28125.64063-.26562.25-.6875.25-.40625 0-.6875-.25-.26562-.25-.26562-.64063zm8.40624-5.4375q0 .625-.3125 1.10938-.3125.46875-.85937.76562.625.29688.98437.82813.375.51562.375 1.21875 0 1.14062-.78124 1.8125-.76563.65625-2.10938.65625-1.32812 0-2.10938-.65625-.76562-.67188-.76562-1.8125 0-.70313.35938-1.23438.35937-.53125.98437-.8125-.54687-.29687-.85937-.76562-.3125-.48438-.3125-1.10938 0-1.09375.71874-1.73437.73438-.65625 1.98438-.65625 1.25 0 1.96875.65625.73437.64062.73437 1.73437zm-1.51562 3.79688q0-.54688-.32812-.875-.3125-.34375-.85938-.34375-.54688 0-.875.32812-.3125.32813-.3125.89063 0 .54687.3125.89062.32812.32813.89062.32813.54688 0 .85938-.3125.3125-.32813.3125-.90625zm-.17188-3.71875q0-.5-.26562-.79688-.26562-.29687-.75-.29687-.46875 0-.73438.29687-.26562.28125-.26562.79688 0 .51562.26562.82812.26563.3125.73438.3125.48438 0 .75-.3125.26562-.3125.26562-.82812z" fill="#fff"/><path d="m338.92188 220.82597h-5.84376v-1.15625l2.76563-2.95312q.5625-.60938.82813-1.07813.28124-.46875.28124-.875 0-.57812-.29687-.89062-.28125-.32813-.8125-.32813-.57813 0-.90625.39063-.32812.39062-.32812 1.04687h-1.70313q0-.78125.375-1.42187.375-.65625 1.04687-1.01563.6875-.375 1.54688-.375 1.3125 0 2.04688.64063.73437.625.73437 1.78125 0 .64062-.32813 1.29687-.32812.65625-1.125 1.53125l-1.9375 2.04688h3.65626zm1.3125-.82812q0-.40625.26562-.65625.28125-.25.6875-.25.42188 0 .6875.25.28125.25.28125.65625 0 .39062-.28125.64062-.26562.25-.6875.25-.40625 0-.6875-.25-.26562-.25-.26562-.64062zm8.6875.82812h-5.84376v-1.15625l2.76563-2.95312q.5625-.60938.82813-1.07813.28124-.46875.28124-.875 0-.57812-.29687-.89062-.28125-.32813-.8125-.32813-.57813 0-.90625.39063-.32812.39062-.32812 1.04687h-1.70313q0-.78125.375-1.42187.375-.65625 1.04687-1.01563.6875-.375 1.54688-.375 1.3125 0 2.04688.64063.73437.625.73437 1.78125 0 .64062-.32813 1.29687-.32812.65625-1.125 1.53125l-1.9375 2.04688h3.65626z" stroke="#274e13" stroke-linecap="round" stroke-linejoin="round" stroke-width="3"/><path d="m338.92188 220.82597h-5.84376v-1.15625l2.76563-2.95312q.5625-.60938.82813-1.07813.28124-.46875.28124-.875 0-.57812-.29687-.89062-.28125-.32813-.8125-.32813-.57813 0-.90625.39063-.32812.39062-.32812 1.04687h-1.70313q0-.78125.375-1.42187.375-.65625 1.04687-1.01563.6875-.375 1.54688-.375 1.3125 0 2.04688.64063.73437.625.73437 1.78125 0 .64062-.32813 1.29687-.32812.65625-1.125 1.53125l-1.9375 2.04688h3.65626zm1.3125-.82812q0-.40625.26562-.65625.28125-.25.6875-.25.42188 0 .6875.25.28125.25.28125.65625 0 .39062-.28125.64062-.26562.25-.6875.25-.40625 0-.6875-.25-.26562-.25-.26562-.64062zm8.6875.82812h-5.84376v-1.15625l2.76563-2.95312q.5625-.60938.82813-1.07813.28124-.46875.28124-.875 0-.57812-.29687-.89062-.28125-.32813-.8125-.32813-.57813 0-.90625.39063-.32812.39062-.32812 1.04687h-1.70313q0-.78125.375-1.42187.375-.65625 1.04687-1.01563.6875-.375 1.54688-.375 1.3125 0 2.04688.64063.73437.625.73437 1.78125 0 .64062-.32813 1.29687-.32812.65625-1.125 1.53125l-1.9375 2.04688h3.65626z" fill="#fff"/><path d="m367.82812 227.32487q0 1.76563-.73437 2.71875-.73437.9375-2.14063.9375-1.40624 0-2.14062-.92187-.73438-.92188-.75-2.64063v-1.57812q0-1.78125.73438-2.70313.75-.9375 2.14062-.9375 1.39062 0 2.125.92188.75.92187.76562 2.64062zm-1.70312-1.71875q0-1.0625-.29688-1.54687-.28124-.48438-.89062-.48438-.59375 0-.89062.46875-.28126.45313-.29688 1.4375v2.0625q0 1.04688.28125 1.5625.28125.5.92187.5.60938 0 .89063-.48437.28125-.48438.28125-1.48438zm3.10938 4.42188q0-.40625.26562-.65625.28125-.25.6875-.25.42188 0 .6875.25.28125.25.28125.65625 0 .39062-.28125.64062-.26562.25-.6875.25-.40625 0-.6875-.25-.26562-.25-.26562-.64062zm3.09374-3.375.5-4.32813h4.78126v1.40625h-3.39063l-.21875 1.84375q.60938-.32812 1.28125-.32812 1.21875 0 1.90625.76562.70312.75.70312 2.10938 0 .82812-.35937 1.48437-.34375.64063-1 1.01563-.64063.35937-1.53125.35937-.76562 0-1.4375-.3125-.65625-.32812-1.04688-.89062-.375-.5625-.40624-1.29688h1.6875q.04687.53125.35937.82813.32813.29687.84375.29687.57812 0 .875-.40625.3125-.42187.3125-1.17187 0-.73438-.35938-1.10938-.34374-.39062-1-.39062-.60937 0-.98437.3125l-.15625.15625z" stroke="#274e13" stroke-linecap="round" stroke-linejoin="round" stroke-width="3"/><path d="m367.82812 227.32487q0 1.76563-.73437 2.71875-.73437.9375-2.14063.9375-1.40624 0-2.14062-.92187-.73438-.92188-.75-2.64063v-1.57812q0-1.78125.73438-2.70313.75-.9375 2.14062-.9375 1.39062 0 2.125.92188.75.92187.76562 2.64062zm-1.70312-1.71875q0-1.0625-.29688-1.54687-.28124-.48438-.89062-.48438-.59375 0-.89062.46875-.28126.45313-.29688 1.4375v2.0625q0 1.04688.28125 1.5625.28125.5.92187.5.60938 0 .89063-.48437.28125-.48438.28125-1.48438zm3.10938 4.42188q0-.40625.26562-.65625.28125-.25.6875-.25.42188 0 .6875.25.28125.25.28125.65625 0 .39062-.28125.64062-.26562.25-.6875.25-.40625 0-.6875-.25-.26562-.25-.26562-.64062zm3.09374-3.375.5-4.32813h4.78126v1.40625h-3.39063l-.21875 1.84375q.60938-.32812 1.28125-.32812 1.21875 0 1.90625.76562.70312.75.70312 2.10938 0 .82812-.35937 1.48437-.34375.64063-1 1.01563-.64063.35937-1.53125.35937-.76562 0-1.4375-.3125-.65625-.32812-1.04688-.89062-.375-.5625-.40624-1.29688h1.6875q.04687.53125.35937.82813.32813.29687.84375.29687.57812 0 .875-.40625.3125-.42187.3125-1.17187 0-.73438-.35938-1.10938-.34374-.39062-1-.39062-.60937 0-.98437.3125l-.15625.15625z" fill="#fff"/><path d="m396.82812 228.39072q0 1.76562-.73437 2.71875-.73437.9375-2.14063.9375-1.40624 0-2.14062-.92188-.73438-.92187-.75-2.64062v-1.57813q0-1.78125.73438-2.70312.75-.9375 2.14062-.9375 1.39062 0 2.125.92187.75.92188.76562 2.64063zm-1.70312-1.71875q0-1.0625-.29688-1.54688-.28124-.48437-.89062-.48437-.59375 0-.89062.46875-.28126.45312-.29688 1.4375v2.0625q0 1.04687.28125 1.5625.28125.5.92187.5.60938 0 .89063-.48438.28125-.48437.28125-1.48437zm3.10938 4.42187q0-.40625.26562-.65625.28125-.25.6875-.25.42188 0 .6875.25.28125.25.28125.65625 0 .39063-.28125.64063-.26562.25-.6875.25-.40625 0-.6875-.25-.26562-.25-.26562-.64063zm4.5625-4.1875h.90624q.64063 0 .95313-.3125.3125-.32812.3125-.85937 0-.51563-.3125-.79688-.29687-.29687-.84375-.29687-.48438 0-.8125.26562-.32812.26563-.32812.6875h-1.6875q0-.65625.35937-1.1875.35937-.53125 1-.82812.65625-.3125 1.4375-.3125 1.34375 0 2.10937.65625.78126.64062.78126 1.78125 0 .59375-.35938 1.09375-.35938.48437-.9375.73437.71875.26563 1.0625.78125.35938.51563.35938 1.21875 0 1.14063-.82813 1.82813-.82813.6875-2.1875.6875-1.28125 0-2.09375-.67188-.8125-.6875-.8125-1.79687h1.6875q0 .48437.35938.79687.375.29688.89062.29688.60938 0 .95312-.3125.34376-.32813.34376-.85938 0-1.26562-1.40626-1.26562h-.90624z" stroke="#274e13" stroke-linecap="round" stroke-linejoin="round" stroke-width="3"/><path d="m396.82812 228.39072q0 1.76562-.73437 2.71875-.73437.9375-2.14063.9375-1.40624 0-2.14062-.92188-.73438-.92187-.75-2.64062v-1.57813q0-1.78125.73438-2.70312.75-.9375 2.14062-.9375 1.39062 0 2.125.92187.75.92188.76562 2.64063zm-1.70312-1.71875q0-1.0625-.29688-1.54688-.28124-.48437-.89062-.48437-.59375 0-.89062.46875-.28126.45312-.29688 1.4375v2.0625q0 1.04687.28125 1.5625.28125.5.92187.5.60938 0 .89063-.48438.28125-.48437.28125-1.48437zm3.10938 4.42187q0-.40625.26562-.65625.28125-.25.6875-.25.42188 0 .6875.25.28125.25.28125.65625 0 .39063-.28125.64063-.26562.25-.6875.25-.40625 0-.6875-.25-.26562-.25-.26562-.64063zm4.5625-4.1875h.90624q.64063 0 .95313-.3125.3125-.32812.3125-.85937 0-.51563-.3125-.79688-.29687-.29687-.84375-.29687-.48438 0-.8125.26562-.32812.26563-.32812.6875h-1.6875q0-.65625.35937-1.1875.35937-.53125 1-.82812.65625-.3125 1.4375-.3125 1.34375 0 2.10937.65625.78126.64062.78126 1.78125 0 .59375-.35938 1.09375-.35938.48437-.9375.73437.71875.26563 1.0625.78125.35938.51563.35938 1.21875 0 1.14063-.82813 1.82813-.82813.6875-2.1875.6875-1.28125 0-2.09375-.67188-.8125-.6875-.8125-1.79687h1.6875q0 .48437.35938.79687.375.29688.89062.29688.60938 0 .95312-.3125.34376-.32813.34376-.85938 0-1.26562-1.40626-1.26562h-.90624z" fill="#fff"/><g fill="#000"><path d="m17.13125 228.85312h.8125q.78125-.01562 1.21875-.40625.4375-.39063.4375-1.0625 0-1.5-1.5-1.5-.703125 0-1.125.40625-.40625.40625-.40625 1.0625h-1.09375q0-1.01562.734375-1.6875.75-.67188 1.890625-.67188 1.203125 0 1.890625.64063.6875.64063.6875 1.78125 0 .5625-.359375 1.07812-.359375.51563-.984375.78126.703125.21874 1.078125.73437.390625.51563.390625 1.26563 0 1.14062-.75 1.82812-.75.67188-1.953125.67188-1.1875 0-1.953125-.65626-.75-.65624-.75-1.71874h1.09375q0 .67187.4375 1.07812.4375.40625 1.1875.40625.78125 0 1.1875-.40625.421875-.42188.421875-1.1875 0-.73438-.453125-1.125-.453125-.40625-1.328125-.42188h-.8125zm10.78125 1.15625q0 1.90625-.65625 2.84375-.640625.92188-2.03125.92188-1.359375 0-2.015625-.90626-.65625-.90624-.6875-2.71874v-1.4375q0-1.89063.640625-2.79688.65625-.92188 2.046875-.92188 1.375 0 2.03125.89063.65625.875.671875 2.71875zm-1.09375-1.48437q0-1.375-.390625-2-.375-.64063-1.21875-.64063-.828125 0-1.21875.64063-.375.625-.375 1.92187v1.73437q0 1.375.390625 2.04688.40625.65625 1.21875.65625.796875 0 1.1875-.625.390625-.625.40625-1.95313zm5.109375 1.9375h-2.859375v-.875h2.859375zm4.187498 3.1875h-1.078123v-7.21876l-2.1875.79688v-.98438l3.109373-1.17187h.15625zm9.03125 0h-5.59375v-.78126l2.953127-3.28124q.65625-.75.90625-1.20313.25-.46875.25-.96875 0-.67188-.40625-1.09375-.390627-.4375-1.078127-.4375-.796873 0-1.25.46875-.453123.45312-.453123 1.28125h-1.078127q0-1.1875.75-1.90625.765627-.73438 2.03125-.73438 1.203127 0 1.890627.625.6875.625.6875 1.67188 0 1.25-1.609377 3l-2.28125 2.46875h4.28125z"/><path d="m34.13125 171.49063h1.1875v.875h-1.1875v1.98437h-1.078127v-1.98437h-3.890623v-.64063l3.8125-5.90624h1.15625zm-3.734375 0h2.656248v-4.1875l-.140623.23437zm8.531248-.32813h-2.859373v-.875h2.859373zm4.1875 3.1875h-1.078123v-7.21874l-2.1875.79687v-.98437l3.109373-1.17188h.15625z"/><path d="m33.709373 111.3q-.328123.40625-.8125.65625-.46875.23438-1.031248.23438-.734375 0-1.28125-.35938-.546875-.35937-.84375-1.01562-.296875-.67188-.296875-1.46875 0-.84375.3125-1.53125.328125-.6875.921875-1.04688.609375-.375 1.406248-.375 1.265627 0 1.984377.95313.734373.95312.734373 2.57812v.3125q0 2.5-.984373 3.64063-.984377 1.14062-2.96875 1.17187h-.21875v-.90625h.234375q1.343748-.03125 2.062498-.70312.71875-.67188.78125-2.14063zm-1.671873 0q.546873 0 1-.32812.46875-.34375.6875-.82813v-.4375q0-1.0625-.46875-1.73437-.46875-.67188-1.171877-.67188-.718748 0-1.156248.54688-.421875.54687-.421875 1.45312 0 .875.40625 1.4375.421875.5625 1.125.5625zm6.890623.5625h-2.859373v-.875h2.859373zm4.1875 3.1875h-1.078123v-7.21875l-2.1875.79688v-.98438l3.109373-1.17187h.15625z"/><path d="m26.115625 55.75h-1.078125v-7.21875l-2.1875.796875v-.984375l3.109375-1.171875h.15625zm8.015625-2.859375h1.1875v.875h-1.1875v1.984375h-1.078127v-1.984375h-3.890623v-.640625l3.8125-5.90625h1.15625zm-3.734375 0h2.656248v-4.1875l-.140623.234375zm8.531248-.328125h-2.859373v-.875h2.859373zm4.1875 3.1875h-1.078123v-7.21875l-2.1875.796875v-.984375l3.109373-1.171875h.15625z"/><path d="m82.08646 256.4625v1.6875h-6.53125l.625 2.01562h-1.375l-1.26563-3.53125v-.17187zm-2.96875-6.25v3.29687h-1.375v-3.29687zm2.96875-5.75v1.6875h-6.53125l.625 2.01562h-1.375l-1.26563-3.53125v-.17187zm-3.53125-8.64063q1.76562 0 2.71875.73437.9375.73438.9375 2.14063 0 1.40625-.92188 2.14063-.92187.73437-2.64062.75h-1.57813q-1.78125 0-2.70312-.73438-.9375-.75-.9375-2.14062 0-1.39063.92187-2.125.92188-.75 2.64063-.76563zm-1.71875 1.70313q-1.0625 0-1.54688.29687-.48437.28125-.48437.89063 0 .59374.46875.89062.45312.28125 1.4375.29688h2.0625q1.04687 0 1.5625-.28126.5-.28124.5-.92187 0-.60937-.48438-.89063-.48437-.28124-1.48437-.28124z"/><path d="m111.325645 263.4625v1.6875h-6.53125l.625 2.01562h-1.375l-1.265625-3.53125v-.17187zm0-7v1.6875h-6.53125l.625 2.01562h-1.375l-1.265625-3.53125v-.17187zm-2.96875-6.25v3.29687h-1.375v-3.29687zm2.96875-7.48438v5.84375h-1.15625l-2.953125-2.76563q-.609375-.5625-1.078125-.82812-.46875-.28125-.875-.28125-.578125 0-.890625.29687-.328125.28126-.328125.8125 0 .57813.390625.90626.390625.32812 1.046875.32812v1.70312q-.78125 0-1.421875-.375-.65625-.375-1.015625-1.04687-.375-.6875-.375-1.54687 0-1.3125.640625-2.04688.625-.73438 1.78125-.73438.640625 0 1.296875.32813.65625.32813 1.53125 1.125l2.046875 1.9375v-3.65625zm-3.53125-6.90625q1.765625 0 2.71875.73437.9375.73438.9375 2.14063 0 1.40625-.921875 2.14063-.921875.73437-2.640625.75h-1.578125q-1.78125 0-2.703125-.73438-.9375-.75-.9375-2.14062 0-1.39063.921875-2.125.921875-.75 2.640625-.76563zm-1.71875 1.70313q-1.0625 0-1.546875.29687-.484375.28125-.484375.89063 0 .59374.46875.89062.453125.28125 1.4375.29688h2.0625q1.046875 0 1.5625-.28126.5-.28124.5-.92187 0-.60937-.484375-.89063-.484375-.28124-1.484375-.28124z"/><path d="m140.56483 261.72812v5.84375h-1.15625l-2.95312-2.76563q-.60938-.5625-1.07813-.82812-.46875-.28125-.875-.28125-.57812 0-.89062.29687-.32813.28126-.32813.8125 0 .57813.39063.90626.39062.32812 1.04687.32812v1.70312q-.78125 0-1.42187-.375-.65625-.375-1.01563-1.04687-.375-.6875-.375-1.54687 0-1.3125.64063-2.04688.625-.73438 1.78125-.73438.64062 0 1.29687.32813.65625.32813 1.53125 1.125l2.04688 1.9375v-3.65625zm0-5.26562v1.6875h-6.53125l.625 2.01562h-1.375l-1.26562-3.53125v-.17187zm-2.96875-6.25v3.29687h-1.375v-3.29687zm-2.04687-3.35938v-.90625q0-.64063-.3125-.95313-.32813-.3125-.85938-.3125-.51562 0-.79687.3125-.29688.29688-.29688.84376 0 .48437.26563.8125.26562.32812.6875.32812v1.6875q-.65625 0-1.1875-.35938-.53125-.35937-.82813-1-.3125-.65624-.3125-1.4375 0-1.34374.65625-2.10937.64063-.78125 1.78125-.78125.59375 0 1.09375.35938.48438.35937.73438.9375.26562-.71876.78125-1.0625.51562-.35938 1.21875-.35938 1.14062 0 1.82812.82812.6875.82813.6875 2.1875 0 1.28126-.67187 2.09376-.6875.8125-1.79688.8125v-1.6875q.48438 0 .79688-.35938.29687-.375.29687-.89062 0-.60938-.3125-.95313-.32812-.34375-.85937-.34375-1.26563 0-1.26563 1.40625v.90625zm1.48437-11.03125q1.76563 0 2.71875.73437.9375.73438.9375 2.14063 0 1.40625-.92187 2.14063-.92188.73437-2.64063.75h-1.57812q-1.78125 0-2.70313-.73438-.9375-.75-.9375-2.14062 0-1.39063.92188-2.125.92187-.75 2.64062-.76563zm-1.71875 1.70313q-1.0625 0-1.54687.29687-.48438.28125-.48438.89063 0 .59374.46875.89062.45313.28125 1.4375.29688h2.0625q1.04688 0 1.5625-.28126.5-.28124.5-.92187 0-.60937-.48437-.89063-.48438-.28124-1.48438-.28124z"/><path d="m164.7884 265.85312v-.90625q0-.64063-.3125-.95313-.32812-.3125-.85937-.3125-.51563 0-.79687.3125-.29688.29688-.29688.84376 0 .48437.26562.8125.26563.32812.6875.32812v1.6875q-.65624 0-1.1875-.35938-.53124-.35937-.82812-1-.3125-.65624-.3125-1.4375 0-1.34374.65625-2.10937.64063-.78125 1.78125-.78125.59375 0 1.09375.35938.48437.35937.73437.9375.26563-.71876.78126-1.0625.51562-.35938 1.21874-.35938 1.14063 0 1.82813.82812.6875.82813.6875 2.1875 0 1.28126-.67187 2.09376-.6875.8125-1.79688.8125v-1.6875q.48438 0 .79688-.35938.29687-.375.29687-.89062 0-.60938-.3125-.95313-.32813-.34375-.85937-.34375-1.26563 0-1.26563 1.40625v.90625zm5.01563-9.39062v1.6875h-6.53125l.625 2.01562h-1.375l-1.26562-3.53125v-.17187zm-2.96875-6.25v3.29687h-1.375v-3.29687zm-.25-6.65626v-.96874h1.375v.96874h1.84375v1.70313h-1.84375v3.48437l-1.0625.07813-5.625-3.54687v-1.71876zm0 3.57813v-1.875h-3l.1875.10937zm-.3125-11.3125q1.76562 0 2.71875.73437.9375.73438.9375 2.14063 0 1.40625-.92187 2.14063-.92188.73437-2.64063.75h-1.57813q-1.78124 0-2.70312-.73438-.9375-.75-.9375-2.14062 0-1.39063.92188-2.125.92187-.75 2.64062-.76563zm-1.71875 1.70313q-1.0625 0-1.54687.29687-.48438.28125-.48438.89063 0 .59374.46875.89062.45313.28125 1.4375.29688h2.0625q1.04687 0 1.5625-.28126.5-.28124.5-.92187 0-.60937-.48437-.89063-.48438-.28124-1.48438-.28124z"/><path d="m195.82448 262.55624v-.96874h1.375v.96874h1.84375v1.70313h-1.84375v3.48437l-1.0625.07813-5.625-3.54687v-1.71876zm0 3.57813v-1.875h-3l.1875.10937zm3.21875-9.67187v1.6875h-6.53125l.625 2.01562h-1.375l-1.26563-3.53125v-.17187zm-2.96875-6.25v3.29687h-1.375v-3.29687zm-1.23438-1.89063-4.32812-.5v-4.78125h1.40625v3.39062l1.84375.21876q-.32813-.60938-.32813-1.28126 0-1.21874.76563-1.90624.75-.70313 2.10937-.70313.82813 0 1.48438.35937.64062.34376 1.01562 1 .35938.64063.35938 1.53126 0 .76562-.3125 1.4375-.32813.65624-.89063 1.04687-.5625.375-1.29687.40625v-1.6875q.53125-.04688.82812-.35938.29688-.32812.29688-.84374 0-.57813-.40625-.875-.42188-.3125-1.17188-.3125-.73437 0-1.10937.35937-.39063.34375-.39063 1 0 .60937.3125.98437l.15625.15626zm.67188-12.5q1.76562 0 2.71875.73437.9375.73438.9375 2.14063 0 1.40625-.92188 2.14063-.92187.73437-2.64062.75h-1.57813q-1.78125 0-2.70312-.73438-.9375-.75-.9375-2.14062 0-1.39063.92187-2.125.92188-.75 2.64063-.76563zm-1.71875 1.70313q-1.0625 0-1.54688.29687-.48437.28125-.48437.89063 0 .59374.46875.89062.45312.28125 1.4375.29688h2.0625q1.04687 0 1.5625-.28126.5-.28124.5-.92187 0-.60937-.48438-.89063-.48437-.28124-1.48437-.28124z"/><path d="m224.0793 267.32187-4.32813-.5v-4.78125h1.40625v3.39062l1.84375.21876q-.32812-.60938-.32812-1.28126 0-1.21874.76562-1.90624.75-.70313 2.10938-.70313.82812 0 1.48437.35937.64063.34376 1.01563 1 .35937.64063.35937 1.53126 0 .76562-.3125 1.4375-.32812.65624-.89062 1.04687-.5625.375-1.29688.40625v-1.6875q.53125-.04688.82813-.35938.29687-.32812.29687-.84374 0-.57813-.40625-.875-.42187-.3125-1.17187-.3125-.73438 0-1.10938.35937-.39062.34375-.39062 1 0 .60937.3125.98437l.15625.15626zm4.20312-10.85937v1.6875h-6.53125l.625 2.01562h-1.375l-1.26562-3.53125v-.17187zm-2.96875-6.24999v3.29687h-1.375v-3.29687zm-5.65625-6.23438h1.40625v.15625q.01563 1.15625.59375 1.85938.57813.6875 1.60938.82812-.6875-.67187-.6875-1.70312 0-1.125.79687-1.78125.79688-.65625 2.09375-.65625.82813 0 1.5.35937.67188.35938 1.0625 1.03125.375.65625.375 1.48438 0 1.34375-.9375 2.17187-.95312.82813-2.51562.82813h-.60938q-1.39062 0-2.45312-.51563-1.0625-.53125-1.64063-1.5-.57812-.98437-.59375-2.28125zm4.28125 1.65625q0 .40625.21875.75.20313.32813.5625.48438h.51563q.84375 0 1.32812-.32813.46875-.34375.46875-.95312 0-.54688-.42187-.875-.4375-.34375-1.125-.34375-.70313 0-1.125.34375-.42188.34375-.42188.92187zm.8125-9.8125q1.76563 0 2.71875.73438.9375.73437.9375 2.14062 0 1.40625-.92187 2.14063-.92188.73437-2.64063.75h-1.57812q-1.78125 0-2.70313-.73438-.9375-.75-.9375-2.14062 0-1.39063.92188-2.125.92187-.75 2.64062-.76563zm-1.71875 1.70313q-1.0625 0-1.54687.29687-.48438.28125-.48438.89063 0 .59375.46875.89062.45313.28125 1.4375.29688h2.0625q1.04688 0 1.5625-.28125.5-.28125.5-.92188 0-.60937-.48437-.89062-.48438-.28125-1.48438-.28125z"/><path d="m248.8966 262.97812h1.40626v.15625q.01562 1.15625.59374 1.85937.57813.6875 1.60938.82813-.6875-.67187-.6875-1.70313 0-1.125.79688-1.78124.79687-.65626 2.09374-.65626.82813 0 1.5.35938.67188.35938 1.0625 1.03125.375.65625.375 1.48437 0 1.34376-.9375 2.17188-.95312.82812-2.51562.82812h-.60938q-1.39062 0-2.45312-.51562-1.0625-.53125-1.64062-1.5-.57813-.98438-.59376-2.28125zm4.28126 1.65625q0 .40625.21874.75.20313.32813.5625.48437h.51563q.84375 0 1.32813-.32812.46874-.34375.46874-.95312 0-.54688-.42187-.875-.4375-.34376-1.125-.34376-.70313 0-1.125.34376-.42187.34374-.42187.92187zm4.34374-8.17187v1.6875h-6.53124l.625 2.01562h-1.375l-1.26563-3.53125v-.17187zm-2.96874-6.25v3.29687h-1.375v-3.29687zm-4.60938-7.4375 7.57812 3.29687v1.78125l-7.15624-3.29688v4.23438h-1.375v-6.01562zm4.04688-6.95313q1.76562 0 2.71874.73437.9375.73438.9375 2.14063 0 1.40625-.92187 2.14063-.92187.73437-2.64063.75h-1.57812q-1.78125 0-2.70312-.73438-.9375-.75-.9375-2.14062 0-1.39063.92187-2.125.92187-.75 2.64063-.76563zm-1.71876 1.70313q-1.0625 0-1.54687.29687-.48437.28125-.48437.89063 0 .59374.46874.89062.45313.28125 1.4375.29688h2.0625q1.04688 0 1.5625-.28126.5-.28124.5-.92187 0-.60937-.48437-.89063-.48437-.28124-1.48437-.28124z"/><path d="m279.18268 261.775 7.57812 3.29687v1.78125l-7.15625-3.29688v4.23438h-1.375v-6.01562zm7.57812-5.3125v1.6875h-6.53125l.625 2.01562h-1.375l-1.26562-3.53125v-.17187zm-2.96875-6.25v3.29687h-1.375v-3.29687zm-3.29687-7.20313q.625 0 1.10937.3125.46875.3125.76563.85937.29687-.625.82812-.98437.51563-.375 1.21875-.375 1.14063 0 1.8125.78125.65625.76562.65625 2.10938 0 1.32812-.65625 2.10937-.67187.76563-1.8125.76563-.70312 0-1.23437-.35938-.53125-.35938-.8125-.98438-.29688.54688-.76563.85938-.48437.3125-1.10937.3125-1.09375 0-1.73438-.71875-.65625-.73437-.65625-1.98437 0-1.25.65625-1.96876.64063-.73437 1.73438-.73437zm3.79687 1.51563q-.54687 0-.875.32812-.34375.3125-.34375.85938 0 .54687.32813.875.32812.3125.89062.3125.54688 0 .89063-.3125.32812-.32813.32812-.89063 0-.54687-.3125-.85937-.32812-.3125-.90625-.3125zm-3.71875.17187q-.5 0-.79687.26563-.29688.26562-.29688.75 0 .46874.29688.73437.28125.26563.79687.26563.51563 0 .82813-.26563.3125-.26563.3125-.73437 0-.48438-.3125-.75-.3125-.26563-.82813-.26563zm2.65625-8.875q1.76563 0 2.71875.73437.9375.73438.9375 2.14063 0 1.40625-.92187 2.14063-.92188.73437-2.64063.75h-1.57812q-1.78125 0-2.70313-.73438-.9375-.75-.9375-2.14062 0-1.39063.92188-2.125.92187-.75 2.64062-.76563zm-1.71875 1.70313q-1.0625 0-1.54687.29687-.48438.28125-.48438.89063 0 .59374.46875.89062.45313.28125 1.4375.29688h2.0625q1.04688 0 1.5625-.28126.5-.28124.5-.92187 0-.60937-.48437-.89063-.48438-.28124-1.48438-.28124z"/><path d="m309.73438 262.00937q.625 0 1.10937.3125.46875.3125.76563.85937.29687-.625.82812-.98437.51562-.375 1.21875-.375 1.14063 0 1.8125.78125.65625.76562.65625 2.10938 0 1.32812-.65625 2.10937-.67187.76563-1.8125.76563-.70313 0-1.23437-.35938-.53126-.35938-.8125-.98438-.29688.54688-.76563.85938-.48437.3125-1.10937.3125-1.09376 0-1.73438-.71875-.65625-.73437-.65625-1.98437 0-1.25.65625-1.96876.64062-.73437 1.73438-.73437zm3.79687 1.51563q-.54687 0-.875.32812-.34375.3125-.34375.85938 0 .54687.32812.875.32813.3125.89063.3125.54687 0 .89063-.3125.32812-.32813.32812-.89063 0-.54687-.3125-.85937-.32812-.3125-.90625-.3125zm-3.71875.17187q-.5 0-.79688.26563-.29687.26562-.29687.75 0 .46874.29687.73437.28126.26563.79688.26563.51562 0 .82812-.26563.3125-.26563.3125-.73437 0-.48438-.3125-.75-.3125-.26563-.82812-.26563zm6.1875-7.23437v1.6875h-6.53125l.625 2.01562h-1.375l-1.26563-3.53125v-.17187zm-2.96875-6.25v3.29687h-1.375v-3.29687zm-.4375-5.60938q.64063.67188.64063 1.54688 0 1.14062-.76563 1.82812-.78125.67188-2.09375.67188-.84375 0-1.54688-.35938-.70312-.375-1.09374-1.03125-.39063-.65625-.39063-1.48437 0-.84376.42187-1.5.42188-.65626 1.21876-1.01563.79687-.35937 1.8125-.375h.625q2.14062 0 3.35937 1.0625 1.21875 1.0625 1.29687 3.01563v.40624h-1.40624l-.01563-.375q-.09375-2.20312-2.0625-2.39062zm-.65625 1.14062q0-.42187-.20312-.70312-.21876-.29688-.51563-.45312h-.6875q-.85937 0-1.32813.32812-.48437.32812-.48437.875 0 .51562.46875.84375.45312.32813 1.15625.32813.70313 0 1.15625-.3125.4375-.32813.4375-.90626zm.53125-9.92187q1.76563 0 2.71875.73437.9375.73438.9375 2.14063 0 1.40625-.92188 2.14063-.92187.73437-2.64062.75h-1.57812q-1.78126 0-2.70313-.73438-.9375-.75-.9375-2.14062 0-1.39063.92187-2.125.92188-.75 2.64063-.76563zm-1.71875 1.70313q-1.0625 0-1.54688.29687-.48437.28125-.48437.89063 0 .59374.46875.89062.45312.28125 1.4375.29688h2.0625q1.04688 0 1.5625-.28126.5-.28124.5-.92187 0-.60937-.48438-.89063-.48437-.28124-1.48437-.28124z"/><path d="m341.83295 270.60312q.64062.67188.64062 1.54688 0 1.14062-.76562 1.82812-.78125.67188-2.09375.67188-.84375 0-1.54688-.35938-.70312-.375-1.09375-1.03125-.39062-.65625-.39062-1.48437 0-.84376.42187-1.5.42188-.65626 1.21875-1.01563.79688-.35937 1.8125-.375h.625q2.14063 0 3.35938 1.0625 1.21875 1.0625 1.29687 3.01563v.40624h-1.40625l-.01562-.375q-.09375-2.20312-2.0625-2.39062zm-.65625 1.14062q0-.42187-.20313-.70312-.21875-.29688-.51562-.45312h-.6875q-.85938 0-1.32813.32812-.48437.32812-.48437.875 0 .51562.46875.84375.45312.32813 1.15625.32813.70312 0 1.15625-.3125.4375-.32813.4375-.90626zm4.0625-8.28124v1.6875h-6.53125l.625 2.01562h-1.375l-1.26563-3.53125v-.17187zm-2.96875-6.25v3.29687h-1.375v-3.29687zm2.96875-5.75v1.6875h-6.53125l.625 2.01562h-1.375l-1.26563-3.53125v-.17187zm-3.53125-8.64063q1.76562 0 2.71875.73437.9375.73438.9375 2.14063 0 1.40625-.92188 2.14063-.92187.73437-2.64062.75h-1.57813q-1.78125 0-2.70312-.73438-.9375-.75-.9375-2.14062 0-1.39063.92187-2.125.92188-.75 2.64063-.76563zm-1.71875 1.70313q-1.0625 0-1.54688.29687-.48437.28125-.48437.89063 0 .59374.46875.89062.45312.28125 1.4375.29688h2.0625q1.04687 0 1.5625-.28126.5-.28124.5-.92187 0-.60937-.48438-.89063-.48437-.28124-1.48437-.28124zm1.71875-8.70313q1.76562 0 2.71875.73437.9375.73438.9375 2.14063 0 1.40625-.92188 2.14063-.92187.73437-2.64062.75h-1.57813q-1.78125 0-2.70312-.73438-.9375-.75-.9375-2.14062 0-1.39063.92187-2.125.92188-.75 2.64063-.76563zm-1.71875 1.70313q-1.0625 0-1.54688.29687-.48437.28125-.48437.89063 0 .59374.46875.89062.45312.28125 1.4375.29688h2.0625q1.04687 0 1.5625-.28126.5-.28124.5-.92187 0-.60937-.48438-.89063-.48437-.28124-1.48437-.28124z"/><path d="m374.4784 277.4625v1.6875h-6.53126l.625 2.01562h-1.375l-1.26562-3.53125v-.17187zm-3.53126-8.64063q1.76563 0 2.71876.73437.9375.73438.9375 2.14063 0 1.40625-.92188 2.14063-.92188.73437-2.64062.75h-1.57813q-1.78125 0-2.70313-.73438-.9375-.75-.9375-2.14062 0-1.39063.92188-2.125.92188-.75 2.64062-.76563zm-1.71874 1.70313q-1.0625 0-1.54688.29687-.48438.28125-.48438.89063 0 .59374.46876.89062.45312.28125 1.4375.29688h2.0625q1.04687 0 1.5625-.28126.5-.28124.5-.92187 0-.60937-.48438-.89063-.48438-.28124-1.48438-.28124zm5.25-7.0625v1.6875h-6.53126l.625 2.01562h-1.375l-1.26562-3.53125v-.17187zm-2.96876-6.25v3.29687h-1.375v-3.29687zm2.96876-5.75v1.6875h-6.53126l.625 2.01562h-1.375l-1.26562-3.53125v-.17187zm0-7v1.6875h-6.53126l.625 2.01562h-1.375l-1.26562-3.53125v-.17187zm-3.53126-8.64063q1.76563 0 2.71876.73437.9375.73438.9375 2.14063 0 1.40625-.92188 2.14063-.92188.73437-2.64062.75h-1.57813q-1.78125 0-2.70313-.73438-.9375-.75-.9375-2.14062 0-1.39063.92188-2.125.92188-.75 2.64062-.76563zm-1.71874 1.70313q-1.0625 0-1.54688.29687-.48438.28125-.48438.89063 0 .59374.46876.89062.45312.28125 1.4375.29688h2.0625q1.04687 0 1.5625-.28126.5-.28124.5-.92187 0-.60937-.48438-.89063-.48438-.28124-1.48438-.28124z"/><path d="m403.7176 277.46252v1.6875h-6.53126l.625 2.01563h-1.375l-1.26562-3.53125v-.17188zm0-7v1.6875h-6.53126l.625 2.01563h-1.375l-1.26562-3.53125v-.17188zm0-7v1.6875h-6.53126l.625 2.01563h-1.375l-1.26562-3.53125v-.17188zm-2.96876-6.25v3.29688h-1.375v-3.29688zm2.96876-5.75001v1.6875h-6.53126l.625 2.01562h-1.375l-1.26562-3.53125v-.17187zm0-8.73438v5.84375h-1.15626l-2.95312-2.76562q-.60938-.5625-1.07812-.82813-.46876-.28125-.875-.28125-.57813 0-.89063.29688-.32813.28125-.32813.8125 0 .57812.39063.90625.39063.32812 1.04687.32812v1.70313q-.78124 0-1.42187-.375-.65625-.375-1.01563-1.04688-.375-.6875-.375-1.54687 0-1.3125.64063-2.04688.625-.73437 1.78125-.73437.64062 0 1.29688.32812.65624.32813 1.53124 1.125l2.04688 1.9375v-3.65625zm-3.53126-6.90625q1.76563 0 2.71876.73438.9375.73437.9375 2.14062 0 1.40625-.92188 2.14063-.92188.73437-2.64062.75h-1.57813q-1.78125 0-2.70313-.73438-.9375-.75-.9375-2.14062 0-1.39063.92188-2.125.92188-.75 2.64062-.76563zm-1.71874 1.70313q-1.0625 0-1.54688.29687-.48438.28125-.48438.89063 0 .59375.46876.89062.45312.28125 1.4375.29688h2.0625q1.04687 0 1.5625-.28125.5-.28125.5-.92188 0-.60937-.48438-.89062-.48438-.28125-1.48438-.28125z"/><path d="m432.9568 277.46252v1.6875h-6.53126l.625 2.01563h-1.375l-1.26564-3.53125v-.17188zm0-8.73437v5.84375h-1.15626l-2.95314-2.76563q-.60936-.5625-1.0781-.82812-.46876-.28125-.875-.28125-.57814 0-.89064.29687-.32812.28125-.32812.8125 0 .57813.39062.90625.39064.32813 1.04688.32813v1.70312q-.78124 0-1.42188-.375-.65626-.375-1.01562-1.04687-.375-.6875-.375-1.54688 0-1.3125.64062-2.04687.625-.73438 1.78124-.73438.64064 0 1.2969.32813.65624.32812 1.53124 1.125l2.04686 1.9375v-3.65625zm0-5.26563v1.6875h-6.53126l.625 2.01563h-1.375l-1.26564-3.53125v-.17188zm-2.96876-6.25v3.29688h-1.375v-3.29688zm2.96876-5.75001v1.6875h-6.53126l.625 2.01562h-1.375l-1.26564-3.53125v-.17187zm-5.01564-4.60938v-.90625q0-.64062-.3125-.95312-.32812-.3125-.85936-.3125-.51564 0-.7969.3125-.29686.29687-.29686.84375 0 .48437.26562.8125.26564.32812.6875.32812v1.6875q-.65626 0-1.1875-.35937-.53126-.35938-.82812-1-.3125-.65625-.3125-1.4375 0-1.34375.65626-2.10938.6406-.78125 1.78124-.78125.59376 0 1.09376.35938.48436.35937.73436.9375.26564-.71875.78124-1.0625.51564-.35938 1.21876-.35938 1.14064 0 1.82814.82813.6875.82812.6875 2.1875 0 1.28125-.6719 2.09375-.6875.8125-1.79686.8125v-1.6875q.48436 0 .79686-.35938.2969-.375.2969-.89062 0-.60938-.3125-.95313-.32814-.34375-.8594-.34375-1.2656 0-1.2656 1.40625v.90625zm1.48438-11.03125q1.76562 0 2.71876.73438.9375.73437.9375 2.14062 0 1.40625-.9219 2.14063-.92186.73437-2.6406.75h-1.57814q-1.78126 0-2.70312-.73438-.9375-.75-.9375-2.14062 0-1.39063.92186-2.125.9219-.75 2.64064-.76563zm-1.71874 1.70313q-1.0625 0-1.5469.29687-.48436.28125-.48436.89063 0 .59375.46876.89062.4531.28125 1.4375.29688h2.0625q1.04686 0 1.5625-.28125.5-.28125.5-.92188 0-.60937-.4844-.89062-.48436-.28125-1.48436-.28125z"/><path d="m462.19595 277.4625v1.6875h-6.53125l.625 2.01562h-1.375l-1.26562-3.53125v-.17187zm-5.01562-4.60938v-.90625q0-.64063-.3125-.95313-.32813-.3125-.85938-.3125-.51562 0-.79687.3125-.29688.29688-.29688.84376 0 .48437.26563.8125.26562.32812.6875.32812v1.6875q-.65625 0-1.1875-.35938-.53125-.35937-.82813-1-.3125-.65624-.3125-1.4375 0-1.34374.65625-2.10937.64063-.78125 1.78125-.78125.59375 0 1.09375.35938.48438.35937.73438.9375.26562-.71876.78125-1.0625.51562-.35938 1.21875-.35938 1.14062 0 1.82812.82812.6875.82813.6875 2.1875 0 1.28126-.67187 2.09376-.6875.8125-1.79688.8125v-1.6875q.48438 0 .79688-.35938.29687-.375.29687-.89062 0-.60938-.3125-.95313-.32812-.34375-.85937-.34375-1.26563 0-1.26563 1.40625v.90625zm5.01562-9.39062v1.6875h-6.53125l.625 2.01562h-1.375l-1.26562-3.53125v-.17187zm-2.96875-6.25v3.29687h-1.375v-3.29687zm2.96875-5.74999v1.6875h-6.53125l.625 2.01562h-1.375l-1.26562-3.53125v-.17187zm-3.21875-7.90625v-.96875h1.375v.96875h1.84375v1.70312h-1.84375v3.48438l-1.0625.07812-5.625-3.54687v-1.71875zm0 3.57812v-1.875h-3l.1875.10938zm-.3125-11.3125q1.76563 0 2.71875.73438.9375.73437.9375 2.14062 0 1.40625-.92187 2.14063-.92188.73437-2.64063.75h-1.57812q-1.78125 0-2.70313-.73438-.9375-.75-.9375-2.14062 0-1.39063.92188-2.125.92187-.75 2.64062-.76563zm-1.71875 1.70313q-1.0625 0-1.54687.29687-.48438.28125-.48438.89063 0 .59375.46875.89062.45313.28125 1.4375.29688h2.0625q1.04688 0 1.5625-.28125.5-.28125.5-.92188 0-.60937-.48437-.89062-.48438-.28125-1.48438-.28125z"/><path d="m491.43515 277.4625v1.6875h-6.53125l.625 2.01562h-1.375l-1.26562-3.53125v-.17187zm-3.21875-7.90626v-.96874h1.375v.96874h1.84375v1.70313h-1.84375v3.48437l-1.0625.07813-5.625-3.54687v-1.71876zm0 3.57813v-1.875h-3l.1875.10937zm3.21875-9.67187v1.6875h-6.53125l.625 2.01562h-1.375l-1.26562-3.53125v-.17187zm-2.96875-6.25v3.29687h-1.375v-3.29687zm2.96875-5.74999v1.6875h-6.53125l.625 2.01562h-1.375l-1.26562-3.53125v-.17187zm-4.20312-3.14063-4.32813-.5v-4.78125h1.40625v3.39063l1.84375.21875q-.32812-.60938-.32812-1.28125 0-1.21875.76562-1.90625.75-.70313 2.10938-.70313.82812 0 1.48437.35938.64063.34375 1.01563 1 .35937.64062.35937 1.53125 0 .76562-.3125 1.4375-.32812.65625-.89062 1.04687-.5625.375-1.29688.40625v-1.6875q.53125-.04687.82813-.35937.29687-.32813.29687-.84375 0-.57813-.40625-.875-.42187-.3125-1.17187-.3125-.73438 0-1.10938.35937-.39062.34375-.39062 1 0 .60938.3125.98438l.15625.15625zm.67187-12.5q1.76563 0 2.71875.73438.9375.73437.9375 2.14062 0 1.40625-.92187 2.14063-.92188.73437-2.64063.75h-1.57812q-1.78125 0-2.70313-.73438-.9375-.75-.9375-2.14062 0-1.39063.92188-2.125.92187-.75 2.64062-.76563zm-1.71875 1.70313q-1.0625 0-1.54687.29687-.48438.28125-.48438.89063 0 .59375.46875.89062.45313.28125 1.4375.29688h2.0625q1.04688 0 1.5625-.28125.5-.28125.5-.92188 0-.60937-.48437-.89062-.48438-.28125-1.48438-.28125z"/><path d="m520.6744 277.4625v1.6875h-6.5313l.625 2.01562h-1.375l-1.2656-3.53125v-.17187zm-4.20315-3.14063-4.32815-.5v-4.78125h1.4063v3.39062l1.8437.21876q-.3281-.60938-.3281-1.28126 0-1.21874.7656-1.90624.75-.70313 2.1094-.70313.8281 0 1.4844.35937.6406.34376 1.0156 1 .3594.64063.3594 1.53126 0 .76562-.3125 1.4375-.32815.65624-.89065 1.04687-.5625.375-1.29685.40625v-1.6875q.5312-.04688.8281-.35938.2969-.32812.2969-.84374 0-.57813-.4063-.875-.42185-.3125-1.17185-.3125-.73435 0-1.10935.35937-.39065.34375-.39065 1 0 .60937.3125.98437l.15625.15626zm4.20315-10.85937v1.6875h-6.5313l.625 2.01562h-1.375l-1.2656-3.53125v-.17187zm1.3281-7.65626v5.34376h-1.3281v-5.34376zm-1.3281-4.34374v1.6875h-6.5313l.625 2.01562h-1.375l-1.2656-3.53125v-.17187zm-8.625-7.48438h1.4062v.15625q.01565 1.15625.5938 1.85937.5781.6875 1.60935.82813-.6875-.67187-.6875-1.70313 0-1.125.79685-1.78124.7969-.65626 2.0938-.65626.8281 0 1.5.35938.67185.35938 1.0625 1.03125.375.65625.375 1.48437 0 1.34376-.9375 2.17188-.95315.82812-2.51565.82812h-.60935q-1.39065 0-2.45315-.51562-1.0625-.53125-1.64065-1.5-.5781-.98438-.5937-2.28125zm4.2812 1.65625q0 .40625.2188.75.2031.32813.5625.48437h.5156q.84375 0 1.3281-.32812.4688-.34375.4688-.95312 0-.54688-.4219-.875-.4375-.34376-1.125-.34376-.7031 0-1.125.34376-.4219.34374-.4219.92187zm.8125-9.8125q1.76565 0 2.7188.73437.9375.73438.9375 2.14063 0 1.40625-.9219 2.14063-.9219.73437-2.6406.75h-1.57815q-1.78125 0-2.70315-.73438-.9375-.75-.9375-2.14062 0-1.39063.9219-2.125.9219-.75 2.6406-.76563zm-1.7187 1.70313q-1.0625 0-1.5469.29687-.4844.28125-.4844.89063 0 .59374.4688.89062.4531.28125 1.4375.29688h2.0625q1.04685 0 1.5625-.28126.5-.28124.5-.92187 0-.60937-.4844-.89063-.4844-.28124-1.4844-.28124z"/><path d="m546.27295 261.04062-1.1875 3.40625h-1.625l2.14065-5.10937h1.375l2.1406 5.10937h-1.6406zm3.64065-9.57812v1.6875h-6.5313l.625 2.01562h-1.375l-1.2656-3.53125v-.17187zm-8.625-7.48438h1.4062v.15625q.01565 1.15625.5938 1.85937.5781.6875 1.60935.82813-.6875-.67187-.6875-1.70313 0-1.125.79685-1.78124.7969-.65626 2.0938-.65626.8281 0 1.5.35938.67185.35938 1.0625 1.03125.375.65625.375 1.48437 0 1.34376-.9375 2.17188-.95315.82812-2.51565.82812h-.60935q-1.39065 0-2.45315-.51562-1.0625-.53125-1.64065-1.5-.5781-.98438-.5937-2.28125zm4.2812 1.65625q0 .40625.2188.75.2031.32813.5625.48437h.5156q.84375 0 1.3281-.32812.4688-.34375.4688-.95312 0-.54688-.4219-.875-.4375-.34376-1.125-.34376-.7031 0-1.125.34376-.4219.34374-.4219.92187zm.8125-9.8125q1.76565 0 2.7188.73437.9375.73438.9375 2.14063 0 1.40625-.9219 2.14063-.9219.73437-2.6406.75h-1.57815q-1.78125 0-2.70315-.73438-.9375-.75-.9375-2.14062 0-1.39063.9219-2.125.9219-.75 2.6406-.76563zm-1.7187 1.70313q-1.0625 0-1.5469.29687-.4844.28125-.4844.89063 0 .59374.4688.89062.4531.28125 1.4375.29688h2.0625q1.04685 0 1.5625-.28126.5-.28124.5-.92187 0-.60937-.4844-.89063-.4844-.28124-1.4844-.28124z"/><path d="m22.2875 27.50625h-4.109375l-.78125 2.34375h-2.484375l4.234375-11.375h2.171875l4.25 11.375h-2.484375zm-3.46875-1.90625h2.84375l-1.4375-4.25zm12.484375 1.90625q0-.40625-.421875-.640625-.40625-.25-1.3125-.4375-3.015625-.625-3.015625-2.5625 0-1.125.9375-1.875.9375-.75 2.4375-.75 1.609375 0 2.578125.765625.96875.75.96875 1.953125h-2.265625q0-.484375-.3125-.796875-.3125-.3125-.96875-.3125-.578125 0-.890625.265625-.3125.25-.3125.640625 0 .375.359375.609375.359375.234375 1.203125.40625.84375.15625 1.421875.375 1.781248.65625 1.781248 2.265625 0 1.15625-1 1.875-.984373.71875-2.546873.71875-1.0625 0-1.890625-.375-.828125-.390625-1.296875-1.046875-.46875-.65625-.46875-1.421875h2.140625q.03125.59375.4375.921875.421875.3125 1.125.3125.640625 0 .96875-.234375.34375-.25.34375-.65625zm11.031248-1.8125q0 1.953125-.890623 3.140625-.890627 1.171875-2.390627 1.171875-1.28125 0-2.078123-.890625v3.984375h-2.25v-11.703125h2.09375l.078123.828125q.8125-.984375 2.140627-.984375 1.5625 0 2.421873 1.15625.875 1.15625.875 3.1875zm-2.265623-.15625q0-1.1875-.421877-1.828125-.40625-.640625-1.203123-.640625-1.0625 0-1.46875.8125v3.46875q.421873.828125 1.484373.828125 1.609377 0 1.609377-2.640625zm7.546873 4.46875q-1.859373 0-3.03125-1.140625-1.171873-1.140625-1.171873-3.046875v-.21875q0-1.265625.484373-2.265625.5-1.015625 1.40625-1.546875.90625-.546875 2.0625-.546875 1.734377 0 2.71875 1.09375 1 1.09375 1 3.09375v.921875h-5.375q.109377.828125.65625 1.328125.546877.5 1.390627.5 1.3125 0 2.046873-.9375l1.109377 1.234375q-.515627.71875-1.390627 1.125-.859373.40625-1.90625.40625zm-.265623-6.9375q-.671877 0-1.09375.453125-.40625.453125-.53125 1.296875h3.140623v-.1875q-.015623-.75-.40625-1.15625-.390623-.40625-1.109373-.40625zm7.453123-1.671875.0625.96875q.90625-1.125 2.4375-1.125 1.34375 0 2 .796875.65625.78125.671877 2.34375v5.46875h-2.265627v-5.40625q0-.71875-.3125-1.046875-.3125-.328125-1.03125-.328125-.953123 0-1.4375.8125v5.96875h-2.25v-8.453125zm7.5 11.312498-1.171873-.625.28125-.499998q.515623-.953125.53125-1.90625v-1.75h1.90625v1.5625q-.015627.875-.453127 1.75-.421873.890625-1.09375 1.468748zm9.531247-11.312498.07813.9375q.89062-1.09375 2.42187-1.09375 1.64063 0 2.25 1.28125.89063-1.28125 2.53125-1.28125 1.375 0 2.04688.796875.67187.796875.67187 2.40625v5.40625h-2.26562v-5.390625q0-.71875-.28125-1.046875-.28125-.34375-.98438-.34375-1.01562 0-1.40625.96875v5.8125h-2.25v-5.390625q0-.734375-.29687-1.0625-.28125-.328125-.98438-.328125-.95312 0-1.39062.796875v5.984375h-2.25v-8.453125zm14.26563 8.453125h-2.26563v-8.453125h2.26563zm-2.39063-10.640625q0-.515625.32813-.84375.34375-.328125.9375-.328125.57812 0 .92187.328125.34375.328125.34375.84375 0 .515625-.35937.84375-.34375.328125-.92188.328125-.5625 0-.90625-.328125-.34375-.328125-.34375-.84375zm6.39063 10.640625h-2.26563v-12h2.26563zm4 0h-2.26563v-12h2.26563zm4 0h-2.26563v-8.453125h2.26563zm-2.39063-10.640625q0-.515625.32813-.84375.34375-.328125.9375-.328125.57812 0 .92187.328125.34375.328125.34375.84375 0 .515625-.35937.84375-.34375.328125-.92188.328125-.5625 0-.90625-.328125-.34375-.328125-.34375-.84375zm3.65625 6.328125q0-1.25.48438-2.234375.48437-.984375 1.39062-1.515625.92188-.546875 2.125-.546875 1.70313 0 2.78125 1.046875 1.09375 1.046875 1.21875 2.84375l.01563.578125q0 1.9375-1.09375 3.125-1.07813 1.171875-2.90625 1.171875-1.82813 0-2.92188-1.171875-1.09375-1.171875-1.09375-3.1875zm2.26563.171875q0 1.203125.45312 1.84375.45313.625 1.29688.625.8125 0 1.26562-.625.46875-.625.46875-2.015625 0-1.171875-.46875-1.8125-.45312-.65625-1.28125-.65625-.82812 0-1.28125.640625-.45312.640625-.45312 2zm9.17187-4.3125.0625.96875q.90625-1.125 2.4375-1.125 1.34375 0 2 .796875.65625.78125.67188 2.34375v5.46875h-2.26563v-5.40625q0-.71875-.3125-1.046875-.3125-.328125-1.03125-.328125-.95312 0-1.4375.8125v5.96875h-2.25v-8.453125zm13.03125 0 .07813.9375q.89062-1.09375 2.42187-1.09375 1.64063 0 2.25001 1.28125.89062-1.28125 2.53125-1.28125 1.375 0 2.04687.796875.67188.796875.67188 2.40625v5.40625h-2.26562v-5.390625q0-.71875-.28126-1.046875-.28124-.34375-.98437-.34375-1.01563 0-1.40625.96875v5.8125h-2.25001v-5.390625q0-.734375-.29687-1.0625-.28125-.328125-.98438-.328125-.95312 0-1.39062.796875v5.984375h-2.25v-8.453125zm14.09376 1.765625h1.20313q.85937 0 1.26562-.421875.42188-.4375.42188-1.15625 0-.6875-.42188-1.0625-.40625-.390625-1.125-.390625-.64062 0-1.07812.359375-.4375.359375-.4375.921875h-2.26563q0-.890625.48437-1.59375.48438-.703125 1.34376-1.09375.85937-.40625 1.90624-.40625 1.79688 0 2.8125.859375 1.03126.859375 1.03126 2.375 0 .78125-.48438 1.4375-.46875.65625-1.23438 1.015625.95313.34375 1.42188 1.03125.48438.6875.48438 1.625 0 1.515625-1.10938 2.4375-1.10938.90625-2.92188.90625-1.70312 0-2.79687-.890625-1.07813-.90625-1.07813-2.390625h2.26563q0 .640625.46875 1.046875.48438.40625 1.1875.40625.8125 0 1.26562-.421875.45313-.421875.45313-1.125 0-1.703125-1.875-1.703125h-1.1875z"/></g></svg>