<svg fill="none" height="300" stroke-linecap="square" stroke-miterlimit="10" viewBox="0 0 580 300" width="580" xmlns="http://www.w3.org/2000/svg"><path d="m0 0h580v300h-580z" fill="none"/><path d="m290 15c74.55844 0 135 60.44156 135 135s-60.44156 135-135 135v-33.75c55.91882 0 101.25-45.33116 101.25-101.25 0-55.91883-45.33118-101.25-101.25-101.25z" fill="#ffc000"/><path d="m264.70352 282.60876c-68.40329-13.04861-115.65779-75.98568-109.10438-145.31338 6.55339-69.3277 64.76411-122.29538 134.40086-122.29538v33.75c-52.22755 0-95.8856 39.72576-100.80064 91.72153-4.91506 51.99577 30.52581 99.19859 81.82829 108.98506z" fill="#4472c4"/><path d="m290 285c-8.4886 0-16.95825-.80063-25.29648-2.39124l6.32413-33.15217c6.25365 1.19295 12.60593 1.79341 18.97235 1.79341z" fill="#c00000"/><path d="m17.515625 130.4306v3h-1.75v-8.53125h3.328125q.953125 0 1.6875.35938.734375.34375 1.125 1 .390625.64062.390625 1.46875 0 1.25-.859375 1.98437-.859375.71875-2.375.71875zm0-1.4375h1.578125q.6875 0 1.046875-.32812.375-.32813.375-.9375 0-.625-.375-1-.359375-.39063-1.015625-.40625h-1.609375zm9.703125-.3125q-.34375-.04687-.609375-.04687-.96875 0-1.265625.64062v4.15625h-1.6875v-6.34375h1.59375l.046875.76563q.515625-.875 1.40625-.875.28125 0 .53125.07812zm2.21875 4.75h-1.703125v-6.34375h1.703125zm-1.796875-7.98437q0-.375.25-.625.265625-.25.703125-.25.421875 0 .671875.25.265625.25.265625.625 0 .39062-.265625.64062-.25.23438-.6875.23438-.421875 0-.6875-.23438-.25-.25-.25-.64062zm5.390625 5.92187 1.171875-4.28125h1.765625l-2.140625 6.34375h-1.609375l-2.140625-6.34375h1.765625zm7.296875 2.0625q-.125-.23437-.171875-.5625-.609375.6875-1.59375.6875-.9375 0-1.546875-.54687-.609375-.54688-.609375-1.35938 0-1.01562.734375-1.54687.75-.54688 2.171875-.54688h.765625v-.35937q0-.4375-.21875-.70313-.21875-.26562-.71875-.26562-.421875 0-.671875.20312-.234375.20313-.234375.5625h-1.6875q0-.54687.328125-1.01562.34375-.46875.96875-.73438.625-.26562 1.390625-.26562 1.171875 0 1.859375.59375.6875.57812.6875 1.64062v2.75q.015625.90625.25 1.375v.09375zm-1.40625-1.17187q.375 0 .6875-.17188.328125-.17187.46875-.45312v-1.09375h-.625q-1.265625 0-1.359375.89062v.09375q0 .3125.21875.53125.21875.20313.609375.20313zm5.75-6.73438v1.5625h1.09375v1.25h-1.09375v3.15625q0 .35938.140625.51563.140625.14062.515625.14062.28125 0 .5-.03125v1.28125q-.5.15625-1.03125.15625-1.78125 0-1.8125-1.8125v-3.40625h-.921875v-1.25h.921875v-1.5625zm4.890625 8.03125q-1.390625 0-2.265625-.85937-.875-.85938-.875-2.28125v-.17188q0-.95312.359375-1.70312.375-.75 1.046875-1.15625.6875-.40625 1.546875-.40625 1.3125 0 2.046875.82812.75.8125.75 2.3125v.6875h-4.03125q.078125.625.484375 1 .421875.375 1.0625.375.96875 0 1.515625-.70312l.84375.92187q-.390625.54688-1.046875.85938-.640625.29687-1.4375.29687zm-.1875-5.21875q-.5 0-.8125.34375-.3125.34375-.40625.96875h2.359375v-.125q-.015625-.5625-.3125-.875-.28125-.3125-.828125-.3125zm6.734375 5.09375v-5.09375h-.9375v-1.25h.9375v-.53125q0-1.07812.609375-1.65625.625-.59375 1.71875-.59375.359375 0 .859375.125l-.015625 1.3125q-.203125-.0625-.515625-.0625-.953125 0-.953125.90625v.5h1.265625v1.25h-1.265625v5.09375zm3.28125-3.23437q0-.9375.359375-1.67188.359375-.75 1.046875-1.14062.6875-.40625 1.578125-.40625 1.296875 0 2.09375.78125.8125.78125.90625 2.125l.015625.4375q0 1.46875-.8125 2.35937-.8125.875-2.1875.875-1.375 0-2.1875-.875-.8125-.89062-.8125-2.40625zm1.6875.125q0 .90625.34375 1.39062.34375.46875.96875.46875.625 0 .96875-.46875.34375-.46875.34375-1.51562 0-.875-.34375-1.35938-.34375-.5-.984375-.5-.609375 0-.953125.48438-.34375.48437-.34375 1.5zm9.140625-1.64063q-.34375-.04687-.609375-.04687-.96875 0-1.265625.64062v4.15625h-1.6875v-6.34375h1.59375l.046875.76563q.515625-.875 1.40625-.875.28125 0 .53125.07812zm3.34375 4.875q-1.390625 0-2.265625-.85937-.875-.85938-.875-2.28125v-.17188q0-.95312.359375-1.70312.375-.75 1.046875-1.15625.6875-.40625 1.546875-.40625 1.3125 0 2.046875.82812.75.8125.75 2.3125v.6875h-4.03125q.078125.625.484375 1 .421875.375 1.0625.375.96875 0 1.515625-.70312l.84375.92187q-.390625.54688-1.046875.85938-.640625.29687-1.4375.29687zm-.1875-5.21875q-.5 0-.8125.34375-.3125.34375-.40625.96875h2.359375v-.125q-.015625-.5625-.3125-.875-.28125-.3125-.828125-.3125zm6.703125 3.34375q0-.3125-.3125-.48437-.296875-.1875-.96875-.32813-2.265625-.46875-2.265625-1.92187 0-.84375.6875-1.40625.703125-.5625 1.84375-.5625 1.203125 0 1.921875.5625.734375.5625.734375 1.48437h-1.703125q0-.375-.234375-.60937-.234375-.23438-.734375-.23438-.421875 0-.65625.20313-.234375.1875-.234375.48437 0 .28125.265625.45313.265625.17187.890625.29687.640625.125 1.078125.28125 1.34375.5 1.34375 1.70313 0 .875-.75 1.42187-.734375.53125-1.921875.53125-.796875 0-1.421875-.28125-.609375-.29687-.96875-.78125-.34375-.5-.34375-1.07812h1.609375q.015625.45312.328125.70312.3125.23438.828125.23438.5 0 .734375-.1875.25-.1875.25-.48438zm4.59375-6.15625v1.5625h1.09375v1.25h-1.09375v3.15625q0 .35938.140625.51563.140625.14062.515625.14062.28125 0 .5-.03125v1.28125q-.5.15625-1.03125.15625-1.78125 0-1.8125-1.8125v-3.40625h-.921875v-1.25h.921875v-1.5625zm5.40625 6.15625q0-.3125-.3125-.48437-.296875-.1875-.96875-.32813-2.265625-.46875-2.265625-1.92187 0-.84375.6875-1.40625.703125-.5625 1.84375-.5625 1.203125 0 1.921875.5625.734375.5625.734375 1.48437h-1.703125q0-.375-.234375-.60937-.234375-.23438-.734375-.23438-.421875 0-.65625.20313-.234375.1875-.234375.48437 0 .28125.265625.45313.265625.17187.890625.29687.640625.125 1.078125.28125 1.34375.5 1.34375 1.70313 0 .875-.75 1.42187-.734375.53125-1.921875.53125-.796875 0-1.421875-.28125-.609375-.29687-.96875-.78125-.34375-.5-.34375-1.07812h1.609375q.015625.45312.328125.70312.3125.23438.828125.23438.5 0 .734375-.1875.25-.1875.25-.48438z" fill="#1a1a1a"/><path d="m20.59375 148.21185h.96875v1.375h-.96875v1.84375h-1.703125v-1.84375h-3.484375l-.078125-1.0625 3.546875-5.625h1.71875zm-3.578125 0h1.875v-3l-.109375.1875zm11.359375-4.35937-3.296875 7.57812h-1.78125l3.296875-7.15625h-4.234375v-1.375h6.015625zm1.359375 6.75q0-.40625.265625-.65625.28125-.25.6875-.25.421875 0 .6875.25.28125.25.28125.65625 0 .39062-.28125.64062-.265625.25-.6875.25-.40625 0-.6875-.25-.265625-.25-.265625-.64062zm8.59375-2.70313q0 1.76563-.734375 2.71875-.734375.9375-2.140625.9375-1.40625 0-2.140625-.92187-.734375-.92188-.75-2.64063v-1.57812q0-1.78125.734375-2.70313.75-.9375 2.140625-.9375 1.390625 0 2.125.92188.75.92187.765625 2.64062zm-1.703125-1.71875q0-1.0625-.296875-1.54687-.28125-.48438-.890625-.48438-.59375 0-.890625.46875-.28125.45313-.296875 1.4375v2.0625q0 1.04688.28125 1.5625.28125.5.921875.5.609375 0 .890625-.48437.28125-.48438.28125-1.48438zm2.9375-1.64062q0-.78125.5-1.26563.515625-.5 1.34375-.5.828125 0 1.34375.48438.515625.48437.515625 1.3125v.42187q0 .78125-.515625 1.26563-.515625.48437-1.328125.48437-.84375 0-1.359375-.48437-.5-.48438-.5-1.29688zm1.125.45312q0 .34375.203125.5625.203125.21875.53125.21875.328125 0 .515625-.21875.1875-.21875.1875-.57812v-.4375q0-.35938-.1875-.5625-.1875-.21875-.53125-.21875-.328125 0-.53125.21875-.1875.20312-.1875.57812zm2.953125 4.34375q0-.79687.515625-1.26562.515625-.48438 1.328125-.48438.828125 0 1.34375.48438.515625.46875.515625 1.29687v.42188q0 .79687-.5 1.28125-.5.48437-1.34375.48437-.84375 0-1.359375-.48437-.5-.5-.5-1.29688zm1.125.45313q0 .32812.203125.5625.21875.21875.53125.21875.71875 0 .71875-.78125v-.45313q0-.34375-.203125-.5625-.203125-.21875-.53125-.21875-.328125 0-.53125.21875-.1875.21875-.1875.57813zm-3.015625 1-.828125-.4375 4.171875-6.67188.828125.4375z" fill="#9e9e9e"/><path d="m15 137.9306h134 13.31918" stroke="#757575" stroke-linecap="butt"/><path d="m164.31918 137.9306c0-1.10457-.89543-2-2-2s-2 .89543-2 2 .89543 2 2 2 2-.89543 2-2" fill="#9e9e9e"/><path d="m18.0625 255.46875 2.1875 6.1875 2.1875-6.1875h2.296875v8.53125h-1.765625v-2.32812l.1875-4.03126-2.3125 6.35938h-1.203125l-2.296875-6.35938.171875 4.03126v2.32812h-1.75v-8.53125zm12.390625 7.89063q-.625.76562-1.734375.76562-1.03125 0-1.5625-.59375-.53125-.59375-.546875-1.71875v-4.15625h1.6875v4.09375q0 1 .90625 1 .859375 0 1.1875-.60938v-4.48437h1.703125v6.34375h-1.59375zm4.75-5.70313.0625.73437q.671875-.84374 1.8125-.84374 1.015625 0 1.5.59374.5.57813.515625 1.76563v4.09375h-1.703125v-4.0625q0-.53125-.234375-.76562-.234375-.25-.78125-.25-.703125 0-1.0625.60937v4.46875h-1.703125v-6.34375zm7.234375 6.34375h-1.703125v-6.34375h1.703125zm-1.796875-7.98438q0-.375.25-.625.265625-.25.703125-.25.421875 0 .671875.25.265625.25.265625.625 0 .39063-.265625.64063-.25.23437-.6875.23437-.421875 0-.6875-.23437-.25-.25-.25-.64063zm5.640625 6.73438q.46875 0 .765625-.25.296875-.26562.3125-.6875h1.578125q0 .64062-.34375 1.1875-.34375.53125-.953125.82812-.59375.29688-1.328125.29688-1.359375 0-2.140625-.85938-.78125-.875-.78125-2.40624v-.10938q0-1.46875.78125-2.32812.78125-.875 2.140625-.875 1.1875 0 1.90625.67187.71875.67187.71875 1.79687h-1.578125q-.015625-.48437-.3125-.79687-.296875-.3125-.765625-.3125-.59375 0-.90625.4375-.296875.4375-.296875 1.39063v.1875q0 .96874.296875 1.40624.296875.42188.90625.42188zm5.15625 1.25h-1.703125v-6.34375h1.703125zm-1.796875-7.98438q0-.375.25-.625.265625-.25.703125-.25.421875 0 .671875.25.265625.25.265625.625 0 .39063-.265625.64063-.25.23437-.6875.23437-.421875 0-.6875-.23437-.25-.25-.25-.64063zm8.71875 4.875q0 1.46876-.671875 2.35938-.65625.875-1.796875.875-.953125 0-1.546875-.67188v2.98438h-1.6875v-8.78125h1.5625l.0625.625q.609375-.73437 1.609375-.73437 1.171875 0 1.8125.875.65625.85937.65625 2.375zm-1.6875-.125q0-.89062-.328125-1.35937-.3125-.48437-.90625-.48437-.796875 0-1.09375.60937v2.59375q.3125.625 1.109375.625 1.21875 0 1.21875-1.98438zm6.65625 3.23438q-.125-.23438-.171875-.5625-.609375.6875-1.59375.6875-.9375 0-1.546875-.54688-.609375-.54687-.609375-1.35937 0-1.01563.734375-1.54687.75-.54688 2.171875-.54688h.765625v-.35938q0-.4375-.21875-.70312-.21875-.26562-.71875-.26562-.421875 0-.671875.20312-.234375.20312-.234375.5625h-1.6875q0-.54688.328125-1.01562.34375-.46876.96875-.73438.625-.26562 1.390625-.26562 1.171875 0 1.859375.59374.6875.57813.6875 1.64063v2.75q.015625.90625.25 1.375v.09375zm-1.40625-1.17188q.375 0 .6875-.17187.328125-.17187.46875-.45313v-1.09374h-.625q-1.265625 0-1.359375.89062v.09375q0 .3125.21875.53125.21875.20312.609375.20312zm5.515625 1.17188h-1.703125v-9h1.703125zm7.890625 0q-.125-.23438-.171875-.5625-.609375.6875-1.59375.6875-.9375 0-1.546875-.54688-.609375-.54687-.609375-1.35937 0-1.01563.734375-1.54687.75-.54688 2.171875-.54688h.765625v-.35938q0-.4375-.21875-.70312-.21875-.26562-.71875-.26562-.421875 0-.671875.20312-.234375.20312-.234375.5625h-1.6875q0-.54688.328125-1.01562.34375-.46876.96875-.73438.625-.26562 1.390625-.26562 1.171875 0 1.859375.59374.6875.57813.6875 1.64063v2.75q.015625.90625.25 1.375v.09375zm-1.40625-1.17188q.375 0 .6875-.17187.328125-.17187.46875-.45313v-1.09374h-.625q-1.265625 0-1.359375.89062v.09375q0 .3125.21875.53125.21875.20312.609375.20312zm5.28125-5.17187.0625.73437q.671875-.84374 1.8125-.84374 1.015625 0 1.5.59374.5.57813.515625 1.76563v4.09375h-1.703125v-4.0625q0-.53125-.234375-.76562-.234375-.25-.78125-.25-.703125 0-1.0625.60937v4.46875h-1.703125v-6.34375zm5.1875 3.125q0-1.48437.65625-2.35937.671875-.875 1.828125-.875.921875 0 1.53125.6875v-3.23438h1.6875v9h-1.515625l-.09375-.67188q-.625.79688-1.625.79688-1.125 0-1.796875-.875-.671875-.89062-.671875-2.46875zm1.6875.125q0 .89063.3125 1.375.3125.46875.90625.46875.78125 0 1.109375-.67188v-2.5q-.328125-.65624-1.09375-.65624-1.234375 0-1.234375 1.98437zm8.3125-.14063q0-.9375.359375-1.67187.359375-.75 1.046875-1.14063.6875-.40624 1.578125-.40624 1.296875 0 2.09375.78124.8125.78126.90625 2.125l.015625.4375q0 1.46876-.8125 2.35938-.8125.875-2.1875.875-1.375 0-2.1875-.875-.8125-.89062-.8125-2.40625zm1.6875.125q0 .90626.34375 1.39063.34375.46875.96875.46875.625 0 .96875-.46875.34375-.46875.34375-1.51563 0-.875-.34375-1.35937-.34375-.5-.984375-.5-.609375 0-.953125.48437-.34375.48438-.34375 1.5zm7.59375-4.79687v1.5625h1.09375v1.25h-1.09375v3.15625q0 .35938.140625.51562.140625.14063.515625.14063.28125 0 .5-.03125v1.28125q-.5.15625-1.03125.15625-1.78125 0-1.8125-1.8125v-3.40625h-.921875v-1.25h.921875v-1.5625zm3.625 2.25q.6875-.79687 1.703125-.79687 2.0625 0 2.09375 2.39062v4.0625h-1.703125v-4.01562q0-.54688-.234375-.79688-.234375-.26562-.78125-.26562-.734375 0-1.078125.57812v4.5h-1.6875v-9h1.6875zm8.265625 5.78125q-1.390625 0-2.265625-.85938-.875-.85937-.875-2.28124v-.17188q0-.95312.359375-1.70312.375-.75 1.046875-1.15626.6875-.40624 1.546875-.40624 1.3125 0 2.046875.82812.75.8125.75 2.3125v.6875h-4.03125q.078125.625.484375 1 .421875.375 1.0625.375.96875 0 1.515625-.70312l.84375.92187q-.390625.54687-1.046875.85937-.640625.29688-1.4375.29688zm-.1875-5.21875q-.5 0-.8125.34375-.3125.34375-.40625.96875h2.359375v-.125q-.015625-.5625-.3125-.875-.28125-.3125-.828125-.3125zm6.84375.34375q-.34375-.04688-.609375-.04688-.96875 0-1.265625.64063v4.15625h-1.6875v-6.34375h1.59375l.046875.76563q.515625-.875 1.40625-.875.28125 0 .53125.07812z" fill="#1a1a1a"/><path d="m17.296875 276.98438h.90625q.640625 0 .953125-.3125.3125-.32813.3125-.85938 0-.51562-.3125-.79688-.296875-.29687-.84375-.29687-.484375 0-.8125.26563-.328125.26562-.328125.6875h-1.6875q0-.65626.359375-1.1875.359375-.53126 1-.82813.65625-.3125 1.4375-.3125 1.34375 0 2.109375.65625.78125.64062.78125 1.78125 0 .59375-.359375 1.09375-.359375.48438-.9375.73438.71875.26562 1.0625.78124.359375.51563.359375 1.21876 0 1.14062-.828125 1.82812-.828125.6875-2.1875.6875-1.28125 0-2.09375-.67188-.8125-.6875-.8125-1.79687h1.6875q0 .48437.359375.79687.375.29688.890625.29688.609375 0 .953125-.3125.34375-.32812.34375-.85938 0-1.26562-1.40625-1.26562h-.90625zm5.4375 4.1875q0-.40626.265625-.65626.28125-.25.6875-.25.421875 0 .6875.25.28125.25.28125.65626 0 .39062-.28125.64062-.265625.25-.6875.25-.40625 0-.6875-.25-.265625-.25-.265625-.64062zm8.59375-2.70313q0 1.76563-.734375 2.71875-.734375.9375-2.140625.9375-1.40625 0-2.140625-.92188-.734375-.92187-.75-2.64062v-1.57812q0-1.78126.734375-2.70313.75-.9375 2.140625-.9375 1.390625 0 2.125.92187.75.92188.765625 2.64063zm-1.703125-1.71875q0-1.0625-.296875-1.54688-.28125-.48437-.890625-.48437-.59375 0-.890625.46875-.28125.45312-.296875 1.4375v2.0625q0 1.04688.28125 1.5625.28125.5.921875.5.609375 0 .890625-.48438.28125-.48437.28125-1.48437zm2.9375-1.64062q0-.78126.5-1.26563.515625-.5 1.34375-.5.828125 0 1.34375.48437.515625.48438.515625 1.3125v.42188q0 .78125-.515625 1.26562-.515625.48438-1.328125.48438-.84375 0-1.359375-.48438-.5-.48437-.5-1.29687zm1.125.45312q0 .34375.203125.5625.203125.21875.53125.21875.328125 0 .515625-.21875.1875-.21875.1875-.57812v-.4375q0-.35938-.1875-.5625-.1875-.21876-.53125-.21876-.328125 0-.53125.21876-.1875.20312-.1875.57812zm2.953125 4.34375q0-.79687.515625-1.26563.515625-.48437 1.328125-.48437.828125 0 1.34375.48437.515625.46876.515625 1.29688v.42188q0 .79687-.5 1.28124-.5.48438-1.34375.48438-.84375 0-1.359375-.48438-.5-.5-.5-1.29687zm1.125.45313q0 .32812.203125.5625.21875.21874.53125.21874.71875 0 .71875-.78124v-.45313q0-.34375-.203125-.5625-.203125-.21875-.53125-.21875-.328125 0-.53125.21875-.1875.21875-.1875.57813zm-3.015625 1-.828125-.4375 4.171875-6.67188.828125.4375z" fill="#9e9e9e"/><path d="m15 268.5h134l128.9306 9.18082" stroke="#757575" stroke-linecap="butt"/><path d="m279.9306 277.68082c0-1.10456-.8954-2-2-2-1.10455 0-2 .89544-2 2 0 1.10458.89545 2 2 2 1.1046 0 2-.89542 2-2" fill="#9e9e9e"/><path d="m503.1875 143.26562q0-.5-.35938-.76562-.34374-.26562-1.26562-.5625-.90625-.29688-1.4375-.59375-1.45312-.78125-1.45312-2.10937 0-.6875.39062-1.23438.39062-.54688 1.10938-.84375.73437-.3125 1.64062-.3125.92188 0 1.625.34375.71875.32812 1.10938.9375.40624.59375.40624 1.35938h-1.76562q0-.57813-.375-.90626-.35938-.32812-1.03125-.32812-.64063 0-1 .28125-.35937.26563-.35937.70313 0 .42187.42187.70312.42187.28125 1.23437.53125 1.5.45313 2.1875 1.125.6875.65625.6875 1.65625 0 1.10938-.84374 1.75-.82813.625-2.25.625-.98438 0-1.79688-.35938-.8125-.375-1.23438-1-.42187-.625-.42187-1.45312h1.76563q0 1.42188 1.6875 1.42188.625 0 .96874-.25.35938-.26563.35938-.71876zm4.48438-5.67187v1.5625h1.09374v1.25h-1.09374v3.15625q0 .35938.14062.51562.14062.14063.51562.14063.28126 0 .5-.03125v1.28125q-.5.15625-1.03124.15625-1.78126 0-1.8125-1.8125v-3.40625h-.92188v-1.25h.92188v-1.5625zm5.65622 7.90625q-.125-.23438-.17185-.5625-.60935.6875-1.59375.6875-.9375 0-1.54688-.54688-.60937-.54687-.60937-1.35937 0-1.01563.73437-1.54687.75-.54688 2.17188-.54688h.7656v-.35938q0-.4375-.2187-.70312-.2188-.26562-.7188-.26562-.42185 0-.67185.20312-.23437.20312-.23437.5625h-1.6875q0-.54688.32812-1.01562.34375-.46876.96875-.73438.625-.26562 1.39065-.26562 1.17185 0 1.85935.59374.6875.57813.6875 1.64063v2.75q.01565.90625.25 1.375v.09375zm-1.40622-1.17188q.37502 0 .68752-.17187.3281-.17187.4687-.45313v-1.09374h-.625q-1.2656 0-1.35935.89062v.09375q0 .3125.21875.53125.21875.20312.60938.20312zm5.75002-6.73437v1.5625h1.0937v1.25h-1.0937v3.15625q0 .35938.1406.51562.1406.14063.5156.14063.2813 0 .5-.03125v1.28125q-.5.15625-1.0312.15625-1.7813 0-1.8125-1.8125v-3.40625h-.9219v-1.25h.9219v-1.5625zm4.8906 8.03125q-1.3906 0-2.2656-.85938-.875-.85937-.875-2.28124v-.17188q0-.95312.35935-1.70312.375-.75 1.04685-1.15626.6875-.40624 1.5469-.40624 1.3125 0 2.0469.82812.75.8125.75 2.3125v.6875h-4.0313q.07815.625.4844 1 .4219.375 1.0625.375.96875 0 1.5156-.70312l.8438.92187q-.39065.54687-1.0469.85937-.6406.29688-1.4375.29688zm-.1875-5.21875q-.5 0-.8125.34375-.3125.34375-.40625.96875h2.35935v-.125q-.0156-.5625-.3125-.875-.2812-.3125-.8281-.3125zm6.7344 5.09375v-5.09375h-.9375v-1.25h.9375v-.53125q0-1.07812.60935-1.65625.625-.59375 1.71875-.59375.3594 0 .8594.125l-.01565 1.3125q-.20315-.0625-.51565-.0625-.9531 0-.9531.90625v.5h1.2656v1.25h-1.2656v5.09375zm3.2812-3.23438q0-.9375.3594-1.67187.3594-.75 1.0469-1.14063.6875-.40624 1.5781-.40624 1.2969 0 2.09375.78124.8125.78126.90625 2.125l.0156.4375q0 1.46876-.8125 2.35938-.8125.875-2.1875.875-1.375 0-2.1875-.875-.8125-.89062-.8125-2.40625zm1.6875.125q0 .90626.3438 1.39063.3437.46875.9687.46875.625 0 .9688-.46875.3437-.46875.3437-1.51563 0-.875-.3437-1.35937-.3438-.5-.9844-.5-.6094 0-.9531.48437-.3438.48438-.3438 1.5zm9.14065-1.64062q-.34375-.04688-.60935-.04688-.9688 0-1.26565.64063v4.15625h-1.6875v-6.34375h1.59375l.0469.76563q.5156-.875 1.4062-.875.2813 0 .5313.07812zm3.34375 4.875q-1.3906 0-2.2656-.85938-.875-.85937-.875-2.28124v-.17188q0-.95312.35935-1.70312.375-.75 1.04685-1.15626.6875-.40624 1.5469-.40624 1.3125 0 2.0469.82812.75.8125.75 2.3125v.6875h-4.0313q.07815.625.4844 1 .4219.375 1.0625.375.96875 0 1.5156-.70312l.8438.92187q-.39065.54687-1.0469.85937-.6406.29688-1.4375.29688zm-.1875-5.21875q-.5 0-.8125.34375-.3125.34375-.40625.96875h2.35935v-.125q-.0156-.5625-.3125-.875-.2812-.3125-.8281-.3125zm6.7031 3.34375q0-.3125-.3125-.48438-.29685-.1875-.9687-.32812-2.26565-.46875-2.26565-1.92188 0-.84374.6875-1.40624.70315-.5625 1.84375-.5625 1.2031 0 1.9219.5625.73435.5625.73435 1.48437h-1.70315q0-.375-.23435-.60937-.23435-.23438-.73435-.23438-.4219 0-.6563.20312-.23435.1875-.23435.48438 0 .28125.26565.45312.2656.17188.8906.29688.6406.125 1.0781.28125 1.3438.5 1.3438 1.70313 0 .875-.75 1.42187-.7344.53125-1.9219.53125-.7969 0-1.4219-.28125-.60935-.29687-.9687-.78125-.3438-.5-.3438-1.07812h1.6094q.0156.45312.3281.70312.3125.23438.82815.23438.5 0 .73435-.1875.25-.1875.25-.48438zm4.5938-6.15625v1.5625h1.0937v1.25h-1.0937v3.15625q0 .35938.1406.51562.1406.14063.5156.14063.2813 0 .5-.03125v1.28125q-.5.15625-1.0312.15625-1.7813 0-1.8125-1.8125v-3.40625h-.9219v-1.25h.9219v-1.5625zm5.4062 6.15625q0-.3125-.3125-.48438-.29685-.1875-.9687-.32812-2.26565-.46875-2.26565-1.92188 0-.84374.6875-1.40624.70315-.5625 1.84375-.5625 1.2031 0 1.9219.5625.73435.5625.73435 1.48437h-1.70315q0-.375-.23435-.60937-.23435-.23438-.73435-.23438-.4219 0-.6563.20312-.23435.1875-.23435.48438 0 .28125.26565.45312.2656.17188.8906.29688.6406.125 1.0781.28125 1.3438.5 1.3438 1.70313 0 .875-.75 1.42187-.7344.53125-1.9219.53125-.7969 0-1.4219-.28125-.60935-.29687-.9687-.78125-.3438-.5-.3438-1.07812h1.6094q.0156.45312.3281.70312.3125.23438.82815.23438.5 0 .73435-.1875.25-.1875.25-.48438z" fill="#1a1a1a"/><path d="m532.8281 159.29688.5-4.32813h4.7813v1.40625h-3.39065l-.21875 1.84375q.6094-.32813 1.28125-.32813 1.21875 0 1.90625.76563.7031.75.7031 2.10937 0 .82813-.35935 1.48438-.34375.64062-1 1.01562-.64065.35938-1.53125.35938-.7656 0-1.4375-.3125-.65625-.32812-1.0469-.89062-.375-.5625-.4062-1.29688h1.6875q.04685.53125.35935.82812.32815.29688.84375.29688.5781 0 .875-.40625.3125-.42187.3125-1.17187 0-.73438-.3594-1.10938-.3437-.39062-1-.39062-.60935 0-.98435.3125l-.15625.15624zm12.5.67187q0 1.76563-.73435 2.71875-.73435.9375-2.14065.9375-1.4062 0-2.1406-.92188-.7344-.92187-.75-2.64062v-1.57812q0-1.78126.7344-2.70313.75-.9375 2.1406-.9375 1.3906 0 2.125.92187.75.92188.7656 2.64063zm-1.7031-1.71875q0-1.0625-.2969-1.54688-.2812-.48437-.8906-.48437-.59375 0-.8906.46875-.2813.45312-.2969 1.4375v2.0625q0 1.04688.28125 1.5625.28125.5.92185.5.6094 0 .89065-.48438.28125-.48437.28125-1.48437zm3.1094 4.42188q0-.40626.2656-.65626.28125-.25.6875-.25.4219 0 .6875.25.28125.25.28125.65626 0 .39062-.28125.64062-.2656.25-.6875.25-.40625 0-.6875-.25-.2656-.25-.2656-.64062zm8.5937-2.70313q0 1.76563-.73435 2.71875-.73435.9375-2.14065.9375-1.4062 0-2.1406-.92188-.7344-.92187-.75-2.64062v-1.57812q0-1.78126.7344-2.70313.75-.9375 2.1406-.9375 1.3906 0 2.125.92187.75.92188.7656 2.64063zm-1.7031-1.71875q0-1.0625-.2969-1.54688-.2812-.48437-.8906-.48437-.59375 0-.8906.46875-.2813.45312-.2969 1.4375v2.0625q0 1.04688.28125 1.5625.28125.5.92185.5.6094 0 .89065-.48438.28125-.48437.28125-1.48437zm2.9375-1.64062q0-.78126.5-1.26563.5156-.5 1.34375-.5.82815 0 1.34375.48437.5156.48438.5156 1.3125v.42188q0 .78125-.5156 1.26562-.5156.48438-1.3281.48438-.8438 0-1.3594-.48438-.5-.48437-.5-1.29687zm1.125.45312q0 .34375.2031.5625.20315.21875.5313.21875.3281 0 .5156-.21875.1875-.21875.1875-.57812v-.4375q0-.35938-.1875-.5625-.1875-.21876-.53125-.21876-.32815 0-.53125.21876-.1875.20312-.1875.57812zm2.9531 4.34375q0-.79687.51565-1.26563.51565-.48437 1.32815-.48437.8281 0 1.3437.48437.51565.46876.51565 1.29688v.42188q0 .79687-.5 1.28124-.5.48438-1.34375.48438-.84375 0-1.3594-.48438-.5-.5-.5-1.29687zm1.125.45313q0 .32812.20315.5625.21875.21874.53125.21874.71875 0 .71875-.78124v-.45313q0-.34375-.20315-.5625-.2031-.21875-.5312-.21875-.32815 0-.5313.21875-.1875.21875-.1875.57813zm-3.0156 1-.8281-.4375 4.17185-6.67188.82815.4375z" fill="#9e9e9e"/><path d="m565 150h-134-12.75" stroke="#757575" stroke-linecap="butt"/><path d="m420.25 150c0-1.10457-.89542-2-2-2s-2 .89543-2 2 .89542 2 2 2 2-.89543 2-2" fill="#9e9e9e"/></svg>