<svg fill="none" height="300" stroke-linecap="square" stroke-miterlimit="10" viewBox="0 0 580 300" width="580" xmlns="http://www.w3.org/2000/svg"><path d="m0 0h580v300h-580z" fill="none"/><path d="m290 15c74.55844 0 135 60.44156 135 135s-60.44156 135-135 135v-33.75c55.91882 0 101.25-45.33116 101.25-101.25 0-55.91883-45.33118-101.25-101.25-101.25z" fill="#ffc000"/><path d="m264.70352 282.60876c-68.40329-13.04861-115.65779-75.98568-109.10438-145.31338 6.55339-69.3277 64.76411-122.29538 134.40086-122.29538v33.75c-52.22755 0-95.8856 39.72576-100.80064 91.72153-4.91506 51.99577 30.52581 99.19859 81.82829 108.98506z" fill="#4472c4"/><path d="m290 285c-8.4886 0-16.95825-.80063-25.29648-2.39124l6.32413-33.15217c6.25365 1.19295 12.60593 1.79341 18.97235 1.79341z" fill="#c00000"/><path d="m17.515625 130.4306v3h-1.75v-8.53125h3.328125q.953125 0 1.6875.35938.734375.34375 1.125 1 .390625.64062.390625 1.46875 0 1.25-.859375 1.98437-.859375.71875-2.375.71875zm0-1.4375h1.578125q.6875 0 1.046875-.32812.375-.32813.375-.9375 0-.625-.375-1-.359375-.39063-1.015625-.40625h-1.609375zm9.703125-.3125q-.34375-.04687-.609375-.04687-.96875 0-1.265625.64062v4.15625h-1.6875v-6.34375h1.59375l.046875.76563q.515625-.875 1.40625-.875.28125 0 .53125.07812zm2.21875 4.75h-1.703125v-6.34375h1.703125zm-1.796875-7.98437q0-.375.25-.625.265625-.25.703125-.25.421875 0 .671875.25.265625.25.265625.625 0 .39062-.265625.64062-.25.23438-.6875.23438-.421875 0-.6875-.23438-.25-.25-.25-.64062zm5.390625 5.92187 1.171875-4.28125h1.765625l-2.140625 6.34375h-1.609375l-2.140625-6.34375h1.765625zm7.296875 2.0625q-.125-.23437-.171875-.5625-.609375.6875-1.59375.6875-.9375 0-1.546875-.54687-.609375-.54688-.609375-1.35938 0-1.01562.734375-1.54687.75-.54688 2.171875-.54688h.765625v-.35937q0-.4375-.21875-.70313-.21875-.26562-.71875-.26562-.421875 0-.671875.20312-.234375.20313-.234375.5625h-1.6875q0-.54687.328125-1.01562.34375-.46875.96875-.73438.625-.26562 1.390625-.26562 1.171875 0 1.859375.59375.6875.57812.6875 1.64062v2.75q.015625.90625.25 1.375v.09375zm-1.40625-1.17187q.375 0 .6875-.17188.328125-.17187.46875-.45312v-1.09375h-.625q-1.265625 0-1.359375.89062v.09375q0 .3125.21875.53125.21875.20313.609375.20313zm2.34375-6.375h-4.046875v-.96875h4.046875zm3.40625-.35938v1.5625h1.09375v1.25h-1.09375v3.15625q0 .35938.140625.51563.140625.14062.515625.14062.28125 0 .5-.03125v1.28125q-.5.15625-1.03125.15625-1.78125 0-1.8125-1.8125v-3.40625h-.921875v-1.25h.921875v-1.5625zm3.765625 7.90625h-1.703125v-6.34375h1.703125zm-1.796875-7.98437q0-.375.25-.625.265625-.25.703125-.25.421875 0 .671875.25.265625.25.265625.625 0 .39062-.265625.64062-.25.23438-.6875.23438-.421875 0-.6875-.23438-.25-.25-.25-.64062zm5.921875 8.10937q-1.390625 0-2.265625-.85937-.875-.85938-.875-2.28125v-.17188q0-.95312.359375-1.70312.375-.75 1.046875-1.15625.6875-.40625 1.546875-.40625 1.3125 0 2.046875.82812.75.8125.75 2.3125v.6875h-4.03125q.078125.625.484375 1 .421875.375 1.0625.375.96875 0 1.515625-.70312l.84375.92187q-.390625.54688-1.046875.85938-.640625.29687-1.4375.29687zm-.1875-5.21875q-.5 0-.8125.34375-.3125.34375-.40625.96875h2.359375v-.125q-.015625-.5625-.3125-.875-.28125-.3125-.828125-.3125zm7.859375-1.25.0625.71875q.671875-.82812 1.8125-.82812 1.234375 0 1.6875.96875.671875-.96875 1.90625-.96875 1.03125 0 1.53125.60937.5.59375.5 1.79688v4.04687h-1.6875v-4.04687q0-.53125-.21875-.78125-.203125-.25-.75-.25-.75 0-1.046875.71875v4.35937h-1.6875v-4.03125q0-.5625-.21875-.79687-.21875-.25-.734375-.25-.71875 0-1.046875.59375v4.48437h-1.6875v-6.34375zm11.328125 6.46875q-1.390625 0-2.265625-.85937-.875-.85938-.875-2.28125v-.17188q0-.95312.359375-1.70312.375-.75 1.046875-1.15625.6875-.40625 1.546875-.40625 1.3125 0 2.046875.82812.75.8125.75 2.3125v.6875h-4.03125q.078125.625.484375 1 .421875.375 1.0625.375.96875 0 1.515625-.70312l.84375.92187q-.390625.54688-1.046875.85938-.640625.29687-1.4375.29687zm-.1875-5.21875q-.5 0-.8125.34375-.3125.34375-.40625.96875h2.359375v-.125q-.015625-.5625-.3125-.875-.28125-.3125-.828125-.3125zm5.21875 3.73438h3.109375v1.35937h-5.265625v-1.03125l2.984375-3.9375h-2.90625v-1.375h5.09375v1zm.46875-6.8125.84375-.82813h1.453125v.0625l-1.765625 1.64063h-1.078125l-1.765625-1.65625v-.04688h1.453125zm5.375 8.17187h-1.703125v-6.34375h1.703125zm-1.796875-7.98437q0-.375.25-.625.265625-.25.703125-.25.421875 0 .671875.25.265625.25.265625.625 0 .39062-.265625.64062-.25.23438-.6875.23438-.421875 0-.6875-.23438-.25-.25-.25-.64062z" fill="#1a1a1a"/><path d="m20.59375 148.21185h.96875v1.375h-.96875v1.84375h-1.703125v-1.84375h-3.484375l-.078125-1.0625 3.546875-5.625h1.71875zm-3.578125 0h1.875v-3l-.109375.1875zm11.359375-4.35937-3.296875 7.57812h-1.78125l3.296875-7.15625h-4.234375v-1.375h6.015625zm1.359375 6.75q0-.40625.265625-.65625.28125-.25.6875-.25.421875 0 .6875.25.28125.25.28125.65625 0 .39062-.28125.64062-.265625.25-.6875.25-.40625 0-.6875-.25-.265625-.25-.265625-.64062zm8.59375-2.70313q0 1.76563-.734375 2.71875-.734375.9375-2.140625.9375-1.40625 0-2.140625-.92187-.734375-.92188-.75-2.64063v-1.57812q0-1.78125.734375-2.70313.75-.9375 2.140625-.9375 1.390625 0 2.125.92188.75.92187.765625 2.64062zm-1.703125-1.71875q0-1.0625-.296875-1.54687-.28125-.48438-.890625-.48438-.59375 0-.890625.46875-.28125.45313-.296875 1.4375v2.0625q0 1.04688.28125 1.5625.28125.5.921875.5.609375 0 .890625-.48437.28125-.48438.28125-1.48438zm2.9375-1.64062q0-.78125.5-1.26563.515625-.5 1.34375-.5.828125 0 1.34375.48438.515625.48437.515625 1.3125v.42187q0 .78125-.515625 1.26563-.515625.48437-1.328125.48437-.84375 0-1.359375-.48437-.5-.48438-.5-1.29688zm1.125.45312q0 .34375.203125.5625.203125.21875.53125.21875.328125 0 .515625-.21875.1875-.21875.1875-.57812v-.4375q0-.35938-.1875-.5625-.1875-.21875-.53125-.21875-.328125 0-.53125.21875-.1875.20312-.1875.57812zm2.953125 4.34375q0-.79687.515625-1.26562.515625-.48438 1.328125-.48438.828125 0 1.34375.48438.515625.46875.515625 1.29687v.42188q0 .79687-.5 1.28125-.5.48437-1.34375.48437-.84375 0-1.359375-.48437-.5-.5-.5-1.29688zm1.125.45313q0 .32812.203125.5625.21875.21875.53125.21875.71875 0 .71875-.78125v-.45313q0-.34375-.203125-.5625-.203125-.21875-.53125-.21875-.328125 0-.53125.21875-.1875.21875-.1875.57813zm-3.015625 1-.828125-.4375 4.171875-6.67188.828125.4375z" fill="#9e9e9e"/><path d="m15 137.9306h134 13.31918" stroke="#757575" stroke-linecap="butt"/><path d="m164.31918 137.9306c0-1.10457-.89543-2-2-2s-2 .89543-2 2 .89543 2 2 2 2-.89543 2-2" fill="#9e9e9e"/><path d="m17.515625 261v3h-1.75v-8.53125h3.328125q.953125 0 1.6875.35937.734375.34376 1.125 1 .390625.64063.390625 1.46876 0 1.25-.859375 1.98437-.859375.71875-2.375.71875zm0-1.4375h1.578125q.6875 0 1.046875-.32812.375-.32813.375-.9375 0-.625-.375-1-.359375-.39063-1.015625-.40626h-1.609375zm9.8125 4.4375q-.125-.23438-.171875-.5625-.609375.6875-1.59375.6875-.9375 0-1.546875-.54688-.609375-.54687-.609375-1.35937 0-1.01563.734375-1.54687.75-.54688 2.171875-.54688h.765625v-.35938q0-.4375-.21875-.70312-.21875-.26562-.71875-.26562-.421875 0-.671875.20312-.234375.20312-.234375.5625h-1.6875q0-.54688.328125-1.01562.34375-.46876.96875-.73438.625-.26562 1.390625-.26562 1.171875 0 1.859375.59374.6875.57813.6875 1.64063v2.75q.015625.90625.25 1.375v.09375zm-1.40625-1.17188q.375 0 .6875-.17187.328125-.17187.46875-.45313v-1.09374h-.625q-1.265625 0-1.359375.89062v.09375q0 .3125.21875.53125.21875.20312.609375.20312zm7.15625-.57812q0-.3125-.3125-.48438-.296875-.1875-.96875-.32812-2.265625-.46875-2.265625-1.92188 0-.84374.6875-1.40624.703125-.5625 1.84375-.5625 1.203125 0 1.921875.5625.734375.5625.734375 1.48437h-1.703125q0-.375-.234375-.60937-.234375-.23438-.734375-.23438-.421875 0-.65625.20312-.234375.1875-.234375.48438 0 .28125.265625.45312.265625.17188.890625.29688.640625.125 1.078125.28125 1.34375.5 1.34375 1.70313 0 .875-.75 1.42187-.734375.53125-1.921875.53125-.796875 0-1.421875-.28125-.609375-.29687-.96875-.78125-.34375-.5-.34375-1.07812h1.609375q.015625.45312.328125.70312.3125.23438.828125.23438.5 0 .734375-.1875.25-.1875.25-.48438zm-.96875-6.42188.84375-.82812h1.453125v.0625l-1.765625 1.64062h-1.078125l-1.765625-1.65624v-.04688h1.453125zm5.921875 6.10938 1.171875-4.28125h1.765625l-2.140625 6.34375h-1.609375l-2.140625-6.34375h1.765625zm7.296875 2.0625q-.125-.23438-.171875-.5625-.609375.6875-1.59375.6875-.9375 0-1.546875-.54688-.609375-.54687-.609375-1.35937 0-1.01563.734375-1.54687.75-.54688 2.171875-.54688h.765625v-.35938q0-.4375-.21875-.70312-.21875-.26562-.71875-.26562-.421875 0-.671875.20312-.234375.20312-.234375.5625h-1.6875q0-.54688.328125-1.01562.34375-.46876.96875-.73438.625-.26562 1.390625-.26562 1.171875 0 1.859375.59374.6875.57813.6875 1.64063v2.75q.015625.90625.25 1.375v.09375zm-1.40625-1.17188q.375 0 .6875-.17187.328125-.17187.46875-.45313v-1.09374h-.625q-1.265625 0-1.359375.89062v.09375q0 .3125.21875.53125.21875.20312.609375.20312zm5.515625 1.17188h-1.703125v-9h1.703125zm.953125-3.21875q0-1.48437.65625-2.35937.671875-.875 1.828125-.875.921875 0 1.53125.6875v-3.23438h1.6875v9h-1.515625l-.09375-.67188q-.625.79688-1.625.79688-1.125 0-1.796875-.875-.671875-.89062-.671875-2.46875zm1.6875.125q0 .89063.3125 1.375.3125.46875.90625.46875.78125 0 1.109375-.67188v-2.5q-.328125-.65624-1.09375-.65624-1.234375 0-1.234375 1.98437zm7.40625 3.09375h-1.703125v-6.34375h1.703125zm1.203125-7.45312h-4.046875v-.96876h4.046875zm5.671875 4.34374q0 1.51563-.65625 2.375-.640625.85938-1.8125.85938-1.03125 0-1.640625-.79688l-.078125.67188h-1.515625v-9h1.6875v3.23438q.59375-.6875 1.546875-.6875 1.15625 0 1.8125.85937.65625.84375.65625 2.39063zm-1.6875-.125q0-.96874-.3125-1.40624-.296875-.4375-.90625-.4375-.796875 0-1.109375.65624v2.5q.3125.67188 1.125.67188.828125 0 1.078125-.8125.125-.375.125-1.17188zm6.78125 2.59376q-.625.76562-1.734375.76562-1.03125 0-1.5625-.59375-.53125-.59375-.546875-1.71875v-4.15625h1.6875v4.09375q0 1 .90625 1 .859375 0 1.1875-.60938v-4.48437h1.703125v6.34375h-1.59375zm10 0q-.625.76562-1.734375.76562-1.03125 0-1.5625-.59375-.53125-.59375-.546875-1.71875v-4.15625h1.6875v4.09375q0 1 .90625 1 .859375 0 1.1875-.60938v-4.48437h1.703125v6.34375h-1.59375zm4.75-5.70313.0625.73437q.671875-.84374 1.8125-.84374 1.015625 0 1.5.59374.5.57813.515625 1.76563v4.09375h-1.703125v-4.0625q0-.53125-.234375-.76562-.234375-.25-.78125-.25-.703125 0-1.0625.60937v4.46875h-1.703125v-6.34375zm11.078125 5.09375q.46875 0 .765625-.25.296875-.26562.3125-.6875h1.578125q0 .64062-.34375 1.1875-.34375.53125-.953125.82812-.59375.29688-1.328125.29688-1.359375 0-2.140625-.85938-.78125-.875-.78125-2.40624v-.10938q0-1.46875.78125-2.32812.78125-.875 2.140625-.875 1.1875 0 1.90625.67187.71875.67187.71875 1.79687h-1.578125q-.015625-.48437-.3125-.79687-.296875-.3125-.765625-.3125-.59375 0-.90625.4375-.296875.4375-.296875 1.39063v.1875q0 .96874.296875 1.40624.296875.42188.90625.42188zm5.15625 1.25h-1.703125v-6.34375h1.703125zm-1.796875-7.98438q0-.375.25-.625.265625-.25.703125-.25.421875 0 .671875.25.265625.25.265625.625 0 .39063-.265625.64063-.25.23437-.6875.23437-.421875 0-.6875-.23437-.25-.25-.25-.64063zm5.03125.07813v1.5625h1.09375v1.25h-1.09375v3.15625q0 .35938.140625.51562.140625.14063.515625.14063.28125 0 .5-.03125v1.28125q-.5.15625-1.03125.15625-1.78125 0-1.8125-1.8125v-3.40625h-.921875v-1.25h.921875v-1.5625zm3.765625 7.90625h-1.703125v-6.34375h1.703125zm-1.796875-7.98438q0-.375.25-.625.265625-.25.703125-.25.421875 0 .671875.25.265625.25.265625.625 0 .39063-.265625.64063-.25.23437-.6875.23437-.421875 0-.6875-.23437-.25-.25-.25-.64063zm7.59375 1.64063.0625.71875q.671875-.82812 1.8125-.82812 1.234375 0 1.6875.96874.671875-.96874 1.90625-.96874 1.03125 0 1.53125.60937.5.59375.5 1.79687v4.04688h-1.6875v-4.04688q0-.53124-.21875-.78124-.203125-.25-.75-.25-.75 0-1.046875.71874v4.35938h-1.6875v-4.03125q0-.5625-.21875-.79687-.21875-.25-.734375-.25-.71875 0-1.046875.59374v4.48438h-1.6875v-6.34375zm11.328125 6.46875q-1.390625 0-2.265625-.85938-.875-.85937-.875-2.28124v-.17188q0-.95312.359375-1.70312.375-.75 1.046875-1.15626.6875-.40624 1.546875-.40624 1.3125 0 2.04688.82812.75.8125.75 2.3125v.6875h-4.031255q.078125.625.484375 1 .421875.375 1.0625.375.96875 0 1.51562-.70312l.84376.92187q-.39063.54687-1.04688.85937-.640625.29688-1.4375.29688zm-.1875-5.21875q-.5 0-.8125.34375-.3125.34375-.40625.96875h2.359375v-.125q-.015625-.5625-.3125-.875-.28125-.3125-.828125-.3125zm5.21875 3.73437h3.10937v1.35938h-5.26562v-1.03125l2.98438-3.9375h-2.90626v-1.375h5.09376v1zm.46875-6.8125.84375-.82812h1.45313v.0625l-1.76563 1.64062h-1.07813l-1.76562-1.65624v-.04688h1.45312zm5.375 8.17188h-1.70312v-6.34375h1.70312zm-1.79688-7.98438q0-.375.25-.625.26563-.25.70313-.25.42187 0 .67187.25.26563.25.26563.625 0 .39063-.26563.64063-.25.23437-.6875.23437-.42187 0-.6875-.23437-.25-.25-.25-.64063z" fill="#1a1a1a"/><path d="m17.296875 276.98438h.90625q.640625 0 .953125-.3125.3125-.32813.3125-.85938 0-.51562-.3125-.79688-.296875-.29687-.84375-.29687-.484375 0-.8125.26563-.328125.26562-.328125.6875h-1.6875q0-.65626.359375-1.1875.359375-.53126 1-.82813.65625-.3125 1.4375-.3125 1.34375 0 2.109375.65625.78125.64062.78125 1.78125 0 .59375-.359375 1.09375-.359375.48438-.9375.73438.71875.26562 1.0625.78124.359375.51563.359375 1.21876 0 1.14062-.828125 1.82812-.828125.6875-2.1875.6875-1.28125 0-2.09375-.67188-.8125-.6875-.8125-1.79687h1.6875q0 .48437.359375.79687.375.29688.890625.29688.609375 0 .953125-.3125.34375-.32812.34375-.85938 0-1.26562-1.40625-1.26562h-.90625zm5.4375 4.1875q0-.40626.265625-.65626.28125-.25.6875-.25.421875 0 .6875.25.28125.25.28125.65626 0 .39062-.28125.64062-.265625.25-.6875.25-.40625 0-.6875-.25-.265625-.25-.265625-.64062zm8.59375-2.70313q0 1.76563-.734375 2.71875-.734375.9375-2.140625.9375-1.40625 0-2.140625-.92188-.734375-.92187-.75-2.64062v-1.57812q0-1.78126.734375-2.70313.75-.9375 2.140625-.9375 1.390625 0 2.125.92187.75.92188.765625 2.64063zm-1.703125-1.71875q0-1.0625-.296875-1.54688-.28125-.48437-.890625-.48437-.59375 0-.890625.46875-.28125.45312-.296875 1.4375v2.0625q0 1.04688.28125 1.5625.28125.5.921875.5.609375 0 .890625-.48438.28125-.48437.28125-1.48437zm2.9375-1.64062q0-.78126.5-1.26563.515625-.5 1.34375-.5.828125 0 1.34375.48437.515625.48438.515625 1.3125v.42188q0 .78125-.515625 1.26562-.515625.48438-1.328125.48438-.84375 0-1.359375-.48438-.5-.48437-.5-1.29687zm1.125.45312q0 .34375.203125.5625.203125.21875.53125.21875.328125 0 .515625-.21875.1875-.21875.1875-.57812v-.4375q0-.35938-.1875-.5625-.1875-.21876-.53125-.21876-.328125 0-.53125.21876-.1875.20312-.1875.57812zm2.953125 4.34375q0-.79687.515625-1.26563.515625-.48437 1.328125-.48437.828125 0 1.34375.48437.515625.46876.515625 1.29688v.42188q0 .79687-.5 1.28124-.5.48438-1.34375.48438-.84375 0-1.359375-.48438-.5-.5-.5-1.29687zm1.125.45313q0 .32812.203125.5625.21875.21874.53125.21874.71875 0 .71875-.78124v-.45313q0-.34375-.203125-.5625-.203125-.21875-.53125-.21875-.328125 0-.53125.21875-.1875.21875-.1875.57813zm-3.015625 1-.828125-.4375 4.171875-6.67188.828125.4375z" fill="#9e9e9e"/><path d="m15 268.5h134l128.9306 9.18082" stroke="#757575" stroke-linecap="butt"/><path d="m279.9306 277.68082c0-1.10456-.8954-2-2-2-1.10455 0-2 .89544-2 2 0 1.10458.89545 2 2 2 1.1046 0 2-.89542 2-2" fill="#9e9e9e"/><path d="m507.92188 143.39062 1.92187-6.42187h1.96875l-2.98438 8.53125h-1.82812l-2.95312-8.53125h1.95312zm8.40622 2.10938q-.125-.23438-.17185-.5625-.60935.6875-1.59375.6875-.9375 0-1.5469-.54688-.60935-.54687-.60935-1.35937 0-1.01563.73435-1.54687.75-.54688 2.1719-.54688h.7656v-.35938q0-.4375-.2187-.70312-.2188-.26562-.7188-.26562-.42185 0-.67185.20312-.23435.20312-.23435.5625h-1.6875q0-.54688.3281-1.01562.34375-.46876.96875-.73438.625-.26562 1.39065-.26562 1.17185 0 1.85935.59374.6875.57813.6875 1.64063v2.75q.01565.90625.25 1.375v.09375zm-1.4062-1.17188q.375 0 .6875-.17187.3281-.17187.4687-.45313v-1.09374h-.625q-1.2656 0-1.35935.89062v.09375q0 .3125.21875.53125.21875.20312.6094.20312zm5.5156 1.17188h-1.7031v-9h1.7031zm4.6406-1.75q0-.3125-.3125-.48438-.29685-.1875-.9687-.32812-2.26565-.46875-2.26565-1.92188 0-.84374.6875-1.40624.70315-.5625 1.84375-.5625 1.2031 0 1.9219.5625.73435.5625.73435 1.48437h-1.70315q0-.375-.23435-.60937-.23435-.23438-.73435-.23438-.4219 0-.6563.20312-.23435.1875-.23435.48438 0 .28125.26565.45312.2656.17188.8906.29688.6406.125 1.0781.28125 1.3438.5 1.3438 1.70313 0 .875-.75 1.42187-.7344.53125-1.9219.53125-.7969 0-1.4219-.28125-.60935-.29687-.9687-.78125-.3438-.5-.3438-1.07812h1.6094q.0156.45312.3281.70312.3125.23438.82815.23438.5 0 .73435-.1875.25-.1875.25-.48438zm4.5938-6.15625v1.5625h1.0937v1.25h-1.0937v3.15625q0 .35938.1406.51562.1406.14063.5156.14063.2813 0 .5-.03125v1.28125q-.5.15625-1.0312.15625-1.7813 0-1.8125-1.8125v-3.40625h-.9219v-1.25h.9219v-1.5625zm5.4062 6.15625q0-.3125-.3125-.48438-.29685-.1875-.9687-.32812-2.26565-.46875-2.26565-1.92188 0-.84374.6875-1.40624.70315-.5625 1.84375-.5625 1.2031 0 1.9219.5625.73435.5625.73435 1.48437h-1.70315q0-.375-.23435-.60937-.23435-.23438-.73435-.23438-.4219 0-.6563.20312-.23435.1875-.23435.48438 0 .28125.26565.45312.2656.17188.8906.29688.6406.125 1.0781.28125 1.3438.5 1.3438 1.70313 0 .875-.75 1.42187-.7344.53125-1.9219.53125-.7969 0-1.4219-.28125-.60935-.29687-.9687-.78125-.3438-.5-.3438-1.07812h1.6094q.0156.45312.3281.70312.3125.23438.82815.23438.5 0 .73435-.1875.25-.1875.25-.48438zm7.1563-4.59375.0625.71875q.67185-.82812 1.8125-.82812 1.23435 0 1.6875.96874.67185-.96874 1.9062-.96874 1.0313 0 1.5313.60937.5.59375.5 1.79687v4.04688h-1.6875v-4.04688q0-.53124-.2188-.78124-.2031-.25-.75-.25-.75 0-1.04685.71874v4.35938h-1.6875v-4.03125q0-.5625-.21875-.79687-.21875-.25-.7344-.25-.7187 0-1.04685.59374v4.48438h-1.6875v-6.34375zm11.3281 6.46875q-1.3906 0-2.2656-.85938-.875-.85937-.875-2.28124v-.17188q0-.95312.35935-1.70312.375-.75 1.04685-1.15626.6875-.40624 1.5469-.40624 1.3125 0 2.0469.82812.75.8125.75 2.3125v.6875h-4.0313q.07815.625.4844 1 .4219.375 1.0625.375.96875 0 1.5156-.70312l.8438.92187q-.39065.54687-1.0469.85937-.6406.29688-1.4375.29688zm-.1875-5.21875q-.5 0-.8125.34375-.3125.34375-.40625.96875h2.35935v-.125q-.0156-.5625-.3125-.875-.2812-.3125-.8281-.3125zm5.21875 3.73437h3.10935v1.35938h-5.2656v-1.03125l2.9844-3.9375h-2.9063v-1.375h5.0938v1zm.46875-6.8125.84375-.82812h1.45315v.0625l-1.76565 1.64062h-1.07815l-1.7656-1.65624v-.04688h1.4531zm5.375 8.17188h-1.7031v-6.34375h1.7031zm-1.7969-7.98438q0-.375.25-.625.26565-.25.70315-.25.42185 0 .67185.25.26565.25.26565.625 0 .39063-.26565.64063-.25.23437-.6875.23437-.42185 0-.6875-.23437-.25-.25-.25-.64063z" fill="#1a1a1a"/><path d="m532.8281 159.29688.5-4.32813h4.7813v1.40625h-3.39065l-.21875 1.84375q.6094-.32813 1.28125-.32813 1.21875 0 1.90625.76563.7031.75.7031 2.10937 0 .82813-.35935 1.48438-.34375.64062-1 1.01562-.64065.35938-1.53125.35938-.7656 0-1.4375-.3125-.65625-.32812-1.0469-.89062-.375-.5625-.4062-1.29688h1.6875q.04685.53125.35935.82812.32815.29688.84375.29688.5781 0 .875-.40625.3125-.42187.3125-1.17187 0-.73438-.3594-1.10938-.3437-.39062-1-.39062-.60935 0-.98435.3125l-.15625.15624zm12.5.67187q0 1.76563-.73435 2.71875-.73435.9375-2.14065.9375-1.4062 0-2.1406-.92188-.7344-.92187-.75-2.64062v-1.57812q0-1.78126.7344-2.70313.75-.9375 2.1406-.9375 1.3906 0 2.125.92187.75.92188.7656 2.64063zm-1.7031-1.71875q0-1.0625-.2969-1.54688-.2812-.48437-.8906-.48437-.59375 0-.8906.46875-.2813.45312-.2969 1.4375v2.0625q0 1.04688.28125 1.5625.28125.5.92185.5.6094 0 .89065-.48438.28125-.48437.28125-1.48437zm3.1094 4.42188q0-.40626.2656-.65626.28125-.25.6875-.25.4219 0 .6875.25.28125.25.28125.65626 0 .39062-.28125.64062-.2656.25-.6875.25-.40625 0-.6875-.25-.2656-.25-.2656-.64062zm8.5937-2.70313q0 1.76563-.73435 2.71875-.73435.9375-2.14065.9375-1.4062 0-2.1406-.92188-.7344-.92187-.75-2.64062v-1.57812q0-1.78126.7344-2.70313.75-.9375 2.1406-.9375 1.3906 0 2.125.92187.75.92188.7656 2.64063zm-1.7031-1.71875q0-1.0625-.2969-1.54688-.2812-.48437-.8906-.48437-.59375 0-.8906.46875-.2813.45312-.2969 1.4375v2.0625q0 1.04688.28125 1.5625.28125.5.92185.5.6094 0 .89065-.48438.28125-.48437.28125-1.48437zm2.9375-1.64062q0-.78126.5-1.26563.5156-.5 1.34375-.5.82815 0 1.34375.48437.5156.48438.5156 1.3125v.42188q0 .78125-.5156 1.26562-.5156.48438-1.3281.48438-.8438 0-1.3594-.48438-.5-.48437-.5-1.29687zm1.125.45312q0 .34375.2031.5625.20315.21875.5313.21875.3281 0 .5156-.21875.1875-.21875.1875-.57812v-.4375q0-.35938-.1875-.5625-.1875-.21876-.53125-.21876-.32815 0-.53125.21876-.1875.20312-.1875.57812zm2.9531 4.34375q0-.79687.51565-1.26563.51565-.48437 1.32815-.48437.8281 0 1.3437.48437.51565.46876.51565 1.29688v.42188q0 .79687-.5 1.28124-.5.48438-1.34375.48438-.84375 0-1.3594-.48438-.5-.5-.5-1.29687zm1.125.45313q0 .32812.20315.5625.21875.21874.53125.21874.71875 0 .71875-.78124v-.45313q0-.34375-.20315-.5625-.2031-.21875-.5312-.21875-.32815 0-.5313.21875-.1875.21875-.1875.57813zm-3.0156 1-.8281-.4375 4.17185-6.67188.82815.4375z" fill="#9e9e9e"/><path d="m565 150h-134-12.75" stroke="#757575" stroke-linecap="butt"/><path d="m420.25 150c0-1.10457-.89542-2-2-2s-2 .89543-2 2 .89542 2 2 2 2-.89543 2-2" fill="#9e9e9e"/></svg>