<svg fill="none" height="300" stroke-linecap="square" stroke-miterlimit="10" viewBox="0 0 580 300" width="580" xmlns="http://www.w3.org/2000/svg" xmlns:xlink="http://www.w3.org/1999/xlink"><clipPath id="a"><path d="m58 51.5h507v180.5h-507z"/></clipPath><path d="m0 0h580v300h-580z" fill="none"/><path d="m58.5 232.5h507" stroke="#333" stroke-linecap="butt"/><path d="m58.5 186.5h507" stroke="#ccc" stroke-linecap="butt"/><path d="m58.5 141.5h507" stroke="#ccc" stroke-linecap="butt"/><path d="m58.5 96.5h507" stroke="#ccc" stroke-linecap="butt"/><path d="m58.5 51.5h507" stroke="#ccc" stroke-linecap="butt"/><path d="m58.5 216.5h507" stroke="#e6e6e6" stroke-linecap="butt"/><path d="m58.5 201.5h507" stroke="#e6e6e6" stroke-linecap="butt"/><path d="m58.5 171.5h507" stroke="#e6e6e6" stroke-linecap="butt"/><path d="m58.5 156.5h507" stroke="#e6e6e6" stroke-linecap="butt"/><path d="m58.5 126.5h507" stroke="#e6e6e6" stroke-linecap="butt"/><path d="m58.5 111.5h507" stroke="#e6e6e6" stroke-linecap="butt"/><path d="m58.5 81.5h507" stroke="#e6e6e6" stroke-linecap="butt"/><path d="m58.5 66.5h507" stroke="#e6e6e6" stroke-linecap="butt"/><path d="m58.5 232.5v-181" stroke="#000" stroke-linecap="butt"/><path clip-path="url(#a)" d="m88 232h-19v-2c0-1.10457.89543-2 2-2h15c1.10457 0 2 .89543 2 2z"/><path clip-path="url(#a)" d="m88 232h-19v-2c0-1.10457.89543-2 2-2h15c1.10457 0 2 .89543 2 2z" fill="#70ad47"/><path clip-path="url(#a)" d="m117 232h-19v-39c0-1.10457.89543-2 2-2h15c1.10457 0 2 .89543 2 2z"/><path clip-path="url(#a)" d="m117 232h-19v-39c0-1.10457.89543-2 2-2h15c1.10457 0 2 .89543 2 2z" fill="#70ad47"/><path clip-path="url(#a)" d="m146 232h-19v-69c0-1.10457.89543-2 2-2h15c1.10457 0 2 .89543 2 2z"/><path clip-path="url(#a)" d="m146 232h-19v-69c0-1.10457.89543-2 2-2h15c1.10457 0 2 .89543 2 2z" fill="#70ad47"/><path clip-path="url(#a)" d="m175 232h-19v-90c0-1.10457.89543-2 2-2h15c1.10457 0 2 .89543 2 2z"/><path clip-path="url(#a)" d="m175 232h-19v-90c0-1.10457.89543-2 2-2h15c1.10457 0 2 .89543 2 2z" fill="#70ad47"/><path clip-path="url(#a)" d="m205 232h-19v-137c0-1.10457.89543-2 2-2h15c1.10457 0 2 .89543 2 2z"/><path clip-path="url(#a)" d="m205 232h-19v-137c0-1.10457.89543-2 2-2h15c1.10457 0 2 .89543 2 2z" fill="#70ad47"/><path clip-path="url(#a)" d="m234 232h-19v-170c0-1.10457.89543-2 2-2h15c1.10457 0 2 .89543 2 2z"/><path clip-path="url(#a)" d="m234 232h-19v-170c0-1.10457.89543-2 2-2h15c1.10457 0 2 .89543 2 2z" fill="#38761d"/><path clip-path="url(#a)" d="m263 232h-19v-172c0-1.10457.89543-2 2-2h15c1.10458 0 2 .89543 2 2z"/><path clip-path="url(#a)" d="m263 232h-19v-172c0-1.10457.89543-2 2-2h15c1.10458 0 2 .89543 2 2z" fill="#38761d"/><path clip-path="url(#a)" d="m292 232h-19v-152c0-1.10457.89542-2 2-2h15c1.10458 0 2 .89543 2 2z"/><path clip-path="url(#a)" d="m292 232h-19v-152c0-1.10457.89542-2 2-2h15c1.10458 0 2 .89543 2 2z" fill="#38761d"/><path clip-path="url(#a)" d="m322 232h-19v-121c0-1.10457.89542-2 2-2h15c1.10458 0 2 .89543 2 2z"/><path clip-path="url(#a)" d="m322 232h-19v-121c0-1.10457.89542-2 2-2h15c1.10458 0 2 .89543 2 2z" fill="#38761d"/><path clip-path="url(#a)" d="m351 232h-19v-93c0-1.10457.89542-2 2-2h15c1.10458 0 2 .89543 2 2z"/><path clip-path="url(#a)" d="m351 232h-19v-93c0-1.10457.89542-2 2-2h15c1.10458 0 2 .89543 2 2z" fill="#274e13"/><path clip-path="url(#a)" d="m380 232h-19v-53c0-1.10457.89542-2 2-2h15c1.10458 0 2 .89543 2 2z"/><path clip-path="url(#a)" d="m380 232h-19v-53c0-1.10457.89542-2 2-2h15c1.10458 0 2 .89543 2 2z" fill="#274e13"/><path clip-path="url(#a)" d="m409 232h-19v-32c0-1.10457.89542-2 2-2h15c1.10458 0 2 .89543 2 2z"/><path clip-path="url(#a)" d="m409 232h-19v-32c0-1.10457.89542-2 2-2h15c1.10458 0 2 .89543 2 2z" fill="#274e13"/><path clip-path="url(#a)" d="m438 232h-19v-23c0-1.10457.89542-2 2-2h15c1.10458 0 2 .89543 2 2z"/><path clip-path="url(#a)" d="m438 232h-19v-23c0-1.10457.89542-2 2-2h15c1.10458 0 2 .89543 2 2z" fill="#274e13"/><path clip-path="url(#a)" d="m468 232h-19v-15c0-1.10457.89542-2 2-2h15c1.10458 0 2 .89543 2 2z"/><path clip-path="url(#a)" d="m468 232h-19v-15c0-1.10457.89542-2 2-2h15c1.10458 0 2 .89543 2 2z" fill="#7b5e40"/><path clip-path="url(#a)" d="m497 232h-19v-10c0-1.10457.89542-2 2-2h15c1.10458 0 2 .89543 2 2z"/><path clip-path="url(#a)" d="m497 232h-19v-10c0-1.10457.89542-2 2-2h15c1.10458 0 2 .89543 2 2z" fill="#7b5e40"/><path clip-path="url(#a)" d="m526 232h-19v-4c0-1.10457.89542-2 2-2h15c1.10455 0 2 .89543 2 2z"/><path clip-path="url(#a)" d="m526 232h-19v-4c0-1.10457.89542-2 2-2h15c1.10455 0 2 .89543 2 2z" fill="#7b5e40"/><path clip-path="url(#a)" d="m555 232h-19v-10c0-1.10457.89545-2 2-2h15c1.10455 0 2 .89543 2 2z"/><path clip-path="url(#a)" d="m555 232h-19v-10c0-1.10457.89545-2 2-2h15c1.10455 0 2 .89543 2 2z" fill="#7b5e40"/><path d="m52.5 232.5h12" stroke="#000" stroke-linecap="butt"/><path d="m52.5 186.5h12" stroke="#000" stroke-linecap="butt"/><path d="m52.5 141.5h12" stroke="#000" stroke-linecap="butt"/><path d="m52.5 96.5h12" stroke="#000" stroke-linecap="butt"/><path d="m52.5 51.5h12" stroke="#000" stroke-linecap="butt"/><path d="m75.921875 234.5488h-5.84375v-1.15625l2.765625-2.95313q.5625-.60937.828125-1.07812.28125-.46875.28125-.875 0-.57813-.296875-.89063-.28125-.32812-.8125-.32812-.578125 0-.90625.39062-.328125.39063-.328125 1.04688h-1.703125q0-.78125.375-1.42188.375-.65625 1.046875-1.01562.6875-.375 1.546875-.375 1.3125 0 2.046875.64062.734375.625.734375 1.78125 0 .64063-.328125 1.29688-.328125.65625-1.125 1.53125l-1.9375 2.04687h3.65625zm1.3125-.82813q0-.40625.265625-.65625.28125-.25.6875-.25.421875 0 .6875.25.28125.25.28125.65625 0 .39063-.28125.64063-.265625.25-.6875.25-.40625 0-.6875-.25-.265625-.25-.265625-.64063zm8.6875.82813h-5.84375v-1.15625l2.765625-2.95313q.5625-.60937.828125-1.07812.28125-.46875.28125-.875 0-.57813-.296875-.89063-.28125-.32812-.8125-.32812-.578125 0-.90625.39062-.328125.39063-.328125 1.04688h-1.703125q0-.78125.375-1.42188.375-.65625 1.046875-1.01562.6875-.375 1.546875-.375 1.3125 0 2.046875.64062.734375.625.734375 1.78125 0 .64063-.328125 1.29688-.328125.65625-1.125 1.53125l-1.9375 2.04687h3.65625z" stroke="#70ad47" stroke-linecap="round" stroke-linejoin="round" stroke-width="3"/><path d="m75.921875 234.5488h-5.84375v-1.15625l2.765625-2.95313q.5625-.60937.828125-1.07812.28125-.46875.28125-.875 0-.57813-.296875-.89063-.28125-.32812-.8125-.32812-.578125 0-.90625.39062-.328125.39063-.328125 1.04688h-1.703125q0-.78125.375-1.42188.375-.65625 1.046875-1.01562.6875-.375 1.546875-.375 1.3125 0 2.046875.64062.734375.625.734375 1.78125 0 .64063-.328125 1.29688-.328125.65625-1.125 1.53125l-1.9375 2.04687h3.65625zm1.3125-.82813q0-.40625.265625-.65625.28125-.25.6875-.25.421875 0 .6875.25.28125.25.28125.65625 0 .39063-.28125.64063-.265625.25-.6875.25-.40625 0-.6875-.25-.265625-.25-.265625-.64063zm8.6875.82813h-5.84375v-1.15625l2.765625-2.95313q.5625-.60937.828125-1.07812.28125-.46875.28125-.875 0-.57813-.296875-.89063-.28125-.32812-.8125-.32812-.578125 0-.90625.39062-.328125.39063-.328125 1.04688h-1.703125q0-.78125.375-1.42188.375-.65625 1.046875-1.01562.6875-.375 1.546875-.375 1.3125 0 2.046875.64062.734375.625.734375 1.78125 0 .64063-.328125 1.29688-.328125.65625-1.125 1.53125l-1.9375 2.04687h3.65625z" fill="#fff"/><path d="m101.421875 215.76326h-5.84375v-1.15625l2.765625-2.95313q.5625-.60937.828125-1.07812.28125-.46875.28125-.875 0-.57813-.296875-.89063-.28125-.32812-.8125-.32812-.578125 0-.90625.39062-.328125.39063-.328125 1.04688h-1.703125q0-.78125.375-1.42188.375-.65625 1.046875-1.01562.6875-.375 1.546875-.375 1.3125 0 2.046875.64062.734375.625.734375 1.78125 0 .64063-.328125 1.29688-.328125.65625-1.125 1.53125l-1.9375 2.04687h3.65625zm2.875-5.01563h.90625q.640625 0 .953125-.3125.3125-.32812.3125-.85937 0-.51563-.3125-.79688-.296875-.29687-.84375-.29687-.484375 0-.8125.26562-.328125.26563-.328125.6875h-1.6875q0-.65625.359375-1.1875.359375-.53125 1-.82812.65625-.3125 1.4375-.3125 1.34375 0 2.109375.65625.78125.64062.78125 1.78125 0 .59375-.359375 1.09375-.359375.48437-.9375.73437.71875.26563 1.0625.78125.359375.51563.359375 1.21875 0 1.14063-.828125 1.82813-.828125.6875-2.1875.6875-1.28125 0-2.09375-.67188-.8125-.6875-.8125-1.79687h1.6875q0 .48437.359375.79687.375.29688.890625.29688.609375 0 .953125-.3125.34375-.32813.34375-.85938 0-1.26562-1.40625-1.26562h-.90625zm5.4375 4.1875q0-.40625.265625-.65625.28125-.25.6875-.25.421875 0 .6875.25.28125.25.28125.65625 0 .39063-.28125.64063-.265625.25-.6875.25-.40625 0-.6875-.25-.265625-.25-.265625-.64063zm8.59375-2.70312q0 1.76562-.734375 2.71875-.734375.9375-2.140625.9375-1.40625 0-2.140625-.92188-.734375-.92187-.75-2.64062v-1.57813q0-1.78125.734375-2.70312.75-.9375 2.140625-.9375 1.390625 0 2.125.92187.75.92188.765625 2.64063zm-1.703125-1.71875q0-1.0625-.296875-1.54688-.28125-.48437-.890625-.48437-.59375 0-.890625.46875-.28125.45312-.296875 1.4375v2.0625q0 1.04687.28125 1.5625.28125.5.921875.5.609375 0 .890625-.48438.28125-.48437.28125-1.48437z" stroke="#70ad47" stroke-linecap="round" stroke-linejoin="round" stroke-width="3"/><path d="m101.421875 215.76326h-5.84375v-1.15625l2.765625-2.95313q.5625-.60937.828125-1.07812.28125-.46875.28125-.875 0-.57813-.296875-.89063-.28125-.32812-.8125-.32812-.578125 0-.90625.39062-.328125.39063-.328125 1.04688h-1.703125q0-.78125.375-1.42188.375-.65625 1.046875-1.01562.6875-.375 1.546875-.375 1.3125 0 2.046875.64062.734375.625.734375 1.78125 0 .64063-.328125 1.29688-.328125.65625-1.125 1.53125l-1.9375 2.04687h3.65625zm2.875-5.01563h.90625q.640625 0 .953125-.3125.3125-.32812.3125-.85937 0-.51563-.3125-.79688-.296875-.29687-.84375-.29687-.484375 0-.8125.26562-.328125.26563-.328125.6875h-1.6875q0-.65625.359375-1.1875.359375-.53125 1-.82812.65625-.3125 1.4375-.3125 1.34375 0 2.109375.65625.78125.64062.78125 1.78125 0 .59375-.359375 1.09375-.359375.48437-.9375.73437.71875.26563 1.0625.78125.359375.51563.359375 1.21875 0 1.14063-.828125 1.82813-.828125.6875-2.1875.6875-1.28125 0-2.09375-.67188-.8125-.6875-.8125-1.79687h1.6875q0 .48437.359375.79687.375.29688.890625.29688.609375 0 .953125-.3125.34375-.32813.34375-.85938 0-1.26562-1.40625-1.26562h-.90625zm5.4375 4.1875q0-.40625.265625-.65625.28125-.25.6875-.25.421875 0 .6875.25.28125.25.28125.65625 0 .39063-.28125.64063-.265625.25-.6875.25-.40625 0-.6875-.25-.265625-.25-.265625-.64063zm8.59375-2.70312q0 1.76562-.734375 2.71875-.734375.9375-2.140625.9375-1.40625 0-2.140625-.92188-.734375-.92187-.75-2.64062v-1.57813q0-1.78125.734375-2.70312.75-.9375 2.140625-.9375 1.390625 0 2.125.92187.75.92188.765625 2.64063zm-1.703125-1.71875q0-1.0625-.296875-1.54688-.28125-.48437-.890625-.48437-.59375 0-.890625.46875-.28125.45312-.296875 1.4375v2.0625q0 1.04687.28125 1.5625.28125.5.921875.5.609375 0 .890625-.48438.28125-.48437.28125-1.48437z" fill="#fff"/><path d="m126.296875 195.94131h.90625q.640625 0 .953125-.3125.3125-.32812.3125-.85937 0-.51563-.3125-.79688-.296875-.29687-.84375-.29687-.484375 0-.8125.26562-.328125.26563-.328125.6875h-1.6875q0-.65625.359375-1.1875.359375-.53125 1-.82812.65625-.3125 1.4375-.3125 1.34375 0 2.10937.65625.78126.64062.78126 1.78125 0 .59375-.35938 1.09375-.35938.48437-.9375.73437.71875.26563 1.0625.78125.35938.51563.35938 1.21875 0 1.14063-.82813 1.82813-.82813.6875-2.1875.6875-1.28125 0-2.09375-.67188-.8125-.6875-.8125-1.79687h1.6875q0 .48437.359375.79687.375.29688.890625.29688.609375 0 .95312-.3125.34376-.32813.34376-.85938 0-1.26562-1.406255-1.26562h-.90625zm9.250005 1.60938q-.67188.64062-1.54688.64062-1.14062 0-1.82812-.76562-.67188-.78125-.67188-2.09375 0-.84375.35938-1.54688.375-.70312 1.03124-1.09375.65626-.39062 1.48438-.39062.84375 0 1.5.42187.65625.42188 1.01562 1.21875.35938.79688.375 1.8125v.625q0 2.14063-1.0625 3.35938-1.0625 1.21875-3.01562 1.29687h-.40625v-1.40625l.375-.01562q2.20313-.09375 2.39063-2.0625zm-1.14063-.65625q.42187 0 .70313-.20313.29687-.21875.45312-.51562v-.6875q0-.85938-.32812-1.32813-.32813-.48437-.875-.48437-.51563 0-.84376.46875-.32812.45312-.32812 1.15625 0 .70312.3125 1.15625.32812.4375.90625.4375zm4.32813 3.23437q0-.40625.26562-.65625.28125-.25.6875-.25.42188 0 .6875.25.28125.25.28125.65625 0 .39063-.28125.64063-.26562.25-.6875.25-.40625 0-.6875-.25-.26562-.25-.26562-.64063zm7.85937-2.39062h.96875v1.375h-.96875v1.84375h-1.70313v-1.84375h-3.48437l-.07813-1.0625 3.54688-5.625h1.71875zm-3.57813 0h1.875v-3l-.10937.1875z" stroke="#70ad47" stroke-linecap="round" stroke-linejoin="round" stroke-width="3"/><path d="m126.296875 195.94131h.90625q.640625 0 .953125-.3125.3125-.32812.3125-.85937 0-.51563-.3125-.79688-.296875-.29687-.84375-.29687-.484375 0-.8125.26562-.328125.26563-.328125.6875h-1.6875q0-.65625.359375-1.1875.359375-.53125 1-.82812.65625-.3125 1.4375-.3125 1.34375 0 2.10937.65625.78126.64062.78126 1.78125 0 .59375-.35938 1.09375-.35938.48437-.9375.73437.71875.26563 1.0625.78125.35938.51563.35938 1.21875 0 1.14063-.82813 1.82813-.82813.6875-2.1875.6875-1.28125 0-2.09375-.67188-.8125-.6875-.8125-1.79687h1.6875q0 .48437.359375.79687.375.29688.890625.29688.609375 0 .95312-.3125.34376-.32813.34376-.85938 0-1.26562-1.406255-1.26562h-.90625zm9.250005 1.60938q-.67188.64062-1.54688.64062-1.14062 0-1.82812-.76562-.67188-.78125-.67188-2.09375 0-.84375.35938-1.54688.375-.70312 1.03124-1.09375.65626-.39062 1.48438-.39062.84375 0 1.5.42187.65625.42188 1.01562 1.21875.35938.79688.375 1.8125v.625q0 2.14063-1.0625 3.35938-1.0625 1.21875-3.01562 1.29687h-.40625v-1.40625l.375-.01562q2.20313-.09375 2.39063-2.0625zm-1.14063-.65625q.42187 0 .70313-.20313.29687-.21875.45312-.51562v-.6875q0-.85938-.32812-1.32813-.32813-.48437-.875-.48437-.51563 0-.84376.46875-.32812.45312-.32812 1.15625 0 .70312.3125 1.15625.32812.4375.90625.4375zm4.32813 3.23437q0-.40625.26562-.65625.28125-.25.6875-.25.42188 0 .6875.25.28125.25.28125.65625 0 .39063-.28125.64063-.26562.25-.6875.25-.40625 0-.6875-.25-.26562-.25-.26562-.64063zm7.85937-2.39062h.96875v1.375h-.96875v1.84375h-1.70313v-1.84375h-3.48437l-.07813-1.0625 3.54688-5.625h1.71875zm-3.57813 0h1.875v-3l-.10937.1875z" fill="#fff"/><path d="m153.82812 186.20859.5-4.32813h4.78126v1.40625h-3.39063l-.21875 1.84375q.60938-.32812 1.28125-.32812 1.21875 0 1.90625.76562.70312.75.70312 2.10938 0 .82812-.35937 1.48437-.34375.64063-1 1.01563-.64063.35937-1.53125.35937-.76562 0-1.4375-.3125-.65625-.32812-1.04688-.89062-.375-.5625-.40624-1.29688h1.6875q.04687.53125.35937.82813.32813.29687.84375.29687.57812 0 .875-.40625.3125-.42187.3125-1.17187 0-.73438-.35938-1.10938-.34374-.39062-1-.39062-.60937 0-.98437.3125l-.15625.15625zm10.85938 4.20312h-1.6875v-6.53125l-2.01562.625v-1.375l3.53124-1.26562h.17188zm3.04688-.82812q0-.40625.26562-.65625.28125-.25.6875-.25.42188 0 .6875.25.28125.25.28125.65625 0 .39062-.28125.64062-.26562.25-.6875.25-.40625 0-.6875-.25-.26562-.25-.26562-.64062zm6.95312.82812h-1.6875v-6.53125l-2.01562.625v-1.375l3.53124-1.26562h.17188z" stroke="#70ad47" stroke-linecap="round" stroke-linejoin="round" stroke-width="3"/><path d="m153.82812 186.20859.5-4.32813h4.78126v1.40625h-3.39063l-.21875 1.84375q.60938-.32812 1.28125-.32812 1.21875 0 1.90625.76562.70312.75.70312 2.10938 0 .82812-.35937 1.48437-.34375.64063-1 1.01563-.64063.35937-1.53125.35937-.76562 0-1.4375-.3125-.65625-.32812-1.04688-.89062-.375-.5625-.40624-1.29688h1.6875q.04687.53125.35937.82813.32813.29687.84375.29687.57812 0 .875-.40625.3125-.42187.3125-1.17187 0-.73438-.35938-1.10938-.34374-.39062-1-.39062-.60937 0-.98437.3125l-.15625.15625zm10.85938 4.20312h-1.6875v-6.53125l-2.01562.625v-1.375l3.53124-1.26562h.17188zm3.04688-.82812q0-.40625.26562-.65625.28125-.25.6875-.25.42188 0 .6875.25.28125.25.28125.65625 0 .39062-.28125.64062-.26562.25-.6875.25-.40625 0-.6875-.25-.26562-.25-.26562-.64062zm6.95312.82812h-1.6875v-6.53125l-2.01562.625v-1.375l3.53124-1.26562h.17188z" fill="#fff"/><path d="m189.375 159.5271-3.29688 7.57812h-1.78124l3.29687-7.15625h-4.23437v-1.375h6.01562zm5.79688-1.04688v1.40625h-.15626q-1.15624.01563-1.85937.59375-.6875.57813-.82813 1.60938.67188-.6875 1.70313-.6875 1.125 0 1.78125.79687.65625.79688.65625 2.09375 0 .82813-.35937 1.5-.35938.67188-1.03126 1.0625-.65624.375-1.48437.375-1.34375 0-2.17187-.9375-.82813-.95312-.82813-2.51562v-.60938q0-1.39062.51563-2.45312.53124-1.0625 1.5-1.64063.98437-.57812 2.28124-.59375zm-1.65626 4.28125q-.40624 0-.75.21875-.32812.20313-.48437.5625v.51563q0 .84375.32813 1.32812.34374.46875.95312.46875.54688 0 .875-.42187.34375-.4375.34375-1.125 0-.70313-.34375-1.125-.34375-.42188-.92188-.42188zm4.21876 3.51563q0-.40625.26562-.65625.28125-.25.6875-.25.42188 0 .6875.25.28125.25.28125.65625 0 .39062-.28125.64062-.26562.25-.6875.25-.40625 0-.6875-.25-.26562-.25-.26562-.64062zm6.8125-2.57813q-.67188.64063-1.54688.64063-1.14062 0-1.82812-.76563-.67188-.78125-.67188-2.09375 0-.84375.35938-1.54687.375-.70313 1.03124-1.09375.65626-.39063 1.48438-.39063.84375 0 1.5.42188.65625.42187 1.01562 1.21875.35938.79687.375 1.8125v.625q0 2.14062-1.0625 3.35937-1.0625 1.21875-3.01562 1.29688h-.40625v-1.40625l.375-.01563q2.20313-.09375 2.39063-2.0625zm-1.14063-.65625q.42187 0 .70313-.20312.29687-.21875.45312-.51563v-.6875q0-.85937-.32812-1.32812-.32813-.48438-.875-.48438-.51563 0-.84376.46875-.32812.45313-.32812 1.15625 0 .70313.3125 1.15625.32812.4375.90625.4375z" stroke="#70ad47" stroke-linecap="round" stroke-linejoin="round" stroke-width="3"/><path d="m189.375 159.5271-3.29688 7.57812h-1.78124l3.29687-7.15625h-4.23437v-1.375h6.01562zm5.79688-1.04688v1.40625h-.15626q-1.15624.01563-1.85937.59375-.6875.57813-.82813 1.60938.67188-.6875 1.70313-.6875 1.125 0 1.78125.79687.65625.79688.65625 2.09375 0 .82813-.35937 1.5-.35938.67188-1.03126 1.0625-.65624.375-1.48437.375-1.34375 0-2.17187-.9375-.82813-.95312-.82813-2.51562v-.60938q0-1.39062.51563-2.45312.53124-1.0625 1.5-1.64063.98437-.57812 2.28124-.59375zm-1.65626 4.28125q-.40624 0-.75.21875-.32812.20313-.48437.5625v.51563q0 .84375.32813 1.32812.34374.46875.95312.46875.54688 0 .875-.42187.34375-.4375.34375-1.125 0-.70313-.34375-1.125-.34375-.42188-.92188-.42188zm4.21876 3.51563q0-.40625.26562-.65625.28125-.25.6875-.25.42188 0 .6875.25.28125.25.28125.65625 0 .39062-.28125.64062-.26562.25-.6875.25-.40625 0-.6875-.25-.26562-.25-.26562-.64062zm6.8125-2.57813q-.67188.64063-1.54688.64063-1.14062 0-1.82812-.76563-.67188-.78125-.67188-2.09375 0-.84375.35938-1.54687.375-.70313 1.03124-1.09375.65626-.39063 1.48438-.39063.84375 0 1.5.42188.65625.42187 1.01562 1.21875.35938.79687.375 1.8125v.625q0 2.14062-1.0625 3.35937-1.0625 1.21875-3.01562 1.29688h-.40625v-1.40625l.375-.01563q2.20313-.09375 2.39063-2.0625zm-1.14063-.65625q.42187 0 .70313-.20312.29687-.21875.45312-.51563v-.6875q0-.85937-.32812-1.32812-.32813-.48438-.875-.48438-.51563 0-.84376.46875-.32812.45313-.32812 1.15625 0 .70313.3125 1.15625.32812.4375.90625.4375z" fill="#fff"/><path d="m216.54688 146.9052q-.67188.64062-1.54688.64062-1.14062 0-1.82812-.76562-.67188-.78125-.67188-2.09375 0-.84375.35938-1.54688.375-.70312 1.03124-1.09375.65626-.39062 1.48438-.39062.84375 0 1.5.42187.65625.42188 1.01562 1.21875.35938.79688.375 1.8125v.625q0 2.14063-1.0625 3.35938-1.0625 1.21875-3.01562 1.29687h-.40625v-1.40625l.375-.01562q2.20313-.09375 2.39063-2.0625zm-1.14063-.65625q.42187 0 .70313-.20313.29687-.21875.45312-.51562v-.6875q0-.85938-.32812-1.32813-.32813-.48437-.875-.48437-.51563 0-.84376.46875-.32812.45312-.32812 1.15625 0 .70312.3125 1.15625.32812.4375.90625.4375zm4.42187-.14063.5-4.32812h4.78126v1.40625h-3.39063l-.21875 1.84375q.60938-.32813 1.28125-.32813 1.21875 0 1.90625.76563.70312.75.70312 2.10937 0 .82813-.35937 1.48438-.34375.64062-1 1.01562-.64063.35938-1.53125.35938-.76562 0-1.4375-.3125-.65625-.32813-1.04688-.89063-.375-.5625-.40624-1.29687h1.6875q.04687.53125.35937.82812.32813.29688.84375.29688.57812 0 .875-.40625.3125-.42188.3125-1.17188 0-.73437-.35938-1.10937-.34374-.39063-1-.39063-.60937 0-.98437.3125l-.15625.15625zm6.90626 3.375q0-.40625.26562-.65625.28125-.25.6875-.25.42188 0 .6875.25.28125.25.28125.65625 0 .39063-.28125.64063-.26562.25-.6875.25-.40625 0-.6875-.25-.26562-.25-.26562-.64063zm3.09374-3.375.5-4.32812h4.78126v1.40625h-3.39063l-.21875 1.84375q.60938-.32813 1.28125-.32813 1.21875 0 1.90625.76563.70312.75.70312 2.10937 0 .82813-.35937 1.48438-.34375.64062-1 1.01562-.64063.35938-1.53125.35938-.76562 0-1.4375-.3125-.65625-.32813-1.04688-.89063-.375-.5625-.40624-1.29687h1.6875q.04687.53125.35937.82812.32813.29688.84375.29688.57812 0 .875-.40625.3125-.42188.3125-1.17188 0-.73437-.35938-1.10937-.34374-.39063-1-.39063-.60937 0-.98437.3125l-.15625.15625z" stroke="#38761d" stroke-linecap="round" stroke-linejoin="round" stroke-width="3"/><path d="m216.54688 146.9052q-.67188.64062-1.54688.64062-1.14062 0-1.82812-.76562-.67188-.78125-.67188-2.09375 0-.84375.35938-1.54688.375-.70312 1.03124-1.09375.65626-.39062 1.48438-.39062.84375 0 1.5.42187.65625.42188 1.01562 1.21875.35938.79688.375 1.8125v.625q0 2.14063-1.0625 3.35938-1.0625 1.21875-3.01562 1.29687h-.40625v-1.40625l.375-.01562q2.20313-.09375 2.39063-2.0625zm-1.14063-.65625q.42187 0 .70313-.20313.29687-.21875.45312-.51562v-.6875q0-.85938-.32812-1.32813-.32813-.48437-.875-.48437-.51563 0-.84376.46875-.32812.45312-.32812 1.15625 0 .70312.3125 1.15625.32812.4375.90625.4375zm4.42187-.14063.5-4.32812h4.78126v1.40625h-3.39063l-.21875 1.84375q.60938-.32813 1.28125-.32813 1.21875 0 1.90625.76563.70312.75.70312 2.10937 0 .82813-.35937 1.48438-.34375.64062-1 1.01562-.64063.35938-1.53125.35938-.76562 0-1.4375-.3125-.65625-.32813-1.04688-.89063-.375-.5625-.40624-1.29687h1.6875q.04687.53125.35937.82812.32813.29688.84375.29688.57812 0 .875-.40625.3125-.42188.3125-1.17188 0-.73437-.35938-1.10937-.34374-.39063-1-.39063-.60937 0-.98437.3125l-.15625.15625zm6.90626 3.375q0-.40625.26562-.65625.28125-.25.6875-.25.42188 0 .6875.25.28125.25.28125.65625 0 .39063-.28125.64063-.26562.25-.6875.25-.40625 0-.6875-.25-.26562-.25-.26562-.64063zm3.09374-3.375.5-4.32812h4.78126v1.40625h-3.39063l-.21875 1.84375q.60938-.32813 1.28125-.32813 1.21875 0 1.90625.76563.70312.75.70312 2.10937 0 .82813-.35937 1.48438-.34375.64062-1 1.01562-.64063.35938-1.53125.35938-.76562 0-1.4375-.3125-.65625-.32813-1.04688-.89063-.375-.5625-.40624-1.29687h1.6875q.04687.53125.35937.82812.32813.29688.84375.29688.57812 0 .875-.40625.3125-.42188.3125-1.17188 0-.73437-.35938-1.10937-.34374-.39063-1-.39063-.60937 0-.98437.3125l-.15625.15625z" fill="#fff"/><path d="m245.54688 146.16248q-.67188.64062-1.54688.64062-1.14062 0-1.82812-.76562-.67188-.78125-.67188-2.09375 0-.84375.35938-1.54688.375-.70312 1.03124-1.09375.65626-.39062 1.48438-.39062.84375 0 1.5.42187.65625.42188 1.01562 1.21875.35938.79688.375 1.8125v.625q0 2.14063-1.0625 3.35938-1.0625 1.21875-3.01562 1.29687h-.40625v-1.40625l.375-.01562q2.20313-.09375 2.39063-2.0625zm-1.14063-.65625q.42187 0 .70313-.20313.29687-.21875.45312-.51562v-.6875q0-.85938-.32812-1.32813-.32813-.48437-.875-.48437-.51563 0-.84376.46875-.32812.45312-.32812 1.15625 0 .70312.3125 1.15625.32812.4375.90625.4375zm8.76563-4.5625v1.40625h-.15626q-1.15624.01562-1.85937.59375-.6875.57812-.82813 1.60937.67188-.6875 1.70313-.6875 1.125 0 1.78125.79688.65625.79687.65625 2.09375 0 .82812-.35937 1.5-.35938.67187-1.03126 1.0625-.65624.375-1.48437.375-1.34375 0-2.17187-.9375-.82813-.95313-.82813-2.51563v-.60937q0-1.39063.51563-2.45313.53124-1.0625 1.5-1.64062.98437-.57813 2.28124-.59375zm-1.65626 4.28125q-.40624 0-.75.21875-.32812.20312-.48437.5625v.51562q0 .84375.32813 1.32813.34374.46875.95312.46875.54688 0 .875-.42188.34375-.4375.34375-1.125 0-.70312-.34375-1.125-.34375-.42187-.92188-.42187zm4.21876 3.51562q0-.40625.26562-.65625.28125-.25.6875-.25.42188 0 .6875.25.28125.25.28125.65625 0 .39063-.28125.64063-.26562.25-.6875.25-.40625 0-.6875-.25-.26562-.25-.26562-.64063zm4.5625-4.1875h.90624q.64063 0 .95313-.3125.3125-.32812.3125-.85937 0-.51563-.3125-.79688-.29687-.29687-.84375-.29687-.48438 0-.8125.26562-.32812.26563-.32812.6875h-1.6875q0-.65625.35937-1.1875.35937-.53125 1-.82812.65625-.3125 1.4375-.3125 1.34375 0 2.10937.65625.78126.64062.78126 1.78125 0 .59375-.35938 1.09375-.35938.48437-.9375.73437.71875.26563 1.0625.78125.35938.51563.35938 1.21875 0 1.14063-.82813 1.82813-.82813.6875-2.1875.6875-1.28125 0-2.09375-.67188-.8125-.6875-.8125-1.79687h1.6875q0 .48437.35938.79687.375.29688.89062.29688.60938 0 .95312-.3125.34376-.32813.34376-.85938 0-1.26562-1.40626-1.26562h-.90624z" stroke="#38761d" stroke-linecap="round" stroke-linejoin="round" stroke-width="3"/><path d="m245.54688 146.16248q-.67188.64062-1.54688.64062-1.14062 0-1.82812-.76562-.67188-.78125-.67188-2.09375 0-.84375.35938-1.54688.375-.70312 1.03124-1.09375.65626-.39062 1.48438-.39062.84375 0 1.5.42187.65625.42188 1.01562 1.21875.35938.79688.375 1.8125v.625q0 2.14063-1.0625 3.35938-1.0625 1.21875-3.01562 1.29687h-.40625v-1.40625l.375-.01562q2.20313-.09375 2.39063-2.0625zm-1.14063-.65625q.42187 0 .70313-.20313.29687-.21875.45312-.51562v-.6875q0-.85938-.32812-1.32813-.32813-.48437-.875-.48437-.51563 0-.84376.46875-.32812.45312-.32812 1.15625 0 .70312.3125 1.15625.32812.4375.90625.4375zm8.76563-4.5625v1.40625h-.15626q-1.15624.01562-1.85937.59375-.6875.57812-.82813 1.60937.67188-.6875 1.70313-.6875 1.125 0 1.78125.79688.65625.79687.65625 2.09375 0 .82812-.35937 1.5-.35938.67187-1.03126 1.0625-.65624.375-1.48437.375-1.34375 0-2.17187-.9375-.82813-.95313-.82813-2.51563v-.60937q0-1.39063.51563-2.45313.53124-1.0625 1.5-1.64062.98437-.57813 2.28124-.59375zm-1.65626 4.28125q-.40624 0-.75.21875-.32812.20312-.48437.5625v.51562q0 .84375.32813 1.32813.34374.46875.95312.46875.54688 0 .875-.42188.34375-.4375.34375-1.125 0-.70312-.34375-1.125-.34375-.42187-.92188-.42187zm4.21876 3.51562q0-.40625.26562-.65625.28125-.25.6875-.25.42188 0 .6875.25.28125.25.28125.65625 0 .39063-.28125.64063-.26562.25-.6875.25-.40625 0-.6875-.25-.26562-.25-.26562-.64063zm4.5625-4.1875h.90624q.64063 0 .95313-.3125.3125-.32812.3125-.85937 0-.51563-.3125-.79688-.29687-.29687-.84375-.29687-.48438 0-.8125.26562-.32812.26563-.32812.6875h-1.6875q0-.65625.35937-1.1875.35937-.53125 1-.82812.65625-.3125 1.4375-.3125 1.34375 0 2.10937.65625.78126.64062.78126 1.78125 0 .59375-.35938 1.09375-.35938.48437-.9375.73437.71875.26563 1.0625.78125.35938.51563.35938 1.21875 0 1.14063-.82813 1.82813-.82813.6875-2.1875.6875-1.28125 0-2.09375-.67188-.8125-.6875-.8125-1.79687h1.6875q0 .48437.35938.79687.375.29688.89062.29688.60938 0 .95312-.3125.34376-.32813.34376-.85938 0-1.26562-1.40626-1.26562h-.90624z" fill="#fff"/><path d="m276.14062 153.00868q0 .625-.3125 1.10938-.3125.46874-.85937.76562.625.29688.98437.82812.375.51563.375 1.21876 0 1.14062-.78124 1.8125-.76563.65624-2.10938.65624-1.32812 0-2.10938-.65624-.76562-.67188-.76562-1.8125 0-.70313.35938-1.23438.35937-.53125.98437-.8125-.54687-.29688-.85937-.76562-.3125-.48438-.3125-1.10938 0-1.09375.71874-1.73438.73438-.65624 1.98438-.65624 1.25 0 1.96875.65624.73437.64063.73437 1.73438zm-1.51562 3.79688q0-.54688-.32812-.875-.3125-.34376-.85938-.34376-.54688 0-.875.32813-.3125.32813-.3125.89063 0 .54687.3125.89062.32812.32812.89062.32812.54688 0 .85938-.3125.3125-.32812.3125-.90624zm-.17188-3.71876q0-.5-.26562-.79687-.26562-.29687-.75-.29687-.46875 0-.73438.29687-.26562.28125-.26562.79687 0 .51563.26562.82813.26563.3125.73438.3125.48438 0 .75-.3125.26562-.3125.26562-.82813zm3.375 1.98438.5-4.32812h4.78126v1.40624h-3.39063l-.21875 1.84376q.60938-.32813 1.28125-.32813 1.21875 0 1.90625.76563.70312.75.70312 2.10937 0 .82813-.35937 1.48437-.34375.64063-1 1.01563-.64063.35937-1.53125.35937-.76562 0-1.4375-.3125-.65625-.32812-1.04688-.89062-.375-.5625-.40624-1.29688h1.6875q.04687.53126.35937.82813.32813.29687.84375.29687.57812 0 .875-.40624.3125-.42188.3125-1.17188 0-.73438-.35938-1.10938-.34374-.39062-1-.39062-.60937 0-.98437.3125l-.15625.15625zm6.90626 3.375q0-.40625.26562-.65625.28125-.25.6875-.25.42188 0 .6875.25.28125.25.28125.65625 0 .39062-.28125.64062-.26562.25-.6875.25-.40625 0-.6875-.25-.26562-.25-.26562-.64062zm7.4375-7.79688v1.40626h-.15626q-1.15624.01562-1.85937.59374-.6875.57813-.82813 1.60938.67188-.6875 1.70313-.6875 1.125 0 1.78125.79688.65625.79687.65625 2.09374 0 .82813-.35937 1.5-.35938.67188-1.03126 1.0625-.65624.375-1.48437.375-1.34375 0-2.17187-.9375-.82813-.95312-.82813-2.51562v-.60938q0-1.39062.51563-2.45312.53124-1.0625 1.5-1.64062.98437-.57813 2.28124-.59376zm-1.65626 4.28126q-.40624 0-.75.21874-.32812.20313-.48437.5625v.51563q0 .84375.32813 1.32813.34374.46874.95312.46874.54688 0 .875-.42187.34375-.4375.34375-1.125 0-.70313-.34375-1.125-.34375-.42187-.92188-.42187z" stroke="#38761d" stroke-linecap="round" stroke-linejoin="round" stroke-width="3"/><path d="m276.14062 153.00868q0 .625-.3125 1.10938-.3125.46874-.85937.76562.625.29688.98437.82812.375.51563.375 1.21876 0 1.14062-.78124 1.8125-.76563.65624-2.10938.65624-1.32812 0-2.10938-.65624-.76562-.67188-.76562-1.8125 0-.70313.35938-1.23438.35937-.53125.98437-.8125-.54687-.29688-.85937-.76562-.3125-.48438-.3125-1.10938 0-1.09375.71874-1.73438.73438-.65624 1.98438-.65624 1.25 0 1.96875.65624.73437.64063.73437 1.73438zm-1.51562 3.79688q0-.54688-.32812-.875-.3125-.34376-.85938-.34376-.54688 0-.875.32813-.3125.32813-.3125.89063 0 .54687.3125.89062.32812.32812.89062.32812.54688 0 .85938-.3125.3125-.32812.3125-.90624zm-.17188-3.71876q0-.5-.26562-.79687-.26562-.29687-.75-.29687-.46875 0-.73438.29687-.26562.28125-.26562.79687 0 .51563.26562.82813.26563.3125.73438.3125.48438 0 .75-.3125.26562-.3125.26562-.82813zm3.375 1.98438.5-4.32812h4.78126v1.40624h-3.39063l-.21875 1.84376q.60938-.32813 1.28125-.32813 1.21875 0 1.90625.76563.70312.75.70312 2.10937 0 .82813-.35937 1.48437-.34375.64063-1 1.01563-.64063.35937-1.53125.35937-.76562 0-1.4375-.3125-.65625-.32812-1.04688-.89062-.375-.5625-.40624-1.29688h1.6875q.04687.53126.35937.82813.32813.29687.84375.29687.57812 0 .875-.40624.3125-.42188.3125-1.17188 0-.73438-.35938-1.10938-.34374-.39062-1-.39062-.60937 0-.98437.3125l-.15625.15625zm6.90626 3.375q0-.40625.26562-.65625.28125-.25.6875-.25.42188 0 .6875.25.28125.25.28125.65625 0 .39062-.28125.64062-.26562.25-.6875.25-.40625 0-.6875-.25-.26562-.25-.26562-.64062zm7.4375-7.79688v1.40626h-.15626q-1.15624.01562-1.85937.59374-.6875.57813-.82813 1.60938.67188-.6875 1.70313-.6875 1.125 0 1.78125.79688.65625.79687.65625 2.09374 0 .82813-.35937 1.5-.35938.67188-1.03126 1.0625-.65624.375-1.48437.375-1.34375 0-2.17187-.9375-.82813-.95312-.82813-2.51562v-.60938q0-1.39062.51563-2.45312.53124-1.0625 1.5-1.64062.98437-.57813 2.28124-.59376zm-1.65626 4.28126q-.40624 0-.75.21874-.32812.20313-.48437.5625v.51563q0 .84375.32813 1.32813.34374.46874.95312.46874.54688 0 .875-.42187.34375-.4375.34375-1.125 0-.70313-.34375-1.125-.34375-.42187-.92188-.42187z" fill="#fff"/><path d="m305.17188 166.25743v1.40625h-.15626q-1.15624.01562-1.85937.59375-.6875.57813-.82813 1.60937.67188-.6875 1.70313-.6875 1.125 0 1.78125.79688.65625.79688.65625 2.09375 0 .82813-.35937 1.5-.35938.67187-1.03126 1.0625-.65624.375-1.48437.375-1.34375 0-2.17187-.9375-.82813-.95313-.82813-2.51563v-.60937q0-1.39063.51563-2.45313.53124-1.0625 1.5-1.64062.98437-.57812 2.28124-.59375zm-1.65626 4.28125q-.40624 0-.75.21875-.32812.20313-.48437.5625v.51563q0 .84374.32813 1.32812.34374.46875.95312.46875.54688 0 .875-.42187.34375-.4375.34375-1.125 0-.70313-.34375-1.125-.34375-.42188-.92188-.42188zm9.625-1.92188q0 .625-.3125 1.10938-.3125.46875-.85937.76562.625.29688.98437.82813.375.51563.375 1.21875 0 1.14062-.78124 1.8125-.76563.65625-2.10938.65625-1.32812 0-2.10938-.65625-.76562-.67188-.76562-1.8125 0-.70312.35938-1.23438.35937-.53124.98437-.8125-.54687-.29687-.85937-.76562-.3125-.48438-.3125-1.10938 0-1.09374.71874-1.73437.73438-.65625 1.98438-.65625 1.25 0 1.96875.65625.73437.64063.73437 1.73437zm-1.51562 3.79688q0-.54688-.32812-.875-.3125-.34375-.85938-.34375-.54688 0-.875.32813-.3125.32812-.3125.89062 0 .54688.3125.89062.32812.32813.89062.32813.54688 0 .85938-.3125.3125-.32813.3125-.90625zm-.17188-3.71875q0-.5-.26562-.79687-.26562-.29688-.75-.29688-.46875 0-.73438.29688-.26562.28124-.26562.79687 0 .51563.26562.82813.26563.3125.73438.3125.48438 0 .75-.3125.26562-.3125.26562-.82813zm3.28126 5.35937q0-.40624.26562-.65624.28125-.25.6875-.25.42188 0 .6875.25.28125.25.28125.65624 0 .39063-.28125.64063-.26562.25-.6875.25-.40625 0-.6875-.25-.26562-.25-.26562-.64063zm4.5625-4.1875h.90624q.64063 0 .95313-.3125.3125-.32812.3125-.85937 0-.51563-.3125-.79687-.29687-.29688-.84375-.29688-.48438 0-.8125.26562-.32812.26563-.32812.6875h-1.6875q0-.65624.35937-1.1875.35937-.53124 1-.82812.65625-.3125 1.4375-.3125 1.34375 0 2.10937.65625.78126.64063.78126 1.78125 0 .59375-.35938 1.09375-.35938.48437-.9375.73437.71875.26563 1.0625.78126.35938.51562.35938 1.21874 0 1.14063-.82813 1.82813-.82813.6875-2.1875.6875-1.28125 0-2.09375-.67187-.8125-.6875-.8125-1.79688h1.6875q0 .48438.35938.79688.375.29687.89062.29687.60938 0 .95312-.3125.34376-.32813.34376-.85937 0-1.26563-1.40626-1.26563h-.90624z" stroke="#38761d" stroke-linecap="round" stroke-linejoin="round" stroke-width="3"/><path d="m305.17188 166.25743v1.40625h-.15626q-1.15624.01562-1.85937.59375-.6875.57813-.82813 1.60937.67188-.6875 1.70313-.6875 1.125 0 1.78125.79688.65625.79688.65625 2.09375 0 .82813-.35937 1.5-.35938.67187-1.03126 1.0625-.65624.375-1.48437.375-1.34375 0-2.17187-.9375-.82813-.95313-.82813-2.51563v-.60937q0-1.39063.51563-2.45313.53124-1.0625 1.5-1.64062.98437-.57812 2.28124-.59375zm-1.65626 4.28125q-.40624 0-.75.21875-.32812.20313-.48437.5625v.51563q0 .84374.32813 1.32812.34374.46875.95312.46875.54688 0 .875-.42187.34375-.4375.34375-1.125 0-.70313-.34375-1.125-.34375-.42188-.92188-.42188zm9.625-1.92188q0 .625-.3125 1.10938-.3125.46875-.85937.76562.625.29688.98437.82813.375.51563.375 1.21875 0 1.14062-.78124 1.8125-.76563.65625-2.10938.65625-1.32812 0-2.10938-.65625-.76562-.67188-.76562-1.8125 0-.70312.35938-1.23438.35937-.53124.98437-.8125-.54687-.29687-.85937-.76562-.3125-.48438-.3125-1.10938 0-1.09374.71874-1.73437.73438-.65625 1.98438-.65625 1.25 0 1.96875.65625.73437.64063.73437 1.73437zm-1.51562 3.79688q0-.54688-.32812-.875-.3125-.34375-.85938-.34375-.54688 0-.875.32813-.3125.32812-.3125.89062 0 .54688.3125.89062.32812.32813.89062.32813.54688 0 .85938-.3125.3125-.32813.3125-.90625zm-.17188-3.71875q0-.5-.26562-.79687-.26562-.29688-.75-.29688-.46875 0-.73438.29688-.26562.28124-.26562.79687 0 .51563.26562.82813.26563.3125.73438.3125.48438 0 .75-.3125.26562-.3125.26562-.82813zm3.28126 5.35937q0-.40624.26562-.65624.28125-.25.6875-.25.42188 0 .6875.25.28125.25.28125.65624 0 .39063-.28125.64063-.26562.25-.6875.25-.40625 0-.6875-.25-.26562-.25-.26562-.64063zm4.5625-4.1875h.90624q.64063 0 .95313-.3125.3125-.32812.3125-.85937 0-.51563-.3125-.79687-.29687-.29688-.84375-.29688-.48438 0-.8125.26562-.32812.26563-.32812.6875h-1.6875q0-.65624.35937-1.1875.35937-.53124 1-.82812.65625-.3125 1.4375-.3125 1.34375 0 2.10937.65625.78126.64063.78126 1.78125 0 .59375-.35938 1.09375-.35938.48437-.9375.73437.71875.26563 1.0625.78126.35938.51562.35938 1.21874 0 1.14063-.82813 1.82813-.82813.6875-2.1875.6875-1.28125 0-2.09375-.67187-.8125-.6875-.8125-1.79688h1.6875q0 .48438.35938.79688.375.29687.89062.29687.60938 0 .95312-.3125.34376-.32813.34376-.85937 0-1.26563-1.40626-1.26563h-.90624z" fill="#fff"/><path d="m329.82812 184.5862.5-4.32813h4.78126v1.40625h-3.39063l-.21875 1.84375q.60938-.32812 1.28125-.32812 1.21875 0 1.90625.76562.70312.75.70312 2.10938 0 .82812-.35937 1.48437-.34375.64063-1 1.01563-.64063.35937-1.53125.35937-.76562 0-1.4375-.3125-.65625-.32812-1.04688-.89062-.375-.5625-.40624-1.29688h1.6875q.04687.53125.35937.82813.32813.29687.84375.29687.57812 0 .875-.40625.3125-.42187.3125-1.17187 0-.73438-.35938-1.10938-.34374-.39062-1-.39062-.60937 0-.98437.3125l-.15625.15625zm12.59376 4.20312h-5.84376v-1.15625l2.76563-2.95312q.5625-.60938.82813-1.07813.28124-.46875.28124-.875 0-.57812-.29687-.89062-.28125-.32813-.8125-.32813-.57813 0-.90625.39063-.32812.39062-.32812 1.04687h-1.70313q0-.78125.375-1.42187.375-.65625 1.04687-1.01563.6875-.375 1.54688-.375 1.3125 0 2.04688.64063.73437.625.73437 1.78125 0 .64062-.32813 1.29687-.32812.65625-1.125 1.53125l-1.9375 2.04688h3.65626zm1.3125-.82812q0-.40625.26562-.65625.28125-.25.6875-.25.42188 0 .6875.25.28125.25.28125.65625 0 .39062-.28125.64062-.26562.25-.6875.25-.40625 0-.6875-.25-.26562-.25-.26562-.64062zm6.8125-2.57813q-.67188.64063-1.54688.64063-1.14062 0-1.82812-.76563-.67188-.78125-.67188-2.09375 0-.84375.35938-1.54687.375-.70313 1.03124-1.09375.65626-.39063 1.48438-.39063.84375 0 1.5.42188.65625.42187 1.01562 1.21875.35938.79687.375 1.8125v.625q0 2.14062-1.0625 3.35937-1.0625 1.21875-3.01562 1.29688h-.40625v-1.40625l.375-.01563q2.20313-.09375 2.39063-2.0625zm-1.14063-.65625q.42187 0 .70313-.20312.29687-.21875.45312-.51563v-.6875q0-.85937-.32812-1.32812-.32813-.48438-.875-.48438-.51563 0-.84376.46875-.32812.45313-.32812 1.15625 0 .70313.3125 1.15625.32812.4375.90625.4375z" stroke="#274e13" stroke-linecap="round" stroke-linejoin="round" stroke-width="3"/><path d="m329.82812 184.5862.5-4.32813h4.78126v1.40625h-3.39063l-.21875 1.84375q.60938-.32812 1.28125-.32812 1.21875 0 1.90625.76562.70312.75.70312 2.10938 0 .82812-.35937 1.48437-.34375.64063-1 1.01563-.64063.35937-1.53125.35937-.76562 0-1.4375-.3125-.65625-.32812-1.04688-.89062-.375-.5625-.40624-1.29688h1.6875q.04687.53125.35937.82813.32813.29687.84375.29687.57812 0 .875-.40625.3125-.42187.3125-1.17187 0-.73438-.35938-1.10938-.34374-.39062-1-.39062-.60937 0-.98437.3125l-.15625.15625zm12.59376 4.20312h-5.84376v-1.15625l2.76563-2.95312q.5625-.60938.82813-1.07813.28124-.46875.28124-.875 0-.57812-.29687-.89062-.28125-.32813-.8125-.32813-.57813 0-.90625.39063-.32812.39062-.32812 1.04687h-1.70313q0-.78125.375-1.42187.375-.65625 1.04687-1.01563.6875-.375 1.54688-.375 1.3125 0 2.04688.64063.73437.625.73437 1.78125 0 .64062-.32813 1.29687-.32812.65625-1.125 1.53125l-1.9375 2.04688h3.65626zm1.3125-.82812q0-.40625.26562-.65625.28125-.25.6875-.25.42188 0 .6875.25.28125.25.28125.65625 0 .39062-.28125.64062-.26562.25-.6875.25-.40625 0-.6875-.25-.26562-.25-.26562-.64062zm6.8125-2.57813q-.67188.64063-1.54688.64063-1.14062 0-1.82812-.76563-.67188-.78125-.67188-2.09375 0-.84375.35938-1.54687.375-.70313 1.03124-1.09375.65626-.39063 1.48438-.39063.84375 0 1.5.42188.65625.42187 1.01562 1.21875.35938.79687.375 1.8125v.625q0 2.14062-1.0625 3.35937-1.0625 1.21875-3.01562 1.29688h-.40625v-1.40625l.375-.01563q2.20313-.09375 2.39063-2.0625zm-1.14063-.65625q.42187 0 .70313-.20312.29687-.21875.45312-.51563v-.6875q0-.85937-.32812-1.32812-.32813-.48438-.875-.48438-.51563 0-.84376.46875-.32812.45313-.32812 1.15625 0 .70313.3125 1.15625.32812.4375.90625.4375z" fill="#fff"/><path d="m360.29688 204.20589h.90624q.64063 0 .95313-.3125.3125-.32813.3125-.85938 0-.51562-.3125-.79687-.29687-.29688-.84375-.29688-.48438 0-.8125.26563-.32812.26562-.32812.6875h-1.6875q0-.65625.35937-1.1875.35937-.53125 1-.82813.65625-.3125 1.4375-.3125 1.34375 0 2.10937.65625.78126.64063.78126 1.78125 0 .59375-.35938 1.09375-.35938.48438-.9375.73438.71875.26562 1.0625.78125.35938.51562.35938 1.21875 0 1.14062-.82813 1.82812-.82813.6875-2.1875.6875-1.28125 0-2.09375-.67187-.8125-.6875-.8125-1.79688h1.6875q0 .48438.35938.79688.375.29687.89062.29687.60938 0 .95312-.3125.34376-.32812.34376-.85937 0-1.26563-1.40626-1.26563h-.90624zm11.03124 1.48437q0 1.76563-.73437 2.71875-.73437.9375-2.14063.9375-1.40624 0-2.14062-.92187-.73438-.92188-.75-2.64063v-1.57812q0-1.78125.73438-2.70313.75-.9375 2.14062-.9375 1.39062 0 2.125.92188.75.92187.76562 2.64062zm-1.70312-1.71875q0-1.0625-.29688-1.54687-.28124-.48438-.89062-.48438-.59375 0-.89062.46875-.28126.45313-.29688 1.4375v2.0625q0 1.04688.28125 1.5625.28125.5.92187.5.60938 0 .89063-.48437.28125-.48438.28125-1.48438zm3.10938 4.42188q0-.40625.26562-.65625.28125-.25.6875-.25.42188 0 .6875.25.28125.25.28125.65625 0 .39062-.28125.64062-.26562.25-.6875.25-.40625 0-.6875-.25-.26562-.25-.26562-.64062zm8.6875.82812h-5.84376v-1.15625l2.76563-2.95312q.5625-.60938.82813-1.07813.28124-.46875.28124-.875 0-.57812-.29687-.89062-.28125-.32813-.8125-.32813-.57813 0-.90625.39063-.32812.39062-.32812 1.04687h-1.70313q0-.78125.375-1.42187.375-.65625 1.04687-1.01563.6875-.375 1.54688-.375 1.3125 0 2.04688.64063.73437.625.73437 1.78125 0 .64062-.32813 1.29687-.32812.65625-1.125 1.53125l-1.9375 2.04688h3.65626z" stroke="#274e13" stroke-linecap="round" stroke-linejoin="round" stroke-width="3"/><path d="m360.29688 204.20589h.90624q.64063 0 .95313-.3125.3125-.32813.3125-.85938 0-.51562-.3125-.79687-.29687-.29688-.84375-.29688-.48438 0-.8125.26563-.32812.26562-.32812.6875h-1.6875q0-.65625.35937-1.1875.35937-.53125 1-.82813.65625-.3125 1.4375-.3125 1.34375 0 2.10937.65625.78126.64063.78126 1.78125 0 .59375-.35938 1.09375-.35938.48438-.9375.73438.71875.26562 1.0625.78125.35938.51562.35938 1.21875 0 1.14062-.82813 1.82812-.82813.6875-2.1875.6875-1.28125 0-2.09375-.67187-.8125-.6875-.8125-1.79688h1.6875q0 .48438.35938.79688.375.29687.89062.29687.60938 0 .95312-.3125.34376-.32812.34376-.85937 0-1.26563-1.40626-1.26563h-.90624zm11.03124 1.48437q0 1.76563-.73437 2.71875-.73437.9375-2.14063.9375-1.40624 0-2.14062-.92187-.73438-.92188-.75-2.64063v-1.57812q0-1.78125.73438-2.70313.75-.9375 2.14062-.9375 1.39062 0 2.125.92188.75.92187.76562 2.64062zm-1.70312-1.71875q0-1.0625-.29688-1.54687-.28124-.48438-.89062-.48438-.59375 0-.89062.46875-.28126.45313-.29688 1.4375v2.0625q0 1.04688.28125 1.5625.28125.5.92187.5.60938 0 .89063-.48437.28125-.48438.28125-1.48438zm3.10938 4.42188q0-.40625.26562-.65625.28125-.25.6875-.25.42188 0 .6875.25.28125.25.28125.65625 0 .39062-.28125.64062-.26562.25-.6875.25-.40625 0-.6875-.25-.26562-.25-.26562-.64062zm8.6875.82812h-5.84376v-1.15625l2.76563-2.95312q.5625-.60938.82813-1.07813.28124-.46875.28124-.875 0-.57812-.29687-.89062-.28125-.32813-.8125-.32813-.57813 0-.90625.39063-.32812.39062-.32812 1.04687h-1.70313q0-.78125.375-1.42187.375-.65625 1.04687-1.01563.6875-.375 1.54688-.375 1.3125 0 2.04688.64063.73437.625.73437 1.78125 0 .64062-.32813 1.29687-.32812.65625-1.125 1.53125l-1.9375 2.04688h3.65626z" fill="#fff"/><path d="m391.6875 219.27405h-1.6875v-6.53125l-2.01562.625v-1.375l3.53124-1.26563h.17188zm6.85938-3.40625q-.67188.64062-1.54688.64062-1.14062 0-1.82812-.76562-.67188-.78125-.67188-2.09375 0-.84375.35938-1.54688.375-.70312 1.03124-1.09375.65626-.39062 1.48438-.39062.84375 0 1.5.42187.65625.42188 1.01562 1.21875.35938.79688.375 1.8125v.625q0 2.14063-1.0625 3.35938-1.0625 1.21875-3.01562 1.29687h-.40625v-1.40625l.375-.01562q2.20313-.09375 2.39063-2.0625zm-1.14063-.65625q.42187 0 .70313-.20313.29687-.21875.45312-.51562v-.6875q0-.85938-.32812-1.32813-.32813-.48437-.875-.48437-.51563 0-.84376.46875-.32812.45312-.32812 1.15625 0 .70312.3125 1.15625.32812.4375.90625.4375zm4.32813 3.23437q0-.40625.26562-.65625.28125-.25.6875-.25.42188 0 .6875.25.28125.25.28125.65625 0 .39063-.28125.64063-.26562.25-.6875.25-.40625 0-.6875-.25-.26562-.25-.26562-.64063zm6.95312.82813h-1.6875v-6.53125l-2.01562.625v-1.375l3.53124-1.26563h.17188z" stroke="#274e13" stroke-linecap="round" stroke-linejoin="round" stroke-width="3"/><path d="m391.6875 219.27405h-1.6875v-6.53125l-2.01562.625v-1.375l3.53124-1.26563h.17188zm6.85938-3.40625q-.67188.64062-1.54688.64062-1.14062 0-1.82812-.76562-.67188-.78125-.67188-2.09375 0-.84375.35938-1.54688.375-.70312 1.03124-1.09375.65626-.39062 1.48438-.39062.84375 0 1.5.42187.65625.42188 1.01562 1.21875.35938.79688.375 1.8125v.625q0 2.14063-1.0625 3.35938-1.0625 1.21875-3.01562 1.29687h-.40625v-1.40625l.375-.01562q2.20313-.09375 2.39063-2.0625zm-1.14063-.65625q.42187 0 .70313-.20313.29687-.21875.45312-.51562v-.6875q0-.85938-.32812-1.32813-.32813-.48437-.875-.48437-.51563 0-.84376.46875-.32812.45312-.32812 1.15625 0 .70312.3125 1.15625.32812.4375.90625.4375zm4.32813 3.23437q0-.40625.26562-.65625.28125-.25.6875-.25.42188 0 .6875.25.28125.25.28125.65625 0 .39063-.28125.64063-.26562.25-.6875.25-.40625 0-.6875-.25-.26562-.25-.26562-.64063zm6.95312.82813h-1.6875v-6.53125l-2.01562.625v-1.375l3.53124-1.26563h.17188z" fill="#fff"/><path d="m420.6875 223.90523h-1.6875v-6.53125l-2.01562.625v-1.375l3.53124-1.26563h.17188zm7.90625-3.21875h.96875v1.375h-.96875v1.84375h-1.70313v-1.84375h-3.48437l-.07813-1.0625 3.54688-5.625h1.71875zm-3.57813 0h1.875v-3l-.10937.1875zm5.71876 2.39062q0-.40625.26562-.65625.28125-.25.6875-.25.42188 0 .6875.25.28125.25.28125.65625 0 .39063-.28125.64063-.26562.25-.6875.25-.40625 0-.6875-.25-.26562-.25-.26562-.64063zm8.59374-2.70312q0 1.76562-.73437 2.71875-.73437.9375-2.14063.9375-1.40624 0-2.14062-.92188-.73438-.92187-.75-2.64062v-1.57813q0-1.78125.73438-2.70312.75-.9375 2.14062-.9375 1.39062 0 2.125.92187.75.92188.76562 2.64063zm-1.70312-1.71875q0-1.0625-.29688-1.54688-.28124-.48437-.89062-.48437-.59375 0-.89062.46875-.28126.45312-.29688 1.4375v2.0625q0 1.04687.28125 1.5625.28125.5.92187.5.60938 0 .89063-.48438.28125-.48437.28125-1.48437z" stroke="#274e13" stroke-linecap="round" stroke-linejoin="round" stroke-width="3"/><path d="m420.6875 223.90523h-1.6875v-6.53125l-2.01562.625v-1.375l3.53124-1.26563h.17188zm7.90625-3.21875h.96875v1.375h-.96875v1.84375h-1.70313v-1.84375h-3.48437l-.07813-1.0625 3.54688-5.625h1.71875zm-3.57813 0h1.875v-3l-.10937.1875zm5.71876 2.39062q0-.40625.26562-.65625.28125-.25.6875-.25.42188 0 .6875.25.28125.25.28125.65625 0 .39063-.28125.64063-.26562.25-.6875.25-.40625 0-.6875-.25-.26562-.25-.26562-.64063zm8.59374-2.70312q0 1.76562-.73437 2.71875-.73437.9375-2.14063.9375-1.40624 0-2.14062-.92188-.73438-.92187-.75-2.64062v-1.57813q0-1.78125.73438-2.70312.75-.9375 2.14062-.9375 1.39062 0 2.125.92187.75.92188.76562 2.64063zm-1.70312-1.71875q0-1.0625-.29688-1.54688-.28124-.48437-.89062-.48437-.59375 0-.89062.46875-.28126.45312-.29688 1.4375v2.0625q0 1.04687.28125 1.5625.28125.5.92187.5.60938 0 .89063-.48438.28125-.48437.28125-1.48437z" fill="#fff"/><path d="m454.04688 224.36505q-.67188.64063-1.54688.64063-1.14062 0-1.82812-.76563-.67188-.78125-.67188-2.09375 0-.84375.35938-1.54687.375-.70313 1.03124-1.09375.65626-.39063 1.48438-.39063.84375 0 1.5.42188.65625.42187 1.01562 1.21875.35938.79687.375 1.8125v.625q0 2.14062-1.0625 3.35937-1.0625 1.21875-3.01562 1.29688h-.40625v-1.40625l.375-.01563q2.20313-.09375 2.39063-2.0625zm-1.14063-.65625q.42187 0 .70313-.20312.29687-.21875.45312-.51563v-.6875q0-.85937-.32812-1.32812-.32813-.48438-.875-.48438-.51563 0-.84376.46875-.32812.45313-.32812 1.15625 0 .70313.3125 1.15625.32812.4375.90625.4375zm4.32813 3.23438q0-.40625.26562-.65625.28125-.25.6875-.25.42188 0 .6875.25.28125.25.28125.65625 0 .39062-.28125.64062-.26562.25-.6875.25-.40625 0-.6875-.25-.26562-.25-.26562-.64062zm8.64062-6.75-3.29688 7.57812h-1.78124l3.29687-7.15625h-4.23437v-1.375h6.01562z" stroke="#7b5e40" stroke-linecap="round" stroke-linejoin="round" stroke-width="3"/><path d="m454.04688 224.36505q-.67188.64063-1.54688.64063-1.14062 0-1.82812-.76563-.67188-.78125-.67188-2.09375 0-.84375.35938-1.54687.375-.70313 1.03124-1.09375.65626-.39063 1.48438-.39063.84375 0 1.5.42188.65625.42187 1.01562 1.21875.35938.79687.375 1.8125v.625q0 2.14062-1.0625 3.35937-1.0625 1.21875-3.01562 1.29688h-.40625v-1.40625l.375-.01563q2.20313-.09375 2.39063-2.0625zm-1.14063-.65625q.42187 0 .70313-.20312.29687-.21875.45312-.51563v-.6875q0-.85937-.32812-1.32812-.32813-.48438-.875-.48438-.51563 0-.84376.46875-.32812.45313-.32812 1.15625 0 .70313.3125 1.15625.32812.4375.90625.4375zm4.32813 3.23438q0-.40625.26562-.65625.28125-.25.6875-.25.42188 0 .6875.25.28125.25.28125.65625 0 .39062-.28125.64062-.26562.25-.6875.25-.40625 0-.6875-.25-.26562-.25-.26562-.64062zm8.64062-6.75-3.29688 7.57812h-1.78124l3.29687-7.15625h-4.23437v-1.375h6.01562z" fill="#fff"/><path d="m483.67188 221.86482v1.40625h-.15626q-1.15624.01563-1.85937.59375-.6875.57813-.82813 1.60938.67188-.6875 1.70313-.6875 1.125 0 1.78125.79687.65625.79688.65625 2.09375 0 .82813-.35937 1.5-.35938.67188-1.03126 1.0625-.65624.375-1.48437.375-1.34375 0-2.17187-.9375-.82813-.95312-.82813-2.51562v-.60938q0-1.39062.51563-2.45312.53124-1.0625 1.5-1.64063.98437-.57812 2.28124-.59375zm-1.65626 4.28125q-.40624 0-.75.21875-.32812.20313-.48437.5625v.51563q0 .84375.32813 1.32812.34374.46875.95312.46875.54688 0 .875-.42187.34375-.4375.34375-1.125 0-.70313-.34375-1.125-.34375-.42188-.92188-.42188zm4.21876 3.51563q0-.40625.26562-.65625.28125-.25.6875-.25.42188 0 .6875.25.28125.25.28125.65625 0 .39062-.28125.64062-.26562.25-.6875.25-.40625 0-.6875-.25-.26562-.25-.26562-.64062zm8.64062-6.75-3.29688 7.57812h-1.78124l3.29687-7.15625h-4.23437v-1.375h6.01562z" stroke="#7b5e40" stroke-linecap="round" stroke-linejoin="round" stroke-width="3"/><path d="m483.67188 221.86482v1.40625h-.15626q-1.15624.01563-1.85937.59375-.6875.57813-.82813 1.60938.67188-.6875 1.70313-.6875 1.125 0 1.78125.79687.65625.79688.65625 2.09375 0 .82813-.35937 1.5-.35938.67188-1.03126 1.0625-.65624.375-1.48437.375-1.34375 0-2.17187-.9375-.82813-.95312-.82813-2.51562v-.60938q0-1.39062.51563-2.45312.53124-1.0625 1.5-1.64063.98437-.57812 2.28124-.59375zm-1.65626 4.28125q-.40624 0-.75.21875-.32812.20313-.48437.5625v.51563q0 .84375.32813 1.32812.34374.46875.95312.46875.54688 0 .875-.42187.34375-.4375.34375-1.125 0-.70313-.34375-1.125-.34375-.42188-.92188-.42188zm4.21876 3.51563q0-.40625.26562-.65625.28125-.25.6875-.25.42188 0 .6875.25.28125.25.28125.65625 0 .39062-.28125.64062-.26562.25-.6875.25-.40625 0-.6875-.25-.26562-.25-.26562-.64062zm8.64062-6.75-3.29688 7.57812h-1.78124l3.29687-7.15625h-4.23437v-1.375h6.01562z" fill="#fff"/><path d="m509.79688 228.3013h.90624q.64063 0 .95313-.3125.3125-.32812.3125-.85937 0-.51563-.3125-.79688-.29687-.29687-.84375-.29687-.48438 0-.8125.26562-.32812.26563-.32812.6875h-1.6875q0-.65625.35937-1.1875.35937-.53125 1-.82812.65625-.3125 1.4375-.3125 1.34375 0 2.10935.65625.7813.64062.7813 1.78125 0 .59375-.3594 1.09375-.3594.48437-.9375.73437.71875.26563 1.0625.78125.3594.51563.3594 1.21875 0 1.14063-.82815 1.82813-.82815.6875-2.1875.6875-1.28125 0-2.09375-.67188-.8125-.6875-.8125-1.79687h1.6875q0 .48437.35938.79687.375.29688.89062.29688.60938 0 .95312-.3125.34378-.32813.34378-.85938 0-1.26562-1.40628-1.26562h-.90624zm5.43752 4.1875q0-.40625.2656-.65625.28125-.25.6875-.25.4219 0 .6875.25.28125.25.28125.65625 0 .39063-.28125.64063-.2656.25-.6875.25-.40625 0-.6875-.25-.2656-.25-.2656-.64063zm3.0937-3.375.5-4.32812h4.7813v1.40625h-3.39065l-.21875 1.84375q.6094-.32813 1.28125-.32813 1.21875 0 1.90625.76563.7031.75.7031 2.10937 0 .82813-.35935 1.48438-.34375.64062-1 1.01562-.64065.35938-1.53125.35938-.7656 0-1.4375-.3125-.65625-.32813-1.0469-.89063-.375-.5625-.4062-1.29687h1.6875q.04685.53125.35935.82812.32815.29688.84375.29688.5781 0 .875-.40625.3125-.42188.3125-1.17188 0-.73437-.3594-1.10937-.3437-.39063-1-.39063-.60935 0-.98435.3125l-.15625.15625z" stroke="#7b5e40" stroke-linecap="round" stroke-linejoin="round" stroke-width="3"/><path d="m509.79688 228.3013h.90624q.64063 0 .95313-.3125.3125-.32812.3125-.85937 0-.51563-.3125-.79688-.29687-.29687-.84375-.29687-.48438 0-.8125.26562-.32812.26563-.32812.6875h-1.6875q0-.65625.35937-1.1875.35937-.53125 1-.82812.65625-.3125 1.4375-.3125 1.34375 0 2.10935.65625.7813.64062.7813 1.78125 0 .59375-.3594 1.09375-.3594.48437-.9375.73437.71875.26563 1.0625.78125.3594.51563.3594 1.21875 0 1.14063-.82815 1.82813-.82815.6875-2.1875.6875-1.28125 0-2.09375-.67188-.8125-.6875-.8125-1.79687h1.6875q0 .48437.35938.79687.375.29688.89062.29688.60938 0 .95312-.3125.34378-.32813.34378-.85938 0-1.26562-1.40628-1.26562h-.90624zm5.43752 4.1875q0-.40625.2656-.65625.28125-.25.6875-.25.4219 0 .6875.25.28125.25.28125.65625 0 .39063-.28125.64063-.2656.25-.6875.25-.40625 0-.6875-.25-.2656-.25-.2656-.64063zm3.0937-3.375.5-4.32812h4.7813v1.40625h-3.39065l-.21875 1.84375q.6094-.32813 1.28125-.32813 1.21875 0 1.90625.76563.7031.75.7031 2.10937 0 .82813-.35935 1.48438-.34375.64062-1 1.01562-.64065.35938-1.53125.35938-.7656 0-1.4375-.3125-.65625-.32813-1.0469-.89063-.375-.5625-.4062-1.29687h1.6875q.04685.53125.35935.82812.32815.29688.84375.29688.5781 0 .875-.40625.3125-.42188.3125-1.17188 0-.73437-.3594-1.10937-.3437-.39063-1-.39063-.60935 0-.98435.3125l-.15625.15625z" fill="#fff"/><path d="m541.6719 221.84285v1.40625h-.1563q-1.1562.01562-1.85935.59375-.6875.57812-.82815 1.60937.6719-.6875 1.70315-.6875 1.125 0 1.78125.79688.65625.79687.65625 2.09375 0 .82812-.35935 1.5-.3594.67187-1.0313 1.0625-.6562.375-1.48435.375-1.34375 0-2.17185-.9375-.82815-.95313-.82815-2.51563v-.60937q0-1.39063.51565-2.45313.5312-1.0625 1.5-1.64062.98435-.57813 2.2812-.59375zm-1.6563 4.28125q-.4062 0-.75.21875-.3281.20312-.48435.5625v.51562q0 .84375.32815 1.32813.3437.46875.9531.46875.5469 0 .875-.42188.34375-.4375.34375-1.125 0-.70312-.34375-1.125-.34375-.42187-.9219-.42187zm4.2188 3.51562q0-.40625.2656-.65625.28125-.25.6875-.25.4219 0 .6875.25.28125.25.28125.65625 0 .39063-.28125.64063-.2656.25-.6875.25-.40625 0-.6875-.25-.2656-.25-.2656-.64063zm8.6406-6.75-3.2969 7.57813h-1.7812l3.29685-7.15625h-4.23435v-1.375h6.0156z" stroke="#7b5e40" stroke-linecap="round" stroke-linejoin="round" stroke-width="3"/><path d="m541.6719 221.84285v1.40625h-.1563q-1.1562.01562-1.85935.59375-.6875.57812-.82815 1.60937.6719-.6875 1.70315-.6875 1.125 0 1.78125.79688.65625.79687.65625 2.09375 0 .82812-.35935 1.5-.3594.67187-1.0313 1.0625-.6562.375-1.48435.375-1.34375 0-2.17185-.9375-.82815-.95313-.82815-2.51563v-.60937q0-1.39063.51565-2.45313.5312-1.0625 1.5-1.64062.98435-.57813 2.2812-.59375zm-1.6563 4.28125q-.4062 0-.75.21875-.3281.20312-.48435.5625v.51562q0 .84375.32815 1.32813.3437.46875.9531.46875.5469 0 .875-.42188.34375-.4375.34375-1.125 0-.70312-.34375-1.125-.34375-.42187-.9219-.42187zm4.2188 3.51562q0-.40625.2656-.65625.28125-.25.6875-.25.4219 0 .6875.25.28125.25.28125.65625 0 .39063-.28125.64063-.2656.25-.6875.25-.40625 0-.6875-.25-.2656-.25-.2656-.64063zm8.6406-6.75-3.2969 7.57813h-1.7812l3.29685-7.15625h-4.23435v-1.375h6.0156z" fill="#fff"/><g fill="#000"><path d="m17.28125 231.70312h.8125q.78125-.01562 1.21875-.40624.4375-.39063.4375-1.0625 0-1.5-1.5-1.5-.703125 0-1.125.40624-.40625.40626-.40625 1.0625h-1.09375q0-1.01562.734375-1.6875.75-.67187 1.890625-.67187 1.203125 0 1.890625.64063.6875.64062.6875 1.78124 0 .5625-.359375 1.07813-.359375.51563-.984375.78125.703125.21875 1.078125.73438.390625.51562.390625 1.26562 0 1.14062-.75 1.82812-.75.67188-1.953125.67188-1.1875 0-1.953125-.65625-.75-.65625-.75-1.71875h1.09375q0 .67188.4375 1.07812.4375.40626 1.1875.40626.78125 0 1.1875-.40626.421875-.42187.421875-1.1875 0-.73437-.453125-1.125-.453125-.40624-1.328125-.42187h-.8125zm10.78125 1.15626q0 1.90624-.65625 2.84374-.640625.92188-2.03125.92188-1.359375 0-2.015625-.90625-.65625-.90625-.6875-2.71875v-1.4375q0-1.89062.640625-2.79688.65625-.92187 2.046875-.92187 1.375 0 2.03125.89063.65625.875.671875 2.71874zm-1.09375-1.48438q0-1.375-.390625-2-.375-.64062-1.21875-.64062-.828125 0-1.21875.64062-.375.625-.375 1.92188v1.73437q0 1.375.390625 2.04687.40625.65626 1.21875.65626.796875 0 1.1875-.625.390625-.625.40625-1.95313zm5.109375 1.9375h-2.859375v-.875h2.859375zm4.1875 3.1875h-1.078125v-7.21875l-2.1875.79687v-.98437l3.109375-1.17187h.15625zm9.03125 0h-5.59375v-.78125l2.953125-3.28125q.65625-.75.90625-1.20312.25-.46876.25-.96876 0-.67187-.40625-1.09374-.390625-.4375-1.078125-.4375-.796875 0-1.25.46874-.453125.45313-.453125 1.28126h-1.078125q0-1.1875.75-1.90626.765625-.73437 2.03125-.73437 1.203125 0 1.890625.625.6875.625.6875 1.67187 0 1.25-1.609375 3l-2.28125 2.46876h4.28125z"/><path d="m28.296875 191.375h-5.59375v-.78125l2.953125-3.28125q.65625-.75.90625-1.20312.25-.46876.25-.96876 0-.67187-.40625-1.09374-.390625-.4375-1.078125-.4375-.796875 0-1.25.46874-.453125.45313-.453125 1.28126h-1.078125q0-1.1875.75-1.90626.765625-.73437 2.03125-.73437 1.203125 0 1.890625.625.6875.625.6875 1.67187 0 1.25-1.609375 3l-2.28125 2.46876h4.28125zm5.984375-2.85938h1.1875v.875h-1.1875v1.98438h-1.078125v-1.98438h-3.890625v-.64062l3.8125-5.90625h1.15625zm-3.734375 0h2.65625v-4.1875l-.140625.23438zm8.53125-.32812h-2.859375v-.875h2.859375zm4.1875 3.1875h-1.078125v-7.21875l-2.1875.79687v-.98437l3.109375-1.17187h.15625z"/><path d="m26.265625 146.25h-1.078125v-7.21875l-2.1875.79687v-.98437l3.109375-1.17187h.15625zm8.625-6.3125q0 .64062-.34375 1.14062-.34375.5-.90625.78126.65625.28124 1.046875.84374.390625.54688.390625 1.25 0 1.09376-.75 1.76563-.734375.65625-1.953125.65625-1.234375 0-1.984375-.65625-.734375-.67187-.734375-1.76563 0-.70312.375-1.25.375-.5625 1.046875-.84374-.5625-.28126-.890625-.78126-.328125-.5-.328125-1.14062 0-1.07812.6875-1.70312.6875-.64063 1.828125-.64063 1.125 0 1.8125.64063.703125.625.703125 1.70312zm-.890625 3.98438q0-.71876-.453125-1.15626-.453125-.45312-1.1875-.45312-.734375 0-1.1875.45312-.4375.4375-.4375 1.17188 0 .71875.4375 1.14062.4375.40626 1.203125.40626.75 0 1.1875-.42188.4375-.42188.4375-1.14062zm-1.625-5.4375q-.640625 0-1.046875.40624-.390625.39063-.390625 1.07813 0 .64063.390625 1.04687.390625.40626 1.03125.40626.65625 0 1.046875-.40626.390625-.40624.390625-1.04687 0-.65625-.40625-1.0625-.40625-.42187-1.015625-.42187zm6.703125 4.57812h-2.859375v-.875h2.859375zm6.21875 3.1875h-5.59375v-.78125l2.953125-3.28125q.65625-.75.90625-1.20312.25-.46876.25-.96876 0-.67187-.40625-1.09374-.390625-.4375-1.078125-.4375-.796875 0-1.25.46874-.453125.45313-.453125 1.28126h-1.078125q0-1.1875.75-1.90626.765625-.73437 2.03125-.73437 1.203125 0 1.890625.625.6875.625.6875 1.67187 0 1.25-1.609375 3l-2.28125 2.46876h4.28125z"/><path d="m26.265625 101.125h-1.078125v-7.21875l-2.1875.796875v-.984375l3.109375-1.171875h.15625zm3.9375-4.28125.4375-4.25h4.375v1h-3.453125l-.265625 2.328125q.640625-.375 1.4375-.375 1.15625 0 1.84375.78125.6875.765625.6875 2.078125 0 1.3125-.71875 2.078125-.703125.765625-1.984375.765625-1.125 0-1.84375-.625-.71875-.640625-.8125-1.75h1.015625q.109375.734375.53125 1.109375.421875.375 1.109375.375.75 0 1.1875-.515625.4375-.515625.4375-1.421875 0-.859375-.46875-1.375-.46875-.515625-1.25-.515625-.703125 0-1.109375.296875l-.28125.234375zm8.875 1.09375h-2.859375v-.875h2.859375zm2.203125-1.609375h.8125q.78125-.015625 1.21875-.40625.4375-.390625.4375-1.0625 0-1.5-1.5-1.5-.703125 0-1.125.40625-.40625.40625-.40625 1.0625h-1.09375q0-1.015625.734375-1.6875.75-.671875 1.890625-.671875 1.203125 0 1.890625.640625.6875.640625.6875 1.78125 0 .5625-.359375 1.078125-.359375.515625-.984375.78125.703125.21875 1.078125.734375.390625.515625.390625 1.265625 0 1.140625-.75 1.828125-.75.671875-1.953125.671875-1.1875 0-1.953125-.65625-.75-.65625-.75-1.71875h1.09375q0 .671875.4375 1.078125.4375.40625 1.1875.40625.78125 0 1.1875-.40625.421875-.421875.421875-1.1875 0-.734375-.453125-1.125-.453125-.40625-1.328125-.421875h-.8125z"/><path d="m33.859375 52.25q-.328125.40625-.8125.65625-.46875.234375-1.03125.234375-.734375 0-1.28125-.359375-.546875-.359375-.84375-1.015625-.296875-.671875-.296875-1.46875 0-.84375.3125-1.53125.328125-.6875.921875-1.046875.609375-.375 1.40625-.375 1.265625 0 1.984375.953125.734375.953125.734375 2.578125v.3125q0 2.5-.984375 3.640625-.984375 1.140625-2.96875 1.171875h-.21875v-.90625h.234375q1.34375-.03125 2.0625-.703125.71875-.671875.78125-2.140625zm-1.671875 0q.546875 0 1-.328125.46875-.34375.6875-.828125v-.4375q0-1.0625-.46875-1.734375-.46875-.671875-1.171875-.671875-.71875 0-1.15625.546875-.421875.546875-.421875 1.453125 0 .875.40625 1.4375.421875.5625 1.125.5625zm6.890625.5625h-2.859375v-.875h2.859375zm5.203125.328125h1.1875v.875h-1.1875v1.984375h-1.078125v-1.984375h-3.890625v-.640625l3.8125-5.90625h1.15625zm-3.734375 0h2.65625v-4.1875l-.140625.234375z"/><path d="m82.224785 259.3125v1.6875h-6.53125l.625 2.01562h-1.375l-1.265625-3.53124v-.17188zm-2.96875-6.25v3.29688h-1.375v-3.29688zm2.96875-5.75v1.6875h-6.53125l.625 2.01562h-1.375l-1.265625-3.53124v-.17188zm-3.53125-8.64064q1.765625 0 2.71875.73437.9375.73438.9375 2.14065 0 1.40624-.921875 2.14062-.921875.73438-2.640625.75h-1.578125q-1.78125 0-2.703125-.73438-.9375-.75-.9375-2.14062 0-1.39064.921875-2.12502.921875-.75 2.640625-.76562zm-1.71875 1.70312q-1.0625 0-1.546875.2969-.484375.28124-.484375.89062 0 .59375.46875.89062.453125.28126 1.4375.29688h2.0625q1.046875 0 1.5625-.28125.5-.28125.5-.92187 0-.60938-.484375-.89063-.484375-.28127-1.484375-.28127z"/><path d="m111.446686 266.3125v1.6875h-6.53125l.625 2.01562h-1.375l-1.265626-3.53124v-.17188zm0-7v1.6875h-6.53125l.625 2.01562h-1.375l-1.265626-3.53124v-.17188zm-2.96875-6.25v3.29688h-1.375v-3.29688zm2.96875-7.48438v5.84376h-1.15625l-2.953126-2.76563q-.609374-.5625-1.078124-.82813-.46875-.28124-.875-.28124-.578126 0-.890626.29687-.328124.28125-.328124.8125 0 .57813.390624.90625.390626.32812 1.046876.32812v1.70313q-.78125 0-1.421876-.375-.65625-.375-1.015624-1.04687-.375-.6875-.375-1.54688 0-1.3125.640624-2.04688.625-.73437 1.78125-.73437.640626 0 1.296876.32813.65625.32812 1.53125 1.125l2.046874 1.9375v-3.65626zm-3.53125-6.90624q1.765624 0 2.71875.73437.9375.73437.9375 2.14063 0 1.40624-.921876 2.14062-.921874.73438-2.640624.75h-1.578126q-1.78125 0-2.703124-.73438-.9375-.75-.9375-2.14062 0-1.39062.921874-2.125.921876-.75 2.640626-.76562zm-1.71875 1.70312q-1.0625 0-1.546876.29688-.484374.28124-.484374.89062 0 .59375.46875.89062.453124.28126 1.4375.29688h2.0625q1.046874 0 1.5625-.28125.5-.28125.5-.92187 0-.60938-.484376-.89063-.484374-.28125-1.484374-.28125z"/><path d="m140.6686 264.57812v5.84376h-1.15626l-2.95312-2.76563q-.60938-.5625-1.07812-.82813-.46876-.28124-.875-.28124-.57813 0-.89063.29687-.32813.28125-.32813.8125 0 .57813.39063.90625.39063.32812 1.04687.32812v1.70313q-.78124 0-1.42187-.375-.65625-.375-1.01563-1.04687-.375-.6875-.375-1.54688 0-1.3125.64063-2.04688.625-.73437 1.78125-.73437.64062 0 1.29688.32813.65624.32812 1.53124 1.125l2.04688 1.9375v-3.65626zm0-5.26562v1.6875h-6.53126l.625 2.01562h-1.375l-1.26562-3.53124v-.17188zm-2.96876-6.25v3.29688h-1.375v-3.29688zm-2.04687-3.35938v-.90624q0-.64063-.3125-.95313-.32813-.3125-.85937-.3125-.51563 0-.79688.3125-.29688.29687-.29688.84375 0 .48438.26563.8125.26563.32812.6875.32812v1.6875q-.65625 0-1.1875-.35937-.53125-.35937-.82813-1-.3125-.65625-.3125-1.4375 0-1.34375.65626-2.10937.64062-.78126 1.78124-.78126.59376 0 1.09376.35938.48437.35938.73437.9375.26563-.71875.78125-1.0625.51562-.35938 1.21875-.35938 1.14063 0 1.82813.82813.6875.82813.6875 2.1875 0 1.28125-.67188 2.09375-.6875.8125-1.79688.8125v-1.6875q.48438 0 .79688-.35938.29688-.375.29688-.89062 0-.60938-.3125-.95312-.32813-.34376-.85938-.34376-1.26562 0-1.26562 1.40626v.90624zm1.48437-11.03124q1.76563 0 2.71876.73437.9375.73437.9375 2.14063 0 1.40624-.92188 2.14062-.92188.73438-2.64062.75h-1.57813q-1.78125 0-2.70313-.73438-.9375-.75-.9375-2.14062 0-1.39062.92188-2.125.92188-.75 2.64062-.76562zm-1.71874 1.70312q-1.0625 0-1.54688.29688-.48438.28124-.48438.89062 0 .59375.46876.89062.45312.28126 1.4375.29688h2.0625q1.04687 0 1.5625-.28125.5-.28125.5-.92187 0-.60938-.48438-.89063-.48438-.28125-1.48438-.28125z"/><path d="m164.87486 268.70312v-.90624q0-.64063-.3125-.95313-.32812-.3125-.85937-.3125-.51563 0-.79688.3125-.29687.29687-.29687.84375 0 .48438.26562.8125.26563.32812.6875.32812v1.6875q-.65625 0-1.1875-.35937-.53125-.35937-.82812-1-.3125-.65625-.3125-1.4375 0-1.34375.65625-2.10937.64062-.78126 1.78125-.78126.59375 0 1.09375.35938.48437.35938.73437.9375.26563-.71875.78125-1.0625.51563-.35938 1.21875-.35938 1.14063 0 1.82813.82813.6875.82813.6875 2.1875 0 1.28125-.67188 2.09375-.6875.8125-1.79687.8125v-1.6875q.48437 0 .79687-.35938.29688-.375.29688-.89062 0-.60938-.3125-.95312-.32813-.34376-.85938-.34376-1.26562 0-1.26562 1.40626v.90624zm5.01563-9.39062v1.6875h-6.53125l.625 2.01562h-1.375l-1.26563-3.53124v-.17188zm-2.96875-6.25v3.29688h-1.375v-3.29688zm-.25-6.65625v-.96875h1.375v.96875h1.84375v1.70313h-1.84375v3.48437l-1.0625.07813-5.625-3.54688v-1.71875zm0 3.57813v-1.875h-3l.1875.10937zm-.3125-11.3125q1.76562 0 2.71875.73437.9375.73437.9375 2.14063 0 1.40624-.92188 2.14062-.92187.73438-2.64062.75h-1.57813q-1.78125 0-2.70312-.73438-.9375-.75-.9375-2.14062 0-1.39062.92187-2.125.92188-.75 2.64063-.76562zm-1.71875 1.70312q-1.0625 0-1.54688.29688-.48437.28124-.48437.89062 0 .59375.46875.89062.45312.28126 1.4375.29688h2.0625q1.04687 0 1.5625-.28125.5-.28125.5-.92187 0-.60938-.48438-.89063-.48437-.28125-1.48437-.28125z"/><path d="m195.89365 265.40625v-.96875h1.375v.96875h1.84375v1.70313h-1.84375v3.48437l-1.0625.07813-5.625-3.54688v-1.71875zm0 3.57813v-1.875h-3l.1875.10937zm3.21875-9.67188v1.6875h-6.53125l.625 2.01562h-1.375l-1.26563-3.53124v-.17188zm-2.96875-6.25v3.29688h-1.375v-3.29688zm-1.23438-1.89062-4.32812-.5v-4.78126h1.40625v3.39063l1.84375.21875q-.32813-.60938-.32813-1.28125 0-1.21875.76563-1.90625.75-.70312 2.10937-.70312.82813 0 1.48438.35937.64062.34375 1.01562 1 .35938.64063.35938 1.53125 0 .76562-.3125 1.4375-.32813.65625-.89063 1.04688-.5625.375-1.29687.40624v-1.6875q.53125-.04687.82812-.35937.29688-.32813.29688-.84375 0-.57812-.40625-.875-.42188-.3125-1.17188-.3125-.73437 0-1.10937.35938-.39063.34374-.39063 1 0 .60937.3125.98437l.15625.15625zm.67188-12.5q1.76562 0 2.71875.73437.9375.73437.9375 2.14063 0 1.40624-.92188 2.14062-.92187.73438-2.64062.75h-1.57813q-1.78125 0-2.70312-.73438-.9375-.75-.9375-2.14062 0-1.39062.92187-2.125.92188-.75 2.64063-.76562zm-1.71875 1.70312q-1.0625 0-1.54688.29688-.48437.28124-.48437.89062 0 .59375.46875.89062.45312.28126 1.4375.29688h2.0625q1.04687 0 1.5625-.28125.5-.28125.5-.92187 0-.60938-.48438-.89063-.48437-.28125-1.48437-.28125z"/><path d="m224.13116 270.17188-4.32812-.5v-4.78126h1.40625v3.39063l1.84375.21875q-.32813-.60938-.32813-1.28125 0-1.21875.76563-1.90625.75-.70312 2.10937-.70312.82813 0 1.48438.35937.64062.34375 1.01562 1 .35938.64063.35938 1.53125 0 .76562-.3125 1.4375-.32813.65625-.89063 1.04688-.5625.375-1.29687.40624v-1.6875q.53125-.04687.82812-.35937.29688-.32813.29688-.84375 0-.57812-.40625-.875-.42188-.3125-1.17188-.3125-.73437 0-1.10937.35938-.39063.34374-.39063 1 0 .60937.3125.98437l.15625.15625zm4.20313-10.85938v1.6875h-6.53125l.625 2.01562h-1.375l-1.26563-3.53124v-.17188zm-2.96875-6.25v3.29688h-1.375v-3.29688zm-5.65625-6.23438h1.40625v.15626q.01562 1.15624.59375 1.85937.57812.6875 1.60937.82813-.6875-.67188-.6875-1.70313 0-1.125.79688-1.78125.79687-.65625 2.09375-.65625.82812 0 1.5.35937.67187.35938 1.0625 1.03126.375.65624.375 1.48437 0 1.34375-.9375 2.17187-.95313.82813-2.51563.82813h-.60937q-1.39063 0-2.45313-.51563-1.0625-.53124-1.64062-1.5-.57813-.98437-.59375-2.28124zm4.28125 1.65626q0 .40624.21875.75.20312.32812.5625.48437h.51562q.84375 0 1.32813-.32813.46875-.34374.46875-.95312 0-.54688-.42188-.875-.4375-.34375-1.125-.34375-.70312 0-1.125.34375-.42187.34375-.42187.92188zm.8125-9.8125q1.76562 0 2.71875.73437.9375.73437.9375 2.14063 0 1.40624-.92188 2.14062-.92187.73438-2.64062.75h-1.57813q-1.78125 0-2.70312-.73438-.9375-.75-.9375-2.14062 0-1.39062.92187-2.125.92188-.75 2.64063-.76562zm-1.71875 1.70312q-1.0625 0-1.54688.29688-.48437.28124-.48437.89062 0 .59375.46875.89062.45312.28126 1.4375.29688h2.0625q1.04687 0 1.5625-.28125.5-.28125.5-.92187 0-.60938-.48438-.89063-.48437-.28125-1.48437-.28125z"/><path d="m248.9312 265.82812h1.40625v.15626q.01562 1.15624.59375 1.85937.57812.6875 1.60937.82813-.6875-.67188-.6875-1.70313 0-1.125.79688-1.78125.79687-.65625 2.09375-.65625.82812 0 1.49998.35937.67188.35938 1.0625 1.03126.375.65624.375 1.48437 0 1.34375-.9375 2.17187-.95311.82813-2.51561.82813h-.60937q-1.39063 0-2.45313-.51563-1.0625-.53124-1.64062-1.5-.57813-.98437-.59375-2.28124zm4.28125 1.65626q0 .40624.21875.75.20312.32812.5625.48437h.51562q.84375 0 1.32813-.32813.46873-.34374.46873-.95312 0-.54688-.42186-.875-.4375-.34375-1.125-.34375-.70312 0-1.125.34375-.42187.34375-.42187.92188zm4.34373-8.17188v1.6875h-6.53123l.625 2.01562h-1.375l-1.26563-3.53124v-.17188zm-2.96873-6.24998v3.29686h-1.375v-3.29686zm-4.60938-7.4375 7.57811 3.29687v1.78125l-7.15623-3.29687v4.23437h-1.375v-6.01562zm4.04688-6.95313q1.76562 0 2.71873.73438.9375.73437.9375 2.14062 0 1.40625-.92188 2.14063-.92185.73437-2.6406.75h-1.57813q-1.78125 0-2.70312-.73438-.9375-.75-.9375-2.14062 0-1.39063.92187-2.125.92188-.75 2.64063-.76563zm-1.71875 1.70313q-1.0625 0-1.54688.29687-.48437.28125-.48437.89063 0 .59375.46875.89062.45312.28125 1.4375.29688h2.0625q1.04687 0 1.5625-.28125.49998-.28125.49998-.92188 0-.60937-.48436-.89062-.48437-.28125-1.48437-.28125z"/><path d="m279.19998 264.625 7.57812 3.29688v1.78124l-7.15624-3.29687v4.23437h-1.375v-6.01562zm7.57812-5.3125v1.6875h-6.53124l.625 2.01562h-1.375l-1.26563-3.53124v-.17188zm-2.96874-6.25002v3.2969h-1.375v-3.2969zm-3.29688-7.20312q.625 0 1.10938.3125.46874.3125.76562.85937.29688-.625.82812-.98437.51563-.375 1.21876-.375 1.14062 0 1.8125.78125.65624.76562.65624 2.10937 0 1.32813-.65624 2.10938-.67188.76562-1.8125.76562-.70313 0-1.23438-.35937-.53125-.35938-.8125-.98438-.29688.54688-.76562.85938-.48438.3125-1.10938.3125-1.09375 0-1.73438-.71875-.65624-.73438-.65624-1.98438 0-1.25.65624-1.96875.64063-.73437 1.73438-.73437zm3.79688 1.51562q-.54688 0-.875.32813-.34376.3125-.34376.85937 0 .54688.32813.875.32813.3125.89063.3125.54687 0 .89062-.3125.32812-.32812.32812-.89062 0-.54688-.3125-.85938-.32812-.3125-.90624-.3125zm-3.71876.17188q-.5 0-.79687.26562-.29687.26563-.29687.75 0 .46875.29687.73438.28125.26562.79687.26562.51563 0 .82813-.26562.3125-.26563.3125-.73438 0-.48437-.3125-.75-.3125-.26562-.82813-.26562zm2.65626-8.875q1.76562 0 2.71874.73437.9375.73438.9375 2.14063 0 1.40625-.92187 2.14062-.92187.73438-2.64063.75h-1.57812q-1.78125 0-2.70312-.73437-.9375-.75-.9375-2.14063 0-1.39062.92187-2.125.92187-.75 2.64063-.76562zm-1.71876 1.70312q-1.0625 0-1.54687.29688-.48437.28125-.48437.89062 0 .59375.46874.89063.45313.28125 1.4375.29687h2.0625q1.04688 0 1.5625-.28125.5-.28125.5-.92187 0-.60938-.48437-.89063-.48437-.28125-1.48437-.28125z"/><path d="m309.73438 264.85938q.625 0 1.10937.3125.46875.3125.76563.85937.29687-.625.82812-.98437.51562-.375 1.21875-.375 1.14063 0 1.8125.78124.65625.76563.65625 2.10938 0 1.32812-.65625 2.10938-.67187.76562-1.8125.76562-.70313 0-1.23437-.35938-.53126-.35937-.8125-.98437-.29688.54687-.76563.85937-.48437.3125-1.10937.3125-1.09376 0-1.73438-.71874-.65625-.73438-.65625-1.98438 0-1.25.65625-1.96875.64062-.73437 1.73438-.73437zm3.79687 1.51562q-.54687 0-.875.32812-.34375.3125-.34375.85938 0 .54688.32812.875.32813.3125.89063.3125.54687 0 .89063-.3125.32812-.32812.32812-.89062 0-.54688-.3125-.85938-.32812-.3125-.90625-.3125zm-3.71875.17188q-.5 0-.79688.26562-.29687.26562-.29687.75 0 .46875.29687.73438.28126.26562.79688.26562.51562 0 .82812-.26562.3125-.26563.3125-.73438 0-.48438-.3125-.75-.3125-.26562-.82812-.26562zm6.1875-7.23438v1.6875h-6.53125l.625 2.01562h-1.375l-1.26563-3.53124v-.17188zm-2.96875-6.25v3.29688h-1.375v-3.29688zm-.4375-5.60938q.64063.67188.64063 1.54688 0 1.14062-.76563 1.82812-.78125.67188-2.09375.67188-.84375 0-1.54688-.35938-.70312-.375-1.09374-1.03124-.39063-.65626-.39063-1.48438 0-.84375.42187-1.5.42188-.65625 1.21876-1.01562.79687-.35938 1.8125-.375h.625q2.14062 0 3.35937 1.0625 1.21875 1.0625 1.29687 3.01562v.40625h-1.40624l-.01563-.375q-.09375-2.20313-2.0625-2.39063zm-.65625 1.14063q0-.42187-.20312-.70313-.21876-.29687-.51563-.45312h-.6875q-.85937 0-1.32813.32812-.48437.32813-.48437.875 0 .51563.46875.84376.45312.32812 1.15625.32812.70313 0 1.15625-.3125.4375-.32812.4375-.90625zm.53125-9.92187q1.76563 0 2.71875.73437.9375.73437.9375 2.14063 0 1.40624-.92188 2.14062-.92187.73438-2.64062.75h-1.57812q-1.78126 0-2.70313-.73438-.9375-.75-.9375-2.14062 0-1.39062.92187-2.125.92188-.75 2.64063-.76562zm-1.71875 1.70312q-1.0625 0-1.54688.29688-.48437.28124-.48437.89062 0 .59375.46875.89062.45312.28126 1.4375.29688h2.0625q1.04688 0 1.5625-.28125.5-.28125.5-.92187 0-.60938-.48438-.89063-.48437-.28125-1.48437-.28125z"/><path d="m341.81564 273.45312q.64063.67188.64063 1.54688 0 1.14062-.76563 1.82812-.78124.67188-2.09374.67188-.84376 0-1.54688-.35938-.70312-.375-1.09375-1.03124-.39063-.65626-.39063-1.48438 0-.84375.42188-1.5.42188-.65625 1.21875-1.01562.79687-.35938 1.8125-.375h.625q2.14063 0 3.35937 1.0625 1.21876 1.0625 1.29688 3.01562v.40625h-1.40625l-.01563-.375q-.09374-2.20313-2.0625-2.39063zm-.65624 1.14063q0-.42187-.20313-.70313-.21875-.29687-.51563-.45312h-.6875q-.85937 0-1.32812.32812-.48438.32813-.48438.875 0 .51563.46876.84376.45312.32812 1.15624.32812.70313 0 1.15626-.3125.4375-.32812.4375-.90625zm4.0625-8.28125v1.6875h-6.53126l.625 2.01562h-1.375l-1.26562-3.53124v-.17188zm-2.96876-6.25v3.29688h-1.375v-3.29688zm2.96876-5.74998v1.68748h-6.53126l.625 2.01562h-1.375l-1.26562-3.53123v-.17187zm-3.53126-8.64063q1.76563 0 2.71876.73438.9375.73437.9375 2.14062 0 1.40625-.92188 2.14063-.92188.73437-2.64062.75h-1.57813q-1.78125 0-2.70313-.73438-.9375-.75-.9375-2.14062 0-1.39063.92188-2.125.92188-.75 2.64062-.76563zm-1.71874 1.70313q-1.0625 0-1.54688.29687-.48438.28125-.48438.89063 0 .59375.46876.89062.45312.28125 1.4375.29688h2.0625q1.04687 0 1.5625-.28125.5-.28125.5-.92188 0-.60937-.48438-.89062-.48438-.28125-1.48438-.28125zm1.71874-8.70313q1.76563 0 2.71876.73438.9375.73437.9375 2.14062 0 1.40625-.92188 2.14063-.92188.73437-2.64062.75h-1.57813q-1.78125 0-2.70313-.73438-.9375-.75-.9375-2.14062 0-1.39063.92188-2.125.92188-.75 2.64062-.76563zm-1.71874 1.70313q-1.0625 0-1.54688.29687-.48438.28125-.48438.89063 0 .59375.46876.89062.45312.28125 1.4375.29688h2.0625q1.04687 0 1.5625-.28125.5-.28125.5-.92188 0-.60937-.48438-.89062-.48438-.28125-1.48438-.28125z"/><path d="m374.44382 280.3125v1.6875h-6.53125l.625 2.01562h-1.375l-1.26563-3.53124v-.17188zm-3.53125-8.64062q1.76563 0 2.71875.73437.9375.73437.9375 2.14063 0 1.40624-.92188 2.14062-.92187.73438-2.64062.75h-1.57812q-1.78126 0-2.70313-.73438-.9375-.75-.9375-2.14062 0-1.39062.92187-2.125.92188-.75 2.64063-.76562zm-1.71875 1.70312q-1.0625 0-1.54688.29688-.48437.28124-.48437.89062 0 .59375.46875.89062.45312.28126 1.4375.29688h2.0625q1.04688 0 1.5625-.28125.5-.28125.5-.92187 0-.60938-.48438-.89063-.48437-.28125-1.48437-.28125zm5.25-7.0625v1.6875h-6.53125l.625 2.01562h-1.375l-1.26563-3.53124v-.17188zm-2.96875-6.25v3.29688h-1.375v-3.29688zm2.96875-5.75002v1.6875h-6.53125l.625 2.01564h-1.375l-1.26563-3.53126v-.17188zm0-7v1.6875h-6.53125l.625 2.01563h-1.375l-1.26563-3.53125v-.17188zm-3.53125-8.64062q1.76563 0 2.71875.73437.9375.73438.9375 2.14063 0 1.40625-.92188 2.14062-.92187.73438-2.64062.75h-1.57812q-1.78126 0-2.70313-.73437-.9375-.75-.9375-2.14063 0-1.39062.92187-2.125.92188-.75 2.64063-.76562zm-1.71875 1.70312q-1.0625 0-1.54688.29688-.48437.28125-.48437.89062 0 .59375.46875.89063.45312.28125 1.4375.29687h2.0625q1.04688 0 1.5625-.28125.5-.28125.5-.92187 0-.60938-.48438-.89063-.48437-.28125-1.48437-.28125z"/><path d="m403.6657 280.3125v1.6875h-6.53124l.625 2.01562h-1.375l-1.26562-3.53124v-.17188zm0-7v1.6875h-6.53124l.625 2.01562h-1.375l-1.26562-3.53124v-.17188zm0-7v1.6875h-6.53124l.625 2.01562h-1.375l-1.26562-3.53124v-.17188zm-2.96874-6.25v3.29688h-1.375v-3.29688zm2.96874-5.75v1.6875h-6.53124l.625 2.01562h-1.375l-1.26562-3.53124v-.17188zm0-8.73438v5.84376h-1.15624l-2.95312-2.76563q-.60938-.5625-1.07814-.82813-.46874-.28124-.875-.28124-.5781 0-.8906.29687-.32814.28125-.32814.8125 0 .57813.39064.90625.3906.32812 1.04686.32812v1.70313q-.78126 0-1.42186-.375-.65626-.375-1.01564-1.04687-.375-.6875-.375-1.54688 0-1.3125.64064-2.04688.625-.73437 1.78124-.73437.64062 0 1.29686.32813.65626.32812 1.53126 1.125l2.04688 1.9375v-3.65626zm-3.53124-6.90624q1.76564 0 2.71874.73437.9375.73437.9375 2.14063 0 1.40624-.92186 2.14062-.92188.73438-2.64064.75h-1.5781q-1.78126 0-2.70314-.73438-.9375-.75-.9375-2.14062 0-1.39062.92188-2.125.92186-.75 2.64062-.76562zm-1.71876 1.70312q-1.0625 0-1.54686.29688-.48438.28124-.48438.89062 0 .59375.46874.89062.45314.28126 1.4375.29688h2.0625q1.0469 0 1.5625-.28125.5-.28125.5-.92187 0-.60938-.48436-.89063-.48438-.28125-1.48438-.28125z"/><path d="m432.8876 280.3125v1.6875h-6.53125l.625 2.01562h-1.375l-1.26562-3.53124v-.17188zm0-8.73438v5.84376h-1.15625l-2.95312-2.76563q-.60938-.5625-1.07813-.82813-.46875-.28124-.875-.28124-.57812 0-.89062.29687-.32813.28125-.32813.8125 0 .57813.39063.90625.39062.32812 1.04687.32812v1.70313q-.78125 0-1.42187-.375-.65625-.375-1.01563-1.04687-.375-.6875-.375-1.54688 0-1.3125.64063-2.04688.625-.73437 1.78125-.73437.64062 0 1.29687.32813.65625.32812 1.53125 1.125l2.04688 1.9375v-3.65626zm0-5.26562v1.6875h-6.53125l.625 2.01562h-1.375l-1.26562-3.53124v-.17188zm-2.96875-6.25v3.29688h-1.375v-3.29688zm2.96875-5.75v1.6875h-6.53125l.625 2.01562h-1.375l-1.26562-3.53124v-.17188zm-5.01562-4.60938v-.90624q0-.64063-.3125-.95313-.32813-.3125-.85938-.3125-.51562 0-.79687.3125-.29688.29687-.29688.84375 0 .48438.26563.8125.26562.32812.6875.32812v1.6875q-.65625 0-1.1875-.35937-.53125-.35937-.82813-1-.3125-.65625-.3125-1.4375 0-1.34375.65625-2.10937.64063-.78126 1.78125-.78126.59375 0 1.09375.35938.48438.35938.73438.9375.26562-.71875.78125-1.0625.51562-.35938 1.21875-.35938 1.14062 0 1.82812.82813.6875.82813.6875 2.1875 0 1.28125-.67187 2.09375-.6875.8125-1.79688.8125v-1.6875q.48438 0 .79688-.35938.29687-.375.29687-.89062 0-.60938-.3125-.95312-.32812-.34376-.85937-.34376-1.26563 0-1.26563 1.40626v.90624zm1.48437-11.03124q1.76563 0 2.71875.73437.9375.73437.9375 2.14063 0 1.40624-.92187 2.14062-.92188.73438-2.64063.75h-1.57812q-1.78125 0-2.70313-.73438-.9375-.75-.9375-2.14062 0-1.39062.92188-2.125.92187-.75 2.64062-.76562zm-1.71875 1.70312q-1.0625 0-1.54687.29688-.48438.28124-.48438.89062 0 .59375.46875.89062.45313.28126 1.4375.29688h2.0625q1.04688 0 1.5625-.28125.5-.28125.5-.92187 0-.60938-.48437-.89063-.48438-.28125-1.48438-.28125z"/><path d="m462.1095 280.3125v1.6875h-6.53125l.625 2.01562h-1.375l-1.26563-3.53124v-.17188zm-5.01563-4.60938v-.90624q0-.64063-.3125-.95313-.32812-.3125-.85937-.3125-.51563 0-.79688.3125-.29687.29687-.29687.84375 0 .48438.26562.8125.26563.32812.6875.32812v1.6875q-.65625 0-1.1875-.35937-.53125-.35937-.82812-1-.3125-.65625-.3125-1.4375 0-1.34375.65625-2.10937.64062-.78126 1.78125-.78126.59375 0 1.09375.35938.48437.35938.73437.9375.26563-.71875.78125-1.0625.51563-.35938 1.21875-.35938 1.14063 0 1.82813.82813.6875.82813.6875 2.1875 0 1.28125-.67188 2.09375-.6875.8125-1.79687.8125v-1.6875q.48437 0 .79687-.35938.29688-.375.29688-.89062 0-.60938-.3125-.95312-.32813-.34376-.85938-.34376-1.26562 0-1.26562 1.40626v.90624zm5.01563-9.39062v1.6875h-6.53125l.625 2.01562h-1.375l-1.26563-3.53124v-.17188zm-2.96875-6.25v3.29688h-1.375v-3.29688zm2.96875-5.74998v1.68748h-6.53125l.625 2.01562h-1.375l-1.26563-3.53123v-.17187zm-3.21875-7.90625v-.96875h1.375v.96875h1.84375v1.70312h-1.84375v3.48438l-1.0625.07812-5.625-3.54687v-1.71875zm0 3.57812v-1.875h-3l.1875.10938zm-.3125-11.3125q1.76562 0 2.71875.73438.9375.73437.9375 2.14062 0 1.40625-.92188 2.14063-.92187.73437-2.64062.75h-1.57813q-1.78125 0-2.70312-.73438-.9375-.75-.9375-2.14062 0-1.39063.92187-2.125.92188-.75 2.64063-.76563zm-1.71875 1.70313q-1.0625 0-1.54688.29687-.48437.28125-.48437.89063 0 .59375.46875.89062.45312.28125 1.4375.29688h2.0625q1.04687 0 1.5625-.28125.5-.28125.5-.92188 0-.60937-.48438-.89062-.48437-.28125-1.48437-.28125z"/><path d="m491.33142 280.3125v1.6875h-6.53125l.625 2.01562h-1.375l-1.26562-3.53124v-.17188zm-3.21875-7.90625v-.96875h1.375v.96875h1.84375v1.70313h-1.84375v3.48437l-1.0625.07813-5.625-3.54688v-1.71875zm0 3.57813v-1.875h-3l.1875.10937zm3.21875-9.67188v1.6875h-6.53125l.625 2.01562h-1.375l-1.26562-3.53124v-.17188zm-2.96875-6.25v3.29688h-1.375v-3.29688zm2.96875-5.75002v1.6875h-6.53125l.625 2.01564h-1.375l-1.26562-3.53126v-.17188zm-4.20312-3.14062-4.32813-.5v-4.78125h1.40625v3.39062l1.84375.21875q-.32812-.60937-.32812-1.28125 0-1.21875.76562-1.90625.75-.70312 2.10938-.70312.82812 0 1.48437.35937.64063.34375 1.01563 1 .35937.64063.35937 1.53125 0 .76563-.3125 1.4375-.32812.65625-.89062 1.04688-.5625.375-1.29688.40625v-1.6875q.53125-.04688.82813-.35938.29687-.32812.29687-.84375 0-.57812-.40625-.875-.42187-.3125-1.17187-.3125-.73438 0-1.10938.35938-.39062.34375-.39062 1 0 .60937.3125.98437l.15625.15625zm.67187-12.5q1.76563 0 2.71875.73437.9375.73438.9375 2.14063 0 1.40625-.92187 2.14062-.92188.73438-2.64063.75h-1.57812q-1.78125 0-2.70313-.73437-.9375-.75-.9375-2.14063 0-1.39062.92188-2.125.92187-.75 2.64062-.76562zm-1.71875 1.70312q-1.0625 0-1.54687.29688-.48438.28125-.48438.89062 0 .59375.46875.89063.45313.28125 1.4375.29687h2.0625q1.04688 0 1.5625-.28125.5-.28125.5-.92187 0-.60938-.48437-.89063-.48438-.28125-1.48438-.28125z"/><path d="m520.5533 280.31253v1.6875h-6.53127l.625 2.01563h-1.375l-1.26563-3.53126v-.17187zm-4.20314-3.14063-4.32813-.5v-4.78124h1.40627v3.39062l1.84373.21875q-.32813-.60937-.32813-1.28125 0-1.21875.76563-1.90625.75-.70313 2.10937-.70313.82813 0 1.4844.35938.6406.34375 1.0156 1 .3594.64062.3594 1.53125 0 .76563-.3125 1.4375-.32814.65625-.89064 1.04687-.5625.375-1.29686.40626v-1.6875q.53123-.04688.8281-.35938.2969-.32812.2969-.84375 0-.57813-.40627-.875-.42187-.3125-1.17187-.3125-.73436 0-1.10936.35937-.39064.34376-.39064 1 0 .60938.3125.98438l.15624.15625zm4.20314-10.85937v1.6875h-6.53127l.625 2.01563h-1.375l-1.26563-3.53126v-.17187zm1.3281-7.65625v5.34375h-1.3281v-5.34375zm-1.3281-4.34375v1.6875h-6.53127l.625 2.01563h-1.375l-1.26563-3.53126v-.17187zm-8.625-7.48437h1.40623v.15624q.01563 1.15626.59377 1.85938.5781.6875 1.60936.82812-.6875-.67187-.6875-1.70312 0-1.125.79687-1.78125.79687-.65625 2.09377-.65625.8281 0 1.5.35938.67186.35937 1.0625 1.03124.375.65626.375 1.48438 0 1.34375-.9375 2.17188-.95314.82812-2.51564.82812h-.60936q-1.39064 0-2.45314-.51562-1.0625-.53126-1.64063-1.5-.57809-.98438-.59373-2.28126zm4.28123 1.65624q0 .40626.21877.75.2031.32813.5625.48438h.5156q.84376 0 1.32813-.32812.46877-.34376.46877-.95313 0-.54687-.4219-.875-.4375-.34375-1.125-.34375-.7031 0-1.125.34375-.42187.34375-.42187.92187zm.8125-9.8125q1.76563 0 2.71877.73438.9375.73438.9375 2.14062 0 1.40626-.9219 2.14063-.92187.73437-2.6406.75h-1.57814q-1.78126 0-2.70313-.73437-.93747-.75-.93747-2.14063 0-1.39063.92184-2.125.9219-.75 2.64063-.76563zm-1.71873 1.70313q-1.0625 0-1.5469.29687-.48437.28126-.48437.89063 0 .59375.46877.89063.4531.28124 1.4375.29687h2.0625q1.04686 0 1.5625-.28125.5-.28125.5-.92188 0-.60937-.4844-.89062-.48437-.28125-1.48437-.28125z"/><path d="m546.1346 263.89062-1.1875 3.40626h-1.625l2.1406-5.10938h1.375l2.14063 5.10938h-1.64063zm3.6406-9.5781v1.68748h-6.53124l.625 2.01562h-1.375l-1.26563-3.53123v-.17187zm-8.625-7.48438h1.40626v.15625q.01564 1.15625.59374 1.85938.57813.6875 1.6094.82812-.6875-.67187-.6875-1.70312 0-1.125.79686-1.78125.79687-.65625 2.09374-.65625.82813 0 1.5.35937.6719.35938 1.0625 1.03125.375.65625.375 1.48438 0 1.34375-.9375 2.17187-.9531.82813-2.5156.82813h-.6094q-1.3906 0-2.4531-.51563-1.0625-.53125-1.64064-1.5-.57813-.98437-.59376-2.28125zm4.28126 1.65625q0 .40625.21874.75.20313.32813.5625.48438h.51563q.84377 0 1.32813-.32813.46874-.34375.46874-.95312 0-.54688-.42187-.875-.4375-.34375-1.125-.34375-.70313 0-1.125.34375-.42187.34375-.42187.92187zm.8125-9.8125q1.76564 0 2.71874.73438.9375.73437.9375 2.14062 0 1.40625-.92187 2.14063-.92187.73437-2.64063.75h-1.5781q-1.78127 0-2.70314-.73438-.9375-.75-.9375-2.14062 0-1.39063.92187-2.125.92187-.75 2.64063-.76563zm-1.71876 1.70313q-1.0625 0-1.54687.29687-.48437.28125-.48437.89063 0 .59375.46874.89062.45313.28125 1.4375.29688h2.0625q1.0469 0 1.5625-.28125.5-.28125.5-.92188 0-.60937-.48437-.89062-.48437-.28125-1.48437-.28125z"/><path d="m20.21875 27.171875 2.578125-8.546875h2.609375l-3.953125 11.375h-2.453125l-3.9375-11.375h2.59375zm8.03125 2.828125h-2.265625v-8.453125h2.265625zm-2.390625-10.640625q0-.515625.328125-.84375.34375-.328125.9375-.328125.578125 0 .921875.328125.34375.328125.34375.84375 0 .515625-.359375.84375-.34375.328125-.921875.328125-.5625 0-.90625-.328125-.34375-.328125-.34375-.84375zm8.59375 8.296875q0-.40625-.421875-.640625-.40625-.25-1.3125-.4375-3.015625-.625-3.015625-2.5625 0-1.125.9375-1.875.9375-.75 2.4375-.75 1.609375 0 2.578125.765625.96875.75.96875 1.953125h-2.265625q0-.484375-.3125-.796875-.3125-.3125-.96875-.3125-.578125 0-.890625.265625-.3125.25-.3125.640625 0 .375.359375.609375.359375.234375 1.203125.40625.84375.15625 1.421875.375 1.78125.65625 1.78125 2.265625 0 1.15625-1 1.875-.984375.71875-2.546875.71875-1.0625 0-1.890625-.375-.828125-.390625-1.296875-1.046875-.46875-.65625-.46875-1.421875h2.140625q.03125.59375.4375.921875.421875.3125 1.125.3125.640625 0 .96875-.234375.34375-.25.34375-.65625zm8.3125 2.34375q-.15625-.3125-.21875-.765625-.828125.921875-2.140625.921875-1.234375 0-2.0625-.71875-.8125-.71875-.8125-1.8125 0-1.34375 1-2.0625 1-.71875 2.875-.734375h1.046875v-.484375q0-.578125-.3125-.921875-.296875-.359375-.9375-.359375-.578125 0-.90625.28125-.3125.265625-.3125.734375h-2.265625q0-.734375.453125-1.359375.453125-.625 1.28125-.96875.828125-.359375 1.859375-.359375 1.5625 0 2.484375.78125.921875.78125.921875 2.203125v3.671875q0 1.203125.328125 1.8125v.140625zm-1.859375-1.578125q.5 0 .921875-.21875.421875-.21875.625-.59375v-1.453125h-.84375q-1.703125 0-1.8125 1.171875v.125q0 .421875.296875.703125.296875.265625.8125.265625zm10.546875-.765625q0-.40625-.421875-.640625-.40625-.25-1.3125-.4375-3.015625-.625-3.015625-2.5625 0-1.125.9375-1.875.9375-.75 2.4375-.75 1.609375 0 2.578125.765625.96875.75.96875 1.953125h-2.265625q0-.484375-.3125-.796875-.3125-.3125-.96875-.3125-.578125 0-.890625.265625-.3125.25-.3125.640625 0 .375.359375.609375.359375.234375 1.203125.40625.84375.15625 1.421875.375 1.78125.65625 1.78125 2.265625 0 1.15625-1 1.875-.984375.71875-2.546875.71875-1.0625 0-1.890625-.375-.828125-.390625-1.296875-1.046875-.46875-.65625-.46875-1.421875h2.140625q.03125.59375.4375.921875.421875.3125 1.125.3125.640625 0 .96875-.234375.34375-.25.34375-.65625zm12 0q0-.40625-.421875-.640625-.40625-.25-1.3125-.4375-3.015625-.625-3.015625-2.5625 0-1.125.9375-1.875.9375-.75 2.4375-.75 1.609375 0 2.578125.765625.96875.75.96875 1.953125h-2.265625q0-.484375-.3125-.796875-.3125-.3125-.96875-.3125-.578125 0-.890625.265625-.3125.25-.3125.640625 0 .375.359375.609375.359375.234375 1.203125.40625.84375.15625 1.421875.375 1.78125.65625 1.78125 2.265625 0 1.15625-1 1.875-.984375.71875-2.546875.71875-1.0625 0-1.890625-.375-.828125-.390625-1.296875-1.046875-.46875-.65625-.46875-1.421875h2.140625q.03125.59375.4375.921875.421875.3125 1.125.3125.640625 0 .96875-.234375.34375-.25.34375-.65625zm8.484375 1.484375q-.84375 1.015625-2.3125 1.015625-1.359375 0-2.078125-.78125-.71875-.78125-.734375-2.296875v-5.53125h2.265625v5.453125q0 1.328125 1.203125 1.328125 1.140625 0 1.578125-.796875v-5.984375h2.265625v8.453125h-2.125zm3.609375-3.4375q0-1.9375.921875-3.125.921875-1.1875 2.5-1.1875 1.390625 0 2.15625.953125l.09375-.796875h2.046875v8.171875q0 1.109375-.5 1.921875-.5.828125-1.421875 1.25-.90625.4375-2.140625.4375-.921875 0-1.8125-.375-.875-.359375-1.328125-.953125l1-1.375q.84375.953125 2.046875.953125.890625 0 1.390625-.484375.5-.484375.5-1.375v-.453125q-.78125.890625-2.046875.890625-1.53125 0-2.46875-1.1875-.9375-1.203125-.9375-3.171875zm2.25.171875q0 1.140625.453125 1.796875.46875.65625 1.28125.65625 1.03125 0 1.46875-.78125v-3.546875q-.453125-.78125-1.453125-.78125-.8125 0-1.28125.671875-.46875.65625-.46875 1.984375zm11.96875 4.125q-.15625-.3125-.21875-.765625-.828125.921875-2.140625.921875-1.234375 0-2.0625-.71875-.8125-.71875-.8125-1.8125 0-1.34375 1-2.0625 1-.71875 2.875-.734375h1.046875v-.484375q0-.578125-.3125-.921875-.296875-.359375-.9375-.359375-.578125 0-.90625.28125-.3125.265625-.3125.734375h-2.265625q0-.734375.453125-1.359375.453125-.625 1.28125-.96875.828125-.359375 1.859375-.359375 1.5625 0 2.484375.78125.921875.78125.921875 2.203125v3.671875q0 1.203125.328125 1.8125v.140625zm-1.859375-1.578125q.5 0 .921875-.21875.421875-.21875.625-.59375v-1.453125h-.84375q-1.703125 0-1.8125 1.171875v.125q0 .421875.296875.703125.296875.265625.8125.265625zm10.546875-.765625q0-.40625-.421875-.640625-.40625-.25-1.3125-.4375-3.015625-.625-3.015625-2.5625 0-1.125.9375-1.875.9375-.75 2.4375-.75 1.609375 0 2.578125.765625.96875.75.96875 1.953125h-2.265625q0-.484375-.3125-.796875-.3125-.3125-.96875-.3125-.578125 0-.890625.265625-.3125.25-.3125.640625 0 .375.359375.609375.359375.234375 1.203125.40625.84375.15625 1.421875.375 1.78125.65625 1.78125 2.265625 0 1.15625-1 1.875-.984375.71875-2.546875.71875-1.0625 0-1.890625-.375-.828125-.390625-1.296875-1.046875-.46875-.65625-.46875-1.421875h2.140625q.03125.59375.4375.921875.421875.3125 1.125.3125.640625 0 .96875-.234375.34375-.25.34375-.65625zm4 5.203125-1.171875-.625.28125-.5q.515625-.953125.53125-1.90625v-1.75h1.90625v1.5625q-.015625.875-.453125 1.75-.421875.890625-1.09375 1.46875zm9.53125-11.3125.078125.9375q.890625-1.09375 2.421875-1.09375 1.640625 0 2.25 1.28125.890625-1.28125 2.53125-1.28125 1.375 0 2.046875.796875.671875.796875.671875 2.40625v5.40625h-2.265625v-5.390625q0-.71875-.28125-1.046875-.28125-.34375-.984375-.34375-1.015625 0-1.40625.96875v5.8125h-2.25v-5.390625q0-.734375-.296875-1.0625-.28125-.328125-.984375-.328125-.953125 0-1.390625.796875v5.984375h-2.25v-8.453125zm14.265625 8.453125h-2.265625v-8.453125h2.265625zm-2.390625-10.640625q0-.515625.328125-.84375.34375-.328125.9375-.328125.578125 0 .921875.328125.34375.328125.34375.84375 0 .515625-.359375.84375-.34375.328125-.921875.328125-.5625 0-.90625-.328125-.34375-.328125-.34375-.84375zm6.390625 10.640625h-2.265625v-12h2.265625zm4.01562-8.453125v8.921875q0 1.390625-.75 2.171875-.73437.78125-2.14062.78125-.59375 0-1.125-.140625v-1.78125q.40625.0625.71875.0625 1.03125 0 1.03125-1.078125v-8.9375zm-2.45312-2.1875q0-.515625.34375-.84375.34375-.328125.92187-.328125.59376 0 .92188.328125.34375.328125.34375.84375 0 .515625-.34375.84375-.34375.328125-.92188.328125-.5625 0-.92187-.328125-.34375-.328125-.34375-.84375zm4.17188 9.53125q0-.546875.35937-.875.375-.34375.92187-.34375.54688 0 .90626.34375.375.328125.375.875 0 .53125-.35938.875-.35938.328125-.92188.328125-.5625 0-.92187-.328125-.35937-.34375-.35937-.875zm11-7.34375.07812.9375q.89062-1.09375 2.42188-1.09375 1.64062 0 2.25 1.28125.89062-1.28125 2.53124-1.28125 1.375 0 2.04688.796875.67188.796875.67188 2.40625v5.40625h-2.26563v-5.390625q0-.71875-.28125-1.046875-.28125-.34375-.98438-.34375-1.01562 0-1.40624.96875v5.8125h-2.25v-5.390625q0-.734375-.29688-1.0625-.28125-.328125-.98438-.328125-.95312 0-1.39062.796875v5.984375h-2.25v-8.453125zm14.09374 1.765625h1.20313q.85937 0 1.26563-.421875.42187-.4375.42187-1.15625 0-.6875-.42187-1.0625-.40626-.390625-1.125-.390625-.64063 0-1.07813.359375-.4375.359375-.4375.921875h-2.26563q0-.890625.48438-1.59375.48438-.703125 1.34375-1.09375.85937-.40625 1.90625-.40625 1.79688 0 2.8125.859375 1.03125.859375 1.03125 2.375 0 .78125-.48437 1.4375-.46876.65625-1.23438 1.015625.95312.34375 1.42188 1.03125.48437.6875.48437 1.625 0 1.515625-1.10937 2.4375-1.10938.90625-2.92188.90625-1.70312 0-2.79688-.890625-1.07812-.90625-1.07812-2.390625h2.26562q0 .640625.46876 1.046875.48437.40625 1.1875.40625.8125 0 1.26562-.421875.45312-.421875.45312-1.125 0-1.703125-1.875-1.703125h-1.1875z"/></g></svg>