<svg fill="none" height="403" stroke-linecap="square" stroke-miterlimit="10" viewBox="0 0 580 403" width="580" xmlns="http://www.w3.org/2000/svg" xmlns:xlink="http://www.w3.org/1999/xlink"><clipPath id="a"><path d="m65.15 27.65h494.7v318.2h-494.7z"/></clipPath><path d="m0 0h580v403h-580z" fill="none"/><path d="m65.5 345.5h494" stroke="#ccc" stroke-linecap="butt"/><path d="m65.5 266.5h494" stroke="#ccc" stroke-linecap="butt"/><path d="m65.5 186.5h494" stroke="#ccc" stroke-linecap="butt"/><path d="m65.5 107.5h494" stroke="#ccc" stroke-linecap="butt"/><path d="m65.5 27.5h494" stroke="#ccc" stroke-linecap="butt"/><path d="m65.5 319.5h494"/><path d="m65.5 292.5h494"/><path d="m65.5 239.5h494"/><path d="m65.5 213.5h494"/><path d="m65.5 160.5h494"/><path d="m65.5 133.5h494"/><path d="m65.5 80.5h494"/><path d="m65.5 54.5h494"/><path d="m65.5 345.5v-318" stroke="#000" stroke-linecap="butt"/><path clip-path="url(#a)" d="m76.39318 196.25545 22.48637 5.00335 22.486356-66.24098 22.486374 45.5741 22.48636 2.43826 22.48636 31.71063 22.48637 58.54409 22.48636-33.33828 22.48637 70.34134 22.48635-27.88046 22.48635-136.54808 22.4864 45.97965 22.48635 17.37989 22.48635-2.31375 22.48637-28.35471 22.48636 34.01789 22.48637 5.47851 22.48638-18.32298 22.48636-48.67657 22.48636 28.43748 22.4864-16.02456 22.4863-94.60681" stroke="#00cdb2" stroke-linecap="butt" stroke-width="6"/><path clip-path="url(#a)" d="m82.39318 196.25545c0 3.3137-2.686286 6-6 6-3.313705 0-6-2.6863-6-6 0-3.31372 2.686295-6 6-6 3.313714 0 6 2.68628 6 6z" fill="#00cdb2"/><path clip-path="url(#a)" d="m104.87955 201.2588c0 3.31371-2.6863 6-6 6-3.313716 0-6-2.68629-6-6 0-3.3137 2.686284-6 6-6 3.3137 0 6 2.6863 6 6z" fill="#00cdb2"/><path clip-path="url(#a)" d="m127.365906 135.01782c0 3.31372-2.686286 6-6 6-3.313706 0-6-2.68628-6-6 0-3.3137 2.686294-6 6-6 3.313714 0 6 2.6863 6 6z" fill="#00cdb2"/><path clip-path="url(#a)" d="m149.85228 180.59192c0 3.31372-2.68629 6-6 6-3.31372 0-6-2.68628-6-6 0-3.31371 2.68628-6 6-6 3.31371 0 6 2.68629 6 6z" fill="#00cdb2"/><path clip-path="url(#a)" d="m172.33864 183.03018c0 3.31371-2.6863 6-6 6-3.31371 0-6-2.68629-6-6 0-3.3137 2.68629-6 6-6 3.3137 0 6 2.6863 6 6z" fill="#00cdb2"/><path clip-path="url(#a)" d="m194.825 214.74081c0 3.31371-2.6863 6-6 6-3.31371 0-6-2.68629-6-6 0-3.3137 2.68629-6 6-6 3.3137 0 6 2.6863 6 6z" fill="#00cdb2"/><path clip-path="url(#a)" d="m217.31137 273.2849c0 3.3137-2.68629 6-6 6-3.31372 0-6-2.6863-6-6s2.68628-6 6-6c3.31371 0 6 2.6863 6 6z" fill="#00cdb2"/><path clip-path="url(#a)" d="m239.79773 239.94662c0 3.31371-2.6863 6-6 6-3.31371 0-6-2.68629-6-6 0-3.3137 2.68629-6 6-6 3.3137 0 6 2.6863 6 6z" fill="#00cdb2"/><path clip-path="url(#a)" d="m262.2841 310.28796c0 3.31372-2.6863 6-6 6-3.31372 0-6.00001-2.68628-6.00001-6s2.68629-6 6.00001-6c3.3137 0 6 2.68628 6 6z" fill="#00cdb2"/><path clip-path="url(#a)" d="m284.77045 282.4075c0 3.3137-2.68628 6-6 6-3.31369 0-6-2.6863-6-6 0-3.31372 2.68631-6 6-6 3.31372 0 6 2.68628 6 6z" fill="#00cdb2"/><path clip-path="url(#a)" d="m307.2568 145.85942c0 3.31372-2.68627 6-6 6-3.3137 0-6-2.68628-6-6 0-3.3137 2.6863-6 6-6 3.31373 0 6 2.6863 6 6z" fill="#00cdb2"/><path clip-path="url(#a)" d="m329.7432 191.83907c0 3.31372-2.6863 6-6 6-3.31373 0-6-2.68628-6-6 0-3.31371 2.68627-6 6-6 3.3137 0 6 2.68629 6 6z" fill="#00cdb2"/><path clip-path="url(#a)" d="m352.22955 209.21896c0 3.31371-2.68631 6-6 6-3.31372 0-6-2.68629-6-6 0-3.3137 2.68628-6 6-6 3.31369 0 6 2.6863 6 6z" fill="#00cdb2"/><path clip-path="url(#a)" d="m374.7159 206.90521c0 3.31371-2.68627 6-6 6-3.3137 0-6-2.68629-6-6s2.6863-6 6-6c3.31373 0 6 2.68629 6 6z" fill="#00cdb2"/><path clip-path="url(#a)" d="m397.20227 178.5505c0 3.31373-2.68627 6-6 6-3.31372 0-6-2.68627-6-6 0-3.3137 2.68628-6 6-6 3.31373 0 6 2.6863 6 6z" fill="#00cdb2"/><path clip-path="url(#a)" d="m419.68863 212.56839c0 3.31371-2.68628 6-6 6-3.31369 0-6-2.68629-6-6 0-3.31372 2.68631-6 6-6 3.31372 0 6 2.68628 6 6z" fill="#00cdb2"/><path clip-path="url(#a)" d="m442.175 218.0469c0 3.31371-2.6863 6-6 6s-6-2.68629-6-6c0-3.3137 2.6863-6 6-6s6 2.6863 6 6z" fill="#00cdb2"/><path clip-path="url(#a)" d="m464.66138 199.72392c0 3.31371-2.68631 6-6 6-3.31372 0-6-2.68629-6-6 0-3.31372 2.68628-6 6-6 3.31369 0 6 2.68628 6 6z" fill="#00cdb2"/><path clip-path="url(#a)" d="m487.14774 151.04735c0 3.31372-2.68631 6-6 6-3.31374 0-6-2.68628-6-6 0-3.31371 2.68626-6 6-6 3.31369 0 6 2.68629 6 6z" fill="#00cdb2"/><path clip-path="url(#a)" d="m509.6341 179.48483c0 3.31371-2.68632 6-6 6-3.31373 0-6-2.68629-6-6 0-3.3137 2.68627-6 6-6 3.31368 0 6 2.6863 6 6z" fill="#00cdb2"/><path clip-path="url(#a)" d="m532.1205 163.46027c0 3.3137-2.68636 6-6 6-3.31374 0-6-2.6863-6-6 0-3.31371 2.68626-6 6-6 3.31364 0 6 2.68629 6 6z" fill="#00cdb2"/><path clip-path="url(#a)" d="m554.6068 68.85346c0 3.313715-2.68627 6-6 6-3.3137 0-6-2.686285-6-6 0-3.3137 2.6863-5.999998 6-5.999998 3.31373 0 6 2.686298 6 5.999998z" fill="#00cdb2"/><path d="m59.5 345.5h12" stroke="#000" stroke-linecap="butt"/><path d="m59.5 266.5h12" stroke="#000" stroke-linecap="butt"/><path d="m59.5 186.5h12" stroke="#000" stroke-linecap="butt"/><path d="m59.5 107.5h12" stroke="#000" stroke-linecap="butt"/><path d="m59.5 27.5h12" stroke="#000" stroke-linecap="butt"/><path d="m73.48693 197.5367h.96875v1.375h-.96875v1.84375h-1.703124v-1.84375h-3.484376l-.078124-1.0625 3.546874-5.625h1.71875zm-3.578124 0h1.875v-3l-.109376.1875zm5.71875 2.39062q0-.40625.265624-.65625.28125-.25.6875-.25.421876 0 .6875.25.28125.25.28125.65625 0 .39063-.28125.64063-.265624.25-.6875.25-.40625 0-.6875-.25-.265624-.25-.265624-.64063zm6.8125-2.57812q-.671876.64062-1.546876.64062-1.140624 0-1.828124-.76562-.671876-.78125-.671876-2.09375 0-.84375.359376-1.54688.375-.70312 1.03125-1.09375.65625-.39062 1.484374-.39062.84375 0 1.5.42187.65625.42188 1.015626 1.21875.359374.79688.375 1.8125v.625q0 2.14063-1.0625 3.35938-1.0625 1.21875-3.015626 1.29687h-.40625v-1.40625l.375-.01562q2.203126-.09375 2.390626-2.0625zm-1.140626-.65625q.421876 0 .703126-.20313.296874-.21875.453124-.51562v-.6875q0-.85938-.328124-1.32813-.328126-.48437-.875-.48437-.515626 0-.84375.46875-.328126.45312-.328126 1.15625 0 .70312.3125 1.15625.328126.4375.90625.4375z" stroke="#fff" stroke-linecap="round" stroke-linejoin="round" stroke-width="3"/><path d="m73.48693 197.5367h.96875v1.375h-.96875v1.84375h-1.703124v-1.84375h-3.484376l-.078124-1.0625 3.546874-5.625h1.71875zm-3.578124 0h1.875v-3l-.109376.1875zm5.71875 2.39062q0-.40625.265624-.65625.28125-.25.6875-.25.421876 0 .6875.25.28125.25.28125.65625 0 .39063-.28125.64063-.265624.25-.6875.25-.40625 0-.6875-.25-.265624-.25-.265624-.64063zm6.8125-2.57812q-.671876.64062-1.546876.64062-1.140624 0-1.828124-.76562-.671876-.78125-.671876-2.09375 0-.84375.359376-1.54688.375-.70312 1.03125-1.09375.65625-.39062 1.484374-.39062.84375 0 1.5.42187.65625.42188 1.015626 1.21875.359374.79688.375 1.8125v.625q0 2.14063-1.0625 3.35938-1.0625 1.21875-3.015626 1.29687h-.40625v-1.40625l.375-.01562q2.203126-.09375 2.390626-2.0625zm-1.140626-.65625q.421876 0 .703126-.20313.296874-.21875.453124-.51562v-.6875q0-.85938-.328124-1.32813-.328126-.48437-.875-.48437-.515626 0-.84375.46875-.328126.45312-.328126 1.15625 0 .70312.3125 1.15625.328126.4375.90625.4375z" fill="#00cdb2"/><path d="m95.9733 202.54005h.96875v1.375h-.96875v1.84375h-1.70313v-1.84375h-3.48437l-.07813-1.0625 3.54688-5.625h1.71875zm-3.57813 0h1.875v-3l-.10937.1875zm5.71875 2.39063q0-.40625.26563-.65625.28125-.25.6875-.25.42187 0 .6875.25.28125.25.28125.65625 0 .39062-.28125.64062-.26563.25-.6875.25-.40625 0-.6875-.25-.26563-.25-.26563-.64062zm8.40625-5.4375q0 .625-.3125 1.10937-.3125.46875-.85937.76563.625.29687.98437.82812.375.51563.375 1.21875 0 1.14063-.78125 1.8125-.76562.65625-2.10937.65625-1.32813 0-2.10938-.65625-.76562-.67187-.76562-1.8125 0-.70312.35937-1.23437.35938-.53125.98438-.8125-.54688-.29688-.85938-.76563-.3125-.48437-.3125-1.10937 0-1.09375.71875-1.73438.73438-.65625 1.98438-.65625 1.25 0 1.96875.65625.73437.64063.73437 1.73438zm-1.51562 3.79687q0-.54687-.32813-.875-.3125-.34375-.85937-.34375-.54688 0-.875.32813-.3125.32812-.3125.89062 0 .54688.3125.89063.32812.32812.89062.32812.54688 0 .85938-.3125.3125-.32812.3125-.90625zm-.17188-3.71875q0-.5-.26562-.79687-.26563-.29688-.75-.29688-.46875 0-.73438.29688-.26562.28125-.26562.79687 0 .51563.26562.82813.26563.3125.73438.3125.48437 0 .75-.3125.26562-.3125.26562-.82813z" stroke="#fff" stroke-linecap="round" stroke-linejoin="round" stroke-width="3"/><path d="m95.9733 202.54005h.96875v1.375h-.96875v1.84375h-1.70313v-1.84375h-3.48437l-.07813-1.0625 3.54688-5.625h1.71875zm-3.57813 0h1.875v-3l-.10937.1875zm5.71875 2.39063q0-.40625.26563-.65625.28125-.25.6875-.25.42187 0 .6875.25.28125.25.28125.65625 0 .39062-.28125.64062-.26563.25-.6875.25-.40625 0-.6875-.25-.26563-.25-.26563-.64062zm8.40625-5.4375q0 .625-.3125 1.10937-.3125.46875-.85937.76563.625.29687.98437.82812.375.51563.375 1.21875 0 1.14063-.78125 1.8125-.76562.65625-2.10937.65625-1.32813 0-2.10938-.65625-.76562-.67187-.76562-1.8125 0-.70312.35937-1.23437.35938-.53125.98438-.8125-.54688-.29688-.85938-.76563-.3125-.48437-.3125-1.10937 0-1.09375.71875-1.73438.73438-.65625 1.98438-.65625 1.25 0 1.96875.65625.73437.64063.73437 1.73438zm-1.51562 3.79687q0-.54687-.32813-.875-.3125-.34375-.85937-.34375-.54688 0-.875.32813-.3125.32812-.3125.89062 0 .54688.3125.89063.32812.32812.89062.32812.54688 0 .85938-.3125.3125-.32812.3125-.90625zm-.17188-3.71875q0-.5-.26562-.79687-.26563-.29688-.75-.29688-.46875 0-.73438.29688-.26562.28125-.26562.79687 0 .51563.26562.82813.26563.3125.73438.3125.48437 0 .75-.3125.26562-.3125.26562-.82813z" fill="#00cdb2"/><path d="m113.69403 135.3147.5-4.32813h4.78125v1.40625h-3.390624l-.21875 1.84375q.609374-.32812 1.28125-.32812 1.21875 0 1.90625.76562.703124.75.703124 2.10938 0 .82812-.359374 1.48437-.34375.64063-1 1.01563-.640626.35937-1.53125.35937-.765626 0-1.4375-.3125-.65625-.32812-1.046876-.89062-.375-.5625-.40625-1.29688h1.6875q.046876.53125.359376.82813.328124.29687.84375.29687.578124 0 .875-.40625.3125-.42187.3125-1.17187 0-.73438-.359376-1.10938-.34375-.39062-1-.39062-.609374 0-.984374.3125l-.15625.15625zm6.90625 3.375q0-.40625.265626-.65625.28125-.25.6875-.25.421874 0 .6875.25.28125.25.28125.65625 0 .39062-.28125.64062-.265626.25-.6875.25-.40625 0-.6875-.25-.265626-.25-.265626-.64062zm8.64062-6.75-3.29687 7.57812h-1.78125l3.296876-7.15625h-4.234376v-1.375h6.01562z" stroke="#fff" stroke-linecap="round" stroke-linejoin="round" stroke-width="3"/><path d="m113.69403 135.3147.5-4.32813h4.78125v1.40625h-3.390624l-.21875 1.84375q.609374-.32812 1.28125-.32812 1.21875 0 1.90625.76562.703124.75.703124 2.10938 0 .82812-.359374 1.48437-.34375.64063-1 1.01563-.640626.35937-1.53125.35937-.765626 0-1.4375-.3125-.65625-.32812-1.046876-.89062-.375-.5625-.40625-1.29688h1.6875q.046876.53125.359376.82813.328124.29687.84375.29687.578124 0 .875-.40625.3125-.42187.3125-1.17187 0-.73438-.359376-1.10938-.34375-.39062-1-.39062-.609374 0-.984374.3125l-.15625.15625zm6.90625 3.375q0-.40625.265626-.65625.28125-.25.6875-.25.421874 0 .6875.25.28125.25.28125.65625 0 .39062-.28125.64062-.265626.25-.6875.25-.40625 0-.6875-.25-.265626-.25-.265626-.64062zm8.64062-6.75-3.29687 7.57812h-1.78125l3.296876-7.15625h-4.234376v-1.375h6.01562z" fill="#00cdb2"/><path d="m136.1804 180.8888.5-4.32813h4.78125v1.40625h-3.39062l-.21875 1.84375q.60937-.32813 1.28125-.32813 1.21875 0 1.90625.76563.70312.75.70312 2.10937 0 .82813-.35937 1.48438-.34375.64062-1 1.01562-.64063.35938-1.53125.35938-.76563 0-1.4375-.3125-.65625-.32812-1.04688-.89062-.375-.5625-.40625-1.29688h1.6875q.04688.53125.35938.82812.32812.29688.84375.29688.57812 0 .875-.40625.3125-.42187.3125-1.17187 0-.73438-.35938-1.10938-.34375-.39062-1-.39062-.60937 0-.98437.3125l-.15625.15624zm6.90625 3.375q0-.40626.26563-.65626.28125-.25.6875-.25.42187 0 .6875.25.28125.25.28125.65626 0 .39062-.28125.64062-.26563.25-.6875.25-.40625 0-.6875-.25-.26563-.25-.26563-.64062zm6.95313.82812h-1.6875v-6.53125l-2.01563.625v-1.375l3.53125-1.26563h.17188z" stroke="#fff" stroke-linecap="round" stroke-linejoin="round" stroke-width="3"/><path d="m136.1804 180.8888.5-4.32813h4.78125v1.40625h-3.39062l-.21875 1.84375q.60937-.32813 1.28125-.32813 1.21875 0 1.90625.76563.70312.75.70312 2.10937 0 .82813-.35937 1.48438-.34375.64062-1 1.01562-.64063.35938-1.53125.35938-.76563 0-1.4375-.3125-.65625-.32812-1.04688-.89062-.375-.5625-.40625-1.29688h1.6875q.04688.53125.35938.82812.32812.29688.84375.29688.57812 0 .875-.40625.3125-.42187.3125-1.17187 0-.73438-.35938-1.10938-.34375-.39062-1-.39062-.60937 0-.98437.3125l-.15625.15624zm6.90625 3.375q0-.40626.26563-.65626.28125-.25.6875-.25.42187 0 .6875.25.28125.25.28125.65626 0 .39062-.28125.64062-.26563.25-.6875.25-.40625 0-.6875-.25-.26563-.25-.26563-.64062zm6.95313.82812h-1.6875v-6.53125l-2.01563.625v-1.375l3.53125-1.26563h.17188z" fill="#00cdb2"/><path d="m158.66676 183.32706.5-4.32813h4.78125v1.40625h-3.39062l-.21875 1.84375q.60937-.32813 1.28125-.32813 1.21875 0 1.90625.76563.70312.75.70312 2.10937 0 .82813-.35937 1.48438-.34375.64062-1 1.01562-.64063.35938-1.53125.35938-.76563 0-1.4375-.3125-.65625-.32812-1.04688-.89062-.375-.5625-.40625-1.29688h1.6875q.04688.53125.35938.82812.32812.29688.84375.29688.57812 0 .875-.40625.3125-.42187.3125-1.17187 0-.73438-.35938-1.10938-.34375-.39062-1-.39062-.60937 0-.98437.3125l-.15625.15624zm6.90625 3.375q0-.40626.26563-.65626.28125-.25.6875-.25.42187 0 .6875.25.28125.25.28125.65626 0 .39062-.28125.64062-.26563.25-.6875.25-.40625 0-.6875-.25-.26563-.25-.26563-.64062zm8.59375-2.70313q0 1.76563-.73437 2.71875-.73438.9375-2.14063.9375-1.40625 0-2.14062-.92188-.73438-.92187-.75-2.64062v-1.57812q0-1.78126.73437-2.70313.75-.9375 2.14063-.9375 1.39062 0 2.125.92187.75.92188.76562 2.64063zm-1.70312-1.71875q0-1.0625-.29688-1.54688-.28125-.48437-.89062-.48437-.59375 0-.89063.46875-.28125.45312-.29687 1.4375v2.0625q0 1.04688.28125 1.5625.28125.5.92187.5.60938 0 .89063-.48438.28125-.48437.28125-1.48437z" stroke="#fff" stroke-linecap="round" stroke-linejoin="round" stroke-width="3"/><path d="m158.66676 183.32706.5-4.32813h4.78125v1.40625h-3.39062l-.21875 1.84375q.60937-.32813 1.28125-.32813 1.21875 0 1.90625.76563.70312.75.70312 2.10937 0 .82813-.35937 1.48438-.34375.64062-1 1.01562-.64063.35938-1.53125.35938-.76563 0-1.4375-.3125-.65625-.32812-1.04688-.89062-.375-.5625-.40625-1.29688h1.6875q.04688.53125.35938.82812.32812.29688.84375.29688.57812 0 .875-.40625.3125-.42187.3125-1.17187 0-.73438-.35938-1.10938-.34375-.39062-1-.39062-.60937 0-.98437.3125l-.15625.15624zm6.90625 3.375q0-.40626.26563-.65626.28125-.25.6875-.25.42187 0 .6875.25.28125.25.28125.65626 0 .39062-.28125.64062-.26563.25-.6875.25-.40625 0-.6875-.25-.26563-.25-.26563-.64062zm8.59375-2.70313q0 1.76563-.73437 2.71875-.73438.9375-2.14063.9375-1.40625 0-2.14062-.92188-.73438-.92187-.75-2.64062v-1.57812q0-1.78126.73437-2.70313.75-.9375 2.14063-.9375 1.39062 0 2.125.92187.75.92188.76562 2.64063zm-1.70312-1.71875q0-1.0625-.29688-1.54688-.28125-.48437-.89062-.48437-.59375 0-.89063.46875-.28125.45312-.29687 1.4375v2.0625q0 1.04688.28125 1.5625.28125.5.92187.5.60938 0 .89063-.48438.28125-.48437.28125-1.48437z" fill="#00cdb2"/><path d="m185.91875 216.02206h.96875v1.375h-.96875v1.84375h-1.70313v-1.84375h-3.48437l-.07813-1.0625 3.54688-5.625h1.71875zm-3.57813 0h1.875v-3l-.10937.1875zm5.71875 2.39063q0-.40625.26563-.65625.28125-.25.6875-.25.42187 0 .6875.25.28125.25.28125.65625 0 .39062-.28125.64062-.26563.25-.6875.25-.40625 0-.6875-.25-.26563-.25-.26563-.64062zm7.4375-7.79688v1.40625h-.15625q-1.15625.01563-1.85937.59375-.6875.57813-.82813 1.60938.67188-.6875 1.70313-.6875 1.125 0 1.78125.79687.65625.79688.65625 2.09375 0 .82813-.35938 1.5-.35937.67188-1.03125 1.0625-.65625.375-1.48437.375-1.34375 0-2.17188-.9375-.82812-.95312-.82812-2.51562v-.60938q0-1.39062.51562-2.45312.53125-1.0625 1.5-1.64063.98438-.57812 2.28125-.59375zm-1.65625 4.28125q-.40625 0-.75.21875-.32812.20313-.48437.5625v.51563q0 .84375.32812 1.32812.34375.46875.95313.46875.54687 0 .875-.42187.34375-.4375.34375-1.125 0-.70313-.34375-1.125-.34375-.42188-.92188-.42188z" stroke="#fff" stroke-linecap="round" stroke-linejoin="round" stroke-width="3"/><path d="m185.91875 216.02206h.96875v1.375h-.96875v1.84375h-1.70313v-1.84375h-3.48437l-.07813-1.0625 3.54688-5.625h1.71875zm-3.57813 0h1.875v-3l-.10937.1875zm5.71875 2.39063q0-.40625.26563-.65625.28125-.25.6875-.25.42187 0 .6875.25.28125.25.28125.65625 0 .39062-.28125.64062-.26563.25-.6875.25-.40625 0-.6875-.25-.26563-.25-.26563-.64062zm7.4375-7.79688v1.40625h-.15625q-1.15625.01563-1.85937.59375-.6875.57813-.82813 1.60938.67188-.6875 1.70313-.6875 1.125 0 1.78125.79687.65625.79688.65625 2.09375 0 .82813-.35938 1.5-.35937.67188-1.03125 1.0625-.65625.375-1.48437.375-1.34375 0-2.17188-.9375-.82812-.95312-.82812-2.51562v-.60938q0-1.39062.51562-2.45312.53125-1.0625 1.5-1.64063.98438-.57812 2.28125-.59375zm-1.65625 4.28125q-.40625 0-.75.21875-.32812.20313-.48437.5625v.51563q0 .84375.32812 1.32812.34375.46875.95313.46875.54687 0 .875-.42187.34375-.4375.34375-1.125 0-.70313-.34375-1.125-.34375-.42188-.92188-.42188z" fill="#00cdb2"/><path d="m205.10825 272.7693h.90625q.64062 0 .95312-.3125.3125-.32814.3125-.8594 0-.5156-.3125-.79686-.29687-.29688-.84375-.29688-.48437 0-.8125.26564-.32812.2656-.32812.6875h-1.6875q0-.65626.35937-1.1875.35938-.53126 1-.82814.65625-.3125 1.4375-.3125 1.34375 0 2.10938.65624.78125.64064.78125 1.78126 0 .59374-.35938 1.09374-.35937.4844-.9375.7344.71875.2656 1.0625.78124.35938.51562.35938 1.21876 0 1.1406-.82813 1.8281-.82812.6875-2.1875.6875-1.28125 0-2.09375-.67186-.8125-.6875-.8125-1.79688h1.6875q0 .48438.35938.79688.375.29686.89062.29686.60938 0 .95313-.3125.34375-.3281.34375-.85936 0-1.26564-1.40625-1.26564h-.90625zm5.4375 4.1875q0-.40626.26562-.65626.28125-.25.6875-.25.42188 0 .6875.25.28125.25.28125.65626 0 .3906-.28125.6406-.26562.25-.6875.25-.40625 0-.6875-.25-.26562-.25-.26562-.6406zm6.8125-2.57814q-.67188.64064-1.54688.64064-1.14062 0-1.82812-.76564-.67188-.78126-.67188-2.09376 0-.84374.35938-1.54686.375-.70314 1.03125-1.09374.65625-.39064 1.48437-.39064.84375 0 1.5.42188.65625.42186 1.01563 1.21876.35937.79686.375 1.8125v.625q0 2.1406-1.0625 3.35936-1.0625 1.21874-3.01563 1.29688h-.40625v-1.40624l.375-.01564q2.20313-.09376 2.39063-2.0625zm-1.14063-.65626q.42188 0 .70313-.2031.29687-.21876.45312-.51564v-.6875q0-.85936-.32812-1.32812-.32813-.48438-.875-.48438-.51563 0-.84375.46874-.32813.45314-.32813 1.15626 0 .70314.3125 1.15624.32813.4375.90625.4375z" stroke="#fff" stroke-linecap="round" stroke-linejoin="round" stroke-width="3"/><path d="m205.10825 272.7693h.90625q.64062 0 .95312-.3125.3125-.32814.3125-.8594 0-.5156-.3125-.79686-.29687-.29688-.84375-.29688-.48437 0-.8125.26564-.32812.2656-.32812.6875h-1.6875q0-.65626.35937-1.1875.35938-.53126 1-.82814.65625-.3125 1.4375-.3125 1.34375 0 2.10938.65624.78125.64064.78125 1.78126 0 .59374-.35938 1.09374-.35937.4844-.9375.7344.71875.2656 1.0625.78124.35938.51562.35938 1.21876 0 1.1406-.82813 1.8281-.82812.6875-2.1875.6875-1.28125 0-2.09375-.67186-.8125-.6875-.8125-1.79688h1.6875q0 .48438.35938.79688.375.29686.89062.29686.60938 0 .95313-.3125.34375-.3281.34375-.85936 0-1.26564-1.40625-1.26564h-.90625zm5.4375 4.1875q0-.40626.26562-.65626.28125-.25.6875-.25.42188 0 .6875.25.28125.25.28125.65626 0 .3906-.28125.6406-.26562.25-.6875.25-.40625 0-.6875-.25-.26562-.25-.26562-.6406zm6.8125-2.57814q-.67188.64064-1.54688.64064-1.14062 0-1.82812-.76564-.67188-.78126-.67188-2.09376 0-.84374.35938-1.54686.375-.70314 1.03125-1.09374.65625-.39064 1.48437-.39064.84375 0 1.5.42188.65625.42186 1.01563 1.21876.35937.79686.375 1.8125v.625q0 2.1406-1.0625 3.35936-1.0625 1.21874-3.01563 1.29688h-.40625v-1.40624l.375-.01564q2.20313-.09376 2.39063-2.0625zm-1.14063-.65626q.42188 0 .70313-.2031.29687-.21876.45312-.51564v-.6875q0-.85936-.32812-1.32812-.32813-.48438-.875-.48438-.51563 0-.84375.46874-.32813.45314-.32813 1.15626 0 .70314.3125 1.15624.32813.4375.90625.4375z" fill="#00cdb2"/><path d="m230.89148 241.22787h.96875v1.375h-.96875v1.84375h-1.70313v-1.84375h-3.48437l-.07813-1.0625 3.54688-5.625h1.71875zm-3.57813 0h1.875v-3l-.10937.1875zm5.71875 2.39063q0-.40625.26563-.65625.28125-.25.6875-.25.42187 0 .6875.25.28125.25.28125.65625 0 .39062-.28125.64062-.26563.25-.6875.25-.40625 0-.6875-.25-.26563-.25-.26563-.64062zm4.5625-4.1875h.90625q.64063 0 .95313-.3125.3125-.32813.3125-.85938 0-.51562-.3125-.79687-.29688-.29688-.84375-.29688-.48438 0-.8125.26563-.32813.26562-.32813.6875h-1.6875q0-.65625.35938-1.1875.35937-.53125 1-.82813.65625-.3125 1.4375-.3125 1.34375 0 2.10937.65625.78125.64063.78125 1.78125 0 .59375-.35937 1.09375-.35938.48438-.9375.73438.71875.26562 1.0625.78125.35937.51562.35937 1.21875 0 1.14062-.82812 1.82812-.82813.6875-2.1875.6875-1.28125 0-2.09375-.67187-.8125-.6875-.8125-1.79688h1.6875q0 .48438.35937.79688.375.29687.89063.29687.60937 0 .95312-.3125.34375-.32812.34375-.85937 0-1.26563-1.40625-1.26563h-.90625z" stroke="#fff" stroke-linecap="round" stroke-linejoin="round" stroke-width="3"/><path d="m230.89148 241.22787h.96875v1.375h-.96875v1.84375h-1.70313v-1.84375h-3.48437l-.07813-1.0625 3.54688-5.625h1.71875zm-3.57813 0h1.875v-3l-.10937.1875zm5.71875 2.39063q0-.40625.26563-.65625.28125-.25.6875-.25.42187 0 .6875.25.28125.25.28125.65625 0 .39062-.28125.64062-.26563.25-.6875.25-.40625 0-.6875-.25-.26563-.25-.26563-.64062zm4.5625-4.1875h.90625q.64063 0 .95313-.3125.3125-.32813.3125-.85938 0-.51562-.3125-.79687-.29688-.29688-.84375-.29688-.48438 0-.8125.26563-.32813.26562-.32813.6875h-1.6875q0-.65625.35938-1.1875.35937-.53125 1-.82813.65625-.3125 1.4375-.3125 1.34375 0 2.10937.65625.78125.64063.78125 1.78125 0 .59375-.35937 1.09375-.35938.48438-.9375.73438.71875.26562 1.0625.78125.35937.51562.35937 1.21875 0 1.14062-.82812 1.82812-.82813.6875-2.1875.6875-1.28125 0-2.09375-.67187-.8125-.6875-.8125-1.79688h1.6875q0 .48438.35937.79688.375.29687.89063.29687.60937 0 .95312-.3125.34375-.32812.34375-.85937 0-1.26563-1.40625-1.26563h-.90625z" fill="#00cdb2"/><path d="m250.08096 309.77234h.90625q.64063 0 .95313-.3125.3125-.32814.3125-.85938 0-.51562-.3125-.79686-.29688-.2969-.84375-.2969-.48438 0-.8125.26564-.32813.26562-.32813.6875h-1.6875q0-.65624.35938-1.1875.35937-.53124 1-.82814.65625-.3125 1.4375-.3125 1.34375 0 2.10937.65626.78125.64064.78125 1.78124 0 .59376-.35937 1.09376-.35938.48438-.9375.73438.71875.26562 1.0625.78126.35937.5156.35937 1.21874 0 1.14062-.82812 1.82812-.82813.6875-2.1875.6875-1.28125 0-2.09375-.67186-.8125-.6875-.8125-1.7969h1.6875q0 .4844.35937.7969.375.29686.89063.29686.60937 0 .95312-.3125.34375-.32812.34375-.85936 0-1.26564-1.40625-1.26564h-.90625zm5.4375 4.1875q0-.40624.26563-.65624.28125-.25.68751-.25.42186 0 .6875.25.28124.25.28124.65624 0 .39062-.28124.64062-.26564.25-.6875.25-.40626 0-.68751-.25-.26563-.25-.26563-.64062zm7.85938-2.39064h.96876v1.375h-.96876v1.84376h-1.70314v-1.84376h-3.48436l-.07814-1.0625 3.5469-5.625h1.71874zm-3.57814 0h1.875v-3l-.10936.1875z" stroke="#fff" stroke-linecap="round" stroke-linejoin="round" stroke-width="3"/><path d="m250.08096 309.77234h.90625q.64063 0 .95313-.3125.3125-.32814.3125-.85938 0-.51562-.3125-.79686-.29688-.2969-.84375-.2969-.48438 0-.8125.26564-.32813.26562-.32813.6875h-1.6875q0-.65624.35938-1.1875.35937-.53124 1-.82814.65625-.3125 1.4375-.3125 1.34375 0 2.10937.65626.78125.64064.78125 1.78124 0 .59376-.35937 1.09376-.35938.48438-.9375.73438.71875.26562 1.0625.78126.35937.5156.35937 1.21874 0 1.14062-.82812 1.82812-.82813.6875-2.1875.6875-1.28125 0-2.09375-.67186-.8125-.6875-.8125-1.7969h1.6875q0 .4844.35937.7969.375.29686.89063.29686.60937 0 .95312-.3125.34375-.32812.34375-.85936 0-1.26564-1.40625-1.26564h-.90625zm5.4375 4.1875q0-.40624.26563-.65624.28125-.25.68751-.25.42186 0 .6875.25.28124.25.28124.65624 0 .39062-.28124.64062-.26564.25-.6875.25-.40626 0-.68751-.25-.26563-.25-.26563-.64062zm7.85938-2.39064h.96876v1.375h-.96876v1.84376h-1.70314v-1.84376h-3.48436l-.07814-1.0625 3.5469-5.625h1.71874zm-3.57814 0h1.875v-3l-.10936.1875z" fill="#00cdb2"/><path d="m272.56732 281.89188h.90625q.64063 0 .95313-.3125.3125-.32813.3125-.85938 0-.51562-.3125-.79687-.29688-.29688-.84375-.29688-.48438 0-.8125.26563-.32813.26562-.32813.6875h-1.6875q0-.65625.35938-1.1875.35937-.53125 1-.82813.65625-.3125 1.4375-.3125 1.34375 0 2.10937.65625.78125.64063.78125 1.78125 0 .59375-.35937 1.09375-.35938.48438-.9375.73438.71875.26562 1.0625.78125.35937.51562.35937 1.21875 0 1.14062-.82812 1.82812-.82813.6875-2.1875.6875-1.28125 0-2.09375-.67187-.8125-.6875-.8125-1.79688h1.6875q0 .48438.35937.79688.375.29687.89063.29687.60937 0 .95312-.3125.34375-.32812.34375-.85937 0-1.26563-1.40625-1.26563h-.90625zm5.4375 4.1875q0-.40625.26563-.65625.28125-.25.6875-.25.42187 0 .6875.25.28125.25.28125.65625 0 .39062-.28125.64062-.26563.25-.6875.25-.40625 0-.6875-.25-.26563-.25-.26563-.64062zm8.40625-5.4375q0 .625-.3125 1.10937-.3125.46875-.85937.76563.625.29687.98437.82812.375.51563.375 1.21875 0 1.14063-.78125 1.8125-.76562.65625-2.10937.65625-1.32813 0-2.10938-.65625-.76562-.67187-.76562-1.8125 0-.70312.35937-1.23437.35938-.53125.98438-.8125-.54688-.29688-.85938-.76563-.3125-.48437-.3125-1.10937 0-1.09375.71875-1.73438.73438-.65625 1.98438-.65625 1.25 0 1.96875.65625.73437.64063.73437 1.73438zm-1.51562 3.79687q0-.54687-.32813-.875-.3125-.34375-.85937-.34375-.54688 0-.875.32813-.3125.32812-.3125.89062 0 .54688.3125.89063.32812.32812.89062.32812.54688 0 .85938-.3125.3125-.32812.3125-.90625zm-.17188-3.71875q0-.5-.26562-.79687-.26563-.29688-.75-.29688-.46875 0-.73438.29688-.26562.28125-.26562.79687 0 .51563.26562.82813.26563.3125.73438.3125.48437 0 .75-.3125.26562-.3125.26562-.82813z" stroke="#fff" stroke-linecap="round" stroke-linejoin="round" stroke-width="3"/><path d="m272.56732 281.89188h.90625q.64063 0 .95313-.3125.3125-.32813.3125-.85938 0-.51562-.3125-.79687-.29688-.29688-.84375-.29688-.48438 0-.8125.26563-.32813.26562-.32813.6875h-1.6875q0-.65625.35938-1.1875.35937-.53125 1-.82813.65625-.3125 1.4375-.3125 1.34375 0 2.10937.65625.78125.64063.78125 1.78125 0 .59375-.35937 1.09375-.35938.48438-.9375.73438.71875.26562 1.0625.78125.35937.51562.35937 1.21875 0 1.14062-.82812 1.82812-.82813.6875-2.1875.6875-1.28125 0-2.09375-.67187-.8125-.6875-.8125-1.79688h1.6875q0 .48438.35937.79688.375.29687.89063.29687.60937 0 .95312-.3125.34375-.32812.34375-.85937 0-1.26563-1.40625-1.26563h-.90625zm5.4375 4.1875q0-.40625.26563-.65625.28125-.25.6875-.25.42187 0 .6875.25.28125.25.28125.65625 0 .39062-.28125.64062-.26563.25-.6875.25-.40625 0-.6875-.25-.26563-.25-.26563-.64062zm8.40625-5.4375q0 .625-.3125 1.10937-.3125.46875-.85937.76563.625.29687.98437.82812.375.51563.375 1.21875 0 1.14063-.78125 1.8125-.76562.65625-2.10937.65625-1.32813 0-2.10938-.65625-.76562-.67187-.76562-1.8125 0-.70312.35937-1.23437.35938-.53125.98438-.8125-.54688-.29688-.85938-.76563-.3125-.48437-.3125-1.10937 0-1.09375.71875-1.73438.73438-.65625 1.98438-.65625 1.25 0 1.96875.65625.73437.64063.73437 1.73438zm-1.51562 3.79687q0-.54687-.32813-.875-.3125-.34375-.85937-.34375-.54688 0-.875.32813-.3125.32812-.3125.89062 0 .54688.3125.89063.32812.32812.89062.32812.54688 0 .85938-.3125.3125-.32812.3125-.90625zm-.17188-3.71875q0-.5-.26562-.79687-.26563-.29688-.75-.29688-.46875 0-.73438.29688-.26562.28125-.26562.79687 0 .51563.26562.82813.26563.3125.73438.3125.48437 0 .75-.3125.26562-.3125.26562-.82813z" fill="#00cdb2"/><path d="m293.58493 146.1563.5-4.32813h4.78125v1.40625h-3.39062l-.21876 1.84375q.60938-.32812 1.28126-.32812 1.21874 0 1.90624.76562.70313.75.70313 2.10938 0 .82812-.35937 1.48437-.34376.64063-1 1.01563-.64063.35937-1.53126.35937-.76562 0-1.4375-.3125-.65624-.32812-1.04687-.89062-.375-.5625-.40625-1.29688h1.6875q.04688.53125.35938.82813.32812.29687.84374.29687.57813 0 .875-.40625.3125-.42187.3125-1.17187 0-.73438-.35937-1.10938-.34375-.39062-1-.39062-.60937 0-.98437.3125l-.15626.15625zm6.90625 3.375q0-.40625.26562-.65625.28126-.25.6875-.25.42188 0 .6875.25.28126.25.28126.65625 0 .39062-.28126.64062-.26562.25-.6875.25-.40624 0-.6875-.25-.26562-.25-.26562-.64062zm3.09375-3.375.5-4.32813h4.78125v1.40625h-3.39062l-.21876 1.84375q.60938-.32812 1.28126-.32812 1.21874 0 1.90624.76562.70313.75.70313 2.10938 0 .82812-.35937 1.48437-.34376.64063-1 1.01563-.64063.35937-1.53126.35937-.76562 0-1.4375-.3125-.65624-.32812-1.04687-.89062-.375-.5625-.40625-1.29688h1.6875q.04688.53125.35938.82813.32812.29687.84374.29687.57813 0 .875-.40625.3125-.42187.3125-1.17187 0-.73438-.35937-1.10938-.34375-.39062-1-.39062-.60937 0-.98437.3125l-.15626.15625z" stroke="#fff" stroke-linecap="round" stroke-linejoin="round" stroke-width="3"/><path d="m293.58493 146.1563.5-4.32813h4.78125v1.40625h-3.39062l-.21876 1.84375q.60938-.32812 1.28126-.32812 1.21874 0 1.90624.76562.70313.75.70313 2.10938 0 .82812-.35937 1.48437-.34376.64063-1 1.01563-.64063.35937-1.53126.35937-.76562 0-1.4375-.3125-.65624-.32812-1.04687-.89062-.375-.5625-.40625-1.29688h1.6875q.04688.53125.35938.82813.32812.29687.84374.29687.57813 0 .875-.40625.3125-.42187.3125-1.17187 0-.73438-.35937-1.10938-.34375-.39062-1-.39062-.60937 0-.98437.3125l-.15626.15625zm6.90625 3.375q0-.40625.26562-.65625.28126-.25.6875-.25.42188 0 .6875.25.28126.25.28126.65625 0 .39062-.28126.64062-.26562.25-.6875.25-.40624 0-.6875-.25-.26562-.25-.26562-.64062zm3.09375-3.375.5-4.32813h4.78125v1.40625h-3.39062l-.21876 1.84375q.60938-.32812 1.28126-.32812 1.21874 0 1.90624.76562.70313.75.70313 2.10938 0 .82812-.35937 1.48437-.34376.64063-1 1.01563-.64063.35937-1.53126.35937-.76562 0-1.4375-.3125-.65624-.32812-1.04687-.89062-.375-.5625-.40625-1.29688h1.6875q.04688.53125.35938.82813.32812.29687.84374.29687.57813 0 .875-.40625.3125-.42187.3125-1.17187 0-.73438-.35937-1.10938-.34375-.39062-1-.39062-.60937 0-.98437.3125l-.15626.15625z" fill="#00cdb2"/><path d="m320.83694 193.12032h.96876v1.375h-.96876v1.84375h-1.70312v-1.84375h-3.48438l-.07812-1.0625 3.54688-5.625h1.71874zm-3.57812 0h1.875v-3l-.10938.1875zm5.71875 2.39062q0-.40625.26563-.65625.28124-.25.6875-.25.42187 0 .6875.25.28124.25.28124.65625 0 .39063-.28124.64063-.26563.25-.6875.25-.40626 0-.6875-.25-.26563-.25-.26563-.64063zm6.8125-2.57812q-.67187.64062-1.54687.64062-1.14063 0-1.82813-.76562-.67187-.78125-.67187-2.09375 0-.84375.35937-1.54688.375-.70312 1.03125-1.09375.65625-.39062 1.48438-.39062.84374 0 1.5.42187.65624.42188 1.01562 1.21875.35938.79688.375 1.8125v.625q0 2.14063-1.0625 3.35938-1.0625 1.21875-3.01562 1.29687h-.40626v-1.40625l.375-.01562q2.20313-.09375 2.39063-2.0625zm-1.14063-.65625q.42188 0 .70313-.20313.29687-.21875.45313-.51562v-.6875q0-.85938-.32813-1.32813-.32813-.48437-.875-.48437-.51563 0-.84375.46875-.32812.45312-.32812 1.15625 0 .70312.3125 1.15625.32812.4375.90624.4375z" stroke="#fff" stroke-linecap="round" stroke-linejoin="round" stroke-width="3"/><path d="m320.83694 193.12032h.96876v1.375h-.96876v1.84375h-1.70312v-1.84375h-3.48438l-.07812-1.0625 3.54688-5.625h1.71874zm-3.57812 0h1.875v-3l-.10938.1875zm5.71875 2.39062q0-.40625.26563-.65625.28124-.25.6875-.25.42187 0 .6875.25.28124.25.28124.65625 0 .39063-.28124.64063-.26563.25-.6875.25-.40626 0-.6875-.25-.26563-.25-.26563-.64063zm6.8125-2.57812q-.67187.64062-1.54687.64062-1.14063 0-1.82813-.76562-.67187-.78125-.67187-2.09375 0-.84375.35937-1.54688.375-.70312 1.03125-1.09375.65625-.39062 1.48438-.39062.84374 0 1.5.42187.65624.42188 1.01562 1.21875.35938.79688.375 1.8125v.625q0 2.14063-1.0625 3.35938-1.0625 1.21875-3.01562 1.29687h-.40626v-1.40625l.375-.01562q2.20313-.09375 2.39063-2.0625zm-1.14063-.65625q.42188 0 .70313-.20313.29687-.21875.45313-.51562v-.6875q0-.85938-.32813-1.32813-.32813-.48437-.875-.48437-.51563 0-.84375.46875-.32812.45312-.32812 1.15625 0 .70312.3125 1.15625.32812.4375.90624.4375z" fill="#00cdb2"/><path d="m343.3233 210.50021h.96875v1.375h-.96875v1.84375h-1.70312v-1.84375h-3.48438l-.07812-1.0625 3.54687-5.625h1.71875zm-3.57812 0h1.875v-3l-.10938.1875zm5.71875 2.39063q0-.40625.26562-.65625.28125-.25.6875-.25.42188 0 .6875.25.28125.25.28125.65625 0 .39062-.28125.64062-.26562.25-.6875.25-.40625 0-.6875-.25-.26562-.25-.26562-.64062zm8.64062-6.75-3.29687 7.57812h-1.78125l3.29687-7.15625h-4.23437v-1.375h6.01562z" stroke="#fff" stroke-linecap="round" stroke-linejoin="round" stroke-width="3"/><path d="m343.3233 210.50021h.96875v1.375h-.96875v1.84375h-1.70312v-1.84375h-3.48438l-.07812-1.0625 3.54687-5.625h1.71875zm-3.57812 0h1.875v-3l-.10938.1875zm5.71875 2.39063q0-.40625.26562-.65625.28125-.25.6875-.25.42188 0 .6875.25.28125.25.28125.65625 0 .39062-.28125.64062-.26562.25-.6875.25-.40625 0-.6875-.25-.26562-.25-.26562-.64062zm8.64062-6.75-3.29687 7.57812h-1.78125l3.29687-7.15625h-4.23437v-1.375h6.01562z" fill="#00cdb2"/><path d="m365.80966 208.18646h.96874v1.375h-.96874v1.84375h-1.70312v-1.84375h-3.48438l-.07812-1.0625 3.54686-5.625h1.71876zm-3.57812 0h1.875v-3l-.10938.1875zm5.71876 2.39063q0-.40625.2656-.65625.28126-.25.6875-.25.4219 0 .6875.25.28126.25.28126.65625 0 .39062-.28126.64062-.2656.25-.6875.25-.40624 0-.6875-.25-.2656-.25-.2656-.64062zm8.6406-6.75-3.29686 7.57812h-1.78124l3.29686-7.15625h-4.23436v-1.375h6.0156z" stroke="#fff" stroke-linecap="round" stroke-linejoin="round" stroke-width="3"/><path d="m365.80966 208.18646h.96874v1.375h-.96874v1.84375h-1.70312v-1.84375h-3.48438l-.07812-1.0625 3.54686-5.625h1.71876zm-3.57812 0h1.875v-3l-.10938.1875zm5.71876 2.39063q0-.40625.2656-.65625.28126-.25.6875-.25.4219 0 .6875.25.28126.25.28126.65625 0 .39062-.28126.64062-.2656.25-.6875.25-.40624 0-.6875-.25-.2656-.25-.2656-.64062zm8.6406-6.75-3.29686 7.57812h-1.78124l3.29686-7.15625h-4.23436v-1.375h6.0156z" fill="#00cdb2"/><path d="m383.5304 178.84738.5-4.32812h4.78125v1.40624h-3.39063l-.21875 1.84376q.60938-.32813 1.28125-.32813 1.21875 0 1.90625.76563.70313.75.70313 2.10937 0 .82813-.35938 1.48437-.34375.64063-1 1.01563-.64062.35937-1.53125.35937-.76562 0-1.4375-.3125-.65625-.32812-1.04687-.89062-.375-.5625-.40625-1.29688h1.6875q.04687.53126.35937.82813.32813.29687.84375.29687.57813 0 .875-.40624.3125-.42188.3125-1.17188 0-.73438-.35937-1.10938-.34375-.39062-1-.39062-.60938 0-.98438.3125l-.15625.15625zm6.90625 3.375q0-.40625.26562-.65625.28125-.25.6875-.25.42188 0 .6875.25.28125.25.28125.65625 0 .39062-.28125.64062-.26562.25-.6875.25-.40625 0-.6875-.25-.26562-.25-.26562-.64062zm6.95312.82812h-1.6875v-6.53124l-2.01562.625v-1.375l3.53125-1.26563h.17187z" stroke="#fff" stroke-linecap="round" stroke-linejoin="round" stroke-width="3"/><path d="m383.5304 178.84738.5-4.32812h4.78125v1.40624h-3.39063l-.21875 1.84376q.60938-.32813 1.28125-.32813 1.21875 0 1.90625.76563.70313.75.70313 2.10937 0 .82813-.35938 1.48437-.34375.64063-1 1.01563-.64062.35937-1.53125.35937-.76562 0-1.4375-.3125-.65625-.32812-1.04687-.89062-.375-.5625-.40625-1.29688h1.6875q.04687.53126.35937.82813.32813.29687.84375.29687.57813 0 .875-.40624.3125-.42188.3125-1.17188 0-.73438-.35937-1.10938-.34375-.39062-1-.39062-.60938 0-.98438.3125l-.15625.15625zm6.90625 3.375q0-.40625.26562-.65625.28125-.25.6875-.25.42188 0 .6875.25.28125.25.28125.65625 0 .39062-.28125.64062-.26562.25-.6875.25-.40625 0-.6875-.25-.26562-.25-.26562-.64062zm6.95312.82812h-1.6875v-6.53124l-2.01562.625v-1.375l3.53125-1.26563h.17187z" fill="#00cdb2"/><path d="m410.78238 213.84964h.96875v1.375h-.96875v1.84375h-1.70313v-1.84375h-3.48437l-.07813-1.0625 3.54688-5.625h1.71875zm-3.57813 0h1.875v-3l-.10937.1875zm5.71875 2.39062q0-.40625.26563-.65625.28125-.25.6875-.25.42187 0 .6875.25.28125.25.28125.65625 0 .39063-.28125.64063-.26563.25-.6875.25-.40625 0-.6875-.25-.26563-.25-.26563-.64063zm8.64063-6.75-3.29688 7.57813h-1.78125l3.29688-7.15625h-4.23438v-1.375h6.01563z" stroke="#fff" stroke-linecap="round" stroke-linejoin="round" stroke-width="3"/><path d="m410.78238 213.84964h.96875v1.375h-.96875v1.84375h-1.70313v-1.84375h-3.48437l-.07813-1.0625 3.54688-5.625h1.71875zm-3.57813 0h1.875v-3l-.10937.1875zm5.71875 2.39062q0-.40625.26563-.65625.28125-.25.6875-.25.42187 0 .6875.25.28125.25.28125.65625 0 .39063-.28125.64063-.26563.25-.6875.25-.40625 0-.6875-.25-.26563-.25-.26563-.64063zm8.64063-6.75-3.29688 7.57813h-1.78125l3.29688-7.15625h-4.23438v-1.375h6.01563z" fill="#00cdb2"/><path d="m433.26874 219.32816h.96876v1.375h-.96876v1.84374h-1.70314v-1.84374h-3.48436l-.07814-1.0625 3.5469-5.625h1.71874zm-3.57814 0h1.875v-3l-.10936.1875zm5.71876 2.39062q0-.40625.26564-.65625.28124-.25.6875-.25.42186 0 .6875.25.28124.25.28124.65625 0 .39062-.28124.64062-.26564.25-.6875.25-.40626 0-.6875-.25-.26564-.25-.26564-.64062zm7.4375-7.79688v1.40626h-.15626q-1.15624.01562-1.85936.59374-.6875.57813-.82814 1.60938.6719-.6875 1.70314-.6875 1.125 0 1.78126.79688.65624.79687.65624 2.09374 0 .82813-.35938 1.5-.35936.67188-1.03126 1.0625-.65624.375-1.48436.375-1.34374 0-2.17188-.9375-.82812-.95312-.82812-2.51562v-.60938q0-1.39062.51562-2.45312.53124-1.0625 1.5-1.64062.98438-.57813 2.28124-.59376zm-1.65626 4.28126q-.40624 0-.75.21874-.3281.20313-.48436.5625v.51563q0 .84375.32812 1.32813.34374.46874.95314.46874.54686 0 .875-.42187.34374-.4375.34374-1.125 0-.70313-.34374-1.125-.34376-.42187-.9219-.42187z" stroke="#fff" stroke-linecap="round" stroke-linejoin="round" stroke-width="3"/><path d="m433.26874 219.32816h.96876v1.375h-.96876v1.84374h-1.70314v-1.84374h-3.48436l-.07814-1.0625 3.5469-5.625h1.71874zm-3.57814 0h1.875v-3l-.10936.1875zm5.71876 2.39062q0-.40625.26564-.65625.28124-.25.6875-.25.42186 0 .6875.25.28124.25.28124.65625 0 .39062-.28124.64062-.26564.25-.6875.25-.40626 0-.6875-.25-.26564-.25-.26564-.64062zm7.4375-7.79688v1.40626h-.15626q-1.15624.01562-1.85936.59374-.6875.57813-.82814 1.60938.6719-.6875 1.70314-.6875 1.125 0 1.78126.79688.65624.79687.65624 2.09374 0 .82813-.35938 1.5-.35936.67188-1.03126 1.0625-.65624.375-1.48436.375-1.34374 0-2.17188-.9375-.82812-.95312-.82812-2.51562v-.60938q0-1.39062.51562-2.45312.53124-1.0625 1.5-1.64062.98438-.57813 2.28124-.59376zm-1.65626 4.28126q-.40624 0-.75.21874-.3281.20313-.48436.5625v.51563q0 .84375.32812 1.32813.34374.46874.95314.46874.54686 0 .875-.42187.34374-.4375.34374-1.125 0-.70313-.34374-1.125-.34376-.42187-.9219-.42187z" fill="#00cdb2"/><path d="m455.75513 201.00517h.96875v1.375h-.96875v1.84375h-1.70313v-1.84375h-3.48437l-.07813-1.0625 3.54688-5.625h1.71875zm-3.57813 0h1.875v-3l-.10937.1875zm5.71875 2.39063q0-.40625.26563-.65625.28125-.25.6875-.25.42187 0 .6875.25.28125.25.28125.65625 0 .39062-.28125.64062-.26563.25-.6875.25-.40625 0-.6875-.25-.26563-.25-.26563-.64062zm8.40625-5.4375q0 .625-.3125 1.10937-.3125.46875-.85937.76563.625.29687.98437.82812.375.51563.375 1.21875 0 1.14063-.78125 1.8125-.76562.65625-2.10937.65625-1.32813 0-2.10938-.65625-.76562-.67187-.76562-1.8125 0-.70312.35937-1.23437.35938-.53125.98438-.8125-.54688-.29688-.85938-.76563-.3125-.48437-.3125-1.10937 0-1.09375.71875-1.73438.73438-.65625 1.98438-.65625 1.25 0 1.96875.65625.73437.64063.73437 1.73438zm-1.51562 3.79687q0-.54687-.32813-.875-.3125-.34375-.85937-.34375-.54688 0-.875.32813-.3125.32812-.3125.89062 0 .54688.3125.89063.32812.32812.89062.32812.54688 0 .85938-.3125.3125-.32812.3125-.90625zm-.17188-3.71875q0-.5-.26562-.79687-.26563-.29688-.75-.29688-.46875 0-.73438.29688-.26562.28125-.26562.79687 0 .51563.26562.82813.26563.3125.73438.3125.48437 0 .75-.3125.26562-.3125.26562-.82813z" stroke="#fff" stroke-linecap="round" stroke-linejoin="round" stroke-width="3"/><path d="m455.75513 201.00517h.96875v1.375h-.96875v1.84375h-1.70313v-1.84375h-3.48437l-.07813-1.0625 3.54688-5.625h1.71875zm-3.57813 0h1.875v-3l-.10937.1875zm5.71875 2.39063q0-.40625.26563-.65625.28125-.25.6875-.25.42187 0 .6875.25.28125.25.28125.65625 0 .39062-.28125.64062-.26563.25-.6875.25-.40625 0-.6875-.25-.26563-.25-.26563-.64062zm8.40625-5.4375q0 .625-.3125 1.10937-.3125.46875-.85937.76563.625.29687.98437.82812.375.51563.375 1.21875 0 1.14063-.78125 1.8125-.76562.65625-2.10937.65625-1.32813 0-2.10938-.65625-.76562-.67187-.76562-1.8125 0-.70312.35937-1.23437.35938-.53125.98438-.8125-.54688-.29688-.85938-.76563-.3125-.48437-.3125-1.10937 0-1.09375.71875-1.73438.73438-.65625 1.98438-.65625 1.25 0 1.96875.65625.73437.64063.73437 1.73438zm-1.51562 3.79687q0-.54687-.32813-.875-.3125-.34375-.85937-.34375-.54688 0-.875.32813-.3125.32812-.3125.89062 0 .54688.3125.89063.32812.32812.89062.32812.54688 0 .85938-.3125.3125-.32812.3125-.90625zm-.17188-3.71875q0-.5-.26562-.79687-.26563-.29688-.75-.29688-.46875 0-.73438.29688-.26562.28125-.26562.79687 0 .51563.26562.82813.26563.3125.73438.3125.48437 0 .75-.3125.26562-.3125.26562-.82813z" fill="#00cdb2"/><path d="m473.47586 151.34422.5-4.32812h4.78124v1.40625h-3.3906l-.21876 1.84375q.60936-.32813 1.28126-.32813 1.21874 0 1.90624.76563.70312.75.70312 2.10937 0 .82813-.35936 1.48438-.34376.64062-1 1.01562-.64064.35938-1.53126.35938-.76564 0-1.4375-.3125-.65624-.32813-1.04688-.89063-.375-.5625-.40626-1.29687h1.6875q.0469.53125.3594.82812.3281.29688.84374.29688.57812 0 .875-.40625.3125-.42188.3125-1.17188 0-.73437-.35938-1.10937-.34376-.39063-1-.39063-.60936 0-.98436.3125l-.15626.15625zm6.90624 3.375q0-.40625.26564-.65625.28126-.25.6875-.25.42186 0 .6875.25.28126.25.28126.65625 0 .39063-.28126.64063-.26564.25-.6875.25-.40624 0-.6875-.25-.26564-.25-.26564-.64063zm7.8594-2.39062h.96874v1.375h-.96874v1.84375h-1.70314v-1.84375h-3.48436l-.07814-1.0625 3.54688-5.625h1.71876zm-3.57814 0h1.875v-3l-.10936.1875z" stroke="#fff" stroke-linecap="round" stroke-linejoin="round" stroke-width="3"/><path d="m473.47586 151.34422.5-4.32812h4.78124v1.40625h-3.3906l-.21876 1.84375q.60936-.32813 1.28126-.32813 1.21874 0 1.90624.76563.70312.75.70312 2.10937 0 .82813-.35936 1.48438-.34376.64062-1 1.01562-.64064.35938-1.53126.35938-.76564 0-1.4375-.3125-.65624-.32813-1.04688-.89063-.375-.5625-.40626-1.29687h1.6875q.0469.53125.3594.82812.3281.29688.84374.29688.57812 0 .875-.40625.3125-.42188.3125-1.17188 0-.73437-.35938-1.10937-.34376-.39063-1-.39063-.60936 0-.98436.3125l-.15626.15625zm6.90624 3.375q0-.40625.26564-.65625.28126-.25.6875-.25.42186 0 .6875.25.28126.25.28126.65625 0 .39063-.28126.64063-.26564.25-.6875.25-.40624 0-.6875-.25-.26564-.25-.26564-.64063zm7.8594-2.39062h.96874v1.375h-.96874v1.84375h-1.70314v-1.84375h-3.48436l-.07814-1.0625 3.54688-5.625h1.71876zm-3.57814 0h1.875v-3l-.10936.1875z" fill="#00cdb2"/><path d="m495.96222 179.78171.5-4.32813h4.78125v1.40625h-3.39063l-.21874 1.84375q.60937-.32812 1.28124-.32812 1.21876 0 1.90626.76562.70312.75.70312 2.10938 0 .82812-.35938 1.48437-.34374.64063-1 1.01563-.64062.35937-1.53124.35937-.76563 0-1.4375-.3125-.65626-.32812-1.04688-.89062-.375-.5625-.40625-1.29688h1.6875q.04687.53125.35937.82813.32813.29687.84376.29687.57812 0 .875-.40625.3125-.42187.3125-1.17187 0-.73438-.35938-1.10938-.34375-.39062-1-.39062-.60938 0-.98438.3125l-.15624.15625zm6.90625 3.375q0-.40625.26563-.65625.28124-.25.6875-.25.42187 0 .6875.25.28124.25.28124.65625 0 .39062-.28124.64062-.26563.25-.6875.25-.40626 0-.6875-.25-.26563-.25-.26563-.64062zm6.95313.82812h-1.6875v-6.53125l-2.01563.625v-1.375l3.53125-1.26562h.17188z" stroke="#fff" stroke-linecap="round" stroke-linejoin="round" stroke-width="3"/><path d="m495.96222 179.78171.5-4.32813h4.78125v1.40625h-3.39063l-.21874 1.84375q.60937-.32812 1.28124-.32812 1.21876 0 1.90626.76562.70312.75.70312 2.10938 0 .82812-.35938 1.48437-.34374.64063-1 1.01563-.64062.35937-1.53124.35937-.76563 0-1.4375-.3125-.65626-.32812-1.04688-.89062-.375-.5625-.40625-1.29688h1.6875q.04687.53125.35937.82813.32813.29687.84376.29687.57812 0 .875-.40625.3125-.42187.3125-1.17187 0-.73438-.35938-1.10938-.34375-.39062-1-.39062-.60938 0-.98438.3125l-.15624.15625zm6.90625 3.375q0-.40625.26563-.65625.28124-.25.6875-.25.42187 0 .6875.25.28124.25.28124.65625 0 .39062-.28124.64062-.26563.25-.6875.25-.40626 0-.6875-.25-.26563-.25-.26563-.64062zm6.95313.82812h-1.6875v-6.53125l-2.01563.625v-1.375l3.53125-1.26562h.17188z" fill="#00cdb2"/><path d="m518.4486 163.75714.5-4.32812h4.78126v1.40625h-3.39063l-.21873 1.84375q.60936-.32813 1.28123-.32813 1.21877 0 1.90627.76563.7031.75.7031 2.10937 0 .82813-.35937 1.48438-.34373.64062-1 1.01562-.64063.35938-1.53123.35938-.76564 0-1.4375-.3125-.65627-.32813-1.0469-.89063-.375-.5625-.40624-1.29687h1.6875q.04687.53125.35937.82812.32813.29688.84377.29688.5781 0 .875-.40625.3125-.42188.3125-1.17188 0-.73437-.3594-1.10937-.34374-.39063-1-.39063-.60937 0-.98437.3125l-.15623.15625zm6.90626 3.375q0-.40625.26564-.65625.28123-.25.6875-.25.42186 0 .6875.25.28123.25.28123.65625 0 .39063-.28123.64063-.26564.25-.6875.25-.40627 0-.6875-.25-.26564-.25-.26564-.64063zm4.5625-4.1875h.90624q.64063 0 .95313-.3125.3125-.32812.3125-.85937 0-.51563-.3125-.79688-.29687-.29687-.84373-.29687-.4844 0-.8125.26562-.32814.26563-.32814.6875h-1.6875q0-.65625.35937-1.1875.35937-.53125 1-.82812.65627-.3125 1.4375-.3125 1.34377 0 2.10937.65625.78126.64062.78126 1.78125 0 .59375-.35936 1.09375-.3594.48437-.9375.73437.71873.26563 1.0625.78125.35936.51563.35936 1.21875 0 1.14063-.82813 1.82813-.82813.6875-2.1875.6875-1.28123 0-2.09373-.67188-.8125-.6875-.8125-1.79687h1.6875q0 .48437.35936.79687.375.29688.89064.29688.60936 0 .9531-.3125.34376-.32813.34376-.85938 0-1.26562-1.40626-1.26562h-.90624z" stroke="#fff" stroke-linecap="round" stroke-linejoin="round" stroke-width="3"/><path d="m518.4486 163.75714.5-4.32812h4.78126v1.40625h-3.39063l-.21873 1.84375q.60936-.32813 1.28123-.32813 1.21877 0 1.90627.76563.7031.75.7031 2.10937 0 .82813-.35937 1.48438-.34373.64062-1 1.01562-.64063.35938-1.53123.35938-.76564 0-1.4375-.3125-.65627-.32813-1.0469-.89063-.375-.5625-.40624-1.29687h1.6875q.04687.53125.35937.82812.32813.29688.84377.29688.5781 0 .875-.40625.3125-.42188.3125-1.17188 0-.73437-.3594-1.10937-.34374-.39063-1-.39063-.60937 0-.98437.3125l-.15623.15625zm6.90626 3.375q0-.40625.26564-.65625.28123-.25.6875-.25.42186 0 .6875.25.28123.25.28123.65625 0 .39063-.28123.64063-.26564.25-.6875.25-.40627 0-.6875-.25-.26564-.25-.26564-.64063zm4.5625-4.1875h.90624q.64063 0 .95313-.3125.3125-.32812.3125-.85937 0-.51563-.3125-.79688-.29687-.29687-.84373-.29687-.4844 0-.8125.26562-.32814.26563-.32814.6875h-1.6875q0-.65625.35937-1.1875.35937-.53125 1-.82812.65627-.3125 1.4375-.3125 1.34377 0 2.10937.65625.78126.64062.78126 1.78125 0 .59375-.35936 1.09375-.3594.48437-.9375.73437.71873.26563 1.0625.78125.35936.51563.35936 1.21875 0 1.14063-.82813 1.82813-.82813.6875-2.1875.6875-1.28123 0-2.09373-.67188-.8125-.6875-.8125-1.79687h1.6875q0 .48437.35936.79687.375.29688.89064.29688.60936 0 .9531-.3125.34376-.32813.34376-.85938 0-1.26562-1.40626-1.26562h-.90624z" fill="#00cdb2"/><path d="m545.2787 64.72846v1.40625h-.15626q-1.15624.01563-1.85938.59375-.6875.57813-.82812 1.60938.67186-.6875 1.70312-.6875 1.125 0 1.78124.79687.65626.79688.65626 2.09375 0 .82813-.35936 1.5-.3594.67188-1.03126 1.0625-.65624.375-1.48438.375-1.34376 0-2.17186-.9375-.82814-.95312-.82814-2.51562v-.60938q0-1.39062.51564-2.45312.53124-1.0625 1.5-1.64063.98436-.57812 2.28124-.59375zm-1.65626 4.28125q-.40624 0-.75.21875-.32814.20313-.48438.5625v.51563q0 .84375.32814 1.32812.34374.46875.9531.46875.5469 0 .875-.42187.34376-.4375.34376-1.125 0-.70313-.34376-1.125-.34374-.42188-.92186-.42188zm4.21876 3.51563q0-.40625.2656-.65625.28126-.25.6875-.25.4219 0 .6875.25.28126.25.28126.65625 0 .39062-.28126.64062-.2656.25-.6875.25-.40624 0-.6875-.25-.2656-.25-.2656-.64062zm3.09374-3.375.5-4.32813h4.78126v1.40625h-3.39064l-.21876 1.84375q.6094-.32812 1.28126-.32812 1.21874 0 1.90624.76562.70314.75.70314 2.10938 0 .82812-.35938 1.48437-.34376.64063-1 1.01563-.64062.35937-1.53126.35937-.7656 0-1.4375-.3125-.65624-.32812-1.04686-.89062-.375-.5625-.40624-1.29688h1.6875q.04686.53125.35936.82813.32814.29687.84374.29687.57814 0 .875-.40625.3125-.42187.3125-1.17187 0-.73438-.35936-1.10938-.34374-.39062-1-.39062-.60938 0-.98438.3125l-.15626.15625z" stroke="#fff" stroke-linecap="round" stroke-linejoin="round" stroke-width="3"/><path d="m545.2787 64.72846v1.40625h-.15626q-1.15624.01563-1.85938.59375-.6875.57813-.82812 1.60938.67186-.6875 1.70312-.6875 1.125 0 1.78124.79687.65626.79688.65626 2.09375 0 .82813-.35936 1.5-.3594.67188-1.03126 1.0625-.65624.375-1.48438.375-1.34376 0-2.17186-.9375-.82814-.95312-.82814-2.51562v-.60938q0-1.39062.51564-2.45312.53124-1.0625 1.5-1.64063.98436-.57812 2.28124-.59375zm-1.65626 4.28125q-.40624 0-.75.21875-.32814.20313-.48438.5625v.51563q0 .84375.32814 1.32812.34374.46875.9531.46875.5469 0 .875-.42187.34376-.4375.34376-1.125 0-.70313-.34376-1.125-.34374-.42188-.92186-.42188zm4.21876 3.51563q0-.40625.2656-.65625.28126-.25.6875-.25.4219 0 .6875.25.28126.25.28126.65625 0 .39062-.28126.64062-.2656.25-.6875.25-.40624 0-.6875-.25-.2656-.25-.2656-.64062zm3.09374-3.375.5-4.32813h4.78126v1.40625h-3.39064l-.21876 1.84375q.6094-.32812 1.28126-.32812 1.21874 0 1.90624.76562.70314.75.70314 2.10938 0 .82812-.35938 1.48437-.34376.64063-1 1.01563-.64062.35937-1.53126.35937-.7656 0-1.4375-.3125-.65624-.32812-1.04686-.89062-.375-.5625-.40624-1.29688h1.6875q.04686.53125.35936.82813.32814.29687.84374.29687.57814 0 .875-.40625.3125-.42187.3125-1.17187 0-.73438-.35936-1.10938-.34374-.39062-1-.39062-.60938 0-.98438.3125l-.15626.15625z" fill="#00cdb2"/><g fill="#000"><path d="m22.43125 345.55313h.8125q.78125-.01563 1.21875-.40625.4375-.39062.4375-1.0625 0-1.5-1.5-1.5-.703125 0-1.125.40625-.40625.40625-.40625 1.0625h-1.09375q0-1.01563.734375-1.6875.75-.67187 1.890625-.67187 1.203125 0 1.890625.64062.6875.64062.6875 1.78125 0 .5625-.359375 1.07813-.359375.51562-.984375.78124.703125.21876 1.078125.73438.390625.51562.390625 1.26562 0 1.14063-.75 1.82813-.75.67187-1.953125.67187-1.1875 0-1.953125-.65624-.75-.65626-.75-1.71876h1.09375q0 .67188.4375 1.07813.4375.40625 1.1875.40625.78125 0 1.1875-.40625.421875-.42187.421875-1.1875 0-.73437-.453125-1.125-.453125-.40625-1.328125-.42187h-.8125zm5.5625 4.23437q0-.28124.15625-.46874.171875-.1875.5-.1875.34375 0 .515625.1875.171875.1875.171875.46874 0 .26563-.171875.45313-.171875.17187-.515625.17187-.328125 0-.5-.17187-.15625-.1875-.15625-.45313zm8.21875-3.07812q0 1.90625-.65625 2.84375-.640623.92187-2.03125.92187-1.359373 0-2.015625-.90624-.65625-.90626-.6875-2.71876v-1.4375q0-1.89062.640625-2.79687.65625-.92187 2.046877-.92187 1.375 0 2.03125.89062.65625.875.671873 2.71875zm-1.09375-1.48438q0-1.375-.390623-2-.375-.64062-1.21875-.64062-.828127 0-1.21875.64062-.375002.625-.375002 1.92188v1.73438q0 1.375.390625 2.04687.40625.65625 1.21875.65625.796877 0 1.1875-.625.390627-.625.40625-1.95312zm8.09375 1.48438q0 1.90625-.65625 2.84375-.640623.92187-2.03125.92187-1.359373 0-2.015623-.90624-.65625-.90626-.6875-2.71876v-1.4375q0-1.89062.640623-2.79687.65625-.92187 2.046877-.92187 1.375 0 2.03125.89062.65625.875.671873 2.71875zm-1.09375-1.48438q0-1.375-.390623-2-.375-.64062-1.21875-.64062-.828127 0-1.21875.64062-.375.625-.375 1.92188v1.73438q0 1.375.390623 2.04687.40625.65625 1.21875.65625.796877 0 1.1875-.625.390627-.625.40625-1.95312zm2.640627-1.76562q0-.76562.484373-1.26562.5-.5 1.265627-.5.78125 0 1.265623.5.484377.5.484377 1.29687v.42187q0 .76563-.5 1.26563-.484377.48437-1.234377.48437-.765623 0-1.265623-.48437-.5-.5-.5-1.3125zm.8125.45312q0 .45313.25.75.265623.29688.703123.29688.421877 0 .671877-.28125.25-.29687.25-.79687v-.42188q0-.45312-.25-.75-.25-.3125-.6875-.3125-.4375 0-.6875.3125-.25.29688-.25.76562zm3.34375 4.34376q0-.76563.484373-1.25.5-.5 1.265627-.5.765623 0 1.25.5.5.48437.5 1.29687v.40625q0 .76562-.484377 1.26562-.484373.5-1.25.5-.765623 0-1.265623-.48437-.5-.5-.5-1.3125zm.8125.45312q0 .46875.25.76562.265623.29688.703123.29688.421877 0 .671877-.28125.25-.29687.25-.79687v-.4375q0-.46876-.265627-.75-.25-.29688-.671873-.29688-.421877 0-.6875.29688-.25.28124-.25.78124zm-2.953127 1-.625-.39062 4.171877-6.67188.609373.39062z"/><path d="m25.43125 267.9406h1.1875v.875h-1.1875v1.9844h-1.078125v-1.9844h-3.890625v-.6406l3.8125-5.90626h1.15625zm-3.734375 0h2.65625v-4.1875l-.140625.2344zm6.296875 2.2969q0-.28126.15625-.46876.171875-.1875.5-.1875.34375 0 .515625.1875.171875.1875.171875.46876 0 .2656-.171875.4531-.171875.1719-.515625.1719-.328125 0-.5-.1719-.15625-.1875-.15625-.4531zm8.21875-3.07814q0 1.90624-.65625 2.84374-.640623.9219-2.03125.9219-1.359373 0-2.015625-.90626-.65625-.90624-.6875-2.71874v-1.4375q0-1.89064.640625-2.7969.65625-.92186 2.046877-.92186 1.375 0 2.03125.89062.65625.875.671873 2.71874zm-1.09375-1.48436q0-1.375-.390623-2-.375-.64064-1.21875-.64064-.828127 0-1.21875.64064-.375002.625-.375002 1.92186v1.73438q0 1.375.390625 2.04686.40625.65626 1.21875.65626.796877 0 1.1875-.625.390627-.625.40625-1.95312zm8.09375 1.48436q0 1.90624-.65625 2.84374-.640623.9219-2.03125.9219-1.359373 0-2.015623-.90626-.65625-.90624-.6875-2.71874v-1.4375q0-1.89064.640623-2.7969.65625-.92186 2.046877-.92186 1.375 0 2.03125.89062.65625.875.671873 2.71874zm-1.09375-1.48436q0-1.375-.390623-2-.375-.64064-1.21875-.64064-.828127 0-1.21875.64064-.375.625-.375 1.92186v1.73438q0 1.375.390623 2.04686.40625.65626 1.21875.65626.796877 0 1.1875-.625.390627-.625.40625-1.95312zm2.640627-1.76564q0-.76562.484373-1.26562.5-.5 1.265627-.5.78125 0 1.265623.5.484377.5.484377 1.29686v.4219q0 .7656-.5 1.2656-.484377.4844-1.234377.4844-.765623 0-1.265623-.4844-.5-.5-.5-1.3125zm.8125.45314q0 .4531.25.75.265623.29686.703123.29686.421877 0 .671877-.28126.25-.29686.25-.79686v-.42188q0-.45312-.25-.75-.25-.3125-.6875-.3125-.4375 0-.6875.3125-.25.29688-.25.76564zm3.34375 4.34374q0-.76564.484373-1.25.5-.5 1.265627-.5.765623 0 1.25.5.5.48436.5 1.29686v.40626q0 .76564-.484377 1.26564-.484373.5-1.25.5-.765623 0-1.265623-.4844-.5-.5-.5-1.3125zm.8125.45312q0 .46874.25.76564.265623.29686.703123.29686.421877 0 .671877-.28126.25-.29686.25-.79686v-.4375q0-.46874-.265627-.75-.25-.29688-.671873-.29688-.421877 0-.6875.29688-.25.28126-.25.78126zm-2.953127 1-.625-.39062 4.171877-6.67188.609373.39064z"/><path d="m21.353125 186.96875.4375-4.25h4.375v1h-3.453125l-.265625 2.32813q.640625-.375 1.4375-.375 1.15625 0 1.84375.78124.6875.76563.6875 2.07813 0 1.3125-.71875 2.07813-.703125.76562-1.984375.76562-1.125 0-1.84375-.625-.71875-.64062-.8125-1.75h1.015625q.109375.73438.53125 1.10938.421875.375 1.109375.375.75 0 1.1875-.51563.4375-.51563.4375-1.42187 0-.85938-.46875-1.375-.46875-.51563-1.25-.51563-.703125 0-1.109375.29687l-.28125.23438zm6.640625 3.71875q0-.28125.15625-.46875.171875-.1875.5-.1875.34375 0 .515625.1875.171875.1875.171875.46875 0 .26562-.171875.45312-.171875.17188-.515625.17188-.328125 0-.5-.17188-.15625-.1875-.15625-.45312zm8.21875-3.07812q0 1.90624-.65625 2.84374-.640623.92188-2.03125.92188-1.359373 0-2.015625-.90625-.65625-.90625-.6875-2.71875v-1.4375q0-1.89062.640625-2.79688.65625-.92187 2.046877-.92187 1.375 0 2.03125.89063.65625.875.671873 2.71874zm-1.09375-1.48438q0-1.375-.390623-2-.375-.64062-1.21875-.64062-.828127 0-1.21875.64062-.375002.625-.375002 1.92188v1.73437q0 1.375.390625 2.04687.40625.65626 1.21875.65626.796877 0 1.1875-.625.390627-.625.40625-1.95313zm8.09375 1.48438q0 1.90624-.65625 2.84374-.640623.92188-2.03125.92188-1.359373 0-2.015623-.90625-.65625-.90625-.6875-2.71875v-1.4375q0-1.89062.640623-2.79688.65625-.92187 2.046877-.92187 1.375 0 2.03125.89063.65625.875.671873 2.71874zm-1.09375-1.48438q0-1.375-.390623-2-.375-.64062-1.21875-.64062-.828127 0-1.21875.64062-.375.625-.375 1.92188v1.73437q0 1.375.390623 2.04687.40625.65626 1.21875.65626.796877 0 1.1875-.625.390627-.625.40625-1.95313zm2.640627-1.76562q0-.76563.484373-1.26563.5-.5 1.265627-.5.78125 0 1.265623.5.484377.5.484377 1.29687v.42188q0 .76562-.5 1.26562-.484377.48438-1.234377.48438-.765623 0-1.265623-.48438-.5-.5-.5-1.3125zm.8125.45312q0 .45312.25.75.265623.29688.703123.29688.421877 0 .671877-.28126.25-.29687.25-.79687v-.42187q0-.45313-.25-.75-.25-.3125-.6875-.3125-.4375 0-.6875.3125-.25.29687-.25.76562zm3.34375 4.34375q0-.76563.484373-1.25.5-.5 1.265627-.5.765623 0 1.25.5.5.48437.5 1.29687v.40626q0 .76562-.484377 1.26562-.484373.5-1.25.5-.765623 0-1.265623-.48438-.5-.5-.5-1.3125zm.8125.45313q0 .46874.25.76562.265623.29688.703123.29688.421877 0 .671877-.28126.25-.29687.25-.79687v-.4375q0-.46875-.265627-.75-.25-.29687-.671873-.29687-.421877 0-.6875.29687-.25.28125-.25.78125zm-2.953127 1-.625-.39063 4.171877-6.67187.609373.39062z"/><path d="m25.11875 103.16875v.90625h-.203125q-1.265625.03125-2.015625.76562-.75.71875-.875 2.03125.6875-.76562 1.84375-.76562 1.109375 0 1.78125.78125.671875.78125.671875 2.03125 0 1.3125-.71875 2.10937-.71875.79688-1.9375.79688-1.21875 0-1.984375-.9375-.75-.95313-.75-2.4375v-.40625q0-2.35938 1-3.60938 1-1.25 2.984375-1.26562zm-1.421875 3.84375q-.5625 0-1.03125.32812-.46875.32813-.65625.84375v.39063q0 1.0625.46875 1.70312.484375.64063 1.1875.64063.734375 0 1.15625-.53125.421875-.54688.421875-1.42188 0-.875-.421875-1.40625-.421875-.54687-1.125-.54687zm4.296875 4.125q0-.28125.15625-.46875.171875-.1875.5-.1875.34375 0 .515625.1875.171875.1875.171875.46875 0 .26562-.171875.45312-.171875.17188-.515625.17188-.328125 0-.5-.17188-.15625-.1875-.15625-.45312zm8.21875-3.07813q0 1.90625-.65625 2.84375-.640623.92188-2.03125.92188-1.359373 0-2.015625-.90625-.65625-.90625-.6875-2.71875v-1.4375q0-1.89063.640625-2.79688.65625-.92187 2.046877-.92187 1.375 0 2.03125.89062.65625.875.671873 2.71875zm-1.09375-1.48437q0-1.375-.390623-2-.375-.64063-1.21875-.64063-.828127 0-1.21875.64063-.375002.625-.375002 1.92187v1.73438q0 1.375.390625 2.04687.40625.65625 1.21875.65625.796877 0 1.1875-.625.390627-.625.40625-1.95312zm8.09375 1.48437q0 1.90625-.65625 2.84375-.640623.92188-2.03125.92188-1.359373 0-2.015623-.90625-.65625-.90625-.6875-2.71875v-1.4375q0-1.89063.640623-2.79688.65625-.92187 2.046877-.92187 1.375 0 2.03125.89062.65625.875.671873 2.71875zm-1.09375-1.48437q0-1.375-.390623-2-.375-.64063-1.21875-.64063-.828127 0-1.21875.64063-.375.625-.375 1.92187v1.73438q0 1.375.390623 2.04687.40625.65625 1.21875.65625.796877 0 1.1875-.625.390627-.625.40625-1.95312zm2.640627-1.76563q0-.76562.484373-1.26562.5-.5 1.265627-.5.78125 0 1.265623.5.484377.5.484377 1.29687v.42188q0 .76562-.5 1.26562-.484377.48438-1.234377.48438-.765623 0-1.265623-.48438-.5-.5-.5-1.3125zm.8125.45313q0 .45312.25.75.265623.29687.703123.29687.421877 0 .671877-.28125.25-.29687.25-.79687v-.42188q0-.45312-.25-.75-.25-.3125-.6875-.3125-.4375 0-.6875.3125-.25.29688-.25.76563zm3.34375 4.34375q0-.76563.484373-1.25.5-.5 1.265627-.5.765623 0 1.25.5.5.48437.5 1.29687v.40625q0 .76563-.484377 1.26563-.484373.5-1.25.5-.765623 0-1.265623-.48438-.5-.5-.5-1.3125zm.8125.45312q0 .46875.25.76563.265623.29687.703123.29687.421877 0 .671877-.28125.25-.29687.25-.79687v-.4375q0-.46875-.265627-.75-.25-.29688-.671873-.29688-.421877 0-.6875.29688-.25.28125-.25.78125zm-2.953127 1-.625-.39062 4.171877-6.67188.609373.39063z"/><path d="m26.36875 24.228127-3.53125 7.921873h-1.140625l3.515625-7.640623h-4.609375v-.890625h5.765625zm1.625 7.359375q0-.28125.15625-.46875.171875-.1875.5-.1875.34375 0 .515625.1875.171875.1875.171875.46875 0 .265625-.171875.453125-.171875.171873-.515625.171873-.328125 0-.5-.171873-.15625-.1875-.15625-.453125zm8.21875-3.078125q0 1.90625-.65625 2.84375-.640623.921873-2.03125.921873-1.359373 0-2.015625-.906248-.65625-.90625-.6875-2.71875v-1.4375q0-1.890625.640625-2.796875.65625-.921875 2.046877-.921875 1.375 0 2.03125.890625.65625.875.671873 2.71875zm-1.09375-1.484375q0-1.375-.390623-2-.375-.640625-1.21875-.640625-.828127 0-1.21875.640625-.375002.625-.375002 1.921875v1.734375q0 1.375.390625 2.046875.40625.65625 1.21875.65625.796877 0 1.1875-.625.390627-.625.40625-1.953125zm8.09375 1.484375q0 1.90625-.65625 2.84375-.640623.921873-2.03125.921873-1.359373 0-2.015623-.906248-.65625-.90625-.6875-2.71875v-1.4375q0-1.890625.640623-2.796875.65625-.921875 2.046877-.921875 1.375 0 2.03125.890625.65625.875.671873 2.71875zm-1.09375-1.484375q0-1.375-.390623-2-.375-.640625-1.21875-.640625-.828127 0-1.21875.640625-.375.625-.375 1.921875v1.734375q0 1.375.390623 2.046875.40625.65625 1.21875.65625.796877 0 1.1875-.625.390627-.625.40625-1.953125zm2.640627-1.765625q0-.765625.484373-1.265625.5-.5 1.265627-.5.78125 0 1.265623.5.484377.5.484377 1.296875v.421875q0 .765625-.5 1.265625-.484377.484375-1.234377.484375-.765623 0-1.265623-.484375-.5-.5-.5-1.3125zm.8125.453125q0 .453125.25.75.265623.296875.703123.296875.421877 0 .671877-.28125.25-.296875.25-.796875v-.421875q0-.453125-.25-.75-.25-.3125-.6875-.3125-.4375 0-.6875.3125-.25.296875-.25.765625zm3.34375 4.34375q0-.765625.484373-1.25.5-.5 1.265627-.5.765623 0 1.25.5.5.484375.5 1.296875v.40625q0 .765625-.484377 1.265625-.484373.499998-1.25.499998-.765623 0-1.265623-.484373-.5-.5-.5-1.3125zm.8125.453125q0 .46875.25.765625.265623.296875.703123.296875.421877 0 .671877-.28125.25-.296875.25-.796875v-.4375q0-.46875-.265627-.75-.25-.296875-.671873-.296875-.421877 0-.6875.296875-.25.28125-.25.78125zm-2.953127 1-.625-.390625 4.171877-6.671875.609373.390625z"/><path d="m80.89317 373.42813v5.84375h-1.15625l-2.95312-2.76562q-.60938-.5625-1.07813-.82813-.46875-.28125-.875-.28125-.57812 0-.89062.29688-.32813.28124-.32813.8125 0 .57812.39063.90624.39062.32813 1.04687.32813v1.70313q-.78125 0-1.42187-.375-.65625-.375-1.01563-1.04688-.375-.6875-.375-1.54688 0-1.3125.64063-2.04687.625-.73437 1.78125-.73437.64062 0 1.29687.32812.65625.32812 1.53125 1.125l2.04688 1.9375v-3.65625zm-3.53125-6.90625q1.76563 0 2.71875.73438.9375.73437.9375 2.14062 0 1.40625-.92187 2.14062-.92188.73438-2.64063.75h-1.57812q-1.78125 0-2.70313-.73437-.9375-.75-.9375-2.14063 0-1.39062.92188-2.125.92187-.75 2.64062-.76562zm-1.71875 1.70312q-1.0625 0-1.54687.29688-.48438.28125-.48438.89062 0 .59376.46875.89063.45313.28125 1.4375.29687h2.0625q1.04688 0 1.5625-.28124.5-.28126.5-.92188 0-.60938-.48437-.89062-.48438-.28126-1.48438-.28126zm1.71875-8.70312q1.76563 0 2.71875.73438.9375.73437.9375 2.14062 0 1.40625-.92187 2.14062-.92188.73438-2.64063.75h-1.57812q-1.78125 0-2.70313-.73437-.9375-.75-.9375-2.14063 0-1.39062.92188-2.125.92187-.75 2.64062-.76562zm-1.71875 1.70312q-1.0625 0-1.54687.29688-.48438.28125-.48438.89062 0 .59376.46875.89063.45313.28125 1.4375.29687h2.0625q1.04688 0 1.5625-.28124.5-.28126.5-.92188 0-.60938-.48437-.89062-.48438-.28126-1.48438-.28126zm1.71875-8.70312q1.76563 0 2.71875.73438.9375.73437.9375 2.14062 0 1.40625-.92187 2.14062-.92188.73438-2.64063.75h-1.57812q-1.78125 0-2.70313-.73437-.9375-.75-.9375-2.14063 0-1.39062.92188-2.125.92187-.75 2.64062-.76562zm-1.71875 1.70312q-1.0625 0-1.54687.29688-.48438.28125-.48438.89062 0 .59376.46875.89063.45313.28125 1.4375.29687h2.0625q1.04688 0 1.5625-.28124.5-.28126.5-.92188 0-.60938-.48437-.89062-.48438-.28126-1.48438-.28126z"/><path d="m103.37954 373.42813v5.84375h-1.15625l-2.953126-2.76562q-.609374-.5625-1.078124-.82813-.46875-.28125-.875-.28125-.578126 0-.890626.29688-.328124.28124-.328124.8125 0 .57812.390624.90624.390626.32813 1.046876.32813v1.70313q-.78125 0-1.421876-.375-.65625-.375-1.015624-1.04688-.375-.6875-.375-1.54688 0-1.3125.640624-2.04687.625-.73437 1.78125-.73437.640626 0 1.296876.32812.65625.32812 1.53125 1.125l2.046874 1.9375v-3.65625zm-3.53125-6.90625q1.765624 0 2.71875.73438.9375.73437.9375 2.14062 0 1.40625-.921876 2.14062-.921874.73438-2.640624.75h-1.578126q-1.78125 0-2.703124-.73437-.9375-.75-.9375-2.14063 0-1.39062.921874-2.125.921876-.75 2.640626-.76562zm-1.71875 1.70312q-1.0625 0-1.546876.29688-.484374.28125-.484374.89062 0 .59376.46875.89063.453124.28125 1.4375.29687h2.0625q1.046874 0 1.5625-.28124.5-.28126.5-.92188 0-.60938-.484376-.89062-.484374-.28126-1.484374-.28126zm1.71875-8.70312q1.765624 0 2.71875.73438.9375.73437.9375 2.14062 0 1.40625-.921876 2.14062-.921874.73438-2.640624.75h-1.578126q-1.78125 0-2.703124-.73437-.9375-.75-.9375-2.14063 0-1.39062.921874-2.125.921876-.75 2.640626-.76562zm-1.71875 1.70312q-1.0625 0-1.546876.29688-.484374.28125-.484374.89062 0 .59376.46875.89063.453124.28125 1.4375.29687h2.0625q1.046874 0 1.5625-.28124.5-.28126.5-.92188 0-.60938-.484376-.89062-.484374-.28126-1.484374-.28126zm5.25-7.0625v1.6875h-6.53125l.625 2.01563h-1.375l-1.265626-3.53125v-.17188z"/><path d="m125.865906 373.42813v5.84375h-1.15625l-2.953126-2.76562q-.609374-.5625-1.078124-.82813-.46875-.28125-.875-.28125-.578126 0-.890626.29688-.328124.28124-.328124.8125 0 .57812.390624.90624.390626.32813 1.046876.32813v1.70313q-.78125 0-1.421876-.375-.65625-.375-1.015624-1.04688-.375-.6875-.375-1.54688 0-1.3125.640624-2.04687.625-.73437 1.78125-.73437.640626 0 1.296876.32812.65625.32812 1.53125 1.125l2.046874 1.9375v-3.65625zm-3.53125-6.90625q1.765624 0 2.71875.73438.9375.73437.9375 2.14062 0 1.40625-.921876 2.14062-.921874.73438-2.640624.75h-1.578126q-1.78125 0-2.703124-.73437-.9375-.75-.9375-2.14063 0-1.39062.921874-2.125.921876-.75 2.640626-.76562zm-1.71875 1.70312q-1.0625 0-1.546876.29688-.484374.28125-.484374.89062 0 .59376.46875.89063.453124.28125 1.4375.29687h2.0625q1.046874 0 1.5625-.28124.5-.28126.5-.92188 0-.60938-.484376-.89062-.484374-.28126-1.484374-.28126zm1.71875-8.70312q1.765624 0 2.71875.73438.9375.73437.9375 2.14062 0 1.40625-.921876 2.14062-.921874.73438-2.640624.75h-1.578126q-1.78125 0-2.703124-.73437-.9375-.75-.9375-2.14063 0-1.39062.921874-2.125.921876-.75 2.640626-.76562zm-1.71875 1.70312q-1.0625 0-1.546876.29688-.484374.28125-.484374.89062 0 .59376.46875.89063.453124.28125 1.4375.29687h2.0625q1.046874 0 1.5625-.28124.5-.28126.5-.92188 0-.60938-.484376-.89062-.484374-.28126-1.484374-.28126zm5.25-8.79687v5.84375h-1.15625l-2.953126-2.76562q-.609374-.5625-1.078124-.82813-.46875-.28125-.875-.28125-.578126 0-.890626.29688-.328124.28124-.328124.8125 0 .57812.390624.90624.390626.32813 1.046876.32813v1.70313q-.78125 0-1.421876-.375-.65625-.375-1.015624-1.04688-.375-.6875-.375-1.54688 0-1.3125.640624-2.04687.625-.73437 1.78125-.73437.640626 0 1.296876.32812.65625.32812 1.53125 1.125l2.046874 1.9375v-3.65625z"/><path d="m148.35226 373.42813v5.84375h-1.15625l-2.95312-2.76562q-.60938-.5625-1.07813-.82813-.46875-.28125-.875-.28125-.57812 0-.89062.29688-.32813.28124-.32813.8125 0 .57812.39063.90624.39062.32813 1.04687.32813v1.70313q-.78125 0-1.42187-.375-.65625-.375-1.01563-1.04688-.375-.6875-.375-1.54688 0-1.3125.64063-2.04687.625-.73437 1.78125-.73437.64062 0 1.29687.32812.65625.32812 1.53125 1.125l2.04688 1.9375v-3.65625zm-3.53125-6.90625q1.76563 0 2.71875.73438.9375.73437.9375 2.14062 0 1.40625-.92187 2.14062-.92188.73438-2.64063.75h-1.57812q-1.78125 0-2.70313-.73437-.9375-.75-.9375-2.14063 0-1.39062.92188-2.125.92187-.75 2.64062-.76562zm-1.71875 1.70312q-1.0625 0-1.54687.29688-.48438.28125-.48438.89062 0 .59376.46875.89063.45313.28125 1.4375.29687h2.0625q1.04688 0 1.5625-.28124.5-.28126.5-.92188 0-.60938-.48437-.89062-.48438-.28126-1.48438-.28126zm1.71875-8.70312q1.76563 0 2.71875.73438.9375.73437.9375 2.14062 0 1.40625-.92187 2.14062-.92188.73438-2.64063.75h-1.57812q-1.78125 0-2.70313-.73437-.9375-.75-.9375-2.14063 0-1.39062.92188-2.125.92187-.75 2.64062-.76562zm-1.71875 1.70312q-1.0625 0-1.54687.29688-.48438.28125-.48438.89062 0 .59376.46875.89063.45313.28125 1.4375.29687h2.0625q1.04688 0 1.5625-.28124.5-.28126.5-.92188 0-.60938-.48437-.89062-.48438-.28126-1.48438-.28126zm.23438-4.67187v-.90625q0-.64062-.3125-.95312-.32813-.3125-.85938-.3125-.51562 0-.79687.3125-.29688.29687-.29688.84374 0 .48438.26563.8125.26562.32813.6875.32813v1.6875q-.65625 0-1.1875-.35937-.53125-.35938-.82813-1-.3125-.65626-.3125-1.4375 0-1.34376.65625-2.10938.64063-.78125 1.78125-.78125.59375 0 1.09375.35937.48438.35938.73438.9375.26562-.71874.78125-1.0625.51562-.35937 1.21875-.35937 1.14062 0 1.82812.82813.6875.82812.6875 2.1875 0 1.28124-.67187 2.09374-.6875.8125-1.79688.8125v-1.6875q.48438 0 .79688-.35937.29687-.375.29687-.89063 0-.60937-.3125-.95312-.32812-.34375-.85937-.34375-1.26563 0-1.26563 1.40625v.90625z"/><path d="m170.83862 373.42813v5.84375h-1.15625l-2.95312-2.76562q-.60938-.5625-1.07813-.82813-.46875-.28125-.875-.28125-.57812 0-.89062.29688-.32813.28124-.32813.8125 0 .57812.39063.90624.39062.32813 1.04687.32813v1.70313q-.78125 0-1.42187-.375-.65625-.375-1.01563-1.04688-.375-.6875-.375-1.54688 0-1.3125.64063-2.04687.625-.73437 1.78125-.73437.64062 0 1.29687.32812.65625.32812 1.53125 1.125l2.04688 1.9375v-3.65625zm-3.53125-6.90625q1.76563 0 2.71875.73438.9375.73437.9375 2.14062 0 1.40625-.92187 2.14062-.92188.73438-2.64063.75h-1.57812q-1.78125 0-2.70313-.73437-.9375-.75-.9375-2.14063 0-1.39062.92188-2.125.92187-.75 2.64062-.76562zm-1.71875 1.70312q-1.0625 0-1.54687.29688-.48438.28125-.48438.89062 0 .59376.46875.89063.45313.28125 1.4375.29687h2.0625q1.04688 0 1.5625-.28124.5-.28126.5-.92188 0-.60938-.48437-.89062-.48438-.28126-1.48438-.28126zm1.71875-8.70312q1.76563 0 2.71875.73438.9375.73437.9375 2.14062 0 1.40625-.92187 2.14062-.92188.73438-2.64063.75h-1.57812q-1.78125 0-2.70313-.73437-.9375-.75-.9375-2.14063 0-1.39062.92188-2.125.92187-.75 2.64062-.76562zm-1.71875 1.70312q-1.0625 0-1.54687.29688-.48438.28125-.48438.89062 0 .59376.46875.89063.45313.28125 1.4375.29687h2.0625q1.04688 0 1.5625-.28124.5-.28126.5-.92188 0-.60938-.48437-.89062-.48438-.28126-1.48438-.28126zm2.03125-7.96874v-.96876h1.375v.96876h1.84375v1.70312h-1.84375v3.48438l-1.0625.07812-5.625-3.54688v-1.71874zm0 3.57812v-1.875h-3l.1875.10938z"/><path d="m193.325 373.42813v5.84375h-1.15625l-2.95313-2.76562q-.60937-.5625-1.07812-.82813-.46875-.28125-.875-.28125-.57813 0-.89063.29688-.32812.28124-.32812.8125 0 .57812.39062.90624.39063.32813 1.04688.32813v1.70313q-.78125 0-1.42188-.375-.65625-.375-1.01562-1.04688-.375-.6875-.375-1.54688 0-1.3125.64062-2.04687.625-.73437 1.78125-.73437.64063 0 1.29688.32812.65625.32812 1.53125 1.125l2.04687 1.9375v-3.65625zm-3.53125-6.90625q1.76562 0 2.71875.73438.9375.73437.9375 2.14062 0 1.40625-.92188 2.14062-.92187.73438-2.64062.75h-1.57813q-1.78125 0-2.70312-.73437-.9375-.75-.9375-2.14063 0-1.39062.92187-2.125.92188-.75 2.64063-.76562zm-1.71875 1.70312q-1.0625 0-1.54688.29688-.48437.28125-.48437.89062 0 .59376.46875.89063.45312.28125 1.4375.29687h2.0625q1.04687 0 1.5625-.28124.5-.28126.5-.92188 0-.60938-.48438-.89062-.48437-.28126-1.48437-.28126zm1.71875-8.70312q1.76562 0 2.71875.73438.9375.73437.9375 2.14062 0 1.40625-.92188 2.14062-.92187.73438-2.64062.75h-1.57813q-1.78125 0-2.70312-.73437-.9375-.75-.9375-2.14063 0-1.39062.92187-2.125.92188-.75 2.64063-.76562zm-1.71875 1.70312q-1.0625 0-1.54688.29688-.48437.28125-.48437.89062 0 .59376.46875.89063.45312.28125 1.4375.29687h2.0625q1.04687 0 1.5625-.28124.5-.28126.5-.92188 0-.60938-.48438-.89062-.48437-.28126-1.48437-.28126zm1.04687-3.20312-4.32812-.5v-4.78125h1.40625v3.39063l1.84375.21874q-.32813-.60937-.32813-1.28124 0-1.21876.76563-1.90626.75-.70312 2.10937-.70312.82813 0 1.48438.35938.64062.34374 1.01562 1 .35938.64062.35938 1.53124 0 .76563-.3125 1.4375-.32813.65626-.89063 1.04688-.5625.375-1.29687.40625v-1.6875q.53125-.04687.82812-.35937.29688-.32813.29688-.84376 0-.57812-.40625-.875-.42188-.3125-1.17188-.3125-.73437 0-1.10937.35938-.39063.34375-.39063 1 0 .60938.3125.98438l.15625.15624z"/><path d="m215.81136 373.42813v5.84375h-1.15626l-2.95312-2.76562q-.60938-.5625-1.07812-.82813-.46876-.28125-.875-.28125-.57813 0-.89063.29688-.32813.28124-.32813.8125 0 .57812.39063.90624.39063.32813 1.04687.32813v1.70313q-.78124 0-1.42187-.375-.65625-.375-1.01563-1.04688-.375-.6875-.375-1.54688 0-1.3125.64063-2.04687.625-.73437 1.78125-.73437.64062 0 1.29688.32812.65624.32812 1.53124 1.125l2.04688 1.9375v-3.65625zm-3.53126-6.90625q1.76563 0 2.71876.73438.9375.73437.9375 2.14062 0 1.40625-.92188 2.14062-.92188.73438-2.64062.75h-1.57813q-1.78125 0-2.70313-.73437-.9375-.75-.9375-2.14063 0-1.39062.92188-2.125.92188-.75 2.64062-.76562zm-1.71874 1.70312q-1.0625 0-1.54688.29688-.48438.28125-.48438.89062 0 .59376.46876.89063.45312.28125 1.4375.29687h2.0625q1.04687 0 1.5625-.28124.5-.28126.5-.92188 0-.60938-.48438-.89062-.48438-.28126-1.48438-.28126zm1.71874-8.70312q1.76563 0 2.71876.73438.9375.73437.9375 2.14062 0 1.40625-.92188 2.14062-.92188.73438-2.64062.75h-1.57813q-1.78125 0-2.70313-.73437-.9375-.75-.9375-2.14063 0-1.39062.92188-2.125.92188-.75 2.64062-.76562zm-1.71874 1.70312q-1.0625 0-1.54688.29688-.48438.28125-.48438.89062 0 .59376.46876.89063.45312.28125 1.4375.29687h2.0625q1.04687 0 1.5625-.28124.5-.28126.5-.92188 0-.60938-.48438-.89062-.48438-.28126-1.48438-.28126zm-3.375-7.54687h1.40624v.15625q.01563 1.15625.59376 1.85938.57812.6875 1.60937.82812-.6875-.67188-.6875-1.70312 0-1.125.79687-1.78126.79688-.65624 2.09376-.65624.82812 0 1.5.35937.67187.35937 1.0625 1.03125.375.65625.375 1.48438 0 1.34374-.9375 2.17187-.95313.82813-2.51563.82813h-.60937q-1.39063 0-2.45313-.51563-1.0625-.53125-1.64063-1.5-.57812-.98437-.59374-2.28125zm4.28124 1.65625q0 .40625.21876.75.20312.32812.5625.48438h.51562q.84375 0 1.32812-.32813.46876-.34375.46876-.95313 0-.54687-.42188-.875-.4375-.34374-1.125-.34374-.70312 0-1.125.34374-.42188.34376-.42188.92188z"/><path d="m238.29771 373.42813v5.84375h-1.15625l-2.95312-2.76562q-.60938-.5625-1.07813-.82813-.46875-.28125-.875-.28125-.57812 0-.89062.29688-.32813.28124-.32813.8125 0 .57812.39063.90624.39062.32813 1.04687.32813v1.70313q-.78125 0-1.42187-.375-.65625-.375-1.01563-1.04688-.375-.6875-.375-1.54688 0-1.3125.64063-2.04687.625-.73437 1.78125-.73437.64062 0 1.29687.32812.65625.32812 1.53125 1.125l2.04688 1.9375v-3.65625zm-3.53125-6.90625q1.76563 0 2.71875.73438.9375.73437.9375 2.14062 0 1.40625-.92187 2.14062-.92188.73438-2.64063.75h-1.57812q-1.78125 0-2.70313-.73437-.9375-.75-.9375-2.14063 0-1.39062.92188-2.125.92187-.75 2.64062-.76562zm-1.71875 1.70312q-1.0625 0-1.54687.29688-.48438.28125-.48438.89062 0 .59376.46875.89063.45313.28125 1.4375.29687h2.0625q1.04688 0 1.5625-.28124.5-.28126.5-.92188 0-.60938-.48437-.89062-.48438-.28126-1.48438-.28126zm1.71875-8.70312q1.76563 0 2.71875.73438.9375.73437.9375 2.14062 0 1.40625-.92187 2.14062-.92188.73438-2.64063.75h-1.57812q-1.78125 0-2.70313-.73437-.9375-.75-.9375-2.14063 0-1.39062.92188-2.125.92187-.75 2.64062-.76562zm-1.71875 1.70312q-1.0625 0-1.54687.29688-.48438.28125-.48438.89062 0 .59376.46875.89063.45313.28125 1.4375.29687h2.0625q1.04688 0 1.5625-.28124.5-.28126.5-.92188 0-.60938-.48437-.89062-.48438-.28126-1.48438-.28126zm-2.32812-8.75 7.57812 3.29688v1.78125l-7.15625-3.29687v4.23437h-1.375v-6.01563z"/><path d="m260.7841 373.42813v5.84375h-1.15626l-2.95314-2.76562q-.60936-.5625-1.07811-.82813-.46875-.28125-.875-.28125-.57813 0-.89063.29688-.32812.28124-.32812.8125 0 .57812.39062.90624.39063.32813 1.04688.32813v1.70313q-.78125 0-1.42188-.375-.65625-.375-1.01562-1.04688-.375-.6875-.375-1.54688 0-1.3125.64062-2.04687.625-.73437 1.78125-.73437.64063 0 1.29688.32812.65625.32812 1.53125 1.125l2.04686 1.9375v-3.65625zm-3.53126-6.90625q1.76562 0 2.71876.73438.9375.73437.9375 2.14062 0 1.40625-.9219 2.14062-.92186.73438-2.6406.75h-1.57814q-1.78125 0-2.70312-.73437-.9375-.75-.9375-2.14063 0-1.39062.92187-2.125.92188-.75 2.64063-.76562zm-1.71875 1.70312q-1.0625 0-1.54688.29688-.48437.28125-.48437.89062 0 .59376.46875.89063.45312.28125 1.4375.29687h2.06251q1.04686 0 1.5625-.28124.5-.28126.5-.92188 0-.60938-.4844-.89062-.48436-.28126-1.48436-.28126zm1.71875-8.70312q1.76562 0 2.71876.73438.9375.73437.9375 2.14062 0 1.40625-.9219 2.14062-.92186.73438-2.6406.75h-1.57814q-1.78125 0-2.70312-.73437-.9375-.75-.9375-2.14063 0-1.39062.92187-2.125.92188-.75 2.64063-.76562zm-1.71875 1.70312q-1.0625 0-1.54688.29688-.48437.28125-.48437.89062 0 .59376.46875.89063.45312.28125 1.4375.29687h2.06251q1.04686 0 1.5625-.28124.5-.28126.5-.92188 0-.60938-.4844-.89062-.48436-.28126-1.48436-.28126zm-1.01563-8.51562q.625 0 1.10938.3125.46876.3125.76562.85938.29688-.625.82814-.98438.5156-.375 1.21874-.375 1.14062 0 1.8125.78125.65626.76563.65626 2.10937 0 1.32813-.65626 2.10938-.67188.76562-1.8125.76562-.70314 0-1.23438-.35937-.53126-.35937-.8125-.98437-.29686.54687-.76562.85937-.48438.3125-1.10938.3125-1.09375 0-1.73437-.71875-.65625-.73438-.65625-1.98438 0-1.25.65625-1.96874.64062-.73438 1.73437-.73438zm3.79688 1.51562q-.54688 0-.875.32813-.34374.3125-.34374.85937 0 .54688.3281.875.32814.3125.89064.3125.54686 0 .89062-.3125.32814-.32812.32814-.89062 0-.54688-.3125-.85938-.32814-.3125-.90626-.3125zm-3.71875.17188q-.5 0-.79688.26562-.29687.26563-.29687.75 0 .46876.29687.73438.28125.26562.79688.26562.51562 0 .82812-.26562.3125-.26562.3125-.73438 0-.48437-.3125-.75-.3125-.26562-.82812-.26562z"/><path d="m283.27045 373.4281v5.84375h-1.15625l-2.95313-2.76562q-.60937-.5625-1.07812-.82813-.46875-.28125-.875-.28125-.57813 0-.89063.29688-.32812.28125-.32812.8125 0 .57812.39062.90625.39063.32812 1.04688.32812v1.70313q-.78125 0-1.42188-.375-.65625-.375-1.01562-1.04688-.375-.6875-.375-1.54687 0-1.3125.64062-2.04688.625-.73437 1.78125-.73437.64063 0 1.29688.32812.65625.32813 1.53125 1.125l2.04687 1.9375v-3.65625zm-3.53125-6.90625q1.76562 0 2.71875.73438.9375.73437.9375 2.14062 0 1.40625-.92188 2.14063-.92187.73437-2.64062.75h-1.57813q-1.78125 0-2.70312-.73438-.9375-.75-.9375-2.14062 0-1.39063.92187-2.125.92188-.75 2.64063-.76563zm-1.71875 1.70313q-1.0625 0-1.54688.29687-.48437.28125-.48437.89063 0 .59375.46875.89062.45312.28125 1.4375.29688h2.0625q1.04687 0 1.5625-.28125.5-.28125.5-.92188 0-.60937-.48438-.89062-.48437-.28125-1.48437-.28125zm1.71875-8.70313q1.76562 0 2.71875.73438.9375.73437.9375 2.14062 0 1.40625-.92188 2.14063-.92187.73437-2.64062.75h-1.57813q-1.78125 0-2.70312-.73438-.9375-.75-.9375-2.14062 0-1.39063.92187-2.125.92188-.75 2.64063-.76563zm-1.71875 1.70313q-1.0625 0-1.54688.29687-.48437.28125-.48437.89063 0 .59375.46875.89062.45312.28125 1.4375.29688h2.0625q1.04687 0 1.5625-.28125.5-.28125.5-.92188 0-.60937-.48438-.89062-.48437-.28125-1.48437-.28125zm1.84375-6.92188q.64062.67188.64062 1.54688 0 1.14062-.76562 1.82812-.78125.67188-2.09375.67188-.84375 0-1.54688-.35938-.70312-.375-1.09375-1.03125-.39062-.65625-.39062-1.48437 0-.84375.42187-1.5.42188-.65625 1.21875-1.01563.79688-.35937 1.8125-.375h.625q2.14063 0 3.35938 1.0625 1.21875 1.0625 1.29687 3.01563v.40625h-1.40625l-.01562-.375q-.09375-2.20313-2.0625-2.39063zm-.65625 1.14063q0-.42188-.20313-.70313-.21875-.29687-.51562-.45312h-.6875q-.85938 0-1.32813.32812-.48437.32813-.48437.875 0 .51563.46875.84375.45312.32813 1.15625.32813.70312 0 1.15625-.3125.4375-.32813.4375-.90625z"/><path d="m305.7568 373.42813v5.84375h-1.15624l-2.95313-2.76562q-.60937-.5625-1.07813-.82813-.46874-.28125-.875-.28125-.57812 0-.89062.29688-.32812.28124-.32812.8125 0 .57812.39062.90624.39062.32813 1.04688.32813v1.70313q-.78126 0-1.42188-.375-.65625-.375-1.01562-1.04688-.375-.6875-.375-1.54688 0-1.3125.64062-2.04687.625-.73437 1.78125-.73437.64063 0 1.29687.32812.65626.32812 1.53126 1.125l2.04687 1.9375v-3.65625zm-3.53124-6.90625q1.76562 0 2.71874.73438.9375.73437.9375 2.14062 0 1.40625-.92187 2.14062-.92187.73438-2.64063.75h-1.57812q-1.78125 0-2.70312-.73437-.9375-.75-.9375-2.14063 0-1.39062.92187-2.125.92187-.75 2.64063-.76562zm-1.71876 1.70312q-1.0625 0-1.54687.29688-.48437.28125-.48437.89062 0 .59376.46874.89063.45313.28125 1.4375.29687h2.0625q1.04688 0 1.5625-.28124.5-.28126.5-.92188 0-.60938-.48437-.89062-.48437-.28126-1.48437-.28126zm5.25-7.0625v1.6875h-6.53124l.625 2.01563h-1.375l-1.26563-3.53125v-.17188zm-3.53124-8.64062q1.76562 0 2.71874.73438.9375.73437.9375 2.14062 0 1.40625-.92187 2.14062-.92187.73438-2.64063.75h-1.57812q-1.78125 0-2.70312-.73437-.9375-.75-.9375-2.14063 0-1.39062.92187-2.125.92187-.75 2.64063-.76562zm-1.71876 1.70312q-1.0625 0-1.54687.29688-.48437.28125-.48437.89062 0 .59376.46874.89063.45313.28125 1.4375.29687h2.0625q1.04688 0 1.5625-.28124.5-.28126.5-.92188 0-.60938-.48437-.89062-.48437-.28126-1.48437-.28126z"/><path d="m328.24316 373.42813v5.84375h-1.15626l-2.9531-2.76562q-.6094-.5625-1.07814-.82813-.46876-.28125-.875-.28125-.57812 0-.89062.29688-.32814.28124-.32814.8125 0 .57812.39064.90624.39062.32813 1.04686.32813v1.70313q-.78124 0-1.42186-.375-.65624-.375-1.01564-1.04688-.375-.6875-.375-1.54688 0-1.3125.64064-2.04687.625-.73437 1.78126-.73437.6406 0 1.29686.32812.65624.32812 1.53124 1.125l2.0469 1.9375v-3.65625zm-3.53126-6.90625q1.76564 0 2.71876.73438.9375.73437.9375 2.14062 0 1.40625-.92186 2.14062-.9219.73438-2.64064.75h-1.57812q-1.78124 0-2.70314-.73437-.9375-.75-.9375-2.14063 0-1.39062.9219-2.125.92186-.75 2.6406-.76562zm-1.71874 1.70312q-1.0625 0-1.54686.29688-.4844.28125-.4844.89062 0 .59376.46876.89063.45314.28125 1.4375.29687h2.0625q1.04688 0 1.5625-.28124.5-.28126.5-.92188 0-.60938-.48436-.89062-.4844-.28126-1.4844-.28126zm5.25-7.0625v1.6875h-6.53126l.625 2.01563h-1.375l-1.2656-3.53125v-.17188zm0-7v1.6875h-6.53126l.625 2.01563h-1.375l-1.2656-3.53125v-.17188z"/><path d="m350.72955 373.42813v5.84375h-1.15625l-2.95312-2.76562q-.60938-.5625-1.07813-.82813-.46875-.28125-.875-.28125-.57812 0-.89062.29688-.32813.28124-.32813.8125 0 .57812.39063.90624.39062.32813 1.04687.32813v1.70313q-.78125 0-1.42187-.375-.65625-.375-1.01563-1.04688-.375-.6875-.375-1.54688 0-1.3125.64063-2.04687.625-.73437 1.78125-.73437.64062 0 1.29687.32812.65625.32812 1.53125 1.125l2.04688 1.9375v-3.65625zm-3.53125-6.90625q1.76563 0 2.71875.73438.9375.73437.9375 2.14062 0 1.40625-.92187 2.14062-.92188.73438-2.64063.75h-1.57812q-1.78125 0-2.70313-.73437-.9375-.75-.9375-2.14063 0-1.39062.92188-2.125.92187-.75 2.64062-.76562zm-1.71875 1.70312q-1.0625 0-1.54687.29688-.48438.28125-.48438.89062 0 .59376.46875.89063.45313.28125 1.4375.29687h2.0625q1.04688 0 1.5625-.28124.5-.28126.5-.92188 0-.60938-.48437-.89062-.48438-.28126-1.48438-.28126zm5.25-7.0625v1.6875h-6.53125l.625 2.01563h-1.375l-1.26562-3.53125v-.17188zm0-8.73437v5.84375h-1.15625l-2.95312-2.76562q-.60938-.5625-1.07813-.82813-.46875-.28125-.875-.28125-.57812 0-.89062.29688-.32813.28124-.32813.8125 0 .57812.39063.90624.39062.32813 1.04687.32813v1.70313q-.78125 0-1.42187-.375-.65625-.375-1.01563-1.04688-.375-.6875-.375-1.54688 0-1.3125.64063-2.04687.625-.73437 1.78125-.73437.64062 0 1.29687.32812.65625.32812 1.53125 1.125l2.04688 1.9375v-3.65625z"/><path d="m373.2159 373.42813v5.84375h-1.15624l-2.95312-2.76562q-.60938-.5625-1.07814-.82813-.46874-.28125-.875-.28125-.5781 0-.8906.29688-.32814.28124-.32814.8125 0 .57812.39064.90624.3906.32813 1.04686.32813v1.70313q-.78126 0-1.42186-.375-.65626-.375-1.01564-1.04688-.375-.6875-.375-1.54688 0-1.3125.64064-2.04687.625-.73437 1.78124-.73437.64062 0 1.29686.32812.65626.32812 1.53126 1.125l2.04688 1.9375v-3.65625zm-3.53124-6.90625q1.76564 0 2.71874.73438.9375.73437.9375 2.14062 0 1.40625-.92186 2.14062-.92188.73438-2.64064.75h-1.5781q-1.78126 0-2.70314-.73437-.9375-.75-.9375-2.14063 0-1.39062.92188-2.125.92186-.75 2.64062-.76562zm-1.71876 1.70312q-1.0625 0-1.54686.29688-.48438.28125-.48438.89062 0 .59376.46874.89063.45314.28125 1.4375.29687h2.0625q1.0469 0 1.5625-.28124.5-.28126.5-.92188 0-.60938-.48436-.89062-.48438-.28126-1.48438-.28126zm5.25-7.0625v1.6875h-6.53124l.625 2.01563h-1.375l-1.26562-3.53125v-.17188zm-5.0156-4.60937v-.90625q0-.64062-.3125-.95312-.32814-.3125-.8594-.3125-.5156 0-.79686.3125-.29688.29687-.29688.84374 0 .48438.26564.8125.2656.32813.6875.32813v1.6875q-.65626 0-1.1875-.35937-.53126-.35938-.82814-1-.3125-.65626-.3125-1.4375 0-1.34376.65624-2.10938.64064-.78125 1.78126-.78125.59374 0 1.09374.35937.4844.35938.7344.9375.2656-.71874.78124-1.0625.51562-.35937 1.21876-.35937 1.1406 0 1.8281.82813.6875.82812.6875 2.1875 0 1.28124-.67186 2.09374-.6875.8125-1.79688.8125v-1.6875q.48438 0 .79688-.35937.29686-.375.29686-.89063 0-.60937-.3125-.95312-.3281-.34375-.85936-.34375-1.26564 0-1.26564 1.40625v.90625z"/><path d="m395.70227 373.42813v5.84375h-1.15625l-2.95312-2.76562q-.60938-.5625-1.07813-.82813-.46875-.28125-.875-.28125-.57812 0-.89062.29688-.32813.28124-.32813.8125 0 .57812.39063.90624.39062.32813 1.04687.32813v1.70313q-.78125 0-1.42187-.375-.65625-.375-1.01563-1.04688-.375-.6875-.375-1.54688 0-1.3125.64063-2.04687.625-.73437 1.78125-.73437.64062 0 1.29687.32812.65625.32812 1.53125 1.125l2.04688 1.9375v-3.65625zm-3.53125-6.90625q1.76563 0 2.71875.73438.9375.73437.9375 2.14062 0 1.40625-.92187 2.14062-.92188.73438-2.64063.75h-1.57812q-1.78125 0-2.70313-.73437-.9375-.75-.9375-2.14063 0-1.39062.92188-2.125.92187-.75 2.64062-.76562zm-1.71875 1.70312q-1.0625 0-1.54687.29688-.48438.28125-.48438.89062 0 .59376.46875.89063.45313.28125 1.4375.29687h2.0625q1.04688 0 1.5625-.28124.5-.28126.5-.92188 0-.60938-.48437-.89062-.48438-.28126-1.48438-.28126zm5.25-7.0625v1.6875h-6.53125l.625 2.01563h-1.375l-1.26562-3.53125v-.17188zm-3.21875-7.90624v-.96876h1.375v.96876h1.84375v1.70312h-1.84375v3.48438l-1.0625.07812-5.625-3.54688v-1.71874zm0 3.57812v-1.875h-3l.1875.10938z"/><path d="m418.18863 373.4281v5.84375h-1.15625l-2.95313-2.76562q-.60937-.5625-1.07812-.82813-.46875-.28125-.875-.28125-.57813 0-.89063.29688-.32812.28125-.32812.8125 0 .57812.39062.90625.39063.32812 1.04688.32812v1.70313q-.78125 0-1.42188-.375-.65625-.375-1.01562-1.04688-.375-.6875-.375-1.54687 0-1.3125.64062-2.04688.625-.73437 1.78125-.73437.64063 0 1.29688.32812.65625.32813 1.53125 1.125l2.04687 1.9375v-3.65625zm-3.53125-6.90625q1.76562 0 2.71875.73438.9375.73437.9375 2.14062 0 1.40625-.92188 2.14063-.92187.73437-2.64062.75h-1.57813q-1.78125 0-2.70312-.73438-.9375-.75-.9375-2.14062 0-1.39063.92187-2.125.92188-.75 2.64063-.76563zm-1.71875 1.70313q-1.0625 0-1.54688.29687-.48437.28125-.48437.89063 0 .59375.46875.89062.45312.28125 1.4375.29688h2.0625q1.04687 0 1.5625-.28125.5-.28125.5-.92188 0-.60937-.48438-.89062-.48437-.28125-1.48437-.28125zm5.25-7.0625v1.6875h-6.53125l.625 2.01562h-1.375l-1.26563-3.53125v-.17187zm-4.20313-3.14063-4.32812-.5v-4.78125h1.40625v3.39063l1.84375.21875q-.32813-.60938-.32813-1.28125 0-1.21875.76563-1.90625.75-.70313 2.10937-.70313.82813 0 1.48438.35938.64062.34375 1.01562 1 .35938.64062.35938 1.53125 0 .76562-.3125 1.4375-.32813.65625-.89063 1.04687-.5625.375-1.29687.40625v-1.6875q.53125-.04687.82812-.35937.29688-.32813.29688-.84375 0-.57813-.40625-.875-.42188-.3125-1.17188-.3125-.73437 0-1.10937.35937-.39063.34375-.39063 1 0 .60938.3125.98438l.15625.15625z"/><path d="m440.675 373.42813v5.84375h-1.15626l-2.95314-2.76562q-.60936-.5625-1.0781-.82813-.46876-.28125-.875-.28125-.57814 0-.89064.29688-.32812.28124-.32812.8125 0 .57812.39062.90624.39064.32813 1.04688.32813v1.70313q-.78124 0-1.42188-.375-.65626-.375-1.01562-1.04688-.375-.6875-.375-1.54688 0-1.3125.64062-2.04687.625-.73437 1.78124-.73437.64064 0 1.2969.32812.65624.32812 1.53124 1.125l2.04686 1.9375v-3.65625zm-3.53126-6.90625q1.76562 0 2.71876.73438.9375.73437.9375 2.14062 0 1.40625-.9219 2.14062-.92186.73438-2.6406.75h-1.57814q-1.78126 0-2.70312-.73437-.9375-.75-.9375-2.14063 0-1.39062.92186-2.125.9219-.75 2.64064-.76562zm-1.71874 1.70312q-1.0625 0-1.5469.29688-.48436.28125-.48436.89062 0 .59376.46876.89063.4531.28125 1.4375.29687h2.0625q1.04686 0 1.5625-.28124.5-.28126.5-.92188 0-.60938-.4844-.89062-.48436-.28126-1.48436-.28126zm5.25-7.0625v1.6875h-6.53126l.625 2.01563h-1.375l-1.26564-3.53125v-.17188zm-8.625-7.48434h1.40624v.15624q.01562 1.15626.59376 1.8594.5781.6875 1.60936.8281-.6875-.67186-.6875-1.7031 0-1.125.79688-1.78126.79686-.65624 2.09376-.65624.8281 0 1.5.35936.67186.35938 1.0625 1.03124.375.65626.375 1.4844 0 1.34374-.9375 2.17186-.95314.82814-2.51564.82814h-.60936q-1.39064 0-2.45314-.51564-1.0625-.53126-1.64062-1.5-.57814-.98436-.59374-2.28126zm4.28124 1.65624q0 .40626.21876.75.2031.32814.5625.4844h.5156q.84376 0 1.32814-.32814.46876-.34376.46876-.95312 0-.54688-.4219-.875-.4375-.34374-1.125-.34374-.7031 0-1.125.34374-.42186.34376-.42186.92186z"/><path d="m463.16135 373.42813v5.84375h-1.15625l-2.95313-2.76562q-.60937-.5625-1.07812-.82813-.46875-.28125-.875-.28125-.57813 0-.89063.29688-.32812.28124-.32812.8125 0 .57812.39062.90624.39063.32813 1.04688.32813v1.70313q-.78125 0-1.42188-.375-.65625-.375-1.01562-1.04688-.375-.6875-.375-1.54688 0-1.3125.64062-2.04687.625-.73437 1.78125-.73437.64063 0 1.29688.32812.65625.32812 1.53125 1.125l2.04687 1.9375v-3.65625zm-3.53125-6.90625q1.76562 0 2.71875.73438.9375.73437.9375 2.14062 0 1.40625-.92188 2.14062-.92187.73438-2.64062.75h-1.57813q-1.78125 0-2.70312-.73437-.9375-.75-.9375-2.14063 0-1.39062.92187-2.125.92188-.75 2.64063-.76562zm-1.71875 1.70312q-1.0625 0-1.54688.29688-.48437.28125-.48437.89062 0 .59376.46875.89063.45312.28125 1.4375.29687h2.0625q1.04687 0 1.5625-.28124.5-.28126.5-.92188 0-.60938-.48438-.89062-.48437-.28126-1.48437-.28126zm5.25-7.0625v1.6875h-6.53125l.625 2.01563h-1.375l-1.26563-3.53125v-.17188zm-7.57813-8.6875 7.57813 3.29688v1.78125l-7.15625-3.29687v4.23437h-1.375v-6.01563z"/><path d="m485.64774 373.4281v5.84375h-1.15624l-2.95314-2.76562q-.60936-.5625-1.07812-.82813-.46874-.28125-.875-.28125-.57814 0-.89064.29688-.3281.28125-.3281.8125 0 .57812.3906.90625.39064.32812 1.0469.32812v1.70313q-.78126 0-1.4219-.375-.65624-.375-1.0156-1.04688-.375-.6875-.375-1.54687 0-1.3125.6406-2.04688.625-.73437 1.78126-.73437.64064 0 1.29688.32812.65626.32813 1.53126 1.125l2.04686 1.9375v-3.65625zm-3.53124-6.90625q1.7656 0 2.71874.73438.9375.73437.9375 2.14062 0 1.40625-.92188 2.14063-.92186.73437-2.64062.75h-1.57814q-1.78124 0-2.7031-.73438-.9375-.75-.9375-2.14062 0-1.39063.92186-2.125.92188-.75 2.64064-.76563zm-1.71876 1.70313q-1.0625 0-1.54688.29687-.48436.28125-.48436.89063 0 .59375.46874.89062.45312.28125 1.4375.29688h2.0625q1.04686 0 1.5625-.28125.5-.28125.5-.92188 0-.60937-.48438-.89062-.48436-.28125-1.48436-.28125zm5.25-7.0625v1.6875h-6.53124l.625 2.01562h-1.375l-1.26564-3.53125v-.17187zm-6.26564-8.45313q.625 0 1.1094.3125.46874.3125.7656.85938.2969-.625.82814-.98438.51562-.375 1.21876-.375 1.1406 0 1.8125.78125.65624.76563.65624 2.10938 0 1.32812-.65624 2.10937-.6719.76563-1.8125.76563-.70314 0-1.2344-.35938-.53124-.35937-.8125-.98437-.29686.54687-.7656.85937-.4844.3125-1.1094.3125-1.09374 0-1.73436-.71875-.65624-.73437-.65624-1.98437 0-1.25.65624-1.96875.64062-.73438 1.73436-.73438zm3.7969 1.51563q-.5469 0-.875.32812-.34376.3125-.34376.85938 0 .54687.32812.875.32814.3125.89064.3125.54686 0 .8906-.3125.32814-.32813.32814-.89063 0-.54687-.3125-.85937-.32814-.3125-.90624-.3125zm-3.71876.17187q-.5 0-.79688.26563-.29686.26562-.29686.75 0 .46875.29686.73437.28124.26563.79688.26563.51562 0 .82812-.26563.3125-.26562.3125-.73437 0-.48438-.3125-.75-.3125-.26563-.82812-.26563z"/><path d="m508.1341 373.42813v5.84375h-1.15626l-2.95312-2.76562q-.60938-.5625-1.07812-.82813-.46876-.28125-.875-.28125-.57813 0-.89063.29688-.32813.28124-.32813.8125 0 .57812.39063.90624.39063.32813 1.04687.32813v1.70313q-.78124 0-1.42187-.375-.65625-.375-1.01563-1.04688-.375-.6875-.375-1.54688 0-1.3125.64063-2.04687.625-.73437 1.78125-.73437.64062 0 1.29688.32812.65624.32812 1.53124 1.125l2.04688 1.9375v-3.65625zm-3.53126-6.90625q1.76563 0 2.71876.73438.9375.73437.9375 2.14062 0 1.40625-.92188 2.14062-.92188.73438-2.64062.75h-1.57813q-1.78125 0-2.70313-.73437-.9375-.75-.9375-2.14063 0-1.39062.92188-2.125.92188-.75 2.64062-.76562zm-1.71874 1.70312q-1.0625 0-1.54688.29688-.48438.28125-.48438.89062 0 .59376.46876.89063.45312.28125 1.4375.29687h2.0625q1.04687 0 1.5625-.28124.5-.28126.5-.92188 0-.60938-.48438-.89062-.48438-.28126-1.48438-.28126zm5.25-7.0625v1.6875h-6.53126l.625 2.01563h-1.375l-1.26562-3.53125v-.17188zm-3.40626-6.85937q.64063.67187.64063 1.54687 0 1.14063-.76563 1.82813-.78124.67187-2.09374.67187-.84376 0-1.54688-.35937-.70312-.375-1.09375-1.03125-.39063-.65625-.39063-1.48438 0-.84374.42188-1.5.42188-.65624 1.21875-1.01562.79687-.35938 1.8125-.375h.625q2.14063 0 3.35937 1.0625 1.21876 1.0625 1.29688 3.01562v.40626h-1.40625l-.01563-.375q-.09374-2.20313-2.0625-2.39063zm-.65624 1.14063q0-.42188-.20313-.70313-.21875-.29687-.51563-.45313h-.6875q-.85937 0-1.32812.32813-.48438.32813-.48438.875 0 .51563.46876.84375.45312.32812 1.15624.32812.70313 0 1.15626-.3125.4375-.32812.4375-.90624z"/><path d="m530.6204 373.4281v5.84375h-1.1562l-2.95315-2.76562q-.60935-.5625-1.07815-.82813-.4687-.28125-.875-.28125-.5781 0-.8906.29688-.3281.28125-.3281.8125 0 .57812.3906.90625.3906.32812 1.0469.32812v1.70313q-.7813 0-1.4219-.375-.65625-.375-1.0156-1.04688-.375-.6875-.375-1.54687 0-1.3125.6406-2.04688.625-.73437 1.78125-.73437.64065 0 1.29685.32812.6563.32813 1.5313 1.125l2.04685 1.9375v-3.65625zm-3.5312-6.90625q1.7656 0 2.7187.73438.9375.73437.9375 2.14062 0 1.40625-.92185 2.14063-.92185.73437-2.64065.75h-1.5781q-1.78125 0-2.7031-.73438-.9375-.75-.9375-2.14062 0-1.39063.92185-2.125.92185-.75 2.64065-.76563zm-1.7188 1.70313q-1.0625 0-1.54685.29687-.48435.28125-.48435.89063 0 .59375.4687.89062.45315.28125 1.4375.29688h2.0625q1.0469 0 1.5625-.28125.5-.28125.5-.92188 0-.60937-.48435-.89062-.48435-.28125-1.48435-.28125zm5.25-8.79688v5.84375h-1.1562l-2.95315-2.76562q-.60935-.5625-1.07815-.82813-.4687-.28125-.875-.28125-.5781 0-.8906.29688-.3281.28125-.3281.8125 0 .57812.3906.90625.3906.32812 1.0469.32812v1.70313q-.7813 0-1.4219-.375-.65625-.375-1.0156-1.04688-.375-.6875-.375-1.54687 0-1.3125.6406-2.04688.625-.73437 1.78125-.73437.64065 0 1.29685.32812.6563.32813 1.5313 1.125l2.04685 1.9375v-3.65625zm-3.5312-6.90625q1.7656 0 2.7187.73438.9375.73437.9375 2.14062 0 1.40625-.92185 2.14063-.92185.73437-2.64065.75h-1.5781q-1.78125 0-2.7031-.73438-.9375-.75-.9375-2.14062 0-1.39063.92185-2.125.92185-.75 2.64065-.76563zm-1.7188 1.70313q-1.0625 0-1.54685.29687-.48435.28125-.48435.89063 0 .59375.4687.89062.45315.28125 1.4375.29688h2.0625q1.0469 0 1.5625-.28125.5-.28125.5-.92188 0-.60937-.48435-.89062-.48435-.28125-1.48435-.28125z"/><path d="m553.1068 373.42813v5.84375h-1.15624l-2.95312-2.76562q-.60938-.5625-1.07814-.82813-.46874-.28125-.875-.28125-.5781 0-.8906.29688-.32814.28124-.32814.8125 0 .57812.39064.90624.3906.32813 1.04686.32813v1.70313q-.78126 0-1.42186-.375-.65626-.375-1.01564-1.04688-.375-.6875-.375-1.54688 0-1.3125.64064-2.04687.625-.73437 1.78124-.73437.64062 0 1.29686.32812.65626.32812 1.53126 1.125l2.04688 1.9375v-3.65625zm-3.53124-6.90625q1.76564 0 2.71874.73438.9375.73437.9375 2.14062 0 1.40625-.92186 2.14062-.92188.73438-2.64064.75h-1.5781q-1.78126 0-2.70314-.73437-.9375-.75-.9375-2.14063 0-1.39062.92188-2.125.92186-.75 2.64062-.76562zm-1.71876 1.70312q-1.0625 0-1.54686.29688-.48438.28125-.48438.89062 0 .59376.46874.89063.45314.28125 1.4375.29687h2.0625q1.0469 0 1.5625-.28124.5-.28126.5-.92188 0-.60938-.48436-.89062-.48438-.28126-1.48438-.28126zm5.25-8.79687v5.84375h-1.15624l-2.95312-2.76562q-.60938-.5625-1.07814-.82813-.46874-.28125-.875-.28125-.5781 0-.8906.29688-.32814.28124-.32814.8125 0 .57812.39064.90624.3906.32813 1.04686.32813v1.70313q-.78126 0-1.42186-.375-.65626-.375-1.01564-1.04688-.375-.6875-.375-1.54688 0-1.3125.64064-2.04687.625-.73437 1.78124-.73437.64062 0 1.29686.32812.65626.32812 1.53126 1.125l2.04688 1.9375v-3.65625zm0-5.26563v1.6875h-6.53124l.625 2.01563h-1.375l-1.26562-3.53125v-.17188z"/></g></svg>