<svg fill="none" height="310" stroke-linecap="square" stroke-miterlimit="10" viewBox="0 0 580 310" width="580" xmlns="http://www.w3.org/2000/svg" xmlns:xlink="http://www.w3.org/1999/xlink"><clipPath id="a"><path d="m62.5 23h502v212.16667h-502z"/></clipPath><path d="m0 0h580v310h-580z" fill="none"/><path d="m62.5 235.5h502" stroke="#333" stroke-linecap="butt"/><path d="m62.5 192.5h502" stroke="#ccc" stroke-linecap="butt"/><path d="m62.5 150.5h502" stroke="#ccc" stroke-linecap="butt"/><path d="m62.5 107.5h502" stroke="#ccc" stroke-linecap="butt"/><path d="m62.5 65.5h502" stroke="#ccc" stroke-linecap="butt"/><path d="m62.5 23.5h502" stroke="#ccc" stroke-linecap="butt"/><path d="m62.5 221.5h502"/><path d="m62.5 206.5h502"/><path d="m62.5 178.5h502"/><path d="m62.5 164.5h502"/><path d="m62.5 136.5h502"/><path d="m62.5 122.5h502"/><path d="m62.5 93.5h502"/><path d="m62.5 79.5h502"/><path d="m62.5 51.5h502"/><path d="m62.5 37.5h502"/><path d="m62.5 235.5v-212" stroke="#000" stroke-linecap="butt"/><path clip-path="url(#a)" d="m80 235h-11v-1h11z"/><path clip-path="url(#a)" d="m80 235h-11v-1h11z" fill="#22aefb"/><path clip-path="url(#a)" d="m97 235h-11v-1h11z"/><path clip-path="url(#a)" d="m97 235h-11v-1h11z" fill="#22aefb"/><path clip-path="url(#a)" d="m114 235h-11v-2h11z"/><path clip-path="url(#a)" d="m114 235h-11v-2h11z" fill="#22aefb"/><path clip-path="url(#a)" d="m131 235h-11v-3h11z"/><path clip-path="url(#a)" d="m131 235h-11v-3h11z" fill="#22aefb"/><path clip-path="url(#a)" d="m148 235h-11v-4h11z"/><path clip-path="url(#a)" d="m148 235h-11v-4h11z" fill="#22aefb"/><path clip-path="url(#a)" d="m166 235h-11v-5h11z"/><path clip-path="url(#a)" d="m166 235h-11v-5h11z" fill="#22aefb"/><path clip-path="url(#a)" d="m183 235h-11v-5h11z"/><path clip-path="url(#a)" d="m183 235h-11v-5h11z" fill="#22aefb"/><path clip-path="url(#a)" d="m200 235h-11v-6h11z"/><path clip-path="url(#a)" d="m200 235h-11v-6h11z" fill="#22aefb"/><path clip-path="url(#a)" d="m217 235h-11v-6h11z"/><path clip-path="url(#a)" d="m217 235h-11v-6h11z" fill="#22aefb"/><path clip-path="url(#a)" d="m234 235h-11v-7h11z"/><path clip-path="url(#a)" d="m234 235h-11v-7h11z" fill="#22aefb"/><path clip-path="url(#a)" d="m251 235h-11v-8h11z"/><path clip-path="url(#a)" d="m251 235h-11v-8h11z" fill="#22aefb"/><path clip-path="url(#a)" d="m268 235h-11v-9h11z"/><path clip-path="url(#a)" d="m268 235h-11v-9h11z" fill="#22aefb"/><path clip-path="url(#a)" d="m285 235h-11v-10h11z"/><path clip-path="url(#a)" d="m285 235h-11v-10h11z" fill="#22aefb"/><path clip-path="url(#a)" d="m302 235h-11v-10h11z"/><path clip-path="url(#a)" d="m302 235h-11v-10h11z" fill="#22aefb"/><path clip-path="url(#a)" d="m320 235h-11v-13h11z"/><path clip-path="url(#a)" d="m320 235h-11v-13h11z" fill="#22aefb"/><path clip-path="url(#a)" d="m337 235h-11v-10h11z"/><path clip-path="url(#a)" d="m337 235h-11v-10h11z" fill="#22aefb"/><path clip-path="url(#a)" d="m354 235h-11v-8h11z"/><path clip-path="url(#a)" d="m354 235h-11v-8h11z" fill="#22aefb"/><path clip-path="url(#a)" d="m371 235h-11v-12h11z"/><path clip-path="url(#a)" d="m371 235h-11v-12h11z" fill="#22aefb"/><path clip-path="url(#a)" d="m388 235h-11v-14h11z"/><path clip-path="url(#a)" d="m388 235h-11v-14h11z" fill="#22aefb"/><path clip-path="url(#a)" d="m405 235h-11v-14h11z"/><path clip-path="url(#a)" d="m405 235h-11v-14h11z" fill="#22aefb"/><path clip-path="url(#a)" d="m422 235h-11v-16h11z"/><path clip-path="url(#a)" d="m422 235h-11v-16h11z" fill="#22aefb"/><path clip-path="url(#a)" d="m439 235h-11v-17h11z"/><path clip-path="url(#a)" d="m439 235h-11v-17h11z" fill="#22aefb"/><path clip-path="url(#a)" d="m456 235h-11v-17h11z"/><path clip-path="url(#a)" d="m456 235h-11v-17h11z" fill="#22aefb"/><path clip-path="url(#a)" d="m473 235h-11v-18h11z"/><path clip-path="url(#a)" d="m473 235h-11v-18h11z" fill="#22aefb"/><path clip-path="url(#a)" d="m491 235h-11v-19h11z"/><path clip-path="url(#a)" d="m491 235h-11v-19h11z" fill="#22aefb"/><path clip-path="url(#a)" d="m508 235h-11v-22h11z"/><path clip-path="url(#a)" d="m508 235h-11v-22h11z" fill="#22aefb"/><path clip-path="url(#a)" d="m525 235h-11v-22h11z"/><path clip-path="url(#a)" d="m525 235h-11v-22h11z" fill="#22aefb"/><path clip-path="url(#a)" d="m542 235h-11v-22h11z"/><path clip-path="url(#a)" d="m542 235h-11v-22h11z" fill="#22aefb"/><path clip-path="url(#a)" d="m559 235h-11v-31h11z"/><path clip-path="url(#a)" d="m559 235h-11v-31h11z" fill="#22aefb"/><path clip-path="url(#a)" d="m80 234h-11v-6c0-1.10457.89543-2 2-2h7c1.10457 0 2 .89543 2 2z"/><path clip-path="url(#a)" d="m80 234h-11v-6c0-1.10457.89543-2 2-2h7c1.10457 0 2 .89543 2 2z" fill="#38761d"/><path clip-path="url(#a)" d="m97 234h-11v-5c0-1.10457.89543-2 2-2h7c1.10457 0 2 .89543 2 2z"/><path clip-path="url(#a)" d="m97 234h-11v-5c0-1.10457.89543-2 2-2h7c1.10457 0 2 .89543 2 2z" fill="#38761d"/><path clip-path="url(#a)" d="m114 233h-11v-7c0-1.10457.89543-2 2-2h7c1.10457 0 2 .89543 2 2z"/><path clip-path="url(#a)" d="m114 233h-11v-7c0-1.10457.89543-2 2-2h7c1.10457 0 2 .89543 2 2z" fill="#38761d"/><path clip-path="url(#a)" d="m131 232h-11v-7c0-1.10457.89543-2 2-2h7c1.10457 0 2 .89543 2 2z"/><path clip-path="url(#a)" d="m131 232h-11v-7c0-1.10457.89543-2 2-2h7c1.10457 0 2 .89543 2 2z" fill="#38761d"/><path clip-path="url(#a)" d="m148 231h-11v-10c0-1.10457.89543-2 2-2h7c1.10457 0 2 .89543 2 2z"/><path clip-path="url(#a)" d="m148 231h-11v-10c0-1.10457.89543-2 2-2h7c1.10457 0 2 .89543 2 2z" fill="#38761d"/><path clip-path="url(#a)" d="m166 230h-11v-11c0-1.10457.89543-2 2-2h7c1.10457 0 2 .89543 2 2z"/><path clip-path="url(#a)" d="m166 230h-11v-11c0-1.10457.89543-2 2-2h7c1.10457 0 2 .89543 2 2z" fill="#38761d"/><path clip-path="url(#a)" d="m183 230h-11v-10c0-1.10457.89543-2 2-2h7c1.10457 0 2 .89543 2 2z"/><path clip-path="url(#a)" d="m183 230h-11v-10c0-1.10457.89543-2 2-2h7c1.10457 0 2 .89543 2 2z" fill="#38761d"/><path clip-path="url(#a)" d="m200 229h-11v-11c0-1.10457.89543-2 2-2h7c1.10457 0 2 .89543 2 2z"/><path clip-path="url(#a)" d="m200 229h-11v-11c0-1.10457.89543-2 2-2h7c1.10457 0 2 .89543 2 2z" fill="#38761d"/><path clip-path="url(#a)" d="m217 229h-11v-13c0-1.10457.89543-2 2-2h7c1.10457 0 2 .89543 2 2z"/><path clip-path="url(#a)" d="m217 229h-11v-13c0-1.10457.89543-2 2-2h7c1.10457 0 2 .89543 2 2z" fill="#38761d"/><path clip-path="url(#a)" d="m234 228h-11v-15c0-1.10457.89543-2 2-2h7c1.10457 0 2 .89543 2 2z"/><path clip-path="url(#a)" d="m234 228h-11v-15c0-1.10457.89543-2 2-2h7c1.10457 0 2 .89543 2 2z" fill="#38761d"/><path clip-path="url(#a)" d="m251 227h-11v-18c0-1.10457.89543-2 2-2h7c1.10457 0 2 .89543 2 2z"/><path clip-path="url(#a)" d="m251 227h-11v-18c0-1.10457.89543-2 2-2h7c1.10457 0 2 .89543 2 2z" fill="#38761d"/><path clip-path="url(#a)" d="m268 226h-11v-24c0-1.10457.89542-2 2-2h7c1.10458 0 2 .89543 2 2z"/><path clip-path="url(#a)" d="m268 226h-11v-24c0-1.10457.89542-2 2-2h7c1.10458 0 2 .89543 2 2z" fill="#38761d"/><path clip-path="url(#a)" d="m285 225h-11v-33c0-1.10457.89542-2 2-2h7c1.10458 0 2 .89543 2 2z"/><path clip-path="url(#a)" d="m285 225h-11v-33c0-1.10457.89542-2 2-2h7c1.10458 0 2 .89543 2 2z" fill="#38761d"/><path clip-path="url(#a)" d="m302 225h-11v-38c0-1.10457.89542-2 2-2h7c1.10458 0 2 .89543 2 2z"/><path clip-path="url(#a)" d="m302 225h-11v-38c0-1.10457.89542-2 2-2h7c1.10458 0 2 .89543 2 2z" fill="#38761d"/><path clip-path="url(#a)" d="m320 222h-11v-46c0-1.10457.89542-2 2-2h7c1.10458 0 2 .89543 2 2z"/><path clip-path="url(#a)" d="m320 222h-11v-46c0-1.10457.89542-2 2-2h7c1.10458 0 2 .89543 2 2z" fill="#38761d"/><path clip-path="url(#a)" d="m337 225h-11v-52c0-1.10457.89542-2 2-2h7c1.10458 0 2 .89543 2 2z"/><path clip-path="url(#a)" d="m337 225h-11v-52c0-1.10457.89542-2 2-2h7c1.10458 0 2 .89543 2 2z" fill="#38761d"/><path clip-path="url(#a)" d="m354 227h-11v-42c0-1.10457.89542-2 2-2h7c1.10458 0 2 .89543 2 2z"/><path clip-path="url(#a)" d="m354 227h-11v-42c0-1.10457.89542-2 2-2h7c1.10458 0 2 .89543 2 2z" fill="#38761d"/><path clip-path="url(#a)" d="m371 223h-11v-55c0-1.10457.89542-2 2-2h7c1.10458 0 2 .89543 2 2z"/><path clip-path="url(#a)" d="m371 223h-11v-55c0-1.10457.89542-2 2-2h7c1.10458 0 2 .89543 2 2z" fill="#38761d"/><path clip-path="url(#a)" d="m388 221h-11v-70c0-1.10457.89542-2 2-2h7c1.10458 0 2 .89543 2 2z"/><path clip-path="url(#a)" d="m388 221h-11v-70c0-1.10457.89542-2 2-2h7c1.10458 0 2 .89543 2 2z" fill="#38761d"/><path clip-path="url(#a)" d="m405 221h-11v-82c0-1.10457.89542-2 2-2h7c1.10458 0 2 .89543 2 2z"/><path clip-path="url(#a)" d="m405 221h-11v-82c0-1.10457.89542-2 2-2h7c1.10458 0 2 .89543 2 2z" fill="#38761d"/><path clip-path="url(#a)" d="m422 219h-11v-83c0-1.10457.89542-2 2-2h7c1.10458 0 2 .89543 2 2z"/><path clip-path="url(#a)" d="m422 219h-11v-83c0-1.10457.89542-2 2-2h7c1.10458 0 2 .89543 2 2z" fill="#38761d"/><path clip-path="url(#a)" d="m439 218h-11v-86c0-1.10457.89542-2 2-2h7c1.10458 0 2 .89543 2 2z"/><path clip-path="url(#a)" d="m439 218h-11v-86c0-1.10457.89542-2 2-2h7c1.10458 0 2 .89543 2 2z" fill="#38761d"/><path clip-path="url(#a)" d="m456 218h-11v-87c0-1.10457.89542-2 2-2h7c1.10458 0 2 .89543 2 2z"/><path clip-path="url(#a)" d="m456 218h-11v-87c0-1.10457.89542-2 2-2h7c1.10458 0 2 .89543 2 2z" fill="#38761d"/><path clip-path="url(#a)" d="m473 217h-11v-87c0-1.10457.89542-2 2-2h7c1.10458 0 2 .89543 2 2z"/><path clip-path="url(#a)" d="m473 217h-11v-87c0-1.10457.89542-2 2-2h7c1.10458 0 2 .89543 2 2z" fill="#38761d"/><path clip-path="url(#a)" d="m491 216h-11v-97c0-1.10457.89542-2 2-2h7c1.10458 0 2 .89543 2 2z"/><path clip-path="url(#a)" d="m491 216h-11v-97c0-1.10457.89542-2 2-2h7c1.10458 0 2 .89543 2 2z" fill="#38761d"/><path clip-path="url(#a)" d="m508 213h-11v-107c0-1.10457.89542-2 2-2h7c1.10458 0 2 .89543 2 2z"/><path clip-path="url(#a)" d="m508 213h-11v-107c0-1.10457.89542-2 2-2h7c1.10458 0 2 .89543 2 2z" fill="#38761d"/><path clip-path="url(#a)" d="m525 213h-11v-108c0-1.10457.89545-2 2-2h7c1.10455 0 2 .89543 2 2z"/><path clip-path="url(#a)" d="m525 213h-11v-108c0-1.10457.89545-2 2-2h7c1.10455 0 2 .89543 2 2z" fill="#38761d"/><path clip-path="url(#a)" d="m542 213h-11v-111c0-1.10457.89545-2 2-2h7c1.10455 0 2 .89543 2 2z"/><path clip-path="url(#a)" d="m542 213h-11v-111c0-1.10457.89545-2 2-2h7c1.10455 0 2 .89543 2 2z" fill="#38761d"/><path clip-path="url(#a)" d="m559 204h-11v-137c0-1.10457.89545-2 2-2h7c1.10455 0 2 .89543 2 2z"/><path clip-path="url(#a)" d="m559 204h-11v-137c0-1.10457.89545-2 2-2h7c1.10455 0 2 .89543 2 2z" fill="#38761d"/><path d="m56.5 235.5h12" stroke="#000" stroke-linecap="butt"/><path d="m56.5 192.5h12" stroke="#000" stroke-linecap="butt"/><path d="m56.5 150.5h12" stroke="#000" stroke-linecap="butt"/><path d="m56.5 107.5h12" stroke="#000" stroke-linecap="butt"/><path d="m56.5 65.5h12" stroke="#000" stroke-linecap="butt"/><path d="m56.5 23.5h12" stroke="#000" stroke-linecap="butt"/><g fill="#000"><path d="m49.5625 236.02605q0 1.90625-.65625 2.84375-.640625.92187-2.03125.92187-1.359375 0-2.015625-.90625-.65625-.90625-.6875-2.71875v-1.4375q0-1.89062.640625-2.79687.65625-.92188 2.046875-.92188 1.375 0 2.03125.89063.65625.875.671875 2.71875zm-1.09375-1.48438q0-1.375-.390625-2-.375-.64062-1.21875-.64062-.828125 0-1.21875.64062-.375.625-.375 1.92188v1.73437q0 1.375.390625 2.04688.40625.65625 1.21875.65625.796875 0 1.1875-.625.390625-.625.40625-1.95313z"/><path d="m23.703125 192.95209.4375-4.25h4.375v1h-3.453125l-.265625 2.32812q.640625-.375 1.4375-.375 1.15625 0 1.84375.78125.6875.76563.6875 2.07813 0 1.3125-.71875 2.07812-.703125.76563-1.984375.76563-1.125 0-1.84375-.625-.71875-.64063-.8125-1.75h1.015625q.109375.73437.53125 1.10937.421875.375 1.109375.375.75 0 1.1875-.51562.4375-.51563.4375-1.42188 0-.85937-.46875-1.375-.46875-.51562-1.25-.51562-.703125 0-1.109375.29687l-.28125.23438zm11.859375.64062q0 1.90625-.65625 2.84375-.640625.92188-2.03125.92188-1.359375 0-2.015625-.90625-.65625-.90625-.6875-2.71875v-1.4375q0-1.89063.640625-2.79688.65625-.92187 2.046875-.92187 1.375 0 2.03125.89062.65625.875.671875 2.71875zm-1.09375-1.48437q0-1.375-.390625-2-.375-.64063-1.21875-.64063-.828125 0-1.21875.64063-.375.625-.375 1.92187v1.73438q0 1.375.390625 2.04687.40625.65625 1.21875.65625.796875 0 1.1875-.625.390625-.625.40625-1.95312zm8.09375 1.48437q0 1.90625-.65625 2.84375-.640625.92188-2.03125.92188-1.359375 0-2.015625-.90625-.65625-.90625-.6875-2.71875v-1.4375q0-1.89063.640625-2.79688.65625-.92187 2.046875-.92187 1.375 0 2.03125.89062.65625.875.671875 2.71875zm-1.09375-1.48437q0-1.375-.390625-2-.375-.64063-1.21875-.64063-.828125 0-1.21875.64063-.375.625-.375 1.92187v1.73438q0 1.375.390625 2.04687.40625.65625 1.21875.65625.796875 0 1.1875-.625.390625-.625.40625-1.95312zm8.09375 1.48437q0 1.90625-.65625 2.84375-.640625.92188-2.03125.92188-1.359375 0-2.015625-.90625-.65625-.90625-.6875-2.71875v-1.4375q0-1.89063.640625-2.79688.65625-.92187 2.046875-.92187 1.375 0 2.03125.89062.65625.875.671875 2.71875zm-1.09375-1.48437q0-1.375-.390625-2-.375-.64063-1.21875-.64063-.828125 0-1.21875.64063-.375.625-.375 1.92187v1.73438q0 1.375.390625 2.04687.40625.65625 1.21875.65625.796875 0 1.1875-.625.390625-.625.40625-1.95312z"/><path d="m19.765625 154.8h-1.078125v-7.21875l-2.1875.79688v-.98438l3.109375-1.17187h.15625zm8.796875-3.64062q0 1.90625-.65625 2.84375-.640625.92187-2.03125.92187-1.359375 0-2.015625-.90625-.65625-.90625-.6875-2.71875v-1.4375q0-1.89062.640625-2.79687.65625-.92188 2.046875-.92188 1.375 0 2.03125.89063.65625.875.671875 2.71875zm-1.09375-1.48438q0-1.375-.390625-2-.375-.64062-1.21875-.64062-.828125 0-1.21875.64062-.375.625-.375 1.92188v1.73437q0 1.375.390625 2.04688.40625.65625 1.21875.65625.796875 0 1.1875-.625.390625-.625.40625-1.95313zm8.09375 1.48438q0 1.90625-.65625 2.84375-.640625.92187-2.03125.92187-1.359375 0-2.015625-.90625-.65625-.90625-.6875-2.71875v-1.4375q0-1.89062.640625-2.79687.65625-.92188 2.046875-.92188 1.375 0 2.03125.89063.65625.875.671875 2.71875zm-1.09375-1.48438q0-1.375-.390625-2-.375-.64062-1.21875-.64062-.828125 0-1.21875.64062-.375.625-.375 1.92188v1.73437q0 1.375.390625 2.04688.40625.65625 1.21875.65625.796875 0 1.1875-.625.390625-.625.40625-1.95313zm8.09375 1.48438q0 1.90625-.65625 2.84375-.640625.92187-2.03125.92187-1.359375 0-2.015625-.90625-.65625-.90625-.6875-2.71875v-1.4375q0-1.89062.640625-2.79687.65625-.92188 2.046875-.92188 1.375 0 2.03125.89063.65625.875.671875 2.71875zm-1.09375-1.48438q0-1.375-.390625-2-.375-.64062-1.21875-.64062-.828125 0-1.21875.64062-.375.625-.375 1.92188v1.73437q0 1.375.390625 2.04688.40625.65625 1.21875.65625.796875 0 1.1875-.625.390625-.625.40625-1.95313zm8.09375 1.48438q0 1.90625-.65625 2.84375-.640625.92187-2.03125.92187-1.359375 0-2.015625-.90625-.65625-.90625-.6875-2.71875v-1.4375q0-1.89062.640625-2.79687.65625-.92188 2.046875-.92188 1.375 0 2.03125.89063.65625.875.671875 2.71875zm-1.09375-1.48438q0-1.375-.390625-2-.375-.64062-1.21875-.64062-.828125 0-1.21875.64062-.375.625-.375 1.92188v1.73437q0 1.375.390625 2.04688.40625.65625 1.21875.65625.796875 0 1.1875-.625.390625-.625.40625-1.95313z"/><path d="m19.765625 112.36667h-1.078125v-7.21875l-2.1875.79687v-.98437l3.109375-1.17188h.15625zm3.9375-4.28125.4375-4.25h4.375v1h-3.453125l-.265625 2.32812q.640625-.375 1.4375-.375 1.15625 0 1.84375.78125.6875.76563.6875 2.07813 0 1.3125-.71875 2.07812-.703125.76563-1.984375.76563-1.125 0-1.84375-.625-.71875-.64063-.8125-1.75h1.015625q.109375.73437.53125 1.10937.421875.375 1.109375.375.75 0 1.1875-.51562.4375-.51563.4375-1.42188 0-.85937-.46875-1.375-.46875-.51562-1.25-.51562-.703125 0-1.109375.29687l-.28125.23438zm11.859375.64062q0 1.90625-.65625 2.84375-.640625.92188-2.03125.92188-1.359375 0-2.015625-.90625-.65625-.90625-.6875-2.71875v-1.4375q0-1.89063.640625-2.79688.65625-.92187 2.046875-.92187 1.375 0 2.03125.89062.65625.875.671875 2.71875zm-1.09375-1.48437q0-1.375-.390625-2-.375-.64063-1.21875-.64063-.828125 0-1.21875.64063-.375.625-.375 1.92187v1.73438q0 1.375.390625 2.04687.40625.65625 1.21875.65625.796875 0 1.1875-.625.390625-.625.40625-1.95312zm8.09375 1.48437q0 1.90625-.65625 2.84375-.640625.92188-2.03125.92188-1.359375 0-2.015625-.90625-.65625-.90625-.6875-2.71875v-1.4375q0-1.89063.640625-2.79688.65625-.92187 2.046875-.92187 1.375 0 2.03125.89062.65625.875.671875 2.71875zm-1.09375-1.48437q0-1.375-.390625-2-.375-.64063-1.21875-.64063-.828125 0-1.21875.64063-.375.625-.375 1.92187v1.73438q0 1.375.390625 2.04687.40625.65625 1.21875.65625.796875 0 1.1875-.625.390625-.625.40625-1.95312zm8.09375 1.48437q0 1.90625-.65625 2.84375-.640625.92188-2.03125.92188-1.359375 0-2.015625-.90625-.65625-.90625-.6875-2.71875v-1.4375q0-1.89063.640625-2.79688.65625-.92187 2.046875-.92187 1.375 0 2.03125.89062.65625.875.671875 2.71875zm-1.09375-1.48437q0-1.375-.390625-2-.375-.64063-1.21875-.64063-.828125 0-1.21875.64063-.375.625-.375 1.92187v1.73438q0 1.375.390625 2.04687.40625.65625 1.21875.65625.796875 0 1.1875-.625.390625-.625.40625-1.95312z"/><path d="m21.796875 69.933334h-5.59375v-.78125l2.953125-3.28125q.65625-.75.90625-1.203124.25-.46875.25-.96875 0-.671876-.40625-1.09375-.390625-.4375-1.078125-.4375-.796875 0-1.25.46875-.453125.453124-.453125 1.28125h-1.078125q0-1.1875.75-1.90625.765625-.734376 2.03125-.734376 1.203125 0 1.890625.625.6875.625.6875 1.671876 0 1.25-1.609375 3l-2.28125 2.46875h4.28125zm6.765625-3.640624q0 1.90625-.65625 2.84375-.640625.921874-2.03125.921874-1.359375 0-2.015625-.90625-.65625-.90625-.6875-2.71875v-1.4375q0-1.890624.640625-2.796874.65625-.921876 2.046875-.921876 1.375 0 2.03125.890626.65625.875.671875 2.71875zm-1.09375-1.484376q0-1.375-.390625-2-.375-.640624-1.21875-.640624-.828125 0-1.21875.640624-.375.625-.375 1.921876v1.734374q0 1.375.390625 2.046876.40625.65625 1.21875.65625.796875 0 1.1875-.625.390625-.625.40625-1.953126zm8.09375 1.484376q0 1.90625-.65625 2.84375-.640625.921874-2.03125.921874-1.359375 0-2.015625-.90625-.65625-.90625-.6875-2.71875v-1.4375q0-1.890624.640625-2.796874.65625-.921876 2.046875-.921876 1.375 0 2.03125.890626.65625.875.671875 2.71875zm-1.09375-1.484376q0-1.375-.390625-2-.375-.640624-1.21875-.640624-.828125 0-1.21875.640624-.375.625-.375 1.921876v1.734374q0 1.375.390625 2.046876.40625.65625 1.21875.65625.796875 0 1.1875-.625.390625-.625.40625-1.953126zm8.09375 1.484376q0 1.90625-.65625 2.84375-.640625.921874-2.03125.921874-1.359375 0-2.015625-.90625-.65625-.90625-.6875-2.71875v-1.4375q0-1.890624.640625-2.796874.65625-.921876 2.046875-.921876 1.375 0 2.03125.890626.65625.875.671875 2.71875zm-1.09375-1.484376q0-1.375-.390625-2-.375-.640624-1.21875-.640624-.828125 0-1.21875.640624-.375.625-.375 1.921876v1.734374q0 1.375.390625 2.046876.40625.65625 1.21875.65625.796875 0 1.1875-.625.390625-.625.40625-1.953126zm8.09375 1.484376q0 1.90625-.65625 2.84375-.640625.921874-2.03125.921874-1.359375 0-2.015625-.90625-.65625-.90625-.6875-2.71875v-1.4375q0-1.890624.640625-2.796874.65625-.921876 2.046875-.921876 1.375 0 2.03125.890626.65625.875.671875 2.71875zm-1.09375-1.484376q0-1.375-.390625-2-.375-.640624-1.21875-.640624-.828125 0-1.21875.640624-.375.625-.375 1.921876v1.734374q0 1.375.390625 2.046876.40625.65625 1.21875.65625.796875 0 1.1875-.625.390625-.625.40625-1.953126z"/><path d="m21.796875 27.5h-5.59375v-.78125l2.953125-3.28125q.65625-.75.90625-1.203125.25-.46875.25-.96875 0-.671875-.40625-1.09375-.390625-.4375-1.078125-.4375-.796875 0-1.25.46875-.453125.453125-.453125 1.28125h-1.078125q0-1.1875.75-1.90625.765625-.734375 2.03125-.734375 1.203125 0 1.890625.625.6875.625.6875 1.671875 0 1.25-1.609375 3l-2.28125 2.46875h4.28125zm1.90625-4.28125.4375-4.25h4.375v1h-3.453125l-.265625 2.328125q.640625-.375 1.4375-.375 1.15625 0 1.84375.78125.6875.765625.6875 2.078125 0 1.3125-.71875 2.078125-.703125.765625-1.984375.765625-1.125 0-1.84375-.625-.71875-.640625-.8125-1.75h1.015625q.109375.734375.53125 1.109375.421875.375 1.109375.375.75 0 1.1875-.515625.4375-.515625.4375-1.421875 0-.859375-.46875-1.375-.46875-.515625-1.25-.515625-.703125 0-1.109375.296875l-.28125.234375zm11.859375.640625q0 1.90625-.65625 2.84375-.640625.921875-2.03125.921875-1.359375 0-2.015625-.90625-.65625-.90625-.6875-2.71875v-1.4375q0-1.890625.640625-2.796875.65625-.921875 2.046875-.921875 1.375 0 2.03125.890625.65625.875.671875 2.71875zm-1.09375-1.484375q0-1.375-.390625-2-.375-.640625-1.21875-.640625-.828125 0-1.21875.640625-.375.625-.375 1.921875v1.734375q0 1.375.390625 2.046875.40625.65625 1.21875.65625.796875 0 1.1875-.625.390625-.625.40625-1.953125zm8.09375 1.484375q0 1.90625-.65625 2.84375-.640625.921875-2.03125.921875-1.359375 0-2.015625-.90625-.65625-.90625-.6875-2.71875v-1.4375q0-1.890625.640625-2.796875.65625-.921875 2.046875-.921875 1.375 0 2.03125.890625.65625.875.671875 2.71875zm-1.09375-1.484375q0-1.375-.390625-2-.375-.640625-1.21875-.640625-.828125 0-1.21875.640625-.375.625-.375 1.921875v1.734375q0 1.375.390625 2.046875.40625.65625 1.21875.65625.796875 0 1.1875-.625.390625-.625.40625-1.953125zm8.09375 1.484375q0 1.90625-.65625 2.84375-.640625.921875-2.03125.921875-1.359375 0-2.015625-.90625-.65625-.90625-.6875-2.71875v-1.4375q0-1.890625.640625-2.796875.65625-.921875 2.046875-.921875 1.375 0 2.03125.890625.65625.875.671875 2.71875zm-1.09375-1.484375q0-1.375-.390625-2-.375-.640625-1.21875-.640625-.828125 0-1.21875.640625-.375.625-.375 1.921875v1.734375q0 1.375.390625 2.046875.40625.65625 1.21875.65625.796875 0 1.1875-.625.390625-.625.40625-1.953125z"/><path d="m78.54516 264.47916v1.6875h-6.53125l.625 2.01562h-1.375l-1.26563-3.53125v-.17187zm-3.40625-6.85938q.64062.67188.64062 1.54688 0 1.14062-.76562 1.82812-.78125.67188-2.09375.67188-.84375 0-1.54688-.35938-.70312-.375-1.09375-1.03125-.39062-.65625-.39062-1.48437 0-.84376.42187-1.5.42188-.65626 1.21875-1.01563.79688-.35937 1.8125-.375h.625q2.14063 0 3.35938 1.0625 1.21875 1.0625 1.29687 3.01563v.40624h-1.40625l-.01562-.375q-.09375-2.20312-2.0625-2.39062zm-.65625 1.14062q0-.42187-.20313-.70312-.21875-.29688-.51562-.45312h-.6875q-.85938 0-1.32813.32812-.48437.32812-.48437.875 0 .51562.46875.84375.45312.32813 1.15625.32813.70312 0 1.15625-.3125.4375-.32813.4375-.90626zm.65625-8.14062q.64062.67188.64062 1.54688 0 1.14062-.76562 1.82812-.78125.67188-2.09375.67188-.84375 0-1.54688-.35938-.70312-.375-1.09375-1.03125-.39062-.65625-.39062-1.48437 0-.84376.42187-1.5.42188-.65626 1.21875-1.01563.79688-.35937 1.8125-.375h.625q2.14063 0 3.35938 1.0625 1.21875 1.0625 1.29687 3.01563v.40624h-1.40625l-.01562-.375q-.09375-2.20312-2.0625-2.39062zm-.65625 1.14062q0-.42187-.20313-.70312-.21875-.29688-.51562-.45312h-.6875q-.85938 0-1.32813.32812-.48437.32812-.48437.875 0 .51562.46875.84375.45312.32813 1.15625.32813.70312 0 1.15625-.3125.4375-.32813.4375-.90626zm-.95313-5.89062v-.90625q0-.64063-.3125-.95313-.32812-.3125-.85937-.3125-.51563 0-.79688.3125-.29687.29688-.29687.84376 0 .48437.26562.8125.26563.32812.6875.32812v1.6875q-.65625 0-1.1875-.35938-.53125-.35937-.82812-1-.3125-.65624-.3125-1.4375 0-1.34374.65625-2.10937.64062-.78125 1.78125-.78125.59375 0 1.09375.35938.48437.35937.73437.9375.26563-.71876.78125-1.0625.51563-.35938 1.21875-.35938 1.14063 0 1.82813.82812.6875.82813.6875 2.1875 0 1.28126-.67188 2.09376-.6875.8125-1.79687.8125v-1.6875q.48437 0 .79687-.35938.29688-.375.29688-.89062 0-.60938-.3125-.95313-.32813-.34375-.85938-.34375-1.26562 0-1.26562 1.40625v.90625z"/><path d="m95.64907 264.47916v1.6875h-6.53125l.625 2.01562h-1.375l-1.265624-3.53125v-.17187zm-3.40625-6.85938q.640626.67188.640626 1.54688 0 1.14062-.765626 1.82812-.78125.67188-2.09375.67188-.84375 0-1.546874-.35938-.703126-.375-1.09375-1.03125-.390626-.65625-.390626-1.48437 0-.84376.421876-1.5.421874-.65626 1.21875-1.01563.796874-.35937 1.8125-.375h.625q2.140624 0 3.359374 1.0625 1.21875 1.0625 1.296876 3.01563v.40624h-1.40625l-.015626-.375q-.09375-2.20312-2.0625-2.39062zm-.65625 1.14062q0-.42187-.203124-.70312-.21875-.29688-.515626-.45312h-.6875q-.859374 0-1.328124.32812-.484376.32812-.484376.875 0 .51562.46875.84375.453126.32813 1.15625.32813.703126 0 1.15625-.3125.4375-.32813.4375-.90626zm.65625-8.14062q.640626.67188.640626 1.54688 0 1.14062-.765626 1.82812-.78125.67188-2.09375.67188-.84375 0-1.546874-.35938-.703126-.375-1.09375-1.03125-.390626-.65625-.390626-1.48437 0-.84376.421876-1.5.421874-.65626 1.21875-1.01563.796874-.35937 1.8125-.375h.625q2.140624 0 3.359374 1.0625 1.21875 1.0625 1.296876 3.01563v.40624h-1.40625l-.015626-.375q-.09375-2.20312-2.0625-2.39062zm-.65625 1.14062q0-.42187-.203124-.70312-.21875-.29688-.515626-.45312h-.6875q-.859374 0-1.328124.32812-.484376.32812-.484376.875 0 .51562.46875.84375.453126.32813 1.15625.32813.703126 0 1.15625-.3125.4375-.32813.4375-.90626zm.84375-9.1875v-.96874h1.375v.96874h1.84375v1.70313h-1.84375v3.48437l-1.0625.07813-5.625-3.54687v-1.71876zm0 3.57813v-1.875h-3l.1875.10937z"/><path d="m112.75299 264.47916v1.6875h-6.53125l.625 2.01562h-1.375l-1.265624-3.53125v-.17187zm-3.40625-6.85938q.640626.67188.640626 1.54688 0 1.14062-.765626 1.82812-.78125.67188-2.09375.67188-.84375 0-1.546874-.35938-.703126-.375-1.09375-1.03125-.390626-.65625-.390626-1.48437 0-.84376.421876-1.5.421874-.65626 1.21875-1.01563.796874-.35936 1.8125-.37498h.625q2.140624 0 3.359374 1.06248 1.21875 1.0625 1.296876 3.01563v.40624h-1.40625l-.015626-.375q-.09375-2.20312-2.0625-2.39062zm-.65625 1.14062q0-.42187-.203124-.70312-.21875-.29688-.515626-.45312h-.6875q-.859374 0-1.328124.32812-.484376.32812-.484376.875 0 .51562.46875.84375.453126.32813 1.15625.32813.703126 0 1.15625-.3125.4375-.32813.4375-.90626zm.65625-8.1406q.640626.67187.640626 1.54687 0 1.14063-.765626 1.82813-.78125.67187-2.09375.67187-.84375 0-1.546874-.35937-.703126-.375-1.09375-1.03125-.390626-.65625-.390626-1.48438 0-.84375.421876-1.5.421874-.65625 1.21875-1.01562.796874-.35938 1.8125-.375h.625q2.140624 0 3.359374 1.0625 1.21875 1.0625 1.296876 3.01562v.40625h-1.40625l-.015626-.375q-.09375-2.20312-2.0625-2.39062zm-.65625 1.14062q0-.42187-.203124-.70312-.21875-.29688-.515626-.45313h-.6875q-.859374 0-1.328124.32813-.484376.32812-.484376.875 0 .51562.46875.84375.453126.32812 1.15625.32812.703126 0 1.15625-.3125.4375-.32812.4375-.90625zm-.140624-4.42187-4.328126-.5v-4.78125h1.40625v3.39062l1.84375.21875q-.328124-.60937-.328124-1.28125 0-1.21875.765624-1.90625.75-.70312 2.109376-.70312.828124 0 1.484374.35937.640626.34375 1.015626 1 .359374.64063.359374 1.53125 0 .76563-.3125 1.4375-.328124.65625-.890624 1.04688-.5625.375-1.296876.40625v-1.6875q.53125-.04688.828126-.35938.296874-.32812.296874-.84375 0-.57812-.40625-.875-.421874-.3125-1.171874-.3125-.734376 0-1.109376.35938-.390624.34375-.390624 1 0 .60937.3125.98437l.15625.15625z"/><path d="m129.8569 264.4792v1.6875h-6.53124l.625 2.0156h-1.375l-1.265624-3.53124v-.17186zm-3.40624-6.8594q.640626.6719.640626 1.5469 0 1.1406-.765626 1.8281-.78125.6719-2.09375.6719-.84375 0-1.546874-.3594-.703126-.375-1.09375-1.03124-.390626-.65626-.390626-1.48436 0-.84376.421876-1.5.421874-.65626 1.21875-1.01564.796874-.35939 1.8125-.37501h.625q2.140624 0 3.359364 1.06251 1.21875 1.0625 1.29688 3.01564v.40624h-1.40625l-.01563-.375q-.09375-2.20314-2.06249-2.39064zm-.65625 1.14064q0-.42188-.203124-.70314-.21875-.29686-.515626-.4531h-.6875q-.859374 0-1.328124.3281-.484376.32814-.484376.875 0 .51564.46875.84376.453126.32814 1.15625.32814.703126 0 1.15625-.3125.4375-.32814.4375-.90626zm.65625-8.14064q.640626.67187.640626 1.54687 0 1.14063-.765626 1.82813-.78125.67187-2.09375.67187-.84375 0-1.546874-.35937-.703126-.375-1.09375-1.03125-.390626-.65625-.390626-1.48438 0-.84375.421876-1.5.421874-.65625 1.21875-1.01562.796874-.35938 1.8125-.375h.625q2.140624 0 3.359364 1.0625 1.21875 1.0625 1.29688 3.01562v.40625h-1.40625l-.01563-.375q-.09375-2.20312-2.06249-2.39062zm-.65625 1.14062q0-.42187-.203124-.70312-.21875-.29688-.515626-.45313h-.6875q-.859374 0-1.328124.32813-.484376.32812-.484376.875 0 .51562.46875.84375.453126.32812 1.15625.32812.703126 0 1.15625-.3125.4375-.32812.4375-.90625zm-4.5625-8.76562h1.40625v.15625q.015626 1.15625.59375 1.85937.578126.6875 1.609376.82813-.6875-.67188-.6875-1.70313 0-1.125.796874-1.78125.796876-.65625 2.09375-.65625.828126 0 1.49999.35938.67188.35937 1.0625 1.03125.375.65625.375 1.48437 0 1.34375-.9375 2.17188-.95312.82812-2.515614.82812h-.609376q-1.390624 0-2.453124-.51562-1.0625-.53125-1.640626-1.5-.578124-.98438-.59375-2.28125zm4.28125 1.65625q0 .40625.21875.75.203126.32812.5625.48437h.515626q.84375 0 1.328114-.32812.46875-.34375.46875-.95313 0-.54687-.42187-.875-.437494-.34375-1.124994-.34375-.703126 0-1.125.34375-.421876.34375-.421876.92188z"/><path d="m146.96083 264.47916v1.6875h-6.53125l.625 2.01562h-1.375l-1.26562-3.53125v-.17187zm-3.40625-6.85938q.64062.67188.64062 1.54688 0 1.14062-.76562 1.82812-.78125.67188-2.09375.67188-.84375 0-1.54687-.35938-.70313-.375-1.09376-1.03125-.39062-.65625-.39062-1.48437 0-.84376.42188-1.5.42187-.65626 1.21874-1.01563.79688-.35937 1.8125-.375h.625q2.14063 0 3.35938 1.0625 1.21875 1.0625 1.29688 3.01563v.40624h-1.40626l-.01562-.375q-.09375-2.20312-2.0625-2.39062zm-.65625 1.14062q0-.42187-.20313-.70312-.21874-.29688-.51562-.45312h-.6875q-.85938 0-1.32812.32812-.48438.32812-.48438.875 0 .51562.46875.84375.45313.32813 1.15625.32813.70312 0 1.15625-.3125.4375-.32813.4375-.90626zm.65625-8.14062q.64062.67188.64062 1.54688 0 1.14062-.76562 1.82812-.78125.67188-2.09375.67188-.84375 0-1.54687-.35938-.70313-.375-1.09376-1.03125-.39062-.65625-.39062-1.48437 0-.84376.42188-1.5.42187-.65626 1.21874-1.01563.79688-.35937 1.8125-.375h.625q2.14063 0 3.35938 1.0625 1.21875 1.0625 1.29688 3.01563v.40624h-1.40626l-.01562-.375q-.09375-2.20312-2.0625-2.39062zm-.65625 1.14062q0-.42187-.20313-.70312-.21874-.29688-.51562-.45312h-.6875q-.85938 0-1.32812.32812-.48438.32812-.48438.875 0 .51562.46875.84375.45313.32813 1.15625.32813.70312 0 1.15625-.3125.4375-.32813.4375-.90626zm-3.51563-9.96874 7.57813 3.29687v1.78125l-7.15625-3.29688v4.23438h-1.375v-6.01562z"/><path d="m164.06474 264.47916v1.6875h-6.53124l.625 2.01562h-1.375l-1.26563-3.53125v-.17187zm-3.40624-6.85938q.64062.67188.64062 1.54688 0 1.14062-.76562 1.82812-.78126.67188-2.09376.67188-.84374 0-1.54687-.35938-.70313-.375-1.09375-1.03125-.39062-.65625-.39062-1.48437 0-.84376.42187-1.5.42187-.65626 1.21875-1.01563.79688-.35936 1.8125-.37498h.625q2.14062 0 3.35938 1.06248 1.21874 1.0625 1.29687 3.01563v.40624h-1.40625l-.01562-.375q-.09376-2.20312-2.0625-2.39062zm-.65626 1.14062q0-.42187-.20312-.70312-.21875-.29688-.51562-.45312h-.6875q-.85938 0-1.32813.32812-.48437.32812-.48437.875 0 .51562.46874.84375.45313.32813 1.15626.32813.70312 0 1.15624-.3125.4375-.32813.4375-.90626zm.65626-8.1406q.64062.67187.64062 1.54687 0 1.14063-.76562 1.82813-.78126.67187-2.09376.67187-.84374 0-1.54687-.35937-.70313-.375-1.09375-1.03125-.39062-.65625-.39062-1.48438 0-.84375.42187-1.5.42187-.65625 1.21875-1.01562.79688-.35938 1.8125-.375h.625q2.14062 0 3.35938 1.0625 1.21874 1.0625 1.29687 3.01562v.40625h-1.40625l-.01562-.375q-.09376-2.20312-2.0625-2.39062zm-.65626 1.14062q0-.42187-.20312-.70312-.21875-.29688-.51562-.45313h-.6875q-.85938 0-1.32813.32813-.48437.32812-.48437.875 0 .51562.46874.84375.45313.32812 1.15626.32812.70312 0 1.15624-.3125.4375-.32812.4375-.90625zm-2.20312-9.73437q.625 0 1.10938.3125.46874.3125.76562.85937.29688-.625.82812-.98437.51563-.375 1.21876-.375 1.14062 0 1.8125.78125.65624.76562.65624 2.10937 0 1.32813-.65624 2.10938-.67188.76562-1.8125.76562-.70313 0-1.23438-.35937-.53125-.35938-.8125-.98438-.29688.54688-.76562.85938-.48438.3125-1.10938.3125-1.09375 0-1.73438-.71875-.65624-.73438-.65624-1.98438 0-1.25.65624-1.96875.64063-.73437 1.73438-.73437zm3.79688 1.51562q-.54688 0-.875.32813-.34376.3125-.34376.85937 0 .54688.32813.875.32813.3125.89063.3125.54687 0 .89062-.3125.32812-.32812.32812-.89062 0-.54688-.3125-.85938-.32812-.3125-.90624-.3125zm-3.71876.17188q-.5 0-.79687.26562-.29687.26563-.29687.75 0 .46875.29687.73438.28125.26562.79687.26562.51563 0 .82813-.26562.3125-.26563.3125-.73438 0-.48437-.3125-.75-.3125-.26562-.82813-.26562z"/><path d="m181.16867 264.47916v1.6875h-6.53125l.625 2.01562h-1.375l-1.26562-3.53125v-.17187zm-3.40625-6.85938q.64063.67188.64063 1.54688 0 1.14062-.76563 1.82812-.78125.67188-2.09375.67188-.84375 0-1.54687-.35938-.70313-.375-1.09375-1.03125-.39063-.65625-.39063-1.48437 0-.84376.42188-1.5.42187-.65626 1.21875-1.01563.79687-.35937 1.8125-.375h.625q2.14062 0 3.35937 1.0625 1.21875 1.0625 1.29688 3.01563v.40624h-1.40625l-.01563-.375q-.09375-2.20312-2.0625-2.39062zm-.65625 1.14062q0-.42187-.20312-.70312-.21875-.29688-.51563-.45312h-.6875q-.85937 0-1.32812.32812-.48438.32812-.48438.875 0 .51562.46875.84375.45313.32813 1.15625.32813.70313 0 1.15625-.3125.4375-.32813.4375-.90626zm.65625-8.14062q.64063.67188.64063 1.54688 0 1.14062-.76563 1.82812-.78125.67188-2.09375.67188-.84375 0-1.54687-.35938-.70313-.375-1.09375-1.03125-.39063-.65625-.39063-1.48437 0-.84376.42188-1.5.42187-.65626 1.21875-1.01563.79687-.35937 1.8125-.375h.625q2.14062 0 3.35937 1.0625 1.21875 1.0625 1.29688 3.01563v.40624h-1.40625l-.01563-.375q-.09375-2.20312-2.0625-2.39062zm-.65625 1.14062q0-.42187-.20312-.70312-.21875-.29688-.51563-.45312h-.6875q-.85937 0-1.32812.32812-.48438.32812-.48438.875 0 .51562.46875.84375.45313.32813 1.15625.32813.70313 0 1.15625-.3125.4375-.32813.4375-.90626zm.65625-8.14062q.64063.67188.64063 1.54688 0 1.14062-.76563 1.82812-.78125.67188-2.09375.67188-.84375 0-1.54687-.35938-.70313-.375-1.09375-1.03125-.39063-.65625-.39063-1.48437 0-.84376.42188-1.5.42187-.65626 1.21875-1.01563.79687-.35937 1.8125-.375h.625q2.14062 0 3.35937 1.0625 1.21875 1.0625 1.29688 3.01563v.40624h-1.40625l-.01563-.375q-.09375-2.20312-2.0625-2.39062zm-.65625 1.14062q0-.42187-.20312-.70312-.21875-.29688-.51563-.45312h-.6875q-.85937 0-1.32812.32812-.48438.32812-.48438.875 0 .51562.46875.84375.45313.32813 1.15625.32813.70313 0 1.15625-.3125.4375-.32813.4375-.90626z"/><path d="m198.27258 262.74478v5.84375h-1.15625l-2.95312-2.76563q-.60938-.5625-1.07813-.82812-.46875-.28125-.875-.28125-.57812 0-.89062.29687-.32813.28126-.32813.8125 0 .57813.39063.90626.39062.32812 1.04687.32812v1.70312q-.78125 0-1.42187-.375-.65625-.375-1.01563-1.04687-.375-.6875-.375-1.54687 0-1.3125.64063-2.04688.625-.73438 1.78125-.73438.64062 0 1.29687.32813.65625.32813 1.53125 1.125l2.04688 1.9375v-3.65625zm-3.53125-6.90623q1.76563 0 2.71875.73435.9375.73438.9375 2.14063 0 1.40625-.92187 2.14063-.92188.73437-2.64063.75h-1.57812q-1.78125 0-2.70313-.73438-.9375-.75-.9375-2.14062 0-1.39063.92188-2.125.92187-.74999 2.64062-.76561zm-1.71875 1.70311q-1.0625 0-1.54687.29687-.48438.28125-.48438.89063 0 .59374.46875.89062.45313.28125 1.4375.29688h2.0625q1.04688 0 1.5625-.28126.5-.28124.5-.92187 0-.60937-.48437-.89063-.48438-.28124-1.48438-.28124zm1.71875-8.70311q1.76563 0 2.71875.73437.9375.73438.9375 2.14063 0 1.40625-.92187 2.14062-.92188.73438-2.64063.75h-1.57812q-1.78125 0-2.70313-.73437-.9375-.75-.9375-2.14063 0-1.39062.92188-2.125.92187-.75 2.64062-.76562zm-1.71875 1.70312q-1.0625 0-1.54687.29688-.48438.28125-.48438.89062 0 .59375.46875.89063.45313.28125 1.4375.29687h2.0625q1.04688 0 1.5625-.28125.5-.28125.5-.92187 0-.60938-.48437-.89063-.48438-.28125-1.48438-.28125zm1.71875-8.70312q1.76563 0 2.71875.73437.9375.73438.9375 2.14063 0 1.40625-.92187 2.14062-.92188.73438-2.64063.75h-1.57812q-1.78125 0-2.70313-.73437-.9375-.75-.9375-2.14063 0-1.39062.92188-2.125.92187-.75 2.64062-.76562zm-1.71875 1.70312q-1.0625 0-1.54687.29688-.48438.28125-.48438.89062 0 .59375.46875.89063.45313.28125 1.4375.29687h2.0625q1.04688 0 1.5625-.28125.5-.28125.5-.92187 0-.60938-.48437-.89063-.48438-.28125-1.48438-.28125z"/><path d="m215.3765 262.7448v5.84376h-1.15625l-2.95313-2.76562q-.60937-.5625-1.07812-.82814-.46875-.28124-.875-.28124-.57813 0-.89063.29688-.32812.28126-.32812.8125 0 .57812.39062.90626.39063.3281 1.04688.3281v1.70314q-.78125 0-1.42188-.375-.65625-.375-1.01562-1.04688-.375-.6875-.375-1.54686 0-1.3125.64062-2.0469.625-.73436 1.78125-.73436.64063 0 1.29688.32812.65625.32814 1.53125 1.125l2.04687 1.9375v-3.65626zm-3.53125-6.90625q1.76562 0 2.71875.73439.9375.73436.9375 2.14062 0 1.40624-.92188 2.14064-.92187.73436-2.64062.75h-1.57813q-1.78125 0-2.70312-.7344-.9375-.75-.9375-2.1406 0-1.39064.92187-2.125.92188-.75003 2.64063-.76565zm-1.71875 1.70315q-1.0625 0-1.54688.29686-.48437.28124-.48437.89064 0 .59374.46875.8906.45312.28126 1.4375.2969h2.0625q1.04687 0 1.5625-.28126.5-.28124.5-.92188 0-.60936-.48438-.89062-.48437-.28124-1.48437-.28124zm1.71875-8.70315q1.76562 0 2.71875.73437.9375.73438.9375 2.14063 0 1.40625-.92188 2.14062-.92187.73438-2.64062.75h-1.57813q-1.78125 0-2.70312-.73437-.9375-.75-.9375-2.14063 0-1.39062.92187-2.125.92188-.75 2.64063-.76562zm-1.71875 1.70312q-1.0625 0-1.54688.29688-.48437.28125-.48437.89062 0 .59375.46875.89063.45312.28125 1.4375.29687h2.0625q1.04687 0 1.5625-.28125.5-.28125.5-.92187 0-.60938-.48438-.89063-.48437-.28125-1.48437-.28125zm5.25-7.0625v1.6875h-6.53125l.625 2.01563h-1.375l-1.26563-3.53125v-.17188z"/><path d="m232.48042 262.74478v5.84375h-1.15625l-2.95312-2.76563q-.60938-.5625-1.07813-.82812-.46875-.28125-.875-.28125-.57812 0-.89062.29687-.32813.28126-.32813.8125 0 .57813.39063.90626.39062.32812 1.04687.32812v1.70312q-.78125 0-1.42187-.375-.65625-.375-1.01563-1.04687-.375-.6875-.375-1.54687 0-1.3125.64063-2.04688.625-.73438 1.78125-.73438.64062 0 1.29687.32813.65625.32813 1.53125 1.125l2.04688 1.9375v-3.65625zm-3.53125-6.90626q1.76563 0 2.71875.73438.9375.73438.9375 2.14063 0 1.40625-.92187 2.14063-.92188.73437-2.64063.75h-1.57812q-1.78125 0-2.70313-.73438-.9375-.75-.9375-2.14062 0-1.39063.92188-2.125.92187-.75002 2.64062-.76564zm-1.71875 1.70314q-1.0625 0-1.54687.29687-.48438.28125-.48438.89063 0 .59374.46875.89062.45313.28125 1.4375.29688h2.0625q1.04688 0 1.5625-.28126.5-.28124.5-.92187 0-.60937-.48437-.89063-.48438-.28124-1.48438-.28124zm1.71875-8.70314q1.76563 0 2.71875.73437.9375.73438.9375 2.14063 0 1.40625-.92187 2.14062-.92188.73438-2.64063.75h-1.57812q-1.78125 0-2.70313-.73437-.9375-.75-.9375-2.14063 0-1.39062.92188-2.125.92187-.75 2.64062-.76562zm-1.71875 1.70312q-1.0625 0-1.54687.29688-.48438.28125-.48438.89062 0 .59375.46875.89063.45313.28125 1.4375.29687h2.0625q1.04688 0 1.5625-.28125.5-.28125.5-.92187 0-.60938-.48437-.89063-.48438-.28125-1.48438-.28125zm5.25-8.79687v5.84375h-1.15625l-2.95312-2.76563q-.60938-.5625-1.07813-.82812-.46875-.28125-.875-.28125-.57812 0-.89062.29687-.32813.28125-.32813.8125 0 .57813.39063.90625.39062.32813 1.04687.32813v1.70312q-.78125 0-1.42187-.375-.65625-.375-1.01563-1.04687-.375-.6875-.375-1.54688 0-1.3125.64063-2.04687.625-.73438 1.78125-.73438.64062 0 1.29687.32813.65625.32812 1.53125 1.125l2.04688 1.9375v-3.65625z"/><path d="m249.58434 262.74478v5.84375h-1.15625l-2.95313-2.76563q-.60937-.5625-1.07812-.82812-.46875-.28125-.875-.28125-.57813 0-.89063.29687-.32812.28126-.32812.8125 0 .57813.39062.90626.39063.32812 1.04688.32812v1.70312q-.78125 0-1.42188-.375-.65625-.375-1.01562-1.04687-.375-.6875-.375-1.54687 0-1.3125.64062-2.04688.625-.73438 1.78125-.73438.64063 0 1.29688.32813.65625.32813 1.53125 1.125l2.04687 1.9375v-3.65625zm-3.53125-6.90625q1.76562 0 2.71875.73437.9375.73438.9375 2.14063 0 1.40625-.92188 2.14063-.92187.73437-2.64062.75h-1.57813q-1.78125 0-2.70312-.73438-.9375-.75-.9375-2.14062 0-1.39063.92187-2.125.92188-.75 2.64063-.76563zm-1.71875 1.70313q-1.0625 0-1.54688.29687-.48437.28125-.48437.89063 0 .59374.46875.89062.45312.28125 1.4375.29688h2.0625q1.04687 0 1.5625-.28126.5-.28124.5-.92187 0-.60937-.48438-.89063-.48437-.28124-1.48437-.28124zm1.71875-8.70313q1.76562 0 2.71875.73437.9375.73438.9375 2.14063 0 1.40625-.92188 2.14063-.92187.73437-2.64062.75h-1.57813q-1.78125 0-2.70312-.73438-.9375-.75-.9375-2.14062 0-1.39063.92187-2.125.92188-.75 2.64063-.76563zm-1.71875 1.70313q-1.0625 0-1.54688.29687-.48437.28125-.48437.89063 0 .59374.46875.89062.45312.28125 1.4375.29688h2.0625q1.04687 0 1.5625-.28126.5-.28124.5-.92187 0-.60937-.48438-.89063-.48437-.28124-1.48437-.28124zm.23437-4.67188v-.90625q0-.64063-.3125-.95313-.32812-.3125-.85937-.3125-.51563 0-.79688.3125-.29687.29688-.29687.84376 0 .48437.26562.8125.26563.32812.6875.32812v1.6875q-.65625 0-1.1875-.35938-.53125-.35937-.82812-1-.3125-.65624-.3125-1.4375 0-1.34374.65625-2.10937.64062-.78125 1.78125-.78125.59375 0 1.09375.35938.48437.35937.73437.9375.26563-.71876.78125-1.0625.51563-.35938 1.21875-.35938 1.14063 0 1.82813.82812.6875.82813.6875 2.1875 0 1.28126-.67188 2.09376-.6875.8125-1.79687.8125v-1.6875q.48437 0 .79687-.35938.29688-.375.29688-.89062 0-.60938-.3125-.95313-.32813-.34375-.85938-.34375-1.26562 0-1.26562 1.40625v.90625z"/><path d="m266.68826 262.74478v5.84375h-1.15626l-2.9531-2.76563q-.6094-.5625-1.07814-.82812-.46876-.28125-.875-.28125-.57812 0-.89062.29687-.32814.28126-.32814.8125 0 .57813.39064.90626.39062.32812 1.04686.32812v1.70312q-.78124 0-1.42186-.375-.65624-.375-1.01564-1.04687-.375-.6875-.375-1.54687 0-1.3125.64064-2.04688.625-.73438 1.78126-.73438.6406 0 1.29686.32813.65624.32813 1.53124 1.125l2.0469 1.9375v-3.65625zm-3.53126-6.90625q1.76564 0 2.71876.73437.9375.73438.9375 2.14063 0 1.40625-.92186 2.14063-.9219.73437-2.64064.75h-1.57812q-1.78124 0-2.70314-.73438-.9375-.75-.9375-2.14062 0-1.39063.9219-2.125.92186-.75 2.6406-.76563zm-1.71874 1.70313q-1.0625 0-1.54686.29687-.4844.28125-.4844.89063 0 .59374.46876.89062.45314.28125 1.4375.29688h2.0625q1.04688 0 1.5625-.28126.5-.28124.5-.92187 0-.60937-.48436-.89063-.4844-.28124-1.4844-.28124zm1.71874-8.70313q1.76564 0 2.71876.73437.9375.73438.9375 2.14063 0 1.40625-.92186 2.14063-.9219.73437-2.64064.75h-1.57812q-1.78124 0-2.70314-.73438-.9375-.75-.9375-2.14062 0-1.39063.9219-2.125.92186-.75 2.6406-.76563zm-1.71874 1.70313q-1.0625 0-1.54686.29687-.4844.28125-.4844.89063 0 .59374.46876.89062.45314.28125 1.4375.29688h2.0625q1.04688 0 1.5625-.28126.5-.28124.5-.92187 0-.60937-.48436-.89063-.4844-.28124-1.4844-.28124zm2.03124-7.96876v-.96874h1.375v.96874h1.84376v1.70313h-1.84376v3.48437l-1.0625.07813-5.625-3.54687v-1.71876zm0 3.57813v-1.875h-3l.1875.10937z"/><path d="m283.79218 262.74478v5.84375h-1.15625l-2.95313-2.76563q-.60937-.5625-1.07812-.82812-.46875-.28125-.875-.28125-.57813 0-.89063.29687-.32812.28126-.32812.8125 0 .57813.39062.90626.39063.32812 1.04688.32812v1.70312q-.78125 0-1.42188-.375-.65625-.375-1.01562-1.04687-.375-.6875-.375-1.54687 0-1.3125.64062-2.04688.625-.73438 1.78125-.73438.64063 0 1.29688.32813.65625.32813 1.53125 1.125l2.04687 1.9375v-3.65625zm-3.53125-6.90623q1.76562 0 2.71875.73435.9375.73438.9375 2.14063 0 1.40625-.92188 2.14063-.92187.73437-2.64062.75h-1.57813q-1.78125 0-2.70312-.73438-.9375-.75-.9375-2.14062 0-1.39063.92187-2.125.92188-.74999 2.64063-.76561zm-1.71875 1.70311q-1.0625 0-1.54688.29687-.48437.28125-.48437.89063 0 .59374.46875.89062.45312.28125 1.4375.29688h2.0625q1.04687 0 1.5625-.28126.5-.28124.5-.92187 0-.60937-.48438-.89063-.48437-.28124-1.48437-.28124zm1.71875-8.70311q1.76562 0 2.71875.73437.9375.73438.9375 2.14063 0 1.40625-.92188 2.14062-.92187.73438-2.64062.75h-1.57813q-1.78125 0-2.70312-.73437-.9375-.75-.9375-2.14063 0-1.39062.92187-2.125.92188-.75 2.64063-.76562zm-1.71875 1.70312q-1.0625 0-1.54688.29688-.48437.28125-.48437.89062 0 .59375.46875.89063.45312.28125 1.4375.29687h2.0625q1.04687 0 1.5625-.28125.5-.28125.5-.92187 0-.60938-.48438-.89063-.48437-.28125-1.48437-.28125zm1.04687-3.20312-4.32812-.5v-4.78125h1.40625v3.39062l1.84375.21875q-.32813-.60937-.32813-1.28125 0-1.21875.76563-1.90625.75-.70312 2.10937-.70312.82813 0 1.48438.35937.64062.34375 1.01562 1 .35938.64063.35938 1.53125 0 .76563-.3125 1.4375-.32813.65625-.89063 1.04688-.5625.375-1.29687.40625v-1.6875q.53125-.04688.82812-.35938.29688-.32812.29688-.84375 0-.57812-.40625-.875-.42188-.3125-1.17188-.3125-.73437 0-1.10937.35938-.39063.34375-.39063 1 0 .60937.3125.98437l.15625.15625z"/><path d="m300.8961 262.74478v5.84375h-1.15626l-2.95314-2.76563q-.60936-.5625-1.0781-.82812-.46876-.28125-.875-.28125-.57814 0-.89064.29687-.32812.28126-.32812.8125 0 .57813.39062.90626.39064.32812 1.04688.32812v1.70312q-.78124 0-1.42188-.375-.65626-.375-1.01562-1.04687-.375-.6875-.375-1.54687 0-1.3125.64062-2.04688.625-.73438 1.78124-.73438.64064 0 1.2969.32813.65624.32813 1.53124 1.125l2.04686 1.9375v-3.65625zm-3.53126-6.90623q1.76562 0 2.71876.73435.9375.73438.9375 2.14063 0 1.40625-.9219 2.14063-.92186.73437-2.6406.75h-1.57814q-1.78126 0-2.70312-.73438-.9375-.75-.9375-2.14062 0-1.39063.92186-2.125.9219-.74999 2.64064-.76561zm-1.71874 1.70311q-1.0625 0-1.5469.29687-.48436.28125-.48436.89063 0 .59374.46876.89062.4531.28125 1.4375.29688h2.0625q1.04686 0 1.5625-.28126.5-.28124.5-.92187 0-.60937-.4844-.89063-.48436-.28124-1.48436-.28124zm1.71874-8.70311q1.76562 0 2.71876.73437.9375.73438.9375 2.14063 0 1.40625-.9219 2.14062-.92186.73438-2.6406.75h-1.57814q-1.78126 0-2.70312-.73437-.9375-.75-.9375-2.14063 0-1.39062.92186-2.125.9219-.75 2.64064-.76562zm-1.71874 1.70312q-1.0625 0-1.5469.29688-.48436.28125-.48436.89062 0 .59375.46876.89063.4531.28125 1.4375.29687h2.0625q1.04686 0 1.5625-.28125.5-.28125.5-.92187 0-.60938-.4844-.89063-.48436-.28125-1.48436-.28125zm-3.375-7.54687h1.40624v.15625q.01562 1.15625.59376 1.85937.5781.6875 1.60936.82813-.6875-.67188-.6875-1.70313 0-1.125.79688-1.78125.79686-.65625 2.09376-.65625.8281 0 1.5.35938.67186.35937 1.0625 1.03125.375.65625.375 1.48437 0 1.34375-.9375 2.17188-.95314.82812-2.51564.82812h-.60936q-1.39064 0-2.45314-.51562-1.0625-.53125-1.64062-1.5-.57814-.98438-.59374-2.28125zm4.28124 1.65625q0 .40625.21876.75.2031.32812.5625.48437h.5156q.84376 0 1.32814-.32812.46876-.34375.46876-.95313 0-.54687-.4219-.875-.4375-.34375-1.125-.34375-.7031 0-1.125.34375-.42186.34375-.42186.92188z"/><path d="m318 262.7448v5.84376h-1.15625l-2.95313-2.76562q-.60937-.5625-1.07812-.82814-.46875-.28124-.875-.28124-.57812 0-.89062.29688-.32813.28126-.32813.8125 0 .57812.39063.90626.39062.3281 1.04687.3281v1.70314q-.78125 0-1.42187-.375-.65626-.375-1.01563-1.04688-.375-.6875-.375-1.54686 0-1.3125.64063-2.0469.625-.73436 1.78124-.73436.64063 0 1.29688.32812.65625.32814 1.53125 1.125l2.04687 1.9375v-3.65626zm-3.53125-6.90625q1.76563 0 2.71875.73439.9375.73436.9375 2.14062 0 1.40624-.92188 2.14064-.92187.73436-2.64062.75h-1.57812q-1.78126 0-2.70313-.7344-.9375-.75-.9375-2.1406 0-1.39064.92187-2.125.92188-.75003 2.64063-.76565zm-1.71875 1.70315q-1.0625 0-1.54688.29686-.48437.28124-.48437.89064 0 .59374.46875.8906.45312.28126 1.4375.2969h2.0625q1.04688 0 1.5625-.28126.5-.28124.5-.92188 0-.60936-.48438-.89062-.48437-.28124-1.48437-.28124zm1.71875-8.70315q1.76563 0 2.71875.73437.9375.73438.9375 2.14063 0 1.40625-.92188 2.14062-.92187.73438-2.64062.75h-1.57812q-1.78126 0-2.70313-.73437-.9375-.75-.9375-2.14063 0-1.39062.92187-2.125.92188-.75 2.64063-.76562zm-1.71875 1.70312q-1.0625 0-1.54688.29688-.48437.28125-.48437.89062 0 .59375.46875.89063.45312.28125 1.4375.29687h2.0625q1.04688 0 1.5625-.28125.5-.28125.5-.92187 0-.60938-.48438-.89063-.48437-.28125-1.48437-.28125zm-2.32812-8.75 7.57812 3.29688v1.78125l-7.15625-3.29688v4.23438h-1.375v-6.01563z"/><path d="m335.10394 262.74478v5.84375h-1.15624l-2.95313-2.76563q-.60937-.5625-1.07813-.82812-.46874-.28125-.875-.28125-.57812 0-.89062.29687-.32812.28126-.32812.8125 0 .57813.39062.90626.39062.32812 1.04688.32812v1.70312q-.78126 0-1.42188-.375-.65625-.375-1.01562-1.04687-.375-.6875-.375-1.54687 0-1.3125.64062-2.04688.625-.73438 1.78125-.73438.64063 0 1.29687.32813.65626.32813 1.53126 1.125l2.04687 1.9375v-3.65625zm-3.53124-6.90625q1.76562 0 2.71874.73437.9375.73438.9375 2.14063 0 1.40625-.92187 2.14063-.92187.73437-2.64063.75h-1.57812q-1.78125 0-2.70312-.73438-.9375-.75-.9375-2.14062 0-1.39063.92187-2.125.92187-.75 2.64063-.76563zm-1.71876 1.70313q-1.0625 0-1.54687.29687-.48437.28125-.48437.89063 0 .59374.46874.89062.45313.28125 1.4375.29688h2.0625q1.04688 0 1.5625-.28126.5-.28124.5-.92187 0-.60937-.48437-.89063-.48437-.28124-1.48437-.28124zm1.71876-8.70313q1.76562 0 2.71874.73437.9375.73438.9375 2.14063 0 1.40625-.92187 2.14063-.92187.73437-2.64063.75h-1.57812q-1.78125 0-2.70312-.73438-.9375-.75-.9375-2.14062 0-1.39063.92187-2.125.92187-.75 2.64063-.76563zm-1.71876 1.70313q-1.0625 0-1.54687.29687-.48437.28125-.48437.89063 0 .59374.46874.89062.45313.28125 1.4375.29688h2.0625q1.04688 0 1.5625-.28126.5-.28124.5-.92187 0-.60937-.48437-.89063-.48437-.28124-1.48437-.28124zm-1.01562-8.51563q.625 0 1.10938.3125.46874.3125.76562.85937.29688-.625.82812-.98437.51563-.375 1.21876-.375 1.14062 0 1.8125.78125.65624.76562.65624 2.10938 0 1.32812-.65624 2.10937-.67188.76563-1.8125.76563-.70313 0-1.23438-.35938-.53125-.35938-.8125-.98438-.29688.54688-.76562.85938-.48438.3125-1.10938.3125-1.09375 0-1.73438-.71875-.65624-.73437-.65624-1.98437 0-1.25.65624-1.96876.64063-.73437 1.73438-.73437zm3.79688 1.51563q-.54688 0-.875.32812-.34376.3125-.34376.85938 0 .54687.32813.875.32813.3125.89063.3125.54687 0 .89062-.3125.32812-.32813.32812-.89063 0-.54687-.3125-.85937-.32812-.3125-.90624-.3125zm-3.71876.17187q-.5 0-.79687.26563-.29687.26562-.29687.75 0 .46874.29687.73437.28125.26563.79687.26563.51563 0 .82813-.26563.3125-.26563.3125-.73437 0-.48438-.3125-.75-.3125-.26563-.82813-.26563z"/><path d="m352.20786 262.74478v5.84375h-1.15626l-2.95312-2.76563q-.60938-.5625-1.07812-.82812-.46876-.28125-.875-.28125-.57813 0-.89063.29687-.32813.28126-.32813.8125 0 .57813.39063.90626.39063.32812 1.04687.32812v1.70312q-.78124 0-1.42187-.375-.65625-.375-1.01563-1.04687-.375-.6875-.375-1.54687 0-1.3125.64063-2.04688.625-.73438 1.78125-.73438.64062 0 1.29688.32813.65624.32813 1.53124 1.125l2.04688 1.9375v-3.65625zm-3.53126-6.90625q1.76563 0 2.71876.73437.9375.73438.9375 2.14063 0 1.40625-.92188 2.14063-.92188.73437-2.64062.75h-1.57813q-1.78125 0-2.70313-.73438-.9375-.75-.9375-2.14062 0-1.39063.92188-2.125.92188-.75 2.64062-.76563zm-1.71874 1.70313q-1.0625 0-1.54688.29687-.48438.28125-.48438.89063 0 .59374.46876.89062.45312.28125 1.4375.29688h2.0625q1.04687 0 1.5625-.28126.5-.28124.5-.92187 0-.60937-.48438-.89063-.48438-.28124-1.48438-.28124zm1.71874-8.70313q1.76563 0 2.71876.73437.9375.73438.9375 2.14063 0 1.40625-.92188 2.14063-.92188.73437-2.64062.75h-1.57813q-1.78125 0-2.70313-.73438-.9375-.75-.9375-2.14062 0-1.39063.92188-2.125.92188-.75 2.64062-.76563zm-1.71874 1.70313q-1.0625 0-1.54688.29687-.48438.28125-.48438.89063 0 .59374.46876.89062.45312.28125 1.4375.29688h2.0625q1.04687 0 1.5625-.28126.5-.28124.5-.92187 0-.60937-.48438-.89063-.48438-.28124-1.48438-.28124zm1.84374-6.92188q.64063.67188.64063 1.54688 0 1.14062-.76563 1.82812-.78124.67188-2.09374.67188-.84376 0-1.54688-.35938-.70312-.375-1.09375-1.03125-.39063-.65625-.39063-1.48437 0-.84376.42188-1.5.42188-.65626 1.21875-1.01563.79687-.35937 1.8125-.375h.625q2.14063 0 3.35937 1.0625 1.21876 1.0625 1.29688 3.01563v.40624h-1.40625l-.01563-.375q-.09374-2.20312-2.0625-2.39062zm-.65624 1.14062q0-.42187-.20313-.70312-.21875-.29688-.51563-.45312h-.6875q-.85937 0-1.32812.32812-.48438.32812-.48438.875 0 .51562.46876.84375.45312.32813 1.15624.32813.70313 0 1.15626-.3125.4375-.32813.4375-.90626z"/><path d="m369.31177 262.74478v5.84375h-1.15625l-2.95312-2.76563q-.60938-.5625-1.07813-.82812-.46875-.28125-.875-.28125-.57813 0-.89063.29687-.32812.28126-.32812.8125 0 .57813.39062.90626.39063.32812 1.04688.32812v1.70312q-.78125 0-1.42188-.375-.65624-.375-1.01562-1.04687-.375-.6875-.375-1.54687 0-1.3125.64062-2.04688.625-.73438 1.78126-.73438.64062 0 1.29687.32813.65625.32813 1.53125 1.125l2.04688 1.9375v-3.65625zm-3.53125-6.90625q1.76562 0 2.71875.73437.9375.73438.9375 2.14063 0 1.40625-.92187 2.14063-.92188.73437-2.64063.75h-1.57813q-1.78124 0-2.70312-.73438-.9375-.75-.9375-2.14062 0-1.39063.92188-2.125.92187-.75 2.64062-.76563zm-1.71875 1.70313q-1.0625 0-1.54687.29687-.48438.28125-.48438.89063 0 .59374.46875.89062.45313.28125 1.4375.29688h2.0625q1.04687 0 1.5625-.28126.5-.28124.5-.92187 0-.60937-.48437-.89063-.48438-.28124-1.48438-.28124zm5.25-7.0625v1.6875h-6.53125l.625 2.01562h-1.375l-1.26562-3.53125v-.17187zm-3.53125-8.64063q1.76562 0 2.71875.73437.9375.73438.9375 2.14063 0 1.40625-.92187 2.14063-.92188.73437-2.64063.75h-1.57813q-1.78124 0-2.70312-.73438-.9375-.75-.9375-2.14062 0-1.39063.92188-2.125.92187-.75 2.64062-.76563zm-1.71875 1.70313q-1.0625 0-1.54687.29687-.48438.28125-.48438.89063 0 .59374.46875.89062.45313.28125 1.4375.29688h2.0625q1.04687 0 1.5625-.28126.5-.28124.5-.92187 0-.60937-.48437-.89063-.48438-.28124-1.48438-.28124z"/><path d="m386.41568 262.74478v5.84375h-1.15625l-2.95313-2.76563q-.60937-.5625-1.07812-.82812-.46875-.28125-.875-.28125-.57813 0-.89063.29687-.32812.28126-.32812.8125 0 .57813.39062.90626.39063.32812 1.04688.32812v1.70312q-.78125 0-1.42188-.375-.65625-.375-1.01562-1.04687-.375-.6875-.375-1.54687 0-1.3125.64062-2.04688.625-.73438 1.78125-.73438.64063 0 1.29688.32813.65625.32813 1.53125 1.125l2.04687 1.9375v-3.65625zm-3.53125-6.90623q1.76562 0 2.71875.73435.9375.73438.9375 2.14063 0 1.40625-.92188 2.14063-.92187.73437-2.64062.75h-1.57813q-1.78125 0-2.70312-.73438-.9375-.75-.9375-2.14062 0-1.39063.92187-2.125.92188-.74999 2.64063-.76561zm-1.71875 1.70311q-1.0625 0-1.54688.29687-.48437.28125-.48437.89063 0 .59374.46875.89062.45312.28125 1.4375.29688h2.0625q1.04687 0 1.5625-.28126.5-.28124.5-.92187 0-.60937-.48438-.89063-.48437-.28124-1.48437-.28124zm5.25-7.06249v1.6875h-6.53125l.625 2.01563h-1.375l-1.26563-3.53125v-.17188zm0-7v1.6875h-6.53125l.625 2.01563h-1.375l-1.26563-3.53125v-.17188z"/><path d="m403.5196 262.7448v5.84376h-1.15626l-2.95312-2.76562q-.60938-.5625-1.07812-.82814-.46876-.28124-.875-.28124-.57813 0-.89063.29688-.32813.28126-.32813.8125 0 .57812.39063.90626.39063.3281 1.04687.3281v1.70314q-.78124 0-1.42187-.375-.65625-.375-1.01563-1.04688-.375-.6875-.375-1.54686 0-1.3125.64063-2.0469.625-.73436 1.78125-.73436.64062 0 1.29688.32812.65624.32814 1.53124 1.125l2.04688 1.9375v-3.65626zm-3.53126-6.90625q1.76563 0 2.71876.73439.9375.73436.9375 2.14062 0 1.40624-.92188 2.14064-.92188.73436-2.64062.75h-1.57813q-1.78125 0-2.70313-.7344-.9375-.75-.9375-2.1406 0-1.39064.92188-2.125.92188-.75003 2.64062-.76565zm-1.71874 1.70315q-1.0625 0-1.54688.29686-.48438.28124-.48438.89064 0 .59374.46876.8906.45312.28126 1.4375.2969h2.0625q1.04687 0 1.5625-.28126.5-.28124.5-.92188 0-.60936-.48438-.89062-.48438-.28124-1.48438-.28124zm5.25-7.06253v1.6875h-6.53126l.625 2.01563h-1.375l-1.26562-3.53125v-.17188zm0-8.73437v5.84375h-1.15626l-2.95312-2.76563q-.60938-.5625-1.07812-.82812-.46876-.28125-.875-.28125-.57813 0-.89063.29687-.32813.28125-.32813.8125 0 .57813.39063.90625.39063.32813 1.04687.32813v1.70312q-.78124 0-1.42187-.375-.65625-.375-1.01563-1.04687-.375-.6875-.375-1.54688 0-1.3125.64063-2.04687.625-.73438 1.78125-.73438.64062 0 1.29688.32813.65624.32812 1.53124 1.125l2.04688 1.9375v-3.65625z"/><path d="m420.6235 262.7448v5.84376h-1.15625l-2.95312-2.76562q-.60938-.5625-1.07813-.82814-.46875-.28124-.875-.28124-.57812 0-.89062.29688-.32813.28126-.32813.8125 0 .57812.39063.90626.39062.3281 1.04687.3281v1.70314q-.78125 0-1.42187-.375-.65625-.375-1.01563-1.04688-.375-.6875-.375-1.54686 0-1.3125.64063-2.0469.625-.73436 1.78125-.73436.64062 0 1.29687.32812.65625.32814 1.53125 1.125l2.04688 1.9375v-3.65626zm-3.53125-6.90624q1.76563 0 2.71875.73438.9375.73436.9375 2.14062 0 1.40624-.92187 2.14064-.92188.73436-2.64063.75h-1.57812q-1.78125 0-2.70313-.7344-.9375-.75-.9375-2.1406 0-1.39064.92188-2.125.92187-.75001 2.64062-.76564zm-1.71875 1.70314q-1.0625 0-1.54687.29686-.48438.28124-.48438.89064 0 .59374.46875.8906.45313.28126 1.4375.2969h2.0625q1.04688 0 1.5625-.28126.5-.28124.5-.92188 0-.60936-.48437-.89062-.48438-.28124-1.48438-.28124zm5.25-7.06251v1.6875h-6.53125l.625 2.01562h-1.375l-1.26562-3.53125v-.17187zm-5.01562-4.60938v-.90625q0-.64062-.3125-.95312-.32813-.3125-.85938-.3125-.51562 0-.79687.3125-.29688.29687-.29688.84375 0 .48437.26563.8125.26562.32812.6875.32812v1.6875q-.65625 0-1.1875-.35937-.53125-.35938-.82813-1-.3125-.65625-.3125-1.4375 0-1.34375.65625-2.10938.64063-.78125 1.78125-.78125.59375 0 1.09375.35938.48438.35937.73438.9375.26562-.71875.78125-1.0625.51562-.35938 1.21875-.35938 1.14062 0 1.82812.82813.6875.82812.6875 2.1875 0 1.28125-.67187 2.09375-.6875.8125-1.79688.8125v-1.6875q.48438 0 .79688-.35938.29687-.375.29687-.89062 0-.60938-.3125-.95313-.32812-.34375-.85937-.34375-1.26563 0-1.26563 1.40625v.90625z"/><path d="m437.72745 262.74478v5.84375h-1.15625l-2.95313-2.76563q-.60937-.5625-1.07812-.82812-.46875-.28125-.875-.28125-.57813 0-.89063.29687-.32812.28126-.32812.8125 0 .57813.39062.90626.39063.32812 1.04688.32812v1.70312q-.78125 0-1.42188-.375-.65625-.375-1.01562-1.04687-.375-.6875-.375-1.54687 0-1.3125.64062-2.04688.625-.73438 1.78125-.73438.64063 0 1.29688.32813.65625.32813 1.53125 1.125l2.04687 1.9375v-3.65625zm-3.53125-6.90625q1.76562 0 2.71875.73437.9375.73438.9375 2.14063 0 1.40625-.92188 2.14063-.92187.73437-2.64062.75h-1.57813q-1.78125 0-2.70312-.73438-.9375-.75-.9375-2.14062 0-1.39063.92187-2.125.92188-.75 2.64063-.76563zm-1.71875 1.70313q-1.0625 0-1.54688.29687-.48437.28125-.48437.89063 0 .59374.46875.89062.45312.28125 1.4375.29688h2.0625q1.04687 0 1.5625-.28126.5-.28124.5-.92187 0-.60937-.48438-.89063-.48437-.28124-1.48437-.28124zm5.25-7.0625v1.6875h-6.53125l.625 2.01562h-1.375l-1.26563-3.53125v-.17187zm-3.21875-7.90626v-.96874h1.375v.96874h1.84375v1.70313h-1.84375v3.48437l-1.0625.07813-5.625-3.54687v-1.71876zm0 3.57813v-1.875h-3l.1875.10937z"/><path d="m454.83136 262.74478v5.84375h-1.15626l-2.9531-2.76563q-.6094-.5625-1.07814-.82812-.46876-.28125-.875-.28125-.57813 0-.89063.29687-.32813.28126-.32813.8125 0 .57813.39063.90626.39063.32812 1.04687.32812v1.70312q-.78124 0-1.42187-.375-.65623-.375-1.01563-1.04687-.375-.6875-.375-1.54687 0-1.3125.64063-2.04688.625-.73438 1.78127-.73438.6406 0 1.29686.32813.65624.32813 1.53124 1.125l2.0469 1.9375v-3.65625zm-3.53126-6.90625q1.76563 0 2.71876.73437.9375.73438.9375 2.14063 0 1.40625-.92186 2.14063-.9219.73437-2.64064.75h-1.57813q-1.78123 0-2.70313-.73438-.9375-.75-.9375-2.14062 0-1.39063.9219-2.125.92186-.75 2.6406-.76563zm-1.71874 1.70313q-1.0625 0-1.54686.29687-.4844.28125-.4844.89063 0 .59374.46876.89062.45314.28125 1.4375.29688h2.0625q1.04687 0 1.5625-.28126.5-.28124.5-.92187 0-.60937-.48436-.89063-.4844-.28124-1.4844-.28124zm5.25-7.0625v1.6875h-6.53126l.625 2.01562h-1.375l-1.2656-3.53125v-.17187zm-4.20313-3.14063-4.32813-.5v-4.78125h1.40626v3.39062l1.84374.21876q-.3281-.60938-.3281-1.28126 0-1.21874.7656-1.90624.75-.70313 2.1094-.70313.8281 0 1.48436.35937.64064.34376 1.01564 1 .35936.64063.35936 1.53126 0 .76562-.3125 1.4375-.32813.65624-.89063 1.04687-.5625.375-1.29687.40625v-1.6875q.53124-.04688.82814-.35938.29686-.32812.29686-.84374 0-.57813-.40626-.875-.42187-.3125-1.17187-.3125-.73437 0-1.10937.35937-.39063.34375-.39063 1 0 .60937.3125.98437l.15627.15626z"/><path d="m471.93527 262.74478v5.84375h-1.15625l-2.95312-2.76563q-.60938-.5625-1.07813-.82812-.46875-.28125-.875-.28125-.57812 0-.89062.29687-.32813.28126-.32813.8125 0 .57813.39063.90626.39062.32812 1.04687.32812v1.70312q-.78125 0-1.42187-.375-.65625-.375-1.01563-1.04687-.375-.6875-.375-1.54687 0-1.3125.64063-2.04688.625-.73438 1.78125-.73438.64062 0 1.29687.32813.65625.32813 1.53125 1.125l2.04688 1.9375v-3.65625zm-3.53125-6.90623q1.76563 0 2.71875.73435.9375.73438.9375 2.14063 0 1.40625-.92187 2.14063-.92188.73437-2.64063.75h-1.57812q-1.78125 0-2.70313-.73438-.9375-.75-.9375-2.14062 0-1.39063.92188-2.125.92187-.74999 2.64062-.76561zm-1.71875 1.70311q-1.0625 0-1.54687.29687-.48438.28125-.48438.89063 0 .59374.46875.89062.45313.28125 1.4375.29688h2.0625q1.04688 0 1.5625-.28126.5-.28124.5-.92187 0-.60937-.48437-.89063-.48438-.28124-1.48438-.28124zm5.25-7.06249v1.6875h-6.53125l.625 2.01563h-1.375l-1.26562-3.53125v-.17188zm-8.625-7.48437h1.40625v.15625q.01563 1.15625.59375 1.85937.57813.6875 1.60938.82813-.6875-.67188-.6875-1.70313 0-1.125.79687-1.78125.79688-.65625 2.09375-.65625.82813 0 1.5.35938.67188.35937 1.0625 1.03125.375.65625.375 1.48437 0 1.34375-.9375 2.17188-.95312.82812-2.51562.82812h-.60938q-1.39062 0-2.45312-.51562-1.0625-.53125-1.64063-1.5-.57812-.98438-.59375-2.28125zm4.28125 1.65625q0 .40625.21875.75.20313.32812.5625.48437h.51563q.84375 0 1.32812-.32812.46875-.34375.46875-.95313 0-.54687-.42187-.875-.4375-.34375-1.125-.34375-.70313 0-1.125.34375-.42188.34375-.42188.92188z"/><path d="m489.03918 262.74478v5.84375h-1.15625l-2.95313-2.76563q-.60937-.5625-1.07812-.82812-.46875-.28125-.875-.28125-.57812 0-.89062.29687-.32813.28126-.32813.8125 0 .57813.39063.90626.39062.32812 1.04687.32812v1.70312q-.78125 0-1.42187-.375-.65626-.375-1.01563-1.04687-.375-.6875-.375-1.54687 0-1.3125.64063-2.04688.625-.73438 1.78124-.73438.64063 0 1.29688.32813.65625.32813 1.53125 1.125l2.04687 1.9375v-3.65625zm-3.53125-6.90626q1.76563 0 2.71875.73438.9375.73438.9375 2.14063 0 1.40625-.92188 2.14063-.92187.73437-2.64062.75h-1.57812q-1.78126 0-2.70313-.73438-.9375-.75-.9375-2.14062 0-1.39063.92187-2.125.92188-.75002 2.64063-.76564zm-1.71875 1.70314q-1.0625 0-1.54688.29687-.48437.28125-.48437.89063 0 .59374.46875.89062.45312.28125 1.4375.29688h2.0625q1.04688 0 1.5625-.28126.5-.28124.5-.92187 0-.60937-.48438-.89063-.48437-.28124-1.48437-.28124zm5.25-7.06252v1.6875h-6.53125l.625 2.01563h-1.375l-1.26563-3.53125v-.17188zm-7.57812-8.6875 7.57812 3.29688v1.78125l-7.15625-3.29688v4.23438h-1.375v-6.01563z"/><path d="m506.1431 262.7448v5.84376h-1.15625l-2.95313-2.76562q-.60937-.5625-1.07812-.82814-.46875-.28124-.875-.28124-.57813 0-.89063.29688-.32812.28126-.32812.8125 0 .57812.39062.90626.39063.3281 1.04688.3281v1.70314q-.78125 0-1.42188-.375-.65625-.375-1.01562-1.04688-.375-.6875-.375-1.54686 0-1.3125.64062-2.0469.625-.73436 1.78125-.73436.64063 0 1.29688.32812.65625.32814 1.53125 1.125l2.04687 1.9375v-3.65626zm-3.53125-6.90624q1.76562 0 2.71875.73438.9375.73436.9375 2.14062 0 1.40624-.92188 2.14064-.92187.73436-2.64062.75h-1.57813q-1.78125 0-2.70312-.7344-.9375-.75-.9375-2.1406 0-1.39064.92187-2.125.92188-.75001 2.64063-.76564zm-1.71875 1.70314q-1.0625 0-1.54688.29686-.48437.28124-.48437.89064 0 .59374.46875.8906.45312.28126 1.4375.2969h2.0625q1.04687 0 1.5625-.28126.5-.28124.5-.92188 0-.60936-.48438-.89062-.48437-.28124-1.48437-.28124zm5.25-7.06251v1.6875h-6.53125l.625 2.01562h-1.375l-1.26563-3.53125v-.17187zm-6.26563-8.45313q.625 0 1.10938.3125.46875.3125.76562.85938.29688-.625.82813-.98438.51562-.375 1.21875-.375 1.14062 0 1.8125.78125.65625.76563.65625 2.10938 0 1.32812-.65625 2.10937-.67188.76563-1.8125.76563-.70313 0-1.23438-.35938-.53125-.35937-.8125-.98437-.29687.54687-.76562.85937-.48438.3125-1.10938.3125-1.09375 0-1.73437-.71875-.65625-.73437-.65625-1.98437 0-1.25.65625-1.96875.64062-.73438 1.73437-.73438zm3.79688 1.51563q-.54688 0-.875.32812-.34375.3125-.34375.85938 0 .54687.32812.875.32813.3125.89063.3125.54687 0 .89062-.3125.32813-.32813.32813-.89063 0-.54687-.3125-.85937-.32813-.3125-.90625-.3125zm-3.71875.17187q-.5 0-.79688.26563-.29687.26562-.29687.75 0 .46875.29687.73437.28125.26563.79688.26563.51562 0 .82812-.26563.3125-.26562.3125-.73437 0-.48438-.3125-.75-.3125-.26563-.82812-.26563z"/><path d="m523.247 262.74478v5.84375h-1.15624l-2.95313-2.76563q-.60937-.5625-1.07813-.82812-.46874-.28125-.875-.28125-.5781 0-.8906.29687-.32814.28126-.32814.8125 0 .57813.39064.90626.3906.32812 1.04686.32812v1.70312q-.78126 0-1.42186-.375-.65627-.375-1.01564-1.04687-.375-.6875-.375-1.54687 0-1.3125.64064-2.04688.625-.73438 1.78123-.73438.64063 0 1.29687.32813.65626.32813 1.53126 1.125l2.04687 1.9375v-3.65625zm-3.53124-6.90625q1.76564 0 2.71874.73437.9375.73438.9375 2.14063 0 1.40625-.92187 2.14063-.92187.73437-2.64063.75h-1.5781q-1.78127 0-2.70314-.73438-.9375-.75-.9375-2.14062 0-1.39063.92187-2.125.92187-.75 2.64063-.76563zm-1.71876 1.70313q-1.0625 0-1.54687.29687-.48437.28125-.48437.89063 0 .59374.46874.89062.45313.28125 1.4375.29688h2.0625q1.0469 0 1.5625-.28126.5-.28124.5-.92187 0-.60937-.48437-.89063-.48437-.28124-1.48437-.28124zm5.25-7.0625v1.6875h-6.53124l.625 2.01562h-1.375l-1.26563-3.53125v-.17187zm-3.40624-6.85938q.64064.67188.64064 1.54688 0 1.14062-.76564 1.82812-.78126.67188-2.09376.67188-.84374 0-1.54687-.35938-.70313-.375-1.09373-1.03125-.39064-.65625-.39064-1.48437 0-.84376.42187-1.5.42187-.65626 1.21877-1.01563.79686-.35937 1.8125-.375h.625q2.1406 0 3.35936 1.0625 1.21874 1.0625 1.29687 3.01563v.40624h-1.40623l-.01564-.375q-.09376-2.20312-2.0625-2.39062zm-.65626 1.14062q0-.42187-.2031-.70312-.21877-.29688-.51564-.45312h-.6875q-.85936 0-1.32813.32812-.48437.32812-.48437.875 0 .51562.46874.84375.45313.32813 1.15626.32813.70314 0 1.15624-.3125.4375-.32813.4375-.90626z"/><path d="m540.35095 262.7448v5.84376h-1.15625l-2.9531-2.76562q-.6094-.5625-1.07815-.82814-.46875-.28124-.875-.28124-.57815 0-.89065.29688-.3281.28126-.3281.8125 0 .57812.3906.90626.39065.3281 1.0469.3281v1.70314q-.78125 0-1.4219-.375-.6562-.375-1.0156-1.04688-.375-.6875-.375-1.54686 0-1.3125.6406-2.0469.625-.73436 1.7813-.73436.6406 0 1.29685.32812.65625.32814 1.53125 1.125l2.0469 1.9375v-3.65626zm-3.53125-6.90624q1.7656 0 2.71875.73438.9375.73436.9375 2.14062 0 1.40624-.92185 2.14064-.9219.73436-2.64065.75h-1.57815q-1.7812 0-2.7031-.7344-.9375-.75-.9375-2.1406 0-1.39064.9219-2.125.92185-.75001 2.6406-.76564zm-1.71875 1.70314q-1.0625 0-1.54685.29686-.4844.28124-.4844.89064 0 .59374.46875.8906.45315.28126 1.4375.2969h2.0625q1.04685 0 1.5625-.28126.5-.28124.5-.92188 0-.60936-.48435-.89062-.4844-.28124-1.4844-.28124zm5.25-8.79689v5.84375h-1.15625l-2.9531-2.76562q-.6094-.5625-1.07815-.82813-.46875-.28125-.875-.28125-.57815 0-.89065.29688-.3281.28125-.3281.8125 0 .57812.3906.90625.39065.32812 1.0469.32812v1.70313q-.78125 0-1.4219-.375-.6562-.375-1.0156-1.04688-.375-.6875-.375-1.54687 0-1.3125.6406-2.04688.625-.73437 1.7813-.73437.6406 0 1.29685.32812.65625.32813 1.53125 1.125l2.0469 1.9375v-3.65625zm-3.53125-6.90625q1.7656 0 2.71875.73438.9375.73437.9375 2.14062 0 1.40625-.92185 2.14063-.9219.73437-2.64065.75h-1.57815q-1.7812 0-2.7031-.73438-.9375-.75-.9375-2.14062 0-1.39063.9219-2.125.92185-.75 2.6406-.76563zm-1.71875 1.70313q-1.0625 0-1.54685.29687-.4844.28125-.4844.89063 0 .59375.46875.89062.45315.28125 1.4375.29688h2.0625q1.04685 0 1.5625-.28125.5-.28125.5-.92188 0-.60937-.48435-.89062-.4844-.28125-1.4844-.28125z"/><path d="m557.4549 262.74478v5.84375h-1.15625l-2.95315-2.76563q-.60935-.5625-1.0781-.82812-.46875-.28125-.875-.28125-.5781 0-.8906.29687-.32815.28126-.32815.8125 0 .57813.39065.90626.3906.32812 1.04685.32812v1.70312q-.78125 0-1.42185-.375-.6563-.375-1.01565-1.04687-.375-.6875-.375-1.54687 0-1.3125.64065-2.04688.625-.73438 1.7812-.73438.64065 0 1.2969.32813.65625.32813 1.53125 1.125l2.04685 1.9375v-3.65625zm-3.53125-6.90623q1.76565 0 2.71875.73435.9375.73438.9375 2.14063 0 1.40625-.9219 2.14063-.92185.73437-2.6406.75h-1.5781q-1.7813 0-2.70315-.73438-.9375-.75-.9375-2.14062 0-1.39063.92185-2.125.9219-.74999 2.64065-.76561zm-1.71875 1.70311q-1.0625 0-1.5469.29687-.48435.28125-.48435.89063 0 .59374.46875.89062.4531.28125 1.4375.29688h2.0625q1.0469 0 1.5625-.28126.5-.28124.5-.92187 0-.60937-.4844-.89063-.48435-.28124-1.48435-.28124zm5.25-8.79686v5.84375h-1.15625l-2.95315-2.76563q-.60935-.5625-1.0781-.82812-.46875-.28125-.875-.28125-.5781 0-.8906.29687-.32815.28125-.32815.8125 0 .57813.39065.90625.3906.32813 1.04685.32813v1.70312q-.78125 0-1.42185-.375-.6563-.375-1.01565-1.04687-.375-.6875-.375-1.54688 0-1.3125.64065-2.04687.625-.73438 1.7812-.73438.64065 0 1.2969.32813.65625.32812 1.53125 1.125l2.04685 1.9375v-3.65625zm0-5.26563v1.6875h-6.53125l.625 2.01563h-1.375l-1.26565-3.53125v-.17188z"/></g><path d="m111.5 282c0-.55228.447716-1 1-1h10c.552284 0 1 .44772 1 1v10c0 .55228-.447716 1-1 1h-10c-.552284 0-1-.44772-1-1z" fill="#38761d"/><path d="m133.625 290.57812h4.04688v.92188h-5.1875v-8.53125h1.14062zm8.60938.92188q-.09376-.1875-.15626-.67188-.75.79688-1.79687.79688-.9375 0-1.54687-.53125-.59376-.53125-.59376-1.35937 0-.98438.75-1.53126.75-.54687 2.125-.54687h1.04688v-.5q0-.5625-.34375-.89063-.32813-.34374-1-.34374-.57813 0-.96875.29687-.39062.28125-.39062.70313h-1.09376q0-.48438.32813-.92188.34375-.4375.92187-.6875.57813-.26562 1.26563-.26562 1.10937 0 1.71875.54687.625.54687.65625 1.5v2.92187q0 .875.21875 1.39063v.09375zm-1.79688-.82812q.51562 0 .96875-.26563.45313-.26563.65625-.6875v-1.29687h-.84375q-2 0-2 1.17187 0 .5.34375.79687.34375.28126.875.28126zm6.35938-7.04688v1.53125h1.17187v.84375h-1.17187v3.92188q0 .39062.15624.57812.15626.1875.53126.1875.1875 0 .51562-.0625v.875q-.42188.125-.82812.125-.71876 0-1.09376-.4375-.375-.45312-.375-1.26562v-3.92188h-1.15624v-.84375h1.15624v-1.53125zm4.60937 6.40625 1.57813-4.875h1.10937l-2.28125 6.34375h-.82812l-2.29688-6.34375h1.10938zm5.09375 1.46875h-1.07812v-6.34375h1.07812zm-1.17188-8.01562q0-.26563.15626-.45313.17187-.1875.48437-.1875.3125 0 .46875.1875.17188.1875.17188.45313 0 .25-.17188.4375-.15625.17187-.46875.17187-.3125 0-.48437-.17187-.15626-.1875-.15626-.4375zm4.10938 1.67187v7.07813q0 1.82812-1.65625 1.82812-.35937 0-.65625-.10938v-.85937q.1875.04687.48438.04687.35937 0 .54687-.20312.20313-.1875.20313-.6875v-7.09375zm-1.1875-1.67187q0-.26563.15625-.45313.15625-.1875.46875-.1875.3125 0 .46875.1875.17187.1875.17187.45313 0 .25-.17187.4375-.15625.17187-.46875.17187-.3125 0-.46875-.17187-.15625-.1875-.15625-.4375zm6.98438 8.01562q-.09376-.1875-.15626-.67188-.75.79688-1.79687.79688-.9375 0-1.54687-.53125-.59376-.53125-.59376-1.35937 0-.98438.75-1.53126.75-.54687 2.125-.54687h1.04688v-.5q0-.5625-.34375-.89063-.32813-.34374-1-.34374-.57813 0-.96875.29687-.39062.28125-.39062.70313h-1.09376q0-.48438.32813-.92188.34375-.4375.92187-.6875.57813-.26562 1.26563-.26562 1.10937 0 1.71875.54687.625.54687.65625 1.5v2.92187q0 .875.21875 1.39063v.09375zm-1.79688-.82812q.51562 0 .96875-.26563.45313-.26563.65625-.6875v-1.29687h-.84375q-2 0-2 1.17187 0 .5.34375.79687.34375.28126.875.28126zm8.57812-.85938q0-.4375-.34374-.67188-.32813-.25-1.15626-.42187-.8125-.17187-1.29687-.42187-.48437-.25-.71875-.57813-.21875-.34375-.21875-.8125 0-.78125.65625-1.3125.65625-.54687 1.6875-.54687 1.07812 0 1.73438.5625.67187.54687.67187 1.40624h-1.07813q0-.4375-.39062-.75-.375-.32812-.9375-.32812-.59375 0-.9375.26562-.32812.25-.32812.65626 0 .39062.3125.59374.3125.20313 1.125.39063.8125.17187 1.3125.42187.5.25.73437.60938.25.35938.25.85938 0 .85937-.6875 1.375-.67187.51562-1.75.51562-.76563 0-1.35937-.26562-.57813-.28126-.90626-.76563-.32812-.48437-.32812-1.04687h1.07812q.03126.54687.4375.875.40626.3125 1.07813.3125.60937 0 .98437-.25.375-.25.375-.67188zm7.07813-1.25-.6875.70312v2.23438h-1.07813v-9h1.07813v5.4375l.57813-.6875 1.98437-2.09375h1.3125l-2.46875 2.65625 2.76562 3.6875h-1.28124zm3.9375-.29688q0-.92187.35937-1.67187.375-.75 1.03126-1.14063.65624-.40624 1.48437-.40624 1.29687 0 2.09375.89062.8125.89062.8125 2.39062v.07813q0 .92187-.35938 1.65625-.35937.73438-1.01562 1.15625-.65625.40625-1.51562.40625-1.28126 0-2.09376-.89062-.79687-.90626-.79687-2.39063zm1.09375.14063q0 1.04687.48438 1.6875.5.64063 1.3125.64063.82812 0 1.3125-.64063.48437-.65625.48437-1.82813 0-1.03124-.5-1.67187-.48437-.65625-1.3125-.65625-.79687 0-1.29687.64062-.48438.625-.48438 1.82813zm11.54688 0q0 1.4375-.65626 2.32813-.65624.89062-1.79687.89062-1.15625 0-1.8125-.73438v3.04688h-1.07813v-8.78125h.98438l.04688.70313q.67187-.8125 1.84374-.8125 1.14063 0 1.79688.85937.67188.85937.67188 2.39063zm-1.07813-.125q0-1.07813-.46875-1.6875-.45312-.625-1.25-.625-.98438 0-1.46875.85937v3.03126q.48437.875 1.48437.875.78126 0 1.23438-.60938.46875-.625.46875-1.84375zm5.35937 3.34375q-1.29687 0-2.10937-.84375-.79687-.85937-.79687-2.28125v-.1875q0-.95312.35937-1.6875.35937-.75 1-1.15625.65625-.42187 1.40625-.42187 1.23438 0 1.92188.8125.6875.8125.6875 2.32812v.45312h-4.29688q.03125.9375.54688 1.51563.53124.57813 1.34374.57813.5625 0 .95313-.23438.40625-.23438.71875-.625l.65625.51562q-.79687 1.23438-2.39063 1.23438zm-.14062-5.6875q-.65625 0-1.10938.48438-.4375.46874-.53124 1.32812h3.17187v-.07812q-.04687-.82813-.45313-1.28126-.39062-.45312-1.07812-.45312zm5.28125 2.625-.6875.70312v2.23438h-1.07813v-9h1.07813v5.4375l.57813-.6875 1.98437-2.09375h1.3125l-2.46875 2.65625 2.76562 3.6875h-1.28124zm7.92187 1.25q0-.4375-.34374-.67188-.32813-.25-1.15626-.42187-.8125-.17187-1.29687-.42187-.48437-.25-.71875-.57813-.21875-.34375-.21875-.8125 0-.78125.65625-1.3125.65625-.54687 1.6875-.54687 1.07812 0 1.73438.5625.67187.54687.67187 1.40624h-1.07813q0-.4375-.39062-.75-.375-.32812-.9375-.32812-.59375 0-.9375.26562-.32812.25-.32812.65626 0 .39062.3125.59374.3125.20313 1.125.39063.8125.17187 1.3125.42187.5.25.73437.60938.25.35938.25.85938 0 .85937-.6875 1.375-.67187.51562-1.75.51562-.76563 0-1.35937-.26562-.57813-.28126-.90626-.76563-.32812-.48437-.32812-1.04687h1.07812q.03126.54687.4375.875.40626.3125 1.07813.3125.60937 0 .98437-.25.375-.25.375-.67188zm7.65626-1.40625q0 1.4375-.65626 2.32813-.65624.89062-1.79687.89062-1.15625 0-1.8125-.73438v3.04688h-1.07813v-8.78125h.98438l.04688.70313q.67187-.8125 1.84374-.8125 1.14063 0 1.79688.85937.67188.85937.67188 2.39063zm-1.07813-.125q0-1.07813-.46875-1.6875-.45312-.625-1.25-.625-.98438 0-1.46875.85937v3.03126q.48437.875 1.48437.875.78126 0 1.23438-.60938.46875-.625.46875-1.84375zm2.4375-.01563q0-.92187.35937-1.67187.375-.75 1.03126-1.14063.65624-.40624 1.48437-.40624 1.29687 0 2.09375.89062.8125.89062.8125 2.39062v.07813q0 .92187-.35938 1.65625-.35937.73438-1.01562 1.15625-.65625.40625-1.51562.40625-1.28126 0-2.09376-.89062-.79687-.90626-.79687-2.39063zm1.09375.14063q0 1.04687.48438 1.6875.5.64063 1.3125.64063.82812 0 1.3125-.64063.48437-.65625.48437-1.82813 0-1.03124-.5-1.67187-.48437-.65625-1.3125-.65625-.79687 0-1.29687.64062-.48438.625-.48438 1.82813zm9.26562-2.28125q-.25-.03125-.53124-.03125-1.07813 0-1.45313.90625v4.5h-1.07813v-6.34375h1.04688l.01562.73437q.53126-.84374 1.51563-.84374.3125 0 .48437.07812zm2.40626-2.5v1.53125h1.17187v.84375h-1.17187v3.92188q0 .39062.15624.57812.15626.1875.53126.1875.1875 0 .51562-.0625v.875q-.42188.125-.82812.125-.71876 0-1.09376-.4375-.375-.45312-.375-1.26562v-3.92188h-1.15624v-.84375h1.15624v-1.53125zm6.21874 6.1875q0-.4375-.34374-.67188-.32813-.25-1.15626-.42187-.8125-.17187-1.29687-.42187-.48437-.25-.71875-.57813-.21875-.34375-.21875-.8125 0-.78125.65625-1.3125.65625-.54687 1.6875-.54687 1.07812 0 1.73438.5625.67187.54687.67187 1.40624h-1.07813q0-.4375-.39062-.75-.375-.32812-.9375-.32812-.59375 0-.9375.26562-.32812.25-.32812.65626 0 .39062.3125.59374.3125.20313 1.125.39063.8125.17187 1.3125.42187.5.25.73437.60938.25.35938.25.85938 0 .85937-.6875 1.375-.67187.51562-1.75.51562-.76563 0-1.35937-.26562-.57813-.28126-.90626-.76563-.32812-.48437-.32812-1.04687h1.07812q.03126.54687.4375.875.40626.3125 1.07813.3125.60937 0 .98437-.25.375-.25.375-.67188z" fill="#1a1a1a"/><path d="m258.5 282c0-.55228.44772-1 1-1h10c.55228 0 1 .44772 1 1v10c0 .55228-.44772 1-1 1h-10c-.55228 0-1-.44772-1-1z" fill="#22aefb"/><path d="m280.9375 282.96875 2.79688 6.95313 2.78124-6.95313h1.46876v8.53125h-1.125v-3.32812l.10937-3.57813-2.8125 6.90625h-.85937l-2.79688-6.89062.10938 3.5625v3.32812h-1.125v-8.53125zm11.01562 8.65625q-1.29687 0-2.10937-.84375-.79687-.85937-.79687-2.28125v-.1875q0-.95312.35937-1.6875.35937-.75 1-1.15625.65625-.42187 1.40625-.42187 1.23438 0 1.92188.8125.6875.8125.6875 2.32812v.45312h-4.29688q.03125.9375.54688 1.51563.53124.57813 1.34374.57813.5625 0 .95313-.23438.40625-.23438.71875-.625l.65625.51562q-.79687 1.23438-2.39063 1.23438zm-.14062-5.6875q-.65625 0-1.10938.48438-.4375.46874-.53124 1.32812h3.17187v-.07812q-.04687-.82813-.45313-1.28126-.39062-.45312-1.07812-.45312zm4.53125 4.67188h3.70313v.89062h-5.03126v-.79688l3.5-4.64062h-3.45312v-.90625h4.8125v.76563zm1.15625-7.10938.89062-1h.9375v.0625l-1.5 1.60938h-.65624l-1.46876-1.60938v-.0625h.92188zm7.73438 8q-.09376-.1875-.15626-.67188-.75.79688-1.79687.79688-.9375 0-1.54687-.53125-.59376-.53125-.59376-1.35937 0-.98438.75-1.53126.75-.54687 2.125-.54687h1.04688v-.5q0-.5625-.34375-.89063-.32813-.34374-1-.34374-.57813 0-.96875.29687-.39062.28125-.39062.70313h-1.09376q0-.48438.32813-.92188.34375-.4375.92187-.6875.57813-.26562 1.26563-.26562 1.10937 0 1.71875.54687.625.54687.65625 1.5v2.92187q0 .875.21875 1.39063v.09375zm-1.79688-.82812q.51562 0 .96875-.26563.45313-.26563.65625-.6875v-1.29687h-.84375q-2 0-2 1.17187 0 .5.34375.79687.34375.28126.875.28126zm8.90625-5.51563.03125.79687q.73438-.90624 1.90625-.90624 2.01563 0 2.03125 2.26562v4.1875h-1.09375v-4.20312q0-.67188-.3125-1-.29687-.32813-.95313-.32813-.53124 0-.9375.28125-.39062.28125-.60937.73438v4.51562h-1.07813v-6.34375zm5.6875 3.10937q0-.92187.35937-1.67187.375-.75 1.03126-1.14063.65624-.40624 1.48437-.40624 1.29687 0 2.09375.89062.8125.89062.8125 2.39062v.07813q0 .92187-.35938 1.65625-.35937.73438-1.01562 1.15625-.65625.40625-1.51562.40625-1.28126 0-2.09376-.89062-.79687-.90626-.79687-2.39063zm1.09375.14063q0 1.04687.48438 1.6875.5.64063 1.3125.64063.82812 0 1.3125-.64063.48437-.65625.48437-1.82813 0-1.03124-.5-1.67187-.48437-.65625-1.3125-.65625-.79687 0-1.29687.64062-.48438.625-.48438 1.82813zm7.21875 2.20313h3.70313v.89062h-5.03126v-.79688l3.5-4.64062h-3.45312v-.90625h4.8125v.76563zm8.89063.89062q-.09376-.1875-.15626-.67188-.75.79688-1.79687.79688-.9375 0-1.54687-.53125-.59376-.53125-.59376-1.35937 0-.98438.75-1.53126.75-.54687 2.125-.54687h1.04688v-.5q0-.5625-.34375-.89063-.32813-.34374-1-.34374-.57813 0-.96875.29687-.39062.28125-.39062.70313h-1.09376q0-.48438.32813-.92188.34375-.4375.92187-.6875.57813-.26562 1.26563-.26562 1.10937 0 1.71875.54687.625.54687.65625 1.5v2.92187q0 .875.21875 1.39063v.09375zm-1.79688-.82812q.51562 0 .96875-.26563.45313-.26563.65625-.6875v-1.29687h-.84375q-2 0-2 1.17187 0 .5.34375.79687.34375.28126.875.28126zm7.95312-4.54688q-.25-.03125-.53124-.03125-1.07813 0-1.45313.90625v4.5h-1.07813v-6.34375h1.04688l.01562.73437q.53126-.84374 1.51563-.84374.3125 0 .48437.07812zm3.5625 5.5q-1.29687 0-2.10937-.84375-.79687-.85937-.79687-2.28125v-.1875q0-.95312.35937-1.6875.35937-.75 1-1.15625.65625-.42187 1.40625-.42187 1.23438 0 1.92188.8125.6875.8125.6875 2.32812v.45312h-4.29688q.03125.9375.54688 1.51563.53124.57813 1.34374.57813.5625 0 .95313-.23438.40625-.23438.71875-.625l.65625.51562q-.79687 1.23438-2.39063 1.23438zm-.14062-5.6875q-.65625 0-1.10938.48438-.4375.46874-.53124 1.32812h3.17187v-.07812q-.04687-.82813-.45313-1.28126-.39062-.45312-1.07812-.45312zm7.20312 3.875q0-.4375-.34374-.67188-.32813-.25-1.15626-.42187-.8125-.17187-1.29687-.42187-.48437-.25-.71875-.57813-.21875-.34375-.21875-.8125 0-.78125.65625-1.3125.65625-.54687 1.6875-.54687 1.07812 0 1.73438.5625.67187.54687.67187 1.40624h-1.07813q0-.4375-.39062-.75-.375-.32812-.9375-.32812-.59375 0-.9375.26562-.32812.25-.32812.65626 0 .39062.3125.59374.3125.20313 1.125.39063.8125.17187 1.3125.42187.5.25.73437.60938.25.35938.25.85938 0 .85937-.6875 1.375-.67187.51562-1.75.51562-.76563 0-1.35937-.26562-.57813-.28126-.90626-.76563-.32812-.48437-.32812-1.04687h1.07812q.03126.54687.4375.875.40626.3125 1.07813.3125.60937 0 .98437-.25.375-.25.375-.67188zm10.65626-1.40625q0 1.4375-.65626 2.32813-.65624.89062-1.79687.89062-1.15625 0-1.8125-.73438v3.04688h-1.07813v-8.78125h.98438l.04688.70313q.67187-.8125 1.84374-.8125 1.14063 0 1.79688.85937.67188.85937.67188 2.39063zm-1.07813-.125q0-1.07813-.46875-1.6875-.45312-.625-1.25-.625-.98438 0-1.46875.85937v3.03126q.48437.875 1.48437.875.78126 0 1.23438-.60938.46875-.625.46875-1.84375zm5.79687-2.15625q-.25-.03125-.53124-.03125-1.07813 0-1.45313.90625v4.5h-1.07813v-6.34375h1.04688l.01562.73437q.53126-.84374 1.51563-.84374.3125 0 .48437.07812zm.64063 2.14062q0-.92187.35937-1.67187.375-.75 1.03126-1.14063.65624-.40624 1.48437-.40624 1.29687 0 2.09375.89062.8125.89062.8125 2.39062v.07813q0 .92187-.35938 1.65625-.35937.73438-1.01562 1.15625-.65625.40625-1.51562.40625-1.28126 0-2.09376-.89062-.79687-.90626-.79687-2.39063zm1.09375.14063q0 1.04687.48438 1.6875.5.64063 1.3125.64063.82812 0 1.3125-.64063.48437-.65625.48437-1.82813 0-1.03124-.5-1.67187-.48437-.65625-1.3125-.65625-.79687 0-1.29687.64062-.48438.625-.48438 1.82813zm5.9375-.125q0-1.46875.6875-2.34375.6875-.89062 1.8125-.89062 1.10938 0 1.76562.75v-3.29688h1.07813v9h-1l-.04687-.6875q-.65626.8125-1.8125.8125-1.09376 0-1.79688-.90625-.6875-.90625-.6875-2.35937zm1.07812.125q0 1.07813.4375 1.6875.45313.60937 1.23438.60937 1.03125 0 1.51562-.9375v-2.90624q-.48437-.89063-1.5-.89063-.79687 0-1.25.60937-.4375.60938-.4375 1.82813zm10.09376 2.46875q-.625.75-1.85938.75-1.01562 0-1.54688-.59375-.53124-.59375-.53124-1.75v-4.125h1.07812v4.09375q0 1.45312 1.17188 1.45312 1.25 0 1.65624-.9375v-4.60937h1.09376v6.34375h-1.03126zm4.85937-2.3125-.6875.70312v2.23438h-1.07813v-9h1.07813v5.4375l.57813-.6875 1.98437-2.09375h1.3125l-2.46875 2.65625 2.76562 3.6875h-1.28124zm6.76563 2.17188q.57812 0 1.01562-.34376.4375-.35937.48438-.89062h1.03124q-.03124.54688-.39062 1.04688-.34375.48437-.92188.78124-.5625.29688-1.21874.29688-1.29688 0-2.0625-.85938-.75-.875-.75-2.375v-.1875q0-.92187.32812-1.64062.34375-.71875.96875-1.10938.64063-.40624 1.51563-.40624 1.0625 0 1.76562.64062.71875.625.76562 1.65625h-1.03124q-.04688-.625-.46876-1.01563-.42187-.39062-1.03124-.39062-.82813 0-1.28126.59375-.45312.59375-.45312 1.71875v.20312q0 1.09376.45312 1.6875.45313.59376 1.28126.59376zm4.64062.76562h-1.07812v-6.34375h1.07812zm-1.17188-8.01562q0-.26563.15626-.45313.17187-.1875.48437-.1875.3125 0 .46875.1875.17188.1875.17188.45313 0 .25-.17188.4375-.15625.17187-.46875.17187-.3125 0-.48437-.17187-.15626-.1875-.15626-.4375zm4.10938 1.67187v7.07813q0 1.82812-1.65625 1.82812-.35937 0-.65625-.10938v-.85937q.1875.04687.48438.04687.35937 0 .54687-.20312.20313-.1875.20313-.6875v-7.09375zm-1.1875-1.67187q0-.26563.15625-.45313.15625-.1875.46875-.1875.3125 0 .46875.1875.17187.1875.17187.45313 0 .25-.17187.4375-.15625.17187-.46875.17187-.3125 0-.46875-.17187-.15625-.1875-.15625-.4375zm6.98438 8.01562q-.09376-.1875-.15626-.67188-.75.79688-1.79687.79688-.9375 0-1.54687-.53125-.59376-.53125-.59376-1.35937 0-.98438.75-1.53126.75-.54687 2.125-.54687h1.04688v-.5q0-.5625-.34375-.89063-.32813-.34374-1-.34374-.57813 0-.96875.29687-.39062.28125-.39062.70313h-1.09376q0-.48438.32813-.92188.34375-.4375.92187-.6875.57813-.26562 1.26563-.26562 1.10937 0 1.71875.54687.625.54687.65625 1.5v2.92187q0 .875.21875 1.39063v.09375zm-1.79688-.82812q.51562 0 .96875-.26563.45313-.26563.65625-.6875v-1.29687h-.84375q-2 0-2 1.17187 0 .5.34375.79687.34375.28126.875.28126zm8.57812-.85938q0-.4375-.34374-.67188-.32813-.25-1.15626-.42187-.8125-.17187-1.29687-.42187-.48437-.25-.71875-.57813-.21875-.34375-.21875-.8125 0-.78125.65625-1.3125.65625-.54687 1.6875-.54687 1.07812 0 1.73438.5625.67187.54687.67187 1.40624h-1.07813q0-.4375-.39062-.75-.375-.32812-.9375-.32812-.59375 0-.9375.26562-.32812.25-.32812.65626 0 .39062.3125.59374.3125.20313 1.125.39063.8125.17187 1.3125.42187.5.25.73437.60938.25.35938.25.85938 0 .85937-.6875 1.375-.67187.51562-1.75.51562-.76563 0-1.35937-.26562-.57813-.28126-.90626-.76563-.32812-.48437-.32812-1.04687h1.07812q.03126.54687.4375.875.40626.3125 1.07813.3125.60937 0 .98437-.25.375-.25.375-.67188zm7.9375 1.8125q-1.29687 0-2.10937-.84375-.79687-.85937-.79687-2.28125v-.1875q0-.95312.35937-1.6875.35937-.75 1-1.15625.65625-.42187 1.40625-.42187 1.23438 0 1.92188.8125.6875.8125.6875 2.32812v.45312h-4.29688q.03125.9375.54688 1.51563.53124.57813 1.34374.57813.5625 0 .95313-.23438.40625-.23438.71875-.625l.65625.51562q-.79687 1.23438-2.39063 1.23438zm-.14062-5.6875q-.65625 0-1.10938.48438-.4375.46874-.53124 1.32812h3.17187v-.07812q-.04687-.82813-.45313-1.28126-.39062-.45312-1.07812-.45312zm5.28125 2.625-.6875.70312v2.23438h-1.07813v-9h1.07813v5.4375l.57813-.6875 1.98437-2.09375h1.3125l-2.46875 2.65625 2.76562 3.6875h-1.28124zm7.92187 1.25q0-.4375-.34374-.67188-.32813-.25-1.15626-.42187-.8125-.17187-1.29687-.42187-.48437-.25-.71875-.57813-.21875-.34375-.21875-.8125 0-.78125.65625-1.3125.65625-.54687 1.6875-.54687 1.07812 0 1.73438.5625.67187.54687.67187 1.40624h-1.07813q0-.4375-.39062-.75-.375-.32812-.9375-.32812-.59375 0-.9375.26562-.32812.25-.32812.65626 0 .39062.3125.59374.3125.20313 1.125.39063.8125.17187 1.3125.42187.5.25.73437.60938.25.35938.25.85938 0 .85937-.6875 1.375-.67187.51562-1.75.51562-.76563 0-1.35937-.26562-.57813-.28126-.90626-.76563-.32812-.48437-.32812-1.04687h1.07812q.03126.54687.4375.875.40626.3125 1.07813.3125.60937 0 .98437-.25.375-.25.375-.67188zm7.65626-1.40625q0 1.4375-.65626 2.32813-.65624.89062-1.79687.89062-1.15625 0-1.8125-.73438v3.04688h-1.07813v-8.78125h.98438l.04688.70313q.67187-.8125 1.84374-.8125 1.14063 0 1.79688.85937.67188.85937.67188 2.39063zm-1.07813-.125q0-1.07813-.46875-1.6875-.45312-.625-1.25-.625-.98438 0-1.46875.85937v3.03126q.48437.875 1.48437.875.78126 0 1.23438-.60938.46875-.625.46875-1.84375zm2.4375-.01563q0-.92187.35937-1.67187.375-.75 1.03126-1.14063.65624-.40624 1.48437-.40624 1.29687 0 2.09375.89062.8125.89062.8125 2.39062v.07813q0 .92187-.35938 1.65625-.35937.73438-1.01562 1.15625-.65625.40625-1.51562.40625-1.28126 0-2.09376-.89062-.79687-.90626-.79687-2.39063zm1.09375.14063q0 1.04687.48438 1.6875.5.64063 1.3125.64063.82812 0 1.3125-.64063.48437-.65625.48437-1.82813 0-1.03124-.5-1.67187-.48437-.65625-1.3125-.65625-.79687 0-1.29687.64062-.48438.625-.48438 1.82813zm9.26562-2.28125q-.25-.03125-.53124-.03125-1.07813 0-1.45313.90625v4.5h-1.07813v-6.34375h1.04688l.01562.73437q.53126-.84374 1.51563-.84374.3125 0 .48437.07812zm2.40626-2.5v1.53125h1.17187v.84375h-1.17187v3.92188q0 .39062.15624.57812.15626.1875.53126.1875.1875 0 .51562-.0625v.875q-.42188.125-.82812.125-.71876 0-1.09376-.4375-.375-.45312-.375-1.26562v-3.92188h-1.15624v-.84375h1.15624v-1.53125zm6.21874 6.1875q0-.4375-.34374-.67188-.32813-.25-1.15626-.42187-.8125-.17187-1.29687-.42187-.48437-.25-.71875-.57813-.21875-.34375-.21875-.8125 0-.78125.65625-1.3125.65625-.54687 1.6875-.54687 1.07812 0 1.73438.5625.67187.54687.67187 1.40624h-1.07813q0-.4375-.39062-.75-.375-.32812-.9375-.32812-.59375 0-.9375.26562-.32812.25-.32812.65626 0 .39062.3125.59374.3125.20313 1.125.39063.8125.17187 1.3125.42187.5.25.73437.60938.25.35938.25.85938 0 .85937-.6875 1.375-.67187.51562-1.75.51562-.76563 0-1.35937-.26562-.57813-.28126-.90626-.76563-.32812-.48437-.32812-1.04687h1.07812q.03126.54687.4375.875.40626.3125 1.07813.3125.60937 0 .98437-.25.375-.25.375-.67188z" fill="#1a1a1a"/></svg>