<svg fill="none" height="300" stroke-linecap="square" stroke-miterlimit="10" viewBox="0 0 580 300" width="580" xmlns="http://www.w3.org/2000/svg"><path d="m0 0h580v300h-580z" fill="none"/><path d="m237.90363 25.456963c16.50123-6.90247 34.20965-10.456963 52.09637-10.456963v33.75c-13.41504 0-26.69635 2.66587-39.07228 7.84272z" fill="#38761d"/><path d="m237.77747 25.509813c.04203-.017639.0841-.035255.12616-.05285l13.02409 31.135757c-.03154.0132-.06308.02641-.09462.03964z" fill="#4472c4"/><path d="m258.75595 281.33472c-56.83881-13.52172-98.5293-62.0717-103.30432-120.3013-4.77503-58.22961 28.44919-112.922832 82.32584-135.523607l13.05563 31.122547c-40.40749 16.95058-65.32564 57.97049-61.74437 101.64269 3.58125 43.67222 34.84912 80.08469 77.47823 90.22599z" fill="#c00000"/><path d="m290 15c52.00586 0 99.38757 29.87285 121.809 76.797165 22.42138 46.924315 15.89522 102.555455-16.77748 143.016615-32.67269 40.46115-85.68167 58.55704-136.27557 46.52094l7.81101-32.83368c37.94544 9.02706 77.70217-4.54484 102.20669-34.8907 24.50452-30.34587 29.39915-72.06924 12.5831-107.26247-16.81607-35.19323-52.35235-57.59787-91.35675-57.59787z" fill="#ffc000"/><path d="m22.765625 22.921875q0 1.265625-.453125 2.21875-.4375.9375-1.265625 1.46875-.828125.515625-1.890625.515625-1.0625 0-1.90625-.515625-.828125-.515625-1.28125-1.453125-.453125-.953125-.46875-2.1875v-.421875q0-1.25.453125-2.203125.453125-.96875 1.28125-1.484375.84375-.515625 1.90625-.515625 1.0625 0 1.890625.515625.828125.515625 1.28125 1.484375.453125.953125.453125 2.203125zm-1.78125-.375q0-1.34375-.484375-2.046875-.46875-.703125-1.359375-.703125-.890625 0-1.375.703125-.46875.6875-.484375 2.015625v.40625q0 1.3125.484375 2.03125.484375.71875 1.390625.71875.875 0 1.34375-.6875.484375-.703125.484375-2.03125zm4.6875-3.453125v1.5625h1.09375v1.25h-1.09375v3.15625q0 .359375.140625.515625.140625.140625.515625.140625.28125 0 .5-.03125v1.28125q-.5.15625-1.03125.15625-1.78125 0-1.8125-1.8125v-3.40625h-.921875v-1.25h.921875v-1.5625zm3.625 2.25q.6875-.796875 1.703125-.796875 2.0625 0 2.09375 2.390625v4.0625h-1.703125v-4.015625q0-.546875-.234375-.796875-.234375-.265625-.78125-.265625-.734375 0-1.078125.578125v4.5h-1.6875v-9h1.6875zm8.265625 5.78125q-1.390625 0-2.265625-.859375-.875-.859375-.875-2.28125v-.171875q0-.953125.359375-1.703125.375-.75 1.046875-1.15625.6875-.40625 1.546875-.40625 1.3125 0 2.046875.828125.75.8125.75 2.3125v.6875h-4.03125q.078125.625.484375 1 .421875.375 1.0625.375.96875 0 1.515625-.703125l.84375.921875q-.390625.546875-1.046875.859375-.640625.296875-1.4375.296875zm-.1875-5.21875q-.5 0-.8125.34375-.3125.34375-.40625.96875h2.359375v-.125q-.015625-.5625-.3125-.875-.28125-.3125-.828125-.3125zm6.84375.34375q-.34375-.046875-.609375-.046875-.96875 0-1.265625.640625v4.15625h-1.6875v-6.34375h1.59375l.046875.765625q.515625-.875 1.40625-.875.28125 0 .53125.078125zm3.890625 4.75v-5.09375h-.9375v-1.25h.9375v-.53125q0-1.078125.609375-1.65625.625-.59375 1.71875-.59375.359375 0 .859375.125l-.015625 1.3125q-.203125-.0625-.515625-.0625-.953125 0-.953125.90625v.5h1.265625v1.25h-1.265625v5.09375zm6.453125.125q-1.390625 0-2.265625-.859375-.875-.859375-.875-2.28125v-.171875q0-.953125.359375-1.703125.375-.75 1.046875-1.15625.6875-.40625 1.546875-.40625 1.3125 0 2.046875.828125.75.8125.75 2.3125v.6875h-4.03125q.078125.625.484375 1 .421875.375 1.0625.375.96875 0 1.515625-.703125l.84375.921875q-.390625.546875-1.046875.859375-.640625.296875-1.4375.296875zm-.1875-5.21875q-.5 0-.8125.34375-.3125.34375-.40625.96875h2.359375v-.125q-.015625-.5625-.3125-.875-.28125-.3125-.828125-.3125zm5.0625 5.09375h-1.703125v-9h1.703125zm3 0h-1.703125v-9h1.703125zm3 0h-1.703125v-6.34375h1.703125zm-1.796875-7.984375q0-.375.25-.625.265625-.25.703125-.25.421875 0 .671875.25.265625.25.265625.625 0 .390625-.265625.640625-.25.234375-.6875.234375-.421875 0-.6875-.234375-.25-.25-.25-.640625zm4.5625 1.640625.0625.734375q.671875-.84375 1.8125-.84375 1.015625 0 1.5.59375.5.578125.515625 1.765625v4.09375h-1.703125v-4.0625q0-.53125-.234375-.765625-.234375-.25-.78125-.25-.703125 0-1.0625.609375v4.46875h-1.703125v-6.34375zm5.203125 3.125q0-1.453125.6875-2.34375.703125-.890625 1.875-.890625 1.046875 0 1.625.703125l.078125-.59375h1.53125v6.125q0 .84375-.390625 1.453125-.375.625-1.0625.9375-.671875.328125-1.59375.328125-.703125 0-1.375-.28125-.65625-.28125-.984375-.71875l.75-1.03125q.625.703125 1.53125.703125.671875 0 1.046875-.359375.375-.359375.375-1.015625v-.34375q-.578125.671875-1.546875.671875-1.140625 0-1.84375-.890625-.703125-.90625-.703125-2.375zm1.6875.125q0 .859375.34375 1.359375.359375.484375.953125.484375.78125 0 1.109375-.578125v-2.671875q-.34375-.578125-1.09375-.578125-.609375 0-.96875.5-.34375.5-.34375 1.484375z" fill="#1a1a1a"/><path d="m20.171875 36.375v1.40625h-.15625q-1.15625.015625-1.859375.59375-.6875.578125-.828125 1.609375.671875-.6875 1.703125-.6875 1.125 0 1.78125.796875.65625.796875.65625 2.09375 0 .828125-.359375 1.5-.359375.671875-1.03125 1.0625-.65625.375-1.484375.375-1.34375 0-2.171875-.9375-.828125-.953125-.828125-2.515625v-.609375q0-1.390625.515625-2.453125.53125-1.0625 1.5-1.640625.984375-.578125 2.28125-.59375zm-1.65625 4.28125q-.40625 0-.75.21875-.328125.203125-.484375.5625v.515625q0 .84375.328125 1.328125.34375.46875.953125.46875.546875 0 .875-.421875.34375-.4375.34375-1.125 0-.703125-.34375-1.125-.34375-.421875-.921875-.421875zm4.21875 3.515625q0-.40625.265625-.65625.28125-.25.6875-.25.421875 0 .6875.25.28125.25.28125.65625 0 .390625-.28125.640625-.265625.25-.6875.25-.40625 0-.6875-.25-.265625-.25-.265625-.640625zm4.5625-4.1875h.90625q.640625 0 .953125-.3125.3125-.328125.3125-.859375 0-.515625-.3125-.796875-.296875-.296875-.84375-.296875-.484375 0-.8125.265625-.328125.265625-.328125.6875h-1.6875q0-.65625.359375-1.1875.359375-.53125 1-.828125.65625-.3125 1.4375-.3125 1.34375 0 2.109375.65625.78125.640625.78125 1.78125 0 .59375-.359375 1.09375-.359375.484375-.9375.734375.71875.265625 1.0625.78125.359375.515625.359375 1.21875 0 1.140625-.828125 1.828125-.828125.6875-2.1875.6875-1.28125 0-2.09375-.671875-.8125-.6875-.8125-1.796875h1.6875q0 .484375.359375.796875.375.296875.890625.296875.609375 0 .953125-.3125.34375-.328125.34375-.859375 0-1.265625-1.40625-1.265625h-.90625zm5.265625-1.875q0-.78125.5-1.265625.515625-.5 1.34375-.5.828125 0 1.34375.484375.515625.484375.515625 1.3125v.421875q0 .78125-.515625 1.265625-.515625.484375-1.328125.484375-.84375 0-1.359375-.484375-.5-.484375-.5-1.296875zm1.125.453125q0 .34375.203125.5625.203125.21875.53125.21875.328125 0 .515625-.21875.1875-.21875.1875-.578125v-.4375q0-.359375-.1875-.5625-.1875-.21875-.53125-.21875-.328125 0-.53125.21875-.1875.203125-.1875.578125zm2.953125 4.34375q0-.796875.515625-1.265625.515625-.484375 1.328125-.484375.828125 0 1.34375.484375.515625.46875.515625 1.296875v.421875q0 .796875-.5 1.28125-.5.484375-1.34375.484375-.84375 0-1.359375-.484375-.5-.5-.5-1.296875zm1.125.453125q0 .328125.203125.5625.21875.21875.53125.21875.71875 0 .71875-.78125v-.453125q0-.34375-.203125-.5625-.203125-.21875-.53125-.21875-.328125 0-.53125.21875-.1875.21875-.1875.578125zm-3.015625 1-.828125-.4375 4.171875-6.671875.828125.4375z" fill="#9e9e9e"/><path d="m15 31.5h134l115.76065-7.241947" stroke="#757575" stroke-linecap="butt"/><path d="m266.76065 24.258053c0-1.104571-.89545-2-2-2-1.10458 0-2 .895429-2 2 0 1.104568.89542 2 2 2 1.10455 0 2-.895432 2-2" fill="#9e9e9e"/><path d="m22.21875 51.46875v5.625q0 1.390625-.875 2.21875-.875.8125-2.390625.8125-1.5 0-2.375-.796875-.875-.796875-.890625-2.171875v-5.6875h1.75v5.625q0 .84375.390625 1.234375.40625.375 1.125.375 1.484375 0 1.5-1.5625v-5.671875zm2.984375 2.1875.0625.734375q.671875-.84375 1.8125-.84375 1.015625 0 1.5.59375.5.578125.515625 1.765625v4.09375h-1.703125v-4.0625q0-.53125-.234375-.765625-.234375-.25-.78125-.25-.703125 0-1.0625.609375v4.46875h-1.703125v-6.34375zm7.234375 6.34375h-1.703125v-9h1.703125zm4.890625 0q-.125-.234375-.171875-.5625-.609375.6875-1.59375.6875-.9375 0-1.546875-.546875-.609375-.546875-.609375-1.359375 0-1.015625.734375-1.546875.75-.546875 2.171875-.546875h.765625v-.359375q0-.4375-.21875-.703125-.21875-.265625-.71875-.265625-.421875 0-.671875.203125-.234375.203125-.234375.5625h-1.6875q0-.546875.328125-1.015625.34375-.46875.96875-.734375.625-.265625 1.390625-.265625 1.171875 0 1.859375.59375.6875.578125.6875 1.640625v2.75q.015625.90625.25 1.375v.09375zm-1.40625-1.171875q.375 0 .6875-.171875.328125-.171875.46875-.453125v-1.09375h-.625q-1.265625 0-1.359375.890625v.09375q0 .3125.21875.53125.21875.203125.609375.203125zm9.25-1.125.828125-4.046875h1.625l-1.609375 6.34375h-1.421875l-1.203125-3.984375-1.203125 3.984375h-1.40625l-1.609375-6.34375h1.625l.828125 4.03125 1.15625-4.03125h1.234375zm3.9375 2.296875v-5.09375h-.9375v-1.25h.9375v-.53125q0-1.078125.609375-1.65625.625-.59375 1.71875-.59375.359375 0 .859375.125l-.015625 1.3125q-.203125-.0625-.515625-.0625-.953125 0-.953125.90625v.5h1.265625v1.25h-1.265625v5.09375zm7.34375-.640625q-.625.765625-1.734375.765625-1.03125 0-1.5625-.59375-.53125-.59375-.546875-1.71875v-4.15625h1.6875v4.09375q0 1 .90625 1 .859375 0 1.1875-.609375v-4.484375h1.703125v6.34375h-1.59375zm4.984375.640625h-1.703125v-9h1.703125zm4.671875 0v-5.09375h-.9375v-1.25h.9375v-.53125q0-1.078125.609375-1.65625.625-.59375 1.71875-.59375.359375 0 .859375.125l-.015625 1.3125q-.203125-.0625-.515625-.0625-.953125 0-.953125.90625v.5h1.265625v1.25h-1.265625v5.09375zm6.453125.125q-1.390625 0-2.265625-.859375-.875-.859375-.875-2.28125v-.171875q0-.953125.359375-1.703125.375-.75 1.046875-1.15625.6875-.40625 1.546875-.40625 1.3125 0 2.046875.828125.75.8125.75 2.3125v.6875h-4.03125q.078125.625.484375 1 .421875.375 1.0625.375.96875 0 1.515625-.703125l.84375.921875q-.390625.546875-1.046875.859375-.640625.296875-1.4375.296875zm-.1875-5.21875q-.5 0-.8125.34375-.3125.34375-.40625.96875h2.359375v-.125q-.015625-.5625-.3125-.875-.28125-.3125-.828125-.3125zm5.0625 5.09375h-1.703125v-9h1.703125zm3 0h-1.703125v-9h1.703125zm3 0h-1.703125v-6.34375h1.703125zm-1.796875-7.984375q0-.375.25-.625.265625-.25.703125-.25.421875 0 .671875.25.265625.25.265625.625 0 .390625-.265625.640625-.25.234375-.6875.234375-.421875 0-.6875-.234375-.25-.25-.25-.640625zm4.5625 1.640625.0625.734375q.671875-.84375 1.8125-.84375 1.015625 0 1.5.59375.5.578125.515625 1.765625v4.09375h-1.703125v-4.0625q0-.53125-.234375-.765625-.234375-.25-.78125-.25-.703125 0-1.0625.609375v4.46875h-1.703125v-6.34375zm5.203125 3.125q0-1.453125.6875-2.34375.703125-.890625 1.875-.890625 1.046875 0 1.625.703125l.078125-.59375h1.53125v6.125q0 .84375-.390625 1.453125-.375.625-1.0625.9375-.671875.328125-1.59375.328125-.703125 0-1.375-.28125-.65625-.28125-.984375-.71875l.75-1.03125q.625.703125 1.53125.703125.671875 0 1.046875-.359375.375-.359375.375-1.015625v-.34375q-.578125.671875-1.546875.671875-1.140625 0-1.84375-.890625-.703125-.90625-.703125-2.375zm1.6875.125q0 .859375.34375 1.359375.359375.484375.953125.484375.78125 0 1.109375-.578125v-2.671875q-.34375-.578125-1.09375-.578125-.609375 0-.96875.5-.34375.5-.34375 1.484375z" fill="#1a1a1a"/><path d="m21.328125 74.46875q0 1.765625-.734375 2.71875-.734375.9375-2.140625.9375-1.40625 0-2.140625-.921875-.734375-.921875-.75-2.640625v-1.578125q0-1.78125.734375-2.703125.75-.9375 2.140625-.9375 1.390625 0 2.125.921875.75.921875.765625 2.640625zm-1.703125-1.71875q0-1.0625-.296875-1.546875-.28125-.484375-.890625-.484375-.59375 0-.890625.46875-.28125.453125-.296875 1.4375v2.0625q0 1.046875.28125 1.5625.28125.5.921875.5.609375 0 .890625-.484375.28125-.484375.28125-1.484375zm3.109375 4.421875q0-.40625.265625-.65625.28125-.25.6875-.25.421875 0 .6875.25.28125.25.28125.65625 0 .390625-.28125.640625-.265625.25-.6875.25-.40625 0-.6875-.25-.265625-.25-.265625-.640625zm8.59375-2.703125q0 1.765625-.734375 2.71875-.734375.9375-2.140625.9375-1.40625 0-2.140625-.921875-.734375-.921875-.75-2.640625v-1.578125q0-1.78125.734375-2.703125.75-.9375 2.140625-.9375 1.390625 0 2.125.921875.75.921875.765625 2.640625zm-1.703125-1.71875q0-1.0625-.296875-1.546875-.28125-.484375-.890625-.484375-.59375 0-.890625.46875-.28125.453125-.296875 1.4375v2.0625q0 1.046875.28125 1.5625.28125.5.921875.5.609375 0 .890625-.484375.28125-.484375.28125-1.484375zm2.9375-1.640625q0-.78125.5-1.265625.515625-.5 1.34375-.5.828125 0 1.34375.484375.515625.484375.515625 1.3125v.421875q0 .78125-.515625 1.265625-.515625.484375-1.328125.484375-.84375 0-1.359375-.484375-.5-.484375-.5-1.296875zm1.125.453125q0 .34375.203125.5625.203125.21875.53125.21875.328125 0 .515625-.21875.1875-.21875.1875-.578125v-.4375q0-.359375-.1875-.5625-.1875-.21875-.53125-.21875-.328125 0-.53125.21875-.1875.203125-.1875.578125zm2.953125 4.34375q0-.796875.515625-1.265625.515625-.484375 1.328125-.484375.828125 0 1.34375.484375.515625.46875.515625 1.296875v.421875q0 .796875-.5 1.28125-.5.484375-1.34375.484375-.84375 0-1.359375-.484375-.5-.5-.5-1.296875zm1.125.453125q0 .328125.203125.5625.21875.21875.53125.21875.71875 0 .71875-.78125v-.453125q0-.34375-.203125-.5625-.203125-.21875-.53125-.21875-.328125 0-.53125.21875-.1875.21875-.1875.578125zm-3.015625 1-.828125-.4375 4.171875-6.671875.828125.4375z" fill="#9e9e9e"/><path d="m15 64.5h134l91.44852-32.790796" stroke="#757575" stroke-linecap="butt"/><path d="m242.44852 31.709204c0-1.104571-.89543-2-2-2s-2 .895429-2 2c0 1.10457.89543 1.999996 2 1.999996s2-.895426 2-1.999996" fill="#9e9e9e"/><path d="m22.1875 148.87236h-2.609375v7.10938h-1.765625v-7.10938h-2.578125v-1.42187h6.953125zm2.109375 1.45313q.6875-.79688 1.703125-.79688 2.0625 0 2.09375 2.39063v4.0625h-1.703125v-4.01563q0-.54687-.234375-.79687-.234375-.26563-.78125-.26563-.734375 0-1.078125.57813v4.5h-1.6875v-9h1.6875zm7.140625 5.65625h-1.703125v-6.34375h1.703125zm-1.796875-7.98438q0-.375.25-.625.265625-.25.703125-.25.421875 0 .671875.25.265625.25.265625.625 0 .39063-.265625.64063-.25.23437-.6875.23437-.421875 0-.6875-.23437-.25-.25-.25-.64063zm4.5625 1.64063.0625.73437q.671875-.84375 1.8125-.84375 1.015625 0 1.5.59375.5.57813.515625 1.76563v4.09375h-1.703125v-4.0625q0-.53125-.234375-.76563-.234375-.25-.78125-.25-.703125 0-1.0625.60938v4.46875h-1.703125v-6.34375zm7 0 .0625.73437q.671875-.84375 1.8125-.84375 1.015625 0 1.5.59375.5.57813.515625 1.76563v4.09375h-1.703125v-4.0625q0-.53125-.234375-.76563-.234375-.25-.78125-.25-.703125 0-1.0625.60938v4.46875h-1.703125v-6.34375zm7.234375 6.34375h-1.703125v-6.34375h1.703125zm-1.796875-7.98438q0-.375.25-.625.265625-.25.703125-.25.421875 0 .671875.25.265625.25.265625.625 0 .39063-.265625.64063-.25.23437-.6875.23437-.421875 0-.6875-.23437-.25-.25-.25-.64063zm4.5625 1.64063.0625.73437q.671875-.84375 1.8125-.84375 1.015625 0 1.5.59375.5.57813.515625 1.76563v4.09375h-1.703125v-4.0625q0-.53125-.234375-.76563-.234375-.25-.78125-.25-.703125 0-1.0625.60938v4.46875h-1.703125v-6.34375zm5.203125 3.125q0-1.45313.6875-2.34375.703125-.89063 1.875-.89063 1.046875 0 1.625.70313l.078125-.59375h1.53125v6.125q0 .84375-.390625 1.45312-.375.625-1.0625.9375-.671875.32813-1.59375.32813-.703125 0-1.375-.28125-.65625-.28125-.984375-.71875l.75-1.03125q.625.70312 1.53125.70312.671875 0 1.046875-.35937.375-.35938.375-1.01563v-.34375q-.578125.67188-1.546875.67188-1.140625 0-1.84375-.89063-.703125-.90625-.703125-2.375zm1.6875.125q0 .85937.34375 1.35937.359375.48438.953125.48438.78125 0 1.109375-.57813v-2.67187q-.34375-.57813-1.09375-.57813-.609375 0-.96875.5-.34375.5-.34375 1.48438z" fill="#1a1a1a"/><path d="m20.59375 170.76299h.96875v1.375h-.96875v1.84375h-1.703125v-1.84375h-3.484375l-.078125-1.0625 3.546875-5.625h1.71875zm-3.578125 0h1.875v-3l-.109375.1875zm11.3125-.3125q0 1.76562-.734375 2.71875-.734375.9375-2.140625.9375-1.40625 0-2.140625-.92188-.734375-.92187-.75-2.64062v-1.57813q0-1.78125.734375-2.70312.75-.9375 2.140625-.9375 1.390625 0 2.125.92187.75.92188.765625 2.64063zm-1.703125-1.71875q0-1.0625-.296875-1.54688-.28125-.48437-.890625-.48437-.59375 0-.890625.46875-.28125.45312-.296875 1.4375v2.0625q0 1.04687.28125 1.5625.28125.5.921875.5.609375 0 .890625-.48438.28125-.48437.28125-1.48437zm3.109375 4.42187q0-.40625.265625-.65625.28125-.25.6875-.25.421875 0 .6875.25.28125.25.28125.65625 0 .39063-.28125.64063-.265625.25-.6875.25-.40625 0-.6875-.25-.265625-.25-.265625-.64063zm8.59375-2.70312q0 1.76562-.734375 2.71875-.734375.9375-2.140625.9375-1.40625 0-2.140625-.92188-.734375-.92187-.75-2.64062v-1.57813q0-1.78125.734375-2.70312.75-.9375 2.140625-.9375 1.390625 0 2.125.92187.75.92188.765625 2.64063zm-1.703125-1.71875q0-1.0625-.296875-1.54688-.28125-.48437-.890625-.48437-.59375 0-.890625.46875-.28125.45312-.296875 1.4375v2.0625q0 1.04687.28125 1.5625.28125.5.921875.5.609375 0 .890625-.48438.28125-.48437.28125-1.48437zm2.9375-1.64063q0-.78125.5-1.26562.515625-.5 1.34375-.5.828125 0 1.34375.48437.515625.48438.515625 1.3125v.42188q0 .78125-.515625 1.26562-.515625.48438-1.328125.48438-.84375 0-1.359375-.48438-.5-.48437-.5-1.29687zm1.125.45313q0 .34375.203125.5625.203125.21875.53125.21875.328125 0 .515625-.21875.1875-.21875.1875-.57813v-.4375q0-.35937-.1875-.5625-.1875-.21875-.53125-.21875-.328125 0-.53125.21875-.1875.20313-.1875.57813zm2.953125 4.34375q0-.79688.515625-1.26563.515625-.48437 1.328125-.48437.828125 0 1.34375.48437.515625.46875.515625 1.29688v.42187q0 .79688-.5 1.28125-.5.48438-1.34375.48438-.84375 0-1.359375-.48438-.5-.5-.5-1.29687zm1.125.45312q0 .32813.203125.5625.21875.21875.53125.21875.71875 0 .71875-.78125v-.45312q0-.34375-.203125-.5625-.203125-.21875-.53125-.21875-.328125 0-.53125.21875-.1875.21875-.1875.57812zm-3.015625 1-.828125-.4375 4.171875-6.67187.828125.4375z" fill="#9e9e9e"/><path d="m15 160.48174h134 13.17905" stroke="#757575" stroke-linecap="butt"/><path d="m164.17905 160.48174c0-1.10457-.89543-2-2-2s-2 .89543-2 2c0 1.10456.89543 2 2 2s2-.89544 2-2" fill="#9e9e9e"/><path d="m508.89062 156.95831h-3.375v3.48438h-1.75v-8.53125h5.54688v1.42187h-3.79688v2.20313h3.375zm3.54688 3.48438h-1.70312v-6.34375h1.70312zm-1.79688-7.98438q0-.375.25-.625.26563-.25.70313-.25.42185 0 .67185.25.26565.25.26565.625 0 .39063-.26565.64063-.25.23437-.68748.23437-.42187 0-.6875-.23437-.25-.25-.25-.64063zm4.56248 1.64063.0625.73437q.6719-.84375 1.8125-.84375 1.01565 0 1.5.59375.5.57813.51565 1.76563v4.09375h-1.70315v-4.0625q0-.53125-.23435-.76563-.23435-.25-.78125-.25-.7031 0-1.0625.60938v4.46875h-1.7031v-6.34375zm9.125 6.34375q-.125-.23438-.17185-.5625-.60935.6875-1.59375.6875-.9375 0-1.5469-.54688-.60935-.54687-.60935-1.35937 0-1.01563.73435-1.54688.75-.54687 2.1719-.54687h.7656v-.35938q0-.4375-.2187-.70312-.2188-.26563-.7188-.26563-.42185 0-.67185.20313-.23435.20312-.23435.5625h-1.6875q0-.54688.3281-1.01563.34375-.46875.96875-.73437.625-.26563 1.39065-.26563 1.17185 0 1.85935.59375.6875.57813.6875 1.64063v2.75q.01565.90625.25 1.375v.09375zm-1.4062-1.17188q.375 0 .6875-.17187.3281-.17188.4687-.45313v-1.09375h-.625q-1.2656 0-1.35935.89063v.09375q0 .3125.21875.53125.21875.20312.6094.20312zm5.5156 1.17188h-1.7031v-9h1.7031zm4.6719 0v-5.09375h-.9375v-1.25h.9375v-.53125q0-1.07813.60935-1.65625.625-.59375 1.71875-.59375.3594 0 .8594.125l-.01565 1.3125q-.20315-.0625-.51565-.0625-.9531 0-.9531.90625v.5h1.2656v1.25h-1.2656v5.09375zm6.4531.125q-1.3906 0-2.2656-.85938-.875-.85937-.875-2.28125v-.17187q0-.95313.35935-1.70313.375-.75 1.04685-1.15625.6875-.40625 1.5469-.40625 1.3125 0 2.0469.82813.75.8125.75 2.3125v.6875h-4.0313q.07815.625.4844 1 .4219.375 1.0625.375.96875 0 1.5156-.70313l.8438.92188q-.39065.54687-1.0469.85937-.6406.29688-1.4375.29688zm-.1875-5.21875q-.5 0-.8125.34375-.3125.34375-.40625.96875h2.35935v-.125q-.0156-.5625-.3125-.875-.2812-.3125-.8281-.3125zm5.0625 5.09375h-1.7031v-9h1.7031zm3 0h-1.7031v-9h1.7031zm3 0h-1.7031v-6.34375h1.7031zm-1.7969-7.98438q0-.375.25-.625.26565-.25.70315-.25.42185 0 .67185.25.26565.25.26565.625 0 .39063-.26565.64063-.25.23437-.6875.23437-.42185 0-.6875-.23437-.25-.25-.25-.64063zm4.5625 1.64063.0625.73437q.6719-.84375 1.8125-.84375 1.01565 0 1.5.59375.5.57813.51565 1.76563v4.09375h-1.70315v-4.0625q0-.53125-.23435-.76563-.23435-.25-.78125-.25-.7031 0-1.0625.60938v4.46875h-1.7031v-6.34375zm5.20315 3.125q0-1.45313.6875-2.34375.70315-.89063 1.875-.89063 1.04685 0 1.625.70313l.07815-.59375h1.5312v6.125q0 .84375-.3906 1.45312-.375.625-1.0625.9375-.6719.32813-1.59375.32813-.70315 0-1.375-.28125-.65625-.28125-.98435-.71875l.75-1.03125q.625.70312 1.5312.70312.6719 0 1.0469-.35937.375-.35938.375-1.01563v-.34375q-.5781.67188-1.5469.67188-1.1406 0-1.8437-.89063-.70315-.90625-.70315-2.375zm1.6875.125q0 .85937.34375 1.35937.3594.48438.9531.48438.7813 0 1.1094-.57813v-2.67187q-.34375-.57813-1.09375-.57813-.60935 0-.96875.5-.34375.5-.34375 1.48438z" fill="#1a1a1a"/><path d="m532.8281 174.23956.5-4.32812h4.7813v1.40625h-3.39065l-.21875 1.84375q.6094-.32813 1.28125-.32813 1.21875 0 1.90625.76563.7031.75.7031 2.10937 0 .82813-.35935 1.48438-.34375.64062-1 1.01562-.64065.35938-1.53125.35938-.7656 0-1.4375-.3125-.65625-.32813-1.0469-.89063-.375-.5625-.4062-1.29687h1.6875q.04685.53125.35935.82812.32815.29688.84375.29688.5781 0 .875-.40625.3125-.42188.3125-1.17188 0-.73437-.3594-1.10937-.3437-.39063-1-.39063-.60935 0-.98435.3125l-.15625.15625zm8.4688-.8125h.9062q.64065 0 .95315-.3125.3125-.32812.3125-.85937 0-.51563-.3125-.79688-.29685-.29687-.84375-.29687-.4844 0-.8125.26562-.3281.26563-.3281.6875h-1.6875q0-.65625.35935-1.1875.35935-.53125 1-.82812.65625-.3125 1.4375-.3125 1.34375 0 2.10935.65625.7813.64062.7813 1.78125 0 .59375-.3594 1.09375-.3594.48437-.9375.73437.71875.26563 1.0625.78125.3594.51563.3594 1.21875 0 1.14063-.82815 1.82813-.82815.6875-2.1875.6875-1.28125 0-2.09375-.67188-.8125-.6875-.8125-1.79687h1.6875q0 .48437.3594.79687.375.29688.8906.29688.6094 0 .9531-.3125.3438-.32813.3438-.85938 0-1.26562-1.4063-1.26562h-.9062zm5.4375 4.1875q0-.40625.2656-.65625.28125-.25.6875-.25.4219 0 .6875.25.28125.25.28125.65625 0 .39063-.28125.64063-.2656.25-.6875.25-.40625 0-.6875-.25-.2656-.25-.2656-.64063zm8.6406-6.75-3.2969 7.57813h-1.7812l3.29685-7.15625h-4.23435v-1.375h6.0156zm1.1875.6875q0-.78125.5-1.26562.5156-.5 1.34375-.5.82815 0 1.34375.48437.5156.48438.5156 1.3125v.42188q0 .78125-.5156 1.26562-.5156.48438-1.3281.48438-.8438 0-1.3594-.48438-.5-.48437-.5-1.29687zm1.125.45313q0 .34375.2031.5625.20315.21875.5313.21875.3281 0 .5156-.21875.1875-.21875.1875-.57813v-.4375q0-.35937-.1875-.5625-.1875-.21875-.53125-.21875-.32815 0-.53125.21875-.1875.20313-.1875.57813zm2.9531 4.34375q0-.79688.51565-1.26563.51565-.48437 1.32815-.48437.8281 0 1.3437.48437.51565.46875.51565 1.29688v.42187q0 .79688-.5 1.28125-.5.48438-1.34375.48438-.84375 0-1.3594-.48438-.5-.5-.5-1.29687zm1.125.45312q0 .32813.20315.5625.21875.21875.53125.21875.71875 0 .71875-.78125v-.45312q0-.34375-.20315-.5625-.2031-.21875-.5312-.21875-.32815 0-.5313.21875-.1875.21875-.1875.57812zm-3.0156 1-.8281-.4375 4.17185-6.67187.82815.4375z" fill="#9e9e9e"/><path d="m565 164.94269h-134-13.62347" stroke="#757575" stroke-linecap="butt"/><path d="m419.37653 164.94269c0-1.10457-.89545-2-2-2-1.10459 0-2 .89543-2 2s.89541 2 2 2c1.10455 0 2-.89543 2-2" fill="#9e9e9e"/></svg>