<svg fill="none" height="358" stroke-linecap="square" stroke-miterlimit="10" viewBox="0 0 580 358" width="580" xmlns="http://www.w3.org/2000/svg" xmlns:xlink="http://www.w3.org/1999/xlink"><clipPath id="a"><path d="m59.9 25.4h502.2v266.76666h-502.2z"/></clipPath><path d="m0 0h580v358h-580z" fill="none"/><g stroke-linecap="butt"><path d="m59.5 292.5h503" stroke="#333"/><path d="m59.5 225.5h503" stroke="#ccc"/><path d="m59.5 158.5h503" stroke="#ccc"/><path d="m59.5 92.5h503" stroke="#ccc"/><path d="m59.5 25.5h503" stroke="#ccc"/><path d="m59.5 269.5h503" stroke="#e6e6e6"/><path d="m59.5 247.5h503" stroke="#e6e6e6"/><path d="m59.5 203.5h503" stroke="#e6e6e6"/><path d="m59.5 181.5h503" stroke="#e6e6e6"/><path d="m59.5 136.5h503" stroke="#e6e6e6"/><path d="m59.5 114.5h503" stroke="#e6e6e6"/><path d="m59.5 69.5h503" stroke="#e6e6e6"/><path d="m59.5 47.5h503" stroke="#e6e6e6"/><path d="m59.5 292.5v-267" stroke="#000"/></g><path clip-path="url(#a)" d="m139 292h-51v-210h51z"/><path clip-path="url(#a)" d="m139 292h-51v-210h51z" fill="#70ad47"/><path clip-path="url(#a)" d="m218 292h-51v-18h51z"/><path clip-path="url(#a)" d="m218 292h-51v-18h51z" fill="#70ad47"/><path clip-path="url(#a)" d="m297 292h-51v-266h51z"/><path clip-path="url(#a)" d="m297 292h-51v-266h51z" fill="#70ad47"/><path clip-path="url(#a)" d="m377 292h-51v-18h51z"/><path clip-path="url(#a)" d="m377 292h-51v-18h51z" fill="#70ad47"/><path clip-path="url(#a)" d="m456 292h-51v-266h51z"/><path clip-path="url(#a)" d="m456 292h-51v-266h51z" fill="#70ad47"/><path clip-path="url(#a)" d="m535 292h-51v-195h51z"/><path clip-path="url(#a)" d="m535 292h-51v-195h51z" fill="#70ad47"/><path clip-path="url(#a)" d="m139 82h-51v-55c0-1.10457.89543-2 2-2h47c1.10457 0 2 .89543 2 2z"/><path clip-path="url(#a)" d="m139 82h-51v-55c0-1.10457.89543-2 2-2h47c1.10457 0 2 .89543 2 2z" fill="#38761d"/><path clip-path="url(#a)" d="m218 274h-51v-247c0-1.10457.89543-2 2-2h47c1.10457 0 2 .89543 2 2z"/><path clip-path="url(#a)" d="m218 274h-51v-247c0-1.10457.89543-2 2-2h47c1.10457 0 2 .89543 2 2z" fill="#38761d"/><path clip-path="url(#a)" d="m297 26h-51v-.5c0-.276142.22386-.5.5-.5h50c.27615 0 .5.223858.5.5z"/><path clip-path="url(#a)" d="m297 26h-51v-.5c0-.276142.22386-.5.5-.5h50c.27615 0 .5.223858.5.5z" fill="#38761d"/><path clip-path="url(#a)" d="m377 274h-51v-247c0-1.10457.89542-2 2-2h47c1.10458 0 2 .89543 2 2z"/><path clip-path="url(#a)" d="m377 274h-51v-247c0-1.10457.89542-2 2-2h47c1.10458 0 2 .89543 2 2z" fill="#38761d"/><path clip-path="url(#a)" d="m456 26h-51v-.5c0-.276142.22385-.5.5-.5h50c.27615 0 .5.223858.5.5z"/><path clip-path="url(#a)" d="m456 26h-51v-.5c0-.276142.22385-.5.5-.5h50c.27615 0 .5.223858.5.5z" fill="#38761d"/><path clip-path="url(#a)" d="m535 97h-51v-70c0-1.10457.89542-2 2-2h47c1.10455 0 2 .89543 2 2z"/><path clip-path="url(#a)" d="m535 97h-51v-70c0-1.10457.89542-2 2-2h47c1.10455 0 2 .89543 2 2z" fill="#38761d"/><path d="m53.5 292.5h12" stroke="#000" stroke-linecap="butt"/><path d="m53.5 225.5h12" stroke="#000" stroke-linecap="butt"/><path d="m53.5 158.5h12" stroke="#000" stroke-linecap="butt"/><path d="m53.5 92.5h12" stroke="#000" stroke-linecap="butt"/><path d="m53.5 25.5h12" stroke="#000" stroke-linecap="butt"/><path d="m105.375 184.13414-3.296875 7.57813h-1.78125l3.296875-7.15625h-4.234375v-1.375h6.015625zm1.453125 3.375.5-4.32812h4.78125v1.40625h-3.390625l-.21875 1.84375q.609375-.32813 1.28125-.32813 1.21875 0 1.90625.76563.703125.75.703125 2.10937 0 .82813-.359375 1.48438-.34375.64062-1 1.01562-.640625.35938-1.53125.35938-.765625 0-1.4375-.3125-.65625-.32813-1.046875-.89063-.375-.5625-.40625-1.29687h1.6875q.046875.53125.359375.82812.328125.29688.84375.29688.578125 0 .875-.40625.3125-.42188.3125-1.17188 0-.73437-.359375-1.10937-.34375-.39063-1-.39063-.609375 0-.984375.3125l-.15625.15625zm8.46875-.8125h.90625q.640625 0 .953125-.3125.3125-.32812.3125-.85937 0-.51563-.3125-.79688-.296875-.29687-.84375-.29687-.484375 0-.8125.26562-.328125.26563-.328125.6875h-1.6875q0-.65625.359375-1.1875.359375-.53125 1-.82812.65625-.3125 1.4375-.3125 1.34375 0 2.109375.65625.78125.64062.78125 1.78125 0 .59375-.359375 1.09375-.359375.48437-.9375.73437.71875.26563 1.0625.78125.359375.51563.359375 1.21875 0 1.14063-.828125 1.82813-.828125.6875-2.1875.6875-1.28125 0-2.09375-.67188-.8125-.6875-.8125-1.79687h1.6875q0 .48437.359375.79687.375.29688.890625.29688.609375 0 .953125-.3125.34375-.32813.34375-.85938 0-1.26562-1.40625-1.26562h-.90625zm5.53125.8125.5-4.32812h4.78125v1.40625h-3.390625l-.21875 1.84375q.609375-.32813 1.28125-.32813 1.21875 0 1.90625.76563.703125.75.703125 2.10937 0 .82813-.359375 1.48438-.34375.64062-1 1.01562-.640625.35938-1.53125.35938-.765625 0-1.4375-.3125-.65625-.32813-1.046875-.89063-.375-.5625-.40625-1.29687h1.6875q.046875.53125.359375.82812.328125.29688.84375.29688.578125 0 .875-.40625.3125-.42188.3125-1.17188 0-.73437-.359375-1.10937-.34375-.39063-1-.39063-.609375 0-.984375.3125l-.15625.15625z" stroke="#70ad47" stroke-linecap="round" stroke-linejoin="round" stroke-width="3"/><path d="m105.375 184.13414-3.296875 7.57813h-1.78125l3.296875-7.15625h-4.234375v-1.375h6.015625zm1.453125 3.375.5-4.32812h4.78125v1.40625h-3.390625l-.21875 1.84375q.609375-.32813 1.28125-.32813 1.21875 0 1.90625.76563.703125.75.703125 2.10937 0 .82813-.359375 1.48438-.34375.64062-1 1.01562-.640625.35938-1.53125.35938-.765625 0-1.4375-.3125-.65625-.32813-1.046875-.89063-.375-.5625-.40625-1.29687h1.6875q.046875.53125.359375.82812.328125.29688.84375.29688.578125 0 .875-.40625.3125-.42188.3125-1.17188 0-.73437-.359375-1.10937-.34375-.39063-1-.39063-.609375 0-.984375.3125l-.15625.15625zm8.46875-.8125h.90625q.640625 0 .953125-.3125.3125-.32812.3125-.85937 0-.51563-.3125-.79688-.296875-.29687-.84375-.29687-.484375 0-.8125.26562-.328125.26563-.328125.6875h-1.6875q0-.65625.359375-1.1875.359375-.53125 1-.82812.65625-.3125 1.4375-.3125 1.34375 0 2.109375.65625.78125.64062.78125 1.78125 0 .59375-.359375 1.09375-.359375.48437-.9375.73437.71875.26563 1.0625.78125.359375.51563.359375 1.21875 0 1.14063-.828125 1.82813-.828125.6875-2.1875.6875-1.28125 0-2.09375-.67188-.8125-.6875-.8125-1.79687h1.6875q0 .48437.359375.79687.375.29688.890625.29688.609375 0 .953125-.3125.34375-.32813.34375-.85938 0-1.26562-1.40625-1.26562h-.90625zm5.53125.8125.5-4.32812h4.78125v1.40625h-3.390625l-.21875 1.84375q.609375-.32813 1.28125-.32813 1.21875 0 1.90625.76563.703125.75.703125 2.10937 0 .82813-.359375 1.48438-.34375.64062-1 1.01562-.640625.35938-1.53125.35938-.765625 0-1.4375-.3125-.65625-.32813-1.046875-.89063-.375-.5625-.40625-1.29687h1.6875q.046875.53125.359375.82812.328125.29688.84375.29688.578125 0 .875-.40625.3125-.42188.3125-1.17188 0-.73437-.359375-1.10937-.34375-.39063-1-.39063-.609375 0-.984375.3125l-.15625.15625z" fill="#fff"/><path d="m182.32812 283.3313.5-4.32813h4.78126v1.40625h-3.39063l-.21875 1.84375q.60938-.32812 1.28125-.32812 1.21875 0 1.90625.76562.70312.75.70312 2.10938 0 .82812-.35937 1.48437-.34375.64063-1 1.01563-.64063.35937-1.53125.35937-.76562 0-1.4375-.3125-.65625-.32812-1.04688-.89062-.375-.5625-.40624-1.29688h1.6875q.04687.53125.35937.82813.32813.29687.84375.29687.57812 0 .875-.40625.3125-.42187.3125-1.17187 0-.73438-.35938-1.10938-.34374-.39062-1-.39062-.60937 0-.98437.3125l-.15625.15625zm10.71876.79687q-.67188.64063-1.54688.64063-1.14062 0-1.82812-.76563-.67188-.78125-.67188-2.09375 0-.84375.35938-1.54687.375-.70313 1.03124-1.09375.65626-.39063 1.48438-.39063.84375 0 1.5.42188.65625.42187 1.01562 1.21875.35938.79687.375 1.8125v.625q0 2.14062-1.0625 3.35937-1.0625 1.21875-3.01562 1.29688h-.40625v-1.40625l.375-.01563q2.20313-.09375 2.39063-2.0625zm-1.14063-.65625q.42187 0 .70313-.20312.29687-.21875.45312-.51563v-.6875q0-.85937-.32812-1.32812-.32813-.48438-.875-.48438-.51563 0-.84376.46875-.32812.45313-.32812 1.15625 0 .70313.3125 1.15625.32812.4375.90625.4375zm8.28125 4.0625h-1.6875v-6.53125l-2.01562.625v-1.375l3.53124-1.26562h.17188z" stroke="#70ad47" stroke-linecap="round" stroke-linejoin="round" stroke-width="3"/><path d="m182.32812 283.3313.5-4.32813h4.78126v1.40625h-3.39063l-.21875 1.84375q.60938-.32812 1.28125-.32812 1.21875 0 1.90625.76562.70312.75.70312 2.10938 0 .82812-.35937 1.48437-.34375.64063-1 1.01563-.64063.35937-1.53125.35937-.76562 0-1.4375-.3125-.65625-.32812-1.04688-.89062-.375-.5625-.40624-1.29688h1.6875q.04687.53125.35937.82813.32813.29687.84375.29687.57812 0 .875-.40625.3125-.42187.3125-1.17187 0-.73438-.35938-1.10938-.34374-.39062-1-.39062-.60937 0-.98437.3125l-.15625.15625zm10.71876.79687q-.67188.64063-1.54688.64063-1.14062 0-1.82812-.76563-.67188-.78125-.67188-2.09375 0-.84375.35938-1.54687.375-.70313 1.03124-1.09375.65626-.39063 1.48438-.39063.84375 0 1.5.42188.65625.42187 1.01562 1.21875.35938.79687.375 1.8125v.625q0 2.14062-1.0625 3.35937-1.0625 1.21875-3.01562 1.29688h-.40625v-1.40625l.375-.01563q2.20313-.09375 2.39063-2.0625zm-1.14063-.65625q.42187 0 .70313-.20312.29687-.21875.45312-.51563v-.6875q0-.85937-.32812-1.32812-.32813-.48438-.875-.48438-.51563 0-.84376.46875-.32812.45313-.32812 1.15625 0 .70313.3125 1.15625.32812.4375.90625.4375zm8.28125 4.0625h-1.6875v-6.53125l-2.01562.625v-1.375l3.53124-1.26562h.17188z" fill="#fff"/><path d="m257.82812 159.24042.5-4.32812h4.78126v1.40624h-3.39063l-.21875 1.84376q.60938-.32813 1.28125-.32813 1.21875 0 1.90625.76563.70312.75.70312 2.10937 0 .82813-.35937 1.48437-.34375.64063-1 1.01563-.64063.35937-1.53125.35937-.76562 0-1.4375-.3125-.65625-.32812-1.04688-.89062-.375-.5625-.40624-1.29688h1.6875q.04687.53126.35937.82813.32813.29687.84375.29687.57812 0 .875-.40624.3125-.42188.3125-1.17188 0-.73438-.35938-1.10938-.34374-.39062-1-.39062-.60937 0-.98437.3125l-.15625.15625zm12.3125-2.0625q0 .625-.3125 1.10938-.3125.46874-.85937.76562.625.29688.98437.82812.375.51563.375 1.21876 0 1.14062-.78124 1.8125-.76563.65624-2.10938.65624-1.32812 0-2.10938-.65624-.76562-.67188-.76562-1.8125 0-.70313.35938-1.23438.35937-.53125.98437-.8125-.54687-.29688-.85937-.76562-.3125-.48438-.3125-1.10938 0-1.09375.71874-1.73438.73438-.65624 1.98438-.65624 1.25 0 1.96875.65624.73437.64063.73437 1.73438zm-1.51562 3.79688q0-.54688-.32812-.875-.3125-.34376-.85938-.34376-.54688 0-.875.32813-.3125.32813-.3125.89063 0 .54687.3125.89062.32812.32812.89062.32812.54688 0 .85938-.3125.3125-.32812.3125-.90624zm-.17188-3.71876q0-.5-.26562-.79687-.26562-.29687-.75-.29687-.46875 0-.73438.29687-.26562.28125-.26562.79687 0 .51563.26562.82813.26563.3125.73438.3125.48438 0 .75-.3125.26562-.3125.26562-.82813zm8.96876 6.1875h-5.84376v-1.15624l2.76563-2.95313q.5625-.60937.82813-1.07813.28124-.46874.28124-.875 0-.57812-.29687-.89062-.28125-.32812-.8125-.32812-.57813 0-.90625.39062-.32812.39062-.32812 1.04688h-1.70313q0-.78126.375-1.42188.375-.65625 1.04687-1.01562.6875-.375 1.54688-.375 1.3125 0 2.04688.64062.73437.625.73437 1.78125 0 .64063-.32813 1.29687-.32812.65626-1.125 1.53126l-1.9375 2.04687h3.65626zm5.26562 0h-1.6875v-6.53124l-2.01562.625v-1.375l3.53124-1.26563h.17188z" stroke="#70ad47" stroke-linecap="round" stroke-linejoin="round" stroke-width="3"/><path d="m257.82812 159.24042.5-4.32812h4.78126v1.40624h-3.39063l-.21875 1.84376q.60938-.32813 1.28125-.32813 1.21875 0 1.90625.76563.70312.75.70312 2.10937 0 .82813-.35937 1.48437-.34375.64063-1 1.01563-.64063.35937-1.53125.35937-.76562 0-1.4375-.3125-.65625-.32812-1.04688-.89062-.375-.5625-.40624-1.29688h1.6875q.04687.53126.35937.82813.32813.29687.84375.29687.57812 0 .875-.40624.3125-.42188.3125-1.17188 0-.73438-.35938-1.10938-.34374-.39062-1-.39062-.60937 0-.98437.3125l-.15625.15625zm12.3125-2.0625q0 .625-.3125 1.10938-.3125.46874-.85937.76562.625.29688.98437.82812.375.51563.375 1.21876 0 1.14062-.78124 1.8125-.76563.65624-2.10938.65624-1.32812 0-2.10938-.65624-.76562-.67188-.76562-1.8125 0-.70313.35938-1.23438.35937-.53125.98437-.8125-.54687-.29688-.85937-.76562-.3125-.48438-.3125-1.10938 0-1.09375.71874-1.73438.73438-.65624 1.98438-.65624 1.25 0 1.96875.65624.73437.64063.73437 1.73438zm-1.51562 3.79688q0-.54688-.32812-.875-.3125-.34376-.85938-.34376-.54688 0-.875.32813-.3125.32813-.3125.89063 0 .54687.3125.89062.32812.32812.89062.32812.54688 0 .85938-.3125.3125-.32812.3125-.90624zm-.17188-3.71876q0-.5-.26562-.79687-.26562-.29687-.75-.29687-.46875 0-.73438.29687-.26562.28125-.26562.79687 0 .51563.26562.82813.26563.3125.73438.3125.48438 0 .75-.3125.26562-.3125.26562-.82813zm8.96876 6.1875h-5.84376v-1.15624l2.76563-2.95313q.5625-.60937.82813-1.07813.28124-.46874.28124-.875 0-.57812-.29687-.89062-.28125-.32812-.8125-.32812-.57813 0-.90625.39062-.32812.39062-.32812 1.04688h-1.70313q0-.78126.375-1.42188.375-.65625 1.04687-1.01562.6875-.375 1.54688-.375 1.3125 0 2.04688.64062.73437.625.73437 1.78125 0 .64063-.32813 1.29687-.32812.65626-1.125 1.53126l-1.9375 2.04687h3.65626zm5.26562 0h-1.6875v-6.53124l-2.01562.625v-1.375l3.53124-1.26563h.17188z" fill="#fff"/><path d="m345.67188 279.08905v1.40625h-.15626q-1.15624.01563-1.85937.59375-.6875.57813-.82813 1.60938.67188-.6875 1.70313-.6875 1.125 0 1.78125.79687.65625.79688.65625 2.09375 0 .82813-.35937 1.5-.35938.67188-1.03126 1.0625-.65624.375-1.48437.375-1.34375 0-2.17187-.9375-.82813-.95312-.82813-2.51562v-.60938q0-1.39062.51563-2.45312.53124-1.0625 1.5-1.64063.98437-.57812 2.28124-.59375zm-1.65626 4.28125q-.40624 0-.75.21875-.32812.20313-.48437.5625v.51563q0 .84375.32813 1.32812.34374.46875.95312.46875.54688 0 .875-.42187.34375-.4375.34375-1.125 0-.70313-.34375-1.125-.34375-.42188-.92188-.42188zm9.625-1.92187q0 .625-.3125 1.10937-.3125.46875-.85937.76563.625.29687.98437.82812.375.51563.375 1.21875 0 1.14063-.78124 1.8125-.76563.65625-2.10938.65625-1.32812 0-2.10938-.65625-.76562-.67187-.76562-1.8125 0-.70312.35938-1.23437.35937-.53125.98437-.8125-.54687-.29688-.85937-.76563-.3125-.48437-.3125-1.10937 0-1.09375.71874-1.73438.73438-.65625 1.98438-.65625 1.25 0 1.96875.65625.73437.64063.73437 1.73438zm-1.51562 3.79687q0-.54687-.32812-.875-.3125-.34375-.85938-.34375-.54688 0-.875.32813-.3125.32812-.3125.89062 0 .54688.3125.89063.32812.32812.89062.32812.54688 0 .85938-.3125.3125-.32812.3125-.90625zm-.17188-3.71875q0-.5-.26562-.79687-.26562-.29688-.75-.29688-.46875 0-.73438.29688-.26562.28125-.26562.79687 0 .51563.26562.82813.26563.3125.73438.3125.48438 0 .75-.3125.26562-.3125.26562-.82813zm8.96876 6.1875h-5.84376v-1.15625l2.76563-2.95312q.5625-.60938.82813-1.07813.28124-.46875.28124-.875 0-.57812-.29687-.89062-.28125-.32813-.8125-.32813-.57813 0-.90625.39063-.32812.39062-.32812 1.04687h-1.70313q0-.78125.375-1.42187.375-.65625 1.04687-1.01563.6875-.375 1.54688-.375 1.3125 0 2.04688.64063.73437.625.73437 1.78125 0 .64062-.32813 1.29687-.32812.65625-1.125 1.53125l-1.9375 2.04688h3.65626z" stroke="#70ad47" stroke-linecap="round" stroke-linejoin="round" stroke-width="3"/><path d="m345.67188 279.08905v1.40625h-.15626q-1.15624.01563-1.85937.59375-.6875.57813-.82813 1.60938.67188-.6875 1.70313-.6875 1.125 0 1.78125.79687.65625.79688.65625 2.09375 0 .82813-.35937 1.5-.35938.67188-1.03126 1.0625-.65624.375-1.48437.375-1.34375 0-2.17187-.9375-.82813-.95312-.82813-2.51562v-.60938q0-1.39062.51563-2.45312.53124-1.0625 1.5-1.64063.98437-.57812 2.28124-.59375zm-1.65626 4.28125q-.40624 0-.75.21875-.32812.20313-.48437.5625v.51563q0 .84375.32813 1.32812.34374.46875.95312.46875.54688 0 .875-.42187.34375-.4375.34375-1.125 0-.70313-.34375-1.125-.34375-.42188-.92188-.42188zm9.625-1.92187q0 .625-.3125 1.10937-.3125.46875-.85937.76563.625.29687.98437.82812.375.51563.375 1.21875 0 1.14063-.78124 1.8125-.76563.65625-2.10938.65625-1.32812 0-2.10938-.65625-.76562-.67187-.76562-1.8125 0-.70312.35938-1.23437.35937-.53125.98437-.8125-.54687-.29688-.85937-.76563-.3125-.48437-.3125-1.10937 0-1.09375.71874-1.73438.73438-.65625 1.98438-.65625 1.25 0 1.96875.65625.73437.64063.73437 1.73438zm-1.51562 3.79687q0-.54687-.32812-.875-.3125-.34375-.85938-.34375-.54688 0-.875.32813-.3125.32812-.3125.89062 0 .54688.3125.89063.32812.32812.89062.32812.54688 0 .85938-.3125.3125-.32812.3125-.90625zm-.17188-3.71875q0-.5-.26562-.79687-.26562-.29688-.75-.29688-.46875 0-.73438.29688-.26562.28125-.26562.79687 0 .51563.26562.82813.26563.3125.73438.3125.48438 0 .75-.3125.26562-.3125.26562-.82813zm8.96876 6.1875h-5.84376v-1.15625l2.76563-2.95312q.5625-.60938.82813-1.07813.28124-.46875.28124-.875 0-.57812-.29687-.89062-.28125-.32813-.8125-.32813-.57813 0-.90625.39063-.32812.39062-.32812 1.04687h-1.70313q0-.78125.375-1.42187.375-.65625 1.04687-1.01563.6875-.375 1.54688-.375 1.3125 0 2.04688.64063.73437.625.73437 1.78125 0 .64062-.32813 1.29687-.32812.65625-1.125 1.53125l-1.9375 2.04688h3.65626z" fill="#fff"/><path d="m416.82812 159.31929.5-4.32812h4.78126v1.40625h-3.39063l-.21875 1.84375q.60938-.32813 1.28125-.32813 1.21875 0 1.90625.76563.70312.75.70312 2.10937 0 .82813-.35937 1.48438-.34375.64062-1 1.01562-.64063.35938-1.53125.35938-.76562 0-1.4375-.3125-.65625-.32813-1.04688-.89063-.375-.5625-.40624-1.29687h1.6875q.04687.53125.35937.82812.32813.29688.84375.29688.57812 0 .875-.40625.3125-.42188.3125-1.17188 0-.73437-.35938-1.10937-.34374-.39063-1-.39063-.60937 0-.98437.3125l-.15625.15625zm12.5.67188q0 1.76562-.73437 2.71875-.73437.9375-2.14063.9375-1.40624 0-2.14062-.92188-.73438-.92187-.75-2.64062v-1.57813q0-1.78125.73438-2.70312.75-.9375 2.14062-.9375 1.39062 0 2.125.92187.75.92188.76562 2.64063zm-1.70312-1.71875q0-1.0625-.29688-1.54688-.28124-.48437-.89062-.48437-.59375 0-.89062.46875-.28126.45312-.29688 1.4375v2.0625q0 1.04687.28125 1.5625.28125.5.92187.5.60938 0 .89063-.48438.28125-.48437.28125-1.48437zm7.0625 5.25h-1.6875v-6.53125l-2.01562.625v-1.375l3.53124-1.26563h.17188zm8.73438 0h-5.84376v-1.15625l2.76563-2.95313q.5625-.60937.82813-1.07812.28124-.46875.28124-.875 0-.57813-.29687-.89063-.28125-.32812-.8125-.32812-.57813 0-.90625.39062-.32812.39063-.32812 1.04688h-1.70313q0-.78125.375-1.42188.375-.65625 1.04687-1.01562.6875-.375 1.54688-.375 1.3125 0 2.04688.64062.73437.625.73437 1.78125 0 .64063-.32813 1.29688-.32812.65625-1.125 1.53125l-1.9375 2.04687h3.65626z" stroke="#70ad47" stroke-linecap="round" stroke-linejoin="round" stroke-width="3"/><path d="m416.82812 159.31929.5-4.32812h4.78126v1.40625h-3.39063l-.21875 1.84375q.60938-.32813 1.28125-.32813 1.21875 0 1.90625.76563.70312.75.70312 2.10937 0 .82813-.35937 1.48438-.34375.64062-1 1.01562-.64063.35938-1.53125.35938-.76562 0-1.4375-.3125-.65625-.32813-1.04688-.89063-.375-.5625-.40624-1.29687h1.6875q.04687.53125.35937.82812.32813.29688.84375.29688.57812 0 .875-.40625.3125-.42188.3125-1.17188 0-.73437-.35938-1.10937-.34374-.39063-1-.39063-.60937 0-.98437.3125l-.15625.15625zm12.5.67188q0 1.76562-.73437 2.71875-.73437.9375-2.14063.9375-1.40624 0-2.14062-.92188-.73438-.92187-.75-2.64062v-1.57813q0-1.78125.73438-2.70312.75-.9375 2.14062-.9375 1.39062 0 2.125.92187.75.92188.76562 2.64063zm-1.70312-1.71875q0-1.0625-.29688-1.54688-.28124-.48437-.89062-.48437-.59375 0-.89062.46875-.28126.45312-.29688 1.4375v2.0625q0 1.04687.28125 1.5625.28125.5.92187.5.60938 0 .89063-.48438.28125-.48437.28125-1.48437zm7.0625 5.25h-1.6875v-6.53125l-2.01562.625v-1.375l3.53124-1.26563h.17188zm8.73438 0h-5.84376v-1.15625l2.76563-2.95313q.5625-.60937.82813-1.07812.28124-.46875.28124-.875 0-.57813-.29687-.89063-.28125-.32812-.8125-.32812-.57813 0-.90625.39062-.32812.39063-.32812 1.04688h-1.70313q0-.78125.375-1.42188.375-.65625 1.04687-1.01562.6875-.375 1.54688-.375 1.3125 0 2.04688.64062.73437.625.73437 1.78125 0 .64063-.32813 1.29688-.32812.65625-1.125 1.53125l-1.9375 2.04687h3.65626z" fill="#fff"/><path d="m504.29688 194.05348h.90624q.64063 0 .95313-.3125.3125-.32812.3125-.85938 0-.51562-.3125-.79687-.29687-.29687-.84375-.29687-.48438 0-.8125.26562-.32812.26562-.32812.6875h-1.6875q0-.65625.35937-1.1875.35937-.53125 1-.82812.65625-.3125 1.4375-.3125 1.34375 0 2.10937.65624.78126.64063.78126 1.78126 0 .59374-.35938 1.09374-.35938.48438-.9375.73438.71875.26562 1.0625.78125.35938.51563.35938 1.21875 0 1.14062-.82813 1.82812-.82813.6875-2.1875.6875-1.28125 0-2.09375-.67187-.8125-.6875-.8125-1.79687h1.6875q0 .48437.35938.79687.375.29687.89062.29687.60938 0 .95312-.3125.34376-.32812.34376-.85937 0-1.26563-1.40626-1.26563h-.90624zm11.03122 1.48438q0 1.76562-.73435 2.71874-.73435.9375-2.14065.9375-1.40622 0-2.1406-.92187-.73438-.92187-.75-2.64063v-1.57812q0-1.78125.73438-2.70312.75-.9375 2.14062-.9375 1.3906 0 2.125.92187.75.92187.7656 2.64063zm-1.7031-1.71876q0-1.0625-.2969-1.54687-.2812-.48437-.8906-.48437-.59375 0-.89062.46874-.28126.45313-.29688 1.4375v2.0625q0 1.04688.28125 1.5625.28125.5.92185.5.6094 0 .89065-.48437.28125-.48437.28125-1.48437z" stroke="#70ad47" stroke-linecap="round" stroke-linejoin="round" stroke-width="3"/><path d="m504.29688 194.05348h.90624q.64063 0 .95313-.3125.3125-.32812.3125-.85938 0-.51562-.3125-.79687-.29687-.29687-.84375-.29687-.48438 0-.8125.26562-.32812.26562-.32812.6875h-1.6875q0-.65625.35937-1.1875.35937-.53125 1-.82812.65625-.3125 1.4375-.3125 1.34375 0 2.10937.65624.78126.64063.78126 1.78126 0 .59374-.35938 1.09374-.35938.48438-.9375.73438.71875.26562 1.0625.78125.35938.51563.35938 1.21875 0 1.14062-.82813 1.82812-.82813.6875-2.1875.6875-1.28125 0-2.09375-.67187-.8125-.6875-.8125-1.79687h1.6875q0 .48437.35938.79687.375.29687.89062.29687.60938 0 .95312-.3125.34376-.32812.34376-.85937 0-1.26563-1.40626-1.26563h-.90624zm11.03122 1.48438q0 1.76562-.73435 2.71874-.73435.9375-2.14065.9375-1.40622 0-2.1406-.92187-.73438-.92187-.75-2.64063v-1.57812q0-1.78125.73438-2.70312.75-.9375 2.14062-.9375 1.3906 0 2.125.92187.75.92187.7656 2.64063zm-1.7031-1.71876q0-1.0625-.2969-1.54687-.2812-.48437-.8906-.48437-.59375 0-.89062.46874-.28126.45313-.29688 1.4375v2.0625q0 1.04688.28125 1.5625.28125.5.92185.5.6094 0 .89065-.48437.28125-.48437.28125-1.48437z" fill="#fff"/><path d="m105.421875 58.328926h-5.84375v-1.15625l2.765625-2.953126q.5625-.609374.828125-1.078124.28125-.46875.28125-.875 0-.578126-.296875-.890626-.28125-.328124-.8125-.328124-.578125 0-.90625.390624-.328125.390626-.328125 1.046876h-1.703125q0-.78125.375-1.421876.375-.65625 1.046875-1.015624.6875-.375 1.546875-.375 1.3125 0 2.046875.640624.734375.625.734375 1.78125 0 .640626-.328125 1.296876-.328125.65625-1.125 1.53125l-1.9375 2.046874h3.65625zm6.90625-3.53125q0 1.765624-.734375 2.71875-.734375.9375-2.140625.9375-1.40625 0-2.140625-.921876-.734375-.921874-.75-2.640624v-1.578126q0-1.78125.734375-2.703124.75-.9375 2.140625-.9375 1.390625 0 2.125.921874.75.921876.765625 2.640626zm-1.703125-1.71875q0-1.0625-.296875-1.546876-.28125-.484374-.890625-.484374-.59375 0-.890625.46875-.28125.453124-.296875 1.4375v2.0625q0 1.046874.28125 1.5625.28125.5.921875.5.609375 0 .890625-.484376.28125-.484374.28125-1.484374zm7.96875 2.03125h.96875v1.375h-.96875v1.84375h-1.703125v-1.84375h-3.484375l-.078125-1.0625 3.546875-5.625h1.71875zm-3.578125 0h1.875v-3l-.109375.1875zm9.671875 3.21875h-1.6875v-6.53125l-2.015625.625v-1.375l3.53125-1.265626h.171875z" stroke="#38761d" stroke-linecap="round" stroke-linejoin="round" stroke-width="3"/><path d="m105.421875 58.328926h-5.84375v-1.15625l2.765625-2.953126q.5625-.609374.828125-1.078124.28125-.46875.28125-.875 0-.578126-.296875-.890626-.28125-.328124-.8125-.328124-.578125 0-.90625.390624-.328125.390626-.328125 1.046876h-1.703125q0-.78125.375-1.421876.375-.65625 1.046875-1.015624.6875-.375 1.546875-.375 1.3125 0 2.046875.640624.734375.625.734375 1.78125 0 .640626-.328125 1.296876-.328125.65625-1.125 1.53125l-1.9375 2.046874h3.65625zm6.90625-3.53125q0 1.765624-.734375 2.71875-.734375.9375-2.140625.9375-1.40625 0-2.140625-.921876-.734375-.921874-.75-2.640624v-1.578126q0-1.78125.734375-2.703124.75-.9375 2.140625-.9375 1.390625 0 2.125.921874.75.921876.765625 2.640626zm-1.703125-1.71875q0-1.0625-.296875-1.546876-.28125-.484374-.890625-.484374-.59375 0-.890625.46875-.28125.453124-.296875 1.4375v2.0625q0 1.046874.28125 1.5625.28125.5.921875.5.609375 0 .890625-.484376.28125-.484374.28125-1.484374zm7.96875 2.03125h.96875v1.375h-.96875v1.84375h-1.703125v-1.84375h-3.484375l-.078125-1.0625 3.546875-5.625h1.71875zm-3.578125 0h1.875v-3l-.109375.1875zm9.671875 3.21875h-1.6875v-6.53125l-2.015625.625v-1.375l3.53125-1.265626h.171875z" fill="#fff"/><path d="m184.14062 147.88547q0 .625-.3125 1.10937-.3125.46876-.85937.76563.625.29687.98437.82813.375.51562.375 1.21874 0 1.14063-.78124 1.8125-.76563.65626-2.10938.65626-1.32812 0-2.10938-.65626-.76562-.67187-.76562-1.8125 0-.70312.35938-1.23437.35937-.53125.98437-.8125-.54687-.29687-.85937-.76563-.3125-.48437-.3125-1.10937 0-1.09375.71874-1.73437.73438-.65626 1.98438-.65626 1.25 0 1.96875.65626.73437.64062.73437 1.73437zm-1.51562 3.79687q0-.54687-.32812-.875-.3125-.34374-.85938-.34374-.54688 0-.875.32812-.3125.32812-.3125.89062 0 .54688.3125.89063.32812.32813.89062.32813.54688 0 .85938-.3125.3125-.32813.3125-.90626zm-.17188-3.71874q0-.5-.26562-.79688-.26562-.29688-.75-.29688-.46875 0-.73438.29688-.26562.28125-.26562.79688 0 .51562.26562.82812.26563.3125.73438.3125.48438 0 .75-.3125.26562-.3125.26562-.82812zm8.875 2.65624q0 1.76563-.73437 2.71876-.73437.9375-2.14063.9375-1.40624 0-2.14062-.92188-.73438-.92188-.75-2.64062v-1.57813q0-1.78125.73438-2.70313.75-.9375 2.14062-.9375 1.39062 0 2.125.92188.75.92188.76562 2.64062zm-1.70312-1.71874q0-1.0625-.29688-1.54688-.28124-.48438-.89062-.48438-.59375 0-.89062.46876-.28126.45312-.29688 1.4375v2.0625q0 1.04687.28125 1.5625.28125.5.92187.5.60938 0 .89063-.48438.28125-.48438.28125-1.48438zm7.96875 2.03124h.96875v1.375h-.96875v1.84376h-1.70313v-1.84376h-3.48437l-.07813-1.0625 3.54688-5.625h1.71875zm-3.57813 0h1.875v-3l-.10937.1875zm9.67188 3.21876h-1.6875v-6.53126l-2.01562.625v-1.375l3.53124-1.26562h.17188z" stroke="#38761d" stroke-linecap="round" stroke-linejoin="round" stroke-width="3"/><path d="m184.14062 147.88547q0 .625-.3125 1.10937-.3125.46876-.85937.76563.625.29687.98437.82813.375.51562.375 1.21874 0 1.14063-.78124 1.8125-.76563.65626-2.10938.65626-1.32812 0-2.10938-.65626-.76562-.67187-.76562-1.8125 0-.70312.35938-1.23437.35937-.53125.98437-.8125-.54687-.29687-.85937-.76563-.3125-.48437-.3125-1.10937 0-1.09375.71874-1.73437.73438-.65626 1.98438-.65626 1.25 0 1.96875.65626.73437.64062.73437 1.73437zm-1.51562 3.79687q0-.54687-.32812-.875-.3125-.34374-.85938-.34374-.54688 0-.875.32812-.3125.32812-.3125.89062 0 .54688.3125.89063.32812.32813.89062.32813.54688 0 .85938-.3125.3125-.32813.3125-.90626zm-.17188-3.71874q0-.5-.26562-.79688-.26562-.29688-.75-.29688-.46875 0-.73438.29688-.26562.28125-.26562.79688 0 .51562.26562.82812.26563.3125.73438.3125.48438 0 .75-.3125.26562-.3125.26562-.82812zm8.875 2.65624q0 1.76563-.73437 2.71876-.73437.9375-2.14063.9375-1.40624 0-2.14062-.92188-.73438-.92188-.75-2.64062v-1.57813q0-1.78125.73438-2.70313.75-.9375 2.14062-.9375 1.39062 0 2.125.92188.75.92188.76562 2.64062zm-1.70312-1.71874q0-1.0625-.29688-1.54688-.28124-.48438-.89062-.48438-.59375 0-.89062.46876-.28126.45312-.29688 1.4375v2.0625q0 1.04687.28125 1.5625.28125.5.92187.5.60938 0 .89063-.48438.28125-.48438.28125-1.48438zm7.96875 2.03124h.96875v1.375h-.96875v1.84376h-1.70313v-1.84376h-3.48437l-.07813-1.0625 3.54688-5.625h1.71875zm-3.57813 0h1.875v-3l-.10937.1875zm9.67188 3.21876h-1.6875v-6.53126l-2.01562.625v-1.375l3.53124-1.26562h.17188z" fill="#fff"/><path d="m273.875 22.482082-3.29688 7.578125h-1.78124l3.29687-7.15625h-4.23437v-1.375h6.01562z" stroke="#38761d" stroke-linecap="round" stroke-linejoin="round" stroke-width="3"/><path d="m273.875 22.482082-3.29688 7.578125h-1.78124l3.29687-7.15625h-4.23437v-1.375h6.01562z" fill="#fff"/><path d="m341.54688 150.92448q-.67188.64063-1.54688.64063-1.14062 0-1.82812-.76563-.67188-.78125-.67188-2.09375 0-.84375.35938-1.54687.375-.70313 1.03124-1.09375.65626-.39063 1.48438-.39063.84375 0 1.5.42188.65625.42187 1.01562 1.21875.35938.79687.375 1.8125v.625q0 2.14062-1.0625 3.35937-1.0625 1.21875-3.01562 1.29688h-.40625v-1.40625l.375-.01563q2.20313-.09375 2.39063-2.0625zm-1.14063-.65625q.42187 0 .70313-.20312.29687-.21875.45312-.51563v-.6875q0-.85937-.32812-1.32812-.32813-.48438-.875-.48438-.51563 0-.84376.46875-.32812.45313-.32812 1.15625 0 .70313.3125 1.15625.32812.4375.90625.4375zm9.1875.84375h.96875v1.375h-.96875v1.84375h-1.70313v-1.84375h-3.48437l-.07813-1.0625 3.54688-5.625h1.71875zm-3.57813 0h1.875v-3l-.10937.1875zm11.35938-4.35937-3.29688 7.57812h-1.78124l3.29687-7.15625h-4.23437v-1.375h6.01562zm5.17188 4.17187q-.67188.64063-1.54688.64063-1.14062 0-1.82812-.76563-.67188-.78125-.67188-2.09375 0-.84375.35938-1.54687.375-.70313 1.03124-1.09375.65626-.39063 1.48438-.39063.84375 0 1.5.42188.65625.42187 1.01562 1.21875.35938.79687.375 1.8125v.625q0 2.14062-1.0625 3.35937-1.0625 1.21875-3.01562 1.29688h-.40625v-1.40625l.375-.01563q2.20313-.09375 2.39063-2.0625zm-1.14063-.65625q.42187 0 .70313-.20312.29687-.21875.45312-.51563v-.6875q0-.85937-.32812-1.32812-.32813-.48438-.875-.48438-.51563 0-.84376.46875-.32812.45313-.32812 1.15625 0 .70313.3125 1.15625.32812.4375.90625.4375z" stroke="#38761d" stroke-linecap="round" stroke-linejoin="round" stroke-width="3"/><path d="m341.54688 150.92448q-.67188.64063-1.54688.64063-1.14062 0-1.82812-.76563-.67188-.78125-.67188-2.09375 0-.84375.35938-1.54687.375-.70313 1.03124-1.09375.65626-.39063 1.48438-.39063.84375 0 1.5.42188.65625.42187 1.01562 1.21875.35938.79687.375 1.8125v.625q0 2.14062-1.0625 3.35937-1.0625 1.21875-3.01562 1.29688h-.40625v-1.40625l.375-.01563q2.20313-.09375 2.39063-2.0625zm-1.14063-.65625q.42187 0 .70313-.20312.29687-.21875.45312-.51563v-.6875q0-.85937-.32812-1.32812-.32813-.48438-.875-.48438-.51563 0-.84376.46875-.32812.45313-.32812 1.15625 0 .70313.3125 1.15625.32812.4375.90625.4375zm9.1875.84375h.96875v1.375h-.96875v1.84375h-1.70313v-1.84375h-3.48437l-.07813-1.0625 3.54688-5.625h1.71875zm-3.57813 0h1.875v-3l-.10937.1875zm11.35938-4.35937-3.29688 7.57812h-1.78124l3.29687-7.15625h-4.23437v-1.375h6.01562zm5.17188 4.17187q-.67188.64063-1.54688.64063-1.14062 0-1.82812-.76563-.67188-.78125-.67188-2.09375 0-.84375.35938-1.54687.375-.70313 1.03124-1.09375.65626-.39063 1.48438-.39063.84375 0 1.5.42188.65625.42187 1.01562 1.21875.35938.79687.375 1.8125v.625q0 2.14062-1.0625 3.35937-1.0625 1.21875-3.01562 1.29688h-.40625v-1.40625l.375-.01563q2.20313-.09375 2.39063-2.0625zm-1.14063-.65625q.42187 0 .70313-.20312.29687-.21875.45312-.51563v-.6875q0-.85937-.32812-1.32812-.32813-.48438-.875-.48438-.51563 0-.84376.46875-.32812.45313-.32812 1.15625 0 .70313.3125 1.15625.32812.4375.90625.4375z" fill="#fff"/><path d="m431.04688 26.732836q-.67188.640624-1.54688.640624-1.14062 0-1.82812-.765624-.67188-.78125-.67188-2.09375 0-.84375.35938-1.546876.375-.703124 1.03124-1.09375.65626-.390624 1.48438-.390624.84375 0 1.5.421874.65625.421876 1.01562 1.21875.35938.796876.375 1.8125v.625q0 2.140626-1.0625 3.359376-1.0625 1.21875-3.01562 1.296874h-.40625v-1.40625l.375-.015624q2.20313-.09375 2.39063-2.0625zm-1.14063-.65625q.42187 0 .70313-.203126.29687-.21875.45312-.515624v-.6875q0-.859376-.32812-1.328126-.32813-.484374-.875-.484374-.51563 0-.84376.46875-.32812.453124-.32812 1.15625 0 .703124.3125 1.15625.32812.4375.90625.4375z" stroke="#38761d" stroke-linecap="round" stroke-linejoin="round" stroke-width="3"/><path d="m431.04688 26.732836q-.67188.640624-1.54688.640624-1.14062 0-1.82812-.765624-.67188-.78125-.67188-2.09375 0-.84375.35938-1.546876.375-.703124 1.03124-1.09375.65626-.390624 1.48438-.390624.84375 0 1.5.421874.65625.421876 1.01562 1.21875.35938.796876.375 1.8125v.625q0 2.140626-1.0625 3.359376-1.0625 1.21875-3.01562 1.296874h-.40625v-1.40625l.375-.015624q2.20313-.09375 2.39063-2.0625zm-1.14063-.65625q.42187 0 .70313-.203126.29687-.21875.45312-.515624v-.6875q0-.859376-.32812-1.328126-.32813-.484374-.875-.484374-.51563 0-.84376.46875-.32812.453124-.32812 1.15625 0 .703124.3125 1.15625.32812.4375.90625.4375z" fill="#fff"/><path d="m506.6875 65.685776h-1.6875v-6.531254l-2.01562.625v-1.375l3.53124-1.265625h.17188zm7 0h-1.6875v-6.531254l-2.01562.625v-1.375l3.53122-1.265625h.1719z" stroke="#38761d" stroke-linecap="round" stroke-linejoin="round" stroke-width="3"/><path d="m506.6875 65.685776h-1.6875v-6.53125l-2.01562.625v-1.375l3.53124-1.265626h.17188zm7 0h-1.6875v-6.53125l-2.01562.625v-1.375l3.53122-1.265626h.1719z" fill="#fff"/><path d="m103.546875 6.99375q-.671875.640625-1.546875.640625-1.140625 0-1.828125-.765625-.671875-.78125-.671875-2.09375 0-.84375.359375-1.546875.375-.703125 1.03125-1.09375.65625-.390625 1.484375-.390625.84375 0 1.5.421875.65625.421875 1.015625 1.21875.359375.796875.375 1.8125v.625q0 2.140625-1.0625 3.359375-1.0625 1.21875-3.015625 1.296875h-.40625v-1.40625l.375-.015625q2.203125-.09375 2.390625-2.0625zm-1.140625-.65625q.421875 0 .703125-.203125.296875-.21875.453125-.515625v-.6875q0-.859375-.328125-1.328125-.328125-.484375-.875-.484375-.515625 0-.84375.46875-.328125.453125-.328125 1.15625 0 .703125.3125 1.15625.328125.4375.90625.4375zm4.421875-.140625.5-4.328125h4.78125v1.40625h-3.390625l-.21875 1.84375q.609375-.328125 1.28125-.328125 1.21875 0 1.90625.765625.703125.75.703125 2.109375 0 .828125-.359375 1.484375-.34375.640625-1 1.015625-.640625.359375-1.53125.359375-.765625 0-1.4375-.3125-.65625-.328125-1.046875-.890625-.375-.5625-.40625-1.296875h1.6875q.046875.53125.359375.828125.328125.296875.84375.296875.578125 0 .875-.40625.3125-.421875.3125-1.171875 0-.734375-.359375-1.109375-.34375-.390625-1-.390625-.609375 0-.984375.3125l-.15625.15625zm12.546875-3.375-3.296875 7.578125h-1.78125l3.296875-7.15625h-4.234375v-1.375h6.015625zm5.796875-1.046875v1.40625h-.15625q-1.15625.015625-1.859375.59375-.6875.578125-.828125 1.609375.671875-.6875 1.703125-.6875 1.125 0 1.78125.796875.65625.796875.65625 2.09375 0 .828125-.359375 1.5-.359375.671875-1.03125 1.0625-.65625.375-1.484375.375-1.34375 0-2.171875-.9375-.828125-.953125-.828125-2.515625v-.609375q0-1.390625.515625-2.453125.53125-1.0625 1.5-1.640625.984375-.578125 2.28125-.59375zm-1.65625 4.28125q-.40625 0-.75.21875-.328125.203125-.484375.5625v.515625q0 .84375.328125 1.328125.34375.46875.953125.46875.546875 0 .875-.421875.34375-.4375.34375-1.125 0-.703125-.34375-1.125-.34375-.421875-.921875-.421875z" stroke="#fff" stroke-linecap="round" stroke-linejoin="round" stroke-width="3"/><path d="m103.546875 6.9937496q-.671875.640625-1.546875.640625-1.140625 0-1.828125-.765625-.671875-.78125-.671875-2.09375 0-.84375.359375-1.546875.375-.703125 1.03125-1.09375.65625-.390625 1.484375-.390625.84375 0 1.5.421875.65625.421875 1.015625 1.21875.359375.796875.375 1.8125v.625q0 2.140625-1.0625 3.3593754-1.0625 1.21875-3.015625 1.296875h-.40625v-1.40625l.375-.015625q2.203125-.09375 2.390625-2.0625004zm-1.140625-.65625q.421875 0 .703125-.203125.296875-.21875.453125-.515625v-.6875q0-.859375-.328125-1.328125-.328125-.484375-.875-.484375-.515625 0-.84375.46875-.328125.453125-.328125 1.15625 0 .703125.3125 1.15625.328125.4375.90625.4375zm4.421875-.140625.5-4.328125h4.78125v1.40625h-3.390625l-.21875 1.84375q.609375-.328125 1.28125-.328125 1.21875 0 1.90625.765625.703125.75.703125 2.109375 0 .8281254-.359375 1.4843754-.34375.640625-1 1.015625-.640625.359375-1.53125.359375-.765625 0-1.4375-.3125-.65625-.328125-1.046875-.890625-.375-.5625-.40625-1.296875h1.6875q.046875.53125.359375.828125.328125.296875.84375.296875.578125 0 .875-.40625.3125-.421875.3125-1.1718754 0-.734375-.359375-1.109375-.34375-.390625-1-.390625-.609375 0-.984375.3125l-.15625.15625zm12.546875-3.375-3.296875 7.5781254h-1.78125l3.296875-7.1562504h-4.234375v-1.375h6.015625zm5.796875-1.046875v1.40625h-.15625q-1.15625.015625-1.859375.59375-.6875.578125-.828125 1.609375.671875-.6875 1.703125-.6875 1.125 0 1.78125.796875.65625.796875.65625 2.09375 0 .8281254-.359375 1.5000004-.359375.671875-1.03125 1.0625-.65625.375-1.484375.375-1.34375 0-2.171875-.9375-.828125-.953125-.828125-2.5156254v-.609375q0-1.390625.515625-2.453125.53125-1.0625 1.5-1.640625.984375-.578125 2.28125-.59375zm-1.65625 4.28125q-.40625 0-.75.21875-.328125.203125-.484375.5625v.515625q0 .8437504.328125 1.3281254.34375.46875.953125.46875.546875 0 .875-.421875.34375-.4375.34375-1.1250004 0-.703125-.34375-1.125-.34375-.421875-.921875-.421875z" fill="#000"/><path d="m184.14062 4.134375q0 .625-.3125 1.109375-.3125.46875-.85937.765625.625.296875.98437.828125.375.515625.375 1.21875 0 1.140625-.78124 1.8125-.76563.65625-2.10938.65625-1.32812 0-2.10938-.65625-.76562-.671875-.76562-1.8125 0-.703125.35938-1.234375.35937-.53125.98437-.8125-.54687-.296875-.85937-.765625-.3125-.484375-.3125-1.109375 0-1.09375.71874-1.734375.73438-.65625 1.98438-.65625 1.25 0 1.96875.65625.73437.640625.73437 1.734375zm-1.51562 3.796875q0-.546875-.32812-.875-.3125-.34375-.85938-.34375-.54688 0-.875.328125-.3125.328125-.3125.890625 0 .546875.3125.890625.32812.328125.89062.328125.54688 0 .85938-.3125.3125-.328125.3125-.90625zm-.17188-3.71875q0-.5-.26562-.796875-.26562-.296875-.75-.296875-.46875 0-.73438.296875-.26562.28125-.26562.796875 0 .515625.26562.828125.26563.3125.73438.3125.48438 0 .75-.3125.26562-.3125.26562-.828125zm7.71876-2.4375v1.40625h-.15626q-1.15624.015625-1.85937.59375-.6875.578125-.82813 1.609375.67188-.6875 1.70313-.6875 1.125 0 1.78125.796875.65625.796875.65625 2.09375 0 .828125-.35937 1.5-.35938.671875-1.03126 1.0625-.65624.375-1.48437.375-1.34375 0-2.17187-.9375-.82813-.953125-.82813-2.515625v-.609375q0-1.390625.51563-2.453125.53124-1.0625 1.5-1.640625.98437-.578125 2.28124-.59375zm-1.65626 4.28125q-.40624 0-.75.21875-.32812.203125-.48437.5625v.515625q0 .84375.32813 1.328125.34374.46875.95312.46875.54688 0 .875-.421875.34375-.4375.34375-1.125 0-.703125-.34375-1.125-.34375-.421875-.92188-.421875zm5.78126-.671875h.90624q.64063 0 .95313-.3125.3125-.328125.3125-.859375 0-.515625-.3125-.796875-.29687-.296875-.84375-.296875-.48438 0-.8125.265625-.32812.265625-.32812.6875h-1.6875q0-.65625.35937-1.1875.35937-.53125 1-.828125.65625-.3125 1.4375-.3125 1.34375 0 2.10937.65625.78126.640625.78126 1.78125 0 .59375-.35938 1.09375-.35938.484375-.9375.734375.71875.265625 1.0625.78125.35938.515625.35938 1.21875 0 1.140625-.82813 1.828125-.82813.6875-2.1875.6875-1.28125 0-2.09375-.671875-.8125-.6875-.8125-1.796875h1.6875q0 .484375.35938.796875.375.296875.89062.296875.60938 0 .95312-.3125.34376-.328125.34376-.859375 0-1.265625-1.40626-1.265625h-.90624zm11.125 5.015625h-5.84376v-1.15625l2.76563-2.953125q.5625-.609375.82813-1.078125.28124-.46875.28124-.875 0-.578125-.29687-.890625-.28125-.328125-.8125-.328125-.57813 0-.90625.390625-.32812.390625-.32812 1.046875h-1.70313q0-.78125.375-1.421875.375-.65625 1.04687-1.015625.6875-.375 1.54688-.375 1.3125 0 2.04688.640625.73437.625.73437 1.78125 0 .640625-.32813 1.296875-.32812.65625-1.125 1.53125l-1.9375 2.046875h3.65626z" stroke="#fff" stroke-linecap="round" stroke-linejoin="round" stroke-width="3"/><path d="m184.14062 4.1343746q0 .625-.3125 1.109375-.3125.46875-.85937.765625.625.296875.98437.828125.375.515625.375 1.2187504 0 1.140625-.78124 1.8125-.76563.65625-2.10938.65625-1.32812 0-2.10938-.65625-.76562-.671875-.76562-1.8125 0-.7031254.35938-1.2343754.35937-.53125.98437-.8125-.54687-.296875-.85937-.765625-.3125-.484375-.3125-1.109375 0-1.09375.71874-1.734375.73438-.65625 1.98438-.65625 1.25 0 1.96875.65625.73437.640625.73437 1.734375zm-1.51562 3.796875q0-.546875-.32812-.875-.3125-.34375-.85938-.34375-.54688 0-.875.328125-.3125.328125-.3125.890625 0 .5468754.3125.8906254.32812.328125.89062.328125.54688 0 .85938-.3125.3125-.328125.3125-.9062504zm-.17188-3.71875q0-.5-.26562-.796875-.26562-.296875-.75-.296875-.46875 0-.73438.296875-.26562.28125-.26562.796875 0 .515625.26562.828125.26563.3125.73438.3125.48438 0 .75-.3125.26562-.3125.26562-.828125zm7.71876-2.4375v1.40625h-.15626q-1.15624.015625-1.85937.59375-.6875.578125-.82813 1.609375.67188-.6875 1.70313-.6875 1.125 0 1.78125.796875.65625.796875.65625 2.09375 0 .8281254-.35937 1.5000004-.35938.671875-1.03126 1.0625-.65624.375-1.48437.375-1.34375 0-2.17187-.9375-.82813-.953125-.82813-2.5156254v-.609375q0-1.390625.51563-2.453125.53124-1.0625 1.5-1.640625.98437-.578125 2.28124-.59375zm-1.65626 4.28125q-.40624 0-.75.21875-.32812.203125-.48437.5625v.515625q0 .8437504.32813 1.3281254.34374.46875.95312.46875.54688 0 .875-.421875.34375-.4375.34375-1.1250004 0-.703125-.34375-1.125-.34375-.421875-.92188-.421875zm5.78126-.671875h.90624q.64063 0 .95313-.3125.3125-.328125.3125-.859375 0-.515625-.3125-.796875-.29687-.296875-.84375-.296875-.48438 0-.8125.265625-.32812.265625-.32812.6875h-1.6875q0-.65625.35937-1.1875.35937-.53125 1-.828125.65625-.3125 1.4375-.3125 1.34375 0 2.10937.65625.78126.640625.78126 1.78125 0 .59375-.35938 1.09375-.35938.484375-.9375.734375.71875.265625 1.0625.78125.35938.515625.35938 1.2187504 0 1.140625-.82813 1.828125-.82813.6875-2.1875.6875-1.28125 0-2.09375-.671875-.8125-.6875-.8125-1.796875h1.6875q0 .484375.35938.796875.375.296875.89062.296875.60938 0 .95312-.3125.34376-.328125.34376-.8593754 0-1.265625-1.40626-1.265625h-.90624zm11.125 5.0156254h-5.84376v-1.15625l2.76563-2.9531254q.5625-.609375.82813-1.078125.28124-.46875.28124-.875 0-.578125-.29687-.890625-.28125-.328125-.8125-.328125-.57813 0-.90625.390625-.32812.390625-.32812 1.046875h-1.70313q0-.78125.375-1.421875.375-.65625 1.04687-1.015625.6875-.375 1.54688-.375 1.3125 0 2.04688.640625.73437.625.73437 1.78125 0 .640625-.32813 1.296875-.32812.65625-1.125 1.53125l-1.9375 2.0468754h3.65626z" fill="#000"/><path d="m257.82812 6.196875.5-4.328125h4.78126v1.40625h-3.39063l-.21875 1.84375q.60938-.328125 1.28125-.328125 1.21875 0 1.90625.765625.70312.75.70312 2.109375 0 .828125-.35937 1.484375-.34375.640625-1 1.015625-.64063.359375-1.53125.359375-.76562 0-1.4375-.3125-.65625-.328125-1.04688-.890625-.375-.5625-.40624-1.296875h1.6875q.04687.53125.35937.828125.32813.296875.84375.296875.57812 0 .875-.40625.3125-.421875.3125-1.171875 0-.734375-.35938-1.109375-.34374-.390625-1-.390625-.60937 0-.98437.3125l-.15625.15625zm12.3125-2.0625q0 .625-.3125 1.109375-.3125.46875-.85937.765625.625.296875.98437.828125.375.515625.375 1.21875 0 1.140625-.78124 1.8125-.76563.65625-2.10938.65625-1.32812 0-2.10938-.65625-.76562-.671875-.76562-1.8125 0-.703125.35938-1.234375.35937-.53125.98437-.8125-.54687-.296875-.85937-.765625-.3125-.484375-.3125-1.109375 0-1.09375.71874-1.734375.73438-.65625 1.98438-.65625 1.25 0 1.96875.65625.73437.640625.73437 1.734375zm-1.51562 3.796875q0-.546875-.32812-.875-.3125-.34375-.85938-.34375-.54688 0-.875.328125-.3125.328125-.3125.890625 0 .546875.3125.890625.32812.328125.89062.328125.54688 0 .85938-.3125.3125-.328125.3125-.90625zm-.17188-3.71875q0-.5-.26562-.796875-.26562-.296875-.75-.296875-.46875 0-.73438.296875-.26562.28125-.26562.796875 0 .515625.26562.828125.26563.3125.73438.3125.48438 0 .75-.3125.26562-.3125.26562-.828125zm8.96876 6.1875h-5.84376v-1.15625l2.76563-2.953125q.5625-.609375.82813-1.078125.28124-.46875.28124-.875 0-.578125-.29687-.890625-.28125-.328125-.8125-.328125-.57813 0-.90625.390625-.32812.390625-.32812 1.046875h-1.70313q0-.78125.375-1.421875.375-.65625 1.04687-1.015625.6875-.375 1.54688-.375 1.3125 0 2.04688.640625.73437.625.73437 1.78125 0 .640625-.32813 1.296875-.32812.65625-1.125 1.53125l-1.9375 2.046875h3.65626zm6.71874-6.265625q0 .625-.3125 1.109375-.3125.46875-.85937.765625.625.296875.98437.828125.375.515625.375 1.21875 0 1.140625-.78124 1.8125-.76563.65625-2.10938.65625-1.32812 0-2.10938-.65625-.76562-.671875-.76562-1.8125 0-.703125.35938-1.234375.35937-.53125.98437-.8125-.54687-.296875-.85937-.765625-.3125-.484375-.3125-1.109375 0-1.09375.71874-1.734375.73438-.65625 1.98438-.65625 1.25 0 1.96875.65625.73437.640625.73437 1.734375zm-1.51562 3.796875q0-.546875-.32812-.875-.3125-.34375-.85938-.34375-.54688 0-.875.328125-.3125.328125-.3125.890625 0 .546875.3125.890625.32812.328125.89062.328125.54688 0 .85938-.3125.3125-.328125.3125-.90625zm-.17188-3.71875q0-.5-.26562-.796875-.26562-.296875-.75-.296875-.46875 0-.73438.296875-.26562.28125-.26562.796875 0 .515625.26562.828125.26563.3125.73438.3125.48438 0 .75-.3125.26562-.3125.26562-.828125z" stroke="#fff" stroke-linecap="round" stroke-linejoin="round" stroke-width="3"/><path d="m257.82812 6.1968746.5-4.328125h4.78126v1.40625h-3.39063l-.21875 1.84375q.60938-.328125 1.28125-.328125 1.21875 0 1.90625.765625.70312.75.70312 2.109375 0 .8281254-.35937 1.4843754-.34375.640625-1 1.015625-.64063.359375-1.53125.359375-.76562 0-1.4375-.3125-.65625-.328125-1.04688-.890625-.375-.5625-.40624-1.296875h1.6875q.04687.53125.35937.828125.32813.296875.84375.296875.57812 0 .875-.40625.3125-.421875.3125-1.1718754 0-.734375-.35938-1.109375-.34374-.390625-1-.390625-.60937 0-.98437.3125l-.15625.15625zm12.3125-2.0625q0 .625-.3125 1.109375-.3125.46875-.85937.765625.625.296875.98437.828125.375.515625.375 1.2187504 0 1.140625-.78124 1.8125-.76563.65625-2.10938.65625-1.32812 0-2.10938-.65625-.76562-.671875-.76562-1.8125 0-.7031254.35938-1.2343754.35937-.53125.98437-.8125-.54687-.296875-.85937-.765625-.3125-.484375-.3125-1.109375 0-1.09375.71874-1.734375.73438-.65625 1.98438-.65625 1.25 0 1.96875.65625.73437.640625.73437 1.734375zm-1.51562 3.796875q0-.546875-.32812-.875-.3125-.34375-.85938-.34375-.54688 0-.875.328125-.3125.328125-.3125.890625 0 .5468754.3125.8906254.32812.328125.89062.328125.54688 0 .85938-.3125.3125-.328125.3125-.9062504zm-.17188-3.71875q0-.5-.26562-.796875-.26562-.296875-.75-.296875-.46875 0-.73438.296875-.26562.28125-.26562.796875 0 .515625.26562.828125.26563.3125.73438.3125.48438 0 .75-.3125.26562-.3125.26562-.828125zm8.96876 6.1875004h-5.84376v-1.15625l2.76563-2.9531254q.5625-.609375.82813-1.078125.28124-.46875.28124-.875 0-.578125-.29687-.890625-.28125-.328125-.8125-.328125-.57813 0-.90625.390625-.32812.390625-.32812 1.046875h-1.70313q0-.78125.375-1.421875.375-.65625 1.04687-1.015625.6875-.375 1.54688-.375 1.3125 0 2.04688.640625.73437.625.73437 1.78125 0 .640625-.32813 1.296875-.32812.65625-1.125 1.53125l-1.9375 2.0468754h3.65626zm6.71874-6.2656254q0 .625-.3125 1.109375-.3125.46875-.85937.765625.625.296875.98437.828125.375.515625.375 1.2187504 0 1.140625-.78124 1.8125-.76563.65625-2.10938.65625-1.32812 0-2.10938-.65625-.76562-.671875-.76562-1.8125 0-.7031254.35938-1.2343754.35937-.53125.98437-.8125-.54687-.296875-.85937-.765625-.3125-.484375-.3125-1.109375 0-1.09375.71874-1.734375.73438-.65625 1.98438-.65625 1.25 0 1.96875.65625.73437.640625.73437 1.734375zm-1.51562 3.796875q0-.546875-.32812-.875-.3125-.34375-.85938-.34375-.54688 0-.875.328125-.3125.328125-.3125.890625 0 .5468754.3125.8906254.32812.328125.89062.328125.54688 0 .85938-.3125.3125-.328125.3125-.9062504zm-.17188-3.71875q0-.5-.26562-.796875-.26562-.296875-.75-.296875-.46875 0-.73438.296875-.26562.28125-.26562.796875 0 .515625.26562.828125.26563.3125.73438.3125.48438 0 .75-.3125.26562-.3125.26562-.828125z" fill="#000"/><path d="m338.1875 10.4h-1.6875v-6.53125l-2.01562.625v-1.375l3.53124-1.265625h.17188zm8.64062-3.53125q0 1.765625-.73437 2.71875-.73437.9375-2.14063.9375-1.40624 0-2.14062-.921875-.73438-.921875-.75-2.640625v-1.578125q0-1.78125.73438-2.703125.75-.9375 2.14062-.9375 1.39062 0 2.125.921875.75.921875.76562 2.640625zm-1.70312-1.71875q0-1.0625-.29688-1.546875-.28124-.484375-.89062-.484375-.59375 0-.89062.46875-.28126.453125-.29688 1.4375v2.0625q0 1.046875.28125 1.5625.28125.5.92187.5.60938 0 .89063-.484375.28125-.484375.28125-1.484375zm7.0625 5.25h-1.6875v-6.53125l-2.01562.625v-1.375l3.53124-1.265625h.17188zm7.48438-8.625v1.40625h-.15626q-1.15624.015625-1.85937.59375-.6875.578125-.82813 1.609375.67188-.6875 1.70313-.6875 1.125 0 1.78125.796875.65625.796875.65625 2.09375 0 .828125-.35937 1.5-.35938.671875-1.03126 1.0625-.65624.375-1.48437.375-1.34375 0-2.17187-.9375-.82813-.953125-.82813-2.515625v-.609375q0-1.390625.51563-2.453125.53124-1.0625 1.5-1.640625.98437-.578125 2.28124-.59375zm-1.65626 4.28125q-.40624 0-.75.21875-.32812.203125-.48437.5625v.515625q0 .84375.32813 1.328125.34374.46875.95312.46875.54688 0 .875-.421875.34375-.4375.34375-1.125 0-.703125-.34375-1.125-.34375-.421875-.92188-.421875zm8.17188 4.34375h-1.6875v-6.53125l-2.01562.625v-1.375l3.53124-1.265625h.17188z" stroke="#fff" stroke-linecap="round" stroke-linejoin="round" stroke-width="3"/><path d="m338.1875 10.4h-1.6875v-6.5312504l-2.01562.625v-1.375l3.53124-1.265625h.17188zm8.64062-3.5312504q0 1.7656254-.73437 2.7187504-.73437.9375-2.14063.9375-1.40624 0-2.14062-.921875-.73438-.921875-.75-2.6406254v-1.578125q0-1.78125.73438-2.703125.75-.9375 2.14062-.9375 1.39062 0 2.125.921875.75.921875.76562 2.640625zm-1.70312-1.71875q0-1.0625-.29688-1.546875-.28124-.484375-.89062-.484375-.59375 0-.89062.46875-.28126.453125-.29688 1.4375v2.0625q0 1.0468754.28125 1.5625004.28125.5.92187.5.60938 0 .89063-.484375.28125-.484375.28125-1.4843754zm7.0625 5.2500004h-1.6875v-6.5312504l-2.01562.625v-1.375l3.53124-1.265625h.17188zm7.48438-8.6250004v1.40625h-.15626q-1.15624.015625-1.85937.59375-.6875.578125-.82813 1.609375.67188-.6875 1.70313-.6875 1.125 0 1.78125.796875.65625.796875.65625 2.09375 0 .8281254-.35937 1.5000004-.35938.671875-1.03126 1.0625-.65624.375-1.48437.375-1.34375 0-2.17187-.9375-.82813-.953125-.82813-2.5156254v-.609375q0-1.390625.51563-2.453125.53124-1.0625 1.5-1.640625.98437-.578125 2.28124-.59375zm-1.65626 4.28125q-.40624 0-.75.21875-.32812.203125-.48437.5625v.515625q0 .8437504.32813 1.3281254.34374.46875.95312.46875.54688 0 .875-.421875.34375-.4375.34375-1.1250004 0-.703125-.34375-1.125-.34375-.421875-.92188-.421875zm8.17188 4.3437504h-1.6875v-6.5312504l-2.01562.625v-1.375l3.53124-1.265625h.17188z" fill="#000"/><path d="m416.82812 6.196875.5-4.328125h4.78126v1.40625h-3.39063l-.21875 1.84375q.60938-.328125 1.28125-.328125 1.21875 0 1.90625.765625.70312.75.70312 2.109375 0 .828125-.35937 1.484375-.34375.640625-1 1.015625-.64063.359375-1.53125.359375-.76562 0-1.4375-.3125-.65625-.328125-1.04688-.890625-.375-.5625-.40624-1.296875h1.6875q.04687.53125.35937.828125.32813.296875.84375.296875.57812 0 .875-.40625.3125-.421875.3125-1.171875 0-.734375-.35938-1.109375-.34374-.390625-1-.390625-.60937 0-.98437.3125l-.15625.15625zm12.5.671875q0 1.765625-.73437 2.71875-.73437.9375-2.14063.9375-1.40624 0-2.14062-.921875-.73438-.921875-.75-2.640625v-1.578125q0-1.78125.73438-2.703125.75-.9375 2.14062-.9375 1.39062 0 2.125.921875.75.921875.76562 2.640625zm-1.70312-1.71875q0-1.0625-.29688-1.546875-.28124-.484375-.89062-.484375-.59375 0-.89062.46875-.28126.453125-.29688 1.4375v2.0625q0 1.046875.28125 1.5625.28125.5.92187.5.60938 0 .89063-.484375.28125-.484375.28125-1.484375zm8.79688 5.25h-5.84376v-1.15625l2.76563-2.953125q.5625-.609375.82813-1.078125.28124-.46875.28124-.875 0-.578125-.29687-.890625-.28125-.328125-.8125-.328125-.57813 0-.90625.390625-.32812.390625-.32812 1.046875h-1.70313q0-.78125.375-1.421875.375-.65625 1.04687-1.015625.6875-.375 1.54688-.375 1.3125 0 2.04688.640625.73437.625.73437 1.78125 0 .640625-.32813 1.296875-.32812.65625-1.125 1.53125l-1.9375 2.046875h3.65626zm5.26562 0h-1.6875v-6.53125l-2.01562.625v-1.375l3.53124-1.265625h.17188z" stroke="#fff" stroke-linecap="round" stroke-linejoin="round" stroke-width="3"/><path d="m416.82812 6.1968746.5-4.328125h4.78126v1.40625h-3.39063l-.21875 1.84375q.60938-.328125 1.28125-.328125 1.21875 0 1.90625.765625.70312.75.70312 2.109375 0 .8281254-.35937 1.4843754-.34375.640625-1 1.015625-.64063.359375-1.53125.359375-.76562 0-1.4375-.3125-.65625-.328125-1.04688-.890625-.375-.5625-.40624-1.296875h1.6875q.04687.53125.35937.828125.32813.296875.84375.296875.57812 0 .875-.40625.3125-.421875.3125-1.1718754 0-.734375-.35938-1.109375-.34374-.390625-1-.390625-.60937 0-.98437.3125l-.15625.15625zm12.5.671875q0 1.7656254-.73437 2.7187504-.73437.9375-2.14063.9375-1.40624 0-2.14062-.921875-.73438-.921875-.75-2.6406254v-1.578125q0-1.78125.73438-2.703125.75-.9375 2.14062-.9375 1.39062 0 2.125.921875.75.921875.76562 2.640625zm-1.70312-1.71875q0-1.0625-.29688-1.546875-.28124-.484375-.89062-.484375-.59375 0-.89062.46875-.28126.453125-.29688 1.4375v2.0625q0 1.0468754.28125 1.5625004.28125.5.92187.5.60938 0 .89063-.484375.28125-.484375.28125-1.4843754zm8.79688 5.2500004h-5.84376v-1.15625l2.76563-2.9531254q.5625-.609375.82813-1.078125.28124-.46875.28124-.875 0-.578125-.29687-.890625-.28125-.328125-.8125-.328125-.57813 0-.90625.390625-.32812.390625-.32812 1.046875h-1.70313q0-.78125.375-1.421875.375-.65625 1.04687-1.015625.6875-.375 1.54688-.375 1.3125 0 2.04688.640625.73437.625.73437 1.78125 0 .640625-.32813 1.296875-.32812.65625-1.125 1.53125l-1.9375 2.0468754h3.65626zm5.26562 0h-1.6875v-6.5312504l-2.01562.625v-1.375l3.53124-1.265625h.17188z" fill="#000"/><path d="m507.59375 7.18125h.96875v1.375h-.96875v1.84375h-1.70313v-1.84375h-3.48437l-.07813-1.0625 3.54688-5.625h1.71875zm-3.57813 0h1.875v-3l-.10937.1875zm9.67188 3.21875h-1.6875v-6.53125l-2.01562.625v-1.375l3.53122-1.265625h.1719z" stroke="#fff" stroke-linecap="round" stroke-linejoin="round" stroke-width="3"/><path d="m507.59375 7.1812496h.96875v1.3750004h-.96875v1.84375h-1.70313v-1.84375h-3.48437l-.07813-1.0625004 3.54688-5.625h1.71875zm-3.57813 0h1.875v-3l-.10937.1875zm9.67188 3.2187504h-1.6875v-6.5312504l-2.01562.625v-1.375l3.53122-1.265625h.1719z" fill="#000"/><path d="m37.9625 293.02603q0 1.90625-.65625 2.84375-.640623.92188-2.03125.92188-1.359373 0-2.015623-.90626-.65625-.90624-.6875-2.71874v-1.4375q0-1.89063.640623-2.79688.65625-.92188 2.046877-.92188 1.375 0 2.03125.89063.65625.875.671873 2.71875zm-1.09375-1.48437q0-1.375-.390623-2-.375-.64063-1.21875-.64063-.828127 0-1.21875.64063-.375.625-.375 1.92187v1.73437q0 1.375.390623 2.04688.40625.65625 1.21875.65625.796877 0 1.1875-.625.390627-.625.40625-1.95313zm2.640627-1.76563q0-.76563.484373-1.26563.5-.5 1.265627-.5.78125 0 1.265623.5.484377.5.484377 1.29688v.42188q0 .76562-.5 1.26562-.484377.48438-1.234377.48438-.765623 0-1.265623-.48438-.5-.5-.5-1.3125zm.8125.45313q0 .45312.25.75.265623.29687.703123.29687.421877 0 .671877-.28125.25-.29688.25-.79688v-.42187q0-.45313-.25-.75-.25-.3125-.6875-.3125-.4375 0-.6875.3125-.25.29687-.25.76563zm3.34375 4.34374q0-.76562.484373-1.25.5-.5 1.265627-.5.765623 0 1.25.5.5.48438.5 1.29688v.40625q0 .76563-.484377 1.26563-.484373.5-1.25.5-.765623 0-1.265623-.48438-.5-.5-.5-1.3125zm.8125.45313q0 .46875.25.76563.265623.29687.703123.29687.421877 0 .671877-.28125.25-.29688.25-.79688v-.4375q0-.46874-.265627-.75-.25-.29687-.671873-.29687-.421877 0-.6875.29687-.25.28126-.25.78126zm-2.953127 1-.625-.39063 4.171877-6.67187.609373.39063z" fill="#000"/><path d="m31.196875 229.975h-5.59375v-.78124l2.953125-3.28126q.65625-.75.90625-1.20312.25-.46875.25-.96875 0-.67187-.40625-1.09375-.390625-.4375-1.078125-.4375-.796875 0-1.25.46875-.453125.45313-.453125 1.28125h-1.078125q0-1.1875.75-1.90625.765625-.73437 2.03125-.73437 1.203125 0 1.890625.625.6875.625.6875 1.67187 0 1.25-1.609375 3l-2.28125 2.46875h4.28125zm1.906252-4.28124.4375-4.25h4.375v1h-3.453127l-.265623 2.32812q.640623-.375 1.4375-.375 1.15625 0 1.84375.78125.6875.76563.6875 2.07813 0 1.3125-.71875 2.07812-.703127.76562-1.984377.76562-1.125 0-1.84375-.625-.71875-.64062-.8125-1.75h1.015627q.109373.73438.53125 1.10938.421873.375 1.109373.375.75 0 1.1875-.51562.4375-.51563.4375-1.42188 0-.85938-.46875-1.375-.46875-.51562-1.25-.51562-.703123 0-1.109373.29687l-.28125.23437zm6.40625-2.60938q0-.76562.484373-1.26562.5-.5 1.265627-.5.78125 0 1.265623.5.484377.5.484377 1.29687v.42187q0 .76563-.5 1.26563-.484377.48437-1.234377.48437-.765623 0-1.265623-.48437-.5-.5-.5-1.3125zm.8125.45312q0 .45313.25.75.265623.29688.703123.29688.421877 0 .671877-.28125.25-.29687.25-.79687v-.42188q0-.45312-.25-.75-.25-.3125-.6875-.3125-.4375 0-.6875.3125-.25.29688-.25.76562zm3.34375 4.34376q0-.76563.484373-1.25.5-.5 1.265627-.5.765623 0 1.25.5.5.48437.5 1.29687v.40625q0 .76562-.484377 1.26562-.484373.5-1.25.5-.765623 0-1.265623-.48437-.5-.5-.5-1.3125zm.8125.45312q0 .46875.25.76562.265623.29688.703123.29688.421877 0 .671877-.28125.25-.29687.25-.79687v-.4375q0-.46876-.265627-.75-.25-.29688-.671873-.29688-.421877 0-.6875.29688-.25.28124-.25.78124zm-2.953127 1-.625-.39062 4.171877-6.67188.609373.39062z" fill="#000"/><path d="m26.103125 159.00209.4375-4.25h4.375v1h-3.453125l-.265625 2.32813q.640625-.375 1.4375-.375 1.15625 0 1.84375.78125.6875.76562.6875 2.07812 0 1.3125-.71875 2.07813-.703125.76562-1.984375.76562-1.125 0-1.84375-.625-.71875-.64062-.8125-1.75h1.015625q.109375.73438.53125 1.10938.421875.375 1.109375.375.75 0 1.1875-.51563.4375-.51562.4375-1.42187 0-.85938-.46875-1.375-.46875-.51563-1.25-.51563-.703125 0-1.109375.29688l-.28125.23437zm11.859375.64063q0 1.90625-.65625 2.84375-.640623.92187-2.03125.92187-1.359373 0-2.015623-.90625-.65625-.90625-.6875-2.71875v-1.4375q0-1.89062.640623-2.79687.65625-.92188 2.046877-.92188 1.375 0 2.03125.89063.65625.875.671873 2.71875zm-1.09375-1.48438q0-1.375-.390623-2-.375-.64062-1.21875-.64062-.828127 0-1.21875.64062-.375.625-.375 1.92188v1.73437q0 1.375.390623 2.04688.40625.65625 1.21875.65625.796877 0 1.1875-.625.390627-.625.40625-1.95313zm2.640627-1.76562q0-.76563.484373-1.26563.5-.5 1.265627-.5.78125 0 1.265623.5.484377.5.484377 1.29688v.42187q0 .76563-.5 1.26563-.484377.48437-1.234377.48437-.765623 0-1.265623-.48437-.5-.5-.5-1.3125zm.8125.45312q0 .45313.25.75.265623.29688.703123.29688.421877 0 .671877-.28125.25-.29688.25-.79688v-.42187q0-.45313-.25-.75-.25-.3125-.6875-.3125-.4375 0-.6875.3125-.25.29687-.25.76562zm3.34375 4.34375q0-.76562.484373-1.25.5-.5 1.265627-.5.765623 0 1.25.5.5.48438.5 1.29688v.40625q0 .76562-.484377 1.26562-.484373.5-1.25.5-.765623 0-1.265623-.48437-.5-.5-.5-1.3125zm.8125.45313q0 .46875.25.76562.265623.29688.703123.29688.421877 0 .671877-.28125.25-.29688.25-.79688v-.4375q0-.46875-.265627-.75-.25-.29687-.671873-.29687-.421877 0-.6875.29687-.25.28125-.25.78125zm-2.953127 1-.625-.39063 4.171877-6.67187.609373.39062z" fill="#000"/><path d="m31.11875 88.66979-3.53125 7.92188h-1.140625l3.515625-7.64063h-4.609375v-.89062h5.765625zm1.984377 3.64063.4375-4.25h4.375v1h-3.453127l-.265623 2.32812q.640623-.375 1.4375-.375 1.15625 0 1.84375.78125.6875.76563.6875 2.07813 0 1.3125-.71875 2.07812-.703127.76563-1.984377.76563-1.125 0-1.84375-.625-.71875-.64063-.8125-1.75h1.015627q.109373.73437.53125 1.10937.421873.375 1.109373.375.75 0 1.1875-.51562.4375-.51563.4375-1.42188 0-.85937-.46875-1.375-.46875-.51562-1.25-.51562-.703123 0-1.109373.29687l-.28125.23438zm6.40625-2.60938q0-.76562.484373-1.26562.5-.5 1.265627-.5.78125 0 1.265623.5.484377.5.484377 1.29687v.42188q0 .76562-.5 1.26562-.484377.48438-1.234377.48438-.765623 0-1.265623-.48438-.5-.5-.5-1.3125zm.8125.45313q0 .45312.25.75.265623.29687.703123.29687.421877 0 .671877-.28125.25-.29687.25-.79687v-.42188q0-.45312-.25-.75-.25-.3125-.6875-.3125-.4375 0-.6875.3125-.25.29688-.25.76563zm3.34375 4.34375q0-.76563.484373-1.25.5-.5 1.265627-.5.765623 0 1.25.5.5.48437.5 1.29687v.40625q0 .76563-.484377 1.26563-.484373.5-1.25.5-.765623 0-1.265623-.48438-.5-.5-.5-1.3125zm.8125.45312q0 .46875.25.76563.265623.29687.703123.29687.421877 0 .671877-.28125.25-.29687.25-.79687v-.4375q0-.46875-.265627-.75-.25-.29688-.671873-.29688-.421877 0-.6875.29688-.25.28125-.25.78125zm-2.953127 1-.625-.39062 4.171877-6.67188.609373.39063z" fill="#000"/><path d="m22.165625 29.9h-1.078125v-7.21875l-2.1875.796875v-.984375l3.109375-1.171875h.15625zm8.796875-3.640625q0 1.90625-.65625 2.84375-.640625.921875-2.03125.921875-1.359375 0-2.015625-.90625-.65625-.90625-.6875-2.71875v-1.4375q0-1.890625.640625-2.796875.65625-.921875 2.046875-.921875 1.375 0 2.03125.890625.65625.875.671875 2.71875zm-1.09375-1.484375q0-1.375-.390625-2-.375-.640625-1.21875-.640625-.828125 0-1.21875.640625-.375.625-.375 1.921875v1.734375q0 1.375.390625 2.046875.40625.65625 1.21875.65625.796875 0 1.1875-.625.390625-.625.40625-1.953125zm8.09375 1.484375q0 1.90625-.65625 2.84375-.640623.921875-2.03125.921875-1.359373 0-2.015623-.90625-.65625-.90625-.6875-2.71875v-1.4375q0-1.890625.640623-2.796875.65625-.921875 2.046877-.921875 1.375 0 2.03125.890625.65625.875.671873 2.71875zm-1.09375-1.484375q0-1.375-.390623-2-.375-.640625-1.21875-.640625-.828127 0-1.21875.640625-.375.625-.375 1.921875v1.734375q0 1.375.390623 2.046875.40625.65625 1.21875.65625.796877 0 1.1875-.625.390627-.625.40625-1.953125zm2.640627-1.765625q0-.765625.484373-1.265625.5-.5 1.265627-.5.78125 0 1.265623.5.484377.5.484377 1.296875v.421875q0 .765625-.5 1.265625-.484377.484375-1.234377.484375-.765623 0-1.265623-.484375-.5-.5-.5-1.3125zm.8125.453125q0 .453125.25.75.265623.296875.703123.296875.421877 0 .671877-.28125.25-.296875.25-.796875v-.421875q0-.453125-.25-.75-.25-.3125-.6875-.3125-.4375 0-.6875.3125-.25.296875-.25.765625zm3.34375 4.34375q0-.765625.484373-1.25.5-.5 1.265627-.5.765623 0 1.25.5.5.484375.5 1.296875v.40625q0 .765625-.484377 1.265625-.484373.5-1.25.5-.765623 0-1.265623-.484375-.5-.5-.5-1.3125zm.8125.453125q0 .46875.25.765625.265623.296875.703123.296875.421877 0 .671877-.28125.25-.296875.25-.796875v-.4375q0-.46875-.265627-.75-.25-.296875-.671873-.296875-.421877 0-.6875.296875-.25.28125-.25.78125zm-2.953127 1-.625-.390625 4.171877-6.671875.609373.390625z" fill="#000"/><path d="m99.04909 310.16666v-8.53126h2.98437q1.54688 0 2.34375.59376.8125.59374.8125 1.75 0 .625-.32812 1.10937-.3125.46875-.89063.6875.65625.17187 1.03125.67187.39063.48438.39063 1.20313 0 1.23437-.79688 1.875-.78125.625-2.23437.64063zm1.75-3.71876v2.3125h1.51562q.60938 0 .95313-.29687.35937-.29687.35937-.82813 0-1.17187-1.21875-1.1875zm0-1.23437h1.3125q1.32812-.03125 1.32812-1.0625 0-.57813-.34375-.82813-.32812-.26562-1.0625-.26562h-1.23437zm9.04687 5.07813q-1.39062 0-2.26562-.85938-.875-.85938-.875-2.28125v-.17187q0-.95313.35937-1.70313.375-.75 1.04688-1.15625.6875-.40625 1.54687-.40625 1.3125 0 2.04688.82813.75.8125.75 2.3125v.6875h-4.03125q.07812.625.48437 1 .42188.375 1.0625.375.96875 0 1.51563-.70313l.84375.92187q-.39063.54688-1.04688.85938-.64062.29688-1.4375.29688zm-.1875-5.21876q-.5 0-.8125.34376-.3125.34374-.40625.96874h2.35938v-.125q-.01563-.5625-.3125-.875-.28125-.3125-.82813-.3125zm1.84375-2.45312h-4.04687v-.96875h4.04687zm5 2.79688q-.34375-.04688-.60937-.04688-.96875 0-1.26563.64062v4.15626h-1.6875v-6.34376h1.59375l.04688.76563q.51562-.875 1.40625-.875.28125 0 .53125.07813zm2.375 3.39062h3.10938v1.35938h-5.26563v-1.03126l2.98438-3.9375h-2.90625v-1.375h5.09375v1zm7.48438-.39062q0-.3125-.3125-.48438-.29688-.1875-.96875-.32812-2.26563-.46876-2.26563-1.92188 0-.84375.6875-1.40625.70313-.5625 1.84375-.5625 1.20313 0 1.92188.5625.73437.5625.73437 1.48437h-1.70312q0-.375-.23438-.60937-.23437-.23437-.73437-.23437-.42188 0-.65625.20312-.23438.1875-.23438.48438 0 .28124.26563.45312.26562.17188.89062.29688.64063.125 1.07813.28124 1.34375.5 1.34375 1.70313 0 .875-.75 1.42187-.73438.53126-1.92188.53126-.79687 0-1.42187-.28126-.60938-.29687-.96875-.78124-.34375-.5-.34375-1.07813h1.60937q.01563.45313.32813.70313.3125.23437.82812.23437.5 0 .73438-.1875.25-.1875.25-.48437z" fill="#000"/><path d="m177.8857 307.16666v3h-1.75v-8.53126h3.32812q.95313 0 1.6875.35938.73438.34375 1.125 1 .39063.64062.39063 1.46875 0 1.25-.85938 1.98437-.85937.71876-2.375.71876zm0-1.4375h1.57812q.6875 0 1.04688-.32813.375-.32813.375-.9375 0-.625-.375-1-.35938-.39063-1.01563-.40625h-1.60937zm9.70312-.3125q-.34375-.04688-.60937-.04688-.96875 0-1.26563.64062v4.15626h-1.6875v-6.34376h1.59375l.04688.76563q.51562-.875 1.40625-.875.28125 0 .53125.07813zm2.21875 4.75h-1.70312v-6.34376h1.70312zm-1.79687-7.98438q0-.375.25-.625.26562-.25.70312-.25.42188 0 .67188.25.26562.25.26562.625 0 .39062-.26562.64062-.25.23438-.6875.23438-.42188 0-.6875-.23438-.25-.25-.25-.64062zm5.92187 8.10938q-1.39062 0-2.26562-.85938-.875-.85938-.875-2.28125v-.17187q0-.95313.35937-1.70313.375-.75 1.04688-1.15625.6875-.40625 1.54687-.40625 1.3125 0 2.04688.82813.75.8125.75 2.3125v.6875h-4.03125q.07812.625.48437 1 .42188.375 1.0625.375.96875 0 1.51563-.70313l.84375.92187q-.39063.54688-1.04688.85938-.64062.29688-1.4375.29688zm-.1875-5.21876q-.5 0-.8125.34376-.3125.34374-.40625.96874h2.35938v-.125q-.01563-.5625-.3125-.875-.28125-.3125-.82813-.3125zm3.01563 1.875q0-1.48437.65625-2.35937.67187-.875 1.82812-.875.92188 0 1.53125.6875v-3.23437h1.6875v9h-1.51562l-.09375-.67188q-.625.79688-1.625.79688-1.125 0-1.79688-.875-.67187-.89063-.67187-2.46876zm1.6875.125q0 .89063.3125 1.375.3125.46876.90625.46876.78125 0 1.10937-.67188v-2.5q-.32812-.65625-1.09375-.65625-1.23437 0-1.23437 1.98437zm8.48437 3.21876q-1.39062 0-2.26562-.85938-.875-.85938-.875-2.28125v-.17187q0-.95313.35937-1.70313.375-.75 1.04688-1.15625.6875-.40625 1.54687-.40625 1.3125 0 2.04688.82813.75.8125.75 2.3125v.6875h-4.03125q.07812.625.48437 1 .42188.375 1.0625.375.96875 0 1.51563-.70313l.84375.92187q-.39063.54688-1.04688.85938-.64062.29688-1.4375.29688zm-.1875-5.21876q-.5 0-.8125.34376-.3125.34374-.40625.96874h2.35938v-.125q-.01563-.5625-.3125-.875-.28125-.3125-.82813-.3125z" fill="#000"/><path d="m263.53482 308.40103h-3.07812l-.59375 1.76563h-1.85938l3.17188-8.53126h1.625l3.20312 8.53126h-1.875zm-2.60937-1.42187h2.14062l-1.07812-3.1875zm11.39062.07812q0 1.46875-.67187 2.35938-.65625.875-1.79688.875-.95312 0-1.54687-.67188v2.98438h-1.6875v-8.78126h1.5625l.0625.625q.60937-.73437 1.60937-.73437 1.17188 0 1.8125.875.65625.85937.65625 2.375zm-1.6875-.125q0-.89062-.32812-1.35938-.3125-.48437-.90625-.48437-.79688 0-1.09375.60937v2.59376q.3125.625 1.10937.625 1.21875 0 1.21875-1.98438zm6.40625 1.48438q0-.3125-.3125-.48438-.29687-.1875-.96875-.32812-2.26562-.46876-2.26562-1.92188 0-.84375.6875-1.40625.70312-.5625 1.84375-.5625 1.20312 0 1.92187.5625.73438.5625.73438 1.48437h-1.70313q0-.375-.23437-.60937-.23438-.23437-.73438-.23437-.42187 0-.65625.20312-.23437.1875-.23437.48438 0 .28124.26562.45312.26563.17188.89063.29688.64062.125 1.07812.28124 1.34375.5 1.34375 1.70313 0 .875-.75 1.42187-.73437.53126-1.92187.53126-.79688 0-1.42188-.28126-.60937-.29687-.96875-.78124-.34375-.5-.34375-1.07813h1.60938q.01562.45313.32812.70313.3125.23437.82813.23437.5 0 .73437-.1875.25-.1875.25-.48437zm5.48438 1.875q-1.39063 0-2.26563-.85938-.875-.85938-.875-2.28125v-.17187q0-.95313.35938-1.70313.375-.75 1.04687-1.15625.6875-.40625 1.54688-.40625 1.3125 0 2.04687.82813.75.8125.75 2.3125v.6875h-4.03125q.07813.625.48438 1 .42187.375 1.0625.375.96875 0 1.51562-.70313l.84375.92187q-.39062.54688-1.04687.85938-.64063.29688-1.4375.29688zm-.1875-5.21876q-.5 0-.8125.34376-.3125.34374-.40625.96874h2.35937v-.125q-.01562-.5625-.3125-.875-.28125-.3125-.82812-.3125z" fill="#000"/><path d="m344.93393 306.46353h-3.375v2.29687h3.96875v1.40626h-5.71875v-8.53126h5.70312v1.42188h-3.95312v2.03125h3.375zm1.51562.48437q0-1.45312.6875-2.34374.70313-.89063 1.875-.89063 1.04688 0 1.625.70313l.07813-.59376h1.53125v6.125q0 .84376-.39063 1.45313-.375.625-1.0625.9375-.67187.32813-1.59375.32813-.70312 0-1.375-.28126-.65625-.28124-.98437-.71874l.75-1.03126q.625.70313 1.53125.70313.67187 0 1.04687-.35937.375-.35938.375-1.01563v-.34375q-.57812.67188-1.54687.67188-1.14063 0-1.84375-.89063-.70313-.90625-.70313-2.375zm1.6875.125q0 .85938.34375 1.35938.35938.48438.95313.48438.78125 0 1.10937-.57813v-2.67187q-.34375-.57813-1.09375-.57813-.60937 0-.96875.5-.34375.5-.34375 1.48437zm7.34375 3.09376h-1.70312v-9h1.70312zm4.125.125q-1.39062 0-2.26562-.85938-.875-.85938-.875-2.28125v-.17187q0-.95313.35937-1.70313.375-.75 1.04688-1.15625.6875-.40625 1.54687-.40625 1.3125 0 2.04688.82813.75.8125.75 2.3125v.6875h-4.03125q.07812.625.48437 1 .42188.375 1.0625.375.96875 0 1.51563-.70313l.84375.92187q-.39063.54688-1.04688.85938-.64062.29688-1.4375.29688zm-.1875-5.21876q-.5 0-.8125.34376-.3125.34374-.40625.96874h2.35938v-.125q-.01563-.5625-.3125-.875-.28125-.3125-.82813-.3125z" fill="#000"/><path d="m401.39554 310.16666v-8.53126h2.98436q1.5469 0 2.34376.59376.8125.59374.8125 1.75 0 .625-.32812 1.10937-.3125.46875-.89064.6875.65626.17187 1.03126.67187.39064.48438.39064 1.20313 0 1.23437-.7969 1.875-.78124.625-2.23436.64063zm1.75-3.71876v2.3125h1.51562q.60938 0 .95314-.29687.35936-.29687.35936-.82813 0-1.17187-1.21876-1.1875zm0-1.23437h1.3125q1.32812-.03125 1.32812-1.0625 0-.57813-.34376-.82813-.3281-.26562-1.0625-.26562h-1.23436zm9.8125 4.95313q-.125-.23438-.17188-.5625-.60936.6875-1.59376.6875-.9375 0-1.54686-.54688-.60938-.54688-.60938-1.35938 0-1.01562.73438-1.54687.75-.54687 2.17186-.54687h.76564v-.35938q0-.4375-.21874-.70312-.21876-.26563-.71876-.26563-.42188 0-.67188.20313-.23436.20312-.23436.5625h-1.6875q0-.54688.3281-1.01563.34376-.46875.96876-.73437.625-.26563 1.39064-.26563 1.17186 0 1.85936.59375.6875.57812.6875 1.64062v2.75q.01564.90626.25 1.375v.09376zm-1.40624-1.17188q.375 0 .6875-.17188.3281-.17187.46874-.45312v-1.09375h-.625q-1.26564 0-1.35938.89063v.09374q0 .3125.21874.53126.21876.20312.6094.20312zm5.5156 1.17188h-1.7031v-9h1.7031zm3.2344-7.90626v1.5625h1.09374v1.25h-1.09374v3.15626q0 .35937.1406.51562.14064.14062.51564.14062.28126 0 .5-.03124v1.28124q-.5.15626-1.03124.15626-1.78126 0-1.8125-1.8125v-3.40626h-.9219v-1.25h.9219v-1.5625zm5.65624 7.90626q-.125-.23438-.17188-.5625-.60936.6875-1.59376.6875-.9375 0-1.54686-.54688-.60938-.54688-.60938-1.35938 0-1.01562.73438-1.54687.75-.54687 2.17186-.54687h.76564v-.35938q0-.4375-.21874-.70312-.21876-.26563-.71876-.26563-.42188 0-.67188.20313-.23436.20312-.23436.5625h-1.6875q0-.54688.3281-1.01563.34376-.46875.96876-.73437.625-.26563 1.39064-.26563 1.17186 0 1.85936.59375.6875.57812.6875 1.64062v2.75q.01564.90626.25 1.375v.09376zm-1.40624-1.17188q.375 0 .6875-.17188.3281-.17187.46874-.45312v-1.09375h-.625q-1.26564 0-1.35938.89063v.09374q0 .3125.21874.53126.21876.20312.6094.20312zm5.5156 1.17188h-1.7031v-9h1.7031zm3.51564-2.54688-.60938.60938v1.9375h-1.6875v-9h1.6875v4.98437l.32814-.42187 1.625-1.90626h2.03124l-2.29688 2.64063 2.5 3.70313h-1.95312zm7.125.79688q0-.3125-.3125-.48438-.29688-.1875-.96874-.32812-2.26564-.46876-2.26564-1.92188 0-.84375.6875-1.40625.70314-.5625 1.84374-.5625 1.20314 0 1.9219.5625.73436.5625.73436 1.48437h-1.70312q0-.375-.23438-.60937-.23436-.23437-.73436-.23437-.4219 0-.65626.20312-.23438.1875-.23438.48438 0 .28124.26564.45312.2656.17188.8906.29688.64064.125 1.07814.28124 1.34376.5 1.34376 1.70313 0 .875-.75 1.42187-.7344.53126-1.9219.53126-.79686 0-1.42186-.28126-.60938-.29687-.96874-.78124-.34376-.5-.34376-1.07813h1.60936q.01564.45313.32814.70313.3125.23437.82812.23437.5 0 .73438-.1875.25-.1875.25-.48437zm4.125-4.59376.0625.73438q.67186-.84375 1.8125-.84375 1.01562 0 1.5.59375.5.57812.51562 1.76562v4.09376h-1.70312v-4.0625q0-.53126-.23438-.76563-.23436-.25-.78126-.25-.7031 0-1.0625.60937v4.46876h-1.7031v-6.34376zm7.23436 6.34376h-1.7031v-6.34376h1.7031zm-1.79686-7.98438q0-.375.25-.625.26562-.25.70312-.25.42188 0 .67188.25.26562.25.26562.625 0 .39062-.26562.64062-.25.23438-.6875.23438-.42188 0-.6875-.23438-.25-.25-.25-.64062zm6.4375 6.23438q0-.3125-.3125-.48438-.29688-.1875-.96874-.32812-2.26564-.46876-2.26564-1.92188 0-.84375.6875-1.40625.70314-.5625 1.84374-.5625 1.20314 0 1.9219.5625.73436.5625.73436 1.48437h-1.70312q0-.375-.23438-.60937-.23436-.23437-.73436-.23437-.4219 0-.65626.20312-.23438.1875-.23438.48438 0 .28124.26564.45312.2656.17188.8906.29688.64064.125 1.07814.28124 1.34376.5 1.34376 1.70313 0 .875-.75 1.42187-.7344.53126-1.9219.53126-.79686 0-1.42186-.28126-.60938-.29687-.96874-.78124-.34376-.5-.34376-1.07813h1.60936q.01564.45313.32814.70313.3125.23437.82812.23437.5 0 .73438-.1875.25-.1875.25-.48437z" fill="#000"/><path d="m487.48215 306.08853q0 1.26563-.45313 2.21875-.4375.9375-1.26562 1.46875-.82813.51563-1.89063.51563-1.0625 0-1.90625-.51563-.82812-.51563-1.28125-1.45313-.45312-.95312-.46875-2.1875v-.42187q0-1.25.45313-2.20313.45312-.96874 1.28125-1.48437.84375-.51563 1.90625-.51563 1.0625 0 1.89062.51563.82813.51563 1.28125 1.48437.45313.95313.45313 2.20313zm-1.78125-.375q0-1.34375-.48438-2.04687-.46875-.70313-1.35937-.70313-.89063 0-1.375.70313-.46875.6875-.48438 2.01562v.40625q0 1.3125.48438 2.03125.48437.71875 1.39062.71875.875 0 1.34375-.6875.48438-.70313.48438-2.03125zm4.60937 3.09375h3.10938v1.35938h-5.26563v-1.03126l2.98438-3.9375h-2.90625v-1.375h5.09375v1zm3.79688-1.875q0-.9375.35937-1.67188.35938-.75 1.04688-1.14062.6875-.40625 1.57812-.40625 1.29688 0 2.09375.78125.8125.78125.90625 2.125l.01563.4375q0 1.46875-.8125 2.35938-.8125.875-2.1875.875-1.375 0-2.1875-.875-.8125-.89063-.8125-2.40626zm1.6875.125q0 .90625.34375 1.39062.34375.46876.96875.46876.625 0 .96875-.46876.34375-.46874.34375-1.51562 0-.875-.34375-1.35938-.34375-.5-.98438-.5-.60937 0-.95312.48438-.34375.48438-.34375 1.5zm7.35937 3.10938h-1.70312v-9h1.70312zm4.64063-1.75q0-.3125-.3125-.48438-.29688-.1875-.96875-.32812-2.26563-.46876-2.26563-1.92188 0-.84375.6875-1.40625.70313-.5625 1.84375-.5625 1.20313 0 1.92188.5625.73437.5625.73437 1.48437h-1.70312q0-.375-.23438-.60937-.23437-.23437-.73437-.23437-.42188 0-.65625.20312-.23438.1875-.23438.48438 0 .28124.26563.45312.26562.17188.89062.29688.64063.125 1.07813.28124 1.34375.5 1.34375 1.70313 0 .875-.75 1.42187-.73438.53126-1.92188.53126-.79687 0-1.42187-.28126-.60938-.29687-.96875-.78124-.34375-.5-.34375-1.07813h1.60937q.01563.45313.32813.70313.3125.23437.82812.23437.5 0 .73438-.1875.25-.1875.25-.48437zm3.01562 3.89062-.89062-.46875.21875-.375q.39062-.71875.40625-1.42187v-1.3125h1.42187v1.17187q-.01562.64063-.34375 1.29687-.3125.67188-.8125 1.10938zm5.29693-5.375q0-.9375.35935-1.67188.35935-.75 1.04685-1.14062.6875-.40625 1.57815-.40625 1.29685 0 2.09375.78125.8125.78125.90625 2.125l.01565.4375q0 1.46875-.8125 2.35938-.8125.875-2.1875.875-1.375 0-2.1875-.875-.8125-.89063-.8125-2.40626zm1.6875.125q0 .90625.3437 1.39062.3438.46876.9688.46876.625 0 .9687-.46876.3438-.46874.3438-1.51562 0-.875-.3438-1.35938-.3437-.5-.98435-.5-.60935 0-.95315.48438-.3437.48438-.3437 1.5zm9 1.35938q0-.3125-.3125-.48438-.2969-.1875-.9688-.32812-2.2656-.46876-2.2656-1.92188 0-.84375.6875-1.40625.7031-.5625 1.84375-.5625 1.20315 0 1.92185.5625.7344.5625.7344 1.48437h-1.7031q0-.375-.2344-.60937-.2344-.23437-.7344-.23437-.42185 0-.6562.20312-.2344.1875-.2344.48438 0 .28124.2656.45312.26565.17188.89065.29688.64065.125 1.07815.28124 1.3437.5 1.3437 1.70313 0 .875-.75 1.42187-.73435.53126-1.92185.53126-.79685 0-1.42185-.28126-.6094-.29687-.9688-.78124-.3437-.5-.3437-1.07813h1.60935q.01565.45313.32815.70313.3125.23437.8281.23437.5 0 .7344-.1875.25-.1875.25-.48437zm4.35935 1.75h-1.70315v-6.34376h1.70315zm-1.79685-7.98438q0-.375.25-.625.2656-.25.7031-.25.4219 0 .6719.25.2656.25.2656.625 0 .39062-.2656.64062-.25.23438-.6875.23438-.4219 0-.6875-.23438-.25-.25-.25-.64062zm6.4375 6.23438q0-.3125-.3125-.48438-.2969-.1875-.9688-.32812-2.2656-.46876-2.2656-1.92188 0-.84375.6875-1.40625.7031-.5625 1.84375-.5625 1.20315 0 1.92185.5625.7344.5625.7344 1.48437h-1.7031q0-.375-.2344-.60937-.2344-.23437-.7344-.23437-.42185 0-.6562.20312-.2344.1875-.2344.48438 0 .28124.2656.45312.26565.17188.89065.29688.64065.125 1.07815.28124 1.3437.5 1.3437 1.70313 0 .875-.75 1.42187-.73435.53126-1.92185.53126-.79685 0-1.42185-.28126-.6094-.29687-.9688-.78124-.3437-.5-.3437-1.07813h1.60935q.01565.45313.32815.70313.3125.23437.8281.23437.5 0 .7344-.1875.25-.1875.25-.48437z" fill="#000"/><path d="m167.5 327.6c0-.55227.44771-1 1-1h10c.55229 0 1 .44773 1 1v10c0 .55228-.44771 1-1 1h-10c-.55229 0-1-.44772-1-1z" fill="#38761d"/><path d="m191 333.30313q-1.4375-.42187-2.10938-1.03125-.65624-.60938-.65624-1.5 0-1 .79687-1.65625.8125-.67187 2.10937-.67187.875 0 1.5625.34374.6875.34376 1.0625.9375.39063.59376.39063 1.3125h-1.14063q0-.78124-.5-1.21874-.48437-.4375-1.375-.4375-.82812 0-1.29687.375-.46875.35937-.46875 1 0 .53124.4375.89062.45312.35938 1.51562.65625 1.0625.29687 1.65626.65625.60937.35938.89062.84375.29688.48437.29688 1.125 0 1.04687-.8125 1.67187-.8125.625-2.15626.625-.89062 0-1.65624-.34374-.75-.34376-1.17188-.92188-.40625-.59375-.40625-1.32812h1.125q0 .76562.57813 1.21874.57812.45313 1.53124.45313.89063 0 1.35938-.35937.46875-.375.46875-1 0-.625-.4375-.96876-.4375-.34374-1.59375-.67187zm6.95312 3.92187q-1.29687 0-2.10937-.84374-.79687-.85938-.79687-2.28126v-.1875q0-.95312.35937-1.6875.35937-.75 1-1.15624.65625-.42188 1.40625-.42188 1.23438 0 1.92188.8125.6875.8125.6875 2.32812v.45313h-4.29688q.03125.9375.54688 1.51563.53124.57812 1.34374.57812.5625 0 .95313-.23438.40625-.23437.71875-.625l.65625.51563q-.79687 1.23437-2.39063 1.23437zm-.14062-5.6875q-.65625 0-1.10938.48438-.4375.46875-.53124 1.32812h3.17187v-.07812q-.04687-.82812-.45313-1.28125-.39062-.45313-1.07812-.45313zm2-2.10937h-3.9375v-.84375h3.9375zm2.625 1.32813v7.07812q0 1.82812-1.65625 1.82812-.35937 0-.65625-.10937v-.85937q.1875.04687.48438.04687.35937 0 .54687-.20313.20313-.1875.20313-.6875v-7.09374zm-1.1875-1.67188q0-.26562.15625-.45312.15625-.1875.46875-.1875.3125 0 .46875.1875.17187.1875.17187.45312 0 .25-.17187.4375-.15625.17188-.46875.17188-.3125 0-.46875-.17188-.15625-.1875-.15625-.4375zm2.78125 4.78125q0-.92187.35937-1.67187.375-.75 1.03126-1.14063.65624-.40625 1.48437-.40625 1.29687 0 2.09375.89062.8125.89063.8125 2.39063v.07813q0 .92187-.35938 1.65624-.35937.73438-1.01562 1.15626-.65625.40624-1.51562.40624-1.28126 0-2.09376-.89062-.79687-.90625-.79687-2.39062zm1.09375.14063q0 1.04687.48438 1.6875.5.64062 1.3125.64062.82812 0 1.3125-.64062.48437-.65626.48437-1.82813 0-1.03125-.5-1.67187-.48437-.65626-1.3125-.65626-.79687 0-1.29687.64063-.48438.625-.48438 1.82813zm7.67188-4.78126v1.53126h1.17187v.84374h-1.17187v3.92188q0 .39062.15624.57812.15626.1875.53126.1875.1875 0 .51562-.0625v.875q-.42188.125-.82812.125-.71876 0-1.09376-.4375-.375-.45312-.375-1.26562v-3.92188h-1.15624v-.84374h1.15624v-1.53126zm2.48437 9.57813-.60937-.42187q.54687-.76563.57812-1.59376v-.96874h1.0625v.84374q0 .59376-.29688 1.1875-.29687.59376-.73437.95313zm8.73437-3.39063q0-.4375-.34374-.67187-.32813-.25-1.15626-.42187-.8125-.17188-1.29687-.42188-.48437-.25-.71875-.57812-.21875-.34376-.21875-.8125 0-.78126.65625-1.3125.65625-.54688 1.6875-.54688 1.07812 0 1.73438.5625.67187.54688.67187 1.40625h-1.07813q0-.4375-.39062-.75-.375-.32813-.9375-.32813-.59375 0-.9375.26563-.32812.25-.32812.65625 0 .39062.3125.59375.3125.20313 1.125.39063.8125.17187 1.3125.42187.5.25.73437.60937.25.35938.25.85938 0 .85938-.6875 1.375-.67187.51562-1.75.51562-.76563 0-1.35937-.26562-.57813-.28125-.90626-.76562-.32812-.48438-.32812-1.04688h1.07812q.03126.54688.4375.875.40626.3125 1.07813.3125.60937 0 .98437-.25.375-.25.375-.67188zm3.78126-6.1875v1.53126h1.17187v.84374h-1.17187v3.92188q0 .39062.15624.57812.15626.1875.53126.1875.1875 0 .51562-.0625v.875q-.42188.125-.82812.125-.71876 0-1.09376-.4375-.375-.45312-.375-1.26562v-3.92188h-1.15624v-.84374h1.15624v-1.53126zm6.4375 7.875q-.09376-.1875-.15626-.67187-.75.79687-1.79687.79687-.9375 0-1.54687-.53124-.59376-.53126-.59376-1.35938 0-.98438.75-1.53125.75-.54687 2.125-.54687h1.04688v-.5q0-.5625-.34375-.89063-.32813-.34375-1-.34375-.57813 0-.96875.29688-.39062.28124-.39062.70312h-1.09376q0-.48438.32813-.92188.34375-.4375.92187-.6875.57813-.26562 1.26563-.26562 1.10937 0 1.71875.54688.625.54687.65625 1.5v2.92187q0 .875.21875 1.39063v.09374zm-1.79688-.82812q.51562 0 .96875-.26562.45313-.26563.65625-.6875v-1.29688h-.84375q-2 0-2 1.17188 0 .5.34375.79687.34375.28125.875.28125zm2.46875-6.84375h-3.9375v-.84375h3.9375zm2.15625 4.45313q0-1.46876.6875-2.34376.6875-.89062 1.8125-.89062 1.10938 0 1.76562.75v-3.29688h1.07813v9h-1l-.04687-.6875q-.65626.8125-1.8125.8125-1.09376 0-1.79688-.90624-.6875-.90626-.6875-2.35938zm1.07812.125q0 1.07812.4375 1.6875.45313.60937 1.23438.60937 1.03125 0 1.51562-.9375v-2.90625q-.48437-.89062-1.5-.89062-.79687 0-1.25.60937-.4375.60937-.4375 1.82813zm5.89063-.14063q0-.92187.35937-1.67187.375-.75 1.03126-1.14063.65624-.40625 1.48437-.40625 1.29687 0 2.09375.89062.8125.89063.8125 2.39063v.07813q0 .92187-.35938 1.65624-.35937.73438-1.01562 1.15626-.65625.40624-1.51562.40624-1.28126 0-2.09376-.89062-.79687-.90625-.79687-2.39062zm1.09375.14063q0 1.04687.48438 1.6875.5.64062 1.3125.64062.82812 0 1.3125-.64062.48437-.65626.48437-1.82813 0-1.03125-.5-1.67187-.48437-.65626-1.3125-.65626-.79687 0-1.29687.64063-.48438.625-.48438 1.82813zm7.67188-4.78126v1.53126h1.17187v.84374h-1.17187v3.92188q0 .39062.15624.57812.15626.1875.53126.1875.1875 0 .51562-.0625v.875q-.42188.125-.82812.125-.71876 0-1.09376-.4375-.375-.45312-.375-1.26562v-3.92188h-1.15624v-.84374h1.15624v-1.53126z" fill="#1a1a1a"/><path d="m270.5 327.6c0-.55227.44772-1 1-1h10c.55228 0 1 .44773 1 1v10c0 .55228-.44772 1-1 1h-10c-.55228 0-1-.44772-1-1z" fill="#70ad47"/><path d="m291.48438 337.1v-8.53124h2.42187q1.10937 0 1.95313.5.85937.48437 1.32812 1.39062.46875.90625.46875 2.09375v.53125q0 1.21875-.46875 2.125-.45312.90625-1.32812 1.39062-.85938.48438-2 .5zm1.125-7.60937v6.6875h1.1875q1.29687 0 2.01562-.79687.73438-.8125.73438-2.3125v-.5q0-1.45313-.6875-2.25-.67188-.8125-1.9375-.82813zm10.625 7.60937q-.09376-.1875-.15626-.67187-.75.79687-1.79687.79687-.9375 0-1.54687-.53124-.59376-.53126-.59376-1.35938 0-.98438.75-1.53125.75-.54687 2.125-.54687h1.04688v-.5q0-.5625-.34375-.89063-.32813-.34375-1-.34375-.57813 0-.96875.29688-.39062.28124-.39062.70312h-1.09376q0-.48438.32813-.92188.34375-.4375.92187-.6875.57813-.26562 1.26563-.26562 1.10937 0 1.71875.54688.625.54687.65625 1.5v2.92187q0 .875.21875 1.39063v.09374zm-1.79688-.82812q.51562 0 .96875-.26562.45313-.26563.65625-.6875v-1.29688h-.84375q-2 0-2 1.17188 0 .5.34375.79687.34375.28125.875.28125zm10.25-2.26562q0 1.45312-.67188 2.34374-.65624.875-1.78124.875-1.20313 0-1.85938-.85937l-.0625.73437h-.98438v-9h1.07813v3.35938q.65625-.8125 1.8125-.8125 1.15625 0 1.8125.875.65625.85938.65625 2.39062zm-1.07812-.125q0-1.10938-.4375-1.70313-.42188-.60937-1.21876-.60937-1.07812 0-1.54687.98437v2.75q.5 1 1.54687 1 .78126 0 1.21876-.60937.4375-.60938.4375-1.8125zm3.89062 3.21874h-1.07812v-6.34374h1.07812zm-1.17188-8.01562q0-.26562.15626-.45312.17187-.1875.48437-.1875.3125 0 .46875.1875.17188.1875.17188.45312 0 .25-.17188.4375-.15625.17188-.46875.17188-.3125 0-.48437-.17188-.15626-.1875-.15626-.4375zm6.6875 6.32812q0-.4375-.34374-.67187-.32813-.25-1.15626-.42187-.8125-.17188-1.29687-.42188-.48437-.25-.71875-.57812-.21875-.34376-.21875-.8125 0-.78126.65625-1.3125.65625-.54688 1.6875-.54688 1.07812 0 1.73438.5625.67187.54688.67187 1.40625h-1.07813q0-.4375-.39062-.75-.375-.32813-.9375-.32813-.59375 0-.9375.26563-.32812.25-.32812.65625 0 .39062.3125.59375.3125.20313 1.125.39063.8125.17187 1.3125.42187.5.25.73437.60937.25.35938.25.85938 0 .85938-.6875 1.375-.67187.51562-1.75.51562-.76563 0-1.35937-.26562-.57813-.28125-.90626-.76562-.32812-.48438-.32812-1.04688h1.07812q.03126.54688.4375.875.40626.3125 1.07813.3125.60937 0 .98437-.25.375-.25.375-.67188zm4.07813-1.25-.6875.70313v2.23437h-1.07813v-9h1.07813v5.4375l.57813-.6875 1.98437-2.09374h1.3125l-2.46875 2.65624 2.76562 3.6875h-1.28124zm8.14063 2.9375q-.09376-.1875-.15626-.67187-.75.79687-1.79687.79687-.9375 0-1.54687-.53124-.59376-.53126-.59376-1.35938 0-.98438.75-1.53125.75-.54687 2.125-.54687h1.04688v-.5q0-.5625-.34375-.89063-.32813-.34375-1-.34375-.57813 0-.96875.29688-.39062.28124-.39062.70312h-1.09376q0-.48438.32813-.92188.34375-.4375.92187-.6875.57813-.26562 1.26563-.26562 1.10937 0 1.71875.54688.625.54687.65625 1.5v2.92187q0 .875.21875 1.39063v.09374zm-1.79688-.82812q.51562 0 .96875-.26562.45313-.26563.65625-.6875v-1.29688h-.84375q-2 0-2 1.17188 0 .5.34375.79687.34375.28125.875.28125zm2.46875-6.84375h-3.9375v-.84375h3.9375zm9.32813 7.67187q-.09376-.1875-.15626-.67187-.75.79687-1.79687.79687-.9375 0-1.54687-.53124-.59376-.53126-.59376-1.35938 0-.98438.75-1.53125.75-.54687 2.125-.54687h1.04688v-.5q0-.5625-.34375-.89063-.32813-.34375-1-.34375-.57813 0-.96875.29688-.39062.28124-.39062.70312h-1.09376q0-.48438.32813-.92188.34375-.4375.92187-.6875.57813-.26562 1.26563-.26562 1.10937 0 1.71875.54688.625.54687.65625 1.5v2.92187q0 .875.21875 1.39063v.09374zm-1.79688-.82812q.51562 0 .96875-.26562.45313-.26563.65625-.6875v-1.29688h-.84375q-2 0-2 1.17188 0 .5.34375.79687.34375.28125.875.28125zm6.35938-7.04688v1.53126h1.17187v.84374h-1.17187v3.92188q0 .39062.15624.57812.15626.1875.53126.1875.1875 0 .51562-.0625v.875q-.42188.125-.82812.125-.71876 0-1.09376-.4375-.375-.45312-.375-1.26562v-3.92188h-1.15624v-.84374h1.15624v-1.53126zm3.64062 1.53126v7.07812q0 1.82812-1.65625 1.82812-.35937 0-.65625-.10937v-.85937q.1875.04687.48438.04687.35937 0 .54687-.20313.20313-.1875.20313-.6875v-7.09374zm-1.1875-1.67188q0-.26562.15625-.45312.15625-.1875.46875-.1875.3125 0 .46875.1875.17187.1875.17187.45312 0 .25-.17187.4375-.15625.17188-.46875.17188-.3125 0-.46875-.17188-.15625-.1875-.15625-.4375zm6.98438 8.01562q-.09376-.1875-.15626-.67187-.75.79687-1.79687.79687-.9375 0-1.54687-.53124-.59376-.53126-.59376-1.35938 0-.98438.75-1.53125.75-.54687 2.125-.54687h1.04688v-.5q0-.5625-.34375-.89063-.32813-.34375-1-.34375-.57813 0-.96875.29688-.39062.28124-.39062.70312h-1.09376q0-.48438.32813-.92188.34375-.4375.92187-.6875.57813-.26562 1.26563-.26562 1.10937 0 1.71875.54688.625.54687.65625 1.5v2.92187q0 .875.21875 1.39063v.09374zm-1.79688-.82812q.51562 0 .96875-.26562.45313-.26563.65625-.6875v-1.29688h-.84375q-2 0-2 1.17188 0 .5.34375.79687.34375.28125.875.28125zm8.79688.20312q-.625.75-1.85938.75-1.01562 0-1.54688-.59374-.53124-.59376-.53124-1.75v-4.125h1.07812v4.09374q0 1.45313 1.17188 1.45313 1.25 0 1.65624-.9375v-4.60937h1.09376v6.34374h-1.03126zm4.10937-5.71874.03125.79687q.73438-.90625 1.90625-.90625 2.01563 0 2.03125 2.26562v4.1875h-1.09375v-4.20312q0-.67188-.3125-1-.29687-.32812-.95313-.32812-.53124 0-.9375.28124-.39062.28126-.60937.73438v4.51562h-1.07813v-6.34374zm5.6875 3.10937q0-.92187.35937-1.67187.375-.75 1.03126-1.14063.65624-.40625 1.48437-.40625 1.29687 0 2.09375.89062.8125.89063.8125 2.39063v.07813q0 .92187-.35938 1.65624-.35937.73438-1.01562 1.15626-.65625.40624-1.51562.40624-1.28126 0-2.09376-.89062-.79687-.90625-.79687-2.39062zm1.09375.14063q0 1.04687.48438 1.6875.5.64062 1.3125.64062.82812 0 1.3125-.64062.48437-.65626.48437-1.82813 0-1.03125-.5-1.67187-.48437-.65626-1.3125-.65626-.79687 0-1.29687.64063-.48438.625-.48438 1.82813zm9.89062 1.40624q0-.4375-.34374-.67187-.32813-.25-1.15626-.42187-.8125-.17188-1.29687-.42188-.48437-.25-.71875-.57812-.21875-.34376-.21875-.8125 0-.78126.65625-1.3125.65625-.54688 1.6875-.54688 1.07812 0 1.73438.5625.67187.54688.67187 1.40625h-1.07813q0-.4375-.39062-.75-.375-.32813-.9375-.32813-.59375 0-.9375.26563-.32812.25-.32812.65625 0 .39062.3125.59375.3125.20313 1.125.39063.8125.17187 1.3125.42187.5.25.73437.60937.25.35938.25.85938 0 .85938-.6875 1.375-.67187.51562-1.75.51562-.76563 0-1.35937-.26562-.57813-.28125-.90626-.76562-.32812-.48438-.32812-1.04688h1.07812q.03126.54688.4375.875.40626.3125 1.07813.3125.60937 0 .98437-.25.375-.25.375-.67188zm-1.23437-6.3125.89063-1h.9375v.0625l-1.5 1.60938h-.65626l-1.46874-1.60938v-.0625h.92187zm7.45313 8q-.09376-.1875-.15626-.67187-.75.79687-1.79687.79687-.9375 0-1.54687-.53124-.59376-.53126-.59376-1.35938 0-.98438.75-1.53125.75-.54687 2.125-.54687h1.04688v-.5q0-.5625-.34375-.89063-.32813-.34375-1-.34375-.57813 0-.96875.29688-.39062.28124-.39062.70312h-1.09376q0-.48438.32813-.92188.34375-.4375.92187-.6875.57813-.26562 1.26563-.26562 1.10937 0 1.71875.54688.625.54687.65625 1.5v2.92187q0 .875.21875 1.39063v.09374zm-1.79688-.82812q.51562 0 .96875-.26562.45313-.26563.65625-.6875v-1.29688h-.84375q-2 0-2 1.17188 0 .5.34375.79687.34375.28125.875.28125zm5.90625-5.51562.03125.79687q.73438-.90625 1.90625-.90625 2.01563 0 2.03125 2.26562v4.1875h-1.09375v-4.20312q0-.67188-.3125-1-.29687-.32812-.95313-.32812-.53124 0-.9375.28124-.39062.28126-.60937.73438v4.51562h-1.07813v-6.34374zm9.89063 6.34374q-.09376-.1875-.15626-.67187-.75.79687-1.79687.79687-.9375 0-1.54687-.53124-.59376-.53126-.59376-1.35938 0-.98438.75-1.53125.75-.54687 2.125-.54687h1.04688v-.5q0-.5625-.34375-.89063-.32813-.34375-1-.34375-.57813 0-.96875.29688-.39062.28124-.39062.70312h-1.09376q0-.48438.32813-.92188.34375-.4375.92187-.6875.57813-.26562 1.26563-.26562 1.10937 0 1.71875.54688.625.54687.65625 1.5v2.92187q0 .875.21875 1.39063v.09374zm-1.79688-.82812q.51562 0 .96875-.26562.45313-.26563.65625-.6875v-1.29688h-.84375q-2 0-2 1.17188 0 .5.34375.79687.34375.28125.875.28125zm2.46875-6.84375h-3.9375v-.84375h3.9375zm6.10937 5.98437q0-.4375-.34374-.67187-.32813-.25-1.15626-.42187-.8125-.17188-1.29687-.42188-.48437-.25-.71875-.57812-.21875-.34376-.21875-.8125 0-.78126.65625-1.3125.65625-.54688 1.6875-.54688 1.07812 0 1.73438.5625.67187.54688.67187 1.40625h-1.07813q0-.4375-.39062-.75-.375-.32813-.9375-.32813-.59375 0-.9375.26563-.32812.25-.32812.65625 0 .39062.3125.59375.3125.20313 1.125.39063.8125.17187 1.3125.42187.5.25.73437.60937.25.35938.25.85938 0 .85938-.6875 1.375-.67187.51562-1.75.51562-.76563 0-1.35937-.26562-.57813-.28125-.90626-.76562-.32812-.48438-.32812-1.04688h1.07812q.03126.54688.4375.875.40626.3125 1.07813.3125.60937 0 .98437-.25.375-.25.375-.67188z" fill="#1a1a1a"/></svg>