<svg fill="none" height="310" stroke-linecap="square" stroke-miterlimit="10" viewBox="0 0 580 310" width="580" xmlns="http://www.w3.org/2000/svg"><path d="m0 0h580v310h-580z" fill="none"/><path d="m290 15.5c17.58218 0 35.0059 3.32375 51.35336 9.79618l-12.83831 32.425954c-12.26062-4.854321-25.3284-7.347134-38.51505-7.347134z" fill="#ffc000"/><path d="m341.35336 25.29618c65.34799 25.873097 101.2428 96.3206 83.76398 164.39607l-33.77934-8.67307c13.1091-51.05659-13.81197-103.89222-62.82295-123.297046z" fill="#c00000"/><path d="m255.30775 19.882648c11.33449-2.9102 22.99013-4.382648 34.69225-4.382648v34.875c-8.7766 0-17.5183 1.104336-26.01917 3.286987z" fill="#70ad47"/><path d="m150.77527 163.75928c-4.20471-66.83199 39.67218-127.22333 104.53248-143.876632l8.67308 33.779339c-48.64524 12.489973-81.55291 57.783483-78.39938 107.907473z" fill="#a64d79"/><path d="m238.64662 284.70383c-50.24325-19.89273-84.47827-67.01319-87.87135-120.94455l34.80618-2.18982c2.54482 40.44851 28.22107 75.78888 65.90352 90.7084z" fill="#38761d"/><path d="m425.11734 189.69225c-9.95871 38.78666-36.10554 71.42323-71.78567 89.60315-35.68012 18.17994-77.45237 20.14988-114.68505 5.40843l12.83835-32.42597c27.92453 11.05609 59.25368 9.57864 86.01378-4.0563 26.7601-13.63495 46.37021-38.11238 53.83925-67.20238z" fill="#4472c4"/><path d="m23.265625 23.421875q0 1.265625-.453125 2.21875-.4375.9375-1.265625 1.46875-.828125.515625-1.890625.515625-1.0625 0-1.90625-.515625-.828125-.515625-1.28125-1.453125-.453125-.953125-.46875-2.1875v-.421875q0-1.25.453125-2.203125.453125-.96875 1.28125-1.484375.84375-.515625 1.90625-.515625 1.0625 0 1.890625.515625.828125.515625 1.28125 1.484375.453125.953125.453125 2.203125zm-1.78125-.375q0-1.34375-.484375-2.046875-.46875-.703125-1.359375-.703125-.890625 0-1.375.703125-.46875.6875-.484375 2.015625v.40625q0 1.3125.484375 2.03125.484375.71875 1.390625.71875.875 0 1.34375-.6875.484375-.703125.484375-2.03125zm4.6875-3.453125v1.5625h1.09375v1.25h-1.09375v3.15625q0 .359375.140625.515625.140625.140625.515625.140625.28125 0 .5-.03125v1.28125q-.5.15625-1.03125.15625-1.78125 0-1.8125-1.8125v-3.40625h-.921875v-1.25h.921875v-1.5625zm3.625 2.25q.6875-.796875 1.703125-.796875 2.0625 0 2.09375 2.390625v4.0625h-1.703125v-4.015625q0-.546875-.234375-.796875-.234375-.265625-.78125-.265625-.734375 0-1.078125.578125v4.5h-1.6875v-9h1.6875zm8.265625 5.78125q-1.390625 0-2.265625-.859375-.875-.859375-.875-2.28125v-.171875q0-.953125.359375-1.703125.375-.75 1.046875-1.15625.6875-.40625 1.546875-.40625 1.3125 0 2.046875.828125.75.8125.75 2.3125v.6875h-4.03125q.078125.625.484375 1 .421875.375 1.0625.375.96875 0 1.515625-.703125l.84375.921875q-.390625.546875-1.046875.859375-.640625.296875-1.4375.296875zm-.1875-5.21875q-.5 0-.8125.34375-.3125.34375-.40625.96875h2.359375v-.125q-.015625-.5625-.3125-.875-.28125-.3125-.828125-.3125zm6.84375.34375q-.34375-.046875-.609375-.046875-.96875 0-1.265625.640625v4.15625h-1.6875v-6.34375h1.59375l.046875.765625q.515625-.875 1.40625-.875.28125 0 .53125.078125zm6.859375 3q0-.3125-.3125-.484375-.296875-.1875-.96875-.328125-2.265625-.46875-2.265625-1.921875 0-.84375.6875-1.40625.703125-.5625 1.84375-.5625 1.203125 0 1.921875.5625.734375.5625.734375 1.484375h-1.703125q0-.375-.234375-.609375-.234375-.234375-.734375-.234375-.421875 0-.65625.203125-.234375.1875-.234375.484375 0 .28125.265625.453125.265625.171875.890625.296875.640625.125 1.078125.28125 1.34375.5 1.34375 1.703125 0 .875-.75 1.421875-.734375.53125-1.921875.53125-.796875 0-1.421875-.28125-.609375-.296875-.96875-.78125-.34375-.5-.34375-1.078125h1.609375q.015625.453125.328125.703125.3125.234375.828125.234375.5 0 .734375-.1875.25-.1875.25-.484375zm8.28125-1.359375q0 1.46875-.671875 2.359375-.65625.875-1.796875.875-.953125 0-1.546875-.671875v2.984375h-1.6875v-8.78125h1.5625l.0625.625q.609375-.734375 1.609375-.734375 1.171875 0 1.8125.875.65625.859375.65625 2.375zm-1.6875-.125q0-.890625-.328125-1.359375-.3125-.484375-.90625-.484375-.796875 0-1.09375.609375v2.59375q.3125.625 1.109375.625 1.21875 0 1.21875-1.984375zm5.890625 3.359375q-1.390625 0-2.265625-.859375-.875-.859375-.875-2.28125v-.171875q0-.953125.359375-1.703125.375-.75 1.046875-1.15625.6875-.40625 1.546875-.40625 1.3125 0 2.046875.828125.75.8125.75 2.3125v.6875h-4.03125q.078125.625.484375 1 .421875.375 1.0625.375.96875 0 1.515625-.703125l.84375.921875q-.390625.546875-1.046875.859375-.640625.296875-1.4375.296875zm-.1875-5.21875q-.5 0-.8125.34375-.3125.34375-.40625.96875h2.359375v-.125q-.015625-.5625-.3125-.875-.28125-.3125-.828125-.3125zm5.90625 3.84375q.46875 0 .765625-.25.296875-.265625.3125-.6875h1.578125q0 .640625-.34375 1.1875-.34375.53125-.953125.828125-.59375.296875-1.328125.296875-1.359375 0-2.140625-.859375-.78125-.875-.78125-2.40625v-.109375q0-1.46875.78125-2.328125.78125-.875 2.140625-.875 1.1875 0 1.90625.671875.71875.671875.71875 1.796875h-1.578125q-.015625-.484375-.3125-.796875-.296875-.3125-.765625-.3125-.59375 0-.90625.4375-.296875.4375-.296875 1.390625v.1875q0 .96875.296875 1.40625.296875.421875.90625.421875zm5.15625 1.25h-1.703125v-6.34375h1.703125zm-1.796875-7.984375q0-.375.25-.625.265625-.25.703125-.25.421875 0 .671875.25.265625.25.265625.625 0 .390625-.265625.640625-.25.234375-.6875.234375-.421875 0-.6875-.234375-.25-.25-.25-.640625zm5.921875 8.109375q-1.390625 0-2.265625-.859375-.875-.859375-.875-2.28125v-.171875q0-.953125.359375-1.703125.375-.75 1.046875-1.15625.6875-.40625 1.546875-.40625 1.3125 0 2.046875.828125.75.8125.75 2.3125v.6875h-4.03125q.078125.625.484375 1 .421875.375 1.0625.375.96875 0 1.515625-.703125l.84375.921875q-.390625.546875-1.046875.859375-.640625.296875-1.4375.296875zm-.1875-5.21875q-.5 0-.8125.34375-.3125.34375-.40625.96875h2.359375v-.125q-.015625-.5625-.3125-.875-.28125-.3125-.828125-.3125zm6.703125 3.34375q0-.3125-.3125-.484375-.296875-.1875-.96875-.328125-2.265625-.46875-2.265625-1.921875 0-.84375.6875-1.40625.703125-.5625 1.84375-.5625 1.203125 0 1.921875.5625.734375.5625.734375 1.484375h-1.703125q0-.375-.234375-.609375-.234375-.234375-.734375-.234375-.421875 0-.65625.203125-.234375.1875-.234375.484375 0 .28125.265625.453125.265625.171875.890625.296875.640625.125 1.078125.28125 1.34375.5 1.34375 1.703125 0 .875-.75 1.421875-.734375.53125-1.921875.53125-.796875 0-1.421875-.28125-.609375-.296875-.96875-.78125-.34375-.5-.34375-1.078125h1.609375q.015625.453125.328125.703125.3125.234375.828125.234375.5 0 .734375-.1875.25-.1875.25-.484375z" fill="#1a1a1a"/><path d="m21.09375 42.28125h.96875v1.375h-.96875v1.84375h-1.703125v-1.84375h-3.484375l-.078125-1.0625 3.546875-5.625h1.71875zm-3.578125 0h1.875v-3l-.109375.1875zm5.71875 2.390625q0-.40625.265625-.65625.28125-.25.6875-.25.421875 0 .6875.25.28125.25.28125.65625 0 .390625-.28125.640625-.265625.25-.6875.25-.40625 0-.6875-.25-.265625-.25-.265625-.640625zm8.59375-2.703125q0 1.765625-.734375 2.71875-.734375.9375-2.140625.9375-1.40625 0-2.140625-.921875-.734375-.921875-.75-2.640625v-1.578125q0-1.78125.734375-2.703125.75-.9375 2.140625-.9375 1.390625 0 2.125.921875.75.921875.765625 2.640625zm-1.703125-1.71875q0-1.0625-.296875-1.546875-.28125-.484375-.890625-.484375-.59375 0-.890625.46875-.28125.453125-.296875 1.4375v2.0625q0 1.046875.28125 1.5625.28125.5.921875.5.609375 0 .890625-.484375.28125-.484375.28125-1.484375zm2.9375-1.640625q0-.78125.5-1.265625.515625-.5 1.34375-.5.828125 0 1.34375.484375.515625.484375.515625 1.3125v.421875q0 .78125-.515625 1.265625-.515625.484375-1.328125.484375-.84375 0-1.359375-.484375-.5-.484375-.5-1.296875zm1.125.453125q0 .34375.203125.5625.203125.21875.53125.21875.328125 0 .515625-.21875.1875-.21875.1875-.578125v-.4375q0-.359375-.1875-.5625-.1875-.21875-.53125-.21875-.328125 0-.53125.21875-.1875.203125-.1875.578125zm2.953125 4.34375q0-.796875.515625-1.265625.515625-.484375 1.328125-.484375.828125 0 1.34375.484375.515625.46875.515625 1.296875v.421875q0 .796875-.5 1.28125-.5.484375-1.34375.484375-.84375 0-1.359375-.484375-.5-.5-.5-1.296875zm1.125.453125q0 .328125.203125.5625.21875.21875.53125.21875.71875 0 .71875-.78125v-.453125q0-.34375-.203125-.5625-.203125-.21875-.53125-.21875-.328125 0-.53125.21875-.1875.21875-.1875.578125zm-3.015625 1-.828125-.4375 4.171875-6.671875.828125.4375z" fill="#9e9e9e"/><path d="m15.5 32h129l128.89023-8.480001" stroke="#757575" stroke-linecap="butt"/><path d="m275.39023 23.519999c0-1.104569-.89545-2-2-2-1.10459 0-2 .895431-2 2 0 1.10457.89541 2 2 2 1.10455 0 2-.89543 2-2" fill="#9e9e9e"/><path d="m23.015625 71.525635q-.484375.5625-1.359375.890625-.859375.3125-1.90625.3125-1.109375 0-1.953125-.484375-.828125-.484375-1.28125-1.40625-.453125-.921875-.46875-2.171875v-.578125q0-1.28125.421875-2.203125.4375-.9375 1.25-1.4375.8125-.5 1.90625-.5 1.515625 0 2.375.734375.859375.71875 1.015625 2.109375h-1.71875q-.109375-.734375-.515625-1.078125-.40625-.34375-1.109375-.34375-.890625 0-1.359375.671875-.46875.671875-.46875 2.015625v.53125q0 1.34375.5 2.03125.515625.6875 1.5.6875.984375 0 1.40625-.421875v-1.46875h-1.59375v-1.296875h3.359375zm4.703125-3.671875q-.34375-.046875-.609375-.046875-.96875 0-1.265625.640625v4.15625h-1.6875v-6.34375h1.59375l.046875.765625q.515625-.875 1.40625-.875.28125 0 .53125.078125zm3.34375 4.875q-1.390625 0-2.265625-.859375-.875-.859375-.875-2.28125v-.171875q0-.953125.359375-1.703125.375-.75 1.046875-1.15625.6875-.40625 1.546875-.40625 1.3125 0 2.046875.828125.75.8125.75 2.3125v.6875h-4.03125q.078125.625.484375 1 .421875.375 1.0625.375.96875 0 1.515625-.703125l.84375.921875q-.390625.546875-1.046875.859375-.640625.296875-1.4375.296875zm-.1875-5.21875q-.5 0-.8125.34375-.3125.34375-.40625.96875h2.359375v-.125q-.015625-.5625-.3125-.875-.28125-.3125-.828125-.3125zm5.640625 2.703125 1.171875-3.953125h1.8125l-2.546875 7.328125-.140625.328125q-.5625 1.25-1.875 1.25-.359375 0-.75-.109375v-1.28125h.265625q.484375 0 .71875-.15625.234375-.140625.375-.46875l.1875-.53125-2.21875-6.359375h1.828125zm11.5625.625h-3.078125l-.59375 1.765625h-1.859375l3.171875-8.53125h1.625l3.203125 8.53125h-1.875zm-2.609375-1.421875h2.140625l-1.078125-3.1875zm7.46875 3.1875h-1.703125v-9h1.703125zm.953125-3.21875q0-1.484375.65625-2.359375.671875-.875 1.828125-.875.921875 0 1.53125.6875v-3.234375h1.6875v9h-1.515625l-.09375-.671875q-.625.796875-1.625.796875-1.125 0-1.796875-.875-.671875-.890625-.671875-2.46875zm1.6875.125q0 .890625.3125 1.375.3125.46875.90625.46875.78125 0 1.109375-.671875v-2.5q-.328125-.65625-1.09375-.65625-1.234375 0-1.234375 1.984375zm8.484375 3.21875q-1.390625 0-2.265625-.859375-.875-.859375-.875-2.28125v-.171875q0-.953125.359375-1.703125.375-.75 1.046875-1.15625.6875-.40625 1.546875-.40625 1.3125 0 2.046875.828125.75.8125.75 2.3125v.6875h-4.03125q.078125.625.484375 1 .421875.375 1.0625.375.96875 0 1.515625-.703125l.84375.921875q-.390625.546875-1.046875.859375-.640625.296875-1.4375.296875zm-.1875-5.21875q-.5 0-.8125.34375-.3125.34375-.40625.96875h2.359375v-.125q-.015625-.5625-.3125-.875-.28125-.3125-.828125-.3125zm6.84375.34375q-.34375-.046875-.609375-.046875-.96875 0-1.265625.640625v4.15625h-1.6875v-6.34375h1.59375l.046875.765625q.515625-.875 1.40625-.875.28125 0 .53125.078125z" fill="#1a1a1a"/><path d="m21.921875 90.60376h-5.84375v-1.15625l2.765625-2.953125q.5625-.609375.828125-1.078125.28125-.46875.28125-.875 0-.578125-.296875-.890625-.28125-.328125-.8125-.328125-.578125 0-.90625.390625-.328125.390625-.328125 1.046875h-1.703125q0-.78125.375-1.421875.375-.65625 1.046875-1.015625.6875-.375 1.546875-.375 1.3125 0 2.046875.640625.734375.625.734375 1.78125 0 .640625-.328125 1.296875-.328125.65625-1.125 1.53125l-1.9375 2.046875h3.65625zm7 0h-5.84375v-1.15625l2.765625-2.953125q.5625-.609375.828125-1.078125.28125-.46875.28125-.875 0-.578125-.296875-.890625-.28125-.328125-.8125-.328125-.578125 0-.90625.390625-.328125.390625-.328125 1.046875h-1.703125q0-.78125.375-1.421875.375-.65625 1.046875-1.015625.6875-.375 1.546875-.375 1.3125 0 2.046875.640625.734375.625.734375 1.78125 0 .640625-.328125 1.296875-.328125.65625-1.125 1.53125l-1.9375 2.046875h3.65625zm1.3125-.828125q0-.40625.265625-.65625.28125-.25.6875-.25.421875 0 .6875.25.28125.25.28125.65625 0 .390625-.28125.640625-.265625.25-.6875.25-.40625 0-.6875-.25-.265625-.25-.265625-.640625zm8.59375-2.703125q0 1.765625-.734375 2.71875-.734375.9375-2.140625.9375-1.40625 0-2.140625-.921875-.734375-.921875-.75-2.640625v-1.578125q0-1.78125.734375-2.703125.75-.9375 2.140625-.9375 1.390625 0 2.125.921875.75.921875.765625 2.640625zm-1.703125-1.71875q0-1.0625-.296875-1.546875-.28125-.484375-.890625-.484375-.59375 0-.890625.46875-.28125.453125-.296875 1.4375v2.0625q0 1.046875.28125 1.5625.28125.5.921875.5.609375 0 .890625-.484375.28125-.484375.28125-1.484375zm2.9375-1.640625q0-.78125.5-1.265625.515625-.5 1.34375-.5.828125 0 1.34375.484375.515625.484375.515625 1.3125v.421875q0 .78125-.515625 1.265625-.515625.484375-1.328125.484375-.84375 0-1.359375-.484375-.5-.484375-.5-1.296875zm1.125.453125q0 .34375.203125.5625.203125.21875.53125.21875.328125 0 .515625-.21875.1875-.21875.1875-.578125v-.4375q0-.359375-.1875-.5625-.1875-.21875-.53125-.21875-.328125 0-.53125.21875-.1875.203125-.1875.578125zm2.953125 4.34375q0-.796875.515625-1.265625.515625-.484375 1.328125-.484375.828125 0 1.34375.484375.515625.46875.515625 1.296875v.421875q0 .796875-.5 1.28125-.5.484375-1.34375.484375-.84375 0-1.359375-.484375-.5-.5-.5-1.296875zm1.125.453125q0 .328125.203125.5625.21875.21875.53125.21875.71875 0 .71875-.78125v-.453125q0-.34375-.203125-.5625-.203125-.21875-.53125-.21875-.328125 0-.53125.21875-.1875.21875-.1875.578125zm-3.015625 1-.828125-.4375 4.171875-6.671875.828125.4375z" fill="#9e9e9e"/><path d="m15.5 77.10376h129 38.28502" stroke="#757575" stroke-linecap="butt"/><path d="m184.78502 77.10376c0-1.10457-.89543-2-2-2s-2 .89543-2 2 .89543 2 2 2 2-.89543 2-2" fill="#9e9e9e"/><path d="m21.078125 226.63062h-3.078125l-.59375 1.76562h-1.859375l3.171875-8.53125h1.625l3.203125 8.53125h-1.875zm-2.609375-1.42188h2.140625l-1.078125-3.1875zm9.109375 1.4375q0-.3125-.3125-.48437-.296875-.1875-.96875-.32813-2.265625-.46875-2.265625-1.92187 0-.84375.6875-1.40625.703125-.5625 1.84375-.5625 1.203125 0 1.921875.5625.734375.5625.734375 1.48437h-1.703125q0-.375-.234375-.60937-.234375-.23438-.734375-.23438-.421875 0-.65625.20313-.234375.1875-.234375.48437 0 .28125.265625.45313.265625.17187.890625.29687.640625.125 1.078125.28125 1.34375.5 1.34375 1.70313 0 .875-.75 1.42187-.734375.53125-1.921875.53125-.796875 0-1.421875-.28125-.609375-.29687-.96875-.78125-.34375-.5-.34375-1.07812h1.609375q.015625.45312.328125.70312.3125.23438.828125.23438.5 0 .734375-.1875.25-.1875.25-.48438zm8.28125-1.35937q0 1.46875-.671875 2.35937-.65625.875-1.796875.875-.953125 0-1.546875-.67187v2.98437h-1.6875v-8.78125h1.5625l.0625.625q.609375-.73437 1.609375-.73437 1.171875 0 1.8125.875.65625.85937.65625 2.375zm-1.6875-.125q0-.89063-.328125-1.35938-.3125-.48437-.90625-.48437-.796875 0-1.09375.60937v2.59375q.3125.625 1.109375.625 1.21875 0 1.21875-1.98437zm5.890625 3.35937q-1.390625 0-2.265625-.85937-.875-.85938-.875-2.28125v-.17188q0-.95312.359375-1.70312.375-.75 1.046875-1.15625.6875-.40625 1.546875-.40625 1.3125 0 2.046875.82812.75.8125.75 2.3125v.6875h-4.03125q.078125.625.484375 1 .421875.375 1.0625.375.96875 0 1.515625-.70312l.84375.92187q-.390625.54688-1.046875.85938-.640625.29687-1.4375.29687zm-.1875-5.21875q-.5 0-.8125.34375-.3125.34375-.40625.96875h2.359375v-.125q-.015625-.5625-.3125-.875-.28125-.3125-.828125-.3125zm4.828125-1.25.0625.73438q.671875-.84375 1.8125-.84375 1.015625 0 1.5.59375.5.57812.515625 1.76562v4.09375h-1.703125v-4.0625q0-.53125-.234375-.76562-.234375-.25-.78125-.25-.703125 0-1.0625.60937v4.46875h-1.703125v-6.34375z" fill="#1a1a1a"/><path d="m20.1875 246.39624h-1.6875v-6.53125l-2.015625.625v-1.375l3.53125-1.26562h.171875zm8.453125-6.26562q0 .625-.3125 1.10937-.3125.46875-.859375.76563.625.29687.984375.82812.375.51563.375 1.21875 0 1.14063-.78125 1.8125-.765625.65625-2.109375.65625-1.328125 0-2.109375-.65625-.765625-.67187-.765625-1.8125 0-.70312.359375-1.23437.359375-.53125.984375-.8125-.546875-.29688-.859375-.76563-.3125-.48437-.3125-1.10937 0-1.09375.71875-1.73438.734375-.65625 1.984375-.65625 1.25 0 1.96875.65625.734375.64063.734375 1.73438zm-1.515625 3.79687q0-.54687-.328125-.875-.3125-.34375-.859375-.34375-.546875 0-.875.32813-.3125.32812-.3125.89062 0 .54688.3125.89063.328125.32812.890625.32812.546875 0 .859375-.3125.3125-.32812.3125-.90625zm-.171875-3.71875q0-.5-.265625-.79687-.265625-.29688-.75-.29688-.46875 0-.734375.29688-.265625.28125-.265625.79687 0 .51563.265625.82813.265625.3125.734375.3125.484375 0 .75-.3125.265625-.3125.265625-.82813zm3.28125 5.35938q0-.40625.265625-.65625.28125-.25.6875-.25.421875 0 .6875.25.28125.25.28125.65625 0 .39062-.28125.64062-.265625.25-.6875.25-.40625 0-.6875-.25-.265625-.25-.265625-.64062zm8.59375-2.70313q0 1.76563-.734375 2.71875-.734375.9375-2.140625.9375-1.40625 0-2.140625-.92187-.734375-.92188-.75-2.64063v-1.57812q0-1.78125.734375-2.70313.75-.9375 2.140625-.9375 1.390625 0 2.125.92188.75.92187.765625 2.64062zm-1.703125-1.71875q0-1.0625-.296875-1.54687-.28125-.48438-.890625-.48438-.59375 0-.890625.46875-.28125.45313-.296875 1.4375v2.0625q0 1.04688.28125 1.5625.28125.5.921875.5.609375 0 .890625-.48437.28125-.48438.28125-1.48438zm2.9375-1.64062q0-.78125.5-1.26563.515625-.5 1.34375-.5.828125 0 1.34375.48438.515625.48437.515625 1.3125v.42187q0 .78125-.515625 1.26563-.515625.48437-1.328125.48437-.84375 0-1.359375-.48437-.5-.48438-.5-1.29688zm1.125.45312q0 .34375.203125.5625.203125.21875.53125.21875.328125 0 .515625-.21875.1875-.21875.1875-.57812v-.4375q0-.35938-.1875-.5625-.1875-.21875-.53125-.21875-.328125 0-.53125.21875-.1875.20312-.1875.57812zm2.953125 4.34375q0-.79687.515625-1.26562.515625-.48438 1.328125-.48438.828125 0 1.34375.48438.515625.46875.515625 1.29687v.42188q0 .79687-.5 1.28125-.5.48437-1.34375.48437-.84375 0-1.359375-.48437-.5-.5-.5-1.29688zm1.125.45313q0 .32812.203125.5625.21875.21875.53125.21875.71875 0 .71875-.78125v-.45313q0-.34375-.203125-.5625-.203125-.21875-.53125-.21875-.328125 0-.53125.21875-.1875.21875-.1875.57813zm-3.015625 1-.828125-.4375 4.171875-6.67188.828125.4375z" fill="#9e9e9e"/><path d="m15.5 232.89624h129 38.28502" stroke="#757575" stroke-linecap="butt"/><path d="m184.78502 232.89624c0-1.10457-.89543-2-2-2s-2 .89543-2 2 .89543 2 2 2 2-.89543 2-2" fill="#9e9e9e"/><path d="m543.0156 24.5v3h-1.75v-8.53125h3.32815q.95315 0 1.6875.359375.73435.34375 1.125 1 .39065.640625.39065 1.46875 0 1.25-.8594 1.984375-.8594.71875-2.375.71875zm0-1.4375h1.57815q.6875 0 1.04685-.328125.375-.328125.375-.9375 0-.625-.375-1-.35935-.390625-1.0156-.40625h-1.6094zm7.9219 4.4375h-1.7031v-6.34375h1.7031zm-1.7969-7.984375q0-.375.25-.625.26565-.25.70315-.25.42185 0 .67185.25.26565.25.26565.625 0 .390625-.26565.640625-.25.234375-.6875.234375-.42185 0-.6875-.234375-.25-.25-.25-.640625zm4.5625 1.640625.0625.734375q.6719-.84375 1.8125-.84375 1.01565 0 1.5.59375.5.578125.51565 1.765625v4.09375h-1.70315v-4.0625q0-.53125-.23435-.765625-.23435-.25-.78125-.25-.7031 0-1.0625.609375v4.46875h-1.7031v-6.34375zm8.3594 6.46875q-1.3906 0-2.2656-.859375-.875-.859375-.875-2.28125v-.171875q0-.953125.35935-1.703125.375-.75 1.04685-1.15625.6875-.40625 1.5469-.40625 1.3125 0 2.0469.828125.75.8125.75 2.3125v.6875h-4.0313q.07815.625.4844 1 .4219.375 1.0625.375.96875 0 1.5156-.703125l.8438.921875q-.39065.546875-1.0469.859375-.6406.296875-1.4375.296875zm-.1875-5.21875q-.5 0-.8125.34375-.3125.34375-.40625.96875h2.35935v-.125q-.0156-.5625-.3125-.875-.2812-.3125-.8281-.3125z" fill="#1a1a1a"/><path d="m543.6719 36.875v1.40625h-.1563q-1.1562.015625-1.85935.59375-.6875.578125-.82815 1.609375.6719-.6875 1.70315-.6875 1.125 0 1.78125.796875.65625.796875.65625 2.09375 0 .828125-.35935 1.5-.3594.671875-1.0313 1.0625-.6562.375-1.48435.375-1.34375 0-2.17185-.9375-.82815-.953125-.82815-2.515625v-.609375q0-1.390625.51565-2.453125.5312-1.0625 1.5-1.640625.98435-.578125 2.2812-.59375zm-1.6563 4.28125q-.4062 0-.75.21875-.3281.203125-.48435.5625v.515625q0 .84375.32815 1.328125.3437.46875.9531.46875.5469 0 .875-.421875.34375-.4375.34375-1.125 0-.703125-.34375-1.125-.34375-.421875-.9219-.421875zm4.2188 3.515625q0-.40625.2656-.65625.28125-.25.6875-.25.4219 0 .6875.25.28125.25.28125.65625 0 .390625-.28125.640625-.2656.25-.6875.25-.40625 0-.6875-.25-.2656-.25-.2656-.640625zm8.5937-2.703125q0 1.765625-.73435 2.71875-.73435.9375-2.14065.9375-1.4062 0-2.1406-.921875-.7344-.921875-.75-2.640625v-1.578125q0-1.78125.7344-2.703125.75-.9375 2.1406-.9375 1.3906 0 2.125.921875.75.921875.7656 2.640625zm-1.7031-1.71875q0-1.0625-.2969-1.546875-.2812-.484375-.8906-.484375-.59375 0-.8906.46875-.2813.453125-.2969 1.4375v2.0625q0 1.046875.28125 1.5625.28125.5.92185.5.6094 0 .89065-.484375.28125-.484375.28125-1.484375zm2.9375-1.640625q0-.78125.5-1.265625.5156-.5 1.34375-.5.82815 0 1.34375.484375.5156.484375.5156 1.3125v.421875q0 .78125-.5156 1.265625-.5156.484375-1.3281.484375-.8438 0-1.3594-.484375-.5-.484375-.5-1.296875zm1.125.453125q0 .34375.2031.5625.20315.21875.5313.21875.3281 0 .5156-.21875.1875-.21875.1875-.578125v-.4375q0-.359375-.1875-.5625-.1875-.21875-.53125-.21875-.32815 0-.53125.21875-.1875.203125-.1875.578125zm2.9531 4.34375q0-.796875.51565-1.265625.51565-.484375 1.32815-.484375.8281 0 1.3437.484375.51565.46875.51565 1.296875v.421875q0 .796875-.5 1.28125-.5.484375-1.34375.484375-.84375 0-1.3594-.484375-.5-.5-.5-1.296875zm1.125.453125q0 .328125.20315.5625.21875.21875.53125.21875.71875 0 .71875-.78125v-.453125q0-.34375-.20315-.5625-.2031-.21875-.5312-.21875-.32815 0-.5313.21875-.1875.21875-.1875.578125zm-3.0156 1-.8281-.4375 4.17185-6.671875.82815.4375z" fill="#9e9e9e"/><path d="m564.5 32h-129l-120.6673-7.177618" stroke="#757575" stroke-linecap="butt"/><path d="m316.8327 24.822382c0-1.104569-.8954-2-2-2-1.10455 0-2 .895431-2 2 0 1.10457.89545 2 2 2 1.1046 0 2-.89543 2-2" fill="#9e9e9e"/><path d="m532.6875 88.10053q0-.5-.3594-.76562-.3437-.26563-1.2656-.5625-.90625-.29688-1.4375-.59375-1.4531-.78125-1.4531-2.10938 0-.6875.3906-1.23437.3906-.54688 1.1094-.84375.73435-.3125 1.6406-.3125.9219 0 1.625.34375.71875.32812 1.1094.9375.4062.59375.4062 1.35937h-1.7656q0-.57812-.375-.90625-.3594-.32812-1.03125-.32812-.64065 0-1 .28125-.35935.26562-.35935.70312 0 .42188.42185.70313.42185.28125 1.23435.53125 1.5.45312 2.1875 1.125.6875.65625.6875 1.65625 0 1.10937-.8437 1.75-.82815.625-2.25.625-.9844 0-1.7969-.35938-.8125-.375-1.2344-1-.42185-.625-.42185-1.45312h1.76565q0 1.42187 1.6875 1.42187.625 0 .9687-.25.3594-.26562.3594-.71875zm8.1719-.875q0 1.46875-.6719 2.35938-.65625.875-1.7969.875-.9531 0-1.54685-.67188v2.98438h-1.6875v-8.78125h1.5625l.0625.625q.60935-.73438 1.60935-.73438 1.1719 0 1.8125.875.6563.85938.6563 2.375zm-1.6875-.125q0-.89062-.32815-1.35937-.3125-.48438-.90625-.48438-.7969 0-1.09375.60938v2.59375q.3125.625 1.10935.625 1.2188 0 1.2188-1.98438zm6.54685-1.51562q-.34375-.04688-.60935-.04688-.9688 0-1.26565.64063v4.15625h-1.6875v-6.34375h1.59375l.0469.76562q.5156-.875 1.4062-.875.2813 0 .5313.07813zm4.23435 4.10937q-.625.76563-1.73435.76563-1.03125 0-1.5625-.59375-.53125-.59375-.54685-1.71875v-4.15625h1.6875v4.09375q0 1 .9062 1 .8594 0 1.1875-.60938v-4.48437h1.70315v6.34375h-1.59375zm5.82815-.60937q.46875 0 .76565-.25.29685-.26563.3125-.6875h1.5781q0 .64062-.34375 1.1875-.34375.53125-.95315.82812-.5937.29688-1.3281.29688-1.3594 0-2.1406-.85938-.7813-.875-.7813-2.40625v-.10937q0-1.46875.7813-2.32813.7812-.875 2.1406-.875 1.1875 0 1.90625.67188.71875.67187.71875 1.79687h-1.5781q-.01565-.48437-.3125-.79687-.2969-.3125-.76565-.3125-.59375 0-.90625.4375-.2969.4375-.2969 1.39062v.1875q0 .96875.2969 1.40625.2969.42188.90625.42188zm6.28125 1.375q-1.3906 0-2.2656-.85938-.875-.85937-.875-2.28125v-.17187q0-.95313.35935-1.70313.375-.75 1.04685-1.15625.6875-.40625 1.5469-.40625 1.3125 0 2.0469.82813.75.8125.75 2.3125v.6875h-4.0313q.07815.625.4844 1 .4219.375 1.0625.375.96875 0 1.5156-.70313l.8438.92188q-.39065.54687-1.0469.85937-.6406.29688-1.4375.29688zm-.1875-5.21875q-.5 0-.8125.34375-.3125.34375-.40625.96875h2.35935v-.125q-.0156-.5625-.3125-.875-.2812-.3125-.8281-.3125z" fill="#1a1a1a"/><path d="m537.9219 108.33491h-5.8438v-1.15625l2.76565-2.95313q.5625-.60937.82815-1.07812.2812-.46875.2812-.875 0-.57813-.29685-.89063-.28125-.32812-.8125-.32812-.57815 0-.90625.39062-.3281.39063-.3281 1.04688h-1.70315q0-.78125.375-1.42188.375-.65625 1.04685-1.01562.6875-.375 1.5469-.375 1.3125 0 2.0469.64062.73435.625.73435 1.78125 0 .64063-.32815 1.29688-.3281.65625-1.125 1.53125l-1.9375 2.04687h3.6563zm2.875-5.01563h.9062q.64065 0 .95315-.3125.3125-.32812.3125-.85937 0-.51563-.3125-.79688-.29685-.29687-.84375-.29687-.4844 0-.8125.26562-.3281.26563-.3281.6875h-1.6875q0-.65625.35935-1.1875.35935-.53125 1-.82812.65625-.3125 1.4375-.3125 1.34375 0 2.10935.65625.7813.64062.7813 1.78125 0 .59375-.3594 1.09375-.3594.48437-.9375.73437.71875.26563 1.0625.78125.3594.51563.3594 1.21875 0 1.14063-.82815 1.82813-.82815.6875-2.1875.6875-1.28125 0-2.09375-.67188-.8125-.6875-.8125-1.79687h1.6875q0 .48437.3594.79687.375.29688.8906.29688.6094 0 .9531-.3125.3438-.32813.3438-.85938 0-1.26562-1.4063-1.26562h-.9062zm5.4375 4.1875q0-.40625.2656-.65625.28125-.25.6875-.25.4219 0 .6875.25.28125.25.28125.65625 0 .39063-.28125.64063-.2656.25-.6875.25-.40625 0-.6875-.25-.2656-.25-.2656-.64063zm8.5937-2.70312q0 1.76562-.73435 2.71875-.73435.9375-2.14065.9375-1.4062 0-2.1406-.92188-.7344-.92187-.75-2.64062v-1.57813q0-1.78125.7344-2.70312.75-.9375 2.1406-.9375 1.3906 0 2.125.92187.75.92188.7656 2.64063zm-1.7031-1.71875q0-1.0625-.2969-1.54688-.2812-.48437-.8906-.48437-.59375 0-.8906.46875-.2813.45312-.2969 1.4375v2.0625q0 1.04687.28125 1.5625.28125.5.92185.5.6094 0 .89065-.48438.28125-.48437.28125-1.48437zm2.9375-1.64063q0-.78125.5-1.26562.5156-.5 1.34375-.5.82815 0 1.34375.48437.5156.48438.5156 1.3125v.42188q0 .78125-.5156 1.26562-.5156.48438-1.3281.48438-.8438 0-1.3594-.48438-.5-.48437-.5-1.29687zm1.125.45313q0 .34375.2031.5625.20315.21875.5313.21875.3281 0 .5156-.21875.1875-.21875.1875-.57813v-.4375q0-.35937-.1875-.5625-.1875-.21875-.53125-.21875-.32815 0-.53125.21875-.1875.20313-.1875.57813zm2.9531 4.34375q0-.79688.51565-1.26563.51565-.48437 1.32815-.48437.8281 0 1.3437.48437.51565.46875.51565 1.29688v.42187q0 .79688-.5 1.28125-.5.48438-1.34375.48438-.84375 0-1.3594-.48438-.5-.5-.5-1.29687zm1.125.45312q0 .32813.20315.5625.21875.21875.53125.21875.71875 0 .71875-.78125v-.45312q0-.34375-.20315-.5625-.2031-.21875-.5312-.21875-.32815 0-.5313.21875-.1875.21875-.1875.57812zm-3.0156 1-.8281-.4375 4.17185-6.67187.82815.4375z" fill="#9e9e9e"/><path d="m564.5 94.83491h-129-27.41937" stroke="#757575" stroke-linecap="butt"/><path d="m410.08063 94.83491c0-1.10457-.89543-2-2-2-1.10456 0-2 .89543-2 2 0 1.104566.89544 2 2 2 1.10457 0 2-.895434 2-2" fill="#9e9e9e"/><path d="m537.2656 268.58063v-8.53125h2.9844q1.5469 0 2.34375.59375.8125.59375.8125 1.75 0 .625-.32815 1.10937-.3125.46875-.8906.6875.65625.17188 1.03125.67188.39065.48437.39065 1.20312 0 1.23438-.7969 1.875-.78125.625-2.2344.64063zm1.75-3.71875v2.3125h1.51565q.60935 0 .95315-.29688.35935-.29687.35935-.82812 0-1.17188-1.21875-1.1875zm0-1.23438h1.3125q1.32815-.03125 1.32815-1.0625 0-.57812-.34375-.82812-.3281-.26563-1.0625-.26563h-1.2344zm7.9219 4.95313h-1.7031v-6.34375h1.7031zm-1.7969-7.98438q0-.375.25-.625.26565-.25.70315-.25.42185 0 .67185.25.26565.25.26565.625 0 .39063-.26565.64063-.25.23437-.6875.23437-.42185 0-.6875-.23437-.25-.25-.25-.64063zm6.57815 3.23438q-.34375-.04688-.60935-.04688-.9688 0-1.26565.64063v4.15625h-1.6875v-6.34375h1.59375l.0469.76562q.5156-.875 1.4062-.875.2813 0 .5313.07813zm3.0625 3.5q.46875 0 .76565-.25.29685-.26563.3125-.6875h1.5781q0 .64062-.34375 1.1875-.34375.53125-.95315.82812-.5937.29688-1.3281.29688-1.3594 0-2.1406-.85938-.7813-.875-.7813-2.40625v-.10937q0-1.46875.7813-2.32813.7812-.875 2.1406-.875 1.1875 0 1.90625.67188.71875.67187.71875 1.79687h-1.5781q-.01565-.48437-.3125-.79687-.2969-.3125-.76565-.3125-.59375 0-.90625.4375-.2969.4375-.2969 1.39062v.1875q0 .96875.2969 1.40625.2969.42188.90625.42188zm5.01565-4.40625q.6875-.79688 1.7031-.79688 2.0625 0 2.09375 2.39063v4.0625h-1.70315v-4.01563q0-.54687-.23435-.79687-.23435-.26563-.78125-.26563-.7344 0-1.0781.57813v4.5h-1.6875v-9h1.6875z" fill="#1a1a1a"/><path d="m537.9219 286.58063h-5.8438v-1.15625l2.76565-2.95313q.5625-.60937.82815-1.07812.2812-.46875.2812-.875 0-.57813-.29685-.89063-.28125-.32812-.8125-.32812-.57815 0-.90625.39062-.3281.39063-.3281 1.04688h-1.70315q0-.78125.375-1.42188.375-.65625 1.04685-1.01562.6875-.375 1.5469-.375 1.3125 0 2.0469.64062.73435.625.73435 1.78125 0 .64063-.32815 1.29688-.3281.65625-1.125 1.53125l-1.9375 2.04687h3.6563zm6.9531-7.57813-3.2969 7.57813h-1.7812l3.29685-7.15625h-4.23435v-1.375h6.0156zm1.3594 6.75q0-.40625.2656-.65625.28125-.25.6875-.25.4219 0 .6875.25.28125.25.28125.65625 0 .39063-.28125.64063-.2656.25-.6875.25-.40625 0-.6875-.25-.2656-.25-.2656-.64063zm8.5937-2.70312q0 1.76562-.73435 2.71875-.73435.9375-2.14065.9375-1.4062 0-2.1406-.92188-.7344-.92187-.75-2.64062v-1.57813q0-1.78125.7344-2.70312.75-.9375 2.1406-.9375 1.3906 0 2.125.92187.75.92188.7656 2.64063zm-1.7031-1.71875q0-1.0625-.2969-1.54688-.2812-.48437-.8906-.48437-.59375 0-.8906.46875-.2813.45312-.2969 1.4375v2.0625q0 1.04687.28125 1.5625.28125.5.92185.5.6094 0 .89065-.48438.28125-.48437.28125-1.48437zm2.9375-1.64063q0-.78125.5-1.26562.5156-.5 1.34375-.5.82815 0 1.34375.48437.5156.48438.5156 1.3125v.42188q0 .78125-.5156 1.26562-.5156.48438-1.3281.48438-.8438 0-1.3594-.48438-.5-.48437-.5-1.29687zm1.125.45313q0 .34375.2031.5625.20315.21875.5313.21875.3281 0 .5156-.21875.1875-.21875.1875-.57813v-.4375q0-.35937-.1875-.5625-.1875-.21875-.53125-.21875-.32815 0-.53125.21875-.1875.20313-.1875.57813zm2.9531 4.34375q0-.79688.51565-1.26563.51565-.48437 1.32815-.48437.8281 0 1.3437.48437.51565.46875.51565 1.29688v.42187q0 .79688-.5 1.28125-.5.48438-1.34375.48438-.84375 0-1.3594-.48438-.5-.5-.5-1.29687zm1.125.45312q0 .32813.20315.5625.21875.21875.53125.21875.71875 0 .71875-.78125v-.45312q0-.34375-.20315-.5625-.2031-.21875-.5312-.21875-.32815 0-.5313.21875-.1875.21875-.1875.57812zm-3.0156 1-.8281-.4375 4.17185-6.67187.82815.4375z" fill="#9e9e9e"/><path d="m564.5 273.08063h-129-85.3349" stroke="#757575" stroke-linecap="butt"/><path d="m352.1651 273.08063c0-1.10456-.89545-2-2-2-1.10458 0-2 .89544-2 2 0 1.10457.89542 2 2 2 1.10455 0 2-.89543 2-2" fill="#9e9e9e"/></svg>