<svg fill="none" height="310" stroke-linecap="square" stroke-miterlimit="10" viewBox="0 0 580 310" width="580" xmlns="http://www.w3.org/2000/svg"><path d="m0 0h580v310h-580z" fill="none"/><path d="m279.73438 15.87823c3.41607-.252067 6.84027-.37823 10.26562-.37823v34.875c-2.56903 0-5.13718.09462-7.69922.283672z" fill="#674ea7"/><path d="m278.97092 15.93667c.25445-.0201785.50891-.039658.76346-.05844l2.5664 34.780442c-.19088.014088-.38178.028698-.57258.043831z" fill="#c00000"/><path d="m270.25766 16.904055c2.89359-.413668 5.79944-.736288 8.71326-.967385l2.75728 34.765833c-2.18538.173321-4.36477.415287-6.53496.72554z" fill="#a64d79"/><path d="m243.46217 23.491518c8.69219-3.07596 17.6679-5.282574 26.79549-6.587463l4.93558 34.523988c-6.84568.978665-13.57749 2.633627-20.09661 4.940594z" fill="#783f04"/><path d="m203.37466 45.65513c12.04999-9.54626 25.59507-17.035066 40.08751-22.163612l11.63446 32.877119c-10.86933 3.846413-21.02815 9.463013-30.06564 16.622713z" fill="#4472c4"/><path d="m172.02368 229.44353c-38.03456-60.27625-24.51532-139.52993 31.35098-183.7884l21.65633 27.33622c-41.89972 33.193846-52.03915 92.63411-23.51323 137.84131z" fill="#9fc5e8"/><path d="m290 15.5c67.00934 0 124.55185 47.645046 137.0515 113.47823 12.49968 65.83319-23.57536 131.25325-85.92143 155.81377-62.34604 24.5605-133.34717 1.3219-169.10639-55.34847l29.49408-18.61087c26.81941 42.50274 80.07024 59.93174 126.8298 41.51135 46.75954-18.4204 73.8158-67.48544 64.44108-116.86034-9.37474-49.37489-52.53164-85.10867-102.78864-85.10867z" fill="#ed7d31"/><path d="m21.078125 25.734375h-3.078125l-.59375 1.765625h-1.859375l3.171875-8.53125h1.625l3.203125 8.53125h-1.875zm-2.609375-1.421875h2.140625l-1.078125-3.1875zm7.234375-3.15625.0625.734375q.671875-.84375 1.8125-.84375 1.015625 0 1.5.59375.5.578125.515625 1.765625v4.09375h-1.703125v-4.0625q0-.53125-.234375-.765625-.234375-.25-.78125-.25-.703125 0-1.0625.609375v4.46875h-1.703125v-6.34375zm7.234375 6.34375h-1.703125v-6.34375h1.703125zm-1.796875-7.984375q0-.375.25-.625.265625-.25.703125-.25.421875 0 .671875.25.265625.25.265625.625 0 .390625-.265625.640625-.25.234375-.6875.234375-.421875 0-.6875-.234375-.25-.25-.25-.640625zm4.59375 1.640625.0625.71875q.671875-.828125 1.8125-.828125 1.234375 0 1.6875.96875.671875-.96875 1.90625-.96875 1.03125 0 1.53125.609375.5.59375.5 1.796875v4.046875h-1.6875v-4.046875q0-.53125-.21875-.78125-.203125-.25-.75-.25-.75 0-1.046875.71875v4.359375h-1.6875v-4.03125q0-.5625-.21875-.796875-.21875-.25-.734375-.25-.71875 0-1.046875.59375v4.484375h-1.6875v-6.34375zm12.09375 6.34375q-.125-.234375-.171875-.5625-.609375.6875-1.59375.6875-.9375 0-1.546875-.546875-.609375-.546875-.609375-1.359375 0-1.015625.734375-1.546875.75-.546875 2.171875-.546875h.765625v-.359375q0-.4375-.21875-.703125-.21875-.265625-.71875-.265625-.421875 0-.671875.203125-.234375.203125-.234375.5625h-1.6875q0-.546875.328125-1.015625.34375-.46875.96875-.734375.625-.265625 1.390625-.265625 1.171875 0 1.859375.59375.6875.578125.6875 1.640625v2.75q.015625.90625.25 1.375v.09375zm-1.40625-1.171875q.375 0 .6875-.171875.328125-.171875.46875-.453125v-1.09375h-.625q-1.265625 0-1.359375.890625v.09375q0 .3125.21875.53125.21875.203125.609375.203125zm5.515625 1.171875h-1.703125v-9h1.703125zm3.953125-3.21875q0-1.484375.65625-2.359375.671875-.875 1.828125-.875.921875 0 1.53125.6875v-3.234375h1.6875v9h-1.515625l-.09375-.671875q-.625.796875-1.625.796875-1.125 0-1.796875-.875-.671875-.890625-.671875-2.46875zm1.6875.125q0 .890625.3125 1.375.3125.46875.90625.46875.78125 0 1.109375-.671875v-2.5q-.328125-.65625-1.09375-.65625-1.234375 0-1.234375 1.984375zm9.25 3.09375q-.125-.234375-.171875-.5625-.609375.6875-1.59375.6875-.9375 0-1.546875-.546875-.609375-.546875-.609375-1.359375 0-1.015625.734375-1.546875.75-.546875 2.171875-.546875h.765625v-.359375q0-.4375-.21875-.703125-.21875-.265625-.71875-.265625-.421875 0-.671875.203125-.234375.203125-.234375.5625h-1.6875q0-.546875.328125-1.015625.34375-.46875.96875-.734375.625-.265625 1.390625-.265625 1.171875 0 1.859375.59375.6875.578125.6875 1.640625v2.75q.015625.90625.25 1.375v.09375zm-1.40625-1.171875q.375 0 .6875-.171875.328125-.171875.46875-.453125v-1.09375h-.625q-1.265625 0-1.359375.890625v.09375q0 .3125.21875.53125.21875.203125.609375.203125zm5.3125-5.171875.0625.71875q.671875-.828125 1.8125-.828125 1.234375 0 1.6875.96875.671875-.96875 1.90625-.96875 1.03125 0 1.53125.609375.5.59375.5 1.796875v4.046875h-1.6875v-4.046875q0-.53125-.21875-.78125-.203125-.25-.75-.25-.75 0-1.046875.71875v4.359375h-1.6875v-4.03125q0-.5625-.21875-.796875-.21875-.25-.734375-.25-.71875 0-1.046875.59375v4.484375h-1.6875v-6.34375zm12.09375 6.34375q-.125-.234375-.171875-.5625-.609375.6875-1.59375.6875-.9375 0-1.546875-.546875-.609375-.546875-.609375-1.359375 0-1.015625.734375-1.546875.75-.546875 2.171875-.546875h.765625v-.359375q0-.4375-.21875-.703125-.21875-.265625-.71875-.265625-.421875 0-.671875.203125-.234375.203125-.234375.5625h-1.6875q0-.546875.328125-1.015625.34375-.46875.96875-.734375.625-.265625 1.390625-.265625 1.171875 0 1.859375.59375.6875.578125.6875 1.640625v2.75q.015625.90625.25 1.375v.09375zm-1.40625-1.171875q.375 0 .6875-.171875.328125-.171875.46875-.453125v-1.09375h-.625q-1.265625 0-1.359375.890625v.09375q0 .3125.21875.53125.21875.203125.609375.203125zm3.484375-2.046875q0-1.453125.6875-2.34375.703125-.890625 1.875-.890625 1.046875 0 1.625.703125l.078125-.59375h1.53125v6.125q0 .84375-.390625 1.453125-.375.625-1.0625.9375-.671875.328125-1.59375.328125-.703125 0-1.375-.28125-.65625-.28125-.984375-.71875l.75-1.03125q.625.703125 1.53125.703125.671875 0 1.046875-.359375.375-.359375.375-1.015625v-.34375q-.578125.671875-1.546875.671875-1.140625 0-1.84375-.890625-.703125-.90625-.703125-2.375zm1.6875.125q0 .859375.34375 1.359375.359375.484375.953125.484375.78125 0 1.109375-.578125v-2.671875q-.34375-.578125-1.09375-.578125-.609375 0-.96875.5-.34375.5-.34375 1.484375zm8.46875 3.21875q-1.390625 0-2.265625-.859375-.875-.859375-.875-2.28125v-.171875q0-.953125.359375-1.703125.375-.75 1.046875-1.15625.6875-.40625 1.546875-.40625 1.3125 0 2.046875.828125.75.8125.75 2.3125v.6875h-4.03125q.078125.625.484375 1 .421875.375 1.0625.375.96875 0 1.515625-.703125l.84375.921875q-.390625.546875-1.046875.859375-.640625.296875-1.4375.296875zm-.1875-5.21875q-.5 0-.8125.34375-.3125.34375-.40625.96875h2.359375v-.125q-.015625-.5625-.3125-.875-.28125-.3125-.828125-.3125z" fill="#1a1a1a"/><path d="m17.796875 40.484375h.90625q.640625 0 .953125-.3125.3125-.328125.3125-.859375 0-.515625-.3125-.796875-.296875-.296875-.84375-.296875-.484375 0-.8125.265625-.328125.265625-.328125.6875h-1.6875q0-.65625.359375-1.1875.359375-.53125 1-.828125.65625-.3125 1.4375-.3125 1.34375 0 2.109375.65625.78125.640625.78125 1.78125 0 .59375-.359375 1.09375-.359375.484375-.9375.734375.71875.265625 1.0625.78125.359375.515625.359375 1.21875 0 1.140625-.828125 1.828125-.828125.6875-2.1875.6875-1.28125 0-2.09375-.671875-.8125-.6875-.8125-1.796875h1.6875q0 .484375.359375.796875.375.296875.890625.296875.609375 0 .953125-.3125.34375-.328125.34375-.859375 0-1.265625-1.40625-1.265625h-.90625zm5.4375 4.1875q0-.40625.265625-.65625.28125-.25.6875-.25.421875 0 .6875.25.28125.25.28125.65625 0 .390625-.28125.640625-.265625.25-.6875.25-.40625 0-.6875-.25-.265625-.25-.265625-.640625zm8.6875.828125h-5.84375v-1.15625l2.765625-2.953125q.5625-.609375.828125-1.078125.28125-.46875.28125-.875 0-.578125-.296875-.890625-.28125-.328125-.8125-.328125-.578125 0-.90625.390625-.328125.390625-.328125 1.046875h-1.703125q0-.78125.375-1.421875.375-.65625 1.046875-1.015625.6875-.375 1.546875-.375 1.3125 0 2.046875.640625.734375.625.734375 1.78125 0 .640625-.328125 1.296875-.328125.65625-1.125 1.53125l-1.9375 2.046875h3.65625zm1.140625-6.890625q0-.78125.5-1.265625.515625-.5 1.34375-.5.828125 0 1.34375.484375.515625.484375.515625 1.3125v.421875q0 .78125-.515625 1.265625-.515625.484375-1.328125.484375-.84375 0-1.359375-.484375-.5-.484375-.5-1.296875zm1.125.453125q0 .34375.203125.5625.203125.21875.53125.21875.328125 0 .515625-.21875.1875-.21875.1875-.578125v-.4375q0-.359375-.1875-.5625-.1875-.21875-.53125-.21875-.328125 0-.53125.21875-.1875.203125-.1875.578125zm2.953125 4.34375q0-.796875.515625-1.265625.515625-.484375 1.328125-.484375.828125 0 1.34375.484375.515625.46875.515625 1.296875v.421875q0 .796875-.5 1.28125-.5.484375-1.34375.484375-.84375 0-1.359375-.484375-.5-.5-.5-1.296875zm1.125.453125q0 .328125.203125.5625.21875.21875.53125.21875.71875 0 .71875-.78125v-.453125q0-.34375-.203125-.5625-.203125-.21875-.53125-.21875-.328125 0-.53125.21875-.1875.21875-.1875.578125zm-3.015625 1-.828125-.4375 4.171875-6.671875.828125.4375z" fill="#9e9e9e"/><path d="m15.5 32h129l113.86182-5.693047" stroke="#757575" stroke-linecap="butt"/><path d="m260.36182 26.306953c0-1.10457-.89545-2-2-2-1.10459 0-2 .89543-2 2 0 1.104569.89541 2 2 2 1.10455 0 2-.895431 2-2" fill="#9e9e9e"/><path d="m22.90625 58.03125 1.15625-6.0625h1.75l-1.890625 8.53125h-1.78125l-1.390625-5.703125-1.375 5.703125h-1.78125l-1.890625-8.53125h1.75l1.15625 6.0625 1.40625-6.0625h1.484375zm7.921875 2.46875q-.125-.234375-.171875-.5625-.609375.6875-1.59375.6875-.9375 0-1.546875-.546875-.609375-.546875-.609375-1.359375 0-1.015625.734375-1.546875.75-.546875 2.171875-.546875h.765625v-.359375q0-.4375-.21875-.703125-.21875-.265625-.71875-.265625-.421875 0-.671875.203125-.234375.203125-.234375.5625h-1.6875q0-.546875.328125-1.015625.34375-.46875.96875-.734375.625-.265625 1.390625-.265625 1.171875 0 1.859375.59375.6875.578125.6875 1.640625v2.75q.015625.90625.25 1.375v.09375zm-1.40625-1.171875q.375 0 .6875-.171875.328125-.171875.46875-.453125v-1.09375h-.625q-1.265625 0-1.359375.890625v.09375q0 .3125.21875.53125.21875.203125.609375.203125zm5.75-6.734375v1.5625h1.09375v1.25h-1.09375v3.15625q0 .359375.140625.515625.140625.140625.515625.140625.28125 0 .5-.03125v1.28125q-.5.15625-1.03125.15625-1.78125 0-1.8125-1.8125v-3.40625h-.921875v-1.25h.921875v-1.5625zm4.890625 8.03125q-1.390625 0-2.265625-.859375-.875-.859375-.875-2.28125v-.171875q0-.953125.359375-1.703125.375-.75 1.046875-1.15625.6875-.40625 1.546875-.40625 1.3125 0 2.046875.828125.75.8125.75 2.3125v.6875h-4.03125q.078125.625.484375 1 .421875.375 1.0625.375.96875 0 1.515625-.703125l.84375.921875q-.390625.546875-1.046875.859375-.640625.296875-1.4375.296875zm-.1875-5.21875q-.5 0-.8125.34375-.3125.34375-.40625.96875h2.359375v-.125q-.015625-.5625-.3125-.875-.28125-.3125-.828125-.3125zm6.84375.34375q-.34375-.046875-.609375-.046875-.96875 0-1.265625.640625v4.15625h-1.6875v-6.34375h1.59375l.046875.765625q.515625-.875 1.40625-.875.28125 0 .53125.078125z" fill="#1a1a1a"/><path d="m16.328125 74.296875.5-4.328125h4.78125v1.40625h-3.390625l-.21875 1.84375q.609375-.328125 1.28125-.328125 1.21875 0 1.90625.765625.703125.75.703125 2.109375 0 .828125-.359375 1.484375-.34375.640625-1 1.015625-.640625.359375-1.53125.359375-.765625 0-1.4375-.3125-.65625-.328125-1.046875-.890625-.375-.5625-.40625-1.296875h1.6875q.046875.53125.359375.828125.328125.296875.84375.296875.578125 0 .875-.40625.3125-.421875.3125-1.171875 0-.734375-.359375-1.109375-.34375-.390625-1-.390625-.609375 0-.984375.3125l-.15625.15625zm6.90625 3.375q0-.40625.265625-.65625.28125-.25.6875-.25.421875 0 .6875.25.28125.25.28125.65625 0 .390625-.28125.640625-.265625.25-.6875.25-.40625 0-.6875-.25-.265625-.25-.265625-.640625zm8.6875.828125h-5.84375v-1.15625l2.765625-2.953125q.5625-.609375.828125-1.078125.28125-.46875.28125-.875 0-.578125-.296875-.890625-.28125-.328125-.8125-.328125-.578125 0-.90625.390625-.328125.390625-.328125 1.046875h-1.703125q0-.78125.375-1.421875.375-.65625 1.046875-1.015625.6875-.375 1.546875-.375 1.3125 0 2.046875.640625.734375.625.734375 1.78125 0 .640625-.328125 1.296875-.328125.65625-1.125 1.53125l-1.9375 2.046875h3.65625zm1.140625-6.890625q0-.78125.5-1.265625.515625-.5 1.34375-.5.828125 0 1.34375.484375.515625.484375.515625 1.3125v.421875q0 .78125-.515625 1.265625-.515625.484375-1.328125.484375-.84375 0-1.359375-.484375-.5-.484375-.5-1.296875zm1.125.453125q0 .34375.203125.5625.203125.21875.53125.21875.328125 0 .515625-.21875.1875-.21875.1875-.578125v-.4375q0-.359375-.1875-.5625-.1875-.21875-.53125-.21875-.328125 0-.53125.21875-.1875.203125-.1875.578125zm2.953125 4.34375q0-.796875.515625-1.265625.515625-.484375 1.328125-.484375.828125 0 1.34375.484375.515625.46875.515625 1.296875v.421875q0 .796875-.5 1.28125-.5.484375-1.34375.484375-.84375 0-1.359375-.484375-.5-.5-.5-1.296875zm1.125.453125q0 .328125.203125.5625.21875.21875.53125.21875.71875 0 .71875-.78125v-.453125q0-.34375-.203125-.5625-.203125-.21875-.53125-.21875-.328125 0-.53125.21875-.1875.21875-.1875.578125zm-3.015625 1-.828125-.4375 4.171875-6.671875.828125.4375z" fill="#9e9e9e"/><path d="m15.5 65h129l81.37737-25.979153" stroke="#757575" stroke-linecap="butt"/><path d="m227.87737 39.020847c0-1.104567-.89544-2-2-2-1.10457 0-2 .895433-2 2 0 1.104569.89543 2 2 2 1.10456 0 2-.895431 2-2" fill="#9e9e9e"/><path d="m22.90625 125.74678 1.15625-6.0625h1.75l-1.890625 8.53125h-1.78125l-1.390625-5.703125-1.375 5.703125h-1.78125l-1.890625-8.53125h1.75l1.15625 6.0625 1.40625-6.0625h1.484375zm6.03125 2.46875h-1.703125v-6.34375h1.703125zm-1.796875-7.984375q0-.375.25-.625.265625-.25.703125-.25.421875 0 .671875.25.265625.25.265625.625 0 .390625-.265625.640625-.25.234375-.6875.234375-.421875 0-.6875-.234375-.25-.25-.25-.640625zm4.5625 1.640625.0625.734375q.671875-.84375 1.8125-.84375 1.015625 0 1.5.59375.5.578125.515625 1.765625v4.09375h-1.703125v-4.0625q0-.53125-.234375-.765625-.234375-.25-.78125-.25-.703125 0-1.0625.609375v4.46875h-1.703125v-6.34375zm5.1875 3.125q0-1.484375.65625-2.359375.671875-.875 1.828125-.875.921875 0 1.53125.6875v-3.234375h1.6875v9h-1.515625l-.09375-.671875q-.625.796875-1.625.796875-1.125 0-1.796875-.875-.671875-.890625-.671875-2.46875zm1.6875.125q0 .890625.3125 1.375.3125.46875.90625.46875.78125 0 1.109375-.671875v-2.5q-.328125-.65625-1.09375-.65625-1.234375 0-1.234375 1.984375zm8.859375.125h-3.296875v-1.375h3.296875zm3.734375-4.9375v1.5625h1.09375v1.25h-1.09375v3.15625q0 .359375.140625.515625.140625.140625.515625.140625.28125 0 .5-.03125v1.28125q-.5.15625-1.03125.15625-1.78125 0-1.8125-1.8125v-3.40625h-.921875v-1.25h.921875v-1.5625zm3.625 2.25q.6875-.796875 1.703125-.796875 2.0625 0 2.09375 2.390625v4.0625h-1.703125v-4.015625q0-.546875-.234375-.796875-.234375-.265625-.78125-.265625-.734375 0-1.078125.578125v4.5h-1.6875v-9h1.6875zm8.921875.90625q-.34375-.046875-.609375-.046875-.96875 0-1.265625.640625v4.15625h-1.6875v-6.34375h1.59375l.046875.765625q.515625-.875 1.40625-.875.28125 0 .53125.078125zm.171875 1.515625q0-.9375.359375-1.671875.359375-.75 1.046875-1.140625.6875-.40625 1.578125-.40625 1.296875 0 2.09375.78125.8125.78125.90625 2.125l.015625.4375q0 1.46875-.8125 2.359375-.8125.875-2.1875.875-1.375 0-2.1875-.875-.8125-.890625-.8125-2.40625zm1.6875.125q0 .90625.34375 1.390625.34375.46875.96875.46875.625 0 .96875-.46875.34375-.46875.34375-1.515625 0-.875-.34375-1.359375-.34375-.5-.984375-.5-.609375 0-.953125.484375-.34375.484375-.34375 1.5zm11.09375.8125.828125-4.046875h1.625l-1.609375 6.34375h-1.421875l-1.203125-3.984375-1.203125 3.984375h-1.40625l-1.609375-6.34375h1.625l.828125 4.03125 1.15625-4.03125h1.234375zm5.03125-4.046875.0625.734375q.671875-.84375 1.8125-.84375 1.015625 0 1.5.59375.5.578125.515625 1.765625v4.09375h-1.703125v-4.0625q0-.53125-.234375-.765625-.234375-.25-.78125-.25-.703125 0-1.0625.609375v4.46875h-1.703125v-6.34375zm5.890625 8.48438-.890625-.46876.21875-.375q.390625-.71874.40625-1.42187v-1.3125h1.421875v1.171875q-.015625.640625-.34375 1.296875-.3125.67188-.8125 1.10938zm8.984375-3.89063q0-.3125-.3125-.484375-.296875-.1875-.96875-.328125-2.265625-.46875-2.265625-1.921875 0-.84375.6875-1.40625.703125-.5625 1.84375-.5625 1.203125 0 1.921875.5625.734375.5625.734375 1.484375h-1.703125q0-.375-.234375-.609375-.234375-.234375-.734375-.234375-.421875 0-.65625.203125-.234375.1875-.234375.484375 0 .28125.265625.453125.265625.171875.890625.296875.640625.125 1.078125.28125 1.34375.5 1.34375 1.703125 0 .875-.75 1.421875-.734375.53125-1.921875.53125-.796875 0-1.421875-.28125-.609375-.296875-.96875-.78125-.34375-.5-.34375-1.078125h1.609375q.015625.453125.328125.703125.3125.234375.828125.234375.5 0 .734375-.1875.25-.1875.25-.484375zm4.125-4.59375.0625.734375q.671875-.84375 1.8125-.84375 1.015625 0 1.5.59375.5.578125.515625 1.765625v4.09375h-1.703125v-4.0625q0-.53125-.234375-.765625-.234375-.25-.78125-.25-.703125 0-1.0625.609375v4.46875h-1.703125v-6.34375zm5.1875 3.109375q0-.9375.359375-1.671875.359375-.75 1.046875-1.140625.6875-.40625 1.578125-.40625 1.296875 0 2.09375.78125.8125.78125.90625 2.125l.015625.4375q0 1.46875-.8125 2.359375-.8125.875-2.1875.875-1.375 0-2.1875-.875-.8125-.890625-.8125-2.40625zm1.6875.125q0 .90625.34375 1.390625.34375.46875.96875.46875.625 0 .96875-.46875.34375-.46875.34375-1.515625 0-.875-.34375-1.359375-.34375-.5-.984375-.5-.609375 0-.953125.484375-.34375.484375-.34375 1.5zm11.09375.8125.828125-4.046875h1.625l-1.609375 6.34375h-1.421875l-1.203125-3.984375-1.203125 3.984375h-1.40625l-1.609375-6.34375h1.625l.828125 4.03125 1.15625-4.03125h1.234375zm6.765625-.671875h-3.296875v-1.375h3.296875z" fill="#1a1a1a"/><path d="m21.921875 146.21553h-5.84375v-1.15625l2.765625-2.95312q.5625-.60938.828125-1.07813.28125-.46875.28125-.875 0-.57813-.296875-.89063-.28125-.32812-.8125-.32812-.578125 0-.90625.39062-.328125.39063-.328125 1.04688h-1.703125q0-.78125.375-1.42188.375-.65624 1.046875-1.01562.6875-.375 1.546875-.375 1.3125 0 2.046875.64062.734375.625.734375 1.78126 0 .64062-.328125 1.29687-.328125.65625-1.125 1.53125l-1.9375 2.04688h3.65625zm2.875-5.01563h.90625q.640625 0 .953125-.3125.3125-.32812.3125-.85937 0-.51563-.3125-.79687-.296875-.29688-.84375-.29688-.484375 0-.8125.26562-.328125.26563-.328125.6875h-1.6875q0-.65624.359375-1.1875.359375-.53124 1-.82812.65625-.3125 1.4375-.3125 1.34375 0 2.109375.65625.78125.64063.78125 1.78125 0 .59375-.359375 1.09375-.359375.48437-.9375.73437.71875.26563 1.0625.78126.359375.51562.359375 1.21874 0 1.14063-.828125 1.82813-.828125.6875-2.1875.6875-1.28125 0-2.09375-.67187-.8125-.6875-.8125-1.79688h1.6875q0 .48438.359375.79688.375.29687.890625.29687.609375 0 .953125-.3125.34375-.32813.34375-.85937 0-1.26563-1.40625-1.26563h-.90625zm5.4375 4.1875q0-.40624.265625-.65624.28125-.25.6875-.25.421875 0 .6875.25.28125.25.28125.65624 0 .39063-.28125.64063-.265625.25-.6875.25-.40625 0-.6875-.25-.265625-.25-.265625-.64063zm4.5625-4.1875h.90625q.640625 0 .953125-.3125.3125-.32812.3125-.85937 0-.51563-.3125-.79687-.296875-.29688-.84375-.29688-.484375 0-.8125.26562-.328125.26563-.328125.6875h-1.6875q0-.65624.359375-1.1875.359375-.53124 1-.82812.65625-.3125 1.4375-.3125 1.34375 0 2.109375.65625.78125.64063.78125 1.78125 0 .59375-.359375 1.09375-.359375.48437-.9375.73437.71875.26563 1.0625.78126.359375.51562.359375 1.21874 0 1.14063-.828125 1.82813-.828125.6875-2.1875.6875-1.28125 0-2.09375-.67187-.8125-.6875-.8125-1.79688h1.6875q0 .48438.359375.79688.375.29687.890625.29687.609375 0 .953125-.3125.34375-.32813.34375-.85937 0-1.26563-1.40625-1.26563h-.90625zm5.265625-1.875q0-.78124.5-1.26562.515625-.5 1.34375-.5.828125 0 1.34375.48438.515625.48437.515625 1.3125v.42187q0 .78125-.515625 1.26563-.515625.48437-1.328125.48437-.84375 0-1.359375-.48437-.5-.48438-.5-1.29688zm1.125.45313q0 .34375.203125.5625.203125.21875.53125.21875.328125 0 .515625-.21875.1875-.21875.1875-.57813v-.4375q0-.35937-.1875-.5625-.1875-.21874-.53125-.21874-.328125 0-.53125.21874-.1875.20313-.1875.57813zm2.953125 4.34375q0-.79688.515625-1.26562.515625-.48438 1.328125-.48438.828125 0 1.34375.48438.515625.46874.515625 1.29687v.42187q0 .79688-.5 1.28126-.5.48437-1.34375.48437-.84375 0-1.359375-.48437-.5-.5-.5-1.29688zm1.125.45312q0 .32813.203125.5625.21875.21876.53125.21876.71875 0 .71875-.78126v-.45312q0-.34375-.203125-.5625-.203125-.21875-.53125-.21875-.328125 0-.53125.21875-.1875.21875-.1875.57812zm-3.015625 1-.828125-.4375 4.171875-6.67187.828125.4375z" fill="#9e9e9e"/><path d="m15.5 132.71553h129 14.86203" stroke="#757575" stroke-linecap="butt"/><path d="m161.36203 132.71553c0-1.10457-.89543-2-2-2s-2 .89543-2 2 .89543 2 2 2 2-.89543 2-2" fill="#9e9e9e"/><path d="m537.0156 211.49425v3h-1.75v-8.53125h3.32815q.95315 0 1.6875.35937.73435.34375 1.125 1 .39065.64063.39065 1.46875 0 1.25-.8594 1.98438-.8594.71875-2.375.71875zm0-1.4375h1.57815q.6875 0 1.04685-.32813.375-.32812.375-.9375 0-.625-.375-1-.35935-.39062-1.0156-.40625h-1.6094zm9.0469 4.5625q-1.3906 0-2.2656-.85938-.875-.85937-.875-2.28125v-.17187q0-.95313.35935-1.70313.375-.75 1.04685-1.15625.6875-.40625 1.5469-.40625 1.3125 0 2.0469.82813.75.8125.75 2.3125v.6875h-4.0313q.07815.625.4844 1 .4219.375 1.0625.375.96875 0 1.5156-.70313l.8438.92188q-.39065.54687-1.0469.85937-.6406.29688-1.4375.29688zm-.1875-5.21875q-.5 0-.8125.34375-.3125.34375-.40625.96875h2.35935v-.125q-.0156-.5625-.3125-.875-.2812-.3125-.8281-.3125zm6.7031 3.34375q0-.3125-.3125-.48438-.29685-.1875-.9687-.32812-2.26565-.46875-2.26565-1.92188 0-.84375.6875-1.40625.70315-.5625 1.84375-.5625 1.2031 0 1.9219.5625.73435.5625.73435 1.48438h-1.70315q0-.375-.23435-.60938-.23435-.23437-.73435-.23437-.4219 0-.6563.20312-.23435.1875-.23435.48438 0 .28125.26565.45312.2656.17188.8906.29688.6406.125 1.0781.28125 1.3438.5 1.3438 1.70312 0 .875-.75 1.42188-.7344.53125-1.9219.53125-.7969 0-1.4219-.28125-.60935-.29688-.9687-.78125-.3438-.5-.3438-1.07813h1.6094q.0156.45313.3281.70313.3125.23437.82815.23437.5 0 .73435-.1875.25-.1875.25-.48437zm4.5938-6.15625v1.5625h1.0937v1.25h-1.0937v3.15625q0 .35937.1406.51562.1406.14063.5156.14063.2813 0 .5-.03125v1.28125q-.5.15625-1.0312.15625-1.7813 0-1.8125-1.8125v-3.40625h-.9219v-1.25h.9219v-1.5625zm5.4062 6.15625q0-.3125-.3125-.48438-.29685-.1875-.9687-.32812-2.26565-.46875-2.26565-1.92188 0-.84375.6875-1.40625.70315-.5625 1.84375-.5625 1.2031 0 1.9219.5625.73435.5625.73435 1.48438h-1.70315q0-.375-.23435-.60938-.23435-.23437-.73435-.23437-.4219 0-.6563.20312-.23435.1875-.23435.48438 0 .28125.26565.45312.2656.17188.8906.29688.6406.125 1.0781.28125 1.3438.5 1.3438 1.70312 0 .875-.75 1.42188-.7344.53125-1.9219.53125-.7969 0-1.4219-.28125-.60935-.29688-.9687-.78125-.3438-.5-.3438-1.07813h1.6094q.0156.45313.3281.70313.3125.23437.82815.23437.5 0 .73435-.1875.25-.1875.25-.48437z" fill="#1a1a1a"/><path d="m536.6719 223.86925v1.40625h-.1563q-1.1562.01562-1.85935.59375-.6875.57812-.82815 1.60937.6719-.6875 1.70315-.6875 1.125 0 1.78125.79688.65625.79687.65625 2.09375 0 .82812-.35935 1.5-.3594.67187-1.0313 1.0625-.6562.375-1.48435.375-1.34375 0-2.17185-.9375-.82815-.95313-.82815-2.51563v-.60937q0-1.39063.51565-2.45313.5312-1.0625 1.5-1.64062.98435-.57813 2.2812-.59375zm-1.6563 4.28125q-.4062 0-.75.21875-.3281.20312-.48435.5625v.51562q0 .84375.32815 1.32813.3437.46875.9531.46875.5469 0 .875-.42188.34375-.4375.34375-1.125 0-.70312-.34375-1.125-.34375-.42187-.9219-.42187zm8.6563-4.28125v1.40625h-.1563q-1.1562.01562-1.85935.59375-.6875.57812-.82815 1.60937.6719-.6875 1.70315-.6875 1.125 0 1.78125.79688.65625.79687.65625 2.09375 0 .82812-.35935 1.5-.3594.67187-1.0313 1.0625-.6562.375-1.48435.375-1.34375 0-2.17185-.9375-.82815-.95313-.82815-2.51563v-.60937q0-1.39063.51565-2.45313.5312-1.0625 1.5-1.64062.98435-.57813 2.2812-.59375zm-1.6563 4.28125q-.4062 0-.75.21875-.3281.20312-.48435.5625v.51562q0 .84375.32815 1.32813.3437.46875.9531.46875.5469 0 .875-.42188.34375-.4375.34375-1.125 0-.70312-.34375-1.125-.34375-.42187-.9219-.42187zm4.2188 3.51562q0-.40625.2656-.65625.28125-.25.6875-.25.4219 0 .6875.25.28125.25.28125.65625 0 .39063-.28125.64063-.2656.25-.6875.25-.40625 0-.6875-.25-.2656-.25-.2656-.64063zm8.5937-2.70312q0 1.76562-.73435 2.71875-.73435.9375-2.14065.9375-1.4062 0-2.1406-.92188-.7344-.92187-.75-2.64062v-1.57813q0-1.78125.7344-2.70312.75-.9375 2.1406-.9375 1.3906 0 2.125.92187.75.92188.7656 2.64063zm-1.7031-1.71875q0-1.0625-.2969-1.54688-.2812-.48437-.8906-.48437-.59375 0-.8906.46875-.2813.45312-.2969 1.4375v2.0625q0 1.04687.28125 1.5625.28125.5.92185.5.6094 0 .89065-.48438.28125-.48437.28125-1.48437zm2.9375-1.64063q0-.78125.5-1.26562.5156-.5 1.34375-.5.82815 0 1.34375.48437.5156.48438.5156 1.3125v.42188q0 .78125-.5156 1.26562-.5156.48438-1.3281.48438-.8438 0-1.3594-.48438-.5-.48437-.5-1.29687zm1.125.45313q0 .34375.2031.5625.20315.21875.5313.21875.3281 0 .5156-.21875.1875-.21875.1875-.57813v-.4375q0-.35937-.1875-.5625-.1875-.21875-.53125-.21875-.32815 0-.53125.21875-.1875.20313-.1875.57813zm2.9531 4.34375q0-.79688.51565-1.26563.51565-.48437 1.32815-.48437.8281 0 1.3437.48437.51565.46875.51565 1.29688v.42187q0 .79688-.5 1.28125-.5.48438-1.34375.48438-.84375 0-1.3594-.48438-.5-.5-.5-1.29687zm1.125.45312q0 .32813.20315.5625.21875.21875.53125.21875.71875 0 .71875-.78125v-.45312q0-.34375-.20315-.5625-.2031-.21875-.5312-.21875-.32815 0-.5313.21875-.1875.21875-.1875.57812zm-3.0156 1-.8281-.4375 4.17185-6.67187.82815.4375z" fill="#9e9e9e"/><path d="m564.5 218.99425h-129-29.44995" stroke="#757575" stroke-linecap="butt"/><path d="m408.05005 218.99425c0-1.10457-.89545-2-2-2-1.10458 0-2 .89543-2 2s.89542 2 2 2c1.10455 0 2-.89543 2-2" fill="#9e9e9e"/></svg>