<svg fill="none" height="310" stroke-linecap="square" stroke-miterlimit="10" viewBox="0 0 580 310" width="580" xmlns="http://www.w3.org/2000/svg" xmlns:xlink="http://www.w3.org/1999/xlink"><clipPath id="a"><path d="m48.5 23h516v212.16667h-516z"/></clipPath><path d="m0 0h580v310h-580z" fill="none"/><path d="m48.5 235.5h516" stroke="#333" stroke-linecap="butt"/><path d="m48.5 182.5h516" stroke="#ccc" stroke-linecap="butt"/><path d="m48.5 129.5h516" stroke="#ccc" stroke-linecap="butt"/><path d="m48.5 76.5h516" stroke="#ccc" stroke-linecap="butt"/><path d="m48.5 23.5h516" stroke="#ccc" stroke-linecap="butt"/><path d="m48.5 217.5h516" stroke="#e6e6e6" stroke-linecap="butt"/><path d="m48.5 199.5h516" stroke="#e6e6e6" stroke-linecap="butt"/><path d="m48.5 164.5h516" stroke="#e6e6e6" stroke-linecap="butt"/><path d="m48.5 146.5h516" stroke="#e6e6e6" stroke-linecap="butt"/><path d="m48.5 111.5h516" stroke="#e6e6e6" stroke-linecap="butt"/><path d="m48.5 93.5h516" stroke="#e6e6e6" stroke-linecap="butt"/><path d="m48.5 58.5h516" stroke="#e6e6e6" stroke-linecap="butt"/><path d="m48.5 40.5h516" stroke="#e6e6e6" stroke-linecap="butt"/><path d="m48.5 235.5v-212" stroke="#000" stroke-linecap="butt"/><path clip-path="url(#a)" d="m73 235h-16v-8c0-1.10457.89543-2 2-2h12c1.10457 0 2 .89543 2 2z"/><path clip-path="url(#a)" d="m73 235h-16v-8c0-1.10457.89543-2 2-2h12c1.10457 0 2 .89543 2 2z" fill="#70ad47"/><path clip-path="url(#a)" d="m97 235h-16v-27c0-1.10457.89543-2 2-2h12c1.10457 0 2 .89543 2 2z"/><path clip-path="url(#a)" d="m97 235h-16v-27c0-1.10457.89543-2 2-2h12c1.10457 0 2 .89543 2 2z" fill="#70ad47"/><path clip-path="url(#a)" d="m121 235h-16v-51c0-1.10457.89543-2 2-2h12c1.10457 0 2 .89543 2 2z"/><path clip-path="url(#a)" d="m121 235h-16v-51c0-1.10457.89543-2 2-2h12c1.10457 0 2 .89543 2 2z" fill="#70ad47"/><path clip-path="url(#a)" d="m145 235h-16v-54c0-1.10457.89543-2 2-2h12c1.10457 0 2 .89543 2 2z"/><path clip-path="url(#a)" d="m145 235h-16v-54c0-1.10457.89543-2 2-2h12c1.10457 0 2 .89543 2 2z" fill="#70ad47"/><path clip-path="url(#a)" d="m169 235h-16v-69c0-1.10457.89543-2 2-2h12c1.10457 0 2 .89543 2 2z"/><path clip-path="url(#a)" d="m169 235h-16v-69c0-1.10457.89543-2 2-2h12c1.10457 0 2 .89543 2 2z" fill="#70ad47"/><path clip-path="url(#a)" d="m194 235h-16v-56c0-1.10457.89543-2 2-2h12c1.10457 0 2 .89543 2 2z"/><path clip-path="url(#a)" d="m194 235h-16v-56c0-1.10457.89543-2 2-2h12c1.10457 0 2 .89543 2 2z" fill="#70ad47"/><path clip-path="url(#a)" d="m218 235h-16v-38c0-1.10457.89543-2 2-2h12c1.10457 0 2 .89543 2 2z"/><path clip-path="url(#a)" d="m218 235h-16v-38c0-1.10457.89543-2 2-2h12c1.10457 0 2 .89543 2 2z" fill="#70ad47"/><path clip-path="url(#a)" d="m242 235h-16v-83c0-1.10457.89543-2 2-2h12c1.10457 0 2 .89543 2 2z"/><path clip-path="url(#a)" d="m242 235h-16v-83c0-1.10457.89543-2 2-2h12c1.10457 0 2 .89543 2 2z" fill="#70ad47"/><path clip-path="url(#a)" d="m266 235h-16v-133c0-1.10457.89543-2 2-2h12c1.10458 0 2 .89543 2 2z"/><path clip-path="url(#a)" d="m266 235h-16v-133c0-1.10457.89543-2 2-2h12c1.10458 0 2 .89543 2 2z" fill="#70ad47"/><path clip-path="url(#a)" d="m290 235h-16v-125c0-1.10457.89542-2 2-2h12c1.10458 0 2 .89543 2 2z"/><path clip-path="url(#a)" d="m290 235h-16v-125c0-1.10457.89542-2 2-2h12c1.10458 0 2 .89543 2 2z" fill="#70ad47"/><path clip-path="url(#a)" d="m315 235h-16v-85c0-1.10457.89542-2 2-2h12c1.10458 0 2 .89543 2 2z"/><path clip-path="url(#a)" d="m315 235h-16v-85c0-1.10457.89542-2 2-2h12c1.10458 0 2 .89543 2 2z" fill="#70ad47"/><path clip-path="url(#a)" d="m339 235h-16v-38c0-1.10457.89542-2 2-2h12c1.10458 0 2 .89543 2 2z"/><path clip-path="url(#a)" d="m339 235h-16v-38c0-1.10457.89542-2 2-2h12c1.10458 0 2 .89543 2 2z" fill="#70ad47"/><path clip-path="url(#a)" d="m363 235h-16v-43c0-1.10457.89542-2 2-2h12c1.10458 0 2 .89543 2 2z"/><path clip-path="url(#a)" d="m363 235h-16v-43c0-1.10457.89542-2 2-2h12c1.10458 0 2 .89543 2 2z" fill="#70ad47"/><path clip-path="url(#a)" d="m387 235h-16v-88c0-1.10457.89542-2 2-2h12c1.10458 0 2 .89543 2 2z"/><path clip-path="url(#a)" d="m387 235h-16v-88c0-1.10457.89542-2 2-2h12c1.10458 0 2 .89543 2 2z" fill="#70ad47"/><path clip-path="url(#a)" d="m411 235h-16v-104c0-1.10457.89542-2 2-2h12c1.10458 0 2 .89543 2 2z"/><path clip-path="url(#a)" d="m411 235h-16v-104c0-1.10457.89542-2 2-2h12c1.10458 0 2 .89543 2 2z" fill="#70ad47"/><path clip-path="url(#a)" d="m435 235h-16v-104c0-1.10457.89542-2 2-2h12c1.10458 0 2 .89543 2 2z"/><path clip-path="url(#a)" d="m435 235h-16v-104c0-1.10457.89542-2 2-2h12c1.10458 0 2 .89543 2 2z" fill="#70ad47"/><path clip-path="url(#a)" d="m460 235h-16v-128c0-1.10457.89542-2 2-2h12c1.10458 0 2 .89543 2 2z"/><path clip-path="url(#a)" d="m460 235h-16v-128c0-1.10457.89542-2 2-2h12c1.10458 0 2 .89543 2 2z" fill="#70ad47"/><path clip-path="url(#a)" d="m484 235h-16v-138c0-1.10457.89542-2 2-2h12c1.10458 0 2 .89543 2 2z"/><path clip-path="url(#a)" d="m484 235h-16v-138c0-1.10457.89542-2 2-2h12c1.10458 0 2 .89543 2 2z" fill="#70ad47"/><path clip-path="url(#a)" d="m508 235h-16v-173c0-1.10457.89542-2 2-2h12c1.10458 0 2 .89543 2 2z"/><path clip-path="url(#a)" d="m508 235h-16v-173c0-1.10457.89542-2 2-2h12c1.10458 0 2 .89543 2 2z" fill="#70ad47"/><path clip-path="url(#a)" d="m532 235h-16v-170c0-1.10457.89545-2 2-2h12c1.10455 0 2 .89543 2 2z"/><path clip-path="url(#a)" d="m532 235h-16v-170c0-1.10457.89545-2 2-2h12c1.10455 0 2 .89543 2 2z" fill="#70ad47"/><path clip-path="url(#a)" d="m556 235h-16v-170c0-1.10457.89545-2 2-2h12c1.10455 0 2 .89543 2 2z"/><path clip-path="url(#a)" d="m556 235h-16v-170c0-1.10457.89545-2 2-2h12c1.10455 0 2 .89543 2 2z" fill="#70ad47"/><path d="m42.5 235.5h12" stroke="#000" stroke-linecap="butt"/><path d="m42.5 182.5h12" stroke="#000" stroke-linecap="butt"/><path d="m42.5 129.5h12" stroke="#000" stroke-linecap="butt"/><path d="m42.5 76.5h12" stroke="#000" stroke-linecap="butt"/><path d="m42.5 23.5h12" stroke="#000" stroke-linecap="butt"/><path d="m62.828125 230.83125q0 1.76563-.734375 2.71875-.734375.9375-2.140625.9375-1.40625 0-2.140625-.92187-.734375-.92188-.75-2.64063v-1.57812q0-1.78125.734375-2.70313.75-.9375 2.140625-.9375 1.390625 0 2.125.92188.75.92187.765625 2.64062zm-1.703125-1.71875q0-1.0625-.296875-1.54687-.28125-.48438-.890625-.48438-.59375 0-.890625.46875-.28125.45313-.296875 1.4375v2.0625q0 1.04688.28125 1.5625.28125.5.921875.5.609375 0 .890625-.48437.28125-.48438.28125-1.48438zm3.109375 4.42188q0-.40625.265625-.65625.28125-.25.6875-.25.421875 0 .6875.25.28125.25.28125.65625 0 .39062-.28125.64062-.265625.25-.6875.25-.40625 0-.6875-.25-.265625-.25-.265625-.64062zm7.859375-2.39063h.96875v1.375h-.96875v1.84375h-1.703125v-1.84375h-3.484375l-.078125-1.0625 3.546875-5.625h1.71875zm-3.578125 0h1.875v-3l-.109375.1875z" stroke="#70ad47" stroke-linecap="round" stroke-linejoin="round" stroke-width="3"/><path d="m62.828125 230.83125q0 1.76563-.734375 2.71875-.734375.9375-2.140625.9375-1.40625 0-2.140625-.92187-.734375-.92188-.75-2.64063v-1.57812q0-1.78125.734375-2.70313.75-.9375 2.140625-.9375 1.390625 0 2.125.92188.75.92187.765625 2.64062zm-1.703125-1.71875q0-1.0625-.296875-1.54687-.28125-.48438-.890625-.48438-.59375 0-.890625.46875-.28125.45313-.296875 1.4375v2.0625q0 1.04688.28125 1.5625.28125.5.921875.5.609375 0 .890625-.48437.28125-.48438.28125-1.48438zm3.109375 4.42188q0-.40625.265625-.65625.28125-.25.6875-.25.421875 0 .6875.25.28125.25.28125.65625 0 .39062-.28125.64062-.265625.25-.6875.25-.40625 0-.6875-.25-.265625-.25-.265625-.64062zm7.859375-2.39063h.96875v1.375h-.96875v1.84375h-1.703125v-1.84375h-3.484375l-.078125-1.0625 3.546875-5.625h1.71875zm-3.578125 0h1.875v-3l-.109375.1875z" fill="#fff"/><path d="m85.1875 225.08022h-1.6875v-6.53125l-2.015625.625v-1.375l3.53125-1.26563h.171875zm3.046875-.82813q0-.40625.265625-.65625.28125-.25.6875-.25.421875 0 .6875.25.28125.25.28125.65625 0 .39063-.28125.64063-.265625.25-.6875.25-.40625 0-.6875-.25-.265625-.25-.265625-.64063zm6.953125.82813h-1.6875v-6.53125l-2.015625.625v-1.375l3.53125-1.26563h.171875z" stroke="#70ad47" stroke-linecap="round" stroke-linejoin="round" stroke-width="3"/><path d="m85.1875 225.08022h-1.6875v-6.53125l-2.015625.625v-1.375l3.53125-1.26563h.171875zm3.046875-.82813q0-.40625.265625-.65625.28125-.25.6875-.25.421875 0 .6875.25.28125.25.28125.65625 0 .39063-.28125.64063-.265625.25-.6875.25-.40625 0-.6875-.25-.265625-.25-.265625-.64063zm6.953125.82813h-1.6875v-6.53125l-2.015625.625v-1.375l3.53125-1.26563h.171875z" fill="#fff"/><path d="m115.921875 213.14583h-5.84375v-1.15625l2.765625-2.95313q.5625-.60937.828125-1.07812.28125-.46875.28125-.875 0-.57813-.296875-.89063-.28125-.32812-.8125-.32812-.578125 0-.90625.39062-.328125.39063-.328125 1.04688h-1.703125q0-.78125.375-1.42188.375-.65625 1.046875-1.01562.6875-.375 1.546875-.375 1.3125 0 2.046875.64062.734375.625.734375 1.78125 0 .64063-.328125 1.29688-.328125.65625-1.125 1.53125l-1.9375 2.04687h3.65625z" stroke="#70ad47" stroke-linecap="round" stroke-linejoin="round" stroke-width="3"/><path d="m115.921875 213.14583h-5.84375v-1.15625l2.765625-2.95313q.5625-.60937.828125-1.07812.28125-.46875.28125-.875 0-.57813-.296875-.89063-.28125-.32812-.8125-.32812-.578125 0-.90625.39062-.328125.39063-.328125 1.04688h-1.703125q0-.78125.375-1.42188.375-.65625 1.046875-1.01562.6875-.375 1.546875-.375 1.3125 0 2.046875.64062.734375.625.734375 1.78125 0 .64063-.328125 1.29688-.328125.65625-1.125 1.53125l-1.9375 2.04687h3.65625z" fill="#fff"/><path d="m134.92188 211.8198h-5.84376v-1.15626l2.76563-2.95312q.5625-.60938.82813-1.07812.28124-.46876.28124-.875 0-.57813-.29687-.89063-.28125-.32813-.8125-.32813-.57813 0-.90625.39063-.32812.39063-.32812 1.04687h-1.70313q0-.78124.375-1.42187.375-.65625 1.04687-1.01563.6875-.375 1.54688-.375 1.3125 0 2.04688.64063.73437.625.73437 1.78125 0 .64062-.32813 1.29688-.32812.65624-1.125 1.53124l-1.9375 2.04688h3.65626zm1.3125-.82813q0-.40625.26562-.65625.28125-.25.6875-.25.42188 0 .6875.25.28125.25.28125.65625 0 .39063-.28125.64063-.26562.25-.6875.25-.40625 0-.6875-.25-.26562-.25-.26562-.64063zm6.95312.82813h-1.6875v-6.53126l-2.01562.625v-1.375l3.53124-1.26562h.17188z" stroke="#70ad47" stroke-linecap="round" stroke-linejoin="round" stroke-width="3"/><path d="m134.92188 211.8198h-5.84376v-1.15626l2.76563-2.95312q.5625-.60938.82813-1.07812.28124-.46876.28124-.875 0-.57813-.29687-.89063-.28125-.32813-.8125-.32813-.57813 0-.90625.39063-.32812.39063-.32812 1.04687h-1.70313q0-.78124.375-1.42187.375-.65625 1.04687-1.01563.6875-.375 1.54688-.375 1.3125 0 2.04688.64063.73437.625.73437 1.78125 0 .64062-.32813 1.29688-.32812.65624-1.125 1.53124l-1.9375 2.04688h3.65626zm1.3125-.82813q0-.40625.26562-.65625.28125-.25.6875-.25.42188 0 .6875.25.28125.25.28125.65625 0 .39063-.28125.64063-.26562.25-.6875.25-.40625 0-.6875-.25-.26562-.25-.26562-.64063zm6.95312.82813h-1.6875v-6.53126l-2.01562.625v-1.375l3.53124-1.26562h.17188z" fill="#fff"/><path d="m158.92188 203.86354h-5.84376v-1.15625l2.76563-2.95312q.5625-.60938.82813-1.07813.28124-.46875.28124-.875 0-.57812-.29687-.89062-.28125-.32813-.8125-.32813-.57813 0-.90625.39063-.32812.39062-.32812 1.04687h-1.70313q0-.78125.375-1.42187.375-.65625 1.04687-1.01563.6875-.375 1.54688-.375 1.3125 0 2.04688.64063.73437.625.73437 1.78125 0 .64062-.32813 1.29687-.32812.65625-1.125 1.53125l-1.9375 2.04688h3.65626zm1.3125-.82812q0-.40625.26562-.65625.28125-.25.6875-.25.42188 0 .6875.25.28125.25.28125.65625 0 .39062-.28125.64062-.26562.25-.6875.25-.40625 0-.6875-.25-.26562-.25-.26562-.64062zm8.64062-6.75-3.29688 7.57812h-1.78124l3.29687-7.15625h-4.23437v-1.375h6.01562z" stroke="#70ad47" stroke-linecap="round" stroke-linejoin="round" stroke-width="3"/><path d="m158.92188 203.86354h-5.84376v-1.15625l2.76563-2.95312q.5625-.60938.82813-1.07813.28124-.46875.28124-.875 0-.57812-.29687-.89062-.28125-.32813-.8125-.32813-.57813 0-.90625.39063-.32812.39062-.32812 1.04687h-1.70313q0-.78125.375-1.42187.375-.65625 1.04687-1.01563.6875-.375 1.54688-.375 1.3125 0 2.04688.64063.73437.625.73437 1.78125 0 .64062-.32813 1.29687-.32812.65625-1.125 1.53125l-1.9375 2.04688h3.65626zm1.3125-.82812q0-.40625.26562-.65625.28125-.25.6875-.25.42188 0 .6875.25.28125.25.28125.65625 0 .39062-.28125.64062-.26562.25-.6875.25-.40625 0-.6875-.25-.26562-.25-.26562-.64062zm8.64062-6.75-3.29688 7.57812h-1.78124l3.29687-7.15625h-4.23437v-1.375h6.01562z" fill="#fff"/><path d="m183.92188 210.49374h-5.84376v-1.15624l2.76563-2.95313q.5625-.60937.82813-1.07813.28124-.46874.28124-.875 0-.57812-.29687-.89062-.28125-.32812-.8125-.32812-.57813 0-.90625.39062-.32812.39062-.32812 1.04688h-1.70313q0-.78126.375-1.42188.375-.65625 1.04687-1.01562.6875-.375 1.54688-.375 1.3125 0 2.04688.64062.73437.625.73437 1.78125 0 .64063-.32813 1.29687-.32812.65626-1.125 1.53126l-1.9375 2.04687h3.65626zm1.3125-.82812q0-.40625.26562-.65625.28125-.25.6875-.25.42188 0 .6875.25.28125.25.28125.65625 0 .39062-.28125.64062-.26562.25-.6875.25-.40625 0-.6875-.25-.26562-.25-.26562-.64062zm8.6875.82812h-5.84376v-1.15624l2.76563-2.95313q.5625-.60937.82813-1.07813.28124-.46874.28124-.875 0-.57812-.29687-.89062-.28125-.32812-.8125-.32812-.57813 0-.90625.39062-.32812.39062-.32812 1.04688h-1.70313q0-.78126.375-1.42188.375-.65625 1.04687-1.01562.6875-.375 1.54688-.375 1.3125 0 2.04688.64062.73437.625.73437 1.78125 0 .64063-.32813 1.29687-.32812.65626-1.125 1.53126l-1.9375 2.04687h3.65626z" stroke="#70ad47" stroke-linecap="round" stroke-linejoin="round" stroke-width="3"/><path d="m183.92188 210.49374h-5.84376v-1.15624l2.76563-2.95313q.5625-.60937.82813-1.07813.28124-.46874.28124-.875 0-.57812-.29687-.89062-.28125-.32812-.8125-.32812-.57813 0-.90625.39062-.32812.39062-.32812 1.04688h-1.70313q0-.78126.375-1.42188.375-.65625 1.04687-1.01562.6875-.375 1.54688-.375 1.3125 0 2.04688.64062.73437.625.73437 1.78125 0 .64063-.32813 1.29687-.32812.65626-1.125 1.53126l-1.9375 2.04687h3.65626zm1.3125-.82812q0-.40625.26562-.65625.28125-.25.6875-.25.42188 0 .6875.25.28125.25.28125.65625 0 .39062-.28125.64062-.26562.25-.6875.25-.40625 0-.6875-.25-.26562-.25-.26562-.64062zm8.6875.82812h-5.84376v-1.15624l2.76563-2.95313q.5625-.60937.82813-1.07813.28124-.46874.28124-.875 0-.57812-.29687-.89062-.28125-.32812-.8125-.32812-.57813 0-.90625.39062-.32812.39062-.32812 1.04688h-1.70313q0-.78126.375-1.42188.375-.65625 1.04687-1.01562.6875-.375 1.54688-.375 1.3125 0 2.04688.64062.73437.625.73437 1.78125 0 .64063-.32813 1.29687-.32812.65626-1.125 1.53126l-1.9375 2.04687h3.65626z" fill="#fff"/><path d="m206.1875 219.77605h-1.6875v-6.53125l-2.01562.625v-1.375l3.53124-1.26563h.17188zm3.04688-.82813q0-.40625.26562-.65625.28125-.25.6875-.25.42188 0 .6875.25.28125.25.28125.65625 0 .39063-.28125.64063-.26562.25-.6875.25-.40625 0-.6875-.25-.26562-.25-.26562-.64063zm3.09374-3.375.5-4.32812h4.78126v1.40625h-3.39063l-.21875 1.84375q.60938-.32813 1.28125-.32813 1.21875 0 1.90625.76563.70312.75.70312 2.10937 0 .82813-.35937 1.48438-.34375.64062-1 1.01562-.64063.35938-1.53125.35938-.76562 0-1.4375-.3125-.65625-.32813-1.04688-.89063-.375-.5625-.40624-1.29687h1.6875q.04687.53125.35937.82812.32813.29688.84375.29688.57812 0 .875-.40625.3125-.42188.3125-1.17188 0-.73437-.35938-1.10937-.34374-.39063-1-.39063-.60937 0-.98437.3125l-.15625.15625z" stroke="#70ad47" stroke-linecap="round" stroke-linejoin="round" stroke-width="3"/><path d="m206.1875 219.77605h-1.6875v-6.53125l-2.01562.625v-1.375l3.53124-1.26563h.17188zm3.04688-.82813q0-.40625.26562-.65625.28125-.25.6875-.25.42188 0 .6875.25.28125.25.28125.65625 0 .39063-.28125.64063-.26562.25-.6875.25-.40625 0-.6875-.25-.26562-.25-.26562-.64063zm3.09374-3.375.5-4.32812h4.78126v1.40625h-3.39063l-.21875 1.84375q.60938-.32813 1.28125-.32813 1.21875 0 1.90625.76563.70312.75.70312 2.10937 0 .82813-.35937 1.48438-.34375.64062-1 1.01562-.64063.35938-1.53125.35938-.76562 0-1.4375-.3125-.65625-.32813-1.04688-.89063-.375-.5625-.40624-1.29687h1.6875q.04687.53125.35937.82812.32813.29688.84375.29688.57812 0 .875-.40625.3125-.42188.3125-1.17188 0-.73437-.35938-1.10937-.34374-.39063-1-.39063-.60937 0-.98437.3125l-.15625.15625z" fill="#fff"/><path d="m227.79688 192.21771h.90624q.64063 0 .95313-.3125.3125-.32812.3125-.85937 0-.51563-.3125-.79688-.29687-.29687-.84375-.29687-.48438 0-.8125.26562-.32812.26563-.32812.6875h-1.6875q0-.65625.35937-1.1875.35937-.53125 1-.82812.65625-.3125 1.4375-.3125 1.34375 0 2.10937.65625.78126.64062.78126 1.78125 0 .59375-.35938 1.09375-.35938.48437-.9375.73437.71875.26563 1.0625.78125.35938.51563.35938 1.21875 0 1.14063-.82813 1.82813-.82813.6875-2.1875.6875-1.28125 0-2.09375-.67188-.8125-.6875-.8125-1.79687h1.6875q0 .48437.35938.79687.375.29688.89062.29688.60938 0 .95312-.3125.34376-.32813.34376-.85938 0-1.26562-1.40626-1.26562h-.90624zm5.4375 4.1875q0-.40625.26562-.65625.28125-.25.6875-.25.42188 0 .6875.25.28125.25.28125.65625 0 .39063-.28125.64063-.26562.25-.6875.25-.40625 0-.6875-.25-.26562-.25-.26562-.64063zm8.6875.82813h-5.84376v-1.15625l2.76563-2.95313q.5625-.60937.82813-1.07812.28124-.46875.28124-.875 0-.57813-.29687-.89063-.28125-.32812-.8125-.32812-.57813 0-.90625.39062-.32812.39063-.32812 1.04688h-1.70313q0-.78125.375-1.42188.375-.65625 1.04687-1.01562.6875-.375 1.54688-.375 1.3125 0 2.04688.64062.73437.625.73437 1.78125 0 .64063-.32813 1.29688-.32812.65625-1.125 1.53125l-1.9375 2.04687h3.65626z" stroke="#70ad47" stroke-linecap="round" stroke-linejoin="round" stroke-width="3"/><path d="m227.79688 192.21771h.90624q.64063 0 .95313-.3125.3125-.32812.3125-.85937 0-.51563-.3125-.79688-.29687-.29687-.84375-.29687-.48438 0-.8125.26562-.32812.26563-.32812.6875h-1.6875q0-.65625.35937-1.1875.35937-.53125 1-.82812.65625-.3125 1.4375-.3125 1.34375 0 2.10937.65625.78126.64062.78126 1.78125 0 .59375-.35938 1.09375-.35938.48437-.9375.73437.71875.26563 1.0625.78125.35938.51563.35938 1.21875 0 1.14063-.82813 1.82813-.82813.6875-2.1875.6875-1.28125 0-2.09375-.67188-.8125-.6875-.8125-1.79687h1.6875q0 .48437.35938.79687.375.29688.89062.29688.60938 0 .95312-.3125.34376-.32813.34376-.85938 0-1.26562-1.40626-1.26562h-.90624zm5.4375 4.1875q0-.40625.26562-.65625.28125-.25.6875-.25.42188 0 .6875.25.28125.25.28125.65625 0 .39063-.28125.64063-.26562.25-.6875.25-.40625 0-.6875-.25-.26562-.25-.26562-.64063zm8.6875.82813h-5.84376v-1.15625l2.76563-2.95313q.5625-.60937.82813-1.07812.28124-.46875.28124-.875 0-.57813-.29687-.89063-.28125-.32812-.8125-.32812-.57813 0-.90625.39062-.32812.39063-.32812 1.04688h-1.70313q0-.78125.375-1.42188.375-.65625 1.04687-1.01562.6875-.375 1.54688-.375 1.3125 0 2.04688.64062.73437.625.73437 1.78125 0 .64063-.32813 1.29688-.32812.65625-1.125 1.53125l-1.9375 2.04687h3.65626z" fill="#fff"/><path d="m250.32812 167.83542.5-4.32812h4.78126v1.40624h-3.39063l-.21875 1.84376q.60938-.32813 1.28125-.32813 1.21875 0 1.90625.76563.70312.75.70312 2.10937 0 .82813-.35937 1.48437-.34375.64063-1 1.01563-.64063.35937-1.53125.35937-.76562 0-1.4375-.3125-.65625-.32812-1.04688-.89062-.375-.5625-.40624-1.29688h1.6875q.04687.53126.35937.82813.32813.29687.84375.29687.57812 0 .875-.40624.3125-.42188.3125-1.17188 0-.73438-.35938-1.10938-.34374-.39062-1-.39062-.60937 0-.98437.3125l-.15625.15625zm6.90626 3.375q0-.40625.26562-.65625.28125-.25.6875-.25.42188 0 .6875.25.28125.25.28125.65625 0 .39062-.28125.64062-.26562.25-.6875.25-.40625 0-.6875-.25-.26562-.25-.26562-.64062zm6.95312.82812h-1.6875v-6.53124l-2.01562.625v-1.375l3.53124-1.26563h.17188z" stroke="#70ad47" stroke-linecap="round" stroke-linejoin="round" stroke-width="3"/><path d="m250.32812 167.83542.5-4.32812h4.78126v1.40624h-3.39063l-.21875 1.84376q.60938-.32813 1.28125-.32813 1.21875 0 1.90625.76563.70312.75.70312 2.10937 0 .82813-.35937 1.48437-.34375.64063-1 1.01563-.64063.35937-1.53125.35937-.76562 0-1.4375-.3125-.65625-.32812-1.04688-.89062-.375-.5625-.40624-1.29688h1.6875q.04687.53126.35937.82813.32813.29687.84375.29687.57812 0 .875-.40624.3125-.42188.3125-1.17188 0-.73438-.35938-1.10938-.34374-.39062-1-.39062-.60937 0-.98437.3125l-.15625.15625zm6.90626 3.375q0-.40625.26562-.65625.28125-.25.6875-.25.42188 0 .6875.25.28125.25.28125.65625 0 .39062-.28125.64062-.26562.25-.6875.25-.40625 0-.6875-.25-.26562-.25-.26562-.64062zm6.95312.82812h-1.6875v-6.53124l-2.01562.625v-1.375l3.53124-1.26563h.17188z" fill="#fff"/><path d="m279.09375 172.79791h.96875v1.375h-.96875v1.84375h-1.70313v-1.84375h-3.48437l-.07813-1.0625 3.54688-5.625h1.71875zm-3.57813 0h1.875v-3l-.10937.1875zm5.71876 2.39063q0-.40625.26562-.65625.28125-.25.6875-.25.42188 0 .6875.25.28125.25.28125.65625 0 .39062-.28125.64062-.26562.25-.6875.25-.40625 0-.6875-.25-.26562-.25-.26562-.64062zm8.40624-5.4375q0 .625-.3125 1.10937-.3125.46875-.85937.76563.625.29687.98437.82812.375.51563.375 1.21875 0 1.14063-.78124 1.8125-.76563.65625-2.10938.65625-1.32812 0-2.10938-.65625-.76562-.67187-.76562-1.8125 0-.70312.35938-1.23437.35937-.53125.98437-.8125-.54687-.29688-.85937-.76563-.3125-.48437-.3125-1.10937 0-1.09375.71874-1.73438.73438-.65625 1.98438-.65625 1.25 0 1.96875.65625.73437.64063.73437 1.73438zm-1.51562 3.79687q0-.54687-.32812-.875-.3125-.34375-.85938-.34375-.54688 0-.875.32813-.3125.32812-.3125.89062 0 .54688.3125.89063.32812.32812.89062.32812.54688 0 .85938-.3125.3125-.32812.3125-.90625zm-.17188-3.71875q0-.5-.26562-.79687-.26562-.29688-.75-.29688-.46875 0-.73438.29688-.26562.28125-.26562.79687 0 .51563.26562.82813.26563.3125.73438.3125.48438 0 .75-.3125.26562-.3125.26562-.82813z" stroke="#70ad47" stroke-linecap="round" stroke-linejoin="round" stroke-width="3"/><path d="m279.09375 172.79791h.96875v1.375h-.96875v1.84375h-1.70313v-1.84375h-3.48437l-.07813-1.0625 3.54688-5.625h1.71875zm-3.57813 0h1.875v-3l-.10937.1875zm5.71876 2.39063q0-.40625.26562-.65625.28125-.25.6875-.25.42188 0 .6875.25.28125.25.28125.65625 0 .39062-.28125.64062-.26562.25-.6875.25-.40625 0-.6875-.25-.26562-.25-.26562-.64062zm8.40624-5.4375q0 .625-.3125 1.10937-.3125.46875-.85937.76563.625.29687.98437.82812.375.51563.375 1.21875 0 1.14063-.78124 1.8125-.76563.65625-2.10938.65625-1.32812 0-2.10938-.65625-.76562-.67187-.76562-1.8125 0-.70312.35938-1.23437.35937-.53125.98437-.8125-.54687-.29688-.85937-.76563-.3125-.48437-.3125-1.10937 0-1.09375.71874-1.73438.73438-.65625 1.98438-.65625 1.25 0 1.96875.65625.73437.64063.73437 1.73438zm-1.51562 3.79687q0-.54687-.32812-.875-.3125-.34375-.85938-.34375-.54688 0-.875.32813-.3125.32812-.3125.89062 0 .54688.3125.89063.32812.32812.89062.32812.54688 0 .85938-.3125.3125-.32812.3125-.90625zm-.17188-3.71875q0-.5-.26562-.79687-.26562-.29688-.75-.29688-.46875 0-.73438.29688-.26562.28125-.26562.79687 0 .51563.26562.82813.26563.3125.73438.3125.48438 0 .75-.3125.26562-.3125.26562-.82813z" fill="#fff"/><path d="m300.79688 190.89166h.90624q.64063 0 .95313-.3125.3125-.32812.3125-.85937 0-.51563-.3125-.79688-.29687-.29687-.84375-.29687-.48438 0-.8125.26562-.32812.26563-.32812.6875h-1.6875q0-.65625.35937-1.1875.35937-.53125 1-.82812.65625-.3125 1.4375-.3125 1.34375 0 2.10937.65625.78126.64062.78126 1.78125 0 .59375-.35938 1.09375-.35938.48437-.9375.73437.71875.26563 1.0625.78125.35938.51563.35938 1.21875 0 1.14063-.82813 1.82813-.82813.6875-2.1875.6875-1.28125 0-2.09375-.67188-.8125-.6875-.8125-1.79687h1.6875q0 .48437.35938.79687.375.29688.89062.29688.60938 0 .95312-.3125.34376-.32813.34376-.85938 0-1.26562-1.40626-1.26562h-.90624zm5.4375 4.1875q0-.40625.26562-.65625.28125-.25.6875-.25.42188 0 .6875.25.28125.25.28125.65625 0 .39063-.28125.64063-.26562.25-.6875.25-.40625 0-.6875-.25-.26562-.25-.26562-.64063zm4.5625-4.1875h.90624q.64063 0 .95313-.3125.3125-.32812.3125-.85937 0-.51563-.3125-.79688-.29687-.29687-.84375-.29687-.48438 0-.8125.26562-.32812.26563-.32812.6875h-1.6875q0-.65625.35937-1.1875.35937-.53125 1-.82812.65625-.3125 1.4375-.3125 1.34375 0 2.10937.65625.78126.64062.78126 1.78125 0 .59375-.35938 1.09375-.35938.48437-.9375.73437.71875.26563 1.0625.78125.35938.51563.35938 1.21875 0 1.14063-.82813 1.82813-.82813.6875-2.1875.6875-1.28125 0-2.09375-.67188-.8125-.6875-.8125-1.79687h1.6875q0 .48437.35938.79687.375.29688.89062.29688.60938 0 .95312-.3125.34376-.32813.34376-.85938 0-1.26562-1.40626-1.26562h-.90624z" stroke="#70ad47" stroke-linecap="round" stroke-linejoin="round" stroke-width="3"/><path d="m300.79688 190.89166h.90624q.64063 0 .95313-.3125.3125-.32812.3125-.85937 0-.51563-.3125-.79688-.29687-.29687-.84375-.29687-.48438 0-.8125.26562-.32812.26563-.32812.6875h-1.6875q0-.65625.35937-1.1875.35937-.53125 1-.82812.65625-.3125 1.4375-.3125 1.34375 0 2.10937.65625.78126.64062.78126 1.78125 0 .59375-.35938 1.09375-.35938.48437-.9375.73437.71875.26563 1.0625.78125.35938.51563.35938 1.21875 0 1.14063-.82813 1.82813-.82813.6875-2.1875.6875-1.28125 0-2.09375-.67188-.8125-.6875-.8125-1.79687h1.6875q0 .48437.35938.79687.375.29688.89062.29688.60938 0 .95312-.3125.34376-.32813.34376-.85938 0-1.26562-1.40626-1.26562h-.90624zm5.4375 4.1875q0-.40625.26562-.65625.28125-.25.6875-.25.42188 0 .6875.25.28125.25.28125.65625 0 .39063-.28125.64063-.26562.25-.6875.25-.40625 0-.6875-.25-.26562-.25-.26562-.64063zm4.5625-4.1875h.90624q.64063 0 .95313-.3125.3125-.32812.3125-.85937 0-.51563-.3125-.79688-.29687-.29687-.84375-.29687-.48438 0-.8125.26562-.32812.26563-.32812.6875h-1.6875q0-.65625.35937-1.1875.35937-.53125 1-.82812.65625-.3125 1.4375-.3125 1.34375 0 2.10937.65625.78126.64062.78126 1.78125 0 .59375-.35938 1.09375-.35938.48437-.9375.73437.71875.26563 1.0625.78125.35938.51563.35938 1.21875 0 1.14063-.82813 1.82813-.82813.6875-2.1875.6875-1.28125 0-2.09375-.67188-.8125-.6875-.8125-1.79687h1.6875q0 .48437.35938.79687.375.29688.89062.29688.60938 0 .95312-.3125.34376-.32813.34376-.85938 0-1.26562-1.40626-1.26562h-.90624z" fill="#fff"/><path d="m327.1875 219.77605h-1.6875v-6.53125l-2.01562.625v-1.375l3.53124-1.26563h.17188zm3.04688-.82813q0-.40625.26562-.65625.28125-.25.6875-.25.42188 0 .6875.25.28125.25.28125.65625 0 .39063-.28125.64063-.26562.25-.6875.25-.40625 0-.6875-.25-.26562-.25-.26562-.64063zm3.09374-3.375.5-4.32812h4.78126v1.40625h-3.39063l-.21875 1.84375q.60938-.32813 1.28125-.32813 1.21875 0 1.90625.76563.70312.75.70312 2.10937 0 .82813-.35937 1.48438-.34375.64062-1 1.01562-.64063.35938-1.53125.35938-.76562 0-1.4375-.3125-.65625-.32813-1.04688-.89063-.375-.5625-.40624-1.29687h1.6875q.04687.53125.35937.82812.32813.29688.84375.29688.57812 0 .875-.40625.3125-.42188.3125-1.17188 0-.73437-.35938-1.10937-.34374-.39063-1-.39063-.60937 0-.98437.3125l-.15625.15625z" stroke="#70ad47" stroke-linecap="round" stroke-linejoin="round" stroke-width="3"/><path d="m327.1875 219.77605h-1.6875v-6.53125l-2.01562.625v-1.375l3.53124-1.26563h.17188zm3.04688-.82813q0-.40625.26562-.65625.28125-.25.6875-.25.42188 0 .6875.25.28125.25.28125.65625 0 .39063-.28125.64063-.26562.25-.6875.25-.40625 0-.6875-.25-.26562-.25-.26562-.64063zm3.09374-3.375.5-4.32812h4.78126v1.40625h-3.39063l-.21875 1.84375q.60938-.32813 1.28125-.32813 1.21875 0 1.90625.76563.70312.75.70312 2.10937 0 .82813-.35937 1.48438-.34375.64062-1 1.01562-.64063.35938-1.53125.35938-.76562 0-1.4375-.3125-.65625-.32813-1.04688-.89063-.375-.5625-.40624-1.29687h1.6875q.04687.53125.35937.82812.32813.29688.84375.29688.57812 0 .875-.40625.3125-.42188.3125-1.17188 0-.73437-.35938-1.10937-.34374-.39063-1-.39063-.60937 0-.98437.3125l-.15625.15625z" fill="#fff"/><path d="m351.1875 217.12396h-1.6875v-6.53125l-2.01562.625v-1.375l3.53124-1.26562h.17188zm3.04688-.82812q0-.40625.26562-.65625.28125-.25.6875-.25.42188 0 .6875.25.28125.25.28125.65625 0 .39062-.28125.64062-.26562.25-.6875.25-.40625 0-.6875-.25-.26562-.25-.26562-.64062zm8.64062-6.75-3.29688 7.57812h-1.78124l3.29687-7.15625h-4.23437v-1.375h6.01562z" stroke="#70ad47" stroke-linecap="round" stroke-linejoin="round" stroke-width="3"/><path d="m351.1875 217.12396h-1.6875v-6.53125l-2.01562.625v-1.375l3.53124-1.26562h.17188zm3.04688-.82812q0-.40625.26562-.65625.28125-.25.6875-.25.42188 0 .6875.25.28125.25.28125.65625 0 .39062-.28125.64062-.26562.25-.6875.25-.40625 0-.6875-.25-.26562-.25-.26562-.64062zm8.64062-6.75-3.29688 7.57812h-1.78124l3.29687-7.15625h-4.23437v-1.375h6.01562z" fill="#fff"/><path d="m372.79688 189.56563h.90624q.64063 0 .95313-.3125.3125-.32813.3125-.85938 0-.51562-.3125-.79687-.29687-.29688-.84375-.29688-.48438 0-.8125.26563-.32812.26562-.32812.6875h-1.6875q0-.65625.35937-1.1875.35937-.53125 1-.82813.65625-.3125 1.4375-.3125 1.34375 0 2.10937.65625.78126.64063.78126 1.78125 0 .59375-.35938 1.09375-.35938.48438-.9375.73438.71875.26562 1.0625.78125.35938.51562.35938 1.21875 0 1.14062-.82813 1.82812-.82813.6875-2.1875.6875-1.28125 0-2.09375-.67187-.8125-.6875-.8125-1.79688h1.6875q0 .48438.35938.79688.375.29687.89062.29687.60938 0 .95312-.3125.34376-.32812.34376-.85937 0-1.26563-1.40626-1.26563h-.90624zm5.4375 4.1875q0-.40625.26562-.65625.28125-.25.6875-.25.42188 0 .6875.25.28125.25.28125.65625 0 .39062-.28125.64062-.26562.25-.6875.25-.40625 0-.6875-.25-.26562-.25-.26562-.64062zm7.85937-2.39063h.96875v1.375h-.96875v1.84375h-1.70313v-1.84375h-3.48437l-.07813-1.0625 3.54688-5.625h1.71875zm-3.57813 0h1.875v-3l-.10937.1875z" stroke="#70ad47" stroke-linecap="round" stroke-linejoin="round" stroke-width="3"/><path d="m372.79688 189.56563h.90624q.64063 0 .95313-.3125.3125-.32813.3125-.85938 0-.51562-.3125-.79687-.29687-.29688-.84375-.29688-.48438 0-.8125.26563-.32812.26562-.32812.6875h-1.6875q0-.65625.35937-1.1875.35937-.53125 1-.82813.65625-.3125 1.4375-.3125 1.34375 0 2.10937.65625.78126.64063.78126 1.78125 0 .59375-.35938 1.09375-.35938.48438-.9375.73438.71875.26562 1.0625.78125.35938.51562.35938 1.21875 0 1.14062-.82813 1.82812-.82813.6875-2.1875.6875-1.28125 0-2.09375-.67187-.8125-.6875-.8125-1.79688h1.6875q0 .48438.35938.79688.375.29687.89062.29687.60938 0 .95312-.3125.34376-.32812.34376-.85937 0-1.26563-1.40626-1.26563h-.90624zm5.4375 4.1875q0-.40625.26562-.65625.28125-.25.6875-.25.42188 0 .6875.25.28125.25.28125.65625 0 .39062-.28125.64062-.26562.25-.6875.25-.40625 0-.6875-.25-.26562-.25-.26562-.64062zm7.85937-2.39063h.96875v1.375h-.96875v1.84375h-1.70313v-1.84375h-3.48437l-.07813-1.0625 3.54688-5.625h1.71875zm-3.57813 0h1.875v-3l-.10937.1875z" fill="#fff"/><path d="m405.09375 183.40625h.96875v1.375h-.96875v1.84375h-1.70313v-1.84375h-3.48437l-.07813-1.0625 3.54688-5.625h1.71875zm-3.57813 0h1.875v-3l-.10937.1875z" stroke="#70ad47" stroke-linecap="round" stroke-linejoin="round" stroke-width="3"/><path d="m405.09375 183.40625h.96875v1.375h-.96875v1.84375h-1.70313v-1.84375h-3.48437l-.07813-1.0625 3.54688-5.625h1.71875zm-3.57813 0h1.875v-3l-.10937.1875z" fill="#fff"/><path d="m429.09375 183.40625h.96875v1.375h-.96875v1.84375h-1.70313v-1.84375h-3.48437l-.07813-1.0625 3.54688-5.625h1.71875zm-3.57813 0h1.875v-3l-.10937.1875z" stroke="#70ad47" stroke-linecap="round" stroke-linejoin="round" stroke-width="3"/><path d="m429.09375 183.40625h.96875v1.375h-.96875v1.84375h-1.70313v-1.84375h-3.48437l-.07813-1.0625 3.54688-5.625h1.71875zm-3.57813 0h1.875v-3l-.10937.1875z" fill="#fff"/><path d="m449.09375 171.47188h.96875v1.375h-.96875v1.84375h-1.70313v-1.84375h-3.48437l-.07813-1.0625 3.54688-5.625h1.71875zm-3.57813 0h1.875v-3l-.10937.1875zm5.71876 2.39062q0-.40625.26562-.65625.28125-.25.6875-.25.42188 0 .6875.25.28125.25.28125.65625 0 .39063-.28125.64063-.26562.25-.6875.25-.40625 0-.6875-.25-.26562-.25-.26562-.64063zm6.8125-2.57812q-.67188.64062-1.54688.64062-1.14062 0-1.82812-.76562-.67188-.78125-.67188-2.09375 0-.84375.35938-1.54688.375-.70312 1.03124-1.09375.65626-.39062 1.48438-.39062.84375 0 1.5.42187.65625.42188 1.01562 1.21875.35938.79688.375 1.8125v.625q0 2.14063-1.0625 3.35938-1.0625 1.21875-3.01562 1.29687h-.40625v-1.40625l.375-.01562q2.20313-.09375 2.39063-2.0625zm-1.14063-.65625q.42187 0 .70313-.20313.29687-.21875.45312-.51562v-.6875q0-.85938-.32812-1.32813-.32813-.48437-.875-.48437-.51563 0-.84376.46875-.32812.45312-.32812 1.15625 0 .70312.3125 1.15625.32812.4375.90625.4375z" stroke="#70ad47" stroke-linecap="round" stroke-linejoin="round" stroke-width="3"/><path d="m449.09375 171.47188h.96875v1.375h-.96875v1.84375h-1.70313v-1.84375h-3.48437l-.07813-1.0625 3.54688-5.625h1.71875zm-3.57813 0h1.875v-3l-.10937.1875zm5.71876 2.39062q0-.40625.26562-.65625.28125-.25.6875-.25.42188 0 .6875.25.28125.25.28125.65625 0 .39063-.28125.64063-.26562.25-.6875.25-.40625 0-.6875-.25-.26562-.25-.26562-.64063zm6.8125-2.57812q-.67188.64062-1.54688.64062-1.14062 0-1.82812-.76562-.67188-.78125-.67188-2.09375 0-.84375.35938-1.54688.375-.70312 1.03124-1.09375.65626-.39062 1.48438-.39062.84375 0 1.5.42187.65625.42188 1.01562 1.21875.35938.79688.375 1.8125v.625q0 2.14063-1.0625 3.35938-1.0625 1.21875-3.01562 1.29687h-.40625v-1.40625l.375-.01562q2.20313-.09375 2.39063-2.0625zm-1.14063-.65625q.42187 0 .70313-.20313.29687-.21875.45312-.51562v-.6875q0-.85938-.32812-1.32813-.32813-.48437-.875-.48437-.51563 0-.84376.46875-.32812.45312-.32812 1.15625 0 .70312.3125 1.15625.32812.4375.90625.4375z" fill="#fff"/><path d="m468.32812 165.18333.5-4.32812h4.78126v1.40625h-3.39063l-.21875 1.84375q.60938-.32813 1.28125-.32813 1.21875 0 1.90625.76563.70312.75.70312 2.10937 0 .82813-.35937 1.48438-.34375.64062-1 1.01562-.64063.35938-1.53125.35938-.76562 0-1.4375-.3125-.65625-.32813-1.04688-.89063-.375-.5625-.40624-1.29687h1.6875q.04687.53125.35937.82812.32813.29688.84375.29688.57812 0 .875-.40625.3125-.42188.3125-1.17188 0-.73437-.35938-1.10937-.34374-.39063-1-.39063-.60937 0-.98437.3125l-.15625.15625zm6.90626 3.375q0-.40625.26562-.65625.28125-.25.6875-.25.42188 0 .6875.25.28125.25.28125.65625 0 .39063-.28125.64063-.26562.25-.6875.25-.40625 0-.6875-.25-.26562-.25-.26562-.64063zm4.5625-4.1875h.90624q.64063 0 .95313-.3125.3125-.32812.3125-.85937 0-.51563-.3125-.79688-.29687-.29687-.84375-.29687-.48438 0-.8125.26562-.32812.26563-.32812.6875h-1.6875q0-.65625.35937-1.1875.35937-.53125 1-.82812.65625-.3125 1.4375-.3125 1.34375 0 2.10937.65625.78126.64062.78126 1.78125 0 .59375-.35938 1.09375-.35938.48437-.9375.73437.71875.26563 1.0625.78125.35938.51563.35938 1.21875 0 1.14063-.82813 1.82813-.82813.6875-2.1875.6875-1.28125 0-2.09375-.67188-.8125-.6875-.8125-1.79687h1.6875q0 .48437.35938.79687.375.29688.89062.29688.60938 0 .95312-.3125.34376-.32813.34376-.85938 0-1.26562-1.40626-1.26562h-.90624z" stroke="#70ad47" stroke-linecap="round" stroke-linejoin="round" stroke-width="3"/><path d="m468.32812 165.18333.5-4.32812h4.78126v1.40625h-3.39063l-.21875 1.84375q.60938-.32813 1.28125-.32813 1.21875 0 1.90625.76563.70312.75.70312 2.10937 0 .82813-.35937 1.48438-.34375.64062-1 1.01562-.64063.35938-1.53125.35938-.76562 0-1.4375-.3125-.65625-.32813-1.04688-.89063-.375-.5625-.40624-1.29687h1.6875q.04687.53125.35937.82812.32813.29688.84375.29688.57812 0 .875-.40625.3125-.42188.3125-1.17188 0-.73437-.35938-1.10937-.34374-.39063-1-.39063-.60937 0-.98437.3125l-.15625.15625zm6.90626 3.375q0-.40625.26562-.65625.28125-.25.6875-.25.42188 0 .6875.25.28125.25.28125.65625 0 .39063-.28125.64063-.26562.25-.6875.25-.40625 0-.6875-.25-.26562-.25-.26562-.64063zm4.5625-4.1875h.90624q.64063 0 .95313-.3125.3125-.32812.3125-.85937 0-.51563-.3125-.79688-.29687-.29687-.84375-.29687-.48438 0-.8125.26562-.32812.26563-.32812.6875h-1.6875q0-.65625.35937-1.1875.35937-.53125 1-.82812.65625-.3125 1.4375-.3125 1.34375 0 2.10937.65625.78126.64062.78126 1.78125 0 .59375-.35938 1.09375-.35938.48437-.9375.73437.71875.26563 1.0625.78125.35938.51563.35938 1.21875 0 1.14063-.82813 1.82813-.82813.6875-2.1875.6875-1.28125 0-2.09375-.67188-.8125-.6875-.8125-1.79687h1.6875q0 .48437.35938.79687.375.29688.89062.29688.60938 0 .95312-.3125.34376-.32813.34376-.85938 0-1.26562-1.40626-1.26562h-.90624z" fill="#fff"/><path d="m496.67188 143.52292v1.40625h-.15626q-1.15624.01563-1.85937.59375-.6875.57812-.82813 1.60938.67188-.6875 1.70313-.6875 1.125 0 1.78125.79687.65625.79687.65625 2.09375 0 .82812-.35937 1.5-.35938.67188-1.03126 1.0625-.65624.375-1.48437.375-1.34375 0-2.17187-.9375-.82813-.95312-.82813-2.51562v-.60938q0-1.39062.51563-2.45312.53124-1.0625 1.5-1.64063.98437-.57813 2.28124-.59375zm-1.65626 4.28125q-.40624 0-.75.21875-.32812.20312-.48437.5625v.51562q0 .84376.32813 1.32813.34374.46875.95312.46875.54688 0 .875-.42188.34375-.4375.34375-1.125 0-.70312-.34375-1.125-.34375-.42187-.92188-.42187zm4.21876 3.51563q0-.40626.26562-.65626.28125-.25.6875-.25.42188 0 .6875.25.28125.25.28125.65626 0 .39062-.28125.64062-.26562.25-.6875.25-.40625 0-.6875-.25-.26562-.25-.26562-.64062zm7.4375-7.79688v1.40625h-.15626q-1.15624.01563-1.85937.59375-.6875.57812-.82813 1.60938.67188-.6875 1.70313-.6875 1.125 0 1.78125.79687.65625.79687.65625 2.09375 0 .82812-.35937 1.5-.35938.67188-1.03126 1.0625-.65624.375-1.48437.375-1.34375 0-2.17187-.9375-.82813-.95312-.82813-2.51562v-.60938q0-1.39062.51563-2.45312.53124-1.0625 1.5-1.64063.98437-.57813 2.28124-.59375zm-1.65626 4.28125q-.40624 0-.75.21875-.32812.20312-.48437.5625v.51562q0 .84376.32813 1.32813.34374.46875.95312.46875.54688 0 .875-.42188.34375-.4375.34375-1.125 0-.70312-.34375-1.125-.34375-.42187-.92188-.42187z" stroke="#70ad47" stroke-linecap="round" stroke-linejoin="round" stroke-width="3"/><path d="m496.67188 143.52292v1.40625h-.15626q-1.15624.01563-1.85937.59375-.6875.57812-.82813 1.60938.67188-.6875 1.70313-.6875 1.125 0 1.78125.79687.65625.79687.65625 2.09375 0 .82812-.35937 1.5-.35938.67188-1.03126 1.0625-.65624.375-1.48437.375-1.34375 0-2.17187-.9375-.82813-.95312-.82813-2.51562v-.60938q0-1.39062.51563-2.45312.53124-1.0625 1.5-1.64063.98437-.57813 2.28124-.59375zm-1.65626 4.28125q-.40624 0-.75.21875-.32812.20312-.48437.5625v.51562q0 .84376.32813 1.32813.34374.46875.95312.46875.54688 0 .875-.42188.34375-.4375.34375-1.125 0-.70312-.34375-1.125-.34375-.42187-.92188-.42187zm4.21876 3.51563q0-.40626.26562-.65626.28125-.25.6875-.25.42188 0 .6875.25.28125.25.28125.65626 0 .39062-.28125.64062-.26562.25-.6875.25-.40625 0-.6875-.25-.26562-.25-.26562-.64062zm7.4375-7.79688v1.40625h-.15626q-1.15624.01563-1.85937.59375-.6875.57812-.82813 1.60938.67188-.6875 1.70313-.6875 1.125 0 1.78125.79687.65625.79687.65625 2.09375 0 .82812-.35937 1.5-.35938.67188-1.03126 1.0625-.65624.375-1.48437.375-1.34375 0-2.17187-.9375-.82813-.95312-.82813-2.51562v-.60938q0-1.39062.51563-2.45312.53124-1.0625 1.5-1.64063.98437-.57813 2.28124-.59375zm-1.65626 4.28125q-.40624 0-.75.21875-.32812.20312-.48437.5625v.51562q0 .84376.32813 1.32813.34374.46875.95312.46875.54688 0 .875-.42188.34375-.4375.34375-1.125 0-.70312-.34375-1.125-.34375-.42187-.92188-.42187z" fill="#fff"/><path d="m520.6719 144.84895v1.40625h-.1563q-1.1562.01563-1.85935.59375-.6875.57813-.82815 1.60938.6719-.6875 1.70315-.6875 1.125 0 1.78125.79687.65625.79688.65625 2.09375 0 .82813-.35935 1.5-.3594.67188-1.0313 1.0625-.6562.375-1.48435.375-1.34375 0-2.17185-.9375-.82815-.95312-.82815-2.51562v-.60938q0-1.39062.51565-2.45312.5312-1.0625 1.5-1.64063.98435-.57812 2.2812-.59375zm-1.6563 4.28125q-.4062 0-.75.21875-.3281.20313-.48435.5625v.51563q0 .84375.32815 1.32812.3437.46875.9531.46875.5469 0 .875-.42187.34375-.4375.34375-1.125 0-.70313-.34375-1.125-.34375-.42188-.9219-.42188zm4.2188 3.51563q0-.40625.2656-.65625.28125-.25.6875-.25.4219 0 .6875.25.28125.25.28125.65625 0 .39062-.28125.64062-.2656.25-.6875.25-.40625 0-.6875-.25-.2656-.25-.2656-.64062zm3.0937-3.375.5-4.32813h4.7813v1.40625h-3.39065l-.21875 1.84375q.6094-.32812 1.28125-.32812 1.21875 0 1.90625.76562.7031.75.7031 2.10938 0 .82812-.35935 1.48437-.34375.64063-1 1.01563-.64065.35937-1.53125.35937-.7656 0-1.4375-.3125-.65625-.32812-1.0469-.89062-.375-.5625-.4062-1.29688h1.6875q.04685.53125.35935.82813.32815.29687.84375.29687.5781 0 .875-.40625.3125-.42187.3125-1.17187 0-.73438-.3594-1.10938-.3437-.39062-1-.39062-.60935 0-.98435.3125l-.15625.15625z" stroke="#70ad47" stroke-linecap="round" stroke-linejoin="round" stroke-width="3"/><path d="m520.6719 144.84895v1.40625h-.1563q-1.1562.01563-1.85935.59375-.6875.57813-.82815 1.60938.6719-.6875 1.70315-.6875 1.125 0 1.78125.79687.65625.79688.65625 2.09375 0 .82813-.35935 1.5-.3594.67188-1.0313 1.0625-.6562.375-1.48435.375-1.34375 0-2.17185-.9375-.82815-.95312-.82815-2.51562v-.60938q0-1.39062.51565-2.45312.5312-1.0625 1.5-1.64063.98435-.57812 2.2812-.59375zm-1.6563 4.28125q-.4062 0-.75.21875-.3281.20313-.48435.5625v.51563q0 .84375.32815 1.32812.3437.46875.9531.46875.5469 0 .875-.42187.34375-.4375.34375-1.125 0-.70313-.34375-1.125-.34375-.42188-.9219-.42188zm4.2188 3.51563q0-.40625.2656-.65625.28125-.25.6875-.25.4219 0 .6875.25.28125.25.28125.65625 0 .39062-.28125.64062-.2656.25-.6875.25-.40625 0-.6875-.25-.2656-.25-.2656-.64062zm3.0937-3.375.5-4.32813h4.7813v1.40625h-3.39065l-.21875 1.84375q.6094-.32812 1.28125-.32812 1.21875 0 1.90625.76562.7031.75.7031 2.10938 0 .82812-.35935 1.48437-.34375.64063-1 1.01563-.64065.35937-1.53125.35937-.7656 0-1.4375-.3125-.65625-.32812-1.0469-.89062-.375-.5625-.4062-1.29688h1.6875q.04685.53125.35935.82813.32815.29687.84375.29687.5781 0 .875-.40625.3125-.42187.3125-1.17187 0-.73438-.3594-1.10938-.3437-.39062-1-.39062-.60935 0-.98435.3125l-.15625.15625z" fill="#fff"/><path d="m544.6719 144.84895v1.40625h-.1563q-1.1562.01563-1.85935.59375-.6875.57813-.82815 1.60938.6719-.6875 1.70315-.6875 1.125 0 1.78125.79687.65625.79688.65625 2.09375 0 .82813-.35935 1.5-.3594.67188-1.0313 1.0625-.6562.375-1.48435.375-1.34375 0-2.17185-.9375-.82815-.95312-.82815-2.51562v-.60938q0-1.39062.51565-2.45312.5312-1.0625 1.5-1.64063.98435-.57812 2.2812-.59375zm-1.6563 4.28125q-.4062 0-.75.21875-.3281.20313-.48435.5625v.51563q0 .84375.32815 1.32812.3437.46875.9531.46875.5469 0 .875-.42187.34375-.4375.34375-1.125 0-.70313-.34375-1.125-.34375-.42188-.9219-.42188zm4.2188 3.51563q0-.40625.2656-.65625.28125-.25.6875-.25.4219 0 .6875.25.28125.25.28125.65625 0 .39062-.28125.64062-.2656.25-.6875.25-.40625 0-.6875-.25-.2656-.25-.2656-.64062zm3.0937-3.375.5-4.32813h4.7813v1.40625h-3.39065l-.21875 1.84375q.6094-.32812 1.28125-.32812 1.21875 0 1.90625.76562.7031.75.7031 2.10938 0 .82812-.35935 1.48437-.34375.64063-1 1.01563-.64065.35937-1.53125.35937-.7656 0-1.4375-.3125-.65625-.32812-1.0469-.89062-.375-.5625-.4062-1.29688h1.6875q.04685.53125.35935.82813.32815.29687.84375.29687.5781 0 .875-.40625.3125-.42187.3125-1.17187 0-.73438-.3594-1.10938-.3437-.39062-1-.39062-.60935 0-.98435.3125l-.15625.15625z" stroke="#70ad47" stroke-linecap="round" stroke-linejoin="round" stroke-width="3"/><path d="m544.6719 144.84895v1.40625h-.1563q-1.1562.01563-1.85935.59375-.6875.57813-.82815 1.60938.6719-.6875 1.70315-.6875 1.125 0 1.78125.79687.65625.79688.65625 2.09375 0 .82813-.35935 1.5-.3594.67188-1.0313 1.0625-.6562.375-1.48435.375-1.34375 0-2.17185-.9375-.82815-.95312-.82815-2.51562v-.60938q0-1.39062.51565-2.45312.5312-1.0625 1.5-1.64063.98435-.57812 2.2812-.59375zm-1.6563 4.28125q-.4062 0-.75.21875-.3281.20313-.48435.5625v.51563q0 .84375.32815 1.32812.3437.46875.9531.46875.5469 0 .875-.42187.34375-.4375.34375-1.125 0-.70313-.34375-1.125-.34375-.42188-.9219-.42188zm4.2188 3.51563q0-.40625.2656-.65625.28125-.25.6875-.25.4219 0 .6875.25.28125.25.28125.65625 0 .39062-.28125.64062-.2656.25-.6875.25-.40625 0-.6875-.25-.2656-.25-.2656-.64062zm3.0937-3.375.5-4.32813h4.7813v1.40625h-3.39065l-.21875 1.84375q.6094-.32812 1.28125-.32812 1.21875 0 1.90625.76562.7031.75.7031 2.10938 0 .82812-.35935 1.48437-.34375.64063-1 1.01563-.64065.35937-1.53125.35937-.7656 0-1.4375-.3125-.65625-.32812-1.0469-.89062-.375-.5625-.4062-1.29688h1.6875q.04685.53125.35935.82813.32815.29687.84375.29687.5781 0 .875-.40625.3125-.42187.3125-1.17187 0-.73438-.3594-1.10938-.3437-.39062-1-.39062-.60935 0-.98435.3125l-.15625.15625z" fill="#fff"/><g fill="#000"><path d="m35.5625 236.02605q0 1.90625-.65625 2.84375-.640625.92187-2.03125.92187-1.359375 0-2.015625-.90625-.65625-.90625-.6875-2.71875v-1.4375q0-1.89062.640625-2.79687.65625-.92188 2.046875-.92188 1.375 0 2.03125.89063.65625.875.671875 2.71875zm-1.09375-1.48438q0-1.375-.390625-2-.375-.64062-1.21875-.64062-.828125 0-1.21875.64062-.375.625-.375 1.92188v1.73437q0 1.375.390625 2.04688.40625.65625 1.21875.65625.796875 0 1.1875-.625.390625-.625.40625-1.95313z"/><path d="m35.796875 186.625h-5.59375v-.78125l2.953125-3.28125q.65625-.75.90625-1.20312.25-.46876.25-.96876 0-.67187-.40625-1.09374-.390625-.4375-1.078125-.4375-.796875 0-1.25.46874-.453125.45313-.453125 1.28126h-1.078125q0-1.1875.75-1.90626.765625-.73437 2.03125-.73437 1.203125 0 1.890625.625.6875.625.6875 1.67187 0 1.25-1.609375 3l-2.28125 2.46876h4.28125z"/><path d="m34.78125 130.72395h1.1875v.875h-1.1875v1.98438h-1.078125v-1.98438h-3.890625v-.64062l3.8125-5.90625h1.15625zm-3.734375 0h2.65625v-4.1875l-.140625.23438z"/><path d="m34.46875 72.010414v.90625h-.203125q-1.265625.03125-2.015625.765626-.75.71875-.875 2.03125.6875-.765626 1.84375-.765626 1.109375 0 1.78125.78125.671875.78125.671875 2.03125 0 1.3125-.71875 2.109376-.71875.796874-1.9375.796874-1.21875 0-1.984375-.9375-.75-.953124-.75-2.4375v-.40625q0-2.359374 1-3.609374 1-1.25 2.984375-1.265626zm-1.421875 3.84375q-.5625 0-1.03125.328126-.46875.328124-.65625.84375v.390624q0 1.0625.46875 1.703126.484375.640624 1.1875.640624.734375 0 1.15625-.53125.421875-.546874.421875-1.421874 0-.875-.421875-1.40625-.421875-.546876-1.125-.546876z"/><path d="m35.390625 21.1875q0 .640625-.34375 1.140625-.34375.5-.90625.78125.65625.28125 1.046875.84375.390625.546875.390625 1.25 0 1.09375-.75 1.765625-.734375.65625-1.953125.65625-1.234375 0-1.984375-.65625-.734375-.671875-.734375-1.765625 0-.703125.375-1.25.375-.5625 1.046875-.84375-.5625-.28125-.890625-.78125-.328125-.5-.328125-1.140625 0-1.078125.6875-1.703125.6875-.640625 1.828125-.640625 1.125 0 1.8125.640625.703125.625.703125 1.703125zm-.890625 3.984375q0-.71875-.453125-1.15625-.453125-.453125-1.1875-.453125-.734375 0-1.1875.453125-.4375.4375-.4375 1.171875 0 .71875.4375 1.140625.4375.40625 1.203125.40625.75 0 1.1875-.421875.4375-.421875.4375-1.140625zm-1.625-5.4375q-.640625 0-1.046875.40625-.390625.390625-.390625 1.078125 0 .640625.390625 1.046875.390625.40625 1.03125.40625.65625 0 1.046875-.40625.390625-.40625.390625-1.046875 0-.65625-.40625-1.0625-.40625-.421875-1.015625-.421875z"/><path d="m69.31383 262.74478v5.84375h-1.15625l-2.95313-2.76563q-.60937-.5625-1.07812-.82812-.468752-.28125-.875002-.28125-.578125 0-.890625.29687-.328125.28126-.328125.8125 0 .57813.390625.90626.390625.32812 1.046875.32812v1.70312q-.78125 0-1.421875-.375-.65625-.375-1.015625-1.04687-.375-.6875-.375-1.54687 0-1.3125.640625-2.04688.625-.73438 1.78125-.73438.640625 0 1.296877.32813.65625.32813 1.53125 1.125l2.04687 1.9375v-3.65625zm-3.53125-6.90623q1.76562 0 2.71875.73435.9375.73438.9375 2.14063 0 1.40625-.92188 2.14063-.92187.73437-2.64062.75h-1.57813q-1.781247 0-2.703122-.73438-.9375-.75-.9375-2.14062 0-1.39063.921875-2.125.921875-.74999 2.640627-.76561zm-1.71875 1.70311q-1.062502 0-1.546877.29687-.484375.28125-.484375.89063 0 .59374.46875.89062.453125.28125 1.4375.29688h2.062502q1.04687 0 1.5625-.28126.5-.28124.5-.92187 0-.60937-.48438-.89063-.48437-.28124-1.48437-.28124zm1.71875-8.70311q1.76562 0 2.71875.73437.9375.73438.9375 2.14063 0 1.40625-.92188 2.14062-.92187.73438-2.64062.75h-1.57813q-1.781247 0-2.703122-.73437-.9375-.75-.9375-2.14063 0-1.39062.921875-2.125.921875-.75 2.640627-.76562zm-1.71875 1.70312q-1.062502 0-1.546877.29688-.484375.28125-.484375.89062 0 .59375.46875.89063.453125.28125 1.4375.29687h2.062502q1.04687 0 1.5625-.28125.5-.28125.5-.92187 0-.60938-.48438-.89063-.48437-.28125-1.48437-.28125zm5.25-8.79687v5.84375h-1.15625l-2.95313-2.76563q-.60937-.5625-1.07812-.82812-.468752-.28125-.875002-.28125-.578125 0-.890625.29687-.328125.28125-.328125.8125 0 .57813.390625.90625.390625.32813 1.046875.32813v1.70312q-.78125 0-1.421875-.375-.65625-.375-1.015625-1.04687-.375-.6875-.375-1.54688 0-1.3125.640625-2.04687.625-.73438 1.78125-.73438.640625 0 1.296877.32813.65625.32812 1.53125 1.125l2.04687 1.9375v-3.65625z"/><path d="m93.482445 262.74478v5.84375h-1.15625l-2.953125-2.76563q-.609375-.5625-1.078125-.82812-.46875-.28125-.875-.28125-.578125 0-.890625.29687-.328125.28126-.328125.8125 0 .57813.390625.90626.390625.32812 1.046875.32812v1.70312q-.78125 0-1.421875-.375-.65625-.375-1.015625-1.04687-.375-.6875-.375-1.54687 0-1.3125.640625-2.04688.625-.73438 1.78125-.73438.640625 0 1.296875.32813.65625.32813 1.53125 1.125l2.046875 1.9375v-3.65625zm-3.53125-6.90625q1.765625 0 2.71875.73437.9375.73438.9375 2.14063 0 1.40625-.921875 2.14063-.921875.73437-2.640625.75h-1.578125q-1.78125 0-2.703125-.73438-.9375-.75-.9375-2.14062 0-1.39063.921875-2.125.921875-.75 2.640625-.76563zm-1.71875 1.70313q-1.0625 0-1.546875.29687-.484375.28125-.484375.89063 0 .59374.46875.89062.453125.28125 1.4375.29688h2.0625q1.046875 0 1.5625-.28126.5-.28124.5-.92187 0-.60937-.484375-.89063-.484375-.28124-1.484375-.28124zm1.71875-8.70313q1.765625 0 2.71875.73437.9375.73438.9375 2.14063 0 1.40625-.921875 2.14063-.921875.73437-2.640625.75h-1.578125q-1.78125 0-2.703125-.73438-.9375-.75-.9375-2.14062 0-1.39063.921875-2.125.921875-.75 2.640625-.76563zm-1.71875 1.70313q-1.0625 0-1.546875.29687-.484375.28125-.484375.89063 0 .59374.46875.89062.453125.28125 1.4375.29688h2.0625q1.046875 0 1.5625-.28126.5-.28124.5-.92187 0-.60937-.484375-.89063-.484375-.28124-1.484375-.28124zm.234375-4.67188v-.90625q0-.64063-.3125-.95313-.328125-.3125-.859375-.3125-.515625 0-.796875.3125-.296875.29688-.296875.84376 0 .48437.265625.8125.265625.32812.6875.32812v1.6875q-.65625 0-1.1875-.35938-.53125-.35937-.828125-1-.3125-.65624-.3125-1.4375 0-1.34374.65625-2.10937.640625-.78125 1.78125-.78125.59375 0 1.09375.35938.484375.35937.734375.9375.265625-.71876.78125-1.0625.515625-.35938 1.21875-.35938 1.140625 0 1.828125.82812.6875.82813.6875 2.1875 0 1.28126-.671875 2.09376-.6875.8125-1.796875.8125v-1.6875q.484375 0 .796875-.35938.296875-.375.296875-.89062 0-.60938-.3125-.95313-.328125-.34375-.859375-.34375-1.265625 0-1.265625 1.40625v.90625z"/><path d="m117.65106 262.74478v5.84375h-1.15625l-2.95312-2.76563q-.60938-.5625-1.07813-.82812-.46875-.28125-.875-.28125-.57812 0-.89062.29687-.32813.28126-.32813.8125 0 .57813.39063.90626.39062.32812 1.04687.32812v1.70312q-.78125 0-1.42187-.375-.65625-.375-1.01563-1.04687-.375-.6875-.375-1.54687 0-1.3125.64063-2.04688.625-.73438 1.78125-.73438.64062 0 1.29687.32813.65625.32813 1.53125 1.125l2.04688 1.9375v-3.65625zm-3.53125-6.90623q1.76563 0 2.71875.73435.9375.73438.9375 2.14063 0 1.40625-.92187 2.14063-.92188.73437-2.64063.75h-1.57812q-1.78125 0-2.70313-.73438-.9375-.75-.9375-2.14062 0-1.39063.92188-2.125.92187-.74999 2.64062-.76561zm-1.71875 1.70311q-1.0625 0-1.54687.29687-.48438.28125-.48438.89063 0 .59374.46875.89062.45313.28125 1.4375.29688h2.0625q1.04688 0 1.5625-.28126.5-.28124.5-.92187 0-.60937-.48437-.89063-.48438-.28124-1.48438-.28124zm1.71875-8.70311q1.76563 0 2.71875.73437.9375.73438.9375 2.14063 0 1.40625-.92187 2.14062-.92188.73438-2.64063.75h-1.57812q-1.78125 0-2.70313-.73437-.9375-.75-.9375-2.14063 0-1.39062.92188-2.125.92187-.75 2.64062-.76562zm-1.71875 1.70312q-1.0625 0-1.54687.29688-.48438.28125-.48438.89062 0 .59375.46875.89063.45313.28125 1.4375.29687h2.0625q1.04688 0 1.5625-.28125.5-.28125.5-.92187 0-.60938-.48437-.89063-.48438-.28125-1.48438-.28125zm2.03125-7.96875v-.96875h1.375v.96875h1.84375v1.70313h-1.84375v3.48437l-1.0625.07813-5.625-3.54688v-1.71875zm0 3.57813v-1.875h-3l.1875.10937z"/><path d="m141.81969 262.74478v5.84375h-1.15625l-2.95313-2.76563q-.60937-.5625-1.07812-.82812-.46875-.28125-.875-.28125-.57813 0-.89063.29687-.32812.28126-.32812.8125 0 .57813.39062.90626.39063.32812 1.04688.32812v1.70312q-.78125 0-1.42188-.375-.65625-.375-1.01562-1.04687-.375-.6875-.375-1.54687 0-1.3125.64062-2.04688.625-.73438 1.78125-.73438.64063 0 1.29688.32813.65625.32813 1.53125 1.125l2.04687 1.9375v-3.65625zm-3.53125-6.90625q1.76562 0 2.71875.73437.9375.73438.9375 2.14063 0 1.40625-.92188 2.14063-.92187.73437-2.64062.75h-1.57813q-1.78125 0-2.70312-.73438-.9375-.75-.9375-2.14062 0-1.39063.92187-2.125.92188-.75 2.64063-.76563zm-1.71875 1.70313q-1.0625 0-1.54688.29687-.48437.28125-.48437.89063 0 .59374.46875.89062.45312.28125 1.4375.29688h2.0625q1.04687 0 1.5625-.28126.5-.28124.5-.92187 0-.60937-.48438-.89063-.48437-.28124-1.48437-.28124zm1.71875-8.70313q1.76562 0 2.71875.73437.9375.73438.9375 2.14063 0 1.40625-.92188 2.14063-.92187.73437-2.64062.75h-1.57813q-1.78125 0-2.70312-.73438-.9375-.75-.9375-2.14062 0-1.39063.92187-2.125.92188-.75 2.64063-.76563zm-1.71875 1.70313q-1.0625 0-1.54688.29687-.48437.28125-.48437.89063 0 .59374.46875.89062.45312.28125 1.4375.29688h2.0625q1.04687 0 1.5625-.28126.5-.28124.5-.92187 0-.60937-.48438-.89063-.48437-.28124-1.48437-.28124zm1.04687-3.20313-4.32812-.5v-4.78125h1.40625v3.39062l1.84375.21876q-.32813-.60938-.32813-1.28126 0-1.21874.76563-1.90624.75-.70313 2.10937-.70313.82813 0 1.48438.35937.64062.34376 1.01562 1 .35938.64063.35938 1.53126 0 .76562-.3125 1.4375-.32813.65624-.89063 1.04687-.5625.375-1.29687.40625v-1.6875q.53125-.04688.82812-.35938.29688-.32812.29688-.84374 0-.57813-.40625-.875-.42188-.3125-1.17188-.3125-.73437 0-1.10937.35937-.39063.34375-.39063 1 0 .60937.3125.98437l.15625.15626z"/><path d="m165.9883 262.74478v5.84375h-1.15625l-2.95313-2.76563q-.60937-.5625-1.07812-.82812-.46875-.28125-.875-.28125-.57813 0-.89063.29687-.32812.28126-.32812.8125 0 .57813.39062.90626.39063.32812 1.04688.32812v1.70312q-.78125 0-1.42188-.375-.65625-.375-1.01562-1.04687-.375-.6875-.375-1.54687 0-1.3125.64062-2.04688.625-.73438 1.78125-.73438.64063 0 1.29688.32813.65625.32813 1.53125 1.125l2.04687 1.9375v-3.65625zm-3.53125-6.90623q1.76562 0 2.71875.73435.9375.73438.9375 2.14063 0 1.40625-.92188 2.14063-.92187.73437-2.64062.75h-1.57813q-1.78125 0-2.70312-.73438-.9375-.75-.9375-2.14062 0-1.39063.92187-2.125.92188-.74999 2.64063-.76561zm-1.71875 1.70311q-1.0625 0-1.54688.29687-.48437.28125-.48437.89063 0 .59374.46875.89062.45312.28125 1.4375.29688h2.0625q1.04687 0 1.5625-.28126.5-.28124.5-.92187 0-.60937-.48438-.89063-.48437-.28124-1.48437-.28124zm1.71875-8.70311q1.76562 0 2.71875.73437.9375.73438.9375 2.14063 0 1.40625-.92188 2.14062-.92187.73438-2.64062.75h-1.57813q-1.78125 0-2.70312-.73437-.9375-.75-.9375-2.14063 0-1.39062.92187-2.125.92188-.75 2.64063-.76562zm-1.71875 1.70312q-1.0625 0-1.54688.29688-.48437.28125-.48437.89062 0 .59375.46875.89063.45312.28125 1.4375.29687h2.0625q1.04687 0 1.5625-.28125.5-.28125.5-.92187 0-.60938-.48438-.89063-.48437-.28125-1.48437-.28125zm-3.375-7.54687h1.40625v.15625q.01562 1.15625.59375 1.85937.57812.6875 1.60937.82813-.6875-.67188-.6875-1.70313 0-1.125.79688-1.78125.79687-.65625 2.09375-.65625.82812 0 1.5.35938.67187.35937 1.0625 1.03125.375.65625.375 1.48437 0 1.34375-.9375 2.17188-.95313.82812-2.51563.82812h-.60937q-1.39063 0-2.45313-.51562-1.0625-.53125-1.64062-1.5-.57813-.98438-.59375-2.28125zm4.28125 1.65625q0 .40625.21875.75.20312.32812.5625.48437h.51562q.84375 0 1.32813-.32812.46875-.34375.46875-.95313 0-.54687-.42188-.875-.4375-.34375-1.125-.34375-.70312 0-1.125.34375-.42187.34375-.42187.92188z"/><path d="m190.15692 262.74478v5.84375h-1.15625l-2.95312-2.76563q-.60938-.5625-1.07813-.82812-.46875-.28125-.875-.28125-.57812 0-.89062.29687-.32813.28126-.32813.8125 0 .57813.39063.90626.39062.32812 1.04687.32812v1.70312q-.78125 0-1.42187-.375-.65625-.375-1.01563-1.04687-.375-.6875-.375-1.54687 0-1.3125.64063-2.04688.625-.73438 1.78125-.73438.64062 0 1.29687.32813.65625.32813 1.53125 1.125l2.04688 1.9375v-3.65625zm-3.53125-6.90625q1.76563 0 2.71875.73437.9375.73438.9375 2.14063 0 1.40625-.92187 2.14063-.92188.73437-2.64063.75h-1.57812q-1.78125 0-2.70313-.73438-.9375-.75-.9375-2.14062 0-1.39063.92188-2.125.92187-.75 2.64062-.76563zm-1.71875 1.70313q-1.0625 0-1.54687.29687-.48438.28125-.48438.89063 0 .59374.46875.89062.45313.28125 1.4375.29688h2.0625q1.04688 0 1.5625-.28126.5-.28124.5-.92187 0-.60937-.48437-.89063-.48438-.28124-1.48438-.28124zm1.71875-8.70313q1.76563 0 2.71875.73437.9375.73438.9375 2.14063 0 1.40625-.92187 2.14063-.92188.73437-2.64063.75h-1.57812q-1.78125 0-2.70313-.73438-.9375-.75-.9375-2.14062 0-1.39063.92188-2.125.92187-.75 2.64062-.76563zm-1.71875 1.70313q-1.0625 0-1.54687.29687-.48438.28125-.48438.89063 0 .59374.46875.89062.45313.28125 1.4375.29688h2.0625q1.04688 0 1.5625-.28126.5-.28124.5-.92187 0-.60937-.48437-.89063-.48438-.28124-1.48438-.28124zm-2.32812-8.75 7.57812 3.29687v1.78125l-7.15625-3.29688v4.23438h-1.375v-6.01562z"/><path d="m214.32553 262.7448v5.84376h-1.15625l-2.95312-2.76562q-.60938-.5625-1.07813-.82814-.46875-.28124-.875-.28124-.57813 0-.89063.29688-.32812.28126-.32812.8125 0 .57812.39062.90626.39063.3281 1.04688.3281v1.70314q-.78125 0-1.42188-.375-.65624-.375-1.01562-1.04688-.375-.6875-.375-1.54686 0-1.3125.64062-2.0469.625-.73436 1.78126-.73436.64062 0 1.29687.32812.65625.32814 1.53125 1.125l2.04688 1.9375v-3.65626zm-3.53125-6.90625q1.76562 0 2.71875.73439.9375.73436.9375 2.14062 0 1.40624-.92187 2.14064-.92188.73436-2.64063.75h-1.57813q-1.78124 0-2.70312-.7344-.9375-.75-.9375-2.1406 0-1.39064.92188-2.125.92187-.75003 2.64062-.76565zm-1.71875 1.70315q-1.0625 0-1.54687.29686-.48438.28124-.48438.89064 0 .59374.46875.8906.45313.28126 1.4375.2969h2.0625q1.04687 0 1.5625-.28126.5-.28124.5-.92188 0-.60936-.48437-.89062-.48438-.28124-1.48438-.28124zm1.71875-8.70315q1.76562 0 2.71875.73437.9375.73438.9375 2.14063 0 1.40625-.92187 2.14062-.92188.73438-2.64063.75h-1.57813q-1.78124 0-2.70312-.73437-.9375-.75-.9375-2.14063 0-1.39062.92188-2.125.92187-.75 2.64062-.76562zm-1.71875 1.70312q-1.0625 0-1.54687.29688-.48438.28125-.48438.89062 0 .59375.46875.89063.45313.28125 1.4375.29687h2.0625q1.04687 0 1.5625-.28125.5-.28125.5-.92187 0-.60938-.48437-.89063-.48438-.28125-1.48438-.28125zm-1.01563-8.51562q.625 0 1.10938.3125.46875.3125.76562.85937.29688-.625.82813-.98437.51563-.375 1.21875-.375 1.14062 0 1.8125.78125.65625.76562.65625 2.10937 0 1.32813-.65625 2.10938-.67188.76562-1.8125.76562-.70312 0-1.23438-.35937-.53124-.35938-.8125-.98438-.29687.54688-.76562.85938-.48438.3125-1.10938.3125-1.09374 0-1.73437-.71875-.65625-.73438-.65625-1.98438 0-1.25.65625-1.96875.64063-.73437 1.73437-.73437zm3.79688 1.51562q-.54688 0-.875.32813-.34375.3125-.34375.85937 0 .54688.32813.875.32812.3125.89062.3125.54688 0 .89062-.3125.32813-.32812.32813-.89062 0-.54688-.3125-.85938-.32813-.3125-.90625-.3125zm-3.71875.17188q-.5 0-.79687.26562-.29688.26563-.29688.75 0 .46875.29688.73438.28124.26562.79687.26562.51563 0 .82813-.26562.3125-.26563.3125-.73438 0-.48437-.3125-.75-.3125-.26562-.82813-.26562z"/><path d="m238.49416 262.7448v5.84376h-1.15626l-2.95312-2.76562q-.60938-.5625-1.07812-.82814-.46876-.28124-.875-.28124-.57813 0-.89063.29688-.32813.28126-.32813.8125 0 .57812.39063.90626.39063.3281 1.04687.3281v1.70314q-.78124 0-1.42187-.375-.65625-.375-1.01563-1.04688-.375-.6875-.375-1.54686 0-1.3125.64063-2.0469.625-.73436 1.78125-.73436.64062 0 1.29688.32812.65624.32814 1.53124 1.125l2.04688 1.9375v-3.65626zm-3.53126-6.90624q1.76563 0 2.71876.73438.9375.73436.9375 2.14062 0 1.40624-.92188 2.14064-.92188.73436-2.64062.75h-1.57813q-1.78125 0-2.70313-.7344-.9375-.75-.9375-2.1406 0-1.39064.92188-2.125.92188-.75001 2.64062-.76564zm-1.71874 1.70314q-1.0625 0-1.54688.29686-.48438.28124-.48438.89064 0 .59374.46876.8906.45312.28126 1.4375.2969h2.0625q1.04687 0 1.5625-.28126.5-.28124.5-.92188 0-.60936-.48438-.89062-.48438-.28124-1.48438-.28124zm1.71874-8.70314q1.76563 0 2.71876.73438.9375.73437.9375 2.14062 0 1.40625-.92188 2.14063-.92188.73437-2.64062.75h-1.57813q-1.78125 0-2.70313-.73438-.9375-.75-.9375-2.14062 0-1.39063.92188-2.125.92188-.75 2.64062-.76563zm-1.71874 1.70313q-1.0625 0-1.54688.29687-.48438.28125-.48438.89063 0 .59375.46876.89062.45312.28125 1.4375.29688h2.0625q1.04687 0 1.5625-.28125.5-.28125.5-.92188 0-.60937-.48438-.89062-.48438-.28125-1.48438-.28125zm1.84374-6.92188q.64063.67188.64063 1.54688 0 1.14062-.76563 1.82812-.78124.67188-2.09374.67188-.84376 0-1.54688-.35938-.70312-.375-1.09375-1.03125-.39063-.65625-.39063-1.48437 0-.84375.42188-1.5.42188-.65625 1.21875-1.01563.79687-.35937 1.8125-.375h.625q2.14063 0 3.35937 1.0625 1.21876 1.0625 1.29688 3.01563v.40625h-1.40625l-.01563-.375q-.09374-2.20313-2.0625-2.39063zm-.65624 1.14063q0-.42188-.20313-.70313-.21875-.29687-.51563-.45312h-.6875q-.85937 0-1.32812.32812-.48438.32813-.48438.875 0 .51563.46876.84375.45312.32813 1.15624.32813.70313 0 1.15626-.3125.4375-.32813.4375-.90625z"/><path d="m262.66278 262.74478v5.84375h-1.15625l-2.95313-2.76563q-.60937-.5625-1.07812-.82812-.46875-.28125-.875-.28125-.57812 0-.89062.29687-.32813.28126-.32813.8125 0 .57813.39063.90626.39062.32812 1.04687.32812v1.70312q-.78125 0-1.42187-.375-.65626-.375-1.01563-1.04687-.375-.6875-.375-1.54687 0-1.3125.64063-2.04688.625-.73438 1.78124-.73438.64063 0 1.29688.32813.65625.32813 1.53125 1.125l2.04687 1.9375v-3.65625zm-3.53125-6.90625q1.76563 0 2.71875.73437.9375.73438.9375 2.14063 0 1.40625-.92188 2.14063-.92187.73437-2.64062.75h-1.57812q-1.78126 0-2.70313-.73438-.9375-.75-.9375-2.14062 0-1.39063.92187-2.125.92188-.75 2.64063-.76563zm-1.71875 1.70313q-1.0625 0-1.54688.29687-.48437.28125-.48437.89063 0 .59374.46875.89062.45312.28125 1.4375.29688h2.0625q1.04688 0 1.5625-.28126.5-.28124.5-.92187 0-.60937-.48438-.89063-.48437-.28124-1.48437-.28124zm5.25-7.0625v1.6875h-6.53125l.625 2.01562h-1.375l-1.26563-3.53125v-.17187zm-3.53125-8.64063q1.76563 0 2.71875.73437.9375.73438.9375 2.14063 0 1.40625-.92188 2.14063-.92187.73437-2.64062.75h-1.57812q-1.78126 0-2.70313-.73438-.9375-.75-.9375-2.14062 0-1.39063.92187-2.125.92188-.75 2.64063-.76563zm-1.71875 1.70313q-1.0625 0-1.54688.29687-.48437.28125-.48437.89063 0 .59374.46875.89062.45312.28125 1.4375.29688h2.0625q1.04688 0 1.5625-.28126.5-.28124.5-.92187 0-.60937-.48438-.89063-.48437-.28124-1.48437-.28124z"/><path d="m286.8314 262.74478v5.84375h-1.15626l-2.95312-2.76563q-.60938-.5625-1.07812-.82812-.46876-.28125-.875-.28125-.57813 0-.89063.29687-.32813.28126-.32813.8125 0 .57813.39063.90626.39063.32812 1.04687.32812v1.70312q-.78124 0-1.42187-.375-.65625-.375-1.01563-1.04687-.375-.6875-.375-1.54687 0-1.3125.64063-2.04688.625-.73438 1.78125-.73438.64062 0 1.29688.32813.65624.32813 1.53124 1.125l2.04688 1.9375v-3.65625zm-3.53126-6.90623q1.76563 0 2.71876.73435.9375.73438.9375 2.14063 0 1.40625-.92188 2.14063-.92188.73437-2.64062.75h-1.57813q-1.78125 0-2.70313-.73438-.9375-.75-.9375-2.14062 0-1.39063.92188-2.125.92188-.74999 2.64062-.76561zm-1.71874 1.70311q-1.0625 0-1.54688.29687-.48438.28125-.48438.89063 0 .59374.46876.89062.45312.28125 1.4375.29688h2.0625q1.04687 0 1.5625-.28126.5-.28124.5-.92187 0-.60937-.48438-.89063-.48438-.28124-1.48438-.28124zm5.25-7.06249v1.6875h-6.53126l.625 2.01563h-1.375l-1.26562-3.53125v-.17188zm0-7v1.6875h-6.53126l.625 2.01563h-1.375l-1.26562-3.53125v-.17188z"/><path d="m311 262.7448v5.84376h-1.15625l-2.95313-2.76562q-.60937-.5625-1.07812-.82814-.46875-.28124-.875-.28124-.57812 0-.89062.29688-.32813.28126-.32813.8125 0 .57812.39063.90626.39062.3281 1.04687.3281v1.70314q-.78125 0-1.42187-.375-.65626-.375-1.01563-1.04688-.375-.6875-.375-1.54686 0-1.3125.64063-2.0469.625-.73436 1.78124-.73436.64063 0 1.29688.32812.65625.32814 1.53125 1.125l2.04687 1.9375v-3.65626zm-3.53125-6.90625q1.76563 0 2.71875.73439.9375.73436.9375 2.14062 0 1.40624-.92188 2.14064-.92187.73436-2.64062.75h-1.57812q-1.78126 0-2.70313-.7344-.9375-.75-.9375-2.1406 0-1.39064.92187-2.125.92188-.75003 2.64063-.76565zm-1.71875 1.70315q-1.0625 0-1.54688.29686-.48437.28124-.48437.89064 0 .59374.46875.8906.45312.28126 1.4375.2969h2.0625q1.04688 0 1.5625-.28126.5-.28124.5-.92188 0-.60936-.48438-.89062-.48437-.28124-1.48437-.28124zm5.25-7.06253v1.6875h-6.53125l.625 2.01563h-1.375l-1.26563-3.53125v-.17188zm0-8.73437v5.84375h-1.15625l-2.95313-2.76563q-.60937-.5625-1.07812-.82812-.46875-.28125-.875-.28125-.57812 0-.89062.29687-.32813.28125-.32813.8125 0 .57813.39063.90625.39062.32813 1.04687.32813v1.70312q-.78125 0-1.42187-.375-.65626-.375-1.01563-1.04687-.375-.6875-.375-1.54688 0-1.3125.64063-2.04687.625-.73438 1.78124-.73438.64063 0 1.29688.32813.65625.32812 1.53125 1.125l2.04687 1.9375v-3.65625z"/><path d="m335.16864 262.74478v5.84375h-1.15624l-2.95313-2.76563q-.60937-.5625-1.07813-.82812-.46874-.28125-.875-.28125-.57814 0-.89064.29687-.3281.28126-.3281.8125 0 .57813.3906.90626.39064.32812 1.0469.32812v1.70312q-.78126 0-1.4219-.375-.65623-.375-1.0156-1.04687-.375-.6875-.375-1.54687 0-1.3125.6406-2.04688.625-.73438 1.78127-.73438.64063 0 1.29687.32813.65626.32813 1.53126 1.125l2.04687 1.9375v-3.65625zm-3.53124-6.90625q1.7656 0 2.71874.73437.9375.73438.9375 2.14063 0 1.40625-.92187 2.14063-.92187.73437-2.64063.75h-1.57814q-1.78123 0-2.7031-.73438-.9375-.75-.9375-2.14062 0-1.39063.92187-2.125.92187-.75 2.64063-.76563zm-1.71876 1.70313q-1.0625 0-1.54687.29687-.48437.28125-.48437.89063 0 .59374.46874.89062.45313.28125 1.4375.29688h2.0625q1.04686 0 1.5625-.28126.5-.28124.5-.92187 0-.60937-.48437-.89063-.48437-.28124-1.48437-.28124zm5.25-7.0625v1.6875h-6.53124l.625 2.01562h-1.375l-1.26563-3.53125v-.17187zm-5.01564-4.60938v-.90625q0-.64063-.3125-.95313-.3281-.3125-.85936-.3125-.51564 0-.79687.3125-.29687.29688-.29687.84376 0 .48437.2656.8125.26564.32812.6875.32812v1.6875q-.65623 0-1.1875-.35938-.53123-.35937-.8281-1-.3125-.65624-.3125-1.4375 0-1.34374.65624-2.10937.64063-.78125 1.78126-.78125.59374 0 1.09374.35938.48436.35937.73436.9375.26564-.71876.78127-1.0625.51563-.35938 1.21873-.35938 1.14064 0 1.82814.82812.6875.82813.6875 2.1875 0 1.28126-.67187 2.09376-.6875.8125-1.79687.8125v-1.6875q.48437 0 .79687-.35938.29687-.375.29687-.89062 0-.60938-.3125-.95313-.32814-.34375-.85937-.34375-1.26563 0-1.26563 1.40625v.90625z"/><path d="m359.33725 262.74478v5.84375h-1.15625l-2.95313-2.76563q-.60937-.5625-1.07812-.82812-.46875-.28125-.875-.28125-.57813 0-.89063.29687-.32812.28126-.32812.8125 0 .57813.39062.90626.39063.32812 1.04688.32812v1.70312q-.78125 0-1.42188-.375-.65625-.375-1.01562-1.04687-.375-.6875-.375-1.54687 0-1.3125.64062-2.04688.625-.73438 1.78125-.73438.64063 0 1.29688.32813.65625.32813 1.53125 1.125l2.04687 1.9375v-3.65625zm-3.53125-6.90625q1.76562 0 2.71875.73437.9375.73438.9375 2.14063 0 1.40625-.92188 2.14063-.92187.73437-2.64062.75h-1.57813q-1.78125 0-2.70312-.73438-.9375-.75-.9375-2.14062 0-1.39063.92187-2.125.92188-.75 2.64063-.76563zm-1.71875 1.70313q-1.0625 0-1.54688.29687-.48437.28125-.48437.89063 0 .59374.46875.89062.45312.28125 1.4375.29688h2.0625q1.04687 0 1.5625-.28126.5-.28124.5-.92187 0-.60937-.48438-.89063-.48437-.28124-1.48437-.28124zm5.25-7.0625v1.6875h-6.53125l.625 2.01562h-1.375l-1.26563-3.53125v-.17187zm-3.21875-7.90626v-.96874h1.375v.96874h1.84375v1.70313h-1.84375v3.48437l-1.0625.07813-5.625-3.54687v-1.71876zm0 3.57813v-1.875h-3l.1875.10937z"/><path d="m383.50586 262.7448v5.84376h-1.15626l-2.95312-2.76562q-.60938-.5625-1.07812-.82814-.46876-.28124-.875-.28124-.57813 0-.89063.29688-.32813.28126-.32813.8125 0 .57812.39063.90626.39063.3281 1.04687.3281v1.70314q-.78124 0-1.42187-.375-.65625-.375-1.01563-1.04688-.375-.6875-.375-1.54686 0-1.3125.64063-2.0469.625-.73436 1.78125-.73436.64062 0 1.29688.32812.65624.32814 1.53124 1.125l2.04688 1.9375v-3.65626zm-3.53126-6.90625q1.76563 0 2.71876.73439.9375.73436.9375 2.14062 0 1.40624-.92188 2.14064-.92188.73436-2.64062.75h-1.57813q-1.78125 0-2.70313-.7344-.9375-.75-.9375-2.1406 0-1.39064.92188-2.125.92188-.75003 2.64062-.76565zm-1.71874 1.70315q-1.0625 0-1.54688.29686-.48438.28124-.48438.89064 0 .59374.46876.8906.45312.28126 1.4375.2969h2.0625q1.04687 0 1.5625-.28126.5-.28124.5-.92188 0-.60936-.48438-.89062-.48438-.28124-1.48438-.28124zm5.25-7.06253v1.6875h-6.53126l.625 2.01563h-1.375l-1.26562-3.53125v-.17188zm-4.20313-3.14062-4.32813-.5v-4.78125h1.40626v3.39062l1.84374.21875q-.32812-.60937-.32812-1.28125 0-1.21875.76562-1.90625.75-.70312 2.10938-.70312.82812 0 1.48438.35937.64062.34375 1.01562 1 .35938.64063.35938 1.53125 0 .76563-.3125 1.4375-.32813.65625-.89063 1.04688-.5625.375-1.29687.40625v-1.6875q.53124-.04688.82812-.35938.29688-.32812.29688-.84375 0-.57812-.40626-.875-.42187-.3125-1.17187-.3125-.73437 0-1.10937.35938-.39063.34375-.39063 1 0 .60937.3125.98437l.15625.15625z"/><path d="m407.67447 262.7448v5.84376h-1.15625l-2.95312-2.76562q-.60938-.5625-1.07813-.82814-.46875-.28124-.875-.28124-.57813 0-.89063.29688-.32812.28126-.32812.8125 0 .57812.39062.90626.39063.3281 1.04688.3281v1.70314q-.78125 0-1.42188-.375-.65624-.375-1.01562-1.04688-.375-.6875-.375-1.54686 0-1.3125.64062-2.0469.625-.73436 1.78126-.73436.64062 0 1.29687.32812.65625.32814 1.53125 1.125l2.04688 1.9375v-3.65626zm-3.53125-6.90624q1.76562 0 2.71875.73438.9375.73436.9375 2.14062 0 1.40624-.92187 2.14064-.92188.73436-2.64063.75h-1.57813q-1.78124 0-2.70312-.7344-.9375-.75-.9375-2.1406 0-1.39064.92188-2.125.92187-.75001 2.64062-.76564zm-1.71875 1.70314q-1.0625 0-1.54687.29686-.48438.28124-.48438.89064 0 .59374.46875.8906.45313.28126 1.4375.2969h2.0625q1.04687 0 1.5625-.28126.5-.28124.5-.92188 0-.60936-.48437-.89062-.48438-.28124-1.48438-.28124zm5.25-7.06251v1.6875h-6.53125l.625 2.01562h-1.375l-1.26562-3.53125v-.17187zm-8.625-7.48438h1.40625v.15625q.01562 1.15625.59375 1.85938.57813.6875 1.60937.82812-.6875-.67187-.6875-1.70312 0-1.125.79688-1.78125.79688-.65625 2.09375-.65625.82813 0 1.5.35937.67187.35938 1.0625 1.03125.375.65625.375 1.48438 0 1.34375-.9375 2.17187-.95313.82813-2.51563.82813h-.60937q-1.39063 0-2.45313-.51563-1.0625-.53125-1.64062-1.5-.57812-.98437-.59375-2.28125zm4.28125 1.65625q0 .40625.21875.75.20313.32813.5625.48438h.51563q.84374 0 1.32812-.32813.46875-.34375.46875-.95312 0-.54688-.42187-.875-.4375-.34375-1.125-.34375-.70313 0-1.125.34375-.42188.34375-.42188.92187z"/><path d="m431.8431 262.74478v5.84375h-1.15624l-2.95313-2.76563q-.60937-.5625-1.07813-.82812-.46874-.28125-.875-.28125-.57812 0-.89062.29687-.32812.28126-.32812.8125 0 .57813.39062.90626.39062.32812 1.04688.32812v1.70312q-.78126 0-1.42188-.375-.65625-.375-1.01562-1.04687-.375-.6875-.375-1.54687 0-1.3125.64062-2.04688.625-.73438 1.78125-.73438.64063 0 1.29687.32813.65626.32813 1.53126 1.125l2.04687 1.9375v-3.65625zm-3.53124-6.90625q1.76562 0 2.71874.73437.9375.73438.9375 2.14063 0 1.40625-.92187 2.14063-.92187.73437-2.64063.75h-1.57812q-1.78125 0-2.70312-.73438-.9375-.75-.9375-2.14062 0-1.39063.92187-2.125.92187-.75 2.64063-.76563zm-1.71876 1.70313q-1.0625 0-1.54687.29687-.48437.28125-.48437.89063 0 .59374.46874.89062.45313.28125 1.4375.29688h2.0625q1.04688 0 1.5625-.28126.5-.28124.5-.92187 0-.60937-.48437-.89063-.48437-.28124-1.48437-.28124zm5.25-7.0625v1.6875h-6.53124l.625 2.01562h-1.375l-1.26563-3.53125v-.17187zm-7.57812-8.6875 7.57812 3.29687v1.78125l-7.15624-3.29688v4.23438h-1.375v-6.01562z"/><path d="m456.01172 262.74478v5.84375h-1.15625l-2.95313-2.76563q-.60937-.5625-1.07812-.82812-.46875-.28125-.875-.28125-.57812 0-.89062.29687-.32813.28126-.32813.8125 0 .57813.39063.90626.39062.32812 1.04687.32812v1.70312q-.78125 0-1.42187-.375-.65626-.375-1.01563-1.04687-.375-.6875-.375-1.54687 0-1.3125.64063-2.04688.625-.73438 1.78124-.73438.64063 0 1.29688.32813.65625.32813 1.53125 1.125l2.04687 1.9375v-3.65625zm-3.53125-6.90623q1.76563 0 2.71875.73435.9375.73438.9375 2.14063 0 1.40625-.92188 2.14063-.92187.73437-2.64062.75h-1.57812q-1.78126 0-2.70313-.73438-.9375-.75-.9375-2.14062 0-1.39063.92187-2.125.92188-.74999 2.64063-.76561zm-1.71875 1.70311q-1.0625 0-1.54688.29687-.48437.28125-.48437.89063 0 .59374.46875.89062.45312.28125 1.4375.29688h2.0625q1.04688 0 1.5625-.28126.5-.28124.5-.92187 0-.60937-.48438-.89063-.48437-.28124-1.48437-.28124zm5.25-7.06249v1.6875h-6.53125l.625 2.01563h-1.375l-1.26563-3.53125v-.17188zm-6.26562-8.45312q.625 0 1.10937.3125.46875.3125.76563.85937.29687-.625.82812-.98437.51562-.375 1.21875-.375 1.14063 0 1.8125.78125.65625.76562.65625 2.10937 0 1.32813-.65625 2.10938-.67187.76562-1.8125.76562-.70313 0-1.23437-.35937-.53126-.35938-.8125-.98438-.29688.54688-.76563.85938-.48437.3125-1.10937.3125-1.09376 0-1.73438-.71875-.65625-.73438-.65625-1.98438 0-1.25.65625-1.96875.64062-.73437 1.73438-.73437zm3.79687 1.51562q-.54687 0-.875.32813-.34375.3125-.34375.85937 0 .54688.32812.875.32813.3125.89063.3125.54687 0 .89063-.3125.32812-.32812.32812-.89062 0-.54688-.3125-.85938-.32812-.3125-.90625-.3125zm-3.71875.17188q-.5 0-.79688.26562-.29687.26563-.29687.75 0 .46875.29687.73438.28126.26562.79688.26562.51562 0 .82812-.26562.3125-.26563.3125-.73438 0-.48437-.3125-.75-.3125-.26562-.82812-.26562z"/><path d="m480.18033 262.7448v5.84376h-1.15625l-2.95313-2.76562q-.60937-.5625-1.07812-.82814-.46875-.28124-.875-.28124-.57813 0-.89063.29688-.32812.28126-.32812.8125 0 .57812.39062.90626.39063.3281 1.04688.3281v1.70314q-.78125 0-1.42188-.375-.65625-.375-1.01562-1.04688-.375-.6875-.375-1.54686 0-1.3125.64062-2.0469.625-.73436 1.78125-.73436.64063 0 1.29688.32812.65625.32814 1.53125 1.125l2.04687 1.9375v-3.65626zm-3.53125-6.90625q1.76562 0 2.71875.73439.9375.73436.9375 2.14062 0 1.40624-.92188 2.14064-.92187.73436-2.64062.75h-1.57813q-1.78125 0-2.70312-.7344-.9375-.75-.9375-2.1406 0-1.39064.92187-2.125.92188-.75003 2.64063-.76565zm-1.71875 1.70315q-1.0625 0-1.54688.29686-.48437.28124-.48437.89064 0 .59374.46875.8906.45312.28126 1.4375.2969h2.0625q1.04687 0 1.5625-.28126.5-.28124.5-.92188 0-.60936-.48438-.89062-.48437-.28124-1.48437-.28124zm5.25-7.06253v1.6875h-6.53125l.625 2.01563h-1.375l-1.26563-3.53125v-.17188zm-3.40625-6.85937q.64062.67187.64062 1.54687 0 1.14063-.76562 1.82813-.78125.67187-2.09375.67187-.84375 0-1.54688-.35937-.70312-.375-1.09375-1.03125-.39062-.65625-.39062-1.48438 0-.84375.42187-1.5.42188-.65625 1.21875-1.01562.79688-.35938 1.8125-.375h.625q2.14063 0 3.35938 1.0625 1.21875 1.0625 1.29687 3.01562v.40625h-1.40625l-.01562-.375q-.09375-2.20312-2.0625-2.39062zm-.65625 1.14062q0-.42187-.20313-.70312-.21875-.29688-.51562-.45313h-.6875q-.85938 0-1.32813.32813-.48437.32812-.48437.875 0 .51562.46875.84375.45312.32812 1.15625.32812.70312 0 1.15625-.3125.4375-.32812.4375-.90625z"/><path d="m504.34897 262.74478v5.84375h-1.15625l-2.95312-2.76563q-.60938-.5625-1.07813-.82812-.46875-.28125-.875-.28125-.57813 0-.89063.29687-.32812.28126-.32812.8125 0 .57813.39062.90626.39063.32812 1.04688.32812v1.70312q-.78125 0-1.42188-.375-.65624-.375-1.01562-1.04687-.375-.6875-.375-1.54687 0-1.3125.64062-2.04688.625-.73438 1.78126-.73438.64062 0 1.29687.32813.65625.32813 1.53125 1.125l2.04688 1.9375v-3.65625zm-3.53125-6.90625q1.76562 0 2.71875.73437.9375.73438.9375 2.14063 0 1.40625-.92187 2.14063-.92188.73437-2.64063.75h-1.57813q-1.78124 0-2.70312-.73438-.9375-.75-.9375-2.14062 0-1.39063.92188-2.125.92187-.75 2.64062-.76563zm-1.71875 1.70313q-1.0625 0-1.54687.29687-.48438.28125-.48438.89063 0 .59374.46875.89062.45313.28125 1.4375.29688h2.0625q1.04687 0 1.5625-.28126.5-.28124.5-.92187 0-.60937-.48437-.89063-.48438-.28124-1.48438-.28124zm5.25-8.79688v5.84375h-1.15625l-2.95312-2.76563q-.60938-.5625-1.07813-.82812-.46875-.28125-.875-.28125-.57813 0-.89063.29687-.32812.28126-.32812.8125 0 .57813.39062.90626.39063.32812 1.04688.32812v1.70312q-.78125 0-1.42188-.375-.65624-.375-1.01562-1.04687-.375-.6875-.375-1.54687 0-1.3125.64062-2.04688.625-.73438 1.78126-.73438.64062 0 1.29687.32813.65625.32813 1.53125 1.125l2.04688 1.9375v-3.65625zm-3.53125-6.90625q1.76562 0 2.71875.73437.9375.73438.9375 2.14063 0 1.40625-.92187 2.14063-.92188.73437-2.64063.75h-1.57813q-1.78124 0-2.70312-.73438-.9375-.75-.9375-2.14062 0-1.39063.92188-2.125.92187-.75 2.64062-.76563zm-1.71875 1.70313q-1.0625 0-1.54687.29687-.48438.28125-.48438.89063 0 .59374.46875.89062.45313.28125 1.4375.29688h2.0625q1.04687 0 1.5625-.28126.5-.28124.5-.92187 0-.60937-.48437-.89063-.48438-.28124-1.48438-.28124z"/><path d="m528.5176 262.7448v5.84376h-1.1563l-2.9531-2.76562q-.6094-.5625-1.0781-.82814-.4688-.28124-.875-.28124-.57815 0-.89065.29688-.32815.28126-.32815.8125 0 .57812.39065.90626.39065.3281 1.04685.3281v1.70314q-.7812 0-1.42185-.375-.65625-.375-1.01565-1.04688-.375-.6875-.375-1.54686 0-1.3125.64065-2.0469.625-.73436 1.78125-.73436.6406 0 1.2969.32812.6562.32814 1.5312 1.125l2.0469 1.9375v-3.65626zm-3.5313-6.90624q1.76565 0 2.7188.73438.9375.73436.9375 2.14062 0 1.40624-.9219 2.14064-.9219.73436-2.6406.75h-1.57815q-1.78125 0-2.70315-.7344-.9375-.75-.9375-2.1406 0-1.39064.9219-2.125.9219-.75001 2.6406-.76564zm-1.7187 1.70314q-1.0625 0-1.5469.29686-.4844.28124-.4844.89064 0 .59374.4688.8906.4531.28126 1.4375.2969h2.0625q1.04685 0 1.5625-.28126.5-.28124.5-.92188 0-.60936-.4844-.89062-.4844-.28124-1.4844-.28124zm5.25-8.79689v5.84375h-1.1563l-2.9531-2.76562q-.6094-.5625-1.0781-.82813-.4688-.28125-.875-.28125-.57815 0-.89065.29688-.32815.28125-.32815.8125 0 .57812.39065.90625.39065.32812 1.04685.32812v1.70313q-.7812 0-1.42185-.375-.65625-.375-1.01565-1.04688-.375-.6875-.375-1.54687 0-1.3125.64065-2.04688.625-.73437 1.78125-.73437.6406 0 1.2969.32812.6562.32813 1.5312 1.125l2.0469 1.9375v-3.65625zm0-5.26562v1.6875h-6.5313l.625 2.01562h-1.375l-1.2656-3.53125v-.17187z"/><path d="m552.6862 262.7448v5.84376h-1.15623l-2.95313-2.76562q-.60937-.5625-1.07814-.82814-.46873-.28124-.875-.28124-.5781 0-.8906.29688-.32813.28126-.32813.8125 0 .57812.39063.90626.3906.3281 1.04687.3281v1.70314q-.78127 0-1.42187-.375-.65626-.375-1.01563-1.04688-.375-.6875-.375-1.54686 0-1.3125.64063-2.0469.625-.73436 1.78124-.73436.64063 0 1.29686.32812.65627.32814 1.53127 1.125l2.04687 1.9375v-3.65626zm-3.53123-6.90625q1.76563 0 2.71873.73439.9375.73436.9375 2.14062 0 1.40624-.92186 2.14064-.92187.73436-2.64064.75h-1.5781q-1.78126 0-2.70313-.7344-.9375-.75-.9375-2.1406 0-1.39064.92187-2.125.92186-.75003 2.64063-.76565zm-1.71877 1.70315q-1.0625 0-1.54686.29686-.48437.28124-.48437.89064 0 .59374.46873.8906.45314.28126 1.4375.2969h2.0625q1.0469 0 1.5625-.28126.5-.28124.5-.92188 0-.60936-.48436-.89062-.48437-.28124-1.48437-.28124zm5.25-8.7969v5.84375h-1.15623l-2.95313-2.76563q-.60937-.5625-1.07814-.82812-.46873-.28125-.875-.28125-.5781 0-.8906.29687-.32813.28125-.32813.8125 0 .57813.39063.90625.3906.32813 1.04687.32813v1.70312q-.78127 0-1.42187-.375-.65626-.375-1.01563-1.04687-.375-.6875-.375-1.54688 0-1.3125.64063-2.04687.625-.73438 1.78124-.73438.64063 0 1.29686.32813.65627.32812 1.53127 1.125l2.04687 1.9375v-3.65625zm0-7v5.84375h-1.15623l-2.95313-2.76563q-.60937-.5625-1.07814-.82812-.46873-.28125-.875-.28125-.5781 0-.8906.29687-.32813.28125-.32813.8125 0 .57813.39063.90625.3906.32813 1.04687.32813v1.70312q-.78127 0-1.42187-.375-.65626-.375-1.01563-1.04687-.375-.6875-.375-1.54688 0-1.3125.64063-2.04687.625-.73438 1.78124-.73438.64063 0 1.29686.32813.65627.32812 1.53127 1.125l2.04687 1.9375v-3.65625z"/></g><path d="m182.5 282c0-.55228.44771-1 1-1h10c.55229 0 1 .44772 1 1v10c0 .55228-.44771 1-1 1h-10c-.55229 0-1-.44772-1-1z" fill="#70ad47"/><path d="m204.9375 282.96875 2.79688 6.95313 2.78124-6.95313h1.46876v8.53125h-1.125v-3.32812l.10937-3.57813-2.8125 6.90625h-.85937l-2.79688-6.89062.10938 3.5625v3.32812h-1.125v-8.53125zm11.01562 8.65625q-1.29687 0-2.10937-.84375-.79687-.85937-.79687-2.28125v-.1875q0-.95312.35937-1.6875.35937-.75 1-1.15625.65625-.42187 1.40625-.42187 1.23438 0 1.92188.8125.6875.8125.6875 2.32812v.45312h-4.29688q.03125.9375.54688 1.51563.53124.57813 1.34374.57813.5625 0 .95313-.23438.40625-.23438.71875-.625l.65625.51562q-.79687 1.23438-2.39063 1.23438zm-.14062-5.6875q-.65625 0-1.10938.48438-.4375.46874-.53124 1.32812h3.17187v-.07812q-.04687-.82813-.45313-1.28126-.39062-.45312-1.07812-.45312zm4.53125 4.67188h3.70313v.89062h-5.03126v-.79688l3.5-4.64062h-3.45312v-.90625h4.8125v.76563zm1.15625-7.10938.89062-1h.9375v.0625l-1.5 1.60938h-.65624l-1.46876-1.60938v-.0625h.92188zm7.73438 8q-.09376-.1875-.15626-.67188-.75.79688-1.79687.79688-.9375 0-1.54687-.53125-.59376-.53125-.59376-1.35937 0-.98438.75-1.53126.75-.54687 2.125-.54687h1.04688v-.5q0-.5625-.34375-.89063-.32813-.34374-1-.34374-.57813 0-.96875.29687-.39062.28125-.39062.70313h-1.09376q0-.48438.32813-.92188.34375-.4375.92187-.6875.57813-.26562 1.26563-.26562 1.10937 0 1.71875.54687.625.54687.65625 1.5v2.92187q0 .875.21875 1.39063v.09375zm-1.79688-.82812q.51562 0 .96875-.26563.45313-.26563.65625-.6875v-1.29687h-.84375q-2 0-2 1.17187 0 .5.34375.79687.34375.28126.875.28126zm9.0625.82812h-1.07812v-6.34375h1.07812zm-1.17188-8.01562q0-.26563.15626-.45313.17187-.1875.48437-.1875.3125 0 .46875.1875.17188.1875.17188.45313 0 .25-.17188.4375-.15625.17187-.46875.17187-.3125 0-.48437-.17187-.15626-.1875-.15626-.4375zm5.625 8.14062q-1.29687 0-2.10937-.84375-.79687-.85937-.79687-2.28125v-.1875q0-.95312.35937-1.6875.35937-.75 1-1.15625.65625-.42187 1.40625-.42187 1.23438 0 1.92188.8125.6875.8125.6875 2.32812v.45312h-4.29688q.03125.9375.54688 1.51563.53124.57813 1.34374.57813.5625 0 .95313-.23438.40625-.23438.71875-.625l.65625.51562q-.79687 1.23438-2.39063 1.23438zm-.14062-5.6875q-.65625 0-1.10938.48438-.4375.46874-.53124 1.32812h3.17187v-.07812q-.04687-.82813-.45313-1.28126-.39062-.45312-1.07812-.45312zm7.42188 5.5625q-.09376-.1875-.15626-.67188-.75.79688-1.79687.79688-.9375 0-1.54687-.53125-.59376-.53125-.59376-1.35937 0-.98438.75-1.53126.75-.54687 2.125-.54687h1.04688v-.5q0-.5625-.34375-.89063-.32813-.34374-1-.34374-.57813 0-.96875.29687-.39062.28125-.39062.70313h-1.09376q0-.48438.32813-.92188.34375-.4375.92187-.6875.57813-.26562 1.26563-.26562 1.10937 0 1.71875.54687.625.54687.65625 1.5v2.92187q0 .875.21875 1.39063v.09375zm-1.79688-.82812q.51562 0 .96875-.26563.45313-.26563.65625-.6875v-1.29687h-.84375q-2 0-2 1.17187 0 .5.34375.79687.34375.28126.875.28126zm8.79688.20312q-.625.75-1.85938.75-1.01562 0-1.54688-.59375-.53124-.59375-.53124-1.75v-4.125h1.07812v4.09375q0 1.45312 1.17188 1.45312 1.25 0 1.65624-.9375v-4.60937h1.09376v6.34375h-1.03126zm2.82812-2.59375q0-1.46875.6875-2.34375.6875-.89062 1.8125-.89062 1.10938 0 1.76562.75v-3.29688h1.07813v9h-1l-.04687-.6875q-.65626.8125-1.8125.8125-1.09376 0-1.79688-.90625-.6875-.90625-.6875-2.35937zm1.07812.125q0 1.07813.4375 1.6875.45313.60937 1.23438.60937 1.03125 0 1.51562-.9375v-2.90624q-.48437-.89063-1.5-.89063-.79687 0-1.25.60937-.4375.60938-.4375 1.82813zm7.20313 2.20313h3.70313v.89062h-5.03126v-.79688l3.5-4.64062h-3.45312v-.90625h4.8125v.76563zm7.60937 1.01562q-1.29687 0-2.10937-.84375-.79687-.85937-.79687-2.28125v-.1875q0-.95312.35937-1.6875.35937-.75 1-1.15625.65625-.42187 1.40625-.42187 1.23438 0 1.92188.8125.6875.8125.6875 2.32812v.45312h-4.29688q.03125.9375.54688 1.51563.53124.57813 1.34374.57813.5625 0 .95313-.23438.40625-.23438.71875-.625l.65625.51562q-.79687 1.23438-2.39063 1.23438zm-.14062-5.6875q-.65625 0-1.10938.48438-.4375.46874-.53124 1.32812h3.17187v-.07812q-.04687-.82813-.45313-1.28126-.39062-.45312-1.07812-.45312zm2-2.10938h-3.9375v-.84374h3.9375zm5.20312 5.98438q0-.4375-.34374-.67188-.32813-.25-1.15626-.42187-.8125-.17187-1.29687-.42187-.48437-.25-.71875-.57813-.21875-.34375-.21875-.8125 0-.78125.65625-1.3125.65625-.54687 1.6875-.54687 1.07812 0 1.73438.5625.67187.54687.67187 1.40624h-1.07813q0-.4375-.39062-.75-.375-.32812-.9375-.32812-.59375 0-.9375.26562-.32812.25-.32812.65626 0 .39062.3125.59374.3125.20313 1.125.39063.8125.17187 1.3125.42187.5.25.73437.60938.25.35938.25.85938 0 .85937-.6875 1.375-.67187.51562-1.75.51562-.76563 0-1.35937-.26562-.57813-.28126-.90626-.76563-.32812-.48437-.32812-1.04687h1.07812q.03126.54687.4375.875.40626.3125 1.07813.3125.60937 0 .98437-.25.375-.25.375-.67188zm-1.23437-6.3125.89063-1h.9375v.0625l-1.5 1.60938h-.65626l-1.46874-1.60938v-.0625h.92187zm7.45313 8q-.09376-.1875-.15626-.67188-.75.79688-1.79687.79688-.9375 0-1.54687-.53125-.59376-.53125-.59376-1.35937 0-.98438.75-1.53126.75-.54687 2.125-.54687h1.04688v-.5q0-.5625-.34375-.89063-.32813-.34374-1-.34374-.57813 0-.96875.29687-.39062.28125-.39062.70313h-1.09376q0-.48438.32813-.92188.34375-.4375.92187-.6875.57813-.26562 1.26563-.26562 1.10937 0 1.71875.54687.625.54687.65625 1.5v2.92187q0 .875.21875 1.39063v.09375zm-1.79688-.82812q.51562 0 .96875-.26563.45313-.26563.65625-.6875v-1.29687h-.84375q-2 0-2 1.17187 0 .5.34375.79687.34375.28126.875.28126zm5.90625-5.51563.03125.79687q.73438-.90624 1.90625-.90624 2.01563 0 2.03125 2.26562v4.1875h-1.09375v-4.20312q0-.67188-.3125-1-.29687-.32813-.95313-.32813-.53124 0-.9375.28125-.39062.28125-.60937.73438v4.51562h-1.07813v-6.34375zm9.89063 6.34375q-.09376-.1875-.15626-.67188-.75.79688-1.79687.79688-.9375 0-1.54687-.53125-.59376-.53125-.59376-1.35937 0-.98438.75-1.53126.75-.54687 2.125-.54687h1.04688v-.5q0-.5625-.34375-.89063-.32813-.34374-1-.34374-.57813 0-.96875.29687-.39062.28125-.39062.70313h-1.09376q0-.48438.32813-.92188.34375-.4375.92187-.6875.57813-.26562 1.26563-.26562 1.10937 0 1.71875.54687.625.54687.65625 1.5v2.92187q0 .875.21875 1.39063v.09375zm-1.79688-.82812q.51562 0 .96875-.26563.45313-.26563.65625-.6875v-1.29687h-.84375q-2 0-2 1.17187 0 .5.34375.79687.34375.28126.875.28126zm9.1875-.09376h4.04688v.92188h-5.1875v-8.53125h1.14062zm8.60938.92188q-.09376-.1875-.15626-.67188-.75.79688-1.79687.79688-.9375 0-1.54687-.53125-.59376-.53125-.59376-1.35937 0-.98438.75-1.53126.75-.54687 2.125-.54687h1.04688v-.5q0-.5625-.34375-.89063-.32813-.34374-1-.34374-.57813 0-.96875.29687-.39062.28125-.39062.70313h-1.09376q0-.48438.32813-.92188.34375-.4375.92187-.6875.57813-.26562 1.26563-.26562 1.10937 0 1.71875.54687.625.54687.65625 1.5v2.92187q0 .875.21875 1.39063v.09375zm-1.79688-.82812q.51562 0 .96875-.26563.45313-.26563.65625-.6875v-1.29687h-.84375q-2 0-2 1.17187 0 .5.34375.79687.34375.28126.875.28126zm6.35938-7.04688v1.53125h1.17187v.84375h-1.17187v3.92188q0 .39062.15624.57812.15626.1875.53126.1875.1875 0 .51562-.0625v.875q-.42188.125-.82812.125-.71876 0-1.09376-.4375-.375-.45312-.375-1.26562v-3.92188h-1.15624v-.84375h1.15624v-1.53125zm4.60937 6.40625 1.57813-4.875h1.10937l-2.28125 6.34375h-.82812l-2.29688-6.34375h1.10938zm5.09375 1.46875h-1.07812v-6.34375h1.07812zm-1.17188-8.01562q0-.26563.15626-.45313.17187-.1875.48437-.1875.3125 0 .46875.1875.17188.1875.17188.45313 0 .25-.17188.4375-.15625.17187-.46875.17187-.3125 0-.48437-.17187-.15626-.1875-.15626-.4375zm4.10938 1.67187v7.07813q0 1.82812-1.65625 1.82812-.35937 0-.65625-.10938v-.85937q.1875.04687.48438.04687.35937 0 .54687-.20312.20313-.1875.20313-.6875v-7.09375zm-1.1875-1.67187q0-.26563.15625-.45313.15625-.1875.46875-.1875.3125 0 .46875.1875.17187.1875.17187.45313 0 .25-.17187.4375-.15625.17187-.46875.17187-.3125 0-.46875-.17187-.15625-.1875-.15625-.4375zm6.98438 8.01562q-.09376-.1875-.15626-.67188-.75.79688-1.79687.79688-.9375 0-1.54687-.53125-.59376-.53125-.59376-1.35937 0-.98438.75-1.53126.75-.54687 2.125-.54687h1.04688v-.5q0-.5625-.34375-.89063-.32813-.34374-1-.34374-.57813 0-.96875.29687-.39062.28125-.39062.70313h-1.09376q0-.48438.32813-.92188.34375-.4375.92187-.6875.57813-.26562 1.26563-.26562 1.10937 0 1.71875.54687.625.54687.65625 1.5v2.92187q0 .875.21875 1.39063v.09375zm-1.79688-.82812q.51562 0 .96875-.26563.45313-.26563.65625-.6875v-1.29687h-.84375q-2 0-2 1.17187 0 .5.34375.79687.34375.28126.875.28126zm2.46875-6.84376h-3.9375v-.84374h3.9375zm5.375 4.20313q0-1.3125.34375-2.53125.35938-1.21875 1.0625-2.21875.70312-1 1.46875-1.40625l.21875.71875q-.85938.65625-1.40625 2-.54687 1.34375-.59375 3.01563l-.01562.5q0 2.26562.82812 3.92187.5 1 1.1875 1.5625l-.21875.65625q-.78125-.42188-1.5-1.45312-1.375-1.98438-1.375-4.76563zm5.51563-4.40625v1.53125h1.17187v.84375h-1.17187v3.92188q0 .39062.15624.57812.15626.1875.53126.1875.1875 0 .51562-.0625v.875q-.42188.125-.82812.125-.71876 0-1.09376-.4375-.375-.45312-.375-1.26562v-3.92188h-1.15624v-.84375h1.15624v-1.53125zm6.4375 7.25q-.625.75-1.85938.75-1.01562 0-1.54688-.59375-.53124-.59375-.53124-1.75v-4.125h1.07812v4.09375q0 1.45312 1.17188 1.45312 1.25 0 1.65624-.9375v-4.60937h1.09376v6.34375h-1.03126zm.57812-7.04688h-3.9375v-.84374h3.9375zm4.28125 4.73438-.6875.70312v2.23438h-1.07813v-9h1.07813v5.4375l.57813-.6875 1.98437-2.09375h1.3125l-2.46875 2.65625 2.76562 3.6875h-1.28124zm7.92187 1.25q0-.4375-.34374-.67188-.32813-.25-1.15626-.42187-.8125-.17187-1.29687-.42187-.48437-.25-.71875-.57813-.21875-.34375-.21875-.8125 0-.78125.65625-1.3125.65625-.54687 1.6875-.54687 1.07812 0 1.73438.5625.67187.54687.67187 1.40624h-1.07813q0-.4375-.39062-.75-.375-.32812-.9375-.32812-.59375 0-.9375.26562-.32812.25-.32812.65626 0 .39062.3125.59374.3125.20313 1.125.39063.8125.17187 1.3125.42187.5.25.73437.60938.25.35938.25.85938 0 .85937-.6875 1.375-.67187.51562-1.75.51562-.76563 0-1.35937-.26562-.57813-.28126-.90626-.76563-.32812-.48437-.32812-1.04687h1.07812q.03126.54687.4375.875.40626.3125 1.07813.3125.60937 0 .98437-.25.375-.25.375-.67188zm3.78126-6.1875v1.53125h1.17187v.84375h-1.17187v3.92188q0 .39062.15624.57812.15626.1875.53126.1875.1875 0 .51562-.0625v.875q-.42188.125-.82812.125-.71876 0-1.09376-.4375-.375-.45312-.375-1.26562v-3.92188h-1.15624v-.84375h1.15624v-1.53125zm2.54687 7.3125q0-.28125.15625-.46875.17188-.1875.5-.1875.34375 0 .51562.1875.17188.1875.17188.46875 0 .26562-.17188.45312-.17187.17188-.51562.17188-.32812 0-.5-.17188-.15625-.1875-.15625-.45312zm4.0625-5.01562q.71875-.875 1.875-.875 2.01563 0 2.03125 2.26562v4.1875h-1.09375v-4.20312q0-.67188-.3125-1-.29687-.32813-.95313-.32813-.53124 0-.9375.28125-.39062.28125-.60937.73438v4.51562h-1.07813v-9h1.07813zm9.82813 5.57812q-.09376-.1875-.15626-.67188-.75.79688-1.79687.79688-.9375 0-1.54687-.53125-.59376-.53125-.59376-1.35937 0-.98438.75-1.53126.75-.54687 2.125-.54687h1.04688v-.5q0-.5625-.34375-.89063-.32813-.34374-1-.34374-.57813 0-.96875.29687-.39062.28125-.39062.70313h-1.09376q0-.48438.32813-.92188.34375-.4375.92187-.6875.57813-.26562 1.26563-.26562 1.10937 0 1.71875.54687.625.54687.65625 1.5v2.92187q0 .875.21875 1.39063v.09375zm-1.79688-.82812q.51562 0 .96875-.26563.45313-.26563.65625-.6875v-1.29687h-.84375q-2 0-2 1.17187 0 .5.34375.79687.34375.28126.875.28126zm7.39062-2.57813q0 1.3125-.34374 2.51563-.34376 1.1875-1.0625 2.20312-.70313 1.01562-1.46876 1.4375l-.23437-.65625q.90625-.6875 1.45313-2.14063.54687-1.46874.5625-3.23437v-.1875q0-1.23437-.26563-2.29687-.25-1.0625-.71875-1.89063-.45312-.84375-1.03125-1.3125l.23437-.65625q.76563.42188 1.46876 1.42188.70312 1 1.04687 2.21874.35937 1.20313.35937 2.57813z" fill="#1a1a1a"/></svg>