<svg fill="none" height="310" stroke-linecap="square" stroke-miterlimit="10" viewBox="0 0 580 310" width="580" xmlns="http://www.w3.org/2000/svg"><path d="m0 0h580v310h-580z" fill="none"/><path d="m290 15.5c14.63852 0 29.18582 2.304066 43.10788 6.827616l-10.77698 33.168096c-10.44153-3.392662-21.35202-5.120712-32.3309-5.120712z" fill="#ffc000"/><path d="m333.10788 22.327616c60.56522 19.678831 100.11548 77.875284 96.11685 141.431664l-34.80618-2.18982c2.99895-47.667284-26.66373-91.31462-72.08765-106.073748z" fill="#c00000"/><path d="m194.50568 53.308876c25.86482-24.288686 60.01292-37.808876 95.49432-37.808876v34.875c-26.61105 0-52.22212 10.14014-71.62074 28.35666z" fill="#70ad47"/><path d="m150.77527 163.75928c-2.61057-41.49389 13.42287-81.989726 43.73041-110.450404l23.87358 25.422784c-22.73066 21.3455-34.75574 51.71739-32.79781 82.8378z" fill="#a64d79"/><path d="m281.24072 294.22473c-70.14485-4.41315-126.0523-60.3206-130.46545-130.46545l34.80618-2.18982c3.30986 52.60864 45.24045 94.53924 97.84909 97.84909z" fill="#38761d"/><path d="m429.22473 163.75928c-4.83761 76.89169-71.09231 135.30307-147.98401 130.46545l2.18982-34.80618c57.66876 3.6282 107.3598-40.18031 110.98801-97.84909z" fill="#4472c4"/><path d="m16.265625 27.5v-8.53125h2.984375q1.546875 0 2.34375.59375.8125.59375.8125 1.75 0 .625-.328125 1.109375-.3125.46875-.890625.6875.65625.171875 1.03125.671875.390625.484375.390625 1.203125 0 1.234375-.796875 1.875-.78125.625-2.234375.640625zm1.75-3.71875v2.3125h1.515625q.609375 0 .953125-.296875.359375-.296875.359375-.828125 0-1.171875-1.21875-1.1875zm0-1.234375h1.3125q1.328125-.03125 1.328125-1.0625 0-.578125-.34375-.828125-.328125-.265625-1.0625-.265625h-1.234375zm9.8125 4.953125q-.125-.234375-.171875-.5625-.609375.6875-1.59375.6875-.9375 0-1.546875-.546875-.609375-.546875-.609375-1.359375 0-1.015625.734375-1.546875.75-.546875 2.171875-.546875h.765625v-.359375q0-.4375-.21875-.703125-.21875-.265625-.71875-.265625-.421875 0-.671875.203125-.234375.203125-.234375.5625h-1.6875q0-.546875.328125-1.015625.34375-.46875.96875-.734375.625-.265625 1.390625-.265625 1.171875 0 1.859375.59375.6875.578125.6875 1.640625v2.75q.015625.90625.25 1.375v.09375zm-1.40625-1.171875q.375 0 .6875-.171875.328125-.171875.46875-.453125v-1.09375h-.625q-1.265625 0-1.359375.890625v.09375q0 .3125.21875.53125.21875.203125.609375.203125zm5.515625 1.171875h-1.703125v-9h1.703125zm3.234375-7.90625v1.5625h1.09375v1.25h-1.09375v3.15625q0 .359375.140625.515625.140625.140625.515625.140625.28125 0 .5-.03125v1.28125q-.5.15625-1.03125.15625-1.78125 0-1.8125-1.8125v-3.40625h-.921875v-1.25h.921875v-1.5625zm5.65625 7.90625q-.125-.234375-.171875-.5625-.609375.6875-1.59375.6875-.9375 0-1.546875-.546875-.609375-.546875-.609375-1.359375 0-1.015625.734375-1.546875.75-.546875 2.171875-.546875h.765625v-.359375q0-.4375-.21875-.703125-.21875-.265625-.71875-.265625-.421875 0-.671875.203125-.234375.203125-.234375.5625h-1.6875q0-.546875.328125-1.015625.34375-.46875.96875-.734375.625-.265625 1.390625-.265625 1.171875 0 1.859375.59375.6875.578125.6875 1.640625v2.75q.015625.90625.25 1.375v.09375zm-1.40625-1.171875q.375 0 .6875-.171875.328125-.171875.46875-.453125v-1.09375h-.625q-1.265625 0-1.359375.890625v.09375q0 .3125.21875.53125.21875.203125.609375.203125zm5.515625 1.171875h-1.703125v-9h1.703125zm3.515625-2.546875-.609375.609375v1.9375h-1.6875v-9h1.6875v4.984375l.328125-.421875 1.625-1.90625h2.03125l-2.296875 2.640625 2.5 3.703125h-1.953125zm7.125.796875q0-.3125-.3125-.484375-.296875-.1875-.96875-.328125-2.265625-.46875-2.265625-1.921875 0-.84375.6875-1.40625.703125-.5625 1.84375-.5625 1.203125 0 1.921875.5625.734375.5625.734375 1.484375h-1.703125q0-.375-.234375-.609375-.234375-.234375-.734375-.234375-.421875 0-.65625.203125-.234375.1875-.234375.484375 0 .28125.265625.453125.265625.171875.890625.296875.640625.125 1.078125.28125 1.34375.5 1.34375 1.703125 0 .875-.75 1.421875-.734375.53125-1.921875.53125-.796875 0-1.421875-.28125-.609375-.296875-.96875-.78125-.34375-.5-.34375-1.078125h1.609375q.015625.453125.328125.703125.3125.234375.828125.234375.5 0 .734375-.1875.25-.1875.25-.484375zm4.125-4.59375.0625.734375q.671875-.84375 1.8125-.84375 1.015625 0 1.5.59375.5.578125.515625 1.765625v4.09375h-1.703125v-4.0625q0-.53125-.234375-.765625-.234375-.25-.78125-.25-.703125 0-1.0625.609375v4.46875h-1.703125v-6.34375zm7.234375 6.34375h-1.703125v-6.34375h1.703125zm-1.796875-7.984375q0-.375.25-.625.265625-.25.703125-.25.421875 0 .671875.25.265625.25.265625.625 0 .390625-.265625.640625-.25.234375-.6875.234375-.421875 0-.6875-.234375-.25-.25-.25-.640625zm6.4375 6.234375q0-.3125-.3125-.484375-.296875-.1875-.96875-.328125-2.265625-.46875-2.265625-1.921875 0-.84375.6875-1.40625.703125-.5625 1.84375-.5625 1.203125 0 1.921875.5625.734375.5625.734375 1.484375h-1.703125q0-.375-.234375-.609375-.234375-.234375-.734375-.234375-.421875 0-.65625.203125-.234375.1875-.234375.484375 0 .28125.265625.453125.265625.171875.890625.296875.640625.125 1.078125.28125 1.34375.5 1.34375 1.703125 0 .875-.75 1.421875-.734375.53125-1.921875.53125-.796875 0-1.421875-.28125-.609375-.296875-.96875-.78125-.34375-.5-.34375-1.078125h1.609375q.015625.453125.328125.703125.3125.234375.828125.234375.5 0 .734375-.1875.25-.1875.25-.484375z" fill="#1a1a1a"/><path d="m20.1875 45.5h-1.6875v-6.53125l-2.015625.625v-1.375l3.53125-1.265625h.171875zm8.734375 0h-5.84375v-1.15625l2.765625-2.953125q.5625-.609375.828125-1.078125.28125-.46875.28125-.875 0-.578125-.296875-.890625-.28125-.328125-.8125-.328125-.578125 0-.90625.390625-.328125.390625-.328125 1.046875h-1.703125q0-.78125.375-1.421875.375-.65625 1.046875-1.015625.6875-.375 1.546875-.375 1.3125 0 2.046875.640625.734375.625.734375 1.78125 0 .640625-.328125 1.296875-.328125.65625-1.125 1.53125l-1.9375 2.046875h3.65625zm1.3125-.828125q0-.40625.265625-.65625.28125-.25.6875-.25.421875 0 .6875.25.28125.25.28125.65625 0 .390625-.28125.640625-.265625.25-.6875.25-.40625 0-.6875-.25-.265625-.25-.265625-.640625zm8.59375-2.703125q0 1.765625-.734375 2.71875-.734375.9375-2.140625.9375-1.40625 0-2.140625-.921875-.734375-.921875-.75-2.640625v-1.578125q0-1.78125.734375-2.703125.75-.9375 2.140625-.9375 1.390625 0 2.125.921875.75.921875.765625 2.640625zm-1.703125-1.71875q0-1.0625-.296875-1.546875-.28125-.484375-.890625-.484375-.59375 0-.890625.46875-.28125.453125-.296875 1.4375v2.0625q0 1.046875.28125 1.5625.28125.5.921875.5.609375 0 .890625-.484375.28125-.484375.28125-1.484375zm2.9375-1.640625q0-.78125.5-1.265625.515625-.5 1.34375-.5.828125 0 1.34375.484375.515625.484375.515625 1.3125v.421875q0 .78125-.515625 1.265625-.515625.484375-1.328125.484375-.84375 0-1.359375-.484375-.5-.484375-.5-1.296875zm1.125.453125q0 .34375.203125.5625.203125.21875.53125.21875.328125 0 .515625-.21875.1875-.21875.1875-.578125v-.4375q0-.359375-.1875-.5625-.1875-.21875-.53125-.21875-.328125 0-.53125.21875-.1875.203125-.1875.578125zm2.953125 4.34375q0-.796875.515625-1.265625.515625-.484375 1.328125-.484375.828125 0 1.34375.484375.515625.46875.515625 1.296875v.421875q0 .796875-.5 1.28125-.5.484375-1.34375.484375-.84375 0-1.359375-.484375-.5-.5-.5-1.296875zm1.125.453125q0 .328125.203125.5625.21875.21875.53125.21875.71875 0 .71875-.78125v-.453125q0-.34375-.203125-.5625-.203125-.21875-.53125-.21875-.328125 0-.53125.21875-.1875.21875-.1875.578125zm-3.015625 1-.828125-.4375 4.171875-6.671875.828125.4375z" fill="#9e9e9e"/><path d="m15.5 32h129l96.7143-.218628" stroke="#757575" stroke-linecap="butt"/><path d="m243.2143 31.781372c0-1.10457-.89544-2-2-2-1.10457 0-2 .89543-2 2 0 1.104568.89543 2 2 2 1.10456 0 2-.895432 2-2" fill="#9e9e9e"/><path d="m21.078125 99.94867h-3.078125l-.59375 1.765624h-1.859375l3.171875-8.53125h1.625l3.203125 8.53125h-1.875zm-2.609375-1.421876h2.140625l-1.078125-3.1875zm11.390625.078126q0 1.46875-.671875 2.359374-.65625.875-1.796875.875-.953125 0-1.546875-.671874v2.984374h-1.6875v-8.78125h1.5625l.0625.625q.609375-.734374 1.609375-.734374 1.171875 0 1.8125.875.65625.859374.65625 2.375zm-1.6875-.125q0-.890626-.328125-1.359376-.3125-.484374-.90625-.484374-.796875 0-1.09375.609374v2.59375q.3125.625 1.109375.625 1.21875 0 1.21875-1.984374zm6.40625 1.484374q0-.3125-.3125-.484374-.296875-.1875-.96875-.328126-2.265625-.46875-2.265625-1.921874 0-.84375.6875-1.40625.703125-.5625 1.84375-.5625 1.203125 0 1.921875.5625.734375.5625.734375 1.484374h-1.703125q0-.375-.234375-.609374-.234375-.234376-.734375-.234376-.421875 0-.65625.203126-.234375.1875-.234375.484374 0 .28125.265625.453126.265625.171874.890625.296874.640625.125 1.078125.28125 1.34375.5 1.34375 1.703126 0 .875-.75 1.421874-.734375.53125-1.921875.53125-.796875 0-1.421875-.28125-.609375-.296874-.96875-.78125-.34375-.5-.34375-1.078124h1.609375q.015625.453124.328125.703124.3125.234376.828125.234376.5 0 .734375-.1875.25-.1875.25-.484376zm5.484375 1.875q-1.390625 0-2.265625-.859374-.875-.859376-.875-2.28125v-.171876q0-.953124.359375-1.703124.375-.75 1.046875-1.15625.6875-.40625 1.546875-.40625 1.3125 0 2.046875.828124.75.8125.75 2.3125v.6875h-4.03125q.078125.625.484375 1 .421875.375 1.0625.375.96875 0 1.515625-.703124l.84375.921874q-.390625.546876-1.046875.859376-.640625.296874-1.4375.296874zm-.1875-5.21875q-.5 0-.8125.34375-.3125.34375-.40625.96875h2.359375v-.125q-.015625-.5625-.3125-.875-.28125-.3125-.828125-.3125z" fill="#1a1a1a"/><path d="m20.1875 119.714294h-1.6875v-6.53125l-2.015625.625v-1.375l3.53125-1.265624h.171875zm7.90625-3.21875h.96875v1.375h-.96875v1.84375h-1.703125v-1.84375h-3.484375l-.078125-1.0625 3.546875-5.625h1.71875zm-3.578125 0h1.875v-3l-.109375.1875zm5.71875 2.390626q0-.40625.265625-.65625.28125-.25.6875-.25.421875 0 .6875.25.28125.25.28125.65625 0 .390624-.28125.640624-.265625.25-.6875.25-.40625 0-.6875-.25-.265625-.25-.265625-.640624zm8.59375-2.703126q0 1.765626-.734375 2.71875-.734375.9375-2.140625.9375-1.40625 0-2.140625-.921874-.734375-.921876-.75-2.640626v-1.578124q0-1.78125.734375-2.703126.75-.9375 2.140625-.9375 1.390625 0 2.125.921876.75.921874.765625 2.640624zm-1.703125-1.71875q0-1.0625-.296875-1.546874-.28125-.484376-.890625-.484376-.59375 0-.890625.46875-.28125.453126-.296875 1.4375v2.0625q0 1.046876.28125 1.5625.28125.5.921875.5.609375 0 .890625-.484374.28125-.484376.28125-1.484376zm2.9375-1.640624q0-.78125.5-1.265626.515625-.5 1.34375-.5.828125 0 1.34375.484376.515625.484374.515625 1.3125v.421874q0 .78125-.515625 1.265626-.515625.484374-1.328125.484374-.84375 0-1.359375-.484374-.5-.484376-.5-1.296876zm1.125.453124q0 .34375.203125.5625.203125.21875.53125.21875.328125 0 .515625-.21875.1875-.21875.1875-.578124v-.4375q0-.359376-.1875-.5625-.1875-.21875-.53125-.21875-.328125 0-.53125.21875-.1875.203124-.1875.578124zm2.953125 4.34375q0-.796874.515625-1.265624.515625-.484376 1.328125-.484376.828125 0 1.34375.484376.515625.46875.515625 1.296874v.421876q0 .796874-.5 1.28125-.5.484374-1.34375.484374-.84375 0-1.359375-.484374-.5-.5-.5-1.296876zm1.125.453126q0 .328124.203125.5625.21875.21875.53125.21875.71875 0 .71875-.78125v-.453126q0-.34375-.203125-.5625-.203125-.21875-.53125-.21875-.328125 0-.53125.21875-.1875.21875-.1875.578126zm-3.015625 1-.828125-.4375 4.171875-6.671876.828125.4375z" fill="#9e9e9e"/><path d="m15.5 106.214294h129 22.28137" stroke="#757575" stroke-linecap="butt"/><path d="m168.78137 106.214294c0-1.104568-.89543-2-2-2s-2 .895432-2 2c0 1.104566.89543 2 2 2s2-.895434 2-2" fill="#9e9e9e"/><path d="m16.265625 244.20932v-8.53125h2.984375q1.546875 0 2.34375.59375.8125.59375.8125 1.75 0 .625-.328125 1.10938-.3125.46875-.890625.6875.65625.17187 1.03125.67187.390625.48438.390625 1.20313 0 1.23437-.796875 1.875-.78125.625-2.234375.64062zm1.75-3.71875v2.3125h1.515625q.609375 0 .953125-.29687.359375-.29688.359375-.82813 0-1.17187-1.21875-1.1875zm0-1.23437h1.3125q1.328125-.03125 1.328125-1.0625 0-.57813-.34375-.82813-.328125-.26562-1.0625-.26562h-1.234375zm9.046875 5.07812q-1.390625 0-2.265625-.85937-.875-.85938-.875-2.28125v-.17188q0-.95312.359375-1.70312.375-.75 1.046875-1.15625.6875-.40625 1.546875-.40625 1.3125 0 2.046875.82812.75.8125.75 2.3125v.6875h-4.03125q.078125.625.484375 1 .421875.375 1.0625.375.96875 0 1.515625-.70312l.84375.92187q-.390625.54688-1.046875.85938-.640625.29687-1.4375.29687zm-.1875-5.21875q-.5 0-.8125.34375-.3125.34375-.40625.96875h2.359375v-.125q-.015625-.5625-.3125-.875-.28125-.3125-.828125-.3125zm1.84375-2.45312h-4.046875v-.96875h4.046875zm5 2.79687q-.34375-.04687-.609375-.04687-.96875 0-1.265625.64062v4.15625h-1.6875v-6.34375h1.59375l.046875.76563q.515625-.875 1.40625-.875.28125 0 .53125.07812zm2.375 3.39063h3.109375v1.35937h-5.265625v-1.03125l2.984375-3.9375h-2.90625v-1.375h5.09375v1zm7.484375-.39063q0-.3125-.3125-.48437-.296875-.1875-.96875-.32813-2.265625-.46875-2.265625-1.92187 0-.84375.6875-1.40625.703125-.5625 1.84375-.5625 1.203125 0 1.921875.5625.734375.5625.734375 1.48437h-1.703125q0-.375-.234375-.60937-.234375-.23438-.734375-.23438-.421875 0-.65625.20313-.234375.1875-.234375.48437 0 .28125.265625.45313.265625.17187.890625.29687.640625.125 1.078125.28125 1.34375.5 1.34375 1.70313 0 .875-.75 1.42187-.734375.53125-1.921875.53125-.796875 0-1.421875-.28125-.609375-.29687-.96875-.78125-.34375-.5-.34375-1.07812h1.609375q.015625.45312.328125.70312.3125.23438.828125.23438.5 0 .734375-.1875.25-.1875.25-.48438z" fill="#1a1a1a"/><path d="m21.921875 262.20932h-5.84375v-1.15625l2.765625-2.95312q.5625-.60938.828125-1.07813.28125-.46875.28125-.875 0-.57812-.296875-.89062-.28125-.32813-.8125-.32813-.578125 0-.90625.39063-.328125.39062-.328125 1.04687h-1.703125q0-.78125.375-1.42187.375-.65625 1.046875-1.01563.6875-.375 1.546875-.375 1.3125 0 2.046875.64063.734375.625.734375 1.78125 0 .64062-.328125 1.29687-.328125.65625-1.125 1.53125l-1.9375 2.04688h3.65625zm2.875-5.01562h.90625q.640625 0 .953125-.3125.3125-.32813.3125-.85938 0-.51562-.3125-.79687-.296875-.29688-.84375-.29688-.484375 0-.8125.26563-.328125.26562-.328125.6875h-1.6875q0-.65625.359375-1.1875.359375-.53125 1-.82813.65625-.3125 1.4375-.3125 1.34375 0 2.109375.65625.78125.64063.78125 1.78125 0 .59375-.359375 1.09375-.359375.48438-.9375.73438.71875.26562 1.0625.78125.359375.51562.359375 1.21875 0 1.14062-.828125 1.82812-.828125.6875-2.1875.6875-1.28125 0-2.09375-.67187-.8125-.6875-.8125-1.79688h1.6875q0 .48438.359375.79688.375.29687.890625.29687.609375 0 .953125-.3125.34375-.32812.34375-.85937 0-1.26563-1.40625-1.26563h-.90625zm5.4375 4.1875q0-.40625.265625-.65625.28125-.25.6875-.25.421875 0 .6875.25.28125.25.28125.65625 0 .39062-.28125.64062-.265625.25-.6875.25-.40625 0-.6875-.25-.265625-.25-.265625-.64062zm8.59375-2.70313q0 1.76563-.734375 2.71875-.734375.9375-2.140625.9375-1.40625 0-2.140625-.92187-.734375-.92188-.75-2.64063v-1.57812q0-1.78125.734375-2.70313.75-.9375 2.140625-.9375 1.390625 0 2.125.92188.75.92187.765625 2.64062zm-1.703125-1.71875q0-1.0625-.296875-1.54687-.28125-.48438-.890625-.48438-.59375 0-.890625.46875-.28125.45313-.296875 1.4375v2.0625q0 1.04688.28125 1.5625.28125.5.921875.5.609375 0 .890625-.48437.28125-.48438.28125-1.48438zm2.9375-1.64062q0-.78125.5-1.26563.515625-.5 1.34375-.5.828125 0 1.34375.48438.515625.48437.515625 1.3125v.42187q0 .78125-.515625 1.26563-.515625.48437-1.328125.48437-.84375 0-1.359375-.48437-.5-.48438-.5-1.29688zm1.125.45312q0 .34375.203125.5625.203125.21875.53125.21875.328125 0 .515625-.21875.1875-.21875.1875-.57812v-.4375q0-.35938-.1875-.5625-.1875-.21875-.53125-.21875-.328125 0-.53125.21875-.1875.20312-.1875.57812zm2.953125 4.34375q0-.79687.515625-1.26562.515625-.48438 1.328125-.48438.828125 0 1.34375.48438.515625.46875.515625 1.29687v.42188q0 .79687-.5 1.28125-.5.48437-1.34375.48437-.84375 0-1.359375-.48437-.5-.5-.5-1.29688zm1.125.45313q0 .32812.203125.5625.21875.21875.53125.21875.71875 0 .71875-.78125v-.45313q0-.34375-.203125-.5625-.203125-.21875-.53125-.21875-.328125 0-.53125.21875-.1875.21875-.1875.57813zm-3.015625 1-.828125-.4375 4.171875-6.67188.828125.4375z" fill="#9e9e9e"/><path d="m15.5 248.70932h129 51.79068" stroke="#757575" stroke-linecap="butt"/><path d="m198.29068 248.70932c0-1.10457-.89543-2-2-2s-2 .89543-2 2 .89543 2 2 2 2-.89543 2-2" fill="#9e9e9e"/><path d="m493.01562 24.5v3h-1.75v-8.53125h3.32813q.95313 0 1.6875.359375.73437.34375 1.125 1 .39063.640625.39063 1.46875 0 1.25-.85938 1.984375-.85938.71875-2.375.71875zm0-1.4375h1.57813q.6875 0 1.04687-.328125.375-.328125.375-.9375 0-.625-.375-1-.35937-.390625-1.01562-.40625h-1.60938zm9.8125 4.4375q-.125-.234375-.17187-.5625-.60937.6875-1.59375.6875-.9375 0-1.54688-.546875-.60937-.546875-.60937-1.359375 0-1.015625.73437-1.546875.75-.546875 2.17188-.546875h.76562v-.359375q0-.4375-.21874-.703125-.21876-.265625-.71876-.265625-.42187 0-.67187.203125-.23437.203125-.23437.5625h-1.6875q0-.546875.32812-1.015625.34375-.46875.96875-.734375.625-.265625 1.39063-.265625 1.17187 0 1.85937.59375.6875.578125.6875 1.640625v2.75q.01563.90625.25 1.375v.09375zm-1.40624-1.171875q.375 0 .6875-.171875.32812-.171875.46874-.453125v-1.09375h-.625q-1.26562 0-1.35937.890625v.09375q0 .3125.21875.53125.21875.203125.60938.203125zm2.34374-6.375h-4.04687v-.96875h4.04687zm4.95313 2.796875q-.34375-.046875-.60937-.046875-.96876 0-1.26563.640625v4.15625h-1.6875v-6.34375h1.59375l.04688.765625q.51562-.875 1.40624-.875.28126 0 .53126.078125zm3.34375 4.875q-1.39062 0-2.26562-.859375-.875-.859375-.875-2.28125v-.171875q0-.953125.35937-1.703125.375-.75 1.04687-1.15625.6875-.40625 1.54688-.40625 1.3125 0 2.0469.828125.75.8125.75 2.3125v.6875h-4.03128q.07813.625.48438 1 .42188.375 1.0625.375.96875 0 1.5156-.703125l.8438.921875q-.39065.546875-1.0469.859375-.6406.296875-1.4375.296875zm-.1875-5.21875q-.5 0-.8125.34375-.3125.34375-.40625.96875h2.35935v-.125q-.0156-.5625-.3125-.875-.2812-.3125-.8281-.3125zm1.84375-2.453125h-4.04687v-.96875h4.04687zm3.21875 1.203125v6.6875q0 1.046875-.5625 1.625-.5469.59375-1.59375.59375-.4375 0-.84375-.09375v-1.34375q.3125.046875.53125.046875.78125 0 .78125-.8125v-6.703125zm-1.8281-1.640625q0-.375.25-.625.2656-.25.7031-.25.4375 0 .6875.25.2656.25.2656.625 0 .390625-.2656.640625-.2656.234375-.7031.234375-.4219 0-.6875-.234375-.25-.25-.25-.640625zm6.7187 7.984375q-.125-.234375-.17185-.5625-.60935.6875-1.59375.6875-.9375 0-1.5469-.546875-.60935-.546875-.60935-1.359375 0-1.015625.73435-1.546875.75-.546875 2.1719-.546875h.7656v-.359375q0-.4375-.2187-.703125-.2188-.265625-.7188-.265625-.42185 0-.67185.203125-.23435.203125-.23435.5625h-1.6875q0-.546875.3281-1.015625.34375-.46875.96875-.734375.625-.265625 1.39065-.265625 1.17185 0 1.85935.59375.6875.578125.6875 1.640625v2.75q.01565.90625.25 1.375v.09375zm-1.4062-1.171875q.375 0 .6875-.171875.3281-.171875.4687-.453125v-1.09375h-.625q-1.2656 0-1.35935.890625v.09375q0 .3125.21875.53125.21875.203125.6094.203125zm2.3437-6.375h-4.04685v-.96875h4.04685zm4.8125 5.796875q0-.3125-.3125-.484375-.29685-.1875-.9687-.328125-2.26565-.46875-2.26565-1.921875 0-.84375.6875-1.40625.70315-.5625 1.84375-.5625 1.2031 0 1.9219.5625.73435.5625.73435 1.484375h-1.70315q0-.375-.23435-.609375-.23435-.234375-.73435-.234375-.4219 0-.6563.203125-.23435.1875-.23435.484375 0 .28125.26565.453125.2656.171875.8906.296875.6406.125 1.0781.28125 1.3438.5 1.3438 1.703125 0 .875-.75 1.421875-.7344.53125-1.9219.53125-.7969 0-1.4219-.28125-.60935-.296875-.9687-.78125-.3438-.5-.3438-1.078125h1.6094q.0156.453125.3281.703125.3125.234375.82815.234375.5 0 .73435-.1875.25-.1875.25-.484375zm9 0q0-.3125-.3125-.484375-.29685-.1875-.9687-.328125-2.26565-.46875-2.26565-1.921875 0-.84375.6875-1.40625.70315-.5625 1.84375-.5625 1.2031 0 1.9219.5625.73435.5625.73435 1.484375h-1.70315q0-.375-.23435-.609375-.23435-.234375-.73435-.234375-.4219 0-.6563.203125-.23435.1875-.23435.484375 0 .28125.26565.453125.2656.171875.8906.296875.6406.125 1.0781.28125 1.3438.5 1.3438 1.703125 0 .875-.75 1.421875-.7344.53125-1.9219.53125-.7969 0-1.4219-.28125-.60935-.296875-.9687-.78125-.3438-.5-.3438-1.078125h1.6094q.0156.453125.3281.703125.3125.234375.82815.234375.5 0 .73435-.1875.25-.1875.25-.484375zm6.375 1.109375q-.625.765625-1.73435.765625-1.03125 0-1.5625-.59375-.53125-.59375-.54685-1.71875v-4.15625h1.6875v4.09375q0 1 .9062 1 .8594 0 1.1875-.609375v-4.484375h1.70315v6.34375h-1.59375zm2.95315-2.578125q0-1.453125.6875-2.34375.70315-.890625 1.875-.890625 1.04685 0 1.625.703125l.07815-.59375h1.5312v6.125q0 .84375-.3906 1.453125-.375.625-1.0625.9375-.6719.328125-1.59375.328125-.70315 0-1.375-.28125-.65625-.28125-.98435-.71875l.75-1.03125q.625.703125 1.5312.703125.6719 0 1.0469-.359375.375-.359375.375-1.015625v-.34375q-.5781.671875-1.5469.671875-1.1406 0-1.8437-.890625-.70315-.90625-.70315-2.375zm1.6875.125q0 .859375.34375 1.359375.3594.484375.9531.484375.7813 0 1.1094-.578125v-2.671875q-.34375-.578125-1.09375-.578125-.60935 0-.96875.5-.34375.5-.34375 1.484375zm9.23435 3.09375q-.125-.234375-.17185-.5625-.60935.6875-1.59375.6875-.9375 0-1.5469-.546875-.60935-.546875-.60935-1.359375 0-1.015625.73435-1.546875.75-.546875 2.1719-.546875h.7656v-.359375q0-.4375-.2187-.703125-.2188-.265625-.7188-.265625-.42185 0-.67185.203125-.23435.203125-.23435.5625h-1.6875q0-.546875.3281-1.015625.34375-.46875.96875-.734375.625-.265625 1.39065-.265625 1.17185 0 1.85935.59375.6875.578125.6875 1.640625v2.75q.01565.90625.25 1.375v.09375zm-1.4062-1.171875q.375 0 .6875-.171875.3281-.171875.4687-.453125v-1.09375h-.625q-1.2656 0-1.35935.890625v.09375q0 .3125.21875.53125.21875.203125.6094.203125zm7.1562-.578125q0-.3125-.3125-.484375-.29685-.1875-.9687-.328125-2.26565-.46875-2.26565-1.921875 0-.84375.6875-1.40625.70315-.5625 1.84375-.5625 1.2031 0 1.9219.5625.73435.5625.73435 1.484375h-1.70315q0-.375-.23435-.609375-.23435-.234375-.73435-.234375-.4219 0-.6563.203125-.23435.1875-.23435.484375 0 .28125.26565.453125.2656.171875.8906.296875.6406.125 1.0781.28125 1.3438.5 1.3438 1.703125 0 .875-.75 1.421875-.7344.53125-1.9219.53125-.7969 0-1.4219-.28125-.60935-.296875-.9687-.78125-.3438-.5-.3438-1.078125h1.6094q.0156.453125.3281.703125.3125.234375.82815.234375.5 0 .73435-.1875.25-.1875.25-.484375z" fill="#1a1a1a"/><path d="m539.3281 41.296875.5-4.328125h4.7813v1.40625h-3.39065l-.21875 1.84375q.6094-.328125 1.28125-.328125 1.21875 0 1.90625.765625.7031.75.7031 2.109375 0 .828125-.35935 1.484375-.34375.640625-1 1.015625-.64065.359375-1.53125.359375-.7656 0-1.4375-.3125-.65625-.328125-1.0469-.890625-.375-.5625-.4062-1.296875h1.6875q.04685.53125.35935.828125.32815.296875.84375.296875.5781 0 .875-.40625.3125-.421875.3125-1.171875 0-.734375-.3594-1.109375-.3437-.390625-1-.390625-.60935 0-.98435.3125l-.15625.15625zm6.9063 3.375q0-.40625.2656-.65625.28125-.25.6875-.25.4219 0 .6875.25.28125.25.28125.65625 0 .390625-.28125.640625-.2656.25-.6875.25-.40625 0-.6875-.25-.2656-.25-.2656-.640625zm8.5937-2.703125q0 1.765625-.73435 2.71875-.73435.9375-2.14065.9375-1.4062 0-2.1406-.921875-.7344-.921875-.75-2.640625v-1.578125q0-1.78125.7344-2.703125.75-.9375 2.1406-.9375 1.3906 0 2.125.921875.75.921875.7656 2.640625zm-1.7031-1.71875q0-1.0625-.2969-1.546875-.2812-.484375-.8906-.484375-.59375 0-.8906.46875-.2813.453125-.2969 1.4375v2.0625q0 1.046875.28125 1.5625.28125.5.92185.5.6094 0 .89065-.484375.28125-.484375.28125-1.484375zm2.9375-1.640625q0-.78125.5-1.265625.5156-.5 1.34375-.5.82815 0 1.34375.484375.5156.484375.5156 1.3125v.421875q0 .78125-.5156 1.265625-.5156.484375-1.3281.484375-.8438 0-1.3594-.484375-.5-.484375-.5-1.296875zm1.125.453125q0 .34375.2031.5625.20315.21875.5313.21875.3281 0 .5156-.21875.1875-.21875.1875-.578125v-.4375q0-.359375-.1875-.5625-.1875-.21875-.53125-.21875-.32815 0-.53125.21875-.1875.203125-.1875.578125zm2.9531 4.34375q0-.796875.51565-1.265625.51565-.484375 1.32815-.484375.8281 0 1.3437.484375.51565.46875.51565 1.296875v.421875q0 .796875-.5 1.28125-.5.484375-1.34375.484375-.84375 0-1.3594-.484375-.5-.5-.5-1.296875zm1.125.453125q0 .328125.20315.5625.21875.21875.53125.21875.71875 0 .71875-.78125v-.453125q0-.34375-.20315-.5625-.2031-.21875-.5312-.21875-.32815 0-.5313.21875-.1875.21875-.1875.578125zm-3.0156 1-.8281-.4375 4.17185-6.671875.82815.4375z" fill="#9e9e9e"/><path d="m564.5 32h-129l-124.76852-7.893398" stroke="#757575" stroke-linecap="butt"/><path d="m312.73148 24.106602c0-1.104569-.89542-2-2-2-1.10456 0-2 .895431-2 2 0 1.10457.89544 2 2 2 1.10458 0 2-.89543 2-2" fill="#9e9e9e"/><path d="m533.0156 73.0099v3h-1.75v-8.53125h3.32815q.95315 0 1.6875.35938.73435.34375 1.125 1 .39065.64062.39065 1.46875 0 1.25-.8594 1.98437-.8594.71875-2.375.71875zm0-1.4375h1.57815q.6875 0 1.04685-.32812.375-.32813.375-.9375 0-.625-.375-1-.35935-.39063-1.0156-.40625h-1.6094zm9.70315-.3125q-.34375-.04687-.60935-.04687-.9688 0-1.26565.64062v4.15625h-1.6875v-6.34375h1.59375l.0469.76563q.5156-.875 1.4062-.875.2813 0 .5313.07812zm2.21875 4.75h-1.7031v-6.34375h1.7031zm-1.7969-7.98437q0-.375.25-.625.26565-.25.70315-.25.42185 0 .67185.25.26565.25.26565.625 0 .39062-.26565.64062-.25.23438-.6875.23438-.42185 0-.6875-.23438-.25-.25-.25-.64062zm5.9219 8.10937q-1.3906 0-2.2656-.85937-.875-.85938-.875-2.28125v-.17188q0-.95312.35935-1.70312.375-.75 1.04685-1.15625.6875-.40625 1.5469-.40625 1.3125 0 2.0469.82812.75.8125.75 2.3125v.6875h-4.0313q.07815.625.4844 1 .4219.375 1.0625.375.96875 0 1.5156-.70312l.8438.92187q-.39065.54688-1.0469.85938-.6406.29687-1.4375.29687zm-.1875-5.21875q-.5 0-.8125.34375-.3125.34375-.40625.96875h2.35935v-.125q-.0156-.5625-.3125-.875-.2812-.3125-.8281-.3125zm3.0156 1.875q0-1.48437.6563-2.35937.67185-.875 1.8281-.875.9219 0 1.53125.6875v-3.23438h1.6875v9h-1.51565l-.0937-.67187q-.625.79687-1.625.79687-1.125 0-1.7969-.875-.6719-.89062-.6719-2.46875zm1.6875.125q0 .89063.3125 1.375.3125.46875.9063.46875.7812 0 1.10935-.67187v-2.5q-.32815-.65625-1.09375-.65625-1.2344 0-1.2344 1.98437zm8.4844 3.21875q-1.3906 0-2.2656-.85937-.875-.85938-.875-2.28125v-.17188q0-.95312.35935-1.70312.375-.75 1.04685-1.15625.6875-.40625 1.5469-.40625 1.3125 0 2.0469.82812.75.8125.75 2.3125v.6875h-4.0313q.07815.625.4844 1 .4219.375 1.0625.375.96875 0 1.5156-.70312l.8438.92187q-.39065.54688-1.0469.85938-.6406.29687-1.4375.29687zm-.1875-5.21875q-.5 0-.8125.34375-.3125.34375-.40625.96875h2.35935v-.125q-.0156-.5625-.3125-.875-.2812-.3125-.8281-.3125z" fill="#1a1a1a"/><path d="m537.9219 94.0099h-5.8438v-1.15625l2.76565-2.95312q.5625-.60938.82815-1.07813.2812-.46875.2812-.875 0-.57812-.29685-.89062-.28125-.32813-.8125-.32813-.57815 0-.90625.39063-.3281.39062-.3281 1.04687h-1.70315q0-.78125.375-1.42187.375-.65625 1.04685-1.01563.6875-.375 1.5469-.375 1.3125 0 2.0469.64063.73435.625.73435 1.78125 0 .64062-.32815 1.29687-.3281.65625-1.125 1.53125l-1.9375 2.04688h3.6563zm5.2656 0h-1.6875v-6.53125l-2.0156.625v-1.375l3.5312-1.26562h.1719zm3.0469-.82812q0-.40625.2656-.65625.28125-.25.6875-.25.4219 0 .6875.25.28125.25.28125.65625 0 .39062-.28125.64062-.2656.25-.6875.25-.40625 0-.6875-.25-.2656-.25-.2656-.64062zm8.5937-2.70313q0 1.76563-.73435 2.71875-.73435.9375-2.14065.9375-1.4062 0-2.1406-.92187-.7344-.92188-.75-2.64063v-1.57812q0-1.78125.7344-2.70313.75-.9375 2.1406-.9375 1.3906 0 2.125.92188.75.92187.7656 2.64062zm-1.7031-1.71875q0-1.0625-.2969-1.54687-.2812-.48438-.8906-.48438-.59375 0-.8906.46875-.2813.45313-.2969 1.4375v2.0625q0 1.04688.28125 1.5625.28125.5.92185.5.6094 0 .89065-.48437.28125-.48438.28125-1.48438zm2.9375-1.64062q0-.78125.5-1.26563.5156-.5 1.34375-.5.82815 0 1.34375.48438.5156.48437.5156 1.3125v.42187q0 .78125-.5156 1.26563-.5156.48437-1.3281.48437-.8438 0-1.3594-.48437-.5-.48438-.5-1.29688zm1.125.45312q0 .34375.2031.5625.20315.21875.5313.21875.3281 0 .5156-.21875.1875-.21875.1875-.57812v-.4375q0-.35938-.1875-.5625-.1875-.21875-.53125-.21875-.32815 0-.53125.21875-.1875.20312-.1875.57812zm2.9531 4.34375q0-.79687.51565-1.26562.51565-.48438 1.32815-.48438.8281 0 1.3437.48438.51565.46875.51565 1.29687v.42188q0 .79687-.5 1.28125-.5.48437-1.34375.48437-.84375 0-1.3594-.48437-.5-.5-.5-1.29688zm1.125.45313q0 .32812.20315.5625.21875.21875.53125.21875.71875 0 .71875-.78125v-.45313q0-.34375-.20315-.5625-.2031-.21875-.5312-.21875-.32815 0-.5313.21875-.1875.21875-.1875.57813zm-3.0156 1-.8281-.4375 4.17185-6.67188.82815.4375z" fill="#9e9e9e"/><path d="m564.5 80.5099h-129-35.89114" stroke="#757575" stroke-linecap="butt"/><path d="m401.60886 80.5099c0-1.104566-.89546-2-2-2-1.10459 0-2 .895434-2 2 0 1.10457.89541 2 2 2 1.10454 0 2-.89543 2-2" fill="#9e9e9e"/><path d="m547.3906 246.20534h-3.375v2.29687h3.9688v1.40625h-5.7188v-8.53125h5.70315v1.42188h-3.95315v2.03125h3.375zm1.51565.48437q0-1.45312.6875-2.34375.70315-.89062 1.875-.89062 1.04685 0 1.625.70312l.07815-.59375h1.5312v6.125q0 .84375-.3906 1.45313-.375.625-1.0625.9375-.6719.32812-1.59375.32812-.70315 0-1.375-.28125-.65625-.28125-.98435-.71875l.75-1.03125q.625.70313 1.5312.70313.6719 0 1.0469-.35938.375-.35937.375-1.01562v-.34375q-.5781.67187-1.5469.67187-1.1406 0-1.8437-.89062-.70315-.90625-.70315-2.375zm1.6875.125q0 .85938.34375 1.35938.3594.48437.9531.48437.7813 0 1.1094-.57812v-2.67188q-.34375-.57812-1.09375-.57812-.60935 0-.96875.5-.34375.5-.34375 1.48437zm7.34375 3.09375h-1.7031v-9h1.7031zm4.125.125q-1.3906 0-2.2656-.85937-.875-.85938-.875-2.28125v-.17188q0-.95312.35935-1.70312.375-.75 1.04685-1.15625.6875-.40625 1.5469-.40625 1.3125 0 2.0469.82812.75.8125.75 2.3125v.6875h-4.0313q.07815.625.4844 1 .4219.375 1.0625.375.96875 0 1.5156-.70312l.8438.92187q-.39065.54688-1.0469.85938-.6406.29687-1.4375.29687zm-.1875-5.21875q-.5 0-.8125.34375-.3125.34375-.40625.96875h2.35935v-.125q-.0156-.5625-.3125-.875-.2812-.3125-.8281-.3125z" fill="#1a1a1a"/><path d="m537.9219 267.90848h-5.8438v-1.15625l2.76565-2.95313q.5625-.60937.82815-1.07812.2812-.46875.2812-.875 0-.57813-.29685-.89063-.28125-.32812-.8125-.32812-.57815 0-.90625.39062-.3281.39063-.3281 1.04688h-1.70315q0-.78125.375-1.42188.375-.65625 1.04685-1.01562.6875-.375 1.5469-.375 1.3125 0 2.0469.64062.73435.625.73435 1.78125 0 .64063-.32815 1.29688-.3281.65625-1.125 1.53125l-1.9375 2.04687h3.6563zm1.4062-4.20313.5-4.32812h4.7813v1.40625h-3.39065l-.21875 1.84375q.6094-.32813 1.28125-.32813 1.21875 0 1.90625.76563.7031.75.7031 2.10937 0 .82813-.35935 1.48438-.34375.64062-1 1.01562-.64065.35938-1.53125.35938-.7656 0-1.4375-.3125-.65625-.32813-1.0469-.89063-.375-.5625-.4062-1.29687h1.6875q.04685.53125.35935.82812.32815.29688.84375.29688.5781 0 .875-.40625.3125-.42188.3125-1.17188 0-.73437-.3594-1.10937-.3437-.39063-1-.39063-.60935 0-.98435.3125l-.15625.15625zm6.9063 3.375q0-.40625.2656-.65625.28125-.25.6875-.25.4219 0 .6875.25.28125.25.28125.65625 0 .39063-.28125.64063-.2656.25-.6875.25-.40625 0-.6875-.25-.2656-.25-.2656-.64063zm8.5937-2.70312q0 1.76562-.73435 2.71875-.73435.9375-2.14065.9375-1.4062 0-2.1406-.92188-.7344-.92187-.75-2.64062v-1.57813q0-1.78125.7344-2.70312.75-.9375 2.1406-.9375 1.3906 0 2.125.92187.75.92188.7656 2.64063zm-1.7031-1.71875q0-1.0625-.2969-1.54688-.2812-.48437-.8906-.48437-.59375 0-.8906.46875-.2813.45312-.2969 1.4375v2.0625q0 1.04687.28125 1.5625.28125.5.92185.5.6094 0 .89065-.48438.28125-.48437.28125-1.48437zm2.9375-1.64063q0-.78125.5-1.26562.5156-.5 1.34375-.5.82815 0 1.34375.48437.5156.48438.5156 1.3125v.42188q0 .78125-.5156 1.26562-.5156.48438-1.3281.48438-.8438 0-1.3594-.48438-.5-.48437-.5-1.29687zm1.125.45313q0 .34375.2031.5625.20315.21875.5313.21875.3281 0 .5156-.21875.1875-.21875.1875-.57813v-.4375q0-.35937-.1875-.5625-.1875-.21875-.53125-.21875-.32815 0-.53125.21875-.1875.20313-.1875.57813zm2.9531 4.34375q0-.79688.51565-1.26563.51565-.48437 1.32815-.48437.8281 0 1.3437.48437.51565.46875.51565 1.29688v.42187q0 .79688-.5 1.28125-.5.48438-1.34375.48438-.84375 0-1.3594-.48438-.5-.5-.5-1.29687zm1.125.45312q0 .32813.20315.5625.21875.21875.53125.21875.71875 0 .71875-.78125v-.45312q0-.34375-.20315-.5625-.2031-.21875-.5312-.21875-.32815 0-.5313.21875-.1875.21875-.1875.57812zm-3.0156 1-.8281-.4375 4.17185-6.67187.82815.4375z" fill="#9e9e9e"/><path d="m564.5 254.40846h-129-57.85965" stroke="#757575" stroke-linecap="butt"/><path d="m379.64035 254.40846c0-1.10456-.89542-2-2-2-1.10455 0-2 .89544-2 2 0 1.10459.89545 2.00002 2 2.00002 1.10458 0 2-.89543 2-2.00002" fill="#9e9e9e"/></svg>