<svg fill="none" height="310" stroke-linecap="square" stroke-miterlimit="10" viewBox="0 0 580 310" width="580" xmlns="http://www.w3.org/2000/svg"><path d="m0 0h580v310h-580z" fill="none"/><path d="m290 15.5c17.58218 0 35.0059 3.32375 51.35336 9.79618l-12.83831 32.425954c-12.26062-4.854321-25.3284-7.347134-38.51505-7.347134z" fill="#ffc000"/><path d="m341.35336 25.29618c65.34799 25.873097 101.2428 96.3206 83.76398 164.39607l-33.77934-8.67307c13.1091-51.05659-13.81197-103.89222-62.82295-123.297046z" fill="#c00000"/><path d="m255.30775 19.882648c11.33449-2.9102 22.99013-4.382648 34.69225-4.382648v34.875c-8.7766 0-17.5183 1.104336-26.01917 3.286987z" fill="#70ad47"/><path d="m150.77527 163.75928c-4.20471-66.83199 39.67218-127.22333 104.53248-143.876632l8.67308 33.779339c-48.64524 12.489973-81.55291 57.783483-78.39938 107.907473z" fill="#a64d79"/><path d="m238.64662 284.70383c-50.24325-19.89273-84.47827-67.01319-87.87135-120.94455l34.80618-2.18982c2.54482 40.44851 28.22107 75.78888 65.90352 90.7084z" fill="#38761d"/><path d="m425.11734 189.69225c-9.95871 38.78666-36.10554 71.42323-71.78567 89.60315-35.68012 18.17994-77.45237 20.14988-114.68505 5.40843l12.83835-32.42597c27.92453 11.05609 59.25368 9.57864 86.01378-4.0563 26.7601-13.63495 46.37021-38.11238 53.83925-67.20238z" fill="#4472c4"/><path d="m18.015625 24.5v3h-1.75v-8.53125h3.328125q.953125 0 1.6875.359375.734375.34375 1.125 1 .390625.640625.390625 1.46875 0 1.25-.859375 1.984375-.859375.71875-2.375.71875zm0-1.4375h1.578125q.6875 0 1.046875-.328125.375-.328125.375-.9375 0-.625-.375-1-.359375-.390625-1.015625-.40625h-1.609375zm9.8125 4.4375q-.125-.234375-.171875-.5625-.609375.6875-1.59375.6875-.9375 0-1.546875-.546875-.609375-.546875-.609375-1.359375 0-1.015625.734375-1.546875.75-.546875 2.171875-.546875h.765625v-.359375q0-.4375-.21875-.703125-.21875-.265625-.71875-.265625-.421875 0-.671875.203125-.234375.203125-.234375.5625h-1.6875q0-.546875.328125-1.015625.34375-.46875.96875-.734375.625-.265625 1.390625-.265625 1.171875 0 1.859375.59375.6875.578125.6875 1.640625v2.75q.015625.90625.25 1.375v.09375zm-1.40625-1.171875q.375 0 .6875-.171875.328125-.171875.46875-.453125v-1.09375h-.625q-1.265625 0-1.359375.890625v.09375q0 .3125.21875.53125.21875.203125.609375.203125zm2.34375-6.375h-4.046875v-.96875h4.046875zm4.953125 2.796875q-.34375-.046875-.609375-.046875-.96875 0-1.265625.640625v4.15625h-1.6875v-6.34375h1.59375l.046875.765625q.515625-.875 1.40625-.875.28125 0 .53125.078125zm3.34375 4.875q-1.390625 0-2.265625-.859375-.875-.859375-.875-2.28125v-.171875q0-.953125.359375-1.703125.375-.75 1.046875-1.15625.6875-.40625 1.546875-.40625 1.3125 0 2.046875.828125.75.8125.75 2.3125v.6875h-4.03125q.078125.625.484375 1 .421875.375 1.0625.375.96875 0 1.515625-.703125l.84375.921875q-.390625.546875-1.046875.859375-.640625.296875-1.4375.296875zm-.1875-5.21875q-.5 0-.8125.34375-.3125.34375-.40625.96875h2.359375v-.125q-.015625-.5625-.3125-.875-.28125-.3125-.828125-.3125zm1.84375-2.453125h-4.046875v-.96875h4.046875zm3.21875 1.203125v6.6875q0 1.046875-.5625 1.625-.546875.59375-1.59375.59375-.4375 0-.84375-.09375v-1.34375q.3125.046875.53125.046875.78125 0 .78125-.8125v-6.703125zm-1.828125-1.640625q0-.375.25-.625.265625-.25.703125-.25.4375 0 .6875.25.265625.25.265625.625 0 .390625-.265625.640625-.265625.234375-.703125.234375-.421875 0-.6875-.234375-.25-.25-.25-.640625zm6.71875 7.984375q-.125-.234375-.171875-.5625-.609375.6875-1.59375.6875-.9375 0-1.546875-.546875-.609375-.546875-.609375-1.359375 0-1.015625.734375-1.546875.75-.546875 2.171875-.546875h.765625v-.359375q0-.4375-.21875-.703125-.21875-.265625-.71875-.265625-.421875 0-.671875.203125-.234375.203125-.234375.5625h-1.6875q0-.546875.328125-1.015625.34375-.46875.96875-.734375.625-.265625 1.390625-.265625 1.171875 0 1.859375.59375.6875.578125.6875 1.640625v2.75q.015625.90625.25 1.375v.09375zm-1.40625-1.171875q.375 0 .6875-.171875.328125-.171875.46875-.453125v-1.09375h-.625q-1.265625 0-1.359375.890625v.09375q0 .3125.21875.53125.21875.203125.609375.203125zm2.34375-6.375h-4.046875v-.96875h4.046875zm4.8125 5.796875q0-.3125-.3125-.484375-.296875-.1875-.96875-.328125-2.265625-.46875-2.265625-1.921875 0-.84375.6875-1.40625.703125-.5625 1.84375-.5625 1.203125 0 1.921875.5625.734375.5625.734375 1.484375h-1.703125q0-.375-.234375-.609375-.234375-.234375-.734375-.234375-.421875 0-.65625.203125-.234375.1875-.234375.484375 0 .28125.265625.453125.265625.171875.890625.296875.640625.125 1.078125.28125 1.34375.5 1.34375 1.703125 0 .875-.75 1.421875-.734375.53125-1.921875.53125-.796875 0-1.421875-.28125-.609375-.296875-.96875-.78125-.34375-.5-.34375-1.078125h1.609375q.015625.453125.328125.703125.3125.234375.828125.234375.5 0 .734375-.1875.25-.1875.25-.484375zm9 0q0-.3125-.3125-.484375-.296875-.1875-.96875-.328125-2.265625-.46875-2.265625-1.921875 0-.84375.6875-1.40625.703125-.5625 1.84375-.5625 1.203125 0 1.921875.5625.734375.5625.734375 1.484375h-1.703125q0-.375-.234375-.609375-.234375-.234375-.734375-.234375-.421875 0-.65625.203125-.234375.1875-.234375.484375 0 .28125.265625.453125.265625.171875.890625.296875.640625.125 1.078125.28125 1.34375.5 1.34375 1.703125 0 .875-.75 1.421875-.734375.53125-1.921875.53125-.796875 0-1.421875-.28125-.609375-.296875-.96875-.78125-.34375-.5-.34375-1.078125h1.609375q.015625.453125.328125.703125.3125.234375.828125.234375.5 0 .734375-.1875.25-.1875.25-.484375zm6.375 1.109375q-.625.765625-1.734375.765625-1.03125 0-1.5625-.59375-.53125-.59375-.546875-1.71875v-4.15625h1.6875v4.09375q0 1 .90625 1 .859375 0 1.1875-.609375v-4.484375h1.703125v6.34375h-1.59375zm2.953125-2.578125q0-1.453125.6875-2.34375.703125-.890625 1.875-.890625 1.046875 0 1.625.703125l.078125-.59375h1.53125v6.125q0 .84375-.390625 1.453125-.375.625-1.0625.9375-.671875.328125-1.59375.328125-.703125 0-1.375-.28125-.65625-.28125-.984375-.71875l.75-1.03125q.625.703125 1.53125.703125.671875 0 1.046875-.359375.375-.359375.375-1.015625v-.34375q-.578125.671875-1.546875.671875-1.140625 0-1.84375-.890625-.703125-.90625-.703125-2.375zm1.6875.125q0 .859375.34375 1.359375.359375.484375.953125.484375.78125 0 1.109375-.578125v-2.671875q-.34375-.578125-1.09375-.578125-.609375 0-.96875.5-.34375.5-.34375 1.484375zm9.234375 3.09375q-.125-.234375-.171875-.5625-.609375.6875-1.59375.6875-.9375 0-1.546875-.546875-.609375-.546875-.609375-1.359375 0-1.015625.734375-1.546875.75-.546875 2.171875-.546875h.765625v-.359375q0-.4375-.21875-.703125-.21875-.265625-.71875-.265625-.421875 0-.671875.203125-.234375.203125-.234375.5625h-1.6875q0-.546875.328125-1.015625.34375-.46875.96875-.734375.625-.265625 1.390625-.265625 1.171875 0 1.859375.59375.6875.578125.6875 1.640625v2.75q.015625.90625.25 1.375v.09375zm-1.40625-1.171875q.375 0 .6875-.171875.328125-.171875.46875-.453125v-1.09375h-.625q-1.265625 0-1.359375.890625v.09375q0 .3125.21875.53125.21875.203125.609375.203125zm7.15625-.578125q0-.3125-.3125-.484375-.296875-.1875-.96875-.328125-2.265625-.46875-2.265625-1.921875 0-.84375.6875-1.40625.703125-.5625 1.84375-.5625 1.203125 0 1.921875.5625.734375.5625.734375 1.484375h-1.703125q0-.375-.234375-.609375-.234375-.234375-.734375-.234375-.421875 0-.65625.203125-.234375.1875-.234375.484375 0 .28125.265625.453125.265625.171875.890625.296875.640625.125 1.078125.28125 1.34375.5 1.34375 1.703125 0 .875-.75 1.421875-.734375.53125-1.921875.53125-.796875 0-1.421875-.28125-.609375-.296875-.96875-.78125-.34375-.5-.34375-1.078125h1.609375q.015625.453125.328125.703125.3125.234375.828125.234375.5 0 .734375-.1875.25-.1875.25-.484375z" fill="#1a1a1a"/><path d="m21.09375 42.28125h.96875v1.375h-.96875v1.84375h-1.703125v-1.84375h-3.484375l-.078125-1.0625 3.546875-5.625h1.71875zm-3.578125 0h1.875v-3l-.109375.1875zm5.71875 2.390625q0-.40625.265625-.65625.28125-.25.6875-.25.421875 0 .6875.25.28125.25.28125.65625 0 .390625-.28125.640625-.265625.25-.6875.25-.40625 0-.6875-.25-.265625-.25-.265625-.640625zm8.59375-2.703125q0 1.765625-.734375 2.71875-.734375.9375-2.140625.9375-1.40625 0-2.140625-.921875-.734375-.921875-.75-2.640625v-1.578125q0-1.78125.734375-2.703125.75-.9375 2.140625-.9375 1.390625 0 2.125.921875.75.921875.765625 2.640625zm-1.703125-1.71875q0-1.0625-.296875-1.546875-.28125-.484375-.890625-.484375-.59375 0-.890625.46875-.28125.453125-.296875 1.4375v2.0625q0 1.046875.28125 1.5625.28125.5.921875.5.609375 0 .890625-.484375.28125-.484375.28125-1.484375zm2.9375-1.640625q0-.78125.5-1.265625.515625-.5 1.34375-.5.828125 0 1.34375.484375.515625.484375.515625 1.3125v.421875q0 .78125-.515625 1.265625-.515625.484375-1.328125.484375-.84375 0-1.359375-.484375-.5-.484375-.5-1.296875zm1.125.453125q0 .34375.203125.5625.203125.21875.53125.21875.328125 0 .515625-.21875.1875-.21875.1875-.578125v-.4375q0-.359375-.1875-.5625-.1875-.21875-.53125-.21875-.328125 0-.53125.21875-.1875.203125-.1875.578125zm2.953125 4.34375q0-.796875.515625-1.265625.515625-.484375 1.328125-.484375.828125 0 1.34375.484375.515625.46875.515625 1.296875v.421875q0 .796875-.5 1.28125-.5.484375-1.34375.484375-.84375 0-1.359375-.484375-.5-.5-.5-1.296875zm1.125.453125q0 .328125.203125.5625.21875.21875.53125.21875.71875 0 .71875-.78125v-.453125q0-.34375-.203125-.5625-.203125-.21875-.53125-.21875-.328125 0-.53125.21875-.1875.21875-.1875.578125zm-3.015625 1-.828125-.4375 4.171875-6.671875.828125.4375z" fill="#9e9e9e"/><path d="m15.5 32h129l128.89023-8.480001" stroke="#757575" stroke-linecap="butt"/><path d="m275.39023 23.519999c0-1.104569-.89545-2-2-2-1.10459 0-2 .895431-2 2 0 1.10457.89541 2 2 2 1.10455 0 2-.89543 2-2" fill="#9e9e9e"/><path d="m16.265625 72.60376v-8.53125h2.984375q1.546875 0 2.34375.59375.8125.59375.8125 1.75 0 .625-.328125 1.109375-.3125.46875-.890625.6875.65625.171875 1.03125.671875.390625.484375.390625 1.203125 0 1.234375-.796875 1.875-.78125.625-2.234375.640625zm1.75-3.71875v2.3125h1.515625q.609375 0 .953125-.296875.359375-.296875.359375-.828125 0-1.171875-1.21875-1.1875zm0-1.234375h1.3125q1.328125-.03125 1.328125-1.0625 0-.578125-.34375-.828125-.328125-.265625-1.0625-.265625h-1.234375zm9.8125 4.953125q-.125-.234375-.171875-.5625-.609375.6875-1.59375.6875-.9375 0-1.546875-.546875-.609375-.546875-.609375-1.359375 0-1.015625.734375-1.546875.75-.546875 2.171875-.546875h.765625v-.359375q0-.4375-.21875-.703125-.21875-.265625-.71875-.265625-.421875 0-.671875.203125-.234375.203125-.234375.5625h-1.6875q0-.546875.328125-1.015625.34375-.46875.96875-.734375.625-.265625 1.390625-.265625 1.171875 0 1.859375.59375.6875.578125.6875 1.640625v2.75q.015625.90625.25 1.375v.09375zm-1.40625-1.171875q.375 0 .6875-.171875.328125-.171875.46875-.453125v-1.09375h-.625q-1.265625 0-1.359375.890625v.09375q0 .3125.21875.53125.21875.203125.609375.203125zm5.515625 1.171875h-1.703125v-9h1.703125zm3.234375-7.90625v1.5625h1.09375v1.25h-1.09375v3.15625q0 .359375.140625.515625.140625.140625.515625.140625.28125 0 .5-.03125v1.28125q-.5.15625-1.03125.15625-1.78125 0-1.8125-1.8125v-3.40625h-.921875v-1.25h.921875v-1.5625zm5.65625 7.90625q-.125-.234375-.171875-.5625-.609375.6875-1.59375.6875-.9375 0-1.546875-.546875-.609375-.546875-.609375-1.359375 0-1.015625.734375-1.546875.75-.546875 2.171875-.546875h.765625v-.359375q0-.4375-.21875-.703125-.21875-.265625-.71875-.265625-.421875 0-.671875.203125-.234375.203125-.234375.5625h-1.6875q0-.546875.328125-1.015625.34375-.46875.96875-.734375.625-.265625 1.390625-.265625 1.171875 0 1.859375.59375.6875.578125.6875 1.640625v2.75q.015625.90625.25 1.375v.09375zm-1.40625-1.171875q.375 0 .6875-.171875.328125-.171875.46875-.453125v-1.09375h-.625q-1.265625 0-1.359375.890625v.09375q0 .3125.21875.53125.21875.203125.609375.203125zm5.515625 1.171875h-1.703125v-9h1.703125zm3.515625-2.546875-.609375.609375v1.9375h-1.6875v-9h1.6875v4.984375l.328125-.421875 1.625-1.90625h2.03125l-2.296875 2.640625 2.5 3.703125h-1.953125zm7.125.796875q0-.3125-.3125-.484375-.296875-.1875-.96875-.328125-2.265625-.46875-2.265625-1.921875 0-.84375.6875-1.40625.703125-.5625 1.84375-.5625 1.203125 0 1.921875.5625.734375.5625.734375 1.484375h-1.703125q0-.375-.234375-.609375-.234375-.234375-.734375-.234375-.421875 0-.65625.203125-.234375.1875-.234375.484375 0 .28125.265625.453125.265625.171875.890625.296875.640625.125 1.078125.28125 1.34375.5 1.34375 1.703125 0 .875-.75 1.421875-.734375.53125-1.921875.53125-.796875 0-1.421875-.28125-.609375-.296875-.96875-.78125-.34375-.5-.34375-1.078125h1.609375q.015625.453125.328125.703125.3125.234375.828125.234375.5 0 .734375-.1875.25-.1875.25-.484375zm4.125-4.59375.0625.734375q.671875-.84375 1.8125-.84375 1.015625 0 1.5.59375.5.578125.515625 1.765625v4.09375h-1.703125v-4.0625q0-.53125-.234375-.765625-.234375-.25-.78125-.25-.703125 0-1.0625.609375v4.46875h-1.703125v-6.34375zm7.234375 6.34375h-1.703125v-6.34375h1.703125zm-1.796875-7.984375q0-.375.25-.625.265625-.25.703125-.25.421875 0 .671875.25.265625.25.265625.625 0 .390625-.265625.640625-.25.234375-.6875.234375-.421875 0-.6875-.234375-.25-.25-.25-.640625zm6.4375 6.234375q0-.3125-.3125-.484375-.296875-.1875-.96875-.328125-2.265625-.46875-2.265625-1.921875 0-.84375.6875-1.40625.703125-.5625 1.84375-.5625 1.203125 0 1.921875.5625.734375.5625.734375 1.484375h-1.703125q0-.375-.234375-.609375-.234375-.234375-.734375-.234375-.421875 0-.65625.203125-.234375.1875-.234375.484375 0 .28125.265625.453125.265625.171875.890625.296875.640625.125 1.078125.28125 1.34375.5 1.34375 1.703125 0 .875-.75 1.421875-.734375.53125-1.921875.53125-.796875 0-1.421875-.28125-.609375-.296875-.96875-.78125-.34375-.5-.34375-1.078125h1.609375q.015625.453125.328125.703125.3125.234375.828125.234375.5 0 .734375-.1875.25-.1875.25-.484375z" fill="#1a1a1a"/><path d="m21.921875 90.60376h-5.84375v-1.15625l2.765625-2.953125q.5625-.609375.828125-1.078125.28125-.46875.28125-.875 0-.578125-.296875-.890625-.28125-.328125-.8125-.328125-.578125 0-.90625.390625-.328125.390625-.328125 1.046875h-1.703125q0-.78125.375-1.421875.375-.65625 1.046875-1.015625.6875-.375 1.546875-.375 1.3125 0 2.046875.640625.734375.625.734375 1.78125 0 .640625-.328125 1.296875-.328125.65625-1.125 1.53125l-1.9375 2.046875h3.65625zm7 0h-5.84375v-1.15625l2.765625-2.953125q.5625-.609375.828125-1.078125.28125-.46875.28125-.875 0-.578125-.296875-.890625-.28125-.328125-.8125-.328125-.578125 0-.90625.390625-.328125.390625-.328125 1.046875h-1.703125q0-.78125.375-1.421875.375-.65625 1.046875-1.015625.6875-.375 1.546875-.375 1.3125 0 2.046875.640625.734375.625.734375 1.78125 0 .640625-.328125 1.296875-.328125.65625-1.125 1.53125l-1.9375 2.046875h3.65625zm1.3125-.828125q0-.40625.265625-.65625.28125-.25.6875-.25.421875 0 .6875.25.28125.25.28125.65625 0 .390625-.28125.640625-.265625.25-.6875.25-.40625 0-.6875-.25-.265625-.25-.265625-.640625zm8.59375-2.703125q0 1.765625-.734375 2.71875-.734375.9375-2.140625.9375-1.40625 0-2.140625-.921875-.734375-.921875-.75-2.640625v-1.578125q0-1.78125.734375-2.703125.75-.9375 2.140625-.9375 1.390625 0 2.125.921875.75.921875.765625 2.640625zm-1.703125-1.71875q0-1.0625-.296875-1.546875-.28125-.484375-.890625-.484375-.59375 0-.890625.46875-.28125.453125-.296875 1.4375v2.0625q0 1.046875.28125 1.5625.28125.5.921875.5.609375 0 .890625-.484375.28125-.484375.28125-1.484375zm2.9375-1.640625q0-.78125.5-1.265625.515625-.5 1.34375-.5.828125 0 1.34375.484375.515625.484375.515625 1.3125v.421875q0 .78125-.515625 1.265625-.515625.484375-1.328125.484375-.84375 0-1.359375-.484375-.5-.484375-.5-1.296875zm1.125.453125q0 .34375.203125.5625.203125.21875.53125.21875.328125 0 .515625-.21875.1875-.21875.1875-.578125v-.4375q0-.359375-.1875-.5625-.1875-.21875-.53125-.21875-.328125 0-.53125.21875-.1875.203125-.1875.578125zm2.953125 4.34375q0-.796875.515625-1.265625.515625-.484375 1.328125-.484375.828125 0 1.34375.484375.515625.46875.515625 1.296875v.421875q0 .796875-.5 1.28125-.5.484375-1.34375.484375-.84375 0-1.359375-.484375-.5-.5-.5-1.296875zm1.125.453125q0 .328125.203125.5625.21875.21875.53125.21875.71875 0 .71875-.78125v-.453125q0-.34375-.203125-.5625-.203125-.21875-.53125-.21875-.328125 0-.53125.21875-.1875.21875-.1875.578125zm-3.015625 1-.828125-.4375 4.171875-6.671875.828125.4375z" fill="#9e9e9e"/><path d="m15.5 77.10376h129 38.28502" stroke="#757575" stroke-linecap="butt"/><path d="m184.78502 77.10376c0-1.10457-.89543-2-2-2s-2 .89543-2 2 .89543 2 2 2 2-.89543 2-2" fill="#9e9e9e"/><path d="m21.078125 226.63062h-3.078125l-.59375 1.76562h-1.859375l3.171875-8.53125h1.625l3.203125 8.53125h-1.875zm-2.609375-1.42188h2.140625l-1.078125-3.1875zm11.390625.07813q0 1.46875-.671875 2.35937-.65625.875-1.796875.875-.953125 0-1.546875-.67187v2.98437h-1.6875v-8.78125h1.5625l.0625.625q.609375-.73437 1.609375-.73437 1.171875 0 1.8125.875.65625.85937.65625 2.375zm-1.6875-.125q0-.89063-.328125-1.35938-.3125-.48437-.90625-.48437-.796875 0-1.09375.60937v2.59375q.3125.625 1.109375.625 1.21875 0 1.21875-1.98437zm6.40625 1.48437q0-.3125-.3125-.48437-.296875-.1875-.96875-.32813-2.265625-.46875-2.265625-1.92187 0-.84375.6875-1.40625.703125-.5625 1.84375-.5625 1.203125 0 1.921875.5625.734375.5625.734375 1.48437h-1.703125q0-.375-.234375-.60937-.234375-.23438-.734375-.23438-.421875 0-.65625.20313-.234375.1875-.234375.48437 0 .28125.265625.45313.265625.17187.890625.29687.640625.125 1.078125.28125 1.34375.5 1.34375 1.70313 0 .875-.75 1.42187-.734375.53125-1.921875.53125-.796875 0-1.421875-.28125-.609375-.29687-.96875-.78125-.34375-.5-.34375-1.07812h1.609375q.015625.45312.328125.70312.3125.23438.828125.23438.5 0 .734375-.1875.25-.1875.25-.48438zm5.484375 1.875q-1.390625 0-2.265625-.85937-.875-.85938-.875-2.28125v-.17188q0-.95312.359375-1.70312.375-.75 1.046875-1.15625.6875-.40625 1.546875-.40625 1.3125 0 2.046875.82812.75.8125.75 2.3125v.6875h-4.03125q.078125.625.484375 1 .421875.375 1.0625.375.96875 0 1.515625-.70312l.84375.92187q-.390625.54688-1.046875.85938-.640625.29687-1.4375.29687zm-.1875-5.21875q-.5 0-.8125.34375-.3125.34375-.40625.96875h2.359375v-.125q-.015625-.5625-.3125-.875-.28125-.3125-.828125-.3125z" fill="#1a1a1a"/><path d="m20.1875 246.39624h-1.6875v-6.53125l-2.015625.625v-1.375l3.53125-1.26562h.171875zm8.453125-6.26562q0 .625-.3125 1.10937-.3125.46875-.859375.76563.625.29687.984375.82812.375.51563.375 1.21875 0 1.14063-.78125 1.8125-.765625.65625-2.109375.65625-1.328125 0-2.109375-.65625-.765625-.67187-.765625-1.8125 0-.70312.359375-1.23437.359375-.53125.984375-.8125-.546875-.29688-.859375-.76563-.3125-.48437-.3125-1.10937 0-1.09375.71875-1.73438.734375-.65625 1.984375-.65625 1.25 0 1.96875.65625.734375.64063.734375 1.73438zm-1.515625 3.79687q0-.54687-.328125-.875-.3125-.34375-.859375-.34375-.546875 0-.875.32813-.3125.32812-.3125.89062 0 .54688.3125.89063.328125.32812.890625.32812.546875 0 .859375-.3125.3125-.32812.3125-.90625zm-.171875-3.71875q0-.5-.265625-.79687-.265625-.29688-.75-.29688-.46875 0-.734375.29688-.265625.28125-.265625.79687 0 .51563.265625.82813.265625.3125.734375.3125.484375 0 .75-.3125.265625-.3125.265625-.82813zm3.28125 5.35938q0-.40625.265625-.65625.28125-.25.6875-.25.421875 0 .6875.25.28125.25.28125.65625 0 .39062-.28125.64062-.265625.25-.6875.25-.40625 0-.6875-.25-.265625-.25-.265625-.64062zm8.59375-2.70313q0 1.76563-.734375 2.71875-.734375.9375-2.140625.9375-1.40625 0-2.140625-.92187-.734375-.92188-.75-2.64063v-1.57812q0-1.78125.734375-2.70313.75-.9375 2.140625-.9375 1.390625 0 2.125.92188.75.92187.765625 2.64062zm-1.703125-1.71875q0-1.0625-.296875-1.54687-.28125-.48438-.890625-.48438-.59375 0-.890625.46875-.28125.45313-.296875 1.4375v2.0625q0 1.04688.28125 1.5625.28125.5.921875.5.609375 0 .890625-.48437.28125-.48438.28125-1.48438zm2.9375-1.64062q0-.78125.5-1.26563.515625-.5 1.34375-.5.828125 0 1.34375.48438.515625.48437.515625 1.3125v.42187q0 .78125-.515625 1.26563-.515625.48437-1.328125.48437-.84375 0-1.359375-.48437-.5-.48438-.5-1.29688zm1.125.45312q0 .34375.203125.5625.203125.21875.53125.21875.328125 0 .515625-.21875.1875-.21875.1875-.57812v-.4375q0-.35938-.1875-.5625-.1875-.21875-.53125-.21875-.328125 0-.53125.21875-.1875.20312-.1875.57812zm2.953125 4.34375q0-.79687.515625-1.26562.515625-.48438 1.328125-.48438.828125 0 1.34375.48438.515625.46875.515625 1.29687v.42188q0 .79687-.5 1.28125-.5.48437-1.34375.48437-.84375 0-1.359375-.48437-.5-.5-.5-1.29688zm1.125.45313q0 .32812.203125.5625.21875.21875.53125.21875.71875 0 .71875-.78125v-.45313q0-.34375-.203125-.5625-.203125-.21875-.53125-.21875-.328125 0-.53125.21875-.1875.21875-.1875.57813zm-3.015625 1-.828125-.4375 4.171875-6.67188.828125.4375z" fill="#9e9e9e"/><path d="m15.5 232.89624h129 38.28502" stroke="#757575" stroke-linecap="butt"/><path d="m184.78502 232.89624c0-1.10457-.89543-2-2-2s-2 .89543-2 2 .89543 2 2 2 2-.89543 2-2" fill="#9e9e9e"/><path d="m533.0156 24.5v3h-1.75v-8.53125h3.32815q.95315 0 1.6875.359375.73435.34375 1.125 1 .39065.640625.39065 1.46875 0 1.25-.8594 1.984375-.8594.71875-2.375.71875zm0-1.4375h1.57815q.6875 0 1.04685-.328125.375-.328125.375-.9375 0-.625-.375-1-.35935-.390625-1.0156-.40625h-1.6094zm9.70315-.3125q-.34375-.046875-.60935-.046875-.9688 0-1.26565.640625v4.15625h-1.6875v-6.34375h1.59375l.0469.765625q.5156-.875 1.4062-.875.2813 0 .5313.078125zm2.21875 4.75h-1.7031v-6.34375h1.7031zm-1.7969-7.984375q0-.375.25-.625.26565-.25.70315-.25.42185 0 .67185.25.26565.25.26565.625 0 .390625-.26565.640625-.25.234375-.6875.234375-.42185 0-.6875-.234375-.25-.25-.25-.640625zm5.9219 8.109375q-1.3906 0-2.2656-.859375-.875-.859375-.875-2.28125v-.171875q0-.953125.35935-1.703125.375-.75 1.04685-1.15625.6875-.40625 1.5469-.40625 1.3125 0 2.0469.828125.75.8125.75 2.3125v.6875h-4.0313q.07815.625.4844 1 .4219.375 1.0625.375.96875 0 1.5156-.703125l.8438.921875q-.39065.546875-1.0469.859375-.6406.296875-1.4375.296875zm-.1875-5.21875q-.5 0-.8125.34375-.3125.34375-.40625.96875h2.35935v-.125q-.0156-.5625-.3125-.875-.2812-.3125-.8281-.3125zm3.0156 1.875q0-1.484375.6563-2.359375.67185-.875 1.8281-.875.9219 0 1.53125.6875v-3.234375h1.6875v9h-1.51565l-.0937-.671875q-.625.796875-1.625.796875-1.125 0-1.7969-.875-.6719-.890625-.6719-2.46875zm1.6875.125q0 .890625.3125 1.375.3125.46875.9063.46875.7812 0 1.10935-.671875v-2.5q-.32815-.65625-1.09375-.65625-1.2344 0-1.2344 1.984375zm8.4844 3.21875q-1.3906 0-2.2656-.859375-.875-.859375-.875-2.28125v-.171875q0-.953125.35935-1.703125.375-.75 1.04685-1.15625.6875-.40625 1.5469-.40625 1.3125 0 2.0469.828125.75.8125.75 2.3125v.6875h-4.0313q.07815.625.4844 1 .4219.375 1.0625.375.96875 0 1.5156-.703125l.8438.921875q-.39065.546875-1.0469.859375-.6406.296875-1.4375.296875zm-.1875-5.21875q-.5 0-.8125.34375-.3125.34375-.40625.96875h2.35935v-.125q-.0156-.5625-.3125-.875-.2812-.3125-.8281-.3125z" fill="#1a1a1a"/><path d="m543.6719 36.875v1.40625h-.1563q-1.1562.015625-1.85935.59375-.6875.578125-.82815 1.609375.6719-.6875 1.70315-.6875 1.125 0 1.78125.796875.65625.796875.65625 2.09375 0 .828125-.35935 1.5-.3594.671875-1.0313 1.0625-.6562.375-1.48435.375-1.34375 0-2.17185-.9375-.82815-.953125-.82815-2.515625v-.609375q0-1.390625.51565-2.453125.5312-1.0625 1.5-1.640625.98435-.578125 2.2812-.59375zm-1.6563 4.28125q-.4062 0-.75.21875-.3281.203125-.48435.5625v.515625q0 .84375.32815 1.328125.3437.46875.9531.46875.5469 0 .875-.421875.34375-.4375.34375-1.125 0-.703125-.34375-1.125-.34375-.421875-.9219-.421875zm4.2188 3.515625q0-.40625.2656-.65625.28125-.25.6875-.25.4219 0 .6875.25.28125.25.28125.65625 0 .390625-.28125.640625-.2656.25-.6875.25-.40625 0-.6875-.25-.2656-.25-.2656-.640625zm8.5937-2.703125q0 1.765625-.73435 2.71875-.73435.9375-2.14065.9375-1.4062 0-2.1406-.921875-.7344-.921875-.75-2.640625v-1.578125q0-1.78125.7344-2.703125.75-.9375 2.1406-.9375 1.3906 0 2.125.921875.75.921875.7656 2.640625zm-1.7031-1.71875q0-1.0625-.2969-1.546875-.2812-.484375-.8906-.484375-.59375 0-.8906.46875-.2813.453125-.2969 1.4375v2.0625q0 1.046875.28125 1.5625.28125.5.92185.5.6094 0 .89065-.484375.28125-.484375.28125-1.484375zm2.9375-1.640625q0-.78125.5-1.265625.5156-.5 1.34375-.5.82815 0 1.34375.484375.5156.484375.5156 1.3125v.421875q0 .78125-.5156 1.265625-.5156.484375-1.3281.484375-.8438 0-1.3594-.484375-.5-.484375-.5-1.296875zm1.125.453125q0 .34375.2031.5625.20315.21875.5313.21875.3281 0 .5156-.21875.1875-.21875.1875-.578125v-.4375q0-.359375-.1875-.5625-.1875-.21875-.53125-.21875-.32815 0-.53125.21875-.1875.203125-.1875.578125zm2.9531 4.34375q0-.796875.51565-1.265625.51565-.484375 1.32815-.484375.8281 0 1.3437.484375.51565.46875.51565 1.296875v.421875q0 .796875-.5 1.28125-.5.484375-1.34375.484375-.84375 0-1.3594-.484375-.5-.5-.5-1.296875zm1.125.453125q0 .328125.20315.5625.21875.21875.53125.21875.71875 0 .71875-.78125v-.453125q0-.34375-.20315-.5625-.2031-.21875-.5312-.21875-.32815 0-.5313.21875-.1875.21875-.1875.578125zm-3.0156 1-.8281-.4375 4.17185-6.671875.82815.4375z" fill="#9e9e9e"/><path d="m564.5 32h-129l-120.6673-7.177618" stroke="#757575" stroke-linecap="butt"/><path d="m316.8327 24.822382c0-1.104569-.8954-2-2-2-1.10455 0-2 .895431-2 2 0 1.10457.89545 2 2 2 1.1046 0 2-.89543 2-2" fill="#9e9e9e"/><path d="m547.3906 86.63178h-3.375v2.29688h3.9688v1.40625h-5.7188v-8.53125h5.70315v1.42187h-3.95315v2.03125h3.375zm1.51565.48438q0-1.45313.6875-2.34375.70315-.89063 1.875-.89063 1.04685 0 1.625.70313l.07815-.59375h1.5312v6.125q0 .84375-.3906 1.45312-.375.625-1.0625.9375-.6719.32813-1.59375.32813-.70315 0-1.375-.28125-.65625-.28125-.98435-.71875l.75-1.03125q.625.70312 1.5312.70312.6719 0 1.0469-.35937.375-.35938.375-1.01563v-.34375q-.5781.67188-1.5469.67188-1.1406 0-1.8437-.89063-.70315-.90625-.70315-2.375zm1.6875.125q0 .85937.34375 1.35937.3594.48438.9531.48438.7813 0 1.1094-.57813v-2.67187q-.34375-.57813-1.09375-.57813-.60935 0-.96875.5-.34375.5-.34375 1.48438zm7.34375 3.09375h-1.7031v-9h1.7031zm4.125.125q-1.3906 0-2.2656-.85938-.875-.85937-.875-2.28125v-.17187q0-.95313.35935-1.70313.375-.75 1.04685-1.15625.6875-.40625 1.5469-.40625 1.3125 0 2.0469.82813.75.8125.75 2.3125v.6875h-4.0313q.07815.625.4844 1 .4219.375 1.0625.375.96875 0 1.5156-.70313l.8438.92188q-.39065.54687-1.0469.85937-.6406.29688-1.4375.29688zm-.1875-5.21875q-.5 0-.8125.34375-.3125.34375-.40625.96875h2.35935v-.125q-.0156-.5625-.3125-.875-.2812-.3125-.8281-.3125z" fill="#1a1a1a"/><path d="m537.9219 108.33491h-5.8438v-1.15625l2.76565-2.95313q.5625-.60937.82815-1.07812.2812-.46875.2812-.875 0-.57813-.29685-.89063-.28125-.32812-.8125-.32812-.57815 0-.90625.39062-.3281.39063-.3281 1.04688h-1.70315q0-.78125.375-1.42188.375-.65625 1.04685-1.01562.6875-.375 1.5469-.375 1.3125 0 2.0469.64062.73435.625.73435 1.78125 0 .64063-.32815 1.29688-.3281.65625-1.125 1.53125l-1.9375 2.04687h3.6563zm2.875-5.01563h.9062q.64065 0 .95315-.3125.3125-.32812.3125-.85937 0-.51563-.3125-.79688-.29685-.29687-.84375-.29687-.4844 0-.8125.26562-.3281.26563-.3281.6875h-1.6875q0-.65625.35935-1.1875.35935-.53125 1-.82812.65625-.3125 1.4375-.3125 1.34375 0 2.10935.65625.7813.64062.7813 1.78125 0 .59375-.3594 1.09375-.3594.48437-.9375.73437.71875.26563 1.0625.78125.3594.51563.3594 1.21875 0 1.14063-.82815 1.82813-.82815.6875-2.1875.6875-1.28125 0-2.09375-.67188-.8125-.6875-.8125-1.79687h1.6875q0 .48437.3594.79687.375.29688.8906.29688.6094 0 .9531-.3125.3438-.32813.3438-.85938 0-1.26562-1.4063-1.26562h-.9062zm5.4375 4.1875q0-.40625.2656-.65625.28125-.25.6875-.25.4219 0 .6875.25.28125.25.28125.65625 0 .39063-.28125.64063-.2656.25-.6875.25-.40625 0-.6875-.25-.2656-.25-.2656-.64063zm8.5937-2.70312q0 1.76562-.73435 2.71875-.73435.9375-2.14065.9375-1.4062 0-2.1406-.92188-.7344-.92187-.75-2.64062v-1.57813q0-1.78125.7344-2.70312.75-.9375 2.1406-.9375 1.3906 0 2.125.92187.75.92188.7656 2.64063zm-1.7031-1.71875q0-1.0625-.2969-1.54688-.2812-.48437-.8906-.48437-.59375 0-.8906.46875-.2813.45312-.2969 1.4375v2.0625q0 1.04687.28125 1.5625.28125.5.92185.5.6094 0 .89065-.48438.28125-.48437.28125-1.48437zm2.9375-1.64063q0-.78125.5-1.26562.5156-.5 1.34375-.5.82815 0 1.34375.48437.5156.48438.5156 1.3125v.42188q0 .78125-.5156 1.26562-.5156.48438-1.3281.48438-.8438 0-1.3594-.48438-.5-.48437-.5-1.29687zm1.125.45313q0 .34375.2031.5625.20315.21875.5313.21875.3281 0 .5156-.21875.1875-.21875.1875-.57813v-.4375q0-.35937-.1875-.5625-.1875-.21875-.53125-.21875-.32815 0-.53125.21875-.1875.20313-.1875.57813zm2.9531 4.34375q0-.79688.51565-1.26563.51565-.48437 1.32815-.48437.8281 0 1.3437.48437.51565.46875.51565 1.29688v.42187q0 .79688-.5 1.28125-.5.48438-1.34375.48438-.84375 0-1.3594-.48438-.5-.5-.5-1.29687zm1.125.45312q0 .32813.20315.5625.21875.21875.53125.21875.71875 0 .71875-.78125v-.45312q0-.34375-.20315-.5625-.2031-.21875-.5312-.21875-.32815 0-.5313.21875-.1875.21875-.1875.57812zm-3.0156 1-.8281-.4375 4.17185-6.67187.82815.4375z" fill="#9e9e9e"/><path d="m564.5 94.83491h-129-27.41937" stroke="#757575" stroke-linecap="butt"/><path d="m410.08063 94.83491c0-1.10457-.89543-2-2-2-1.10456 0-2 .89543-2 2 0 1.104566.89544 2 2 2 1.10457 0 2-.895434 2-2" fill="#9e9e9e"/><path d="m535.2656 268.58063v-8.53125h2.9844q1.5469 0 2.34375.59375.8125.59375.8125 1.75 0 .625-.32815 1.10937-.3125.46875-.8906.6875.65625.17188 1.03125.67188.39065.48437.39065 1.20312 0 1.23438-.7969 1.875-.78125.625-2.2344.64063zm1.75-3.71875v2.3125h1.51565q.60935 0 .95315-.29688.35935-.29687.35935-.82812 0-1.17188-1.21875-1.1875zm0-1.23438h1.3125q1.32815-.03125 1.32815-1.0625 0-.57812-.34375-.82812-.3281-.26563-1.0625-.26563h-1.2344zm9.0469 5.07813q-1.3906 0-2.2656-.85938-.875-.85937-.875-2.28125v-.17187q0-.95313.35935-1.70313.375-.75 1.04685-1.15625.6875-.40625 1.5469-.40625 1.3125 0 2.0469.82813.75.8125.75 2.3125v.6875h-4.0313q.07815.625.4844 1 .4219.375 1.0625.375.96875 0 1.5156-.70313l.8438.92188q-.39065.54687-1.0469.85937-.6406.29688-1.4375.29688zm-.1875-5.21875q-.5 0-.8125.34375-.3125.34375-.40625.96875h2.35935v-.125q-.0156-.5625-.3125-.875-.2812-.3125-.8281-.3125zm1.84375-2.45313h-4.04685v-.96875h4.04685zm5 2.79688q-.34375-.04688-.60935-.04688-.9688 0-1.26565.64063v4.15625h-1.6875v-6.34375h1.59375l.0469.76562q.5156-.875 1.4062-.875.2813 0 .5313.07813zm2.375 3.39062h3.10935v1.35938h-5.2656v-1.03125l2.9844-3.9375h-2.9063v-1.375h5.0938v1zm7.48435-.39062q0-.3125-.3125-.48438-.29685-.1875-.9687-.32812-2.26565-.46875-2.26565-1.92188 0-.84375.6875-1.40625.70315-.5625 1.84375-.5625 1.2031 0 1.9219.5625.73435.5625.73435 1.48438h-1.70315q0-.375-.23435-.60938-.23435-.23437-.73435-.23437-.4219 0-.6563.20312-.23435.1875-.23435.48438 0 .28125.26565.45312.2656.17188.8906.29688.6406.125 1.0781.28125 1.3438.5 1.3438 1.70312 0 .875-.75 1.42188-.7344.53125-1.9219.53125-.7969 0-1.4219-.28125-.60935-.29688-.9687-.78125-.3438-.5-.3438-1.07813h1.6094q.0156.45313.3281.70313.3125.23437.82815.23437.5 0 .73435-.1875.25-.1875.25-.48437z" fill="#1a1a1a"/><path d="m537.9219 286.58063h-5.8438v-1.15625l2.76565-2.95313q.5625-.60937.82815-1.07812.2812-.46875.2812-.875 0-.57813-.29685-.89063-.28125-.32812-.8125-.32812-.57815 0-.90625.39062-.3281.39063-.3281 1.04688h-1.70315q0-.78125.375-1.42188.375-.65625 1.04685-1.01562.6875-.375 1.5469-.375 1.3125 0 2.0469.64062.73435.625.73435 1.78125 0 .64063-.32815 1.29688-.3281.65625-1.125 1.53125l-1.9375 2.04687h3.6563zm6.9531-7.57813-3.2969 7.57813h-1.7812l3.29685-7.15625h-4.23435v-1.375h6.0156zm1.3594 6.75q0-.40625.2656-.65625.28125-.25.6875-.25.4219 0 .6875.25.28125.25.28125.65625 0 .39063-.28125.64063-.2656.25-.6875.25-.40625 0-.6875-.25-.2656-.25-.2656-.64063zm8.5937-2.70312q0 1.76562-.73435 2.71875-.73435.9375-2.14065.9375-1.4062 0-2.1406-.92188-.7344-.92187-.75-2.64062v-1.57813q0-1.78125.7344-2.70312.75-.9375 2.1406-.9375 1.3906 0 2.125.92187.75.92188.7656 2.64063zm-1.7031-1.71875q0-1.0625-.2969-1.54688-.2812-.48437-.8906-.48437-.59375 0-.8906.46875-.2813.45312-.2969 1.4375v2.0625q0 1.04687.28125 1.5625.28125.5.92185.5.6094 0 .89065-.48438.28125-.48437.28125-1.48437zm2.9375-1.64063q0-.78125.5-1.26562.5156-.5 1.34375-.5.82815 0 1.34375.48437.5156.48438.5156 1.3125v.42188q0 .78125-.5156 1.26562-.5156.48438-1.3281.48438-.8438 0-1.3594-.48438-.5-.48437-.5-1.29687zm1.125.45313q0 .34375.2031.5625.20315.21875.5313.21875.3281 0 .5156-.21875.1875-.21875.1875-.57813v-.4375q0-.35937-.1875-.5625-.1875-.21875-.53125-.21875-.32815 0-.53125.21875-.1875.20313-.1875.57813zm2.9531 4.34375q0-.79688.51565-1.26563.51565-.48437 1.32815-.48437.8281 0 1.3437.48437.51565.46875.51565 1.29688v.42187q0 .79688-.5 1.28125-.5.48438-1.34375.48438-.84375 0-1.3594-.48438-.5-.5-.5-1.29687zm1.125.45312q0 .32813.20315.5625.21875.21875.53125.21875.71875 0 .71875-.78125v-.45312q0-.34375-.20315-.5625-.2031-.21875-.5312-.21875-.32815 0-.5313.21875-.1875.21875-.1875.57812zm-3.0156 1-.8281-.4375 4.17185-6.67187.82815.4375z" fill="#9e9e9e"/><path d="m564.5 273.08063h-129-85.3349" stroke="#757575" stroke-linecap="butt"/><path d="m352.1651 273.08063c0-1.10456-.89545-2-2-2-1.10458 0-2 .89544-2 2 0 1.10457.89542 2 2 2 1.10455 0 2-.89543 2-2" fill="#9e9e9e"/></svg>