<svg fill="none" height="310" stroke-linecap="square" stroke-miterlimit="10" viewBox="0 0 580 310" width="580" xmlns="http://www.w3.org/2000/svg"><path d="m0 0h580v310h-580z" fill="none"/><path d="m290 15.5c60.43506 0 113.99692 38.914967 132.6724 96.39213 18.67544 57.47717-1.78336 120.44291-50.67637 155.96575l-20.49899-28.21448c36.66974-26.64213 52.01386-73.86644 38.00726-116.9743-14.00662-43.107874-54.178-72.2941-99.5043-72.2941z" fill="#ffc000"/><path d="m246.89214 22.327616c13.92204-4.52355 28.46934-6.827616 43.10786-6.827616v34.875c-10.97888 0-21.88937 1.72805-32.3309 5.120712z" fill="#70ad47"/><path d="m238.64662 25.29618c2.71674-1.075631 5.4666-2.06564 8.24552-2.968564l10.77696 33.168096c-2.08418.677193-4.14658 1.419701-6.18413 2.226422z" fill="#a64d79"/><path d="m177.14214 73.00396c15.55967-21.416073 36.8917-37.96289 61.50448-47.70778l12.83835 32.425954c-18.45959 7.308666-34.4586 19.718786-46.12837 35.780836z" fill="#38761d"/><path d="m167.75522 222.20464c-26.03301-47.35386-22.37582-105.48303 9.38692-149.20068l28.21446 20.49901c-23.82205 32.788244-26.56494 76.38512-7.0402 111.9005z" fill="#4472c4"/><path d="m371.99603 267.85788c-32.39688 23.53772-73.34668 32.01802-112.427 23.2825-39.08035-8.73548-72.52211-33.84428-91.81381-68.93574l30.56118-16.80117c14.46879 26.31862 39.5501 45.1502 68.86036 51.70183 29.31027 6.55162 60.02261.1914 84.32028-17.4619z" fill="#c00000"/><path d="m18.015625 24.5v3h-1.75v-8.53125h3.328125q.953125 0 1.6875.359375.734375.34375 1.125 1 .390625.640625.390625 1.46875 0 1.25-.859375 1.984375-.859375.71875-2.375.71875zm0-1.4375h1.578125q.6875 0 1.046875-.328125.375-.328125.375-.9375 0-.625-.375-1-.359375-.390625-1.015625-.40625h-1.609375zm9.8125 4.4375q-.125-.234375-.171875-.5625-.609375.6875-1.59375.6875-.9375 0-1.546875-.546875-.609375-.546875-.609375-1.359375 0-1.015625.734375-1.546875.75-.546875 2.171875-.546875h.765625v-.359375q0-.4375-.21875-.703125-.21875-.265625-.71875-.265625-.421875 0-.671875.203125-.234375.203125-.234375.5625h-1.6875q0-.546875.328125-1.015625.34375-.46875.96875-.734375.625-.265625 1.390625-.265625 1.171875 0 1.859375.59375.6875.578125.6875 1.640625v2.75q.015625.90625.25 1.375v.09375zm-1.40625-1.171875q.375 0 .6875-.171875.328125-.171875.46875-.453125v-1.09375h-.625q-1.265625 0-1.359375.890625v.09375q0 .3125.21875.53125.21875.203125.609375.203125zm2.34375-6.375h-4.046875v-.96875h4.046875zm4.953125 2.796875q-.34375-.046875-.609375-.046875-.96875 0-1.265625.640625v4.15625h-1.6875v-6.34375h1.59375l.046875.765625q.515625-.875 1.40625-.875.28125 0 .53125.078125zm3.34375 4.875q-1.390625 0-2.265625-.859375-.875-.859375-.875-2.28125v-.171875q0-.953125.359375-1.703125.375-.75 1.046875-1.15625.6875-.40625 1.546875-.40625 1.3125 0 2.046875.828125.75.8125.75 2.3125v.6875h-4.03125q.078125.625.484375 1 .421875.375 1.0625.375.96875 0 1.515625-.703125l.84375.921875q-.390625.546875-1.046875.859375-.640625.296875-1.4375.296875zm-.1875-5.21875q-.5 0-.8125.34375-.3125.34375-.40625.96875h2.359375v-.125q-.015625-.5625-.3125-.875-.28125-.3125-.828125-.3125zm1.84375-2.453125h-4.046875v-.96875h4.046875zm3.21875 1.203125v6.6875q0 1.046875-.5625 1.625-.546875.59375-1.59375.59375-.4375 0-.84375-.09375v-1.34375q.3125.046875.53125.046875.78125 0 .78125-.8125v-6.703125zm-1.828125-1.640625q0-.375.25-.625.265625-.25.703125-.25.4375 0 .6875.25.265625.25.265625.625 0 .390625-.265625.640625-.265625.234375-.703125.234375-.421875 0-.6875-.234375-.25-.25-.25-.640625zm6.71875 7.984375q-.125-.234375-.171875-.5625-.609375.6875-1.59375.6875-.9375 0-1.546875-.546875-.609375-.546875-.609375-1.359375 0-1.015625.734375-1.546875.75-.546875 2.171875-.546875h.765625v-.359375q0-.4375-.21875-.703125-.21875-.265625-.71875-.265625-.421875 0-.671875.203125-.234375.203125-.234375.5625h-1.6875q0-.546875.328125-1.015625.34375-.46875.96875-.734375.625-.265625 1.390625-.265625 1.171875 0 1.859375.59375.6875.578125.6875 1.640625v2.75q.015625.90625.25 1.375v.09375zm-1.40625-1.171875q.375 0 .6875-.171875.328125-.171875.46875-.453125v-1.09375h-.625q-1.265625 0-1.359375.890625v.09375q0 .3125.21875.53125.21875.203125.609375.203125zm2.34375-6.375h-4.046875v-.96875h4.046875zm4.8125 5.796875q0-.3125-.3125-.484375-.296875-.1875-.96875-.328125-2.265625-.46875-2.265625-1.921875 0-.84375.6875-1.40625.703125-.5625 1.84375-.5625 1.203125 0 1.921875.5625.734375.5625.734375 1.484375h-1.703125q0-.375-.234375-.609375-.234375-.234375-.734375-.234375-.421875 0-.65625.203125-.234375.1875-.234375.484375 0 .28125.265625.453125.265625.171875.890625.296875.640625.125 1.078125.28125 1.34375.5 1.34375 1.703125 0 .875-.75 1.421875-.734375.53125-1.921875.53125-.796875 0-1.421875-.28125-.609375-.296875-.96875-.78125-.34375-.5-.34375-1.078125h1.609375q.015625.453125.328125.703125.3125.234375.828125.234375.5 0 .734375-.1875.25-.1875.25-.484375zm9 0q0-.3125-.3125-.484375-.296875-.1875-.96875-.328125-2.265625-.46875-2.265625-1.921875 0-.84375.6875-1.40625.703125-.5625 1.84375-.5625 1.203125 0 1.921875.5625.734375.5625.734375 1.484375h-1.703125q0-.375-.234375-.609375-.234375-.234375-.734375-.234375-.421875 0-.65625.203125-.234375.1875-.234375.484375 0 .28125.265625.453125.265625.171875.890625.296875.640625.125 1.078125.28125 1.34375.5 1.34375 1.703125 0 .875-.75 1.421875-.734375.53125-1.921875.53125-.796875 0-1.421875-.28125-.609375-.296875-.96875-.78125-.34375-.5-.34375-1.078125h1.609375q.015625.453125.328125.703125.3125.234375.828125.234375.5 0 .734375-.1875.25-.1875.25-.484375zm6.375 1.109375q-.625.765625-1.734375.765625-1.03125 0-1.5625-.59375-.53125-.59375-.546875-1.71875v-4.15625h1.6875v4.09375q0 1 .90625 1 .859375 0 1.1875-.609375v-4.484375h1.703125v6.34375h-1.59375zm2.953125-2.578125q0-1.453125.6875-2.34375.703125-.890625 1.875-.890625 1.046875 0 1.625.703125l.078125-.59375h1.53125v6.125q0 .84375-.390625 1.453125-.375.625-1.0625.9375-.671875.328125-1.59375.328125-.703125 0-1.375-.28125-.65625-.28125-.984375-.71875l.75-1.03125q.625.703125 1.53125.703125.671875 0 1.046875-.359375.375-.359375.375-1.015625v-.34375q-.578125.671875-1.546875.671875-1.140625 0-1.84375-.890625-.703125-.90625-.703125-2.375zm1.6875.125q0 .859375.34375 1.359375.359375.484375.953125.484375.78125 0 1.109375-.578125v-2.671875q-.34375-.578125-1.09375-.578125-.609375 0-.96875.5-.34375.5-.34375 1.484375zm9.234375 3.09375q-.125-.234375-.171875-.5625-.609375.6875-1.59375.6875-.9375 0-1.546875-.546875-.609375-.546875-.609375-1.359375 0-1.015625.734375-1.546875.75-.546875 2.171875-.546875h.765625v-.359375q0-.4375-.21875-.703125-.21875-.265625-.71875-.265625-.421875 0-.671875.203125-.234375.203125-.234375.5625h-1.6875q0-.546875.328125-1.015625.34375-.46875.96875-.734375.625-.265625 1.390625-.265625 1.171875 0 1.859375.59375.6875.578125.6875 1.640625v2.75q.015625.90625.25 1.375v.09375zm-1.40625-1.171875q.375 0 .6875-.171875.328125-.171875.46875-.453125v-1.09375h-.625q-1.265625 0-1.359375.890625v.09375q0 .3125.21875.53125.21875.203125.609375.203125zm7.15625-.578125q0-.3125-.3125-.484375-.296875-.1875-.96875-.328125-2.265625-.46875-2.265625-1.921875 0-.84375.6875-1.40625.703125-.5625 1.84375-.5625 1.203125 0 1.921875.5625.734375.5625.734375 1.484375h-1.703125q0-.375-.234375-.609375-.234375-.234375-.734375-.234375-.421875 0-.65625.203125-.234375.1875-.234375.484375 0 .28125.265625.453125.265625.171875.890625.296875.640625.125 1.078125.28125 1.34375.5 1.34375 1.703125 0 .875-.75 1.421875-.734375.53125-1.921875.53125-.796875 0-1.421875-.28125-.609375-.296875-.96875-.78125-.34375-.5-.34375-1.078125h1.609375q.015625.453125.328125.703125.3125.234375.828125.234375.5 0 .734375-.1875.25-.1875.25-.484375z" fill="#1a1a1a"/><path d="m16.328125 41.296875.5-4.328125h4.78125v1.40625h-3.390625l-.21875 1.84375q.609375-.328125 1.28125-.328125 1.21875 0 1.90625.765625.703125.75.703125 2.109375 0 .828125-.359375 1.484375-.34375.640625-1 1.015625-.640625.359375-1.53125.359375-.765625 0-1.4375-.3125-.65625-.328125-1.046875-.890625-.375-.5625-.40625-1.296875h1.6875q.046875.53125.359375.828125.328125.296875.84375.296875.578125 0 .875-.40625.3125-.421875.3125-1.171875 0-.734375-.359375-1.109375-.34375-.390625-1-.390625-.609375 0-.984375.3125l-.15625.15625zm6.90625 3.375q0-.40625.265625-.65625.28125-.25.6875-.25.421875 0 .6875.25.28125.25.28125.65625 0 .390625-.28125.640625-.265625.25-.6875.25-.40625 0-.6875-.25-.265625-.25-.265625-.640625zm8.59375-2.703125q0 1.765625-.734375 2.71875-.734375.9375-2.140625.9375-1.40625 0-2.140625-.921875-.734375-.921875-.75-2.640625v-1.578125q0-1.78125.734375-2.703125.75-.9375 2.140625-.9375 1.390625 0 2.125.921875.75.921875.765625 2.640625zm-1.703125-1.71875q0-1.0625-.296875-1.546875-.28125-.484375-.890625-.484375-.59375 0-.890625.46875-.28125.453125-.296875 1.4375v2.0625q0 1.046875.28125 1.5625.28125.5.921875.5.609375 0 .890625-.484375.28125-.484375.28125-1.484375zm2.9375-1.640625q0-.78125.5-1.265625.515625-.5 1.34375-.5.828125 0 1.34375.484375.515625.484375.515625 1.3125v.421875q0 .78125-.515625 1.265625-.515625.484375-1.328125.484375-.84375 0-1.359375-.484375-.5-.484375-.5-1.296875zm1.125.453125q0 .34375.203125.5625.203125.21875.53125.21875.328125 0 .515625-.21875.1875-.21875.1875-.578125v-.4375q0-.359375-.1875-.5625-.1875-.21875-.53125-.21875-.328125 0-.53125.21875-.1875.203125-.1875.578125zm2.953125 4.34375q0-.796875.515625-1.265625.515625-.484375 1.328125-.484375.828125 0 1.34375.484375.515625.46875.515625 1.296875v.421875q0 .796875-.5 1.28125-.5.484375-1.34375.484375-.84375 0-1.359375-.484375-.5-.5-.5-1.296875zm1.125.453125q0 .328125.203125.5625.21875.21875.53125.21875.71875 0 .71875-.78125v-.453125q0-.34375-.203125-.5625-.203125-.21875-.53125-.21875-.328125 0-.53125.21875-.1875.21875-.1875.578125zm-3.015625 1-.828125-.4375 4.171875-6.671875.828125.4375z" fill="#9e9e9e"/><path d="m15.5 32h129l124.76852-7.893398" stroke="#757575" stroke-linecap="butt"/><path d="m271.26852 24.106602c0-1.104569-.89544-2-2-2-1.10458 0-2 .895431-2 2 0 1.10457.89542 2 2 2 1.10456 0 2-.89543 2-2" fill="#9e9e9e"/><path d="m16.265625 60.5v-8.53125h2.984375q1.546875 0 2.34375.59375.8125.59375.8125 1.75 0 .625-.328125 1.109375-.3125.46875-.890625.6875.65625.171875 1.03125.671875.390625.484375.390625 1.203125 0 1.234375-.796875 1.875-.78125.625-2.234375.640625zm1.75-3.71875v2.3125h1.515625q.609375 0 .953125-.296875.359375-.296875.359375-.828125 0-1.171875-1.21875-1.1875zm0-1.234375h1.3125q1.328125-.03125 1.328125-1.0625 0-.578125-.34375-.828125-.328125-.265625-1.0625-.265625h-1.234375zm9.8125 4.953125q-.125-.234375-.171875-.5625-.609375.6875-1.59375.6875-.9375 0-1.546875-.546875-.609375-.546875-.609375-1.359375 0-1.015625.734375-1.546875.75-.546875 2.171875-.546875h.765625v-.359375q0-.4375-.21875-.703125-.21875-.265625-.71875-.265625-.421875 0-.671875.203125-.234375.203125-.234375.5625h-1.6875q0-.546875.328125-1.015625.34375-.46875.96875-.734375.625-.265625 1.390625-.265625 1.171875 0 1.859375.59375.6875.578125.6875 1.640625v2.75q.015625.90625.25 1.375v.09375zm-1.40625-1.171875q.375 0 .6875-.171875.328125-.171875.46875-.453125v-1.09375h-.625q-1.265625 0-1.359375.890625v.09375q0 .3125.21875.53125.21875.203125.609375.203125zm5.515625 1.171875h-1.703125v-9h1.703125zm3.234375-7.90625v1.5625h1.09375v1.25h-1.09375v3.15625q0 .359375.140625.515625.140625.140625.515625.140625.28125 0 .5-.03125v1.28125q-.5.15625-1.03125.15625-1.78125 0-1.8125-1.8125v-3.40625h-.921875v-1.25h.921875v-1.5625zm5.65625 7.90625q-.125-.234375-.171875-.5625-.609375.6875-1.59375.6875-.9375 0-1.546875-.546875-.609375-.546875-.609375-1.359375 0-1.015625.734375-1.546875.75-.546875 2.171875-.546875h.765625v-.359375q0-.4375-.21875-.703125-.21875-.265625-.71875-.265625-.421875 0-.671875.203125-.234375.203125-.234375.5625h-1.6875q0-.546875.328125-1.015625.34375-.46875.96875-.734375.625-.265625 1.390625-.265625 1.171875 0 1.859375.59375.6875.578125.6875 1.640625v2.75q.015625.90625.25 1.375v.09375zm-1.40625-1.171875q.375 0 .6875-.171875.328125-.171875.46875-.453125v-1.09375h-.625q-1.265625 0-1.359375.890625v.09375q0 .3125.21875.53125.21875.203125.609375.203125zm5.515625 1.171875h-1.703125v-9h1.703125zm3.515625-2.546875-.609375.609375v1.9375h-1.6875v-9h1.6875v4.984375l.328125-.421875 1.625-1.90625h2.03125l-2.296875 2.640625 2.5 3.703125h-1.953125zm7.125.796875q0-.3125-.3125-.484375-.296875-.1875-.96875-.328125-2.265625-.46875-2.265625-1.921875 0-.84375.6875-1.40625.703125-.5625 1.84375-.5625 1.203125 0 1.921875.5625.734375.5625.734375 1.484375h-1.703125q0-.375-.234375-.609375-.234375-.234375-.734375-.234375-.421875 0-.65625.203125-.234375.1875-.234375.484375 0 .28125.265625.453125.265625.171875.890625.296875.640625.125 1.078125.28125 1.34375.5 1.34375 1.703125 0 .875-.75 1.421875-.734375.53125-1.921875.53125-.796875 0-1.421875-.28125-.609375-.296875-.96875-.78125-.34375-.5-.34375-1.078125h1.609375q.015625.453125.328125.703125.3125.234375.828125.234375.5 0 .734375-.1875.25-.1875.25-.484375zm4.125-4.59375.0625.734375q.671875-.84375 1.8125-.84375 1.015625 0 1.5.59375.5.578125.515625 1.765625v4.09375h-1.703125v-4.0625q0-.53125-.234375-.765625-.234375-.25-.78125-.25-.703125 0-1.0625.609375v4.46875h-1.703125v-6.34375zm7.234375 6.34375h-1.703125v-6.34375h1.703125zm-1.796875-7.984375q0-.375.25-.625.265625-.25.703125-.25.421875 0 .671875.25.265625.25.265625.625 0 .390625-.265625.640625-.25.234375-.6875.234375-.421875 0-.6875-.234375-.25-.25-.25-.640625zm6.4375 6.234375q0-.3125-.3125-.484375-.296875-.1875-.96875-.328125-2.265625-.46875-2.265625-1.921875 0-.84375.6875-1.40625.703125-.5625 1.84375-.5625 1.203125 0 1.921875.5625.734375.5625.734375 1.484375h-1.703125q0-.375-.234375-.609375-.234375-.234375-.734375-.234375-.421875 0-.65625.203125-.234375.1875-.234375.484375 0 .28125.265625.453125.265625.171875.890625.296875.640625.125 1.078125.28125 1.34375.5 1.34375 1.703125 0 .875-.75 1.421875-.734375.53125-1.921875.53125-.796875 0-1.421875-.28125-.609375-.296875-.96875-.78125-.34375-.5-.34375-1.078125h1.609375q.015625.453125.328125.703125.3125.234375.828125.234375.5 0 .734375-.1875.25-.1875.25-.484375z" fill="#1a1a1a"/><path d="m20.1875 78.5h-1.6875v-6.53125l-2.015625.625v-1.375l3.53125-1.265625h.171875zm3.046875-.828125q0-.40625.265625-.65625.28125-.25.6875-.25.421875 0 .6875.25.28125.25.28125.65625 0 .390625-.28125.640625-.265625.25-.6875.25-.40625 0-.6875-.25-.265625-.25-.265625-.640625zm8.59375-2.703125q0 1.765625-.734375 2.71875-.734375.9375-2.140625.9375-1.40625 0-2.140625-.921875-.734375-.921875-.75-2.640625v-1.578125q0-1.78125.734375-2.703125.75-.9375 2.140625-.9375 1.390625 0 2.125.921875.75.921875.765625 2.640625zm-1.703125-1.71875q0-1.0625-.296875-1.546875-.28125-.484375-.890625-.484375-.59375 0-.890625.46875-.28125.453125-.296875 1.4375v2.0625q0 1.046875.28125 1.5625.28125.5.921875.5.609375 0 .890625-.484375.28125-.484375.28125-1.484375zm2.9375-1.640625q0-.78125.5-1.265625.515625-.5 1.34375-.5.828125 0 1.34375.484375.515625.484375.515625 1.3125v.421875q0 .78125-.515625 1.265625-.515625.484375-1.328125.484375-.84375 0-1.359375-.484375-.5-.484375-.5-1.296875zm1.125.453125q0 .34375.203125.5625.203125.21875.53125.21875.328125 0 .515625-.21875.1875-.21875.1875-.578125v-.4375q0-.359375-.1875-.5625-.1875-.21875-.53125-.21875-.328125 0-.53125.21875-.1875.203125-.1875.578125zm2.953125 4.34375q0-.796875.515625-1.265625.515625-.484375 1.328125-.484375.828125 0 1.34375.484375.515625.46875.515625 1.296875v.421875q0 .796875-.5 1.28125-.5.484375-1.34375.484375-.84375 0-1.359375-.484375-.5-.5-.5-1.296875zm1.125.453125q0 .328125.203125.5625.21875.21875.53125.21875.71875 0 .71875-.78125v-.453125q0-.34375-.203125-.5625-.203125-.21875-.53125-.21875-.328125 0-.53125.21875-.1875.21875-.1875.578125zm-3.015625 1-.828125-.4375 4.171875-6.671875.828125.4375z" fill="#9e9e9e"/><path d="m15.5 65h129l100.60876-34.690224" stroke="#757575" stroke-linecap="butt"/><path d="m247.10876 30.309776c0-1.10457-.89543-2-2-2-1.10458 0-2 .89543-2 2 0 1.104569.89542 2 2 2 1.10457 0 2-.895431 2-2" fill="#9e9e9e"/><path d="m21.078125 91.734375h-3.078125l-.59375 1.765625h-1.859375l3.171875-8.53125h1.625l3.203125 8.53125h-1.875zm-2.609375-1.421875h2.140625l-1.078125-3.1875zm11.390625.078125q0 1.46875-.671875 2.359375-.65625.875-1.796875.875-.953125 0-1.546875-.671875v2.984375h-1.6875v-8.78125h1.5625l.0625.625q.609375-.734375 1.609375-.734375 1.171875 0 1.8125.875.65625.859375.65625 2.375zm-1.6875-.125q0-.890625-.328125-1.359375-.3125-.484375-.90625-.484375-.796875 0-1.09375.609375v2.59375q.3125.625 1.109375.625 1.21875 0 1.21875-1.984375zm6.40625 1.484375q0-.3125-.3125-.484375-.296875-.1875-.96875-.328125-2.265625-.46875-2.265625-1.921875 0-.84375.6875-1.40625.703125-.5625 1.84375-.5625 1.203125 0 1.921875.5625.734375.5625.734375 1.484375h-1.703125q0-.375-.234375-.609375-.234375-.234375-.734375-.234375-.421875 0-.65625.203125-.234375.1875-.234375.484375 0 .28125.265625.453125.265625.171875.890625.296875.640625.125 1.078125.28125 1.34375.5 1.34375 1.703125 0 .875-.75 1.421875-.734375.53125-1.921875.53125-.796875 0-1.421875-.28125-.609375-.296875-.96875-.78125-.34375-.5-.34375-1.078125h1.609375q.015625.453125.328125.703125.3125.234375.828125.234375.5 0 .734375-.1875.25-.1875.25-.484375zm5.484375 1.875q-1.390625 0-2.265625-.859375-.875-.859375-.875-2.28125v-.171875q0-.953125.359375-1.703125.375-.75 1.046875-1.15625.6875-.40625 1.546875-.40625 1.3125 0 2.046875.828125.75.8125.75 2.3125v.6875h-4.03125q.078125.625.484375 1 .421875.375 1.0625.375.96875 0 1.515625-.703125l.84375.921875q-.390625.546875-1.046875.859375-.640625.296875-1.4375.296875zm-.1875-5.21875q-.5 0-.8125.34375-.3125.34375-.40625.96875h2.359375v-.125q-.015625-.5625-.3125-.875-.28125-.3125-.828125-.3125z" fill="#1a1a1a"/><path d="m20.046875 108.09375q-.671875.640625-1.546875.640625-1.140625 0-1.828125-.765625-.671875-.78125-.671875-2.09375 0-.84375.359375-1.546875.375-.703125 1.03125-1.09375.65625-.390625 1.484375-.390625.84375 0 1.5.421875.65625.421875 1.015625 1.21875.359375.796875.375 1.8125v.625q0 2.140625-1.0625 3.359375-1.0625 1.21875-3.015625 1.296875h-.40625v-1.40625l.375-.015625q2.203125-.09375 2.390625-2.0625zm-1.140625-.65625q.421875 0 .703125-.203125.296875-.21875.453125-.515625v-.6875q0-.859375-.328125-1.328125-.328125-.484375-.875-.484375-.515625 0-.84375.46875-.328125.453125-.328125 1.15625 0 .703125.3125 1.15625.328125.4375.90625.4375zm4.328125 3.234375q0-.40625.265625-.65625.28125-.25.6875-.25.421875 0 .6875.25.28125.25.28125.65625 0 .390625-.28125.640625-.265625.25-.6875.25-.40625 0-.6875-.25-.265625-.25-.265625-.640625zm8.59375-2.703125q0 1.765625-.734375 2.71875-.734375.9375-2.140625.9375-1.40625 0-2.140625-.921875-.734375-.921875-.75-2.640625v-1.578125q0-1.78125.734375-2.703125.75-.9375 2.140625-.9375 1.390625 0 2.125.921875.75.921875.765625 2.640625zm-1.703125-1.71875q0-1.0625-.296875-1.546875-.28125-.484375-.890625-.484375-.59375 0-.890625.46875-.28125.453125-.296875 1.4375v2.0625q0 1.046875.28125 1.5625.28125.5.921875.5.609375 0 .890625-.484375.28125-.484375.28125-1.484375zm2.9375-1.640625q0-.78125.5-1.265625.515625-.5 1.34375-.5.828125 0 1.34375.484375.515625.484375.515625 1.3125v.421875q0 .78125-.515625 1.265625-.515625.484375-1.328125.484375-.84375 0-1.359375-.484375-.5-.484375-.5-1.296875zm1.125.453125q0 .34375.203125.5625.203125.21875.53125.21875.328125 0 .515625-.21875.1875-.21875.1875-.578125v-.4375q0-.359375-.1875-.5625-.1875-.21875-.53125-.21875-.328125 0-.53125.21875-.1875.203125-.1875.578125zm2.953125 4.34375q0-.796875.515625-1.265625.515625-.484375 1.328125-.484375.828125 0 1.34375.484375.515625.46875.515625 1.296875v.421875q0 .796875-.5 1.28125-.5.484375-1.34375.484375-.84375 0-1.359375-.484375-.5-.5-.5-1.296875zm1.125.453125q0 .328125.203125.5625.21875.21875.53125.21875.71875 0 .71875-.78125v-.453125q0-.34375-.203125-.5625-.203125-.21875-.53125-.21875-.328125 0-.53125.21875-.1875.21875-.1875.578125zm-3.015625 1-.828125-.4375 4.171875-6.671875.828125.4375z" fill="#9e9e9e"/><path d="m15.5 98h129l64.27449-47.715294" stroke="#757575" stroke-linecap="butt"/><path d="m210.77449 50.284706c0-1.104568-.89543-2-2-2s-2 .895432-2 2c0 1.104569.89543 2 2 2s2-.895431 2-2" fill="#9e9e9e"/><path d="m16.265625 142.17868v-8.53125h2.984375q1.546875 0 2.34375.59375.8125.59375.8125 1.75 0 .625-.328125 1.10938-.3125.46874-.890625.6875.65625.17187 1.03125.67187.390625.48437.390625 1.20313 0 1.23437-.796875 1.875-.78125.625-2.234375.64062zm1.75-3.71875v2.3125h1.515625q.609375 0 .953125-.29687.359375-.29688.359375-.82813 0-1.17187-1.21875-1.1875zm0-1.23437h1.3125q1.328125-.03126 1.328125-1.0625 0-.57813-.34375-.82813-.328125-.26563-1.0625-.26563h-1.234375zm9.046875 5.07812q-1.390625 0-2.265625-.85938-.875-.85937-.875-2.28124v-.17188q0-.95312.359375-1.70312.375-.75 1.046875-1.15626.6875-.40624 1.546875-.40624 1.3125 0 2.046875.82812.75.8125.75 2.3125v.6875h-4.03125q.078125.625.484375 1 .421875.375 1.0625.375.96875 0 1.515625-.70312l.84375.92187q-.390625.54687-1.046875.85937-.640625.29688-1.4375.29688zm-.1875-5.21875q-.5 0-.8125.34375-.3125.34375-.40625.96875h2.359375v-.125q-.015625-.5625-.3125-.875-.28125-.3125-.828125-.3125zm1.84375-2.45313h-4.046875v-.96874h4.046875zm5 2.79688q-.34375-.04688-.609375-.04688-.96875 0-1.265625.64063v4.15625h-1.6875v-6.34375h1.59375l.046875.76563q.515625-.875 1.40625-.875.28125 0 .53125.07812zm2.375 3.39062h3.109375v1.35938h-5.265625v-1.03125l2.984375-3.9375h-2.90625v-1.375h5.09375v1zm7.484375-.39062q0-.3125-.3125-.48438-.296875-.1875-.96875-.32812-2.265625-.46875-2.265625-1.92188 0-.84374.6875-1.40624.703125-.5625 1.84375-.5625 1.203125 0 1.921875.5625.734375.5625.734375 1.48437h-1.703125q0-.375-.234375-.60937-.234375-.23438-.734375-.23438-.421875 0-.65625.20312-.234375.1875-.234375.48438 0 .28125.265625.45312.265625.17188.890625.29688.640625.125 1.078125.28125 1.34375.5 1.34375 1.70313 0 .875-.75 1.42187-.734375.53125-1.921875.53125-.796875 0-1.421875-.28125-.609375-.29687-.96875-.78125-.34375-.5-.34375-1.07812h1.609375q.015625.45312.328125.70312.3125.23438.828125.23438.5 0 .734375-.1875.25-.1875.25-.48438z" fill="#1a1a1a"/><path d="m20.1875 160.17868h-1.6875v-6.53125l-2.015625.625v-1.375l3.53125-1.26563h.171875zm8.453125-6.26562q0 .625-.3125 1.10937-.3125.46875-.859375.76563.625.29687.984375.82812.375.51562.375 1.21875 0 1.14063-.78125 1.8125-.765625.65625-2.109375.65625-1.328125 0-2.109375-.65625-.765625-.67187-.765625-1.8125 0-.70313.359375-1.23437.359375-.53126.984375-.8125-.546875-.29688-.859375-.76563-.3125-.48437-.3125-1.10937 0-1.09376.71875-1.73438.734375-.65625 1.984375-.65625 1.25 0 1.96875.65625.734375.64062.734375 1.73438zm-1.515625 3.79687q0-.54687-.328125-.875-.3125-.34375-.859375-.34375-.546875 0-.875.32812-.3125.32813-.3125.89063 0 .54687.3125.89063.328125.32812.890625.32812.546875 0 .859375-.3125.3125-.32812.3125-.90625zm-.171875-3.71875q0-.5-.265625-.79688-.265625-.29687-.75-.29687-.46875 0-.734375.29687-.265625.28126-.265625.79688 0 .51562.265625.82812.265625.3125.734375.3125.484375 0 .75-.3125.265625-.3125.265625-.82812zm3.28125 5.35938q0-.40626.265625-.65626.28125-.25.6875-.25.421875 0 .6875.25.28125.25.28125.65626 0 .39062-.28125.64062-.265625.25-.6875.25-.40625 0-.6875-.25-.265625-.25-.265625-.64062zm8.59375-2.70313q0 1.76563-.734375 2.71875-.734375.9375-2.140625.9375-1.40625 0-2.140625-.92188-.734375-.92187-.75-2.64062v-1.57812q0-1.78126.734375-2.70313.75-.9375 2.140625-.9375 1.390625 0 2.125.92187.75.92188.765625 2.64063zm-1.703125-1.71875q0-1.0625-.296875-1.54688-.28125-.48437-.890625-.48437-.59375 0-.890625.46875-.28125.45312-.296875 1.4375v2.0625q0 1.04688.28125 1.5625.28125.5.921875.5.609375 0 .890625-.48438.28125-.48437.28125-1.48437zm2.9375-1.64062q0-.78126.5-1.26563.515625-.5 1.34375-.5.828125 0 1.34375.48437.515625.48438.515625 1.3125v.42188q0 .78125-.515625 1.26562-.515625.48438-1.328125.48438-.84375 0-1.359375-.48438-.5-.48437-.5-1.29687zm1.125.45312q0 .34375.203125.5625.203125.21875.53125.21875.328125 0 .515625-.21875.1875-.21875.1875-.57812v-.4375q0-.35938-.1875-.5625-.1875-.21876-.53125-.21876-.328125 0-.53125.21876-.1875.20312-.1875.57812zm2.953125 4.34375q0-.79687.515625-1.26563.515625-.48437 1.328125-.48437.828125 0 1.34375.48437.515625.46876.515625 1.29688v.42188q0 .79687-.5 1.28124-.5.48438-1.34375.48438-.84375 0-1.359375-.48438-.5-.5-.5-1.29687zm1.125.45313q0 .32812.203125.5625.21875.21874.53125.21874.71875 0 .71875-.78124v-.45313q0-.34375-.203125-.5625-.203125-.21875-.53125-.21875-.328125 0-.53125.21875-.1875.21875-.1875.57813zm-3.015625 1-.828125-.4375 4.171875-6.67188.828125.4375z" fill="#9e9e9e"/><path d="m15.5 146.67868h129 13.23651" stroke="#757575" stroke-linecap="butt"/><path d="m159.73651 146.67868c0-1.10457-.89543-2-2-2s-2 .89543-2 2 .89543 2 2 2 2-.89543 2-2" fill="#9e9e9e"/><path d="m21.390625 269.79688h-3.375v2.29687h3.96875v1.40625h-5.71875v-8.53125h5.703125v1.42187h-3.953125v2.03126h3.375zm1.515625.48437q0-1.45313.6875-2.34375.703125-.89062 1.875-.89062 1.046875 0 1.625.70312l.078125-.59375h1.53125v6.125q0 .84375-.390625 1.45313-.375.625-1.0625.9375-.671875.32812-1.59375.32812-.703125 0-1.375-.28125-.65625-.28125-.984375-.71875l.75-1.03125q.625.70313 1.53125.70313.671875 0 1.046875-.35938.375-.35938.375-1.01562v-.34376q-.578125.67188-1.546875.67188-1.140625 0-1.84375-.89062-.703125-.90626-.703125-2.375zm1.6875.125q0 .85937.34375 1.35937.359375.48438.953125.48438.78125 0 1.109375-.57812v-2.67188q-.34375-.57812-1.09375-.57812-.609375 0-.96875.5-.34375.5-.34375 1.48437zm7.34375 3.09375h-1.703125v-9h1.703125zm4.125.125q-1.390625 0-2.265625-.85938-.875-.85937-.875-2.28124v-.17188q0-.95312.359375-1.70312.375-.75 1.046875-1.15626.6875-.40624 1.546875-.40624 1.3125 0 2.046875.82812.75.8125.75 2.3125v.6875h-4.03125q.078125.625.484375 1 .421875.375 1.0625.375.96875 0 1.515625-.70312l.84375.92187q-.390625.54687-1.046875.85937-.640625.29688-1.4375.29688zm-.1875-5.21875q-.5 0-.8125.34375-.3125.34375-.40625.96875h2.359375v-.125q-.015625-.5625-.3125-.875-.28125-.3125-.828125-.3125z" fill="#1a1a1a"/><path d="m21.921875 291.5h-5.84375v-1.15625l2.765625-2.95313q.5625-.60937.828125-1.07812.28125-.46875.28125-.875 0-.57812-.296875-.89062-.28125-.32813-.8125-.32813-.578125 0-.90625.39063-.328125.39062-.328125 1.04687h-1.703125q0-.78125.375-1.42187.375-.65626 1.046875-1.01563.6875-.375 1.546875-.375 1.3125 0 2.046875.64063.734375.625.734375 1.78124 0 .64063-.328125 1.29688-.328125.65625-1.125 1.53125l-1.9375 2.04687h3.65625zm6.953125-7.57812-3.296875 7.57812h-1.78125l3.296875-7.15625h-4.234375v-1.375h6.015625zm1.359375 6.75q0-.40626.265625-.65626.28125-.25.6875-.25.421875 0 .6875.25.28125.25.28125.65626 0 .39062-.28125.64062-.265625.25-.6875.25-.40625 0-.6875-.25-.265625-.25-.265625-.64062zm8.59375-2.70313q0 1.76563-.734375 2.71875-.734375.9375-2.140625.9375-1.40625 0-2.140625-.92188-.734375-.92187-.75-2.64062v-1.57812q0-1.78126.734375-2.70313.75-.9375 2.140625-.9375 1.390625 0 2.125.92187.75.92188.765625 2.64063zm-1.703125-1.71875q0-1.0625-.296875-1.54688-.28125-.48437-.890625-.48437-.59375 0-.890625.46875-.28125.45312-.296875 1.4375v2.0625q0 1.04688.28125 1.5625.28125.5.921875.5.609375 0 .890625-.48438.28125-.48437.28125-1.48437zm2.9375-1.64062q0-.78126.5-1.26563.515625-.5 1.34375-.5.828125 0 1.34375.48437.515625.48438.515625 1.3125v.42188q0 .78125-.515625 1.26562-.515625.48438-1.328125.48438-.84375 0-1.359375-.48438-.5-.48437-.5-1.29687zm1.125.45312q0 .34375.203125.5625.203125.21875.53125.21875.328125 0 .515625-.21875.1875-.21875.1875-.57812v-.4375q0-.35938-.1875-.5625-.1875-.21876-.53125-.21876-.328125 0-.53125.21876-.1875.20312-.1875.57812zm2.953125 4.34375q0-.79687.515625-1.26563.515625-.48437 1.328125-.48437.828125 0 1.34375.48437.515625.46876.515625 1.29688v.42188q0 .79687-.5 1.28124-.5.48438-1.34375.48438-.84375 0-1.359375-.48438-.5-.5-.5-1.29687zm1.125.45313q0 .32812.203125.5625.21875.21874.53125.21874.71875 0 .71875-.78124v-.45313q0-.34375-.203125-.5625-.203125-.21875-.53125-.21875-.328125 0-.53125.21875-.1875.21875-.1875.57813zm-3.015625 1-.828125-.4375 4.171875-6.67188.828125.4375z" fill="#9e9e9e"/><path d="m15.5 278h129l116.59058 6.33337" stroke="#757575" stroke-linecap="butt"/><path d="m263.09058 284.33337c0-1.10457-.89545-2-2-2-1.10458 0-2 .89543-2 2 0 1.10456.89542 2 2 2 1.10455 0 2-.89544 2-2" fill="#9e9e9e"/><path d="m533.0156 106.54752v3h-1.75v-8.53125h3.32815q.95315 0 1.6875.35938.73435.34375 1.125 1 .39065.64062.39065 1.46875 0 1.25-.8594 1.98437-.8594.71875-2.375.71875zm0-1.4375h1.57815q.6875 0 1.04685-.32812.375-.32813.375-.9375 0-.625-.375-1-.35935-.39063-1.0156-.40625h-1.6094zm9.70315-.3125q-.34375-.04687-.60935-.04687-.9688 0-1.26565.64062v4.15625h-1.6875v-6.34375h1.59375l.0469.76563q.5156-.875 1.4062-.875.2813 0 .5313.07812zm2.21875 4.75h-1.7031v-6.34375h1.7031zm-1.7969-7.98437q0-.375.25-.625.26565-.25.70315-.25.42185 0 .67185.25.26565.25.26565.625 0 .39062-.26565.64062-.25.23438-.6875.23438-.42185 0-.6875-.23438-.25-.25-.25-.64062zm5.9219 8.10937q-1.3906 0-2.2656-.85937-.875-.85938-.875-2.28125v-.17188q0-.95312.35935-1.70312.375-.75 1.04685-1.15625.6875-.40625 1.5469-.40625 1.3125 0 2.0469.82812.75.8125.75 2.3125v.6875h-4.0313q.07815.625.4844 1 .4219.375 1.0625.375.96875 0 1.5156-.70312l.8438.92187q-.39065.54688-1.0469.85938-.6406.29687-1.4375.29687zm-.1875-5.21875q-.5 0-.8125.34375-.3125.34375-.40625.96875h2.35935v-.125q-.0156-.5625-.3125-.875-.2812-.3125-.8281-.3125zm3.0156 1.875q0-1.48437.6563-2.35937.67185-.875 1.8281-.875.9219 0 1.53125.6875v-3.23438h1.6875v9h-1.51565l-.0937-.67187q-.625.79687-1.625.79687-1.125 0-1.7969-.875-.6719-.89062-.6719-2.46875zm1.6875.125q0 .89063.3125 1.375.3125.46875.9063.46875.7812 0 1.10935-.67187v-2.5q-.32815-.65625-1.09375-.65625-1.2344 0-1.2344 1.98437zm8.4844 3.21875q-1.3906 0-2.2656-.85937-.875-.85938-.875-2.28125v-.17188q0-.95312.35935-1.70312.375-.75 1.04685-1.15625.6875-.40625 1.5469-.40625 1.3125 0 2.0469.82812.75.8125.75 2.3125v.6875h-4.0313q.07815.625.4844 1 .4219.375 1.0625.375.96875 0 1.5156-.70312l.8438.92187q-.39065.54688-1.0469.85938-.6406.29687-1.4375.29687zm-.1875-5.21875q-.5 0-.8125.34375-.3125.34375-.40625.96875h2.35935v-.125q-.0156-.5625-.3125-.875-.2812-.3125-.8281-.3125z" fill="#1a1a1a"/><path d="m537.09375 124.32877h.96875v1.375h-.96875v1.84375h-1.70315v-1.84375h-3.48435l-.07815-1.0625 3.5469-5.625h1.71875zm-3.57815 0h1.875v-3l-.10935.1875zm11.3125-.3125q0 1.76563-.73435 2.71875-.73435.9375-2.14065.9375-1.4062 0-2.1406-.92187-.7344-.92188-.75-2.64063v-1.57812q0-1.78125.7344-2.70313.75-.9375 2.1406-.9375 1.3906 0 2.125.92188.75.92187.7656 2.64062zm-1.7031-1.71875q0-1.0625-.2969-1.54687-.2812-.48438-.8906-.48438-.59375 0-.8906.46875-.2813.45313-.2969 1.4375v2.0625q0 1.04688.28125 1.5625.28125.5.92185.5.6094 0 .89065-.48437.28125-.48438.28125-1.48438zm3.1094 4.42188q0-.40625.2656-.65625.28125-.25.6875-.25.4219 0 .6875.25.28125.25.28125.65625 0 .39062-.28125.64062-.2656.25-.6875.25-.40625 0-.6875-.25-.2656-.25-.2656-.64062zm8.5937-2.70313q0 1.76563-.73435 2.71875-.73435.9375-2.14065.9375-1.4062 0-2.1406-.92187-.7344-.92188-.75-2.64063v-1.57812q0-1.78125.7344-2.70313.75-.9375 2.1406-.9375 1.3906 0 2.125.92188.75.92187.7656 2.64062zm-1.7031-1.71875q0-1.0625-.2969-1.54687-.2812-.48438-.8906-.48438-.59375 0-.8906.46875-.2813.45313-.2969 1.4375v2.0625q0 1.04688.28125 1.5625.28125.5.92185.5.6094 0 .89065-.48437.28125-.48438.28125-1.48438zm2.9375-1.64062q0-.78125.5-1.26563.5156-.5 1.34375-.5.82815 0 1.34375.48438.5156.48437.5156 1.3125v.42187q0 .78125-.5156 1.26563-.5156.48437-1.3281.48437-.8438 0-1.3594-.48437-.5-.48438-.5-1.29688zm1.125.45312q0 .34375.2031.5625.20315.21875.5313.21875.3281 0 .5156-.21875.1875-.21875.1875-.57812v-.4375q0-.35938-.1875-.5625-.1875-.21875-.53125-.21875-.32815 0-.53125.21875-.1875.20312-.1875.57812zm2.9531 4.34375q0-.79687.51565-1.26562.51565-.48438 1.32815-.48438.8281 0 1.3437.48438.51565.46875.51565 1.29687v.42188q0 .79687-.5 1.28125-.5.48437-1.34375.48437-.84375 0-1.3594-.48437-.5-.5-.5-1.29688zm1.125.45313q0 .32812.20315.5625.21875.21875.53125.21875.71875 0 .71875-.78125v-.45313q0-.34375-.20315-.5625-.2031-.21875-.5312-.21875-.32815 0-.5313.21875-.1875.21875-.1875.57813zm-3.0156 1-.8281-.4375 4.17185-6.67188.82815.4375z" fill="#9e9e9e"/><path d="m564.5 114.04752h-129-19.46124" stroke="#757575" stroke-linecap="butt"/><path d="m418.03876 114.04752c0-1.104565-.89542-2-2-2-1.10456 0-2 .895435-2 2 0 1.10457.89544 2 2 2 1.10458 0 2-.89543 2-2" fill="#9e9e9e"/></svg>