<svg fill="none" height="604" stroke-linecap="square" stroke-miterlimit="10" viewBox="0 0 580 604" width="580" xmlns="http://www.w3.org/2000/svg" xmlns:xlink="http://www.w3.org/1999/xlink"><clipPath id="a"><path d="m71 36.5h480v470.16666h-480z"/></clipPath><path d="m0 0h580v604h-580z" fill="none"/><path d="m71.5 506.5h480" stroke="#333" stroke-linecap="butt"/><path d="m71.5 389.5h480" stroke="#ccc" stroke-linecap="butt"/><path d="m71.5 271.5h480" stroke="#ccc" stroke-linecap="butt"/><path d="m71.5 154.5h480" stroke="#ccc" stroke-linecap="butt"/><path d="m71.5 36.5h480" stroke="#ccc" stroke-linecap="butt"/><path d="m71.5 467.5h480" stroke="#e6e6e6" stroke-linecap="butt"/><path d="m71.5 428.5h480" stroke="#e6e6e6" stroke-linecap="butt"/><path d="m71.5 349.5h480" stroke="#e6e6e6" stroke-linecap="butt"/><path d="m71.5 310.5h480" stroke="#e6e6e6" stroke-linecap="butt"/><path d="m71.5 232.5h480" stroke="#e6e6e6" stroke-linecap="butt"/><path d="m71.5 193.5h480" stroke="#e6e6e6" stroke-linecap="butt"/><path d="m71.5 114.5h480" stroke="#e6e6e6" stroke-linecap="butt"/><path d="m71.5 75.5h480" stroke="#e6e6e6" stroke-linecap="butt"/><path d="m71.5 506.5v-470" stroke="#000" stroke-linecap="butt"/><path clip-path="url(#a)" d="m99 507h-18v-290h18z"/><path clip-path="url(#a)" d="m99 507h-18v-290h18z" fill="#5d4948"/><path clip-path="url(#a)" d="m126 507h-18v-291h18z"/><path clip-path="url(#a)" d="m126 507h-18v-291h18z" fill="#5d4948"/><path clip-path="url(#a)" d="m154 507h-18v-298h18z"/><path clip-path="url(#a)" d="m154 507h-18v-298h18z" fill="#5d4948"/><path clip-path="url(#a)" d="m182 507h-18v-307h18z"/><path clip-path="url(#a)" d="m182 507h-18v-307h18z" fill="#5d4948"/><path clip-path="url(#a)" d="m209 507h-18v-302h18z"/><path clip-path="url(#a)" d="m209 507h-18v-302h18z" fill="#5d4948"/><path clip-path="url(#a)" d="m237 507h-18v-289h18z"/><path clip-path="url(#a)" d="m237 507h-18v-289h18z" fill="#5d4948"/><path clip-path="url(#a)" d="m265 507h-18v-268h18z"/><path clip-path="url(#a)" d="m265 507h-18v-268h18z" fill="#5d4948"/><path clip-path="url(#a)" d="m292 507h-18v-266h18z"/><path clip-path="url(#a)" d="m292 507h-18v-266h18z" fill="#5d4948"/><path clip-path="url(#a)" d="m320 507h-18v-219h18z"/><path clip-path="url(#a)" d="m320 507h-18v-219h18z" fill="#5d4948"/><path clip-path="url(#a)" d="m348 507h-18v-199h18z"/><path clip-path="url(#a)" d="m348 507h-18v-199h18z" fill="#5d4948"/><path clip-path="url(#a)" d="m375 507h-18v-165h18z"/><path clip-path="url(#a)" d="m375 507h-18v-165h18z" fill="#5d4948"/><path clip-path="url(#a)" d="m403 507h-18v-154h18z"/><path clip-path="url(#a)" d="m403 507h-18v-154h18z" fill="#5d4948"/><path clip-path="url(#a)" d="m431 507h-18v-148h18z"/><path clip-path="url(#a)" d="m431 507h-18v-148h18z" fill="#5d4948"/><path clip-path="url(#a)" d="m458 507h-18v-149h18z"/><path clip-path="url(#a)" d="m458 507h-18v-149h18z" fill="#5d4948"/><path clip-path="url(#a)" d="m486 507h-18v-144h18z"/><path clip-path="url(#a)" d="m486 507h-18v-144h18z" fill="#5d4948"/><path clip-path="url(#a)" d="m514 507h-18v-139h18z"/><path clip-path="url(#a)" d="m514 507h-18v-139h18z" fill="#5d4948"/><path clip-path="url(#a)" d="m541 507h-18v-138h18z"/><path clip-path="url(#a)" d="m541 507h-18v-138h18z" fill="#5d4948"/><path clip-path="url(#a)" d="m99 217h-18v-3h18z"/><path clip-path="url(#a)" d="m99 217h-18v-3h18z" fill="#d03a3c"/><path clip-path="url(#a)" d="m126 216h-18v-2h18z"/><path clip-path="url(#a)" d="m126 216h-18v-2h18z" fill="#d03a3c"/><path clip-path="url(#a)" d="m154 209h-18v-3h18z"/><path clip-path="url(#a)" d="m154 209h-18v-3h18z" fill="#d03a3c"/><path clip-path="url(#a)" d="m182 200h-18v-2h18z"/><path clip-path="url(#a)" d="m182 200h-18v-2h18z" fill="#d03a3c"/><path clip-path="url(#a)" d="m209 205h-18v-2h18z"/><path clip-path="url(#a)" d="m209 205h-18v-2h18z" fill="#d03a3c"/><path clip-path="url(#a)" d="m237 218h-18v-3h18z"/><path clip-path="url(#a)" d="m237 218h-18v-3h18z" fill="#d03a3c"/><path clip-path="url(#a)" d="m265 239h-18v-5h18z"/><path clip-path="url(#a)" d="m265 239h-18v-5h18z" fill="#d03a3c"/><path clip-path="url(#a)" d="m292 241h-18v-7h18z"/><path clip-path="url(#a)" d="m292 241h-18v-7h18z" fill="#d03a3c"/><path clip-path="url(#a)" d="m320 288h-18v-7h18z"/><path clip-path="url(#a)" d="m320 288h-18v-7h18z" fill="#d03a3c"/><path clip-path="url(#a)" d="m348 308h-18v-5h18z"/><path clip-path="url(#a)" d="m348 308h-18v-5h18z" fill="#d03a3c"/><path clip-path="url(#a)" d="m375 342h-18v-3h18z"/><path clip-path="url(#a)" d="m375 342h-18v-3h18z" fill="#d03a3c"/><path clip-path="url(#a)" d="m403 353h-18v-3h18z"/><path clip-path="url(#a)" d="m403 353h-18v-3h18z" fill="#d03a3c"/><path clip-path="url(#a)" d="m431 359h-18v-4h18z"/><path clip-path="url(#a)" d="m431 359h-18v-4h18z" fill="#d03a3c"/><path clip-path="url(#a)" d="m458 358h-18v-5h18z"/><path clip-path="url(#a)" d="m458 358h-18v-5h18z" fill="#d03a3c"/><path clip-path="url(#a)" d="m486 363h-18v-3h18z"/><path clip-path="url(#a)" d="m486 363h-18v-3h18z" fill="#d03a3c"/><path clip-path="url(#a)" d="m514 368h-18v-3h18z"/><path clip-path="url(#a)" d="m514 368h-18v-3h18z" fill="#d03a3c"/><path clip-path="url(#a)" d="m541 369h-18v-3h18z"/><path clip-path="url(#a)" d="m541 369h-18v-3h18z" fill="#d03a3c"/><path clip-path="url(#a)" d="m99 214h-18v-22h18z"/><path clip-path="url(#a)" d="m99 214h-18v-22h18z" fill="#e6c900"/><path clip-path="url(#a)" d="m126 214h-18v-31h18z"/><path clip-path="url(#a)" d="m126 214h-18v-31h18z" fill="#e6c900"/><path clip-path="url(#a)" d="m154 206h-18v-36h18z"/><path clip-path="url(#a)" d="m154 206h-18v-36h18z" fill="#e6c900"/><path clip-path="url(#a)" d="m182 198h-18v-31h18z"/><path clip-path="url(#a)" d="m182 198h-18v-31h18z" fill="#e6c900"/><path clip-path="url(#a)" d="m209 203h-18v-36h18z"/><path clip-path="url(#a)" d="m209 203h-18v-36h18z" fill="#e6c900"/><path clip-path="url(#a)" d="m237 215h-18v-43h18z"/><path clip-path="url(#a)" d="m237 215h-18v-43h18z" fill="#e6c900"/><path clip-path="url(#a)" d="m265 234h-18v-52h18z"/><path clip-path="url(#a)" d="m265 234h-18v-52h18z" fill="#e6c900"/><path clip-path="url(#a)" d="m292 234h-18v-78h18z"/><path clip-path="url(#a)" d="m292 234h-18v-78h18z" fill="#e6c900"/><path clip-path="url(#a)" d="m320 281h-18v-82h18z"/><path clip-path="url(#a)" d="m320 281h-18v-82h18z" fill="#e6c900"/><path clip-path="url(#a)" d="m348 303h-18v-90h18z"/><path clip-path="url(#a)" d="m348 303h-18v-90h18z" fill="#e6c900"/><path clip-path="url(#a)" d="m375 339h-18v-108h18z"/><path clip-path="url(#a)" d="m375 339h-18v-108h18z" fill="#e6c900"/><path clip-path="url(#a)" d="m403 350h-18v-100h18z"/><path clip-path="url(#a)" d="m403 350h-18v-100h18z" fill="#e6c900"/><path clip-path="url(#a)" d="m431 355h-18v-102h18z"/><path clip-path="url(#a)" d="m431 355h-18v-102h18z" fill="#e6c900"/><path clip-path="url(#a)" d="m458 353h-18v-98h18z"/><path clip-path="url(#a)" d="m458 353h-18v-98h18z" fill="#e6c900"/><path clip-path="url(#a)" d="m486 360h-18v-132h18z"/><path clip-path="url(#a)" d="m486 360h-18v-132h18z" fill="#e6c900"/><path clip-path="url(#a)" d="m514 365h-18v-148h18z"/><path clip-path="url(#a)" d="m514 365h-18v-148h18z" fill="#e6c900"/><path clip-path="url(#a)" d="m541 366h-18v-137h18z"/><path clip-path="url(#a)" d="m541 366h-18v-137h18z" fill="#e6c900"/><path clip-path="url(#a)" d="m99 192h-18v-72h18z"/><path clip-path="url(#a)" d="m99 192h-18v-72h18z" fill="#00cdb2"/><path clip-path="url(#a)" d="m126 183h-18v-70h18z"/><path clip-path="url(#a)" d="m126 183h-18v-70h18z" fill="#00cdb2"/><path clip-path="url(#a)" d="m154 170h-18v-62h18z"/><path clip-path="url(#a)" d="m154 170h-18v-62h18z" fill="#00cdb2"/><path clip-path="url(#a)" d="m182 167h-18v-56h18z"/><path clip-path="url(#a)" d="m182 167h-18v-56h18z" fill="#00cdb2"/><path clip-path="url(#a)" d="m209 167h-18v-59h18z"/><path clip-path="url(#a)" d="m209 167h-18v-59h18z" fill="#00cdb2"/><path clip-path="url(#a)" d="m237 172h-18v-55h18z"/><path clip-path="url(#a)" d="m237 172h-18v-55h18z" fill="#00cdb2"/><path clip-path="url(#a)" d="m265 182h-18v-61h18z"/><path clip-path="url(#a)" d="m265 182h-18v-61h18z" fill="#00cdb2"/><path clip-path="url(#a)" d="m292 156h-18v-44h18z"/><path clip-path="url(#a)" d="m292 156h-18v-44h18z" fill="#00cdb2"/><path clip-path="url(#a)" d="m320 199h-18v-69h18z"/><path clip-path="url(#a)" d="m320 199h-18v-69h18z" fill="#00cdb2"/><path clip-path="url(#a)" d="m348 213h-18v-71h18z"/><path clip-path="url(#a)" d="m348 213h-18v-71h18z" fill="#00cdb2"/><path clip-path="url(#a)" d="m375 231h-18v-74h18z"/><path clip-path="url(#a)" d="m375 231h-18v-74h18z" fill="#00cdb2"/><path clip-path="url(#a)" d="m403 250h-18v-76h18z"/><path clip-path="url(#a)" d="m403 250h-18v-76h18z" fill="#00cdb2"/><path clip-path="url(#a)" d="m431 253h-18v-53h18z"/><path clip-path="url(#a)" d="m431 253h-18v-53h18z" fill="#00cdb2"/><path clip-path="url(#a)" d="m458 255h-18v-70h18z"/><path clip-path="url(#a)" d="m458 255h-18v-70h18z" fill="#00cdb2"/><path clip-path="url(#a)" d="m486 228h-18v-34h18z"/><path clip-path="url(#a)" d="m486 228h-18v-34h18z" fill="#00cdb2"/><path clip-path="url(#a)" d="m514 217h-18v-18h18z"/><path clip-path="url(#a)" d="m514 217h-18v-18h18z" fill="#00cdb2"/><path clip-path="url(#a)" d="m541 229h-18v-18h18z"/><path clip-path="url(#a)" d="m541 229h-18v-18h18z" fill="#00cdb2"/><path clip-path="url(#a)" d="m99 120h-18v-81c0-1.10457.89543-2 2-2h14c1.10457 0 2 .89543 2 2z"/><path clip-path="url(#a)" d="m99 120h-18v-81c0-1.10457.89543-2 2-2h14c1.10457 0 2 .89543 2 2z" fill="#38761d"/><path clip-path="url(#a)" d="m126 113h-18v-74c0-1.10457.89543-2 2-2h14c1.10457 0 2 .89543 2 2z"/><path clip-path="url(#a)" d="m126 113h-18v-74c0-1.10457.89543-2 2-2h14c1.10457 0 2 .89543 2 2z" fill="#38761d"/><path clip-path="url(#a)" d="m154 108h-18v-69c0-1.10457.89543-2 2-2h14c1.10457 0 2 .89543 2 2z"/><path clip-path="url(#a)" d="m154 108h-18v-69c0-1.10457.89543-2 2-2h14c1.10457 0 2 .89543 2 2z" fill="#38761d"/><path clip-path="url(#a)" d="m182 111h-18v-72c0-1.10457.89543-2 2-2h14c1.10457 0 2 .89543 2 2z"/><path clip-path="url(#a)" d="m182 111h-18v-72c0-1.10457.89543-2 2-2h14c1.10457 0 2 .89543 2 2z" fill="#38761d"/><path clip-path="url(#a)" d="m209 108h-18v-69c0-1.10457.89543-2 2-2h14c1.10457 0 2 .89543 2 2z"/><path clip-path="url(#a)" d="m209 108h-18v-69c0-1.10457.89543-2 2-2h14c1.10457 0 2 .89543 2 2z" fill="#38761d"/><path clip-path="url(#a)" d="m237 117h-18v-78c0-1.10457.89543-2 2-2h14c1.10457 0 2 .89543 2 2z"/><path clip-path="url(#a)" d="m237 117h-18v-78c0-1.10457.89543-2 2-2h14c1.10457 0 2 .89543 2 2z" fill="#38761d"/><path clip-path="url(#a)" d="m265 121h-18v-82c0-1.10457.89543-2 2-2h14c1.10458 0 2 .89543 2 2z"/><path clip-path="url(#a)" d="m265 121h-18v-82c0-1.10457.89543-2 2-2h14c1.10458 0 2 .89543 2 2z" fill="#38761d"/><path clip-path="url(#a)" d="m292 112h-18v-73c0-1.10457.89542-2 2-2h14c1.10458 0 2 .89543 2 2z"/><path clip-path="url(#a)" d="m292 112h-18v-73c0-1.10457.89542-2 2-2h14c1.10458 0 2 .89543 2 2z" fill="#38761d"/><path clip-path="url(#a)" d="m320 130h-18v-91c0-1.10457.89542-2 2-2h14c1.10458 0 2 .89543 2 2z"/><path clip-path="url(#a)" d="m320 130h-18v-91c0-1.10457.89542-2 2-2h14c1.10458 0 2 .89543 2 2z" fill="#38761d"/><path clip-path="url(#a)" d="m348 142h-18v-103c0-1.10457.89542-2 2-2h14c1.10458 0 2 .89543 2 2z"/><path clip-path="url(#a)" d="m348 142h-18v-103c0-1.10457.89542-2 2-2h14c1.10458 0 2 .89543 2 2z" fill="#38761d"/><path clip-path="url(#a)" d="m375 157h-18v-118c0-1.10457.89542-2 2-2h14c1.10458 0 2 .89543 2 2z"/><path clip-path="url(#a)" d="m375 157h-18v-118c0-1.10457.89542-2 2-2h14c1.10458 0 2 .89543 2 2z" fill="#38761d"/><path clip-path="url(#a)" d="m403 174h-18v-135c0-1.10457.89542-2 2-2h14c1.10458 0 2 .89543 2 2z"/><path clip-path="url(#a)" d="m403 174h-18v-135c0-1.10457.89542-2 2-2h14c1.10458 0 2 .89543 2 2z" fill="#38761d"/><path clip-path="url(#a)" d="m431 200h-18v-161c0-1.10457.89542-2 2-2h14c1.10458 0 2 .89543 2 2z"/><path clip-path="url(#a)" d="m431 200h-18v-161c0-1.10457.89542-2 2-2h14c1.10458 0 2 .89543 2 2z" fill="#38761d"/><path clip-path="url(#a)" d="m458 185h-18v-146c0-1.10457.89542-2 2-2h14c1.10458 0 2 .89543 2 2z"/><path clip-path="url(#a)" d="m458 185h-18v-146c0-1.10457.89542-2 2-2h14c1.10458 0 2 .89543 2 2z" fill="#38761d"/><path clip-path="url(#a)" d="m486 194h-18v-155c0-1.10457.89542-2 2-2h14c1.10458 0 2 .89543 2 2z"/><path clip-path="url(#a)" d="m486 194h-18v-155c0-1.10457.89542-2 2-2h14c1.10458 0 2 .89543 2 2z" fill="#38761d"/><path clip-path="url(#a)" d="m514 199h-18v-160c0-1.10457.89542-2 2-2h14c1.10455 0 2 .89543 2 2z"/><path clip-path="url(#a)" d="m514 199h-18v-160c0-1.10457.89542-2 2-2h14c1.10455 0 2 .89543 2 2z" fill="#38761d"/><path clip-path="url(#a)" d="m541 211h-18v-172c0-1.10457.89545-2 2-2h14c1.10455 0 2 .89543 2 2z"/><path clip-path="url(#a)" d="m541 211h-18v-172c0-1.10457.89545-2 2-2h14c1.10455 0 2 .89543 2 2z" fill="#38761d"/><path d="m65.5 506.5h12" stroke="#000" stroke-linecap="butt"/><path d="m65.5 389.5h12" stroke="#000" stroke-linecap="butt"/><path d="m65.5 271.5h12" stroke="#000" stroke-linecap="butt"/><path d="m65.5 154.5h12" stroke="#000" stroke-linecap="butt"/><path d="m65.5 36.5h12" stroke="#000" stroke-linecap="butt"/><g fill="#000"><path d="m49.0625 507.52603q0 1.90625-.65625 2.84375-.640625.92188-2.03125.92188-1.359375 0-2.015625-.90626-.65625-.90624-.6875-2.71874v-1.4375q0-1.89063.640625-2.79688.65625-.92188 2.046875-.92188 1.375 0 2.03125.89063.65625.875.671875 2.71875zm-1.09375-1.48437q0-1.375-.390625-2-.375-.64063-1.21875-.64063-.828125 0-1.21875.64063-.375.625-.375 1.92187v1.73437q0 1.375.390625 2.04688.40625.65625 1.21875.65625.796875 0 1.1875-.625.390625-.625.40625-1.95313zm2.640625-1.76563q0-.76563.484375-1.26563.5-.5 1.265625-.5.78125 0 1.265625.5.484375.5.484375 1.29688v.42188q0 .76562-.5 1.26562-.484375.48438-1.234375.48438-.765625 0-1.265625-.48438-.5-.5-.5-1.3125zm.8125.45313q0 .45312.25.75.265625.29687.703125.29687.421875 0 .671875-.28125.25-.29688.25-.79688v-.42187q0-.45313-.25-.75-.25-.3125-.6875-.3125-.4375 0-.6875.3125-.25.29687-.25.76563zm3.34375 4.34374q0-.76562.484375-1.25.5-.5 1.265625-.5.765625 0 1.25.5.5.48438.5 1.29688v.40625q0 .76563-.484375 1.26563-.484375.5-1.25.5-.765625 0-1.265625-.48438-.5-.5-.5-1.3125zm.8125.45313q0 .46875.25.76563.265625.29687.703125.29687.421875 0 .671875-.28125.25-.29688.25-.79688v-.4375q0-.46874-.265625-.75-.25-.29687-.671875-.29687-.421875 0-.6875.29687-.25.28126-.25.78126zm-2.953125 1-.625-.39063 4.171875-6.67187.609375.39063z"/><path d="m42.296875 393.625h-5.59375v-.78125l2.953125-3.28125q.65625-.75.90625-1.20312.25-.46876.25-.96876 0-.67187-.40625-1.09374-.390625-.4375-1.078125-.4375-.796875 0-1.25.46874-.453125.45313-.453125 1.28126h-1.078125q0-1.1875.75-1.90626.765625-.73437 2.03125-.73437 1.203125 0 1.890625.625.6875.625.6875 1.67187 0 1.25-1.609375 3l-2.28125 2.46876h4.28125zm1.90625-4.28125.4375-4.25h4.375v1h-3.453125l-.265625 2.32813q.640625-.375 1.4375-.375 1.15625 0 1.84375.78124.6875.76563.6875 2.07813 0 1.3125-.71875 2.07813-.703125.76562-1.984375.76562-1.125 0-1.84375-.625-.71875-.64062-.8125-1.75h1.015625q.109375.73438.53125 1.10938.421875.375 1.109375.375.75 0 1.1875-.51563.4375-.51563.4375-1.42187 0-.85938-.46875-1.375-.46875-.51563-1.25-.51563-.703125 0-1.109375.29687l-.28125.23438zm6.40625-2.60937q0-.76563.484375-1.26563.5-.5 1.265625-.5.78125 0 1.265625.5.484375.5.484375 1.29687v.42188q0 .76562-.5 1.26562-.484375.48438-1.234375.48438-.765625 0-1.265625-.48438-.5-.5-.5-1.3125zm.8125.45312q0 .45312.25.75.265625.29688.703125.29688.421875 0 .671875-.28126.25-.29687.25-.79687v-.42187q0-.45313-.25-.75-.25-.3125-.6875-.3125-.4375 0-.6875.3125-.25.29687-.25.76562zm3.34375 4.34375q0-.76563.484375-1.25.5-.5 1.265625-.5.765625 0 1.25.5.5.48437.5 1.29687v.40626q0 .76562-.484375 1.26562-.484375.5-1.25.5-.765625 0-1.265625-.48438-.5-.5-.5-1.3125zm.8125.45313q0 .46874.25.76562.265625.29688.703125.29688.421875 0 .671875-.28126.25-.29687.25-.79687v-.4375q0-.46875-.265625-.75-.25-.29687-.671875-.29687-.421875 0-.6875.29687-.25.28125-.25.78125zm-2.953125 1-.625-.39063 4.171875-6.67187.609375.39062z"/><path d="m37.203125 271.8021.4375-4.25h4.375v1h-3.453125l-.265625 2.32812q.640625-.375 1.4375-.375 1.15625 0 1.84375.78125.6875.76563.6875 2.07813 0 1.3125-.71875 2.07812-.703125.76562-1.984375.76562-1.125 0-1.84375-.625-.71875-.64062-.8125-1.75h1.015625q.109375.73438.53125 1.10938.421875.375 1.109375.375.75 0 1.1875-.51562.4375-.51563.4375-1.42188 0-.85938-.46875-1.375-.46875-.51562-1.25-.51562-.703125 0-1.109375.29687l-.28125.23437zm11.859375.64062q0 1.90625-.65625 2.84375-.640625.92187-2.03125.92187-1.359375 0-2.015625-.90624-.65625-.90626-.6875-2.71876v-1.4375q0-1.89062.640625-2.79687.65625-.92187 2.046875-.92187 1.375 0 2.03125.89062.65625.875.671875 2.71875zm-1.09375-1.48438q0-1.375-.390625-2-.375-.64062-1.21875-.64062-.828125 0-1.21875.64062-.375.625-.375 1.92188v1.73438q0 1.375.390625 2.04687.40625.65625 1.21875.65625.796875 0 1.1875-.625.390625-.625.40625-1.95312zm2.640625-1.76562q0-.76562.484375-1.26562.5-.5 1.265625-.5.78125 0 1.265625.5.484375.5.484375 1.29687v.42187q0 .76563-.5 1.26563-.484375.48437-1.234375.48437-.765625 0-1.265625-.48437-.5-.5-.5-1.3125zm.8125.45312q0 .45313.25.75.265625.29688.703125.29688.421875 0 .671875-.28125.25-.29687.25-.79687v-.42188q0-.45312-.25-.75-.25-.3125-.6875-.3125-.4375 0-.6875.3125-.25.29688-.25.76562zm3.34375 4.34376q0-.76563.484375-1.25.5-.5 1.265625-.5.765625 0 1.25.5.5.48437.5 1.29687v.40625q0 .76562-.484375 1.26562-.484375.5-1.25.5-.765625 0-1.265625-.48437-.5-.5-.5-1.3125zm.8125.45312q0 .46875.25.76562.265625.29688.703125.29688.421875 0 .671875-.28125.25-.29687.25-.79687v-.4375q0-.46876-.265625-.75-.25-.29688-.671875-.29688-.421875 0-.6875.29688-.25.28124-.25.78124zm-2.953125 1-.625-.39062 4.171875-6.67188.609375.39062z"/><path d="m42.21875 150.6198-3.53125 7.92187h-1.140625l3.515625-7.64062h-4.609375v-.89063h5.765625zm1.984375 3.64062.4375-4.25h4.375v1h-3.453125l-.265625 2.32813q.640625-.375 1.4375-.375 1.15625 0 1.84375.78125.6875.76562.6875 2.07812 0 1.3125-.71875 2.07813-.703125.76562-1.984375.76562-1.125 0-1.84375-.625-.71875-.64062-.8125-1.75h1.015625q.109375.73438.53125 1.10938.421875.375 1.109375.375.75 0 1.1875-.51563.4375-.51562.4375-1.42187 0-.85938-.46875-1.375-.46875-.51563-1.25-.51563-.703125 0-1.109375.29688l-.28125.23437zm6.40625-2.60937q0-.76563.484375-1.26563.5-.5 1.265625-.5.78125 0 1.265625.5.484375.5.484375 1.29688v.42187q0 .76563-.5 1.26563-.484375.48437-1.234375.48437-.765625 0-1.265625-.48437-.5-.5-.5-1.3125zm.8125.45312q0 .45313.25.75.265625.29688.703125.29688.421875 0 .671875-.28125.25-.29688.25-.79688v-.42187q0-.45313-.25-.75-.25-.3125-.6875-.3125-.4375 0-.6875.3125-.25.29687-.25.76562zm3.34375 4.34375q0-.76562.484375-1.25.5-.5 1.265625-.5.765625 0 1.25.5.5.48438.5 1.29688v.40625q0 .76562-.484375 1.26562-.484375.5-1.25.5-.765625 0-1.265625-.48437-.5-.5-.5-1.3125zm.8125.45313q0 .46875.25.76562.265625.29688.703125.29688.421875 0 .671875-.28125.25-.29688.25-.79688v-.4375q0-.46875-.265625-.75-.25-.29687-.671875-.29687-.421875 0-.6875.29687-.25.28125-.25.78125zm-2.953125 1-.625-.39063 4.171875-6.67187.609375.39062z"/><path d="m33.265625 41h-1.078125v-7.21875l-2.1875.796875v-.984375l3.109375-1.171875h.15625zm8.796875-3.640625q0 1.90625-.65625 2.84375-.640625.921875-2.03125.921875-1.359375 0-2.015625-.90625-.65625-.90625-.6875-2.71875v-1.4375q0-1.890625.640625-2.796875.65625-.921875 2.046875-.921875 1.375 0 2.03125.890625.65625.875.671875 2.71875zm-1.09375-1.484375q0-1.375-.390625-2-.375-.640625-1.21875-.640625-.828125 0-1.21875.640625-.375.625-.375 1.921875v1.734375q0 1.375.390625 2.046875.40625.65625 1.21875.65625.796875 0 1.1875-.625.390625-.625.40625-1.953125zm8.09375 1.484375q0 1.90625-.65625 2.84375-.640625.921875-2.03125.921875-1.359375 0-2.015625-.90625-.65625-.90625-.6875-2.71875v-1.4375q0-1.890625.640625-2.796875.65625-.921875 2.046875-.921875 1.375 0 2.03125.890625.65625.875.671875 2.71875zm-1.09375-1.484375q0-1.375-.390625-2-.375-.640625-1.21875-.640625-.828125 0-1.21875.640625-.375.625-.375 1.921875v1.734375q0 1.375.390625 2.046875.40625.65625 1.21875.65625.796875 0 1.1875-.625.390625-.625.40625-1.953125zm2.640625-1.765625q0-.765625.484375-1.265625.5-.5 1.265625-.5.78125 0 1.265625.5.484375.5.484375 1.296875v.421875q0 .765625-.5 1.265625-.484375.484375-1.234375.484375-.765625 0-1.265625-.484375-.5-.5-.5-1.3125zm.8125.453125q0 .453125.25.75.265625.296875.703125.296875.421875 0 .671875-.28125.25-.296875.25-.796875v-.421875q0-.453125-.25-.75-.25-.3125-.6875-.3125-.4375 0-.6875.3125-.25.296875-.25.765625zm3.34375 4.34375q0-.765625.484375-1.25.5-.5 1.265625-.5.765625 0 1.25.5.5.484375.5 1.296875v.40625q0 .765625-.484375 1.265625-.484375.5-1.25.5-.765625 0-1.265625-.484375-.5-.5-.5-1.3125zm.8125.453125q0 .46875.25.765625.265625.296875.703125.296875.421875 0 .671875-.28125.25-.296875.25-.796875v-.4375q0-.46875-.265625-.75-.25-.296875-.671875-.296875-.421875 0-.6875.296875-.25.28125-.25.78125zm-2.953125 1-.625-.390625 4.171875-6.671875.609375.390625z"/><path d="m94.17433 534.2448v5.84376h-1.15625l-2.95312-2.76562q-.60938-.5625-1.07813-.82814-.46875-.28124-.875-.28124-.57812 0-.89062.29688-.32813.28126-.32813.8125 0 .57812.39063.90626.39062.3281 1.04687.3281v1.70314q-.78125 0-1.42187-.375-.65625-.375-1.01563-1.04688-.375-.6875-.375-1.54686 0-1.3125.64063-2.0469.625-.73436 1.78125-.73436.64062 0 1.29687.32812.65625.32814 1.53125 1.125l2.04688 1.9375v-3.65626zm-3.53125-6.90624q1.76563 0 2.71875.73438.9375.73436.9375 2.14062 0 1.40624-.92187 2.14064-.92188.73436-2.64063.75h-1.57812q-1.78125 0-2.70313-.7344-.9375-.75-.9375-2.1406 0-1.39064.92188-2.125.92187-.75 2.64062-.76564zm-1.71875 1.70314q-1.0625 0-1.54687.29686-.48438.28124-.48438.89064 0 .59374.46875.8906.45313.28126 1.4375.2969h2.0625q1.04688 0 1.5625-.28126.5-.28124.5-.92188 0-.60936-.48437-.89062-.48438-.28124-1.48438-.28124zm1.71875-8.70314q1.76563 0 2.71875.73438.9375.73436.9375 2.14062 0 1.40624-.92187 2.14064-.92188.73436-2.64063.75h-1.57812q-1.78125 0-2.70313-.7344-.9375-.75-.9375-2.1406 0-1.39064.92188-2.125.92187-.75 2.64062-.76564zm-1.71875 1.70314q-1.0625 0-1.54687.29686-.48438.28124-.48438.89064 0 .59374.46875.8906.45313.28126 1.4375.2969h2.0625q1.04688 0 1.5625-.28126.5-.28124.5-.92188 0-.60936-.48437-.89062-.48438-.28124-1.48438-.28124zm1.04688-3.20314-4.32813-.5v-4.78126h1.40625v3.39064l1.84375.21876q-.32812-.6094-.32812-1.28126 0-1.21874.76562-1.90624.75-.70314 2.10938-.70314.82812 0 1.48437.35938.64063.34376 1.01563 1 .35937.64062.35937 1.53126 0 .7656-.3125 1.4375-.32812.65624-.89062 1.04686-.5625.375-1.29688.40624v-1.6875q.53125-.04686.82813-.35936.29687-.32814.29687-.84374 0-.57814-.40625-.875-.42187-.3125-1.17187-.3125-.73438 0-1.10938.35936-.39062.34374-.39062 1 0 .60938.3125.98438l.15625.15626z"/><path d="m121.840034 534.2448v5.84376h-1.15625l-2.953124-2.76562q-.609376-.5625-1.078126-.82814-.46875-.28124-.875-.28124-.578124 0-.890624.29688-.328126.28126-.328126.8125 0 .57812.390626.90626.390624.3281 1.046874.3281v1.70314q-.78125 0-1.421874-.375-.65625-.375-1.015626-1.04688-.375-.6875-.375-1.54686 0-1.3125.640626-2.0469.625-.73436 1.78125-.73436.640624 0 1.296874.32812.65625.32814 1.53125 1.125l2.046876 1.9375v-3.65626zm-3.53125-6.90624q1.765626 0 2.71875.73438.9375.73436.9375 2.14062 0 1.40624-.921874 2.14064-.921876.73436-2.640626.75h-1.578124q-1.78125 0-2.703126-.7344-.9375-.75-.9375-2.1406 0-1.39064.921876-2.125.921874-.75 2.640624-.76564zm-1.71875 1.70314q-1.0625 0-1.546874.29686-.484376.28124-.484376.89064 0 .59374.46875.8906.453126.28126 1.4375.2969h2.0625q1.046876 0 1.5625-.28126.5-.28124.5-.92188 0-.60936-.484374-.89062-.484376-.28124-1.484376-.28124zm1.71875-8.70314q1.765626 0 2.71875.73438.9375.73436.9375 2.14062 0 1.40624-.921874 2.14064-.921876.73436-2.640626.75h-1.578124q-1.78125 0-2.703126-.7344-.9375-.75-.9375-2.1406 0-1.39064.921876-2.125.921874-.75 2.640624-.76564zm-1.71875 1.70314q-1.0625 0-1.546874.29686-.484376.28124-.484376.89064 0 .59374.46875.8906.453126.28126 1.4375.2969h2.0625q1.046876 0 1.5625-.28126.5-.28124.5-.92188 0-.60936-.484374-.89062-.484376-.28124-1.484376-.28124zm-3.375-7.5469h1.40625v.15626q.015626 1.15624.59375 1.85938.578126.6875 1.609376.82812-.6875-.67186-.6875-1.70312 0-1.125.796874-1.78124.796876-.65626 2.09375-.65626.828126 0 1.5.35936.671876.3594 1.0625 1.03126.375.65624.375 1.48438 0 1.34376-.9375 2.17186-.953124.82814-2.515624.82814h-.609376q-1.390624 0-2.453124-.51564-1.0625-.53124-1.640626-1.5-.578124-.98436-.59375-2.28124zm4.28125 1.65626q0 .40624.21875.75.203126.32814.5625.48438h.515626q.84375 0 1.328124-.32814.46875-.34374.46875-.9531 0-.5469-.421874-.875-.4375-.34376-1.125-.34376-.703126 0-1.125.34376-.421876.34374-.421876.92186z"/><path d="m149.50574 534.2448v5.84376h-1.15625l-2.95313-2.76562q-.60937-.5625-1.07812-.82814-.46875-.28124-.875-.28124-.57813 0-.89063.29688-.32812.28126-.32812.8125 0 .57812.39062.90626.39063.3281 1.04688.3281v1.70314q-.78125 0-1.42188-.375-.65625-.375-1.01562-1.04688-.375-.6875-.375-1.54686 0-1.3125.64062-2.0469.625-.73436 1.78125-.73436.64063 0 1.29688.32812.65625.32814 1.53125 1.125l2.04687 1.9375v-3.65626zm-3.53125-6.90624q1.76562 0 2.71875.73438.9375.73436.9375 2.14062 0 1.40624-.92188 2.14064-.92187.73436-2.64062.75h-1.57813q-1.78125 0-2.70312-.7344-.9375-.75-.9375-2.1406 0-1.39064.92187-2.125.92188-.75 2.64063-.76564zm-1.71875 1.70314q-1.0625 0-1.54688.29686-.48437.28124-.48437.89064 0 .59374.46875.8906.45312.28126 1.4375.2969h2.0625q1.04687 0 1.5625-.28126.5-.28124.5-.92188 0-.60936-.48438-.89062-.48437-.28124-1.48437-.28124zm1.71875-8.70314q1.76562 0 2.71875.73438.9375.73436.9375 2.14062 0 1.40624-.92188 2.14064-.92187.73436-2.64062.75h-1.57813q-1.78125 0-2.70312-.7344-.9375-.75-.9375-2.1406 0-1.39064.92187-2.125.92188-.75 2.64063-.76564zm-1.71875 1.70314q-1.0625 0-1.54688.29686-.48437.28124-.48437.89064 0 .59374.46875.8906.45312.28126 1.4375.2969h2.0625q1.04687 0 1.5625-.28126.5-.28124.5-.92188 0-.60936-.48438-.89062-.48437-.28124-1.48437-.28124zm-2.32813-8.75 7.57813 3.29686v1.78124l-7.15625-3.29686v4.23436h-1.375v-6.0156z"/><path d="m177.17145 534.2448v5.84376h-1.15625l-2.95313-2.76562q-.60937-.5625-1.07812-.82814-.46875-.28124-.875-.28124-.57813 0-.89063.29688-.32812.28126-.32812.8125 0 .57812.39062.90626.39063.3281 1.04688.3281v1.70314q-.78125 0-1.42188-.375-.65625-.375-1.01562-1.04688-.375-.6875-.375-1.54686 0-1.3125.64062-2.0469.625-.73436 1.78125-.73436.64063 0 1.29688.32812.65625.32814 1.53125 1.125l2.04687 1.9375v-3.65626zm-3.53125-6.90624q1.76562 0 2.71875.73438.9375.73436.9375 2.14062 0 1.40624-.92188 2.14064-.92187.73436-2.64062.75h-1.57813q-1.78125 0-2.70312-.7344-.9375-.75-.9375-2.1406 0-1.39064.92187-2.125.92188-.75 2.64063-.76564zm-1.71875 1.70314q-1.0625 0-1.54688.29686-.48437.28124-.48437.89064 0 .59374.46875.8906.45312.28126 1.4375.2969h2.0625q1.04687 0 1.5625-.28126.5-.28124.5-.92188 0-.60936-.48438-.89062-.48437-.28124-1.48437-.28124zm1.71875-8.70314q1.76562 0 2.71875.73438.9375.73436.9375 2.14062 0 1.40624-.92188 2.14064-.92187.73436-2.64062.75h-1.57813q-1.78125 0-2.70312-.7344-.9375-.75-.9375-2.1406 0-1.39064.92187-2.125.92188-.75 2.64063-.76564zm-1.71875 1.70314q-1.0625 0-1.54688.29686-.48437.28124-.48437.89064 0 .59374.46875.8906.45312.28126 1.4375.2969h2.0625q1.04687 0 1.5625-.28126.5-.28124.5-.92188 0-.60936-.48438-.89062-.48437-.28124-1.48437-.28124zm-1.01563-8.51564q.625 0 1.10938.3125.46875.3125.76562.85938.29688-.625.82813-.98438.51562-.375 1.21875-.375 1.14062 0 1.8125.78124.65625.76564.65625 2.1094 0 1.3281-.65625 2.10936-.67188.76564-1.8125.76564-.70313 0-1.23438-.3594-.53125-.35936-.8125-.98436-.29687.54686-.76562.85936-.48438.3125-1.10938.3125-1.09375 0-1.73437-.71874-.65625-.73436-.65625-1.98436 0-1.25.65625-1.96876.64062-.73438 1.73437-.73438zm3.79688 1.51564q-.54688 0-.875.3281-.34375.3125-.34375.8594 0 .54686.32812.875.32813.3125.89063.3125.54687 0 .89062-.3125.32813-.32814.32813-.89064 0-.54686-.3125-.85936-.32813-.3125-.90625-.3125zm-3.71875.17186q-.5 0-.79688.26564-.29687.2656-.29687.75 0 .46874.29687.73436.28125.26564.79688.26564.51562 0 .82812-.26564.3125-.26562.3125-.73436 0-.4844-.3125-.75-.3125-.26564-.82812-.26564z"/><path d="m204.83716 534.2448v5.84376h-1.15625l-2.95313-2.76562q-.60937-.5625-1.07812-.82814-.46875-.28124-.875-.28124-.57813 0-.89063.29688-.32812.28126-.32812.8125 0 .57812.39062.90626.39063.3281 1.04688.3281v1.70314q-.78125 0-1.42188-.375-.65625-.375-1.01562-1.04688-.375-.6875-.375-1.54686 0-1.3125.64062-2.0469.625-.73436 1.78125-.73436.64063 0 1.29688.32812.65625.32814 1.53125 1.125l2.04687 1.9375v-3.65626zm-3.53125-6.90624q1.76562 0 2.71875.73438.9375.73436.9375 2.14062 0 1.40624-.92188 2.14064-.92187.73436-2.64062.75h-1.57813q-1.78125 0-2.70312-.7344-.9375-.75-.9375-2.1406 0-1.39064.92187-2.125.92188-.75 2.64063-.76564zm-1.71875 1.70314q-1.0625 0-1.54688.29686-.48437.28124-.48437.89064 0 .59374.46875.8906.45312.28126 1.4375.2969h2.0625q1.04687 0 1.5625-.28126.5-.28124.5-.92188 0-.60936-.48438-.89062-.48437-.28124-1.48437-.28124zm1.71875-8.70314q1.76562 0 2.71875.73438.9375.73436.9375 2.14062 0 1.40624-.92188 2.14064-.92187.73436-2.64062.75h-1.57813q-1.78125 0-2.70312-.7344-.9375-.75-.9375-2.1406 0-1.39064.92187-2.125.92188-.75 2.64063-.76564zm-1.71875 1.70314q-1.0625 0-1.54688.29686-.48437.28124-.48437.89064 0 .59374.46875.8906.45312.28126 1.4375.2969h2.0625q1.04687 0 1.5625-.28126.5-.28124.5-.92188 0-.60936-.48438-.89062-.48437-.28124-1.48437-.28124zm1.84375-6.9219q.64062.6719.64062 1.5469 0 1.1406-.76562 1.8281-.78125.6719-2.09375.6719-.84375 0-1.54688-.3594-.70312-.375-1.09375-1.03124-.39062-.65626-.39062-1.48436 0-.84376.42187-1.5.42188-.65626 1.21875-1.01564.79688-.35936 1.8125-.375h.625q2.14063 0 3.35938 1.0625 1.21875 1.0625 1.29687 3.01564v.40624h-1.40625l-.01562-.375q-.09375-2.20314-2.0625-2.39064zm-.65625 1.14064q0-.42188-.20313-.70314-.21875-.29686-.51562-.4531h-.6875q-.85938 0-1.32813.3281-.48437.32814-.48437.875 0 .51564.46875.84376.45312.32814 1.15625.32814.70312 0 1.15625-.3125.4375-.32814.4375-.90626z"/><path d="m232.50287 534.2448v5.84376h-1.15625l-2.95312-2.76562q-.60938-.5625-1.07813-.82814-.46875-.28124-.875-.28124-.57813 0-.89063.29688-.32812.28126-.32812.8125 0 .57812.39062.90626.39063.3281 1.04688.3281v1.70314q-.78125 0-1.42188-.375-.65624-.375-1.01562-1.04688-.375-.6875-.375-1.54686 0-1.3125.64062-2.0469.625-.73436 1.78126-.73436.64062 0 1.29687.32812.65625.32814 1.53125 1.125l2.04688 1.9375v-3.65626zm-3.53125-6.90624q1.76562 0 2.71875.73438.9375.73436.9375 2.14062 0 1.40624-.92187 2.14064-.92188.73436-2.64063.75h-1.57813q-1.78124 0-2.70312-.7344-.9375-.75-.9375-2.1406 0-1.39064.92188-2.125.92187-.75 2.64062-.76564zm-1.71875 1.70314q-1.0625 0-1.54687.29686-.48438.28124-.48438.89064 0 .59374.46875.8906.45313.28126 1.4375.2969h2.0625q1.04687 0 1.5625-.28126.5-.28124.5-.92188 0-.60936-.48437-.89062-.48438-.28124-1.48438-.28124zm5.25-7.0625v1.6875h-6.53125l.625 2.0156h-1.375l-1.26562-3.53124v-.17186zm-3.53125-8.64064q1.76562 0 2.71875.73438.9375.73436.9375 2.14062 0 1.40624-.92187 2.14064-.92188.73436-2.64063.75h-1.57813q-1.78124 0-2.70312-.7344-.9375-.75-.9375-2.1406 0-1.39064.92188-2.125.92187-.75 2.64062-.76564zm-1.71875 1.70314q-1.0625 0-1.54687.29686-.48438.28124-.48438.89064 0 .59374.46875.8906.45313.28126 1.4375.2969h2.0625q1.04687 0 1.5625-.28126.5-.28124.5-.92188 0-.60936-.48437-.89062-.48438-.28124-1.48438-.28124z"/><path d="m260.16858 534.24475v5.84375h-1.15625l-2.95313-2.7656q-.60939-.5625-1.07814-.82815-.46875-.28125-.875-.28125-.57812 0-.89062.2969-.32813.2812-.32813.8125 0 .5781.39063.9062.39062.32815 1.04687.32815v1.70315q-.78125 0-1.42187-.375-.65625-.375-1.01563-1.0469-.375-.6875-.375-1.5469 0-1.3125.64063-2.04685.625-.73435 1.78125-.73435.64062 0 1.29687.3281.65625.3281 1.53127 1.125l2.04687 1.9375v-3.65625zm-3.53125-6.90625q1.76562 0 2.71875.7344.9375.73435.9375 2.1406 0 1.40625-.92188 2.1406-.92187.7344-2.64062.75h-1.57814q-1.78125 0-2.70313-.73435-.9375-.75-.9375-2.14065 0-1.3906.92188-2.125.92187-.75 2.64062-.7656zm-1.71877 1.7031q-1.0625 0-1.54687.2969-.48438.28125-.48438.8906 0 .5938.46875.89065.45313.28125 1.4375.29685h2.06252q1.04687 0 1.5625-.2812.5-.2813.5-.9219 0-.6094-.48438-.8906-.48437-.2813-1.48437-.2813zm5.25002-7.0625v1.6875h-6.53127l.625 2.01565h-1.375l-1.26562-3.53125v-.1719zm0-7v1.6875h-6.53127l.625 2.01565h-1.375l-1.26562-3.53125v-.1719z"/><path d="m287.83426 534.2448v5.84376h-1.15626l-2.95312-2.76562q-.60938-.5625-1.07812-.82814-.46876-.28124-.875-.28124-.57813 0-.89063.29688-.32813.28126-.32813.8125 0 .57812.39063.90626.39063.3281 1.04687.3281v1.70314q-.78124 0-1.42187-.375-.65625-.375-1.01563-1.04688-.375-.6875-.375-1.54686 0-1.3125.64063-2.0469.625-.73436 1.78125-.73436.64062 0 1.29688.32812.65624.32814 1.53124 1.125l2.04688 1.9375v-3.65626zm-3.53126-6.90624q1.76563 0 2.71876.73438.9375.73436.9375 2.14062 0 1.40624-.92188 2.14064-.92188.73436-2.64062.75h-1.57813q-1.78125 0-2.70313-.7344-.9375-.75-.9375-2.1406 0-1.39064.92188-2.125.92188-.75 2.64062-.76564zm-1.71874 1.70314q-1.0625 0-1.54688.29686-.48438.28124-.48438.89064 0 .59374.46876.8906.45312.28126 1.4375.2969h2.0625q1.04687 0 1.5625-.28126.5-.28124.5-.92188 0-.60936-.48438-.89062-.48438-.28124-1.48438-.28124zm5.25-7.0625v1.6875h-6.53126l.625 2.0156h-1.375l-1.26562-3.53124v-.17186zm0-8.7344v5.84376h-1.15626l-2.95312-2.76562q-.60938-.5625-1.07812-.82814-.46876-.28124-.875-.28124-.57813 0-.89063.29688-.32813.28126-.32813.8125 0 .57812.39063.90626.39063.3281 1.04687.3281v1.70314q-.78124 0-1.42187-.375-.65625-.375-1.01563-1.04688-.375-.6875-.375-1.54686 0-1.3125.64063-2.0469.625-.73436 1.78125-.73436.64062 0 1.29688.32812.65624.32814 1.53124 1.125l2.04688 1.9375v-3.65626z"/><path d="m315.49997 534.2448v5.84376h-1.15625l-2.95312-2.76562q-.60938-.5625-1.07813-.82814-.46875-.28124-.875-.28124-.57813 0-.89063.29688-.32812.28126-.32812.8125 0 .57812.39062.90626.39063.3281 1.04688.3281v1.70314q-.78125 0-1.42188-.375-.65624-.375-1.01562-1.04688-.375-.6875-.375-1.54686 0-1.3125.64062-2.0469.625-.73436 1.78126-.73436.64062 0 1.29687.32812.65625.32814 1.53125 1.125l2.04688 1.9375v-3.65626zm-3.53125-6.90624q1.76562 0 2.71875.73438.9375.73436.9375 2.14062 0 1.40624-.92187 2.14064-.92188.73436-2.64063.75h-1.57813q-1.78124 0-2.70312-.7344-.9375-.75-.9375-2.1406 0-1.39064.92188-2.125.92187-.75 2.64062-.76564zm-1.71875 1.70314q-1.0625 0-1.54687.29686-.48438.28124-.48438.89064 0 .59374.46875.8906.45313.28126 1.4375.2969h2.0625q1.04687 0 1.5625-.28126.5-.28124.5-.92188 0-.60936-.48437-.89062-.48438-.28124-1.48438-.28124zm5.25-7.0625v1.6875h-6.53125l.625 2.0156h-1.375l-1.26562-3.53124v-.17186zm-5.01563-4.6094v-.90624q0-.64062-.3125-.95312-.32812-.3125-.85937-.3125-.51563 0-.79687.3125-.29688.29686-.29688.84376 0 .48436.26562.8125.26563.3281.6875.3281v1.6875q-.65624 0-1.1875-.35936-.53124-.35938-.82812-1-.3125-.65624-.3125-1.4375 0-1.34374.65625-2.10938.64063-.78126 1.78125-.78126.59375 0 1.09375.3594.48437.35936.73437.9375.26563-.71876.78126-1.0625.51562-.3594 1.21874-.3594 1.14063 0 1.82813.82814.6875.82812.6875 2.1875 0 1.28126-.67187 2.09376-.6875.8125-1.79688.8125v-1.6875q.48438 0 .79688-.3594.29687-.375.29687-.8906 0-.6094-.3125-.95314-.32813-.34376-.85937-.34376-1.26563 0-1.26563 1.40626v.90624z"/><path d="m343.16568 534.2448v5.84376h-1.15625l-2.95313-2.76562q-.60937-.5625-1.07812-.82814-.46875-.28124-.875-.28124-.57813 0-.89063.29688-.32812.28126-.32812.8125 0 .57812.39062.90626.39063.3281 1.04688.3281v1.70314q-.78125 0-1.42188-.375-.65625-.375-1.01562-1.04688-.375-.6875-.375-1.54686 0-1.3125.64062-2.0469.625-.73436 1.78125-.73436.64063 0 1.29688.32812.65625.32814 1.53125 1.125l2.04687 1.9375v-3.65626zm-3.53125-6.90624q1.76562 0 2.71875.73438.9375.73436.9375 2.14062 0 1.40624-.92188 2.14064-.92187.73436-2.64062.75h-1.57813q-1.78125 0-2.70312-.7344-.9375-.75-.9375-2.1406 0-1.39064.92187-2.125.92188-.75 2.64063-.76564zm-1.71875 1.70314q-1.0625 0-1.54688.29686-.48437.28124-.48437.89064 0 .59374.46875.8906.45312.28126 1.4375.2969h2.0625q1.04687 0 1.5625-.28126.5-.28124.5-.92188 0-.60936-.48438-.89062-.48437-.28124-1.48437-.28124zm5.25-7.0625v1.6875h-6.53125l.625 2.0156h-1.375l-1.26563-3.53124v-.17186zm-3.21875-7.90626v-.96874h1.375v.96874h1.84375v1.70312h-1.84375v3.48438l-1.0625.07812-5.625-3.54686v-1.71876zm0 3.57812v-1.875h-3l.1875.10938z"/><path d="m370.8314 534.2448v5.84376h-1.15626l-2.95312-2.76562q-.60938-.5625-1.07812-.82814-.46876-.28124-.875-.28124-.57813 0-.89063.29688-.32813.28126-.32813.8125 0 .57812.39063.90626.39063.3281 1.04687.3281v1.70314q-.78124 0-1.42187-.375-.65625-.375-1.01563-1.04688-.375-.6875-.375-1.54686 0-1.3125.64063-2.0469.625-.73436 1.78125-.73436.64062 0 1.29688.32812.65624.32814 1.53124 1.125l2.04688 1.9375v-3.65626zm-3.53126-6.90624q1.76563 0 2.71876.73438.9375.73436.9375 2.14062 0 1.40624-.92188 2.14064-.92188.73436-2.64062.75h-1.57813q-1.78125 0-2.70313-.7344-.9375-.75-.9375-2.1406 0-1.39064.92188-2.125.92188-.75 2.64062-.76564zm-1.71874 1.70314q-1.0625 0-1.54688.29686-.48438.28124-.48438.89064 0 .59374.46876.8906.45312.28126 1.4375.2969h2.0625q1.04687 0 1.5625-.28126.5-.28124.5-.92188 0-.60936-.48438-.89062-.48438-.28124-1.48438-.28124zm5.25-7.0625v1.6875h-6.53126l.625 2.0156h-1.375l-1.26562-3.53124v-.17186zm-4.20313-3.14064-4.32813-.5v-4.78126h1.40626v3.39064l1.84374.21876q-.32812-.6094-.32812-1.28126 0-1.21874.76562-1.90624.75-.70314 2.10938-.70314.82812 0 1.48438.35938.64062.34376 1.01562 1 .35938.64062.35938 1.53126 0 .7656-.3125 1.4375-.32813.65624-.89063 1.04686-.5625.375-1.29687.40624v-1.6875q.53124-.04686.82812-.35936.29688-.32814.29688-.84374 0-.57814-.40626-.875-.42187-.3125-1.17187-.3125-.73437 0-1.10937.35936-.39063.34374-.39063 1 0 .60938.3125.98438l.15625.15626z"/><path d="m398.4971 534.2448v5.84376h-1.15625l-2.95312-2.76562q-.60938-.5625-1.07813-.82814-.46875-.28124-.875-.28124-.57812 0-.89062.29688-.32813.28126-.32813.8125 0 .57812.39063.90626.39062.3281 1.04687.3281v1.70314q-.78125 0-1.42187-.375-.65625-.375-1.01563-1.04688-.375-.6875-.375-1.54686 0-1.3125.64063-2.0469.625-.73436 1.78125-.73436.64062 0 1.29687.32812.65625.32814 1.53125 1.125l2.04688 1.9375v-3.65626zm-3.53125-6.90624q1.76563 0 2.71875.73438.9375.73436.9375 2.14062 0 1.40624-.92187 2.14064-.92188.73436-2.64063.75h-1.57812q-1.78125 0-2.70313-.7344-.9375-.75-.9375-2.1406 0-1.39064.92188-2.125.92187-.75 2.64062-.76564zm-1.71875 1.70314q-1.0625 0-1.54687.29686-.48438.28124-.48438.89064 0 .59374.46875.8906.45313.28126 1.4375.2969h2.0625q1.04688 0 1.5625-.28126.5-.28124.5-.92188 0-.60936-.48437-.89062-.48438-.28124-1.48438-.28124zm5.25-7.0625v1.6875h-6.53125l.625 2.0156h-1.375l-1.26562-3.53124v-.17186zm-8.625-7.48445h1.40625v.15625q.01563 1.1563.59375 1.85944.57813.6875 1.60938.82812-.6875-.67186-.6875-1.70312 0-1.12504.79687-1.78134.79688-.6562 2.09375-.6562.82813 0 1.5.35935.67188.35935 1.0625 1.03125.375.6563.375 1.48444 0 1.34376-.9375 2.17186-.95312.82814-2.51562.82814h-.60938q-1.39062 0-2.45312-.51564-1.0625-.53124-1.64063-1.5-.57812-.98436-.59375-2.2813zm4.28125 1.65631q0 .40624.21875.75.20313.32814.5625.48438h.51563q.84375 0 1.32812-.32814.46875-.34374.46875-.9531 0-.5469-.42187-.875-.4375-.3438-1.125-.3438-.70313 0-1.125.3438-.42188.34374-.42188.92186z"/><path d="m426.1628 534.2448v5.84376h-1.15624l-2.95312-2.76562q-.60938-.5625-1.07814-.82814-.46874-.28124-.875-.28124-.5781 0-.8906.29688-.32814.28126-.32814.8125 0 .57812.39064.90626.3906.3281 1.04686.3281v1.70314q-.78126 0-1.42186-.375-.65626-.375-1.01564-1.04688-.375-.6875-.375-1.54686 0-1.3125.64064-2.0469.625-.73436 1.78124-.73436.64062 0 1.29686.32812.65626.32814 1.53126 1.125l2.04688 1.9375v-3.65626zm-3.53124-6.90624q1.76564 0 2.71874.73438.9375.73436.9375 2.14062 0 1.40624-.92186 2.14064-.92188.73436-2.64064.75h-1.5781q-1.78126 0-2.70314-.7344-.9375-.75-.9375-2.1406 0-1.39064.92188-2.125.92186-.75 2.64062-.76564zm-1.71876 1.70314q-1.0625 0-1.54686.29686-.48438.28124-.48438.89064 0 .59374.46874.8906.45314.28126 1.4375.2969h2.0625q1.0469 0 1.5625-.28126.5-.28124.5-.92188 0-.60936-.48436-.89062-.48438-.28124-1.48438-.28124zm5.25-7.0625v1.6875h-6.53124l.625 2.0156h-1.375l-1.26562-3.53124v-.17186zm-7.5781-8.6875 7.5781 3.29686v1.78124l-7.15624-3.29686v4.23436h-1.375v-6.0156z"/><path d="m453.82852 534.2448v5.84376h-1.15625l-2.95312-2.76562q-.60938-.5625-1.07813-.82814-.46875-.28124-.875-.28124-.57812 0-.89062.29688-.32813.28126-.32813.8125 0 .57812.39063.90626.39062.3281 1.04687.3281v1.70314q-.78125 0-1.42187-.375-.65625-.375-1.01563-1.04688-.375-.6875-.375-1.54686 0-1.3125.64063-2.0469.625-.73436 1.78125-.73436.64062 0 1.29687.32812.65625.32814 1.53125 1.125l2.04688 1.9375v-3.65626zm-3.53125-6.90624q1.76563 0 2.71875.73438.9375.73436.9375 2.14062 0 1.40624-.92187 2.14064-.92188.73436-2.64063.75h-1.57812q-1.78125 0-2.70313-.7344-.9375-.75-.9375-2.1406 0-1.39064.92188-2.125.92187-.75 2.64062-.76564zm-1.71875 1.70314q-1.0625 0-1.54687.29686-.48438.28124-.48438.89064 0 .59374.46875.8906.45313.28126 1.4375.2969h2.0625q1.04688 0 1.5625-.28126.5-.28124.5-.92188 0-.60936-.48437-.89062-.48438-.28124-1.48438-.28124zm5.25-7.0625v1.6875h-6.53125l.625 2.0156h-1.375l-1.26562-3.53124v-.17186zm-6.26562-8.45314q.625 0 1.10937.3125.46875.3125.76563.85938.29687-.625.82812-.98438.51563-.375 1.21875-.375 1.14063 0 1.8125.78124.65625.76564.65625 2.1094 0 1.3281-.65625 2.10936-.67187.76564-1.8125.76564-.70312 0-1.23437-.3594-.53125-.35936-.8125-.98436-.29688.54686-.76563.85936-.48437.3125-1.10937.3125-1.09375 0-1.73438-.71874-.65625-.73436-.65625-1.98436 0-1.25.65625-1.96876.64063-.73438 1.73438-.73438zm3.79687 1.51564q-.54687 0-.875.3281-.34375.3125-.34375.8594 0 .54686.32813.875.32812.3125.89062.3125.54688 0 .89063-.3125.32812-.32814.32812-.89064 0-.54686-.3125-.85936-.32812-.3125-.90625-.3125zm-3.71875.17186q-.5 0-.79687.26564-.29688.2656-.29688.75 0 .46874.29688.73436.28125.26564.79687.26564.51563 0 .82813-.26564.3125-.26562.3125-.73436 0-.4844-.3125-.75-.3125-.26564-.82813-.26564z"/><path d="m481.4942 534.2448v5.84376h-1.15625l-2.95312-2.76562q-.60938-.5625-1.07813-.82814-.46875-.28124-.875-.28124-.57812 0-.89062.29688-.32813.28126-.32813.8125 0 .57812.39063.90626.39062.3281 1.04687.3281v1.70314q-.78125 0-1.42187-.375-.65625-.375-1.01563-1.04688-.375-.6875-.375-1.54686 0-1.3125.64063-2.0469.625-.73436 1.78125-.73436.64062 0 1.29687.32812.65625.32814 1.53125 1.125l2.04688 1.9375v-3.65626zm-3.53125-6.90624q1.76563 0 2.71875.73438.9375.73436.9375 2.14062 0 1.40624-.92187 2.14064-.92188.73436-2.64063.75h-1.57812q-1.78125 0-2.70313-.7344-.9375-.75-.9375-2.1406 0-1.39064.92188-2.125.92187-.75 2.64062-.76564zm-1.71875 1.70314q-1.0625 0-1.54687.29686-.48438.28124-.48438.89064 0 .59374.46875.8906.45313.28126 1.4375.2969h2.0625q1.04688 0 1.5625-.28126.5-.28124.5-.92188 0-.60936-.48437-.89062-.48438-.28124-1.48438-.28124zm5.25-7.0625v1.6875h-6.53125l.625 2.0156h-1.375l-1.26562-3.53124v-.17186zm-3.40625-6.8594q.64063.6719.64063 1.5469 0 1.1406-.76563 1.8281-.78125.6719-2.09375.6719-.84375 0-1.54687-.3594-.70313-.375-1.09375-1.03124-.39063-.65626-.39063-1.48436 0-.84376.42188-1.5.42187-.65626 1.21875-1.01564.79687-.35936 1.8125-.375h.625q2.14062 0 3.35937 1.0625 1.21875 1.0625 1.29688 3.01564v.40624h-1.40625l-.01563-.375q-.09375-2.20314-2.0625-2.39064zm-.65625 1.14064q0-.42188-.20312-.70314-.21875-.29686-.51563-.4531h-.6875q-.85937 0-1.32812.3281-.48438.32814-.48438.875 0 .51564.46875.84376.45313.32814 1.15625.32814.70313 0 1.15625-.3125.4375-.32814.4375-.90626z"/><path d="m509.1599 534.2448v5.84376h-1.15624l-2.95312-2.76562q-.60938-.5625-1.07814-.82814-.46874-.28124-.875-.28124-.5781 0-.8906.29688-.32814.28126-.32814.8125 0 .57812.39064.90626.3906.3281 1.04686.3281v1.70314q-.78126 0-1.42186-.375-.65626-.375-1.01564-1.04688-.375-.6875-.375-1.54686 0-1.3125.64064-2.0469.625-.73436 1.78124-.73436.64062 0 1.29686.32812.65626.32814 1.53126 1.125l2.04688 1.9375v-3.65626zm-3.53124-6.90624q1.76564 0 2.71874.73438.9375.73436.9375 2.14062 0 1.40624-.92186 2.14064-.92188.73436-2.64064.75h-1.5781q-1.78126 0-2.70314-.7344-.9375-.75-.9375-2.1406 0-1.39064.92188-2.125.92186-.75 2.64062-.76564zm-1.71876 1.70314q-1.0625 0-1.54686.29686-.48438.28124-.48438.89064 0 .59374.46874.8906.45314.28126 1.4375.2969h2.0625q1.0469 0 1.5625-.28126.5-.28124.5-.92188 0-.60936-.48436-.89062-.48438-.28124-1.48438-.28124zm5.25-8.7969v5.84376h-1.15624l-2.95312-2.76562q-.60938-.5625-1.07814-.82814-.46874-.28124-.875-.28124-.5781 0-.8906.29688-.32814.28126-.32814.8125 0 .57812.39064.90626.3906.3281 1.04686.3281v1.70314q-.78126 0-1.42186-.375-.65626-.375-1.01564-1.04688-.375-.6875-.375-1.54686 0-1.3125.64064-2.0469.625-.73436 1.78124-.73436.64062 0 1.29686.32812.65626.32814 1.53126 1.125l2.04688 1.9375v-3.65626zm-3.53124-6.90624q1.76564 0 2.71874.73438.9375.73436.9375 2.14062 0 1.40624-.92186 2.14064-.92188.73436-2.64064.75h-1.5781q-1.78126 0-2.70314-.7344-.9375-.75-.9375-2.1406 0-1.39064.92188-2.125.92186-.75 2.64062-.76564zm-1.71876 1.70314q-1.0625 0-1.54686.29686-.48438.28124-.48438.89064 0 .59374.46874.8906.45314.28126 1.4375.2969h2.0625q1.0469 0 1.5625-.28126.5-.28124.5-.92188 0-.60936-.48436-.89062-.48438-.28124-1.48438-.28124z"/><path d="m536.8256 534.2448v5.84376h-1.1562l-2.95315-2.76562q-.60935-.5625-1.07815-.82814-.4687-.28124-.875-.28124-.5781 0-.8906.29688-.3281.28126-.3281.8125 0 .57812.3906.90626.3906.3281 1.0469.3281v1.70314q-.7813 0-1.4219-.375-.65625-.375-1.0156-1.04688-.375-.6875-.375-1.54686 0-1.3125.6406-2.0469.625-.73436 1.78125-.73436.64065 0 1.29685.32812.6563.32814 1.5313 1.125l2.04685 1.9375v-3.65626zm-3.5312-6.90624q1.7656 0 2.7187.73438.9375.73436.9375 2.14062 0 1.40624-.92185 2.14064-.92185.73436-2.64065.75h-1.5781q-1.78125 0-2.7031-.7344-.9375-.75-.9375-2.1406 0-1.39064.92185-2.125.92185-.75 2.64065-.76564zm-1.7188 1.70314q-1.0625 0-1.54685.29686-.48435.28124-.48435.89064 0 .59374.4687.8906.45315.28126 1.4375.2969h2.0625q1.0469 0 1.5625-.28126.5-.28124.5-.92188 0-.60936-.48435-.89062-.48435-.28124-1.48435-.28124zm5.25-8.7969v5.84376h-1.1562l-2.95315-2.76562q-.60935-.5625-1.07815-.82814-.4687-.28124-.875-.28124-.5781 0-.8906.29688-.3281.28126-.3281.8125 0 .57812.3906.90626.3906.3281 1.0469.3281v1.70314q-.7813 0-1.4219-.375-.65625-.375-1.0156-1.04688-.375-.6875-.375-1.54686 0-1.3125.6406-2.0469.625-.73436 1.78125-.73436.64065 0 1.29685.32812.6563.32814 1.5313 1.125l2.04685 1.9375v-3.65626zm0-5.2656v1.6875h-6.5312l.625 2.0156h-1.375l-1.26565-3.53124v-.17186z"/></g><path d="m40.5 562.5c0-.5523.447716-1 1-1h10c.552284 0 1 .4477 1 1v10c0 .5523-.447716 1-1 1h-10c-.552284 0-1-.4477-1-1z" fill="#38761d"/><path d="m63.328125 569.3125.171875 1.125.234375-1.0156 1.6875-5.95315h.953125l1.640625 5.95315.234375 1.0312.1875-1.1562 1.328125-5.82815h1.125l-2.0625 8.53125h-1.03125l-1.765625-6.21875-.125-.65625-.140625.65625-1.8125 6.21875h-1.03125l-2.0625-8.53125h1.125zm8.703125-.5469q0-.92185.359375-1.67185.375-.75 1.03125-1.14065.65625-.4062 1.484375-.4062 1.296875 0 2.09375.8906.8125.8906.8125 2.3906v.07815q0 .92185-.359375 1.65625-.359375.7344-1.015625 1.15625-.65625.40625-1.515625.40625-1.28125 0-2.09375-.8906-.796875-.9063-.796875-2.39065zm1.09375.14065q0 1.04685.484375 1.6875.5.64065 1.3125.64065.828125 0 1.3125-.64065.484375-.65625.484375-1.82815 0-1.0312-.5-1.67185-.484375-.65625-1.3125-.65625-.796875 0-1.296875.6406-.484375.625-.484375 1.82815zm5.90625-.14065q0-.92185.359375-1.67185.375-.75 1.03125-1.14065.65625-.4062 1.484375-.4062 1.296875 0 2.09375.8906.8125.8906.8125 2.3906v.07815q0 .92185-.359375 1.65625-.359375.7344-1.015625 1.15625-.65625.40625-1.515625.40625-1.28125 0-2.09375-.8906-.796875-.9063-.796875-2.39065zm1.09375.14065q0 1.04685.484375 1.6875.5.64065 1.3125.64065.828125 0 1.3125-.64065.484375-.65625.484375-1.82815 0-1.0312-.5-1.67185-.484375-.65625-1.3125-.65625-.796875 0-1.296875.6406-.484375.625-.484375 1.82815zm5.9375-.125q0-1.46875.6875-2.34375.6875-.8906 1.8125-.8906 1.109375 0 1.765625.75v-3.2969h1.078125v9h-1l-.046875-.6875q-.65625.8125-1.8125.8125-1.09375 0-1.796875-.90625-.6875-.90625-.6875-2.35935zm1.078125.125q0 1.07815.4375 1.6875.453125.60935 1.234375.60935 1.03125 0 1.515625-.9375v-2.9062q-.484375-.89065-1.5-.89065-.796875 0-1.25.60935-.4375.6094-.4375 1.82815zm11.71875 2.32815q.578125 0 1.015625-.3438.4375-.35935.484375-.8906h1.03125q-.03125.5469-.390625 1.0469-.34375.48435-.921875.7812-.5625.2969-1.21875.2969-1.296875 0-2.0625-.8594-.75-.875-.75-2.375v-.1875q0-.92185.328125-1.6406.34375-.71875.96875-1.1094.640625-.4062 1.515625-.4062 1.0625 0 1.765625.6406.71875.625.765625 1.65625h-1.03125q-.046875-.625-.46875-1.01565-.421875-.3906-1.03125-.3906-.828125 0-1.28125.59375-.453125.59375-.453125 1.71875v.2031q0 1.0938.453125 1.6875.453125.5938 1.28125.5938zm4.546875-4.8125q.71875-.875 1.875-.875 2.015625 0 2.03125 2.2656v4.1875h-1.09375v-4.2031q0-.6719-.3125-1-.296875-.32815-.953125-.32815-.53125 0-.9375.28125-.390625.28125-.609375.7344v4.5156h-1.078125v-9h1.078125zm7.09375 5.5781h-1.078125v-6.34375h1.078125zm-1.171875-8.0156q0-.26565.15625-.45315.171875-.1875.484375-.1875.3125 0 .46875.1875.171875.1875.171875.45315 0 .25-.171875.4375-.15625.17185-.46875.17185-.3125 0-.484375-.17185-.15625-.1875-.15625-.4375zm8.34375 4.92185q0 1.4375-.65625 2.32815-.65625.8906-1.796875.8906-1.15625 0-1.8125-.7344v3.0469h-1.078125v-8.78125h.984375l.046875.70315q.671875-.8125 1.84375-.8125 1.140625 0 1.796875.85935.671875.85935.671875 2.39065zm-1.078125-.125q0-1.07815-.46875-1.6875-.453125-.625-1.25-.625-.984375 0-1.46875.85935v3.0313q.484375.875 1.484375.875.78125 0 1.234375-.6094.46875-.625.46875-1.84375zm6.421875 1.53125q0-.4375-.34375-.6719-.328125-.25-1.15625-.42185-.8125-.17185-1.296875-.42185-.484375-.25-.71875-.57815-.21875-.34375-.21875-.8125 0-.78125.65625-1.3125.65625-.54685 1.6875-.54685 1.078125 0 1.734375.5625.671875.54685.671875 1.4062h-1.078125q0-.4375-.390625-.75-.375-.3281-.9375-.3281-.59375 0-.9375.2656-.328125.25-.328125.6563 0 .3906.3125.5937.3125.20315 1.125.39065.8125.17185 1.3125.42185.5.25.734375.6094.25.3594.25.8594 0 .85935-.6875 1.375-.671875.5156-1.75.5156-.765625 0-1.359375-.2656-.578125-.2813-.90625-.76565-.328125-.48435-.328125-1.04685h1.078125q.03125.54685.4375.875.40625.3125 1.078125.3125.609375 0 .984375-.25.375-.25.375-.6719zm5.093755-5.2031q0-.76565.48437-1.26565.5-.5 1.26563-.5.78124 0 1.26562.5.48438.5.48438 1.29685v.4219q0 .7656-.5 1.2656-.48438.4844-1.23438.4844-.76562 0-1.26562-.4844-.5-.5-.5-1.3125zm.8125.4531q0 .4531.25.75.26562.2969.70312.2969.42188 0 .67188-.2813.25-.29685.25-.79685v-.42185q0-.45315-.25-.75-.25-.3125-.6875-.3125-.4375 0-.6875.3125-.25.29685-.25.7656zm3.34374 4.34375q0-.76565.48438-1.25.5-.5 1.26562-.5.76563 0 1.25.5.5.48435.5 1.29685v.4063q0 .7656-.48437 1.2656-.48437.5-1.25.5-.76563 0-1.26563-.4844-.5-.5-.5-1.3125zm.8125.45315q0 .4687.25.7656.26563.2969.70313.2969.42187 0 .67187-.2813.25-.29685.25-.79685v-.4375q0-.46875-.26562-.75-.25-.29685-.67188-.29685-.42187 0-.6875.29685-.25.28125-.25.78125zm-2.95312 1-.625-.39065 4.17188-6.67185.60937.3906z" fill="#1a1a1a"/><path d="m152.5 562.5c0-.5523.44771-1 1-1h10c.55229 0 1 .4477 1 1v10c0 .5523-.44771 1-1 1h-10c-.55229 0-1-.4477-1-1z" fill="#00cdb2"/><path d="m175.32812 569.3125.17188 1.125.23438-1.0156 1.6875-5.95315h.95312l1.64062 5.95315.23438 1.0312.1875-1.1562 1.32812-5.82815h1.125l-2.0625 8.53125h-1.03124l-1.76563-6.21875-.125-.65625-.14063.65625-1.8125 6.21875h-1.03124l-2.0625-8.53125h1.125zm8.70313-.5469q0-.92185.35937-1.67185.375-.75 1.03126-1.14065.65624-.4062 1.48437-.4062 1.29687 0 2.09375.8906.8125.8906.8125 2.3906v.07815q0 .92185-.35938 1.65625-.35937.7344-1.01562 1.15625-.65625.40625-1.51562.40625-1.28126 0-2.09376-.8906-.79687-.9063-.79687-2.39065zm1.09375.14065q0 1.04685.48438 1.6875.5.64065 1.3125.64065.82812 0 1.3125-.64065.48437-.65625.48437-1.82815 0-1.0312-.5-1.67185-.48437-.65625-1.3125-.65625-.79687 0-1.29687.6406-.48438.625-.48438 1.82815zm5.90625-.14065q0-.92185.35937-1.67185.375-.75 1.03126-1.14065.65624-.4062 1.48437-.4062 1.29687 0 2.09375.8906.8125.8906.8125 2.3906v.07815q0 .92185-.35938 1.65625-.35937.7344-1.01562 1.15625-.65625.40625-1.51562.40625-1.28126 0-2.09376-.8906-.79687-.9063-.79687-2.39065zm1.09375.14065q0 1.04685.48438 1.6875.5.64065 1.3125.64065.82812 0 1.3125-.64065.48437-.65625.48437-1.82815 0-1.0312-.5-1.67185-.48437-.65625-1.3125-.65625-.79687 0-1.29687.6406-.48438.625-.48438 1.82815zm5.9375-.125q0-1.46875.6875-2.34375.6875-.8906 1.8125-.8906 1.10938 0 1.76562.75v-3.2969h1.07813v9h-1l-.04687-.6875q-.65626.8125-1.8125.8125-1.09376 0-1.79688-.90625-.6875-.90625-.6875-2.35935zm1.07812.125q0 1.07815.4375 1.6875.45313.60935 1.23438.60935 1.03125 0 1.51562-.9375v-2.9062q-.48437-.89065-1.5-.89065-.79687 0-1.25.60935-.4375.6094-.4375 1.82815zm12.875 1.40625q0-.4375-.34374-.6719-.32813-.25-1.15626-.42185-.8125-.17185-1.29687-.42185-.48437-.25-.71875-.57815-.21875-.34375-.21875-.8125 0-.78125.65625-1.3125.65625-.54685 1.6875-.54685 1.07812 0 1.73438.5625.67187.54685.67187 1.4062h-1.07813q0-.4375-.39062-.75-.375-.3281-.9375-.3281-.59375 0-.9375.2656-.32812.25-.32812.6563 0 .3906.3125.5937.3125.20315 1.125.39065.8125.17185 1.3125.42185.5.25.73437.6094.25.3594.25.8594 0 .85935-.6875 1.375-.67187.5156-1.75.5156-.76563 0-1.35937-.2656-.57813-.2813-.90626-.76565-.32812-.48435-.32812-1.04685h1.07812q.03126.54685.4375.875.40626.3125 1.07813.3125.60937 0 .98437-.25.375-.25.375-.6719zm4.84376.9219q.57812 0 1.01562-.3438.4375-.35935.48438-.8906h1.03124q-.03124.5469-.39062 1.0469-.34375.48435-.92188.7812-.5625.2969-1.21874.2969-1.29688 0-2.0625-.8594-.75-.875-.75-2.375v-.1875q0-.92185.32812-1.6406.34375-.71875.96875-1.1094.64063-.4062 1.51563-.4062 1.0625 0 1.76562.6406.71875.625.76562 1.65625h-1.03124q-.04688-.625-.46876-1.01565-.42187-.3906-1.03124-.3906-.82813 0-1.28126.59375-.45312.59375-.45312 1.71875v.2031q0 1.0938.45312 1.6875.45313.5938 1.28126.5938zm6.53124-4.6094q-.25-.03125-.53124-.03125-1.07813 0-1.45313.90625v4.5h-1.07813v-6.34375h1.04688l.01562.73435q.53126-.8437 1.51563-.8437.3125 0 .48437.0781zm4.84376 5.375q-.09376-.1875-.15626-.6719-.75.7969-1.79687.7969-.9375 0-1.54687-.53125-.59376-.53125-.59376-1.35935 0-.9844.75-1.5313.75-.54685 2.125-.54685h1.04688v-.5q0-.5625-.34375-.89065-.32813-.3437-1-.3437-.57813 0-.96875.29685-.39062.28125-.39062.70315h-1.09376q0-.4844.32813-.9219.34375-.4375.92187-.6875.57813-.2656 1.26563-.2656 1.10937 0 1.71875.54685.625.54685.65625 1.5v2.92185q0 .875.21875 1.39065v.09375zm-1.79688-.8281q.51562 0 .96875-.26565.45313-.26565.65625-.6875v-1.29685h-.84375q-2 0-2 1.17185 0 .5.34375.79685.34375.2813.875.2813zm10.23438-2.26565q0 1.4375-.65626 2.32815-.65624.8906-1.79687.8906-1.15625 0-1.8125-.7344v3.0469h-1.07813v-8.78125h.98438l.04688.70315q.67187-.8125 1.84374-.8125 1.14063 0 1.79688.85935.67188.85935.67188 2.39065zm-1.07813-.125q0-1.07815-.46875-1.6875-.45312-.625-1.25-.625-.98438 0-1.46875.85935v3.0313q.48437.875 1.48437.875.78126 0 1.23438-.6094.46875-.625.46875-1.84375zm6.42187 1.53125q0-.4375-.34374-.6719-.32813-.25-1.15626-.42185-.8125-.17185-1.29687-.42185-.48437-.25-.71875-.57815-.21875-.34375-.21875-.8125 0-.78125.65625-1.3125.65625-.54685 1.6875-.54685 1.07812 0 1.73438.5625.67187.54685.67187 1.4062h-1.07813q0-.4375-.39062-.75-.375-.3281-.9375-.3281-.59375 0-.9375.2656-.32812.25-.32812.6563 0 .3906.3125.5937.3125.20315 1.125.39065.8125.17185 1.3125.42185.5.25.73437.6094.25.3594.25.8594 0 .85935-.6875 1.375-.67187.5156-1.75.5156-.76563 0-1.35937-.2656-.57813-.2813-.90626-.76565-.32812-.48435-.32812-1.04685h1.07812q.03126.54685.4375.875.40626.3125 1.07813.3125.60937 0 .98437-.25.375-.25.375-.6719zm5.09376-5.2031q0-.76565.48437-1.26565.5-.5 1.26563-.5.78124 0 1.26562.5.48438.5.48438 1.29685v.4219q0 .7656-.5 1.2656-.48438.4844-1.23438.4844-.76562 0-1.26562-.4844-.5-.5-.5-1.3125zm.8125.4531q0 .4531.25.75.26562.2969.70312.2969.42188 0 .67188-.2813.25-.29685.25-.79685v-.42185q0-.45315-.25-.75-.25-.3125-.6875-.3125-.4375 0-.6875.3125-.25.29685-.25.7656zm3.34374 4.34375q0-.76565.48438-1.25.5-.5 1.26562-.5.76563 0 1.25.5.5.48435.5 1.29685v.4063q0 .7656-.48437 1.2656-.48437.5-1.25.5-.76563 0-1.26563-.4844-.5-.5-.5-1.3125zm.8125.45315q0 .4687.25.7656.26563.2969.70313.2969.42187 0 .67187-.2813.25-.29685.25-.79685v-.4375q0-.46875-.26562-.75-.25-.29685-.67188-.29685-.42187 0-.6875.29685-.25.28125-.25.78125zm-2.95312 1-.625-.39065 4.17188-6.67185.60937.3906z" fill="#1a1a1a"/><path d="m271.5 562.5c0-.5523.44772-1 1-1h10c.55228 0 1 .4477 1 1v10c0 .5523-.44772 1-1 1h-10c-.55228 0-1-.4477-1-1z" fill="#e6c900"/><path d="m293.60938 568.65625v3.34375h-1.125v-8.53125h3.15624q1.39063 0 2.1875.71875.79688.7031.79688 1.8906 0 1.2344-.78125 1.9063-.76563.67185-2.21875.67185zm0-.92185h2.03124q.90626 0 1.375-.4219.48438-.4219.48438-1.21875 0-.76565-.48438-1.21875-.46874-.46875-1.3125-.4844h-2.09374zm9.34374 4.3906q-1.29687 0-2.10937-.84375-.79687-.85935-.79687-2.28125v-.1875q0-.9531.35937-1.6875.35937-.75 1-1.15625.65625-.42185 1.40625-.42185 1.23438 0 1.92188.8125.6875.8125.6875 2.3281v.4531h-4.29688q.03125.9375.54688 1.51565.53124.57815 1.34374.57815.5625 0 .95313-.2344.40625-.2344.71875-.625l.65625.5156q-.79687 1.2344-2.39063 1.2344zm-.14062-5.6875q-.65625 0-1.10938.4844-.4375.4687-.53124 1.3281h3.17187v-.0781q-.04687-.82815-.45313-1.2813-.39062-.4531-1.07812-.4531zm4.6875 5.5625h-1.07812v-9h1.07812zm3 0h-1.07812v-9h1.07812zm4.45312.125q-1.29687 0-2.10937-.84375-.79687-.85935-.79687-2.28125v-.1875q0-.9531.35937-1.6875.35937-.75 1-1.15625.65625-.42185 1.40625-.42185 1.23438 0 1.92188.8125.6875.8125.6875 2.3281v.4531h-4.29688q.03125.9375.54688 1.51565.53124.57815 1.34374.57815.5625 0 .95313-.2344.40625-.2344.71875-.625l.65625.5156q-.79687 1.2344-2.39063 1.2344zm-.14062-5.6875q-.65625 0-1.10938.4844-.4375.4687-.53124 1.3281h3.17187v-.0781q-.04687-.82815-.45313-1.2813-.39062-.4531-1.07812-.4531zm4.98438-2.3125v1.53125h1.17187v.84375h-1.17187v3.9219q0 .3906.15624.5781.15626.1875.53126.1875.1875 0 .51562-.0625v.875q-.42188.125-.82812.125-.71876 0-1.09376-.4375-.375-.4531-.375-1.2656v-3.9219h-1.15624v-.84375h1.15624v-1.53125zm6.21874 6.1875q0-.4375-.34374-.6719-.32813-.25-1.15626-.42185-.8125-.17185-1.29687-.42185-.48437-.25-.71875-.57815-.21875-.34375-.21875-.8125 0-.78125.65625-1.3125.65625-.54685 1.6875-.54685 1.07812 0 1.73438.5625.67187.54685.67187 1.4062h-1.07813q0-.4375-.39062-.75-.375-.3281-.9375-.3281-.59375 0-.9375.2656-.32812.25-.32812.6563 0 .3906.3125.5937.3125.20315 1.125.39065.8125.17185 1.3125.42185.5.25.73437.6094.25.3594.25.8594 0 .85935-.6875 1.375-.67187.5156-1.75.5156-.76563 0-1.35937-.2656-.57813-.2813-.90626-.76565-.32812-.48435-.32812-1.04685h1.07812q.03126.54685.4375.875.40626.3125 1.07813.3125.60937 0 .98437-.25.375-.25.375-.6719zm5.09376-5.2031q0-.76565.48437-1.26565.5-.5 1.26563-.5.78124 0 1.26562.5.48438.5.48438 1.29685v.4219q0 .7656-.5 1.2656-.48438.4844-1.23438.4844-.76562 0-1.26562-.4844-.5-.5-.5-1.3125zm.8125.4531q0 .4531.25.75.26562.2969.70312.2969.42188 0 .67188-.2813.25-.29685.25-.79685v-.42185q0-.45315-.25-.75-.25-.3125-.6875-.3125-.4375 0-.6875.3125-.25.29685-.25.7656zm3.34374 4.34375q0-.76565.48438-1.25.5-.5 1.26562-.5.76563 0 1.25.5.5.48435.5 1.29685v.4063q0 .7656-.48437 1.2656-.48437.5-1.25.5-.76563 0-1.26563-.4844-.5-.5-.5-1.3125zm.8125.45315q0 .4687.25.7656.26563.2969.70313.2969.42187 0 .67187-.2813.25-.29685.25-.79685v-.4375q0-.46875-.26562-.75-.25-.29685-.67188-.29685-.42187 0-.6875.29685-.25.28125-.25.78125zm-2.95312 1-.625-.39065 4.17188-6.67185.60937.3906z" fill="#1a1a1a"/><path d="m355.5 562.5c0-.5523.44772-1 1-1h10c.55228 0 1 .4477 1 1v10c0 .5523-.44772 1-1 1h-10c-.55228 0-1-.4477-1-1z" fill="#d03a3c"/><path d="m376.48438 572v-8.53125h2.79687q1.39063 0 2.07813.57815.70312.5625.70312 1.6875 0 .60935-.34375 1.0781-.32813.4531-.92187.7031.70312.1875 1.09374.7344.40626.53125.40626 1.28125 0 1.15625-.75 1.8125-.73438.65625-2.09376.65625zm1.125-3.9844v3.0625h1.85937q.79687 0 1.25-.4062.45313-.4063.45313-1.125 0-1.5313-1.6875-1.5313zm0-.9062h1.70312q.73438 0 1.17188-.3594.45312-.375.45312-1.0156 0-.70315-.40625-1.01565-.40625-.32815-1.25-.32815h-1.67187zm8.78124-.4844q-.25-.03125-.53124-.03125-1.07813 0-1.45313.90625v4.5h-1.07813v-6.34375h1.04688l.01562.73435q.53126-.8437 1.51563-.8437.3125 0 .48437.0781zm2.10938 5.375h-1.07812v-6.34375h1.07812zm-1.17188-8.0156q0-.26565.15626-.45315.17187-.1875.48437-.1875.3125 0 .46875.1875.17188.1875.17188.45315 0 .25-.17188.4375-.15625.17185-.46875.17185-.3125 0-.48437-.17185-.15626-.1875-.15626-.4375zm2.73438 4.79685q0-1.5.67188-2.35935.6875-.875 1.84374-.875 1.125 0 1.78126.75l.04687-.64065h1v8.78125h-1.09375v-3.03125q-.65625.71875-1.73438.71875-1.15624 0-1.84374-.8906-.67188-.9063-.67188-2.375zm1.07812.125q0 1.07815.45313 1.70315.46875.625 1.25.625.96875 0 1.46875-.8594v-3.1094q-.51562-.8281-1.45312-.8281-.79688 0-1.26563.625-.45313.625-.45313 1.84375zm10.09376 2.46875q-.625.75-1.85938.75-1.01562 0-1.54688-.59375-.53124-.59375-.53124-1.75v-4.125h1.07812v4.09375q0 1.4531 1.17188 1.4531 1.25 0 1.65624-.9375v-4.60935h1.09376v6.34375h-1.03126zm5.71874.75q-1.29687 0-2.10937-.84375-.79687-.85935-.79687-2.28125v-.1875q0-.9531.35937-1.6875.35937-.75 1-1.15625.65625-.42185 1.40625-.42185 1.23438 0 1.92188.8125.6875.8125.6875 2.3281v.4531h-4.29688q.03125.9375.54688 1.51565.53124.57815 1.34374.57815.5625 0 .95313-.2344.40625-.2344.71875-.625l.65625.5156q-.79687 1.2344-2.39063 1.2344zm-.14062-5.6875q-.65625 0-1.10938.4844-.4375.4687-.53124 1.3281h3.17187v-.0781q-.04687-.82815-.45313-1.2813-.39062-.4531-1.07812-.4531zm4.98438-2.3125v1.53125h1.17187v.84375h-1.17187v3.9219q0 .3906.15624.5781.15626.1875.53126.1875.1875 0 .51562-.0625v.875q-.42188.125-.82812.125-.71876 0-1.09376-.4375-.375-.4531-.375-1.2656v-3.9219h-1.15624v-.84375h1.15624v-1.53125zm4 0v1.53125h1.17187v.84375h-1.17187v3.9219q0 .3906.15624.5781.15626.1875.53126.1875.1875 0 .51562-.0625v.875q-.42188.125-.82812.125-.71876 0-1.09376-.4375-.375-.4531-.375-1.2656v-3.9219h-1.15624v-.84375h1.15624v-1.53125zm5.15624 8q-1.29687 0-2.10937-.84375-.79687-.85935-.79687-2.28125v-.1875q0-.9531.35937-1.6875.35937-.75 1-1.15625.65625-.42185 1.40625-.42185 1.23438 0 1.92188.8125.6875.8125.6875 2.3281v.4531h-4.29688q.03125.9375.54688 1.51565.53124.57815 1.34374.57815.5625 0 .95313-.2344.40625-.2344.71875-.625l.65625.5156q-.79687 1.2344-2.39063 1.2344zm-.14062-5.6875q-.65625 0-1.10938.4844-.4375.4687-.53124 1.3281h3.17187v-.0781q-.04687-.82815-.45313-1.2813-.39062-.4531-1.07812-.4531zm7.20312 3.875q0-.4375-.34374-.6719-.32813-.25-1.15626-.42185-.8125-.17185-1.29687-.42185-.48437-.25-.71875-.57815-.21875-.34375-.21875-.8125 0-.78125.65625-1.3125.65625-.54685 1.6875-.54685 1.07812 0 1.73438.5625.67187.54685.67187 1.4062h-1.07813q0-.4375-.39062-.75-.375-.3281-.9375-.3281-.59375 0-.9375.2656-.32812.25-.32812.6563 0 .3906.3125.5937.3125.20315 1.125.39065.8125.17185 1.3125.42185.5.25.73437.6094.25.3594.25.8594 0 .85935-.6875 1.375-.67187.5156-1.75.5156-.76563 0-1.35937-.2656-.57813-.2813-.90626-.76565-.32812-.48435-.32812-1.04685h1.07812q.03126.54685.4375.875.40626.3125 1.07813.3125.60937 0 .98437-.25.375-.25.375-.6719zm5.09376-5.2031q0-.76565.48437-1.26565.5-.5 1.26563-.5.78124 0 1.26562.5.48438.5.48438 1.29685v.4219q0 .7656-.5 1.2656-.48438.4844-1.23438.4844-.76562 0-1.26562-.4844-.5-.5-.5-1.3125zm.8125.4531q0 .4531.25.75.26562.2969.70312.2969.42188 0 .67188-.2813.25-.29685.25-.79685v-.42185q0-.45315-.25-.75-.25-.3125-.6875-.3125-.4375 0-.6875.3125-.25.29685-.25.7656zm3.34374 4.34375q0-.76565.48438-1.25.5-.5 1.26562-.5.76563 0 1.25.5.5.48435.5 1.29685v.4063q0 .7656-.48437 1.2656-.48437.5-1.25.5-.76563 0-1.26563-.4844-.5-.5-.5-1.3125zm.8125.45315q0 .4687.25.7656.26563.2969.70313.2969.42187 0 .67187-.2813.25-.29685.25-.79685v-.4375q0-.46875-.26562-.75-.25-.29685-.67188-.29685-.42187 0-.6875.29685-.25.28125-.25.78125zm-2.95312 1-.625-.39065 4.17188-6.67185.60937.3906z" fill="#1a1a1a"/><path d="m457.5 562.5c0-.5523.44772-1 1-1h10c.55228 0 1 .4477 1 1v10c0 .5523-.44772 1-1 1h-10c-.55228 0-1-.4477-1-1z" fill="#5d4948"/><path d="m483.20312 568.2344h-3.59374v3.7656h-1.125v-8.53125h5.29687v.92185h-4.17187v2.9219h3.59374zm3.29688 3.7656h-1.07812v-6.34375h1.07812zm-1.17188-8.0156q0-.26565.15626-.45315.17187-.1875.48437-.1875.3125 0 .46875.1875.17188.1875.17188.45315 0 .25-.17188.4375-.15625.17185-.46875.17185-.3125 0-.48437-.17185-.15626-.1875-.15626-.4375zm6.0625 2.6406q-.25-.03125-.53124-.03125-1.07813 0-1.45313.90625v4.5h-1.07813v-6.34375h1.04688l.01562.73435q.53126-.8437 1.51563-.8437.3125 0 .48437.0781zm3.5625 5.5q-1.29687 0-2.10937-.84375-.79687-.85935-.79687-2.28125v-.1875q0-.9531.35937-1.6875.35937-.75 1-1.15625.65625-.42185 1.40625-.42185 1.23438 0 1.92188.8125.6875.8125.6875 2.3281v.4531h-4.29688q.03125.9375.54688 1.51565.53124.57815 1.34374.57815.5625 0 .95313-.2344.40625-.2344.71875-.625l.65625.5156q-.79687 1.2344-2.39063 1.2344zm-.14062-5.6875q-.65625 0-1.10938.4844-.4375.4687-.53124 1.3281h3.17187v-.0781q-.04687-.82815-.45313-1.2813-.39062-.4531-1.07812-.4531zm9.125 4.0625 1.21875-4.84375h1.07813l-1.84376 6.34375h-.875l-1.54687-4.8125-1.5 4.8125h-.875l-1.84375-6.34375h1.07812l1.25 4.75 1.48438-4.75h.85938zm3.09375-1.7344q0-.92185.35937-1.67185.375-.75 1.03126-1.14065.65624-.4062 1.48437-.4062 1.29687 0 2.09375.8906.8125.8906.8125 2.3906v.07815q0 .92185-.3594 1.65625-.35935.7344-1.0156 1.15625-.65625.40625-1.51562.40625-1.28126 0-2.09376-.8906-.79687-.9063-.79687-2.39065zm1.09375.14065q0 1.04685.48438 1.6875.5.64065 1.3125.64065.82812 0 1.3125-.64065.48437-.65625.48437-1.82815 0-1.0312-.5-1.67185-.48437-.65625-1.3125-.65625-.79687 0-1.29687.6406-.48438.625-.48438 1.82815zm5.90625-.14065q0-.92185.35935-1.67185.375-.75 1.0313-1.14065.6562-.4062 1.48435-.4062 1.29685 0 2.09375.8906.8125.8906.8125 2.3906v.07815q0 .92185-.3594 1.65625-.35935.7344-1.0156 1.15625-.65625.40625-1.5156.40625-1.2813 0-2.0938-.8906-.79685-.9063-.79685-2.39065zm1.09375.14065q0 1.04685.4844 1.6875.5.64065 1.3125.64065.8281 0 1.3125-.64065.48435-.65625.48435-1.82815 0-1.0312-.5-1.67185-.48435-.65625-1.3125-.65625-.79685 0-1.29685.6406-.4844.625-.4844 1.82815zm5.9375-.125q0-1.46875.6875-2.34375.6875-.8906 1.8125-.8906 1.1094 0 1.7656.75v-3.2969h1.07815v9h-1l-.04685-.6875q-.6563.8125-1.8125.8125-1.0938 0-1.7969-.90625-.6875-.90625-.6875-2.35935zm1.0781.125q0 1.07815.4375 1.6875.45315.60935 1.2344.60935 1.03125 0 1.5156-.9375v-2.9062q-.48435-.89065-1.5-.89065-.79685 0-1.25.60935-.4375.6094-.4375 1.82815zm8.9688-3.79685q0-.76565.48435-1.26565.5-.5 1.26565-.5.7812 0 1.2656.5.4844.5.4844 1.29685v.4219q0 .7656-.5 1.2656-.4844.4844-1.2344.4844-.7656 0-1.2656-.4844-.5-.5-.5-1.3125zm.8125.4531q0 .4531.25.75.2656.2969.7031.2969.4219 0 .6719-.2813.25-.29685.25-.79685v-.42185q0-.45315-.25-.75-.25-.3125-.6875-.3125-.4375 0-.6875.3125-.25.29685-.25.7656zm3.3437 4.34375q0-.76565.4844-1.25.5-.5 1.2656-.5.76565 0 1.25.5.5.48435.5 1.29685v.4063q0 .7656-.48435 1.2656-.48435.5-1.25.5-.76565 0-1.26565-.4844-.5-.5-.5-1.3125zm.8125.45315q0 .4687.25.7656.26565.2969.70315.2969.42185 0 .67185-.2813.25-.29685.25-.79685v-.4375q0-.46875-.2656-.75-.25-.29685-.6719-.29685-.42185 0-.6875.29685-.25.28125-.25.78125zm-2.9531 1-.625-.39065 4.1719-6.67185.60935.3906z" fill="#1a1a1a"/></svg>