<svg fill="none" height="310" stroke-linecap="square" stroke-miterlimit="10" viewBox="0 0 580 310" width="580" xmlns="http://www.w3.org/2000/svg" xmlns:xlink="http://www.w3.org/1999/xlink"><clipPath id="a"><path d="m48.5 23h516v212.16667h-516z"/></clipPath><path d="m0 0h580v310h-580z" fill="none"/><path d="m48.5 235.5h516" stroke="#333" stroke-linecap="butt"/><path d="m48.5 182.5h516" stroke="#ccc" stroke-linecap="butt"/><path d="m48.5 129.5h516" stroke="#ccc" stroke-linecap="butt"/><path d="m48.5 76.5h516" stroke="#ccc" stroke-linecap="butt"/><path d="m48.5 22.5h516" stroke="#ccc" stroke-linecap="butt"/><path d="m48.5 217.5h516" stroke="#e6e6e6" stroke-linecap="butt"/><path d="m48.5 199.5h516" stroke="#e6e6e6" stroke-linecap="butt"/><path d="m48.5 164.5h516" stroke="#e6e6e6" stroke-linecap="butt"/><path d="m48.5 146.5h516" stroke="#e6e6e6" stroke-linecap="butt"/><path d="m48.5 111.5h516" stroke="#e6e6e6" stroke-linecap="butt"/><path d="m48.5 93.5h516" stroke="#e6e6e6" stroke-linecap="butt"/><path d="m48.5 58.5h516" stroke="#e6e6e6" stroke-linecap="butt"/><path d="m48.5 40.5h516" stroke="#e6e6e6" stroke-linecap="butt"/><path d="m48.5 235.5v-212" stroke="#000" stroke-linecap="butt"/><path clip-path="url(#a)" d="m64 235h-10v-14h10z"/><path clip-path="url(#a)" d="m64 235h-10v-14h10z" fill="#e16c30"/><path clip-path="url(#a)" d="m80 235h-10v-17h10z"/><path clip-path="url(#a)" d="m80 235h-10v-17h10z" fill="#e16c30"/><path clip-path="url(#a)" d="m96 235h-10v-17h10z"/><path clip-path="url(#a)" d="m96 235h-10v-17h10z" fill="#e16c30"/><path clip-path="url(#a)" d="m112 235h-10v-19h10z"/><path clip-path="url(#a)" d="m112 235h-10v-19h10z" fill="#e16c30"/><path clip-path="url(#a)" d="m128 235h-10v-20h10z"/><path clip-path="url(#a)" d="m128 235h-10v-20h10z" fill="#e16c30"/><path clip-path="url(#a)" d="m144 235h-10v-22h10z"/><path clip-path="url(#a)" d="m144 235h-10v-22h10z" fill="#e16c30"/><path clip-path="url(#a)" d="m160 235h-10v-23h10z"/><path clip-path="url(#a)" d="m160 235h-10v-23h10z" fill="#e16c30"/><path clip-path="url(#a)" d="m176 235h-10v-23h10z"/><path clip-path="url(#a)" d="m176 235h-10v-23h10z" fill="#e16c30"/><path clip-path="url(#a)" d="m192 235h-10v-23h10z"/><path clip-path="url(#a)" d="m192 235h-10v-23h10z" fill="#e16c30"/><path clip-path="url(#a)" d="m208 235h-10v-23h10z"/><path clip-path="url(#a)" d="m208 235h-10v-23h10z" fill="#e16c30"/><path clip-path="url(#a)" d="m224 235h-10v-21h10z"/><path clip-path="url(#a)" d="m224 235h-10v-21h10z" fill="#e16c30"/><path clip-path="url(#a)" d="m240 235h-10v-23h10z"/><path clip-path="url(#a)" d="m240 235h-10v-23h10z" fill="#e16c30"/><path clip-path="url(#a)" d="m256 235h-10v-23h10z"/><path clip-path="url(#a)" d="m256 235h-10v-23h10z" fill="#e16c30"/><path clip-path="url(#a)" d="m272 235h-10v-25h10z"/><path clip-path="url(#a)" d="m272 235h-10v-25h10z" fill="#e16c30"/><path clip-path="url(#a)" d="m288 235h-10v-26h10z"/><path clip-path="url(#a)" d="m288 235h-10v-26h10z" fill="#e16c30"/><path clip-path="url(#a)" d="m304 235h-10v-26h10z"/><path clip-path="url(#a)" d="m304 235h-10v-26h10z" fill="#e16c30"/><path clip-path="url(#a)" d="m319 235h-10v-26h10z"/><path clip-path="url(#a)" d="m319 235h-10v-26h10z" fill="#e16c30"/><path clip-path="url(#a)" d="m335 235h-10v-26h10z"/><path clip-path="url(#a)" d="m335 235h-10v-26h10z" fill="#e16c30"/><path clip-path="url(#a)" d="m351 235h-10v-24h10z"/><path clip-path="url(#a)" d="m351 235h-10v-24h10z" fill="#e16c30"/><path clip-path="url(#a)" d="m367 235h-10v-28h10z"/><path clip-path="url(#a)" d="m367 235h-10v-28h10z" fill="#e16c30"/><path clip-path="url(#a)" d="m383 235h-10v-24h10z"/><path clip-path="url(#a)" d="m383 235h-10v-24h10z" fill="#e16c30"/><path clip-path="url(#a)" d="m399 235h-10v-25h10z"/><path clip-path="url(#a)" d="m399 235h-10v-25h10z" fill="#e16c30"/><path clip-path="url(#a)" d="m415 235h-10v-28h10z"/><path clip-path="url(#a)" d="m415 235h-10v-28h10z" fill="#e16c30"/><path clip-path="url(#a)" d="m431 235h-10v-28h10z"/><path clip-path="url(#a)" d="m431 235h-10v-28h10z" fill="#e16c30"/><path clip-path="url(#a)" d="m447 235h-10v-29h10z"/><path clip-path="url(#a)" d="m447 235h-10v-29h10z" fill="#e16c30"/><path clip-path="url(#a)" d="m463 235h-10v-28h10z"/><path clip-path="url(#a)" d="m463 235h-10v-28h10z" fill="#e16c30"/><path clip-path="url(#a)" d="m479 235h-10v-29h10z"/><path clip-path="url(#a)" d="m479 235h-10v-29h10z" fill="#e16c30"/><path clip-path="url(#a)" d="m495 235h-10v-31h10z"/><path clip-path="url(#a)" d="m495 235h-10v-31h10z" fill="#e16c30"/><path clip-path="url(#a)" d="m511 235h-10v-33h10z"/><path clip-path="url(#a)" d="m511 235h-10v-33h10z" fill="#e16c30"/><path clip-path="url(#a)" d="m527 235h-10v-33h10z"/><path clip-path="url(#a)" d="m527 235h-10v-33h10z" fill="#e16c30"/><path clip-path="url(#a)" d="m543 235h-10v-31h10z"/><path clip-path="url(#a)" d="m543 235h-10v-31h10z" fill="#e16c30"/><path clip-path="url(#a)" d="m559 235h-10v-33h10z"/><path clip-path="url(#a)" d="m559 235h-10v-33h10z" fill="#e16c30"/><path clip-path="url(#a)" d="m64 221h-10v-167c0-1.10457.89543-2 2-2h6c1.10457 0 2 .89543 2 2z"/><path clip-path="url(#a)" d="m64 221h-10v-167c0-1.10457.89543-2 2-2h6c1.10457 0 2 .89543 2 2z" fill="#5d4948"/><path clip-path="url(#a)" d="m80 218h-10v-155c0-1.10457.89543-2 2-2h6c1.10457 0 2 .89543 2 2z"/><path clip-path="url(#a)" d="m80 218h-10v-155c0-1.10457.89543-2 2-2h6c1.10457 0 2 .89543 2 2z" fill="#5d4948"/><path clip-path="url(#a)" d="m96 218h-10v-122c0-1.10457.89543-2 2-2h6c1.10457 0 2 .89543 2 2z"/><path clip-path="url(#a)" d="m96 218h-10v-122c0-1.10457.89543-2 2-2h6c1.10457 0 2 .89543 2 2z" fill="#5d4948"/><path clip-path="url(#a)" d="m112 216h-10v-100c0-1.10457.89543-2 2-2h6c1.10457 0 2 .89543 2 2z"/><path clip-path="url(#a)" d="m112 216h-10v-100c0-1.10457.89543-2 2-2h6c1.10457 0 2 .89543 2 2z" fill="#5d4948"/><path clip-path="url(#a)" d="m128 215h-10v-86c0-1.10457.89543-2 2-2h6c1.10457 0 2 .89543 2 2z"/><path clip-path="url(#a)" d="m128 215h-10v-86c0-1.10457.89543-2 2-2h6c1.10457 0 2 .89543 2 2z" fill="#5d4948"/><path clip-path="url(#a)" d="m144 213h-10v-80c0-1.10457.89543-2 2-2h6c1.10457 0 2 .89543 2 2z"/><path clip-path="url(#a)" d="m144 213h-10v-80c0-1.10457.89543-2 2-2h6c1.10457 0 2 .89543 2 2z" fill="#5d4948"/><path clip-path="url(#a)" d="m160 212h-10v-79c0-1.10457.89543-2 2-2h6c1.10457 0 2 .89543 2 2z"/><path clip-path="url(#a)" d="m160 212h-10v-79c0-1.10457.89543-2 2-2h6c1.10457 0 2 .89543 2 2z" fill="#5d4948"/><path clip-path="url(#a)" d="m176 212h-10v-77c0-1.10457.89543-2 2-2h6c1.10457 0 2 .89543 2 2z"/><path clip-path="url(#a)" d="m176 212h-10v-77c0-1.10457.89543-2 2-2h6c1.10457 0 2 .89543 2 2z" fill="#5d4948"/><path clip-path="url(#a)" d="m192 212h-10v-75c0-1.10457.89543-2 2-2h6c1.10457 0 2 .89543 2 2z"/><path clip-path="url(#a)" d="m192 212h-10v-75c0-1.10457.89543-2 2-2h6c1.10457 0 2 .89543 2 2z" fill="#5d4948"/><path clip-path="url(#a)" d="m208 212h-10v-70c0-1.10457.89543-2 2-2h6c1.10457 0 2 .89543 2 2z"/><path clip-path="url(#a)" d="m208 212h-10v-70c0-1.10457.89543-2 2-2h6c1.10457 0 2 .89543 2 2z" fill="#5d4948"/><path clip-path="url(#a)" d="m224 214h-10v-66c0-1.10457.89543-2 2-2h6c1.10457 0 2 .89543 2 2z"/><path clip-path="url(#a)" d="m224 214h-10v-66c0-1.10457.89543-2 2-2h6c1.10457 0 2 .89543 2 2z" fill="#5d4948"/><path clip-path="url(#a)" d="m240 212h-10v-71c0-1.10457.89543-2 2-2h6c1.10457 0 2 .89543 2 2z"/><path clip-path="url(#a)" d="m240 212h-10v-71c0-1.10457.89543-2 2-2h6c1.10457 0 2 .89543 2 2z" fill="#5d4948"/><path clip-path="url(#a)" d="m256 212h-10v-71c0-1.10457.89543-2 2-2h6c1.10457 0 2 .89543 2 2z"/><path clip-path="url(#a)" d="m256 212h-10v-71c0-1.10457.89543-2 2-2h6c1.10457 0 2 .89543 2 2z" fill="#5d4948"/><path clip-path="url(#a)" d="m272 210h-10v-74c0-1.10457.89542-2 2-2h6c1.10458 0 2 .89543 2 2z"/><path clip-path="url(#a)" d="m272 210h-10v-74c0-1.10457.89542-2 2-2h6c1.10458 0 2 .89543 2 2z" fill="#5d4948"/><path clip-path="url(#a)" d="m288 209h-10v-75c0-1.10457.89542-2 2-2h6c1.10458 0 2 .89543 2 2z"/><path clip-path="url(#a)" d="m288 209h-10v-75c0-1.10457.89542-2 2-2h6c1.10458 0 2 .89543 2 2z" fill="#5d4948"/><path clip-path="url(#a)" d="m304 209h-10v-77c0-1.10457.89542-2 2-2h6c1.10458 0 2 .89543 2 2z"/><path clip-path="url(#a)" d="m304 209h-10v-77c0-1.10457.89542-2 2-2h6c1.10458 0 2 .89543 2 2z" fill="#5d4948"/><path clip-path="url(#a)" d="m319 209h-10v-81c0-1.10457.89542-2 2-2h6c1.10458 0 2 .89543 2 2z"/><path clip-path="url(#a)" d="m319 209h-10v-81c0-1.10457.89542-2 2-2h6c1.10458 0 2 .89543 2 2z" fill="#5d4948"/><path clip-path="url(#a)" d="m335 209h-10v-84c0-1.10457.89542-2 2-2h6c1.10458 0 2 .89543 2 2z"/><path clip-path="url(#a)" d="m335 209h-10v-84c0-1.10457.89542-2 2-2h6c1.10458 0 2 .89543 2 2z" fill="#5d4948"/><path clip-path="url(#a)" d="m351 211h-10v-78c0-1.10457.89542-2 2-2h6c1.10458 0 2 .89543 2 2z"/><path clip-path="url(#a)" d="m351 211h-10v-78c0-1.10457.89542-2 2-2h6c1.10458 0 2 .89543 2 2z" fill="#5d4948"/><path clip-path="url(#a)" d="m367 207h-10v-70c0-1.10457.89542-2 2-2h6c1.10458 0 2 .89543 2 2z"/><path clip-path="url(#a)" d="m367 207h-10v-70c0-1.10457.89542-2 2-2h6c1.10458 0 2 .89543 2 2z" fill="#5d4948"/><path clip-path="url(#a)" d="m383 211h-10v-77c0-1.10457.89542-2 2-2h6c1.10458 0 2 .89543 2 2z"/><path clip-path="url(#a)" d="m383 211h-10v-77c0-1.10457.89542-2 2-2h6c1.10458 0 2 .89543 2 2z" fill="#5d4948"/><path clip-path="url(#a)" d="m399 210h-10v-71c0-1.10457.89542-2 2-2h6c1.10458 0 2 .89543 2 2z"/><path clip-path="url(#a)" d="m399 210h-10v-71c0-1.10457.89542-2 2-2h6c1.10458 0 2 .89543 2 2z" fill="#5d4948"/><path clip-path="url(#a)" d="m415 207h-10v-71c0-1.10457.89542-2 2-2h6c1.10458 0 2 .89543 2 2z"/><path clip-path="url(#a)" d="m415 207h-10v-71c0-1.10457.89542-2 2-2h6c1.10458 0 2 .89543 2 2z" fill="#5d4948"/><path clip-path="url(#a)" d="m431 207h-10v-69c0-1.10457.89542-2 2-2h6c1.10458 0 2 .89543 2 2z"/><path clip-path="url(#a)" d="m431 207h-10v-69c0-1.10457.89542-2 2-2h6c1.10458 0 2 .89543 2 2z" fill="#5d4948"/><path clip-path="url(#a)" d="m447 206h-10v-68c0-1.10457.89542-2 2-2h6c1.10458 0 2 .89543 2 2z"/><path clip-path="url(#a)" d="m447 206h-10v-68c0-1.10457.89542-2 2-2h6c1.10458 0 2 .89543 2 2z" fill="#5d4948"/><path clip-path="url(#a)" d="m463 207h-10v-67c0-1.10457.89542-2 2-2h6c1.10458 0 2 .89543 2 2z"/><path clip-path="url(#a)" d="m463 207h-10v-67c0-1.10457.89542-2 2-2h6c1.10458 0 2 .89543 2 2z" fill="#5d4948"/><path clip-path="url(#a)" d="m479 206h-10v-67c0-1.10457.89542-2 2-2h6c1.10458 0 2 .89543 2 2z"/><path clip-path="url(#a)" d="m479 206h-10v-67c0-1.10457.89542-2 2-2h6c1.10458 0 2 .89543 2 2z" fill="#5d4948"/><path clip-path="url(#a)" d="m495 204h-10v-68c0-1.10457.89542-2 2-2h6c1.10458 0 2 .89543 2 2z"/><path clip-path="url(#a)" d="m495 204h-10v-68c0-1.10457.89542-2 2-2h6c1.10458 0 2 .89543 2 2z" fill="#5d4948"/><path clip-path="url(#a)" d="m511 202h-10v-71c0-1.10457.89542-2 2-2h6c1.10458 0 2 .89543 2 2z"/><path clip-path="url(#a)" d="m511 202h-10v-71c0-1.10457.89542-2 2-2h6c1.10458 0 2 .89543 2 2z" fill="#5d4948"/><path clip-path="url(#a)" d="m527 202h-10v-69c0-1.10457.89545-2 2-2h6c1.10455 0 2 .89543 2 2z"/><path clip-path="url(#a)" d="m527 202h-10v-69c0-1.10457.89545-2 2-2h6c1.10455 0 2 .89543 2 2z" fill="#5d4948"/><path clip-path="url(#a)" d="m543 204h-10v-65c0-1.10457.89545-2 2-2h6c1.10455 0 2 .89543 2 2z"/><path clip-path="url(#a)" d="m543 204h-10v-65c0-1.10457.89545-2 2-2h6c1.10455 0 2 .89543 2 2z" fill="#5d4948"/><path clip-path="url(#a)" d="m559 202h-10v-68c0-1.10457.89545-2 2-2h6c1.10455 0 2 .89543 2 2z"/><path clip-path="url(#a)" d="m559 202h-10v-68c0-1.10457.89545-2 2-2h6c1.10455 0 2 .89543 2 2z" fill="#5d4948"/><path d="m42.5 235.5h12" stroke="#000" stroke-linecap="butt"/><path d="m42.5 182.5h12" stroke="#000" stroke-linecap="butt"/><path d="m42.5 129.5h12" stroke="#000" stroke-linecap="butt"/><path d="m42.5 76.5h12" stroke="#000" stroke-linecap="butt"/><path d="m42.5 22.5h12" stroke="#000" stroke-linecap="butt"/><g fill="#000"><path d="m35.5625 236.02605q0 1.90625-.65625 2.84375-.640625.92187-2.03125.92187-1.359375 0-2.015625-.90625-.65625-.90625-.6875-2.71875v-1.4375q0-1.89062.640625-2.79687.65625-.92188 2.046875-.92188 1.375 0 2.03125.89063.65625.875.671875 2.71875zm-1.09375-1.48438q0-1.375-.390625-2-.375-.64062-1.21875-.64062-.828125 0-1.21875.64062-.375.625-.375 1.92188v1.73437q0 1.375.390625 2.04688.40625.65625 1.21875.65625.796875 0 1.1875-.625.390625-.625.40625-1.95313z"/><path d="m19.765625 186.625h-1.078125v-7.21875l-2.1875.79687v-.98437l3.109375-1.17187h.15625zm8.796875-3.64062q0 1.90624-.65625 2.84374-.640625.92188-2.03125.92188-1.359375 0-2.015625-.90625-.65625-.90625-.6875-2.71875v-1.4375q0-1.89062.640625-2.79688.65625-.92187 2.046875-.92187 1.375 0 2.03125.89063.65625.875.671875 2.71874zm-1.09375-1.48438q0-1.375-.390625-2-.375-.64062-1.21875-.64062-.828125 0-1.21875.64062-.375.625-.375 1.92188v1.73437q0 1.375.390625 2.04687.40625.65626 1.21875.65626.796875 0 1.1875-.625.390625-.625.40625-1.95313zm8.09375 1.48438q0 1.90624-.65625 2.84374-.640625.92188-2.03125.92188-1.359375 0-2.015625-.90625-.65625-.90625-.6875-2.71875v-1.4375q0-1.89062.640625-2.79688.65625-.92187 2.046875-.92187 1.375 0 2.03125.89063.65625.875.671875 2.71874zm-1.09375-1.48438q0-1.375-.390625-2-.375-.64062-1.21875-.64062-.828125 0-1.21875.64062-.375.625-.375 1.92188v1.73437q0 1.375.390625 2.04687.40625.65626 1.21875.65626.796875 0 1.1875-.625.390625-.625.40625-1.95313z"/><path d="m21.796875 133.58333h-5.59375v-.78125l2.953125-3.28125q.65625-.75.90625-1.20313.25-.46875.25-.96875 0-.67187-.40625-1.09375-.390625-.4375-1.078125-.4375-.796875 0-1.25.46875-.453125.45313-.453125 1.28125h-1.078125q0-1.1875.75-1.90625.765625-.73437 2.03125-.73437 1.203125 0 1.890625.625.6875.625.6875 1.67187 0 1.25-1.609375 3l-2.28125 2.46875h4.28125zm6.765625-3.64063q0 1.90625-.65625 2.84375-.640625.92188-2.03125.92188-1.359375 0-2.015625-.90625-.65625-.90625-.6875-2.71875v-1.4375q0-1.89063.640625-2.79688.65625-.92187 2.046875-.92187 1.375 0 2.03125.89062.65625.875.671875 2.71875zm-1.09375-1.48437q0-1.375-.390625-2-.375-.64063-1.21875-.64063-.828125 0-1.21875.64063-.375.625-.375 1.92187v1.73438q0 1.375.390625 2.04687.40625.65625 1.21875.65625.796875 0 1.1875-.625.390625-.625.40625-1.95312zm8.09375 1.48437q0 1.90625-.65625 2.84375-.640625.92188-2.03125.92188-1.359375 0-2.015625-.90625-.65625-.90625-.6875-2.71875v-1.4375q0-1.89063.640625-2.79688.65625-.92187 2.046875-.92187 1.375 0 2.03125.89062.65625.875.671875 2.71875zm-1.09375-1.48437q0-1.375-.390625-2-.375-.64063-1.21875-.64063-.828125 0-1.21875.64063-.375.625-.375 1.92187v1.73438q0 1.375.390625 2.04687.40625.65625 1.21875.65625.796875 0 1.1875-.625.390625-.625.40625-1.95312z"/><path d="m17.78125 75.74479h.8125q.78125-.015626 1.21875-.40625.4375-.390626.4375-1.0625 0-1.5-1.5-1.5-.703125 0-1.125.40625-.40625.40625-.40625 1.0625h-1.09375q0-1.015626.734375-1.6875.75-.671876 1.890625-.671876 1.203125 0 1.890625.640626.6875.640624.6875 1.78125 0 .5625-.359375 1.078124-.359375.515626-.984375.78125.703125.21875 1.078125.734376.390625.515624.390625 1.265624 0 1.140626-.75 1.828126-.75.671874-1.953125.671874-1.1875 0-1.953125-.65625-.75-.65625-.75-1.71875h1.09375q0 .671876.4375 1.078126.4375.40625 1.1875.40625.78125 0 1.1875-.40625.421875-.421876.421875-1.1875 0-.734376-.453125-1.125-.453125-.40625-1.328125-.421876h-.8125zm10.78125 1.15625q0 1.90625-.65625 2.84375-.640625.921874-2.03125.921874-1.359375 0-2.015625-.90625-.65625-.90625-.6875-2.71875v-1.4375q0-1.890624.640625-2.796874.65625-.921876 2.046875-.921876 1.375 0 2.03125.890626.65625.875.671875 2.71875zm-1.09375-1.484376q0-1.375-.390625-2-.375-.640624-1.21875-.640624-.828125 0-1.21875.640624-.375.625-.375 1.921876v1.734374q0 1.375.390625 2.046876.40625.65625 1.21875.65625.796875 0 1.1875-.625.390625-.625.40625-1.953126zm8.09375 1.484376q0 1.90625-.65625 2.84375-.640625.921874-2.03125.921874-1.359375 0-2.015625-.90625-.65625-.90625-.6875-2.71875v-1.4375q0-1.890624.640625-2.796874.65625-.921876 2.046875-.921876 1.375 0 2.03125.890626.65625.875.671875 2.71875zm-1.09375-1.484376q0-1.375-.390625-2-.375-.640624-1.21875-.640624-.828125 0-1.21875.640624-.375.625-.375 1.921876v1.734374q0 1.375.390625 2.046876.40625.65625 1.21875.65625.796875 0 1.1875-.625.390625-.625.40625-1.953126z"/><path d="m20.78125 24.640625h1.1875v.875h-1.1875v1.984375h-1.078125v-1.984375h-3.890625v-.640625l3.8125-5.90625h1.15625zm-3.734375 0h2.65625v-4.1875l-.140625.234375zm11.515625-.78125q0 1.90625-.65625 2.84375-.640625.921875-2.03125.921875-1.359375 0-2.015625-.90625-.65625-.90625-.6875-2.71875v-1.4375q0-1.890625.640625-2.796875.65625-.921875 2.046875-.921875 1.375 0 2.03125.890625.65625.875.671875 2.71875zm-1.09375-1.484375q0-1.375-.390625-2-.375-.640625-1.21875-.640625-.828125 0-1.21875.640625-.375.625-.375 1.921875v1.734375q0 1.375.390625 2.046875.40625.65625 1.21875.65625.796875 0 1.1875-.625.390625-.625.40625-1.953125zm8.09375 1.484375q0 1.90625-.65625 2.84375-.640625.921875-2.03125.921875-1.359375 0-2.015625-.90625-.65625-.90625-.6875-2.71875v-1.4375q0-1.890625.640625-2.796875.65625-.921875 2.046875-.921875 1.375 0 2.03125.890625.65625.875.671875 2.71875zm-1.09375-1.484375q0-1.375-.390625-2-.375-.640625-1.21875-.640625-.828125 0-1.21875.640625-.375.625-.375 1.921875v1.734375q0 1.375.390625 2.046875.40625.65625 1.21875.65625.796875 0 1.1875-.625.390625-.625.40625-1.953125z"/><path d="m63.766624 264.47916v1.6875h-6.53125l.625 2.01562h-1.375l-1.265624-3.53125v-.17187zm-3.40625-6.85938q.640626.67188.640626 1.54688 0 1.14062-.765626 1.82812-.78125.67188-2.09375.67188-.84375 0-1.546874-.35938-.703126-.375-1.09375-1.03125-.390626-.65625-.390626-1.48437 0-.84376.421876-1.5.421874-.65626 1.21875-1.01563.796874-.35936 1.8125-.37498h.625q2.140624 0 3.359374 1.06248 1.21875 1.0625 1.296876 3.01563v.40624h-1.40625l-.015626-.375q-.09375-2.20312-2.0625-2.39062zm-.65625 1.14062q0-.42187-.203124-.70312-.21875-.29688-.515626-.45312h-.6875q-.859374 0-1.328124.32812-.484376.32812-.484376.875 0 .51562.46875.84375.453126.32813 1.15625.32813.703126 0 1.15625-.3125.4375-.32813.4375-.90626zm.65625-8.1406q.640626.67187.640626 1.54687 0 1.14063-.765626 1.82813-.78125.67187-2.09375.67187-.84375 0-1.546874-.35937-.703126-.375-1.09375-1.03125-.390626-.65625-.390626-1.48438 0-.84375.421876-1.5.421874-.65625 1.21875-1.01562.796874-.35938 1.8125-.375h.625q2.140624 0 3.359374 1.0625 1.21875 1.0625 1.296876 3.01562v.40625h-1.40625l-.015626-.375q-.09375-2.20312-2.0625-2.39062zm-.65625 1.14062q0-.42187-.203124-.70312-.21875-.29688-.515626-.45313h-.6875q-.859374 0-1.328124.32813-.484376.32812-.484376.875 0 .51562.46875.84375.453126.32812 1.15625.32812.703126 0 1.15625-.3125.4375-.32812.4375-.90625zm.53125-9.92187q1.765626 0 2.71875.73437.9375.73438.9375 2.14063 0 1.40625-.921874 2.14062-.921876.73438-2.640626.75h-1.578124q-1.78125 0-2.703126-.73437-.9375-.75-.9375-2.14063 0-1.39062.921876-2.125.921874-.75 2.640624-.76562zm-1.71875 1.70312q-1.0625 0-1.546874.29688-.484376.28125-.484376.89062 0 .59375.46875.89063.453126.28125 1.4375.29687h2.0625q1.046876 0 1.5625-.28125.5-.28125.5-.92187 0-.60938-.484374-.89063-.484376-.28125-1.484376-.28125z"/><path d="m79.71716 264.47916v1.6875h-6.53125l.625 2.01562h-1.375l-1.26562-3.53125v-.17187zm-3.40625-6.85938q.64063.67188.64063 1.54688 0 1.14062-.76563 1.82812-.78125.67188-2.09375.67188-.84375 0-1.54687-.35938-.70313-.375-1.09375-1.03125-.39063-.65625-.39063-1.48437 0-.84376.42188-1.5.42187-.65626 1.21875-1.01563.79687-.35936 1.8125-.37498h.625q2.14062 0 3.35937 1.06248 1.21875 1.0625 1.29688 3.01563v.40624h-1.40625l-.01563-.375q-.09375-2.20312-2.0625-2.39062zm-.65625 1.14062q0-.42187-.20312-.70312-.21875-.29688-.51563-.45312h-.6875q-.85937 0-1.32812.32812-.48438.32812-.48438.875 0 .51562.46875.84375.45313.32813 1.15625.32813.70313 0 1.15625-.3125.4375-.32813.4375-.90626zm.65625-8.1406q.64063.67187.64063 1.54687 0 1.14063-.76563 1.82813-.78125.67187-2.09375.67187-.84375 0-1.54687-.35937-.70313-.375-1.09375-1.03125-.39063-.65625-.39063-1.48438 0-.84375.42188-1.5.42187-.65625 1.21875-1.01562.79687-.35938 1.8125-.375h.625q2.14062 0 3.35937 1.0625 1.21875 1.0625 1.29688 3.01562v.40625h-1.40625l-.01563-.375q-.09375-2.20312-2.0625-2.39062zm-.65625 1.14062q0-.42187-.20312-.70312-.21875-.29688-.51563-.45313h-.6875q-.85937 0-1.32812.32813-.48438.32812-.48438.875 0 .51562.46875.84375.45313.32812 1.15625.32812.70313 0 1.15625-.3125.4375-.32812.4375-.90625zm4.0625-8.28125v1.6875h-6.53125l.625 2.01563h-1.375l-1.26562-3.53125v-.17188z"/><path d="m95.66771 264.47916v1.6875h-6.53125l.625 2.01562h-1.375l-1.265626-3.53125v-.17187zm-3.40625-6.85938q.640624.67188.640624 1.54688 0 1.14062-.765624 1.82812-.78125.67188-2.09375.67188-.84375 0-1.546876-.35938-.703124-.375-1.09375-1.03125-.390624-.65625-.390624-1.48437 0-.84376.421874-1.5.421876-.65626 1.21875-1.01563.796876-.35936 1.8125-.37498h.625q2.140626 0 3.359376 1.06248 1.21875 1.0625 1.296874 3.01563v.40624h-1.40625l-.015624-.375q-.09375-2.20312-2.0625-2.39062zm-.65625 1.14062q0-.42187-.203126-.70312-.21875-.29688-.515624-.45312h-.6875q-.859376 0-1.328126.32812-.484374.32812-.484374.875 0 .51562.46875.84375.453124.32813 1.15625.32813.703124 0 1.15625-.3125.4375-.32813.4375-.90626zm.65625-8.1406q.640624.67187.640624 1.54687 0 1.14063-.765624 1.82813-.78125.67187-2.09375.67187-.84375 0-1.546876-.35937-.703124-.375-1.09375-1.03125-.390624-.65625-.390624-1.48438 0-.84375.421874-1.5.421876-.65625 1.21875-1.01562.796876-.35938 1.8125-.375h.625q2.140626 0 3.359376 1.0625 1.21875 1.0625 1.296874 3.01562v.40625h-1.40625l-.015624-.375q-.09375-2.20312-2.0625-2.39062zm-.65625 1.14062q0-.42187-.203126-.70312-.21875-.29688-.515624-.45313h-.6875q-.859376 0-1.328126.32813-.484374.32812-.484374.875 0 .51562.46875.84375.453124.32812 1.15625.32812.703124 0 1.15625-.3125.4375-.32812.4375-.90625zm4.0625-10.01562v5.84375h-1.15625l-2.953126-2.76563q-.609374-.5625-1.078124-.82812-.46875-.28125-.875-.28125-.578126 0-.890626.29687-.328124.28125-.328124.8125 0 .57813.390624.90625.390626.32813 1.046876.32813v1.70312q-.78125 0-1.421876-.375-.65625-.375-1.015624-1.04687-.375-.6875-.375-1.54688 0-1.3125.640624-2.04687.625-.73438 1.78125-.73438.640626 0 1.296876.32813.65625.32812 1.53125 1.125l2.046874 1.9375v-3.65625z"/><path d="m111.61825 264.47916v1.6875h-6.53125l.625 2.01562h-1.375l-1.26563-3.53125v-.17187zm-3.40625-6.85938q.64062.67188.64062 1.54688 0 1.14062-.76562 1.82812-.78125.67188-2.09375.67188-.84375 0-1.54688-.35938-.70312-.375-1.09375-1.03125-.39062-.65625-.39062-1.48437 0-.84376.42187-1.5.42188-.65626 1.21875-1.01563.79688-.35937 1.8125-.375h.625q2.14063 0 3.35938 1.0625 1.21875 1.0625 1.29687 3.01563v.40624h-1.40625l-.01562-.375q-.09375-2.20312-2.0625-2.39062zm-.65625 1.14062q0-.42187-.20313-.70312-.21875-.29688-.51562-.45312h-.6875q-.85938 0-1.32813.32812-.48437.32812-.48437.875 0 .51562.46875.84375.45312.32813 1.15625.32813.70312 0 1.15625-.3125.4375-.32813.4375-.90626zm.65625-8.14062q.64062.67188.64062 1.54688 0 1.14062-.76562 1.82812-.78125.67188-2.09375.67188-.84375 0-1.54688-.35938-.70312-.375-1.09375-1.03125-.39062-.65625-.39062-1.48437 0-.84376.42187-1.5.42188-.65626 1.21875-1.01563.79688-.35937 1.8125-.375h.625q2.14063 0 3.35938 1.0625 1.21875 1.0625 1.29687 3.01563v.40624h-1.40625l-.01562-.375q-.09375-2.20312-2.0625-2.39062zm-.65625 1.14062q0-.42187-.20313-.70312-.21875-.29688-.51562-.45312h-.6875q-.85938 0-1.32813.32812-.48437.32812-.48437.875 0 .51562.46875.84375.45312.32813 1.15625.32813.70312 0 1.15625-.3125.4375-.32813.4375-.90626zm-.95313-5.89062v-.90625q0-.64063-.3125-.95313-.32812-.3125-.85937-.3125-.51563 0-.79688.3125-.29687.29688-.29687.84376 0 .48437.26562.8125.26563.32812.6875.32812v1.6875q-.65625 0-1.1875-.35938-.53125-.35937-.82812-1-.3125-.65624-.3125-1.4375 0-1.34374.65625-2.10937.64062-.78125 1.78125-.78125.59375 0 1.09375.35938.48437.35937.73437.9375.26563-.71876.78125-1.0625.51563-.35938 1.21875-.35938 1.14063 0 1.82813.82812.6875.82813.6875 2.1875 0 1.28126-.67188 2.09376-.6875.8125-1.79687.8125v-1.6875q.48437 0 .79687-.35938.29688-.375.29688-.89062 0-.60938-.3125-.95313-.32813-.34375-.85938-.34375-1.26562 0-1.26562 1.40625v.90625z"/><path d="m127.56879 264.47916v1.6875h-6.53125l.625 2.01562h-1.375l-1.26563-3.53125v-.17187zm-3.40625-6.85938q.64062.67188.64062 1.54688 0 1.14062-.76562 1.82812-.78125.67188-2.09375.67188-.84375 0-1.54688-.35938-.70312-.375-1.09375-1.03125-.39062-.65625-.39062-1.48437 0-.84376.42187-1.5.42188-.65626 1.21875-1.01563.79688-.35936 1.8125-.37498h.625q2.14063 0 3.35938 1.06248 1.21875 1.0625 1.29687 3.01563v.40624h-1.40625l-.01562-.375q-.09375-2.20312-2.0625-2.39062zm-.65625 1.14062q0-.42187-.20313-.70312-.21875-.29688-.51562-.45312h-.6875q-.85938 0-1.32813.32812-.48437.32812-.48437.875 0 .51562.46875.84375.45312.32813 1.15625.32813.70312 0 1.15625-.3125.4375-.32813.4375-.90626zm.65625-8.1406q.64062.67187.64062 1.54687 0 1.14063-.76562 1.82813-.78125.67187-2.09375.67187-.84375 0-1.54688-.35937-.70312-.375-1.09375-1.03125-.39062-.65625-.39062-1.48438 0-.84375.42187-1.5.42188-.65625 1.21875-1.01562.79688-.35938 1.8125-.375h.625q2.14063 0 3.35938 1.0625 1.21875 1.0625 1.29687 3.01562v.40625h-1.40625l-.01562-.375q-.09375-2.20312-2.0625-2.39062zm-.65625 1.14062q0-.42187-.20313-.70312-.21875-.29688-.51562-.45313h-.6875q-.85938 0-1.32813.32813-.48437.32812-.48437.875 0 .51562.46875.84375.45312.32812 1.15625.32812.70312 0 1.15625-.3125.4375-.32812.4375-.90625zm.84375-9.1875v-.96875h1.375v.96875h1.84375v1.70313h-1.84375v3.48437l-1.0625.07813-5.625-3.54688v-1.71875zm0 3.57813v-1.875h-3l.1875.10937z"/><path d="m143.51933 264.47916v1.6875h-6.53125l.625 2.01562h-1.375l-1.26562-3.53125v-.17187zm-3.40625-6.85938q.64063.67188.64063 1.54688 0 1.14062-.76563 1.82812-.78125.67188-2.09375.67188-.84375 0-1.54687-.35938-.70313-.375-1.09375-1.03125-.39063-.65625-.39063-1.48437 0-.84376.42188-1.5.42187-.65626 1.21875-1.01563.79687-.35937 1.8125-.375h.625q2.14062 0 3.35937 1.0625 1.21875 1.0625 1.29688 3.01563v.40624h-1.40625l-.01563-.375q-.09375-2.20312-2.0625-2.39062zm-.65625 1.14062q0-.42187-.20312-.70312-.21875-.29688-.51563-.45312h-.6875q-.85937 0-1.32812.32812-.48438.32812-.48438.875 0 .51562.46875.84375.45313.32813 1.15625.32813.70313 0 1.15625-.3125.4375-.32813.4375-.90626zm.65625-8.14062q.64063.67188.64063 1.54688 0 1.14062-.76563 1.82812-.78125.67188-2.09375.67188-.84375 0-1.54687-.35938-.70313-.375-1.09375-1.03125-.39063-.65625-.39063-1.48437 0-.84376.42188-1.5.42187-.65626 1.21875-1.01563.79687-.35937 1.8125-.375h.625q2.14062 0 3.35937 1.0625 1.21875 1.0625 1.29688 3.01563v.40624h-1.40625l-.01563-.375q-.09375-2.20312-2.0625-2.39062zm-.65625 1.14062q0-.42187-.20312-.70312-.21875-.29688-.51563-.45312h-.6875q-.85937 0-1.32812.32812-.48438.32812-.48438.875 0 .51562.46875.84375.45313.32813 1.15625.32813.70313 0 1.15625-.3125.4375-.32813.4375-.90626zm-.14062-4.42187-4.32813-.5v-4.78125h1.40625v3.39062l1.84375.21876q-.32812-.60938-.32812-1.28126 0-1.21874.76562-1.90624.75-.70313 2.10938-.70313.82812 0 1.48437.35937.64063.34376 1.01563 1 .35937.64063.35937 1.53126 0 .76562-.3125 1.4375-.32812.65624-.89062 1.04687-.5625.375-1.29688.40625v-1.6875q.53125-.04688.82813-.35938.29687-.32812.29687-.84374 0-.57813-.40625-.875-.42187-.3125-1.17187-.3125-.73438 0-1.10938.35937-.39062.34375-.39062 1 0 .60937.3125.98437l.15625.15626z"/><path d="m159.46986 264.4792v1.6875h-6.53125l.625 2.0156h-1.375l-1.26562-3.53124v-.17186zm-3.40625-6.8594q.64063.6719.64063 1.5469 0 1.1406-.76563 1.8281-.78125.6719-2.09375.6719-.84375 0-1.54687-.3594-.70313-.375-1.09375-1.03124-.39063-.65626-.39063-1.48436 0-.84376.42188-1.5.42187-.65626 1.21875-1.01564.79687-.35939 1.8125-.37501h.625q2.14062 0 3.35937 1.06251 1.21875 1.0625 1.29688 3.01564v.40624h-1.40625l-.01563-.375q-.09375-2.20314-2.0625-2.39064zm-.65625 1.14064q0-.42188-.20312-.70314-.21875-.29686-.51563-.4531h-.6875q-.85937 0-1.32812.3281-.48438.32814-.48438.875 0 .51564.46875.84376.45313.32814 1.15625.32814.70313 0 1.15625-.3125.4375-.32814.4375-.90626zm.65625-8.14064q.64063.67187.64063 1.54687 0 1.14063-.76563 1.82813-.78125.67187-2.09375.67187-.84375 0-1.54687-.35937-.70313-.375-1.09375-1.03125-.39063-.65625-.39063-1.48438 0-.84375.42188-1.5.42187-.65625 1.21875-1.01562.79687-.35938 1.8125-.375h.625q2.14062 0 3.35937 1.0625 1.21875 1.0625 1.29688 3.01562v.40625h-1.40625l-.01563-.375q-.09375-2.20312-2.0625-2.39062zm-.65625 1.14062q0-.42187-.20312-.70312-.21875-.29688-.51563-.45313h-.6875q-.85937 0-1.32812.32813-.48438.32812-.48438.875 0 .51562.46875.84375.45313.32812 1.15625.32812.70313 0 1.15625-.3125.4375-.32812.4375-.90625zm-4.5625-8.76562h1.40625v.15625q.01563 1.15625.59375 1.85937.57813.6875 1.60938.82813-.6875-.67188-.6875-1.70313 0-1.125.79687-1.78125.79688-.65625 2.09375-.65625.82813 0 1.5.35938.67188.35937 1.0625 1.03125.375.65625.375 1.48437 0 1.34375-.9375 2.17188-.95312.82812-2.51562.82812h-.60938q-1.39062 0-2.45312-.51562-1.0625-.53125-1.64063-1.5-.57812-.98438-.59375-2.28125zm4.28125 1.65625q0 .40625.21875.75.20313.32812.5625.48437h.51563q.84375 0 1.32812-.32812.46875-.34375.46875-.95313 0-.54687-.42187-.875-.4375-.34375-1.125-.34375-.70313 0-1.125.34375-.42188.34375-.42188.92188z"/><path d="m175.42041 264.47916v1.6875h-6.53125l.625 2.01562h-1.375l-1.26562-3.53125v-.17187zm-3.40625-6.85938q.64063.67188.64063 1.54688 0 1.14062-.76563 1.82812-.78125.67188-2.09375.67188-.84375 0-1.54687-.35938-.70313-.375-1.09375-1.03125-.39063-.65625-.39063-1.48437 0-.84376.42188-1.5.42187-.65626 1.21875-1.01563.79687-.35936 1.8125-.37498h.625q2.14062 0 3.35937 1.06248 1.21875 1.0625 1.29688 3.01563v.40624h-1.40625l-.01563-.375q-.09375-2.20312-2.0625-2.39062zm-.65625 1.14062q0-.42187-.20312-.70312-.21875-.29688-.51563-.45312h-.6875q-.85937 0-1.32812.32812-.48438.32812-.48438.875 0 .51562.46875.84375.45313.32813 1.15625.32813.70313 0 1.15625-.3125.4375-.32813.4375-.90626zm.65625-8.1406q.64063.67187.64063 1.54687 0 1.14063-.76563 1.82813-.78125.67187-2.09375.67187-.84375 0-1.54687-.35937-.70313-.375-1.09375-1.03125-.39063-.65625-.39063-1.48438 0-.84375.42188-1.5.42187-.65625 1.21875-1.01562.79687-.35938 1.8125-.375h.625q2.14062 0 3.35937 1.0625 1.21875 1.0625 1.29688 3.01562v.40625h-1.40625l-.01563-.375q-.09375-2.20312-2.0625-2.39062zm-.65625 1.14062q0-.42187-.20312-.70312-.21875-.29688-.51563-.45313h-.6875q-.85937 0-1.32812.32813-.48438.32812-.48438.875 0 .51562.46875.84375.45313.32812 1.15625.32812.70313 0 1.15625-.3125.4375-.32812.4375-.90625zm-3.51562-9.96875 7.57812 3.29688v1.78125l-7.15625-3.29688v4.23438h-1.375v-6.01563z"/><path d="m191.37096 264.47916v1.6875h-6.53126l.625 2.01562h-1.375l-1.26562-3.53125v-.17187zm-3.40626-6.85938q.64063.67188.64063 1.54688 0 1.14062-.76563 1.82812-.78124.67188-2.09374.67188-.84376 0-1.54688-.35938-.70312-.375-1.09375-1.03125-.39063-.65625-.39063-1.48437 0-.84376.42188-1.5.42188-.65626 1.21875-1.01563.79687-.35937 1.8125-.375h.625q2.14063 0 3.35937 1.0625 1.21876 1.0625 1.29688 3.01563v.40624h-1.40625l-.01563-.375q-.09374-2.20312-2.0625-2.39062zm-.65624 1.14062q0-.42187-.20313-.70312-.21875-.29688-.51563-.45312h-.6875q-.85937 0-1.32812.32812-.48438.32812-.48438.875 0 .51562.46876.84375.45312.32813 1.15624.32813.70313 0 1.15626-.3125.4375-.32813.4375-.90626zm.65624-8.14062q.64063.67188.64063 1.54688 0 1.14062-.76563 1.82812-.78124.67188-2.09374.67188-.84376 0-1.54688-.35938-.70312-.375-1.09375-1.03125-.39063-.65625-.39063-1.48437 0-.84376.42188-1.5.42188-.65626 1.21875-1.01563.79687-.35937 1.8125-.375h.625q2.14063 0 3.35937 1.0625 1.21876 1.0625 1.29688 3.01563v.40624h-1.40625l-.01563-.375q-.09374-2.20312-2.0625-2.39062zm-.65624 1.14062q0-.42187-.20313-.70312-.21875-.29688-.51563-.45312h-.6875q-.85937 0-1.32812.32812-.48438.32812-.48438.875 0 .51562.46876.84375.45312.32813 1.15624.32813.70313 0 1.15626-.3125.4375-.32813.4375-.90626zm-2.20313-9.73437q.625 0 1.10937.3125.46876.3125.76563.85937.29687-.625.82813-.98437.51562-.375 1.21874-.375 1.14063 0 1.8125.78125.65626.76562.65626 2.10938 0 1.32812-.65626 2.10937-.67187.76563-1.8125.76563-.70312 0-1.23437-.35938-.53125-.35938-.8125-.98438-.29687.54688-.76563.85938-.48437.3125-1.10937.3125-1.09375 0-1.73437-.71875-.65626-.73437-.65626-1.98437 0-1.25.65626-1.96876.64062-.73437 1.73437-.73437zm3.79687 1.51563q-.54687 0-.875.32812-.34374.3125-.34374.85938 0 .54687.32812.875.32812.3125.89062.3125.54688 0 .89063-.3125.32813-.32813.32813-.89063 0-.54687-.3125-.85937-.32813-.3125-.90626-.3125zm-3.71874.17187q-.5 0-.79688.26563-.29688.26562-.29688.75 0 .46874.29688.73437.28125.26563.79688.26563.51562 0 .82812-.26563.3125-.26563.3125-.73437 0-.48438-.3125-.75-.3125-.26563-.82812-.26563z"/><path d="m207.32149 264.4792v1.6875h-6.53125l.625 2.0156h-1.375l-1.26563-3.53124v-.17186zm-3.40625-6.8594q.64062.6719.64062 1.5469 0 1.1406-.76562 1.8281-.78125.6719-2.09375.6719-.84375 0-1.54688-.3594-.70312-.375-1.09375-1.03124-.39062-.65626-.39062-1.48436 0-.84376.42187-1.5.42188-.65626 1.21875-1.01564.79688-.35939 1.8125-.37501h.625q2.14063 0 3.35938 1.06251 1.21875 1.0625 1.29687 3.01564v.40624h-1.40625l-.01562-.375q-.09375-2.20314-2.0625-2.39064zm-.65625 1.14064q0-.42188-.20313-.70314-.21875-.29686-.51562-.4531h-.6875q-.85938 0-1.32813.3281-.48437.32814-.48437.875 0 .51564.46875.84376.45312.32814 1.15625.32814.70312 0 1.15625-.3125.4375-.32814.4375-.90626zm.65625-8.14064q.64062.67187.64062 1.54687 0 1.14063-.76562 1.82813-.78125.67187-2.09375.67187-.84375 0-1.54688-.35937-.70312-.375-1.09375-1.03125-.39062-.65625-.39062-1.48438 0-.84375.42187-1.5.42188-.65625 1.21875-1.01562.79688-.35938 1.8125-.375h.625q2.14063 0 3.35938 1.0625 1.21875 1.0625 1.29687 3.01562v.40625h-1.40625l-.01562-.375q-.09375-2.20312-2.0625-2.39062zm-.65625 1.14062q0-.42187-.20313-.70312-.21875-.29688-.51562-.45313h-.6875q-.85938 0-1.32813.32813-.48437.32812-.48437.875 0 .51562.46875.84375.45312.32812 1.15625.32812.70312 0 1.15625-.3125.4375-.32812.4375-.90625zm.65625-8.14064q.64062.67189.64062 1.54689 0 1.14063-.76562 1.82813-.78125.67187-2.09375.67187-.84375 0-1.54688-.35937-.70312-.375-1.09375-1.03125-.39062-.65625-.39062-1.48438 0-.84375.42187-1.50001.42188-.65626 1.21875-1.01563.79688-.35937 1.8125-.375h.625q2.14063 0 3.35938 1.0625 1.21875 1.06252 1.29687 3.01564v.40625h-1.40625l-.01562-.375q-.09375-2.20314-2.0625-2.39064zm-.65625 1.14064q0-.42187-.20313-.70312-.21875-.2969-.51562-.45314h-.6875q-.85938 0-1.32813.32814-.48437.32812-.48437.875 0 .51562.46875.84375.45312.32812 1.15625.32812.70312 0 1.15625-.3125.4375-.32812.4375-.90625z"/><path d="m223.27203 262.74478v5.84375h-1.15625l-2.95312-2.76563q-.60938-.5625-1.07813-.82812-.46875-.28125-.875-.28125-.57812 0-.89062.29687-.32813.28126-.32813.8125 0 .57813.39063.90626.39062.32812 1.04687.32812v1.70312q-.78125 0-1.42187-.375-.65625-.375-1.01563-1.04687-.375-.6875-.375-1.54687 0-1.3125.64063-2.04688.625-.73438 1.78125-.73438.64062 0 1.29687.32813.65625.32813 1.53125 1.125l2.04688 1.9375v-3.65625zm-3.53125-6.90623q1.76563 0 2.71875.73435.9375.73438.9375 2.14063 0 1.40625-.92187 2.14063-.92188.73437-2.64063.75h-1.57812q-1.78125 0-2.70313-.73438-.9375-.75-.9375-2.14062 0-1.39063.92188-2.125.92187-.74999 2.64062-.76561zm-1.71875 1.70311q-1.0625 0-1.54687.29687-.48438.28125-.48438.89063 0 .59374.46875.89062.45313.28125 1.4375.29688h2.0625q1.04688 0 1.5625-.28126.5-.28124.5-.92187 0-.60937-.48437-.89063-.48438-.28124-1.48438-.28124zm1.71875-8.70311q1.76563 0 2.71875.73437.9375.73438.9375 2.14063 0 1.40625-.92187 2.14062-.92188.73438-2.64063.75h-1.57812q-1.78125 0-2.70313-.73437-.9375-.75-.9375-2.14063 0-1.39062.92188-2.125.92187-.75 2.64062-.76562zm-1.71875 1.70312q-1.0625 0-1.54687.29688-.48438.28125-.48438.89062 0 .59375.46875.89063.45313.28125 1.4375.29687h2.0625q1.04688 0 1.5625-.28125.5-.28125.5-.92187 0-.60938-.48437-.89063-.48438-.28125-1.48438-.28125zm1.71875-8.70312q1.76563 0 2.71875.73437.9375.73438.9375 2.14063 0 1.40625-.92187 2.14062-.92188.73438-2.64063.75h-1.57812q-1.78125 0-2.70313-.73437-.9375-.75-.9375-2.14063 0-1.39062.92188-2.125.92187-.75 2.64062-.76562zm-1.71875 1.70312q-1.0625 0-1.54687.29688-.48438.28125-.48438.89062 0 .59375.46875.89063.45313.28125 1.4375.29687h2.0625q1.04688 0 1.5625-.28125.5-.28125.5-.92187 0-.60938-.48437-.89063-.48438-.28125-1.48438-.28125z"/><path d="m239.22258 262.7448v5.84376h-1.15625l-2.95313-2.76562q-.60937-.5625-1.07812-.82814-.46875-.28124-.875-.28124-.57813 0-.89063.29688-.32812.28126-.32812.8125 0 .57812.39062.90626.39063.3281 1.04688.3281v1.70314q-.78125 0-1.42188-.375-.65625-.375-1.01562-1.04688-.375-.6875-.375-1.54686 0-1.3125.64062-2.0469.625-.73436 1.78125-.73436.64063 0 1.29688.32812.65625.32814 1.53125 1.125l2.04687 1.9375v-3.65626zm-3.53125-6.90625q1.76562 0 2.71875.73439.9375.73436.9375 2.14062 0 1.40624-.92188 2.14064-.92187.73436-2.64062.75h-1.57813q-1.78125 0-2.70312-.7344-.9375-.75-.9375-2.1406 0-1.39064.92187-2.125.92188-.75003 2.64063-.76565zm-1.71875 1.70315q-1.0625 0-1.54688.29686-.48437.28124-.48437.89064 0 .59374.46875.8906.45312.28126 1.4375.2969h2.0625q1.04687 0 1.5625-.28126.5-.28124.5-.92188 0-.60936-.48438-.89062-.48437-.28124-1.48437-.28124zm1.71875-8.70315q1.76562 0 2.71875.73437.9375.73438.9375 2.14063 0 1.40625-.92188 2.14062-.92187.73438-2.64062.75h-1.57813q-1.78125 0-2.70312-.73437-.9375-.75-.9375-2.14063 0-1.39062.92187-2.125.92188-.75 2.64063-.76562zm-1.71875 1.70312q-1.0625 0-1.54688.29688-.48437.28125-.48437.89062 0 .59375.46875.89063.45312.28125 1.4375.29687h2.0625q1.04687 0 1.5625-.28125.5-.28125.5-.92187 0-.60938-.48438-.89063-.48437-.28125-1.48437-.28125zm5.25-7.0625v1.6875h-6.53125l.625 2.01563h-1.375l-1.26563-3.53125v-.17188z"/><path d="m255.17311 262.74478v5.84375h-1.15625l-2.95312-2.76563q-.60938-.5625-1.07813-.82812-.46875-.28125-.875-.28125-.57812 0-.89062.29687-.32813.28126-.32813.8125 0 .57813.39063.90626.39062.32812 1.04687.32812v1.70312q-.78125 0-1.42187-.375-.65625-.375-1.01563-1.04687-.375-.6875-.375-1.54687 0-1.3125.64063-2.04688.625-.73438 1.78125-.73438.64062 0 1.29687.32813.65625.32813 1.53125 1.125l2.04688 1.9375v-3.65625zm-3.53125-6.90625q1.76563 0 2.71875.73437.9375.73438.9375 2.14063 0 1.40625-.92187 2.14063-.92188.73437-2.64063.75h-1.57812q-1.78125 0-2.70313-.73438-.9375-.75-.9375-2.14062 0-1.39063.92188-2.125.92187-.75 2.64062-.76563zm-1.71875 1.70313q-1.0625 0-1.54687.29687-.48438.28125-.48438.89063 0 .59374.46875.89062.45313.28125 1.4375.29688h2.0625q1.04688 0 1.5625-.28126.5-.28124.5-.92187 0-.60937-.48437-.89063-.48438-.28124-1.48438-.28124zm1.71875-8.70313q1.76563 0 2.71875.73437.9375.73438.9375 2.14063 0 1.40625-.92187 2.14063-.92188.73437-2.64063.75h-1.57812q-1.78125 0-2.70313-.73438-.9375-.75-.9375-2.14062 0-1.39063.92188-2.125.92187-.75 2.64062-.76563zm-1.71875 1.70313q-1.0625 0-1.54687.29687-.48438.28125-.48438.89063 0 .59374.46875.89062.45313.28125 1.4375.29688h2.0625q1.04688 0 1.5625-.28126.5-.28124.5-.92187 0-.60937-.48437-.89063-.48438-.28124-1.48438-.28124zm5.25-8.79688v5.84375h-1.15625l-2.95312-2.76563q-.60938-.5625-1.07813-.82812-.46875-.28125-.875-.28125-.57812 0-.89062.29687-.32813.28126-.32813.8125 0 .57813.39063.90626.39062.32812 1.04687.32812v1.70312q-.78125 0-1.42187-.375-.65625-.375-1.01563-1.04687-.375-.6875-.375-1.54687 0-1.3125.64063-2.04688.625-.73438 1.78125-.73438.64062 0 1.29687.32813.65625.32813 1.53125 1.125l2.04688 1.9375v-3.65625z"/><path d="m271.12366 262.74478v5.84375h-1.15626l-2.95312-2.76563q-.60938-.5625-1.07812-.82812-.46876-.28125-.875-.28125-.57813 0-.89063.29687-.32813.28126-.32813.8125 0 .57813.39063.90626.39063.32812 1.04687.32812v1.70312q-.78124 0-1.42187-.375-.65625-.375-1.01563-1.04687-.375-.6875-.375-1.54687 0-1.3125.64063-2.04688.625-.73438 1.78125-.73438.64062 0 1.29688.32813.65624.32813 1.53124 1.125l2.04688 1.9375v-3.65625zm-3.53126-6.90623q1.76563 0 2.71876.73435.9375.73438.9375 2.14063 0 1.40625-.92188 2.14063-.92188.73437-2.64062.75h-1.57813q-1.78125 0-2.70313-.73438-.9375-.75-.9375-2.14062 0-1.39063.92188-2.125.92188-.74999 2.64062-.76561zm-1.71874 1.70311q-1.0625 0-1.54688.29687-.48438.28125-.48438.89063 0 .59374.46876.89062.45312.28125 1.4375.29688h2.0625q1.04687 0 1.5625-.28126.5-.28124.5-.92187 0-.60937-.48438-.89063-.48438-.28124-1.48438-.28124zm1.71874-8.70311q1.76563 0 2.71876.73437.9375.73438.9375 2.14063 0 1.40625-.92188 2.14062-.92188.73438-2.64062.75h-1.57813q-1.78125 0-2.70313-.73437-.9375-.75-.9375-2.14063 0-1.39062.92188-2.125.92188-.75 2.64062-.76562zm-1.71874 1.70312q-1.0625 0-1.54688.29688-.48438.28125-.48438.89062 0 .59375.46876.89063.45312.28125 1.4375.29687h2.0625q1.04687 0 1.5625-.28125.5-.28125.5-.92187 0-.60938-.48438-.89063-.48438-.28125-1.48438-.28125zm.23437-4.67187v-.90625q0-.64063-.3125-.95313-.32813-.3125-.85937-.3125-.51563 0-.79688.3125-.29688.29688-.29688.84375 0 .48438.26563.8125.26563.32813.6875.32813v1.6875q-.65625 0-1.1875-.35938-.53125-.35937-.82813-1-.3125-.65625-.3125-1.4375 0-1.34375.65626-2.10937.64062-.78125 1.78124-.78125.59376 0 1.09376.35937.48437.35938.73437.9375.26563-.71875.78125-1.0625.51562-.35937 1.21875-.35937 1.14063 0 1.82813.82812.6875.82813.6875 2.1875 0 1.28125-.67188 2.09375-.6875.8125-1.79688.8125v-1.6875q.48438 0 .79688-.35937.29688-.375.29688-.89063 0-.60937-.3125-.95312-.32813-.34375-.85938-.34375-1.26562 0-1.26562 1.40625v.90625z"/><path d="m287.0742 262.7448v5.84376h-1.15626l-2.95314-2.76562q-.60936-.5625-1.0781-.82814-.46876-.28124-.875-.28124-.57814 0-.89064.29688-.32812.28126-.32812.8125 0 .57812.39062.90626.39064.3281 1.04688.3281v1.70314q-.78124 0-1.42188-.375-.65626-.375-1.01562-1.04688-.375-.6875-.375-1.54686 0-1.3125.64062-2.0469.625-.73436 1.78124-.73436.64064 0 1.2969.32812.65624.32814 1.53124 1.125l2.04686 1.9375v-3.65626zm-3.53126-6.90625q1.76562 0 2.71876.73439.9375.73436.9375 2.14062 0 1.40624-.9219 2.14064-.92186.73436-2.6406.75h-1.57814q-1.78126 0-2.70312-.7344-.9375-.75-.9375-2.1406 0-1.39064.92186-2.125.9219-.75003 2.64064-.76565zm-1.71874 1.70315q-1.0625 0-1.5469.29686-.48436.28124-.48436.89064 0 .59374.46876.8906.4531.28126 1.4375.2969h2.0625q1.04686 0 1.5625-.28126.5-.28124.5-.92188 0-.60936-.4844-.89062-.48436-.28124-1.48436-.28124zm1.71874-8.70315q1.76562 0 2.71876.73437.9375.73438.9375 2.14063 0 1.40625-.9219 2.14062-.92186.73438-2.6406.75h-1.57814q-1.78126 0-2.70312-.73437-.9375-.75-.9375-2.14063 0-1.39062.92186-2.125.9219-.75 2.64064-.76562zm-1.71874 1.70312q-1.0625 0-1.5469.29688-.48436.28125-.48436.89062 0 .59375.46876.89063.4531.28125 1.4375.29687h2.0625q1.04686 0 1.5625-.28125.5-.28125.5-.92187 0-.60938-.4844-.89063-.48436-.28125-1.48436-.28125zm2.03124-7.96875v-.96875h1.375v.96875h1.84376v1.70313h-1.84376v3.48437l-1.0625.07813-5.625-3.54688v-1.71875zm0 3.57813v-1.875h-3l.1875.10937z"/><path d="m303.02475 262.74478v5.84375h-1.15625l-2.95313-2.76563q-.60937-.5625-1.07812-.82812-.46875-.28125-.875-.28125-.57813 0-.89063.29687-.32812.28126-.32812.8125 0 .57813.39062.90626.39063.32812 1.04688.32812v1.70312q-.78125 0-1.42188-.375-.65625-.375-1.01562-1.04687-.375-.6875-.375-1.54687 0-1.3125.64062-2.04688.625-.73438 1.78125-.73438.64063 0 1.29688.32813.65625.32813 1.53125 1.125l2.04687 1.9375v-3.65625zm-3.53125-6.90625q1.76562 0 2.71875.73437.9375.73438.9375 2.14063 0 1.40625-.92188 2.14063-.92187.73437-2.64062.75h-1.57813q-1.78125 0-2.70312-.73438-.9375-.75-.9375-2.14062 0-1.39063.92187-2.125.92188-.75 2.64063-.76563zm-1.71875 1.70313q-1.0625 0-1.54688.29687-.48437.28125-.48437.89063 0 .59374.46875.89062.45312.28125 1.4375.29688h2.0625q1.04687 0 1.5625-.28126.5-.28124.5-.92187 0-.60937-.48438-.89063-.48437-.28124-1.48437-.28124zm1.71875-8.70313q1.76562 0 2.71875.73437.9375.73438.9375 2.14063 0 1.40625-.92188 2.14063-.92187.73437-2.64062.75h-1.57813q-1.78125 0-2.70312-.73438-.9375-.75-.9375-2.14062 0-1.39063.92187-2.125.92188-.75 2.64063-.76563zm-1.71875 1.70313q-1.0625 0-1.54688.29687-.48437.28125-.48437.89063 0 .59374.46875.89062.45312.28125 1.4375.29688h2.0625q1.04687 0 1.5625-.28126.5-.28124.5-.92187 0-.60937-.48438-.89063-.48437-.28124-1.48437-.28124zm1.04687-3.20313-4.32812-.5v-4.78125h1.40625v3.39062l1.84375.21876q-.32813-.60938-.32813-1.28126 0-1.21874.76563-1.90624.75-.70313 2.10937-.70313.82813 0 1.48438.35937.64062.34376 1.01562 1 .35938.64063.35938 1.53126 0 .76562-.3125 1.4375-.32813.65624-.89063 1.04687-.5625.375-1.29687.40625v-1.6875q.53125-.04688.82812-.35938.29688-.32812.29688-.84374 0-.57813-.40625-.875-.42188-.3125-1.17188-.3125-.73437 0-1.10937.35937-.39063.34375-.39063 1 0 .60937.3125.98437l.15625.15626z"/><path d="m318.97528 262.74478v5.84375h-1.15625l-2.95313-2.76563q-.60937-.5625-1.07812-.82812-.46875-.28125-.875-.28125-.57812 0-.89062.29687-.32813.28126-.32813.8125 0 .57813.39063.90626.39062.32812 1.04687.32812v1.70312q-.78125 0-1.42187-.375-.65626-.375-1.01563-1.04687-.375-.6875-.375-1.54687 0-1.3125.64063-2.04688.625-.73438 1.78124-.73438.64063 0 1.29688.32813.65625.32813 1.53125 1.125l2.04687 1.9375v-3.65625zm-3.53125-6.90623q1.76563 0 2.71875.73435.9375.73438.9375 2.14063 0 1.40625-.92188 2.14063-.92187.73437-2.64062.75h-1.57812q-1.78126 0-2.70313-.73438-.9375-.75-.9375-2.14062 0-1.39063.92187-2.125.92188-.74999 2.64063-.76561zm-1.71875 1.70311q-1.0625 0-1.54688.29687-.48437.28125-.48437.89063 0 .59374.46875.89062.45312.28125 1.4375.29688h2.0625q1.04688 0 1.5625-.28126.5-.28124.5-.92187 0-.60937-.48438-.89063-.48437-.28124-1.48437-.28124zm1.71875-8.70311q1.76563 0 2.71875.73437.9375.73438.9375 2.14063 0 1.40625-.92188 2.14062-.92187.73438-2.64062.75h-1.57812q-1.78126 0-2.70313-.73437-.9375-.75-.9375-2.14063 0-1.39062.92187-2.125.92188-.75 2.64063-.76562zm-1.71875 1.70312q-1.0625 0-1.54688.29688-.48437.28125-.48437.89062 0 .59375.46875.89063.45312.28125 1.4375.29687h2.0625q1.04688 0 1.5625-.28125.5-.28125.5-.92187 0-.60938-.48438-.89063-.48437-.28125-1.48437-.28125zm-3.375-7.54687h1.40625v.15625q.01563 1.15625.59375 1.85937.57812.6875 1.60938.82813-.6875-.67188-.6875-1.70313 0-1.125.79687-1.78125.79687-.65625 2.09375-.65625.82812 0 1.5.35938.67188.35937 1.0625 1.03125.375.65625.375 1.48437 0 1.34375-.9375 2.17188-.95312.82812-2.51562.82812h-.60938q-1.39062 0-2.45312-.51562-1.0625-.53125-1.64063-1.5-.57813-.98438-.59375-2.28125zm4.28125 1.65625q0 .40625.21875.75.20312.32812.5625.48437h.51562q.84376 0 1.32813-.32812.46875-.34375.46875-.95313 0-.54687-.42188-.875-.4375-.34375-1.125-.34375-.70312 0-1.125.34375-.42187.34375-.42187.92188z"/><path d="m334.9258 262.7448v5.84376h-1.15624l-2.95312-2.76562q-.60938-.5625-1.07814-.82814-.46874-.28124-.875-.28124-.5781 0-.8906.29688-.32814.28126-.32814.8125 0 .57812.39064.90626.3906.3281 1.04686.3281v1.70314q-.78126 0-1.42186-.375-.65626-.375-1.01564-1.04688-.375-.6875-.375-1.54686 0-1.3125.64064-2.0469.625-.73436 1.78124-.73436.64062 0 1.29686.32812.65626.32814 1.53126 1.125l2.04688 1.9375v-3.65626zm-3.53124-6.90625q1.76564 0 2.71874.73439.9375.73436.9375 2.14062 0 1.40624-.92186 2.14064-.92188.73436-2.64064.75h-1.5781q-1.78126 0-2.70314-.7344-.9375-.75-.9375-2.1406 0-1.39064.92188-2.125.92186-.75003 2.64062-.76565zm-1.71876 1.70315q-1.0625 0-1.54686.29686-.48438.28124-.48438.89064 0 .59374.46874.8906.45314.28126 1.4375.2969h2.0625q1.0469 0 1.5625-.28126.5-.28124.5-.92188 0-.60936-.48436-.89062-.48438-.28124-1.48438-.28124zm1.71876-8.70315q1.76564 0 2.71874.73437.9375.73438.9375 2.14063 0 1.40625-.92186 2.14062-.92188.73438-2.64064.75h-1.5781q-1.78126 0-2.70314-.73437-.9375-.75-.9375-2.14063 0-1.39062.92188-2.125.92186-.75 2.64062-.76562zm-1.71876 1.70312q-1.0625 0-1.54686.29688-.48438.28125-.48438.89062 0 .59375.46874.89063.45314.28125 1.4375.29687h2.0625q1.0469 0 1.5625-.28125.5-.28125.5-.92187 0-.60938-.48436-.89063-.48438-.28125-1.48438-.28125zm-2.3281-8.75 7.5781 3.29688v1.78125l-7.15624-3.29688v4.23438h-1.375v-6.01563z"/><path d="m350.87637 262.74478v5.84375h-1.15625l-2.95312-2.76563q-.60938-.5625-1.07813-.82812-.46875-.28125-.875-.28125-.57812 0-.89062.29687-.32813.28126-.32813.8125 0 .57813.39063.90626.39062.32812 1.04687.32812v1.70312q-.78125 0-1.42187-.375-.65625-.375-1.01563-1.04687-.375-.6875-.375-1.54687 0-1.3125.64063-2.04688.625-.73438 1.78125-.73438.64062 0 1.29687.32813.65625.32813 1.53125 1.125l2.04688 1.9375v-3.65625zm-3.53125-6.90625q1.76563 0 2.71875.73437.9375.73438.9375 2.14063 0 1.40625-.92187 2.14063-.92188.73437-2.64063.75h-1.57812q-1.78125 0-2.70313-.73438-.9375-.75-.9375-2.14062 0-1.39063.92188-2.125.92187-.75 2.64062-.76563zm-1.71875 1.70313q-1.0625 0-1.54687.29687-.48438.28125-.48438.89063 0 .59374.46875.89062.45313.28125 1.4375.29688h2.0625q1.04688 0 1.5625-.28126.5-.28124.5-.92187 0-.60937-.48437-.89063-.48438-.28124-1.48438-.28124zm1.71875-8.70313q1.76563 0 2.71875.73437.9375.73438.9375 2.14063 0 1.40625-.92187 2.14063-.92188.73437-2.64063.75h-1.57812q-1.78125 0-2.70313-.73438-.9375-.75-.9375-2.14062 0-1.39063.92188-2.125.92187-.75 2.64062-.76563zm-1.71875 1.70313q-1.0625 0-1.54687.29687-.48438.28125-.48438.89063 0 .59374.46875.89062.45313.28125 1.4375.29688h2.0625q1.04688 0 1.5625-.28126.5-.28124.5-.92187 0-.60937-.48437-.89063-.48438-.28124-1.48438-.28124zm-1.01562-8.51563q.625 0 1.10937.3125.46875.3125.76563.85937.29687-.625.82812-.98437.51563-.375 1.21875-.375 1.14063 0 1.8125.78125.65625.76562.65625 2.10938 0 1.32812-.65625 2.10937-.67187.76563-1.8125.76563-.70312 0-1.23437-.35938-.53125-.35938-.8125-.98438-.29688.54688-.76563.85938-.48437.3125-1.10937.3125-1.09375 0-1.73438-.71875-.65625-.73437-.65625-1.98437 0-1.25.65625-1.96876.64063-.73437 1.73438-.73437zm3.79687 1.51563q-.54687 0-.875.32812-.34375.3125-.34375.85938 0 .54687.32813.875.32812.3125.89062.3125.54688 0 .89063-.3125.32812-.32813.32812-.89063 0-.54687-.3125-.85937-.32812-.3125-.90625-.3125zm-3.71875.17187q-.5 0-.79687.26563-.29688.26562-.29688.75 0 .46874.29688.73437.28125.26563.79687.26563.51563 0 .82813-.26563.3125-.26563.3125-.73437 0-.48438-.3125-.75-.3125-.26563-.82813-.26563z"/><path d="m366.8269 262.74478v5.84375h-1.15625l-2.95312-2.76563q-.60938-.5625-1.07813-.82812-.46875-.28125-.875-.28125-.57812 0-.89062.29687-.32813.28126-.32813.8125 0 .57813.39063.90626.39062.32812 1.04687.32812v1.70312q-.78125 0-1.42187-.375-.65625-.375-1.01563-1.04687-.375-.6875-.375-1.54687 0-1.3125.64063-2.04688.625-.73438 1.78125-.73438.64062 0 1.29687.32813.65625.32813 1.53125 1.125l2.04688 1.9375v-3.65625zm-3.53125-6.90623q1.76563 0 2.71875.73435.9375.73438.9375 2.14063 0 1.40625-.92187 2.14063-.92188.73437-2.64063.75h-1.57812q-1.78125 0-2.70313-.73438-.9375-.75-.9375-2.14062 0-1.39063.92188-2.125.92187-.74999 2.64062-.76561zm-1.71875 1.70311q-1.0625 0-1.54687.29687-.48438.28125-.48438.89063 0 .59374.46875.89062.45313.28125 1.4375.29688h2.0625q1.04688 0 1.5625-.28126.5-.28124.5-.92187 0-.60937-.48437-.89063-.48438-.28124-1.48438-.28124zm1.71875-8.70311q1.76563 0 2.71875.73437.9375.73438.9375 2.14063 0 1.40625-.92187 2.14062-.92188.73438-2.64063.75h-1.57812q-1.78125 0-2.70313-.73437-.9375-.75-.9375-2.14063 0-1.39062.92188-2.125.92187-.75 2.64062-.76562zm-1.71875 1.70312q-1.0625 0-1.54687.29688-.48438.28125-.48438.89062 0 .59375.46875.89063.45313.28125 1.4375.29687h2.0625q1.04688 0 1.5625-.28125.5-.28125.5-.92187 0-.60938-.48437-.89063-.48438-.28125-1.48438-.28125zm1.84375-6.92187q.64063.67187.64063 1.54687 0 1.14063-.76563 1.82813-.78125.67187-2.09375.67187-.84375 0-1.54687-.35937-.70313-.375-1.09375-1.03125-.39063-.65625-.39063-1.48438 0-.84375.42188-1.5.42187-.65625 1.21875-1.01562.79687-.35938 1.8125-.375h.625q2.14062 0 3.35937 1.0625 1.21875 1.0625 1.29688 3.01562v.40625h-1.40625l-.01563-.375q-.09375-2.20312-2.0625-2.39062zm-.65625 1.14062q0-.42187-.20312-.70312-.21875-.29688-.51563-.45313h-.6875q-.85937 0-1.32812.32813-.48438.32812-.48438.875 0 .51562.46875.84375.45313.32812 1.15625.32812.70313 0 1.15625-.3125.4375-.32812.4375-.90625z"/><path d="m382.77744 262.7448v5.84376h-1.15624l-2.95314-2.76562q-.60936-.5625-1.07812-.82814-.46874-.28124-.875-.28124-.57814 0-.89064.29688-.3281.28126-.3281.8125 0 .57812.3906.90626.39064.3281 1.0469.3281v1.70314q-.78126 0-1.4219-.375-.65624-.375-1.0156-1.04688-.375-.6875-.375-1.54686 0-1.3125.6406-2.0469.625-.73436 1.78126-.73436.64064 0 1.29688.32812.65626.32814 1.53126 1.125l2.04686 1.9375v-3.65626zm-3.53124-6.90625q1.7656 0 2.71874.73439.9375.73436.9375 2.14062 0 1.40624-.92188 2.14064-.92186.73436-2.64062.75h-1.57814q-1.78124 0-2.7031-.7344-.9375-.75-.9375-2.1406 0-1.39064.92186-2.125.92188-.75003 2.64064-.76565zm-1.71876 1.70315q-1.0625 0-1.54688.29686-.48436.28124-.48436.89064 0 .59374.46874.8906.45312.28126 1.4375.2969h2.0625q1.04686 0 1.5625-.28126.5-.28124.5-.92188 0-.60936-.48438-.89062-.48436-.28124-1.48436-.28124zm5.25-7.06253v1.6875h-6.53124l.625 2.01563h-1.375l-1.26564-3.53125v-.17188zm-3.53124-8.64062q1.7656 0 2.71874.73437.9375.73438.9375 2.14063 0 1.40625-.92188 2.14062-.92186.73438-2.64062.75h-1.57814q-1.78124 0-2.7031-.73437-.9375-.75-.9375-2.14063 0-1.39062.92186-2.125.92188-.75 2.64064-.76562zm-1.71876 1.70312q-1.0625 0-1.54688.29688-.48436.28125-.48436.89062 0 .59375.46874.89063.45312.28125 1.4375.29687h2.0625q1.04686 0 1.5625-.28125.5-.28125.5-.92187 0-.60938-.48438-.89063-.48436-.28125-1.48436-.28125z"/><path d="m398.728 262.74478v5.84375h-1.15625l-2.95313-2.76563q-.60937-.5625-1.07812-.82812-.46875-.28125-.875-.28125-.57813 0-.89063.29687-.32812.28126-.32812.8125 0 .57813.39062.90626.39063.32812 1.04688.32812v1.70312q-.78125 0-1.42188-.375-.65625-.375-1.01562-1.04687-.375-.6875-.375-1.54687 0-1.3125.64062-2.04688.625-.73438 1.78125-.73438.64063 0 1.29688.32813.65625.32813 1.53125 1.125l2.04687 1.9375v-3.65625zm-3.53125-6.90625q1.76562 0 2.71875.73437.9375.73438.9375 2.14063 0 1.40625-.92188 2.14063-.92187.73437-2.64062.75h-1.57813q-1.78125 0-2.70312-.73438-.9375-.75-.9375-2.14062 0-1.39063.92187-2.125.92188-.75 2.64063-.76563zm-1.71875 1.70313q-1.0625 0-1.54688.29687-.48437.28125-.48437.89063 0 .59374.46875.89062.45312.28125 1.4375.29688h2.0625q1.04687 0 1.5625-.28126.5-.28124.5-.92187 0-.60937-.48438-.89063-.48437-.28124-1.48437-.28124zm5.25-7.0625v1.6875h-6.53125l.625 2.01562h-1.375l-1.26563-3.53125v-.17187zm0-7v1.6875h-6.53125l.625 2.01562h-1.375l-1.26563-3.53125v-.17187z"/><path d="m414.67853 262.74478v5.84375h-1.15625l-2.95313-2.76563q-.60937-.5625-1.07812-.82812-.46875-.28125-.875-.28125-.57813 0-.89063.29687-.32812.28126-.32812.8125 0 .57813.39062.90626.39063.32812 1.04688.32812v1.70312q-.78125 0-1.42188-.375-.65625-.375-1.01562-1.04687-.375-.6875-.375-1.54687 0-1.3125.64062-2.04688.625-.73438 1.78125-.73438.64063 0 1.29688.32813.65625.32813 1.53125 1.125l2.04687 1.9375v-3.65625zm-3.53125-6.90623q1.76562 0 2.71875.73435.9375.73438.9375 2.14063 0 1.40625-.92188 2.14063-.92187.73437-2.64062.75h-1.57813q-1.78125 0-2.70312-.73438-.9375-.75-.9375-2.14062 0-1.39063.92187-2.125.92188-.74999 2.64063-.76561zm-1.71875 1.70311q-1.0625 0-1.54688.29687-.48437.28125-.48437.89063 0 .59374.46875.89062.45312.28125 1.4375.29688h2.0625q1.04687 0 1.5625-.28126.5-.28124.5-.92187 0-.60937-.48438-.89063-.48437-.28124-1.48437-.28124zm5.25-7.06249v1.6875h-6.53125l.625 2.01563h-1.375l-1.26563-3.53125v-.17188zm0-8.73437v5.84375h-1.15625l-2.95313-2.76563q-.60937-.5625-1.07812-.82812-.46875-.28125-.875-.28125-.57813 0-.89063.29687-.32812.28125-.32812.8125 0 .57813.39062.90625.39063.32813 1.04688.32813v1.70312q-.78125 0-1.42188-.375-.65625-.375-1.01562-1.04687-.375-.6875-.375-1.54688 0-1.3125.64062-2.04687.625-.73438 1.78125-.73438.64063 0 1.29688.32813.65625.32812 1.53125 1.125l2.04687 1.9375v-3.65625z"/><path d="m430.62906 262.7448v5.84376h-1.15626l-2.95312-2.76562q-.60938-.5625-1.07812-.82814-.46876-.28124-.875-.28124-.57813 0-.89063.29688-.32813.28126-.32813.8125 0 .57812.39063.90626.39063.3281 1.04687.3281v1.70314q-.78124 0-1.42187-.375-.65625-.375-1.01563-1.04688-.375-.6875-.375-1.54686 0-1.3125.64063-2.0469.625-.73436 1.78125-.73436.64062 0 1.29688.32812.65624.32814 1.53124 1.125l2.04688 1.9375v-3.65626zm-3.53126-6.90625q1.76563 0 2.71876.73439.9375.73436.9375 2.14062 0 1.40624-.92188 2.14064-.92188.73436-2.64062.75h-1.57813q-1.78125 0-2.70313-.7344-.9375-.75-.9375-2.1406 0-1.39064.92188-2.125.92188-.75003 2.64062-.76565zm-1.71874 1.70315q-1.0625 0-1.54688.29686-.48438.28124-.48438.89064 0 .59374.46876.8906.45312.28126 1.4375.2969h2.0625q1.04687 0 1.5625-.28126.5-.28124.5-.92188 0-.60936-.48438-.89062-.48438-.28124-1.48438-.28124zm5.25-7.06253v1.6875h-6.53126l.625 2.01563h-1.375l-1.26562-3.53125v-.17188zm-5.01563-4.60937v-.90625q0-.64063-.3125-.95313-.32813-.3125-.85937-.3125-.51563 0-.79688.3125-.29688.29688-.29688.84375 0 .48438.26563.8125.26563.32813.6875.32813v1.6875q-.65625 0-1.1875-.35938-.53125-.35937-.82813-1-.3125-.65625-.3125-1.4375 0-1.34375.65626-2.10937.64062-.78125 1.78124-.78125.59376 0 1.09376.35937.48437.35938.73437.9375.26563-.71875.78125-1.0625.51562-.35937 1.21875-.35937 1.14063 0 1.82813.82812.6875.82813.6875 2.1875 0 1.28125-.67188 2.09375-.6875.8125-1.79688.8125v-1.6875q.48438 0 .79688-.35937.29688-.375.29688-.89063 0-.60937-.3125-.95312-.32813-.34375-.85938-.34375-1.26562 0-1.26562 1.40625v.90625z"/><path d="m446.57962 262.74478v5.84375h-1.15625l-2.95312-2.76563q-.60938-.5625-1.07813-.82812-.46875-.28125-.875-.28125-.57812 0-.89062.29687-.32813.28126-.32813.8125 0 .57813.39063.90626.39062.32812 1.04687.32812v1.70312q-.78125 0-1.42187-.375-.65625-.375-1.01563-1.04687-.375-.6875-.375-1.54687 0-1.3125.64063-2.04688.625-.73438 1.78125-.73438.64062 0 1.29687.32813.65625.32813 1.53125 1.125l2.04688 1.9375v-3.65625zm-3.53125-6.90625q1.76563 0 2.71875.73437.9375.73438.9375 2.14063 0 1.40625-.92187 2.14063-.92188.73437-2.64063.75h-1.57812q-1.78125 0-2.70313-.73438-.9375-.75-.9375-2.14062 0-1.39063.92188-2.125.92187-.75 2.64062-.76563zm-1.71875 1.70313q-1.0625 0-1.54687.29687-.48438.28125-.48438.89063 0 .59374.46875.89062.45313.28125 1.4375.29688h2.0625q1.04688 0 1.5625-.28126.5-.28124.5-.92187 0-.60937-.48437-.89063-.48438-.28124-1.48438-.28124zm5.25-7.0625v1.6875h-6.53125l.625 2.01562h-1.375l-1.26562-3.53125v-.17187zm-3.21875-7.90626v-.96874h1.375v.96874h1.84375v1.70313h-1.84375v3.48437l-1.0625.07813-5.625-3.54687v-1.71876zm0 3.57813v-1.875h-3l.1875.10937z"/><path d="m462.53015 262.74478v5.84375h-1.15625l-2.95312-2.76563q-.60938-.5625-1.07813-.82812-.46875-.28125-.875-.28125-.57812 0-.89062.29687-.32813.28126-.32813.8125 0 .57813.39063.90626.39062.32812 1.04687.32812v1.70312q-.78125 0-1.42187-.375-.65625-.375-1.01563-1.04687-.375-.6875-.375-1.54687 0-1.3125.64063-2.04688.625-.73438 1.78125-.73438.64062 0 1.29687.32813.65625.32813 1.53125 1.125l2.04688 1.9375v-3.65625zm-3.53125-6.90623q1.76563 0 2.71875.73435.9375.73438.9375 2.14063 0 1.40625-.92187 2.14063-.92188.73437-2.64063.75h-1.57812q-1.78125 0-2.70313-.73438-.9375-.75-.9375-2.14062 0-1.39063.92188-2.125.92187-.74999 2.64062-.76561zm-1.71875 1.70311q-1.0625 0-1.54687.29687-.48438.28125-.48438.89063 0 .59374.46875.89062.45313.28125 1.4375.29688h2.0625q1.04688 0 1.5625-.28126.5-.28124.5-.92187 0-.60937-.48437-.89063-.48438-.28124-1.48438-.28124zm5.25-7.06249v1.6875h-6.53125l.625 2.01563h-1.375l-1.26562-3.53125v-.17188zm-4.20312-3.14062-4.32813-.5v-4.78122h1.40625v3.39059l1.84375.21875q-.32812-.60937-.32812-1.28125 0-1.21875.76562-1.90622.75-.70312 2.10938-.70312.82812 0 1.48437.35937.64063.34375 1.01563.99997.35937.64063.35937 1.53125 0 .76563-.3125 1.4375-.32812.65625-.89062 1.04688-.5625.375-1.29688.40625v-1.6875q.53125-.04688.82813-.35938.29687-.32812.29687-.84375 0-.57812-.40625-.875-.42187-.3125-1.17187-.3125-.73438 0-1.10938.35938-.39062.34375-.39062 1 0 .60937.3125.98437l.15625.15625z"/><path d="m478.48068 262.7448v5.84376h-1.15625l-2.95313-2.76562q-.60937-.5625-1.07812-.82814-.46875-.28124-.875-.28124-.57812 0-.89062.29688-.32813.28126-.32813.8125 0 .57812.39063.90626.39062.3281 1.04687.3281v1.70314q-.78125 0-1.42187-.375-.65626-.375-1.01563-1.04688-.375-.6875-.375-1.54686 0-1.3125.64063-2.0469.625-.73436 1.78124-.73436.64063 0 1.29688.32812.65625.32814 1.53125 1.125l2.04687 1.9375v-3.65626zm-3.53125-6.90625q1.76563 0 2.71875.73439.9375.73436.9375 2.14062 0 1.40624-.92188 2.14064-.92187.73436-2.64062.75h-1.57812q-1.78126 0-2.70313-.7344-.9375-.75-.9375-2.1406 0-1.39064.92187-2.125.92188-.75003 2.64063-.76565zm-1.71875 1.70315q-1.0625 0-1.54688.29686-.48437.28124-.48437.89064 0 .59374.46875.8906.45312.28126 1.4375.2969h2.0625q1.04688 0 1.5625-.28126.5-.28124.5-.92188 0-.60936-.48438-.89062-.48437-.28124-1.48437-.28124zm5.25-7.06253v1.6875h-6.53125l.625 2.01563h-1.375l-1.26563-3.53125v-.17188zm-8.625-7.48437h1.40625v.15625q.01563 1.15625.59375 1.85937.57812.6875 1.60938.82813-.6875-.67188-.6875-1.70313 0-1.125.79687-1.78125.79687-.65625 2.09375-.65625.82812 0 1.5.35938.67188.35937 1.0625 1.03125.375.65625.375 1.48437 0 1.34375-.9375 2.17188-.95312.82812-2.51562.82812h-.60938q-1.39062 0-2.45312-.51562-1.0625-.53125-1.64063-1.5-.57813-.98438-.59375-2.28125zm4.28125 1.65625q0 .40625.21875.75.20312.32812.5625.48437h.51562q.84376 0 1.32813-.32812.46875-.34375.46875-.95313 0-.54687-.42188-.875-.4375-.34375-1.125-.34375-.70312 0-1.125.34375-.42187.34375-.42187.92188z"/><path d="m494.43124 262.74478v5.84375h-1.15624l-2.95313-2.76563q-.60937-.5625-1.07813-.82812-.46874-.28125-.875-.28125-.57812 0-.89062.29687-.32812.28126-.32812.8125 0 .57813.39062.90626.39062.32812 1.04688.32812v1.70312q-.78126 0-1.42188-.375-.65625-.375-1.01562-1.04687-.375-.6875-.375-1.54687 0-1.3125.64062-2.04688.625-.73438 1.78125-.73438.64063 0 1.29687.32813.65626.32813 1.53126 1.125l2.04687 1.9375v-3.65625zm-3.53124-6.90625q1.76562 0 2.71874.73437.9375.73438.9375 2.14063 0 1.40625-.92187 2.14063-.92187.73437-2.64063.75h-1.57812q-1.78125 0-2.70312-.73438-.9375-.75-.9375-2.14062 0-1.39063.92187-2.125.92187-.75 2.64063-.76563zm-1.71876 1.70313q-1.0625 0-1.54687.29687-.48437.28125-.48437.89063 0 .59374.46874.89062.45313.28125 1.4375.29688h2.0625q1.04688 0 1.5625-.28126.5-.28124.5-.92187 0-.60937-.48437-.89063-.48437-.28124-1.48437-.28124zm5.25-7.0625v1.6875h-6.53124l.625 2.01562h-1.375l-1.26563-3.53125v-.17187zm-7.57812-8.6875 7.57812 3.29687v1.78125l-7.15624-3.29688v4.23438h-1.375v-6.01562z"/><path d="m510.38177 262.7448v5.84376h-1.15625l-2.95312-2.76562q-.60938-.5625-1.07813-.82814-.46875-.28124-.875-.28124-.57812 0-.89062.29688-.32813.28126-.32813.8125 0 .57812.39063.90626.39062.3281 1.04687.3281v1.70314q-.78125 0-1.42187-.375-.65625-.375-1.01563-1.04688-.375-.6875-.375-1.54686 0-1.3125.64063-2.0469.625-.73436 1.78125-.73436.64062 0 1.29687.32812.65625.32814 1.53125 1.125l2.04688 1.9375v-3.65626zm-3.53125-6.90624q1.76563 0 2.71875.73438.9375.73436.9375 2.14062 0 1.40624-.92187 2.14064-.92188.73436-2.64063.75h-1.57812q-1.78125 0-2.70313-.7344-.9375-.75-.9375-2.1406 0-1.39064.92188-2.125.92187-.75001 2.64062-.76564zm-1.71875 1.70314q-1.0625 0-1.54687.29686-.48438.28124-.48438.89064 0 .59374.46875.8906.45313.28126 1.4375.2969h2.0625q1.04688 0 1.5625-.28126.5-.28124.5-.92188 0-.60936-.48437-.89062-.48438-.28124-1.48438-.28124zm5.25-7.06251v1.6875h-6.53125l.625 2.01562h-1.375l-1.26562-3.53125v-.17187zm-6.26562-8.45313q.625 0 1.10937.3125.46875.3125.76563.85938.29687-.625.82812-.98438.51563-.375 1.21875-.375 1.14063 0 1.8125.78125.65625.76563.65625 2.10938 0 1.32812-.65625 2.10937-.67187.76563-1.8125.76563-.70312 0-1.23437-.35938-.53125-.35937-.8125-.98437-.29688.54687-.76563.85937-.48437.3125-1.10937.3125-1.09375 0-1.73438-.71875-.65625-.73437-.65625-1.98437 0-1.25.65625-1.96875.64063-.73438 1.73438-.73438zm3.79687 1.51563q-.54687 0-.875.32812-.34375.3125-.34375.85938 0 .54687.32813.875.32812.3125.89062.3125.54688 0 .89063-.3125.32812-.32813.32812-.89063 0-.54687-.3125-.85937-.32812-.3125-.90625-.3125zm-3.71875.17187q-.5 0-.79687.26563-.29688.26562-.29688.75 0 .46875.29688.73437.28125.26563.79687.26563.51563 0 .82813-.26563.3125-.26562.3125-.73437 0-.48438-.3125-.75-.3125-.26563-.82813-.26563z"/><path d="m526.33234 262.7448v5.84376h-1.15624l-2.95314-2.76562q-.60936-.5625-1.07812-.82814-.46874-.28124-.875-.28124-.57814 0-.89064.29688-.3281.28126-.3281.8125 0 .57812.3906.90626.39064.3281 1.0469.3281v1.70314q-.78126 0-1.4219-.375-.65624-.375-1.0156-1.04688-.375-.6875-.375-1.54686 0-1.3125.6406-2.0469.625-.73436 1.78126-.73436.64064 0 1.29688.32812.65626.32814 1.53126 1.125l2.04686 1.9375v-3.65626zm-3.53124-6.90625q1.7656 0 2.71874.73439.9375.73436.9375 2.14062 0 1.40624-.92188 2.14064-.92186.73436-2.64062.75h-1.57814q-1.78124 0-2.7031-.7344-.9375-.75-.9375-2.1406 0-1.39064.92186-2.125.92188-.75003 2.64064-.76565zm-1.71876 1.70315q-1.0625 0-1.54688.29686-.48436.28124-.48436.89064 0 .59374.46874.8906.45312.28126 1.4375.2969h2.0625q1.04686 0 1.5625-.28126.5-.28124.5-.92188 0-.60936-.48438-.89062-.48436-.28124-1.48436-.28124zm5.25-7.06253v1.6875h-6.53124l.625 2.01563h-1.375l-1.26564-3.53125v-.17188zm-3.40624-6.85937q.6406.67187.6406 1.54687 0 1.14063-.7656 1.82813-.78126.67187-2.09376.67187-.84374 0-1.54688-.35937-.70312-.375-1.09376-1.03125-.3906-.65625-.3906-1.48438 0-.84375.42186-1.5.42188-.65625 1.21874-1.01562.7969-.35938 1.8125-.375h.625q2.14064 0 3.3594 1.0625 1.21874 1.0625 1.29686 3.01562v.40625h-1.40626l-.0156-.375q-.09376-2.20312-2.0625-2.39062zm-.65626 1.14062q0-.42187-.20314-.70312-.21874-.29688-.5156-.45313h-.6875q-.8594 0-1.32814.32813-.48436.32812-.48436.875 0 .51562.46874.84375.45312.32812 1.15626.32812.7031 0 1.15624-.3125.4375-.32812.4375-.90625z"/><path d="m542.28284 262.74478v5.84375h-1.15624l-2.95314-2.76563q-.60936-.5625-1.07812-.82812-.46874-.28125-.875-.28125-.57814 0-.89064.29687-.3281.28126-.3281.8125 0 .57813.3906.90626.39064.32812 1.0469.32812v1.70312q-.78126 0-1.4219-.375-.65624-.375-1.0156-1.04687-.375-.6875-.375-1.54687 0-1.3125.6406-2.04688.625-.73438 1.78126-.73438.64064 0 1.29688.32813.65626.32813 1.53126 1.125l2.04686 1.9375v-3.65625zm-3.53124-6.90625q1.7656 0 2.71874.73437.9375.73438.9375 2.14063 0 1.40625-.92188 2.14063-.92186.73437-2.64062.75h-1.57814q-1.78124 0-2.7031-.73438-.9375-.75-.9375-2.14062 0-1.39063.92186-2.125.92188-.75 2.64064-.76563zm-1.71876 1.70313q-1.0625 0-1.54688.29687-.48436.28125-.48436.89063 0 .59374.46874.89062.45312.28125 1.4375.29688h2.0625q1.04686 0 1.5625-.28126.5-.28124.5-.92187 0-.60937-.48438-.89063-.48436-.28124-1.48436-.28124zm5.25-8.79688v5.84375h-1.15624l-2.95314-2.76563q-.60936-.5625-1.07812-.82812-.46874-.28125-.875-.28125-.57814 0-.89064.29687-.3281.28126-.3281.8125 0 .57813.3906.90626.39064.32812 1.0469.32812v1.70312q-.78126 0-1.4219-.375-.65624-.375-1.0156-1.04687-.375-.6875-.375-1.54687 0-1.3125.6406-2.04688.625-.73438 1.78126-.73438.64064 0 1.29688.32813.65626.32813 1.53126 1.125l2.04686 1.9375v-3.65625zm-3.53124-6.90625q1.7656 0 2.71874.73437.9375.73438.9375 2.14063 0 1.40625-.92188 2.14063-.92186.73437-2.64062.75h-1.57814q-1.78124 0-2.7031-.73438-.9375-.75-.9375-2.14062 0-1.39063.92186-2.125.92188-.75 2.64064-.76563zm-1.71876 1.70313q-1.0625 0-1.54688.29687-.48436.28125-.48436.89063 0 .59374.46874.89062.45312.28125 1.4375.29688h2.0625q1.04686 0 1.5625-.28126.5-.28124.5-.92187 0-.60937-.48438-.89063-.48436-.28124-1.48436-.28124z"/><path d="m558.2334 262.7448v5.84376h-1.15625l-2.95315-2.76562q-.60935-.5625-1.0781-.82814-.46875-.28124-.875-.28124-.5781 0-.8906.29688-.32815.28126-.32815.8125 0 .57812.39065.90626.3906.3281 1.04685.3281v1.70314q-.78125 0-1.42185-.375-.6563-.375-1.01565-1.04688-.375-.6875-.375-1.54686 0-1.3125.64065-2.0469.625-.73436 1.7812-.73436.64065 0 1.2969.32812.65625.32814 1.53125 1.125l2.04685 1.9375v-3.65626zm-3.53125-6.90624q1.76565 0 2.71875.73438.9375.73436.9375 2.14062 0 1.40624-.9219 2.14064-.92185.73436-2.6406.75h-1.5781q-1.7813 0-2.70315-.7344-.9375-.75-.9375-2.1406 0-1.39064.92185-2.125.9219-.75001 2.64065-.76564zm-1.71875 1.70314q-1.0625 0-1.5469.29686-.48435.28124-.48435.89064 0 .59374.46875.8906.4531.28126 1.4375.2969h2.0625q1.0469 0 1.5625-.28126.5-.28124.5-.92188 0-.60936-.4844-.89062-.48435-.28124-1.48435-.28124zm5.25-8.79689v5.84375h-1.15625l-2.95315-2.76562q-.60935-.5625-1.0781-.82813-.46875-.28125-.875-.28125-.5781 0-.8906.29688-.32815.28125-.32815.8125 0 .57812.39065.90625.3906.32812 1.04685.32812v1.70313q-.78125 0-1.42185-.375-.6563-.375-1.01565-1.04688-.375-.6875-.375-1.54687 0-1.3125.64065-2.04688.625-.73437 1.7812-.73437.64065 0 1.2969.32812.65625.32813 1.53125 1.125l2.04685 1.9375v-3.65625zm0-5.26562v1.6875h-6.53125l.625 2.01562h-1.375l-1.26565-3.53125v-.17187z"/></g><path d="m158.5 282c0-.55228.44771-1 1-1h10c.55229 0 1 .44772 1 1v10c0 .55228-.44771 1-1 1h-10c-.55229 0-1-.44772-1-1z" fill="#5d4948"/><path d="m186.04688 287.51562q0 1.25-.42188 2.1875-.42188.92188-1.20312 1.42188-.76563.5-1.79688.5-1 0-1.78125-.5-.78125-.5-1.21875-1.40625-.42188-.92187-.4375-2.14063v-.60937q0-1.23437.42188-2.17187.4375-.9375 1.21874-1.4375.78126-.51563 1.79688-.51563 1.01562 0 1.79688.5.78124.5 1.20312 1.4375.42188.9375.42188 2.1875zm-1.10938-.5625q0-1.51562-.60938-2.32812-.60937-.8125-1.70312-.8125-1.07812 0-1.6875.8125-.60938.8125-.625 2.25v.64062q0 1.46876.60938 2.3125.625.82813 1.70312.82813 1.09375 0 1.6875-.78125.60938-.79688.625-2.28125zm3.85938-3.32812v1.53125h1.17187v.84375h-1.17187v3.92188q0 .39062.15624.57812.15626.1875.53126.1875.1875 0 .51562-.0625v.875q-.42188.125-.82812.125-.71876 0-1.09376-.4375-.375-.45312-.375-1.26562v-3.92188h-1.15624v-.84375h1.15624v-1.53125zm3.60937 2.29688q.71875-.875 1.875-.875 2.01563 0 2.03125 2.26562v4.1875h-1.09375v-4.20312q0-.67188-.3125-1-.29687-.32813-.95313-.32813-.53124 0-.9375.28125-.39062.28125-.60937.73438v4.51562h-1.07813v-9h1.07813zm8.54687 5.70312q-1.29687 0-2.10937-.84375-.79687-.85937-.79687-2.28125v-.1875q0-.95312.35937-1.6875.35937-.75 1-1.15625.65625-.42187 1.40625-.42187 1.23438 0 1.92188.8125.6875.8125.6875 2.32812v.45312h-4.29688q.03125.9375.54688 1.51563.53124.57813 1.34374.57813.5625 0 .95313-.23438.40625-.23438.71875-.625l.65625.51562q-.79687 1.23438-2.39063 1.23438zm-.14062-5.6875q-.65625 0-1.10938.48438-.4375.46874-.53124 1.32812h3.17187v-.07812q-.04687-.82813-.45313-1.28126-.39062-.45312-1.07812-.45312zm6.57812.1875q-.25-.03125-.53124-.03125-1.07813 0-1.45313.90625v4.5h-1.07813v-6.34375h1.04688l.01562.73437q.53126-.84374 1.51563-.84374.3125 0 .48437.07812zm6.46876 4.60938q.57812 0 1.01562-.34376.4375-.35937.48438-.89062h1.03124q-.03124.54688-.39062 1.04688-.34375.48437-.92188.78124-.5625.29688-1.21874.29688-1.29688 0-2.0625-.85938-.75-.875-.75-2.375v-.1875q0-.92187.32812-1.64062.34375-.71875.96875-1.10938.64063-.40624 1.51563-.40624 1.0625 0 1.76562.64062.71875.625.76562 1.65625h-1.03124q-.04688-.625-.46876-1.01563-.42187-.39062-1.03124-.39062-.82813 0-1.28126.59375-.45312.59375-.45312 1.71875v.20312q0 1.09376.45312 1.6875.45313.59376 1.28126.59376zm3.17187-2.46876q0-.92187.35937-1.67187.375-.75 1.03126-1.14063.65624-.40624 1.48437-.40624 1.29687 0 2.09375.89062.8125.89062.8125 2.39062v.07813q0 .92187-.35938 1.65625-.35937.73438-1.01562 1.15625-.65625.40625-1.51562.40625-1.28126 0-2.09376-.89062-.79687-.90626-.79687-2.39063zm1.09375.14063q0 1.04687.48438 1.6875.5.64063 1.3125.64063.82812 0 1.3125-.64063.48437-.65625.48437-1.82813 0-1.03124-.5-1.67187-.48437-.65625-1.3125-.65625-.79687 0-1.29687.64062-.48438.625-.48438 1.82813zm7.21875-3.25.03125.79687q.73438-.90624 1.90625-.90624 2.01563 0 2.03125 2.26562v4.1875h-1.09375v-4.20312q0-.67188-.3125-1-.29687-.32813-.95313-.32813-.53124 0-.9375.28125-.39062.28125-.60937.73438v4.51562h-1.07813v-6.34375zm9.67187 4.65625q0-.4375-.34374-.67188-.32813-.25-1.15626-.42187-.8125-.17187-1.29687-.42187-.48437-.25-.71875-.57813-.21875-.34375-.21875-.8125 0-.78125.65625-1.3125.65625-.54687 1.6875-.54687 1.07812 0 1.73438.5625.67187.54687.67187 1.40624h-1.07813q0-.4375-.39062-.75-.375-.32812-.9375-.32812-.59375 0-.9375.26562-.32812.25-.32812.65626 0 .39062.3125.59374.3125.20313 1.125.39063.8125.17187 1.3125.42187.5.25.73437.60938.25.35938.25.85938 0 .85937-.6875 1.375-.67187.51562-1.75.51562-.76563 0-1.35937-.26562-.57813-.28126-.90626-.76563-.32812-.48437-.32812-1.04687h1.07812q.03126.54687.4375.875.40626.3125 1.07813.3125.60937 0 .98437-.25.375-.25.375-.67188zm6.21876 1.0625q-.625.75-1.85938.75-1.01562 0-1.54688-.59375-.53124-.59375-.53124-1.75v-4.125h1.07812v4.09375q0 1.45312 1.17188 1.45312 1.25 0 1.65624-.9375v-4.60937h1.09376v6.34375h-1.03126zm8.4375-2.46875q0 1.4375-.65626 2.32813-.65624.89062-1.79687.89062-1.15625 0-1.8125-.73438v3.04688h-1.07813v-8.78125h.98438l.04688.70313q.67187-.8125 1.84374-.8125 1.14063 0 1.79688.85937.67188.85937.67188 2.39063zm-1.07813-.125q0-1.07813-.46875-1.6875-.45312-.625-1.25-.625-.98438 0-1.46875.85937v3.03126q.48437.875 1.48437.875.78126 0 1.23438-.60938.46875-.625.46875-1.84375zm4.20313-4.65625v1.53125h1.17187v.84375h-1.17187v3.92188q0 .39062.15624.57812.15626.1875.53126.1875.1875 0 .51562-.0625v.875q-.42188.125-.82812.125-.71876 0-1.09376-.4375-.375-.45312-.375-1.26562v-3.92188h-1.15624v-.84375h1.15624v-1.53125zm3.70312 7.875h-1.07812v-6.34375h1.07812zm-1.17188-8.01562q0-.26563.15626-.45313.17187-.1875.48437-.1875.3125 0 .46875.1875.17188.1875.17188.45313 0 .25-.17188.4375-.15625.17187-.46875.17187-.3125 0-.48437-.17187-.15626-.1875-.15626-.4375zm2.70313 4.78124q0-.92187.35937-1.67187.375-.75 1.03126-1.14063.65624-.40624 1.48437-.40624 1.29687 0 2.09375.89062.8125.89062.8125 2.39062v.07813q0 .92187-.35938 1.65625-.35937.73438-1.01562 1.15625-.65625.40625-1.51562.40625-1.28126 0-2.09376-.89062-.79687-.90626-.79687-2.39063zm1.09375.14063q0 1.04687.48438 1.6875.5.64063 1.3125.64063.82812 0 1.3125-.64063.48437-.65625.48437-1.82813 0-1.03124-.5-1.67187-.48437-.65625-1.3125-.65625-.79687 0-1.29687.64062-.48438.625-.48438 1.82813zm7.21875-3.25.03125.79687q.73438-.90624 1.90625-.90624 2.01563 0 2.03125 2.26562v4.1875h-1.09375v-4.20312q0-.67188-.3125-1-.29687-.32813-.95313-.32813-.53124 0-.9375.28125-.39062.28125-.60937.73438v4.51562h-1.07813v-6.34375z" fill="#1a1a1a"/><path d="m287.5 282c0-.55228.44772-1 1-1h10c.55228 0 1 .44772 1 1v10c0 .55228-.44772 1-1 1h-10c-.55228 0-1-.44772-1-1z" fill="#e16c30"/><path d="m313.20312 287.73438h-3.59374v3.76562h-1.125v-8.53125h5.29687v.92187h-4.17187v2.92188h3.59374zm3.29688 3.76562h-1.07812v-6.34375h1.07812zm-1.17188-8.01562q0-.26563.15626-.45313.17187-.1875.48437-.1875.3125 0 .46875.1875.17188.1875.17188.45313 0 .25-.17188.4375-.15625.17187-.46875.17187-.3125 0-.48437-.17187-.15626-.1875-.15626-.4375zm6.0625 2.64062q-.25-.03125-.53124-.03125-1.07813 0-1.45313.90625v4.5h-1.07813v-6.34375h1.04688l.01562.73437q.53126-.84374 1.51563-.84374.3125 0 .48437.07812zm3.5625 5.5q-1.29687 0-2.10937-.84375-.79687-.85937-.79687-2.28125v-.1875q0-.95312.35937-1.6875.35937-.75 1-1.15625.65625-.42187 1.40625-.42187 1.23438 0 1.92188.8125.6875.8125.6875 2.32812v.45312h-4.29688q.03125.9375.54688 1.51563.53124.57813 1.34374.57813.5625 0 .95313-.23438.40625-.23438.71875-.625l.65625.51562q-.79687 1.23438-2.39063 1.23438zm-.14062-5.6875q-.65625 0-1.10938.48438-.4375.46874-.53124 1.32812h3.17187v-.07812q-.04687-.82813-.45313-1.28126-.39062-.45312-1.07812-.45312zm9.125 4.0625 1.21875-4.84375h1.07813l-1.84376 6.34375h-.875l-1.54687-4.8125-1.5 4.8125h-.875l-1.84375-6.34375h1.07812l1.25 4.75 1.48438-4.75h.85938zm3.09375-1.73438q0-.92187.35937-1.67187.375-.75 1.03126-1.14063.65624-.40624 1.48437-.40624 1.29687 0 2.09375.89062.8125.89062.8125 2.39062v.07813q0 .92187-.35938 1.65625-.35937.73438-1.01562 1.15625-.65625.40625-1.51562.40625-1.28126 0-2.09376-.89062-.79687-.90626-.79687-2.39063zm1.09375.14063q0 1.04687.48438 1.6875.5.64063 1.3125.64063.82812 0 1.3125-.64063.48437-.65625.48437-1.82813 0-1.03124-.5-1.67187-.48437-.65625-1.3125-.65625-.79687 0-1.29687.64062-.48438.625-.48438 1.82813zm5.90625-.14063q0-.92187.35937-1.67187.375-.75 1.03126-1.14063.65624-.40624 1.48437-.40624 1.29687 0 2.09375.89062.8125.89062.8125 2.39062v.07813q0 .92187-.35938 1.65625-.35937.73438-1.01562 1.15625-.65625.40625-1.51562.40625-1.28126 0-2.09376-.89062-.79687-.90626-.79687-2.39063zm1.09375.14063q0 1.04687.48438 1.6875.5.64063 1.3125.64063.82812 0 1.3125-.64063.48437-.65625.48437-1.82813 0-1.03124-.5-1.67187-.48437-.65625-1.3125-.65625-.79687 0-1.29687.64062-.48438.625-.48438 1.82813zm5.9375-.125q0-1.46875.6875-2.34375.6875-.89062 1.8125-.89062 1.10938 0 1.76562.75v-3.29688h1.07813v9h-1l-.04687-.6875q-.65626.8125-1.8125.8125-1.09376 0-1.79688-.90625-.6875-.90625-.6875-2.35937zm1.07812.125q0 1.07813.4375 1.6875.45313.60937 1.23438.60937 1.03125 0 1.51562-.9375v-2.90624q-.48437-.89063-1.5-.89063-.79687 0-1.25.60937-.4375.60938-.4375 1.82813zm11.71876 2.32813q.57812 0 1.01562-.34376.4375-.35937.48438-.89062h1.03124q-.03124.54688-.39062 1.04688-.34375.48437-.92188.78124-.5625.29688-1.21874.29688-1.29688 0-2.0625-.85938-.75-.875-.75-2.375v-.1875q0-.92187.32812-1.64062.34375-.71875.96875-1.10938.64063-.40624 1.51563-.40624 1.0625 0 1.76562.64062.71875.625.76562 1.65625h-1.03124q-.04688-.625-.46876-1.01563-.42187-.39062-1.03124-.39062-.82813 0-1.28126.59375-.45312.59375-.45312 1.71875v.20312q0 1.09376.45312 1.6875.45313.59376 1.28126.59376zm3.17187-2.46876q0-.92187.35937-1.67187.375-.75 1.03126-1.14063.65624-.40624 1.48437-.40624 1.29687 0 2.09375.89062.8125.89062.8125 2.39062v.07813q0 .92187-.35938 1.65625-.35937.73438-1.01562 1.15625-.65625.40625-1.51562.40625-1.28126 0-2.09376-.89062-.79687-.90626-.79687-2.39063zm1.09375.14063q0 1.04687.48438 1.6875.5.64063 1.3125.64063.82812 0 1.3125-.64063.48437-.65625.48437-1.82813 0-1.03124-.5-1.67187-.48437-.65625-1.3125-.65625-.79687 0-1.29687.64062-.48438.625-.48438 1.82813zm7.21875-3.25.03125.79687q.73438-.90624 1.90625-.90624 2.01563 0 2.03125 2.26562v4.1875h-1.09375v-4.20312q0-.67188-.3125-1-.29687-.32813-.95313-.32813-.53124 0-.9375.28125-.39062.28125-.60937.73438v4.51562h-1.07813v-6.34375zm9.67187 4.65625q0-.4375-.34374-.67188-.32813-.25-1.15626-.42187-.8125-.17187-1.29687-.42187-.48437-.25-.71875-.57813-.21875-.34375-.21875-.8125 0-.78125.65625-1.3125.65625-.54687 1.6875-.54687 1.07812 0 1.73438.5625.67187.54687.67187 1.40624h-1.07813q0-.4375-.39062-.75-.375-.32812-.9375-.32812-.59375 0-.9375.26562-.32812.25-.32812.65626 0 .39062.3125.59374.3125.20313 1.125.39063.8125.17187 1.3125.42187.5.25.73437.60938.25.35938.25.85938 0 .85937-.6875 1.375-.67187.51562-1.75.51562-.76563 0-1.35937-.26562-.57813-.28126-.90626-.76563-.32812-.48437-.32812-1.04687h1.07812q.03126.54687.4375.875.40626.3125 1.07813.3125.60937 0 .98437-.25.375-.25.375-.67188zm6.21876 1.0625q-.625.75-1.85938.75-1.01562 0-1.54688-.59375-.53124-.59375-.53124-1.75v-4.125h1.07812v4.09375q0 1.45312 1.17188 1.45312 1.25 0 1.65624-.9375v-4.60937h1.09376v6.34375h-1.03126zm8.4375-2.46875q0 1.4375-.65626 2.32813-.65624.89062-1.79687.89062-1.15625 0-1.8125-.73438v3.04688h-1.07813v-8.78125h.98438l.04688.70313q.67187-.8125 1.84374-.8125 1.14063 0 1.79688.85937.67188.85937.67188 2.39063zm-1.07813-.125q0-1.07813-.46875-1.6875-.45312-.625-1.25-.625-.98438 0-1.46875.85937v3.03126q.48437.875 1.48437.875.78126 0 1.23438-.60938.46875-.625.46875-1.84375zm4.20313-4.65625v1.53125h1.17187v.84375h-1.17187v3.92188q0 .39062.15624.57812.15626.1875.53126.1875.1875 0 .51562-.0625v.875q-.42188.125-.82812.125-.71876 0-1.09376-.4375-.375-.45312-.375-1.26562v-3.92188h-1.15624v-.84375h1.15624v-1.53125zm3.70312 7.875h-1.07812v-6.34375h1.07812zm-1.17188-8.01562q0-.26563.15626-.45313.17187-.1875.48437-.1875.3125 0 .46875.1875.17188.1875.17188.45313 0 .25-.17188.4375-.15625.17187-.46875.17187-.3125 0-.48437-.17187-.15626-.1875-.15626-.4375zm2.70313 4.78124q0-.92187.35937-1.67187.375-.75 1.03126-1.14063.65624-.40624 1.48437-.40624 1.29687 0 2.09375.89062.8125.89062.8125 2.39062v.07813q0 .92187-.35938 1.65625-.35937.73438-1.01562 1.15625-.65625.40625-1.51562.40625-1.28126 0-2.09376-.89062-.79687-.90626-.79687-2.39063zm1.09375.14063q0 1.04687.48438 1.6875.5.64063 1.3125.64063.82812 0 1.3125-.64063.48437-.65625.48437-1.82813 0-1.03124-.5-1.67187-.48437-.65625-1.3125-.65625-.79687 0-1.29687.64062-.48438.625-.48438 1.82813zm7.21875-3.25.03125.79687q.73438-.90624 1.90625-.90624 2.01563 0 2.03125 2.26562v4.1875h-1.09375v-4.20312q0-.67188-.3125-1-.29687-.32813-.95313-.32813-.53124 0-.9375.28125-.39062.28125-.60937.73438v4.51562h-1.07813v-6.34375z" fill="#1a1a1a"/></svg>