<svg fill="none" height="604" stroke-linecap="square" stroke-miterlimit="10" viewBox="0 0 580 604" width="580" xmlns="http://www.w3.org/2000/svg" xmlns:xlink="http://www.w3.org/1999/xlink"><clipPath id="a"><path d="m71 36.5h480v451.16666h-480z"/></clipPath><path d="m0 0h580v604h-580z" fill="none"/><path d="m71.5 487.5h480" stroke="#333" stroke-linecap="butt"/><path d="m71.5 374.5h480" stroke="#ccc" stroke-linecap="butt"/><path d="m71.5 262.5h480" stroke="#ccc" stroke-linecap="butt"/><path d="m71.5 149.5h480" stroke="#ccc" stroke-linecap="butt"/><path d="m71.5 36.5h480" stroke="#ccc" stroke-linecap="butt"/><path d="m71.5 450.5h480" stroke="#e6e6e6" stroke-linecap="butt"/><path d="m71.5 412.5h480" stroke="#e6e6e6" stroke-linecap="butt"/><path d="m71.5 337.5h480" stroke="#e6e6e6" stroke-linecap="butt"/><path d="m71.5 299.5h480" stroke="#e6e6e6" stroke-linecap="butt"/><path d="m71.5 224.5h480" stroke="#e6e6e6" stroke-linecap="butt"/><path d="m71.5 186.5h480" stroke="#e6e6e6" stroke-linecap="butt"/><path d="m71.5 111.5h480" stroke="#e6e6e6" stroke-linecap="butt"/><path d="m71.5 74.5h480" stroke="#e6e6e6" stroke-linecap="butt"/><path d="m71.5 487.5v-451" stroke="#000" stroke-linecap="butt"/><path clip-path="url(#a)" d="m99 488h-18v-279h18z"/><path clip-path="url(#a)" d="m99 488h-18v-279h18z" fill="#5d4948"/><path clip-path="url(#a)" d="m126 488h-18v-279h18z"/><path clip-path="url(#a)" d="m126 488h-18v-279h18z" fill="#5d4948"/><path clip-path="url(#a)" d="m154 488h-18v-286h18z"/><path clip-path="url(#a)" d="m154 488h-18v-286h18z" fill="#5d4948"/><path clip-path="url(#a)" d="m182 488h-18v-294h18z"/><path clip-path="url(#a)" d="m182 488h-18v-294h18z" fill="#5d4948"/><path clip-path="url(#a)" d="m209 488h-18v-290h18z"/><path clip-path="url(#a)" d="m209 488h-18v-290h18z" fill="#5d4948"/><path clip-path="url(#a)" d="m237 488h-18v-277h18z"/><path clip-path="url(#a)" d="m237 488h-18v-277h18z" fill="#5d4948"/><path clip-path="url(#a)" d="m265 488h-18v-257h18z"/><path clip-path="url(#a)" d="m265 488h-18v-257h18z" fill="#5d4948"/><path clip-path="url(#a)" d="m292 488h-18v-255h18z"/><path clip-path="url(#a)" d="m292 488h-18v-255h18z" fill="#5d4948"/><path clip-path="url(#a)" d="m320 488h-18v-210h18z"/><path clip-path="url(#a)" d="m320 488h-18v-210h18z" fill="#5d4948"/><path clip-path="url(#a)" d="m348 488h-18v-191h18z"/><path clip-path="url(#a)" d="m348 488h-18v-191h18z" fill="#5d4948"/><path clip-path="url(#a)" d="m375 488h-18v-158h18z"/><path clip-path="url(#a)" d="m375 488h-18v-158h18z" fill="#5d4948"/><path clip-path="url(#a)" d="m403 488h-18v-147h18z"/><path clip-path="url(#a)" d="m403 488h-18v-147h18z" fill="#5d4948"/><path clip-path="url(#a)" d="m431 488h-18v-142h18z"/><path clip-path="url(#a)" d="m431 488h-18v-142h18z" fill="#5d4948"/><path clip-path="url(#a)" d="m458 488h-18v-143h18z"/><path clip-path="url(#a)" d="m458 488h-18v-143h18z" fill="#5d4948"/><path clip-path="url(#a)" d="m486 488h-18v-138h18z"/><path clip-path="url(#a)" d="m486 488h-18v-138h18z" fill="#5d4948"/><path clip-path="url(#a)" d="m514 488h-18v-133h18z"/><path clip-path="url(#a)" d="m514 488h-18v-133h18z" fill="#5d4948"/><path clip-path="url(#a)" d="m541 488h-18v-133h18z"/><path clip-path="url(#a)" d="m541 488h-18v-133h18z" fill="#5d4948"/><path clip-path="url(#a)" d="m99 209h-18v-2h18z"/><path clip-path="url(#a)" d="m99 209h-18v-2h18z" fill="#d03a3c"/><path clip-path="url(#a)" d="m126 209h-18v-2h18z"/><path clip-path="url(#a)" d="m126 209h-18v-2h18z" fill="#d03a3c"/><path clip-path="url(#a)" d="m154 202h-18v-3h18z"/><path clip-path="url(#a)" d="m154 202h-18v-3h18z" fill="#d03a3c"/><path clip-path="url(#a)" d="m182 194h-18v-3h18z"/><path clip-path="url(#a)" d="m182 194h-18v-3h18z" fill="#d03a3c"/><path clip-path="url(#a)" d="m209 198h-18v-2h18z"/><path clip-path="url(#a)" d="m209 198h-18v-2h18z" fill="#d03a3c"/><path clip-path="url(#a)" d="m237 211h-18v-3h18z"/><path clip-path="url(#a)" d="m237 211h-18v-3h18z" fill="#d03a3c"/><path clip-path="url(#a)" d="m265 231h-18v-5h18z"/><path clip-path="url(#a)" d="m265 231h-18v-5h18z" fill="#d03a3c"/><path clip-path="url(#a)" d="m292 233h-18v-7h18z"/><path clip-path="url(#a)" d="m292 233h-18v-7h18z" fill="#d03a3c"/><path clip-path="url(#a)" d="m320 278h-18v-6h18z"/><path clip-path="url(#a)" d="m320 278h-18v-6h18z" fill="#d03a3c"/><path clip-path="url(#a)" d="m348 297h-18v-5h18z"/><path clip-path="url(#a)" d="m348 297h-18v-5h18z" fill="#d03a3c"/><path clip-path="url(#a)" d="m375 330h-18v-3h18z"/><path clip-path="url(#a)" d="m375 330h-18v-3h18z" fill="#d03a3c"/><path clip-path="url(#a)" d="m403 341h-18v-3h18z"/><path clip-path="url(#a)" d="m403 341h-18v-3h18z" fill="#d03a3c"/><path clip-path="url(#a)" d="m431 346h-18v-4h18z"/><path clip-path="url(#a)" d="m431 346h-18v-4h18z" fill="#d03a3c"/><path clip-path="url(#a)" d="m458 345h-18v-5h18z"/><path clip-path="url(#a)" d="m458 345h-18v-5h18z" fill="#d03a3c"/><path clip-path="url(#a)" d="m486 350h-18v-3h18z"/><path clip-path="url(#a)" d="m486 350h-18v-3h18z" fill="#d03a3c"/><path clip-path="url(#a)" d="m514 355h-18v-3h18z"/><path clip-path="url(#a)" d="m514 355h-18v-3h18z" fill="#d03a3c"/><path clip-path="url(#a)" d="m541 355h-18v-3h18z"/><path clip-path="url(#a)" d="m541 355h-18v-3h18z" fill="#d03a3c"/><path clip-path="url(#a)" d="m99 207h-18v-21h18z"/><path clip-path="url(#a)" d="m99 207h-18v-21h18z" fill="#e6c900"/><path clip-path="url(#a)" d="m126 207h-18v-30h18z"/><path clip-path="url(#a)" d="m126 207h-18v-30h18z" fill="#e6c900"/><path clip-path="url(#a)" d="m154 199h-18v-34h18z"/><path clip-path="url(#a)" d="m154 199h-18v-34h18z" fill="#e6c900"/><path clip-path="url(#a)" d="m182 191h-18v-29h18z"/><path clip-path="url(#a)" d="m182 191h-18v-29h18z" fill="#e6c900"/><path clip-path="url(#a)" d="m209 196h-18v-35h18z"/><path clip-path="url(#a)" d="m209 196h-18v-35h18z" fill="#e6c900"/><path clip-path="url(#a)" d="m237 208h-18v-42h18z"/><path clip-path="url(#a)" d="m237 208h-18v-42h18z" fill="#e6c900"/><path clip-path="url(#a)" d="m265 226h-18v-50h18z"/><path clip-path="url(#a)" d="m265 226h-18v-50h18z" fill="#e6c900"/><path clip-path="url(#a)" d="m292 226h-18v-75h18z"/><path clip-path="url(#a)" d="m292 226h-18v-75h18z" fill="#e6c900"/><path clip-path="url(#a)" d="m320 272h-18v-80h18z"/><path clip-path="url(#a)" d="m320 272h-18v-80h18z" fill="#e6c900"/><path clip-path="url(#a)" d="m348 292h-18v-86h18z"/><path clip-path="url(#a)" d="m348 292h-18v-86h18z" fill="#e6c900"/><path clip-path="url(#a)" d="m375 327h-18v-104h18z"/><path clip-path="url(#a)" d="m375 327h-18v-104h18z" fill="#e6c900"/><path clip-path="url(#a)" d="m403 338h-18v-96h18z"/><path clip-path="url(#a)" d="m403 338h-18v-96h18z" fill="#e6c900"/><path clip-path="url(#a)" d="m431 342h-18v-98h18z"/><path clip-path="url(#a)" d="m431 342h-18v-98h18z" fill="#e6c900"/><path clip-path="url(#a)" d="m458 340h-18v-94h18z"/><path clip-path="url(#a)" d="m458 340h-18v-94h18z" fill="#e6c900"/><path clip-path="url(#a)" d="m486 347h-18v-126h18z"/><path clip-path="url(#a)" d="m486 347h-18v-126h18z" fill="#e6c900"/><path clip-path="url(#a)" d="m514 352h-18v-143h18z"/><path clip-path="url(#a)" d="m514 352h-18v-143h18z" fill="#e6c900"/><path clip-path="url(#a)" d="m541 352h-18v-131h18z"/><path clip-path="url(#a)" d="m541 352h-18v-131h18z" fill="#e6c900"/><path clip-path="url(#a)" d="m99 186h-18v-69h18z"/><path clip-path="url(#a)" d="m99 186h-18v-69h18z" fill="#00cdb2"/><path clip-path="url(#a)" d="m126 177h-18v-67h18z"/><path clip-path="url(#a)" d="m126 177h-18v-67h18z" fill="#00cdb2"/><path clip-path="url(#a)" d="m154 165h-18v-60h18z"/><path clip-path="url(#a)" d="m154 165h-18v-60h18z" fill="#00cdb2"/><path clip-path="url(#a)" d="m182 162h-18v-54h18z"/><path clip-path="url(#a)" d="m182 162h-18v-54h18z" fill="#00cdb2"/><path clip-path="url(#a)" d="m209 161h-18v-56h18z"/><path clip-path="url(#a)" d="m209 161h-18v-56h18z" fill="#00cdb2"/><path clip-path="url(#a)" d="m237 166h-18v-52h18z"/><path clip-path="url(#a)" d="m237 166h-18v-52h18z" fill="#00cdb2"/><path clip-path="url(#a)" d="m265 176h-18v-58h18z"/><path clip-path="url(#a)" d="m265 176h-18v-58h18z" fill="#00cdb2"/><path clip-path="url(#a)" d="m292 151h-18v-42h18z"/><path clip-path="url(#a)" d="m292 151h-18v-42h18z" fill="#00cdb2"/><path clip-path="url(#a)" d="m320 192h-18v-66h18z"/><path clip-path="url(#a)" d="m320 192h-18v-66h18z" fill="#00cdb2"/><path clip-path="url(#a)" d="m348 206h-18v-68h18z"/><path clip-path="url(#a)" d="m348 206h-18v-68h18z" fill="#00cdb2"/><path clip-path="url(#a)" d="m375 223h-18v-71h18z"/><path clip-path="url(#a)" d="m375 223h-18v-71h18z" fill="#00cdb2"/><path clip-path="url(#a)" d="m403 242h-18v-73h18z"/><path clip-path="url(#a)" d="m403 242h-18v-73h18z" fill="#00cdb2"/><path clip-path="url(#a)" d="m431 244h-18v-50h18z"/><path clip-path="url(#a)" d="m431 244h-18v-50h18z" fill="#00cdb2"/><path clip-path="url(#a)" d="m458 246h-18v-67h18z"/><path clip-path="url(#a)" d="m458 246h-18v-67h18z" fill="#00cdb2"/><path clip-path="url(#a)" d="m486 221h-18v-34h18z"/><path clip-path="url(#a)" d="m486 221h-18v-34h18z" fill="#00cdb2"/><path clip-path="url(#a)" d="m514 209h-18v-16h18z"/><path clip-path="url(#a)" d="m514 209h-18v-16h18z" fill="#00cdb2"/><path clip-path="url(#a)" d="m541 221h-18v-17h18z"/><path clip-path="url(#a)" d="m541 221h-18v-17h18z" fill="#00cdb2"/><path clip-path="url(#a)" d="m99 117h-18v-78c0-1.10457.89543-2 2-2h14c1.10457 0 2 .89543 2 2z"/><path clip-path="url(#a)" d="m99 117h-18v-78c0-1.10457.89543-2 2-2h14c1.10457 0 2 .89543 2 2z" fill="#38761d"/><path clip-path="url(#a)" d="m126 110h-18v-71c0-1.10457.89543-2 2-2h14c1.10457 0 2 .89543 2 2z"/><path clip-path="url(#a)" d="m126 110h-18v-71c0-1.10457.89543-2 2-2h14c1.10457 0 2 .89543 2 2z" fill="#38761d"/><path clip-path="url(#a)" d="m154 105h-18v-66c0-1.10457.89543-2 2-2h14c1.10457 0 2 .89543 2 2z"/><path clip-path="url(#a)" d="m154 105h-18v-66c0-1.10457.89543-2 2-2h14c1.10457 0 2 .89543 2 2z" fill="#38761d"/><path clip-path="url(#a)" d="m182 108h-18v-69c0-1.10457.89543-2 2-2h14c1.10457 0 2 .89543 2 2z"/><path clip-path="url(#a)" d="m182 108h-18v-69c0-1.10457.89543-2 2-2h14c1.10457 0 2 .89543 2 2z" fill="#38761d"/><path clip-path="url(#a)" d="m209 105h-18v-66c0-1.10457.89543-2 2-2h14c1.10457 0 2 .89543 2 2z"/><path clip-path="url(#a)" d="m209 105h-18v-66c0-1.10457.89543-2 2-2h14c1.10457 0 2 .89543 2 2z" fill="#38761d"/><path clip-path="url(#a)" d="m237 114h-18v-75c0-1.10457.89543-2 2-2h14c1.10457 0 2 .89543 2 2z"/><path clip-path="url(#a)" d="m237 114h-18v-75c0-1.10457.89543-2 2-2h14c1.10457 0 2 .89543 2 2z" fill="#38761d"/><path clip-path="url(#a)" d="m265 118h-18v-79c0-1.10457.89543-2 2-2h14c1.10458 0 2 .89543 2 2z"/><path clip-path="url(#a)" d="m265 118h-18v-79c0-1.10457.89543-2 2-2h14c1.10458 0 2 .89543 2 2z" fill="#38761d"/><path clip-path="url(#a)" d="m292 109h-18v-70c0-1.10457.89542-2 2-2h14c1.10458 0 2 .89543 2 2z"/><path clip-path="url(#a)" d="m292 109h-18v-70c0-1.10457.89542-2 2-2h14c1.10458 0 2 .89543 2 2z" fill="#38761d"/><path clip-path="url(#a)" d="m320 126h-18v-87c0-1.10457.89542-2 2-2h14c1.10458 0 2 .89543 2 2z"/><path clip-path="url(#a)" d="m320 126h-18v-87c0-1.10457.89542-2 2-2h14c1.10458 0 2 .89543 2 2z" fill="#38761d"/><path clip-path="url(#a)" d="m348 138h-18v-99c0-1.10457.89542-2 2-2h14c1.10458 0 2 .89543 2 2z"/><path clip-path="url(#a)" d="m348 138h-18v-99c0-1.10457.89542-2 2-2h14c1.10458 0 2 .89543 2 2z" fill="#38761d"/><path clip-path="url(#a)" d="m375 152h-18v-113c0-1.10457.89542-2 2-2h14c1.10458 0 2 .89543 2 2z"/><path clip-path="url(#a)" d="m375 152h-18v-113c0-1.10457.89542-2 2-2h14c1.10458 0 2 .89543 2 2z" fill="#38761d"/><path clip-path="url(#a)" d="m403 169h-18v-130c0-1.10457.89542-2 2-2h14c1.10458 0 2 .89543 2 2z"/><path clip-path="url(#a)" d="m403 169h-18v-130c0-1.10457.89542-2 2-2h14c1.10458 0 2 .89543 2 2z" fill="#38761d"/><path clip-path="url(#a)" d="m431 194h-18v-155c0-1.10457.89542-2 2-2h14c1.10458 0 2 .89543 2 2z"/><path clip-path="url(#a)" d="m431 194h-18v-155c0-1.10457.89542-2 2-2h14c1.10458 0 2 .89543 2 2z" fill="#38761d"/><path clip-path="url(#a)" d="m458 179h-18v-140c0-1.10457.89542-2 2-2h14c1.10458 0 2 .89543 2 2z"/><path clip-path="url(#a)" d="m458 179h-18v-140c0-1.10457.89542-2 2-2h14c1.10458 0 2 .89543 2 2z" fill="#38761d"/><path clip-path="url(#a)" d="m486 187h-18v-148c0-1.10457.89542-2 2-2h14c1.10458 0 2 .89543 2 2z"/><path clip-path="url(#a)" d="m486 187h-18v-148c0-1.10457.89542-2 2-2h14c1.10458 0 2 .89543 2 2z" fill="#38761d"/><path clip-path="url(#a)" d="m514 193h-18v-154c0-1.10457.89542-2 2-2h14c1.10455 0 2 .89543 2 2z"/><path clip-path="url(#a)" d="m514 193h-18v-154c0-1.10457.89542-2 2-2h14c1.10455 0 2 .89543 2 2z" fill="#38761d"/><path clip-path="url(#a)" d="m541 204h-18v-165c0-1.10457.89545-2 2-2h14c1.10455 0 2 .89543 2 2z"/><path clip-path="url(#a)" d="m541 204h-18v-165c0-1.10457.89545-2 2-2h14c1.10455 0 2 .89543 2 2z" fill="#38761d"/><path d="m65.5 487.5h12" stroke="#000" stroke-linecap="butt"/><path d="m65.5 374.5h12" stroke="#000" stroke-linecap="butt"/><path d="m65.5 262.5h12" stroke="#000" stroke-linecap="butt"/><path d="m65.5 149.5h12" stroke="#000" stroke-linecap="butt"/><path d="m65.5 36.5h12" stroke="#000" stroke-linecap="butt"/><g fill="#000"><path d="m49.0625 488.52603q0 1.90625-.65625 2.84375-.640625.92188-2.03125.92188-1.359375 0-2.015625-.90626-.65625-.90624-.6875-2.71874v-1.4375q0-1.89063.640625-2.79688.65625-.92188 2.046875-.92188 1.375 0 2.03125.89063.65625.875.671875 2.71875zm-1.09375-1.48437q0-1.375-.390625-2-.375-.64063-1.21875-.64063-.828125 0-1.21875.64063-.375.625-.375 1.92187v1.73437q0 1.375.390625 2.04688.40625.65625 1.21875.65625.796875 0 1.1875-.625.390625-.625.40625-1.95313zm2.640625-1.76563q0-.76563.484375-1.26563.5-.5 1.265625-.5.78125 0 1.265625.5.484375.5.484375 1.29688v.42188q0 .76562-.5 1.26562-.484375.48438-1.234375.48438-.765625 0-1.265625-.48438-.5-.5-.5-1.3125zm.8125.45313q0 .45312.25.75.265625.29687.703125.29687.421875 0 .671875-.28125.25-.29688.25-.79688v-.42187q0-.45313-.25-.75-.25-.3125-.6875-.3125-.4375 0-.6875.3125-.25.29687-.25.76563zm3.34375 4.34374q0-.76562.484375-1.25.5-.5 1.265625-.5.765625 0 1.25.5.5.48438.5 1.29688v.40625q0 .76563-.484375 1.26563-.484375.5-1.25.5-.765625 0-1.265625-.48438-.5-.5-.5-1.3125zm.8125.45313q0 .46875.25.76563.265625.29687.703125.29687.421875 0 .671875-.28125.25-.29688.25-.79688v-.4375q0-.46874-.265625-.75-.25-.29687-.671875-.29687-.421875 0-.6875.29687-.25.28126-.25.78126zm-2.953125 1-.625-.39063 4.171875-6.67187.609375.39063z"/><path d="m42.296875 379.375h-5.59375v-.78125l2.953125-3.28125q.65625-.75.90625-1.20312.25-.46876.25-.96876 0-.67187-.40625-1.09374-.390625-.4375-1.078125-.4375-.796875 0-1.25.46874-.453125.45313-.453125 1.28126h-1.078125q0-1.1875.75-1.90626.765625-.73437 2.03125-.73437 1.203125 0 1.890625.625.6875.625.6875 1.67187 0 1.25-1.609375 3l-2.28125 2.46876h4.28125zm1.90625-4.28125.4375-4.25h4.375v1h-3.453125l-.265625 2.32813q.640625-.375 1.4375-.375 1.15625 0 1.84375.78124.6875.76563.6875 2.07813 0 1.3125-.71875 2.07813-.703125.76562-1.984375.76562-1.125 0-1.84375-.625-.71875-.64062-.8125-1.75h1.015625q.109375.73438.53125 1.10938.421875.375 1.109375.375.75 0 1.1875-.51563.4375-.51563.4375-1.42187 0-.85938-.46875-1.375-.46875-.51563-1.25-.51563-.703125 0-1.109375.29687l-.28125.23438zm6.40625-2.60937q0-.76563.484375-1.26563.5-.5 1.265625-.5.78125 0 1.265625.5.484375.5.484375 1.29687v.42188q0 .76562-.5 1.26562-.484375.48438-1.234375.48438-.765625 0-1.265625-.48438-.5-.5-.5-1.3125zm.8125.45312q0 .45312.25.75.265625.29688.703125.29688.421875 0 .671875-.28126.25-.29687.25-.79687v-.42187q0-.45313-.25-.75-.25-.3125-.6875-.3125-.4375 0-.6875.3125-.25.29687-.25.76562zm3.34375 4.34375q0-.76563.484375-1.25.5-.5 1.265625-.5.765625 0 1.25.5.5.48437.5 1.29687v.40626q0 .76562-.484375 1.26562-.484375.5-1.25.5-.765625 0-1.265625-.48438-.5-.5-.5-1.3125zm.8125.45313q0 .46874.25.76562.265625.29688.703125.29688.421875 0 .671875-.28126.25-.29687.25-.79687v-.4375q0-.46875-.265625-.75-.25-.29687-.671875-.29687-.421875 0-.6875.29687-.25.28125-.25.78125zm-2.953125 1-.625-.39063 4.171875-6.67187.609375.39062z"/><path d="m37.203125 262.3021.4375-4.25h4.375v1h-3.453125l-.265625 2.32812q.640625-.375 1.4375-.375 1.15625 0 1.84375.78125.6875.76563.6875 2.07813 0 1.3125-.71875 2.07812-.703125.76562-1.984375.76562-1.125 0-1.84375-.625-.71875-.64062-.8125-1.75h1.015625q.109375.73438.53125 1.10938.421875.375 1.109375.375.75 0 1.1875-.51562.4375-.51563.4375-1.42188 0-.85938-.46875-1.375-.46875-.51562-1.25-.51562-.703125 0-1.109375.29687l-.28125.23437zm11.859375.64062q0 1.90625-.65625 2.84375-.640625.92187-2.03125.92187-1.359375 0-2.015625-.90624-.65625-.90626-.6875-2.71876v-1.4375q0-1.89062.640625-2.79687.65625-.92187 2.046875-.92187 1.375 0 2.03125.89062.65625.875.671875 2.71875zm-1.09375-1.48438q0-1.375-.390625-2-.375-.64062-1.21875-.64062-.828125 0-1.21875.64062-.375.625-.375 1.92188v1.73438q0 1.375.390625 2.04687.40625.65625 1.21875.65625.796875 0 1.1875-.625.390625-.625.40625-1.95312zm2.640625-1.76562q0-.76562.484375-1.26562.5-.5 1.265625-.5.78125 0 1.265625.5.484375.5.484375 1.29687v.42187q0 .76563-.5 1.26563-.484375.48437-1.234375.48437-.765625 0-1.265625-.48437-.5-.5-.5-1.3125zm.8125.45312q0 .45313.25.75.265625.29688.703125.29688.421875 0 .671875-.28125.25-.29687.25-.79687v-.42188q0-.45312-.25-.75-.25-.3125-.6875-.3125-.4375 0-.6875.3125-.25.29688-.25.76562zm3.34375 4.34376q0-.76563.484375-1.25.5-.5 1.265625-.5.765625 0 1.25.5.5.48437.5 1.29687v.40625q0 .76562-.484375 1.26562-.484375.5-1.25.5-.765625 0-1.265625-.48437-.5-.5-.5-1.3125zm.8125.45312q0 .46875.25.76562.265625.29688.703125.29688.421875 0 .671875-.28125.25-.29687.25-.79687v-.4375q0-.46876-.265625-.75-.25-.29688-.671875-.29688-.421875 0-.6875.29688-.25.28124-.25.78124zm-2.953125 1-.625-.39062 4.171875-6.67188.609375.39062z"/><path d="m42.21875 145.8698-3.53125 7.92187h-1.140625l3.515625-7.64062h-4.609375v-.89063h5.765625zm1.984375 3.64062.4375-4.25h4.375v1h-3.453125l-.265625 2.32813q.640625-.375 1.4375-.375 1.15625 0 1.84375.78125.6875.76562.6875 2.07812 0 1.3125-.71875 2.07813-.703125.76562-1.984375.76562-1.125 0-1.84375-.625-.71875-.64062-.8125-1.75h1.015625q.109375.73438.53125 1.10938.421875.375 1.109375.375.75 0 1.1875-.51563.4375-.51562.4375-1.42187 0-.85938-.46875-1.375-.46875-.51563-1.25-.51563-.703125 0-1.109375.29688l-.28125.23437zm6.40625-2.60937q0-.76563.484375-1.26563.5-.5 1.265625-.5.78125 0 1.265625.5.484375.5.484375 1.29688v.42187q0 .76563-.5 1.26563-.484375.48437-1.234375.48437-.765625 0-1.265625-.48437-.5-.5-.5-1.3125zm.8125.45312q0 .45313.25.75.265625.29688.703125.29688.421875 0 .671875-.28125.25-.29688.25-.79688v-.42187q0-.45313-.25-.75-.25-.3125-.6875-.3125-.4375 0-.6875.3125-.25.29687-.25.76562zm3.34375 4.34375q0-.76562.484375-1.25.5-.5 1.265625-.5.765625 0 1.25.5.5.48438.5 1.29688v.40625q0 .76562-.484375 1.26562-.484375.5-1.25.5-.765625 0-1.265625-.48437-.5-.5-.5-1.3125zm.8125.45313q0 .46875.25.76562.265625.29688.703125.29688.421875 0 .671875-.28125.25-.29688.25-.79688v-.4375q0-.46875-.265625-.75-.25-.29687-.671875-.29687-.421875 0-.6875.29687-.25.28125-.25.78125zm-2.953125 1-.625-.39063 4.171875-6.67187.609375.39062z"/><path d="m33.265625 41h-1.078125v-7.21875l-2.1875.796875v-.984375l3.109375-1.171875h.15625zm8.796875-3.640625q0 1.90625-.65625 2.84375-.640625.921875-2.03125.921875-1.359375 0-2.015625-.90625-.65625-.90625-.6875-2.71875v-1.4375q0-1.890625.640625-2.796875.65625-.921875 2.046875-.921875 1.375 0 2.03125.890625.65625.875.671875 2.71875zm-1.09375-1.484375q0-1.375-.390625-2-.375-.640625-1.21875-.640625-.828125 0-1.21875.640625-.375.625-.375 1.921875v1.734375q0 1.375.390625 2.046875.40625.65625 1.21875.65625.796875 0 1.1875-.625.390625-.625.40625-1.953125zm8.09375 1.484375q0 1.90625-.65625 2.84375-.640625.921875-2.03125.921875-1.359375 0-2.015625-.90625-.65625-.90625-.6875-2.71875v-1.4375q0-1.890625.640625-2.796875.65625-.921875 2.046875-.921875 1.375 0 2.03125.890625.65625.875.671875 2.71875zm-1.09375-1.484375q0-1.375-.390625-2-.375-.640625-1.21875-.640625-.828125 0-1.21875.640625-.375.625-.375 1.921875v1.734375q0 1.375.390625 2.046875.40625.65625 1.21875.65625.796875 0 1.1875-.625.390625-.625.40625-1.953125zm2.640625-1.765625q0-.765625.484375-1.265625.5-.5 1.265625-.5.78125 0 1.265625.5.484375.5.484375 1.296875v.421875q0 .765625-.5 1.265625-.484375.484375-1.234375.484375-.765625 0-1.265625-.484375-.5-.5-.5-1.3125zm.8125.453125q0 .453125.25.75.265625.296875.703125.296875.421875 0 .671875-.28125.25-.296875.25-.796875v-.421875q0-.453125-.25-.75-.25-.3125-.6875-.3125-.4375 0-.6875.3125-.25.296875-.25.765625zm3.34375 4.34375q0-.765625.484375-1.25.5-.5 1.265625-.5.765625 0 1.25.5.5.484375.5 1.296875v.40625q0 .765625-.484375 1.265625-.484375.5-1.25.5-.765625 0-1.265625-.484375-.5-.5-.5-1.3125zm.8125.453125q0 .46875.25.765625.265625.296875.703125.296875.421875 0 .671875-.28125.25-.296875.25-.796875v-.4375q0-.46875-.265625-.75-.25-.296875-.671875-.296875-.421875 0-.6875.296875-.25.28125-.25.78125zm-2.953125 1-.625-.390625 4.171875-6.671875.609375.390625z"/><path d="m94.17433 515.2448v5.84376h-1.15625l-2.95312-2.76562q-.60938-.5625-1.07813-.82814-.46875-.28124-.875-.28124-.57812 0-.89062.29688-.32813.28126-.32813.8125 0 .57812.39063.90626.39062.3281 1.04687.3281v1.70314q-.78125 0-1.42187-.375-.65625-.375-1.01563-1.04688-.375-.6875-.375-1.54686 0-1.3125.64063-2.0469.625-.73436 1.78125-.73436.64062 0 1.29687.32812.65625.32814 1.53125 1.125l2.04688 1.9375v-3.65626zm-3.53125-6.90627q1.76563 0 2.71875.73437.9375.73438.9375 2.14063 0 1.40627-.92187 2.14067-.92188.73436-2.64063.75h-1.57812q-1.78125 0-2.70313-.7344-.9375-.75-.9375-2.14064 0-1.39063.92188-2.125.92187-.75 2.64062-.76563zm-1.71875 1.70313q-1.0625 0-1.54687.29687-.48438.28125-.48438.89063 0 .59374.46875.89064.45313.28126 1.4375.2969h2.0625q1.04688 0 1.5625-.28126.5-.28128.5-.92191 0-.60937-.48437-.89063-.48438-.28124-1.48438-.28124zm1.71875-8.70313q1.76563 0 2.71875.73437.9375.73438.9375 2.14063 0 1.40625-.92187 2.14063-.92188.73437-2.64063.75h-1.57812q-1.78125 0-2.70313-.73438-.9375-.75-.9375-2.14062 0-1.39063.92188-2.125.92187-.75 2.64062-.76563zm-1.71875 1.70313q-1.0625 0-1.54687.29687-.48438.28125-.48438.89063 0 .59374.46875.89062.45313.28125 1.4375.29688h2.0625q1.04688 0 1.5625-.28126.5-.28124.5-.92187 0-.60937-.48437-.89063-.48438-.28124-1.48438-.28124zm1.04688-3.20313-4.32813-.5v-4.78125h1.40625v3.39062l1.84375.21876q-.32812-.60938-.32812-1.28126 0-1.21874.76562-1.90624.75-.70313 2.10938-.70313.82812 0 1.48437.35937.64063.34376 1.01563 1 .35937.64063.35937 1.53126 0 .76562-.3125 1.4375-.32812.65624-.89062 1.04687-.5625.375-1.29688.40625v-1.6875q.53125-.04688.82813-.35938.29687-.32812.29687-.84374 0-.57813-.40625-.875-.42187-.3125-1.17187-.3125-.73438 0-1.10938.35937-.39062.34375-.39062 1 0 .60937.3125.98437l.15625.15626z"/><path d="m121.840034 515.2448v5.84376h-1.15625l-2.953124-2.76562q-.609376-.5625-1.078126-.82814-.46875-.28124-.875-.28124-.578124 0-.890624.29688-.328126.28126-.328126.8125 0 .57812.390626.90626.390624.3281 1.046874.3281v1.70314q-.78125 0-1.421874-.375-.65625-.375-1.015626-1.04688-.375-.6875-.375-1.54686 0-1.3125.640626-2.0469.625-.73436 1.78125-.73436.640624 0 1.296874.32812.65625.32814 1.53125 1.125l2.046876 1.9375v-3.65626zm-3.53125-6.90627q1.765626 0 2.71875.73437.9375.73438.9375 2.14063 0 1.40627-.921874 2.14067-.921876.73436-2.640626.75h-1.578124q-1.78125 0-2.703126-.7344-.9375-.75-.9375-2.14064 0-1.39063.921876-2.125.921874-.75 2.640624-.76563zm-1.71875 1.70313q-1.0625 0-1.546874.29687-.484376.28125-.484376.89063 0 .59374.46875.89064.453126.28126 1.4375.2969h2.0625q1.046876 0 1.5625-.28126.5-.28128.5-.92191 0-.60937-.484374-.89063-.484376-.28124-1.484376-.28124zm1.71875-8.70313q1.765626 0 2.71875.73437.9375.73438.9375 2.14063 0 1.40625-.921874 2.14063-.921876.73437-2.640626.75h-1.578124q-1.78125 0-2.703126-.73438-.9375-.75-.9375-2.14062 0-1.39063.921876-2.125.921874-.75 2.640624-.76563zm-1.71875 1.70313q-1.0625 0-1.546874.29687-.484376.28125-.484376.89063 0 .59374.46875.89062.453126.28125 1.4375.29688h2.0625q1.046876 0 1.5625-.28126.5-.28124.5-.92187 0-.60937-.484374-.89063-.484376-.28124-1.484376-.28124zm-3.375-7.54688h1.40625v.15625q.015626 1.15625.59375 1.85937.578126.6875 1.609376.82813-.6875-.67187-.6875-1.70313 0-1.125.796874-1.78124.796876-.65626 2.09375-.65626.828126 0 1.5.35938.671876.35938 1.0625 1.03125.375.65625.375 1.48437 0 1.34376-.9375 2.17188-.953124.82812-2.515624.82812h-.609376q-1.390624 0-2.453124-.51562-1.0625-.53125-1.640626-1.5-.578124-.98438-.59375-2.28125zm4.28125 1.65625q0 .40625.21875.75.203126.32813.5625.48437h.515626q.84375 0 1.328124-.32812.46875-.34375.46875-.95312 0-.54688-.421874-.875-.4375-.34376-1.125-.34376-.703126 0-1.125.34376-.421876.34374-.421876.92187z"/><path d="m149.50574 515.2448v5.84376h-1.15625l-2.95313-2.76562q-.60937-.5625-1.07812-.82814-.46875-.28124-.875-.28124-.57813 0-.89063.29688-.32812.28126-.32812.8125 0 .57812.39062.90626.39063.3281 1.04688.3281v1.70314q-.78125 0-1.42188-.375-.65625-.375-1.01562-1.04688-.375-.6875-.375-1.54686 0-1.3125.64062-2.0469.625-.73436 1.78125-.73436.64063 0 1.29688.32812.65625.32814 1.53125 1.125l2.04687 1.9375v-3.65626zm-3.53125-6.90624q1.76562 0 2.71875.73438.9375.73436.9375 2.14062 0 1.40624-.92188 2.14064-.92187.73436-2.64062.75h-1.57813q-1.78125 0-2.70312-.7344-.9375-.75-.9375-2.1406 0-1.39064.92187-2.125.92188-.75 2.64063-.76564zm-1.71875 1.70314q-1.0625 0-1.54688.29686-.48437.28124-.48437.89064 0 .59374.46875.8906.45312.28126 1.4375.2969h2.0625q1.04687 0 1.5625-.28126.5-.28124.5-.92188 0-.60936-.48438-.89062-.48437-.28124-1.48437-.28124zm1.71875-8.70314q1.76562 0 2.71875.73438.9375.73436.9375 2.14062 0 1.40624-.92188 2.14064-.92187.73436-2.64062.75h-1.57813q-1.78125 0-2.70312-.7344-.9375-.75-.9375-2.1406 0-1.39064.92187-2.125.92188-.75 2.64063-.76564zm-1.71875 1.70314q-1.0625 0-1.54688.29686-.48437.28124-.48437.89064 0 .59374.46875.8906.45312.28126 1.4375.2969h2.0625q1.04687 0 1.5625-.28126.5-.28124.5-.92188 0-.60936-.48438-.89062-.48437-.28124-1.48437-.28124zm-2.32813-8.75 7.57813 3.29686v1.78124l-7.15625-3.29686v4.23436h-1.375v-6.0156z"/><path d="m177.17145 515.2448v5.84376h-1.15625l-2.95313-2.76562q-.60937-.5625-1.07812-.82814-.46875-.28124-.875-.28124-.57813 0-.89063.29688-.32812.28126-.32812.8125 0 .57812.39062.90626.39063.3281 1.04688.3281v1.70314q-.78125 0-1.42188-.375-.65625-.375-1.01562-1.04688-.375-.6875-.375-1.54686 0-1.3125.64062-2.0469.625-.73436 1.78125-.73436.64063 0 1.29688.32812.65625.32814 1.53125 1.125l2.04687 1.9375v-3.65626zm-3.53125-6.90627q1.76562 0 2.71875.73437.9375.73438.9375 2.14063 0 1.40627-.92188 2.14067-.92187.73436-2.64062.75h-1.57813q-1.78125 0-2.70312-.7344-.9375-.75-.9375-2.14064 0-1.39063.92187-2.125.92188-.75 2.64063-.76563zm-1.71875 1.70313q-1.0625 0-1.54688.29687-.48437.28125-.48437.89063 0 .59374.46875.89064.45312.28126 1.4375.2969h2.0625q1.04687 0 1.5625-.28126.5-.28128.5-.92191 0-.60937-.48438-.89063-.48437-.28124-1.48437-.28124zm1.71875-8.70313q1.76562 0 2.71875.73437.9375.73438.9375 2.14063 0 1.40625-.92188 2.14063-.92187.73437-2.64062.75h-1.57813q-1.78125 0-2.70312-.73438-.9375-.75-.9375-2.14062 0-1.39063.92187-2.125.92188-.75 2.64063-.76563zm-1.71875 1.70313q-1.0625 0-1.54688.29687-.48437.28125-.48437.89063 0 .59374.46875.89062.45312.28125 1.4375.29688h2.0625q1.04687 0 1.5625-.28126.5-.28124.5-.92187 0-.60937-.48438-.89063-.48437-.28124-1.48437-.28124zm-1.01563-8.51563q.625 0 1.10938.3125.46875.3125.76562.85937.29688-.625.82813-.98437.51562-.375 1.21875-.375 1.14062 0 1.8125.78125.65625.76562.65625 2.10938 0 1.32812-.65625 2.10937-.67188.76563-1.8125.76563-.70313 0-1.23438-.35938-.53125-.35938-.8125-.98438-.29687.54688-.76562.85938-.48438.3125-1.10938.3125-1.09375 0-1.73437-.71875-.65625-.73437-.65625-1.98437 0-1.25.65625-1.96876.64062-.73437 1.73437-.73437zm3.79688 1.51563q-.54688 0-.875.32812-.34375.3125-.34375.85938 0 .54687.32812.875.32813.3125.89063.3125.54687 0 .89062-.3125.32813-.32813.32813-.89063 0-.54687-.3125-.85937-.32813-.3125-.90625-.3125zm-3.71875.17187q-.5 0-.79688.26563-.29687.26562-.29687.75 0 .46874.29687.73437.28125.26563.79688.26563.51562 0 .82812-.26563.3125-.26563.3125-.73437 0-.48438-.3125-.75-.3125-.26563-.82812-.26563z"/><path d="m204.83716 515.2448v5.84376h-1.15625l-2.95313-2.76562q-.60937-.5625-1.07812-.82814-.46875-.28124-.875-.28124-.57813 0-.89063.29688-.32812.28126-.32812.8125 0 .57812.39062.90626.39063.3281 1.04688.3281v1.70314q-.78125 0-1.42188-.375-.65625-.375-1.01562-1.04688-.375-.6875-.375-1.54686 0-1.3125.64062-2.0469.625-.73436 1.78125-.73436.64063 0 1.29688.32812.65625.32814 1.53125 1.125l2.04687 1.9375v-3.65626zm-3.53125-6.90627q1.76562 0 2.71875.73437.9375.73438.9375 2.14063 0 1.40627-.92188 2.14067-.92187.73436-2.64062.75h-1.57813q-1.78125 0-2.70312-.7344-.9375-.75-.9375-2.14064 0-1.39063.92187-2.125.92188-.75 2.64063-.76563zm-1.71875 1.70313q-1.0625 0-1.54688.29687-.48437.28125-.48437.89063 0 .59374.46875.89064.45312.28126 1.4375.2969h2.0625q1.04687 0 1.5625-.28126.5-.28128.5-.92191 0-.60937-.48438-.89063-.48437-.28124-1.48437-.28124zm1.71875-8.70313q1.76562 0 2.71875.73437.9375.73438.9375 2.14063 0 1.40625-.92188 2.14063-.92187.73437-2.64062.75h-1.57813q-1.78125 0-2.70312-.73438-.9375-.75-.9375-2.14062 0-1.39063.92187-2.125.92188-.75 2.64063-.76563zm-1.71875 1.70313q-1.0625 0-1.54688.29687-.48437.28125-.48437.89063 0 .59374.46875.89062.45312.28125 1.4375.29688h2.0625q1.04687 0 1.5625-.28126.5-.28124.5-.92187 0-.60937-.48438-.89063-.48437-.28124-1.48437-.28124zm1.84375-6.92188q.64062.67188.64062 1.54688 0 1.14062-.76562 1.82812-.78125.67188-2.09375.67188-.84375 0-1.54688-.35938-.70312-.375-1.09375-1.03125-.39062-.65625-.39062-1.48437 0-.84376.42187-1.5.42188-.65626 1.21875-1.01563.79688-.35937 1.8125-.375h.625q2.14063 0 3.35938 1.0625 1.21875 1.0625 1.29687 3.01563v.40624h-1.40625l-.01562-.375q-.09375-2.20312-2.0625-2.39062zm-.65625 1.14062q0-.42187-.20313-.70312-.21875-.29688-.51562-.45312h-.6875q-.85938 0-1.32813.32812-.48437.32812-.48437.875 0 .51562.46875.84375.45312.32813 1.15625.32813.70312 0 1.15625-.3125.4375-.32813.4375-.90626z"/><path d="m232.50287 515.2448v5.84376h-1.15625l-2.95312-2.76562q-.60938-.5625-1.07813-.82814-.46875-.28124-.875-.28124-.57813 0-.89063.29688-.32812.28126-.32812.8125 0 .57812.39062.90626.39063.3281 1.04688.3281v1.70314q-.78125 0-1.42188-.375-.65624-.375-1.01562-1.04688-.375-.6875-.375-1.54686 0-1.3125.64062-2.0469.625-.73436 1.78126-.73436.64062 0 1.29687.32812.65625.32814 1.53125 1.125l2.04688 1.9375v-3.65626zm-3.53125-6.90627q1.76562 0 2.71875.73437.9375.73438.9375 2.14063 0 1.40627-.92187 2.14067-.92188.73436-2.64063.75h-1.57813q-1.78124 0-2.70312-.7344-.9375-.75-.9375-2.14064 0-1.39063.92188-2.125.92187-.75 2.64062-.76563zm-1.71875 1.70313q-1.0625 0-1.54687.29687-.48438.28125-.48438.89063 0 .59374.46875.89064.45313.28126 1.4375.2969h2.0625q1.04687 0 1.5625-.28126.5-.28128.5-.92191 0-.60937-.48437-.89063-.48438-.28124-1.48438-.28124zm5.25-7.0625v1.6875h-6.53125l.625 2.01562h-1.375l-1.26562-3.53125v-.17187zm-3.53125-8.64063q1.76562 0 2.71875.73437.9375.73438.9375 2.14063 0 1.40625-.92187 2.14063-.92188.73437-2.64063.75h-1.57813q-1.78124 0-2.70312-.73438-.9375-.75-.9375-2.14062 0-1.39063.92188-2.125.92187-.75 2.64062-.76563zm-1.71875 1.70313q-1.0625 0-1.54687.29687-.48438.28125-.48438.89063 0 .59374.46875.89062.45313.28125 1.4375.29688h2.0625q1.04687 0 1.5625-.28126.5-.28124.5-.92187 0-.60937-.48437-.89063-.48438-.28124-1.48438-.28124z"/><path d="m260.16858 515.24475v5.84375h-1.15625l-2.95313-2.7656q-.60939-.5625-1.07814-.82815-.46875-.28125-.875-.28125-.57812 0-.89062.2969-.32813.2812-.32813.8125 0 .5781.39063.9062.39062.32815 1.04687.32815v1.70315q-.78125 0-1.42187-.375-.65625-.375-1.01563-1.0469-.375-.6875-.375-1.5469 0-1.3125.64063-2.04685.625-.73435 1.78125-.73435.64062 0 1.29687.3281.65625.3281 1.53127 1.125l2.04687 1.9375v-3.65625zm-3.53125-6.90622q1.76562 0 2.71875.73437.9375.73438.9375 2.14063 0 1.40622-.92188 2.14057-.92187.7344-2.64062.75h-1.57814q-1.78125 0-2.70313-.73435-.9375-.75-.9375-2.14059 0-1.39063.92188-2.125.92187-.75 2.64062-.76563zm-1.71877 1.70313q-1.0625 0-1.54687.29687-.48438.28125-.48438.89063 0 .59374.46875.89059.45313.28125 1.4375.29685h2.06252q1.04687 0 1.5625-.2812.5-.28124.5-.92187 0-.60937-.48438-.89063-.48437-.28124-1.48437-.28124zm5.25002-7.0625v1.6875h-6.53127l.625 2.01562h-1.375l-1.26562-3.53125v-.17187zm0-7v1.6875h-6.53127l.625 2.01562h-1.375l-1.26562-3.53125v-.17187z"/><path d="m287.83426 515.2448v5.84376h-1.15626l-2.95312-2.76562q-.60938-.5625-1.07812-.82814-.46876-.28124-.875-.28124-.57813 0-.89063.29688-.32813.28126-.32813.8125 0 .57812.39063.90626.39063.3281 1.04687.3281v1.70314q-.78124 0-1.42187-.375-.65625-.375-1.01563-1.04688-.375-.6875-.375-1.54686 0-1.3125.64063-2.0469.625-.73436 1.78125-.73436.64062 0 1.29688.32812.65624.32814 1.53124 1.125l2.04688 1.9375v-3.65626zm-3.53126-6.90624q1.76563 0 2.71876.73438.9375.73436.9375 2.14062 0 1.40624-.92188 2.14064-.92188.73436-2.64062.75h-1.57813q-1.78125 0-2.70313-.7344-.9375-.75-.9375-2.1406 0-1.39064.92188-2.125.92188-.75 2.64062-.76564zm-1.71874 1.70314q-1.0625 0-1.54688.29686-.48438.28124-.48438.89064 0 .59374.46876.8906.45312.28126 1.4375.2969h2.0625q1.04687 0 1.5625-.28126.5-.28124.5-.92188 0-.60936-.48438-.89062-.48438-.28124-1.48438-.28124zm5.25-7.0625v1.6875h-6.53126l.625 2.0156h-1.375l-1.26562-3.53124v-.17186zm0-8.7344v5.84376h-1.15626l-2.95312-2.76562q-.60938-.5625-1.07812-.82814-.46876-.28124-.875-.28124-.57813 0-.89063.29688-.32813.28126-.32813.8125 0 .57812.39063.90626.39063.3281 1.04687.3281v1.70314q-.78124 0-1.42187-.375-.65625-.375-1.01563-1.04688-.375-.6875-.375-1.54686 0-1.3125.64063-2.0469.625-.73436 1.78125-.73436.64062 0 1.29688.32812.65624.32814 1.53124 1.125l2.04688 1.9375v-3.65626z"/><path d="m315.49997 515.2448v5.84376h-1.15625l-2.95312-2.76562q-.60938-.5625-1.07813-.82814-.46875-.28124-.875-.28124-.57813 0-.89063.29688-.32812.28126-.32812.8125 0 .57812.39062.90626.39063.3281 1.04688.3281v1.70314q-.78125 0-1.42188-.375-.65624-.375-1.01562-1.04688-.375-.6875-.375-1.54686 0-1.3125.64062-2.0469.625-.73436 1.78126-.73436.64062 0 1.29687.32812.65625.32814 1.53125 1.125l2.04688 1.9375v-3.65626zm-3.53125-6.90624q1.76562 0 2.71875.73438.9375.73436.9375 2.14062 0 1.40624-.92187 2.14064-.92188.73436-2.64063.75h-1.57813q-1.78124 0-2.70312-.7344-.9375-.75-.9375-2.1406 0-1.39064.92188-2.125.92187-.75 2.64062-.76564zm-1.71875 1.70314q-1.0625 0-1.54687.29686-.48438.28124-.48438.89064 0 .59374.46875.8906.45313.28126 1.4375.2969h2.0625q1.04687 0 1.5625-.28126.5-.28124.5-.92188 0-.60936-.48437-.89062-.48438-.28124-1.48438-.28124zm5.25-7.0625v1.6875h-6.53125l.625 2.0156h-1.375l-1.26562-3.53124v-.17186zm-5.01563-4.6094v-.90624q0-.64062-.3125-.95312-.32812-.3125-.85937-.3125-.51563 0-.79687.3125-.29688.29686-.29688.84376 0 .48436.26562.8125.26563.3281.6875.3281v1.6875q-.65624 0-1.1875-.35936-.53124-.35938-.82812-1-.3125-.65624-.3125-1.4375 0-1.34374.65625-2.10938.64063-.78126 1.78125-.78126.59375 0 1.09375.3594.48437.35936.73437.9375.26563-.71876.78126-1.0625.51562-.3594 1.21874-.3594 1.14063 0 1.82813.82814.6875.82812.6875 2.1875 0 1.28126-.67187 2.09376-.6875.8125-1.79688.8125v-1.6875q.48438 0 .79688-.3594.29687-.375.29687-.8906 0-.6094-.3125-.95314-.32813-.34376-.85937-.34376-1.26563 0-1.26563 1.40626v.90624z"/><path d="m343.16568 515.2448v5.84376h-1.15625l-2.95313-2.76562q-.60937-.5625-1.07812-.82814-.46875-.28124-.875-.28124-.57813 0-.89063.29688-.32812.28126-.32812.8125 0 .57812.39062.90626.39063.3281 1.04688.3281v1.70314q-.78125 0-1.42188-.375-.65625-.375-1.01562-1.04688-.375-.6875-.375-1.54686 0-1.3125.64062-2.0469.625-.73436 1.78125-.73436.64063 0 1.29688.32812.65625.32814 1.53125 1.125l2.04687 1.9375v-3.65626zm-3.53125-6.90624q1.76562 0 2.71875.73438.9375.73436.9375 2.14062 0 1.40624-.92188 2.14064-.92187.73436-2.64062.75h-1.57813q-1.78125 0-2.70312-.7344-.9375-.75-.9375-2.1406 0-1.39064.92187-2.125.92188-.75 2.64063-.76564zm-1.71875 1.70314q-1.0625 0-1.54688.29686-.48437.28124-.48437.89064 0 .59374.46875.8906.45312.28126 1.4375.2969h2.0625q1.04687 0 1.5625-.28126.5-.28124.5-.92188 0-.60936-.48438-.89062-.48437-.28124-1.48437-.28124zm5.25-7.0625v1.6875h-6.53125l.625 2.0156h-1.375l-1.26563-3.53124v-.17186zm-3.21875-7.90626v-.96874h1.375v.96874h1.84375v1.70312h-1.84375v3.48438l-1.0625.07812-5.625-3.54686v-1.71876zm0 3.57812v-1.875h-3l.1875.10938z"/><path d="m370.8314 515.2448v5.84376h-1.15626l-2.95312-2.76562q-.60938-.5625-1.07812-.82814-.46876-.28124-.875-.28124-.57813 0-.89063.29688-.32813.28126-.32813.8125 0 .57812.39063.90626.39063.3281 1.04687.3281v1.70314q-.78124 0-1.42187-.375-.65625-.375-1.01563-1.04688-.375-.6875-.375-1.54686 0-1.3125.64063-2.0469.625-.73436 1.78125-.73436.64062 0 1.29688.32812.65624.32814 1.53124 1.125l2.04688 1.9375v-3.65626zm-3.53126-6.90627q1.76563 0 2.71876.73437.9375.73438.9375 2.14063 0 1.40627-.92188 2.14067-.92188.73436-2.64062.75h-1.57813q-1.78125 0-2.70313-.7344-.9375-.75-.9375-2.14064 0-1.39063.92188-2.125.92188-.75 2.64062-.76563zm-1.71874 1.70313q-1.0625 0-1.54688.29687-.48438.28125-.48438.89063 0 .59374.46876.89064.45312.28126 1.4375.2969h2.0625q1.04687 0 1.5625-.28126.5-.28128.5-.92191 0-.60937-.48438-.89063-.48438-.28124-1.48438-.28124zm5.25-7.0625v1.6875h-6.53126l.625 2.01562h-1.375l-1.26562-3.53125v-.17187zm-4.20313-3.14063-4.32813-.5v-4.78125h1.40626v3.39062l1.84374.21876q-.32812-.60938-.32812-1.28126 0-1.21874.76562-1.90624.75-.70313 2.10938-.70313.82812 0 1.48438.35937.64062.34376 1.01562 1 .35938.64063.35938 1.53126 0 .76562-.3125 1.4375-.32813.65624-.89063 1.04687-.5625.375-1.29687.40625v-1.6875q.53124-.04688.82812-.35938.29688-.32812.29688-.84374 0-.57813-.40626-.875-.42187-.3125-1.17187-.3125-.73437 0-1.10937.35937-.39063.34375-.39063 1 0 .60937.3125.98437l.15625.15626z"/><path d="m398.4971 515.2448v5.84376h-1.15625l-2.95312-2.76562q-.60938-.5625-1.07813-.82814-.46875-.28124-.875-.28124-.57812 0-.89062.29688-.32813.28126-.32813.8125 0 .57812.39063.90626.39062.3281 1.04687.3281v1.70314q-.78125 0-1.42187-.375-.65625-.375-1.01563-1.04688-.375-.6875-.375-1.54686 0-1.3125.64063-2.0469.625-.73436 1.78125-.73436.64062 0 1.29687.32812.65625.32814 1.53125 1.125l2.04688 1.9375v-3.65626zm-3.53125-6.90627q1.76563 0 2.71875.73437.9375.73438.9375 2.14063 0 1.40627-.92187 2.14067-.92188.73436-2.64063.75h-1.57812q-1.78125 0-2.70313-.7344-.9375-.75-.9375-2.14064 0-1.39063.92188-2.125.92187-.75 2.64062-.76563zm-1.71875 1.70313q-1.0625 0-1.54687.29687-.48438.28125-.48438.89063 0 .59374.46875.89064.45313.28126 1.4375.2969h2.0625q1.04688 0 1.5625-.28126.5-.28128.5-.92191 0-.60937-.48437-.89063-.48438-.28124-1.48438-.28124zm5.25-7.0625v1.6875h-6.53125l.625 2.01562h-1.375l-1.26562-3.53125v-.17187zm-8.625-7.48438h1.40625v.15625q.01563 1.15625.59375 1.85937.57813.6875 1.60938.82813-.6875-.67187-.6875-1.70313 0-1.125.79687-1.78124.79688-.65626 2.09375-.65626.82813 0 1.5.35938.67188.35938 1.0625 1.03125.375.65625.375 1.48437 0 1.34376-.9375 2.17188-.95312.82812-2.51562.82812h-.60938q-1.39062 0-2.45312-.51562-1.0625-.53125-1.64063-1.5-.57812-.98438-.59375-2.28125zm4.28125 1.65625q0 .40625.21875.75.20313.32813.5625.48437h.51563q.84375 0 1.32812-.32812.46875-.34375.46875-.95312 0-.54688-.42187-.875-.4375-.34376-1.125-.34376-.70313 0-1.125.34376-.42188.34374-.42188.92187z"/><path d="m426.1628 515.2448v5.84376h-1.15624l-2.95312-2.76562q-.60938-.5625-1.07814-.82814-.46874-.28124-.875-.28124-.5781 0-.8906.29688-.32814.28126-.32814.8125 0 .57812.39064.90626.3906.3281 1.04686.3281v1.70314q-.78126 0-1.42186-.375-.65626-.375-1.01564-1.04688-.375-.6875-.375-1.54686 0-1.3125.64064-2.0469.625-.73436 1.78124-.73436.64062 0 1.29686.32812.65626.32814 1.53126 1.125l2.04688 1.9375v-3.65626zm-3.53124-6.90624q1.76564 0 2.71874.73438.9375.73436.9375 2.14062 0 1.40624-.92186 2.14064-.92188.73436-2.64064.75h-1.5781q-1.78126 0-2.70314-.7344-.9375-.75-.9375-2.1406 0-1.39064.92188-2.125.92186-.75 2.64062-.76564zm-1.71876 1.70314q-1.0625 0-1.54686.29686-.48438.28124-.48438.89064 0 .59374.46874.8906.45314.28126 1.4375.2969h2.0625q1.0469 0 1.5625-.28126.5-.28124.5-.92188 0-.60936-.48436-.89062-.48438-.28124-1.48438-.28124zm5.25-7.0625v1.6875h-6.53124l.625 2.0156h-1.375l-1.26562-3.53124v-.17186zm-7.5781-8.6875 7.5781 3.29686v1.78124l-7.15624-3.29686v4.23436h-1.375v-6.0156z"/><path d="m453.82852 515.2448v5.84376h-1.15625l-2.95312-2.76562q-.60938-.5625-1.07813-.82814-.46875-.28124-.875-.28124-.57812 0-.89062.29688-.32813.28126-.32813.8125 0 .57812.39063.90626.39062.3281 1.04687.3281v1.70314q-.78125 0-1.42187-.375-.65625-.375-1.01563-1.04688-.375-.6875-.375-1.54686 0-1.3125.64063-2.0469.625-.73436 1.78125-.73436.64062 0 1.29687.32812.65625.32814 1.53125 1.125l2.04688 1.9375v-3.65626zm-3.53125-6.90624q1.76563 0 2.71875.73438.9375.73436.9375 2.14062 0 1.40624-.92187 2.14064-.92188.73436-2.64063.75h-1.57812q-1.78125 0-2.70313-.7344-.9375-.75-.9375-2.1406 0-1.39064.92188-2.125.92187-.75 2.64062-.76564zm-1.71875 1.70314q-1.0625 0-1.54687.29686-.48438.28124-.48438.89064 0 .59374.46875.8906.45313.28126 1.4375.2969h2.0625q1.04688 0 1.5625-.28126.5-.28124.5-.92188 0-.60936-.48437-.89062-.48438-.28124-1.48438-.28124zm5.25-7.0625v1.6875h-6.53125l.625 2.0156h-1.375l-1.26562-3.53124v-.17186zm-6.26562-8.45314q.625 0 1.10937.3125.46875.3125.76563.85938.29687-.625.82812-.98438.51563-.375 1.21875-.375 1.14063 0 1.8125.78124.65625.76564.65625 2.1094 0 1.3281-.65625 2.10936-.67187.76564-1.8125.76564-.70312 0-1.23437-.3594-.53125-.35936-.8125-.98436-.29688.54686-.76563.85936-.48437.3125-1.10937.3125-1.09375 0-1.73438-.71874-.65625-.73436-.65625-1.98436 0-1.25.65625-1.96876.64063-.73438 1.73438-.73438zm3.79687 1.51564q-.54687 0-.875.3281-.34375.3125-.34375.8594 0 .54686.32813.875.32812.3125.89062.3125.54688 0 .89063-.3125.32812-.32814.32812-.89064 0-.54686-.3125-.85936-.32812-.3125-.90625-.3125zm-3.71875.17186q-.5 0-.79687.26564-.29688.2656-.29688.75 0 .46874.29688.73436.28125.26564.79687.26564.51563 0 .82813-.26564.3125-.26562.3125-.73436 0-.4844-.3125-.75-.3125-.26564-.82813-.26564z"/><path d="m481.4942 515.2448v5.84376h-1.15625l-2.95312-2.76562q-.60938-.5625-1.07813-.82814-.46875-.28124-.875-.28124-.57812 0-.89062.29688-.32813.28126-.32813.8125 0 .57812.39063.90626.39062.3281 1.04687.3281v1.70314q-.78125 0-1.42187-.375-.65625-.375-1.01563-1.04688-.375-.6875-.375-1.54686 0-1.3125.64063-2.0469.625-.73436 1.78125-.73436.64062 0 1.29687.32812.65625.32814 1.53125 1.125l2.04688 1.9375v-3.65626zm-3.53125-6.90624q1.76563 0 2.71875.73438.9375.73436.9375 2.14062 0 1.40624-.92187 2.14064-.92188.73436-2.64063.75h-1.57812q-1.78125 0-2.70313-.7344-.9375-.75-.9375-2.1406 0-1.39064.92188-2.125.92187-.75 2.64062-.76564zm-1.71875 1.70314q-1.0625 0-1.54687.29686-.48438.28124-.48438.89064 0 .59374.46875.8906.45313.28126 1.4375.2969h2.0625q1.04688 0 1.5625-.28126.5-.28124.5-.92188 0-.60936-.48437-.89062-.48438-.28124-1.48438-.28124zm5.25-7.0625v1.6875h-6.53125l.625 2.0156h-1.375l-1.26562-3.53124v-.17186zm-3.40625-6.8594q.64063.6719.64063 1.5469 0 1.1406-.76563 1.8281-.78125.6719-2.09375.6719-.84375 0-1.54687-.3594-.70313-.375-1.09375-1.03124-.39063-.65626-.39063-1.48436 0-.84376.42188-1.5.42187-.65626 1.21875-1.01564.79687-.35936 1.8125-.375h.625q2.14062 0 3.35937 1.0625 1.21875 1.0625 1.29688 3.01564v.40624h-1.40625l-.01563-.375q-.09375-2.20314-2.0625-2.39064zm-.65625 1.14064q0-.42188-.20312-.70314-.21875-.29686-.51563-.4531h-.6875q-.85937 0-1.32812.3281-.48438.32814-.48438.875 0 .51564.46875.84376.45313.32814 1.15625.32814.70313 0 1.15625-.3125.4375-.32814.4375-.90626z"/><path d="m509.1599 515.2448v5.84376h-1.15624l-2.95312-2.76562q-.60938-.5625-1.07814-.82814-.46874-.28124-.875-.28124-.5781 0-.8906.29688-.32814.28126-.32814.8125 0 .57812.39064.90626.3906.3281 1.04686.3281v1.70314q-.78126 0-1.42186-.375-.65626-.375-1.01564-1.04688-.375-.6875-.375-1.54686 0-1.3125.64064-2.0469.625-.73436 1.78124-.73436.64062 0 1.29686.32812.65626.32814 1.53126 1.125l2.04688 1.9375v-3.65626zm-3.53124-6.90624q1.76564 0 2.71874.73438.9375.73436.9375 2.14062 0 1.40624-.92186 2.14064-.92188.73436-2.64064.75h-1.5781q-1.78126 0-2.70314-.7344-.9375-.75-.9375-2.1406 0-1.39064.92188-2.125.92186-.75 2.64062-.76564zm-1.71876 1.70314q-1.0625 0-1.54686.29686-.48438.28124-.48438.89064 0 .59374.46874.8906.45314.28126 1.4375.2969h2.0625q1.0469 0 1.5625-.28126.5-.28124.5-.92188 0-.60936-.48436-.89062-.48438-.28124-1.48438-.28124zm5.25-8.7969v5.84376h-1.15624l-2.95312-2.76562q-.60938-.5625-1.07814-.82814-.46874-.28124-.875-.28124-.5781 0-.8906.29688-.32814.28126-.32814.8125 0 .57812.39064.90626.3906.3281 1.04686.3281v1.70314q-.78126 0-1.42186-.375-.65626-.375-1.01564-1.04688-.375-.6875-.375-1.54686 0-1.3125.64064-2.0469.625-.73436 1.78124-.73436.64062 0 1.29686.32812.65626.32814 1.53126 1.125l2.04688 1.9375v-3.65626zm-3.53124-6.90624q1.76564 0 2.71874.73438.9375.73436.9375 2.14062 0 1.40624-.92186 2.14064-.92188.73436-2.64064.75h-1.5781q-1.78126 0-2.70314-.7344-.9375-.75-.9375-2.1406 0-1.39064.92188-2.125.92186-.75 2.64062-.76564zm-1.71876 1.70314q-1.0625 0-1.54686.29686-.48438.28124-.48438.89064 0 .59374.46874.8906.45314.28126 1.4375.2969h2.0625q1.0469 0 1.5625-.28126.5-.28124.5-.92188 0-.60936-.48436-.89062-.48438-.28124-1.48438-.28124z"/><path d="m536.8256 515.2448v5.84376h-1.1562l-2.95315-2.76562q-.60935-.5625-1.07815-.82814-.4687-.28124-.875-.28124-.5781 0-.8906.29688-.3281.28126-.3281.8125 0 .57812.3906.90626.3906.3281 1.0469.3281v1.70314q-.7813 0-1.4219-.375-.65625-.375-1.0156-1.04688-.375-.6875-.375-1.54686 0-1.3125.6406-2.0469.625-.73436 1.78125-.73436.64065 0 1.29685.32812.6563.32814 1.5313 1.125l2.04685 1.9375v-3.65626zm-3.5312-6.90624q1.7656 0 2.7187.73438.9375.73436.9375 2.14062 0 1.40624-.92185 2.14064-.92185.73436-2.64065.75h-1.5781q-1.78125 0-2.7031-.7344-.9375-.75-.9375-2.1406 0-1.39064.92185-2.125.92185-.75 2.64065-.76564zm-1.7188 1.70314q-1.0625 0-1.54685.29686-.48435.28124-.48435.89064 0 .59374.4687.8906.45315.28126 1.4375.2969h2.0625q1.0469 0 1.5625-.28126.5-.28124.5-.92188 0-.60936-.48435-.89062-.48435-.28124-1.48435-.28124zm5.25-8.7969v5.84376h-1.1562l-2.95315-2.76562q-.60935-.5625-1.07815-.82814-.4687-.28124-.875-.28124-.5781 0-.8906.29688-.3281.28126-.3281.8125 0 .57812.3906.90626.3906.3281 1.0469.3281v1.70314q-.7813 0-1.4219-.375-.65625-.375-1.0156-1.04688-.375-.6875-.375-1.54686 0-1.3125.6406-2.0469.625-.73436 1.78125-.73436.64065 0 1.29685.32812.6563.32814 1.5313 1.125l2.04685 1.9375v-3.65626zm0-5.2656v1.6875h-6.5312l.625 2.0156h-1.375l-1.26565-3.53124v-.17186z"/></g><path d="m79 543.5c0-.5523.447716-1 1-1h10c.552284 0 1 .4477 1 1v10c0 .5523-.447716 1-1 1h-10c-.552284 0-1-.4477-1-1z" fill="#38761d"/><path d="m102.15625 549.03125-1.046875 1.07815v2.8906h-1.125v-8.53125h1.125v4.21875l3.796875-4.21875h1.359375l-3.359375 3.76565 3.625 4.7656h-1.34375zm9.578125 3.34375q-.625.75-1.859375.75-1.015625 0-1.546875-.59375-.53125-.59375-.53125-1.75v-4.125h1.078125v4.09375q0 1.4531 1.171875 1.4531 1.25 0 1.65625-.9375v-4.60935h1.09375v6.34375h-1.03125zm6.15625-4.75q-.25-.03125-.53125-.03125-1.078125 0-1.453125.90625v4.5h-1.078125v-6.34375h1.046875l.015625.73435q.53125-.8437 1.515625-.8437.3125 0 .484375.0781zm2.109375 5.375h-1.078125v-6.34375h1.078125zm-1.171875-8.0156q0-.26565.15625-.45315.171875-.1875.484375-.1875.3125 0 .46875.1875.171875.1875.171875.45315 0 .25-.171875.4375-.15625.17185-.46875.17185-.3125 0-.484375-.17185-.15625-.1875-.15625-.4375zm4.015625 1.67185.03125.79685q.734375-.9062 1.90625-.9062 2.015625 0 2.03125 2.2656v4.1875h-1.09375v-4.2031q0-.6719-.3125-1-.296875-.32815-.953125-.32815-.53125 0-.9375.28125-.390625.28125-.609375.7344v4.5156h-1.078125v-6.34375zm9.89063 6.34375q-.09376-.1875-.15626-.6719-.75.7969-1.79687.7969-.9375 0-1.54687-.53125-.59376-.53125-.59376-1.35935 0-.9844.75-1.5313.75-.54685 2.125-.54685h1.04688v-.5q0-.5625-.34375-.89065-.32813-.3437-1-.3437-.57813 0-.96875.29685-.39062.28125-.39062.70315h-1.09376q0-.4844.32813-.9219.34375-.4375.92187-.6875.57813-.2656 1.26563-.2656 1.10937 0 1.71875.54685.625.54685.65625 1.5v2.92185q0 .875.21875 1.39065v.09375zm-1.79688-.8281q.51562 0 .96875-.26565.45313-.26565.65625-.6875v-1.29685h-.84375q-2 0-2 1.17185 0 .5.34375.79685.34375.2813.875.2813zm2.46875-6.8438h-3.9375v-.8437h3.9375zm3.4375 1.32815.03125.70315q.6875-.8125 1.875-.8125 1.32812 0 1.8125 1.0156.3125-.4531.8125-.7344.51562-.2812 1.20312-.2812 2.09376 0 2.125 2.2031v4.25h-1.07812v-4.1875q0-.6719-.3125-1-.3125-.34375-1.04688-.34375-.60937 0-1.01562.35935-.39062.3594-.45312.9688v4.2031h-1.07813v-4.15625q0-1.375-1.35937-1.375-1.0625 0-1.45313.90625v4.625h-1.09375v-6.34375zm13.89063 6.34375q-.09376-.1875-.15626-.6719-.75.7969-1.79687.7969-.9375 0-1.54687-.53125-.59376-.53125-.59376-1.35935 0-.9844.75-1.5313.75-.54685 2.125-.54685h1.04688v-.5q0-.5625-.34375-.89065-.32813-.3437-1-.3437-.57813 0-.96875.29685-.39062.28125-.39062.70315h-1.09376q0-.4844.32813-.9219.34375-.4375.92187-.6875.57813-.2656 1.26563-.2656 1.10937 0 1.71875.54685.625.54685.65625 1.5v2.92185q0 .875.21875 1.39065v.09375zm-1.79688-.8281q.51562 0 .96875-.26565.45313-.26565.65625-.6875v-1.29685h-.84375q-2 0-2 1.17185 0 .5.34375.79685.34375.2813.875.2813zm2.46875-6.8438h-3.9375v-.8437h3.9375zm6.10937 5.9844q0-.4375-.34374-.6719-.32813-.25-1.15626-.42185-.8125-.17185-1.29687-.42185-.48437-.25-.71875-.57815-.21875-.34375-.21875-.8125 0-.78125.65625-1.3125.65625-.54685 1.6875-.54685 1.07812 0 1.73438.5625.67187.54685.67187 1.4062h-1.07813q0-.4375-.39062-.75-.375-.3281-.9375-.3281-.59375 0-.9375.2656-.32812.25-.32812.6563 0 .3906.3125.5937.3125.20315 1.125.39065.8125.17185 1.3125.42185.5.25.73437.6094.25.3594.25.8594 0 .85935-.6875 1.375-.67187.5156-1.75.5156-.76563 0-1.35937-.2656-.57813-.2813-.90626-.76565-.32812-.48435-.32812-1.04685h1.07812q.03126.54685.4375.875.40626.3125 1.07813.3125.60937 0 .98437-.25.375-.25.375-.6719zm9 0q0-.4375-.34374-.6719-.32813-.25-1.15626-.42185-.8125-.17185-1.29687-.42185-.48437-.25-.71875-.57815-.21875-.34375-.21875-.8125 0-.78125.65625-1.3125.65625-.54685 1.6875-.54685 1.07812 0 1.73438.5625.67187.54685.67187 1.4062h-1.07813q0-.4375-.39062-.75-.375-.3281-.9375-.3281-.59375 0-.9375.2656-.32812.25-.32812.6563 0 .3906.3125.5937.3125.20315 1.125.39065.8125.17185 1.3125.42185.5.25.73437.6094.25.3594.25.8594 0 .85935-.6875 1.375-.67187.5156-1.75.5156-.76563 0-1.35937-.2656-.57813-.2813-.90626-.76565-.32812-.48435-.32812-1.04685h1.07812q.03126.54685.4375.875.40626.3125 1.07813.3125.60937 0 .98437-.25.375-.25.375-.6719zm-1.23437-6.3125.89063-1h.9375v.0625l-1.5 1.6094h-.65626l-1.46874-1.6094v-.0625h.92187zm5.3125 5.0625-.6875.7031v2.2344h-1.07813v-9h1.07813v5.4375l.57813-.6875 1.98437-2.09375h1.3125l-2.46875 2.65625 2.76562 3.6875h-1.28124zm.15625 5.53125-.60938-.42185q.42188-.64065.42188-1.375v-.5469h1.04688v.4531q0 .5313-.23438 1.0469-.23438.53125-.625.84375zm6.70312-2.46875q-1.29687 0-2.10937-.84375-.79687-.85935-.79687-2.28125v-.1875q0-.9531.35937-1.6875.35937-.75 1-1.15625.65625-.42185 1.40625-.42185 1.23438 0 1.92188.8125.6875.8125.6875 2.3281v.4531h-4.29688q.03125.9375.54688 1.51565.53124.57815 1.34374.57815.5625 0 .95313-.2344.40625-.2344.71875-.625l.65625.5156q-.79687 1.2344-2.39063 1.2344zm-.14062-5.6875q-.65625 0-1.10938.4844-.4375.4687-.53124 1.3281h3.17187v-.0781q-.04687-.82815-.45313-1.2813-.39062-.4531-1.07812-.4531zm4.6875 5.5625h-1.07812v-9h1.07812zm1.5625-3.21875q0-1.46875.6875-2.34375.6875-.8906 1.8125-.8906 1.10938 0 1.76562.75v-3.2969h1.07813v9h-1l-.04687-.6875q-.65626.8125-1.8125.8125-1.09376 0-1.79688-.90625-.6875-.90625-.6875-2.35935zm1.07812.125q0 1.07815.4375 1.6875.45313.60935 1.23438.60935 1.03125 0 1.51562-.9375v-2.9062q-.48437-.89065-1.5-.89065-.79687 0-1.25.60935-.4375.6094-.4375 1.82815zm10.09376 3.09375q-.09376-.1875-.15626-.6719-.75.7969-1.79687.7969-.9375 0-1.54687-.53125-.59376-.53125-.59376-1.35935 0-.9844.75-1.5313.75-.54685 2.125-.54685h1.04688v-.5q0-.5625-.34375-.89065-.32813-.3437-1-.3437-.57813 0-.96875.29685-.39062.28125-.39062.70315h-1.09376q0-.4844.32813-.9219.34375-.4375.92187-.6875.57813-.2656 1.26563-.2656 1.10937 0 1.71875.54685.625.54685.65625 1.5v2.92185q0 .875.21875 1.39065v.09375zm-1.79688-.8281q.51562 0 .96875-.26565.45313-.26565.65625-.6875v-1.29685h-.84375q-2 0-2 1.17185 0 .5.34375.79685.34375.2813.875.2813zm8.57812-.8594q0-.4375-.34374-.6719-.32813-.25-1.15626-.42185-.8125-.17185-1.29687-.42185-.48437-.25-.71875-.57815-.21875-.34375-.21875-.8125 0-.78125.65625-1.3125.65625-.54685 1.6875-.54685 1.07812 0 1.73438.5625.67187.54685.67187 1.4062h-1.07813q0-.4375-.39062-.75-.375-.3281-.9375-.3281-.59375 0-.9375.2656-.32812.25-.32812.6563 0 .3906.3125.5937.3125.20315 1.125.39065.8125.17185 1.3125.42185.5.25.73437.6094.25.3594.25.8594 0 .85935-.6875 1.375-.67187.5156-1.75.5156-.76563 0-1.35937-.2656-.57813-.2813-.90626-.76565-.32812-.48435-.32812-1.04685h1.07812q.03126.54685.4375.875.40626.3125 1.07813.3125.60937 0 .98437-.25.375-.25.375-.6719zm5.09376-5.2031q0-.76565.48437-1.26565.5-.5 1.26563-.5.78124 0 1.26562.5.48438.5.48438 1.29685v.4219q0 .7656-.5 1.2656-.48438.4844-1.23438.4844-.76562 0-1.26562-.4844-.5-.5-.5-1.3125zm.8125.4531q0 .4531.25.75.26562.2969.70312.2969.42188 0 .67188-.2813.25-.29685.25-.79685v-.42185q0-.45315-.25-.75-.25-.3125-.6875-.3125-.4375 0-.6875.3125-.25.29685-.25.7656zm3.34374 4.34375q0-.76565.48438-1.25.5-.5 1.26562-.5.76563 0 1.25.5.5.48435.5 1.29685v.4063q0 .7656-.48437 1.2656-.48437.5-1.25.5-.76563 0-1.26563-.4844-.5-.5-.5-1.3125zm.8125.45315q0 .4687.25.7656.26563.2969.70313.2969.42187 0 .67187-.2813.25-.29685.25-.79685v-.4375q0-.46875-.26562-.75-.25-.29685-.67188-.29685-.42187 0-.6875.29685-.25.28125-.25.78125zm-2.95312 1-.625-.39065 4.17188-6.67185.60937.3906z" fill="#1a1a1a"/><path d="m231 543.5c0-.5523.44771-1 1-1h10c.55229 0 1 .4477 1 1v10c0 .5523-.44771 1-1 1h-10c-.55229 0-1-.4477-1-1z" fill="#00cdb2"/><path d="m254.15625 549.03125-1.04687 1.07815v2.8906h-1.125v-8.53125h1.125v4.21875l3.79687-4.21875h1.35937l-3.35937 3.76565 3.625 4.7656h-1.34375zm5.375.73435q0-.92185.35937-1.67185.375-.75 1.03126-1.14065.65624-.4062 1.48437-.4062 1.29687 0 2.09375.8906.8125.8906.8125 2.3906v.07815q0 .92185-.35938 1.65625-.35937.7344-1.01562 1.15625-.65625.40625-1.51562.40625-1.28126 0-2.09376-.8906-.79687-.9063-.79687-2.39065zm1.09375.14065q0 1.04685.48438 1.6875.5.64065 1.3125.64065.82812 0 1.3125-.64065.48437-.65625.48437-1.82815 0-1.0312-.5-1.67185-.48437-.65625-1.3125-.65625-.79687 0-1.29687.6406-.48438.625-.48438 1.82815zm7.96875.15625-.6875.7031v2.2344h-1.07813v-9h1.07813v5.4375l.57813-.6875 1.98437-2.09375h1.3125l-2.46875 2.65625 2.76562 3.6875h-1.28124zm7.92187 1.25q0-.4375-.34374-.6719-.32813-.25-1.15626-.42185-.8125-.17185-1.29687-.42185-.48437-.25-.71875-.57815-.21875-.34375-.21875-.8125 0-.78125.65625-1.3125.65625-.54685 1.6875-.54685 1.07812 0 1.73438.5625.67187.54685.67187 1.4062h-1.07813q0-.4375-.39062-.75-.375-.3281-.9375-.3281-.59375 0-.9375.2656-.32812.25-.32812.6563 0 .3906.3125.5937.3125.20315 1.125.39065.8125.17185 1.3125.42185.5.25.73437.6094.25.3594.25.8594 0 .85935-.6875 1.375-.67187.5156-1.75.5156-.76563 0-1.35937-.2656-.57813-.2813-.90626-.76565-.32812-.48435-.32812-1.04685h1.07812q.03126.54685.4375.875.40626.3125 1.07813.3125.60937 0 .98437-.25.375-.25.375-.6719zm3.32813-4.65625.03125.79685q.73438-.9062 1.90625-.9062 2.01563 0 2.03125 2.2656v4.1875h-1.09375v-4.2031q0-.6719-.3125-1-.29687-.32815-.95313-.32815-.53124 0-.9375.28125-.39062.28125-.60937.7344v4.5156h-1.07813v-6.34375zm8.60937 6.46875q-1.29687 0-2.10937-.84375-.79687-.85935-.79687-2.28125v-.1875q0-.9531.35937-1.6875.35937-.75 1-1.15625.65625-.42185 1.40625-.42185 1.23438 0 1.92188.8125.6875.8125.6875 2.3281v.4531h-4.29688q.03125.9375.54688 1.51565.53124.57815 1.34374.57815.5625 0 .95313-.2344.40625-.2344.71875-.625l.65625.5156q-.79687 1.2344-2.39063 1.2344zm-.14062-5.6875q-.65625 0-1.10938.4844-.4375.4687-.53124 1.3281h3.17187v-.0781q-.04687-.82815-.45313-1.2813-.39062-.4531-1.07812-.4531zm7.20312 3.875q0-.4375-.34374-.6719-.32813-.25-1.15626-.42185-.8125-.17185-1.29687-.42185-.48437-.25-.71875-.57815-.21875-.34375-.21875-.8125 0-.78125.65625-1.3125.65625-.54685 1.6875-.54685 1.07812 0 1.73438.5625.67187.54685.67187 1.4062h-1.07813q0-.4375-.39062-.75-.375-.3281-.9375-.3281-.59375 0-.9375.2656-.32812.25-.32812.6563 0 .3906.3125.5937.3125.20315 1.125.39065.8125.17185 1.3125.42185.5.25.73437.6094.25.3594.25.8594 0 .85935-.6875 1.375-.67187.5156-1.75.5156-.76563 0-1.35937-.2656-.57813-.2813-.90626-.76565-.32812-.48435-.32812-1.04685h1.07812q.03126.54685.4375.875.40626.3125 1.07813.3125.60937 0 .98437-.25.375-.25.375-.6719zm9.21876 1.6875q-.09376-.1875-.15626-.6719-.75.7969-1.79687.7969-.9375 0-1.54687-.53125-.59376-.53125-.59376-1.35935 0-.9844.75-1.5313.75-.54685 2.125-.54685h1.04688v-.5q0-.5625-.34375-.89065-.32813-.3437-1-.3437-.57813 0-.96875.29685-.39062.28125-.39062.70315h-1.09376q0-.4844.32813-.9219.34375-.4375.92187-.6875.57813-.2656 1.26563-.2656 1.10937 0 1.71875.54685.625.54685.65625 1.5v2.92185q0 .875.21875 1.39065v.09375zm-1.79688-.8281q.51562 0 .96875-.26565.45313-.26565.65625-.6875v-1.29685h-.84375q-2 0-2 1.17185 0 .5.34375.79685.34375.2813.875.2813zm6.35938-7.0469v1.53125h1.17187v.84375h-1.17187v3.9219q0 .3906.15624.5781.15626.1875.53126.1875.1875 0 .51562-.0625v.875q-.42188.125-.82812.125-.71876 0-1.09376-.4375-.375-.4531-.375-1.2656v-3.9219h-1.15624v-.84375h1.15624v-1.53125zm3.70312 7.875h-1.07812v-9h1.07812zm3 0h-1.07812v-6.34375h1.07812zm-1.17188-8.0156q0-.26565.15626-.45315.17187-.1875.48437-.1875.3125 0 .46875.1875.17188.1875.17188.45315 0 .25-.17188.4375-.15625.17185-.46875.17185-.3125 0-.48437-.17185-.15626-.1875-.15626-.4375zm4.76563 5.0781-.6875.7031v2.2344h-1.07813v-9h1.07813v5.4375l.57813-.6875 1.98437-2.09375h1.3125l-2.46875 2.65625 2.76562 3.6875h-1.28124zm8.14063 2.3125q-.625.75-1.85938.75-1.01562 0-1.54688-.59375-.53124-.59375-.53124-1.75v-4.125h1.07812v4.09375q0 1.4531 1.17188 1.4531 1.25 0 1.65624-.9375v-4.60935h1.09376v6.34375h-1.03126zm4.10937-5.71875.03125.70315q.6875-.8125 1.875-.8125 1.32812 0 1.8125 1.0156.3125-.4531.8125-.7344.51562-.2812 1.20312-.2812 2.09376 0 2.125 2.2031v4.25h-1.07812v-4.1875q0-.6719-.3125-1-.3125-.34375-1.04688-.34375-.60937 0-1.01562.35935-.39062.3594-.45312.9688v4.2031h-1.07813v-4.15625q0-1.375-1.35937-1.375-1.0625 0-1.45313.90625v4.625h-1.09375v-6.34375zm11.15625 6.34375h-1.07812v-6.34375h1.07812zm-1.17188-8.0156q0-.26565.15626-.45315.17187-.1875.48437-.1875.3125 0 .46875.1875.17188.1875.17188.45315 0 .25-.17188.4375-.15625.17185-.46875.17185-.3125 0-.48437-.17185-.15626-.1875-.15626-.4375zm5.78126 1.125q0-.76565.48437-1.26565.5-.5 1.26563-.5.78124 0 1.26562.5.48438.5.48438 1.29685v.4219q0 .7656-.5 1.2656-.48438.4844-1.23438.4844-.76562 0-1.26562-.4844-.5-.5-.5-1.3125zm.8125.4531q0 .4531.25.75.26562.2969.70312.2969.42188 0 .67188-.2813.25-.29685.25-.79685v-.42185q0-.45315-.25-.75-.25-.3125-.6875-.3125-.4375 0-.6875.3125-.25.29685-.25.7656zm3.34374 4.34375q0-.76565.48438-1.25.5-.5 1.26562-.5.76563 0 1.25.5.5.48435.5 1.29685v.4063q0 .7656-.48437 1.2656-.48437.5-1.25.5-.76563 0-1.26563-.4844-.5-.5-.5-1.3125zm.8125.45315q0 .4687.25.7656.26563.2969.70313.2969.42187 0 .67187-.2813.25-.29685.25-.79685v-.4375q0-.46875-.26562-.75-.25-.29685-.67188-.29685-.42187 0-.6875.29685-.25.28125-.25.78125zm-2.95312 1-.625-.39065 4.17188-6.67185.60937.3906z" fill="#1a1a1a"/><path d="m372 543.5c0-.5523.44772-1 1-1h10c.55228 0 1 .4477 1 1v10c0 .5523-.44772 1-1 1h-10c-.55228 0-1-.4477-1-1z" fill="#e6c900"/><path d="m395.15625 549.03125-1.04687 1.07815v2.8906h-1.125v-8.53125h1.125v4.21875l3.79687-4.21875h1.35937l-3.35937 3.76565 3.625 4.7656h-1.34375zm5.375.73435q0-.92185.35937-1.67185.375-.75 1.03126-1.14065.65624-.4062 1.48437-.4062 1.29687 0 2.09375.8906.8125.8906.8125 2.3906v.07815q0 .92185-.35938 1.65625-.35937.7344-1.01562 1.15625-.65625.40625-1.51562.40625-1.28126 0-2.09376-.8906-.79687-.9063-.79687-2.39065zm1.09375.14065q0 1.04685.48438 1.6875.5.64065 1.3125.64065.82812 0 1.3125-.64065.48437-.65625.48437-1.82815 0-1.0312-.5-1.67185-.48437-.65625-1.3125-.65625-.79687 0-1.29687.6406-.48438.625-.48438 1.82815zm7.96875.15625-.6875.7031v2.2344h-1.07813v-9h1.07813v5.4375l.57813-.6875 1.98437-2.09375h1.3125l-2.46875 2.65625 2.76562 3.6875h-1.28124zm7.92187 1.25q0-.4375-.34374-.6719-.32813-.25-1.15626-.42185-.8125-.17185-1.29687-.42185-.48437-.25-.71875-.57815-.21875-.34375-.21875-.8125 0-.78125.65625-1.3125.65625-.54685 1.6875-.54685 1.07812 0 1.73438.5625.67187.54685.67187 1.4062h-1.07813q0-.4375-.39062-.75-.375-.3281-.9375-.3281-.59375 0-.9375.2656-.32812.25-.32812.6563 0 .3906.3125.5937.3125.20315 1.125.39065.8125.17185 1.3125.42185.5.25.73437.6094.25.3594.25.8594 0 .85935-.6875 1.375-.67187.5156-1.75.5156-.76563 0-1.35937-.2656-.57813-.2813-.90626-.76565-.32812-.48435-.32812-1.04685h1.07812q.03126.54685.4375.875.40626.3125 1.07813.3125.60937 0 .98437-.25.375-.25.375-.6719zm3.32813-4.65625.03125.79685q.73438-.9062 1.90625-.9062 2.01563 0 2.03125 2.2656v4.1875h-1.09375v-4.2031q0-.6719-.3125-1-.29687-.32815-.95313-.32815-.53124 0-.9375.28125-.39062.28125-.60937.7344v4.5156h-1.07813v-6.34375zm8.60937 6.46875q-1.29687 0-2.10937-.84375-.79687-.85935-.79687-2.28125v-.1875q0-.9531.35937-1.6875.35937-.75 1-1.15625.65625-.42185 1.40625-.42185 1.23438 0 1.92188.8125.6875.8125.6875 2.3281v.4531h-4.29688q.03125.9375.54688 1.51565.53124.57815 1.34374.57815.5625 0 .95313-.2344.40625-.2344.71875-.625l.65625.5156q-.79687 1.2344-2.39063 1.2344zm-.14062-5.6875q-.65625 0-1.10938.4844-.4375.4687-.53124 1.3281h3.17187v-.0781q-.04687-.82815-.45313-1.2813-.39062-.4531-1.07812-.4531zm7.20312 3.875q0-.4375-.34374-.6719-.32813-.25-1.15626-.42185-.8125-.17185-1.29687-.42185-.48437-.25-.71875-.57815-.21875-.34375-.21875-.8125 0-.78125.65625-1.3125.65625-.54685 1.6875-.54685 1.07812 0 1.73438.5625.67187.54685.67187 1.4062h-1.07813q0-.4375-.39062-.75-.375-.3281-.9375-.3281-.59375 0-.9375.2656-.32812.25-.32812.6563 0 .3906.3125.5937.3125.20315 1.125.39065.8125.17185 1.3125.42185.5.25.73437.6094.25.3594.25.8594 0 .85935-.6875 1.375-.67187.5156-1.75.5156-.76563 0-1.35937-.2656-.57813-.2813-.90626-.76565-.32812-.48435-.32812-1.04685h1.07812q.03126.54685.4375.875.40626.3125 1.07813.3125.60937 0 .98437-.25.375-.25.375-.6719zm5.04688-1.53125q0-1.48435.6875-2.35935.6875-.875 1.8125-.875 1.15625 0 1.8125.8125l.04688-.70315h1v6.1875q0 1.23435-.73438 1.9375-.73438.71875-1.95312.71875-.6875 0-1.34376-.2969-.65624-.29685-1-.79685l.5625-.65625q.6875.8594 1.70313.8594.78125 0 1.21875-.45315.45312-.4375.45312-1.25v-.54685q-.65624.7656-1.78124.7656-1.10938 0-1.79688-.8906-.6875-.9063-.6875-2.45315zm1.09375.125q0 1.0625.4375 1.6875.4375.60935 1.23437.60935 1.01563 0 1.5-.9375v-2.8906q-.5-.90625-1.5-.90625-.78124 0-1.23437.60935-.4375.6094-.4375 1.82815zm9.23437-2.28125q-.25-.03125-.53124-.03125-1.07813 0-1.45313.90625v4.5h-1.07813v-6.34375h1.04688l.01562.73435q.53126-.8437 1.51563-.8437.3125 0 .48437.0781zm4.84376 5.375q-.09376-.1875-.15626-.6719-.75.7969-1.79687.7969-.9375 0-1.54687-.53125-.59376-.53125-.59376-1.35935 0-.9844.75-1.5313.75-.54685 2.125-.54685h1.04688v-.5q0-.5625-.34375-.89065-.32813-.3437-1-.3437-.57813 0-.96875.29685-.39062.28125-.39062.70315h-1.09376q0-.4844.32813-.9219.34375-.4375.92187-.6875.57813-.2656 1.26563-.2656 1.10937 0 1.71875.54685.625.54685.65625 1.5v2.92185q0 .875.21875 1.39065v.09375zm-1.79688-.8281q.51562 0 .96875-.26565.45313-.26565.65625-.6875v-1.29685h-.84375q-2 0-2 1.17185 0 .5.34375.79685.34375.2813.875.2813zm5.90625-5.51565.03125.79685q.73438-.9062 1.90625-.9062 2.01563 0 2.03125 2.2656v4.1875h-1.09375v-4.2031q0-.6719-.3125-1-.29687-.32815-.95313-.32815-.53124 0-.9375.28125-.39062.28125-.60937.7344v4.5156h-1.07813v-6.34375zm9.89063 5.71875q-.625.75-1.85938.75-1.01562 0-1.54688-.59375-.53124-.59375-.53124-1.75v-4.125h1.07812v4.09375q0 1.4531 1.17188 1.4531 1.25 0 1.65624-.9375v-4.60935h1.09376v6.34375h-1.03126zm4.26562.625h-1.07812v-9h1.07812zm5.73438 0q-.09376-.1875-.15626-.6719-.75.7969-1.79687.7969-.9375 0-1.54687-.53125-.59376-.53125-.59376-1.35935 0-.9844.75-1.5313.75-.54685 2.125-.54685h1.04688v-.5q0-.5625-.34375-.89065-.32813-.3437-1-.3437-.57813 0-.96875.29685-.39062.28125-.39062.70315h-1.09376q0-.4844.32813-.9219.34375-.4375.92187-.6875.57813-.2656 1.26563-.2656 1.10937 0 1.71875.54685.625.54685.65625 1.5v2.92185q0 .875.21875 1.39065v.09375zm-1.79688-.8281q.51562 0 .96875-.26565.45313-.26565.65625-.6875v-1.29685h-.84375q-2 0-2 1.17185 0 .5.34375.79685.34375.2813.875.2813zm8.57812-.8594q0-.4375-.34374-.6719-.32813-.25-1.15626-.42185-.8125-.17185-1.29687-.42185-.48437-.25-.71875-.57815-.21875-.34375-.21875-.8125 0-.78125.65625-1.3125.65625-.54685 1.6875-.54685 1.07812 0 1.73438.5625.67187.54685.67187 1.4062h-1.07813q0-.4375-.39062-.75-.375-.3281-.9375-.3281-.59375 0-.9375.2656-.32812.25-.32812.6563 0 .3906.3125.5937.3125.20315 1.125.39065.8125.17185 1.3125.42185.5.25.73437.6094.25.3594.25.8594 0 .85935-.6875 1.375-.67187.5156-1.75.5156-.76563 0-1.35937-.2656-.57813-.2813-.90626-.76565-.32812-.48435-.32812-1.04685h1.07812q.03126.54685.4375.875.40626.3125 1.07813.3125.60937 0 .98437-.25.375-.25.375-.6719zm5.09376-5.2031q0-.76565.48437-1.26565.5-.5 1.26563-.5.78124 0 1.26562.5.48438.5.48438 1.29685v.4219q0 .7656-.5 1.2656-.48438.4844-1.23438.4844-.76562 0-1.26562-.4844-.5-.5-.5-1.3125zm.8125.4531q0 .4531.25.75.26562.2969.70312.2969.42188 0 .67188-.2813.25-.29685.25-.79685v-.42185q0-.45315-.25-.75-.25-.3125-.6875-.3125-.4375 0-.6875.3125-.25.29685-.25.7656zm3.34374 4.34375q0-.76565.48438-1.25.5-.5 1.26562-.5.76563 0 1.25.5.5.48435.5 1.29685v.4063q0 .7656-.48437 1.2656-.48437.5-1.25.5-.76563 0-1.26563-.4844-.5-.5-.5-1.3125zm.8125.45315q0 .4687.25.7656.26563.2969.70313.2969.42187 0 .67187-.2813.25-.29685.25-.79685v-.4375q0-.46875-.26562-.75-.25-.29685-.67188-.29685-.42187 0-.6875.29685-.25.28125-.25.78125zm-2.95312 1-.625-.39065 4.17188-6.67185.60937.3906z" fill="#1a1a1a"/><path d="m188 562.5c0-.5523.44771-1 1-1h10c.55229 0 1 .4477 1 1v10c0 .5523-.44771 1-1 1h-10c-.55229 0-1-.4477-1-1z" fill="#d03a3c"/><path d="m211.15625 568.03125-1.04687 1.07815v2.8906h-1.125v-8.53125h1.125v4.21875l3.79687-4.21875h1.35937l-3.35937 3.76565 3.625 4.7656h-1.34375zm5.375.73435q0-.92185.35937-1.67185.375-.75 1.03126-1.14065.65624-.4062 1.48437-.4062 1.29687 0 2.09375.8906.8125.8906.8125 2.3906v.07815q0 .92185-.35938 1.65625-.35937.7344-1.01562 1.15625-.65625.40625-1.51562.40625-1.28126 0-2.09376-.8906-.79687-.9063-.79687-2.39065zm1.09375.14065q0 1.04685.48438 1.6875.5.64065 1.3125.64065.82812 0 1.3125-.64065.48437-.65625.48437-1.82815 0-1.0312-.5-1.67185-.48437-.65625-1.3125-.65625-.79687 0-1.29687.6406-.48438.625-.48438 1.82815zm7.96875.15625-.6875.7031v2.2344h-1.07813v-9h1.07813v5.4375l.57813-.6875 1.98437-2.09375h1.3125l-2.46875 2.65625 2.76562 3.6875h-1.28124zm7.92187 1.25q0-.4375-.34374-.6719-.32813-.25-1.15626-.42185-.8125-.17185-1.29687-.42185-.48437-.25-.71875-.57815-.21875-.34375-.21875-.8125 0-.78125.65625-1.3125.65625-.54685 1.6875-.54685 1.07812 0 1.73438.5625.67187.54685.67187 1.4062h-1.07813q0-.4375-.39062-.75-.375-.3281-.9375-.3281-.59375 0-.9375.2656-.32812.25-.32812.6563 0 .3906.3125.5937.3125.20315 1.125.39065.8125.17185 1.3125.42185.5.25.73437.6094.25.3594.25.8594 0 .85935-.6875 1.375-.67187.5156-1.75.5156-.76563 0-1.35937-.2656-.57813-.2813-.90626-.76565-.32812-.48435-.32812-1.04685h1.07812q.03126.54685.4375.875.40626.3125 1.07813.3125.60937 0 .98437-.25.375-.25.375-.6719zm3.32813-4.65625.03125.79685q.73438-.9062 1.90625-.9062 2.01563 0 2.03125 2.2656v4.1875h-1.09375v-4.2031q0-.6719-.3125-1-.29687-.32815-.95313-.32815-.53124 0-.9375.28125-.39062.28125-.60937.7344v4.5156h-1.07813v-6.34375zm8.60937 6.46875q-1.29687 0-2.10937-.84375-.79687-.85935-.79687-2.28125v-.1875q0-.9531.35937-1.6875.35937-.75 1-1.15625.65625-.42185 1.40625-.42185 1.23438 0 1.92188.8125.6875.8125.6875 2.3281v.4531h-4.29688q.03125.9375.54688 1.51565.53124.57815 1.34374.57815.5625 0 .95313-.2344.40625-.2344.71875-.625l.65625.5156q-.79687 1.2344-2.39063 1.2344zm-.14062-5.6875q-.65625 0-1.10938.4844-.4375.4687-.53124 1.3281h3.17187v-.0781q-.04687-.82815-.45313-1.2813-.39062-.4531-1.07812-.4531zm7.20312 3.875q0-.4375-.34374-.6719-.32813-.25-1.15626-.42185-.8125-.17185-1.29687-.42185-.48437-.25-.71875-.57815-.21875-.34375-.21875-.8125 0-.78125.65625-1.3125.65625-.54685 1.6875-.54685 1.07812 0 1.73438.5625.67187.54685.67187 1.4062h-1.07813q0-.4375-.39062-.75-.375-.3281-.9375-.3281-.59375 0-.9375.2656-.32812.25-.32812.6563 0 .3906.3125.5937.3125.20315 1.125.39065.8125.17185 1.3125.42185.5.25.73437.6094.25.3594.25.8594 0 .85935-.6875 1.375-.67187.5156-1.75.5156-.76563 0-1.35937-.2656-.57813-.2813-.90626-.76565-.32812-.48435-.32812-1.04685h1.07812q.03126.54685.4375.875.40626.3125 1.07813.3125.60937 0 .98437-.25.375-.25.375-.6719zm10.67188-1.40625q0 1.45315-.67188 2.34375-.65624.875-1.78124.875-1.20313 0-1.85938-.8594l-.0625.7344h-.98438v-9h1.07813v3.3594q.65625-.8125 1.8125-.8125 1.15625 0 1.8125.875.65625.85935.65625 2.3906zm-1.07812-.125q0-1.10935-.4375-1.70315-.42188-.60935-1.21876-.60935-1.07812 0-1.54687.98435v2.75q.5 1 1.54687 1 .78126 0 1.21876-.60935.4375-.60935.4375-1.8125zm5.78124-2.15625q-.25-.03125-.53124-.03125-1.07813 0-1.45313.90625v4.5h-1.07813v-6.34375h1.04688l.01562.73435q.53126-.8437 1.51563-.8437.3125 0 .48437.0781zm2.10938 5.375h-1.07812v-6.34375h1.07812zm-1.17188-8.0156q0-.26565.15626-.45315.17187-.1875.48437-.1875.3125 0 .46875.1875.17188.1875.17188.45315 0 .25-.17188.4375-.15625.17185-.46875.17185-.3125 0-.48437-.17185-.15626-.1875-.15626-.4375zm4.76563 5.0781-.6875.7031v2.2344h-1.07813v-9h1.07813v5.4375l.57813-.6875 1.98437-2.09375h1.3125l-2.46875 2.65625 2.76562 3.6875h-1.28124zm6.85937 3.0625q-1.29687 0-2.10937-.84375-.79687-.85935-.79687-2.28125v-.1875q0-.9531.35937-1.6875.35937-.75 1-1.15625.65625-.42185 1.40625-.42185 1.23438 0 1.92188.8125.6875.8125.6875 2.3281v.4531h-4.29688q.03125.9375.54688 1.51565.53124.57815 1.34374.57815.5625 0 .95313-.2344.40625-.2344.71875-.625l.65625.5156q-.79687 1.2344-2.39063 1.2344zm-.14062-5.6875q-.65625 0-1.10938.4844-.4375.4687-.53124 1.3281h3.17187v-.0781q-.04687-.82815-.45313-1.2813-.39062-.4531-1.07812-.4531zm4.98438-2.3125v1.53125h1.17187v.84375h-1.17187v3.9219q0 .3906.15624.5781.15626.1875.53126.1875.1875 0 .51562-.0625v.875q-.42188.125-.82812.125-.71876 0-1.09376-.4375-.375-.4531-.375-1.2656v-3.9219h-1.15624v-.84375h1.15624v-1.53125zm5.15624 8q-1.29687 0-2.10937-.84375-.79687-.85935-.79687-2.28125v-.1875q0-.9531.35937-1.6875.35937-.75 1-1.15625.65625-.42185 1.40625-.42185 1.23438 0 1.92188.8125.6875.8125.6875 2.3281v.4531h-4.29688q.03125.9375.54688 1.51565.53124.57815 1.34374.57815.5625 0 .95313-.2344.40625-.2344.71875-.625l.65625.5156q-.79687 1.2344-2.39063 1.2344zm-.14062-5.6875q-.65625 0-1.10938.4844-.4375.4687-.53124 1.3281h3.17187v-.0781q-.04687-.82815-.45313-1.2813-.39062-.4531-1.07812-.4531zm7.20312 3.875q0-.4375-.34374-.6719-.32813-.25-1.15626-.42185-.8125-.17185-1.29687-.42185-.48437-.25-.71875-.57815-.21875-.34375-.21875-.8125 0-.78125.65625-1.3125.65625-.54685 1.6875-.54685 1.07812 0 1.73438.5625.67187.54685.67187 1.4062h-1.07813q0-.4375-.39062-.75-.375-.3281-.9375-.3281-.59375 0-.9375.2656-.32812.25-.32812.6563 0 .3906.3125.5937.3125.20315 1.125.39065.8125.17185 1.3125.42185.5.25.73437.6094.25.3594.25.8594 0 .85935-.6875 1.375-.67187.5156-1.75.5156-.76563 0-1.35937-.2656-.57813-.2813-.90626-.76565-.32812-.48435-.32812-1.04685h1.07812q.03126.54685.4375.875.40626.3125 1.07813.3125.60937 0 .98437-.25.375-.25.375-.6719zm5.09376-5.2031q0-.76565.48437-1.26565.5-.5 1.26563-.5.78124 0 1.26562.5.48438.5.48438 1.29685v.4219q0 .7656-.5 1.2656-.48438.4844-1.23438.4844-.76562 0-1.26562-.4844-.5-.5-.5-1.3125zm.8125.4531q0 .4531.25.75.26562.2969.70312.2969.42188 0 .67188-.2813.25-.29685.25-.79685v-.42185q0-.45315-.25-.75-.25-.3125-.6875-.3125-.4375 0-.6875.3125-.25.29685-.25.7656zm3.34374 4.34375q0-.76565.48438-1.25.5-.5 1.26562-.5.76563 0 1.25.5.5.48435.5 1.29685v.4063q0 .7656-.48437 1.2656-.48437.5-1.25.5-.76563 0-1.26563-.4844-.5-.5-.5-1.3125zm.8125.45315q0 .4687.25.7656.26563.2969.70313.2969.42187 0 .67187-.2813.25-.29685.25-.79685v-.4375q0-.46875-.26562-.75-.25-.29685-.67188-.29685-.42187 0-.6875.29685-.25.28125-.25.78125zm-2.95312 1-.625-.39065 4.17188-6.67185.60937.3906z" fill="#1a1a1a"/><path d="m327 562.5c0-.5523.44772-1 1-1h10c.55228 0 1 .4477 1 1v10c0 .5523-.44772 1-1 1h-10c-.55228 0-1-.4477-1-1z" fill="#5d4948"/><path d="m349.4375 563.46875 2.79688 6.95315 2.78124-6.95315h1.46876v8.53125h-1.125v-3.3281l.10937-3.57815-2.8125 6.90625h-.85937l-2.79688-6.8906.10938 3.5625v3.3281h-1.125v-8.53125zm12.29688 8.53125q-.09376-.1875-.15626-.6719-.75.7969-1.79687.7969-.9375 0-1.54687-.53125-.59376-.53125-.59376-1.35935 0-.9844.75-1.5313.75-.54685 2.125-.54685h1.04688v-.5q0-.5625-.34375-.89065-.32813-.3437-1-.3437-.57813 0-.96875.29685-.39062.28125-.39062.70315h-1.09376q0-.4844.32813-.9219.34375-.4375.92187-.6875.57813-.2656 1.26563-.2656 1.10937 0 1.71875.54685.625.54685.65625 1.5v2.92185q0 .875.21875 1.39065v.09375zm-1.79688-.8281q.51562 0 .96875-.26565.45313-.26565.65625-.6875v-1.29685h-.84375q-2 0-2 1.17185 0 .5.34375.79685.34375.2813.875.2813zm6.0625.8281h-1.07812v-9h1.07812zm3.59375-2.9375-.6875.7031v2.2344h-1.07813v-9h1.07813v5.4375l.57813-.6875 1.98437-2.09375h1.3125l-2.46875 2.65625 2.76562 3.6875h-1.28124zm8.14063 2.9375q-.09376-.1875-.15626-.6719-.75.7969-1.79687.7969-.9375 0-1.54687-.53125-.59376-.53125-.59376-1.35935 0-.9844.75-1.5313.75-.54685 2.125-.54685h1.04688v-.5q0-.5625-.34375-.89065-.32813-.3437-1-.3437-.57813 0-.96875.29685-.39062.28125-.39062.70315h-1.09376q0-.4844.32813-.9219.34375-.4375.92187-.6875.57813-.2656 1.26563-.2656 1.10937 0 1.71875.54685.625.54685.65625 1.5v2.92185q0 .875.21875 1.39065v.09375zm-1.79688-.8281q.51562 0 .96875-.26565.45313-.26565.65625-.6875v-1.29685h-.84375q-2 0-2 1.17185 0 .5.34375.79685.34375.2813.875.2813zm7.67188-6.0625q0-.76565.48437-1.26565.5-.5 1.26563-.5.78124 0 1.26562.5.48438.5.48438 1.29685v.4219q0 .7656-.5 1.2656-.48438.4844-1.23438.4844-.76562 0-1.26562-.4844-.5-.5-.5-1.3125zm.8125.4531q0 .4531.25.75.26562.2969.70312.2969.42188 0 .67188-.2813.25-.29685.25-.79685v-.42185q0-.45315-.25-.75-.25-.3125-.6875-.3125-.4375 0-.6875.3125-.25.29685-.25.7656zm3.34374 4.34375q0-.76565.48438-1.25.5-.5 1.26562-.5.76563 0 1.25.5.5.48435.5 1.29685v.4063q0 .7656-.48437 1.2656-.48437.5-1.25.5-.76563 0-1.26563-.4844-.5-.5-.5-1.3125zm.8125.45315q0 .4687.25.7656.26563.2969.70313.2969.42187 0 .67187-.2813.25-.29685.25-.79685v-.4375q0-.46875-.26562-.75-.25-.29685-.67188-.29685-.42187 0-.6875.29685-.25.28125-.25.78125zm-2.95312 1-.625-.39065 4.17188-6.67185.60937.3906z" fill="#1a1a1a"/></svg>