<svg width="580" height="428" viewBox="0 0 580 428" fill="none" xmlns="http://www.w3.org/2000/svg">
<rect width="580" height="428" fill="#9B9FA0"/>
<path d="M222.016 221V210.082H224.037V211.879H224.184C224.411 211.273 224.783 210.801 225.297 210.463C225.818 210.118 226.436 209.945 227.152 209.945C227.882 209.945 228.49 210.118 228.979 210.463C229.473 210.801 229.841 211.273 230.082 211.879H230.199C230.46 211.286 230.873 210.818 231.439 210.473C232.006 210.121 232.68 209.945 233.461 209.945C234.451 209.945 235.261 210.258 235.893 210.883C236.524 211.501 236.84 212.436 236.84 213.686V221H234.711V213.881C234.711 213.139 234.509 212.605 234.105 212.279C233.702 211.947 233.22 211.781 232.66 211.781C231.97 211.781 231.433 211.996 231.049 212.426C230.671 212.849 230.482 213.386 230.482 214.037V221H228.354V213.744C228.354 213.152 228.171 212.676 227.807 212.318C227.442 211.96 226.964 211.781 226.371 211.781C225.967 211.781 225.593 211.889 225.248 212.104C224.91 212.312 224.636 212.605 224.428 212.982C224.226 213.354 224.125 213.783 224.125 214.271V221H222.016ZM243.568 221.225C242.501 221.225 241.576 220.993 240.795 220.531C240.014 220.069 239.411 219.418 238.988 218.578C238.572 217.732 238.363 216.745 238.363 215.619C238.363 214.499 238.568 213.513 238.979 212.66C239.395 211.807 239.978 211.143 240.727 210.668C241.482 210.186 242.367 209.945 243.383 209.945C244.001 209.945 244.6 210.046 245.18 210.248C245.759 210.45 246.28 210.769 246.742 211.205C247.204 211.641 247.569 212.208 247.836 212.904C248.109 213.601 248.246 214.441 248.246 215.424V216.186H239.564V214.594H247.152L246.166 215.121C246.166 214.451 246.062 213.858 245.854 213.344C245.645 212.829 245.333 212.429 244.916 212.143C244.506 211.85 243.995 211.703 243.383 211.703C242.771 211.703 242.247 211.85 241.811 212.143C241.381 212.436 241.052 212.823 240.824 213.305C240.596 213.786 240.482 214.314 240.482 214.887V215.971C240.482 216.719 240.613 217.354 240.873 217.875C241.133 218.396 241.495 218.793 241.957 219.066C242.426 219.34 242.969 219.477 243.588 219.477C243.992 219.477 244.356 219.418 244.682 219.301C245.014 219.184 245.3 219.008 245.541 218.773C245.782 218.539 245.964 218.249 246.088 217.904L248.1 218.285C247.937 218.871 247.65 219.385 247.24 219.828C246.83 220.271 246.312 220.616 245.688 220.863C245.069 221.104 244.363 221.225 243.568 221.225ZM249.496 221V219.555L255.404 212.035V211.928H249.691V210.082H258.051V211.645L252.367 219.047V219.154H258.246V221H249.496ZM263.09 221.234C262.4 221.234 261.775 221.107 261.215 220.854C260.655 220.593 260.212 220.215 259.887 219.721C259.561 219.226 259.398 218.624 259.398 217.914C259.398 217.296 259.516 216.791 259.75 216.4C259.991 216.003 260.313 215.688 260.717 215.453C261.12 215.219 261.57 215.043 262.064 214.926C262.559 214.809 263.067 214.717 263.588 214.652C264.245 214.581 264.776 214.519 265.18 214.467C265.583 214.415 265.876 214.333 266.059 214.223C266.247 214.105 266.342 213.92 266.342 213.666V213.617C266.342 212.999 266.166 212.52 265.814 212.182C265.469 211.843 264.955 211.674 264.271 211.674C263.562 211.674 262.999 211.83 262.582 212.143C262.172 212.449 261.889 212.797 261.732 213.188L259.73 212.729C259.971 212.064 260.32 211.531 260.775 211.127C261.238 210.717 261.765 210.417 262.357 210.229C262.956 210.04 263.581 209.945 264.232 209.945C264.669 209.945 265.131 209.997 265.619 210.102C266.107 210.199 266.566 210.385 266.996 210.658C267.432 210.925 267.787 211.309 268.061 211.811C268.334 212.312 268.471 212.96 268.471 213.754V221H266.391V219.506H266.312C266.182 219.773 265.977 220.04 265.697 220.307C265.424 220.574 265.072 220.795 264.643 220.971C264.213 221.146 263.695 221.234 263.09 221.234ZM263.549 219.535C264.141 219.535 264.646 219.421 265.062 219.193C265.479 218.959 265.798 218.653 266.02 218.275C266.241 217.898 266.352 217.497 266.352 217.074V215.658C266.273 215.73 266.127 215.798 265.912 215.863C265.697 215.928 265.453 215.984 265.18 216.029C264.906 216.075 264.639 216.117 264.379 216.156C264.118 216.189 263.9 216.215 263.725 216.234C263.314 216.293 262.94 216.384 262.602 216.508C262.263 216.625 261.99 216.801 261.781 217.035C261.579 217.263 261.479 217.566 261.479 217.943C261.479 218.471 261.674 218.868 262.064 219.135C262.455 219.402 262.95 219.535 263.549 219.535ZM276.928 213.939V215.775H270.463V213.939H276.928ZM278.91 225.082V210.082H280.961V211.859H281.137C281.267 211.632 281.446 211.368 281.674 211.068C281.908 210.769 282.234 210.508 282.65 210.287C283.067 210.059 283.611 209.945 284.281 209.945C285.16 209.945 285.941 210.167 286.625 210.609C287.315 211.052 287.859 211.693 288.256 212.533C288.653 213.373 288.852 214.385 288.852 215.57C288.852 216.742 288.656 217.751 288.266 218.598C287.875 219.438 287.335 220.085 286.645 220.541C285.961 220.99 285.176 221.215 284.291 221.215C283.633 221.215 283.093 221.104 282.67 220.883C282.253 220.655 281.924 220.391 281.684 220.092C281.449 219.792 281.267 219.529 281.137 219.301H281.02V225.082H278.91ZM283.832 219.408C284.464 219.408 284.991 219.239 285.414 218.9C285.837 218.562 286.156 218.103 286.371 217.523C286.592 216.938 286.703 216.28 286.703 215.551C286.703 214.828 286.596 214.18 286.381 213.607C286.166 213.035 285.847 212.582 285.424 212.25C285.001 211.918 284.47 211.752 283.832 211.752C283.214 211.752 282.693 211.911 282.27 212.23C281.846 212.543 281.524 212.986 281.303 213.559C281.088 214.125 280.98 214.789 280.98 215.551C280.98 216.312 281.091 216.983 281.312 217.562C281.534 218.142 281.856 218.594 282.279 218.92C282.709 219.245 283.227 219.408 283.832 219.408ZM292.504 206.449V221H290.395V206.449H292.504ZM297.699 221.234C297.009 221.234 296.384 221.107 295.824 220.854C295.264 220.593 294.822 220.215 294.496 219.721C294.171 219.226 294.008 218.624 294.008 217.914C294.008 217.296 294.125 216.791 294.359 216.4C294.6 216.003 294.923 215.688 295.326 215.453C295.73 215.219 296.179 215.043 296.674 214.926C297.169 214.809 297.676 214.717 298.197 214.652C298.855 214.581 299.385 214.519 299.789 214.467C300.193 214.415 300.486 214.333 300.668 214.223C300.857 214.105 300.951 213.92 300.951 213.666V213.617C300.951 212.999 300.775 212.52 300.424 212.182C300.079 211.843 299.564 211.674 298.881 211.674C298.171 211.674 297.608 211.83 297.191 212.143C296.781 212.449 296.498 212.797 296.342 213.188L294.34 212.729C294.581 212.064 294.929 211.531 295.385 211.127C295.847 210.717 296.374 210.417 296.967 210.229C297.566 210.04 298.191 209.945 298.842 209.945C299.278 209.945 299.74 209.997 300.229 210.102C300.717 210.199 301.176 210.385 301.605 210.658C302.042 210.925 302.396 211.309 302.67 211.811C302.943 212.312 303.08 212.96 303.08 213.754V221H301V219.506H300.922C300.792 219.773 300.587 220.04 300.307 220.307C300.033 220.574 299.682 220.795 299.252 220.971C298.822 221.146 298.305 221.234 297.699 221.234ZM298.158 219.535C298.751 219.535 299.255 219.421 299.672 219.193C300.089 218.959 300.408 218.653 300.629 218.275C300.85 217.898 300.961 217.497 300.961 217.074V215.658C300.883 215.73 300.736 215.798 300.521 215.863C300.307 215.928 300.062 215.984 299.789 216.029C299.516 216.075 299.249 216.117 298.988 216.156C298.728 216.189 298.51 216.215 298.334 216.234C297.924 216.293 297.549 216.384 297.211 216.508C296.872 216.625 296.599 216.801 296.391 217.035C296.189 217.263 296.088 217.566 296.088 217.943C296.088 218.471 296.283 218.868 296.674 219.135C297.064 219.402 297.559 219.535 298.158 219.535ZM310.199 210.082V211.791H304.242V210.082H310.199ZM305.834 207.484H307.953V217.797C307.953 218.298 308.057 218.666 308.266 218.9C308.474 219.128 308.809 219.242 309.271 219.242C309.382 219.242 309.499 219.236 309.623 219.223C309.753 219.21 309.883 219.19 310.014 219.164L310.414 220.922C310.199 220.993 309.965 221.049 309.711 221.088C309.457 221.127 309.203 221.146 308.949 221.146C308.005 221.146 307.25 220.883 306.684 220.355C306.117 219.822 305.834 219.112 305.834 218.227V207.484ZM311.723 221V210.082H313.832V221H311.723ZM312.787 208.402C312.416 208.402 312.1 208.279 311.84 208.031C311.579 207.784 311.449 207.488 311.449 207.143C311.449 206.791 311.579 206.492 311.84 206.244C312.1 205.997 312.416 205.873 312.787 205.873C313.152 205.873 313.464 205.997 313.725 206.244C313.992 206.492 314.125 206.791 314.125 207.143C314.125 207.488 313.992 207.784 313.725 208.031C313.464 208.279 313.152 208.402 312.787 208.402ZM321.244 221.215C320.587 221.215 320.046 221.104 319.623 220.883C319.206 220.655 318.878 220.391 318.637 220.092C318.402 219.792 318.22 219.529 318.09 219.301H317.914V221H315.863V206.449H317.973V211.859H318.09C318.22 211.632 318.399 211.368 318.627 211.068C318.861 210.769 319.187 210.508 319.604 210.287C320.02 210.059 320.564 209.945 321.234 209.945C322.113 209.945 322.895 210.167 323.578 210.609C324.268 211.052 324.812 211.693 325.209 212.533C325.606 213.373 325.805 214.385 325.805 215.57C325.805 216.742 325.609 217.751 325.219 218.598C324.828 219.438 324.288 220.085 323.598 220.541C322.914 220.99 322.13 221.215 321.244 221.215ZM320.785 219.408C321.417 219.408 321.944 219.239 322.367 218.9C322.79 218.562 323.109 218.103 323.324 217.523C323.546 216.938 323.656 216.28 323.656 215.551C323.656 214.828 323.549 214.18 323.334 213.607C323.119 213.035 322.8 212.582 322.377 212.25C321.954 211.918 321.423 211.752 320.785 211.752C320.167 211.752 319.646 211.911 319.223 212.23C318.799 212.543 318.477 212.986 318.256 213.559C318.041 214.125 317.934 214.789 317.934 215.551C317.934 216.312 318.044 216.983 318.266 217.562C318.487 218.142 318.809 218.594 319.232 218.92C319.662 219.245 320.18 219.408 320.785 219.408ZM330.512 221.234C329.822 221.234 329.197 221.107 328.637 220.854C328.077 220.593 327.634 220.215 327.309 219.721C326.983 219.226 326.82 218.624 326.82 217.914C326.82 217.296 326.938 216.791 327.172 216.4C327.413 216.003 327.735 215.688 328.139 215.453C328.542 215.219 328.992 215.043 329.486 214.926C329.981 214.809 330.489 214.717 331.01 214.652C331.667 214.581 332.198 214.519 332.602 214.467C333.005 214.415 333.298 214.333 333.48 214.223C333.669 214.105 333.764 213.92 333.764 213.666V213.617C333.764 212.999 333.588 212.52 333.236 212.182C332.891 211.843 332.377 211.674 331.693 211.674C330.984 211.674 330.421 211.83 330.004 212.143C329.594 212.449 329.311 212.797 329.154 213.188L327.152 212.729C327.393 212.064 327.742 211.531 328.197 211.127C328.66 210.717 329.187 210.417 329.779 210.229C330.378 210.04 331.003 209.945 331.654 209.945C332.09 209.945 332.553 209.997 333.041 210.102C333.529 210.199 333.988 210.385 334.418 210.658C334.854 210.925 335.209 211.309 335.482 211.811C335.756 212.312 335.893 212.96 335.893 213.754V221H333.812V219.506H333.734C333.604 219.773 333.399 220.04 333.119 220.307C332.846 220.574 332.494 220.795 332.064 220.971C331.635 221.146 331.117 221.234 330.512 221.234ZM330.971 219.535C331.563 219.535 332.068 219.421 332.484 219.193C332.901 218.959 333.22 218.653 333.441 218.275C333.663 217.898 333.773 217.497 333.773 217.074V215.658C333.695 215.73 333.549 215.798 333.334 215.863C333.119 215.928 332.875 215.984 332.602 216.029C332.328 216.075 332.061 216.117 331.801 216.156C331.54 216.189 331.322 216.215 331.146 216.234C330.736 216.293 330.362 216.384 330.023 216.508C329.685 216.625 329.411 216.801 329.203 217.035C329.001 217.263 328.9 217.566 328.9 217.943C328.9 218.471 329.096 218.868 329.486 219.135C329.877 219.402 330.372 219.535 330.971 219.535ZM344.35 213.939V215.775H337.885V213.939H344.35ZM348.441 206.449V221H346.332V206.449H348.441ZM359.789 210.082L355.844 221H353.559L349.604 210.082H351.879L354.652 218.5H354.77L357.523 210.082H359.789Z" fill="black"/>
</svg>
