<svg fill="none" height="288" viewBox="0 0 580 288" width="580" xmlns="http://www.w3.org/2000/svg"><path d="m0 0h580v288h-580z" fill="#fff"/><path d="m0 0h580v288h-580z" fill="#9b9fa0"/><path d="m218.016 151v-10.918h2.021v1.797h.147c.227-.606.599-1.078 1.113-1.416.521-.345 1.139-.518 1.855-.518.73 0 1.338.173 1.827.518.494.338.862.81 1.103 1.416h.117c.261-.593.674-1.061 1.24-1.406.567-.352 1.241-.528 2.022-.528.99 0 1.8.313 2.432.938.631.618.947 1.553.947 2.803v7.314h-2.129v-7.119c0-.742-.202-1.276-.606-1.602-.403-.332-.885-.498-1.445-.498-.69 0-1.227.215-1.611.645-.378.423-.567.96-.567 1.611v6.963h-2.128v-7.256c0-.592-.183-1.068-.547-1.426-.365-.358-.843-.537-1.436-.537-.404 0-.778.108-1.123.323-.338.208-.612.501-.82.878-.202.372-.303.801-.303 1.289v6.729zm21.552.225c-1.067 0-1.992-.232-2.773-.694s-1.384-1.113-1.807-1.953c-.416-.846-.625-1.833-.625-2.959 0-1.12.205-2.106.616-2.959.416-.853.999-1.517 1.748-1.992.755-.482 1.64-.723 2.656-.723.618 0 1.217.101 1.797.303.579.202 1.1.521 1.562.957s.827 1.003 1.094 1.699c.273.697.41 1.537.41 2.52v.762h-8.682v-1.592h7.588l-.986.527c0-.67-.104-1.263-.312-1.777-.209-.515-.521-.915-.938-1.201-.41-.293-.921-.44-1.533-.44s-1.136.147-1.572.44c-.43.293-.759.68-.987 1.162-.228.481-.342 1.009-.342 1.582v1.084c0 .748.131 1.383.391 1.904s.622.918 1.084 1.191c.469.274 1.012.411 1.631.411.404 0 .768-.059 1.094-.176.332-.117.618-.293.859-.528.241-.234.423-.524.547-.869l2.012.381c-.163.586-.45 1.1-.86 1.543s-.928.788-1.552 1.035c-.619.241-1.325.362-2.12.362zm5.928-.225v-1.445l5.908-7.52v-.107h-5.713v-1.846h8.36v1.563l-5.684 7.402v.107h5.879v1.846zm13.594.234c-.69 0-1.315-.127-1.875-.38-.56-.261-1.003-.639-1.328-1.133-.326-.495-.489-1.097-.489-1.807 0-.618.118-1.123.352-1.514.241-.397.563-.712.967-.947.403-.234.853-.41 1.347-.527.495-.117 1.003-.209 1.524-.274.657-.071 1.188-.133 1.592-.185.403-.052.696-.134.879-.244.188-.118.283-.303.283-.557v-.049c0-.618-.176-1.097-.528-1.435-.345-.339-.859-.508-1.543-.508-.709 0-1.272.156-1.689.469-.41.306-.693.654-.85 1.045l-2.002-.459c.241-.665.59-1.198 1.045-1.602.463-.41.99-.71 1.582-.898.599-.189 1.224-.284 1.875-.284.437 0 .899.052 1.387.157.488.097.947.283 1.377.556.436.267.791.651 1.065 1.153.273.501.41 1.149.41 1.943v7.246h-2.08v-1.494h-.079c-.13.267-.335.534-.615.801-.273.267-.625.488-1.054.664-.43.175-.948.263-1.553.263zm.459-1.699c.592 0 1.097-.114 1.513-.342.417-.234.736-.54.958-.918.221-.377.332-.778.332-1.201v-1.416c-.079.072-.225.14-.44.205s-.459.121-.732.166c-.274.046-.541.088-.801.127-.261.033-.479.059-.654.078-.411.059-.785.15-1.123.274-.339.117-.612.293-.821.527-.202.228-.302.531-.302.908 0 .528.195.925.585 1.192.391.267.886.4 1.485.4zm13.379-5.596v1.836h-6.465v-1.836zm1.982 11.143v-15h2.051v1.777h.176c.13-.227.309-.491.537-.791.234-.299.56-.56.976-.781.417-.228.961-.342 1.631-.342.879 0 1.66.222 2.344.664.69.443 1.234 1.084 1.631 1.924s.596 1.852.596 3.037c0 1.172-.196 2.181-.586 3.028-.391.84-.931 1.487-1.621 1.943-.684.449-1.469.674-2.354.674-.658 0-1.198-.111-1.621-.332-.417-.228-.746-.492-.986-.791-.235-.3-.417-.563-.547-.791h-.117v5.781zm4.922-5.674c.632 0 1.159-.169 1.582-.508.423-.338.742-.797.957-1.377.221-.585.332-1.243.332-1.972 0-.723-.107-1.371-.322-1.944-.215-.572-.534-1.025-.957-1.357s-.954-.498-1.592-.498c-.618 0-1.139.159-1.562.478-.424.313-.746.756-.967 1.329-.215.566-.323 1.23-.323 1.992 0 .761.111 1.432.332 2.011.222.58.544 1.032.967 1.358.43.325.948.488 1.553.488zm8.672-12.959v14.551h-2.109v-14.551zm5.195 14.785c-.69 0-1.315-.127-1.875-.38-.56-.261-1.002-.639-1.328-1.133-.325-.495-.488-1.097-.488-1.807 0-.618.117-1.123.351-1.514.241-.397.564-.712.967-.947.404-.234.853-.41 1.348-.527s1.002-.209 1.523-.274c.658-.071 1.188-.133 1.592-.185s.697-.134.879-.244c.189-.118.283-.303.283-.557v-.049c0-.618-.176-1.097-.527-1.435-.345-.339-.86-.508-1.543-.508-.71 0-1.273.156-1.69.469-.41.306-.693.654-.849 1.045l-2.002-.459c.241-.665.589-1.198 1.045-1.602.462-.41.989-.71 1.582-.898.599-.189 1.224-.284 1.875-.284.436 0 .898.052 1.387.157.488.097.947.283 1.376.556.437.267.791.651 1.065 1.153.273.501.41 1.149.41 1.943v7.246h-2.08v-1.494h-.078c-.13.267-.335.534-.615.801-.274.267-.625.488-1.055.664-.43.175-.947.263-1.553.263zm.459-1.699c.593 0 1.097-.114 1.514-.342.417-.234.736-.54.957-.918.221-.377.332-.778.332-1.201v-1.416c-.078.072-.225.14-.44.205-.214.065-.459.121-.732.166-.273.046-.54.088-.801.127-.26.033-.478.059-.654.078-.41.059-.785.15-1.123.274-.339.117-.612.293-.82.527-.202.228-.303.531-.303.908 0 .528.195.925.586 1.192.39.267.885.4 1.484.4zm12.041-9.453v1.709h-5.957v-1.709zm-4.365-2.598h2.119v10.313c0 .501.104.869.313 1.103.208.228.543.342 1.005.342.111 0 .228-.006.352-.019.13-.013.26-.033.391-.059l.4 1.758c-.215.071-.449.127-.703.166s-.508.058-.762.058c-.944 0-1.699-.263-2.265-.791-.567-.533-.85-1.243-.85-2.128zm5.889 13.516v-10.918h2.109v10.918zm1.064-12.598c-.371 0-.687-.123-.947-.371-.261-.247-.391-.543-.391-.888 0-.352.13-.651.391-.899.26-.247.576-.371.947-.371.365 0 .677.124.938.371.267.248.4.547.4.899 0 .345-.133.641-.4.888-.261.248-.573.371-.938.371zm8.457 12.813c-.657 0-1.198-.111-1.621-.332-.417-.228-.745-.492-.986-.791-.235-.3-.417-.563-.547-.791h-.176v1.699h-2.051v-14.551h2.11v5.41h.117c.13-.227.309-.491.537-.791.234-.299.56-.56.977-.781.416-.228.96-.342 1.63-.342.879 0 1.661.222 2.344.664.69.443 1.234 1.084 1.631 1.924s.596 1.852.596 3.037c0 1.172-.196 2.181-.586 3.028-.391.84-.931 1.487-1.621 1.943-.684.449-1.468.674-2.354.674zm-.459-1.807c.632 0 1.159-.169 1.582-.508.423-.338.742-.797.957-1.377.222-.585.332-1.243.332-1.972 0-.723-.107-1.371-.322-1.944-.215-.572-.534-1.025-.957-1.357s-.954-.498-1.592-.498c-.618 0-1.139.159-1.562.478-.424.313-.746.756-.967 1.329-.215.566-.322 1.23-.322 1.992 0 .761.11 1.432.332 2.011.221.58.543 1.032.966 1.358.43.325.948.488 1.553.488zm9.727 1.826c-.69 0-1.315-.127-1.875-.38-.56-.261-1.003-.639-1.328-1.133-.326-.495-.489-1.097-.489-1.807 0-.618.118-1.123.352-1.514.241-.397.563-.712.967-.947.403-.234.853-.41 1.347-.527.495-.117 1.003-.209 1.524-.274.657-.071 1.188-.133 1.592-.185.403-.052.696-.134.878-.244.189-.118.284-.303.284-.557v-.049c0-.618-.176-1.097-.528-1.435-.345-.339-.859-.508-1.543-.508-.709 0-1.272.156-1.689.469-.41.306-.693.654-.85 1.045l-2.002-.459c.241-.665.59-1.198 1.045-1.602.463-.41.99-.71 1.582-.898.599-.189 1.224-.284 1.875-.284.436 0 .899.052 1.387.157.488.097.947.283 1.377.556.436.267.791.651 1.064 1.153.274.501.411 1.149.411 1.943v7.246h-2.081v-1.494h-.078c-.13.267-.335.534-.615.801-.273.267-.625.488-1.055.664-.429.175-.947.263-1.552.263zm.459-1.699c.592 0 1.097-.114 1.513-.342.417-.234.736-.54.957-.918.222-.377.332-.778.332-1.201v-1.416c-.078.072-.224.14-.439.205s-.459.121-.732.166c-.274.046-.541.088-.801.127-.261.033-.479.059-.655.078-.41.059-.784.15-1.123.274-.338.117-.612.293-.82.527-.202.228-.303.531-.303.908 0 .528.196.925.586 1.192.391.267.886.4 1.485.4zm13.379-5.596v1.836h-6.465v-1.836zm6.679 7.286c-1.067 0-1.992-.232-2.773-.694s-1.384-1.113-1.807-1.953c-.416-.846-.625-1.833-.625-2.959 0-1.12.205-2.106.615-2.959.417-.853 1-1.517 1.749-1.992.755-.482 1.64-.723 2.656-.723.618 0 1.217.101 1.797.303.579.202 1.1.521 1.562.957s.827 1.003 1.094 1.699c.273.697.41 1.537.41 2.52v.762h-8.682v-1.592h7.588l-.986.527c0-.67-.104-1.263-.313-1.777-.208-.515-.52-.915-.937-1.201-.41-.293-.921-.44-1.533-.44s-1.136.147-1.573.44c-.429.293-.758.68-.986 1.162-.228.481-.342 1.009-.342 1.582v1.084c0 .748.131 1.383.391 1.904s.622.918 1.084 1.191c.469.274 1.012.411 1.631.411.403 0 .768-.059 1.094-.176.332-.117.618-.293.859-.528.241-.234.423-.524.547-.869l2.012.381c-.163.586-.45 1.1-.86 1.543s-.928.788-1.553 1.035c-.618.241-1.324.362-2.119.362zm8.272-6.7v6.475h-2.11v-10.918h2.051v1.797h.147c.247-.593.634-1.061 1.162-1.406.527-.352 1.204-.528 2.031-.528.742 0 1.39.157 1.943.469.56.306.993.765 1.299 1.377.313.612.469 1.37.469 2.275v6.934h-2.109v-6.68c0-.787-.209-1.406-.625-1.855-.417-.456-.983-.684-1.7-.684-.488 0-.927.111-1.318.332-.384.215-.687.524-.908.928-.222.404-.332.898-.332 1.484z" fill="#000"/></svg>