<svg width="580" height="288" viewBox="0 0 580 288" fill="none" xmlns="http://www.w3.org/2000/svg">
<rect width="580" height="288" fill="white"/>
<rect width="580" height="288" fill="#9B9FA0"/>
<path d="M218.016 151V140.082H220.037V141.879H220.184C220.411 141.273 220.783 140.801 221.297 140.463C221.818 140.118 222.436 139.945 223.152 139.945C223.882 139.945 224.49 140.118 224.979 140.463C225.473 140.801 225.841 141.273 226.082 141.879H226.199C226.46 141.286 226.873 140.818 227.439 140.473C228.006 140.121 228.68 139.945 229.461 139.945C230.451 139.945 231.261 140.258 231.893 140.883C232.524 141.501 232.84 142.436 232.84 143.686V151H230.711V143.881C230.711 143.139 230.509 142.605 230.105 142.279C229.702 141.947 229.22 141.781 228.66 141.781C227.97 141.781 227.433 141.996 227.049 142.426C226.671 142.849 226.482 143.386 226.482 144.037V151H224.354V143.744C224.354 143.152 224.171 142.676 223.807 142.318C223.442 141.96 222.964 141.781 222.371 141.781C221.967 141.781 221.593 141.889 221.248 142.104C220.91 142.312 220.636 142.605 220.428 142.982C220.226 143.354 220.125 143.783 220.125 144.271V151H218.016ZM239.568 151.225C238.501 151.225 237.576 150.993 236.795 150.531C236.014 150.069 235.411 149.418 234.988 148.578C234.572 147.732 234.363 146.745 234.363 145.619C234.363 144.499 234.568 143.513 234.979 142.66C235.395 141.807 235.978 141.143 236.727 140.668C237.482 140.186 238.367 139.945 239.383 139.945C240.001 139.945 240.6 140.046 241.18 140.248C241.759 140.45 242.28 140.769 242.742 141.205C243.204 141.641 243.569 142.208 243.836 142.904C244.109 143.601 244.246 144.441 244.246 145.424V146.186H235.564V144.594H243.152L242.166 145.121C242.166 144.451 242.062 143.858 241.854 143.344C241.645 142.829 241.333 142.429 240.916 142.143C240.506 141.85 239.995 141.703 239.383 141.703C238.771 141.703 238.247 141.85 237.811 142.143C237.381 142.436 237.052 142.823 236.824 143.305C236.596 143.786 236.482 144.314 236.482 144.887V145.971C236.482 146.719 236.613 147.354 236.873 147.875C237.133 148.396 237.495 148.793 237.957 149.066C238.426 149.34 238.969 149.477 239.588 149.477C239.992 149.477 240.356 149.418 240.682 149.301C241.014 149.184 241.3 149.008 241.541 148.773C241.782 148.539 241.964 148.249 242.088 147.904L244.1 148.285C243.937 148.871 243.65 149.385 243.24 149.828C242.83 150.271 242.312 150.616 241.688 150.863C241.069 151.104 240.363 151.225 239.568 151.225ZM245.496 151V149.555L251.404 142.035V141.928H245.691V140.082H254.051V141.645L248.367 149.047V149.154H254.246V151H245.496ZM259.09 151.234C258.4 151.234 257.775 151.107 257.215 150.854C256.655 150.593 256.212 150.215 255.887 149.721C255.561 149.226 255.398 148.624 255.398 147.914C255.398 147.296 255.516 146.791 255.75 146.4C255.991 146.003 256.313 145.688 256.717 145.453C257.12 145.219 257.57 145.043 258.064 144.926C258.559 144.809 259.067 144.717 259.588 144.652C260.245 144.581 260.776 144.519 261.18 144.467C261.583 144.415 261.876 144.333 262.059 144.223C262.247 144.105 262.342 143.92 262.342 143.666V143.617C262.342 142.999 262.166 142.52 261.814 142.182C261.469 141.843 260.955 141.674 260.271 141.674C259.562 141.674 258.999 141.83 258.582 142.143C258.172 142.449 257.889 142.797 257.732 143.188L255.73 142.729C255.971 142.064 256.32 141.531 256.775 141.127C257.238 140.717 257.765 140.417 258.357 140.229C258.956 140.04 259.581 139.945 260.232 139.945C260.669 139.945 261.131 139.997 261.619 140.102C262.107 140.199 262.566 140.385 262.996 140.658C263.432 140.925 263.787 141.309 264.061 141.811C264.334 142.312 264.471 142.96 264.471 143.754V151H262.391V149.506H262.312C262.182 149.773 261.977 150.04 261.697 150.307C261.424 150.574 261.072 150.795 260.643 150.971C260.213 151.146 259.695 151.234 259.09 151.234ZM259.549 149.535C260.141 149.535 260.646 149.421 261.062 149.193C261.479 148.959 261.798 148.653 262.02 148.275C262.241 147.898 262.352 147.497 262.352 147.074V145.658C262.273 145.73 262.127 145.798 261.912 145.863C261.697 145.928 261.453 145.984 261.18 146.029C260.906 146.075 260.639 146.117 260.379 146.156C260.118 146.189 259.9 146.215 259.725 146.234C259.314 146.293 258.94 146.384 258.602 146.508C258.263 146.625 257.99 146.801 257.781 147.035C257.579 147.263 257.479 147.566 257.479 147.943C257.479 148.471 257.674 148.868 258.064 149.135C258.455 149.402 258.95 149.535 259.549 149.535ZM272.928 143.939V145.775H266.463V143.939H272.928ZM274.91 155.082V140.082H276.961V141.859H277.137C277.267 141.632 277.446 141.368 277.674 141.068C277.908 140.769 278.234 140.508 278.65 140.287C279.067 140.059 279.611 139.945 280.281 139.945C281.16 139.945 281.941 140.167 282.625 140.609C283.315 141.052 283.859 141.693 284.256 142.533C284.653 143.373 284.852 144.385 284.852 145.57C284.852 146.742 284.656 147.751 284.266 148.598C283.875 149.438 283.335 150.085 282.645 150.541C281.961 150.99 281.176 151.215 280.291 151.215C279.633 151.215 279.093 151.104 278.67 150.883C278.253 150.655 277.924 150.391 277.684 150.092C277.449 149.792 277.267 149.529 277.137 149.301H277.02V155.082H274.91ZM279.832 149.408C280.464 149.408 280.991 149.239 281.414 148.9C281.837 148.562 282.156 148.103 282.371 147.523C282.592 146.938 282.703 146.28 282.703 145.551C282.703 144.828 282.596 144.18 282.381 143.607C282.166 143.035 281.847 142.582 281.424 142.25C281.001 141.918 280.47 141.752 279.832 141.752C279.214 141.752 278.693 141.911 278.27 142.23C277.846 142.543 277.524 142.986 277.303 143.559C277.088 144.125 276.98 144.789 276.98 145.551C276.98 146.312 277.091 146.983 277.312 147.562C277.534 148.142 277.856 148.594 278.279 148.92C278.709 149.245 279.227 149.408 279.832 149.408ZM288.504 136.449V151H286.395V136.449H288.504ZM293.699 151.234C293.009 151.234 292.384 151.107 291.824 150.854C291.264 150.593 290.822 150.215 290.496 149.721C290.171 149.226 290.008 148.624 290.008 147.914C290.008 147.296 290.125 146.791 290.359 146.4C290.6 146.003 290.923 145.688 291.326 145.453C291.73 145.219 292.179 145.043 292.674 144.926C293.169 144.809 293.676 144.717 294.197 144.652C294.855 144.581 295.385 144.519 295.789 144.467C296.193 144.415 296.486 144.333 296.668 144.223C296.857 144.105 296.951 143.92 296.951 143.666V143.617C296.951 142.999 296.775 142.52 296.424 142.182C296.079 141.843 295.564 141.674 294.881 141.674C294.171 141.674 293.608 141.83 293.191 142.143C292.781 142.449 292.498 142.797 292.342 143.188L290.34 142.729C290.581 142.064 290.929 141.531 291.385 141.127C291.847 140.717 292.374 140.417 292.967 140.229C293.566 140.04 294.191 139.945 294.842 139.945C295.278 139.945 295.74 139.997 296.229 140.102C296.717 140.199 297.176 140.385 297.605 140.658C298.042 140.925 298.396 141.309 298.67 141.811C298.943 142.312 299.08 142.96 299.08 143.754V151H297V149.506H296.922C296.792 149.773 296.587 150.04 296.307 150.307C296.033 150.574 295.682 150.795 295.252 150.971C294.822 151.146 294.305 151.234 293.699 151.234ZM294.158 149.535C294.751 149.535 295.255 149.421 295.672 149.193C296.089 148.959 296.408 148.653 296.629 148.275C296.85 147.898 296.961 147.497 296.961 147.074V145.658C296.883 145.73 296.736 145.798 296.521 145.863C296.307 145.928 296.062 145.984 295.789 146.029C295.516 146.075 295.249 146.117 294.988 146.156C294.728 146.189 294.51 146.215 294.334 146.234C293.924 146.293 293.549 146.384 293.211 146.508C292.872 146.625 292.599 146.801 292.391 147.035C292.189 147.263 292.088 147.566 292.088 147.943C292.088 148.471 292.283 148.868 292.674 149.135C293.064 149.402 293.559 149.535 294.158 149.535ZM306.199 140.082V141.791H300.242V140.082H306.199ZM301.834 137.484H303.953V147.797C303.953 148.298 304.057 148.666 304.266 148.9C304.474 149.128 304.809 149.242 305.271 149.242C305.382 149.242 305.499 149.236 305.623 149.223C305.753 149.21 305.883 149.19 306.014 149.164L306.414 150.922C306.199 150.993 305.965 151.049 305.711 151.088C305.457 151.127 305.203 151.146 304.949 151.146C304.005 151.146 303.25 150.883 302.684 150.355C302.117 149.822 301.834 149.112 301.834 148.227V137.484ZM307.723 151V140.082H309.832V151H307.723ZM308.787 138.402C308.416 138.402 308.1 138.279 307.84 138.031C307.579 137.784 307.449 137.488 307.449 137.143C307.449 136.791 307.579 136.492 307.84 136.244C308.1 135.997 308.416 135.873 308.787 135.873C309.152 135.873 309.464 135.997 309.725 136.244C309.992 136.492 310.125 136.791 310.125 137.143C310.125 137.488 309.992 137.784 309.725 138.031C309.464 138.279 309.152 138.402 308.787 138.402ZM317.244 151.215C316.587 151.215 316.046 151.104 315.623 150.883C315.206 150.655 314.878 150.391 314.637 150.092C314.402 149.792 314.22 149.529 314.09 149.301H313.914V151H311.863V136.449H313.973V141.859H314.09C314.22 141.632 314.399 141.368 314.627 141.068C314.861 140.769 315.187 140.508 315.604 140.287C316.02 140.059 316.564 139.945 317.234 139.945C318.113 139.945 318.895 140.167 319.578 140.609C320.268 141.052 320.812 141.693 321.209 142.533C321.606 143.373 321.805 144.385 321.805 145.57C321.805 146.742 321.609 147.751 321.219 148.598C320.828 149.438 320.288 150.085 319.598 150.541C318.914 150.99 318.13 151.215 317.244 151.215ZM316.785 149.408C317.417 149.408 317.944 149.239 318.367 148.9C318.79 148.562 319.109 148.103 319.324 147.523C319.546 146.938 319.656 146.28 319.656 145.551C319.656 144.828 319.549 144.18 319.334 143.607C319.119 143.035 318.8 142.582 318.377 142.25C317.954 141.918 317.423 141.752 316.785 141.752C316.167 141.752 315.646 141.911 315.223 142.23C314.799 142.543 314.477 142.986 314.256 143.559C314.041 144.125 313.934 144.789 313.934 145.551C313.934 146.312 314.044 146.983 314.266 147.562C314.487 148.142 314.809 148.594 315.232 148.92C315.662 149.245 316.18 149.408 316.785 149.408ZM326.512 151.234C325.822 151.234 325.197 151.107 324.637 150.854C324.077 150.593 323.634 150.215 323.309 149.721C322.983 149.226 322.82 148.624 322.82 147.914C322.82 147.296 322.938 146.791 323.172 146.4C323.413 146.003 323.735 145.688 324.139 145.453C324.542 145.219 324.992 145.043 325.486 144.926C325.981 144.809 326.489 144.717 327.01 144.652C327.667 144.581 328.198 144.519 328.602 144.467C329.005 144.415 329.298 144.333 329.48 144.223C329.669 144.105 329.764 143.92 329.764 143.666V143.617C329.764 142.999 329.588 142.52 329.236 142.182C328.891 141.843 328.377 141.674 327.693 141.674C326.984 141.674 326.421 141.83 326.004 142.143C325.594 142.449 325.311 142.797 325.154 143.188L323.152 142.729C323.393 142.064 323.742 141.531 324.197 141.127C324.66 140.717 325.187 140.417 325.779 140.229C326.378 140.04 327.003 139.945 327.654 139.945C328.09 139.945 328.553 139.997 329.041 140.102C329.529 140.199 329.988 140.385 330.418 140.658C330.854 140.925 331.209 141.309 331.482 141.811C331.756 142.312 331.893 142.96 331.893 143.754V151H329.812V149.506H329.734C329.604 149.773 329.399 150.04 329.119 150.307C328.846 150.574 328.494 150.795 328.064 150.971C327.635 151.146 327.117 151.234 326.512 151.234ZM326.971 149.535C327.563 149.535 328.068 149.421 328.484 149.193C328.901 148.959 329.22 148.653 329.441 148.275C329.663 147.898 329.773 147.497 329.773 147.074V145.658C329.695 145.73 329.549 145.798 329.334 145.863C329.119 145.928 328.875 145.984 328.602 146.029C328.328 146.075 328.061 146.117 327.801 146.156C327.54 146.189 327.322 146.215 327.146 146.234C326.736 146.293 326.362 146.384 326.023 146.508C325.685 146.625 325.411 146.801 325.203 147.035C325.001 147.263 324.9 147.566 324.9 147.943C324.9 148.471 325.096 148.868 325.486 149.135C325.877 149.402 326.372 149.535 326.971 149.535ZM340.35 143.939V145.775H333.885V143.939H340.35ZM347.029 151.225C345.962 151.225 345.037 150.993 344.256 150.531C343.475 150.069 342.872 149.418 342.449 148.578C342.033 147.732 341.824 146.745 341.824 145.619C341.824 144.499 342.029 143.513 342.439 142.66C342.856 141.807 343.439 141.143 344.188 140.668C344.943 140.186 345.828 139.945 346.844 139.945C347.462 139.945 348.061 140.046 348.641 140.248C349.22 140.45 349.741 140.769 350.203 141.205C350.665 141.641 351.03 142.208 351.297 142.904C351.57 143.601 351.707 144.441 351.707 145.424V146.186H343.025V144.594H350.613L349.627 145.121C349.627 144.451 349.523 143.858 349.314 143.344C349.106 142.829 348.794 142.429 348.377 142.143C347.967 141.85 347.456 141.703 346.844 141.703C346.232 141.703 345.708 141.85 345.271 142.143C344.842 142.436 344.513 142.823 344.285 143.305C344.057 143.786 343.943 144.314 343.943 144.887V145.971C343.943 146.719 344.074 147.354 344.334 147.875C344.594 148.396 344.956 148.793 345.418 149.066C345.887 149.34 346.43 149.477 347.049 149.477C347.452 149.477 347.817 149.418 348.143 149.301C348.475 149.184 348.761 149.008 349.002 148.773C349.243 148.539 349.425 148.249 349.549 147.904L351.561 148.285C351.398 148.871 351.111 149.385 350.701 149.828C350.291 150.271 349.773 150.616 349.148 150.863C348.53 151.104 347.824 151.225 347.029 151.225ZM355.301 144.525V151H353.191V140.082H355.242V141.879H355.389C355.636 141.286 356.023 140.818 356.551 140.473C357.078 140.121 357.755 139.945 358.582 139.945C359.324 139.945 359.972 140.102 360.525 140.414C361.085 140.72 361.518 141.179 361.824 141.791C362.137 142.403 362.293 143.161 362.293 144.066V151H360.184V144.32C360.184 143.533 359.975 142.914 359.559 142.465C359.142 142.009 358.576 141.781 357.859 141.781C357.371 141.781 356.932 141.892 356.541 142.113C356.157 142.328 355.854 142.637 355.633 143.041C355.411 143.445 355.301 143.939 355.301 144.525Z" fill="black"/>
</svg>
